<?xml version="1.0" encoding="utf-8"?>
<svg xmlns="http://www.w3.org/2000/svg" xmlns:xlink="http://www.w3.org/1999/xlink" width="576" height="384" viewBox="0 0 2304 1536">
<defs>
  <clipPath id="clip830">
    <rect x="0" y="0" width="2304" height="1536"/>
  </clipPath>
</defs>
<path clip-path="url(#clip830)" d="
M0 1536 L2304 1536 L2304 0 L0 0  Z
  " fill="#ffffff" fill-rule="evenodd" fill-opacity="1"/>
<defs>
  <clipPath id="clip831">
    <rect x="460" y="0" width="1614" height="1536"/>
  </clipPath>
</defs>
<path clip-path="url(#clip830)" d="
M251.804 1347.54 L2256.76 1347.54 L2256.76 47.2441 L251.804 47.2441  Z
  " fill="#ffffff" fill-rule="evenodd" fill-opacity="1"/>
<defs>
  <clipPath id="clip832">
    <rect x="251" y="47" width="2006" height="1301"/>
  </clipPath>
</defs>
<polyline clip-path="url(#clip832)" style="stroke:#000000; stroke-linecap:butt; stroke-linejoin:round; stroke-width:2; stroke-opacity:0.1; fill:none" points="
  749.643,1347.54 749.643,47.2441 
  "/>
<polyline clip-path="url(#clip832)" style="stroke:#000000; stroke-linecap:butt; stroke-linejoin:round; stroke-width:2; stroke-opacity:0.1; fill:none" points="
  1767.43,1347.54 1767.43,47.2441 
  "/>
<polyline clip-path="url(#clip830)" style="stroke:#000000; stroke-linecap:butt; stroke-linejoin:round; stroke-width:4; stroke-opacity:1; fill:none" points="
  251.804,1347.54 2256.76,1347.54 
  "/>
<polyline clip-path="url(#clip830)" style="stroke:#000000; stroke-linecap:butt; stroke-linejoin:round; stroke-width:4; stroke-opacity:1; fill:none" points="
  749.643,1347.54 749.643,1328.64 
  "/>
<polyline clip-path="url(#clip830)" style="stroke:#000000; stroke-linecap:butt; stroke-linejoin:round; stroke-width:4; stroke-opacity:1; fill:none" points="
  1767.43,1347.54 1767.43,1328.64 
  "/>
<path clip-path="url(#clip830)" d="M714.626 1420.89 L722.265 1420.89 L722.265 1394.53 L713.955 1396.19 L713.955 1391.94 L722.219 1390.27 L726.895 1390.27 L726.895 1420.89 L734.534 1420.89 L734.534 1424.83 L714.626 1424.83 L714.626 1420.89 Z" fill="#000000" fill-rule="evenodd" fill-opacity="1" /><path clip-path="url(#clip830)" d="M753.978 1393.35 Q750.367 1393.35 748.538 1396.91 Q746.733 1400.45 746.733 1407.58 Q746.733 1414.69 748.538 1418.25 Q750.367 1421.8 753.978 1421.8 Q757.612 1421.8 759.418 1418.25 Q761.246 1414.69 761.246 1407.58 Q761.246 1400.45 759.418 1396.91 Q757.612 1393.35 753.978 1393.35 M753.978 1389.64 Q759.788 1389.64 762.844 1394.25 Q765.922 1398.83 765.922 1407.58 Q765.922 1416.31 762.844 1420.92 Q759.788 1425.5 753.978 1425.5 Q748.168 1425.5 745.089 1420.92 Q742.033 1416.31 742.033 1407.58 Q742.033 1398.83 745.089 1394.25 Q748.168 1389.64 753.978 1389.64 Z" fill="#000000" fill-rule="evenodd" fill-opacity="1" /><path clip-path="url(#clip830)" d="M775.627 1371.84 Q772.693 1371.84 771.207 1374.74 Q769.74 1377.61 769.74 1383.41 Q769.74 1389.18 771.207 1392.08 Q772.693 1394.95 775.627 1394.95 Q778.58 1394.95 780.047 1392.08 Q781.533 1389.18 781.533 1383.41 Q781.533 1377.61 780.047 1374.74 Q778.58 1371.84 775.627 1371.84 M775.627 1368.83 Q780.348 1368.83 782.83 1372.57 Q785.332 1376.3 785.332 1383.41 Q785.332 1390.5 782.83 1394.24 Q780.348 1397.96 775.627 1397.96 Q770.906 1397.96 768.405 1394.24 Q765.922 1390.5 765.922 1383.41 Q765.922 1376.3 768.405 1372.57 Q770.906 1368.83 775.627 1368.83 Z" fill="#000000" fill-rule="evenodd" fill-opacity="1" /><path clip-path="url(#clip830)" d="M1732.87 1420.89 L1740.51 1420.89 L1740.51 1394.53 L1732.2 1396.19 L1732.2 1391.94 L1740.47 1390.27 L1745.14 1390.27 L1745.14 1420.89 L1752.78 1420.89 L1752.78 1424.83 L1732.87 1424.83 L1732.87 1420.89 Z" fill="#000000" fill-rule="evenodd" fill-opacity="1" /><path clip-path="url(#clip830)" d="M1772.22 1393.35 Q1768.61 1393.35 1766.78 1396.91 Q1764.98 1400.45 1764.98 1407.58 Q1764.98 1414.69 1766.78 1418.25 Q1768.61 1421.8 1772.22 1421.8 Q1775.86 1421.8 1777.66 1418.25 Q1779.49 1414.69 1779.49 1407.58 Q1779.49 1400.45 1777.66 1396.91 Q1775.86 1393.35 1772.22 1393.35 M1772.22 1389.64 Q1778.03 1389.64 1781.09 1394.25 Q1784.17 1398.83 1784.17 1407.58 Q1784.17 1416.31 1781.09 1420.92 Q1778.03 1425.5 1772.22 1425.5 Q1766.41 1425.5 1763.34 1420.92 Q1760.28 1416.31 1760.28 1407.58 Q1760.28 1398.83 1763.34 1394.25 Q1766.41 1389.64 1772.22 1389.64 Z" fill="#000000" fill-rule="evenodd" fill-opacity="1" /><path clip-path="url(#clip830)" d="M1796.86 1382.28 Q1799.59 1382.86 1801.11 1384.7 Q1802.66 1386.55 1802.66 1389.26 Q1802.66 1393.41 1799.8 1395.69 Q1796.94 1397.96 1791.67 1397.96 Q1789.91 1397.96 1788.02 1397.61 Q1786.16 1397.27 1784.17 1396.57 L1784.17 1392.9 Q1785.75 1393.83 1787.63 1394.3 Q1789.51 1394.77 1791.56 1394.77 Q1795.13 1394.77 1797 1393.36 Q1798.88 1391.95 1798.88 1389.26 Q1798.88 1386.77 1797.13 1385.38 Q1795.4 1383.97 1792.29 1383.97 L1789.02 1383.97 L1789.02 1380.85 L1792.44 1380.85 Q1795.25 1380.85 1796.73 1379.74 Q1798.22 1378.61 1798.22 1376.5 Q1798.22 1374.34 1796.68 1373.19 Q1795.15 1372.03 1792.29 1372.03 Q1790.73 1372.03 1788.95 1372.37 Q1787.16 1372.7 1785.02 1373.42 L1785.02 1370.03 Q1787.18 1369.43 1789.06 1369.13 Q1790.96 1368.83 1792.63 1368.83 Q1796.96 1368.83 1799.48 1370.81 Q1802 1372.76 1802 1376.11 Q1802 1378.44 1800.66 1380.06 Q1799.33 1381.66 1796.86 1382.28 Z" fill="#000000" fill-rule="evenodd" fill-opacity="1" /><path clip-path="url(#clip830)" d="M1178.03 1461.87 L1208.08 1461.87 L1208.08 1467.28 L1184.46 1467.28 L1184.46 1481.34 L1207.09 1481.34 L1207.09 1486.76 L1184.46 1486.76 L1184.46 1503.97 L1208.65 1503.97 L1208.65 1509.39 L1178.03 1509.39 L1178.03 1461.87 Z" fill="#000000" fill-rule="evenodd" fill-opacity="1" /><path clip-path="url(#clip830)" d="M1239.62 1479.21 Q1238.64 1478.64 1237.46 1478.38 Q1236.31 1478.1 1234.91 1478.1 Q1229.95 1478.1 1227.27 1481.34 Q1224.63 1484.56 1224.63 1490.61 L1224.63 1509.39 L1218.74 1509.39 L1218.74 1473.74 L1224.63 1473.74 L1224.63 1479.28 Q1226.48 1476.03 1229.44 1474.47 Q1232.4 1472.88 1236.63 1472.88 Q1237.24 1472.88 1237.97 1472.97 Q1238.7 1473.04 1239.59 1473.2 L1239.62 1479.21 Z" fill="#000000" fill-rule="evenodd" fill-opacity="1" /><path clip-path="url(#clip830)" d="M1265.28 1479.21 Q1264.29 1478.64 1263.11 1478.38 Q1261.97 1478.1 1260.57 1478.1 Q1255.6 1478.1 1252.93 1481.34 Q1250.29 1484.56 1250.29 1490.61 L1250.29 1509.39 L1244.4 1509.39 L1244.4 1473.74 L1250.29 1473.74 L1250.29 1479.28 Q1252.13 1476.03 1255.09 1474.47 Q1258.05 1472.88 1262.28 1472.88 Q1262.89 1472.88 1263.62 1472.97 Q1264.35 1473.04 1265.24 1473.2 L1265.28 1479.21 Z" fill="#000000" fill-rule="evenodd" fill-opacity="1" /><path clip-path="url(#clip830)" d="M1283.8 1477.84 Q1279.09 1477.84 1276.35 1481.54 Q1273.62 1485.2 1273.62 1491.59 Q1273.62 1497.99 1276.32 1501.68 Q1279.06 1505.34 1283.8 1505.34 Q1288.48 1505.34 1291.22 1501.65 Q1293.95 1497.96 1293.95 1491.59 Q1293.95 1485.26 1291.22 1481.57 Q1288.48 1477.84 1283.8 1477.84 M1283.8 1472.88 Q1291.44 1472.88 1295.8 1477.84 Q1300.16 1482.81 1300.16 1491.59 Q1300.16 1500.35 1295.8 1505.34 Q1291.44 1510.31 1283.8 1510.31 Q1276.13 1510.31 1271.77 1505.34 Q1267.44 1500.35 1267.44 1491.59 Q1267.44 1482.81 1271.77 1477.84 Q1276.13 1472.88 1283.8 1472.88 Z" fill="#000000" fill-rule="evenodd" fill-opacity="1" /><path clip-path="url(#clip830)" d="M1330.53 1479.21 Q1329.54 1478.64 1328.36 1478.38 Q1327.22 1478.1 1325.81 1478.1 Q1320.85 1478.1 1318.18 1481.34 Q1315.53 1484.56 1315.53 1490.61 L1315.53 1509.39 L1309.65 1509.39 L1309.65 1473.74 L1315.53 1473.74 L1315.53 1479.28 Q1317.38 1476.03 1320.34 1474.47 Q1323.3 1472.88 1327.53 1472.88 Q1328.14 1472.88 1328.87 1472.97 Q1329.6 1473.04 1330.49 1473.2 L1330.53 1479.21 Z" fill="#000000" fill-rule="evenodd" fill-opacity="1" /><polyline clip-path="url(#clip832)" style="stroke:#000000; stroke-linecap:butt; stroke-linejoin:round; stroke-width:2; stroke-opacity:0.1; fill:none" points="
  251.804,1076.32 2256.76,1076.32 
  "/>
<polyline clip-path="url(#clip832)" style="stroke:#000000; stroke-linecap:butt; stroke-linejoin:round; stroke-width:2; stroke-opacity:0.1; fill:none" points="
  251.804,255.753 2256.76,255.753 
  "/>
<polyline clip-path="url(#clip830)" style="stroke:#000000; stroke-linecap:butt; stroke-linejoin:round; stroke-width:4; stroke-opacity:1; fill:none" points="
  251.804,1347.54 251.804,47.2441 
  "/>
<polyline clip-path="url(#clip830)" style="stroke:#000000; stroke-linecap:butt; stroke-linejoin:round; stroke-width:4; stroke-opacity:1; fill:none" points="
  251.804,1076.32 270.702,1076.32 
  "/>
<polyline clip-path="url(#clip830)" style="stroke:#000000; stroke-linecap:butt; stroke-linejoin:round; stroke-width:4; stroke-opacity:1; fill:none" points="
  251.804,255.753 270.702,255.753 
  "/>
<path clip-path="url(#clip830)" d="M115.411 1096.11 L123.05 1096.11 L123.05 1069.74 L114.74 1071.41 L114.74 1067.15 L123.004 1065.49 L127.68 1065.49 L127.68 1096.11 L135.319 1096.11 L135.319 1100.05 L115.411 1100.05 L115.411 1096.11 Z" fill="#000000" fill-rule="evenodd" fill-opacity="1" /><path clip-path="url(#clip830)" d="M154.763 1068.56 Q151.152 1068.56 149.323 1072.13 Q147.518 1075.67 147.518 1082.8 Q147.518 1089.91 149.323 1093.47 Q151.152 1097.01 154.763 1097.01 Q158.397 1097.01 160.203 1093.47 Q162.032 1089.91 162.032 1082.8 Q162.032 1075.67 160.203 1072.13 Q158.397 1068.56 154.763 1068.56 M154.763 1064.86 Q160.573 1064.86 163.629 1069.47 Q166.707 1074.05 166.707 1082.8 Q166.707 1091.53 163.629 1096.13 Q160.573 1100.72 154.763 1100.72 Q148.953 1100.72 145.874 1096.13 Q142.819 1091.53 142.819 1082.8 Q142.819 1074.05 145.874 1069.47 Q148.953 1064.86 154.763 1064.86 Z" fill="#000000" fill-rule="evenodd" fill-opacity="1" /><path clip-path="url(#clip830)" d="M166.707 1058.96 L190.819 1058.96 L190.819 1062.16 L166.707 1062.16 L166.707 1058.96 Z" fill="#000000" fill-rule="evenodd" fill-opacity="1" /><path clip-path="url(#clip830)" d="M209.458 1047.87 L199.866 1062.86 L209.458 1062.86 L209.458 1047.87 M208.461 1044.56 L213.238 1044.56 L213.238 1062.86 L217.244 1062.86 L217.244 1066.01 L213.238 1066.01 L213.238 1072.64 L209.458 1072.64 L209.458 1066.01 L196.781 1066.01 L196.781 1062.35 L208.461 1044.56 Z" fill="#000000" fill-rule="evenodd" fill-opacity="1" /><path clip-path="url(#clip830)" d="M116.333 275.545 L123.972 275.545 L123.972 249.18 L115.662 250.846 L115.662 246.587 L123.926 244.92 L128.601 244.92 L128.601 275.545 L136.24 275.545 L136.24 279.48 L116.333 279.48 L116.333 275.545 Z" fill="#000000" fill-rule="evenodd" fill-opacity="1" /><path clip-path="url(#clip830)" d="M155.685 247.999 Q152.074 247.999 150.245 251.564 Q148.439 255.106 148.439 262.235 Q148.439 269.342 150.245 272.906 Q152.074 276.448 155.685 276.448 Q159.319 276.448 161.124 272.906 Q162.953 269.342 162.953 262.235 Q162.953 255.106 161.124 251.564 Q159.319 247.999 155.685 247.999 M155.685 244.295 Q161.495 244.295 164.55 248.902 Q167.629 253.485 167.629 262.235 Q167.629 270.962 164.55 275.568 Q161.495 280.152 155.685 280.152 Q149.875 280.152 146.796 275.568 Q143.74 270.962 143.74 262.235 Q143.74 253.485 146.796 248.902 Q149.875 244.295 155.685 244.295 Z" fill="#000000" fill-rule="evenodd" fill-opacity="1" /><path clip-path="url(#clip830)" d="M167.629 238.397 L191.741 238.397 L191.741 241.594 L167.629 241.594 L167.629 238.397 Z" fill="#000000" fill-rule="evenodd" fill-opacity="1" /><path clip-path="url(#clip830)" d="M211.451 236.93 Q214.178 237.513 215.702 239.356 Q217.244 241.199 217.244 243.907 Q217.244 248.064 214.385 250.34 Q211.526 252.615 206.26 252.615 Q204.492 252.615 202.612 252.258 Q200.75 251.92 198.756 251.224 L198.756 247.556 Q200.336 248.478 202.217 248.948 Q204.097 249.418 206.147 249.418 Q209.721 249.418 211.583 248.007 Q213.464 246.597 213.464 243.907 Q213.464 241.425 211.714 240.033 Q209.984 238.622 206.881 238.622 L203.608 238.622 L203.608 235.5 L207.031 235.5 Q209.834 235.5 211.32 234.391 Q212.805 233.262 212.805 231.156 Q212.805 228.993 211.263 227.846 Q209.74 226.679 206.881 226.679 Q205.32 226.679 203.533 227.018 Q201.746 227.357 199.602 228.071 L199.602 224.686 Q201.765 224.084 203.646 223.783 Q205.546 223.482 207.219 223.482 Q211.545 223.482 214.065 225.457 Q216.586 227.413 216.586 230.761 Q216.586 233.093 215.25 234.71 Q213.915 236.309 211.451 236.93 Z" fill="#000000" fill-rule="evenodd" fill-opacity="1" /><path clip-path="url(#clip830)" d="M18.4042 827.219 L18.4042 787.02 L23.815 787.02 L23.815 803.889 L65.9242 803.889 L65.9242 810.35 L23.815 810.35 L23.815 827.219 L18.4042 827.219 Z" fill="#000000" fill-rule="evenodd" fill-opacity="1" /><path clip-path="url(#clip830)" d="M30.2762 783.073 L30.2762 777.216 L65.9242 777.216 L65.9242 783.073 L30.2762 783.073 M16.399 783.073 L16.399 777.216 L23.815 777.216 L23.815 783.073 L16.399 783.073 Z" fill="#000000" fill-rule="evenodd" fill-opacity="1" /><path clip-path="url(#clip830)" d="M37.1193 737.208 Q33.1726 735.012 31.2947 731.956 Q29.4168 728.901 29.4168 724.763 Q29.4168 719.193 33.3317 716.169 Q37.2148 713.145 44.4081 713.145 L65.9242 713.145 L65.9242 719.034 L44.599 719.034 Q39.4746 719.034 36.992 720.848 Q34.5094 722.662 34.5094 726.386 Q34.5094 730.938 37.5331 733.579 Q40.5568 736.221 45.7767 736.221 L65.9242 736.221 L65.9242 742.109 L44.599 742.109 Q39.4428 742.109 36.992 743.924 Q34.5094 745.738 34.5094 749.526 Q34.5094 754.013 37.5649 756.655 Q40.5886 759.297 45.7767 759.297 L65.9242 759.297 L65.9242 765.185 L30.2762 765.185 L30.2762 759.297 L35.8144 759.297 Q32.536 757.292 30.9764 754.491 Q29.4168 751.69 29.4168 747.839 Q29.4168 743.956 31.3902 741.25 Q33.3636 738.513 37.1193 737.208 Z" fill="#000000" fill-rule="evenodd" fill-opacity="1" /><path clip-path="url(#clip830)" d="M46.6361 670.973 L49.5006 670.973 L49.5006 697.9 Q55.5481 697.518 58.7309 694.271 Q61.8819 690.993 61.8819 685.168 Q61.8819 681.794 61.0544 678.643 Q60.2269 675.461 58.5718 672.341 L64.1099 672.341 Q65.4467 675.492 66.147 678.803 Q66.8472 682.113 66.8472 685.518 Q66.8472 694.048 61.8819 699.045 Q56.9167 704.011 48.4503 704.011 Q39.6974 704.011 34.5731 699.3 Q29.4168 694.558 29.4168 686.537 Q29.4168 679.344 34.0638 675.174 Q38.6789 670.973 46.6361 670.973 M44.9173 676.829 Q40.1112 676.893 37.2466 679.535 Q34.3821 682.145 34.3821 686.473 Q34.3821 691.375 37.1512 694.335 Q39.9202 697.263 44.9492 697.709 L44.9173 676.829 Z" fill="#000000" fill-rule="evenodd" fill-opacity="1" /><path clip-path="url(#clip830)" d="M16.4626 626.572 Q23.7832 630.837 30.9446 632.906 Q38.106 634.975 45.4584 634.975 Q52.8108 634.975 60.0359 632.906 Q67.2291 630.805 74.5179 626.572 L74.5179 631.664 Q67.0382 636.439 59.8131 638.826 Q52.588 641.181 45.4584 641.181 Q38.3606 641.181 31.1674 638.826 Q23.9742 636.471 16.4626 631.664 L16.4626 626.572 Z" fill="#000000" fill-rule="evenodd" fill-opacity="1" /><path clip-path="url(#clip830)" d="M31.3265 592.484 L36.8647 592.484 Q35.5916 594.966 34.955 597.64 Q34.3184 600.313 34.3184 603.178 Q34.3184 607.538 35.6552 609.735 Q36.992 611.899 39.6656 611.899 Q41.7026 611.899 42.8803 610.339 Q44.0261 608.78 45.0765 604.069 L45.5221 602.064 Q46.8589 595.826 49.3097 593.216 Q51.7286 590.574 56.0891 590.574 Q61.0544 590.574 63.9508 594.521 Q66.8472 598.435 66.8472 605.31 Q66.8472 608.175 66.2743 611.294 Q65.7332 614.382 64.6192 617.819 L58.5718 617.819 Q60.2587 614.573 61.118 611.422 Q61.9456 608.27 61.9456 605.183 Q61.9456 601.045 60.5451 598.817 Q59.1129 596.589 56.5347 596.589 Q54.1476 596.589 52.8745 598.213 Q51.6013 599.804 50.4237 605.247 L49.9462 607.284 Q48.8004 612.726 46.4451 615.145 Q44.058 617.564 39.9202 617.564 Q34.8913 617.564 32.1541 614 Q29.4168 610.435 29.4168 603.878 Q29.4168 600.632 29.8943 597.767 Q30.3717 594.902 31.3265 592.484 Z" fill="#000000" fill-rule="evenodd" fill-opacity="1" /><path clip-path="url(#clip830)" d="M16.4626 582.171 L16.4626 577.079 Q23.9742 572.304 31.1674 569.949 Q38.3606 567.562 45.4584 567.562 Q52.588 567.562 59.8131 569.949 Q67.0382 572.304 74.5179 577.079 L74.5179 582.171 Q67.2291 577.938 60.0359 575.869 Q52.8108 573.768 45.4584 573.768 Q38.106 573.768 30.9446 575.869 Q23.7832 577.938 16.4626 582.171 Z" fill="#000000" fill-rule="evenodd" fill-opacity="1" /><polyline clip-path="url(#clip832)" style="stroke:#009af9; stroke-linecap:butt; stroke-linejoin:round; stroke-width:12; stroke-opacity:1; fill:none" points="
  2065.53,1310.74 1546.89,1094.79 1223.88,862.84 869.38,613.912 
  "/>
<line clip-path="url(#clip832)" x1="2065.53" y1="1310.74" x2="2065.53" y2="1294.74" style="stroke:#009af9; stroke-width:3.072; stroke-opacity:1"/>
<line clip-path="url(#clip832)" x1="2065.53" y1="1310.74" x2="2049.53" y2="1310.74" style="stroke:#009af9; stroke-width:3.072; stroke-opacity:1"/>
<line clip-path="url(#clip832)" x1="2065.53" y1="1310.74" x2="2065.53" y2="1326.74" style="stroke:#009af9; stroke-width:3.072; stroke-opacity:1"/>
<line clip-path="url(#clip832)" x1="2065.53" y1="1310.74" x2="2081.53" y2="1310.74" style="stroke:#009af9; stroke-width:3.072; stroke-opacity:1"/>
<line clip-path="url(#clip832)" x1="1546.89" y1="1094.79" x2="1546.89" y2="1078.79" style="stroke:#009af9; stroke-width:3.072; stroke-opacity:1"/>
<line clip-path="url(#clip832)" x1="1546.89" y1="1094.79" x2="1530.89" y2="1094.79" style="stroke:#009af9; stroke-width:3.072; stroke-opacity:1"/>
<line clip-path="url(#clip832)" x1="1546.89" y1="1094.79" x2="1546.89" y2="1110.79" style="stroke:#009af9; stroke-width:3.072; stroke-opacity:1"/>
<line clip-path="url(#clip832)" x1="1546.89" y1="1094.79" x2="1562.89" y2="1094.79" style="stroke:#009af9; stroke-width:3.072; stroke-opacity:1"/>
<line clip-path="url(#clip832)" x1="1223.88" y1="862.84" x2="1223.88" y2="846.84" style="stroke:#009af9; stroke-width:3.072; stroke-opacity:1"/>
<line clip-path="url(#clip832)" x1="1223.88" y1="862.84" x2="1207.88" y2="862.84" style="stroke:#009af9; stroke-width:3.072; stroke-opacity:1"/>
<line clip-path="url(#clip832)" x1="1223.88" y1="862.84" x2="1223.88" y2="878.84" style="stroke:#009af9; stroke-width:3.072; stroke-opacity:1"/>
<line clip-path="url(#clip832)" x1="1223.88" y1="862.84" x2="1239.88" y2="862.84" style="stroke:#009af9; stroke-width:3.072; stroke-opacity:1"/>
<line clip-path="url(#clip832)" x1="869.38" y1="613.912" x2="869.38" y2="597.912" style="stroke:#009af9; stroke-width:3.072; stroke-opacity:1"/>
<line clip-path="url(#clip832)" x1="869.38" y1="613.912" x2="853.38" y2="613.912" style="stroke:#009af9; stroke-width:3.072; stroke-opacity:1"/>
<line clip-path="url(#clip832)" x1="869.38" y1="613.912" x2="869.38" y2="629.912" style="stroke:#009af9; stroke-width:3.072; stroke-opacity:1"/>
<line clip-path="url(#clip832)" x1="869.38" y1="613.912" x2="885.38" y2="613.912" style="stroke:#009af9; stroke-width:3.072; stroke-opacity:1"/>
<polyline clip-path="url(#clip832)" style="stroke:#e26f46; stroke-linecap:butt; stroke-linejoin:round; stroke-width:12; stroke-opacity:1; fill:none" points="
  2119.25,696.453 2053.93,539.34 1419.64,311.768 1055.11,137.116 
  "/>
<circle clip-path="url(#clip832)" cx="2119.25" cy="696.453" r="14" fill="#e26f46" fill-rule="evenodd" fill-opacity="1" stroke="#000000" stroke-opacity="1" stroke-width="3.072"/>
<circle clip-path="url(#clip832)" cx="2053.93" cy="539.34" r="14" fill="#e26f46" fill-rule="evenodd" fill-opacity="1" stroke="#000000" stroke-opacity="1" stroke-width="3.072"/>
<circle clip-path="url(#clip832)" cx="1419.64" cy="311.768" r="14" fill="#e26f46" fill-rule="evenodd" fill-opacity="1" stroke="#000000" stroke-opacity="1" stroke-width="3.072"/>
<circle clip-path="url(#clip832)" cx="1055.11" cy="137.116" r="14" fill="#e26f46" fill-rule="evenodd" fill-opacity="1" stroke="#000000" stroke-opacity="1" stroke-width="3.072"/>
<polyline clip-path="url(#clip832)" style="stroke:#3da44d; stroke-linecap:butt; stroke-linejoin:round; stroke-width:12; stroke-opacity:1; fill:none" points="
  1936.44,743.514 1535.68,708.181 1531.43,585.939 1180.55,462.992 
  "/>
<line clip-path="url(#clip832)" x1="1936.44" y1="743.514" x2="1936.44" y2="727.514" style="stroke:#3da44d; stroke-width:3.072; stroke-opacity:1"/>
<line clip-path="url(#clip832)" x1="1936.44" y1="743.514" x2="1920.44" y2="743.514" style="stroke:#3da44d; stroke-width:3.072; stroke-opacity:1"/>
<line clip-path="url(#clip832)" x1="1936.44" y1="743.514" x2="1936.44" y2="759.514" style="stroke:#3da44d; stroke-width:3.072; stroke-opacity:1"/>
<line clip-path="url(#clip832)" x1="1936.44" y1="743.514" x2="1952.44" y2="743.514" style="stroke:#3da44d; stroke-width:3.072; stroke-opacity:1"/>
<line clip-path="url(#clip832)" x1="1535.68" y1="708.181" x2="1535.68" y2="692.181" style="stroke:#3da44d; stroke-width:3.072; stroke-opacity:1"/>
<line clip-path="url(#clip832)" x1="1535.68" y1="708.181" x2="1519.68" y2="708.181" style="stroke:#3da44d; stroke-width:3.072; stroke-opacity:1"/>
<line clip-path="url(#clip832)" x1="1535.68" y1="708.181" x2="1535.68" y2="724.181" style="stroke:#3da44d; stroke-width:3.072; stroke-opacity:1"/>
<line clip-path="url(#clip832)" x1="1535.68" y1="708.181" x2="1551.68" y2="708.181" style="stroke:#3da44d; stroke-width:3.072; stroke-opacity:1"/>
<line clip-path="url(#clip832)" x1="1531.43" y1="585.939" x2="1531.43" y2="569.939" style="stroke:#3da44d; stroke-width:3.072; stroke-opacity:1"/>
<line clip-path="url(#clip832)" x1="1531.43" y1="585.939" x2="1515.43" y2="585.939" style="stroke:#3da44d; stroke-width:3.072; stroke-opacity:1"/>
<line clip-path="url(#clip832)" x1="1531.43" y1="585.939" x2="1531.43" y2="601.939" style="stroke:#3da44d; stroke-width:3.072; stroke-opacity:1"/>
<line clip-path="url(#clip832)" x1="1531.43" y1="585.939" x2="1547.43" y2="585.939" style="stroke:#3da44d; stroke-width:3.072; stroke-opacity:1"/>
<line clip-path="url(#clip832)" x1="1180.55" y1="462.992" x2="1180.55" y2="446.992" style="stroke:#3da44d; stroke-width:3.072; stroke-opacity:1"/>
<line clip-path="url(#clip832)" x1="1180.55" y1="462.992" x2="1164.55" y2="462.992" style="stroke:#3da44d; stroke-width:3.072; stroke-opacity:1"/>
<line clip-path="url(#clip832)" x1="1180.55" y1="462.992" x2="1180.55" y2="478.992" style="stroke:#3da44d; stroke-width:3.072; stroke-opacity:1"/>
<line clip-path="url(#clip832)" x1="1180.55" y1="462.992" x2="1196.55" y2="462.992" style="stroke:#3da44d; stroke-width:3.072; stroke-opacity:1"/>
<polyline clip-path="url(#clip832)" style="stroke:#c271d2; stroke-linecap:butt; stroke-linejoin:round; stroke-width:12; stroke-opacity:1; fill:none" points="
  2005.43,775.298 1966.09,743.416 1697.73,699.858 1546.1,649.449 
  "/>
<path clip-path="url(#clip832)" d="M2005.43 759.298 L1989.43 775.298 L2005.43 791.298 L2021.43 775.298 L2005.43 759.298 Z" fill="#c271d2" fill-rule="evenodd" fill-opacity="1" stroke="#000000" stroke-opacity="1" stroke-width="3.072"/>
<path clip-path="url(#clip832)" d="M1966.09 727.416 L1950.09 743.416 L1966.09 759.416 L1982.09 743.416 L1966.09 727.416 Z" fill="#c271d2" fill-rule="evenodd" fill-opacity="1" stroke="#000000" stroke-opacity="1" stroke-width="3.072"/>
<path clip-path="url(#clip832)" d="M1697.73 683.858 L1681.73 699.858 L1697.73 715.858 L1713.73 699.858 L1697.73 683.858 Z" fill="#c271d2" fill-rule="evenodd" fill-opacity="1" stroke="#000000" stroke-opacity="1" stroke-width="3.072"/>
<path clip-path="url(#clip832)" d="M1546.1 633.449 L1530.1 649.449 L1546.1 665.449 L1562.1 649.449 L1546.1 633.449 Z" fill="#c271d2" fill-rule="evenodd" fill-opacity="1" stroke="#000000" stroke-opacity="1" stroke-width="3.072"/>
<polyline clip-path="url(#clip832)" style="stroke:#ac8d18; stroke-linecap:butt; stroke-linejoin:round; stroke-width:12; stroke-opacity:1; fill:none" points="
  2200.01,801.587 1683.73,569.854 1252.71,381.732 1157.04,345.428 
  "/>
<path clip-path="url(#clip832)" d="M2216.01 785.587 L2184.01 785.587 L2200.01 817.587 L2216.01 785.587 Z" fill="#ac8d18" fill-rule="evenodd" fill-opacity="1" stroke="#000000" stroke-opacity="1" stroke-width="3.072"/>
<path clip-path="url(#clip832)" d="M1699.73 553.854 L1667.73 553.854 L1683.73 585.854 L1699.73 553.854 Z" fill="#ac8d18" fill-rule="evenodd" fill-opacity="1" stroke="#000000" stroke-opacity="1" stroke-width="3.072"/>
<path clip-path="url(#clip832)" d="M1268.71 365.732 L1236.71 365.732 L1252.71 397.732 L1268.71 365.732 Z" fill="#ac8d18" fill-rule="evenodd" fill-opacity="1" stroke="#000000" stroke-opacity="1" stroke-width="3.072"/>
<path clip-path="url(#clip832)" d="M1173.04 329.428 L1141.04 329.428 L1157.04 361.428 L1173.04 329.428 Z" fill="#ac8d18" fill-rule="evenodd" fill-opacity="1" stroke="#000000" stroke-opacity="1" stroke-width="3.072"/>
<polyline clip-path="url(#clip832)" style="stroke:#00a9ad; stroke-linecap:butt; stroke-linejoin:round; stroke-width:12; stroke-opacity:1; fill:none" points="
  2072.13,718.058 1482.08,646.278 1319.48,508.551 1183.39,335.609 
  "/>
<path clip-path="url(#clip832)" d="M2072.13 702.058 L2059.62 708.09 L2056.53 721.626 L2065.19 732.474 L2079.08 732.474 L2087.73 721.626 L2084.65 708.09 Z" fill="#00a9ad" fill-rule="evenodd" fill-opacity="1" stroke="#000000" stroke-opacity="1" stroke-width="3.072"/>
<path clip-path="url(#clip832)" d="M1482.08 630.278 L1469.57 636.31 L1466.48 649.846 L1475.13 660.694 L1489.02 660.694 L1497.68 649.846 L1494.59 636.31 Z" fill="#00a9ad" fill-rule="evenodd" fill-opacity="1" stroke="#000000" stroke-opacity="1" stroke-width="3.072"/>
<path clip-path="url(#clip832)" d="M1319.48 492.551 L1306.97 498.583 L1303.88 512.119 L1312.54 522.967 L1326.43 522.967 L1335.08 512.119 L1331.99 498.583 Z" fill="#00a9ad" fill-rule="evenodd" fill-opacity="1" stroke="#000000" stroke-opacity="1" stroke-width="3.072"/>
<path clip-path="url(#clip832)" d="M1183.39 319.609 L1170.88 325.641 L1167.79 339.177 L1176.44 350.025 L1190.33 350.025 L1198.99 339.177 L1195.9 325.641 Z" fill="#00a9ad" fill-rule="evenodd" fill-opacity="1" stroke="#000000" stroke-opacity="1" stroke-width="3.072"/>
<polyline clip-path="url(#clip832)" style="stroke:#ed5d92; stroke-linecap:butt; stroke-linejoin:round; stroke-width:12; stroke-opacity:1; fill:none" points="
  1399.53,479.669 1350.9,453.612 1323.21,399.562 1340.31,300.711 
  "/>
<path clip-path="url(#clip832)" d="M1399.53 495.669 L1385.67 487.669 L1385.67 471.669 L1399.53 463.669 L1413.39 471.669 L1413.39 487.669 Z" fill="#ed5d92" fill-rule="evenodd" fill-opacity="1" stroke="#000000" stroke-opacity="1" stroke-width="3.072"/>
<path clip-path="url(#clip832)" d="M1350.9 469.612 L1337.04 461.612 L1337.04 445.612 L1350.9 437.612 L1364.75 445.612 L1364.75 461.612 Z" fill="#ed5d92" fill-rule="evenodd" fill-opacity="1" stroke="#000000" stroke-opacity="1" stroke-width="3.072"/>
<path clip-path="url(#clip832)" d="M1323.21 415.562 L1309.35 407.562 L1309.35 391.562 L1323.21 383.562 L1337.07 391.562 L1337.07 407.562 Z" fill="#ed5d92" fill-rule="evenodd" fill-opacity="1" stroke="#000000" stroke-opacity="1" stroke-width="3.072"/>
<path clip-path="url(#clip832)" d="M1340.31 316.711 L1326.45 308.711 L1326.45 292.711 L1340.31 284.711 L1354.16 292.711 L1354.16 308.711 Z" fill="#ed5d92" fill-rule="evenodd" fill-opacity="1" stroke="#000000" stroke-opacity="1" stroke-width="3.072"/>
<polyline clip-path="url(#clip832)" style="stroke:#c68125; stroke-linecap:butt; stroke-linejoin:round; stroke-width:12; stroke-opacity:1; fill:none" points="
  825.964,722.612 850.945,698.547 638.246,603.417 708.127,544.927 
  "/>
<line clip-path="url(#clip832)" x1="841.964" y1="722.612" x2="809.964" y2="722.612" style="stroke:#c68125; stroke-width:3.072; stroke-opacity:1"/>
<line clip-path="url(#clip832)" x1="866.945" y1="698.547" x2="834.945" y2="698.547" style="stroke:#c68125; stroke-width:3.072; stroke-opacity:1"/>
<line clip-path="url(#clip832)" x1="654.246" y1="603.417" x2="622.246" y2="603.417" style="stroke:#c68125; stroke-width:3.072; stroke-opacity:1"/>
<line clip-path="url(#clip832)" x1="724.127" y1="544.927" x2="692.127" y2="544.927" style="stroke:#c68125; stroke-width:3.072; stroke-opacity:1"/>
<polyline clip-path="url(#clip832)" style="stroke:#00a98d; stroke-linecap:butt; stroke-linejoin:round; stroke-width:12; stroke-opacity:1; fill:none" points="
  1626.01,858.888 1063.91,625.881 477.948,375.754 308.548,84.0448 
  "/>
<path clip-path="url(#clip832)" d="M1613.21 858.888 L1632.41 870.088 L1632.41 847.688 L1613.21 858.888 Z" fill="#00a98d" fill-rule="evenodd" fill-opacity="1" stroke="#000000" stroke-opacity="1" stroke-width="3.072"/>
<path clip-path="url(#clip832)" d="M1051.11 625.881 L1070.31 637.081 L1070.31 614.681 L1051.11 625.881 Z" fill="#00a98d" fill-rule="evenodd" fill-opacity="1" stroke="#000000" stroke-opacity="1" stroke-width="3.072"/>
<path clip-path="url(#clip832)" d="M465.148 375.754 L484.348 386.954 L484.348 364.554 L465.148 375.754 Z" fill="#00a98d" fill-rule="evenodd" fill-opacity="1" stroke="#000000" stroke-opacity="1" stroke-width="3.072"/>
<path clip-path="url(#clip832)" d="M295.748 84.0448 L314.948 95.2448 L314.948 72.8448 L295.748 84.0448 Z" fill="#00a98d" fill-rule="evenodd" fill-opacity="1" stroke="#000000" stroke-opacity="1" stroke-width="3.072"/>
<polyline clip-path="url(#clip832)" style="stroke:#8e971d; stroke-linecap:butt; stroke-linejoin:round; stroke-width:12; stroke-opacity:1; fill:none" points="
  1970.75,864.823 1366,956.571 1374.07,915.756 1096.05,704.008 
  "/>
<path clip-path="url(#clip832)" d="M1970.75 880.823 L1959.44 876.135 L1954.75 864.823 L1959.44 853.511 L1970.75 848.823 L1982.07 853.511 L1986.75 864.823 L1982.07 876.135 Z" fill="#8e971d" fill-rule="evenodd" fill-opacity="1" stroke="#000000" stroke-opacity="1" stroke-width="3.072"/>
<path clip-path="url(#clip832)" d="M1366 972.571 L1354.68 967.883 L1350 956.571 L1354.68 945.259 L1366 940.571 L1377.31 945.259 L1382 956.571 L1377.31 967.883 Z" fill="#8e971d" fill-rule="evenodd" fill-opacity="1" stroke="#000000" stroke-opacity="1" stroke-width="3.072"/>
<path clip-path="url(#clip832)" d="M1374.07 931.756 L1362.76 927.068 L1358.07 915.756 L1362.76 904.444 L1374.07 899.756 L1385.38 904.444 L1390.07 915.756 L1385.38 927.068 Z" fill="#8e971d" fill-rule="evenodd" fill-opacity="1" stroke="#000000" stroke-opacity="1" stroke-width="3.072"/>
<path clip-path="url(#clip832)" d="M1096.05 720.008 L1084.74 715.32 L1080.05 704.008 L1084.74 692.696 L1096.05 688.008 L1107.36 692.696 L1112.05 704.008 L1107.36 715.32 Z" fill="#8e971d" fill-rule="evenodd" fill-opacity="1" stroke="#000000" stroke-opacity="1" stroke-width="3.072"/>
<path clip-path="url(#clip830)" d="
M1640.49 660.827 L2189.92 660.827 L2189.92 90.5872 L1640.49 90.5872  Z
  " fill="#ffffff" fill-rule="evenodd" fill-opacity="1"/>
<polyline clip-path="url(#clip830)" style="stroke:#000000; stroke-linecap:butt; stroke-linejoin:round; stroke-width:4; stroke-opacity:1; fill:none" points="
  1640.49,660.827 2189.92,660.827 2189.92,90.5872 1640.49,90.5872 1640.49,660.827 
  "/>
<polyline clip-path="url(#clip830)" style="stroke:#009af9; stroke-linecap:butt; stroke-linejoin:round; stroke-width:4; stroke-opacity:1; fill:none" points="
  1662.76,142.427 1796.43,142.427 
  "/>
<line clip-path="url(#clip830)" x1="1729.6" y1="142.427" x2="1729.6" y2="116.827" style="stroke:#009af9; stroke-width:4.9152; stroke-opacity:1"/>
<line clip-path="url(#clip830)" x1="1729.6" y1="142.427" x2="1704" y2="142.427" style="stroke:#009af9; stroke-width:4.9152; stroke-opacity:1"/>
<line clip-path="url(#clip830)" x1="1729.6" y1="142.427" x2="1729.6" y2="168.027" style="stroke:#009af9; stroke-width:4.9152; stroke-opacity:1"/>
<line clip-path="url(#clip830)" x1="1729.6" y1="142.427" x2="1755.2" y2="142.427" style="stroke:#009af9; stroke-width:4.9152; stroke-opacity:1"/>
<path clip-path="url(#clip830)" d="M1835.09 143.504 Q1836.6 144.013 1838.01 145.679 Q1839.45 147.346 1840.88 150.263 L1845.63 159.707 L1840.6 159.707 L1836.18 150.841 Q1834.47 147.369 1832.85 146.235 Q1831.25 145.101 1828.47 145.101 L1823.38 145.101 L1823.38 159.707 L1818.7 159.707 L1818.7 125.147 L1829.26 125.147 Q1835.19 125.147 1838.1 127.624 Q1841.02 130.101 1841.02 135.101 Q1841.02 138.365 1839.49 140.517 Q1837.99 142.67 1835.09 143.504 M1823.38 128.99 L1823.38 141.258 L1829.26 141.258 Q1832.64 141.258 1834.35 139.707 Q1836.09 138.133 1836.09 135.101 Q1836.09 132.068 1834.35 130.541 Q1832.64 128.99 1829.26 128.99 L1823.38 128.99 Z" fill="#000000" fill-rule="evenodd" fill-opacity="1" /><path clip-path="url(#clip830)" d="M1859.38 136.767 Q1855.95 136.767 1853.96 139.453 Q1851.97 142.115 1851.97 146.767 Q1851.97 151.42 1853.94 154.105 Q1855.93 156.767 1859.38 156.767 Q1862.78 156.767 1864.77 154.082 Q1866.76 151.397 1866.76 146.767 Q1866.76 142.161 1864.77 139.476 Q1862.78 136.767 1859.38 136.767 M1859.38 133.156 Q1864.93 133.156 1868.1 136.767 Q1871.27 140.379 1871.27 146.767 Q1871.27 153.133 1868.1 156.767 Q1864.93 160.378 1859.38 160.378 Q1853.8 160.378 1850.63 156.767 Q1847.48 153.133 1847.48 146.767 Q1847.48 140.379 1850.63 136.767 Q1853.8 133.156 1859.38 133.156 Z" fill="#000000" fill-rule="evenodd" fill-opacity="1" /><path clip-path="url(#clip830)" d="M1894.86 134.545 L1894.86 138.573 Q1893.06 137.647 1891.11 137.184 Q1889.17 136.721 1887.08 136.721 Q1883.91 136.721 1882.32 137.693 Q1880.74 138.666 1880.74 140.61 Q1880.74 142.092 1881.88 142.948 Q1883.01 143.781 1886.44 144.545 L1887.89 144.869 Q1892.43 145.842 1894.33 147.624 Q1896.25 149.383 1896.25 152.554 Q1896.25 156.166 1893.38 158.272 Q1890.53 160.378 1885.53 160.378 Q1883.45 160.378 1881.18 159.962 Q1878.94 159.568 1876.44 158.758 L1876.44 154.36 Q1878.8 155.587 1881.09 156.212 Q1883.38 156.814 1885.63 156.814 Q1888.63 156.814 1890.26 155.795 Q1891.88 154.754 1891.88 152.879 Q1891.88 151.142 1890.7 150.216 Q1889.54 149.291 1885.58 148.434 L1884.1 148.087 Q1880.14 147.254 1878.38 145.541 Q1876.62 143.804 1876.62 140.795 Q1876.62 137.138 1879.21 135.147 Q1881.81 133.156 1886.57 133.156 Q1888.94 133.156 1891.02 133.504 Q1893.1 133.851 1894.86 134.545 Z" fill="#000000" fill-rule="evenodd" fill-opacity="1" /><path clip-path="url(#clip830)" d="M1925.21 145.679 L1925.21 147.763 L1905.63 147.763 Q1905.9 152.161 1908.26 154.476 Q1910.65 156.767 1914.88 156.767 Q1917.34 156.767 1919.63 156.166 Q1921.94 155.564 1924.21 154.36 L1924.21 158.388 Q1921.92 159.36 1919.51 159.869 Q1917.11 160.378 1914.63 160.378 Q1908.43 160.378 1904.79 156.767 Q1901.18 153.156 1901.18 146.999 Q1901.18 140.633 1904.61 136.906 Q1908.06 133.156 1913.89 133.156 Q1919.12 133.156 1922.15 136.536 Q1925.21 139.892 1925.21 145.679 M1920.95 144.429 Q1920.9 140.934 1918.98 138.851 Q1917.08 136.767 1913.94 136.767 Q1910.37 136.767 1908.22 138.781 Q1906.09 140.795 1905.76 144.453 L1920.95 144.429 Z" fill="#000000" fill-rule="evenodd" fill-opacity="1" /><path clip-path="url(#clip830)" d="M1953.75 144.059 L1953.75 159.707 L1949.49 159.707 L1949.49 144.198 Q1949.49 140.517 1948.06 138.689 Q1946.62 136.86 1943.75 136.86 Q1940.3 136.86 1938.31 139.059 Q1936.32 141.258 1936.32 145.054 L1936.32 159.707 L1932.04 159.707 L1932.04 133.781 L1936.32 133.781 L1936.32 137.809 Q1937.85 135.471 1939.91 134.314 Q1941.99 133.156 1944.7 133.156 Q1949.17 133.156 1951.46 135.934 Q1953.75 138.689 1953.75 144.059 Z" fill="#000000" fill-rule="evenodd" fill-opacity="1" /><path clip-path="url(#clip830)" d="M1980.86 146.767 Q1980.86 142.068 1978.91 139.406 Q1976.99 136.721 1973.61 136.721 Q1970.23 136.721 1968.29 139.406 Q1966.37 142.068 1966.37 146.767 Q1966.37 151.466 1968.29 154.152 Q1970.23 156.814 1973.61 156.814 Q1976.99 156.814 1978.91 154.152 Q1980.86 151.466 1980.86 146.767 M1966.37 137.717 Q1967.71 135.402 1969.75 134.291 Q1971.81 133.156 1974.65 133.156 Q1979.38 133.156 1982.32 136.906 Q1985.28 140.656 1985.28 146.767 Q1985.28 152.879 1982.32 156.628 Q1979.38 160.378 1974.65 160.378 Q1971.81 160.378 1969.75 159.267 Q1967.71 158.133 1966.37 155.818 L1966.37 159.707 L1962.08 159.707 L1962.08 123.689 L1966.37 123.689 L1966.37 137.717 Z" fill="#000000" fill-rule="evenodd" fill-opacity="1" /><path clip-path="url(#clip830)" d="M2007.36 137.763 Q2006.64 137.346 2005.79 137.161 Q2004.95 136.953 2003.94 136.953 Q2000.32 136.953 1998.38 139.314 Q1996.46 141.652 1996.46 146.05 L1996.46 159.707 L1992.18 159.707 L1992.18 133.781 L1996.46 133.781 L1996.46 137.809 Q1997.8 135.448 1999.95 134.314 Q2002.11 133.156 2005.19 133.156 Q2005.63 133.156 2006.16 133.226 Q2006.69 133.272 2007.34 133.388 L2007.36 137.763 Z" fill="#000000" fill-rule="evenodd" fill-opacity="1" /><path clip-path="url(#clip830)" d="M2020.83 136.767 Q2017.41 136.767 2015.42 139.453 Q2013.43 142.115 2013.43 146.767 Q2013.43 151.42 2015.39 154.105 Q2017.38 156.767 2020.83 156.767 Q2024.24 156.767 2026.23 154.082 Q2028.22 151.397 2028.22 146.767 Q2028.22 142.161 2026.23 139.476 Q2024.24 136.767 2020.83 136.767 M2020.83 133.156 Q2026.39 133.156 2029.56 136.767 Q2032.73 140.379 2032.73 146.767 Q2032.73 153.133 2029.56 156.767 Q2026.39 160.378 2020.83 160.378 Q2015.25 160.378 2012.08 156.767 Q2008.94 153.133 2008.94 146.767 Q2008.94 140.379 2012.08 136.767 Q2015.25 133.156 2020.83 133.156 Z" fill="#000000" fill-rule="evenodd" fill-opacity="1" /><path clip-path="url(#clip830)" d="M2058.45 134.777 L2058.45 138.758 Q2056.64 137.763 2054.81 137.277 Q2053.01 136.767 2051.16 136.767 Q2047.01 136.767 2044.72 139.406 Q2042.43 142.022 2042.43 146.767 Q2042.43 151.513 2044.72 154.152 Q2047.01 156.767 2051.16 156.767 Q2053.01 156.767 2054.81 156.281 Q2056.64 155.772 2058.45 154.777 L2058.45 158.712 Q2056.67 159.545 2054.75 159.962 Q2052.85 160.378 2050.69 160.378 Q2044.84 160.378 2041.39 156.698 Q2037.94 153.017 2037.94 146.767 Q2037.94 140.425 2041.41 136.791 Q2044.91 133.156 2050.97 133.156 Q2052.94 133.156 2054.81 133.573 Q2056.69 133.967 2058.45 134.777 Z" fill="#000000" fill-rule="evenodd" fill-opacity="1" /><path clip-path="url(#clip830)" d="M2065.69 123.689 L2069.98 123.689 L2069.98 144.962 L2082.68 133.781 L2088.12 133.781 L2074.37 145.911 L2088.7 159.707 L2083.15 159.707 L2069.98 147.045 L2069.98 159.707 L2065.69 159.707 L2065.69 123.689 Z" fill="#000000" fill-rule="evenodd" fill-opacity="1" /><path clip-path="url(#clip830)" d="M2097.94 155.772 L2114.26 155.772 L2114.26 159.707 L2092.31 159.707 L2092.31 155.772 Q2094.98 153.017 2099.56 148.388 Q2104.17 143.735 2105.35 142.392 Q2107.59 139.869 2108.47 138.133 Q2109.37 136.374 2109.37 134.684 Q2109.37 131.93 2107.43 130.193 Q2105.51 128.457 2102.41 128.457 Q2100.21 128.457 2097.75 129.221 Q2095.32 129.985 2092.55 131.536 L2092.55 126.814 Q2095.37 125.68 2097.82 125.101 Q2100.28 124.522 2102.31 124.522 Q2107.68 124.522 2110.88 127.207 Q2114.07 129.893 2114.07 134.383 Q2114.07 136.513 2113.26 138.434 Q2112.48 140.332 2110.37 142.925 Q2109.79 143.596 2106.69 146.814 Q2103.59 150.008 2097.94 155.772 Z" fill="#000000" fill-rule="evenodd" fill-opacity="1" /><path clip-path="url(#clip830)" d="M2138.24 141.073 Q2141.6 141.791 2143.47 144.059 Q2145.37 146.328 2145.37 149.661 Q2145.37 154.777 2141.85 157.578 Q2138.33 160.378 2131.85 160.378 Q2129.68 160.378 2127.36 159.939 Q2125.07 159.522 2122.62 158.666 L2122.62 154.152 Q2124.56 155.286 2126.87 155.865 Q2129.19 156.443 2131.71 156.443 Q2136.11 156.443 2138.4 154.707 Q2140.72 152.971 2140.72 149.661 Q2140.72 146.605 2138.56 144.892 Q2136.43 143.156 2132.62 143.156 L2128.59 143.156 L2128.59 139.314 L2132.8 139.314 Q2136.25 139.314 2138.08 137.948 Q2139.91 136.559 2139.91 133.967 Q2139.91 131.305 2138.01 129.893 Q2136.13 128.457 2132.62 128.457 Q2130.69 128.457 2128.49 128.874 Q2126.3 129.291 2123.66 130.17 L2123.66 126.004 Q2126.32 125.263 2128.63 124.893 Q2130.97 124.522 2133.03 124.522 Q2138.36 124.522 2141.46 126.953 Q2144.56 129.36 2144.56 133.48 Q2144.56 136.351 2142.92 138.342 Q2141.27 140.309 2138.24 141.073 Z" fill="#000000" fill-rule="evenodd" fill-opacity="1" /><polyline clip-path="url(#clip830)" style="stroke:#e26f46; stroke-linecap:butt; stroke-linejoin:round; stroke-width:4; stroke-opacity:1; fill:none" points="
  1662.76,194.267 1796.43,194.267 
  "/>
<circle clip-path="url(#clip830)" cx="1729.6" cy="194.267" r="23" fill="#e26f46" fill-rule="evenodd" fill-opacity="1" stroke="#000000" stroke-opacity="1" stroke-width="4.9152"/>
<path clip-path="url(#clip830)" d="M1818.7 176.987 L1838.57 176.987 L1838.57 180.922 L1823.38 180.922 L1823.38 191.107 L1837.08 191.107 L1837.08 195.043 L1823.38 195.043 L1823.38 211.547 L1818.7 211.547 L1818.7 176.987 Z" fill="#000000" fill-rule="evenodd" fill-opacity="1" /><path clip-path="url(#clip830)" d="M1850.65 195.043 L1850.65 207.705 L1858.15 207.705 Q1861.92 207.705 1863.73 206.154 Q1865.56 204.58 1865.56 201.362 Q1865.56 198.121 1863.73 196.594 Q1861.92 195.043 1858.15 195.043 L1850.65 195.043 M1850.65 180.83 L1850.65 191.246 L1857.57 191.246 Q1861 191.246 1862.66 189.973 Q1864.35 188.677 1864.35 186.038 Q1864.35 183.422 1862.66 182.126 Q1861 180.83 1857.57 180.83 L1850.65 180.83 M1845.97 176.987 L1857.92 176.987 Q1863.26 176.987 1866.16 179.209 Q1869.05 181.432 1869.05 185.529 Q1869.05 188.7 1867.57 190.575 Q1866.09 192.45 1863.22 192.913 Q1866.67 193.654 1868.57 196.015 Q1870.49 198.353 1870.49 201.871 Q1870.49 206.501 1867.34 209.024 Q1864.19 211.547 1858.38 211.547 L1845.97 211.547 L1845.97 176.987 Z" fill="#000000" fill-rule="evenodd" fill-opacity="1" /><path clip-path="url(#clip830)" d="M1883.17 180.83 L1883.17 207.705 L1888.82 207.705 Q1895.97 207.705 1899.28 204.464 Q1902.62 201.223 1902.62 194.232 Q1902.62 187.288 1899.28 184.07 Q1895.97 180.83 1888.82 180.83 L1883.17 180.83 M1878.5 176.987 L1888.1 176.987 Q1898.15 176.987 1902.85 181.177 Q1907.55 185.344 1907.55 194.232 Q1907.55 203.168 1902.82 207.357 Q1898.1 211.547 1888.1 211.547 L1878.5 211.547 L1878.5 176.987 Z" fill="#000000" fill-rule="evenodd" fill-opacity="1" /><path clip-path="url(#clip830)" d="M1915 176.987 L1934.86 176.987 L1934.86 180.922 L1919.68 180.922 L1919.68 191.107 L1933.38 191.107 L1933.38 195.043 L1919.68 195.043 L1919.68 211.547 L1915 211.547 L1915 176.987 Z" fill="#000000" fill-rule="evenodd" fill-opacity="1" /><polyline clip-path="url(#clip830)" style="stroke:#3da44d; stroke-linecap:butt; stroke-linejoin:round; stroke-width:4; stroke-opacity:1; fill:none" points="
  1662.76,246.107 1796.43,246.107 
  "/>
<line clip-path="url(#clip830)" x1="1729.6" y1="246.107" x2="1729.6" y2="220.507" style="stroke:#3da44d; stroke-width:4.9152; stroke-opacity:1"/>
<line clip-path="url(#clip830)" x1="1729.6" y1="246.107" x2="1704" y2="246.107" style="stroke:#3da44d; stroke-width:4.9152; stroke-opacity:1"/>
<line clip-path="url(#clip830)" x1="1729.6" y1="246.107" x2="1729.6" y2="271.707" style="stroke:#3da44d; stroke-width:4.9152; stroke-opacity:1"/>
<line clip-path="url(#clip830)" x1="1729.6" y1="246.107" x2="1755.2" y2="246.107" style="stroke:#3da44d; stroke-width:4.9152; stroke-opacity:1"/>
<path clip-path="url(#clip830)" d="M1834.72 231.998 Q1829.63 231.998 1826.62 235.795 Q1823.64 239.591 1823.64 246.142 Q1823.64 252.67 1826.62 256.466 Q1829.63 260.262 1834.72 260.262 Q1839.82 260.262 1842.78 256.466 Q1845.76 252.67 1845.76 246.142 Q1845.76 239.591 1842.78 235.795 Q1839.82 231.998 1834.72 231.998 M1841.27 262.762 L1847.43 269.498 L1841.78 269.498 L1836.67 263.966 Q1835.9 264.012 1835.49 264.035 Q1835.09 264.058 1834.72 264.058 Q1827.43 264.058 1823.06 259.197 Q1818.7 254.313 1818.7 246.142 Q1818.7 237.948 1823.06 233.086 Q1827.43 228.202 1834.72 228.202 Q1841.99 228.202 1846.34 233.086 Q1850.7 237.948 1850.7 246.142 Q1850.7 252.16 1848.26 256.443 Q1845.86 260.725 1841.27 262.762 Z" fill="#000000" fill-rule="evenodd" fill-opacity="1" /><path clip-path="url(#clip830)" d="M1858.01 228.827 L1864.31 228.827 L1879.63 257.739 L1879.63 228.827 L1884.17 228.827 L1884.17 263.387 L1877.87 263.387 L1862.55 234.475 L1862.55 263.387 L1858.01 263.387 L1858.01 228.827 Z" fill="#000000" fill-rule="evenodd" fill-opacity="1" /><path clip-path="url(#clip830)" d="M1898.15 232.67 L1898.15 259.545 L1903.8 259.545 Q1910.95 259.545 1914.26 256.304 Q1917.59 253.063 1917.59 246.072 Q1917.59 239.128 1914.26 235.91 Q1910.95 232.67 1903.8 232.67 L1898.15 232.67 M1893.47 228.827 L1903.08 228.827 Q1913.13 228.827 1917.82 233.017 Q1922.52 237.184 1922.52 246.072 Q1922.52 255.008 1917.8 259.197 Q1913.08 263.387 1903.08 263.387 L1893.47 263.387 L1893.47 228.827 Z" fill="#000000" fill-rule="evenodd" fill-opacity="1" /><path clip-path="url(#clip830)" d="M1929.98 228.827 L1949.84 228.827 L1949.84 232.762 L1934.65 232.762 L1934.65 242.947 L1948.36 242.947 L1948.36 246.883 L1934.65 246.883 L1934.65 263.387 L1929.98 263.387 L1929.98 228.827 Z" fill="#000000" fill-rule="evenodd" fill-opacity="1" /><polyline clip-path="url(#clip830)" style="stroke:#c271d2; stroke-linecap:butt; stroke-linejoin:round; stroke-width:4; stroke-opacity:1; fill:none" points="
  1662.76,297.947 1796.43,297.947 
  "/>
<path clip-path="url(#clip830)" d="M1729.6 272.347 L1704 297.947 L1729.6 323.547 L1755.2 297.947 L1729.6 272.347 Z" fill="#c271d2" fill-rule="evenodd" fill-opacity="1" stroke="#000000" stroke-opacity="1" stroke-width="4.9152"/>
<path clip-path="url(#clip830)" d="M1818.7 280.667 L1847.94 280.667 L1847.94 284.602 L1835.67 284.602 L1835.67 315.227 L1830.97 315.227 L1830.97 284.602 L1818.7 284.602 L1818.7 280.667 Z" fill="#000000" fill-rule="evenodd" fill-opacity="1" /><path clip-path="url(#clip830)" d="M1868.84 299.024 Q1870.35 299.533 1871.76 301.199 Q1873.2 302.866 1874.63 305.783 L1879.38 315.227 L1874.35 315.227 L1869.93 306.361 Q1868.22 302.889 1866.6 301.755 Q1865 300.621 1862.22 300.621 L1857.13 300.621 L1857.13 315.227 L1852.45 315.227 L1852.45 280.667 L1863.01 280.667 Q1868.94 280.667 1871.85 283.144 Q1874.77 285.621 1874.77 290.621 Q1874.77 293.885 1873.24 296.037 Q1871.74 298.19 1868.84 299.024 M1857.13 284.51 L1857.13 296.778 L1863.01 296.778 Q1866.39 296.778 1868.1 295.227 Q1869.84 293.653 1869.84 290.621 Q1869.84 287.588 1868.1 286.061 Q1866.39 284.51 1863.01 284.51 L1857.13 284.51 Z" fill="#000000" fill-rule="evenodd" fill-opacity="1" /><path clip-path="url(#clip830)" d="M1890.07 298.723 L1890.07 311.385 L1897.57 311.385 Q1901.34 311.385 1903.15 309.834 Q1904.98 308.26 1904.98 305.042 Q1904.98 301.801 1903.15 300.274 Q1901.34 298.723 1897.57 298.723 L1890.07 298.723 M1890.07 284.51 L1890.07 294.926 L1896.99 294.926 Q1900.42 294.926 1902.08 293.653 Q1903.77 292.357 1903.77 289.718 Q1903.77 287.102 1902.08 285.806 Q1900.42 284.51 1896.99 284.51 L1890.07 284.51 M1885.39 280.667 L1897.34 280.667 Q1902.69 280.667 1905.58 282.889 Q1908.47 285.112 1908.47 289.209 Q1908.47 292.38 1906.99 294.255 Q1905.51 296.13 1902.64 296.593 Q1906.09 297.334 1907.99 299.695 Q1909.91 302.033 1909.91 305.551 Q1909.91 310.181 1906.76 312.704 Q1903.61 315.227 1897.8 315.227 L1885.39 315.227 L1885.39 280.667 Z" fill="#000000" fill-rule="evenodd" fill-opacity="1" /><path clip-path="url(#clip830)" d="M1922.59 284.51 L1922.59 311.385 L1928.24 311.385 Q1935.39 311.385 1938.7 308.144 Q1942.04 304.903 1942.04 297.912 Q1942.04 290.968 1938.7 287.75 Q1935.39 284.51 1928.24 284.51 L1922.59 284.51 M1917.92 280.667 L1927.52 280.667 Q1937.57 280.667 1942.27 284.857 Q1946.97 289.024 1946.97 297.912 Q1946.97 306.848 1942.25 311.037 Q1937.52 315.227 1927.52 315.227 L1917.92 315.227 L1917.92 280.667 Z" fill="#000000" fill-rule="evenodd" fill-opacity="1" /><path clip-path="url(#clip830)" d="M1954.42 280.667 L1974.28 280.667 L1974.28 284.602 L1959.1 284.602 L1959.1 294.787 L1972.8 294.787 L1972.8 298.723 L1959.1 298.723 L1959.1 315.227 L1954.42 315.227 L1954.42 280.667 Z" fill="#000000" fill-rule="evenodd" fill-opacity="1" /><path clip-path="url(#clip830)" d="M1986.13 311.292 L2002.45 311.292 L2002.45 315.227 L1980.51 315.227 L1980.51 311.292 Q1983.17 308.537 1987.75 303.908 Q1992.36 299.255 1993.54 297.912 Q1995.79 295.389 1996.67 293.653 Q1997.57 291.894 1997.57 290.204 Q1997.57 287.45 1995.63 285.713 Q1993.7 283.977 1990.6 283.977 Q1988.4 283.977 1985.95 284.741 Q1983.52 285.505 1980.74 287.056 L1980.74 282.334 Q1983.56 281.2 1986.02 280.621 Q1988.47 280.042 1990.51 280.042 Q1995.88 280.042 1999.07 282.727 Q2002.27 285.413 2002.27 289.903 Q2002.27 292.033 2001.46 293.954 Q2000.67 295.852 1998.56 298.445 Q1997.99 299.116 1994.88 302.334 Q1991.78 305.528 1986.13 311.292 Z" fill="#000000" fill-rule="evenodd" fill-opacity="1" /><polyline clip-path="url(#clip830)" style="stroke:#ac8d18; stroke-linecap:butt; stroke-linejoin:round; stroke-width:4; stroke-opacity:1; fill:none" points="
  1662.76,349.787 1796.43,349.787 
  "/>
<path clip-path="url(#clip830)" d="M1755.2 324.187 L1704 324.187 L1729.6 375.387 L1755.2 324.187 Z" fill="#ac8d18" fill-rule="evenodd" fill-opacity="1" stroke="#000000" stroke-opacity="1" stroke-width="4.9152"/>
<path clip-path="url(#clip830)" d="M1846.57 335.169 L1846.57 340.1 Q1844.21 337.901 1841.53 336.813 Q1838.87 335.725 1835.86 335.725 Q1829.93 335.725 1826.78 339.359 Q1823.64 342.97 1823.64 349.822 Q1823.64 356.651 1826.78 360.285 Q1829.93 363.896 1835.86 363.896 Q1838.87 363.896 1841.53 362.808 Q1844.21 361.72 1846.57 359.521 L1846.57 364.405 Q1844.12 366.072 1841.37 366.905 Q1838.64 367.738 1835.58 367.738 Q1827.73 367.738 1823.22 362.947 Q1818.7 358.132 1818.7 349.822 Q1818.7 341.489 1823.22 336.697 Q1827.73 331.882 1835.58 331.882 Q1838.68 331.882 1841.41 332.716 Q1844.17 333.526 1846.57 335.169 Z" fill="#000000" fill-rule="evenodd" fill-opacity="1" /><path clip-path="url(#clip830)" d="M1862.71 367.067 L1849.51 332.507 L1854.4 332.507 L1865.35 361.604 L1876.32 332.507 L1881.18 332.507 L1868.01 367.067 L1862.71 367.067 Z" fill="#000000" fill-rule="evenodd" fill-opacity="1" /><path clip-path="url(#clip830)" d="M1899.42 335.678 Q1894.33 335.678 1891.32 339.475 Q1888.33 343.271 1888.33 349.822 Q1888.33 356.35 1891.32 360.146 Q1894.33 363.942 1899.42 363.942 Q1904.51 363.942 1907.48 360.146 Q1910.46 356.35 1910.46 349.822 Q1910.46 343.271 1907.48 339.475 Q1904.51 335.678 1899.42 335.678 M1899.42 331.882 Q1906.69 331.882 1911.04 336.766 Q1915.39 341.628 1915.39 349.822 Q1915.39 357.993 1911.04 362.877 Q1906.69 367.738 1899.42 367.738 Q1892.13 367.738 1887.76 362.877 Q1883.4 358.016 1883.4 349.822 Q1883.4 341.628 1887.76 336.766 Q1892.13 331.882 1899.42 331.882 Z" fill="#000000" fill-rule="evenodd" fill-opacity="1" /><path clip-path="url(#clip830)" d="M1927.38 336.35 L1927.38 363.225 L1933.03 363.225 Q1940.19 363.225 1943.5 359.984 Q1946.83 356.743 1946.83 349.752 Q1946.83 342.808 1943.5 339.59 Q1940.19 336.35 1933.03 336.35 L1927.38 336.35 M1922.71 332.507 L1932.32 332.507 Q1942.36 332.507 1947.06 336.697 Q1951.76 340.864 1951.76 349.752 Q1951.76 358.688 1947.04 362.877 Q1942.32 367.067 1932.32 367.067 L1922.71 367.067 L1922.71 332.507 Z" fill="#000000" fill-rule="evenodd" fill-opacity="1" /><path clip-path="url(#clip830)" d="M1959.21 332.507 L1981.07 332.507 L1981.07 336.442 L1963.89 336.442 L1963.89 346.674 L1980.35 346.674 L1980.35 350.609 L1963.89 350.609 L1963.89 363.132 L1981.48 363.132 L1981.48 367.067 L1959.21 367.067 L1959.21 332.507 Z" fill="#000000" fill-rule="evenodd" fill-opacity="1" /><path clip-path="url(#clip830)" d="M2008.68 374.938 L2008.68 378.248 L1984.05 378.248 L1984.05 374.938 L2008.68 374.938 Z" fill="#000000" fill-rule="evenodd" fill-opacity="1" /><path clip-path="url(#clip830)" d="M2017.55 350.563 L2017.55 363.225 L2025.05 363.225 Q2028.82 363.225 2030.62 361.674 Q2032.45 360.1 2032.45 356.882 Q2032.45 353.641 2030.62 352.114 Q2028.82 350.563 2025.05 350.563 L2017.55 350.563 M2017.55 336.35 L2017.55 346.766 L2024.47 346.766 Q2027.89 346.766 2029.56 345.493 Q2031.25 344.197 2031.25 341.558 Q2031.25 338.942 2029.56 337.646 Q2027.89 336.35 2024.47 336.35 L2017.55 336.35 M2012.87 332.507 L2024.81 332.507 Q2030.16 332.507 2033.06 334.729 Q2035.95 336.952 2035.95 341.049 Q2035.95 344.22 2034.47 346.095 Q2032.99 347.97 2030.12 348.433 Q2033.56 349.174 2035.46 351.535 Q2037.38 353.873 2037.38 357.391 Q2037.38 362.021 2034.24 364.544 Q2031.09 367.067 2025.28 367.067 L2012.87 367.067 L2012.87 332.507 Z" fill="#000000" fill-rule="evenodd" fill-opacity="1" /><path clip-path="url(#clip830)" d="M2050.07 336.35 L2050.07 363.225 L2055.72 363.225 Q2062.87 363.225 2066.18 359.984 Q2069.51 356.743 2069.51 349.752 Q2069.51 342.808 2066.18 339.59 Q2062.87 336.35 2055.72 336.35 L2050.07 336.35 M2045.39 332.507 L2055 332.507 Q2065.05 332.507 2069.75 336.697 Q2074.44 340.864 2074.44 349.752 Q2074.44 358.688 2069.72 362.877 Q2065 367.067 2055 367.067 L2045.39 367.067 L2045.39 332.507 Z" fill="#000000" fill-rule="evenodd" fill-opacity="1" /><path clip-path="url(#clip830)" d="M2081.9 332.507 L2101.76 332.507 L2101.76 336.442 L2086.57 336.442 L2086.57 346.627 L2100.28 346.627 L2100.28 350.563 L2086.57 350.563 L2086.57 367.067 L2081.9 367.067 L2081.9 332.507 Z" fill="#000000" fill-rule="evenodd" fill-opacity="1" /><polyline clip-path="url(#clip830)" style="stroke:#00a9ad; stroke-linecap:butt; stroke-linejoin:round; stroke-width:4; stroke-opacity:1; fill:none" points="
  1662.76,401.627 1796.43,401.627 
  "/>
<path clip-path="url(#clip830)" d="M1729.6 376.027 L1709.58 385.678 L1704.64 407.336 L1718.49 424.693 L1740.71 424.693 L1754.56 407.336 L1749.61 385.678 Z" fill="#00a9ad" fill-rule="evenodd" fill-opacity="1" stroke="#000000" stroke-opacity="1" stroke-width="4.9152"/>
<path clip-path="url(#clip830)" d="M1833.89 396.963 Q1833.17 396.546 1832.32 396.361 Q1831.48 396.153 1830.46 396.153 Q1826.85 396.153 1824.91 398.514 Q1822.99 400.852 1822.99 405.25 L1822.99 418.907 L1818.7 418.907 L1818.7 392.981 L1822.99 392.981 L1822.99 397.009 Q1824.33 394.648 1826.48 393.514 Q1828.64 392.356 1831.71 392.356 Q1832.15 392.356 1832.69 392.426 Q1833.22 392.472 1833.87 392.588 L1833.89 396.963 Z" fill="#000000" fill-rule="evenodd" fill-opacity="1" /><path clip-path="url(#clip830)" d="M1847.36 395.967 Q1843.94 395.967 1841.95 398.653 Q1839.95 401.315 1839.95 405.967 Q1839.95 410.62 1841.92 413.305 Q1843.91 415.967 1847.36 415.967 Q1850.76 415.967 1852.76 413.282 Q1854.75 410.597 1854.75 405.967 Q1854.75 401.361 1852.76 398.676 Q1850.76 395.967 1847.36 395.967 M1847.36 392.356 Q1852.92 392.356 1856.09 395.967 Q1859.26 399.579 1859.26 405.967 Q1859.26 412.333 1856.09 415.967 Q1852.92 419.578 1847.36 419.578 Q1841.78 419.578 1838.61 415.967 Q1835.46 412.333 1835.46 405.967 Q1835.46 399.579 1838.61 395.967 Q1841.78 392.356 1847.36 392.356 Z" fill="#000000" fill-rule="evenodd" fill-opacity="1" /><path clip-path="url(#clip830)" d="M1883.38 396.917 L1883.38 382.889 L1887.64 382.889 L1887.64 418.907 L1883.38 418.907 L1883.38 415.018 Q1882.04 417.333 1879.98 418.467 Q1877.94 419.578 1875.07 419.578 Q1870.37 419.578 1867.41 415.828 Q1864.47 412.079 1864.47 405.967 Q1864.47 399.856 1867.41 396.106 Q1870.37 392.356 1875.07 392.356 Q1877.94 392.356 1879.98 393.491 Q1882.04 394.602 1883.38 396.917 M1868.87 405.967 Q1868.87 410.666 1870.79 413.352 Q1872.73 416.014 1876.11 416.014 Q1879.49 416.014 1881.44 413.352 Q1883.38 410.666 1883.38 405.967 Q1883.38 401.268 1881.44 398.606 Q1879.49 395.921 1876.11 395.921 Q1872.73 395.921 1870.79 398.606 Q1868.87 401.268 1868.87 405.967 Z" fill="#000000" fill-rule="evenodd" fill-opacity="1" /><path clip-path="url(#clip830)" d="M1908.2 405.875 Q1903.03 405.875 1901.04 407.055 Q1899.05 408.236 1899.05 411.083 Q1899.05 413.352 1900.53 414.694 Q1902.04 416.014 1904.61 416.014 Q1908.15 416.014 1910.28 413.514 Q1912.43 410.991 1912.43 406.824 L1912.43 405.875 L1908.2 405.875 M1916.69 404.116 L1916.69 418.907 L1912.43 418.907 L1912.43 414.972 Q1910.97 417.333 1908.8 418.467 Q1906.62 419.578 1903.47 419.578 Q1899.49 419.578 1897.13 417.356 Q1894.79 415.111 1894.79 411.361 Q1894.79 406.986 1897.71 404.764 Q1900.65 402.542 1906.46 402.542 L1912.43 402.542 L1912.43 402.125 Q1912.43 399.185 1910.49 397.588 Q1908.57 395.967 1905.07 395.967 Q1902.85 395.967 1900.74 396.5 Q1898.63 397.032 1896.69 398.097 L1896.69 394.162 Q1899.03 393.259 1901.23 392.819 Q1903.43 392.356 1905.51 392.356 Q1911.13 392.356 1913.91 395.273 Q1916.69 398.19 1916.69 404.116 Z" fill="#000000" fill-rule="evenodd" fill-opacity="1" /><path clip-path="url(#clip830)" d="M1941.99 393.745 L1941.99 397.773 Q1940.19 396.847 1938.24 396.384 Q1936.3 395.921 1934.21 395.921 Q1931.04 395.921 1929.44 396.893 Q1927.87 397.866 1927.87 399.81 Q1927.87 401.292 1929.01 402.148 Q1930.14 402.981 1933.57 403.745 L1935.02 404.069 Q1939.56 405.042 1941.46 406.824 Q1943.38 408.583 1943.38 411.754 Q1943.38 415.366 1940.51 417.472 Q1937.66 419.578 1932.66 419.578 Q1930.58 419.578 1928.31 419.162 Q1926.07 418.768 1923.57 417.958 L1923.57 413.56 Q1925.93 414.787 1928.22 415.412 Q1930.51 416.014 1932.76 416.014 Q1935.76 416.014 1937.38 414.995 Q1939.01 413.954 1939.01 412.079 Q1939.01 410.342 1937.82 409.416 Q1936.67 408.491 1932.71 407.634 L1931.23 407.287 Q1927.27 406.454 1925.51 404.741 Q1923.75 403.004 1923.75 399.995 Q1923.75 396.338 1926.34 394.347 Q1928.94 392.356 1933.7 392.356 Q1936.07 392.356 1938.15 392.704 Q1940.23 393.051 1941.99 393.745 Z" fill="#000000" fill-rule="evenodd" fill-opacity="1" /><polyline clip-path="url(#clip830)" style="stroke:#ed5d92; stroke-linecap:butt; stroke-linejoin:round; stroke-width:4; stroke-opacity:1; fill:none" points="
  1662.76,453.467 1796.43,453.467 
  "/>
<path clip-path="url(#clip830)" d="M1729.6 479.067 L1707.43 466.267 L1707.43 440.667 L1729.6 427.867 L1751.77 440.667 L1751.77 466.267 Z" fill="#ed5d92" fill-rule="evenodd" fill-opacity="1" stroke="#000000" stroke-opacity="1" stroke-width="4.9152"/>
<path clip-path="url(#clip830)" d="M1833.89 448.803 Q1833.17 448.386 1832.32 448.201 Q1831.48 447.993 1830.46 447.993 Q1826.85 447.993 1824.91 450.354 Q1822.99 452.692 1822.99 457.09 L1822.99 470.747 L1818.7 470.747 L1818.7 444.821 L1822.99 444.821 L1822.99 448.849 Q1824.33 446.488 1826.48 445.354 Q1828.64 444.196 1831.71 444.196 Q1832.15 444.196 1832.69 444.266 Q1833.22 444.312 1833.87 444.428 L1833.89 448.803 Z" fill="#000000" fill-rule="evenodd" fill-opacity="1" /><path clip-path="url(#clip830)" d="M1850.14 457.715 Q1844.98 457.715 1842.99 458.895 Q1841 460.076 1841 462.923 Q1841 465.192 1842.48 466.534 Q1843.98 467.854 1846.55 467.854 Q1850.09 467.854 1852.22 465.354 Q1854.38 462.831 1854.38 458.664 L1854.38 457.715 L1850.14 457.715 M1858.64 455.956 L1858.64 470.747 L1854.38 470.747 L1854.38 466.812 Q1852.92 469.173 1850.74 470.307 Q1848.57 471.418 1845.42 471.418 Q1841.44 471.418 1839.08 469.196 Q1836.74 466.951 1836.74 463.201 Q1836.74 458.826 1839.65 456.604 Q1842.59 454.382 1848.4 454.382 L1854.38 454.382 L1854.38 453.965 Q1854.38 451.025 1852.43 449.428 Q1850.51 447.807 1847.01 447.807 Q1844.79 447.807 1842.69 448.34 Q1840.58 448.872 1838.64 449.937 L1838.64 446.002 Q1840.97 445.099 1843.17 444.659 Q1845.37 444.196 1847.45 444.196 Q1853.08 444.196 1855.86 447.113 Q1858.64 450.03 1858.64 455.956 Z" fill="#000000" fill-rule="evenodd" fill-opacity="1" /><path clip-path="url(#clip830)" d="M1884.47 448.757 L1884.47 434.729 L1888.73 434.729 L1888.73 470.747 L1884.47 470.747 L1884.47 466.858 Q1883.13 469.173 1881.07 470.307 Q1879.03 471.418 1876.16 471.418 Q1871.46 471.418 1868.5 467.668 Q1865.56 463.919 1865.56 457.807 Q1865.56 451.696 1868.5 447.946 Q1871.46 444.196 1876.16 444.196 Q1879.03 444.196 1881.07 445.331 Q1883.13 446.442 1884.47 448.757 M1869.95 457.807 Q1869.95 462.506 1871.88 465.192 Q1873.82 467.854 1877.2 467.854 Q1880.58 467.854 1882.52 465.192 Q1884.47 462.506 1884.47 457.807 Q1884.47 453.108 1882.52 450.446 Q1880.58 447.761 1877.2 447.761 Q1873.82 447.761 1871.88 450.446 Q1869.95 453.108 1869.95 457.807 Z" fill="#000000" fill-rule="evenodd" fill-opacity="1" /><path clip-path="url(#clip830)" d="M1909.28 457.715 Q1904.12 457.715 1902.13 458.895 Q1900.14 460.076 1900.14 462.923 Q1900.14 465.192 1901.62 466.534 Q1903.13 467.854 1905.7 467.854 Q1909.24 467.854 1911.37 465.354 Q1913.52 462.831 1913.52 458.664 L1913.52 457.715 L1909.28 457.715 M1917.78 455.956 L1917.78 470.747 L1913.52 470.747 L1913.52 466.812 Q1912.06 469.173 1909.88 470.307 Q1907.71 471.418 1904.56 471.418 Q1900.58 471.418 1898.22 469.196 Q1895.88 466.951 1895.88 463.201 Q1895.88 458.826 1898.8 456.604 Q1901.74 454.382 1907.55 454.382 L1913.52 454.382 L1913.52 453.965 Q1913.52 451.025 1911.57 449.428 Q1909.65 447.807 1906.16 447.807 Q1903.94 447.807 1901.83 448.34 Q1899.72 448.872 1897.78 449.937 L1897.78 446.002 Q1900.12 445.099 1902.32 444.659 Q1904.51 444.196 1906.6 444.196 Q1912.22 444.196 1915 447.113 Q1917.78 450.03 1917.78 455.956 Z" fill="#000000" fill-rule="evenodd" fill-opacity="1" /><path clip-path="url(#clip830)" d="M1926.11 460.516 L1926.11 444.821 L1930.37 444.821 L1930.37 460.354 Q1930.37 464.034 1931.81 465.886 Q1933.24 467.715 1936.11 467.715 Q1939.56 467.715 1941.55 465.516 Q1943.57 463.317 1943.57 459.52 L1943.57 444.821 L1947.82 444.821 L1947.82 470.747 L1943.57 470.747 L1943.57 466.766 Q1942.01 469.127 1939.95 470.284 Q1937.92 471.418 1935.21 471.418 Q1930.74 471.418 1928.43 468.641 Q1926.11 465.863 1926.11 460.516 M1936.83 444.196 L1936.83 444.196 Z" fill="#000000" fill-rule="evenodd" fill-opacity="1" /><polyline clip-path="url(#clip830)" style="stroke:#c68125; stroke-linecap:butt; stroke-linejoin:round; stroke-width:4; stroke-opacity:1; fill:none" points="
  1662.76,505.307 1796.43,505.307 
  "/>
<line clip-path="url(#clip830)" x1="1755.2" y1="505.307" x2="1704" y2="505.307" style="stroke:#c68125; stroke-width:4.9152; stroke-opacity:1"/>
<path clip-path="url(#clip830)" d="M1835.09 506.384 Q1836.6 506.893 1838.01 508.559 Q1839.45 510.226 1840.88 513.143 L1845.63 522.587 L1840.6 522.587 L1836.18 513.721 Q1834.47 510.249 1832.85 509.115 Q1831.25 507.981 1828.47 507.981 L1823.38 507.981 L1823.38 522.587 L1818.7 522.587 L1818.7 488.027 L1829.26 488.027 Q1835.19 488.027 1838.1 490.504 Q1841.02 492.981 1841.02 497.981 Q1841.02 501.245 1839.49 503.397 Q1837.99 505.55 1835.09 506.384 M1823.38 491.87 L1823.38 504.138 L1829.26 504.138 Q1832.64 504.138 1834.35 502.587 Q1836.09 501.013 1836.09 497.981 Q1836.09 494.948 1834.35 493.421 Q1832.64 491.87 1829.26 491.87 L1823.38 491.87 Z" fill="#000000" fill-rule="evenodd" fill-opacity="1" /><path clip-path="url(#clip830)" d="M1862.2 509.555 Q1857.04 509.555 1855.05 510.735 Q1853.06 511.916 1853.06 514.763 Q1853.06 517.032 1854.54 518.374 Q1856.04 519.694 1858.61 519.694 Q1862.15 519.694 1864.28 517.194 Q1866.44 514.671 1866.44 510.504 L1866.44 509.555 L1862.2 509.555 M1870.7 507.796 L1870.7 522.587 L1866.44 522.587 L1866.44 518.652 Q1864.98 521.013 1862.8 522.147 Q1860.63 523.258 1857.48 523.258 Q1853.5 523.258 1851.14 521.036 Q1848.8 518.791 1848.8 515.041 Q1848.8 510.666 1851.71 508.444 Q1854.65 506.222 1860.46 506.222 L1866.44 506.222 L1866.44 505.805 Q1866.44 502.865 1864.49 501.268 Q1862.57 499.647 1859.07 499.647 Q1856.85 499.647 1854.75 500.18 Q1852.64 500.712 1850.7 501.777 L1850.7 497.842 Q1853.03 496.939 1855.23 496.499 Q1857.43 496.036 1859.51 496.036 Q1865.14 496.036 1867.92 498.953 Q1870.7 501.87 1870.7 507.796 Z" fill="#000000" fill-rule="evenodd" fill-opacity="1" /><path clip-path="url(#clip830)" d="M1896.53 500.597 L1896.53 486.569 L1900.79 486.569 L1900.79 522.587 L1896.53 522.587 L1896.53 518.698 Q1895.19 521.013 1893.13 522.147 Q1891.09 523.258 1888.22 523.258 Q1883.52 523.258 1880.56 519.508 Q1877.62 515.759 1877.62 509.647 Q1877.62 503.536 1880.56 499.786 Q1883.52 496.036 1888.22 496.036 Q1891.09 496.036 1893.13 497.171 Q1895.19 498.282 1896.53 500.597 M1882.01 509.647 Q1882.01 514.346 1883.94 517.032 Q1885.88 519.694 1889.26 519.694 Q1892.64 519.694 1894.58 517.032 Q1896.53 514.346 1896.53 509.647 Q1896.53 504.948 1894.58 502.286 Q1892.64 499.601 1889.26 499.601 Q1885.88 499.601 1883.94 502.286 Q1882.01 504.948 1882.01 509.647 Z" fill="#000000" fill-rule="evenodd" fill-opacity="1" /><path clip-path="url(#clip830)" d="M1921.34 509.555 Q1916.18 509.555 1914.19 510.735 Q1912.2 511.916 1912.2 514.763 Q1912.2 517.032 1913.68 518.374 Q1915.19 519.694 1917.76 519.694 Q1921.3 519.694 1923.43 517.194 Q1925.58 514.671 1925.58 510.504 L1925.58 509.555 L1921.34 509.555 M1929.84 507.796 L1929.84 522.587 L1925.58 522.587 L1925.58 518.652 Q1924.12 521.013 1921.94 522.147 Q1919.77 523.258 1916.62 523.258 Q1912.64 523.258 1910.28 521.036 Q1907.94 518.791 1907.94 515.041 Q1907.94 510.666 1910.86 508.444 Q1913.8 506.222 1919.61 506.222 L1925.58 506.222 L1925.58 505.805 Q1925.58 502.865 1923.63 501.268 Q1921.71 499.647 1918.22 499.647 Q1916 499.647 1913.89 500.18 Q1911.78 500.712 1909.84 501.777 L1909.84 497.842 Q1912.18 496.939 1914.38 496.499 Q1916.57 496.036 1918.66 496.036 Q1924.28 496.036 1927.06 498.953 Q1929.84 501.87 1929.84 507.796 Z" fill="#000000" fill-rule="evenodd" fill-opacity="1" /><path clip-path="url(#clip830)" d="M1938.17 512.356 L1938.17 496.661 L1942.43 496.661 L1942.43 512.194 Q1942.43 515.874 1943.87 517.726 Q1945.3 519.555 1948.17 519.555 Q1951.62 519.555 1953.61 517.356 Q1955.63 515.157 1955.63 511.36 L1955.63 496.661 L1959.88 496.661 L1959.88 522.587 L1955.63 522.587 L1955.63 518.606 Q1954.07 520.967 1952.01 522.124 Q1949.98 523.258 1947.27 523.258 Q1942.8 523.258 1940.49 520.481 Q1938.17 517.703 1938.17 512.356 M1948.89 496.036 L1948.89 496.036 Z" fill="#000000" fill-rule="evenodd" fill-opacity="1" /><path clip-path="url(#clip830)" d="M1968.84 488.027 L1973.52 488.027 L1973.52 522.587 L1968.84 522.587 L1968.84 488.027 Z" fill="#000000" fill-rule="evenodd" fill-opacity="1" /><path clip-path="url(#clip830)" d="M1982.82 488.027 L1987.5 488.027 L1987.5 522.587 L1982.82 522.587 L1982.82 488.027 Z" fill="#000000" fill-rule="evenodd" fill-opacity="1" /><path clip-path="url(#clip830)" d="M2008.36 492.634 L2002.01 509.833 L2014.72 509.833 L2008.36 492.634 M2005.72 488.027 L2011.02 488.027 L2024.19 522.587 L2019.33 522.587 L2016.18 513.721 L2000.6 513.721 L1997.45 522.587 L1992.52 522.587 L2005.72 488.027 Z" fill="#000000" fill-rule="evenodd" fill-opacity="1" /><path clip-path="url(#clip830)" d="M2029.7 488.027 L2048.06 488.027 L2048.06 491.962 L2033.98 491.962 L2033.98 500.435 Q2035 500.087 2036.02 499.925 Q2037.04 499.74 2038.06 499.74 Q2043.84 499.74 2047.22 502.911 Q2050.6 506.083 2050.6 511.499 Q2050.6 517.078 2047.13 520.18 Q2043.66 523.258 2037.34 523.258 Q2035.16 523.258 2032.89 522.888 Q2030.65 522.518 2028.24 521.777 L2028.24 517.078 Q2030.32 518.212 2032.55 518.768 Q2034.77 519.323 2037.25 519.323 Q2041.25 519.323 2043.59 517.217 Q2045.93 515.11 2045.93 511.499 Q2045.93 507.888 2043.59 505.782 Q2041.25 503.675 2037.25 503.675 Q2035.37 503.675 2033.5 504.092 Q2031.64 504.509 2029.7 505.388 L2029.7 488.027 Z" fill="#000000" fill-rule="evenodd" fill-opacity="1" /><polyline clip-path="url(#clip830)" style="stroke:#00a98d; stroke-linecap:butt; stroke-linejoin:round; stroke-width:4; stroke-opacity:1; fill:none" points="
  1662.76,557.147 1796.43,557.147 
  "/>
<path clip-path="url(#clip830)" d="M1709.12 557.147 L1739.84 575.067 L1739.84 539.227 L1709.12 557.147 Z" fill="#00a98d" fill-rule="evenodd" fill-opacity="1" stroke="#000000" stroke-opacity="1" stroke-width="4.9152"/>
<path clip-path="url(#clip830)" d="M1835.09 558.224 Q1836.6 558.733 1838.01 560.399 Q1839.45 562.066 1840.88 564.983 L1845.63 574.427 L1840.6 574.427 L1836.18 565.561 Q1834.47 562.089 1832.85 560.955 Q1831.25 559.821 1828.47 559.821 L1823.38 559.821 L1823.38 574.427 L1818.7 574.427 L1818.7 539.867 L1829.26 539.867 Q1835.19 539.867 1838.1 542.344 Q1841.02 544.821 1841.02 549.821 Q1841.02 553.085 1839.49 555.237 Q1837.99 557.39 1835.09 558.224 M1823.38 543.71 L1823.38 555.978 L1829.26 555.978 Q1832.64 555.978 1834.35 554.427 Q1836.09 552.853 1836.09 549.821 Q1836.09 546.788 1834.35 545.261 Q1832.64 543.71 1829.26 543.71 L1823.38 543.71 Z" fill="#000000" fill-rule="evenodd" fill-opacity="1" /><path clip-path="url(#clip830)" d="M1865.67 543.038 Q1860.58 543.038 1857.57 546.835 Q1854.58 550.631 1854.58 557.182 Q1854.58 563.71 1857.57 567.506 Q1860.58 571.302 1865.67 571.302 Q1870.76 571.302 1873.73 567.506 Q1876.71 563.71 1876.71 557.182 Q1876.71 550.631 1873.73 546.835 Q1870.76 543.038 1865.67 543.038 M1865.67 539.242 Q1872.94 539.242 1877.29 544.126 Q1881.64 548.988 1881.64 557.182 Q1881.64 565.353 1877.29 570.237 Q1872.94 575.098 1865.67 575.098 Q1858.38 575.098 1854.01 570.237 Q1849.65 565.376 1849.65 557.182 Q1849.65 548.988 1854.01 544.126 Q1858.38 539.242 1865.67 539.242 Z" fill="#000000" fill-rule="evenodd" fill-opacity="1" /><path clip-path="url(#clip830)" d="M1909.68 541.001 L1909.68 545.562 Q1907.01 544.288 1904.65 543.663 Q1902.29 543.038 1900.09 543.038 Q1896.27 543.038 1894.19 544.52 Q1892.13 546.001 1892.13 548.733 Q1892.13 551.025 1893.5 552.205 Q1894.88 553.362 1898.73 554.08 L1901.55 554.659 Q1906.78 555.654 1909.26 558.177 Q1911.76 560.677 1911.76 564.89 Q1911.76 569.913 1908.38 572.506 Q1905.02 575.098 1898.52 575.098 Q1896.07 575.098 1893.29 574.543 Q1890.53 573.987 1887.57 572.899 L1887.57 568.085 Q1890.42 569.682 1893.15 570.492 Q1895.88 571.302 1898.52 571.302 Q1902.52 571.302 1904.7 569.728 Q1906.88 568.154 1906.88 565.237 Q1906.88 562.691 1905.3 561.256 Q1903.75 559.821 1900.19 559.103 L1897.34 558.548 Q1892.11 557.506 1889.77 555.284 Q1887.43 553.062 1887.43 549.103 Q1887.43 544.52 1890.65 541.881 Q1893.89 539.242 1899.56 539.242 Q1901.99 539.242 1904.51 539.682 Q1907.04 540.122 1909.68 541.001 Z" fill="#000000" fill-rule="evenodd" fill-opacity="1" /><path clip-path="url(#clip830)" d="M1933.63 555.793 Q1936.99 556.511 1938.87 558.779 Q1940.76 561.048 1940.76 564.381 Q1940.76 569.497 1937.25 572.298 Q1933.73 575.098 1927.25 575.098 Q1925.07 575.098 1922.76 574.659 Q1920.46 574.242 1918.01 573.386 L1918.01 568.872 Q1919.95 570.006 1922.27 570.585 Q1924.58 571.163 1927.11 571.163 Q1931.51 571.163 1933.8 569.427 Q1936.11 567.691 1936.11 564.381 Q1936.11 561.325 1933.96 559.612 Q1931.83 557.876 1928.01 557.876 L1923.98 557.876 L1923.98 554.034 L1928.19 554.034 Q1931.64 554.034 1933.47 552.668 Q1935.3 551.279 1935.3 548.687 Q1935.3 546.025 1933.4 544.613 Q1931.53 543.177 1928.01 543.177 Q1926.09 543.177 1923.89 543.594 Q1921.69 544.011 1919.05 544.89 L1919.05 540.724 Q1921.71 539.983 1924.03 539.613 Q1926.37 539.242 1928.43 539.242 Q1933.75 539.242 1936.85 541.673 Q1939.95 544.08 1939.95 548.2 Q1939.95 551.071 1938.31 553.062 Q1936.67 555.029 1933.63 555.793 Z" fill="#000000" fill-rule="evenodd" fill-opacity="1" /><path clip-path="url(#clip830)" d="M1962.48 543.941 L1950.67 562.39 L1962.48 562.39 L1962.48 543.941 M1961.25 539.867 L1967.13 539.867 L1967.13 562.39 L1972.06 562.39 L1972.06 566.279 L1967.13 566.279 L1967.13 574.427 L1962.48 574.427 L1962.48 566.279 L1946.88 566.279 L1946.88 561.765 L1961.25 539.867 Z" fill="#000000" fill-rule="evenodd" fill-opacity="1" /><path clip-path="url(#clip830)" d="M1984.05 543.71 L1984.05 556.696 L1989.93 556.696 Q1993.19 556.696 1994.98 555.006 Q1996.76 553.316 1996.76 550.191 Q1996.76 547.089 1994.98 545.4 Q1993.19 543.71 1989.93 543.71 L1984.05 543.71 M1979.38 539.867 L1989.93 539.867 Q1995.74 539.867 1998.7 542.506 Q2001.69 545.122 2001.69 550.191 Q2001.69 555.307 1998.7 557.923 Q1995.74 560.538 1989.93 560.538 L1984.05 560.538 L1984.05 574.427 L1979.38 574.427 L1979.38 539.867 Z" fill="#000000" fill-rule="evenodd" fill-opacity="1" /><path clip-path="url(#clip830)" d="M2004.88 539.867 L2009.61 539.867 L2016.88 569.08 L2024.12 539.867 L2029.37 539.867 L2036.64 569.08 L2043.89 539.867 L2048.63 539.867 L2039.95 574.427 L2034.07 574.427 L2026.78 544.427 L2019.42 574.427 L2013.54 574.427 L2004.88 539.867 Z" fill="#000000" fill-rule="evenodd" fill-opacity="1" /><path clip-path="url(#clip830)" d="M2056.06 570.492 L2063.7 570.492 L2063.7 544.126 L2055.39 545.793 L2055.39 541.534 L2063.66 539.867 L2068.33 539.867 L2068.33 570.492 L2075.97 570.492 L2075.97 574.427 L2056.06 574.427 L2056.06 570.492 Z" fill="#000000" fill-rule="evenodd" fill-opacity="1" /><path clip-path="url(#clip830)" d="M2096.6 561.395 Q2091.43 561.395 2089.44 562.575 Q2087.45 563.756 2087.45 566.603 Q2087.45 568.872 2088.93 570.214 Q2090.44 571.534 2093.01 571.534 Q2096.55 571.534 2098.68 569.034 Q2100.83 566.511 2100.83 562.344 L2100.83 561.395 L2096.6 561.395 M2105.09 559.636 L2105.09 574.427 L2100.83 574.427 L2100.83 570.492 Q2099.37 572.853 2097.2 573.987 Q2095.02 575.098 2091.87 575.098 Q2087.89 575.098 2085.53 572.876 Q2083.19 570.631 2083.19 566.881 Q2083.19 562.506 2086.11 560.284 Q2089.05 558.062 2094.86 558.062 L2100.83 558.062 L2100.83 557.645 Q2100.83 554.705 2098.89 553.108 Q2096.97 551.487 2093.47 551.487 Q2091.25 551.487 2089.14 552.02 Q2087.04 552.552 2085.09 553.617 L2085.09 549.682 Q2087.43 548.779 2089.63 548.339 Q2091.83 547.876 2093.91 547.876 Q2099.54 547.876 2102.31 550.793 Q2105.09 553.71 2105.09 559.636 Z" fill="#000000" fill-rule="evenodd" fill-opacity="1" /><polyline clip-path="url(#clip830)" style="stroke:#8e971d; stroke-linecap:butt; stroke-linejoin:round; stroke-width:4; stroke-opacity:1; fill:none" points="
  1662.76,608.987 1796.43,608.987 
  "/>
<path clip-path="url(#clip830)" d="M1729.6 634.587 L1711.5 627.086 L1704 608.987 L1711.5 590.888 L1729.6 583.387 L1747.69 590.888 L1755.2 608.987 L1747.69 627.086 Z" fill="#8e971d" fill-rule="evenodd" fill-opacity="1" stroke="#000000" stroke-opacity="1" stroke-width="4.9152"/>
<path clip-path="url(#clip830)" d="M1818.7 590.249 L1822.96 590.249 L1822.96 626.267 L1818.7 626.267 L1818.7 590.249 Z" fill="#000000" fill-rule="evenodd" fill-opacity="1" /><path clip-path="url(#clip830)" d="M1848.4 601.105 L1848.4 605.133 Q1846.6 604.207 1844.65 603.744 Q1842.71 603.281 1840.63 603.281 Q1837.45 603.281 1835.86 604.253 Q1834.28 605.226 1834.28 607.17 Q1834.28 608.652 1835.42 609.508 Q1836.55 610.341 1839.98 611.105 L1841.44 611.429 Q1845.97 612.402 1847.87 614.184 Q1849.79 615.943 1849.79 619.114 Q1849.79 622.726 1846.92 624.832 Q1844.08 626.938 1839.08 626.938 Q1836.99 626.938 1834.72 626.522 Q1832.48 626.128 1829.98 625.318 L1829.98 620.92 Q1832.34 622.147 1834.63 622.772 Q1836.92 623.374 1839.17 623.374 Q1842.18 623.374 1843.8 622.355 Q1845.42 621.314 1845.42 619.439 Q1845.42 617.702 1844.24 616.776 Q1843.08 615.851 1839.12 614.994 L1837.64 614.647 Q1833.68 613.814 1831.92 612.101 Q1830.16 610.364 1830.16 607.355 Q1830.16 603.698 1832.76 601.707 Q1835.35 599.716 1840.12 599.716 Q1842.48 599.716 1844.56 600.064 Q1846.64 600.411 1848.4 601.105 Z" fill="#000000" fill-rule="evenodd" fill-opacity="1" /><path clip-path="url(#clip830)" d="M1866.62 603.327 Q1863.2 603.327 1861.2 606.013 Q1859.21 608.675 1859.21 613.327 Q1859.21 617.98 1861.18 620.665 Q1863.17 623.327 1866.62 623.327 Q1870.02 623.327 1872.01 620.642 Q1874.01 617.957 1874.01 613.327 Q1874.01 608.721 1872.01 606.036 Q1870.02 603.327 1866.62 603.327 M1866.62 599.716 Q1872.18 599.716 1875.35 603.327 Q1878.52 606.939 1878.52 613.327 Q1878.52 619.693 1875.35 623.327 Q1872.18 626.938 1866.62 626.938 Q1861.04 626.938 1857.87 623.327 Q1854.72 619.693 1854.72 613.327 Q1854.72 606.939 1857.87 603.327 Q1861.04 599.716 1866.62 599.716 Z" fill="#000000" fill-rule="evenodd" fill-opacity="1" /><path clip-path="url(#clip830)" d="M1902.64 604.277 L1902.64 590.249 L1906.9 590.249 L1906.9 626.267 L1902.64 626.267 L1902.64 622.378 Q1901.3 624.693 1899.24 625.827 Q1897.2 626.938 1894.33 626.938 Q1889.63 626.938 1886.67 623.188 Q1883.73 619.439 1883.73 613.327 Q1883.73 607.216 1886.67 603.466 Q1889.63 599.716 1894.33 599.716 Q1897.2 599.716 1899.24 600.851 Q1901.3 601.962 1902.64 604.277 M1888.13 613.327 Q1888.13 618.026 1890.05 620.712 Q1891.99 623.374 1895.37 623.374 Q1898.75 623.374 1900.7 620.712 Q1902.64 618.026 1902.64 613.327 Q1902.64 608.628 1900.7 605.966 Q1898.75 603.281 1895.37 603.281 Q1891.99 603.281 1890.05 605.966 Q1888.13 608.628 1888.13 613.327 Z" fill="#000000" fill-rule="evenodd" fill-opacity="1" /><path clip-path="url(#clip830)" d="M1927.45 613.235 Q1922.29 613.235 1920.3 614.415 Q1918.31 615.596 1918.31 618.443 Q1918.31 620.712 1919.79 622.054 Q1921.3 623.374 1923.87 623.374 Q1927.41 623.374 1929.54 620.874 Q1931.69 618.351 1931.69 614.184 L1931.69 613.235 L1927.45 613.235 M1935.95 611.476 L1935.95 626.267 L1931.69 626.267 L1931.69 622.332 Q1930.23 624.693 1928.06 625.827 Q1925.88 626.938 1922.73 626.938 Q1918.75 626.938 1916.39 624.716 Q1914.05 622.471 1914.05 618.721 Q1914.05 614.346 1916.97 612.124 Q1919.91 609.902 1925.72 609.902 L1931.69 609.902 L1931.69 609.485 Q1931.69 606.545 1929.75 604.948 Q1927.82 603.327 1924.33 603.327 Q1922.11 603.327 1920 603.86 Q1917.89 604.392 1915.95 605.457 L1915.95 601.522 Q1918.29 600.619 1920.49 600.179 Q1922.69 599.716 1924.77 599.716 Q1930.39 599.716 1933.17 602.633 Q1935.95 605.55 1935.95 611.476 Z" fill="#000000" fill-rule="evenodd" fill-opacity="1" /></svg>
