<?xml version="1.0" encoding="utf-8"?>
<svg xmlns="http://www.w3.org/2000/svg" xmlns:xlink="http://www.w3.org/1999/xlink" width="576" height="384" viewBox="0 0 2304 1536">
<defs>
  <clipPath id="clip310">
    <rect x="0" y="0" width="2304" height="1536"/>
  </clipPath>
</defs>
<path clip-path="url(#clip310)" d="
M0 1536 L2304 1536 L2304 0 L0 0  Z
  " fill="#ffffff" fill-rule="evenodd" fill-opacity="1"/>
<defs>
  <clipPath id="clip311">
    <rect x="460" y="0" width="1614" height="1536"/>
  </clipPath>
</defs>
<path clip-path="url(#clip310)" d="
M250.882 1347.54 L2256.76 1347.54 L2256.76 47.2441 L250.882 47.2441  Z
  " fill="#ffffff" fill-rule="evenodd" fill-opacity="1"/>
<defs>
  <clipPath id="clip312">
    <rect x="250" y="47" width="2007" height="1301"/>
  </clipPath>
</defs>
<polyline clip-path="url(#clip312)" style="stroke:#000000; stroke-linecap:butt; stroke-linejoin:round; stroke-width:2; stroke-opacity:0.1; fill:none" points="
  801.784,1347.54 801.784,47.2441 
  "/>
<polyline clip-path="url(#clip312)" style="stroke:#000000; stroke-linecap:butt; stroke-linejoin:round; stroke-width:2; stroke-opacity:0.1; fill:none" points="
  1605.83,1347.54 1605.83,47.2441 
  "/>
<polyline clip-path="url(#clip310)" style="stroke:#000000; stroke-linecap:butt; stroke-linejoin:round; stroke-width:4; stroke-opacity:1; fill:none" points="
  250.882,1347.54 2256.76,1347.54 
  "/>
<polyline clip-path="url(#clip310)" style="stroke:#000000; stroke-linecap:butt; stroke-linejoin:round; stroke-width:4; stroke-opacity:1; fill:none" points="
  801.784,1347.54 801.784,1328.64 
  "/>
<polyline clip-path="url(#clip310)" style="stroke:#000000; stroke-linecap:butt; stroke-linejoin:round; stroke-width:4; stroke-opacity:1; fill:none" points="
  1605.83,1347.54 1605.83,1328.64 
  "/>
<path clip-path="url(#clip310)" d="M751.335 1420.89 L758.974 1420.89 L758.974 1394.53 L750.664 1396.19 L750.664 1391.94 L758.928 1390.27 L763.604 1390.27 L763.604 1420.89 L771.242 1420.89 L771.242 1424.83 L751.335 1424.83 L751.335 1420.89 Z" fill="#000000" fill-rule="evenodd" fill-opacity="1" /><path clip-path="url(#clip310)" d="M790.687 1393.35 Q787.076 1393.35 785.247 1396.91 Q783.441 1400.45 783.441 1407.58 Q783.441 1414.69 785.247 1418.25 Q787.076 1421.8 790.687 1421.8 Q794.321 1421.8 796.127 1418.25 Q797.955 1414.69 797.955 1407.58 Q797.955 1400.45 796.127 1396.91 Q794.321 1393.35 790.687 1393.35 M790.687 1389.64 Q796.497 1389.64 799.552 1394.25 Q802.631 1398.83 802.631 1407.58 Q802.631 1416.31 799.552 1420.92 Q796.497 1425.5 790.687 1425.5 Q784.877 1425.5 781.798 1420.92 Q778.742 1416.31 778.742 1407.58 Q778.742 1398.83 781.798 1394.25 Q784.877 1389.64 790.687 1389.64 Z" fill="#000000" fill-rule="evenodd" fill-opacity="1" /><path clip-path="url(#clip310)" d="M802.631 1383.74 L826.743 1383.74 L826.743 1386.94 L802.631 1386.94 L802.631 1383.74 Z" fill="#000000" fill-rule="evenodd" fill-opacity="1" /><path clip-path="url(#clip310)" d="M843.538 1381.86 Q840.98 1381.86 839.476 1383.61 Q837.99 1385.36 837.99 1388.41 Q837.99 1391.44 839.476 1393.21 Q840.98 1394.95 843.538 1394.95 Q846.096 1394.95 847.582 1393.21 Q849.086 1391.44 849.086 1388.41 Q849.086 1385.36 847.582 1383.61 Q846.096 1381.86 843.538 1381.86 M851.08 1369.96 L851.08 1373.42 Q849.651 1372.74 848.184 1372.39 Q846.735 1372.03 845.306 1372.03 Q841.544 1372.03 839.551 1374.57 Q837.576 1377.11 837.294 1382.24 Q838.404 1380.6 840.077 1379.74 Q841.751 1378.85 843.764 1378.85 Q847.996 1378.85 850.441 1381.43 Q852.904 1383.99 852.904 1388.41 Q852.904 1392.74 850.346 1395.35 Q847.789 1397.96 843.538 1397.96 Q838.667 1397.96 836.09 1394.24 Q833.514 1390.5 833.514 1383.41 Q833.514 1376.75 836.673 1372.8 Q839.833 1368.83 845.156 1368.83 Q846.585 1368.83 848.033 1369.11 Q849.5 1369.39 851.08 1369.96 Z" fill="#000000" fill-rule="evenodd" fill-opacity="1" /><path clip-path="url(#clip310)" d="M1555.71 1420.89 L1563.35 1420.89 L1563.35 1394.53 L1555.04 1396.19 L1555.04 1391.94 L1563.3 1390.27 L1567.98 1390.27 L1567.98 1420.89 L1575.61 1420.89 L1575.61 1424.83 L1555.71 1424.83 L1555.71 1420.89 Z" fill="#000000" fill-rule="evenodd" fill-opacity="1" /><path clip-path="url(#clip310)" d="M1595.06 1393.35 Q1591.45 1393.35 1589.62 1396.91 Q1587.81 1400.45 1587.81 1407.58 Q1587.81 1414.69 1589.62 1418.25 Q1591.45 1421.8 1595.06 1421.8 Q1598.69 1421.8 1600.5 1418.25 Q1602.33 1414.69 1602.33 1407.58 Q1602.33 1400.45 1600.5 1396.91 Q1598.69 1393.35 1595.06 1393.35 M1595.06 1389.64 Q1600.87 1389.64 1603.92 1394.25 Q1607 1398.83 1607 1407.58 Q1607 1416.31 1603.92 1420.92 Q1600.87 1425.5 1595.06 1425.5 Q1589.25 1425.5 1586.17 1420.92 Q1583.11 1416.31 1583.11 1407.58 Q1583.11 1398.83 1586.17 1394.25 Q1589.25 1389.64 1595.06 1389.64 Z" fill="#000000" fill-rule="evenodd" fill-opacity="1" /><path clip-path="url(#clip310)" d="M1607 1383.74 L1631.11 1383.74 L1631.11 1386.94 L1607 1386.94 L1607 1383.74 Z" fill="#000000" fill-rule="evenodd" fill-opacity="1" /><path clip-path="url(#clip310)" d="M1650.83 1382.28 Q1653.55 1382.86 1655.08 1384.7 Q1656.62 1386.55 1656.62 1389.26 Q1656.62 1393.41 1653.76 1395.69 Q1650.9 1397.96 1645.63 1397.96 Q1643.87 1397.96 1641.99 1397.61 Q1640.12 1397.27 1638.13 1396.57 L1638.13 1392.9 Q1639.71 1393.83 1641.59 1394.3 Q1643.47 1394.77 1645.52 1394.77 Q1649.1 1394.77 1650.96 1393.36 Q1652.84 1391.95 1652.84 1389.26 Q1652.84 1386.77 1651.09 1385.38 Q1649.36 1383.97 1646.26 1383.97 L1642.98 1383.97 L1642.98 1380.85 L1646.41 1380.85 Q1649.21 1380.85 1650.69 1379.74 Q1652.18 1378.61 1652.18 1376.5 Q1652.18 1374.34 1650.64 1373.19 Q1649.11 1372.03 1646.26 1372.03 Q1644.69 1372.03 1642.91 1372.37 Q1641.12 1372.7 1638.98 1373.42 L1638.98 1370.03 Q1641.14 1369.43 1643.02 1369.13 Q1644.92 1368.83 1646.59 1368.83 Q1650.92 1368.83 1653.44 1370.81 Q1655.96 1372.76 1655.96 1376.11 Q1655.96 1378.44 1654.62 1380.06 Q1653.29 1381.66 1650.83 1382.28 Z" fill="#000000" fill-rule="evenodd" fill-opacity="1" /><path clip-path="url(#clip310)" d="M1177.57 1461.87 L1207.62 1461.87 L1207.62 1467.28 L1184 1467.28 L1184 1481.34 L1206.63 1481.34 L1206.63 1486.76 L1184 1486.76 L1184 1503.97 L1208.19 1503.97 L1208.19 1509.39 L1177.57 1509.39 L1177.57 1461.87 Z" fill="#000000" fill-rule="evenodd" fill-opacity="1" /><path clip-path="url(#clip310)" d="M1239.16 1479.21 Q1238.18 1478.64 1237 1478.38 Q1235.85 1478.1 1234.45 1478.1 Q1229.49 1478.1 1226.81 1481.34 Q1224.17 1484.56 1224.17 1490.61 L1224.17 1509.39 L1218.28 1509.39 L1218.28 1473.74 L1224.17 1473.74 L1224.17 1479.28 Q1226.02 1476.03 1228.98 1474.47 Q1231.94 1472.88 1236.17 1472.88 Q1236.77 1472.88 1237.51 1472.97 Q1238.24 1473.04 1239.13 1473.2 L1239.16 1479.21 Z" fill="#000000" fill-rule="evenodd" fill-opacity="1" /><path clip-path="url(#clip310)" d="M1264.82 1479.21 Q1263.83 1478.64 1262.65 1478.38 Q1261.51 1478.1 1260.11 1478.1 Q1255.14 1478.1 1252.47 1481.34 Q1249.82 1484.56 1249.82 1490.61 L1249.82 1509.39 L1243.94 1509.39 L1243.94 1473.74 L1249.82 1473.74 L1249.82 1479.28 Q1251.67 1476.03 1254.63 1474.47 Q1257.59 1472.88 1261.82 1472.88 Q1262.43 1472.88 1263.16 1472.97 Q1263.89 1473.04 1264.78 1473.2 L1264.82 1479.21 Z" fill="#000000" fill-rule="evenodd" fill-opacity="1" /><path clip-path="url(#clip310)" d="M1283.34 1477.84 Q1278.63 1477.84 1275.89 1481.54 Q1273.15 1485.2 1273.15 1491.59 Q1273.15 1497.99 1275.86 1501.68 Q1278.6 1505.34 1283.34 1505.34 Q1288.02 1505.34 1290.76 1501.65 Q1293.49 1497.96 1293.49 1491.59 Q1293.49 1485.26 1290.76 1481.57 Q1288.02 1477.84 1283.34 1477.84 M1283.34 1472.88 Q1290.98 1472.88 1295.34 1477.84 Q1299.7 1482.81 1299.7 1491.59 Q1299.7 1500.35 1295.34 1505.34 Q1290.98 1510.31 1283.34 1510.31 Q1275.67 1510.31 1271.31 1505.34 Q1266.98 1500.35 1266.98 1491.59 Q1266.98 1482.81 1271.31 1477.84 Q1275.67 1472.88 1283.34 1472.88 Z" fill="#000000" fill-rule="evenodd" fill-opacity="1" /><path clip-path="url(#clip310)" d="M1330.06 1479.21 Q1329.08 1478.64 1327.9 1478.38 Q1326.75 1478.1 1325.35 1478.1 Q1320.39 1478.1 1317.71 1481.34 Q1315.07 1484.56 1315.07 1490.61 L1315.07 1509.39 L1309.18 1509.39 L1309.18 1473.74 L1315.07 1473.74 L1315.07 1479.28 Q1316.92 1476.03 1319.88 1474.47 Q1322.84 1472.88 1327.07 1472.88 Q1327.68 1472.88 1328.41 1472.97 Q1329.14 1473.04 1330.03 1473.2 L1330.06 1479.21 Z" fill="#000000" fill-rule="evenodd" fill-opacity="1" /><polyline clip-path="url(#clip312)" style="stroke:#000000; stroke-linecap:butt; stroke-linejoin:round; stroke-width:2; stroke-opacity:0.1; fill:none" points="
  250.882,1076.96 2256.76,1076.96 
  "/>
<polyline clip-path="url(#clip312)" style="stroke:#000000; stroke-linecap:butt; stroke-linejoin:round; stroke-width:2; stroke-opacity:0.1; fill:none" points="
  250.882,530.489 2256.76,530.489 
  "/>
<polyline clip-path="url(#clip310)" style="stroke:#000000; stroke-linecap:butt; stroke-linejoin:round; stroke-width:4; stroke-opacity:1; fill:none" points="
  250.882,1347.54 250.882,47.2441 
  "/>
<polyline clip-path="url(#clip310)" style="stroke:#000000; stroke-linecap:butt; stroke-linejoin:round; stroke-width:4; stroke-opacity:1; fill:none" points="
  250.882,1076.96 269.78,1076.96 
  "/>
<polyline clip-path="url(#clip310)" style="stroke:#000000; stroke-linecap:butt; stroke-linejoin:round; stroke-width:4; stroke-opacity:1; fill:none" points="
  250.882,530.489 269.78,530.489 
  "/>
<path clip-path="url(#clip310)" d="M115.411 1096.75 L123.05 1096.75 L123.05 1070.39 L114.74 1072.06 L114.74 1067.8 L123.004 1066.13 L127.68 1066.13 L127.68 1096.75 L135.319 1096.75 L135.319 1100.69 L115.411 1100.69 L115.411 1096.75 Z" fill="#000000" fill-rule="evenodd" fill-opacity="1" /><path clip-path="url(#clip310)" d="M154.763 1069.21 Q151.152 1069.21 149.323 1072.77 Q147.518 1076.32 147.518 1083.44 Q147.518 1090.55 149.323 1094.12 Q151.152 1097.66 154.763 1097.66 Q158.397 1097.66 160.203 1094.12 Q162.032 1090.55 162.032 1083.44 Q162.032 1076.32 160.203 1072.77 Q158.397 1069.21 154.763 1069.21 M154.763 1065.5 Q160.573 1065.5 163.629 1070.11 Q166.707 1074.69 166.707 1083.44 Q166.707 1092.17 163.629 1096.78 Q160.573 1101.36 154.763 1101.36 Q148.953 1101.36 145.874 1096.78 Q142.819 1092.17 142.819 1083.44 Q142.819 1074.69 145.874 1070.11 Q148.953 1065.5 154.763 1065.5 Z" fill="#000000" fill-rule="evenodd" fill-opacity="1" /><path clip-path="url(#clip310)" d="M166.707 1059.61 L190.819 1059.61 L190.819 1062.8 L166.707 1062.8 L166.707 1059.61 Z" fill="#000000" fill-rule="evenodd" fill-opacity="1" /><path clip-path="url(#clip310)" d="M210.53 1058.14 Q213.257 1058.72 214.78 1060.57 Q216.322 1062.41 216.322 1065.12 Q216.322 1069.27 213.464 1071.55 Q210.605 1073.82 205.339 1073.82 Q203.571 1073.82 201.69 1073.47 Q199.828 1073.13 197.834 1072.43 L197.834 1068.77 Q199.414 1069.69 201.295 1070.16 Q203.176 1070.63 205.226 1070.63 Q208.799 1070.63 210.661 1069.22 Q212.542 1067.81 212.542 1065.12 Q212.542 1062.63 210.793 1061.24 Q209.063 1059.83 205.959 1059.83 L202.687 1059.83 L202.687 1056.71 L206.11 1056.71 Q208.912 1056.71 210.398 1055.6 Q211.884 1054.47 211.884 1052.37 Q211.884 1050.2 210.341 1049.06 Q208.818 1047.89 205.959 1047.89 Q204.398 1047.89 202.612 1048.23 Q200.825 1048.57 198.681 1049.28 L198.681 1045.9 Q200.844 1045.29 202.724 1044.99 Q204.624 1044.69 206.298 1044.69 Q210.624 1044.69 213.144 1046.67 Q215.664 1048.62 215.664 1051.97 Q215.664 1054.3 214.329 1055.92 Q212.993 1057.52 210.53 1058.14 Z" fill="#000000" fill-rule="evenodd" fill-opacity="1" /><path clip-path="url(#clip310)" d="M116.183 550.282 L123.821 550.282 L123.821 523.916 L115.511 525.583 L115.511 521.324 L123.775 519.657 L128.451 519.657 L128.451 550.282 L136.09 550.282 L136.09 554.217 L116.183 554.217 L116.183 550.282 Z" fill="#000000" fill-rule="evenodd" fill-opacity="1" /><path clip-path="url(#clip310)" d="M155.534 522.736 Q151.923 522.736 150.094 526.3 Q148.289 529.842 148.289 536.972 Q148.289 544.078 150.094 547.643 Q151.923 551.184 155.534 551.184 Q159.168 551.184 160.974 547.643 Q162.803 544.078 162.803 536.972 Q162.803 529.842 160.974 526.3 Q159.168 522.736 155.534 522.736 M155.534 519.032 Q161.344 519.032 164.4 523.638 Q167.479 528.222 167.479 536.972 Q167.479 545.698 164.4 550.305 Q161.344 554.888 155.534 554.888 Q149.724 554.888 146.645 550.305 Q143.59 545.698 143.59 536.972 Q143.59 528.222 146.645 523.638 Q149.724 519.032 155.534 519.032 Z" fill="#000000" fill-rule="evenodd" fill-opacity="1" /><path clip-path="url(#clip310)" d="M167.479 513.133 L191.59 513.133 L191.59 516.331 L167.479 516.331 L167.479 513.133 Z" fill="#000000" fill-rule="evenodd" fill-opacity="1" /><path clip-path="url(#clip310)" d="M203.063 523.609 L216.322 523.609 L216.322 526.806 L198.493 526.806 L198.493 523.609 Q200.655 521.371 204.379 517.609 Q208.122 513.829 209.081 512.738 Q210.906 510.688 211.62 509.278 Q212.354 507.848 212.354 506.475 Q212.354 504.237 210.774 502.827 Q209.213 501.416 206.693 501.416 Q204.906 501.416 202.912 502.037 Q200.938 502.657 198.681 503.917 L198.681 500.081 Q200.975 499.159 202.969 498.689 Q204.962 498.219 206.618 498.219 Q210.981 498.219 213.576 500.4 Q216.172 502.582 216.172 506.231 Q216.172 507.961 215.514 509.522 Q214.874 511.064 213.163 513.171 Q212.692 513.716 210.172 516.331 Q207.652 518.926 203.063 523.609 Z" fill="#000000" fill-rule="evenodd" fill-opacity="1" /><path clip-path="url(#clip310)" d="M18.4042 827.219 L18.4042 787.02 L23.815 787.02 L23.815 803.889 L65.9242 803.889 L65.9242 810.35 L23.815 810.35 L23.815 827.219 L18.4042 827.219 Z" fill="#000000" fill-rule="evenodd" fill-opacity="1" /><path clip-path="url(#clip310)" d="M30.2762 783.073 L30.2762 777.216 L65.9242 777.216 L65.9242 783.073 L30.2762 783.073 M16.399 783.073 L16.399 777.216 L23.815 777.216 L23.815 783.073 L16.399 783.073 Z" fill="#000000" fill-rule="evenodd" fill-opacity="1" /><path clip-path="url(#clip310)" d="M37.1193 737.208 Q33.1726 735.012 31.2947 731.956 Q29.4168 728.901 29.4168 724.763 Q29.4168 719.193 33.3317 716.169 Q37.2148 713.145 44.4081 713.145 L65.9242 713.145 L65.9242 719.034 L44.599 719.034 Q39.4746 719.034 36.992 720.848 Q34.5094 722.662 34.5094 726.386 Q34.5094 730.938 37.5331 733.579 Q40.5568 736.221 45.7767 736.221 L65.9242 736.221 L65.9242 742.109 L44.599 742.109 Q39.4428 742.109 36.992 743.924 Q34.5094 745.738 34.5094 749.526 Q34.5094 754.013 37.5649 756.655 Q40.5886 759.297 45.7767 759.297 L65.9242 759.297 L65.9242 765.185 L30.2762 765.185 L30.2762 759.297 L35.8144 759.297 Q32.536 757.292 30.9764 754.491 Q29.4168 751.69 29.4168 747.839 Q29.4168 743.956 31.3902 741.25 Q33.3636 738.513 37.1193 737.208 Z" fill="#000000" fill-rule="evenodd" fill-opacity="1" /><path clip-path="url(#clip310)" d="M46.6361 670.973 L49.5006 670.973 L49.5006 697.9 Q55.5481 697.518 58.7309 694.271 Q61.8819 690.993 61.8819 685.168 Q61.8819 681.794 61.0544 678.643 Q60.2269 675.461 58.5718 672.341 L64.1099 672.341 Q65.4467 675.492 66.147 678.803 Q66.8472 682.113 66.8472 685.518 Q66.8472 694.048 61.8819 699.045 Q56.9167 704.011 48.4503 704.011 Q39.6974 704.011 34.5731 699.3 Q29.4168 694.558 29.4168 686.537 Q29.4168 679.344 34.0638 675.174 Q38.6789 670.973 46.6361 670.973 M44.9173 676.829 Q40.1112 676.893 37.2466 679.535 Q34.3821 682.145 34.3821 686.473 Q34.3821 691.375 37.1512 694.335 Q39.9202 697.263 44.9492 697.709 L44.9173 676.829 Z" fill="#000000" fill-rule="evenodd" fill-opacity="1" /><path clip-path="url(#clip310)" d="M16.4626 626.572 Q23.7832 630.837 30.9446 632.906 Q38.106 634.975 45.4584 634.975 Q52.8108 634.975 60.0359 632.906 Q67.2291 630.805 74.5179 626.572 L74.5179 631.664 Q67.0382 636.439 59.8131 638.826 Q52.588 641.181 45.4584 641.181 Q38.3606 641.181 31.1674 638.826 Q23.9742 636.471 16.4626 631.664 L16.4626 626.572 Z" fill="#000000" fill-rule="evenodd" fill-opacity="1" /><path clip-path="url(#clip310)" d="M31.3265 592.484 L36.8647 592.484 Q35.5916 594.966 34.955 597.64 Q34.3184 600.313 34.3184 603.178 Q34.3184 607.538 35.6552 609.735 Q36.992 611.899 39.6656 611.899 Q41.7026 611.899 42.8803 610.339 Q44.0261 608.78 45.0765 604.069 L45.5221 602.064 Q46.8589 595.826 49.3097 593.216 Q51.7286 590.574 56.0891 590.574 Q61.0544 590.574 63.9508 594.521 Q66.8472 598.435 66.8472 605.31 Q66.8472 608.175 66.2743 611.294 Q65.7332 614.382 64.6192 617.819 L58.5718 617.819 Q60.2587 614.573 61.118 611.422 Q61.9456 608.27 61.9456 605.183 Q61.9456 601.045 60.5451 598.817 Q59.1129 596.589 56.5347 596.589 Q54.1476 596.589 52.8745 598.213 Q51.6013 599.804 50.4237 605.247 L49.9462 607.284 Q48.8004 612.726 46.4451 615.145 Q44.058 617.564 39.9202 617.564 Q34.8913 617.564 32.1541 614 Q29.4168 610.435 29.4168 603.878 Q29.4168 600.632 29.8943 597.767 Q30.3717 594.902 31.3265 592.484 Z" fill="#000000" fill-rule="evenodd" fill-opacity="1" /><path clip-path="url(#clip310)" d="M16.4626 582.171 L16.4626 577.079 Q23.9742 572.304 31.1674 569.949 Q38.3606 567.562 45.4584 567.562 Q52.588 567.562 59.8131 569.949 Q67.0382 572.304 74.5179 577.079 L74.5179 582.171 Q67.2291 577.938 60.0359 575.869 Q52.8108 573.768 45.4584 573.768 Q38.106 573.768 30.9446 575.869 Q23.7832 577.938 16.4626 582.171 Z" fill="#000000" fill-rule="evenodd" fill-opacity="1" /><polyline clip-path="url(#clip312)" style="stroke:#009af9; stroke-linecap:butt; stroke-linejoin:round; stroke-width:12; stroke-opacity:1; fill:none" points="
  2199.99,1310.74 1852.06,1277.79 1798.93,1200.02 1089.79,1119.08 886.927,1044.19 662.564,932.86 307.652,722.099 
  "/>
<line clip-path="url(#clip312)" x1="2199.99" y1="1310.74" x2="2199.99" y2="1294.74" style="stroke:#009af9; stroke-width:3.072; stroke-opacity:1"/>
<line clip-path="url(#clip312)" x1="2199.99" y1="1310.74" x2="2183.99" y2="1310.74" style="stroke:#009af9; stroke-width:3.072; stroke-opacity:1"/>
<line clip-path="url(#clip312)" x1="2199.99" y1="1310.74" x2="2199.99" y2="1326.74" style="stroke:#009af9; stroke-width:3.072; stroke-opacity:1"/>
<line clip-path="url(#clip312)" x1="2199.99" y1="1310.74" x2="2215.99" y2="1310.74" style="stroke:#009af9; stroke-width:3.072; stroke-opacity:1"/>
<line clip-path="url(#clip312)" x1="1852.06" y1="1277.79" x2="1852.06" y2="1261.79" style="stroke:#009af9; stroke-width:3.072; stroke-opacity:1"/>
<line clip-path="url(#clip312)" x1="1852.06" y1="1277.79" x2="1836.06" y2="1277.79" style="stroke:#009af9; stroke-width:3.072; stroke-opacity:1"/>
<line clip-path="url(#clip312)" x1="1852.06" y1="1277.79" x2="1852.06" y2="1293.79" style="stroke:#009af9; stroke-width:3.072; stroke-opacity:1"/>
<line clip-path="url(#clip312)" x1="1852.06" y1="1277.79" x2="1868.06" y2="1277.79" style="stroke:#009af9; stroke-width:3.072; stroke-opacity:1"/>
<line clip-path="url(#clip312)" x1="1798.93" y1="1200.02" x2="1798.93" y2="1184.02" style="stroke:#009af9; stroke-width:3.072; stroke-opacity:1"/>
<line clip-path="url(#clip312)" x1="1798.93" y1="1200.02" x2="1782.93" y2="1200.02" style="stroke:#009af9; stroke-width:3.072; stroke-opacity:1"/>
<line clip-path="url(#clip312)" x1="1798.93" y1="1200.02" x2="1798.93" y2="1216.02" style="stroke:#009af9; stroke-width:3.072; stroke-opacity:1"/>
<line clip-path="url(#clip312)" x1="1798.93" y1="1200.02" x2="1814.93" y2="1200.02" style="stroke:#009af9; stroke-width:3.072; stroke-opacity:1"/>
<line clip-path="url(#clip312)" x1="1089.79" y1="1119.08" x2="1089.79" y2="1103.08" style="stroke:#009af9; stroke-width:3.072; stroke-opacity:1"/>
<line clip-path="url(#clip312)" x1="1089.79" y1="1119.08" x2="1073.79" y2="1119.08" style="stroke:#009af9; stroke-width:3.072; stroke-opacity:1"/>
<line clip-path="url(#clip312)" x1="1089.79" y1="1119.08" x2="1089.79" y2="1135.08" style="stroke:#009af9; stroke-width:3.072; stroke-opacity:1"/>
<line clip-path="url(#clip312)" x1="1089.79" y1="1119.08" x2="1105.79" y2="1119.08" style="stroke:#009af9; stroke-width:3.072; stroke-opacity:1"/>
<line clip-path="url(#clip312)" x1="886.927" y1="1044.19" x2="886.927" y2="1028.19" style="stroke:#009af9; stroke-width:3.072; stroke-opacity:1"/>
<line clip-path="url(#clip312)" x1="886.927" y1="1044.19" x2="870.927" y2="1044.19" style="stroke:#009af9; stroke-width:3.072; stroke-opacity:1"/>
<line clip-path="url(#clip312)" x1="886.927" y1="1044.19" x2="886.927" y2="1060.19" style="stroke:#009af9; stroke-width:3.072; stroke-opacity:1"/>
<line clip-path="url(#clip312)" x1="886.927" y1="1044.19" x2="902.927" y2="1044.19" style="stroke:#009af9; stroke-width:3.072; stroke-opacity:1"/>
<line clip-path="url(#clip312)" x1="662.564" y1="932.86" x2="662.564" y2="916.86" style="stroke:#009af9; stroke-width:3.072; stroke-opacity:1"/>
<line clip-path="url(#clip312)" x1="662.564" y1="932.86" x2="646.564" y2="932.86" style="stroke:#009af9; stroke-width:3.072; stroke-opacity:1"/>
<line clip-path="url(#clip312)" x1="662.564" y1="932.86" x2="662.564" y2="948.86" style="stroke:#009af9; stroke-width:3.072; stroke-opacity:1"/>
<line clip-path="url(#clip312)" x1="662.564" y1="932.86" x2="678.564" y2="932.86" style="stroke:#009af9; stroke-width:3.072; stroke-opacity:1"/>
<line clip-path="url(#clip312)" x1="307.652" y1="722.099" x2="307.652" y2="706.099" style="stroke:#009af9; stroke-width:3.072; stroke-opacity:1"/>
<line clip-path="url(#clip312)" x1="307.652" y1="722.099" x2="291.652" y2="722.099" style="stroke:#009af9; stroke-width:3.072; stroke-opacity:1"/>
<line clip-path="url(#clip312)" x1="307.652" y1="722.099" x2="307.652" y2="738.099" style="stroke:#009af9; stroke-width:3.072; stroke-opacity:1"/>
<line clip-path="url(#clip312)" x1="307.652" y1="722.099" x2="323.652" y2="722.099" style="stroke:#009af9; stroke-width:3.072; stroke-opacity:1"/>
<polyline clip-path="url(#clip312)" style="stroke:#e26f46; stroke-linecap:butt; stroke-linejoin:round; stroke-width:12; stroke-opacity:1; fill:none" points="
  2199.99,490.397 1852.06,512.018 1798.93,453.92 1089.79,420.583 886.927,271.121 662.564,192.247 307.652,84.0448 
  "/>
<circle clip-path="url(#clip312)" cx="2199.99" cy="490.397" r="14" fill="#e26f46" fill-rule="evenodd" fill-opacity="1" stroke="#000000" stroke-opacity="1" stroke-width="3.072"/>
<circle clip-path="url(#clip312)" cx="1852.06" cy="512.018" r="14" fill="#e26f46" fill-rule="evenodd" fill-opacity="1" stroke="#000000" stroke-opacity="1" stroke-width="3.072"/>
<circle clip-path="url(#clip312)" cx="1798.93" cy="453.92" r="14" fill="#e26f46" fill-rule="evenodd" fill-opacity="1" stroke="#000000" stroke-opacity="1" stroke-width="3.072"/>
<circle clip-path="url(#clip312)" cx="1089.79" cy="420.583" r="14" fill="#e26f46" fill-rule="evenodd" fill-opacity="1" stroke="#000000" stroke-opacity="1" stroke-width="3.072"/>
<circle clip-path="url(#clip312)" cx="886.927" cy="271.121" r="14" fill="#e26f46" fill-rule="evenodd" fill-opacity="1" stroke="#000000" stroke-opacity="1" stroke-width="3.072"/>
<circle clip-path="url(#clip312)" cx="662.564" cy="192.247" r="14" fill="#e26f46" fill-rule="evenodd" fill-opacity="1" stroke="#000000" stroke-opacity="1" stroke-width="3.072"/>
<circle clip-path="url(#clip312)" cx="307.652" cy="84.0448" r="14" fill="#e26f46" fill-rule="evenodd" fill-opacity="1" stroke="#000000" stroke-opacity="1" stroke-width="3.072"/>
<polyline clip-path="url(#clip312)" style="stroke:#3da44d; stroke-linecap:butt; stroke-linejoin:round; stroke-width:12; stroke-opacity:1; fill:none" points="
  2199.99,1206.84 1852.06,1191.96 1798.93,1129.07 1089.79,1046.81 886.927,947.688 662.564,828.163 307.652,631.639 
  "/>
<line clip-path="url(#clip312)" x1="2199.99" y1="1206.84" x2="2199.99" y2="1190.84" style="stroke:#3da44d; stroke-width:3.072; stroke-opacity:1"/>
<line clip-path="url(#clip312)" x1="2199.99" y1="1206.84" x2="2183.99" y2="1206.84" style="stroke:#3da44d; stroke-width:3.072; stroke-opacity:1"/>
<line clip-path="url(#clip312)" x1="2199.99" y1="1206.84" x2="2199.99" y2="1222.84" style="stroke:#3da44d; stroke-width:3.072; stroke-opacity:1"/>
<line clip-path="url(#clip312)" x1="2199.99" y1="1206.84" x2="2215.99" y2="1206.84" style="stroke:#3da44d; stroke-width:3.072; stroke-opacity:1"/>
<line clip-path="url(#clip312)" x1="1852.06" y1="1191.96" x2="1852.06" y2="1175.96" style="stroke:#3da44d; stroke-width:3.072; stroke-opacity:1"/>
<line clip-path="url(#clip312)" x1="1852.06" y1="1191.96" x2="1836.06" y2="1191.96" style="stroke:#3da44d; stroke-width:3.072; stroke-opacity:1"/>
<line clip-path="url(#clip312)" x1="1852.06" y1="1191.96" x2="1852.06" y2="1207.96" style="stroke:#3da44d; stroke-width:3.072; stroke-opacity:1"/>
<line clip-path="url(#clip312)" x1="1852.06" y1="1191.96" x2="1868.06" y2="1191.96" style="stroke:#3da44d; stroke-width:3.072; stroke-opacity:1"/>
<line clip-path="url(#clip312)" x1="1798.93" y1="1129.07" x2="1798.93" y2="1113.07" style="stroke:#3da44d; stroke-width:3.072; stroke-opacity:1"/>
<line clip-path="url(#clip312)" x1="1798.93" y1="1129.07" x2="1782.93" y2="1129.07" style="stroke:#3da44d; stroke-width:3.072; stroke-opacity:1"/>
<line clip-path="url(#clip312)" x1="1798.93" y1="1129.07" x2="1798.93" y2="1145.07" style="stroke:#3da44d; stroke-width:3.072; stroke-opacity:1"/>
<line clip-path="url(#clip312)" x1="1798.93" y1="1129.07" x2="1814.93" y2="1129.07" style="stroke:#3da44d; stroke-width:3.072; stroke-opacity:1"/>
<line clip-path="url(#clip312)" x1="1089.79" y1="1046.81" x2="1089.79" y2="1030.81" style="stroke:#3da44d; stroke-width:3.072; stroke-opacity:1"/>
<line clip-path="url(#clip312)" x1="1089.79" y1="1046.81" x2="1073.79" y2="1046.81" style="stroke:#3da44d; stroke-width:3.072; stroke-opacity:1"/>
<line clip-path="url(#clip312)" x1="1089.79" y1="1046.81" x2="1089.79" y2="1062.81" style="stroke:#3da44d; stroke-width:3.072; stroke-opacity:1"/>
<line clip-path="url(#clip312)" x1="1089.79" y1="1046.81" x2="1105.79" y2="1046.81" style="stroke:#3da44d; stroke-width:3.072; stroke-opacity:1"/>
<line clip-path="url(#clip312)" x1="886.927" y1="947.688" x2="886.927" y2="931.688" style="stroke:#3da44d; stroke-width:3.072; stroke-opacity:1"/>
<line clip-path="url(#clip312)" x1="886.927" y1="947.688" x2="870.927" y2="947.688" style="stroke:#3da44d; stroke-width:3.072; stroke-opacity:1"/>
<line clip-path="url(#clip312)" x1="886.927" y1="947.688" x2="886.927" y2="963.688" style="stroke:#3da44d; stroke-width:3.072; stroke-opacity:1"/>
<line clip-path="url(#clip312)" x1="886.927" y1="947.688" x2="902.927" y2="947.688" style="stroke:#3da44d; stroke-width:3.072; stroke-opacity:1"/>
<line clip-path="url(#clip312)" x1="662.564" y1="828.163" x2="662.564" y2="812.163" style="stroke:#3da44d; stroke-width:3.072; stroke-opacity:1"/>
<line clip-path="url(#clip312)" x1="662.564" y1="828.163" x2="646.564" y2="828.163" style="stroke:#3da44d; stroke-width:3.072; stroke-opacity:1"/>
<line clip-path="url(#clip312)" x1="662.564" y1="828.163" x2="662.564" y2="844.163" style="stroke:#3da44d; stroke-width:3.072; stroke-opacity:1"/>
<line clip-path="url(#clip312)" x1="662.564" y1="828.163" x2="678.564" y2="828.163" style="stroke:#3da44d; stroke-width:3.072; stroke-opacity:1"/>
<line clip-path="url(#clip312)" x1="307.652" y1="631.639" x2="307.652" y2="615.639" style="stroke:#3da44d; stroke-width:3.072; stroke-opacity:1"/>
<line clip-path="url(#clip312)" x1="307.652" y1="631.639" x2="291.652" y2="631.639" style="stroke:#3da44d; stroke-width:3.072; stroke-opacity:1"/>
<line clip-path="url(#clip312)" x1="307.652" y1="631.639" x2="307.652" y2="647.639" style="stroke:#3da44d; stroke-width:3.072; stroke-opacity:1"/>
<line clip-path="url(#clip312)" x1="307.652" y1="631.639" x2="323.652" y2="631.639" style="stroke:#3da44d; stroke-width:3.072; stroke-opacity:1"/>
<path clip-path="url(#clip310)" d="
M1700.61 297.947 L2189.89 297.947 L2189.89 90.5872 L1700.61 90.5872  Z
  " fill="#ffffff" fill-rule="evenodd" fill-opacity="1"/>
<polyline clip-path="url(#clip310)" style="stroke:#000000; stroke-linecap:butt; stroke-linejoin:round; stroke-width:4; stroke-opacity:1; fill:none" points="
  1700.61,297.947 2189.89,297.947 2189.89,90.5872 1700.61,90.5872 1700.61,297.947 
  "/>
<polyline clip-path="url(#clip310)" style="stroke:#009af9; stroke-linecap:butt; stroke-linejoin:round; stroke-width:4; stroke-opacity:1; fill:none" points="
  1722.9,142.427 1856.62,142.427 
  "/>
<line clip-path="url(#clip310)" x1="1789.76" y1="142.427" x2="1789.76" y2="116.827" style="stroke:#009af9; stroke-width:4.9152; stroke-opacity:1"/>
<line clip-path="url(#clip310)" x1="1789.76" y1="142.427" x2="1764.16" y2="142.427" style="stroke:#009af9; stroke-width:4.9152; stroke-opacity:1"/>
<line clip-path="url(#clip310)" x1="1789.76" y1="142.427" x2="1789.76" y2="168.027" style="stroke:#009af9; stroke-width:4.9152; stroke-opacity:1"/>
<line clip-path="url(#clip310)" x1="1789.76" y1="142.427" x2="1815.36" y2="142.427" style="stroke:#009af9; stroke-width:4.9152; stroke-opacity:1"/>
<path clip-path="url(#clip310)" d="M1878.91 149.476 L1878.91 133.781 L1883.17 133.781 L1883.17 149.314 Q1883.17 152.994 1884.6 154.846 Q1886.04 156.675 1888.91 156.675 Q1892.36 156.675 1894.35 154.476 Q1896.36 152.277 1896.36 148.48 L1896.36 133.781 L1900.62 133.781 L1900.62 159.707 L1896.36 159.707 L1896.36 155.726 Q1894.81 158.087 1892.75 159.244 Q1890.71 160.378 1888.01 160.378 Q1883.54 160.378 1881.22 157.601 Q1878.91 154.823 1878.91 149.476 M1889.63 133.156 L1889.63 133.156 Z" fill="#000000" fill-rule="evenodd" fill-opacity="1" /><path clip-path="url(#clip310)" d="M1930.94 144.059 L1930.94 159.707 L1926.69 159.707 L1926.69 144.198 Q1926.69 140.517 1925.25 138.689 Q1923.82 136.86 1920.94 136.86 Q1917.5 136.86 1915.5 139.059 Q1913.51 141.258 1913.51 145.054 L1913.51 159.707 L1909.23 159.707 L1909.23 133.781 L1913.51 133.781 L1913.51 137.809 Q1915.04 135.471 1917.1 134.314 Q1919.19 133.156 1921.89 133.156 Q1926.36 133.156 1928.65 135.934 Q1930.94 138.689 1930.94 144.059 Z" fill="#000000" fill-rule="evenodd" fill-opacity="1" /><path clip-path="url(#clip310)" d="M1943.65 126.42 L1943.65 133.781 L1952.43 133.781 L1952.43 137.092 L1943.65 137.092 L1943.65 151.166 Q1943.65 154.337 1944.51 155.24 Q1945.39 156.142 1948.05 156.142 L1952.43 156.142 L1952.43 159.707 L1948.05 159.707 Q1943.12 159.707 1941.25 157.878 Q1939.37 156.027 1939.37 151.166 L1939.37 137.092 L1936.25 137.092 L1936.25 133.781 L1939.37 133.781 L1939.37 126.42 L1943.65 126.42 Z" fill="#000000" fill-rule="evenodd" fill-opacity="1" /><path clip-path="url(#clip310)" d="M1979.58 144.059 L1979.58 159.707 L1975.32 159.707 L1975.32 144.198 Q1975.32 140.517 1973.88 138.689 Q1972.45 136.86 1969.58 136.86 Q1966.13 136.86 1964.14 139.059 Q1962.15 141.258 1962.15 145.054 L1962.15 159.707 L1957.87 159.707 L1957.87 123.689 L1962.15 123.689 L1962.15 137.809 Q1963.68 135.471 1965.74 134.314 Q1967.82 133.156 1970.53 133.156 Q1975 133.156 1977.29 135.934 Q1979.58 138.689 1979.58 144.059 Z" fill="#000000" fill-rule="evenodd" fill-opacity="1" /><path clip-path="url(#clip310)" d="M2003.1 137.763 Q2002.38 137.346 2001.52 137.161 Q2000.69 136.953 1999.67 136.953 Q1996.06 136.953 1994.12 139.314 Q1992.19 141.652 1992.19 146.05 L1992.19 159.707 L1987.91 159.707 L1987.91 133.781 L1992.19 133.781 L1992.19 137.809 Q1993.54 135.448 1995.69 134.314 Q1997.84 133.156 2000.92 133.156 Q2001.36 133.156 2001.89 133.226 Q2002.43 133.272 2003.07 133.388 L2003.1 137.763 Z" fill="#000000" fill-rule="evenodd" fill-opacity="1" /><path clip-path="url(#clip310)" d="M2028.7 145.679 L2028.7 147.763 L2009.12 147.763 Q2009.39 152.161 2011.75 154.476 Q2014.14 156.767 2018.37 156.767 Q2020.83 156.767 2023.12 156.166 Q2025.43 155.564 2027.7 154.36 L2027.7 158.388 Q2025.41 159.36 2023 159.869 Q2020.6 160.378 2018.12 160.378 Q2011.92 160.378 2008.28 156.767 Q2004.67 153.156 2004.67 146.999 Q2004.67 140.633 2008.1 136.906 Q2011.55 133.156 2017.38 133.156 Q2022.61 133.156 2025.64 136.536 Q2028.7 139.892 2028.7 145.679 M2024.44 144.429 Q2024.39 140.934 2022.47 138.851 Q2020.57 136.767 2017.43 136.767 Q2013.86 136.767 2011.71 138.781 Q2009.58 140.795 2009.25 144.453 L2024.44 144.429 Z" fill="#000000" fill-rule="evenodd" fill-opacity="1" /><path clip-path="url(#clip310)" d="M2047.47 146.675 Q2042.31 146.675 2040.32 147.855 Q2038.33 149.036 2038.33 151.883 Q2038.33 154.152 2039.81 155.494 Q2041.31 156.814 2043.88 156.814 Q2047.43 156.814 2049.56 154.314 Q2051.71 151.791 2051.71 147.624 L2051.71 146.675 L2047.47 146.675 M2055.97 144.916 L2055.97 159.707 L2051.71 159.707 L2051.71 155.772 Q2050.25 158.133 2048.07 159.267 Q2045.9 160.378 2042.75 160.378 Q2038.77 160.378 2036.41 158.156 Q2034.07 155.911 2034.07 152.161 Q2034.07 147.786 2036.99 145.564 Q2039.93 143.342 2045.74 143.342 L2051.71 143.342 L2051.71 142.925 Q2051.71 139.985 2049.76 138.388 Q2047.84 136.767 2044.35 136.767 Q2042.12 136.767 2040.02 137.3 Q2037.91 137.832 2035.97 138.897 L2035.97 134.962 Q2038.31 134.059 2040.5 133.619 Q2042.7 133.156 2044.79 133.156 Q2050.41 133.156 2053.19 136.073 Q2055.97 138.99 2055.97 144.916 Z" fill="#000000" fill-rule="evenodd" fill-opacity="1" /><path clip-path="url(#clip310)" d="M2081.8 137.717 L2081.8 123.689 L2086.06 123.689 L2086.06 159.707 L2081.8 159.707 L2081.8 155.818 Q2080.46 158.133 2078.4 159.267 Q2076.36 160.378 2073.49 160.378 Q2068.79 160.378 2065.83 156.628 Q2062.89 152.879 2062.89 146.767 Q2062.89 140.656 2065.83 136.906 Q2068.79 133.156 2073.49 133.156 Q2076.36 133.156 2078.4 134.291 Q2080.46 135.402 2081.8 137.717 M2067.29 146.767 Q2067.29 151.466 2069.21 154.152 Q2071.15 156.814 2074.53 156.814 Q2077.91 156.814 2079.86 154.152 Q2081.8 151.466 2081.8 146.767 Q2081.8 142.068 2079.86 139.406 Q2077.91 136.721 2074.53 136.721 Q2071.15 136.721 2069.21 139.406 Q2067.29 142.068 2067.29 146.767 Z" fill="#000000" fill-rule="evenodd" fill-opacity="1" /><path clip-path="url(#clip310)" d="M2117.01 145.679 L2117.01 147.763 L2097.43 147.763 Q2097.7 152.161 2100.06 154.476 Q2102.45 156.767 2106.68 156.767 Q2109.14 156.767 2111.43 156.166 Q2113.74 155.564 2116.01 154.36 L2116.01 158.388 Q2113.72 159.36 2111.31 159.869 Q2108.91 160.378 2106.43 160.378 Q2100.23 160.378 2096.59 156.767 Q2092.98 153.156 2092.98 146.999 Q2092.98 140.633 2096.41 136.906 Q2099.86 133.156 2105.69 133.156 Q2110.92 133.156 2113.95 136.536 Q2117.01 139.892 2117.01 145.679 M2112.75 144.429 Q2112.7 140.934 2110.78 138.851 Q2108.88 136.767 2105.74 136.767 Q2102.17 136.767 2100.02 138.781 Q2097.89 140.795 2097.56 144.453 L2112.75 144.429 Z" fill="#000000" fill-rule="evenodd" fill-opacity="1" /><path clip-path="url(#clip310)" d="M2141.06 137.717 L2141.06 123.689 L2145.32 123.689 L2145.32 159.707 L2141.06 159.707 L2141.06 155.818 Q2139.72 158.133 2137.66 159.267 Q2135.62 160.378 2132.75 160.378 Q2128.05 160.378 2125.09 156.628 Q2122.15 152.879 2122.15 146.767 Q2122.15 140.656 2125.09 136.906 Q2128.05 133.156 2132.75 133.156 Q2135.62 133.156 2137.66 134.291 Q2139.72 135.402 2141.06 137.717 M2126.55 146.767 Q2126.55 151.466 2128.47 154.152 Q2130.41 156.814 2133.79 156.814 Q2137.17 156.814 2139.11 154.152 Q2141.06 151.466 2141.06 146.767 Q2141.06 142.068 2139.11 139.406 Q2137.17 136.721 2133.79 136.721 Q2130.41 136.721 2128.47 139.406 Q2126.55 142.068 2126.55 146.767 Z" fill="#000000" fill-rule="evenodd" fill-opacity="1" /><polyline clip-path="url(#clip310)" style="stroke:#e26f46; stroke-linecap:butt; stroke-linejoin:round; stroke-width:4; stroke-opacity:1; fill:none" points="
  1722.9,194.267 1856.62,194.267 
  "/>
<circle clip-path="url(#clip310)" cx="1789.76" cy="194.267" r="23" fill="#e26f46" fill-rule="evenodd" fill-opacity="1" stroke="#000000" stroke-opacity="1" stroke-width="4.9152"/>
<path clip-path="url(#clip310)" d="M1886.32 178.26 L1886.32 185.621 L1895.09 185.621 L1895.09 188.932 L1886.32 188.932 L1886.32 203.006 Q1886.32 206.177 1887.17 207.08 Q1888.05 207.982 1890.71 207.982 L1895.09 207.982 L1895.09 211.547 L1890.71 211.547 Q1885.78 211.547 1883.91 209.718 Q1882.03 207.867 1882.03 203.006 L1882.03 188.932 L1878.91 188.932 L1878.91 185.621 L1882.03 185.621 L1882.03 178.26 L1886.32 178.26 Z" fill="#000000" fill-rule="evenodd" fill-opacity="1" /><path clip-path="url(#clip310)" d="M1922.24 195.899 L1922.24 211.547 L1917.98 211.547 L1917.98 196.038 Q1917.98 192.357 1916.55 190.529 Q1915.11 188.7 1912.24 188.7 Q1908.79 188.7 1906.8 190.899 Q1904.81 193.098 1904.81 196.894 L1904.81 211.547 L1900.53 211.547 L1900.53 175.529 L1904.81 175.529 L1904.81 189.649 Q1906.34 187.311 1908.4 186.154 Q1910.48 184.996 1913.19 184.996 Q1917.66 184.996 1919.95 187.774 Q1922.24 190.529 1922.24 195.899 Z" fill="#000000" fill-rule="evenodd" fill-opacity="1" /><path clip-path="url(#clip310)" d="M1945.76 189.603 Q1945.04 189.186 1944.19 189.001 Q1943.35 188.793 1942.33 188.793 Q1938.72 188.793 1936.78 191.154 Q1934.86 193.492 1934.86 197.89 L1934.86 211.547 L1930.57 211.547 L1930.57 185.621 L1934.86 185.621 L1934.86 189.649 Q1936.2 187.288 1938.35 186.154 Q1940.5 184.996 1943.58 184.996 Q1944.02 184.996 1944.56 185.066 Q1945.09 185.112 1945.74 185.228 L1945.76 189.603 Z" fill="#000000" fill-rule="evenodd" fill-opacity="1" /><path clip-path="url(#clip310)" d="M1971.36 197.519 L1971.36 199.603 L1951.78 199.603 Q1952.06 204.001 1954.42 206.316 Q1956.8 208.607 1961.04 208.607 Q1963.49 208.607 1965.78 208.006 Q1968.1 207.404 1970.37 206.2 L1970.37 210.228 Q1968.07 211.2 1965.67 211.709 Q1963.26 212.218 1960.78 212.218 Q1954.58 212.218 1950.94 208.607 Q1947.33 204.996 1947.33 198.839 Q1947.33 192.473 1950.76 188.746 Q1954.21 184.996 1960.04 184.996 Q1965.27 184.996 1968.31 188.376 Q1971.36 191.732 1971.36 197.519 M1967.1 196.269 Q1967.06 192.774 1965.13 190.691 Q1963.24 188.607 1960.09 188.607 Q1956.52 188.607 1954.37 190.621 Q1952.24 192.635 1951.92 196.293 L1967.1 196.269 Z" fill="#000000" fill-rule="evenodd" fill-opacity="1" /><path clip-path="url(#clip310)" d="M1990.13 198.515 Q1984.97 198.515 1982.98 199.695 Q1980.99 200.876 1980.99 203.723 Q1980.99 205.992 1982.47 207.334 Q1983.98 208.654 1986.55 208.654 Q1990.09 208.654 1992.22 206.154 Q1994.37 203.631 1994.37 199.464 L1994.37 198.515 L1990.13 198.515 M1998.63 196.756 L1998.63 211.547 L1994.37 211.547 L1994.37 207.612 Q1992.91 209.973 1990.74 211.107 Q1988.56 212.218 1985.41 212.218 Q1981.43 212.218 1979.07 209.996 Q1976.73 207.751 1976.73 204.001 Q1976.73 199.626 1979.65 197.404 Q1982.59 195.182 1988.4 195.182 L1994.37 195.182 L1994.37 194.765 Q1994.37 191.825 1992.43 190.228 Q1990.5 188.607 1987.01 188.607 Q1984.79 188.607 1982.68 189.14 Q1980.57 189.672 1978.63 190.737 L1978.63 186.802 Q1980.97 185.899 1983.17 185.459 Q1985.37 184.996 1987.45 184.996 Q1993.07 184.996 1995.85 187.913 Q1998.63 190.83 1998.63 196.756 Z" fill="#000000" fill-rule="evenodd" fill-opacity="1" /><path clip-path="url(#clip310)" d="M2024.46 189.557 L2024.46 175.529 L2028.72 175.529 L2028.72 211.547 L2024.46 211.547 L2024.46 207.658 Q2023.12 209.973 2021.06 211.107 Q2019.02 212.218 2016.15 212.218 Q2011.45 212.218 2008.49 208.468 Q2005.55 204.719 2005.55 198.607 Q2005.55 192.496 2008.49 188.746 Q2011.45 184.996 2016.15 184.996 Q2019.02 184.996 2021.06 186.131 Q2023.12 187.242 2024.46 189.557 M2009.95 198.607 Q2009.95 203.306 2011.87 205.992 Q2013.81 208.654 2017.19 208.654 Q2020.57 208.654 2022.52 205.992 Q2024.46 203.306 2024.46 198.607 Q2024.46 193.908 2022.52 191.246 Q2020.57 188.561 2017.19 188.561 Q2013.81 188.561 2011.87 191.246 Q2009.95 193.908 2009.95 198.607 Z" fill="#000000" fill-rule="evenodd" fill-opacity="1" /><path clip-path="url(#clip310)" d="M2059.67 197.519 L2059.67 199.603 L2040.09 199.603 Q2040.37 204.001 2042.73 206.316 Q2045.11 208.607 2049.35 208.607 Q2051.8 208.607 2054.09 208.006 Q2056.41 207.404 2058.68 206.2 L2058.68 210.228 Q2056.38 211.2 2053.98 211.709 Q2051.57 212.218 2049.09 212.218 Q2042.89 212.218 2039.25 208.607 Q2035.64 204.996 2035.64 198.839 Q2035.64 192.473 2039.07 188.746 Q2042.52 184.996 2048.35 184.996 Q2053.58 184.996 2056.62 188.376 Q2059.67 191.732 2059.67 197.519 M2055.41 196.269 Q2055.37 192.774 2053.44 190.691 Q2051.55 188.607 2048.4 188.607 Q2044.83 188.607 2042.68 190.621 Q2040.55 192.635 2040.23 196.293 L2055.41 196.269 Z" fill="#000000" fill-rule="evenodd" fill-opacity="1" /><path clip-path="url(#clip310)" d="M2083.72 189.557 L2083.72 175.529 L2087.98 175.529 L2087.98 211.547 L2083.72 211.547 L2083.72 207.658 Q2082.38 209.973 2080.32 211.107 Q2078.28 212.218 2075.41 212.218 Q2070.71 212.218 2067.75 208.468 Q2064.81 204.719 2064.81 198.607 Q2064.81 192.496 2067.75 188.746 Q2070.71 184.996 2075.41 184.996 Q2078.28 184.996 2080.32 186.131 Q2082.38 187.242 2083.72 189.557 M2069.21 198.607 Q2069.21 203.306 2071.13 205.992 Q2073.07 208.654 2076.45 208.654 Q2079.83 208.654 2081.78 205.992 Q2083.72 203.306 2083.72 198.607 Q2083.72 193.908 2081.78 191.246 Q2079.83 188.561 2076.45 188.561 Q2073.07 188.561 2071.13 191.246 Q2069.21 193.908 2069.21 198.607 Z" fill="#000000" fill-rule="evenodd" fill-opacity="1" /><polyline clip-path="url(#clip310)" style="stroke:#3da44d; stroke-linecap:butt; stroke-linejoin:round; stroke-width:4; stroke-opacity:1; fill:none" points="
  1722.9,246.107 1856.62,246.107 
  "/>
<line clip-path="url(#clip310)" x1="1789.76" y1="246.107" x2="1789.76" y2="220.507" style="stroke:#3da44d; stroke-width:4.9152; stroke-opacity:1"/>
<line clip-path="url(#clip310)" x1="1789.76" y1="246.107" x2="1764.16" y2="246.107" style="stroke:#3da44d; stroke-width:4.9152; stroke-opacity:1"/>
<line clip-path="url(#clip310)" x1="1789.76" y1="246.107" x2="1789.76" y2="271.707" style="stroke:#3da44d; stroke-width:4.9152; stroke-opacity:1"/>
<line clip-path="url(#clip310)" x1="1789.76" y1="246.107" x2="1815.36" y2="246.107" style="stroke:#3da44d; stroke-width:4.9152; stroke-opacity:1"/>
<path clip-path="url(#clip310)" d="M1883.58 232.67 L1883.58 245.656 L1889.46 245.656 Q1892.73 245.656 1894.51 243.966 Q1896.29 242.276 1896.29 239.151 Q1896.29 236.049 1894.51 234.36 Q1892.73 232.67 1889.46 232.67 L1883.58 232.67 M1878.91 228.827 L1889.46 228.827 Q1895.27 228.827 1898.24 231.466 Q1901.22 234.082 1901.22 239.151 Q1901.22 244.267 1898.24 246.883 Q1895.27 249.498 1889.46 249.498 L1883.58 249.498 L1883.58 263.387 L1878.91 263.387 L1878.91 228.827 Z" fill="#000000" fill-rule="evenodd" fill-opacity="1" /><path clip-path="url(#clip310)" d="M1915.67 240.447 Q1912.24 240.447 1910.25 243.133 Q1908.26 245.795 1908.26 250.447 Q1908.26 255.1 1910.23 257.785 Q1912.22 260.447 1915.67 260.447 Q1919.07 260.447 1921.06 257.762 Q1923.05 255.077 1923.05 250.447 Q1923.05 245.841 1921.06 243.156 Q1919.07 240.447 1915.67 240.447 M1915.67 236.836 Q1921.22 236.836 1924.39 240.447 Q1927.57 244.059 1927.57 250.447 Q1927.57 256.813 1924.39 260.447 Q1921.22 264.058 1915.67 264.058 Q1910.09 264.058 1906.92 260.447 Q1903.77 256.813 1903.77 250.447 Q1903.77 244.059 1906.92 240.447 Q1910.09 236.836 1915.67 236.836 Z" fill="#000000" fill-rule="evenodd" fill-opacity="1" /><path clip-path="url(#clip310)" d="M1934.63 227.369 L1938.88 227.369 L1938.88 263.387 L1934.63 263.387 L1934.63 227.369 Z" fill="#000000" fill-rule="evenodd" fill-opacity="1" /><path clip-path="url(#clip310)" d="M1958.58 265.795 Q1956.78 270.424 1955.06 271.836 Q1953.35 273.248 1950.48 273.248 L1947.08 273.248 L1947.08 269.683 L1949.58 269.683 Q1951.34 269.683 1952.31 268.85 Q1953.28 268.017 1954.46 264.915 L1955.23 262.971 L1944.74 237.461 L1949.25 237.461 L1957.36 257.739 L1965.46 237.461 L1969.97 237.461 L1958.58 265.795 Z" fill="#000000" fill-rule="evenodd" fill-opacity="1" /><path clip-path="url(#clip310)" d="M1998.03 249.359 L1998.03 251.443 L1978.44 251.443 Q1978.72 255.841 1981.08 258.156 Q1983.47 260.447 1987.7 260.447 Q1990.16 260.447 1992.45 259.846 Q1994.76 259.244 1997.03 258.04 L1997.03 262.068 Q1994.74 263.04 1992.33 263.549 Q1989.93 264.058 1987.45 264.058 Q1981.25 264.058 1977.61 260.447 Q1974 256.836 1974 250.679 Q1974 244.313 1977.43 240.586 Q1980.87 236.836 1986.71 236.836 Q1991.94 236.836 1994.97 240.216 Q1998.03 243.572 1998.03 249.359 M1993.77 248.109 Q1993.72 244.614 1991.8 242.531 Q1989.9 240.447 1986.75 240.447 Q1983.19 240.447 1981.04 242.461 Q1978.91 244.475 1978.58 248.133 L1993.77 248.109 Z" fill="#000000" fill-rule="evenodd" fill-opacity="1" /><path clip-path="url(#clip310)" d="M2021.55 238.225 L2021.55 242.253 Q2019.74 241.327 2017.8 240.864 Q2015.85 240.401 2013.77 240.401 Q2010.6 240.401 2009 241.373 Q2007.43 242.346 2007.43 244.29 Q2007.43 245.772 2008.56 246.628 Q2009.69 247.461 2013.12 248.225 L2014.58 248.549 Q2019.12 249.522 2021.01 251.304 Q2022.93 253.063 2022.93 256.234 Q2022.93 259.846 2020.06 261.952 Q2017.22 264.058 2012.22 264.058 Q2010.13 264.058 2007.87 263.642 Q2005.62 263.248 2003.12 262.438 L2003.12 258.04 Q2005.48 259.267 2007.77 259.892 Q2010.06 260.494 2012.31 260.494 Q2015.32 260.494 2016.94 259.475 Q2018.56 258.434 2018.56 256.559 Q2018.56 254.822 2017.38 253.896 Q2016.22 252.971 2012.26 252.114 L2010.78 251.767 Q2006.82 250.934 2005.06 249.221 Q2003.31 247.484 2003.31 244.475 Q2003.31 240.818 2005.9 238.827 Q2008.49 236.836 2013.26 236.836 Q2015.62 236.836 2017.7 237.184 Q2019.79 237.531 2021.55 238.225 Z" fill="#000000" fill-rule="evenodd" fill-opacity="1" /><path clip-path="url(#clip310)" d="M2033.93 230.1 L2033.93 237.461 L2042.7 237.461 L2042.7 240.772 L2033.93 240.772 L2033.93 254.846 Q2033.93 258.017 2034.79 258.92 Q2035.67 259.822 2038.33 259.822 L2042.7 259.822 L2042.7 263.387 L2038.33 263.387 Q2033.4 263.387 2031.52 261.558 Q2029.65 259.707 2029.65 254.846 L2029.65 240.772 L2026.52 240.772 L2026.52 237.461 L2029.65 237.461 L2029.65 230.1 L2033.93 230.1 Z" fill="#000000" fill-rule="evenodd" fill-opacity="1" /><path clip-path="url(#clip310)" d="M2070.48 249.359 L2070.48 251.443 L2050.9 251.443 Q2051.18 255.841 2053.54 258.156 Q2055.92 260.447 2060.16 260.447 Q2062.61 260.447 2064.9 259.846 Q2067.22 259.244 2069.49 258.04 L2069.49 262.068 Q2067.19 263.04 2064.79 263.549 Q2062.38 264.058 2059.9 264.058 Q2053.7 264.058 2050.06 260.447 Q2046.45 256.836 2046.45 250.679 Q2046.45 244.313 2049.88 240.586 Q2053.33 236.836 2059.16 236.836 Q2064.39 236.836 2067.43 240.216 Q2070.48 243.572 2070.48 249.359 M2066.22 248.109 Q2066.18 244.614 2064.25 242.531 Q2062.36 240.447 2059.21 240.447 Q2055.64 240.447 2053.49 242.461 Q2051.36 244.475 2051.04 248.133 L2066.22 248.109 Z" fill="#000000" fill-rule="evenodd" fill-opacity="1" /><path clip-path="url(#clip310)" d="M2092.49 241.443 Q2091.78 241.026 2090.92 240.841 Q2090.09 240.633 2089.07 240.633 Q2085.46 240.633 2083.51 242.994 Q2081.59 245.332 2081.59 249.73 L2081.59 263.387 L2077.31 263.387 L2077.31 237.461 L2081.59 237.461 L2081.59 241.489 Q2082.93 239.128 2085.09 237.994 Q2087.24 236.836 2090.32 236.836 Q2090.76 236.836 2091.29 236.906 Q2091.82 236.952 2092.47 237.068 L2092.49 241.443 Z" fill="#000000" fill-rule="evenodd" fill-opacity="1" /></svg>
