<?xml version="1.0" encoding="utf-8"?>
<svg xmlns="http://www.w3.org/2000/svg" xmlns:xlink="http://www.w3.org/1999/xlink" width="576" height="384" viewBox="0 0 2304 1536">
<defs>
  <clipPath id="clip070">
    <rect x="0" y="0" width="2304" height="1536"/>
  </clipPath>
</defs>
<path clip-path="url(#clip070)" d="
M0 1536 L2304 1536 L2304 0 L0 0  Z
  " fill="#ffffff" fill-rule="evenodd" fill-opacity="1"/>
<defs>
  <clipPath id="clip071">
    <rect x="460" y="0" width="1614" height="1536"/>
  </clipPath>
</defs>
<path clip-path="url(#clip070)" d="
M250.882 1347.54 L2256.76 1347.54 L2256.76 47.2441 L250.882 47.2441  Z
  " fill="#ffffff" fill-rule="evenodd" fill-opacity="1"/>
<defs>
  <clipPath id="clip072">
    <rect x="250" y="47" width="2007" height="1301"/>
  </clipPath>
</defs>
<polyline clip-path="url(#clip072)" style="stroke:#000000; stroke-linecap:butt; stroke-linejoin:round; stroke-width:2; stroke-opacity:0.1; fill:none" points="
  1045.32,1347.54 1045.32,47.2441 
  "/>
<polyline clip-path="url(#clip072)" style="stroke:#000000; stroke-linecap:butt; stroke-linejoin:round; stroke-width:2; stroke-opacity:0.1; fill:none" points="
  2089.09,1347.54 2089.09,47.2441 
  "/>
<polyline clip-path="url(#clip070)" style="stroke:#000000; stroke-linecap:butt; stroke-linejoin:round; stroke-width:4; stroke-opacity:1; fill:none" points="
  250.882,1347.54 2256.76,1347.54 
  "/>
<polyline clip-path="url(#clip070)" style="stroke:#000000; stroke-linecap:butt; stroke-linejoin:round; stroke-width:4; stroke-opacity:1; fill:none" points="
  1045.32,1347.54 1045.32,1328.64 
  "/>
<polyline clip-path="url(#clip070)" style="stroke:#000000; stroke-linecap:butt; stroke-linejoin:round; stroke-width:4; stroke-opacity:1; fill:none" points="
  2089.09,1347.54 2089.09,1328.64 
  "/>
<path clip-path="url(#clip070)" d="M995.343 1420.89 L1002.98 1420.89 L1002.98 1394.53 L994.671 1396.19 L994.671 1391.94 L1002.94 1390.27 L1007.61 1390.27 L1007.61 1420.89 L1015.25 1420.89 L1015.25 1424.83 L995.343 1424.83 L995.343 1420.89 Z" fill="#000000" fill-rule="evenodd" fill-opacity="1" /><path clip-path="url(#clip070)" d="M1034.69 1393.35 Q1031.08 1393.35 1029.25 1396.91 Q1027.45 1400.45 1027.45 1407.58 Q1027.45 1414.69 1029.25 1418.25 Q1031.08 1421.8 1034.69 1421.8 Q1038.33 1421.8 1040.13 1418.25 Q1041.96 1414.69 1041.96 1407.58 Q1041.96 1400.45 1040.13 1396.91 Q1038.33 1393.35 1034.69 1393.35 M1034.69 1389.64 Q1040.5 1389.64 1043.56 1394.25 Q1046.64 1398.83 1046.64 1407.58 Q1046.64 1416.31 1043.56 1420.92 Q1040.5 1425.5 1034.69 1425.5 Q1028.88 1425.5 1025.81 1420.92 Q1022.75 1416.31 1022.75 1407.58 Q1022.75 1398.83 1025.81 1394.25 Q1028.88 1389.64 1034.69 1389.64 Z" fill="#000000" fill-rule="evenodd" fill-opacity="1" /><path clip-path="url(#clip070)" d="M1046.64 1383.74 L1070.75 1383.74 L1070.75 1386.94 L1046.64 1386.94 L1046.64 1383.74 Z" fill="#000000" fill-rule="evenodd" fill-opacity="1" /><path clip-path="url(#clip070)" d="M1078.99 1369.34 L1093.9 1369.34 L1093.9 1372.54 L1082.47 1372.54 L1082.47 1379.42 Q1083.3 1379.14 1084.12 1379.01 Q1084.95 1378.85 1085.78 1378.85 Q1090.48 1378.85 1093.23 1381.43 Q1095.97 1384.01 1095.97 1388.41 Q1095.97 1392.94 1093.15 1395.46 Q1090.33 1397.96 1085.19 1397.96 Q1083.43 1397.96 1081.58 1397.66 Q1079.76 1397.36 1077.8 1396.76 L1077.8 1392.94 Q1079.5 1393.86 1081.3 1394.31 Q1083.11 1394.77 1085.12 1394.77 Q1088.37 1394.77 1090.27 1393.05 Q1092.17 1391.34 1092.17 1388.41 Q1092.17 1385.48 1090.27 1383.76 Q1088.37 1382.05 1085.12 1382.05 Q1083.6 1382.05 1082.07 1382.39 Q1080.57 1382.73 1078.99 1383.44 L1078.99 1369.34 Z" fill="#000000" fill-rule="evenodd" fill-opacity="1" /><path clip-path="url(#clip070)" d="M2054.07 1420.89 L2061.71 1420.89 L2061.71 1394.53 L2053.4 1396.19 L2053.4 1391.94 L2061.66 1390.27 L2066.34 1390.27 L2066.34 1420.89 L2073.98 1420.89 L2073.98 1424.83 L2054.07 1424.83 L2054.07 1420.89 Z" fill="#000000" fill-rule="evenodd" fill-opacity="1" /><path clip-path="url(#clip070)" d="M2093.42 1393.35 Q2089.81 1393.35 2087.98 1396.91 Q2086.18 1400.45 2086.18 1407.58 Q2086.18 1414.69 2087.98 1418.25 Q2089.81 1421.8 2093.42 1421.8 Q2097.06 1421.8 2098.86 1418.25 Q2100.69 1414.69 2100.69 1407.58 Q2100.69 1400.45 2098.86 1396.91 Q2097.06 1393.35 2093.42 1393.35 M2093.42 1389.64 Q2099.23 1389.64 2102.29 1394.25 Q2105.37 1398.83 2105.37 1407.58 Q2105.37 1416.31 2102.29 1420.92 Q2099.23 1425.5 2093.42 1425.5 Q2087.61 1425.5 2084.53 1420.92 Q2081.48 1416.31 2081.48 1407.58 Q2081.48 1398.83 2084.53 1394.25 Q2087.61 1389.64 2093.42 1389.64 Z" fill="#000000" fill-rule="evenodd" fill-opacity="1" /><path clip-path="url(#clip070)" d="M2115.07 1371.84 Q2112.14 1371.84 2110.65 1374.74 Q2109.18 1377.61 2109.18 1383.41 Q2109.18 1389.18 2110.65 1392.08 Q2112.14 1394.95 2115.07 1394.95 Q2118.02 1394.95 2119.49 1392.08 Q2120.98 1389.18 2120.98 1383.41 Q2120.98 1377.61 2119.49 1374.74 Q2118.02 1371.84 2115.07 1371.84 M2115.07 1368.83 Q2119.79 1368.83 2122.27 1372.57 Q2124.78 1376.3 2124.78 1383.41 Q2124.78 1390.5 2122.27 1394.24 Q2119.79 1397.96 2115.07 1397.96 Q2110.35 1397.96 2107.85 1394.24 Q2105.37 1390.5 2105.37 1383.41 Q2105.37 1376.3 2107.85 1372.57 Q2110.35 1368.83 2115.07 1368.83 Z" fill="#000000" fill-rule="evenodd" fill-opacity="1" /><path clip-path="url(#clip070)" d="M1177.57 1461.87 L1207.62 1461.87 L1207.62 1467.28 L1184 1467.28 L1184 1481.34 L1206.63 1481.34 L1206.63 1486.76 L1184 1486.76 L1184 1503.97 L1208.19 1503.97 L1208.19 1509.39 L1177.57 1509.39 L1177.57 1461.87 Z" fill="#000000" fill-rule="evenodd" fill-opacity="1" /><path clip-path="url(#clip070)" d="M1239.16 1479.21 Q1238.18 1478.64 1237 1478.38 Q1235.85 1478.1 1234.45 1478.1 Q1229.49 1478.1 1226.81 1481.34 Q1224.17 1484.56 1224.17 1490.61 L1224.17 1509.39 L1218.28 1509.39 L1218.28 1473.74 L1224.17 1473.74 L1224.17 1479.28 Q1226.02 1476.03 1228.98 1474.47 Q1231.94 1472.88 1236.17 1472.88 Q1236.77 1472.88 1237.51 1472.97 Q1238.24 1473.04 1239.13 1473.2 L1239.16 1479.21 Z" fill="#000000" fill-rule="evenodd" fill-opacity="1" /><path clip-path="url(#clip070)" d="M1264.82 1479.21 Q1263.83 1478.64 1262.65 1478.38 Q1261.51 1478.1 1260.11 1478.1 Q1255.14 1478.1 1252.47 1481.34 Q1249.82 1484.56 1249.82 1490.61 L1249.82 1509.39 L1243.94 1509.39 L1243.94 1473.74 L1249.82 1473.74 L1249.82 1479.28 Q1251.67 1476.03 1254.63 1474.47 Q1257.59 1472.88 1261.82 1472.88 Q1262.43 1472.88 1263.16 1472.97 Q1263.89 1473.04 1264.78 1473.2 L1264.82 1479.21 Z" fill="#000000" fill-rule="evenodd" fill-opacity="1" /><path clip-path="url(#clip070)" d="M1283.34 1477.84 Q1278.63 1477.84 1275.89 1481.54 Q1273.15 1485.2 1273.15 1491.59 Q1273.15 1497.99 1275.86 1501.68 Q1278.6 1505.34 1283.34 1505.34 Q1288.02 1505.34 1290.76 1501.65 Q1293.49 1497.96 1293.49 1491.59 Q1293.49 1485.26 1290.76 1481.57 Q1288.02 1477.84 1283.34 1477.84 M1283.34 1472.88 Q1290.98 1472.88 1295.34 1477.84 Q1299.7 1482.81 1299.7 1491.59 Q1299.7 1500.35 1295.34 1505.34 Q1290.98 1510.31 1283.34 1510.31 Q1275.67 1510.31 1271.31 1505.34 Q1266.98 1500.35 1266.98 1491.59 Q1266.98 1482.81 1271.31 1477.84 Q1275.67 1472.88 1283.34 1472.88 Z" fill="#000000" fill-rule="evenodd" fill-opacity="1" /><path clip-path="url(#clip070)" d="M1330.06 1479.21 Q1329.08 1478.64 1327.9 1478.38 Q1326.75 1478.1 1325.35 1478.1 Q1320.39 1478.1 1317.71 1481.34 Q1315.07 1484.56 1315.07 1490.61 L1315.07 1509.39 L1309.18 1509.39 L1309.18 1473.74 L1315.07 1473.74 L1315.07 1479.28 Q1316.92 1476.03 1319.88 1474.47 Q1322.84 1472.88 1327.07 1472.88 Q1327.68 1472.88 1328.41 1472.97 Q1329.14 1473.04 1330.03 1473.2 L1330.06 1479.21 Z" fill="#000000" fill-rule="evenodd" fill-opacity="1" /><polyline clip-path="url(#clip072)" style="stroke:#000000; stroke-linecap:butt; stroke-linejoin:round; stroke-width:2; stroke-opacity:0.1; fill:none" points="
  250.882,965.576 2256.76,965.576 
  "/>
<polyline clip-path="url(#clip072)" style="stroke:#000000; stroke-linecap:butt; stroke-linejoin:round; stroke-width:2; stroke-opacity:0.1; fill:none" points="
  250.882,440.779 2256.76,440.779 
  "/>
<polyline clip-path="url(#clip070)" style="stroke:#000000; stroke-linecap:butt; stroke-linejoin:round; stroke-width:4; stroke-opacity:1; fill:none" points="
  250.882,1347.54 250.882,47.2441 
  "/>
<polyline clip-path="url(#clip070)" style="stroke:#000000; stroke-linecap:butt; stroke-linejoin:round; stroke-width:4; stroke-opacity:1; fill:none" points="
  250.882,965.576 269.78,965.576 
  "/>
<polyline clip-path="url(#clip070)" style="stroke:#000000; stroke-linecap:butt; stroke-linejoin:round; stroke-width:4; stroke-opacity:1; fill:none" points="
  250.882,440.779 269.78,440.779 
  "/>
<path clip-path="url(#clip070)" d="M115.411 985.369 L123.05 985.369 L123.05 959.003 L114.74 960.67 L114.74 956.41 L123.004 954.744 L127.68 954.744 L127.68 985.369 L135.319 985.369 L135.319 989.304 L115.411 989.304 L115.411 985.369 Z" fill="#000000" fill-rule="evenodd" fill-opacity="1" /><path clip-path="url(#clip070)" d="M154.763 957.822 Q151.152 957.822 149.323 961.387 Q147.518 964.929 147.518 972.059 Q147.518 979.165 149.323 982.73 Q151.152 986.271 154.763 986.271 Q158.397 986.271 160.203 982.73 Q162.032 979.165 162.032 972.059 Q162.032 964.929 160.203 961.387 Q158.397 957.822 154.763 957.822 M154.763 954.119 Q160.573 954.119 163.629 958.725 Q166.707 963.309 166.707 972.059 Q166.707 980.785 163.629 985.392 Q160.573 989.975 154.763 989.975 Q148.953 989.975 145.874 985.392 Q142.819 980.785 142.819 972.059 Q142.819 963.309 145.874 958.725 Q148.953 954.119 154.763 954.119 Z" fill="#000000" fill-rule="evenodd" fill-opacity="1" /><path clip-path="url(#clip070)" d="M166.707 948.22 L190.819 948.22 L190.819 951.417 L166.707 951.417 L166.707 948.22 Z" fill="#000000" fill-rule="evenodd" fill-opacity="1" /><path clip-path="url(#clip070)" d="M210.53 946.753 Q213.257 947.336 214.78 949.179 Q216.322 951.023 216.322 953.731 Q216.322 957.887 213.464 960.163 Q210.605 962.439 205.339 962.439 Q203.571 962.439 201.69 962.081 Q199.828 961.743 197.834 961.047 L197.834 957.38 Q199.414 958.301 201.295 958.771 Q203.176 959.241 205.226 959.241 Q208.799 959.241 210.661 957.831 Q212.542 956.42 212.542 953.731 Q212.542 951.248 210.793 949.856 Q209.063 948.446 205.959 948.446 L202.687 948.446 L202.687 945.324 L206.11 945.324 Q208.912 945.324 210.398 944.214 Q211.884 943.086 211.884 940.979 Q211.884 938.816 210.341 937.669 Q208.818 936.503 205.959 936.503 Q204.398 936.503 202.612 936.841 Q200.825 937.18 198.681 937.895 L198.681 934.509 Q200.844 933.907 202.724 933.607 Q204.624 933.306 206.298 933.306 Q210.624 933.306 213.144 935.28 Q215.664 937.236 215.664 940.584 Q215.664 942.916 214.329 944.534 Q212.993 946.132 210.53 946.753 Z" fill="#000000" fill-rule="evenodd" fill-opacity="1" /><path clip-path="url(#clip070)" d="M116.183 460.572 L123.821 460.572 L123.821 434.206 L115.511 435.873 L115.511 431.614 L123.775 429.947 L128.451 429.947 L128.451 460.572 L136.09 460.572 L136.09 464.507 L116.183 464.507 L116.183 460.572 Z" fill="#000000" fill-rule="evenodd" fill-opacity="1" /><path clip-path="url(#clip070)" d="M155.534 433.026 Q151.923 433.026 150.094 436.591 Q148.289 440.132 148.289 447.262 Q148.289 454.368 150.094 457.933 Q151.923 461.475 155.534 461.475 Q159.168 461.475 160.974 457.933 Q162.803 454.368 162.803 447.262 Q162.803 440.132 160.974 436.591 Q159.168 433.026 155.534 433.026 M155.534 429.322 Q161.344 429.322 164.4 433.929 Q167.479 438.512 167.479 447.262 Q167.479 455.989 164.4 460.595 Q161.344 465.178 155.534 465.178 Q149.724 465.178 146.645 460.595 Q143.59 455.989 143.59 447.262 Q143.59 438.512 146.645 433.929 Q149.724 429.322 155.534 429.322 Z" fill="#000000" fill-rule="evenodd" fill-opacity="1" /><path clip-path="url(#clip070)" d="M167.479 423.423 L191.59 423.423 L191.59 426.621 L167.479 426.621 L167.479 423.423 Z" fill="#000000" fill-rule="evenodd" fill-opacity="1" /><path clip-path="url(#clip070)" d="M203.063 433.899 L216.322 433.899 L216.322 437.097 L198.493 437.097 L198.493 433.899 Q200.655 431.661 204.379 427.9 Q208.122 424.119 209.081 423.028 Q210.906 420.978 211.62 419.568 Q212.354 418.138 212.354 416.765 Q212.354 414.527 210.774 413.117 Q209.213 411.706 206.693 411.706 Q204.906 411.706 202.912 412.327 Q200.938 412.947 198.681 414.208 L198.681 410.371 Q200.975 409.449 202.969 408.979 Q204.962 408.509 206.618 408.509 Q210.981 408.509 213.576 410.691 Q216.172 412.872 216.172 416.521 Q216.172 418.251 215.514 419.812 Q214.874 421.355 213.163 423.461 Q212.692 424.006 210.172 426.621 Q207.652 429.216 203.063 433.899 Z" fill="#000000" fill-rule="evenodd" fill-opacity="1" /><path clip-path="url(#clip070)" d="M18.4042 827.219 L18.4042 787.02 L23.815 787.02 L23.815 803.889 L65.9242 803.889 L65.9242 810.35 L23.815 810.35 L23.815 827.219 L18.4042 827.219 Z" fill="#000000" fill-rule="evenodd" fill-opacity="1" /><path clip-path="url(#clip070)" d="M30.2762 783.073 L30.2762 777.216 L65.9242 777.216 L65.9242 783.073 L30.2762 783.073 M16.399 783.073 L16.399 777.216 L23.815 777.216 L23.815 783.073 L16.399 783.073 Z" fill="#000000" fill-rule="evenodd" fill-opacity="1" /><path clip-path="url(#clip070)" d="M37.1193 737.208 Q33.1726 735.012 31.2947 731.956 Q29.4168 728.901 29.4168 724.763 Q29.4168 719.193 33.3317 716.169 Q37.2148 713.145 44.4081 713.145 L65.9242 713.145 L65.9242 719.034 L44.599 719.034 Q39.4746 719.034 36.992 720.848 Q34.5094 722.662 34.5094 726.386 Q34.5094 730.938 37.5331 733.579 Q40.5568 736.221 45.7767 736.221 L65.9242 736.221 L65.9242 742.109 L44.599 742.109 Q39.4428 742.109 36.992 743.924 Q34.5094 745.738 34.5094 749.526 Q34.5094 754.013 37.5649 756.655 Q40.5886 759.297 45.7767 759.297 L65.9242 759.297 L65.9242 765.185 L30.2762 765.185 L30.2762 759.297 L35.8144 759.297 Q32.536 757.292 30.9764 754.491 Q29.4168 751.69 29.4168 747.839 Q29.4168 743.956 31.3902 741.25 Q33.3636 738.513 37.1193 737.208 Z" fill="#000000" fill-rule="evenodd" fill-opacity="1" /><path clip-path="url(#clip070)" d="M46.6361 670.973 L49.5006 670.973 L49.5006 697.9 Q55.5481 697.518 58.7309 694.271 Q61.8819 690.993 61.8819 685.168 Q61.8819 681.794 61.0544 678.643 Q60.2269 675.461 58.5718 672.341 L64.1099 672.341 Q65.4467 675.492 66.147 678.803 Q66.8472 682.113 66.8472 685.518 Q66.8472 694.048 61.8819 699.045 Q56.9167 704.011 48.4503 704.011 Q39.6974 704.011 34.5731 699.3 Q29.4168 694.558 29.4168 686.537 Q29.4168 679.344 34.0638 675.174 Q38.6789 670.973 46.6361 670.973 M44.9173 676.829 Q40.1112 676.893 37.2466 679.535 Q34.3821 682.145 34.3821 686.473 Q34.3821 691.375 37.1512 694.335 Q39.9202 697.263 44.9492 697.709 L44.9173 676.829 Z" fill="#000000" fill-rule="evenodd" fill-opacity="1" /><path clip-path="url(#clip070)" d="M16.4626 626.572 Q23.7832 630.837 30.9446 632.906 Q38.106 634.975 45.4584 634.975 Q52.8108 634.975 60.0359 632.906 Q67.2291 630.805 74.5179 626.572 L74.5179 631.664 Q67.0382 636.439 59.8131 638.826 Q52.588 641.181 45.4584 641.181 Q38.3606 641.181 31.1674 638.826 Q23.9742 636.471 16.4626 631.664 L16.4626 626.572 Z" fill="#000000" fill-rule="evenodd" fill-opacity="1" /><path clip-path="url(#clip070)" d="M31.3265 592.484 L36.8647 592.484 Q35.5916 594.966 34.955 597.64 Q34.3184 600.313 34.3184 603.178 Q34.3184 607.538 35.6552 609.735 Q36.992 611.899 39.6656 611.899 Q41.7026 611.899 42.8803 610.339 Q44.0261 608.78 45.0765 604.069 L45.5221 602.064 Q46.8589 595.826 49.3097 593.216 Q51.7286 590.574 56.0891 590.574 Q61.0544 590.574 63.9508 594.521 Q66.8472 598.435 66.8472 605.31 Q66.8472 608.175 66.2743 611.294 Q65.7332 614.382 64.6192 617.819 L58.5718 617.819 Q60.2587 614.573 61.118 611.422 Q61.9456 608.27 61.9456 605.183 Q61.9456 601.045 60.5451 598.817 Q59.1129 596.589 56.5347 596.589 Q54.1476 596.589 52.8745 598.213 Q51.6013 599.804 50.4237 605.247 L49.9462 607.284 Q48.8004 612.726 46.4451 615.145 Q44.058 617.564 39.9202 617.564 Q34.8913 617.564 32.1541 614 Q29.4168 610.435 29.4168 603.878 Q29.4168 600.632 29.8943 597.767 Q30.3717 594.902 31.3265 592.484 Z" fill="#000000" fill-rule="evenodd" fill-opacity="1" /><path clip-path="url(#clip070)" d="M16.4626 582.171 L16.4626 577.079 Q23.9742 572.304 31.1674 569.949 Q38.3606 567.562 45.4584 567.562 Q52.588 567.562 59.8131 569.949 Q67.0382 572.304 74.5179 577.079 L74.5179 582.171 Q67.2291 577.938 60.0359 575.869 Q52.8108 573.768 45.4584 573.768 Q38.106 573.768 30.9446 575.869 Q23.7832 577.938 16.4626 582.171 Z" fill="#000000" fill-rule="evenodd" fill-opacity="1" /><polyline clip-path="url(#clip072)" style="stroke:#009af9; stroke-linecap:butt; stroke-linejoin:round; stroke-width:12; stroke-opacity:1; fill:none" points="
  2054.89,889.011 1872.8,798.801 1699.63,710.951 1533.17,628.442 1346.12,488.974 1190.64,467.232 970.112,381.466 
  "/>
<line clip-path="url(#clip072)" x1="2054.89" y1="889.011" x2="2054.89" y2="873.011" style="stroke:#009af9; stroke-width:3.072; stroke-opacity:1"/>
<line clip-path="url(#clip072)" x1="2054.89" y1="889.011" x2="2038.89" y2="889.011" style="stroke:#009af9; stroke-width:3.072; stroke-opacity:1"/>
<line clip-path="url(#clip072)" x1="2054.89" y1="889.011" x2="2054.89" y2="905.011" style="stroke:#009af9; stroke-width:3.072; stroke-opacity:1"/>
<line clip-path="url(#clip072)" x1="2054.89" y1="889.011" x2="2070.89" y2="889.011" style="stroke:#009af9; stroke-width:3.072; stroke-opacity:1"/>
<line clip-path="url(#clip072)" x1="1872.8" y1="798.801" x2="1872.8" y2="782.801" style="stroke:#009af9; stroke-width:3.072; stroke-opacity:1"/>
<line clip-path="url(#clip072)" x1="1872.8" y1="798.801" x2="1856.8" y2="798.801" style="stroke:#009af9; stroke-width:3.072; stroke-opacity:1"/>
<line clip-path="url(#clip072)" x1="1872.8" y1="798.801" x2="1872.8" y2="814.801" style="stroke:#009af9; stroke-width:3.072; stroke-opacity:1"/>
<line clip-path="url(#clip072)" x1="1872.8" y1="798.801" x2="1888.8" y2="798.801" style="stroke:#009af9; stroke-width:3.072; stroke-opacity:1"/>
<line clip-path="url(#clip072)" x1="1699.63" y1="710.951" x2="1699.63" y2="694.951" style="stroke:#009af9; stroke-width:3.072; stroke-opacity:1"/>
<line clip-path="url(#clip072)" x1="1699.63" y1="710.951" x2="1683.63" y2="710.951" style="stroke:#009af9; stroke-width:3.072; stroke-opacity:1"/>
<line clip-path="url(#clip072)" x1="1699.63" y1="710.951" x2="1699.63" y2="726.951" style="stroke:#009af9; stroke-width:3.072; stroke-opacity:1"/>
<line clip-path="url(#clip072)" x1="1699.63" y1="710.951" x2="1715.63" y2="710.951" style="stroke:#009af9; stroke-width:3.072; stroke-opacity:1"/>
<line clip-path="url(#clip072)" x1="1533.17" y1="628.442" x2="1533.17" y2="612.442" style="stroke:#009af9; stroke-width:3.072; stroke-opacity:1"/>
<line clip-path="url(#clip072)" x1="1533.17" y1="628.442" x2="1517.17" y2="628.442" style="stroke:#009af9; stroke-width:3.072; stroke-opacity:1"/>
<line clip-path="url(#clip072)" x1="1533.17" y1="628.442" x2="1533.17" y2="644.442" style="stroke:#009af9; stroke-width:3.072; stroke-opacity:1"/>
<line clip-path="url(#clip072)" x1="1533.17" y1="628.442" x2="1549.17" y2="628.442" style="stroke:#009af9; stroke-width:3.072; stroke-opacity:1"/>
<line clip-path="url(#clip072)" x1="1346.12" y1="488.974" x2="1346.12" y2="472.974" style="stroke:#009af9; stroke-width:3.072; stroke-opacity:1"/>
<line clip-path="url(#clip072)" x1="1346.12" y1="488.974" x2="1330.12" y2="488.974" style="stroke:#009af9; stroke-width:3.072; stroke-opacity:1"/>
<line clip-path="url(#clip072)" x1="1346.12" y1="488.974" x2="1346.12" y2="504.974" style="stroke:#009af9; stroke-width:3.072; stroke-opacity:1"/>
<line clip-path="url(#clip072)" x1="1346.12" y1="488.974" x2="1362.12" y2="488.974" style="stroke:#009af9; stroke-width:3.072; stroke-opacity:1"/>
<line clip-path="url(#clip072)" x1="1190.64" y1="467.232" x2="1190.64" y2="451.232" style="stroke:#009af9; stroke-width:3.072; stroke-opacity:1"/>
<line clip-path="url(#clip072)" x1="1190.64" y1="467.232" x2="1174.64" y2="467.232" style="stroke:#009af9; stroke-width:3.072; stroke-opacity:1"/>
<line clip-path="url(#clip072)" x1="1190.64" y1="467.232" x2="1190.64" y2="483.232" style="stroke:#009af9; stroke-width:3.072; stroke-opacity:1"/>
<line clip-path="url(#clip072)" x1="1190.64" y1="467.232" x2="1206.64" y2="467.232" style="stroke:#009af9; stroke-width:3.072; stroke-opacity:1"/>
<line clip-path="url(#clip072)" x1="970.112" y1="381.466" x2="970.112" y2="365.466" style="stroke:#009af9; stroke-width:3.072; stroke-opacity:1"/>
<line clip-path="url(#clip072)" x1="970.112" y1="381.466" x2="954.112" y2="381.466" style="stroke:#009af9; stroke-width:3.072; stroke-opacity:1"/>
<line clip-path="url(#clip072)" x1="970.112" y1="381.466" x2="970.112" y2="397.466" style="stroke:#009af9; stroke-width:3.072; stroke-opacity:1"/>
<line clip-path="url(#clip072)" x1="970.112" y1="381.466" x2="986.112" y2="381.466" style="stroke:#009af9; stroke-width:3.072; stroke-opacity:1"/>
<polyline clip-path="url(#clip072)" style="stroke:#e26f46; stroke-linecap:butt; stroke-linejoin:round; stroke-width:12; stroke-opacity:1; fill:none" points="
  2088.9,1066.11 1922.42,1000.67 1794.7,924.667 1597.8,866.342 1395.39,785.383 1211.57,716.965 1035.36,679.327 
  "/>
<circle clip-path="url(#clip072)" cx="2088.9" cy="1066.11" r="14" fill="#e26f46" fill-rule="evenodd" fill-opacity="1" stroke="#000000" stroke-opacity="1" stroke-width="3.072"/>
<circle clip-path="url(#clip072)" cx="1922.42" cy="1000.67" r="14" fill="#e26f46" fill-rule="evenodd" fill-opacity="1" stroke="#000000" stroke-opacity="1" stroke-width="3.072"/>
<circle clip-path="url(#clip072)" cx="1794.7" cy="924.667" r="14" fill="#e26f46" fill-rule="evenodd" fill-opacity="1" stroke="#000000" stroke-opacity="1" stroke-width="3.072"/>
<circle clip-path="url(#clip072)" cx="1597.8" cy="866.342" r="14" fill="#e26f46" fill-rule="evenodd" fill-opacity="1" stroke="#000000" stroke-opacity="1" stroke-width="3.072"/>
<circle clip-path="url(#clip072)" cx="1395.39" cy="785.383" r="14" fill="#e26f46" fill-rule="evenodd" fill-opacity="1" stroke="#000000" stroke-opacity="1" stroke-width="3.072"/>
<circle clip-path="url(#clip072)" cx="1211.57" cy="716.965" r="14" fill="#e26f46" fill-rule="evenodd" fill-opacity="1" stroke="#000000" stroke-opacity="1" stroke-width="3.072"/>
<circle clip-path="url(#clip072)" cx="1035.36" cy="679.327" r="14" fill="#e26f46" fill-rule="evenodd" fill-opacity="1" stroke="#000000" stroke-opacity="1" stroke-width="3.072"/>
<polyline clip-path="url(#clip072)" style="stroke:#3da44d; stroke-linecap:butt; stroke-linejoin:round; stroke-width:12; stroke-opacity:1; fill:none" points="
  1922.3,1289.81 1668.53,1185.75 1286.22,1070.93 907.318,944.094 808.487,811.712 621.307,675.092 387.389,536.963 
  "/>
<line clip-path="url(#clip072)" x1="1922.3" y1="1289.81" x2="1922.3" y2="1273.81" style="stroke:#3da44d; stroke-width:3.072; stroke-opacity:1"/>
<line clip-path="url(#clip072)" x1="1922.3" y1="1289.81" x2="1906.3" y2="1289.81" style="stroke:#3da44d; stroke-width:3.072; stroke-opacity:1"/>
<line clip-path="url(#clip072)" x1="1922.3" y1="1289.81" x2="1922.3" y2="1305.81" style="stroke:#3da44d; stroke-width:3.072; stroke-opacity:1"/>
<line clip-path="url(#clip072)" x1="1922.3" y1="1289.81" x2="1938.3" y2="1289.81" style="stroke:#3da44d; stroke-width:3.072; stroke-opacity:1"/>
<line clip-path="url(#clip072)" x1="1668.53" y1="1185.75" x2="1668.53" y2="1169.75" style="stroke:#3da44d; stroke-width:3.072; stroke-opacity:1"/>
<line clip-path="url(#clip072)" x1="1668.53" y1="1185.75" x2="1652.53" y2="1185.75" style="stroke:#3da44d; stroke-width:3.072; stroke-opacity:1"/>
<line clip-path="url(#clip072)" x1="1668.53" y1="1185.75" x2="1668.53" y2="1201.75" style="stroke:#3da44d; stroke-width:3.072; stroke-opacity:1"/>
<line clip-path="url(#clip072)" x1="1668.53" y1="1185.75" x2="1684.53" y2="1185.75" style="stroke:#3da44d; stroke-width:3.072; stroke-opacity:1"/>
<line clip-path="url(#clip072)" x1="1286.22" y1="1070.93" x2="1286.22" y2="1054.93" style="stroke:#3da44d; stroke-width:3.072; stroke-opacity:1"/>
<line clip-path="url(#clip072)" x1="1286.22" y1="1070.93" x2="1270.22" y2="1070.93" style="stroke:#3da44d; stroke-width:3.072; stroke-opacity:1"/>
<line clip-path="url(#clip072)" x1="1286.22" y1="1070.93" x2="1286.22" y2="1086.93" style="stroke:#3da44d; stroke-width:3.072; stroke-opacity:1"/>
<line clip-path="url(#clip072)" x1="1286.22" y1="1070.93" x2="1302.22" y2="1070.93" style="stroke:#3da44d; stroke-width:3.072; stroke-opacity:1"/>
<line clip-path="url(#clip072)" x1="907.318" y1="944.094" x2="907.318" y2="928.094" style="stroke:#3da44d; stroke-width:3.072; stroke-opacity:1"/>
<line clip-path="url(#clip072)" x1="907.318" y1="944.094" x2="891.318" y2="944.094" style="stroke:#3da44d; stroke-width:3.072; stroke-opacity:1"/>
<line clip-path="url(#clip072)" x1="907.318" y1="944.094" x2="907.318" y2="960.094" style="stroke:#3da44d; stroke-width:3.072; stroke-opacity:1"/>
<line clip-path="url(#clip072)" x1="907.318" y1="944.094" x2="923.318" y2="944.094" style="stroke:#3da44d; stroke-width:3.072; stroke-opacity:1"/>
<line clip-path="url(#clip072)" x1="808.487" y1="811.712" x2="808.487" y2="795.712" style="stroke:#3da44d; stroke-width:3.072; stroke-opacity:1"/>
<line clip-path="url(#clip072)" x1="808.487" y1="811.712" x2="792.487" y2="811.712" style="stroke:#3da44d; stroke-width:3.072; stroke-opacity:1"/>
<line clip-path="url(#clip072)" x1="808.487" y1="811.712" x2="808.487" y2="827.712" style="stroke:#3da44d; stroke-width:3.072; stroke-opacity:1"/>
<line clip-path="url(#clip072)" x1="808.487" y1="811.712" x2="824.487" y2="811.712" style="stroke:#3da44d; stroke-width:3.072; stroke-opacity:1"/>
<line clip-path="url(#clip072)" x1="621.307" y1="675.092" x2="621.307" y2="659.092" style="stroke:#3da44d; stroke-width:3.072; stroke-opacity:1"/>
<line clip-path="url(#clip072)" x1="621.307" y1="675.092" x2="605.307" y2="675.092" style="stroke:#3da44d; stroke-width:3.072; stroke-opacity:1"/>
<line clip-path="url(#clip072)" x1="621.307" y1="675.092" x2="621.307" y2="691.092" style="stroke:#3da44d; stroke-width:3.072; stroke-opacity:1"/>
<line clip-path="url(#clip072)" x1="621.307" y1="675.092" x2="637.307" y2="675.092" style="stroke:#3da44d; stroke-width:3.072; stroke-opacity:1"/>
<line clip-path="url(#clip072)" x1="387.389" y1="536.963" x2="387.389" y2="520.963" style="stroke:#3da44d; stroke-width:3.072; stroke-opacity:1"/>
<line clip-path="url(#clip072)" x1="387.389" y1="536.963" x2="371.389" y2="536.963" style="stroke:#3da44d; stroke-width:3.072; stroke-opacity:1"/>
<line clip-path="url(#clip072)" x1="387.389" y1="536.963" x2="387.389" y2="552.963" style="stroke:#3da44d; stroke-width:3.072; stroke-opacity:1"/>
<line clip-path="url(#clip072)" x1="387.389" y1="536.963" x2="403.389" y2="536.963" style="stroke:#3da44d; stroke-width:3.072; stroke-opacity:1"/>
<polyline clip-path="url(#clip072)" style="stroke:#c271d2; stroke-linecap:butt; stroke-linejoin:round; stroke-width:12; stroke-opacity:1; fill:none" points="
  2188.83,1104.72 1896.87,1019.68 1761.67,993.105 1314.39,930.446 1221.17,833.182 1183.79,785.662 1097.04,728.07 
  "/>
<path clip-path="url(#clip072)" d="M2188.83 1088.72 L2172.83 1104.72 L2188.83 1120.72 L2204.83 1104.72 L2188.83 1088.72 Z" fill="#c271d2" fill-rule="evenodd" fill-opacity="1" stroke="#000000" stroke-opacity="1" stroke-width="3.072"/>
<path clip-path="url(#clip072)" d="M1896.87 1003.68 L1880.87 1019.68 L1896.87 1035.68 L1912.87 1019.68 L1896.87 1003.68 Z" fill="#c271d2" fill-rule="evenodd" fill-opacity="1" stroke="#000000" stroke-opacity="1" stroke-width="3.072"/>
<path clip-path="url(#clip072)" d="M1761.67 977.105 L1745.67 993.105 L1761.67 1009.1 L1777.67 993.105 L1761.67 977.105 Z" fill="#c271d2" fill-rule="evenodd" fill-opacity="1" stroke="#000000" stroke-opacity="1" stroke-width="3.072"/>
<path clip-path="url(#clip072)" d="M1314.39 914.446 L1298.39 930.446 L1314.39 946.446 L1330.39 930.446 L1314.39 914.446 Z" fill="#c271d2" fill-rule="evenodd" fill-opacity="1" stroke="#000000" stroke-opacity="1" stroke-width="3.072"/>
<path clip-path="url(#clip072)" d="M1221.17 817.182 L1205.17 833.182 L1221.17 849.182 L1237.17 833.182 L1221.17 817.182 Z" fill="#c271d2" fill-rule="evenodd" fill-opacity="1" stroke="#000000" stroke-opacity="1" stroke-width="3.072"/>
<path clip-path="url(#clip072)" d="M1183.79 769.662 L1167.79 785.662 L1183.79 801.662 L1199.79 785.662 L1183.79 769.662 Z" fill="#c271d2" fill-rule="evenodd" fill-opacity="1" stroke="#000000" stroke-opacity="1" stroke-width="3.072"/>
<path clip-path="url(#clip072)" d="M1097.04 712.07 L1081.04 728.07 L1097.04 744.07 L1113.04 728.07 L1097.04 712.07 Z" fill="#c271d2" fill-rule="evenodd" fill-opacity="1" stroke="#000000" stroke-opacity="1" stroke-width="3.072"/>
<polyline clip-path="url(#clip072)" style="stroke:#ac8d18; stroke-linecap:butt; stroke-linejoin:round; stroke-width:12; stroke-opacity:1; fill:none" points="
  2199.99,1032.77 1935.96,979.636 1737.65,906.462 1573.47,853.43 1404.15,763.898 1206.96,690.182 1054.21,623.892 
  "/>
<path clip-path="url(#clip072)" d="M2215.99 1016.77 L2183.99 1016.77 L2199.99 1048.77 L2215.99 1016.77 Z" fill="#ac8d18" fill-rule="evenodd" fill-opacity="1" stroke="#000000" stroke-opacity="1" stroke-width="3.072"/>
<path clip-path="url(#clip072)" d="M1951.96 963.636 L1919.96 963.636 L1935.96 995.636 L1951.96 963.636 Z" fill="#ac8d18" fill-rule="evenodd" fill-opacity="1" stroke="#000000" stroke-opacity="1" stroke-width="3.072"/>
<path clip-path="url(#clip072)" d="M1753.65 890.462 L1721.65 890.462 L1737.65 922.462 L1753.65 890.462 Z" fill="#ac8d18" fill-rule="evenodd" fill-opacity="1" stroke="#000000" stroke-opacity="1" stroke-width="3.072"/>
<path clip-path="url(#clip072)" d="M1589.47 837.43 L1557.47 837.43 L1573.47 869.43 L1589.47 837.43 Z" fill="#ac8d18" fill-rule="evenodd" fill-opacity="1" stroke="#000000" stroke-opacity="1" stroke-width="3.072"/>
<path clip-path="url(#clip072)" d="M1420.15 747.898 L1388.15 747.898 L1404.15 779.898 L1420.15 747.898 Z" fill="#ac8d18" fill-rule="evenodd" fill-opacity="1" stroke="#000000" stroke-opacity="1" stroke-width="3.072"/>
<path clip-path="url(#clip072)" d="M1222.96 674.182 L1190.96 674.182 L1206.96 706.182 L1222.96 674.182 Z" fill="#ac8d18" fill-rule="evenodd" fill-opacity="1" stroke="#000000" stroke-opacity="1" stroke-width="3.072"/>
<path clip-path="url(#clip072)" d="M1070.21 607.892 L1038.21 607.892 L1054.21 639.892 L1070.21 607.892 Z" fill="#ac8d18" fill-rule="evenodd" fill-opacity="1" stroke="#000000" stroke-opacity="1" stroke-width="3.072"/>
<polyline clip-path="url(#clip072)" style="stroke:#00a9ad; stroke-linecap:butt; stroke-linejoin:round; stroke-width:12; stroke-opacity:1; fill:none" points="
  1925.98,1285.77 1693.16,1177.42 1356.08,1037.49 992.766,869.674 664.57,698.635 324.078,537.741 307.652,387.858 
  "/>
<path clip-path="url(#clip072)" d="M1925.98 1269.77 L1913.47 1275.8 L1910.38 1289.34 L1919.04 1300.19 L1932.93 1300.19 L1941.58 1289.34 L1938.5 1275.8 Z" fill="#00a9ad" fill-rule="evenodd" fill-opacity="1" stroke="#000000" stroke-opacity="1" stroke-width="3.072"/>
<path clip-path="url(#clip072)" d="M1693.16 1161.42 L1680.65 1167.45 L1677.56 1180.98 L1686.22 1191.83 L1700.11 1191.83 L1708.76 1180.98 L1705.67 1167.45 Z" fill="#00a9ad" fill-rule="evenodd" fill-opacity="1" stroke="#000000" stroke-opacity="1" stroke-width="3.072"/>
<path clip-path="url(#clip072)" d="M1356.08 1021.49 L1343.57 1027.52 L1340.48 1041.05 L1349.14 1051.9 L1363.02 1051.9 L1371.68 1041.05 L1368.59 1027.52 Z" fill="#00a9ad" fill-rule="evenodd" fill-opacity="1" stroke="#000000" stroke-opacity="1" stroke-width="3.072"/>
<path clip-path="url(#clip072)" d="M992.766 853.674 L980.254 859.706 L977.166 873.242 L985.822 884.09 L999.71 884.09 L1008.37 873.242 L1005.28 859.706 Z" fill="#00a9ad" fill-rule="evenodd" fill-opacity="1" stroke="#000000" stroke-opacity="1" stroke-width="3.072"/>
<path clip-path="url(#clip072)" d="M664.57 682.635 L652.058 688.667 L648.97 702.203 L657.626 713.051 L671.514 713.051 L680.17 702.203 L677.082 688.667 Z" fill="#00a9ad" fill-rule="evenodd" fill-opacity="1" stroke="#000000" stroke-opacity="1" stroke-width="3.072"/>
<path clip-path="url(#clip072)" d="M324.078 521.741 L311.566 527.773 L308.478 541.309 L317.134 552.157 L331.022 552.157 L339.678 541.309 L336.59 527.773 Z" fill="#00a9ad" fill-rule="evenodd" fill-opacity="1" stroke="#000000" stroke-opacity="1" stroke-width="3.072"/>
<path clip-path="url(#clip072)" d="M307.652 371.858 L295.14 377.89 L292.052 391.426 L300.708 402.274 L314.596 402.274 L323.252 391.426 L320.164 377.89 Z" fill="#00a9ad" fill-rule="evenodd" fill-opacity="1" stroke="#000000" stroke-opacity="1" stroke-width="3.072"/>
<polyline clip-path="url(#clip072)" style="stroke:#ed5d92; stroke-linecap:butt; stroke-linejoin:round; stroke-width:12; stroke-opacity:1; fill:none" points="
  1922.53,1034.31 1638.04,908.398 1307.17,755.643 1084.05,570.612 885.742,395.154 675.969,235.583 443.531,84.0448 
  "/>
<path clip-path="url(#clip072)" d="M1922.53 1050.31 L1908.67 1042.31 L1908.67 1026.31 L1922.53 1018.31 L1936.38 1026.31 L1936.38 1042.31 Z" fill="#ed5d92" fill-rule="evenodd" fill-opacity="1" stroke="#000000" stroke-opacity="1" stroke-width="3.072"/>
<path clip-path="url(#clip072)" d="M1638.04 924.398 L1624.19 916.398 L1624.19 900.398 L1638.04 892.398 L1651.9 900.398 L1651.9 916.398 Z" fill="#ed5d92" fill-rule="evenodd" fill-opacity="1" stroke="#000000" stroke-opacity="1" stroke-width="3.072"/>
<path clip-path="url(#clip072)" d="M1307.17 771.643 L1293.32 763.643 L1293.32 747.643 L1307.17 739.643 L1321.03 747.643 L1321.03 763.643 Z" fill="#ed5d92" fill-rule="evenodd" fill-opacity="1" stroke="#000000" stroke-opacity="1" stroke-width="3.072"/>
<path clip-path="url(#clip072)" d="M1084.05 586.612 L1070.19 578.612 L1070.19 562.612 L1084.05 554.612 L1097.9 562.612 L1097.9 578.612 Z" fill="#ed5d92" fill-rule="evenodd" fill-opacity="1" stroke="#000000" stroke-opacity="1" stroke-width="3.072"/>
<path clip-path="url(#clip072)" d="M885.742 411.154 L871.886 403.154 L871.886 387.154 L885.742 379.154 L899.598 387.154 L899.598 403.154 Z" fill="#ed5d92" fill-rule="evenodd" fill-opacity="1" stroke="#000000" stroke-opacity="1" stroke-width="3.072"/>
<path clip-path="url(#clip072)" d="M675.969 251.583 L662.113 243.583 L662.113 227.583 L675.969 219.583 L689.825 227.583 L689.825 243.583 Z" fill="#ed5d92" fill-rule="evenodd" fill-opacity="1" stroke="#000000" stroke-opacity="1" stroke-width="3.072"/>
<path clip-path="url(#clip072)" d="M443.531 100.045 L429.675 92.0448 L429.675 76.0448 L443.531 68.0448 L457.387 76.0448 L457.387 92.0448 Z" fill="#ed5d92" fill-rule="evenodd" fill-opacity="1" stroke="#000000" stroke-opacity="1" stroke-width="3.072"/>
<polyline clip-path="url(#clip072)" style="stroke:#c68125; stroke-linecap:butt; stroke-linejoin:round; stroke-width:12; stroke-opacity:1; fill:none" points="
  1674.86,998.455 1350.7,942.251 1234.47,895.863 1123.41,860.646 1007.09,816.25 664.633,788.604 523.579,735.666 
  "/>
<line clip-path="url(#clip072)" x1="1690.86" y1="998.455" x2="1658.86" y2="998.455" style="stroke:#c68125; stroke-width:3.072; stroke-opacity:1"/>
<line clip-path="url(#clip072)" x1="1366.7" y1="942.251" x2="1334.7" y2="942.251" style="stroke:#c68125; stroke-width:3.072; stroke-opacity:1"/>
<line clip-path="url(#clip072)" x1="1250.47" y1="895.863" x2="1218.47" y2="895.863" style="stroke:#c68125; stroke-width:3.072; stroke-opacity:1"/>
<line clip-path="url(#clip072)" x1="1139.41" y1="860.646" x2="1107.41" y2="860.646" style="stroke:#c68125; stroke-width:3.072; stroke-opacity:1"/>
<line clip-path="url(#clip072)" x1="1023.09" y1="816.25" x2="991.087" y2="816.25" style="stroke:#c68125; stroke-width:3.072; stroke-opacity:1"/>
<line clip-path="url(#clip072)" x1="680.633" y1="788.604" x2="648.633" y2="788.604" style="stroke:#c68125; stroke-width:3.072; stroke-opacity:1"/>
<line clip-path="url(#clip072)" x1="539.579" y1="735.666" x2="507.579" y2="735.666" style="stroke:#c68125; stroke-width:3.072; stroke-opacity:1"/>
<polyline clip-path="url(#clip072)" style="stroke:#00a98d; stroke-linecap:butt; stroke-linejoin:round; stroke-width:12; stroke-opacity:1; fill:none" points="
  1799.83,1159.07 1569.83,1122.62 1386.87,1048.91 1309.83,995.107 1162.18,930.641 1084.13,867.359 939.672,779.621 
  "/>
<path clip-path="url(#clip072)" d="M1787.03 1159.07 L1806.23 1170.27 L1806.23 1147.87 L1787.03 1159.07 Z" fill="#00a98d" fill-rule="evenodd" fill-opacity="1" stroke="#000000" stroke-opacity="1" stroke-width="3.072"/>
<path clip-path="url(#clip072)" d="M1557.03 1122.62 L1576.23 1133.82 L1576.23 1111.42 L1557.03 1122.62 Z" fill="#00a98d" fill-rule="evenodd" fill-opacity="1" stroke="#000000" stroke-opacity="1" stroke-width="3.072"/>
<path clip-path="url(#clip072)" d="M1374.07 1048.91 L1393.27 1060.11 L1393.27 1037.71 L1374.07 1048.91 Z" fill="#00a98d" fill-rule="evenodd" fill-opacity="1" stroke="#000000" stroke-opacity="1" stroke-width="3.072"/>
<path clip-path="url(#clip072)" d="M1297.03 995.107 L1316.23 1006.31 L1316.23 983.907 L1297.03 995.107 Z" fill="#00a98d" fill-rule="evenodd" fill-opacity="1" stroke="#000000" stroke-opacity="1" stroke-width="3.072"/>
<path clip-path="url(#clip072)" d="M1149.38 930.641 L1168.58 941.841 L1168.58 919.441 L1149.38 930.641 Z" fill="#00a98d" fill-rule="evenodd" fill-opacity="1" stroke="#000000" stroke-opacity="1" stroke-width="3.072"/>
<path clip-path="url(#clip072)" d="M1071.33 867.359 L1090.53 878.559 L1090.53 856.159 L1071.33 867.359 Z" fill="#00a98d" fill-rule="evenodd" fill-opacity="1" stroke="#000000" stroke-opacity="1" stroke-width="3.072"/>
<path clip-path="url(#clip072)" d="M926.872 779.621 L946.072 790.821 L946.072 768.421 L926.872 779.621 Z" fill="#00a98d" fill-rule="evenodd" fill-opacity="1" stroke="#000000" stroke-opacity="1" stroke-width="3.072"/>
<polyline clip-path="url(#clip072)" style="stroke:#8e971d; stroke-linecap:butt; stroke-linejoin:round; stroke-width:12; stroke-opacity:1; fill:none" points="
  2095.06,1310.74 1914.51,1198.05 1666.42,1129.65 1456.64,1088.67 1407.14,887.623 1196.12,837.139 905.872,674.048 
  "/>
<path clip-path="url(#clip072)" d="M2095.06 1326.74 L2083.75 1322.05 L2079.06 1310.74 L2083.75 1299.42 L2095.06 1294.74 L2106.37 1299.42 L2111.06 1310.74 L2106.37 1322.05 Z" fill="#8e971d" fill-rule="evenodd" fill-opacity="1" stroke="#000000" stroke-opacity="1" stroke-width="3.072"/>
<path clip-path="url(#clip072)" d="M1914.51 1214.05 L1903.19 1209.36 L1898.51 1198.05 L1903.19 1186.74 L1914.51 1182.05 L1925.82 1186.74 L1930.51 1198.05 L1925.82 1209.36 Z" fill="#8e971d" fill-rule="evenodd" fill-opacity="1" stroke="#000000" stroke-opacity="1" stroke-width="3.072"/>
<path clip-path="url(#clip072)" d="M1666.42 1145.65 L1655.11 1140.96 L1650.42 1129.65 L1655.11 1118.34 L1666.42 1113.65 L1677.73 1118.34 L1682.42 1129.65 L1677.73 1140.96 Z" fill="#8e971d" fill-rule="evenodd" fill-opacity="1" stroke="#000000" stroke-opacity="1" stroke-width="3.072"/>
<path clip-path="url(#clip072)" d="M1456.64 1104.67 L1445.32 1099.98 L1440.64 1088.67 L1445.32 1077.35 L1456.64 1072.67 L1467.95 1077.35 L1472.64 1088.67 L1467.95 1099.98 Z" fill="#8e971d" fill-rule="evenodd" fill-opacity="1" stroke="#000000" stroke-opacity="1" stroke-width="3.072"/>
<path clip-path="url(#clip072)" d="M1407.14 903.623 L1395.83 898.935 L1391.14 887.623 L1395.83 876.311 L1407.14 871.623 L1418.46 876.311 L1423.14 887.623 L1418.46 898.935 Z" fill="#8e971d" fill-rule="evenodd" fill-opacity="1" stroke="#000000" stroke-opacity="1" stroke-width="3.072"/>
<path clip-path="url(#clip072)" d="M1196.12 853.139 L1184.81 848.451 L1180.12 837.139 L1184.81 825.827 L1196.12 821.139 L1207.43 825.827 L1212.12 837.139 L1207.43 848.451 Z" fill="#8e971d" fill-rule="evenodd" fill-opacity="1" stroke="#000000" stroke-opacity="1" stroke-width="3.072"/>
<path clip-path="url(#clip072)" d="M905.872 690.048 L894.56 685.36 L889.872 674.048 L894.56 662.736 L905.872 658.048 L917.184 662.736 L921.872 674.048 L917.184 685.36 Z" fill="#8e971d" fill-rule="evenodd" fill-opacity="1" stroke="#000000" stroke-opacity="1" stroke-width="3.072"/>
<path clip-path="url(#clip070)" d="
M1683.96 660.827 L2189.89 660.827 L2189.89 90.5872 L1683.96 90.5872  Z
  " fill="#ffffff" fill-rule="evenodd" fill-opacity="1"/>
<polyline clip-path="url(#clip070)" style="stroke:#000000; stroke-linecap:butt; stroke-linejoin:round; stroke-width:4; stroke-opacity:1; fill:none" points="
  1683.96,660.827 2189.89,660.827 2189.89,90.5872 1683.96,90.5872 1683.96,660.827 
  "/>
<polyline clip-path="url(#clip070)" style="stroke:#009af9; stroke-linecap:butt; stroke-linejoin:round; stroke-width:4; stroke-opacity:1; fill:none" points="
  1706.25,142.427 1839.98,142.427 
  "/>
<line clip-path="url(#clip070)" x1="1773.11" y1="142.427" x2="1773.11" y2="116.827" style="stroke:#009af9; stroke-width:4.9152; stroke-opacity:1"/>
<line clip-path="url(#clip070)" x1="1773.11" y1="142.427" x2="1747.51" y2="142.427" style="stroke:#009af9; stroke-width:4.9152; stroke-opacity:1"/>
<line clip-path="url(#clip070)" x1="1773.11" y1="142.427" x2="1773.11" y2="168.027" style="stroke:#009af9; stroke-width:4.9152; stroke-opacity:1"/>
<line clip-path="url(#clip070)" x1="1773.11" y1="142.427" x2="1798.71" y2="142.427" style="stroke:#009af9; stroke-width:4.9152; stroke-opacity:1"/>
<path clip-path="url(#clip070)" d="M1862.26 125.147 L1882.13 125.147 L1882.13 129.082 L1866.94 129.082 L1866.94 139.267 L1880.64 139.267 L1880.64 143.203 L1866.94 143.203 L1866.94 159.707 L1862.26 159.707 L1862.26 125.147 Z" fill="#000000" fill-rule="evenodd" fill-opacity="1" /><path clip-path="url(#clip070)" d="M1894.21 143.203 L1894.21 155.865 L1901.71 155.865 Q1905.48 155.865 1907.29 154.314 Q1909.12 152.74 1909.12 149.522 Q1909.12 146.281 1907.29 144.754 Q1905.48 143.203 1901.71 143.203 L1894.21 143.203 M1894.21 128.99 L1894.21 139.406 L1901.13 139.406 Q1904.56 139.406 1906.22 138.133 Q1907.91 136.837 1907.91 134.198 Q1907.91 131.582 1906.22 130.286 Q1904.56 128.99 1901.13 128.99 L1894.21 128.99 M1889.53 125.147 L1901.48 125.147 Q1906.82 125.147 1909.72 127.369 Q1912.61 129.592 1912.61 133.689 Q1912.61 136.86 1911.13 138.735 Q1909.65 140.61 1906.78 141.073 Q1910.23 141.814 1912.13 144.175 Q1914.05 146.513 1914.05 150.031 Q1914.05 154.661 1910.9 157.184 Q1907.75 159.707 1901.94 159.707 L1889.53 159.707 L1889.53 125.147 Z" fill="#000000" fill-rule="evenodd" fill-opacity="1" /><path clip-path="url(#clip070)" d="M1926.73 128.99 L1926.73 155.865 L1932.38 155.865 Q1939.53 155.865 1942.84 152.624 Q1946.18 149.383 1946.18 142.392 Q1946.18 135.448 1942.84 132.23 Q1939.53 128.99 1932.38 128.99 L1926.73 128.99 M1922.06 125.147 L1931.66 125.147 Q1941.71 125.147 1946.41 129.337 Q1951.11 133.504 1951.11 142.392 Q1951.11 151.328 1946.38 155.517 Q1941.66 159.707 1931.66 159.707 L1922.06 159.707 L1922.06 125.147 Z" fill="#000000" fill-rule="evenodd" fill-opacity="1" /><path clip-path="url(#clip070)" d="M1958.56 125.147 L1978.42 125.147 L1978.42 129.082 L1963.24 129.082 L1963.24 139.267 L1976.94 139.267 L1976.94 143.203 L1963.24 143.203 L1963.24 159.707 L1958.56 159.707 L1958.56 125.147 Z" fill="#000000" fill-rule="evenodd" fill-opacity="1" /><polyline clip-path="url(#clip070)" style="stroke:#e26f46; stroke-linecap:butt; stroke-linejoin:round; stroke-width:4; stroke-opacity:1; fill:none" points="
  1706.25,194.267 1839.98,194.267 
  "/>
<circle clip-path="url(#clip070)" cx="1773.11" cy="194.267" r="23" fill="#e26f46" fill-rule="evenodd" fill-opacity="1" stroke="#000000" stroke-opacity="1" stroke-width="4.9152"/>
<path clip-path="url(#clip070)" d="M1878.28 180.158 Q1873.19 180.158 1870.18 183.955 Q1867.19 187.751 1867.19 194.302 Q1867.19 200.83 1870.18 204.626 Q1873.19 208.422 1878.28 208.422 Q1883.38 208.422 1886.34 204.626 Q1889.32 200.83 1889.32 194.302 Q1889.32 187.751 1886.34 183.955 Q1883.38 180.158 1878.28 180.158 M1884.83 210.922 L1890.99 217.658 L1885.34 217.658 L1880.23 212.126 Q1879.46 212.172 1879.05 212.195 Q1878.65 212.218 1878.28 212.218 Q1870.99 212.218 1866.62 207.357 Q1862.26 202.473 1862.26 194.302 Q1862.26 186.108 1866.62 181.246 Q1870.99 176.362 1878.28 176.362 Q1885.55 176.362 1889.9 181.246 Q1894.26 186.108 1894.26 194.302 Q1894.26 200.32 1891.82 204.603 Q1889.42 208.885 1884.83 210.922 Z" fill="#000000" fill-rule="evenodd" fill-opacity="1" /><path clip-path="url(#clip070)" d="M1901.57 176.987 L1907.87 176.987 L1923.19 205.899 L1923.19 176.987 L1927.73 176.987 L1927.73 211.547 L1921.43 211.547 L1906.11 182.635 L1906.11 211.547 L1901.57 211.547 L1901.57 176.987 Z" fill="#000000" fill-rule="evenodd" fill-opacity="1" /><path clip-path="url(#clip070)" d="M1941.71 180.83 L1941.71 207.705 L1947.36 207.705 Q1954.51 207.705 1957.82 204.464 Q1961.15 201.223 1961.15 194.232 Q1961.15 187.288 1957.82 184.07 Q1954.51 180.83 1947.36 180.83 L1941.71 180.83 M1937.03 176.987 L1946.64 176.987 Q1956.69 176.987 1961.38 181.177 Q1966.08 185.344 1966.08 194.232 Q1966.08 203.168 1961.36 207.357 Q1956.64 211.547 1946.64 211.547 L1937.03 211.547 L1937.03 176.987 Z" fill="#000000" fill-rule="evenodd" fill-opacity="1" /><path clip-path="url(#clip070)" d="M1973.54 176.987 L1993.4 176.987 L1993.4 180.922 L1978.21 180.922 L1978.21 191.107 L1991.92 191.107 L1991.92 195.043 L1978.21 195.043 L1978.21 211.547 L1973.54 211.547 L1973.54 176.987 Z" fill="#000000" fill-rule="evenodd" fill-opacity="1" /><polyline clip-path="url(#clip070)" style="stroke:#3da44d; stroke-linecap:butt; stroke-linejoin:round; stroke-width:4; stroke-opacity:1; fill:none" points="
  1706.25,246.107 1839.98,246.107 
  "/>
<line clip-path="url(#clip070)" x1="1773.11" y1="246.107" x2="1773.11" y2="220.507" style="stroke:#3da44d; stroke-width:4.9152; stroke-opacity:1"/>
<line clip-path="url(#clip070)" x1="1773.11" y1="246.107" x2="1747.51" y2="246.107" style="stroke:#3da44d; stroke-width:4.9152; stroke-opacity:1"/>
<line clip-path="url(#clip070)" x1="1773.11" y1="246.107" x2="1773.11" y2="271.707" style="stroke:#3da44d; stroke-width:4.9152; stroke-opacity:1"/>
<line clip-path="url(#clip070)" x1="1773.11" y1="246.107" x2="1798.71" y2="246.107" style="stroke:#3da44d; stroke-width:4.9152; stroke-opacity:1"/>
<path clip-path="url(#clip070)" d="M1878.65 247.184 Q1880.16 247.693 1881.57 249.359 Q1883.01 251.026 1884.44 253.943 L1889.19 263.387 L1884.16 263.387 L1879.74 254.521 Q1878.03 251.049 1876.41 249.915 Q1874.81 248.781 1872.03 248.781 L1866.94 248.781 L1866.94 263.387 L1862.26 263.387 L1862.26 228.827 L1872.82 228.827 Q1878.75 228.827 1881.66 231.304 Q1884.58 233.781 1884.58 238.781 Q1884.58 242.045 1883.05 244.197 Q1881.55 246.35 1878.65 247.184 M1866.94 232.67 L1866.94 244.938 L1872.82 244.938 Q1876.2 244.938 1877.91 243.387 Q1879.65 241.813 1879.65 238.781 Q1879.65 235.748 1877.91 234.221 Q1876.2 232.67 1872.82 232.67 L1866.94 232.67 Z" fill="#000000" fill-rule="evenodd" fill-opacity="1" /><path clip-path="url(#clip070)" d="M1902.94 240.447 Q1899.51 240.447 1897.52 243.133 Q1895.53 245.795 1895.53 250.447 Q1895.53 255.1 1897.5 257.785 Q1899.49 260.447 1902.94 260.447 Q1906.34 260.447 1908.33 257.762 Q1910.32 255.077 1910.32 250.447 Q1910.32 245.841 1908.33 243.156 Q1906.34 240.447 1902.94 240.447 M1902.94 236.836 Q1908.49 236.836 1911.66 240.447 Q1914.83 244.059 1914.83 250.447 Q1914.83 256.813 1911.66 260.447 Q1908.49 264.058 1902.94 264.058 Q1897.36 264.058 1894.19 260.447 Q1891.04 256.813 1891.04 250.447 Q1891.04 244.059 1894.19 240.447 Q1897.36 236.836 1902.94 236.836 Z" fill="#000000" fill-rule="evenodd" fill-opacity="1" /><path clip-path="url(#clip070)" d="M1938.95 241.397 L1938.95 227.369 L1943.21 227.369 L1943.21 263.387 L1938.95 263.387 L1938.95 259.498 Q1937.61 261.813 1935.55 262.947 Q1933.51 264.058 1930.64 264.058 Q1925.94 264.058 1922.98 260.308 Q1920.04 256.559 1920.04 250.447 Q1920.04 244.336 1922.98 240.586 Q1925.94 236.836 1930.64 236.836 Q1933.51 236.836 1935.55 237.971 Q1937.61 239.082 1938.95 241.397 M1924.44 250.447 Q1924.44 255.146 1926.36 257.832 Q1928.31 260.494 1931.69 260.494 Q1935.06 260.494 1937.01 257.832 Q1938.95 255.146 1938.95 250.447 Q1938.95 245.748 1937.01 243.086 Q1935.06 240.401 1931.69 240.401 Q1928.31 240.401 1926.36 243.086 Q1924.44 245.748 1924.44 250.447 Z" fill="#000000" fill-rule="evenodd" fill-opacity="1" /><path clip-path="url(#clip070)" d="M1963.77 250.355 Q1958.61 250.355 1956.62 251.535 Q1954.63 252.716 1954.63 255.563 Q1954.63 257.832 1956.11 259.174 Q1957.61 260.494 1960.18 260.494 Q1963.72 260.494 1965.85 257.994 Q1968 255.471 1968 251.304 L1968 250.355 L1963.77 250.355 M1972.26 248.596 L1972.26 263.387 L1968 263.387 L1968 259.452 Q1966.55 261.813 1964.37 262.947 Q1962.19 264.058 1959.05 264.058 Q1955.06 264.058 1952.7 261.836 Q1950.37 259.591 1950.37 255.841 Q1950.37 251.466 1953.28 249.244 Q1956.22 247.022 1962.03 247.022 L1968 247.022 L1968 246.605 Q1968 243.665 1966.06 242.068 Q1964.14 240.447 1960.64 240.447 Q1958.42 240.447 1956.31 240.98 Q1954.21 241.512 1952.26 242.577 L1952.26 238.642 Q1954.6 237.739 1956.8 237.299 Q1959 236.836 1961.08 236.836 Q1966.71 236.836 1969.49 239.753 Q1972.26 242.67 1972.26 248.596 Z" fill="#000000" fill-rule="evenodd" fill-opacity="1" /><path clip-path="url(#clip070)" d="M1997.56 238.225 L1997.56 242.253 Q1995.76 241.327 1993.81 240.864 Q1991.87 240.401 1989.79 240.401 Q1986.62 240.401 1985.02 241.373 Q1983.44 242.346 1983.44 244.29 Q1983.44 245.772 1984.58 246.628 Q1985.71 247.461 1989.14 248.225 L1990.6 248.549 Q1995.13 249.522 1997.03 251.304 Q1998.95 253.063 1998.95 256.234 Q1998.95 259.846 1996.08 261.952 Q1993.24 264.058 1988.24 264.058 Q1986.15 264.058 1983.88 263.642 Q1981.64 263.248 1979.14 262.438 L1979.14 258.04 Q1981.5 259.267 1983.79 259.892 Q1986.08 260.494 1988.33 260.494 Q1991.34 260.494 1992.96 259.475 Q1994.58 258.434 1994.58 256.559 Q1994.58 254.822 1993.4 253.896 Q1992.24 252.971 1988.28 252.114 L1986.8 251.767 Q1982.84 250.934 1981.08 249.221 Q1979.32 247.484 1979.32 244.475 Q1979.32 240.818 1981.92 238.827 Q1984.51 236.836 1989.28 236.836 Q1991.64 236.836 1993.72 237.184 Q1995.81 237.531 1997.56 238.225 Z" fill="#000000" fill-rule="evenodd" fill-opacity="1" /><path clip-path="url(#clip070)" d="M2019.18 232.901 L2007.38 251.35 L2019.18 251.35 L2019.18 232.901 M2017.96 228.827 L2023.84 228.827 L2023.84 251.35 L2028.77 251.35 L2028.77 255.239 L2023.84 255.239 L2023.84 263.387 L2019.18 263.387 L2019.18 255.239 L2003.58 255.239 L2003.58 250.725 L2017.96 228.827 Z" fill="#000000" fill-rule="evenodd" fill-opacity="1" /><path clip-path="url(#clip070)" d="M2040.76 232.67 L2040.76 245.656 L2046.64 245.656 Q2049.9 245.656 2051.68 243.966 Q2053.47 242.276 2053.47 239.151 Q2053.47 236.049 2051.68 234.36 Q2049.9 232.67 2046.64 232.67 L2040.76 232.67 M2036.08 228.827 L2046.64 228.827 Q2052.45 228.827 2055.41 231.466 Q2058.4 234.082 2058.4 239.151 Q2058.4 244.267 2055.41 246.883 Q2052.45 249.498 2046.64 249.498 L2040.76 249.498 L2040.76 263.387 L2036.08 263.387 L2036.08 228.827 Z" fill="#000000" fill-rule="evenodd" fill-opacity="1" /><polyline clip-path="url(#clip070)" style="stroke:#c271d2; stroke-linecap:butt; stroke-linejoin:round; stroke-width:4; stroke-opacity:1; fill:none" points="
  1706.25,297.947 1839.98,297.947 
  "/>
<path clip-path="url(#clip070)" d="M1773.11 272.347 L1747.51 297.947 L1773.11 323.547 L1798.71 297.947 L1773.11 272.347 Z" fill="#c271d2" fill-rule="evenodd" fill-opacity="1" stroke="#000000" stroke-opacity="1" stroke-width="4.9152"/>
<path clip-path="url(#clip070)" d="M1890.13 283.329 L1890.13 288.26 Q1887.77 286.061 1885.09 284.973 Q1882.43 283.885 1879.42 283.885 Q1873.49 283.885 1870.34 287.519 Q1867.19 291.13 1867.19 297.982 Q1867.19 304.811 1870.34 308.445 Q1873.49 312.056 1879.42 312.056 Q1882.43 312.056 1885.09 310.968 Q1887.77 309.88 1890.13 307.681 L1890.13 312.565 Q1887.68 314.232 1884.93 315.065 Q1882.19 315.898 1879.14 315.898 Q1871.29 315.898 1866.78 311.107 Q1862.26 306.292 1862.26 297.982 Q1862.26 289.649 1866.78 284.857 Q1871.29 280.042 1879.14 280.042 Q1882.24 280.042 1884.97 280.876 Q1887.73 281.686 1890.13 283.329 Z" fill="#000000" fill-rule="evenodd" fill-opacity="1" /><path clip-path="url(#clip070)" d="M1906.27 315.227 L1893.07 280.667 L1897.96 280.667 L1908.91 309.764 L1919.88 280.667 L1924.74 280.667 L1911.57 315.227 L1906.27 315.227 Z" fill="#000000" fill-rule="evenodd" fill-opacity="1" /><path clip-path="url(#clip070)" d="M1942.98 283.838 Q1937.89 283.838 1934.88 287.635 Q1931.89 291.431 1931.89 297.982 Q1931.89 304.51 1934.88 308.306 Q1937.89 312.102 1942.98 312.102 Q1948.07 312.102 1951.04 308.306 Q1954.02 304.51 1954.02 297.982 Q1954.02 291.431 1951.04 287.635 Q1948.07 283.838 1942.98 283.838 M1942.98 280.042 Q1950.25 280.042 1954.6 284.926 Q1958.95 289.788 1958.95 297.982 Q1958.95 306.153 1954.6 311.037 Q1950.25 315.898 1942.98 315.898 Q1935.69 315.898 1931.32 311.037 Q1926.96 306.176 1926.96 297.982 Q1926.96 289.788 1931.32 284.926 Q1935.69 280.042 1942.98 280.042 Z" fill="#000000" fill-rule="evenodd" fill-opacity="1" /><path clip-path="url(#clip070)" d="M1970.94 284.51 L1970.94 311.385 L1976.59 311.385 Q1983.75 311.385 1987.06 308.144 Q1990.39 304.903 1990.39 297.912 Q1990.39 290.968 1987.06 287.75 Q1983.75 284.51 1976.59 284.51 L1970.94 284.51 M1966.27 280.667 L1975.87 280.667 Q1985.92 280.667 1990.62 284.857 Q1995.32 289.024 1995.32 297.912 Q1995.32 306.848 1990.6 311.037 Q1985.87 315.227 1975.87 315.227 L1966.27 315.227 L1966.27 280.667 Z" fill="#000000" fill-rule="evenodd" fill-opacity="1" /><path clip-path="url(#clip070)" d="M2002.77 280.667 L2024.62 280.667 L2024.62 284.602 L2007.45 284.602 L2007.45 294.834 L2023.91 294.834 L2023.91 298.769 L2007.45 298.769 L2007.45 311.292 L2025.04 311.292 L2025.04 315.227 L2002.77 315.227 L2002.77 280.667 Z" fill="#000000" fill-rule="evenodd" fill-opacity="1" /><path clip-path="url(#clip070)" d="M2052.24 323.098 L2052.24 326.408 L2027.61 326.408 L2027.61 323.098 L2052.24 323.098 Z" fill="#000000" fill-rule="evenodd" fill-opacity="1" /><path clip-path="url(#clip070)" d="M2061.11 298.723 L2061.11 311.385 L2068.61 311.385 Q2072.38 311.385 2074.18 309.834 Q2076.01 308.26 2076.01 305.042 Q2076.01 301.801 2074.18 300.274 Q2072.38 298.723 2068.61 298.723 L2061.11 298.723 M2061.11 284.51 L2061.11 294.926 L2068.03 294.926 Q2071.45 294.926 2073.12 293.653 Q2074.81 292.357 2074.81 289.718 Q2074.81 287.102 2073.12 285.806 Q2071.45 284.51 2068.03 284.51 L2061.11 284.51 M2056.43 280.667 L2068.37 280.667 Q2073.72 280.667 2076.62 282.889 Q2079.51 285.112 2079.51 289.209 Q2079.51 292.38 2078.03 294.255 Q2076.55 296.13 2073.68 296.593 Q2077.12 297.334 2079.02 299.695 Q2080.94 302.033 2080.94 305.551 Q2080.94 310.181 2077.8 312.704 Q2074.65 315.227 2068.84 315.227 L2056.43 315.227 L2056.43 280.667 Z" fill="#000000" fill-rule="evenodd" fill-opacity="1" /><path clip-path="url(#clip070)" d="M2093.63 284.51 L2093.63 311.385 L2099.28 311.385 Q2106.43 311.385 2109.74 308.144 Q2113.07 304.903 2113.07 297.912 Q2113.07 290.968 2109.74 287.75 Q2106.43 284.51 2099.28 284.51 L2093.63 284.51 M2088.95 280.667 L2098.56 280.667 Q2108.61 280.667 2113.3 284.857 Q2118 289.024 2118 297.912 Q2118 306.848 2113.28 311.037 Q2108.56 315.227 2098.56 315.227 L2088.95 315.227 L2088.95 280.667 Z" fill="#000000" fill-rule="evenodd" fill-opacity="1" /><path clip-path="url(#clip070)" d="M2125.46 280.667 L2145.32 280.667 L2145.32 284.602 L2130.13 284.602 L2130.13 294.787 L2143.84 294.787 L2143.84 298.723 L2130.13 298.723 L2130.13 315.227 L2125.46 315.227 L2125.46 280.667 Z" fill="#000000" fill-rule="evenodd" fill-opacity="1" /><polyline clip-path="url(#clip070)" style="stroke:#ac8d18; stroke-linecap:butt; stroke-linejoin:round; stroke-width:4; stroke-opacity:1; fill:none" points="
  1706.25,349.787 1839.98,349.787 
  "/>
<path clip-path="url(#clip070)" d="M1798.71 324.187 L1747.51 324.187 L1773.11 375.387 L1798.71 324.187 Z" fill="#ac8d18" fill-rule="evenodd" fill-opacity="1" stroke="#000000" stroke-opacity="1" stroke-width="4.9152"/>
<path clip-path="url(#clip070)" d="M1881.18 345.077 L1881.18 331.049 L1885.44 331.049 L1885.44 367.067 L1881.18 367.067 L1881.18 363.178 Q1879.83 365.493 1877.77 366.627 Q1875.74 367.738 1872.87 367.738 Q1868.17 367.738 1865.2 363.988 Q1862.26 360.239 1862.26 354.127 Q1862.26 348.016 1865.2 344.266 Q1868.17 340.516 1872.87 340.516 Q1875.74 340.516 1877.77 341.651 Q1879.83 342.762 1881.18 345.077 M1866.66 354.127 Q1866.66 358.826 1868.58 361.512 Q1870.53 364.174 1873.91 364.174 Q1877.29 364.174 1879.23 361.512 Q1881.18 358.826 1881.18 354.127 Q1881.18 349.428 1879.23 346.766 Q1877.29 344.081 1873.91 344.081 Q1870.53 344.081 1868.58 346.766 Q1866.66 349.428 1866.66 354.127 Z" fill="#000000" fill-rule="evenodd" fill-opacity="1" /><path clip-path="url(#clip070)" d="M1911.27 345.077 L1911.27 331.049 L1915.53 331.049 L1915.53 367.067 L1911.27 367.067 L1911.27 363.178 Q1909.93 365.493 1907.87 366.627 Q1905.83 367.738 1902.96 367.738 Q1898.26 367.738 1895.3 363.988 Q1892.36 360.239 1892.36 354.127 Q1892.36 348.016 1895.3 344.266 Q1898.26 340.516 1902.96 340.516 Q1905.83 340.516 1907.87 341.651 Q1909.93 342.762 1911.27 345.077 M1896.76 354.127 Q1896.76 358.826 1898.68 361.512 Q1900.62 364.174 1904 364.174 Q1907.38 364.174 1909.32 361.512 Q1911.27 358.826 1911.27 354.127 Q1911.27 349.428 1909.32 346.766 Q1907.38 344.081 1904 344.081 Q1900.62 344.081 1898.68 346.766 Q1896.76 349.428 1896.76 354.127 Z" fill="#000000" fill-rule="evenodd" fill-opacity="1" /><path clip-path="url(#clip070)" d="M1946.48 353.039 L1946.48 355.123 L1926.89 355.123 Q1927.17 359.521 1929.53 361.836 Q1931.92 364.127 1936.15 364.127 Q1938.61 364.127 1940.9 363.526 Q1943.21 362.924 1945.48 361.72 L1945.48 365.748 Q1943.19 366.72 1940.78 367.229 Q1938.38 367.738 1935.9 367.738 Q1929.69 367.738 1926.06 364.127 Q1922.45 360.516 1922.45 354.359 Q1922.45 347.993 1925.88 344.266 Q1929.32 340.516 1935.16 340.516 Q1940.39 340.516 1943.42 343.896 Q1946.48 347.252 1946.48 353.039 M1942.22 351.789 Q1942.17 348.294 1940.25 346.211 Q1938.35 344.127 1935.2 344.127 Q1931.64 344.127 1929.49 346.141 Q1927.36 348.155 1927.03 351.813 L1942.22 351.789 Z" fill="#000000" fill-rule="evenodd" fill-opacity="1" /><path clip-path="url(#clip070)" d="M1972.08 354.127 Q1972.08 349.428 1970.13 346.766 Q1968.21 344.081 1964.83 344.081 Q1961.45 344.081 1959.51 346.766 Q1957.59 349.428 1957.59 354.127 Q1957.59 358.826 1959.51 361.512 Q1961.45 364.174 1964.83 364.174 Q1968.21 364.174 1970.13 361.512 Q1972.08 358.826 1972.08 354.127 M1957.59 345.077 Q1958.93 342.762 1960.97 341.651 Q1963.03 340.516 1965.88 340.516 Q1970.6 340.516 1973.54 344.266 Q1976.5 348.016 1976.5 354.127 Q1976.5 360.239 1973.54 363.988 Q1970.6 367.738 1965.88 367.738 Q1963.03 367.738 1960.97 366.627 Q1958.93 365.493 1957.59 363.178 L1957.59 367.067 L1953.31 367.067 L1953.31 331.049 L1957.59 331.049 L1957.59 345.077 Z" fill="#000000" fill-rule="evenodd" fill-opacity="1" /><path clip-path="url(#clip070)" d="M2000.62 345.077 L2000.62 331.049 L2004.88 331.049 L2004.88 367.067 L2000.62 367.067 L2000.62 363.178 Q1999.28 365.493 1997.22 366.627 Q1995.18 367.738 1992.31 367.738 Q1987.61 367.738 1984.65 363.988 Q1981.71 360.239 1981.71 354.127 Q1981.71 348.016 1984.65 344.266 Q1987.61 340.516 1992.31 340.516 Q1995.18 340.516 1997.22 341.651 Q1999.28 342.762 2000.62 345.077 M1986.11 354.127 Q1986.11 358.826 1988.03 361.512 Q1989.97 364.174 1993.35 364.174 Q1996.73 364.174 1998.68 361.512 Q2000.62 358.826 2000.62 354.127 Q2000.62 349.428 1998.68 346.766 Q1996.73 344.081 1993.35 344.081 Q1989.97 344.081 1988.03 346.766 Q1986.11 349.428 1986.11 354.127 Z" fill="#000000" fill-rule="evenodd" fill-opacity="1" /><path clip-path="url(#clip070)" d="M2026.78 331.049 L2026.78 334.591 L2022.7 334.591 Q2020.41 334.591 2019.51 335.516 Q2018.63 336.442 2018.63 338.85 L2018.63 341.141 L2025.64 341.141 L2025.64 344.452 L2018.63 344.452 L2018.63 367.067 L2014.35 367.067 L2014.35 344.452 L2010.27 344.452 L2010.27 341.141 L2014.35 341.141 L2014.35 339.336 Q2014.35 335.007 2016.36 333.04 Q2018.37 331.049 2022.75 331.049 L2026.78 331.049 Z" fill="#000000" fill-rule="evenodd" fill-opacity="1" /><polyline clip-path="url(#clip070)" style="stroke:#00a9ad; stroke-linecap:butt; stroke-linejoin:round; stroke-width:4; stroke-opacity:1; fill:none" points="
  1706.25,401.627 1839.98,401.627 
  "/>
<path clip-path="url(#clip070)" d="M1773.11 376.027 L1753.1 385.678 L1748.15 407.336 L1762 424.693 L1784.22 424.693 L1798.07 407.336 L1793.13 385.678 Z" fill="#00a9ad" fill-rule="evenodd" fill-opacity="1" stroke="#000000" stroke-opacity="1" stroke-width="4.9152"/>
<path clip-path="url(#clip070)" d="M1878.65 402.704 Q1880.16 403.213 1881.57 404.879 Q1883.01 406.546 1884.44 409.463 L1889.19 418.907 L1884.16 418.907 L1879.74 410.041 Q1878.03 406.569 1876.41 405.435 Q1874.81 404.301 1872.03 404.301 L1866.94 404.301 L1866.94 418.907 L1862.26 418.907 L1862.26 384.347 L1872.82 384.347 Q1878.75 384.347 1881.66 386.824 Q1884.58 389.301 1884.58 394.301 Q1884.58 397.565 1883.05 399.717 Q1881.55 401.87 1878.65 402.704 M1866.94 388.19 L1866.94 400.458 L1872.82 400.458 Q1876.2 400.458 1877.91 398.907 Q1879.65 397.333 1879.65 394.301 Q1879.65 391.268 1877.91 389.741 Q1876.2 388.19 1872.82 388.19 L1866.94 388.19 Z" fill="#000000" fill-rule="evenodd" fill-opacity="1" /><path clip-path="url(#clip070)" d="M1902.94 395.967 Q1899.51 395.967 1897.52 398.653 Q1895.53 401.315 1895.53 405.967 Q1895.53 410.62 1897.5 413.305 Q1899.49 415.967 1902.94 415.967 Q1906.34 415.967 1908.33 413.282 Q1910.32 410.597 1910.32 405.967 Q1910.32 401.361 1908.33 398.676 Q1906.34 395.967 1902.94 395.967 M1902.94 392.356 Q1908.49 392.356 1911.66 395.967 Q1914.83 399.579 1914.83 405.967 Q1914.83 412.333 1911.66 415.967 Q1908.49 419.578 1902.94 419.578 Q1897.36 419.578 1894.19 415.967 Q1891.04 412.333 1891.04 405.967 Q1891.04 399.579 1894.19 395.967 Q1897.36 392.356 1902.94 392.356 Z" fill="#000000" fill-rule="evenodd" fill-opacity="1" /><path clip-path="url(#clip070)" d="M1938.95 396.917 L1938.95 382.889 L1943.21 382.889 L1943.21 418.907 L1938.95 418.907 L1938.95 415.018 Q1937.61 417.333 1935.55 418.467 Q1933.51 419.578 1930.64 419.578 Q1925.94 419.578 1922.98 415.828 Q1920.04 412.079 1920.04 405.967 Q1920.04 399.856 1922.98 396.106 Q1925.94 392.356 1930.64 392.356 Q1933.51 392.356 1935.55 393.491 Q1937.61 394.602 1938.95 396.917 M1924.44 405.967 Q1924.44 410.666 1926.36 413.352 Q1928.31 416.014 1931.69 416.014 Q1935.06 416.014 1937.01 413.352 Q1938.95 410.666 1938.95 405.967 Q1938.95 401.268 1937.01 398.606 Q1935.06 395.921 1931.69 395.921 Q1928.31 395.921 1926.36 398.606 Q1924.44 401.268 1924.44 405.967 Z" fill="#000000" fill-rule="evenodd" fill-opacity="1" /><path clip-path="url(#clip070)" d="M1963.77 405.875 Q1958.61 405.875 1956.62 407.055 Q1954.63 408.236 1954.63 411.083 Q1954.63 413.352 1956.11 414.694 Q1957.61 416.014 1960.18 416.014 Q1963.72 416.014 1965.85 413.514 Q1968 410.991 1968 406.824 L1968 405.875 L1963.77 405.875 M1972.26 404.116 L1972.26 418.907 L1968 418.907 L1968 414.972 Q1966.55 417.333 1964.37 418.467 Q1962.19 419.578 1959.05 419.578 Q1955.06 419.578 1952.7 417.356 Q1950.37 415.111 1950.37 411.361 Q1950.37 406.986 1953.28 404.764 Q1956.22 402.542 1962.03 402.542 L1968 402.542 L1968 402.125 Q1968 399.185 1966.06 397.588 Q1964.14 395.967 1960.64 395.967 Q1958.42 395.967 1956.31 396.5 Q1954.21 397.032 1952.26 398.097 L1952.26 394.162 Q1954.6 393.259 1956.8 392.819 Q1959 392.356 1961.08 392.356 Q1966.71 392.356 1969.49 395.273 Q1972.26 398.19 1972.26 404.116 Z" fill="#000000" fill-rule="evenodd" fill-opacity="1" /><path clip-path="url(#clip070)" d="M1997.56 393.745 L1997.56 397.773 Q1995.76 396.847 1993.81 396.384 Q1991.87 395.921 1989.79 395.921 Q1986.62 395.921 1985.02 396.893 Q1983.44 397.866 1983.44 399.81 Q1983.44 401.292 1984.58 402.148 Q1985.71 402.981 1989.14 403.745 L1990.6 404.069 Q1995.13 405.042 1997.03 406.824 Q1998.95 408.583 1998.95 411.754 Q1998.95 415.366 1996.08 417.472 Q1993.24 419.578 1988.24 419.578 Q1986.15 419.578 1983.88 419.162 Q1981.64 418.768 1979.14 417.958 L1979.14 413.56 Q1981.5 414.787 1983.79 415.412 Q1986.08 416.014 1988.33 416.014 Q1991.34 416.014 1992.96 414.995 Q1994.58 413.954 1994.58 412.079 Q1994.58 410.342 1993.4 409.416 Q1992.24 408.491 1988.28 407.634 L1986.8 407.287 Q1982.84 406.454 1981.08 404.741 Q1979.32 403.004 1979.32 399.995 Q1979.32 396.338 1981.92 394.347 Q1984.51 392.356 1989.28 392.356 Q1991.64 392.356 1993.72 392.704 Q1995.81 393.051 1997.56 393.745 Z" fill="#000000" fill-rule="evenodd" fill-opacity="1" /><path clip-path="url(#clip070)" d="M2019.18 388.421 L2007.38 406.87 L2019.18 406.87 L2019.18 388.421 M2017.96 384.347 L2023.84 384.347 L2023.84 406.87 L2028.77 406.87 L2028.77 410.759 L2023.84 410.759 L2023.84 418.907 L2019.18 418.907 L2019.18 410.759 L2003.58 410.759 L2003.58 406.245 L2017.96 384.347 Z" fill="#000000" fill-rule="evenodd" fill-opacity="1" /><polyline clip-path="url(#clip070)" style="stroke:#ed5d92; stroke-linecap:butt; stroke-linejoin:round; stroke-width:4; stroke-opacity:1; fill:none" points="
  1706.25,453.467 1839.98,453.467 
  "/>
<path clip-path="url(#clip070)" d="M1773.11 479.067 L1750.94 466.267 L1750.94 440.667 L1773.11 427.867 L1795.28 440.667 L1795.28 466.267 Z" fill="#ed5d92" fill-rule="evenodd" fill-opacity="1" stroke="#000000" stroke-opacity="1" stroke-width="4.9152"/>
<path clip-path="url(#clip070)" d="M1877.45 448.803 Q1876.73 448.386 1875.88 448.201 Q1875.04 447.993 1874.02 447.993 Q1870.41 447.993 1868.47 450.354 Q1866.55 452.692 1866.55 457.09 L1866.55 470.747 L1862.26 470.747 L1862.26 444.821 L1866.55 444.821 L1866.55 448.849 Q1867.89 446.488 1870.04 445.354 Q1872.19 444.196 1875.27 444.196 Q1875.71 444.196 1876.25 444.266 Q1876.78 444.312 1877.43 444.428 L1877.45 448.803 Z" fill="#000000" fill-rule="evenodd" fill-opacity="1" /><path clip-path="url(#clip070)" d="M1890.92 447.807 Q1887.5 447.807 1885.51 450.493 Q1883.51 453.155 1883.51 457.807 Q1883.51 462.46 1885.48 465.145 Q1887.47 467.807 1890.92 467.807 Q1894.32 467.807 1896.32 465.122 Q1898.31 462.437 1898.31 457.807 Q1898.31 453.201 1896.32 450.516 Q1894.32 447.807 1890.92 447.807 M1890.92 444.196 Q1896.48 444.196 1899.65 447.807 Q1902.82 451.419 1902.82 457.807 Q1902.82 464.173 1899.65 467.807 Q1896.48 471.418 1890.92 471.418 Q1885.34 471.418 1882.17 467.807 Q1879.02 464.173 1879.02 457.807 Q1879.02 451.419 1882.17 447.807 Q1885.34 444.196 1890.92 444.196 Z" fill="#000000" fill-rule="evenodd" fill-opacity="1" /><path clip-path="url(#clip070)" d="M1926.94 448.757 L1926.94 434.729 L1931.2 434.729 L1931.2 470.747 L1926.94 470.747 L1926.94 466.858 Q1925.6 469.173 1923.54 470.307 Q1921.5 471.418 1918.63 471.418 Q1913.93 471.418 1910.97 467.668 Q1908.03 463.919 1908.03 457.807 Q1908.03 451.696 1910.97 447.946 Q1913.93 444.196 1918.63 444.196 Q1921.5 444.196 1923.54 445.331 Q1925.6 446.442 1926.94 448.757 M1912.43 457.807 Q1912.43 462.506 1914.35 465.192 Q1916.29 467.854 1919.67 467.854 Q1923.05 467.854 1925 465.192 Q1926.94 462.506 1926.94 457.807 Q1926.94 453.108 1925 450.446 Q1923.05 447.761 1919.67 447.761 Q1916.29 447.761 1914.35 450.446 Q1912.43 453.108 1912.43 457.807 Z" fill="#000000" fill-rule="evenodd" fill-opacity="1" /><path clip-path="url(#clip070)" d="M1951.75 457.715 Q1946.59 457.715 1944.6 458.895 Q1942.61 460.076 1942.61 462.923 Q1942.61 465.192 1944.09 466.534 Q1945.6 467.854 1948.17 467.854 Q1951.71 467.854 1953.84 465.354 Q1955.99 462.831 1955.99 458.664 L1955.99 457.715 L1951.75 457.715 M1960.25 455.956 L1960.25 470.747 L1955.99 470.747 L1955.99 466.812 Q1954.53 469.173 1952.36 470.307 Q1950.18 471.418 1947.03 471.418 Q1943.05 471.418 1940.69 469.196 Q1938.35 466.951 1938.35 463.201 Q1938.35 458.826 1941.27 456.604 Q1944.21 454.382 1950.02 454.382 L1955.99 454.382 L1955.99 453.965 Q1955.99 451.025 1954.05 449.428 Q1952.13 447.807 1948.63 447.807 Q1946.41 447.807 1944.3 448.34 Q1942.19 448.872 1940.25 449.937 L1940.25 446.002 Q1942.59 445.099 1944.79 444.659 Q1946.99 444.196 1949.07 444.196 Q1954.69 444.196 1957.47 447.113 Q1960.25 450.03 1960.25 455.956 Z" fill="#000000" fill-rule="evenodd" fill-opacity="1" /><path clip-path="url(#clip070)" d="M1985.55 445.585 L1985.55 449.613 Q1983.75 448.687 1981.8 448.224 Q1979.86 447.761 1977.77 447.761 Q1974.6 447.761 1973 448.733 Q1971.43 449.706 1971.43 451.65 Q1971.43 453.132 1972.56 453.988 Q1973.7 454.821 1977.12 455.585 L1978.58 455.909 Q1983.12 456.882 1985.02 458.664 Q1986.94 460.423 1986.94 463.594 Q1986.94 467.206 1984.07 469.312 Q1981.22 471.418 1976.22 471.418 Q1974.14 471.418 1971.87 471.002 Q1969.62 470.608 1967.12 469.798 L1967.12 465.4 Q1969.49 466.627 1971.78 467.252 Q1974.07 467.854 1976.31 467.854 Q1979.32 467.854 1980.94 466.835 Q1982.56 465.794 1982.56 463.919 Q1982.56 462.182 1981.38 461.256 Q1980.23 460.331 1976.27 459.474 L1974.79 459.127 Q1970.83 458.294 1969.07 456.581 Q1967.31 454.844 1967.31 451.835 Q1967.31 448.178 1969.9 446.187 Q1972.5 444.196 1977.26 444.196 Q1979.62 444.196 1981.71 444.544 Q1983.79 444.891 1985.55 445.585 Z" fill="#000000" fill-rule="evenodd" fill-opacity="1" /><polyline clip-path="url(#clip070)" style="stroke:#c68125; stroke-linecap:butt; stroke-linejoin:round; stroke-width:4; stroke-opacity:1; fill:none" points="
  1706.25,505.307 1839.98,505.307 
  "/>
<line clip-path="url(#clip070)" x1="1798.71" y1="505.307" x2="1747.51" y2="505.307" style="stroke:#c68125; stroke-width:4.9152; stroke-opacity:1"/>
<path clip-path="url(#clip070)" d="M1877.45 500.643 Q1876.73 500.226 1875.88 500.041 Q1875.04 499.833 1874.02 499.833 Q1870.41 499.833 1868.47 502.194 Q1866.55 504.532 1866.55 508.93 L1866.55 522.587 L1862.26 522.587 L1862.26 496.661 L1866.55 496.661 L1866.55 500.689 Q1867.89 498.328 1870.04 497.194 Q1872.19 496.036 1875.27 496.036 Q1875.71 496.036 1876.25 496.106 Q1876.78 496.152 1877.43 496.268 L1877.45 500.643 Z" fill="#000000" fill-rule="evenodd" fill-opacity="1" /><path clip-path="url(#clip070)" d="M1893.7 509.555 Q1888.54 509.555 1886.55 510.735 Q1884.56 511.916 1884.56 514.763 Q1884.56 517.032 1886.04 518.374 Q1887.54 519.694 1890.11 519.694 Q1893.65 519.694 1895.78 517.194 Q1897.94 514.671 1897.94 510.504 L1897.94 509.555 L1893.7 509.555 M1902.19 507.796 L1902.19 522.587 L1897.94 522.587 L1897.94 518.652 Q1896.48 521.013 1894.3 522.147 Q1892.13 523.258 1888.98 523.258 Q1885 523.258 1882.63 521.036 Q1880.3 518.791 1880.3 515.041 Q1880.3 510.666 1883.21 508.444 Q1886.15 506.222 1891.96 506.222 L1897.94 506.222 L1897.94 505.805 Q1897.94 502.865 1895.99 501.268 Q1894.07 499.647 1890.57 499.647 Q1888.35 499.647 1886.25 500.18 Q1884.14 500.712 1882.19 501.777 L1882.19 497.842 Q1884.53 496.939 1886.73 496.499 Q1888.93 496.036 1891.01 496.036 Q1896.64 496.036 1899.42 498.953 Q1902.19 501.87 1902.19 507.796 Z" fill="#000000" fill-rule="evenodd" fill-opacity="1" /><path clip-path="url(#clip070)" d="M1928.03 500.597 L1928.03 486.569 L1932.29 486.569 L1932.29 522.587 L1928.03 522.587 L1928.03 518.698 Q1926.69 521.013 1924.63 522.147 Q1922.59 523.258 1919.72 523.258 Q1915.02 523.258 1912.06 519.508 Q1909.12 515.759 1909.12 509.647 Q1909.12 503.536 1912.06 499.786 Q1915.02 496.036 1919.72 496.036 Q1922.59 496.036 1924.63 497.171 Q1926.69 498.282 1928.03 500.597 M1913.51 509.647 Q1913.51 514.346 1915.44 517.032 Q1917.38 519.694 1920.76 519.694 Q1924.14 519.694 1926.08 517.032 Q1928.03 514.346 1928.03 509.647 Q1928.03 504.948 1926.08 502.286 Q1924.14 499.601 1920.76 499.601 Q1917.38 499.601 1915.44 502.286 Q1913.51 504.948 1913.51 509.647 Z" fill="#000000" fill-rule="evenodd" fill-opacity="1" /><path clip-path="url(#clip070)" d="M1952.84 509.555 Q1947.68 509.555 1945.69 510.735 Q1943.7 511.916 1943.7 514.763 Q1943.7 517.032 1945.18 518.374 Q1946.69 519.694 1949.25 519.694 Q1952.8 519.694 1954.93 517.194 Q1957.08 514.671 1957.08 510.504 L1957.08 509.555 L1952.84 509.555 M1961.34 507.796 L1961.34 522.587 L1957.08 522.587 L1957.08 518.652 Q1955.62 521.013 1953.44 522.147 Q1951.27 523.258 1948.12 523.258 Q1944.14 523.258 1941.78 521.036 Q1939.44 518.791 1939.44 515.041 Q1939.44 510.666 1942.36 508.444 Q1945.3 506.222 1951.11 506.222 L1957.08 506.222 L1957.08 505.805 Q1957.08 502.865 1955.13 501.268 Q1953.21 499.647 1949.72 499.647 Q1947.5 499.647 1945.39 500.18 Q1943.28 500.712 1941.34 501.777 L1941.34 497.842 Q1943.68 496.939 1945.88 496.499 Q1948.07 496.036 1950.16 496.036 Q1955.78 496.036 1958.56 498.953 Q1961.34 501.87 1961.34 507.796 Z" fill="#000000" fill-rule="evenodd" fill-opacity="1" /><path clip-path="url(#clip070)" d="M1969.67 512.356 L1969.67 496.661 L1973.93 496.661 L1973.93 512.194 Q1973.93 515.874 1975.37 517.726 Q1976.8 519.555 1979.67 519.555 Q1983.12 519.555 1985.11 517.356 Q1987.12 515.157 1987.12 511.36 L1987.12 496.661 L1991.38 496.661 L1991.38 522.587 L1987.12 522.587 L1987.12 518.606 Q1985.57 520.967 1983.51 522.124 Q1981.48 523.258 1978.77 523.258 Q1974.3 523.258 1971.99 520.481 Q1969.67 517.703 1969.67 512.356 M1980.39 496.036 L1980.39 496.036 Z" fill="#000000" fill-rule="evenodd" fill-opacity="1" /><polyline clip-path="url(#clip070)" style="stroke:#00a98d; stroke-linecap:butt; stroke-linejoin:round; stroke-width:4; stroke-opacity:1; fill:none" points="
  1706.25,557.147 1839.98,557.147 
  "/>
<path clip-path="url(#clip070)" d="M1752.63 557.147 L1783.35 575.067 L1783.35 539.227 L1752.63 557.147 Z" fill="#00a98d" fill-rule="evenodd" fill-opacity="1" stroke="#000000" stroke-opacity="1" stroke-width="4.9152"/>
<path clip-path="url(#clip070)" d="M1878.65 558.224 Q1880.16 558.733 1881.57 560.399 Q1883.01 562.066 1884.44 564.983 L1889.19 574.427 L1884.16 574.427 L1879.74 565.561 Q1878.03 562.089 1876.41 560.955 Q1874.81 559.821 1872.03 559.821 L1866.94 559.821 L1866.94 574.427 L1862.26 574.427 L1862.26 539.867 L1872.82 539.867 Q1878.75 539.867 1881.66 542.344 Q1884.58 544.821 1884.58 549.821 Q1884.58 553.085 1883.05 555.237 Q1881.55 557.39 1878.65 558.224 M1866.94 543.71 L1866.94 555.978 L1872.82 555.978 Q1876.2 555.978 1877.91 554.427 Q1879.65 552.853 1879.65 549.821 Q1879.65 546.788 1877.91 545.261 Q1876.2 543.71 1872.82 543.71 L1866.94 543.71 Z" fill="#000000" fill-rule="evenodd" fill-opacity="1" /><path clip-path="url(#clip070)" d="M1905.76 561.395 Q1900.6 561.395 1898.61 562.575 Q1896.62 563.756 1896.62 566.603 Q1896.62 568.872 1898.1 570.214 Q1899.6 571.534 1902.17 571.534 Q1905.71 571.534 1907.84 569.034 Q1910 566.511 1910 562.344 L1910 561.395 L1905.76 561.395 M1914.25 559.636 L1914.25 574.427 L1910 574.427 L1910 570.492 Q1908.54 572.853 1906.36 573.987 Q1904.19 575.098 1901.04 575.098 Q1897.06 575.098 1894.69 572.876 Q1892.36 570.631 1892.36 566.881 Q1892.36 562.506 1895.27 560.284 Q1898.21 558.062 1904.02 558.062 L1910 558.062 L1910 557.645 Q1910 554.705 1908.05 553.108 Q1906.13 551.487 1902.63 551.487 Q1900.41 551.487 1898.31 552.02 Q1896.2 552.552 1894.26 553.617 L1894.26 549.682 Q1896.59 548.779 1898.79 548.339 Q1900.99 547.876 1903.07 547.876 Q1908.7 547.876 1911.48 550.793 Q1914.25 553.71 1914.25 559.636 Z" fill="#000000" fill-rule="evenodd" fill-opacity="1" /><path clip-path="url(#clip070)" d="M1940.09 552.437 L1940.09 538.409 L1944.35 538.409 L1944.35 574.427 L1940.09 574.427 L1940.09 570.538 Q1938.75 572.853 1936.69 573.987 Q1934.65 575.098 1931.78 575.098 Q1927.08 575.098 1924.12 571.348 Q1921.18 567.599 1921.18 561.487 Q1921.18 555.376 1924.12 551.626 Q1927.08 547.876 1931.78 547.876 Q1934.65 547.876 1936.69 549.011 Q1938.75 550.122 1940.09 552.437 M1925.57 561.487 Q1925.57 566.186 1927.5 568.872 Q1929.44 571.534 1932.82 571.534 Q1936.2 571.534 1938.14 568.872 Q1940.09 566.186 1940.09 561.487 Q1940.09 556.788 1938.14 554.126 Q1936.2 551.441 1932.82 551.441 Q1929.44 551.441 1927.5 554.126 Q1925.57 556.788 1925.57 561.487 Z" fill="#000000" fill-rule="evenodd" fill-opacity="1" /><path clip-path="url(#clip070)" d="M1964.9 561.395 Q1959.74 561.395 1957.75 562.575 Q1955.76 563.756 1955.76 566.603 Q1955.76 568.872 1957.24 570.214 Q1958.75 571.534 1961.31 571.534 Q1964.86 571.534 1966.99 569.034 Q1969.14 566.511 1969.14 562.344 L1969.14 561.395 L1964.9 561.395 M1973.4 559.636 L1973.4 574.427 L1969.14 574.427 L1969.14 570.492 Q1967.68 572.853 1965.5 573.987 Q1963.33 575.098 1960.18 575.098 Q1956.2 575.098 1953.84 572.876 Q1951.5 570.631 1951.5 566.881 Q1951.5 562.506 1954.42 560.284 Q1957.36 558.062 1963.17 558.062 L1969.14 558.062 L1969.14 557.645 Q1969.14 554.705 1967.19 553.108 Q1965.27 551.487 1961.78 551.487 Q1959.56 551.487 1957.45 552.02 Q1955.34 552.552 1953.4 553.617 L1953.4 549.682 Q1955.74 548.779 1957.94 548.339 Q1960.13 547.876 1962.22 547.876 Q1967.84 547.876 1970.62 550.793 Q1973.4 553.71 1973.4 559.636 Z" fill="#000000" fill-rule="evenodd" fill-opacity="1" /><path clip-path="url(#clip070)" d="M1981.73 564.196 L1981.73 548.501 L1985.99 548.501 L1985.99 564.034 Q1985.99 567.714 1987.43 569.566 Q1988.86 571.395 1991.73 571.395 Q1995.18 571.395 1997.17 569.196 Q1999.19 566.997 1999.19 563.2 L1999.19 548.501 L2003.44 548.501 L2003.44 574.427 L1999.19 574.427 L1999.19 570.446 Q1997.63 572.807 1995.57 573.964 Q1993.54 575.098 1990.83 575.098 Q1986.36 575.098 1984.05 572.321 Q1981.73 569.543 1981.73 564.196 M1992.45 547.876 L1992.45 547.876 Z" fill="#000000" fill-rule="evenodd" fill-opacity="1" /><path clip-path="url(#clip070)" d="M2012.4 539.867 L2017.08 539.867 L2017.08 574.427 L2012.4 574.427 L2012.4 539.867 Z" fill="#000000" fill-rule="evenodd" fill-opacity="1" /><path clip-path="url(#clip070)" d="M2026.38 539.867 L2031.06 539.867 L2031.06 574.427 L2026.38 574.427 L2026.38 539.867 Z" fill="#000000" fill-rule="evenodd" fill-opacity="1" /><path clip-path="url(#clip070)" d="M2051.92 544.474 L2045.57 561.673 L2058.28 561.673 L2051.92 544.474 M2049.28 539.867 L2054.58 539.867 L2067.75 574.427 L2062.89 574.427 L2059.74 565.561 L2044.16 565.561 L2041.01 574.427 L2036.08 574.427 L2049.28 539.867 Z" fill="#000000" fill-rule="evenodd" fill-opacity="1" /><path clip-path="url(#clip070)" d="M2073.26 539.867 L2091.62 539.867 L2091.62 543.802 L2077.54 543.802 L2077.54 552.275 Q2078.56 551.927 2079.58 551.765 Q2080.6 551.58 2081.62 551.58 Q2087.4 551.58 2090.78 554.751 Q2094.16 557.923 2094.16 563.339 Q2094.16 568.918 2090.69 572.02 Q2087.22 575.098 2080.9 575.098 Q2078.72 575.098 2076.45 574.728 Q2074.21 574.358 2071.8 573.617 L2071.8 568.918 Q2073.88 570.052 2076.11 570.608 Q2078.33 571.163 2080.8 571.163 Q2084.81 571.163 2087.15 569.057 Q2089.49 566.95 2089.49 563.339 Q2089.49 559.728 2087.15 557.622 Q2084.81 555.515 2080.8 555.515 Q2078.93 555.515 2077.05 555.932 Q2075.2 556.349 2073.26 557.228 L2073.26 539.867 Z" fill="#000000" fill-rule="evenodd" fill-opacity="1" /><polyline clip-path="url(#clip070)" style="stroke:#8e971d; stroke-linecap:butt; stroke-linejoin:round; stroke-width:4; stroke-opacity:1; fill:none" points="
  1706.25,608.987 1839.98,608.987 
  "/>
<path clip-path="url(#clip070)" d="M1773.11 634.587 L1755.02 627.086 L1747.51 608.987 L1755.02 590.888 L1773.11 583.387 L1791.21 590.888 L1798.71 608.987 L1791.21 627.086 Z" fill="#8e971d" fill-rule="evenodd" fill-opacity="1" stroke="#000000" stroke-opacity="1" stroke-width="4.9152"/>
<path clip-path="url(#clip070)" d="M1862.26 590.249 L1866.52 590.249 L1866.52 626.267 L1862.26 626.267 L1862.26 590.249 Z" fill="#000000" fill-rule="evenodd" fill-opacity="1" /><path clip-path="url(#clip070)" d="M1891.96 601.105 L1891.96 605.133 Q1890.16 604.207 1888.21 603.744 Q1886.27 603.281 1884.19 603.281 Q1881.01 603.281 1879.42 604.253 Q1877.84 605.226 1877.84 607.17 Q1877.84 608.652 1878.98 609.508 Q1880.11 610.341 1883.54 611.105 L1885 611.429 Q1889.53 612.402 1891.43 614.184 Q1893.35 615.943 1893.35 619.114 Q1893.35 622.726 1890.48 624.832 Q1887.63 626.938 1882.63 626.938 Q1880.55 626.938 1878.28 626.522 Q1876.04 626.128 1873.54 625.318 L1873.54 620.92 Q1875.9 622.147 1878.19 622.772 Q1880.48 623.374 1882.73 623.374 Q1885.74 623.374 1887.36 622.355 Q1888.98 621.314 1888.98 619.439 Q1888.98 617.702 1887.8 616.776 Q1886.64 615.851 1882.68 614.994 L1881.2 614.647 Q1877.24 613.814 1875.48 612.101 Q1873.72 610.364 1873.72 607.355 Q1873.72 603.698 1876.32 601.707 Q1878.91 599.716 1883.68 599.716 Q1886.04 599.716 1888.12 600.064 Q1890.2 600.411 1891.96 601.105 Z" fill="#000000" fill-rule="evenodd" fill-opacity="1" /><path clip-path="url(#clip070)" d="M1910.18 603.327 Q1906.75 603.327 1904.76 606.013 Q1902.77 608.675 1902.77 613.327 Q1902.77 617.98 1904.74 620.665 Q1906.73 623.327 1910.18 623.327 Q1913.58 623.327 1915.57 620.642 Q1917.57 617.957 1917.57 613.327 Q1917.57 608.721 1915.57 606.036 Q1913.58 603.327 1910.18 603.327 M1910.18 599.716 Q1915.74 599.716 1918.91 603.327 Q1922.08 606.939 1922.08 613.327 Q1922.08 619.693 1918.91 623.327 Q1915.74 626.938 1910.18 626.938 Q1904.6 626.938 1901.43 623.327 Q1898.28 619.693 1898.28 613.327 Q1898.28 606.939 1901.43 603.327 Q1904.6 599.716 1910.18 599.716 Z" fill="#000000" fill-rule="evenodd" fill-opacity="1" /><path clip-path="url(#clip070)" d="M1946.2 604.277 L1946.2 590.249 L1950.46 590.249 L1950.46 626.267 L1946.2 626.267 L1946.2 622.378 Q1944.86 624.693 1942.8 625.827 Q1940.76 626.938 1937.89 626.938 Q1933.19 626.938 1930.23 623.188 Q1927.29 619.439 1927.29 613.327 Q1927.29 607.216 1930.23 603.466 Q1933.19 599.716 1937.89 599.716 Q1940.76 599.716 1942.8 600.851 Q1944.86 601.962 1946.2 604.277 M1931.69 613.327 Q1931.69 618.026 1933.61 620.712 Q1935.55 623.374 1938.93 623.374 Q1942.31 623.374 1944.25 620.712 Q1946.2 618.026 1946.2 613.327 Q1946.2 608.628 1944.25 605.966 Q1942.31 603.281 1938.93 603.281 Q1935.55 603.281 1933.61 605.966 Q1931.69 608.628 1931.69 613.327 Z" fill="#000000" fill-rule="evenodd" fill-opacity="1" /><path clip-path="url(#clip070)" d="M1971.01 613.235 Q1965.85 613.235 1963.86 614.415 Q1961.87 615.596 1961.87 618.443 Q1961.87 620.712 1963.35 622.054 Q1964.86 623.374 1967.43 623.374 Q1970.97 623.374 1973.1 620.874 Q1975.25 618.351 1975.25 614.184 L1975.25 613.235 L1971.01 613.235 M1979.51 611.476 L1979.51 626.267 L1975.25 626.267 L1975.25 622.332 Q1973.79 624.693 1971.62 625.827 Q1969.44 626.938 1966.29 626.938 Q1962.31 626.938 1959.95 624.716 Q1957.61 622.471 1957.61 618.721 Q1957.61 614.346 1960.53 612.124 Q1963.47 609.902 1969.28 609.902 L1975.25 609.902 L1975.25 609.485 Q1975.25 606.545 1973.31 604.948 Q1971.38 603.327 1967.89 603.327 Q1965.67 603.327 1963.56 603.86 Q1961.45 604.392 1959.51 605.457 L1959.51 601.522 Q1961.85 600.619 1964.05 600.179 Q1966.25 599.716 1968.33 599.716 Q1973.95 599.716 1976.73 602.633 Q1979.51 605.55 1979.51 611.476 Z" fill="#000000" fill-rule="evenodd" fill-opacity="1" /></svg>
