<?xml version="1.0" encoding="utf-8"?>
<svg xmlns="http://www.w3.org/2000/svg" xmlns:xlink="http://www.w3.org/1999/xlink" width="576" height="384" viewBox="0 0 2304 1536">
<defs>
  <clipPath id="clip350">
    <rect x="0" y="0" width="2304" height="1536"/>
  </clipPath>
</defs>
<path clip-path="url(#clip350)" d="
M0 1536 L2304 1536 L2304 0 L0 0  Z
  " fill="#ffffff" fill-rule="evenodd" fill-opacity="1"/>
<defs>
  <clipPath id="clip351">
    <rect x="460" y="0" width="1614" height="1536"/>
  </clipPath>
</defs>
<path clip-path="url(#clip350)" d="
M288.159 1347.54 L2256.76 1347.54 L2256.76 47.2441 L288.159 47.2441  Z
  " fill="#ffffff" fill-rule="evenodd" fill-opacity="1"/>
<defs>
  <clipPath id="clip352">
    <rect x="288" y="47" width="1970" height="1301"/>
  </clipPath>
</defs>
<polyline clip-path="url(#clip352)" style="stroke:#000000; stroke-linecap:butt; stroke-linejoin:round; stroke-width:2; stroke-opacity:0.1; fill:none" points="
  815.256,1347.54 815.256,47.2441 
  "/>
<polyline clip-path="url(#clip352)" style="stroke:#000000; stroke-linecap:butt; stroke-linejoin:round; stroke-width:2; stroke-opacity:0.1; fill:none" points="
  1582.28,1347.54 1582.28,47.2441 
  "/>
<polyline clip-path="url(#clip350)" style="stroke:#000000; stroke-linecap:butt; stroke-linejoin:round; stroke-width:4; stroke-opacity:1; fill:none" points="
  288.159,1347.54 2256.76,1347.54 
  "/>
<polyline clip-path="url(#clip350)" style="stroke:#000000; stroke-linecap:butt; stroke-linejoin:round; stroke-width:4; stroke-opacity:1; fill:none" points="
  815.256,1347.54 815.256,1328.64 
  "/>
<polyline clip-path="url(#clip350)" style="stroke:#000000; stroke-linecap:butt; stroke-linejoin:round; stroke-width:4; stroke-opacity:1; fill:none" points="
  1582.28,1347.54 1582.28,1328.64 
  "/>
<path clip-path="url(#clip350)" d="M764.807 1420.89 L772.446 1420.89 L772.446 1394.53 L764.136 1396.19 L764.136 1391.94 L772.4 1390.27 L777.076 1390.27 L777.076 1420.89 L784.715 1420.89 L784.715 1424.83 L764.807 1424.83 L764.807 1420.89 Z" fill="#000000" fill-rule="evenodd" fill-opacity="1" /><path clip-path="url(#clip350)" d="M804.159 1393.35 Q800.548 1393.35 798.719 1396.91 Q796.914 1400.45 796.914 1407.58 Q796.914 1414.69 798.719 1418.25 Q800.548 1421.8 804.159 1421.8 Q807.793 1421.8 809.599 1418.25 Q811.427 1414.69 811.427 1407.58 Q811.427 1400.45 809.599 1396.91 Q807.793 1393.35 804.159 1393.35 M804.159 1389.64 Q809.969 1389.64 813.025 1394.25 Q816.103 1398.83 816.103 1407.58 Q816.103 1416.31 813.025 1420.92 Q809.969 1425.5 804.159 1425.5 Q798.349 1425.5 795.27 1420.92 Q792.215 1416.31 792.215 1407.58 Q792.215 1398.83 795.27 1394.25 Q798.349 1389.64 804.159 1389.64 Z" fill="#000000" fill-rule="evenodd" fill-opacity="1" /><path clip-path="url(#clip350)" d="M816.103 1383.74 L840.215 1383.74 L840.215 1386.94 L816.103 1386.94 L816.103 1383.74 Z" fill="#000000" fill-rule="evenodd" fill-opacity="1" /><path clip-path="url(#clip350)" d="M857.01 1381.86 Q854.452 1381.86 852.948 1383.61 Q851.462 1385.36 851.462 1388.41 Q851.462 1391.44 852.948 1393.21 Q854.452 1394.95 857.01 1394.95 Q859.568 1394.95 861.054 1393.21 Q862.559 1391.44 862.559 1388.41 Q862.559 1385.36 861.054 1383.61 Q859.568 1381.86 857.01 1381.86 M864.552 1369.96 L864.552 1373.42 Q863.123 1372.74 861.656 1372.39 Q860.208 1372.03 858.778 1372.03 Q855.017 1372.03 853.023 1374.57 Q851.048 1377.11 850.766 1382.24 Q851.876 1380.6 853.55 1379.74 Q855.224 1378.85 857.236 1378.85 Q861.468 1378.85 863.913 1381.43 Q866.377 1383.99 866.377 1388.41 Q866.377 1392.74 863.819 1395.35 Q861.261 1397.96 857.01 1397.96 Q852.139 1397.96 849.562 1394.24 Q846.986 1390.5 846.986 1383.41 Q846.986 1376.75 850.145 1372.8 Q853.305 1368.83 858.628 1368.83 Q860.057 1368.83 861.505 1369.11 Q862.972 1369.39 864.552 1369.96 Z" fill="#000000" fill-rule="evenodd" fill-opacity="1" /><path clip-path="url(#clip350)" d="M1532.16 1420.89 L1539.8 1420.89 L1539.8 1394.53 L1531.49 1396.19 L1531.49 1391.94 L1539.75 1390.27 L1544.43 1390.27 L1544.43 1420.89 L1552.07 1420.89 L1552.07 1424.83 L1532.16 1424.83 L1532.16 1420.89 Z" fill="#000000" fill-rule="evenodd" fill-opacity="1" /><path clip-path="url(#clip350)" d="M1571.51 1393.35 Q1567.9 1393.35 1566.07 1396.91 Q1564.27 1400.45 1564.27 1407.58 Q1564.27 1414.69 1566.07 1418.25 Q1567.9 1421.8 1571.51 1421.8 Q1575.15 1421.8 1576.95 1418.25 Q1578.78 1414.69 1578.78 1407.58 Q1578.78 1400.45 1576.95 1396.91 Q1575.15 1393.35 1571.51 1393.35 M1571.51 1389.64 Q1577.32 1389.64 1580.38 1394.25 Q1583.46 1398.83 1583.46 1407.58 Q1583.46 1416.31 1580.38 1420.92 Q1577.32 1425.5 1571.51 1425.5 Q1565.7 1425.5 1562.62 1420.92 Q1559.57 1416.31 1559.57 1407.58 Q1559.57 1398.83 1562.62 1394.25 Q1565.7 1389.64 1571.51 1389.64 Z" fill="#000000" fill-rule="evenodd" fill-opacity="1" /><path clip-path="url(#clip350)" d="M1583.46 1383.74 L1607.57 1383.74 L1607.57 1386.94 L1583.46 1386.94 L1583.46 1383.74 Z" fill="#000000" fill-rule="evenodd" fill-opacity="1" /><path clip-path="url(#clip350)" d="M1627.28 1382.28 Q1630.01 1382.86 1631.53 1384.7 Q1633.07 1386.55 1633.07 1389.26 Q1633.07 1393.41 1630.21 1395.69 Q1627.35 1397.96 1622.09 1397.96 Q1620.32 1397.96 1618.44 1397.61 Q1616.58 1397.27 1614.58 1396.57 L1614.58 1392.9 Q1616.16 1393.83 1618.04 1394.3 Q1619.93 1394.77 1621.98 1394.77 Q1625.55 1394.77 1627.41 1393.36 Q1629.29 1391.95 1629.29 1389.26 Q1629.29 1386.77 1627.54 1385.38 Q1625.81 1383.97 1622.71 1383.97 L1619.44 1383.97 L1619.44 1380.85 L1622.86 1380.85 Q1625.66 1380.85 1627.15 1379.74 Q1628.63 1378.61 1628.63 1376.5 Q1628.63 1374.34 1627.09 1373.19 Q1625.57 1372.03 1622.71 1372.03 Q1621.15 1372.03 1619.36 1372.37 Q1617.57 1372.7 1615.43 1373.42 L1615.43 1370.03 Q1617.59 1369.43 1619.47 1369.13 Q1621.37 1368.83 1623.05 1368.83 Q1627.37 1368.83 1629.89 1370.81 Q1632.41 1372.76 1632.41 1376.11 Q1632.41 1378.44 1631.08 1380.06 Q1629.74 1381.66 1627.28 1382.28 Z" fill="#000000" fill-rule="evenodd" fill-opacity="1" /><path clip-path="url(#clip350)" d="M1196.21 1461.87 L1226.26 1461.87 L1226.26 1467.28 L1202.64 1467.28 L1202.64 1481.34 L1225.27 1481.34 L1225.27 1486.76 L1202.64 1486.76 L1202.64 1503.97 L1226.83 1503.97 L1226.83 1509.39 L1196.21 1509.39 L1196.21 1461.87 Z" fill="#000000" fill-rule="evenodd" fill-opacity="1" /><path clip-path="url(#clip350)" d="M1257.8 1479.21 Q1256.81 1478.64 1255.64 1478.38 Q1254.49 1478.1 1253.09 1478.1 Q1248.12 1478.1 1245.45 1481.34 Q1242.81 1484.56 1242.81 1490.61 L1242.81 1509.39 L1236.92 1509.39 L1236.92 1473.74 L1242.81 1473.74 L1242.81 1479.28 Q1244.66 1476.03 1247.62 1474.47 Q1250.58 1472.88 1254.81 1472.88 Q1255.41 1472.88 1256.15 1472.97 Q1256.88 1473.04 1257.77 1473.2 L1257.8 1479.21 Z" fill="#000000" fill-rule="evenodd" fill-opacity="1" /><path clip-path="url(#clip350)" d="M1283.45 1479.21 Q1282.47 1478.64 1281.29 1478.38 Q1280.14 1478.1 1278.74 1478.1 Q1273.78 1478.1 1271.1 1481.34 Q1268.46 1484.56 1268.46 1490.61 L1268.46 1509.39 L1262.57 1509.39 L1262.57 1473.74 L1268.46 1473.74 L1268.46 1479.28 Q1270.31 1476.03 1273.27 1474.47 Q1276.23 1472.88 1280.46 1472.88 Q1281.07 1472.88 1281.8 1472.97 Q1282.53 1473.04 1283.42 1473.2 L1283.45 1479.21 Z" fill="#000000" fill-rule="evenodd" fill-opacity="1" /><path clip-path="url(#clip350)" d="M1301.98 1477.84 Q1297.27 1477.84 1294.53 1481.54 Q1291.79 1485.2 1291.79 1491.59 Q1291.79 1497.99 1294.5 1501.68 Q1297.24 1505.34 1301.98 1505.34 Q1306.66 1505.34 1309.39 1501.65 Q1312.13 1497.96 1312.13 1491.59 Q1312.13 1485.26 1309.39 1481.57 Q1306.66 1477.84 1301.98 1477.84 M1301.98 1472.88 Q1309.62 1472.88 1313.98 1477.84 Q1318.34 1482.81 1318.34 1491.59 Q1318.34 1500.35 1313.98 1505.34 Q1309.62 1510.31 1301.98 1510.31 Q1294.31 1510.31 1289.95 1505.34 Q1285.62 1500.35 1285.62 1491.59 Q1285.62 1482.81 1289.95 1477.84 Q1294.31 1472.88 1301.98 1472.88 Z" fill="#000000" fill-rule="evenodd" fill-opacity="1" /><path clip-path="url(#clip350)" d="M1348.7 1479.21 Q1347.72 1478.64 1346.54 1478.38 Q1345.39 1478.1 1343.99 1478.1 Q1339.03 1478.1 1336.35 1481.34 Q1333.71 1484.56 1333.71 1490.61 L1333.71 1509.39 L1327.82 1509.39 L1327.82 1473.74 L1333.71 1473.74 L1333.71 1479.28 Q1335.56 1476.03 1338.52 1474.47 Q1341.48 1472.88 1345.71 1472.88 Q1346.32 1472.88 1347.05 1472.97 Q1347.78 1473.04 1348.67 1473.2 L1348.7 1479.21 Z" fill="#000000" fill-rule="evenodd" fill-opacity="1" /><polyline clip-path="url(#clip352)" style="stroke:#000000; stroke-linecap:butt; stroke-linejoin:round; stroke-width:2; stroke-opacity:0.1; fill:none" points="
  288.159,815.491 2256.76,815.491 
  "/>
<polyline clip-path="url(#clip352)" style="stroke:#000000; stroke-linecap:butt; stroke-linejoin:round; stroke-width:2; stroke-opacity:0.1; fill:none" points="
  288.159,251.953 2256.76,251.953 
  "/>
<polyline clip-path="url(#clip350)" style="stroke:#000000; stroke-linecap:butt; stroke-linejoin:round; stroke-width:4; stroke-opacity:1; fill:none" points="
  288.159,1347.54 288.159,47.2441 
  "/>
<polyline clip-path="url(#clip350)" style="stroke:#000000; stroke-linecap:butt; stroke-linejoin:round; stroke-width:4; stroke-opacity:1; fill:none" points="
  288.159,815.491 307.057,815.491 
  "/>
<polyline clip-path="url(#clip350)" style="stroke:#000000; stroke-linecap:butt; stroke-linejoin:round; stroke-width:4; stroke-opacity:1; fill:none" points="
  288.159,251.953 307.057,251.953 
  "/>
<path clip-path="url(#clip350)" d="M115.411 835.283 L123.05 835.283 L123.05 808.918 L114.74 810.584 L114.74 806.325 L123.004 804.658 L127.68 804.658 L127.68 835.283 L135.319 835.283 L135.319 839.218 L115.411 839.218 L115.411 835.283 Z" fill="#000000" fill-rule="evenodd" fill-opacity="1" /><path clip-path="url(#clip350)" d="M154.763 807.737 Q151.152 807.737 149.323 811.302 Q147.518 814.844 147.518 821.973 Q147.518 829.08 149.323 832.644 Q151.152 836.186 154.763 836.186 Q158.397 836.186 160.203 832.644 Q162.032 829.08 162.032 821.973 Q162.032 814.844 160.203 811.302 Q158.397 807.737 154.763 807.737 M154.763 804.033 Q160.573 804.033 163.629 808.64 Q166.707 813.223 166.707 821.973 Q166.707 830.7 163.629 835.306 Q160.573 839.89 154.763 839.89 Q148.953 839.89 145.874 835.306 Q142.819 830.7 142.819 821.973 Q142.819 813.223 145.874 808.64 Q148.953 804.033 154.763 804.033 Z" fill="#000000" fill-rule="evenodd" fill-opacity="1" /><path clip-path="url(#clip350)" d="M166.707 798.135 L190.819 798.135 L190.819 801.332 L166.707 801.332 L166.707 798.135 Z" fill="#000000" fill-rule="evenodd" fill-opacity="1" /><path clip-path="url(#clip350)" d="M210.53 796.668 Q213.257 797.251 214.78 799.094 Q216.322 800.937 216.322 803.645 Q216.322 807.802 213.464 810.078 Q210.605 812.353 205.339 812.353 Q203.571 812.353 201.69 811.996 Q199.828 811.658 197.834 810.962 L197.834 807.294 Q199.414 808.216 201.295 808.686 Q203.176 809.156 205.226 809.156 Q208.799 809.156 210.661 807.746 Q212.542 806.335 212.542 803.645 Q212.542 801.163 210.793 799.771 Q209.063 798.36 205.959 798.36 L202.687 798.36 L202.687 795.238 L206.11 795.238 Q208.912 795.238 210.398 794.129 Q211.884 793 211.884 790.894 Q211.884 788.731 210.341 787.584 Q208.818 786.418 205.959 786.418 Q204.398 786.418 202.612 786.756 Q200.825 787.095 198.681 787.809 L198.681 784.424 Q200.844 783.822 202.724 783.521 Q204.624 783.22 206.298 783.22 Q210.624 783.22 213.144 785.195 Q215.664 787.151 215.664 790.499 Q215.664 792.831 214.329 794.448 Q212.993 796.047 210.53 796.668 Z" fill="#000000" fill-rule="evenodd" fill-opacity="1" /><path clip-path="url(#clip350)" d="M223.526 807.031 L227.494 807.031 L227.494 811.808 L223.526 811.808 L223.526 807.031 Z" fill="#000000" fill-rule="evenodd" fill-opacity="1" /><path clip-path="url(#clip350)" d="M243.895 786.229 Q240.961 786.229 239.475 789.126 Q238.008 792.003 238.008 797.796 Q238.008 803.57 239.475 806.467 Q240.961 809.344 243.895 809.344 Q246.847 809.344 248.314 806.467 Q249.8 803.57 249.8 797.796 Q249.8 792.003 248.314 789.126 Q246.847 786.229 243.895 786.229 M243.895 783.22 Q248.615 783.22 251.098 786.963 Q253.599 790.687 253.599 797.796 Q253.599 804.887 251.098 808.63 Q248.615 812.353 243.895 812.353 Q239.174 812.353 236.672 808.63 Q234.19 804.887 234.19 797.796 Q234.19 790.687 236.672 786.963 Q239.174 783.22 243.895 783.22 Z" fill="#000000" fill-rule="evenodd" fill-opacity="1" /><path clip-path="url(#clip350)" d="M116.22 271.746 L123.859 271.746 L123.859 245.38 L115.549 247.047 L115.549 242.787 L123.813 241.121 L128.489 241.121 L128.489 271.746 L136.127 271.746 L136.127 275.681 L116.22 275.681 L116.22 271.746 Z" fill="#000000" fill-rule="evenodd" fill-opacity="1" /><path clip-path="url(#clip350)" d="M155.572 244.199 Q151.961 244.199 150.132 247.764 Q148.326 251.306 148.326 258.435 Q148.326 265.542 150.132 269.107 Q151.961 272.648 155.572 272.648 Q159.206 272.648 161.012 269.107 Q162.84 265.542 162.84 258.435 Q162.84 251.306 161.012 247.764 Q159.206 244.199 155.572 244.199 M155.572 240.496 Q161.382 240.496 164.438 245.102 Q167.516 249.685 167.516 258.435 Q167.516 267.162 164.438 271.769 Q161.382 276.352 155.572 276.352 Q149.762 276.352 146.683 271.769 Q143.627 267.162 143.627 258.435 Q143.627 249.685 146.683 245.102 Q149.762 240.496 155.572 240.496 Z" fill="#000000" fill-rule="evenodd" fill-opacity="1" /><path clip-path="url(#clip350)" d="M167.516 234.597 L191.628 234.597 L191.628 237.794 L167.516 237.794 L167.516 234.597 Z" fill="#000000" fill-rule="evenodd" fill-opacity="1" /><path clip-path="url(#clip350)" d="M203.101 245.073 L216.36 245.073 L216.36 248.27 L198.53 248.27 L198.53 245.073 Q200.693 242.835 204.417 239.073 Q208.16 235.293 209.119 234.202 Q210.943 232.152 211.658 230.741 Q212.392 229.312 212.392 227.939 Q212.392 225.701 210.812 224.29 Q209.251 222.88 206.73 222.88 Q204.944 222.88 202.95 223.5 Q200.975 224.121 198.718 225.381 L198.718 221.544 Q201.013 220.623 203.006 220.153 Q205 219.682 206.655 219.682 Q211.019 219.682 213.614 221.864 Q216.21 224.046 216.21 227.695 Q216.21 229.425 215.551 230.986 Q214.912 232.528 213.2 234.635 Q212.73 235.18 210.21 237.794 Q207.69 240.39 203.101 245.073 Z" fill="#000000" fill-rule="evenodd" fill-opacity="1" /><path clip-path="url(#clip350)" d="M224.334 243.493 L228.303 243.493 L228.303 248.27 L224.334 248.27 L224.334 243.493 Z" fill="#000000" fill-rule="evenodd" fill-opacity="1" /><path clip-path="url(#clip350)" d="M236.616 220.19 L251.531 220.19 L251.531 223.388 L240.095 223.388 L240.095 230.271 Q240.923 229.989 241.75 229.857 Q242.578 229.707 243.406 229.707 Q248.107 229.707 250.853 232.284 Q253.599 234.86 253.599 239.261 Q253.599 243.794 250.778 246.314 Q247.957 248.816 242.823 248.816 Q241.055 248.816 239.211 248.515 Q237.387 248.214 235.431 247.612 L235.431 243.794 Q237.124 244.716 238.929 245.167 Q240.735 245.618 242.747 245.618 Q246.001 245.618 247.901 243.907 Q249.8 242.195 249.8 239.261 Q249.8 236.327 247.901 234.616 Q246.001 232.904 242.747 232.904 Q241.224 232.904 239.7 233.243 Q238.196 233.581 236.616 234.296 L236.616 220.19 Z" fill="#000000" fill-rule="evenodd" fill-opacity="1" /><path clip-path="url(#clip350)" d="M18.4042 827.219 L18.4042 787.02 L23.815 787.02 L23.815 803.889 L65.9242 803.889 L65.9242 810.35 L23.815 810.35 L23.815 827.219 L18.4042 827.219 Z" fill="#000000" fill-rule="evenodd" fill-opacity="1" /><path clip-path="url(#clip350)" d="M30.2762 783.073 L30.2762 777.216 L65.9242 777.216 L65.9242 783.073 L30.2762 783.073 M16.399 783.073 L16.399 777.216 L23.815 777.216 L23.815 783.073 L16.399 783.073 Z" fill="#000000" fill-rule="evenodd" fill-opacity="1" /><path clip-path="url(#clip350)" d="M37.1193 737.208 Q33.1726 735.012 31.2947 731.956 Q29.4168 728.901 29.4168 724.763 Q29.4168 719.193 33.3317 716.169 Q37.2148 713.145 44.4081 713.145 L65.9242 713.145 L65.9242 719.034 L44.599 719.034 Q39.4746 719.034 36.992 720.848 Q34.5094 722.662 34.5094 726.386 Q34.5094 730.938 37.5331 733.579 Q40.5568 736.221 45.7767 736.221 L65.9242 736.221 L65.9242 742.109 L44.599 742.109 Q39.4428 742.109 36.992 743.924 Q34.5094 745.738 34.5094 749.526 Q34.5094 754.013 37.5649 756.655 Q40.5886 759.297 45.7767 759.297 L65.9242 759.297 L65.9242 765.185 L30.2762 765.185 L30.2762 759.297 L35.8144 759.297 Q32.536 757.292 30.9764 754.491 Q29.4168 751.69 29.4168 747.839 Q29.4168 743.956 31.3902 741.25 Q33.3636 738.513 37.1193 737.208 Z" fill="#000000" fill-rule="evenodd" fill-opacity="1" /><path clip-path="url(#clip350)" d="M46.6361 670.973 L49.5006 670.973 L49.5006 697.9 Q55.5481 697.518 58.7309 694.271 Q61.8819 690.993 61.8819 685.168 Q61.8819 681.794 61.0544 678.643 Q60.2269 675.461 58.5718 672.341 L64.1099 672.341 Q65.4467 675.492 66.147 678.803 Q66.8472 682.113 66.8472 685.518 Q66.8472 694.048 61.8819 699.045 Q56.9167 704.011 48.4503 704.011 Q39.6974 704.011 34.5731 699.3 Q29.4168 694.558 29.4168 686.537 Q29.4168 679.344 34.0638 675.174 Q38.6789 670.973 46.6361 670.973 M44.9173 676.829 Q40.1112 676.893 37.2466 679.535 Q34.3821 682.145 34.3821 686.473 Q34.3821 691.375 37.1512 694.335 Q39.9202 697.263 44.9492 697.709 L44.9173 676.829 Z" fill="#000000" fill-rule="evenodd" fill-opacity="1" /><path clip-path="url(#clip350)" d="M16.4626 626.572 Q23.7832 630.837 30.9446 632.906 Q38.106 634.975 45.4584 634.975 Q52.8108 634.975 60.0359 632.906 Q67.2291 630.805 74.5179 626.572 L74.5179 631.664 Q67.0382 636.439 59.8131 638.826 Q52.588 641.181 45.4584 641.181 Q38.3606 641.181 31.1674 638.826 Q23.9742 636.471 16.4626 631.664 L16.4626 626.572 Z" fill="#000000" fill-rule="evenodd" fill-opacity="1" /><path clip-path="url(#clip350)" d="M31.3265 592.484 L36.8647 592.484 Q35.5916 594.966 34.955 597.64 Q34.3184 600.313 34.3184 603.178 Q34.3184 607.538 35.6552 609.735 Q36.992 611.899 39.6656 611.899 Q41.7026 611.899 42.8803 610.339 Q44.0261 608.78 45.0765 604.069 L45.5221 602.064 Q46.8589 595.826 49.3097 593.216 Q51.7286 590.574 56.0891 590.574 Q61.0544 590.574 63.9508 594.521 Q66.8472 598.435 66.8472 605.31 Q66.8472 608.175 66.2743 611.294 Q65.7332 614.382 64.6192 617.819 L58.5718 617.819 Q60.2587 614.573 61.118 611.422 Q61.9456 608.27 61.9456 605.183 Q61.9456 601.045 60.5451 598.817 Q59.1129 596.589 56.5347 596.589 Q54.1476 596.589 52.8745 598.213 Q51.6013 599.804 50.4237 605.247 L49.9462 607.284 Q48.8004 612.726 46.4451 615.145 Q44.058 617.564 39.9202 617.564 Q34.8913 617.564 32.1541 614 Q29.4168 610.435 29.4168 603.878 Q29.4168 600.632 29.8943 597.767 Q30.3717 594.902 31.3265 592.484 Z" fill="#000000" fill-rule="evenodd" fill-opacity="1" /><path clip-path="url(#clip350)" d="M16.4626 582.171 L16.4626 577.079 Q23.9742 572.304 31.1674 569.949 Q38.3606 567.562 45.4584 567.562 Q52.588 567.562 59.8131 569.949 Q67.0382 572.304 74.5179 577.079 L74.5179 582.171 Q67.2291 577.938 60.0359 575.869 Q52.8108 573.768 45.4584 573.768 Q38.106 573.768 30.9446 575.869 Q23.7832 577.938 16.4626 582.171 Z" fill="#000000" fill-rule="evenodd" fill-opacity="1" /><polyline clip-path="url(#clip352)" style="stroke:#009af9; stroke-linecap:butt; stroke-linejoin:round; stroke-width:12; stroke-opacity:1; fill:none" points="
  2201.04,1101.74 1879.77,960.627 1600.93,864.83 1341.09,721.894 912.594,750.702 767.864,515.85 779.75,371.416 
  "/>
<line clip-path="url(#clip352)" x1="2201.04" y1="1101.74" x2="2201.04" y2="1085.74" style="stroke:#009af9; stroke-width:3.072; stroke-opacity:1"/>
<line clip-path="url(#clip352)" x1="2201.04" y1="1101.74" x2="2185.04" y2="1101.74" style="stroke:#009af9; stroke-width:3.072; stroke-opacity:1"/>
<line clip-path="url(#clip352)" x1="2201.04" y1="1101.74" x2="2201.04" y2="1117.74" style="stroke:#009af9; stroke-width:3.072; stroke-opacity:1"/>
<line clip-path="url(#clip352)" x1="2201.04" y1="1101.74" x2="2217.04" y2="1101.74" style="stroke:#009af9; stroke-width:3.072; stroke-opacity:1"/>
<line clip-path="url(#clip352)" x1="1879.77" y1="960.627" x2="1879.77" y2="944.627" style="stroke:#009af9; stroke-width:3.072; stroke-opacity:1"/>
<line clip-path="url(#clip352)" x1="1879.77" y1="960.627" x2="1863.77" y2="960.627" style="stroke:#009af9; stroke-width:3.072; stroke-opacity:1"/>
<line clip-path="url(#clip352)" x1="1879.77" y1="960.627" x2="1879.77" y2="976.627" style="stroke:#009af9; stroke-width:3.072; stroke-opacity:1"/>
<line clip-path="url(#clip352)" x1="1879.77" y1="960.627" x2="1895.77" y2="960.627" style="stroke:#009af9; stroke-width:3.072; stroke-opacity:1"/>
<line clip-path="url(#clip352)" x1="1600.93" y1="864.83" x2="1600.93" y2="848.83" style="stroke:#009af9; stroke-width:3.072; stroke-opacity:1"/>
<line clip-path="url(#clip352)" x1="1600.93" y1="864.83" x2="1584.93" y2="864.83" style="stroke:#009af9; stroke-width:3.072; stroke-opacity:1"/>
<line clip-path="url(#clip352)" x1="1600.93" y1="864.83" x2="1600.93" y2="880.83" style="stroke:#009af9; stroke-width:3.072; stroke-opacity:1"/>
<line clip-path="url(#clip352)" x1="1600.93" y1="864.83" x2="1616.93" y2="864.83" style="stroke:#009af9; stroke-width:3.072; stroke-opacity:1"/>
<line clip-path="url(#clip352)" x1="1341.09" y1="721.894" x2="1341.09" y2="705.894" style="stroke:#009af9; stroke-width:3.072; stroke-opacity:1"/>
<line clip-path="url(#clip352)" x1="1341.09" y1="721.894" x2="1325.09" y2="721.894" style="stroke:#009af9; stroke-width:3.072; stroke-opacity:1"/>
<line clip-path="url(#clip352)" x1="1341.09" y1="721.894" x2="1341.09" y2="737.894" style="stroke:#009af9; stroke-width:3.072; stroke-opacity:1"/>
<line clip-path="url(#clip352)" x1="1341.09" y1="721.894" x2="1357.09" y2="721.894" style="stroke:#009af9; stroke-width:3.072; stroke-opacity:1"/>
<line clip-path="url(#clip352)" x1="912.594" y1="750.702" x2="912.594" y2="734.702" style="stroke:#009af9; stroke-width:3.072; stroke-opacity:1"/>
<line clip-path="url(#clip352)" x1="912.594" y1="750.702" x2="896.594" y2="750.702" style="stroke:#009af9; stroke-width:3.072; stroke-opacity:1"/>
<line clip-path="url(#clip352)" x1="912.594" y1="750.702" x2="912.594" y2="766.702" style="stroke:#009af9; stroke-width:3.072; stroke-opacity:1"/>
<line clip-path="url(#clip352)" x1="912.594" y1="750.702" x2="928.594" y2="750.702" style="stroke:#009af9; stroke-width:3.072; stroke-opacity:1"/>
<line clip-path="url(#clip352)" x1="767.864" y1="515.85" x2="767.864" y2="499.85" style="stroke:#009af9; stroke-width:3.072; stroke-opacity:1"/>
<line clip-path="url(#clip352)" x1="767.864" y1="515.85" x2="751.864" y2="515.85" style="stroke:#009af9; stroke-width:3.072; stroke-opacity:1"/>
<line clip-path="url(#clip352)" x1="767.864" y1="515.85" x2="767.864" y2="531.85" style="stroke:#009af9; stroke-width:3.072; stroke-opacity:1"/>
<line clip-path="url(#clip352)" x1="767.864" y1="515.85" x2="783.864" y2="515.85" style="stroke:#009af9; stroke-width:3.072; stroke-opacity:1"/>
<line clip-path="url(#clip352)" x1="779.75" y1="371.416" x2="779.75" y2="355.416" style="stroke:#009af9; stroke-width:3.072; stroke-opacity:1"/>
<line clip-path="url(#clip352)" x1="779.75" y1="371.416" x2="763.75" y2="371.416" style="stroke:#009af9; stroke-width:3.072; stroke-opacity:1"/>
<line clip-path="url(#clip352)" x1="779.75" y1="371.416" x2="779.75" y2="387.416" style="stroke:#009af9; stroke-width:3.072; stroke-opacity:1"/>
<line clip-path="url(#clip352)" x1="779.75" y1="371.416" x2="795.75" y2="371.416" style="stroke:#009af9; stroke-width:3.072; stroke-opacity:1"/>
<polyline clip-path="url(#clip352)" style="stroke:#e26f46; stroke-linecap:butt; stroke-linejoin:round; stroke-width:12; stroke-opacity:1; fill:none" points="
  2105.69,1088.66 1720.56,913.982 1442.99,721.555 1250.66,635.736 909.133,404.933 793.146,452.273 819.233,406.062 
  "/>
<circle clip-path="url(#clip352)" cx="2105.69" cy="1088.66" r="14" fill="#e26f46" fill-rule="evenodd" fill-opacity="1" stroke="#000000" stroke-opacity="1" stroke-width="3.072"/>
<circle clip-path="url(#clip352)" cx="1720.56" cy="913.982" r="14" fill="#e26f46" fill-rule="evenodd" fill-opacity="1" stroke="#000000" stroke-opacity="1" stroke-width="3.072"/>
<circle clip-path="url(#clip352)" cx="1442.99" cy="721.555" r="14" fill="#e26f46" fill-rule="evenodd" fill-opacity="1" stroke="#000000" stroke-opacity="1" stroke-width="3.072"/>
<circle clip-path="url(#clip352)" cx="1250.66" cy="635.736" r="14" fill="#e26f46" fill-rule="evenodd" fill-opacity="1" stroke="#000000" stroke-opacity="1" stroke-width="3.072"/>
<circle clip-path="url(#clip352)" cx="909.133" cy="404.933" r="14" fill="#e26f46" fill-rule="evenodd" fill-opacity="1" stroke="#000000" stroke-opacity="1" stroke-width="3.072"/>
<circle clip-path="url(#clip352)" cx="793.146" cy="452.273" r="14" fill="#e26f46" fill-rule="evenodd" fill-opacity="1" stroke="#000000" stroke-opacity="1" stroke-width="3.072"/>
<circle clip-path="url(#clip352)" cx="819.233" cy="406.062" r="14" fill="#e26f46" fill-rule="evenodd" fill-opacity="1" stroke="#000000" stroke-opacity="1" stroke-width="3.072"/>
<polyline clip-path="url(#clip352)" style="stroke:#3da44d; stroke-linecap:butt; stroke-linejoin:round; stroke-width:12; stroke-opacity:1; fill:none" points="
  2149.08,1310.74 1817.17,1246.8 1766.49,1082.37 1090.01,908.287 896.479,667.299 682.445,435.562 343.874,84.0448 
  "/>
<line clip-path="url(#clip352)" x1="2149.08" y1="1310.74" x2="2149.08" y2="1294.74" style="stroke:#3da44d; stroke-width:3.072; stroke-opacity:1"/>
<line clip-path="url(#clip352)" x1="2149.08" y1="1310.74" x2="2133.08" y2="1310.74" style="stroke:#3da44d; stroke-width:3.072; stroke-opacity:1"/>
<line clip-path="url(#clip352)" x1="2149.08" y1="1310.74" x2="2149.08" y2="1326.74" style="stroke:#3da44d; stroke-width:3.072; stroke-opacity:1"/>
<line clip-path="url(#clip352)" x1="2149.08" y1="1310.74" x2="2165.08" y2="1310.74" style="stroke:#3da44d; stroke-width:3.072; stroke-opacity:1"/>
<line clip-path="url(#clip352)" x1="1817.17" y1="1246.8" x2="1817.17" y2="1230.8" style="stroke:#3da44d; stroke-width:3.072; stroke-opacity:1"/>
<line clip-path="url(#clip352)" x1="1817.17" y1="1246.8" x2="1801.17" y2="1246.8" style="stroke:#3da44d; stroke-width:3.072; stroke-opacity:1"/>
<line clip-path="url(#clip352)" x1="1817.17" y1="1246.8" x2="1817.17" y2="1262.8" style="stroke:#3da44d; stroke-width:3.072; stroke-opacity:1"/>
<line clip-path="url(#clip352)" x1="1817.17" y1="1246.8" x2="1833.17" y2="1246.8" style="stroke:#3da44d; stroke-width:3.072; stroke-opacity:1"/>
<line clip-path="url(#clip352)" x1="1766.49" y1="1082.37" x2="1766.49" y2="1066.37" style="stroke:#3da44d; stroke-width:3.072; stroke-opacity:1"/>
<line clip-path="url(#clip352)" x1="1766.49" y1="1082.37" x2="1750.49" y2="1082.37" style="stroke:#3da44d; stroke-width:3.072; stroke-opacity:1"/>
<line clip-path="url(#clip352)" x1="1766.49" y1="1082.37" x2="1766.49" y2="1098.37" style="stroke:#3da44d; stroke-width:3.072; stroke-opacity:1"/>
<line clip-path="url(#clip352)" x1="1766.49" y1="1082.37" x2="1782.49" y2="1082.37" style="stroke:#3da44d; stroke-width:3.072; stroke-opacity:1"/>
<line clip-path="url(#clip352)" x1="1090.01" y1="908.287" x2="1090.01" y2="892.287" style="stroke:#3da44d; stroke-width:3.072; stroke-opacity:1"/>
<line clip-path="url(#clip352)" x1="1090.01" y1="908.287" x2="1074.01" y2="908.287" style="stroke:#3da44d; stroke-width:3.072; stroke-opacity:1"/>
<line clip-path="url(#clip352)" x1="1090.01" y1="908.287" x2="1090.01" y2="924.287" style="stroke:#3da44d; stroke-width:3.072; stroke-opacity:1"/>
<line clip-path="url(#clip352)" x1="1090.01" y1="908.287" x2="1106.01" y2="908.287" style="stroke:#3da44d; stroke-width:3.072; stroke-opacity:1"/>
<line clip-path="url(#clip352)" x1="896.479" y1="667.299" x2="896.479" y2="651.299" style="stroke:#3da44d; stroke-width:3.072; stroke-opacity:1"/>
<line clip-path="url(#clip352)" x1="896.479" y1="667.299" x2="880.479" y2="667.299" style="stroke:#3da44d; stroke-width:3.072; stroke-opacity:1"/>
<line clip-path="url(#clip352)" x1="896.479" y1="667.299" x2="896.479" y2="683.299" style="stroke:#3da44d; stroke-width:3.072; stroke-opacity:1"/>
<line clip-path="url(#clip352)" x1="896.479" y1="667.299" x2="912.479" y2="667.299" style="stroke:#3da44d; stroke-width:3.072; stroke-opacity:1"/>
<line clip-path="url(#clip352)" x1="682.445" y1="435.562" x2="682.445" y2="419.562" style="stroke:#3da44d; stroke-width:3.072; stroke-opacity:1"/>
<line clip-path="url(#clip352)" x1="682.445" y1="435.562" x2="666.445" y2="435.562" style="stroke:#3da44d; stroke-width:3.072; stroke-opacity:1"/>
<line clip-path="url(#clip352)" x1="682.445" y1="435.562" x2="682.445" y2="451.562" style="stroke:#3da44d; stroke-width:3.072; stroke-opacity:1"/>
<line clip-path="url(#clip352)" x1="682.445" y1="435.562" x2="698.445" y2="435.562" style="stroke:#3da44d; stroke-width:3.072; stroke-opacity:1"/>
<line clip-path="url(#clip352)" x1="343.874" y1="84.0448" x2="343.874" y2="68.0448" style="stroke:#3da44d; stroke-width:3.072; stroke-opacity:1"/>
<line clip-path="url(#clip352)" x1="343.874" y1="84.0448" x2="327.874" y2="84.0448" style="stroke:#3da44d; stroke-width:3.072; stroke-opacity:1"/>
<line clip-path="url(#clip352)" x1="343.874" y1="84.0448" x2="343.874" y2="100.045" style="stroke:#3da44d; stroke-width:3.072; stroke-opacity:1"/>
<line clip-path="url(#clip352)" x1="343.874" y1="84.0448" x2="359.874" y2="84.0448" style="stroke:#3da44d; stroke-width:3.072; stroke-opacity:1"/>
<path clip-path="url(#clip350)" d="
M1095.86 297.947 L2191.14 297.947 L2191.14 90.5872 L1095.86 90.5872  Z
  " fill="#ffffff" fill-rule="evenodd" fill-opacity="1"/>
<polyline clip-path="url(#clip350)" style="stroke:#000000; stroke-linecap:butt; stroke-linejoin:round; stroke-width:4; stroke-opacity:1; fill:none" points="
  1095.86,297.947 2191.14,297.947 2191.14,90.5872 1095.86,90.5872 1095.86,297.947 
  "/>
<polyline clip-path="url(#clip350)" style="stroke:#009af9; stroke-linecap:butt; stroke-linejoin:round; stroke-width:4; stroke-opacity:1; fill:none" points="
  1117.73,142.427 1248.97,142.427 
  "/>
<line clip-path="url(#clip350)" x1="1183.35" y1="142.427" x2="1183.35" y2="116.827" style="stroke:#009af9; stroke-width:4.9152; stroke-opacity:1"/>
<line clip-path="url(#clip350)" x1="1183.35" y1="142.427" x2="1157.75" y2="142.427" style="stroke:#009af9; stroke-width:4.9152; stroke-opacity:1"/>
<line clip-path="url(#clip350)" x1="1183.35" y1="142.427" x2="1183.35" y2="168.027" style="stroke:#009af9; stroke-width:4.9152; stroke-opacity:1"/>
<line clip-path="url(#clip350)" x1="1183.35" y1="142.427" x2="1208.95" y2="142.427" style="stroke:#009af9; stroke-width:4.9152; stroke-opacity:1"/>
<path clip-path="url(#clip350)" d="M1270.84 125.147 L1275.52 125.147 L1275.52 159.707 L1270.84 159.707 L1270.84 125.147 Z" fill="#000000" fill-rule="evenodd" fill-opacity="1" /><path clip-path="url(#clip350)" d="M1304.82 138.758 Q1306.42 135.888 1308.64 134.522 Q1310.87 133.156 1313.88 133.156 Q1317.93 133.156 1320.13 136.004 Q1322.32 138.828 1322.32 144.059 L1322.32 159.707 L1318.04 159.707 L1318.04 144.198 Q1318.04 140.471 1316.72 138.666 Q1315.4 136.86 1312.69 136.86 Q1309.38 136.86 1307.46 139.059 Q1305.54 141.258 1305.54 145.054 L1305.54 159.707 L1301.26 159.707 L1301.26 144.198 Q1301.26 140.448 1299.94 138.666 Q1298.62 136.86 1295.87 136.86 Q1292.6 136.86 1290.68 139.082 Q1288.76 141.281 1288.76 145.054 L1288.76 159.707 L1284.48 159.707 L1284.48 133.781 L1288.76 133.781 L1288.76 137.809 Q1290.22 135.425 1292.26 134.291 Q1294.29 133.156 1297.09 133.156 Q1299.92 133.156 1301.88 134.592 Q1303.88 136.027 1304.82 138.758 Z" fill="#000000" fill-rule="evenodd" fill-opacity="1" /><path clip-path="url(#clip350)" d="M1334.94 155.818 L1334.94 169.568 L1330.66 169.568 L1330.66 133.781 L1334.94 133.781 L1334.94 137.717 Q1336.28 135.402 1338.32 134.291 Q1340.38 133.156 1343.23 133.156 Q1347.95 133.156 1350.89 136.906 Q1353.85 140.656 1353.85 146.767 Q1353.85 152.879 1350.89 156.628 Q1347.95 160.378 1343.23 160.378 Q1340.38 160.378 1338.32 159.267 Q1336.28 158.133 1334.94 155.818 M1349.43 146.767 Q1349.43 142.068 1347.49 139.406 Q1345.57 136.721 1342.19 136.721 Q1338.81 136.721 1336.86 139.406 Q1334.94 142.068 1334.94 146.767 Q1334.94 151.466 1336.86 154.152 Q1338.81 156.814 1342.19 156.814 Q1345.57 156.814 1347.49 154.152 Q1349.43 151.466 1349.43 146.767 Z" fill="#000000" fill-rule="evenodd" fill-opacity="1" /><path clip-path="url(#clip350)" d="M1360.91 123.689 L1365.17 123.689 L1365.17 159.707 L1360.91 159.707 L1360.91 123.689 Z" fill="#000000" fill-rule="evenodd" fill-opacity="1" /><path clip-path="url(#clip350)" d="M1374.08 133.781 L1378.34 133.781 L1378.34 159.707 L1374.08 159.707 L1374.08 133.781 M1374.08 123.689 L1378.34 123.689 L1378.34 129.082 L1374.08 129.082 L1374.08 123.689 Z" fill="#000000" fill-rule="evenodd" fill-opacity="1" /><path clip-path="url(#clip350)" d="M1405.91 134.777 L1405.91 138.758 Q1404.11 137.763 1402.28 137.277 Q1400.47 136.767 1398.62 136.767 Q1394.48 136.767 1392.19 139.406 Q1389.89 142.022 1389.89 146.767 Q1389.89 151.513 1392.19 154.152 Q1394.48 156.767 1398.62 156.767 Q1400.47 156.767 1402.28 156.281 Q1404.11 155.772 1405.91 154.777 L1405.91 158.712 Q1404.13 159.545 1402.21 159.962 Q1400.31 160.378 1398.16 160.378 Q1392.3 160.378 1388.85 156.698 Q1385.4 153.017 1385.4 146.767 Q1385.4 140.425 1388.87 136.791 Q1392.37 133.156 1398.44 133.156 Q1400.4 133.156 1402.28 133.573 Q1404.15 133.967 1405.91 134.777 Z" fill="#000000" fill-rule="evenodd" fill-opacity="1" /><path clip-path="url(#clip350)" d="M1413.32 133.781 L1417.58 133.781 L1417.58 159.707 L1413.32 159.707 L1413.32 133.781 M1413.32 123.689 L1417.58 123.689 L1417.58 129.082 L1413.32 129.082 L1413.32 123.689 Z" fill="#000000" fill-rule="evenodd" fill-opacity="1" /><path clip-path="url(#clip350)" d="M1430.7 126.42 L1430.7 133.781 L1439.48 133.781 L1439.48 137.092 L1430.7 137.092 L1430.7 151.166 Q1430.7 154.337 1431.56 155.24 Q1432.44 156.142 1435.1 156.142 L1439.48 156.142 L1439.48 159.707 L1435.1 159.707 Q1430.17 159.707 1428.3 157.878 Q1426.42 156.027 1426.42 151.166 L1426.42 137.092 L1423.3 137.092 L1423.3 133.781 L1426.42 133.781 L1426.42 126.42 L1430.7 126.42 Z" fill="#000000" fill-rule="evenodd" fill-opacity="1" /><path clip-path="url(#clip350)" d="M1445.26 125.147 L1467.12 125.147 L1467.12 129.082 L1449.94 129.082 L1449.94 139.314 L1466.4 139.314 L1466.4 143.249 L1449.94 143.249 L1449.94 155.772 L1467.53 155.772 L1467.53 159.707 L1445.26 159.707 L1445.26 125.147 Z" fill="#000000" fill-rule="evenodd" fill-opacity="1" /><path clip-path="url(#clip350)" d="M1474.59 149.476 L1474.59 133.781 L1478.85 133.781 L1478.85 149.314 Q1478.85 152.994 1480.29 154.846 Q1481.72 156.675 1484.59 156.675 Q1488.04 156.675 1490.03 154.476 Q1492.05 152.277 1492.05 148.48 L1492.05 133.781 L1496.3 133.781 L1496.3 159.707 L1492.05 159.707 L1492.05 155.726 Q1490.49 158.087 1488.43 159.244 Q1486.4 160.378 1483.69 160.378 Q1479.22 160.378 1476.91 157.601 Q1474.59 154.823 1474.59 149.476 M1485.31 133.156 L1485.31 133.156 Z" fill="#000000" fill-rule="evenodd" fill-opacity="1" /><path clip-path="url(#clip350)" d="M1505.08 123.689 L1509.34 123.689 L1509.34 159.707 L1505.08 159.707 L1505.08 123.689 Z" fill="#000000" fill-rule="evenodd" fill-opacity="1" /><path clip-path="url(#clip350)" d="M1540.43 145.679 L1540.43 147.763 L1520.84 147.763 Q1521.12 152.161 1523.48 154.476 Q1525.86 156.767 1530.1 156.767 Q1532.55 156.767 1534.85 156.166 Q1537.16 155.564 1539.43 154.36 L1539.43 158.388 Q1537.14 159.36 1534.73 159.869 Q1532.32 160.378 1529.85 160.378 Q1523.64 160.378 1520.01 156.767 Q1516.4 153.156 1516.4 146.999 Q1516.4 140.633 1519.82 136.906 Q1523.27 133.156 1529.11 133.156 Q1534.34 133.156 1537.37 136.536 Q1540.43 139.892 1540.43 145.679 M1536.17 144.429 Q1536.12 140.934 1534.2 138.851 Q1532.3 136.767 1529.15 136.767 Q1525.59 136.767 1523.43 138.781 Q1521.3 140.795 1520.98 144.453 L1536.17 144.429 Z" fill="#000000" fill-rule="evenodd" fill-opacity="1" /><path clip-path="url(#clip350)" d="M1562.44 137.763 Q1561.72 137.346 1560.86 137.161 Q1560.03 136.953 1559.01 136.953 Q1555.4 136.953 1553.46 139.314 Q1551.54 141.652 1551.54 146.05 L1551.54 159.707 L1547.25 159.707 L1547.25 133.781 L1551.54 133.781 L1551.54 137.809 Q1552.88 135.448 1555.03 134.314 Q1557.18 133.156 1560.26 133.156 Q1560.7 133.156 1561.24 133.226 Q1561.77 133.272 1562.42 133.388 L1562.44 137.763 Z" fill="#000000" fill-rule="evenodd" fill-opacity="1" /><path clip-path="url(#clip350)" d="M1567.09 125.147 L1588.94 125.147 L1588.94 129.082 L1571.77 129.082 L1571.77 139.314 L1588.23 139.314 L1588.23 143.249 L1571.77 143.249 L1571.77 155.772 L1589.36 155.772 L1589.36 159.707 L1567.09 159.707 L1567.09 125.147 Z" fill="#000000" fill-rule="evenodd" fill-opacity="1" /><path clip-path="url(#clip350)" d="M1618.41 133.781 L1609.04 146.397 L1618.9 159.707 L1613.87 159.707 L1606.33 149.522 L1598.78 159.707 L1593.76 159.707 L1603.83 146.142 L1594.61 133.781 L1599.64 133.781 L1606.51 143.017 L1613.39 133.781 L1618.41 133.781 Z" fill="#000000" fill-rule="evenodd" fill-opacity="1" /><path clip-path="url(#clip350)" d="M1629.13 126.42 L1629.13 133.781 L1637.9 133.781 L1637.9 137.092 L1629.13 137.092 L1629.13 151.166 Q1629.13 154.337 1629.98 155.24 Q1630.86 156.142 1633.53 156.142 L1637.9 156.142 L1637.9 159.707 L1633.53 159.707 Q1628.6 159.707 1626.72 157.878 Q1624.85 156.027 1624.85 151.166 L1624.85 137.092 L1621.72 137.092 L1621.72 133.781 L1624.85 133.781 L1624.85 126.42 L1629.13 126.42 Z" fill="#000000" fill-rule="evenodd" fill-opacity="1" /><path clip-path="url(#clip350)" d="M1658.53 137.763 Q1657.81 137.346 1656.95 137.161 Q1656.12 136.953 1655.1 136.953 Q1651.49 136.953 1649.54 139.314 Q1647.62 141.652 1647.62 146.05 L1647.62 159.707 L1643.34 159.707 L1643.34 133.781 L1647.62 133.781 L1647.62 137.809 Q1648.97 135.448 1651.12 134.314 Q1653.27 133.156 1656.35 133.156 Q1656.79 133.156 1657.32 133.226 Q1657.86 133.272 1658.5 133.388 L1658.53 137.763 Z" fill="#000000" fill-rule="evenodd" fill-opacity="1" /><path clip-path="url(#clip350)" d="M1674.78 146.675 Q1669.61 146.675 1667.62 147.855 Q1665.63 149.036 1665.63 151.883 Q1665.63 154.152 1667.11 155.494 Q1668.62 156.814 1671.19 156.814 Q1674.73 156.814 1676.86 154.314 Q1679.01 151.791 1679.01 147.624 L1679.01 146.675 L1674.78 146.675 M1683.27 144.916 L1683.27 159.707 L1679.01 159.707 L1679.01 155.772 Q1677.55 158.133 1675.38 159.267 Q1673.2 160.378 1670.05 160.378 Q1666.07 160.378 1663.71 158.156 Q1661.37 155.911 1661.37 152.161 Q1661.37 147.786 1664.29 145.564 Q1667.23 143.342 1673.04 143.342 L1679.01 143.342 L1679.01 142.925 Q1679.01 139.985 1677.07 138.388 Q1675.15 136.767 1671.65 136.767 Q1669.43 136.767 1667.32 137.3 Q1665.22 137.832 1663.27 138.897 L1663.27 134.962 Q1665.61 134.059 1667.81 133.619 Q1670.01 133.156 1672.09 133.156 Q1677.72 133.156 1680.49 136.073 Q1683.27 138.99 1683.27 144.916 Z" fill="#000000" fill-rule="evenodd" fill-opacity="1" /><path clip-path="url(#clip350)" d="M1696.16 155.818 L1696.16 169.568 L1691.88 169.568 L1691.88 133.781 L1696.16 133.781 L1696.16 137.717 Q1697.51 135.402 1699.54 134.291 Q1701.6 133.156 1704.45 133.156 Q1709.17 133.156 1712.11 136.906 Q1715.08 140.656 1715.08 146.767 Q1715.08 152.879 1712.11 156.628 Q1709.17 160.378 1704.45 160.378 Q1701.6 160.378 1699.54 159.267 Q1697.51 158.133 1696.16 155.818 M1710.66 146.767 Q1710.66 142.068 1708.71 139.406 Q1706.79 136.721 1703.41 136.721 Q1700.03 136.721 1698.09 139.406 Q1696.16 142.068 1696.16 146.767 Q1696.16 151.466 1698.09 154.152 Q1700.03 156.814 1703.41 156.814 Q1706.79 156.814 1708.71 154.152 Q1710.66 151.466 1710.66 146.767 Z" fill="#000000" fill-rule="evenodd" fill-opacity="1" /><path clip-path="url(#clip350)" d="M1732.18 136.767 Q1728.76 136.767 1726.77 139.453 Q1724.78 142.115 1724.78 146.767 Q1724.78 151.42 1726.74 154.105 Q1728.73 156.767 1732.18 156.767 Q1735.59 156.767 1737.58 154.082 Q1739.57 151.397 1739.57 146.767 Q1739.57 142.161 1737.58 139.476 Q1735.59 136.767 1732.18 136.767 M1732.18 133.156 Q1737.74 133.156 1740.91 136.767 Q1744.08 140.379 1744.08 146.767 Q1744.08 153.133 1740.91 156.767 Q1737.74 160.378 1732.18 160.378 Q1726.6 160.378 1723.43 156.767 Q1720.29 153.133 1720.29 146.767 Q1720.29 140.379 1723.43 136.767 Q1726.6 133.156 1732.18 133.156 Z" fill="#000000" fill-rule="evenodd" fill-opacity="1" /><path clip-path="url(#clip350)" d="M1751.14 123.689 L1755.4 123.689 L1755.4 159.707 L1751.14 159.707 L1751.14 123.689 Z" fill="#000000" fill-rule="evenodd" fill-opacity="1" /><path clip-path="url(#clip350)" d="M1776.1 146.675 Q1770.93 146.675 1768.94 147.855 Q1766.95 149.036 1766.95 151.883 Q1766.95 154.152 1768.43 155.494 Q1769.94 156.814 1772.51 156.814 Q1776.05 156.814 1778.18 154.314 Q1780.33 151.791 1780.33 147.624 L1780.33 146.675 L1776.1 146.675 M1784.59 144.916 L1784.59 159.707 L1780.33 159.707 L1780.33 155.772 Q1778.87 158.133 1776.7 159.267 Q1774.52 160.378 1771.37 160.378 Q1767.39 160.378 1765.03 158.156 Q1762.69 155.911 1762.69 152.161 Q1762.69 147.786 1765.61 145.564 Q1768.55 143.342 1774.36 143.342 L1780.33 143.342 L1780.33 142.925 Q1780.33 139.985 1778.39 138.388 Q1776.47 136.767 1772.97 136.767 Q1770.75 136.767 1768.64 137.3 Q1766.53 137.832 1764.59 138.897 L1764.59 134.962 Q1766.93 134.059 1769.13 133.619 Q1771.33 133.156 1773.41 133.156 Q1779.03 133.156 1781.81 136.073 Q1784.59 138.99 1784.59 144.916 Z" fill="#000000" fill-rule="evenodd" fill-opacity="1" /><path clip-path="url(#clip350)" d="M1797.58 126.42 L1797.58 133.781 L1806.35 133.781 L1806.35 137.092 L1797.58 137.092 L1797.58 151.166 Q1797.58 154.337 1798.43 155.24 Q1799.31 156.142 1801.97 156.142 L1806.35 156.142 L1806.35 159.707 L1801.97 159.707 Q1797.04 159.707 1795.17 157.878 Q1793.29 156.027 1793.29 151.166 L1793.29 137.092 L1790.17 137.092 L1790.17 133.781 L1793.29 133.781 L1793.29 126.42 L1797.58 126.42 Z" fill="#000000" fill-rule="evenodd" fill-opacity="1" /><path clip-path="url(#clip350)" d="M1811.95 133.781 L1816.21 133.781 L1816.21 159.707 L1811.95 159.707 L1811.95 133.781 M1811.95 123.689 L1816.21 123.689 L1816.21 129.082 L1811.95 129.082 L1811.95 123.689 Z" fill="#000000" fill-rule="evenodd" fill-opacity="1" /><path clip-path="url(#clip350)" d="M1835.17 136.767 Q1831.74 136.767 1829.75 139.453 Q1827.76 142.115 1827.76 146.767 Q1827.76 151.42 1829.73 154.105 Q1831.72 156.767 1835.17 156.767 Q1838.57 156.767 1840.56 154.082 Q1842.55 151.397 1842.55 146.767 Q1842.55 142.161 1840.56 139.476 Q1838.57 136.767 1835.17 136.767 M1835.17 133.156 Q1840.72 133.156 1843.9 136.767 Q1847.07 140.379 1847.07 146.767 Q1847.07 153.133 1843.9 156.767 Q1840.72 160.378 1835.17 160.378 Q1829.59 160.378 1826.42 156.767 Q1823.27 153.133 1823.27 146.767 Q1823.27 140.379 1826.42 136.767 Q1829.59 133.156 1835.17 133.156 Z" fill="#000000" fill-rule="evenodd" fill-opacity="1" /><path clip-path="url(#clip350)" d="M1875.68 144.059 L1875.68 159.707 L1871.42 159.707 L1871.42 144.198 Q1871.42 140.517 1869.98 138.689 Q1868.55 136.86 1865.68 136.86 Q1862.23 136.86 1860.24 139.059 Q1858.25 141.258 1858.25 145.054 L1858.25 159.707 L1853.97 159.707 L1853.97 133.781 L1858.25 133.781 L1858.25 137.809 Q1859.78 135.471 1861.84 134.314 Q1863.92 133.156 1866.63 133.156 Q1871.09 133.156 1873.39 135.934 Q1875.68 138.689 1875.68 144.059 Z" fill="#000000" fill-rule="evenodd" fill-opacity="1" /><polyline clip-path="url(#clip350)" style="stroke:#e26f46; stroke-linecap:butt; stroke-linejoin:round; stroke-width:4; stroke-opacity:1; fill:none" points="
  1117.73,194.267 1248.97,194.267 
  "/>
<circle clip-path="url(#clip350)" cx="1183.35" cy="194.267" r="23" fill="#e26f46" fill-rule="evenodd" fill-opacity="1" stroke="#000000" stroke-opacity="1" stroke-width="4.9152"/>
<path clip-path="url(#clip350)" d="M1270.84 176.987 L1275.52 176.987 L1275.52 211.547 L1270.84 211.547 L1270.84 176.987 Z" fill="#000000" fill-rule="evenodd" fill-opacity="1" /><path clip-path="url(#clip350)" d="M1304.82 190.598 Q1306.42 187.728 1308.64 186.362 Q1310.87 184.996 1313.88 184.996 Q1317.93 184.996 1320.13 187.844 Q1322.32 190.668 1322.32 195.899 L1322.32 211.547 L1318.04 211.547 L1318.04 196.038 Q1318.04 192.311 1316.72 190.506 Q1315.4 188.7 1312.69 188.7 Q1309.38 188.7 1307.46 190.899 Q1305.54 193.098 1305.54 196.894 L1305.54 211.547 L1301.26 211.547 L1301.26 196.038 Q1301.26 192.288 1299.94 190.506 Q1298.62 188.7 1295.87 188.7 Q1292.6 188.7 1290.68 190.922 Q1288.76 193.121 1288.76 196.894 L1288.76 211.547 L1284.48 211.547 L1284.48 185.621 L1288.76 185.621 L1288.76 189.649 Q1290.22 187.265 1292.26 186.131 Q1294.29 184.996 1297.09 184.996 Q1299.92 184.996 1301.88 186.432 Q1303.88 187.867 1304.82 190.598 Z" fill="#000000" fill-rule="evenodd" fill-opacity="1" /><path clip-path="url(#clip350)" d="M1334.94 207.658 L1334.94 221.408 L1330.66 221.408 L1330.66 185.621 L1334.94 185.621 L1334.94 189.557 Q1336.28 187.242 1338.32 186.131 Q1340.38 184.996 1343.23 184.996 Q1347.95 184.996 1350.89 188.746 Q1353.85 192.496 1353.85 198.607 Q1353.85 204.719 1350.89 208.468 Q1347.95 212.218 1343.23 212.218 Q1340.38 212.218 1338.32 211.107 Q1336.28 209.973 1334.94 207.658 M1349.43 198.607 Q1349.43 193.908 1347.49 191.246 Q1345.57 188.561 1342.19 188.561 Q1338.81 188.561 1336.86 191.246 Q1334.94 193.908 1334.94 198.607 Q1334.94 203.306 1336.86 205.992 Q1338.81 208.654 1342.19 208.654 Q1345.57 208.654 1347.49 205.992 Q1349.43 203.306 1349.43 198.607 Z" fill="#000000" fill-rule="evenodd" fill-opacity="1" /><path clip-path="url(#clip350)" d="M1360.91 175.529 L1365.17 175.529 L1365.17 211.547 L1360.91 211.547 L1360.91 175.529 Z" fill="#000000" fill-rule="evenodd" fill-opacity="1" /><path clip-path="url(#clip350)" d="M1374.08 185.621 L1378.34 185.621 L1378.34 211.547 L1374.08 211.547 L1374.08 185.621 M1374.08 175.529 L1378.34 175.529 L1378.34 180.922 L1374.08 180.922 L1374.08 175.529 Z" fill="#000000" fill-rule="evenodd" fill-opacity="1" /><path clip-path="url(#clip350)" d="M1405.91 186.617 L1405.91 190.598 Q1404.11 189.603 1402.28 189.117 Q1400.47 188.607 1398.62 188.607 Q1394.48 188.607 1392.19 191.246 Q1389.89 193.862 1389.89 198.607 Q1389.89 203.353 1392.19 205.992 Q1394.48 208.607 1398.62 208.607 Q1400.47 208.607 1402.28 208.121 Q1404.11 207.612 1405.91 206.617 L1405.91 210.552 Q1404.13 211.385 1402.21 211.802 Q1400.31 212.218 1398.16 212.218 Q1392.3 212.218 1388.85 208.538 Q1385.4 204.857 1385.4 198.607 Q1385.4 192.265 1388.87 188.631 Q1392.37 184.996 1398.44 184.996 Q1400.4 184.996 1402.28 185.413 Q1404.15 185.807 1405.91 186.617 Z" fill="#000000" fill-rule="evenodd" fill-opacity="1" /><path clip-path="url(#clip350)" d="M1413.32 185.621 L1417.58 185.621 L1417.58 211.547 L1413.32 211.547 L1413.32 185.621 M1413.32 175.529 L1417.58 175.529 L1417.58 180.922 L1413.32 180.922 L1413.32 175.529 Z" fill="#000000" fill-rule="evenodd" fill-opacity="1" /><path clip-path="url(#clip350)" d="M1430.7 178.26 L1430.7 185.621 L1439.48 185.621 L1439.48 188.932 L1430.7 188.932 L1430.7 203.006 Q1430.7 206.177 1431.56 207.08 Q1432.44 207.982 1435.1 207.982 L1439.48 207.982 L1439.48 211.547 L1435.1 211.547 Q1430.17 211.547 1428.3 209.718 Q1426.42 207.867 1426.42 203.006 L1426.42 188.932 L1423.3 188.932 L1423.3 185.621 L1426.42 185.621 L1426.42 178.26 L1430.7 178.26 Z" fill="#000000" fill-rule="evenodd" fill-opacity="1" /><path clip-path="url(#clip350)" d="M1445.26 176.987 L1467.12 176.987 L1467.12 180.922 L1449.94 180.922 L1449.94 191.154 L1466.4 191.154 L1466.4 195.089 L1449.94 195.089 L1449.94 207.612 L1467.53 207.612 L1467.53 211.547 L1445.26 211.547 L1445.26 176.987 Z" fill="#000000" fill-rule="evenodd" fill-opacity="1" /><path clip-path="url(#clip350)" d="M1474.59 201.316 L1474.59 185.621 L1478.85 185.621 L1478.85 201.154 Q1478.85 204.834 1480.29 206.686 Q1481.72 208.515 1484.59 208.515 Q1488.04 208.515 1490.03 206.316 Q1492.05 204.117 1492.05 200.32 L1492.05 185.621 L1496.3 185.621 L1496.3 211.547 L1492.05 211.547 L1492.05 207.566 Q1490.49 209.927 1488.43 211.084 Q1486.4 212.218 1483.69 212.218 Q1479.22 212.218 1476.91 209.441 Q1474.59 206.663 1474.59 201.316 M1485.31 184.996 L1485.31 184.996 Z" fill="#000000" fill-rule="evenodd" fill-opacity="1" /><path clip-path="url(#clip350)" d="M1505.08 175.529 L1509.34 175.529 L1509.34 211.547 L1505.08 211.547 L1505.08 175.529 Z" fill="#000000" fill-rule="evenodd" fill-opacity="1" /><path clip-path="url(#clip350)" d="M1540.43 197.519 L1540.43 199.603 L1520.84 199.603 Q1521.12 204.001 1523.48 206.316 Q1525.86 208.607 1530.1 208.607 Q1532.55 208.607 1534.85 208.006 Q1537.16 207.404 1539.43 206.2 L1539.43 210.228 Q1537.14 211.2 1534.73 211.709 Q1532.32 212.218 1529.85 212.218 Q1523.64 212.218 1520.01 208.607 Q1516.4 204.996 1516.4 198.839 Q1516.4 192.473 1519.82 188.746 Q1523.27 184.996 1529.11 184.996 Q1534.34 184.996 1537.37 188.376 Q1540.43 191.732 1540.43 197.519 M1536.17 196.269 Q1536.12 192.774 1534.2 190.691 Q1532.3 188.607 1529.15 188.607 Q1525.59 188.607 1523.43 190.621 Q1521.3 192.635 1520.98 196.293 L1536.17 196.269 Z" fill="#000000" fill-rule="evenodd" fill-opacity="1" /><path clip-path="url(#clip350)" d="M1562.44 189.603 Q1561.72 189.186 1560.86 189.001 Q1560.03 188.793 1559.01 188.793 Q1555.4 188.793 1553.46 191.154 Q1551.54 193.492 1551.54 197.89 L1551.54 211.547 L1547.25 211.547 L1547.25 185.621 L1551.54 185.621 L1551.54 189.649 Q1552.88 187.288 1555.03 186.154 Q1557.18 184.996 1560.26 184.996 Q1560.7 184.996 1561.24 185.066 Q1561.77 185.112 1562.42 185.228 L1562.44 189.603 Z" fill="#000000" fill-rule="evenodd" fill-opacity="1" /><path clip-path="url(#clip350)" d="M1571.77 195.043 L1571.77 207.705 L1579.27 207.705 Q1583.04 207.705 1584.85 206.154 Q1586.67 204.58 1586.67 201.362 Q1586.67 198.121 1584.85 196.594 Q1583.04 195.043 1579.27 195.043 L1571.77 195.043 M1571.77 180.83 L1571.77 191.246 L1578.69 191.246 Q1582.11 191.246 1583.78 189.973 Q1585.47 188.677 1585.47 186.038 Q1585.47 183.422 1583.78 182.126 Q1582.11 180.83 1578.69 180.83 L1571.77 180.83 M1567.09 176.987 L1579.04 176.987 Q1584.38 176.987 1587.28 179.209 Q1590.17 181.432 1590.17 185.529 Q1590.17 188.7 1588.69 190.575 Q1587.21 192.45 1584.34 192.913 Q1587.79 193.654 1589.68 196.015 Q1591.61 198.353 1591.61 201.871 Q1591.61 206.501 1588.46 209.024 Q1585.31 211.547 1579.5 211.547 L1567.09 211.547 L1567.09 176.987 Z" fill="#000000" fill-rule="evenodd" fill-opacity="1" /><path clip-path="url(#clip350)" d="M1611.21 198.515 Q1606.05 198.515 1604.06 199.695 Q1602.07 200.876 1602.07 203.723 Q1602.07 205.992 1603.55 207.334 Q1605.05 208.654 1607.62 208.654 Q1611.17 208.654 1613.3 206.154 Q1615.45 203.631 1615.45 199.464 L1615.45 198.515 L1611.21 198.515 M1619.71 196.756 L1619.71 211.547 L1615.45 211.547 L1615.45 207.612 Q1613.99 209.973 1611.81 211.107 Q1609.64 212.218 1606.49 212.218 Q1602.51 212.218 1600.15 209.996 Q1597.81 207.751 1597.81 204.001 Q1597.81 199.626 1600.73 197.404 Q1603.67 195.182 1609.48 195.182 L1615.45 195.182 L1615.45 194.765 Q1615.45 191.825 1613.5 190.228 Q1611.58 188.607 1608.09 188.607 Q1605.86 188.607 1603.76 189.14 Q1601.65 189.672 1599.71 190.737 L1599.71 186.802 Q1602.05 185.899 1604.24 185.459 Q1606.44 184.996 1608.53 184.996 Q1614.15 184.996 1616.93 187.913 Q1619.71 190.83 1619.71 196.756 Z" fill="#000000" fill-rule="evenodd" fill-opacity="1" /><path clip-path="url(#clip350)" d="M1643.5 189.603 Q1642.79 189.186 1641.93 189.001 Q1641.1 188.793 1640.08 188.793 Q1636.47 188.793 1634.52 191.154 Q1632.6 193.492 1632.6 197.89 L1632.6 211.547 L1628.32 211.547 L1628.32 185.621 L1632.6 185.621 L1632.6 189.649 Q1633.94 187.288 1636.1 186.154 Q1638.25 184.996 1641.33 184.996 Q1641.77 184.996 1642.3 185.066 Q1642.83 185.112 1643.48 185.228 L1643.5 189.603 Z" fill="#000000" fill-rule="evenodd" fill-opacity="1" /><path clip-path="url(#clip350)" d="M1658.76 213.955 Q1656.95 218.584 1655.24 219.996 Q1653.53 221.408 1650.66 221.408 L1647.25 221.408 L1647.25 217.843 L1649.75 217.843 Q1651.51 217.843 1652.48 217.01 Q1653.46 216.177 1654.64 213.075 L1655.4 211.131 L1644.92 185.621 L1649.43 185.621 L1657.53 205.899 L1665.63 185.621 L1670.15 185.621 L1658.76 213.955 Z" fill="#000000" fill-rule="evenodd" fill-opacity="1" /><path clip-path="url(#clip350)" d="M1694.68 186.617 L1694.68 190.598 Q1692.88 189.603 1691.05 189.117 Q1689.24 188.607 1687.39 188.607 Q1683.25 188.607 1680.96 191.246 Q1678.67 193.862 1678.67 198.607 Q1678.67 203.353 1680.96 205.992 Q1683.25 208.607 1687.39 208.607 Q1689.24 208.607 1691.05 208.121 Q1692.88 207.612 1694.68 206.617 L1694.68 210.552 Q1692.9 211.385 1690.98 211.802 Q1689.08 212.218 1686.93 212.218 Q1681.07 212.218 1677.62 208.538 Q1674.17 204.857 1674.17 198.607 Q1674.17 192.265 1677.65 188.631 Q1681.14 184.996 1687.21 184.996 Q1689.17 184.996 1691.05 185.413 Q1692.92 185.807 1694.68 186.617 Z" fill="#000000" fill-rule="evenodd" fill-opacity="1" /><path clip-path="url(#clip350)" d="M1724.27 197.519 L1724.27 199.603 L1704.68 199.603 Q1704.96 204.001 1707.32 206.316 Q1709.71 208.607 1713.94 208.607 Q1716.4 208.607 1718.69 208.006 Q1721 207.404 1723.27 206.2 L1723.27 210.228 Q1720.98 211.2 1718.57 211.709 Q1716.16 212.218 1713.69 212.218 Q1707.48 212.218 1703.85 208.607 Q1700.24 204.996 1700.24 198.839 Q1700.24 192.473 1703.66 188.746 Q1707.11 184.996 1712.95 184.996 Q1718.18 184.996 1721.21 188.376 Q1724.27 191.732 1724.27 197.519 M1720.01 196.269 Q1719.96 192.774 1718.04 190.691 Q1716.14 188.607 1712.99 188.607 Q1709.43 188.607 1707.28 190.621 Q1705.15 192.635 1704.82 196.293 L1720.01 196.269 Z" fill="#000000" fill-rule="evenodd" fill-opacity="1" /><path clip-path="url(#clip350)" d="M1752.81 195.899 L1752.81 211.547 L1748.55 211.547 L1748.55 196.038 Q1748.55 192.357 1747.11 190.529 Q1745.68 188.7 1742.81 188.7 Q1739.36 188.7 1737.37 190.899 Q1735.38 193.098 1735.38 196.894 L1735.38 211.547 L1731.1 211.547 L1731.1 185.621 L1735.38 185.621 L1735.38 189.649 Q1736.91 187.311 1738.97 186.154 Q1741.05 184.996 1743.76 184.996 Q1748.22 184.996 1750.52 187.774 Q1752.81 190.529 1752.81 195.899 Z" fill="#000000" fill-rule="evenodd" fill-opacity="1" /><path clip-path="url(#clip350)" d="M1765.52 178.26 L1765.52 185.621 L1774.29 185.621 L1774.29 188.932 L1765.52 188.932 L1765.52 203.006 Q1765.52 206.177 1766.37 207.08 Q1767.25 207.982 1769.91 207.982 L1774.29 207.982 L1774.29 211.547 L1769.91 211.547 Q1764.98 211.547 1763.11 209.718 Q1761.23 207.867 1761.23 203.006 L1761.23 188.932 L1758.11 188.932 L1758.11 185.621 L1761.23 185.621 L1761.23 178.26 L1765.52 178.26 Z" fill="#000000" fill-rule="evenodd" fill-opacity="1" /><path clip-path="url(#clip350)" d="M1794.91 189.603 Q1794.2 189.186 1793.34 189.001 Q1792.51 188.793 1791.49 188.793 Q1787.88 188.793 1785.93 191.154 Q1784.01 193.492 1784.01 197.89 L1784.01 211.547 L1779.73 211.547 L1779.73 185.621 L1784.01 185.621 L1784.01 189.649 Q1785.35 187.288 1787.51 186.154 Q1789.66 184.996 1792.74 184.996 Q1793.18 184.996 1793.71 185.066 Q1794.24 185.112 1794.89 185.228 L1794.91 189.603 Z" fill="#000000" fill-rule="evenodd" fill-opacity="1" /><path clip-path="url(#clip350)" d="M1799.38 185.621 L1803.64 185.621 L1803.64 211.547 L1799.38 211.547 L1799.38 185.621 M1799.38 175.529 L1803.64 175.529 L1803.64 180.922 L1799.38 180.922 L1799.38 175.529 Z" fill="#000000" fill-rule="evenodd" fill-opacity="1" /><path clip-path="url(#clip350)" d="M1831.21 186.617 L1831.21 190.598 Q1829.41 189.603 1827.58 189.117 Q1825.77 188.607 1823.92 188.607 Q1819.78 188.607 1817.48 191.246 Q1815.19 193.862 1815.19 198.607 Q1815.19 203.353 1817.48 205.992 Q1819.78 208.607 1823.92 208.607 Q1825.77 208.607 1827.58 208.121 Q1829.41 207.612 1831.21 206.617 L1831.21 210.552 Q1829.43 211.385 1827.51 211.802 Q1825.61 212.218 1823.46 212.218 Q1817.6 212.218 1814.15 208.538 Q1810.7 204.857 1810.7 198.607 Q1810.7 192.265 1814.17 188.631 Q1817.67 184.996 1823.73 184.996 Q1825.7 184.996 1827.58 185.413 Q1829.45 185.807 1831.21 186.617 Z" fill="#000000" fill-rule="evenodd" fill-opacity="1" /><path clip-path="url(#clip350)" d="M1838.8 176.987 L1860.65 176.987 L1860.65 180.922 L1843.48 180.922 L1843.48 191.154 L1859.94 191.154 L1859.94 195.089 L1843.48 195.089 L1843.48 207.612 L1861.07 207.612 L1861.07 211.547 L1838.8 211.547 L1838.8 176.987 Z" fill="#000000" fill-rule="evenodd" fill-opacity="1" /><path clip-path="url(#clip350)" d="M1890.12 185.621 L1880.75 198.237 L1890.61 211.547 L1885.59 211.547 L1878.04 201.362 L1870.49 211.547 L1865.47 211.547 L1875.54 197.982 L1866.33 185.621 L1871.35 185.621 L1878.22 194.857 L1885.1 185.621 L1890.12 185.621 Z" fill="#000000" fill-rule="evenodd" fill-opacity="1" /><path clip-path="url(#clip350)" d="M1900.84 178.26 L1900.84 185.621 L1909.61 185.621 L1909.61 188.932 L1900.84 188.932 L1900.84 203.006 Q1900.84 206.177 1901.7 207.08 Q1902.58 207.982 1905.24 207.982 L1909.61 207.982 L1909.61 211.547 L1905.24 211.547 Q1900.31 211.547 1898.43 209.718 Q1896.56 207.867 1896.56 203.006 L1896.56 188.932 L1893.43 188.932 L1893.43 185.621 L1896.56 185.621 L1896.56 178.26 L1900.84 178.26 Z" fill="#000000" fill-rule="evenodd" fill-opacity="1" /><path clip-path="url(#clip350)" d="M1930.24 189.603 Q1929.52 189.186 1928.66 189.001 Q1927.83 188.793 1926.81 188.793 Q1923.2 188.793 1921.26 191.154 Q1919.34 193.492 1919.34 197.89 L1919.34 211.547 L1915.05 211.547 L1915.05 185.621 L1919.34 185.621 L1919.34 189.649 Q1920.68 187.288 1922.83 186.154 Q1924.98 184.996 1928.06 184.996 Q1928.5 184.996 1929.03 185.066 Q1929.57 185.112 1930.21 185.228 L1930.24 189.603 Z" fill="#000000" fill-rule="evenodd" fill-opacity="1" /><path clip-path="url(#clip350)" d="M1946.49 198.515 Q1941.33 198.515 1939.33 199.695 Q1937.34 200.876 1937.34 203.723 Q1937.34 205.992 1938.83 207.334 Q1940.33 208.654 1942.9 208.654 Q1946.44 208.654 1948.57 206.154 Q1950.72 203.631 1950.72 199.464 L1950.72 198.515 L1946.49 198.515 M1954.98 196.756 L1954.98 211.547 L1950.72 211.547 L1950.72 207.612 Q1949.27 209.973 1947.09 211.107 Q1944.91 212.218 1941.77 212.218 Q1937.78 212.218 1935.42 209.996 Q1933.09 207.751 1933.09 204.001 Q1933.09 199.626 1936 197.404 Q1938.94 195.182 1944.75 195.182 L1950.72 195.182 L1950.72 194.765 Q1950.72 191.825 1948.78 190.228 Q1946.86 188.607 1943.36 188.607 Q1941.14 188.607 1939.03 189.14 Q1936.93 189.672 1934.98 190.737 L1934.98 186.802 Q1937.32 185.899 1939.52 185.459 Q1941.72 184.996 1943.8 184.996 Q1949.43 184.996 1952.21 187.913 Q1954.98 190.83 1954.98 196.756 Z" fill="#000000" fill-rule="evenodd" fill-opacity="1" /><path clip-path="url(#clip350)" d="M1967.88 207.658 L1967.88 221.408 L1963.59 221.408 L1963.59 185.621 L1967.88 185.621 L1967.88 189.557 Q1969.22 187.242 1971.26 186.131 Q1973.32 184.996 1976.16 184.996 Q1980.89 184.996 1983.83 188.746 Q1986.79 192.496 1986.79 198.607 Q1986.79 204.719 1983.83 208.468 Q1980.89 212.218 1976.16 212.218 Q1973.32 212.218 1971.26 211.107 Q1969.22 209.973 1967.88 207.658 M1982.37 198.607 Q1982.37 193.908 1980.42 191.246 Q1978.5 188.561 1975.12 188.561 Q1971.74 188.561 1969.8 191.246 Q1967.88 193.908 1967.88 198.607 Q1967.88 203.306 1969.8 205.992 Q1971.74 208.654 1975.12 208.654 Q1978.5 208.654 1980.42 205.992 Q1982.37 203.306 1982.37 198.607 Z" fill="#000000" fill-rule="evenodd" fill-opacity="1" /><path clip-path="url(#clip350)" d="M2003.89 188.607 Q2000.47 188.607 1998.48 191.293 Q1996.49 193.955 1996.49 198.607 Q1996.49 203.26 1998.46 205.945 Q2000.45 208.607 2003.89 208.607 Q2007.3 208.607 2009.29 205.922 Q2011.28 203.237 2011.28 198.607 Q2011.28 194.001 2009.29 191.316 Q2007.3 188.607 2003.89 188.607 M2003.89 184.996 Q2009.45 184.996 2012.62 188.607 Q2015.79 192.219 2015.79 198.607 Q2015.79 204.973 2012.62 208.607 Q2009.45 212.218 2003.89 212.218 Q1998.32 212.218 1995.14 208.607 Q1992 204.973 1992 198.607 Q1992 192.219 1995.14 188.607 Q1998.32 184.996 2003.89 184.996 Z" fill="#000000" fill-rule="evenodd" fill-opacity="1" /><path clip-path="url(#clip350)" d="M2022.85 175.529 L2027.11 175.529 L2027.11 211.547 L2022.85 211.547 L2022.85 175.529 Z" fill="#000000" fill-rule="evenodd" fill-opacity="1" /><path clip-path="url(#clip350)" d="M2047.81 198.515 Q2042.64 198.515 2040.65 199.695 Q2038.66 200.876 2038.66 203.723 Q2038.66 205.992 2040.14 207.334 Q2041.65 208.654 2044.22 208.654 Q2047.76 208.654 2049.89 206.154 Q2052.04 203.631 2052.04 199.464 L2052.04 198.515 L2047.81 198.515 M2056.3 196.756 L2056.3 211.547 L2052.04 211.547 L2052.04 207.612 Q2050.58 209.973 2048.41 211.107 Q2046.23 212.218 2043.08 212.218 Q2039.1 212.218 2036.74 209.996 Q2034.4 207.751 2034.4 204.001 Q2034.4 199.626 2037.32 197.404 Q2040.26 195.182 2046.07 195.182 L2052.04 195.182 L2052.04 194.765 Q2052.04 191.825 2050.1 190.228 Q2048.18 188.607 2044.68 188.607 Q2042.46 188.607 2040.35 189.14 Q2038.25 189.672 2036.3 190.737 L2036.3 186.802 Q2038.64 185.899 2040.84 185.459 Q2043.04 184.996 2045.12 184.996 Q2050.75 184.996 2053.52 187.913 Q2056.3 190.83 2056.3 196.756 Z" fill="#000000" fill-rule="evenodd" fill-opacity="1" /><path clip-path="url(#clip350)" d="M2069.29 178.26 L2069.29 185.621 L2078.06 185.621 L2078.06 188.932 L2069.29 188.932 L2069.29 203.006 Q2069.29 206.177 2070.14 207.08 Q2071.02 207.982 2073.69 207.982 L2078.06 207.982 L2078.06 211.547 L2073.69 211.547 Q2068.76 211.547 2066.88 209.718 Q2065.01 207.867 2065.01 203.006 L2065.01 188.932 L2061.88 188.932 L2061.88 185.621 L2065.01 185.621 L2065.01 178.26 L2069.29 178.26 Z" fill="#000000" fill-rule="evenodd" fill-opacity="1" /><path clip-path="url(#clip350)" d="M2083.66 185.621 L2087.92 185.621 L2087.92 211.547 L2083.66 211.547 L2083.66 185.621 M2083.66 175.529 L2087.92 175.529 L2087.92 180.922 L2083.66 180.922 L2083.66 175.529 Z" fill="#000000" fill-rule="evenodd" fill-opacity="1" /><path clip-path="url(#clip350)" d="M2106.88 188.607 Q2103.45 188.607 2101.46 191.293 Q2099.47 193.955 2099.47 198.607 Q2099.47 203.26 2101.44 205.945 Q2103.43 208.607 2106.88 208.607 Q2110.28 208.607 2112.27 205.922 Q2114.26 203.237 2114.26 198.607 Q2114.26 194.001 2112.27 191.316 Q2110.28 188.607 2106.88 188.607 M2106.88 184.996 Q2112.44 184.996 2115.61 188.607 Q2118.78 192.219 2118.78 198.607 Q2118.78 204.973 2115.61 208.607 Q2112.44 212.218 2106.88 212.218 Q2101.3 212.218 2098.13 208.607 Q2094.98 204.973 2094.98 198.607 Q2094.98 192.219 2098.13 188.607 Q2101.3 184.996 2106.88 184.996 Z" fill="#000000" fill-rule="evenodd" fill-opacity="1" /><path clip-path="url(#clip350)" d="M2147.39 195.899 L2147.39 211.547 L2143.13 211.547 L2143.13 196.038 Q2143.13 192.357 2141.7 190.529 Q2140.26 188.7 2137.39 188.7 Q2133.94 188.7 2131.95 190.899 Q2129.96 193.098 2129.96 196.894 L2129.96 211.547 L2125.68 211.547 L2125.68 185.621 L2129.96 185.621 L2129.96 189.649 Q2131.49 187.311 2133.55 186.154 Q2135.63 184.996 2138.34 184.996 Q2142.81 184.996 2145.1 187.774 Q2147.39 190.529 2147.39 195.899 Z" fill="#000000" fill-rule="evenodd" fill-opacity="1" /><polyline clip-path="url(#clip350)" style="stroke:#3da44d; stroke-linecap:butt; stroke-linejoin:round; stroke-width:4; stroke-opacity:1; fill:none" points="
  1117.73,246.107 1248.97,246.107 
  "/>
<line clip-path="url(#clip350)" x1="1183.35" y1="246.107" x2="1183.35" y2="220.507" style="stroke:#3da44d; stroke-width:4.9152; stroke-opacity:1"/>
<line clip-path="url(#clip350)" x1="1183.35" y1="246.107" x2="1157.75" y2="246.107" style="stroke:#3da44d; stroke-width:4.9152; stroke-opacity:1"/>
<line clip-path="url(#clip350)" x1="1183.35" y1="246.107" x2="1183.35" y2="271.707" style="stroke:#3da44d; stroke-width:4.9152; stroke-opacity:1"/>
<line clip-path="url(#clip350)" x1="1183.35" y1="246.107" x2="1208.95" y2="246.107" style="stroke:#3da44d; stroke-width:4.9152; stroke-opacity:1"/>
<path clip-path="url(#clip350)" d="M1270.84 228.827 L1275.52 228.827 L1275.52 263.387 L1270.84 263.387 L1270.84 228.827 Z" fill="#000000" fill-rule="evenodd" fill-opacity="1" /><path clip-path="url(#clip350)" d="M1304.82 242.438 Q1306.42 239.568 1308.64 238.202 Q1310.87 236.836 1313.88 236.836 Q1317.93 236.836 1320.13 239.684 Q1322.32 242.508 1322.32 247.739 L1322.32 263.387 L1318.04 263.387 L1318.04 247.878 Q1318.04 244.151 1316.72 242.346 Q1315.4 240.54 1312.69 240.54 Q1309.38 240.54 1307.46 242.739 Q1305.54 244.938 1305.54 248.734 L1305.54 263.387 L1301.26 263.387 L1301.26 247.878 Q1301.26 244.128 1299.94 242.346 Q1298.62 240.54 1295.87 240.54 Q1292.6 240.54 1290.68 242.762 Q1288.76 244.961 1288.76 248.734 L1288.76 263.387 L1284.48 263.387 L1284.48 237.461 L1288.76 237.461 L1288.76 241.489 Q1290.22 239.105 1292.26 237.971 Q1294.29 236.836 1297.09 236.836 Q1299.92 236.836 1301.88 238.272 Q1303.88 239.707 1304.82 242.438 Z" fill="#000000" fill-rule="evenodd" fill-opacity="1" /><path clip-path="url(#clip350)" d="M1334.94 259.498 L1334.94 273.248 L1330.66 273.248 L1330.66 237.461 L1334.94 237.461 L1334.94 241.397 Q1336.28 239.082 1338.32 237.971 Q1340.38 236.836 1343.23 236.836 Q1347.95 236.836 1350.89 240.586 Q1353.85 244.336 1353.85 250.447 Q1353.85 256.559 1350.89 260.308 Q1347.95 264.058 1343.23 264.058 Q1340.38 264.058 1338.32 262.947 Q1336.28 261.813 1334.94 259.498 M1349.43 250.447 Q1349.43 245.748 1347.49 243.086 Q1345.57 240.401 1342.19 240.401 Q1338.81 240.401 1336.86 243.086 Q1334.94 245.748 1334.94 250.447 Q1334.94 255.146 1336.86 257.832 Q1338.81 260.494 1342.19 260.494 Q1345.57 260.494 1347.49 257.832 Q1349.43 255.146 1349.43 250.447 Z" fill="#000000" fill-rule="evenodd" fill-opacity="1" /><path clip-path="url(#clip350)" d="M1360.91 227.369 L1365.17 227.369 L1365.17 263.387 L1360.91 263.387 L1360.91 227.369 Z" fill="#000000" fill-rule="evenodd" fill-opacity="1" /><path clip-path="url(#clip350)" d="M1374.08 237.461 L1378.34 237.461 L1378.34 263.387 L1374.08 263.387 L1374.08 237.461 M1374.08 227.369 L1378.34 227.369 L1378.34 232.762 L1374.08 232.762 L1374.08 227.369 Z" fill="#000000" fill-rule="evenodd" fill-opacity="1" /><path clip-path="url(#clip350)" d="M1405.91 238.457 L1405.91 242.438 Q1404.11 241.443 1402.28 240.957 Q1400.47 240.447 1398.62 240.447 Q1394.48 240.447 1392.19 243.086 Q1389.89 245.702 1389.89 250.447 Q1389.89 255.193 1392.19 257.832 Q1394.48 260.447 1398.62 260.447 Q1400.47 260.447 1402.28 259.961 Q1404.11 259.452 1405.91 258.457 L1405.91 262.392 Q1404.13 263.225 1402.21 263.642 Q1400.31 264.058 1398.16 264.058 Q1392.3 264.058 1388.85 260.378 Q1385.4 256.697 1385.4 250.447 Q1385.4 244.105 1388.87 240.471 Q1392.37 236.836 1398.44 236.836 Q1400.4 236.836 1402.28 237.253 Q1404.15 237.647 1405.91 238.457 Z" fill="#000000" fill-rule="evenodd" fill-opacity="1" /><path clip-path="url(#clip350)" d="M1413.32 237.461 L1417.58 237.461 L1417.58 263.387 L1413.32 263.387 L1413.32 237.461 M1413.32 227.369 L1417.58 227.369 L1417.58 232.762 L1413.32 232.762 L1413.32 227.369 Z" fill="#000000" fill-rule="evenodd" fill-opacity="1" /><path clip-path="url(#clip350)" d="M1430.7 230.1 L1430.7 237.461 L1439.48 237.461 L1439.48 240.772 L1430.7 240.772 L1430.7 254.846 Q1430.7 258.017 1431.56 258.92 Q1432.44 259.822 1435.1 259.822 L1439.48 259.822 L1439.48 263.387 L1435.1 263.387 Q1430.17 263.387 1428.3 261.558 Q1426.42 259.707 1426.42 254.846 L1426.42 240.772 L1423.3 240.772 L1423.3 237.461 L1426.42 237.461 L1426.42 230.1 L1430.7 230.1 Z" fill="#000000" fill-rule="evenodd" fill-opacity="1" /><path clip-path="url(#clip350)" d="M1445.26 228.827 L1449.94 228.827 L1449.94 242.994 L1466.93 242.994 L1466.93 228.827 L1471.61 228.827 L1471.61 263.387 L1466.93 263.387 L1466.93 246.929 L1449.94 246.929 L1449.94 263.387 L1445.26 263.387 L1445.26 228.827 Z" fill="#000000" fill-rule="evenodd" fill-opacity="1" /><path clip-path="url(#clip350)" d="M1492.51 250.355 Q1487.35 250.355 1485.36 251.535 Q1483.37 252.716 1483.37 255.563 Q1483.37 257.832 1484.85 259.174 Q1486.35 260.494 1488.92 260.494 Q1492.46 260.494 1494.59 257.994 Q1496.74 255.471 1496.74 251.304 L1496.74 250.355 L1492.51 250.355 M1501 248.596 L1501 263.387 L1496.74 263.387 L1496.74 259.452 Q1495.29 261.813 1493.11 262.947 Q1490.93 264.058 1487.79 264.058 Q1483.81 264.058 1481.44 261.836 Q1479.11 259.591 1479.11 255.841 Q1479.11 251.466 1482.02 249.244 Q1484.96 247.022 1490.77 247.022 L1496.74 247.022 L1496.74 246.605 Q1496.74 243.665 1494.8 242.068 Q1492.88 240.447 1489.38 240.447 Q1487.16 240.447 1485.06 240.98 Q1482.95 241.512 1481 242.577 L1481 238.642 Q1483.34 237.739 1485.54 237.299 Q1487.74 236.836 1489.82 236.836 Q1495.45 236.836 1498.23 239.753 Q1501 242.67 1501 248.596 Z" fill="#000000" fill-rule="evenodd" fill-opacity="1" /><path clip-path="url(#clip350)" d="M1509.78 237.461 L1514.04 237.461 L1514.04 263.387 L1509.78 263.387 L1509.78 237.461 M1509.78 227.369 L1514.04 227.369 L1514.04 232.762 L1509.78 232.762 L1509.78 227.369 Z" fill="#000000" fill-rule="evenodd" fill-opacity="1" /><path clip-path="url(#clip350)" d="M1537.97 241.443 Q1537.25 241.026 1536.4 240.841 Q1535.56 240.633 1534.55 240.633 Q1530.93 240.633 1528.99 242.994 Q1527.07 245.332 1527.07 249.73 L1527.07 263.387 L1522.79 263.387 L1522.79 237.461 L1527.07 237.461 L1527.07 241.489 Q1528.41 239.128 1530.56 237.994 Q1532.72 236.836 1535.8 236.836 Q1536.24 236.836 1536.77 236.906 Q1537.3 236.952 1537.95 237.068 L1537.97 241.443 Z" fill="#000000" fill-rule="evenodd" fill-opacity="1" /><path clip-path="url(#clip350)" d="M1563.57 249.359 L1563.57 251.443 L1543.99 251.443 Q1544.27 255.841 1546.63 258.156 Q1549.01 260.447 1553.25 260.447 Q1555.7 260.447 1557.99 259.846 Q1560.31 259.244 1562.58 258.04 L1562.58 262.068 Q1560.29 263.04 1557.88 263.549 Q1555.47 264.058 1552.99 264.058 Q1546.79 264.058 1543.16 260.447 Q1539.55 256.836 1539.55 250.679 Q1539.55 244.313 1542.97 240.586 Q1546.42 236.836 1552.25 236.836 Q1557.49 236.836 1560.52 240.216 Q1563.57 243.572 1563.57 249.359 M1559.31 248.109 Q1559.27 244.614 1557.35 242.531 Q1555.45 240.447 1552.3 240.447 Q1548.74 240.447 1546.58 242.461 Q1544.45 244.475 1544.13 248.133 L1559.31 248.109 Z" fill="#000000" fill-rule="evenodd" fill-opacity="1" /><path clip-path="url(#clip350)" d="M1585.59 241.443 Q1584.87 241.026 1584.01 240.841 Q1583.18 240.633 1582.16 240.633 Q1578.55 240.633 1576.61 242.994 Q1574.68 245.332 1574.68 249.73 L1574.68 263.387 L1570.4 263.387 L1570.4 237.461 L1574.68 237.461 L1574.68 241.489 Q1576.03 239.128 1578.18 237.994 Q1580.33 236.836 1583.41 236.836 Q1583.85 236.836 1584.38 236.906 Q1584.92 236.952 1585.56 237.068 L1585.59 241.443 Z" fill="#000000" fill-rule="evenodd" fill-opacity="1" /><path clip-path="url(#clip350)" d="M1587.16 228.827 L1591.88 228.827 L1599.15 258.04 L1606.4 228.827 L1611.65 228.827 L1618.92 258.04 L1626.17 228.827 L1630.91 228.827 L1622.23 263.387 L1616.35 263.387 L1609.06 233.387 L1601.7 263.387 L1595.82 263.387 L1587.16 228.827 Z" fill="#000000" fill-rule="evenodd" fill-opacity="1" /><path clip-path="url(#clip350)" d="M1645.68 250.355 Q1640.52 250.355 1638.53 251.535 Q1636.54 252.716 1636.54 255.563 Q1636.54 257.832 1638.02 259.174 Q1639.52 260.494 1642.09 260.494 Q1645.63 260.494 1647.76 257.994 Q1649.92 255.471 1649.92 251.304 L1649.92 250.355 L1645.68 250.355 M1654.17 248.596 L1654.17 263.387 L1649.92 263.387 L1649.92 259.452 Q1648.46 261.813 1646.28 262.947 Q1644.11 264.058 1640.96 264.058 Q1636.98 264.058 1634.61 261.836 Q1632.28 259.591 1632.28 255.841 Q1632.28 251.466 1635.19 249.244 Q1638.13 247.022 1643.94 247.022 L1649.92 247.022 L1649.92 246.605 Q1649.92 243.665 1647.97 242.068 Q1646.05 240.447 1642.55 240.447 Q1640.33 240.447 1638.23 240.98 Q1636.12 241.512 1634.17 242.577 L1634.17 238.642 Q1636.51 237.739 1638.71 237.299 Q1640.91 236.836 1642.99 236.836 Q1648.62 236.836 1651.4 239.753 Q1654.17 242.67 1654.17 248.596 Z" fill="#000000" fill-rule="evenodd" fill-opacity="1" /><path clip-path="url(#clip350)" d="M1684.5 247.739 L1684.5 263.387 L1680.24 263.387 L1680.24 247.878 Q1680.24 244.197 1678.8 242.369 Q1677.37 240.54 1674.5 240.54 Q1671.05 240.54 1669.06 242.739 Q1667.07 244.938 1667.07 248.734 L1667.07 263.387 L1662.79 263.387 L1662.79 237.461 L1667.07 237.461 L1667.07 241.489 Q1668.6 239.151 1670.66 237.994 Q1672.74 236.836 1675.45 236.836 Q1679.92 236.836 1682.21 239.614 Q1684.5 242.369 1684.5 247.739 Z" fill="#000000" fill-rule="evenodd" fill-opacity="1" /><path clip-path="url(#clip350)" d="M1714.54 247.739 L1714.54 263.387 L1710.29 263.387 L1710.29 247.878 Q1710.29 244.197 1708.85 242.369 Q1707.41 240.54 1704.54 240.54 Q1701.1 240.54 1699.1 242.739 Q1697.11 244.938 1697.11 248.734 L1697.11 263.387 L1692.83 263.387 L1692.83 237.461 L1697.11 237.461 L1697.11 241.489 Q1698.64 239.151 1700.7 237.994 Q1702.79 236.836 1705.49 236.836 Q1709.96 236.836 1712.25 239.614 Q1714.54 242.369 1714.54 247.739 Z" fill="#000000" fill-rule="evenodd" fill-opacity="1" /><path clip-path="url(#clip350)" d="M1745.22 249.359 L1745.22 251.443 L1725.63 251.443 Q1725.91 255.841 1728.27 258.156 Q1730.66 260.447 1734.89 260.447 Q1737.35 260.447 1739.64 259.846 Q1741.95 259.244 1744.22 258.04 L1744.22 262.068 Q1741.93 263.04 1739.52 263.549 Q1737.11 264.058 1734.64 264.058 Q1728.43 264.058 1724.8 260.447 Q1721.19 256.836 1721.19 250.679 Q1721.19 244.313 1724.61 240.586 Q1728.06 236.836 1733.9 236.836 Q1739.13 236.836 1742.16 240.216 Q1745.22 243.572 1745.22 249.359 M1740.96 248.109 Q1740.91 244.614 1738.99 242.531 Q1737.09 240.447 1733.94 240.447 Q1730.38 240.447 1728.23 242.461 Q1726.1 244.475 1725.77 248.133 L1740.96 248.109 Z" fill="#000000" fill-rule="evenodd" fill-opacity="1" /><path clip-path="url(#clip350)" d="M1767.23 241.443 Q1766.51 241.026 1765.66 240.841 Q1764.82 240.633 1763.8 240.633 Q1760.19 240.633 1758.25 242.994 Q1756.33 245.332 1756.33 249.73 L1756.33 263.387 L1752.04 263.387 L1752.04 237.461 L1756.33 237.461 L1756.33 241.489 Q1757.67 239.128 1759.82 237.994 Q1761.97 236.836 1765.05 236.836 Q1765.49 236.836 1766.03 236.906 Q1766.56 236.952 1767.21 237.068 L1767.23 241.443 Z" fill="#000000" fill-rule="evenodd" fill-opacity="1" /><path clip-path="url(#clip350)" d="M1771.88 228.827 L1793.73 228.827 L1793.73 232.762 L1776.56 232.762 L1776.56 242.994 L1793.02 242.994 L1793.02 246.929 L1776.56 246.929 L1776.56 259.452 L1794.15 259.452 L1794.15 263.387 L1771.88 263.387 L1771.88 228.827 Z" fill="#000000" fill-rule="evenodd" fill-opacity="1" /><path clip-path="url(#clip350)" d="M1823.2 237.461 L1813.83 250.077 L1823.69 263.387 L1818.66 263.387 L1811.12 253.202 L1803.57 263.387 L1798.55 263.387 L1808.62 249.822 L1799.41 237.461 L1804.43 237.461 L1811.3 246.697 L1818.18 237.461 L1823.2 237.461 Z" fill="#000000" fill-rule="evenodd" fill-opacity="1" /><path clip-path="url(#clip350)" d="M1833.92 230.1 L1833.92 237.461 L1842.69 237.461 L1842.69 240.772 L1833.92 240.772 L1833.92 254.846 Q1833.92 258.017 1834.78 258.92 Q1835.65 259.822 1838.32 259.822 L1842.69 259.822 L1842.69 263.387 L1838.32 263.387 Q1833.39 263.387 1831.51 261.558 Q1829.64 259.707 1829.64 254.846 L1829.64 240.772 L1826.51 240.772 L1826.51 237.461 L1829.64 237.461 L1829.64 230.1 L1833.92 230.1 Z" fill="#000000" fill-rule="evenodd" fill-opacity="1" /><path clip-path="url(#clip350)" d="M1863.32 241.443 Q1862.6 241.026 1861.74 240.841 Q1860.91 240.633 1859.89 240.633 Q1856.28 240.633 1854.34 242.994 Q1852.41 245.332 1852.41 249.73 L1852.41 263.387 L1848.13 263.387 L1848.13 237.461 L1852.41 237.461 L1852.41 241.489 Q1853.76 239.128 1855.91 237.994 Q1858.06 236.836 1861.14 236.836 Q1861.58 236.836 1862.11 236.906 Q1862.65 236.952 1863.29 237.068 L1863.32 241.443 Z" fill="#000000" fill-rule="evenodd" fill-opacity="1" /><path clip-path="url(#clip350)" d="M1879.57 250.355 Q1874.4 250.355 1872.41 251.535 Q1870.42 252.716 1870.42 255.563 Q1870.42 257.832 1871.9 259.174 Q1873.41 260.494 1875.98 260.494 Q1879.52 260.494 1881.65 257.994 Q1883.8 255.471 1883.8 251.304 L1883.8 250.355 L1879.57 250.355 M1888.06 248.596 L1888.06 263.387 L1883.8 263.387 L1883.8 259.452 Q1882.34 261.813 1880.17 262.947 Q1877.99 264.058 1874.84 264.058 Q1870.86 264.058 1868.5 261.836 Q1866.16 259.591 1866.16 255.841 Q1866.16 251.466 1869.08 249.244 Q1872.02 247.022 1877.83 247.022 L1883.8 247.022 L1883.8 246.605 Q1883.8 243.665 1881.86 242.068 Q1879.94 240.447 1876.44 240.447 Q1874.22 240.447 1872.11 240.98 Q1870.01 241.512 1868.06 242.577 L1868.06 238.642 Q1870.4 237.739 1872.6 237.299 Q1874.8 236.836 1876.88 236.836 Q1882.51 236.836 1885.28 239.753 Q1888.06 242.67 1888.06 248.596 Z" fill="#000000" fill-rule="evenodd" fill-opacity="1" /><path clip-path="url(#clip350)" d="M1900.96 259.498 L1900.96 273.248 L1896.67 273.248 L1896.67 237.461 L1900.96 237.461 L1900.96 241.397 Q1902.3 239.082 1904.34 237.971 Q1906.4 236.836 1909.24 236.836 Q1913.96 236.836 1916.9 240.586 Q1919.87 244.336 1919.87 250.447 Q1919.87 256.559 1916.9 260.308 Q1913.96 264.058 1909.24 264.058 Q1906.4 264.058 1904.34 262.947 Q1902.3 261.813 1900.96 259.498 M1915.45 250.447 Q1915.45 245.748 1913.5 243.086 Q1911.58 240.401 1908.2 240.401 Q1904.82 240.401 1902.88 243.086 Q1900.96 245.748 1900.96 250.447 Q1900.96 255.146 1902.88 257.832 Q1904.82 260.494 1908.2 260.494 Q1911.58 260.494 1913.5 257.832 Q1915.45 255.146 1915.45 250.447 Z" fill="#000000" fill-rule="evenodd" fill-opacity="1" /><path clip-path="url(#clip350)" d="M1936.97 240.447 Q1933.55 240.447 1931.56 243.133 Q1929.57 245.795 1929.57 250.447 Q1929.57 255.1 1931.53 257.785 Q1933.52 260.447 1936.97 260.447 Q1940.38 260.447 1942.37 257.762 Q1944.36 255.077 1944.36 250.447 Q1944.36 245.841 1942.37 243.156 Q1940.38 240.447 1936.97 240.447 M1936.97 236.836 Q1942.53 236.836 1945.7 240.447 Q1948.87 244.059 1948.87 250.447 Q1948.87 256.813 1945.7 260.447 Q1942.53 264.058 1936.97 264.058 Q1931.4 264.058 1928.22 260.447 Q1925.08 256.813 1925.08 250.447 Q1925.08 244.059 1928.22 240.447 Q1931.4 236.836 1936.97 236.836 Z" fill="#000000" fill-rule="evenodd" fill-opacity="1" /><path clip-path="url(#clip350)" d="M1955.93 227.369 L1960.19 227.369 L1960.19 263.387 L1955.93 263.387 L1955.93 227.369 Z" fill="#000000" fill-rule="evenodd" fill-opacity="1" /><path clip-path="url(#clip350)" d="M1980.89 250.355 Q1975.72 250.355 1973.73 251.535 Q1971.74 252.716 1971.74 255.563 Q1971.74 257.832 1973.22 259.174 Q1974.73 260.494 1977.3 260.494 Q1980.84 260.494 1982.97 257.994 Q1985.12 255.471 1985.12 251.304 L1985.12 250.355 L1980.89 250.355 M1989.38 248.596 L1989.38 263.387 L1985.12 263.387 L1985.12 259.452 Q1983.66 261.813 1981.49 262.947 Q1979.31 264.058 1976.16 264.058 Q1972.18 264.058 1969.82 261.836 Q1967.48 259.591 1967.48 255.841 Q1967.48 251.466 1970.4 249.244 Q1973.34 247.022 1979.15 247.022 L1985.12 247.022 L1985.12 246.605 Q1985.12 243.665 1983.18 242.068 Q1981.26 240.447 1977.76 240.447 Q1975.54 240.447 1973.43 240.98 Q1971.33 241.512 1969.38 242.577 L1969.38 238.642 Q1971.72 237.739 1973.92 237.299 Q1976.12 236.836 1978.2 236.836 Q1983.83 236.836 1986.6 239.753 Q1989.38 242.67 1989.38 248.596 Z" fill="#000000" fill-rule="evenodd" fill-opacity="1" /><path clip-path="url(#clip350)" d="M2002.37 230.1 L2002.37 237.461 L2011.14 237.461 L2011.14 240.772 L2002.37 240.772 L2002.37 254.846 Q2002.37 258.017 2003.22 258.92 Q2004.1 259.822 2006.77 259.822 L2011.14 259.822 L2011.14 263.387 L2006.77 263.387 Q2001.83 263.387 1999.96 261.558 Q1998.08 259.707 1998.08 254.846 L1998.08 240.772 L1994.96 240.772 L1994.96 237.461 L1998.08 237.461 L1998.08 230.1 L2002.37 230.1 Z" fill="#000000" fill-rule="evenodd" fill-opacity="1" /><path clip-path="url(#clip350)" d="M2016.74 237.461 L2021 237.461 L2021 263.387 L2016.74 263.387 L2016.74 237.461 M2016.74 227.369 L2021 227.369 L2021 232.762 L2016.74 232.762 L2016.74 227.369 Z" fill="#000000" fill-rule="evenodd" fill-opacity="1" /><path clip-path="url(#clip350)" d="M2039.96 240.447 Q2036.53 240.447 2034.54 243.133 Q2032.55 245.795 2032.55 250.447 Q2032.55 255.1 2034.52 257.785 Q2036.51 260.447 2039.96 260.447 Q2043.36 260.447 2045.35 257.762 Q2047.34 255.077 2047.34 250.447 Q2047.34 245.841 2045.35 243.156 Q2043.36 240.447 2039.96 240.447 M2039.96 236.836 Q2045.51 236.836 2048.69 240.447 Q2051.86 244.059 2051.86 250.447 Q2051.86 256.813 2048.69 260.447 Q2045.51 264.058 2039.96 264.058 Q2034.38 264.058 2031.21 260.447 Q2028.06 256.813 2028.06 250.447 Q2028.06 244.059 2031.21 240.447 Q2034.38 236.836 2039.96 236.836 Z" fill="#000000" fill-rule="evenodd" fill-opacity="1" /><path clip-path="url(#clip350)" d="M2080.47 247.739 L2080.47 263.387 L2076.21 263.387 L2076.21 247.878 Q2076.21 244.197 2074.77 242.369 Q2073.34 240.54 2070.47 240.54 Q2067.02 240.54 2065.03 242.739 Q2063.04 244.938 2063.04 248.734 L2063.04 263.387 L2058.76 263.387 L2058.76 237.461 L2063.04 237.461 L2063.04 241.489 Q2064.57 239.151 2066.63 237.994 Q2068.71 236.836 2071.42 236.836 Q2075.89 236.836 2078.18 239.614 Q2080.47 242.369 2080.47 247.739 Z" fill="#000000" fill-rule="evenodd" fill-opacity="1" /></svg>
