<?xml version="1.0" encoding="utf-8"?>
<svg xmlns="http://www.w3.org/2000/svg" xmlns:xlink="http://www.w3.org/1999/xlink" width="576" height="384" viewBox="0 0 2304 1536">
<defs>
  <clipPath id="clip290">
    <rect x="0" y="0" width="2304" height="1536"/>
  </clipPath>
</defs>
<path clip-path="url(#clip290)" d="
M0 1536 L2304 1536 L2304 0 L0 0  Z
  " fill="#ffffff" fill-rule="evenodd" fill-opacity="1"/>
<defs>
  <clipPath id="clip291">
    <rect x="460" y="0" width="1614" height="1536"/>
  </clipPath>
</defs>
<path clip-path="url(#clip290)" d="
M287.633 1347.54 L2256.76 1347.54 L2256.76 47.2441 L287.633 47.2441  Z
  " fill="#ffffff" fill-rule="evenodd" fill-opacity="1"/>
<defs>
  <clipPath id="clip292">
    <rect x="287" y="47" width="1970" height="1301"/>
  </clipPath>
</defs>
<polyline clip-path="url(#clip292)" style="stroke:#000000; stroke-linecap:butt; stroke-linejoin:round; stroke-width:2; stroke-opacity:0.1; fill:none" points="
  449.887,1347.54 449.887,47.2441 
  "/>
<polyline clip-path="url(#clip292)" style="stroke:#000000; stroke-linecap:butt; stroke-linejoin:round; stroke-width:2; stroke-opacity:0.1; fill:none" points="
  817.154,1347.54 817.154,47.2441 
  "/>
<polyline clip-path="url(#clip292)" style="stroke:#000000; stroke-linecap:butt; stroke-linejoin:round; stroke-width:2; stroke-opacity:0.1; fill:none" points="
  1184.42,1347.54 1184.42,47.2441 
  "/>
<polyline clip-path="url(#clip292)" style="stroke:#000000; stroke-linecap:butt; stroke-linejoin:round; stroke-width:2; stroke-opacity:0.1; fill:none" points="
  1551.69,1347.54 1551.69,47.2441 
  "/>
<polyline clip-path="url(#clip292)" style="stroke:#000000; stroke-linecap:butt; stroke-linejoin:round; stroke-width:2; stroke-opacity:0.1; fill:none" points="
  1918.95,1347.54 1918.95,47.2441 
  "/>
<polyline clip-path="url(#clip290)" style="stroke:#000000; stroke-linecap:butt; stroke-linejoin:round; stroke-width:4; stroke-opacity:1; fill:none" points="
  287.633,1347.54 2256.76,1347.54 
  "/>
<polyline clip-path="url(#clip290)" style="stroke:#000000; stroke-linecap:butt; stroke-linejoin:round; stroke-width:4; stroke-opacity:1; fill:none" points="
  449.887,1347.54 449.887,1328.64 
  "/>
<polyline clip-path="url(#clip290)" style="stroke:#000000; stroke-linecap:butt; stroke-linejoin:round; stroke-width:4; stroke-opacity:1; fill:none" points="
  817.154,1347.54 817.154,1328.64 
  "/>
<polyline clip-path="url(#clip290)" style="stroke:#000000; stroke-linecap:butt; stroke-linejoin:round; stroke-width:4; stroke-opacity:1; fill:none" points="
  1184.42,1347.54 1184.42,1328.64 
  "/>
<polyline clip-path="url(#clip290)" style="stroke:#000000; stroke-linecap:butt; stroke-linejoin:round; stroke-width:4; stroke-opacity:1; fill:none" points="
  1551.69,1347.54 1551.69,1328.64 
  "/>
<polyline clip-path="url(#clip290)" style="stroke:#000000; stroke-linecap:butt; stroke-linejoin:round; stroke-width:4; stroke-opacity:1; fill:none" points="
  1918.95,1347.54 1918.95,1328.64 
  "/>
<path clip-path="url(#clip290)" d="M368.876 1420.89 L376.515 1420.89 L376.515 1394.53 L368.204 1396.19 L368.204 1391.94 L376.468 1390.27 L381.144 1390.27 L381.144 1420.89 L388.783 1420.89 L388.783 1424.83 L368.876 1424.83 L368.876 1420.89 Z" fill="#000000" fill-rule="evenodd" fill-opacity="1" /><path clip-path="url(#clip290)" d="M408.227 1393.35 Q404.616 1393.35 402.788 1396.91 Q400.982 1400.45 400.982 1407.58 Q400.982 1414.69 402.788 1418.25 Q404.616 1421.8 408.227 1421.8 Q411.862 1421.8 413.667 1418.25 Q415.496 1414.69 415.496 1407.58 Q415.496 1400.45 413.667 1396.91 Q411.862 1393.35 408.227 1393.35 M408.227 1389.64 Q414.037 1389.64 417.093 1394.25 Q420.172 1398.83 420.172 1407.58 Q420.172 1416.31 417.093 1420.92 Q414.037 1425.5 408.227 1425.5 Q402.417 1425.5 399.338 1420.92 Q396.283 1416.31 396.283 1407.58 Q396.283 1398.83 399.338 1394.25 Q402.417 1389.64 408.227 1389.64 Z" fill="#000000" fill-rule="evenodd" fill-opacity="1" /><path clip-path="url(#clip290)" d="M420.172 1383.74 L444.283 1383.74 L444.283 1386.94 L420.172 1386.94 L420.172 1383.74 Z" fill="#000000" fill-rule="evenodd" fill-opacity="1" /><path clip-path="url(#clip290)" d="M463.994 1382.28 Q466.721 1382.86 468.244 1384.7 Q469.787 1386.55 469.787 1389.26 Q469.787 1393.41 466.928 1395.69 Q464.069 1397.96 458.803 1397.96 Q457.035 1397.96 455.154 1397.61 Q453.292 1397.27 451.299 1396.57 L451.299 1392.9 Q452.878 1393.83 454.759 1394.3 Q456.64 1394.77 458.69 1394.77 Q462.263 1394.77 464.125 1393.36 Q466.006 1391.95 466.006 1389.26 Q466.006 1386.77 464.257 1385.38 Q462.527 1383.97 459.424 1383.97 L456.151 1383.97 L456.151 1380.85 L459.574 1380.85 Q462.376 1380.85 463.862 1379.74 Q465.348 1378.61 465.348 1376.5 Q465.348 1374.34 463.806 1373.19 Q462.282 1372.03 459.424 1372.03 Q457.862 1372.03 456.076 1372.37 Q454.289 1372.7 452.145 1373.42 L452.145 1370.03 Q454.308 1369.43 456.189 1369.13 Q458.088 1368.83 459.762 1368.83 Q464.088 1368.83 466.608 1370.81 Q469.128 1372.76 469.128 1376.11 Q469.128 1378.44 467.793 1380.06 Q466.458 1381.66 463.994 1382.28 Z" fill="#000000" fill-rule="evenodd" fill-opacity="1" /><path clip-path="url(#clip290)" d="M476.99 1392.64 L480.958 1392.64 L480.958 1397.42 L476.99 1397.42 L476.99 1392.64 Z" fill="#000000" fill-rule="evenodd" fill-opacity="1" /><path clip-path="url(#clip290)" d="M497.359 1371.84 Q494.425 1371.84 492.939 1374.74 Q491.472 1377.61 491.472 1383.41 Q491.472 1389.18 492.939 1392.08 Q494.425 1394.95 497.359 1394.95 Q500.312 1394.95 501.779 1392.08 Q503.264 1389.18 503.264 1383.41 Q503.264 1377.61 501.779 1374.74 Q500.312 1371.84 497.359 1371.84 M497.359 1368.83 Q502.08 1368.83 504.562 1372.57 Q507.064 1376.3 507.064 1383.41 Q507.064 1390.5 504.562 1394.24 Q502.08 1397.96 497.359 1397.96 Q492.638 1397.96 490.137 1394.24 Q487.654 1390.5 487.654 1383.41 Q487.654 1376.3 490.137 1372.57 Q492.638 1368.83 497.359 1368.83 Z" fill="#000000" fill-rule="evenodd" fill-opacity="1" /><path clip-path="url(#clip290)" d="M521.865 1371.84 Q518.931 1371.84 517.445 1374.74 Q515.978 1377.61 515.978 1383.41 Q515.978 1389.18 517.445 1392.08 Q518.931 1394.95 521.865 1394.95 Q524.818 1394.95 526.285 1392.08 Q527.771 1389.18 527.771 1383.41 Q527.771 1377.61 526.285 1374.74 Q524.818 1371.84 521.865 1371.84 M521.865 1368.83 Q526.586 1368.83 529.069 1372.57 Q531.57 1376.3 531.57 1383.41 Q531.57 1390.5 529.069 1394.24 Q526.586 1397.96 521.865 1397.96 Q517.145 1397.96 514.643 1394.24 Q512.161 1390.5 512.161 1383.41 Q512.161 1376.3 514.643 1372.57 Q517.145 1368.83 521.865 1368.83 Z" fill="#000000" fill-rule="evenodd" fill-opacity="1" /><path clip-path="url(#clip290)" d="M736.547 1420.89 L744.186 1420.89 L744.186 1394.53 L735.876 1396.19 L735.876 1391.94 L744.14 1390.27 L748.815 1390.27 L748.815 1420.89 L756.454 1420.89 L756.454 1424.83 L736.547 1424.83 L736.547 1420.89 Z" fill="#000000" fill-rule="evenodd" fill-opacity="1" /><path clip-path="url(#clip290)" d="M775.899 1393.35 Q772.288 1393.35 770.459 1396.91 Q768.653 1400.45 768.653 1407.58 Q768.653 1414.69 770.459 1418.25 Q772.288 1421.8 775.899 1421.8 Q779.533 1421.8 781.338 1418.25 Q783.167 1414.69 783.167 1407.58 Q783.167 1400.45 781.338 1396.91 Q779.533 1393.35 775.899 1393.35 M775.899 1389.64 Q781.709 1389.64 784.764 1394.25 Q787.843 1398.83 787.843 1407.58 Q787.843 1416.31 784.764 1420.92 Q781.709 1425.5 775.899 1425.5 Q770.088 1425.5 767.01 1420.92 Q763.954 1416.31 763.954 1407.58 Q763.954 1398.83 767.01 1394.25 Q770.088 1389.64 775.899 1389.64 Z" fill="#000000" fill-rule="evenodd" fill-opacity="1" /><path clip-path="url(#clip290)" d="M787.843 1383.74 L811.955 1383.74 L811.955 1386.94 L787.843 1386.94 L787.843 1383.74 Z" fill="#000000" fill-rule="evenodd" fill-opacity="1" /><path clip-path="url(#clip290)" d="M823.427 1394.22 L836.687 1394.22 L836.687 1397.42 L818.857 1397.42 L818.857 1394.22 Q821.02 1391.98 824.744 1388.22 Q828.487 1384.44 829.446 1383.35 Q831.27 1381.3 831.985 1379.89 Q832.718 1378.46 832.718 1377.09 Q832.718 1374.85 831.138 1373.44 Q829.577 1372.03 827.057 1372.03 Q825.27 1372.03 823.277 1372.65 Q821.302 1373.27 819.045 1374.53 L819.045 1370.69 Q821.34 1369.77 823.333 1369.3 Q825.327 1368.83 826.982 1368.83 Q831.345 1368.83 833.941 1371.01 Q836.536 1373.19 836.536 1376.84 Q836.536 1378.57 835.878 1380.13 Q835.239 1381.68 833.527 1383.78 Q833.057 1384.33 830.537 1386.94 Q828.016 1389.54 823.427 1394.22 Z" fill="#000000" fill-rule="evenodd" fill-opacity="1" /><path clip-path="url(#clip290)" d="M844.661 1392.64 L848.63 1392.64 L848.63 1397.42 L844.661 1397.42 L844.661 1392.64 Z" fill="#000000" fill-rule="evenodd" fill-opacity="1" /><path clip-path="url(#clip290)" d="M855.946 1369.34 L874.001 1369.34 L874.001 1370.96 L863.808 1397.42 L859.839 1397.42 L869.431 1372.54 L855.946 1372.54 L855.946 1369.34 Z" fill="#000000" fill-rule="evenodd" fill-opacity="1" /><path clip-path="url(#clip290)" d="M881.449 1369.34 L896.364 1369.34 L896.364 1372.54 L884.929 1372.54 L884.929 1379.42 Q885.756 1379.14 886.584 1379.01 Q887.411 1378.85 888.239 1378.85 Q892.941 1378.85 895.687 1381.43 Q898.433 1384.01 898.433 1388.41 Q898.433 1392.94 895.612 1395.46 Q892.79 1397.96 887.656 1397.96 Q885.888 1397.96 884.045 1397.66 Q882.22 1397.36 880.264 1396.76 L880.264 1392.94 Q881.957 1393.86 883.763 1394.31 Q885.568 1394.77 887.581 1394.77 Q890.834 1394.77 892.734 1393.05 Q894.634 1391.34 894.634 1388.41 Q894.634 1385.48 892.734 1383.76 Q890.834 1382.05 887.581 1382.05 Q886.057 1382.05 884.534 1382.39 Q883.029 1382.73 881.449 1383.44 L881.449 1369.34 Z" fill="#000000" fill-rule="evenodd" fill-opacity="1" /><path clip-path="url(#clip290)" d="M1103.41 1420.89 L1111.05 1420.89 L1111.05 1394.53 L1102.74 1396.19 L1102.74 1391.94 L1111 1390.27 L1115.68 1390.27 L1115.68 1420.89 L1123.32 1420.89 L1123.32 1424.83 L1103.41 1424.83 L1103.41 1420.89 Z" fill="#000000" fill-rule="evenodd" fill-opacity="1" /><path clip-path="url(#clip290)" d="M1142.76 1393.35 Q1139.15 1393.35 1137.32 1396.91 Q1135.52 1400.45 1135.52 1407.58 Q1135.52 1414.69 1137.32 1418.25 Q1139.15 1421.8 1142.76 1421.8 Q1146.4 1421.8 1148.2 1418.25 Q1150.03 1414.69 1150.03 1407.58 Q1150.03 1400.45 1148.2 1396.91 Q1146.4 1393.35 1142.76 1393.35 M1142.76 1389.64 Q1148.57 1389.64 1151.63 1394.25 Q1154.71 1398.83 1154.71 1407.58 Q1154.71 1416.31 1151.63 1420.92 Q1148.57 1425.5 1142.76 1425.5 Q1136.95 1425.5 1133.87 1420.92 Q1130.82 1416.31 1130.82 1407.58 Q1130.82 1398.83 1133.87 1394.25 Q1136.95 1389.64 1142.76 1389.64 Z" fill="#000000" fill-rule="evenodd" fill-opacity="1" /><path clip-path="url(#clip290)" d="M1154.71 1383.74 L1178.82 1383.74 L1178.82 1386.94 L1154.71 1386.94 L1154.71 1383.74 Z" fill="#000000" fill-rule="evenodd" fill-opacity="1" /><path clip-path="url(#clip290)" d="M1190.29 1394.22 L1203.55 1394.22 L1203.55 1397.42 L1185.72 1397.42 L1185.72 1394.22 Q1187.88 1391.98 1191.61 1388.22 Q1195.35 1384.44 1196.31 1383.35 Q1198.13 1381.3 1198.85 1379.89 Q1199.58 1378.46 1199.58 1377.09 Q1199.58 1374.85 1198 1373.44 Q1196.44 1372.03 1193.92 1372.03 Q1192.13 1372.03 1190.14 1372.65 Q1188.16 1373.27 1185.91 1374.53 L1185.91 1370.69 Q1188.2 1369.77 1190.2 1369.3 Q1192.19 1368.83 1193.84 1368.83 Q1198.21 1368.83 1200.8 1371.01 Q1203.4 1373.19 1203.4 1376.84 Q1203.4 1378.57 1202.74 1380.13 Q1202.1 1381.68 1200.39 1383.78 Q1199.92 1384.33 1197.4 1386.94 Q1194.88 1389.54 1190.29 1394.22 Z" fill="#000000" fill-rule="evenodd" fill-opacity="1" /><path clip-path="url(#clip290)" d="M1211.52 1392.64 L1215.49 1392.64 L1215.49 1397.42 L1211.52 1397.42 L1211.52 1392.64 Z" fill="#000000" fill-rule="evenodd" fill-opacity="1" /><path clip-path="url(#clip290)" d="M1223.81 1369.34 L1238.72 1369.34 L1238.72 1372.54 L1227.28 1372.54 L1227.28 1379.42 Q1228.11 1379.14 1228.94 1379.01 Q1229.77 1378.85 1230.59 1378.85 Q1235.3 1378.85 1238.04 1381.43 Q1240.79 1384.01 1240.79 1388.41 Q1240.79 1392.94 1237.97 1395.46 Q1235.15 1397.96 1230.01 1397.96 Q1228.24 1397.96 1226.4 1397.66 Q1224.58 1397.36 1222.62 1396.76 L1222.62 1392.94 Q1224.31 1393.86 1226.12 1394.31 Q1227.92 1394.77 1229.94 1394.77 Q1233.19 1394.77 1235.09 1393.05 Q1236.99 1391.34 1236.99 1388.41 Q1236.99 1385.48 1235.09 1383.76 Q1233.19 1382.05 1229.94 1382.05 Q1228.41 1382.05 1226.89 1382.39 Q1225.39 1382.73 1223.81 1383.44 L1223.81 1369.34 Z" fill="#000000" fill-rule="evenodd" fill-opacity="1" /><path clip-path="url(#clip290)" d="M1256.4 1371.84 Q1253.47 1371.84 1251.98 1374.74 Q1250.51 1377.61 1250.51 1383.41 Q1250.51 1389.18 1251.98 1392.08 Q1253.47 1394.95 1256.4 1394.95 Q1259.35 1394.95 1260.82 1392.08 Q1262.3 1389.18 1262.3 1383.41 Q1262.3 1377.61 1260.82 1374.74 Q1259.35 1371.84 1256.4 1371.84 M1256.4 1368.83 Q1261.12 1368.83 1263.6 1372.57 Q1266.1 1376.3 1266.1 1383.41 Q1266.1 1390.5 1263.6 1394.24 Q1261.12 1397.96 1256.4 1397.96 Q1251.68 1397.96 1249.18 1394.24 Q1246.69 1390.5 1246.69 1383.41 Q1246.69 1376.3 1249.18 1372.57 Q1251.68 1368.83 1256.4 1368.83 Z" fill="#000000" fill-rule="evenodd" fill-opacity="1" /><path clip-path="url(#clip290)" d="M1471.08 1420.89 L1478.72 1420.89 L1478.72 1394.53 L1470.41 1396.19 L1470.41 1391.94 L1478.67 1390.27 L1483.35 1390.27 L1483.35 1420.89 L1490.99 1420.89 L1490.99 1424.83 L1471.08 1424.83 L1471.08 1420.89 Z" fill="#000000" fill-rule="evenodd" fill-opacity="1" /><path clip-path="url(#clip290)" d="M1510.43 1393.35 Q1506.82 1393.35 1504.99 1396.91 Q1503.19 1400.45 1503.19 1407.58 Q1503.19 1414.69 1504.99 1418.25 Q1506.82 1421.8 1510.43 1421.8 Q1514.07 1421.8 1515.87 1418.25 Q1517.7 1414.69 1517.7 1407.58 Q1517.7 1400.45 1515.87 1396.91 Q1514.07 1393.35 1510.43 1393.35 M1510.43 1389.64 Q1516.24 1389.64 1519.3 1394.25 Q1522.38 1398.83 1522.38 1407.58 Q1522.38 1416.31 1519.3 1420.92 Q1516.24 1425.5 1510.43 1425.5 Q1504.62 1425.5 1501.54 1420.92 Q1498.49 1416.31 1498.49 1407.58 Q1498.49 1398.83 1501.54 1394.25 Q1504.62 1389.64 1510.43 1389.64 Z" fill="#000000" fill-rule="evenodd" fill-opacity="1" /><path clip-path="url(#clip290)" d="M1522.38 1383.74 L1546.49 1383.74 L1546.49 1386.94 L1522.38 1386.94 L1522.38 1383.74 Z" fill="#000000" fill-rule="evenodd" fill-opacity="1" /><path clip-path="url(#clip290)" d="M1557.96 1394.22 L1571.22 1394.22 L1571.22 1397.42 L1553.39 1397.42 L1553.39 1394.22 Q1555.55 1391.98 1559.28 1388.22 Q1563.02 1384.44 1563.98 1383.35 Q1565.8 1381.3 1566.52 1379.89 Q1567.25 1378.46 1567.25 1377.09 Q1567.25 1374.85 1565.67 1373.44 Q1564.11 1372.03 1561.59 1372.03 Q1559.8 1372.03 1557.81 1372.65 Q1555.84 1373.27 1553.58 1374.53 L1553.58 1370.69 Q1555.87 1369.77 1557.87 1369.3 Q1559.86 1368.83 1561.52 1368.83 Q1565.88 1368.83 1568.47 1371.01 Q1571.07 1373.19 1571.07 1376.84 Q1571.07 1378.57 1570.41 1380.13 Q1569.77 1381.68 1568.06 1383.78 Q1567.59 1384.33 1565.07 1386.94 Q1562.55 1389.54 1557.96 1394.22 Z" fill="#000000" fill-rule="evenodd" fill-opacity="1" /><path clip-path="url(#clip290)" d="M1579.2 1392.64 L1583.16 1392.64 L1583.16 1397.42 L1579.2 1397.42 L1579.2 1392.64 Z" fill="#000000" fill-rule="evenodd" fill-opacity="1" /><path clip-path="url(#clip290)" d="M1594.71 1394.22 L1607.97 1394.22 L1607.97 1397.42 L1590.14 1397.42 L1590.14 1394.22 Q1592.3 1391.98 1596.03 1388.22 Q1599.77 1384.44 1600.73 1383.35 Q1602.55 1381.3 1603.27 1379.89 Q1604 1378.46 1604 1377.09 Q1604 1374.85 1602.42 1373.44 Q1600.86 1372.03 1598.34 1372.03 Q1596.55 1372.03 1594.56 1372.65 Q1592.59 1373.27 1590.33 1374.53 L1590.33 1370.69 Q1592.62 1369.77 1594.62 1369.3 Q1596.61 1368.83 1598.27 1368.83 Q1602.63 1368.83 1605.23 1371.01 Q1607.82 1373.19 1607.82 1376.84 Q1607.82 1378.57 1607.16 1380.13 Q1606.52 1381.68 1604.81 1383.78 Q1604.34 1384.33 1601.82 1386.94 Q1599.3 1389.54 1594.71 1394.22 Z" fill="#000000" fill-rule="evenodd" fill-opacity="1" /><path clip-path="url(#clip290)" d="M1615.98 1369.34 L1630.9 1369.34 L1630.9 1372.54 L1619.46 1372.54 L1619.46 1379.42 Q1620.29 1379.14 1621.12 1379.01 Q1621.95 1378.85 1622.77 1378.85 Q1627.47 1378.85 1630.22 1381.43 Q1632.97 1384.01 1632.97 1388.41 Q1632.97 1392.94 1630.15 1395.46 Q1627.32 1397.96 1622.19 1397.96 Q1620.42 1397.96 1618.58 1397.66 Q1616.75 1397.36 1614.8 1396.76 L1614.8 1392.94 Q1616.49 1393.86 1618.3 1394.31 Q1620.1 1394.77 1622.11 1394.77 Q1625.37 1394.77 1627.27 1393.05 Q1629.17 1391.34 1629.17 1388.41 Q1629.17 1385.48 1627.27 1383.76 Q1625.37 1382.05 1622.11 1382.05 Q1620.59 1382.05 1619.07 1382.39 Q1617.56 1382.73 1615.98 1383.44 L1615.98 1369.34 Z" fill="#000000" fill-rule="evenodd" fill-opacity="1" /><path clip-path="url(#clip290)" d="M1837.94 1420.89 L1845.58 1420.89 L1845.58 1394.53 L1837.27 1396.19 L1837.27 1391.94 L1845.54 1390.27 L1850.21 1390.27 L1850.21 1420.89 L1857.85 1420.89 L1857.85 1424.83 L1837.94 1424.83 L1837.94 1420.89 Z" fill="#000000" fill-rule="evenodd" fill-opacity="1" /><path clip-path="url(#clip290)" d="M1877.3 1393.35 Q1873.68 1393.35 1871.86 1396.91 Q1870.05 1400.45 1870.05 1407.58 Q1870.05 1414.69 1871.86 1418.25 Q1873.68 1421.8 1877.3 1421.8 Q1880.93 1421.8 1882.73 1418.25 Q1884.56 1414.69 1884.56 1407.58 Q1884.56 1400.45 1882.73 1396.91 Q1880.93 1393.35 1877.3 1393.35 M1877.3 1389.64 Q1883.11 1389.64 1886.16 1394.25 Q1889.24 1398.83 1889.24 1407.58 Q1889.24 1416.31 1886.16 1420.92 Q1883.11 1425.5 1877.3 1425.5 Q1871.48 1425.5 1868.41 1420.92 Q1865.35 1416.31 1865.35 1407.58 Q1865.35 1398.83 1868.41 1394.25 Q1871.48 1389.64 1877.3 1389.64 Z" fill="#000000" fill-rule="evenodd" fill-opacity="1" /><path clip-path="url(#clip290)" d="M1889.24 1383.74 L1913.35 1383.74 L1913.35 1386.94 L1889.24 1386.94 L1889.24 1383.74 Z" fill="#000000" fill-rule="evenodd" fill-opacity="1" /><path clip-path="url(#clip290)" d="M1924.82 1394.22 L1938.08 1394.22 L1938.08 1397.42 L1920.25 1397.42 L1920.25 1394.22 Q1922.42 1391.98 1926.14 1388.22 Q1929.88 1384.44 1930.84 1383.35 Q1932.67 1381.3 1933.38 1379.89 Q1934.11 1378.46 1934.11 1377.09 Q1934.11 1374.85 1932.53 1373.44 Q1930.97 1372.03 1928.45 1372.03 Q1926.67 1372.03 1924.67 1372.65 Q1922.7 1373.27 1920.44 1374.53 L1920.44 1370.69 Q1922.74 1369.77 1924.73 1369.3 Q1926.72 1368.83 1928.38 1368.83 Q1932.74 1368.83 1935.34 1371.01 Q1937.93 1373.19 1937.93 1376.84 Q1937.93 1378.57 1937.27 1380.13 Q1936.63 1381.68 1934.92 1383.78 Q1934.45 1384.33 1931.93 1386.94 Q1929.41 1389.54 1924.82 1394.22 Z" fill="#000000" fill-rule="evenodd" fill-opacity="1" /><path clip-path="url(#clip290)" d="M1946.06 1392.64 L1950.03 1392.64 L1950.03 1397.42 L1946.06 1397.42 L1946.06 1392.64 Z" fill="#000000" fill-rule="evenodd" fill-opacity="1" /><path clip-path="url(#clip290)" d="M1966.43 1371.84 Q1963.49 1371.84 1962.01 1374.74 Q1960.54 1377.61 1960.54 1383.41 Q1960.54 1389.18 1962.01 1392.08 Q1963.49 1394.95 1966.43 1394.95 Q1969.38 1394.95 1970.85 1392.08 Q1972.33 1389.18 1972.33 1383.41 Q1972.33 1377.61 1970.85 1374.74 Q1969.38 1371.84 1966.43 1371.84 M1966.43 1368.83 Q1971.15 1368.83 1973.63 1372.57 Q1976.13 1376.3 1976.13 1383.41 Q1976.13 1390.5 1973.63 1394.24 Q1971.15 1397.96 1966.43 1397.96 Q1961.71 1397.96 1959.2 1394.24 Q1956.72 1390.5 1956.72 1383.41 Q1956.72 1376.3 1959.2 1372.57 Q1961.71 1368.83 1966.43 1368.83 Z" fill="#000000" fill-rule="evenodd" fill-opacity="1" /><path clip-path="url(#clip290)" d="M1990.93 1371.84 Q1988 1371.84 1986.51 1374.74 Q1985.05 1377.61 1985.05 1383.41 Q1985.05 1389.18 1986.51 1392.08 Q1988 1394.95 1990.93 1394.95 Q1993.89 1394.95 1995.35 1392.08 Q1996.84 1389.18 1996.84 1383.41 Q1996.84 1377.61 1995.35 1374.74 Q1993.89 1371.84 1990.93 1371.84 M1990.93 1368.83 Q1995.65 1368.83 1998.14 1372.57 Q2000.64 1376.3 2000.64 1383.41 Q2000.64 1390.5 1998.14 1394.24 Q1995.65 1397.96 1990.93 1397.96 Q1986.21 1397.96 1983.71 1394.24 Q1981.23 1390.5 1981.23 1383.41 Q1981.23 1376.3 1983.71 1372.57 Q1986.21 1368.83 1990.93 1368.83 Z" fill="#000000" fill-rule="evenodd" fill-opacity="1" /><path clip-path="url(#clip290)" d="M1195.95 1461.87 L1226 1461.87 L1226 1467.28 L1202.38 1467.28 L1202.38 1481.34 L1225.01 1481.34 L1225.01 1486.76 L1202.38 1486.76 L1202.38 1503.97 L1226.57 1503.97 L1226.57 1509.39 L1195.95 1509.39 L1195.95 1461.87 Z" fill="#000000" fill-rule="evenodd" fill-opacity="1" /><path clip-path="url(#clip290)" d="M1257.54 1479.21 Q1256.55 1478.64 1255.37 1478.38 Q1254.23 1478.1 1252.83 1478.1 Q1247.86 1478.1 1245.19 1481.34 Q1242.55 1484.56 1242.55 1490.61 L1242.55 1509.39 L1236.66 1509.39 L1236.66 1473.74 L1242.55 1473.74 L1242.55 1479.28 Q1244.39 1476.03 1247.35 1474.47 Q1250.31 1472.88 1254.55 1472.88 Q1255.15 1472.88 1255.88 1472.97 Q1256.61 1473.04 1257.51 1473.2 L1257.54 1479.21 Z" fill="#000000" fill-rule="evenodd" fill-opacity="1" /><path clip-path="url(#clip290)" d="M1283.19 1479.21 Q1282.2 1478.64 1281.03 1478.38 Q1279.88 1478.1 1278.48 1478.1 Q1273.52 1478.1 1270.84 1481.34 Q1268.2 1484.56 1268.2 1490.61 L1268.2 1509.39 L1262.31 1509.39 L1262.31 1473.74 L1268.2 1473.74 L1268.2 1479.28 Q1270.05 1476.03 1273.01 1474.47 Q1275.97 1472.88 1280.2 1472.88 Q1280.8 1472.88 1281.54 1472.97 Q1282.27 1473.04 1283.16 1473.2 L1283.19 1479.21 Z" fill="#000000" fill-rule="evenodd" fill-opacity="1" /><path clip-path="url(#clip290)" d="M1301.72 1477.84 Q1297 1477.84 1294.27 1481.54 Q1291.53 1485.2 1291.53 1491.59 Q1291.53 1497.99 1294.24 1501.68 Q1296.97 1505.34 1301.72 1505.34 Q1306.39 1505.34 1309.13 1501.65 Q1311.87 1497.96 1311.87 1491.59 Q1311.87 1485.26 1309.13 1481.57 Q1306.39 1477.84 1301.72 1477.84 M1301.72 1472.88 Q1309.35 1472.88 1313.71 1477.84 Q1318.08 1482.81 1318.08 1491.59 Q1318.08 1500.35 1313.71 1505.34 Q1309.35 1510.31 1301.72 1510.31 Q1294.04 1510.31 1289.68 1505.34 Q1285.36 1500.35 1285.36 1491.59 Q1285.36 1482.81 1289.68 1477.84 Q1294.04 1472.88 1301.72 1472.88 Z" fill="#000000" fill-rule="evenodd" fill-opacity="1" /><path clip-path="url(#clip290)" d="M1348.44 1479.21 Q1347.45 1478.64 1346.28 1478.38 Q1345.13 1478.1 1343.73 1478.1 Q1338.76 1478.1 1336.09 1481.34 Q1333.45 1484.56 1333.45 1490.61 L1333.45 1509.39 L1327.56 1509.39 L1327.56 1473.74 L1333.45 1473.74 L1333.45 1479.28 Q1335.29 1476.03 1338.25 1474.47 Q1341.21 1472.88 1345.45 1472.88 Q1346.05 1472.88 1346.78 1472.97 Q1347.52 1473.04 1348.41 1473.2 L1348.44 1479.21 Z" fill="#000000" fill-rule="evenodd" fill-opacity="1" /><polyline clip-path="url(#clip292)" style="stroke:#000000; stroke-linecap:butt; stroke-linejoin:round; stroke-width:2; stroke-opacity:0.1; fill:none" points="
  287.633,987.792 2256.76,987.792 
  "/>
<polyline clip-path="url(#clip292)" style="stroke:#000000; stroke-linecap:butt; stroke-linejoin:round; stroke-width:2; stroke-opacity:0.1; fill:none" points="
  287.633,593.095 2256.76,593.095 
  "/>
<polyline clip-path="url(#clip292)" style="stroke:#000000; stroke-linecap:butt; stroke-linejoin:round; stroke-width:2; stroke-opacity:0.1; fill:none" points="
  287.633,198.398 2256.76,198.398 
  "/>
<polyline clip-path="url(#clip290)" style="stroke:#000000; stroke-linecap:butt; stroke-linejoin:round; stroke-width:4; stroke-opacity:1; fill:none" points="
  287.633,1347.54 287.633,47.2441 
  "/>
<polyline clip-path="url(#clip290)" style="stroke:#000000; stroke-linecap:butt; stroke-linejoin:round; stroke-width:4; stroke-opacity:1; fill:none" points="
  287.633,987.792 306.53,987.792 
  "/>
<polyline clip-path="url(#clip290)" style="stroke:#000000; stroke-linecap:butt; stroke-linejoin:round; stroke-width:4; stroke-opacity:1; fill:none" points="
  287.633,593.095 306.53,593.095 
  "/>
<polyline clip-path="url(#clip290)" style="stroke:#000000; stroke-linecap:butt; stroke-linejoin:round; stroke-width:4; stroke-opacity:1; fill:none" points="
  287.633,198.398 306.53,198.398 
  "/>
<path clip-path="url(#clip290)" d="M115.411 1007.58 L123.05 1007.58 L123.05 981.219 L114.74 982.886 L114.74 978.626 L123.004 976.96 L127.68 976.96 L127.68 1007.58 L135.319 1007.58 L135.319 1011.52 L115.411 1011.52 L115.411 1007.58 Z" fill="#000000" fill-rule="evenodd" fill-opacity="1" /><path clip-path="url(#clip290)" d="M154.763 980.038 Q151.152 980.038 149.323 983.603 Q147.518 987.145 147.518 994.274 Q147.518 1001.38 149.323 1004.95 Q151.152 1008.49 154.763 1008.49 Q158.397 1008.49 160.203 1004.95 Q162.032 1001.38 162.032 994.274 Q162.032 987.145 160.203 983.603 Q158.397 980.038 154.763 980.038 M154.763 976.335 Q160.573 976.335 163.629 980.941 Q166.707 985.524 166.707 994.274 Q166.707 1003 163.629 1007.61 Q160.573 1012.19 154.763 1012.19 Q148.953 1012.19 145.874 1007.61 Q142.819 1003 142.819 994.274 Q142.819 985.524 145.874 980.941 Q148.953 976.335 154.763 976.335 Z" fill="#000000" fill-rule="evenodd" fill-opacity="1" /><path clip-path="url(#clip290)" d="M166.707 970.436 L190.819 970.436 L190.819 973.633 L166.707 973.633 L166.707 970.436 Z" fill="#000000" fill-rule="evenodd" fill-opacity="1" /><path clip-path="url(#clip290)" d="M199.677 980.912 L205.884 980.912 L205.884 959.49 L199.132 960.844 L199.132 957.383 L205.846 956.029 L209.646 956.029 L209.646 980.912 L215.852 980.912 L215.852 984.109 L199.677 984.109 L199.677 980.912 Z" fill="#000000" fill-rule="evenodd" fill-opacity="1" /><path clip-path="url(#clip290)" d="M223.526 979.332 L227.494 979.332 L227.494 984.109 L223.526 984.109 L223.526 979.332 Z" fill="#000000" fill-rule="evenodd" fill-opacity="1" /><path clip-path="url(#clip290)" d="M247.28 968.969 Q250.007 969.552 251.531 971.395 Q253.073 973.238 253.073 975.947 Q253.073 980.103 250.214 982.379 Q247.355 984.655 242.089 984.655 Q240.321 984.655 238.44 984.297 Q236.578 983.959 234.585 983.263 L234.585 979.595 Q236.165 980.517 238.045 980.987 Q239.926 981.457 241.976 981.457 Q245.55 981.457 247.412 980.047 Q249.292 978.636 249.292 975.947 Q249.292 973.464 247.543 972.072 Q245.813 970.662 242.71 970.662 L239.437 970.662 L239.437 967.54 L242.86 967.54 Q245.662 967.54 247.148 966.43 Q248.634 965.301 248.634 963.195 Q248.634 961.032 247.092 959.885 Q245.568 958.719 242.71 958.719 Q241.149 958.719 239.362 959.057 Q237.575 959.396 235.431 960.111 L235.431 956.725 Q237.594 956.123 239.475 955.822 Q241.374 955.521 243.048 955.521 Q247.374 955.521 249.894 957.496 Q252.414 959.452 252.414 962.8 Q252.414 965.132 251.079 966.75 Q249.744 968.348 247.28 968.969 Z" fill="#000000" fill-rule="evenodd" fill-opacity="1" /><path clip-path="url(#clip290)" d="M116.183 612.888 L123.821 612.888 L123.821 586.522 L115.511 588.189 L115.511 583.929 L123.775 582.263 L128.451 582.263 L128.451 612.888 L136.09 612.888 L136.09 616.823 L116.183 616.823 L116.183 612.888 Z" fill="#000000" fill-rule="evenodd" fill-opacity="1" /><path clip-path="url(#clip290)" d="M155.534 585.341 Q151.923 585.341 150.094 588.906 Q148.289 592.448 148.289 599.578 Q148.289 606.684 150.094 610.249 Q151.923 613.79 155.534 613.79 Q159.168 613.79 160.974 610.249 Q162.803 606.684 162.803 599.578 Q162.803 592.448 160.974 588.906 Q159.168 585.341 155.534 585.341 M155.534 581.638 Q161.344 581.638 164.4 586.244 Q167.479 590.828 167.479 599.578 Q167.479 608.304 164.4 612.911 Q161.344 617.494 155.534 617.494 Q149.724 617.494 146.645 612.911 Q143.59 608.304 143.59 599.578 Q143.59 590.828 146.645 586.244 Q149.724 581.638 155.534 581.638 Z" fill="#000000" fill-rule="evenodd" fill-opacity="1" /><path clip-path="url(#clip290)" d="M167.479 575.739 L191.59 575.739 L191.59 578.936 L167.479 578.936 L167.479 575.739 Z" fill="#000000" fill-rule="evenodd" fill-opacity="1" /><path clip-path="url(#clip290)" d="M200.449 586.215 L206.655 586.215 L206.655 564.793 L199.903 566.147 L199.903 562.687 L206.618 561.332 L210.417 561.332 L210.417 586.215 L216.623 586.215 L216.623 589.412 L200.449 589.412 L200.449 586.215 Z" fill="#000000" fill-rule="evenodd" fill-opacity="1" /><path clip-path="url(#clip290)" d="M224.297 584.635 L228.265 584.635 L228.265 589.412 L224.297 589.412 L224.297 584.635 Z" fill="#000000" fill-rule="evenodd" fill-opacity="1" /><path clip-path="url(#clip290)" d="M239.813 586.215 L253.073 586.215 L253.073 589.412 L235.243 589.412 L235.243 586.215 Q237.406 583.977 241.13 580.215 Q244.873 576.435 245.832 575.344 Q247.656 573.294 248.371 571.884 Q249.104 570.454 249.104 569.081 Q249.104 566.843 247.524 565.432 Q245.963 564.022 243.443 564.022 Q241.656 564.022 239.663 564.643 Q237.688 565.263 235.431 566.523 L235.431 562.687 Q237.726 561.765 239.719 561.295 Q241.713 560.825 243.368 560.825 Q247.731 560.825 250.327 563.006 Q252.922 565.188 252.922 568.837 Q252.922 570.567 252.264 572.128 Q251.625 573.67 249.913 575.777 Q249.443 576.322 246.923 578.936 Q244.402 581.532 239.813 586.215 Z" fill="#000000" fill-rule="evenodd" fill-opacity="1" /><path clip-path="url(#clip290)" d="M115.882 218.191 L123.52 218.191 L123.52 191.825 L115.21 193.492 L115.21 189.233 L123.474 187.566 L128.15 187.566 L128.15 218.191 L135.789 218.191 L135.789 222.126 L115.882 222.126 L115.882 218.191 Z" fill="#000000" fill-rule="evenodd" fill-opacity="1" /><path clip-path="url(#clip290)" d="M155.233 190.645 Q151.622 190.645 149.793 194.209 Q147.988 197.751 147.988 204.881 Q147.988 211.987 149.793 215.552 Q151.622 219.094 155.233 219.094 Q158.868 219.094 160.673 215.552 Q162.502 211.987 162.502 204.881 Q162.502 197.751 160.673 194.209 Q158.868 190.645 155.233 190.645 M155.233 186.941 Q161.043 186.941 164.099 191.547 Q167.178 196.131 167.178 204.881 Q167.178 213.607 164.099 218.214 Q161.043 222.797 155.233 222.797 Q149.423 222.797 146.344 218.214 Q143.289 213.607 143.289 204.881 Q143.289 196.131 146.344 191.547 Q149.423 186.941 155.233 186.941 Z" fill="#000000" fill-rule="evenodd" fill-opacity="1" /><path clip-path="url(#clip290)" d="M167.178 181.042 L191.289 181.042 L191.289 184.24 L167.178 184.24 L167.178 181.042 Z" fill="#000000" fill-rule="evenodd" fill-opacity="1" /><path clip-path="url(#clip290)" d="M200.148 191.518 L206.354 191.518 L206.354 170.096 L199.602 171.45 L199.602 167.99 L206.317 166.636 L210.116 166.636 L210.116 191.518 L216.322 191.518 L216.322 194.716 L200.148 194.716 L200.148 191.518 Z" fill="#000000" fill-rule="evenodd" fill-opacity="1" /><path clip-path="url(#clip290)" d="M223.996 189.938 L227.964 189.938 L227.964 194.716 L223.996 194.716 L223.996 189.938 Z" fill="#000000" fill-rule="evenodd" fill-opacity="1" /><path clip-path="url(#clip290)" d="M236.898 191.518 L243.105 191.518 L243.105 170.096 L236.353 171.45 L236.353 167.99 L243.067 166.636 L246.866 166.636 L246.866 191.518 L253.073 191.518 L253.073 194.716 L236.898 194.716 L236.898 191.518 Z" fill="#000000" fill-rule="evenodd" fill-opacity="1" /><path clip-path="url(#clip290)" d="M18.4042 827.219 L18.4042 787.02 L23.815 787.02 L23.815 803.889 L65.9242 803.889 L65.9242 810.35 L23.815 810.35 L23.815 827.219 L18.4042 827.219 Z" fill="#000000" fill-rule="evenodd" fill-opacity="1" /><path clip-path="url(#clip290)" d="M30.2762 783.073 L30.2762 777.216 L65.9242 777.216 L65.9242 783.073 L30.2762 783.073 M16.399 783.073 L16.399 777.216 L23.815 777.216 L23.815 783.073 L16.399 783.073 Z" fill="#000000" fill-rule="evenodd" fill-opacity="1" /><path clip-path="url(#clip290)" d="M37.1193 737.208 Q33.1726 735.012 31.2947 731.956 Q29.4168 728.901 29.4168 724.763 Q29.4168 719.193 33.3317 716.169 Q37.2148 713.145 44.4081 713.145 L65.9242 713.145 L65.9242 719.034 L44.599 719.034 Q39.4746 719.034 36.992 720.848 Q34.5094 722.662 34.5094 726.386 Q34.5094 730.938 37.5331 733.579 Q40.5568 736.221 45.7767 736.221 L65.9242 736.221 L65.9242 742.109 L44.599 742.109 Q39.4428 742.109 36.992 743.924 Q34.5094 745.738 34.5094 749.526 Q34.5094 754.013 37.5649 756.655 Q40.5886 759.297 45.7767 759.297 L65.9242 759.297 L65.9242 765.185 L30.2762 765.185 L30.2762 759.297 L35.8144 759.297 Q32.536 757.292 30.9764 754.491 Q29.4168 751.69 29.4168 747.839 Q29.4168 743.956 31.3902 741.25 Q33.3636 738.513 37.1193 737.208 Z" fill="#000000" fill-rule="evenodd" fill-opacity="1" /><path clip-path="url(#clip290)" d="M46.6361 670.973 L49.5006 670.973 L49.5006 697.9 Q55.5481 697.518 58.7309 694.271 Q61.8819 690.993 61.8819 685.168 Q61.8819 681.794 61.0544 678.643 Q60.2269 675.461 58.5718 672.341 L64.1099 672.341 Q65.4467 675.492 66.147 678.803 Q66.8472 682.113 66.8472 685.518 Q66.8472 694.048 61.8819 699.045 Q56.9167 704.011 48.4503 704.011 Q39.6974 704.011 34.5731 699.3 Q29.4168 694.558 29.4168 686.537 Q29.4168 679.344 34.0638 675.174 Q38.6789 670.973 46.6361 670.973 M44.9173 676.829 Q40.1112 676.893 37.2466 679.535 Q34.3821 682.145 34.3821 686.473 Q34.3821 691.375 37.1512 694.335 Q39.9202 697.263 44.9492 697.709 L44.9173 676.829 Z" fill="#000000" fill-rule="evenodd" fill-opacity="1" /><path clip-path="url(#clip290)" d="M16.4626 626.572 Q23.7832 630.837 30.9446 632.906 Q38.106 634.975 45.4584 634.975 Q52.8108 634.975 60.0359 632.906 Q67.2291 630.805 74.5179 626.572 L74.5179 631.664 Q67.0382 636.439 59.8131 638.826 Q52.588 641.181 45.4584 641.181 Q38.3606 641.181 31.1674 638.826 Q23.9742 636.471 16.4626 631.664 L16.4626 626.572 Z" fill="#000000" fill-rule="evenodd" fill-opacity="1" /><path clip-path="url(#clip290)" d="M31.3265 592.484 L36.8647 592.484 Q35.5916 594.966 34.955 597.64 Q34.3184 600.313 34.3184 603.178 Q34.3184 607.538 35.6552 609.735 Q36.992 611.899 39.6656 611.899 Q41.7026 611.899 42.8803 610.339 Q44.0261 608.78 45.0765 604.069 L45.5221 602.064 Q46.8589 595.826 49.3097 593.216 Q51.7286 590.574 56.0891 590.574 Q61.0544 590.574 63.9508 594.521 Q66.8472 598.435 66.8472 605.31 Q66.8472 608.175 66.2743 611.294 Q65.7332 614.382 64.6192 617.819 L58.5718 617.819 Q60.2587 614.573 61.118 611.422 Q61.9456 608.27 61.9456 605.183 Q61.9456 601.045 60.5451 598.817 Q59.1129 596.589 56.5347 596.589 Q54.1476 596.589 52.8745 598.213 Q51.6013 599.804 50.4237 605.247 L49.9462 607.284 Q48.8004 612.726 46.4451 615.145 Q44.058 617.564 39.9202 617.564 Q34.8913 617.564 32.1541 614 Q29.4168 610.435 29.4168 603.878 Q29.4168 600.632 29.8943 597.767 Q30.3717 594.902 31.3265 592.484 Z" fill="#000000" fill-rule="evenodd" fill-opacity="1" /><path clip-path="url(#clip290)" d="M16.4626 582.171 L16.4626 577.079 Q23.9742 572.304 31.1674 569.949 Q38.3606 567.562 45.4584 567.562 Q52.588 567.562 59.8131 569.949 Q67.0382 572.304 74.5179 577.079 L74.5179 582.171 Q67.2291 577.938 60.0359 575.869 Q52.8108 573.768 45.4584 573.768 Q38.106 573.768 30.9446 575.869 Q23.7832 577.938 16.4626 582.171 Z" fill="#000000" fill-rule="evenodd" fill-opacity="1" /><polyline clip-path="url(#clip292)" style="stroke:#009af9; stroke-linecap:butt; stroke-linejoin:round; stroke-width:12; stroke-opacity:1; fill:none" points="
  2201.03,897.274 910.477,748.758 343.363,231.588 1076.94,84.0448 
  "/>
<line clip-path="url(#clip292)" x1="2201.03" y1="897.274" x2="2201.03" y2="881.274" style="stroke:#009af9; stroke-width:3.072; stroke-opacity:1"/>
<line clip-path="url(#clip292)" x1="2201.03" y1="897.274" x2="2185.03" y2="897.274" style="stroke:#009af9; stroke-width:3.072; stroke-opacity:1"/>
<line clip-path="url(#clip292)" x1="2201.03" y1="897.274" x2="2201.03" y2="913.274" style="stroke:#009af9; stroke-width:3.072; stroke-opacity:1"/>
<line clip-path="url(#clip292)" x1="2201.03" y1="897.274" x2="2217.03" y2="897.274" style="stroke:#009af9; stroke-width:3.072; stroke-opacity:1"/>
<line clip-path="url(#clip292)" x1="910.477" y1="748.758" x2="910.477" y2="732.758" style="stroke:#009af9; stroke-width:3.072; stroke-opacity:1"/>
<line clip-path="url(#clip292)" x1="910.477" y1="748.758" x2="894.477" y2="748.758" style="stroke:#009af9; stroke-width:3.072; stroke-opacity:1"/>
<line clip-path="url(#clip292)" x1="910.477" y1="748.758" x2="910.477" y2="764.758" style="stroke:#009af9; stroke-width:3.072; stroke-opacity:1"/>
<line clip-path="url(#clip292)" x1="910.477" y1="748.758" x2="926.477" y2="748.758" style="stroke:#009af9; stroke-width:3.072; stroke-opacity:1"/>
<line clip-path="url(#clip292)" x1="343.363" y1="231.588" x2="343.363" y2="215.588" style="stroke:#009af9; stroke-width:3.072; stroke-opacity:1"/>
<line clip-path="url(#clip292)" x1="343.363" y1="231.588" x2="327.363" y2="231.588" style="stroke:#009af9; stroke-width:3.072; stroke-opacity:1"/>
<line clip-path="url(#clip292)" x1="343.363" y1="231.588" x2="343.363" y2="247.588" style="stroke:#009af9; stroke-width:3.072; stroke-opacity:1"/>
<line clip-path="url(#clip292)" x1="343.363" y1="231.588" x2="359.363" y2="231.588" style="stroke:#009af9; stroke-width:3.072; stroke-opacity:1"/>
<line clip-path="url(#clip292)" x1="1076.94" y1="84.0448" x2="1076.94" y2="68.0448" style="stroke:#009af9; stroke-width:3.072; stroke-opacity:1"/>
<line clip-path="url(#clip292)" x1="1076.94" y1="84.0448" x2="1060.94" y2="84.0448" style="stroke:#009af9; stroke-width:3.072; stroke-opacity:1"/>
<line clip-path="url(#clip292)" x1="1076.94" y1="84.0448" x2="1076.94" y2="100.045" style="stroke:#009af9; stroke-width:3.072; stroke-opacity:1"/>
<line clip-path="url(#clip292)" x1="1076.94" y1="84.0448" x2="1092.94" y2="84.0448" style="stroke:#009af9; stroke-width:3.072; stroke-opacity:1"/>
<polyline clip-path="url(#clip292)" style="stroke:#e26f46; stroke-linecap:butt; stroke-linejoin:round; stroke-width:12; stroke-opacity:1; fill:none" points="
  2201.03,1195.01 910.477,1310.74 343.363,541.449 1076.94,768.821 
  "/>
<circle clip-path="url(#clip292)" cx="2201.03" cy="1195.01" r="14" fill="#e26f46" fill-rule="evenodd" fill-opacity="1" stroke="#000000" stroke-opacity="1" stroke-width="3.072"/>
<circle clip-path="url(#clip292)" cx="910.477" cy="1310.74" r="14" fill="#e26f46" fill-rule="evenodd" fill-opacity="1" stroke="#000000" stroke-opacity="1" stroke-width="3.072"/>
<circle clip-path="url(#clip292)" cx="343.363" cy="541.449" r="14" fill="#e26f46" fill-rule="evenodd" fill-opacity="1" stroke="#000000" stroke-opacity="1" stroke-width="3.072"/>
<circle clip-path="url(#clip292)" cx="1076.94" cy="768.821" r="14" fill="#e26f46" fill-rule="evenodd" fill-opacity="1" stroke="#000000" stroke-opacity="1" stroke-width="3.072"/>
<polyline clip-path="url(#clip292)" style="stroke:#3da44d; stroke-linecap:butt; stroke-linejoin:round; stroke-width:12; stroke-opacity:1; fill:none" points="
  2201.03,897.691 910.477,951.094 343.363,225.007 1076.94,314.361 
  "/>
<line clip-path="url(#clip292)" x1="2201.03" y1="897.691" x2="2201.03" y2="881.691" style="stroke:#3da44d; stroke-width:3.072; stroke-opacity:1"/>
<line clip-path="url(#clip292)" x1="2201.03" y1="897.691" x2="2185.03" y2="897.691" style="stroke:#3da44d; stroke-width:3.072; stroke-opacity:1"/>
<line clip-path="url(#clip292)" x1="2201.03" y1="897.691" x2="2201.03" y2="913.691" style="stroke:#3da44d; stroke-width:3.072; stroke-opacity:1"/>
<line clip-path="url(#clip292)" x1="2201.03" y1="897.691" x2="2217.03" y2="897.691" style="stroke:#3da44d; stroke-width:3.072; stroke-opacity:1"/>
<line clip-path="url(#clip292)" x1="910.477" y1="951.094" x2="910.477" y2="935.094" style="stroke:#3da44d; stroke-width:3.072; stroke-opacity:1"/>
<line clip-path="url(#clip292)" x1="910.477" y1="951.094" x2="894.477" y2="951.094" style="stroke:#3da44d; stroke-width:3.072; stroke-opacity:1"/>
<line clip-path="url(#clip292)" x1="910.477" y1="951.094" x2="910.477" y2="967.094" style="stroke:#3da44d; stroke-width:3.072; stroke-opacity:1"/>
<line clip-path="url(#clip292)" x1="910.477" y1="951.094" x2="926.477" y2="951.094" style="stroke:#3da44d; stroke-width:3.072; stroke-opacity:1"/>
<line clip-path="url(#clip292)" x1="343.363" y1="225.007" x2="343.363" y2="209.007" style="stroke:#3da44d; stroke-width:3.072; stroke-opacity:1"/>
<line clip-path="url(#clip292)" x1="343.363" y1="225.007" x2="327.363" y2="225.007" style="stroke:#3da44d; stroke-width:3.072; stroke-opacity:1"/>
<line clip-path="url(#clip292)" x1="343.363" y1="225.007" x2="343.363" y2="241.007" style="stroke:#3da44d; stroke-width:3.072; stroke-opacity:1"/>
<line clip-path="url(#clip292)" x1="343.363" y1="225.007" x2="359.363" y2="225.007" style="stroke:#3da44d; stroke-width:3.072; stroke-opacity:1"/>
<line clip-path="url(#clip292)" x1="1076.94" y1="314.361" x2="1076.94" y2="298.361" style="stroke:#3da44d; stroke-width:3.072; stroke-opacity:1"/>
<line clip-path="url(#clip292)" x1="1076.94" y1="314.361" x2="1060.94" y2="314.361" style="stroke:#3da44d; stroke-width:3.072; stroke-opacity:1"/>
<line clip-path="url(#clip292)" x1="1076.94" y1="314.361" x2="1076.94" y2="330.361" style="stroke:#3da44d; stroke-width:3.072; stroke-opacity:1"/>
<line clip-path="url(#clip292)" x1="1076.94" y1="314.361" x2="1092.94" y2="314.361" style="stroke:#3da44d; stroke-width:3.072; stroke-opacity:1"/>
<path clip-path="url(#clip290)" d="
M1705.92 297.947 L2191.12 297.947 L2191.12 90.5872 L1705.92 90.5872  Z
  " fill="#ffffff" fill-rule="evenodd" fill-opacity="1"/>
<polyline clip-path="url(#clip290)" style="stroke:#000000; stroke-linecap:butt; stroke-linejoin:round; stroke-width:4; stroke-opacity:1; fill:none" points="
  1705.92,297.947 2191.12,297.947 2191.12,90.5872 1705.92,90.5872 1705.92,297.947 
  "/>
<polyline clip-path="url(#clip290)" style="stroke:#009af9; stroke-linecap:butt; stroke-linejoin:round; stroke-width:4; stroke-opacity:1; fill:none" points="
  1727.8,142.427 1859.07,142.427 
  "/>
<line clip-path="url(#clip290)" x1="1793.43" y1="142.427" x2="1793.43" y2="116.827" style="stroke:#009af9; stroke-width:4.9152; stroke-opacity:1"/>
<line clip-path="url(#clip290)" x1="1793.43" y1="142.427" x2="1767.83" y2="142.427" style="stroke:#009af9; stroke-width:4.9152; stroke-opacity:1"/>
<line clip-path="url(#clip290)" x1="1793.43" y1="142.427" x2="1793.43" y2="168.027" style="stroke:#009af9; stroke-width:4.9152; stroke-opacity:1"/>
<line clip-path="url(#clip290)" x1="1793.43" y1="142.427" x2="1819.03" y2="142.427" style="stroke:#009af9; stroke-width:4.9152; stroke-opacity:1"/>
<path clip-path="url(#clip290)" d="M1880.95 149.476 L1880.95 133.781 L1885.21 133.781 L1885.21 149.314 Q1885.21 152.994 1886.64 154.846 Q1888.08 156.675 1890.95 156.675 Q1894.4 156.675 1896.39 154.476 Q1898.4 152.277 1898.4 148.48 L1898.4 133.781 L1902.66 133.781 L1902.66 159.707 L1898.4 159.707 L1898.4 155.726 Q1896.85 158.087 1894.79 159.244 Q1892.76 160.378 1890.05 160.378 Q1885.58 160.378 1883.26 157.601 Q1880.95 154.823 1880.95 149.476 M1891.67 133.156 L1891.67 133.156 Z" fill="#000000" fill-rule="evenodd" fill-opacity="1" /><path clip-path="url(#clip290)" d="M1932.99 144.059 L1932.99 159.707 L1928.73 159.707 L1928.73 144.198 Q1928.73 140.517 1927.29 138.689 Q1925.86 136.86 1922.99 136.86 Q1919.54 136.86 1917.55 139.059 Q1915.56 141.258 1915.56 145.054 L1915.56 159.707 L1911.27 159.707 L1911.27 133.781 L1915.56 133.781 L1915.56 137.809 Q1917.08 135.471 1919.14 134.314 Q1921.23 133.156 1923.94 133.156 Q1928.4 133.156 1930.69 135.934 Q1932.99 138.689 1932.99 144.059 Z" fill="#000000" fill-rule="evenodd" fill-opacity="1" /><path clip-path="url(#clip290)" d="M1945.69 126.42 L1945.69 133.781 L1954.47 133.781 L1954.47 137.092 L1945.69 137.092 L1945.69 151.166 Q1945.69 154.337 1946.55 155.24 Q1947.43 156.142 1950.09 156.142 L1954.47 156.142 L1954.47 159.707 L1950.09 159.707 Q1945.16 159.707 1943.29 157.878 Q1941.41 156.027 1941.41 151.166 L1941.41 137.092 L1938.29 137.092 L1938.29 133.781 L1941.41 133.781 L1941.41 126.42 L1945.69 126.42 Z" fill="#000000" fill-rule="evenodd" fill-opacity="1" /><path clip-path="url(#clip290)" d="M1981.62 144.059 L1981.62 159.707 L1977.36 159.707 L1977.36 144.198 Q1977.36 140.517 1975.93 138.689 Q1974.49 136.86 1971.62 136.86 Q1968.17 136.86 1966.18 139.059 Q1964.19 141.258 1964.19 145.054 L1964.19 159.707 L1959.91 159.707 L1959.91 123.689 L1964.19 123.689 L1964.19 137.809 Q1965.72 135.471 1967.78 134.314 Q1969.86 133.156 1972.57 133.156 Q1977.04 133.156 1979.33 135.934 Q1981.62 138.689 1981.62 144.059 Z" fill="#000000" fill-rule="evenodd" fill-opacity="1" /><path clip-path="url(#clip290)" d="M2005.14 137.763 Q2004.42 137.346 2003.56 137.161 Q2002.73 136.953 2001.71 136.953 Q1998.1 136.953 1996.16 139.314 Q1994.24 141.652 1994.24 146.05 L1994.24 159.707 L1989.95 159.707 L1989.95 133.781 L1994.24 133.781 L1994.24 137.809 Q1995.58 135.448 1997.73 134.314 Q1999.88 133.156 2002.96 133.156 Q2003.4 133.156 2003.94 133.226 Q2004.47 133.272 2005.12 133.388 L2005.14 137.763 Z" fill="#000000" fill-rule="evenodd" fill-opacity="1" /><path clip-path="url(#clip290)" d="M2030.74 145.679 L2030.74 147.763 L2011.16 147.763 Q2011.43 152.161 2013.8 154.476 Q2016.18 156.767 2020.42 156.767 Q2022.87 156.767 2025.16 156.166 Q2027.48 155.564 2029.75 154.36 L2029.75 158.388 Q2027.45 159.36 2025.05 159.869 Q2022.64 160.378 2020.16 160.378 Q2013.96 160.378 2010.32 156.767 Q2006.71 153.156 2006.71 146.999 Q2006.71 140.633 2010.14 136.906 Q2013.59 133.156 2019.42 133.156 Q2024.65 133.156 2027.68 136.536 Q2030.74 139.892 2030.74 145.679 M2026.48 144.429 Q2026.43 140.934 2024.51 138.851 Q2022.62 136.767 2019.47 136.767 Q2015.9 136.767 2013.75 138.781 Q2011.62 140.795 2011.3 144.453 L2026.48 144.429 Z" fill="#000000" fill-rule="evenodd" fill-opacity="1" /><path clip-path="url(#clip290)" d="M2049.51 146.675 Q2044.35 146.675 2042.36 147.855 Q2040.37 149.036 2040.37 151.883 Q2040.37 154.152 2041.85 155.494 Q2043.36 156.814 2045.93 156.814 Q2049.47 156.814 2051.6 154.314 Q2053.75 151.791 2053.75 147.624 L2053.75 146.675 L2049.51 146.675 M2058.01 144.916 L2058.01 159.707 L2053.75 159.707 L2053.75 155.772 Q2052.29 158.133 2050.12 159.267 Q2047.94 160.378 2044.79 160.378 Q2040.81 160.378 2038.45 158.156 Q2036.11 155.911 2036.11 152.161 Q2036.11 147.786 2039.03 145.564 Q2041.97 143.342 2047.78 143.342 L2053.75 143.342 L2053.75 142.925 Q2053.75 139.985 2051.81 138.388 Q2049.88 136.767 2046.39 136.767 Q2044.17 136.767 2042.06 137.3 Q2039.95 137.832 2038.01 138.897 L2038.01 134.962 Q2040.35 134.059 2042.55 133.619 Q2044.74 133.156 2046.83 133.156 Q2052.45 133.156 2055.23 136.073 Q2058.01 138.99 2058.01 144.916 Z" fill="#000000" fill-rule="evenodd" fill-opacity="1" /><path clip-path="url(#clip290)" d="M2083.84 137.717 L2083.84 123.689 L2088.1 123.689 L2088.1 159.707 L2083.84 159.707 L2083.84 155.818 Q2082.5 158.133 2080.44 159.267 Q2078.4 160.378 2075.53 160.378 Q2070.83 160.378 2067.87 156.628 Q2064.93 152.879 2064.93 146.767 Q2064.93 140.656 2067.87 136.906 Q2070.83 133.156 2075.53 133.156 Q2078.4 133.156 2080.44 134.291 Q2082.5 135.402 2083.84 137.717 M2069.33 146.767 Q2069.33 151.466 2071.25 154.152 Q2073.19 156.814 2076.57 156.814 Q2079.95 156.814 2081.9 154.152 Q2083.84 151.466 2083.84 146.767 Q2083.84 142.068 2081.9 139.406 Q2079.95 136.721 2076.57 136.721 Q2073.19 136.721 2071.25 139.406 Q2069.33 142.068 2069.33 146.767 Z" fill="#000000" fill-rule="evenodd" fill-opacity="1" /><path clip-path="url(#clip290)" d="M2119.05 145.679 L2119.05 147.763 L2099.47 147.763 Q2099.74 152.161 2102.11 154.476 Q2104.49 156.767 2108.73 156.767 Q2111.18 156.767 2113.47 156.166 Q2115.79 155.564 2118.05 154.36 L2118.05 158.388 Q2115.76 159.36 2113.36 159.869 Q2110.95 160.378 2108.47 160.378 Q2102.27 160.378 2098.63 156.767 Q2095.02 153.156 2095.02 146.999 Q2095.02 140.633 2098.45 136.906 Q2101.9 133.156 2107.73 133.156 Q2112.96 133.156 2115.99 136.536 Q2119.05 139.892 2119.05 145.679 M2114.79 144.429 Q2114.74 140.934 2112.82 138.851 Q2110.93 136.767 2107.78 136.767 Q2104.21 136.767 2102.06 138.781 Q2099.93 140.795 2099.61 144.453 L2114.79 144.429 Z" fill="#000000" fill-rule="evenodd" fill-opacity="1" /><path clip-path="url(#clip290)" d="M2143.1 137.717 L2143.1 123.689 L2147.36 123.689 L2147.36 159.707 L2143.1 159.707 L2143.1 155.818 Q2141.76 158.133 2139.7 159.267 Q2137.66 160.378 2134.79 160.378 Q2130.09 160.378 2127.13 156.628 Q2124.19 152.879 2124.19 146.767 Q2124.19 140.656 2127.13 136.906 Q2130.09 133.156 2134.79 133.156 Q2137.66 133.156 2139.7 134.291 Q2141.76 135.402 2143.1 137.717 M2128.59 146.767 Q2128.59 151.466 2130.51 154.152 Q2132.45 156.814 2135.83 156.814 Q2139.21 156.814 2141.16 154.152 Q2143.1 151.466 2143.1 146.767 Q2143.1 142.068 2141.16 139.406 Q2139.21 136.721 2135.83 136.721 Q2132.45 136.721 2130.51 139.406 Q2128.59 142.068 2128.59 146.767 Z" fill="#000000" fill-rule="evenodd" fill-opacity="1" /><polyline clip-path="url(#clip290)" style="stroke:#e26f46; stroke-linecap:butt; stroke-linejoin:round; stroke-width:4; stroke-opacity:1; fill:none" points="
  1727.8,194.267 1859.07,194.267 
  "/>
<circle clip-path="url(#clip290)" cx="1793.43" cy="194.267" r="23" fill="#e26f46" fill-rule="evenodd" fill-opacity="1" stroke="#000000" stroke-opacity="1" stroke-width="4.9152"/>
<path clip-path="url(#clip290)" d="M1888.36 178.26 L1888.36 185.621 L1897.13 185.621 L1897.13 188.932 L1888.36 188.932 L1888.36 203.006 Q1888.36 206.177 1889.21 207.08 Q1890.09 207.982 1892.76 207.982 L1897.13 207.982 L1897.13 211.547 L1892.76 211.547 Q1887.82 211.547 1885.95 209.718 Q1884.07 207.867 1884.07 203.006 L1884.07 188.932 L1880.95 188.932 L1880.95 185.621 L1884.07 185.621 L1884.07 178.26 L1888.36 178.26 Z" fill="#000000" fill-rule="evenodd" fill-opacity="1" /><path clip-path="url(#clip290)" d="M1924.28 195.899 L1924.28 211.547 L1920.02 211.547 L1920.02 196.038 Q1920.02 192.357 1918.59 190.529 Q1917.15 188.7 1914.28 188.7 Q1910.83 188.7 1908.84 190.899 Q1906.85 193.098 1906.85 196.894 L1906.85 211.547 L1902.57 211.547 L1902.57 175.529 L1906.85 175.529 L1906.85 189.649 Q1908.38 187.311 1910.44 186.154 Q1912.52 184.996 1915.23 184.996 Q1919.7 184.996 1921.99 187.774 Q1924.28 190.529 1924.28 195.899 Z" fill="#000000" fill-rule="evenodd" fill-opacity="1" /><path clip-path="url(#clip290)" d="M1947.8 189.603 Q1947.08 189.186 1946.23 189.001 Q1945.39 188.793 1944.38 188.793 Q1940.76 188.793 1938.82 191.154 Q1936.9 193.492 1936.9 197.89 L1936.9 211.547 L1932.62 211.547 L1932.62 185.621 L1936.9 185.621 L1936.9 189.649 Q1938.24 187.288 1940.39 186.154 Q1942.55 184.996 1945.63 184.996 Q1946.06 184.996 1946.6 185.066 Q1947.13 185.112 1947.78 185.228 L1947.8 189.603 Z" fill="#000000" fill-rule="evenodd" fill-opacity="1" /><path clip-path="url(#clip290)" d="M1973.4 197.519 L1973.4 199.603 L1953.82 199.603 Q1954.1 204.001 1956.46 206.316 Q1958.84 208.607 1963.08 208.607 Q1965.53 208.607 1967.82 208.006 Q1970.14 207.404 1972.41 206.2 L1972.41 210.228 Q1970.12 211.2 1967.71 211.709 Q1965.3 212.218 1962.82 212.218 Q1956.62 212.218 1952.99 208.607 Q1949.38 204.996 1949.38 198.839 Q1949.38 192.473 1952.8 188.746 Q1956.25 184.996 1962.08 184.996 Q1967.31 184.996 1970.35 188.376 Q1973.4 191.732 1973.4 197.519 M1969.14 196.269 Q1969.1 192.774 1967.18 190.691 Q1965.28 188.607 1962.13 188.607 Q1958.56 188.607 1956.41 190.621 Q1954.28 192.635 1953.96 196.293 L1969.14 196.269 Z" fill="#000000" fill-rule="evenodd" fill-opacity="1" /><path clip-path="url(#clip290)" d="M1992.18 198.515 Q1987.01 198.515 1985.02 199.695 Q1983.03 200.876 1983.03 203.723 Q1983.03 205.992 1984.51 207.334 Q1986.02 208.654 1988.59 208.654 Q1992.13 208.654 1994.26 206.154 Q1996.41 203.631 1996.41 199.464 L1996.41 198.515 L1992.18 198.515 M2000.67 196.756 L2000.67 211.547 L1996.41 211.547 L1996.41 207.612 Q1994.95 209.973 1992.78 211.107 Q1990.6 212.218 1987.45 212.218 Q1983.47 212.218 1981.11 209.996 Q1978.77 207.751 1978.77 204.001 Q1978.77 199.626 1981.69 197.404 Q1984.63 195.182 1990.44 195.182 L1996.41 195.182 L1996.41 194.765 Q1996.41 191.825 1994.47 190.228 Q1992.55 188.607 1989.05 188.607 Q1986.83 188.607 1984.72 189.14 Q1982.62 189.672 1980.67 190.737 L1980.67 186.802 Q1983.01 185.899 1985.21 185.459 Q1987.41 184.996 1989.49 184.996 Q1995.12 184.996 1997.89 187.913 Q2000.67 190.83 2000.67 196.756 Z" fill="#000000" fill-rule="evenodd" fill-opacity="1" /><path clip-path="url(#clip290)" d="M2026.5 189.557 L2026.5 175.529 L2030.76 175.529 L2030.76 211.547 L2026.5 211.547 L2026.5 207.658 Q2025.16 209.973 2023.1 211.107 Q2021.06 212.218 2018.19 212.218 Q2013.5 212.218 2010.53 208.468 Q2007.59 204.719 2007.59 198.607 Q2007.59 192.496 2010.53 188.746 Q2013.5 184.996 2018.19 184.996 Q2021.06 184.996 2023.1 186.131 Q2025.16 187.242 2026.5 189.557 M2011.99 198.607 Q2011.99 203.306 2013.91 205.992 Q2015.86 208.654 2019.24 208.654 Q2022.62 208.654 2024.56 205.992 Q2026.5 203.306 2026.5 198.607 Q2026.5 193.908 2024.56 191.246 Q2022.62 188.561 2019.24 188.561 Q2015.86 188.561 2013.91 191.246 Q2011.99 193.908 2011.99 198.607 Z" fill="#000000" fill-rule="evenodd" fill-opacity="1" /><path clip-path="url(#clip290)" d="M2061.71 197.519 L2061.71 199.603 L2042.13 199.603 Q2042.41 204.001 2044.77 206.316 Q2047.15 208.607 2051.39 208.607 Q2053.84 208.607 2056.13 208.006 Q2058.45 207.404 2060.72 206.2 L2060.72 210.228 Q2058.43 211.2 2056.02 211.709 Q2053.61 212.218 2051.13 212.218 Q2044.93 212.218 2041.3 208.607 Q2037.68 204.996 2037.68 198.839 Q2037.68 192.473 2041.11 188.746 Q2044.56 184.996 2050.39 184.996 Q2055.62 184.996 2058.66 188.376 Q2061.71 191.732 2061.71 197.519 M2057.45 196.269 Q2057.41 192.774 2055.49 190.691 Q2053.59 188.607 2050.44 188.607 Q2046.87 188.607 2044.72 190.621 Q2042.59 192.635 2042.27 196.293 L2057.45 196.269 Z" fill="#000000" fill-rule="evenodd" fill-opacity="1" /><path clip-path="url(#clip290)" d="M2085.76 189.557 L2085.76 175.529 L2090.02 175.529 L2090.02 211.547 L2085.76 211.547 L2085.76 207.658 Q2084.42 209.973 2082.36 211.107 Q2080.32 212.218 2077.45 212.218 Q2072.75 212.218 2069.79 208.468 Q2066.85 204.719 2066.85 198.607 Q2066.85 192.496 2069.79 188.746 Q2072.75 184.996 2077.45 184.996 Q2080.32 184.996 2082.36 186.131 Q2084.42 187.242 2085.76 189.557 M2071.25 198.607 Q2071.25 203.306 2073.17 205.992 Q2075.12 208.654 2078.49 208.654 Q2081.87 208.654 2083.82 205.992 Q2085.76 203.306 2085.76 198.607 Q2085.76 193.908 2083.82 191.246 Q2081.87 188.561 2078.49 188.561 Q2075.12 188.561 2073.17 191.246 Q2071.25 193.908 2071.25 198.607 Z" fill="#000000" fill-rule="evenodd" fill-opacity="1" /><polyline clip-path="url(#clip290)" style="stroke:#3da44d; stroke-linecap:butt; stroke-linejoin:round; stroke-width:4; stroke-opacity:1; fill:none" points="
  1727.8,246.107 1859.07,246.107 
  "/>
<line clip-path="url(#clip290)" x1="1793.43" y1="246.107" x2="1793.43" y2="220.507" style="stroke:#3da44d; stroke-width:4.9152; stroke-opacity:1"/>
<line clip-path="url(#clip290)" x1="1793.43" y1="246.107" x2="1767.83" y2="246.107" style="stroke:#3da44d; stroke-width:4.9152; stroke-opacity:1"/>
<line clip-path="url(#clip290)" x1="1793.43" y1="246.107" x2="1793.43" y2="271.707" style="stroke:#3da44d; stroke-width:4.9152; stroke-opacity:1"/>
<line clip-path="url(#clip290)" x1="1793.43" y1="246.107" x2="1819.03" y2="246.107" style="stroke:#3da44d; stroke-width:4.9152; stroke-opacity:1"/>
<path clip-path="url(#clip290)" d="M1885.63 232.67 L1885.63 245.656 L1891.51 245.656 Q1894.77 245.656 1896.55 243.966 Q1898.33 242.276 1898.33 239.151 Q1898.33 236.049 1896.55 234.36 Q1894.77 232.67 1891.51 232.67 L1885.63 232.67 M1880.95 228.827 L1891.51 228.827 Q1897.32 228.827 1900.28 231.466 Q1903.26 234.082 1903.26 239.151 Q1903.26 244.267 1900.28 246.883 Q1897.32 249.498 1891.51 249.498 L1885.63 249.498 L1885.63 263.387 L1880.95 263.387 L1880.95 228.827 Z" fill="#000000" fill-rule="evenodd" fill-opacity="1" /><path clip-path="url(#clip290)" d="M1917.71 240.447 Q1914.28 240.447 1912.29 243.133 Q1910.3 245.795 1910.3 250.447 Q1910.3 255.1 1912.27 257.785 Q1914.26 260.447 1917.71 260.447 Q1921.11 260.447 1923.1 257.762 Q1925.09 255.077 1925.09 250.447 Q1925.09 245.841 1923.1 243.156 Q1921.11 240.447 1917.71 240.447 M1917.71 236.836 Q1923.26 236.836 1926.44 240.447 Q1929.61 244.059 1929.61 250.447 Q1929.61 256.813 1926.44 260.447 Q1923.26 264.058 1917.71 264.058 Q1912.13 264.058 1908.96 260.447 Q1905.81 256.813 1905.81 250.447 Q1905.81 244.059 1908.96 240.447 Q1912.13 236.836 1917.71 236.836 Z" fill="#000000" fill-rule="evenodd" fill-opacity="1" /><path clip-path="url(#clip290)" d="M1936.67 227.369 L1940.93 227.369 L1940.93 263.387 L1936.67 263.387 L1936.67 227.369 Z" fill="#000000" fill-rule="evenodd" fill-opacity="1" /><path clip-path="url(#clip290)" d="M1960.63 265.795 Q1958.82 270.424 1957.11 271.836 Q1955.39 273.248 1952.52 273.248 L1949.12 273.248 L1949.12 269.683 L1951.62 269.683 Q1953.38 269.683 1954.35 268.85 Q1955.32 268.017 1956.5 264.915 L1957.27 262.971 L1946.78 237.461 L1951.3 237.461 L1959.4 257.739 L1967.5 237.461 L1972.01 237.461 L1960.63 265.795 Z" fill="#000000" fill-rule="evenodd" fill-opacity="1" /><path clip-path="url(#clip290)" d="M2000.07 249.359 L2000.07 251.443 L1980.49 251.443 Q1980.76 255.841 1983.12 258.156 Q1985.51 260.447 1989.75 260.447 Q1992.2 260.447 1994.49 259.846 Q1996.81 259.244 1999.07 258.04 L1999.07 262.068 Q1996.78 263.04 1994.37 263.549 Q1991.97 264.058 1989.49 264.058 Q1983.29 264.058 1979.65 260.447 Q1976.04 256.836 1976.04 250.679 Q1976.04 244.313 1979.47 240.586 Q1982.92 236.836 1988.75 236.836 Q1993.98 236.836 1997.01 240.216 Q2000.07 243.572 2000.07 249.359 M1995.81 248.109 Q1995.76 244.614 1993.84 242.531 Q1991.94 240.447 1988.8 240.447 Q1985.23 240.447 1983.08 242.461 Q1980.95 244.475 1980.62 248.133 L1995.81 248.109 Z" fill="#000000" fill-rule="evenodd" fill-opacity="1" /><path clip-path="url(#clip290)" d="M2023.59 238.225 L2023.59 242.253 Q2021.78 241.327 2019.84 240.864 Q2017.89 240.401 2015.81 240.401 Q2012.64 240.401 2011.04 241.373 Q2009.47 242.346 2009.47 244.29 Q2009.47 245.772 2010.6 246.628 Q2011.74 247.461 2015.16 248.225 L2016.62 248.549 Q2021.16 249.522 2023.06 251.304 Q2024.98 253.063 2024.98 256.234 Q2024.98 259.846 2022.11 261.952 Q2019.26 264.058 2014.26 264.058 Q2012.18 264.058 2009.91 263.642 Q2007.66 263.248 2005.16 262.438 L2005.16 258.04 Q2007.52 259.267 2009.81 259.892 Q2012.11 260.494 2014.35 260.494 Q2017.36 260.494 2018.98 259.475 Q2020.6 258.434 2020.6 256.559 Q2020.6 254.822 2019.42 253.896 Q2018.26 252.971 2014.31 252.114 L2012.82 251.767 Q2008.87 250.934 2007.11 249.221 Q2005.35 247.484 2005.35 244.475 Q2005.35 240.818 2007.94 238.827 Q2010.53 236.836 2015.3 236.836 Q2017.66 236.836 2019.75 237.184 Q2021.83 237.531 2023.59 238.225 Z" fill="#000000" fill-rule="evenodd" fill-opacity="1" /><path clip-path="url(#clip290)" d="M2035.97 230.1 L2035.97 237.461 L2044.74 237.461 L2044.74 240.772 L2035.97 240.772 L2035.97 254.846 Q2035.97 258.017 2036.83 258.92 Q2037.71 259.822 2040.37 259.822 L2044.74 259.822 L2044.74 263.387 L2040.37 263.387 Q2035.44 263.387 2033.56 261.558 Q2031.69 259.707 2031.69 254.846 L2031.69 240.772 L2028.56 240.772 L2028.56 237.461 L2031.69 237.461 L2031.69 230.1 L2035.97 230.1 Z" fill="#000000" fill-rule="evenodd" fill-opacity="1" /><path clip-path="url(#clip290)" d="M2072.52 249.359 L2072.52 251.443 L2052.94 251.443 Q2053.22 255.841 2055.58 258.156 Q2057.96 260.447 2062.2 260.447 Q2064.65 260.447 2066.94 259.846 Q2069.26 259.244 2071.53 258.04 L2071.53 262.068 Q2069.24 263.04 2066.83 263.549 Q2064.42 264.058 2061.94 264.058 Q2055.74 264.058 2052.11 260.447 Q2048.49 256.836 2048.49 250.679 Q2048.49 244.313 2051.92 240.586 Q2055.37 236.836 2061.2 236.836 Q2066.43 236.836 2069.47 240.216 Q2072.52 243.572 2072.52 249.359 M2068.26 248.109 Q2068.22 244.614 2066.3 242.531 Q2064.4 240.447 2061.25 240.447 Q2057.68 240.447 2055.53 242.461 Q2053.4 244.475 2053.08 248.133 L2068.26 248.109 Z" fill="#000000" fill-rule="evenodd" fill-opacity="1" /><path clip-path="url(#clip290)" d="M2094.54 241.443 Q2093.82 241.026 2092.96 240.841 Q2092.13 240.633 2091.11 240.633 Q2087.5 240.633 2085.55 242.994 Q2083.63 245.332 2083.63 249.73 L2083.63 263.387 L2079.35 263.387 L2079.35 237.461 L2083.63 237.461 L2083.63 241.489 Q2084.98 239.128 2087.13 237.994 Q2089.28 236.836 2092.36 236.836 Q2092.8 236.836 2093.33 236.906 Q2093.87 236.952 2094.51 237.068 L2094.54 241.443 Z" fill="#000000" fill-rule="evenodd" fill-opacity="1" /></svg>
