<?xml version="1.0" encoding="utf-8"?>
<svg xmlns="http://www.w3.org/2000/svg" xmlns:xlink="http://www.w3.org/1999/xlink" width="576" height="384" viewBox="0 0 2304 1536">
<defs>
  <clipPath id="clip490">
    <rect x="0" y="0" width="2304" height="1536"/>
  </clipPath>
</defs>
<path clip-path="url(#clip490)" d="
M0 1536 L2304 1536 L2304 0 L0 0  Z
  " fill="#ffffff" fill-rule="evenodd" fill-opacity="1"/>
<defs>
  <clipPath id="clip491">
    <rect x="460" y="0" width="1614" height="1536"/>
  </clipPath>
</defs>
<path clip-path="url(#clip490)" d="
M288.159 1347.54 L2256.76 1347.54 L2256.76 47.2441 L288.159 47.2441  Z
  " fill="#ffffff" fill-rule="evenodd" fill-opacity="1"/>
<defs>
  <clipPath id="clip492">
    <rect x="288" y="47" width="1970" height="1301"/>
  </clipPath>
</defs>
<polyline clip-path="url(#clip492)" style="stroke:#000000; stroke-linecap:butt; stroke-linejoin:round; stroke-width:2; stroke-opacity:0.1; fill:none" points="
  811.126,1347.54 811.126,47.2441 
  "/>
<polyline clip-path="url(#clip492)" style="stroke:#000000; stroke-linecap:butt; stroke-linejoin:round; stroke-width:2; stroke-opacity:0.1; fill:none" points="
  1596.08,1347.54 1596.08,47.2441 
  "/>
<polyline clip-path="url(#clip490)" style="stroke:#000000; stroke-linecap:butt; stroke-linejoin:round; stroke-width:4; stroke-opacity:1; fill:none" points="
  288.159,1347.54 2256.76,1347.54 
  "/>
<polyline clip-path="url(#clip490)" style="stroke:#000000; stroke-linecap:butt; stroke-linejoin:round; stroke-width:4; stroke-opacity:1; fill:none" points="
  811.126,1347.54 811.126,1328.64 
  "/>
<polyline clip-path="url(#clip490)" style="stroke:#000000; stroke-linecap:butt; stroke-linejoin:round; stroke-width:4; stroke-opacity:1; fill:none" points="
  1596.08,1347.54 1596.08,1328.64 
  "/>
<path clip-path="url(#clip490)" d="M742.772 1420.89 L750.411 1420.89 L750.411 1394.53 L742.101 1396.19 L742.101 1391.94 L750.365 1390.27 L755.041 1390.27 L755.041 1420.89 L762.68 1420.89 L762.68 1424.83 L742.772 1424.83 L742.772 1420.89 Z" fill="#000000" fill-rule="evenodd" fill-opacity="1" /><path clip-path="url(#clip490)" d="M782.124 1393.35 Q778.513 1393.35 776.684 1396.91 Q774.879 1400.45 774.879 1407.58 Q774.879 1414.69 776.684 1418.25 Q778.513 1421.8 782.124 1421.8 Q785.758 1421.8 787.564 1418.25 Q789.393 1414.69 789.393 1407.58 Q789.393 1400.45 787.564 1396.91 Q785.758 1393.35 782.124 1393.35 M782.124 1389.64 Q787.934 1389.64 790.99 1394.25 Q794.068 1398.83 794.068 1407.58 Q794.068 1416.31 790.99 1420.92 Q787.934 1425.5 782.124 1425.5 Q776.314 1425.5 773.235 1420.92 Q770.18 1416.31 770.18 1407.58 Q770.18 1398.83 773.235 1394.25 Q776.314 1389.64 782.124 1389.64 Z" fill="#000000" fill-rule="evenodd" fill-opacity="1" /><path clip-path="url(#clip490)" d="M794.068 1383.74 L818.18 1383.74 L818.18 1386.94 L794.068 1386.94 L794.068 1383.74 Z" fill="#000000" fill-rule="evenodd" fill-opacity="1" /><path clip-path="url(#clip490)" d="M825.421 1369.34 L843.477 1369.34 L843.477 1370.96 L833.283 1397.42 L829.314 1397.42 L838.906 1372.54 L825.421 1372.54 L825.421 1369.34 Z" fill="#000000" fill-rule="evenodd" fill-opacity="1" /><path clip-path="url(#clip490)" d="M850.887 1392.64 L854.855 1392.64 L854.855 1397.42 L850.887 1397.42 L850.887 1392.64 Z" fill="#000000" fill-rule="evenodd" fill-opacity="1" /><path clip-path="url(#clip490)" d="M863.168 1369.34 L878.083 1369.34 L878.083 1372.54 L866.648 1372.54 L866.648 1379.42 Q867.475 1379.14 868.303 1379.01 Q869.13 1378.85 869.958 1378.85 Q874.66 1378.85 877.406 1381.43 Q880.152 1384.01 880.152 1388.41 Q880.152 1392.94 877.33 1395.46 Q874.509 1397.96 869.375 1397.96 Q867.607 1397.96 865.764 1397.66 Q863.939 1397.36 861.983 1396.76 L861.983 1392.94 Q863.676 1393.86 865.482 1394.31 Q867.287 1394.77 869.3 1394.77 Q872.553 1394.77 874.453 1393.05 Q876.352 1391.34 876.352 1388.41 Q876.352 1385.48 874.453 1383.76 Q872.553 1382.05 869.3 1382.05 Q867.776 1382.05 866.253 1382.39 Q864.748 1382.73 863.168 1383.44 L863.168 1369.34 Z" fill="#000000" fill-rule="evenodd" fill-opacity="1" /><path clip-path="url(#clip490)" d="M1527.32 1420.89 L1534.96 1420.89 L1534.96 1394.53 L1526.65 1396.19 L1526.65 1391.94 L1534.91 1390.27 L1539.59 1390.27 L1539.59 1420.89 L1547.22 1420.89 L1547.22 1424.83 L1527.32 1424.83 L1527.32 1420.89 Z" fill="#000000" fill-rule="evenodd" fill-opacity="1" /><path clip-path="url(#clip490)" d="M1566.67 1393.35 Q1563.06 1393.35 1561.23 1396.91 Q1559.42 1400.45 1559.42 1407.58 Q1559.42 1414.69 1561.23 1418.25 Q1563.06 1421.8 1566.67 1421.8 Q1570.3 1421.8 1572.11 1418.25 Q1573.94 1414.69 1573.94 1407.58 Q1573.94 1400.45 1572.11 1396.91 Q1570.3 1393.35 1566.67 1393.35 M1566.67 1389.64 Q1572.48 1389.64 1575.53 1394.25 Q1578.61 1398.83 1578.61 1407.58 Q1578.61 1416.31 1575.53 1420.92 Q1572.48 1425.5 1566.67 1425.5 Q1560.86 1425.5 1557.78 1420.92 Q1554.72 1416.31 1554.72 1407.58 Q1554.72 1398.83 1557.78 1394.25 Q1560.86 1389.64 1566.67 1389.64 Z" fill="#000000" fill-rule="evenodd" fill-opacity="1" /><path clip-path="url(#clip490)" d="M1578.61 1383.74 L1602.72 1383.74 L1602.72 1386.94 L1578.61 1386.94 L1578.61 1383.74 Z" fill="#000000" fill-rule="evenodd" fill-opacity="1" /><path clip-path="url(#clip490)" d="M1610.96 1369.34 L1625.88 1369.34 L1625.88 1372.54 L1614.44 1372.54 L1614.44 1379.42 Q1615.27 1379.14 1616.1 1379.01 Q1616.92 1378.85 1617.75 1378.85 Q1622.45 1378.85 1625.2 1381.43 Q1627.95 1384.01 1627.95 1388.41 Q1627.95 1392.94 1625.12 1395.46 Q1622.3 1397.96 1617.17 1397.96 Q1615.4 1397.96 1613.56 1397.66 Q1611.73 1397.36 1609.78 1396.76 L1609.78 1392.94 Q1611.47 1393.86 1613.28 1394.31 Q1615.08 1394.77 1617.09 1394.77 Q1620.35 1394.77 1622.25 1393.05 Q1624.15 1391.34 1624.15 1388.41 Q1624.15 1385.48 1622.25 1383.76 Q1620.35 1382.05 1617.09 1382.05 Q1615.57 1382.05 1614.05 1382.39 Q1612.54 1382.73 1610.96 1383.44 L1610.96 1369.34 Z" fill="#000000" fill-rule="evenodd" fill-opacity="1" /><path clip-path="url(#clip490)" d="M1635.43 1392.64 L1639.4 1392.64 L1639.4 1397.42 L1635.43 1397.42 L1635.43 1392.64 Z" fill="#000000" fill-rule="evenodd" fill-opacity="1" /><path clip-path="url(#clip490)" d="M1655.8 1371.84 Q1652.87 1371.84 1651.38 1374.74 Q1649.91 1377.61 1649.91 1383.41 Q1649.91 1389.18 1651.38 1392.08 Q1652.87 1394.95 1655.8 1394.95 Q1658.75 1394.95 1660.22 1392.08 Q1661.71 1389.18 1661.71 1383.41 Q1661.71 1377.61 1660.22 1374.74 Q1658.75 1371.84 1655.8 1371.84 M1655.8 1368.83 Q1660.52 1368.83 1663 1372.57 Q1665.5 1376.3 1665.5 1383.41 Q1665.5 1390.5 1663 1394.24 Q1660.52 1397.96 1655.8 1397.96 Q1651.08 1397.96 1648.58 1394.24 Q1646.1 1390.5 1646.1 1383.41 Q1646.1 1376.3 1648.58 1372.57 Q1651.08 1368.83 1655.8 1368.83 Z" fill="#000000" fill-rule="evenodd" fill-opacity="1" /><path clip-path="url(#clip490)" d="M1196.21 1461.87 L1226.26 1461.87 L1226.26 1467.28 L1202.64 1467.28 L1202.64 1481.34 L1225.27 1481.34 L1225.27 1486.76 L1202.64 1486.76 L1202.64 1503.97 L1226.83 1503.97 L1226.83 1509.39 L1196.21 1509.39 L1196.21 1461.87 Z" fill="#000000" fill-rule="evenodd" fill-opacity="1" /><path clip-path="url(#clip490)" d="M1257.8 1479.21 Q1256.81 1478.64 1255.64 1478.38 Q1254.49 1478.1 1253.09 1478.1 Q1248.12 1478.1 1245.45 1481.34 Q1242.81 1484.56 1242.81 1490.61 L1242.81 1509.39 L1236.92 1509.39 L1236.92 1473.74 L1242.81 1473.74 L1242.81 1479.28 Q1244.66 1476.03 1247.62 1474.47 Q1250.58 1472.88 1254.81 1472.88 Q1255.41 1472.88 1256.15 1472.97 Q1256.88 1473.04 1257.77 1473.2 L1257.8 1479.21 Z" fill="#000000" fill-rule="evenodd" fill-opacity="1" /><path clip-path="url(#clip490)" d="M1283.45 1479.21 Q1282.47 1478.64 1281.29 1478.38 Q1280.14 1478.1 1278.74 1478.1 Q1273.78 1478.1 1271.1 1481.34 Q1268.46 1484.56 1268.46 1490.61 L1268.46 1509.39 L1262.57 1509.39 L1262.57 1473.74 L1268.46 1473.74 L1268.46 1479.28 Q1270.31 1476.03 1273.27 1474.47 Q1276.23 1472.88 1280.46 1472.88 Q1281.07 1472.88 1281.8 1472.97 Q1282.53 1473.04 1283.42 1473.2 L1283.45 1479.21 Z" fill="#000000" fill-rule="evenodd" fill-opacity="1" /><path clip-path="url(#clip490)" d="M1301.98 1477.84 Q1297.27 1477.84 1294.53 1481.54 Q1291.79 1485.2 1291.79 1491.59 Q1291.79 1497.99 1294.5 1501.68 Q1297.24 1505.34 1301.98 1505.34 Q1306.66 1505.34 1309.39 1501.65 Q1312.13 1497.96 1312.13 1491.59 Q1312.13 1485.26 1309.39 1481.57 Q1306.66 1477.84 1301.98 1477.84 M1301.98 1472.88 Q1309.62 1472.88 1313.98 1477.84 Q1318.34 1482.81 1318.34 1491.59 Q1318.34 1500.35 1313.98 1505.34 Q1309.62 1510.31 1301.98 1510.31 Q1294.31 1510.31 1289.95 1505.34 Q1285.62 1500.35 1285.62 1491.59 Q1285.62 1482.81 1289.95 1477.84 Q1294.31 1472.88 1301.98 1472.88 Z" fill="#000000" fill-rule="evenodd" fill-opacity="1" /><path clip-path="url(#clip490)" d="M1348.7 1479.21 Q1347.72 1478.64 1346.54 1478.38 Q1345.39 1478.1 1343.99 1478.1 Q1339.03 1478.1 1336.35 1481.34 Q1333.71 1484.56 1333.71 1490.61 L1333.71 1509.39 L1327.82 1509.39 L1327.82 1473.74 L1333.71 1473.74 L1333.71 1479.28 Q1335.56 1476.03 1338.52 1474.47 Q1341.48 1472.88 1345.71 1472.88 Q1346.32 1472.88 1347.05 1472.97 Q1347.78 1473.04 1348.67 1473.2 L1348.7 1479.21 Z" fill="#000000" fill-rule="evenodd" fill-opacity="1" /><polyline clip-path="url(#clip492)" style="stroke:#000000; stroke-linecap:butt; stroke-linejoin:round; stroke-width:2; stroke-opacity:0.1; fill:none" points="
  288.159,960.083 2256.76,960.083 
  "/>
<polyline clip-path="url(#clip492)" style="stroke:#000000; stroke-linecap:butt; stroke-linejoin:round; stroke-width:2; stroke-opacity:0.1; fill:none" points="
  288.159,355.373 2256.76,355.373 
  "/>
<polyline clip-path="url(#clip490)" style="stroke:#000000; stroke-linecap:butt; stroke-linejoin:round; stroke-width:4; stroke-opacity:1; fill:none" points="
  288.159,1347.54 288.159,47.2441 
  "/>
<polyline clip-path="url(#clip490)" style="stroke:#000000; stroke-linecap:butt; stroke-linejoin:round; stroke-width:4; stroke-opacity:1; fill:none" points="
  288.159,960.083 307.057,960.083 
  "/>
<polyline clip-path="url(#clip490)" style="stroke:#000000; stroke-linecap:butt; stroke-linejoin:round; stroke-width:4; stroke-opacity:1; fill:none" points="
  288.159,355.373 307.057,355.373 
  "/>
<path clip-path="url(#clip490)" d="M115.411 979.875 L123.05 979.875 L123.05 953.51 L114.74 955.176 L114.74 950.917 L123.004 949.251 L127.68 949.251 L127.68 979.875 L135.319 979.875 L135.319 983.811 L115.411 983.811 L115.411 979.875 Z" fill="#000000" fill-rule="evenodd" fill-opacity="1" /><path clip-path="url(#clip490)" d="M154.763 952.329 Q151.152 952.329 149.323 955.894 Q147.518 959.436 147.518 966.565 Q147.518 973.672 149.323 977.236 Q151.152 980.778 154.763 980.778 Q158.397 980.778 160.203 977.236 Q162.032 973.672 162.032 966.565 Q162.032 959.436 160.203 955.894 Q158.397 952.329 154.763 952.329 M154.763 948.626 Q160.573 948.626 163.629 953.232 Q166.707 957.815 166.707 966.565 Q166.707 975.292 163.629 979.898 Q160.573 984.482 154.763 984.482 Q148.953 984.482 145.874 979.898 Q142.819 975.292 142.819 966.565 Q142.819 957.815 145.874 953.232 Q148.953 948.626 154.763 948.626 Z" fill="#000000" fill-rule="evenodd" fill-opacity="1" /><path clip-path="url(#clip490)" d="M166.707 942.727 L190.819 942.727 L190.819 945.924 L166.707 945.924 L166.707 942.727 Z" fill="#000000" fill-rule="evenodd" fill-opacity="1" /><path clip-path="url(#clip490)" d="M199.677 953.203 L205.884 953.203 L205.884 931.781 L199.132 933.135 L199.132 929.674 L205.846 928.32 L209.646 928.32 L209.646 953.203 L215.852 953.203 L215.852 956.4 L199.677 956.4 L199.677 953.203 Z" fill="#000000" fill-rule="evenodd" fill-opacity="1" /><path clip-path="url(#clip490)" d="M223.526 951.623 L227.494 951.623 L227.494 956.4 L223.526 956.4 L223.526 951.623 Z" fill="#000000" fill-rule="evenodd" fill-opacity="1" /><path clip-path="url(#clip490)" d="M243.895 930.822 Q240.961 930.822 239.475 933.718 Q238.008 936.596 238.008 942.388 Q238.008 948.162 239.475 951.059 Q240.961 953.936 243.895 953.936 Q246.847 953.936 248.314 951.059 Q249.8 948.162 249.8 942.388 Q249.8 936.596 248.314 933.718 Q246.847 930.822 243.895 930.822 M243.895 927.812 Q248.615 927.812 251.098 931.555 Q253.599 935.279 253.599 942.388 Q253.599 949.479 251.098 953.222 Q248.615 956.946 243.895 956.946 Q239.174 956.946 236.672 953.222 Q234.19 949.479 234.19 942.388 Q234.19 935.279 236.672 931.555 Q239.174 927.812 243.895 927.812 Z" fill="#000000" fill-rule="evenodd" fill-opacity="1" /><path clip-path="url(#clip490)" d="M116.22 375.165 L123.859 375.165 L123.859 348.8 L115.549 350.467 L115.549 346.207 L123.813 344.541 L128.489 344.541 L128.489 375.165 L136.127 375.165 L136.127 379.101 L116.22 379.101 L116.22 375.165 Z" fill="#000000" fill-rule="evenodd" fill-opacity="1" /><path clip-path="url(#clip490)" d="M155.572 347.619 Q151.961 347.619 150.132 351.184 Q148.326 354.726 148.326 361.855 Q148.326 368.962 150.132 372.527 Q151.961 376.068 155.572 376.068 Q159.206 376.068 161.012 372.527 Q162.84 368.962 162.84 361.855 Q162.84 354.726 161.012 351.184 Q159.206 347.619 155.572 347.619 M155.572 343.916 Q161.382 343.916 164.438 348.522 Q167.516 353.105 167.516 361.855 Q167.516 370.582 164.438 375.189 Q161.382 379.772 155.572 379.772 Q149.762 379.772 146.683 375.189 Q143.627 370.582 143.627 361.855 Q143.627 353.105 146.683 348.522 Q149.762 343.916 155.572 343.916 Z" fill="#000000" fill-rule="evenodd" fill-opacity="1" /><path clip-path="url(#clip490)" d="M167.516 338.017 L191.628 338.017 L191.628 341.214 L167.516 341.214 L167.516 338.017 Z" fill="#000000" fill-rule="evenodd" fill-opacity="1" /><path clip-path="url(#clip490)" d="M207.953 326.112 Q205.019 326.112 203.533 329.008 Q202.066 331.886 202.066 337.678 Q202.066 343.452 203.533 346.349 Q205.019 349.226 207.953 349.226 Q210.906 349.226 212.373 346.349 Q213.859 343.452 213.859 337.678 Q213.859 331.886 212.373 329.008 Q210.906 326.112 207.953 326.112 M207.953 323.102 Q212.674 323.102 215.156 326.845 Q217.658 330.569 217.658 337.678 Q217.658 344.769 215.156 348.512 Q212.674 352.236 207.953 352.236 Q203.232 352.236 200.731 348.512 Q198.248 344.769 198.248 337.678 Q198.248 330.569 200.731 326.845 Q203.232 323.102 207.953 323.102 Z" fill="#000000" fill-rule="evenodd" fill-opacity="1" /><path clip-path="url(#clip490)" d="M224.334 346.913 L228.303 346.913 L228.303 351.69 L224.334 351.69 L224.334 346.913 Z" fill="#000000" fill-rule="evenodd" fill-opacity="1" /><path clip-path="url(#clip490)" d="M236.616 323.61 L251.531 323.61 L251.531 326.808 L240.095 326.808 L240.095 333.691 Q240.923 333.409 241.75 333.277 Q242.578 333.127 243.406 333.127 Q248.107 333.127 250.853 335.704 Q253.599 338.28 253.599 342.681 Q253.599 347.214 250.778 349.734 Q247.957 352.236 242.823 352.236 Q241.055 352.236 239.211 351.935 Q237.387 351.634 235.431 351.032 L235.431 347.214 Q237.124 348.136 238.929 348.587 Q240.735 349.038 242.747 349.038 Q246.001 349.038 247.901 347.327 Q249.8 345.615 249.8 342.681 Q249.8 339.747 247.901 338.036 Q246.001 336.324 242.747 336.324 Q241.224 336.324 239.7 336.663 Q238.196 337.001 236.616 337.716 L236.616 323.61 Z" fill="#000000" fill-rule="evenodd" fill-opacity="1" /><path clip-path="url(#clip490)" d="M18.4042 827.219 L18.4042 787.02 L23.815 787.02 L23.815 803.889 L65.9242 803.889 L65.9242 810.35 L23.815 810.35 L23.815 827.219 L18.4042 827.219 Z" fill="#000000" fill-rule="evenodd" fill-opacity="1" /><path clip-path="url(#clip490)" d="M30.2762 783.073 L30.2762 777.216 L65.9242 777.216 L65.9242 783.073 L30.2762 783.073 M16.399 783.073 L16.399 777.216 L23.815 777.216 L23.815 783.073 L16.399 783.073 Z" fill="#000000" fill-rule="evenodd" fill-opacity="1" /><path clip-path="url(#clip490)" d="M37.1193 737.208 Q33.1726 735.012 31.2947 731.956 Q29.4168 728.901 29.4168 724.763 Q29.4168 719.193 33.3317 716.169 Q37.2148 713.145 44.4081 713.145 L65.9242 713.145 L65.9242 719.034 L44.599 719.034 Q39.4746 719.034 36.992 720.848 Q34.5094 722.662 34.5094 726.386 Q34.5094 730.938 37.5331 733.579 Q40.5568 736.221 45.7767 736.221 L65.9242 736.221 L65.9242 742.109 L44.599 742.109 Q39.4428 742.109 36.992 743.924 Q34.5094 745.738 34.5094 749.526 Q34.5094 754.013 37.5649 756.655 Q40.5886 759.297 45.7767 759.297 L65.9242 759.297 L65.9242 765.185 L30.2762 765.185 L30.2762 759.297 L35.8144 759.297 Q32.536 757.292 30.9764 754.491 Q29.4168 751.69 29.4168 747.839 Q29.4168 743.956 31.3902 741.25 Q33.3636 738.513 37.1193 737.208 Z" fill="#000000" fill-rule="evenodd" fill-opacity="1" /><path clip-path="url(#clip490)" d="M46.6361 670.973 L49.5006 670.973 L49.5006 697.9 Q55.5481 697.518 58.7309 694.271 Q61.8819 690.993 61.8819 685.168 Q61.8819 681.794 61.0544 678.643 Q60.2269 675.461 58.5718 672.341 L64.1099 672.341 Q65.4467 675.492 66.147 678.803 Q66.8472 682.113 66.8472 685.518 Q66.8472 694.048 61.8819 699.045 Q56.9167 704.011 48.4503 704.011 Q39.6974 704.011 34.5731 699.3 Q29.4168 694.558 29.4168 686.537 Q29.4168 679.344 34.0638 675.174 Q38.6789 670.973 46.6361 670.973 M44.9173 676.829 Q40.1112 676.893 37.2466 679.535 Q34.3821 682.145 34.3821 686.473 Q34.3821 691.375 37.1512 694.335 Q39.9202 697.263 44.9492 697.709 L44.9173 676.829 Z" fill="#000000" fill-rule="evenodd" fill-opacity="1" /><path clip-path="url(#clip490)" d="M16.4626 626.572 Q23.7832 630.837 30.9446 632.906 Q38.106 634.975 45.4584 634.975 Q52.8108 634.975 60.0359 632.906 Q67.2291 630.805 74.5179 626.572 L74.5179 631.664 Q67.0382 636.439 59.8131 638.826 Q52.588 641.181 45.4584 641.181 Q38.3606 641.181 31.1674 638.826 Q23.9742 636.471 16.4626 631.664 L16.4626 626.572 Z" fill="#000000" fill-rule="evenodd" fill-opacity="1" /><path clip-path="url(#clip490)" d="M31.3265 592.484 L36.8647 592.484 Q35.5916 594.966 34.955 597.64 Q34.3184 600.313 34.3184 603.178 Q34.3184 607.538 35.6552 609.735 Q36.992 611.899 39.6656 611.899 Q41.7026 611.899 42.8803 610.339 Q44.0261 608.78 45.0765 604.069 L45.5221 602.064 Q46.8589 595.826 49.3097 593.216 Q51.7286 590.574 56.0891 590.574 Q61.0544 590.574 63.9508 594.521 Q66.8472 598.435 66.8472 605.31 Q66.8472 608.175 66.2743 611.294 Q65.7332 614.382 64.6192 617.819 L58.5718 617.819 Q60.2587 614.573 61.118 611.422 Q61.9456 608.27 61.9456 605.183 Q61.9456 601.045 60.5451 598.817 Q59.1129 596.589 56.5347 596.589 Q54.1476 596.589 52.8745 598.213 Q51.6013 599.804 50.4237 605.247 L49.9462 607.284 Q48.8004 612.726 46.4451 615.145 Q44.058 617.564 39.9202 617.564 Q34.8913 617.564 32.1541 614 Q29.4168 610.435 29.4168 603.878 Q29.4168 600.632 29.8943 597.767 Q30.3717 594.902 31.3265 592.484 Z" fill="#000000" fill-rule="evenodd" fill-opacity="1" /><path clip-path="url(#clip490)" d="M16.4626 582.171 L16.4626 577.079 Q23.9742 572.304 31.1674 569.949 Q38.3606 567.562 45.4584 567.562 Q52.588 567.562 59.8131 569.949 Q67.0382 572.304 74.5179 577.079 L74.5179 582.171 Q67.2291 577.938 60.0359 575.869 Q52.8108 573.768 45.4584 573.768 Q38.106 573.768 30.9446 575.869 Q23.7832 577.938 16.4626 582.171 Z" fill="#000000" fill-rule="evenodd" fill-opacity="1" /><polyline clip-path="url(#clip492)" style="stroke:#009af9; stroke-linecap:butt; stroke-linejoin:round; stroke-width:12; stroke-opacity:1; fill:none" points="
  2201.04,1195.87 2050.44,825.002 1387.26,479.343 1101.09,344.105 612.1,128.735 343.874,84.0448 
  "/>
<line clip-path="url(#clip492)" x1="2201.04" y1="1195.87" x2="2201.04" y2="1179.87" style="stroke:#009af9; stroke-width:3.072; stroke-opacity:1"/>
<line clip-path="url(#clip492)" x1="2201.04" y1="1195.87" x2="2185.04" y2="1195.87" style="stroke:#009af9; stroke-width:3.072; stroke-opacity:1"/>
<line clip-path="url(#clip492)" x1="2201.04" y1="1195.87" x2="2201.04" y2="1211.87" style="stroke:#009af9; stroke-width:3.072; stroke-opacity:1"/>
<line clip-path="url(#clip492)" x1="2201.04" y1="1195.87" x2="2217.04" y2="1195.87" style="stroke:#009af9; stroke-width:3.072; stroke-opacity:1"/>
<line clip-path="url(#clip492)" x1="2050.44" y1="825.002" x2="2050.44" y2="809.002" style="stroke:#009af9; stroke-width:3.072; stroke-opacity:1"/>
<line clip-path="url(#clip492)" x1="2050.44" y1="825.002" x2="2034.44" y2="825.002" style="stroke:#009af9; stroke-width:3.072; stroke-opacity:1"/>
<line clip-path="url(#clip492)" x1="2050.44" y1="825.002" x2="2050.44" y2="841.002" style="stroke:#009af9; stroke-width:3.072; stroke-opacity:1"/>
<line clip-path="url(#clip492)" x1="2050.44" y1="825.002" x2="2066.44" y2="825.002" style="stroke:#009af9; stroke-width:3.072; stroke-opacity:1"/>
<line clip-path="url(#clip492)" x1="1387.26" y1="479.343" x2="1387.26" y2="463.343" style="stroke:#009af9; stroke-width:3.072; stroke-opacity:1"/>
<line clip-path="url(#clip492)" x1="1387.26" y1="479.343" x2="1371.26" y2="479.343" style="stroke:#009af9; stroke-width:3.072; stroke-opacity:1"/>
<line clip-path="url(#clip492)" x1="1387.26" y1="479.343" x2="1387.26" y2="495.343" style="stroke:#009af9; stroke-width:3.072; stroke-opacity:1"/>
<line clip-path="url(#clip492)" x1="1387.26" y1="479.343" x2="1403.26" y2="479.343" style="stroke:#009af9; stroke-width:3.072; stroke-opacity:1"/>
<line clip-path="url(#clip492)" x1="1101.09" y1="344.105" x2="1101.09" y2="328.105" style="stroke:#009af9; stroke-width:3.072; stroke-opacity:1"/>
<line clip-path="url(#clip492)" x1="1101.09" y1="344.105" x2="1085.09" y2="344.105" style="stroke:#009af9; stroke-width:3.072; stroke-opacity:1"/>
<line clip-path="url(#clip492)" x1="1101.09" y1="344.105" x2="1101.09" y2="360.105" style="stroke:#009af9; stroke-width:3.072; stroke-opacity:1"/>
<line clip-path="url(#clip492)" x1="1101.09" y1="344.105" x2="1117.09" y2="344.105" style="stroke:#009af9; stroke-width:3.072; stroke-opacity:1"/>
<line clip-path="url(#clip492)" x1="612.1" y1="128.735" x2="612.1" y2="112.735" style="stroke:#009af9; stroke-width:3.072; stroke-opacity:1"/>
<line clip-path="url(#clip492)" x1="612.1" y1="128.735" x2="596.1" y2="128.735" style="stroke:#009af9; stroke-width:3.072; stroke-opacity:1"/>
<line clip-path="url(#clip492)" x1="612.1" y1="128.735" x2="612.1" y2="144.735" style="stroke:#009af9; stroke-width:3.072; stroke-opacity:1"/>
<line clip-path="url(#clip492)" x1="612.1" y1="128.735" x2="628.1" y2="128.735" style="stroke:#009af9; stroke-width:3.072; stroke-opacity:1"/>
<line clip-path="url(#clip492)" x1="343.874" y1="84.0448" x2="343.874" y2="68.0448" style="stroke:#009af9; stroke-width:3.072; stroke-opacity:1"/>
<line clip-path="url(#clip492)" x1="343.874" y1="84.0448" x2="327.874" y2="84.0448" style="stroke:#009af9; stroke-width:3.072; stroke-opacity:1"/>
<line clip-path="url(#clip492)" x1="343.874" y1="84.0448" x2="343.874" y2="100.045" style="stroke:#009af9; stroke-width:3.072; stroke-opacity:1"/>
<line clip-path="url(#clip492)" x1="343.874" y1="84.0448" x2="359.874" y2="84.0448" style="stroke:#009af9; stroke-width:3.072; stroke-opacity:1"/>
<polyline clip-path="url(#clip492)" style="stroke:#e26f46; stroke-linecap:butt; stroke-linejoin:round; stroke-width:12; stroke-opacity:1; fill:none" points="
  2201.04,1274.67 2050.44,957.114 1387.26,631.981 1101.09,497.114 612.1,387.07 343.874,258.053 
  "/>
<circle clip-path="url(#clip492)" cx="2201.04" cy="1274.67" r="14" fill="#e26f46" fill-rule="evenodd" fill-opacity="1" stroke="#000000" stroke-opacity="1" stroke-width="3.072"/>
<circle clip-path="url(#clip492)" cx="2050.44" cy="957.114" r="14" fill="#e26f46" fill-rule="evenodd" fill-opacity="1" stroke="#000000" stroke-opacity="1" stroke-width="3.072"/>
<circle clip-path="url(#clip492)" cx="1387.26" cy="631.981" r="14" fill="#e26f46" fill-rule="evenodd" fill-opacity="1" stroke="#000000" stroke-opacity="1" stroke-width="3.072"/>
<circle clip-path="url(#clip492)" cx="1101.09" cy="497.114" r="14" fill="#e26f46" fill-rule="evenodd" fill-opacity="1" stroke="#000000" stroke-opacity="1" stroke-width="3.072"/>
<circle clip-path="url(#clip492)" cx="612.1" cy="387.07" r="14" fill="#e26f46" fill-rule="evenodd" fill-opacity="1" stroke="#000000" stroke-opacity="1" stroke-width="3.072"/>
<circle clip-path="url(#clip492)" cx="343.874" cy="258.053" r="14" fill="#e26f46" fill-rule="evenodd" fill-opacity="1" stroke="#000000" stroke-opacity="1" stroke-width="3.072"/>
<polyline clip-path="url(#clip492)" style="stroke:#3da44d; stroke-linecap:butt; stroke-linejoin:round; stroke-width:12; stroke-opacity:1; fill:none" points="
  2201.04,1310.74 2050.44,950.646 1387.26,657.695 1101.09,504.382 612.1,418.085 343.874,326.856 
  "/>
<line clip-path="url(#clip492)" x1="2201.04" y1="1310.74" x2="2201.04" y2="1294.74" style="stroke:#3da44d; stroke-width:3.072; stroke-opacity:1"/>
<line clip-path="url(#clip492)" x1="2201.04" y1="1310.74" x2="2185.04" y2="1310.74" style="stroke:#3da44d; stroke-width:3.072; stroke-opacity:1"/>
<line clip-path="url(#clip492)" x1="2201.04" y1="1310.74" x2="2201.04" y2="1326.74" style="stroke:#3da44d; stroke-width:3.072; stroke-opacity:1"/>
<line clip-path="url(#clip492)" x1="2201.04" y1="1310.74" x2="2217.04" y2="1310.74" style="stroke:#3da44d; stroke-width:3.072; stroke-opacity:1"/>
<line clip-path="url(#clip492)" x1="2050.44" y1="950.646" x2="2050.44" y2="934.646" style="stroke:#3da44d; stroke-width:3.072; stroke-opacity:1"/>
<line clip-path="url(#clip492)" x1="2050.44" y1="950.646" x2="2034.44" y2="950.646" style="stroke:#3da44d; stroke-width:3.072; stroke-opacity:1"/>
<line clip-path="url(#clip492)" x1="2050.44" y1="950.646" x2="2050.44" y2="966.646" style="stroke:#3da44d; stroke-width:3.072; stroke-opacity:1"/>
<line clip-path="url(#clip492)" x1="2050.44" y1="950.646" x2="2066.44" y2="950.646" style="stroke:#3da44d; stroke-width:3.072; stroke-opacity:1"/>
<line clip-path="url(#clip492)" x1="1387.26" y1="657.695" x2="1387.26" y2="641.695" style="stroke:#3da44d; stroke-width:3.072; stroke-opacity:1"/>
<line clip-path="url(#clip492)" x1="1387.26" y1="657.695" x2="1371.26" y2="657.695" style="stroke:#3da44d; stroke-width:3.072; stroke-opacity:1"/>
<line clip-path="url(#clip492)" x1="1387.26" y1="657.695" x2="1387.26" y2="673.695" style="stroke:#3da44d; stroke-width:3.072; stroke-opacity:1"/>
<line clip-path="url(#clip492)" x1="1387.26" y1="657.695" x2="1403.26" y2="657.695" style="stroke:#3da44d; stroke-width:3.072; stroke-opacity:1"/>
<line clip-path="url(#clip492)" x1="1101.09" y1="504.382" x2="1101.09" y2="488.382" style="stroke:#3da44d; stroke-width:3.072; stroke-opacity:1"/>
<line clip-path="url(#clip492)" x1="1101.09" y1="504.382" x2="1085.09" y2="504.382" style="stroke:#3da44d; stroke-width:3.072; stroke-opacity:1"/>
<line clip-path="url(#clip492)" x1="1101.09" y1="504.382" x2="1101.09" y2="520.382" style="stroke:#3da44d; stroke-width:3.072; stroke-opacity:1"/>
<line clip-path="url(#clip492)" x1="1101.09" y1="504.382" x2="1117.09" y2="504.382" style="stroke:#3da44d; stroke-width:3.072; stroke-opacity:1"/>
<line clip-path="url(#clip492)" x1="612.1" y1="418.085" x2="612.1" y2="402.085" style="stroke:#3da44d; stroke-width:3.072; stroke-opacity:1"/>
<line clip-path="url(#clip492)" x1="612.1" y1="418.085" x2="596.1" y2="418.085" style="stroke:#3da44d; stroke-width:3.072; stroke-opacity:1"/>
<line clip-path="url(#clip492)" x1="612.1" y1="418.085" x2="612.1" y2="434.085" style="stroke:#3da44d; stroke-width:3.072; stroke-opacity:1"/>
<line clip-path="url(#clip492)" x1="612.1" y1="418.085" x2="628.1" y2="418.085" style="stroke:#3da44d; stroke-width:3.072; stroke-opacity:1"/>
<line clip-path="url(#clip492)" x1="343.874" y1="326.856" x2="343.874" y2="310.856" style="stroke:#3da44d; stroke-width:3.072; stroke-opacity:1"/>
<line clip-path="url(#clip492)" x1="343.874" y1="326.856" x2="327.874" y2="326.856" style="stroke:#3da44d; stroke-width:3.072; stroke-opacity:1"/>
<line clip-path="url(#clip492)" x1="343.874" y1="326.856" x2="343.874" y2="342.856" style="stroke:#3da44d; stroke-width:3.072; stroke-opacity:1"/>
<line clip-path="url(#clip492)" x1="343.874" y1="326.856" x2="359.874" y2="326.856" style="stroke:#3da44d; stroke-width:3.072; stroke-opacity:1"/>
<path clip-path="url(#clip490)" d="
M1705.99 297.947 L2191.14 297.947 L2191.14 90.5872 L1705.99 90.5872  Z
  " fill="#ffffff" fill-rule="evenodd" fill-opacity="1"/>
<polyline clip-path="url(#clip490)" style="stroke:#000000; stroke-linecap:butt; stroke-linejoin:round; stroke-width:4; stroke-opacity:1; fill:none" points="
  1705.99,297.947 2191.14,297.947 2191.14,90.5872 1705.99,90.5872 1705.99,297.947 
  "/>
<polyline clip-path="url(#clip490)" style="stroke:#009af9; stroke-linecap:butt; stroke-linejoin:round; stroke-width:4; stroke-opacity:1; fill:none" points="
  1727.87,142.427 1859.11,142.427 
  "/>
<line clip-path="url(#clip490)" x1="1793.49" y1="142.427" x2="1793.49" y2="116.827" style="stroke:#009af9; stroke-width:4.9152; stroke-opacity:1"/>
<line clip-path="url(#clip490)" x1="1793.49" y1="142.427" x2="1767.89" y2="142.427" style="stroke:#009af9; stroke-width:4.9152; stroke-opacity:1"/>
<line clip-path="url(#clip490)" x1="1793.49" y1="142.427" x2="1793.49" y2="168.027" style="stroke:#009af9; stroke-width:4.9152; stroke-opacity:1"/>
<line clip-path="url(#clip490)" x1="1793.49" y1="142.427" x2="1819.09" y2="142.427" style="stroke:#009af9; stroke-width:4.9152; stroke-opacity:1"/>
<path clip-path="url(#clip490)" d="M1880.98 149.476 L1880.98 133.781 L1885.24 133.781 L1885.24 149.314 Q1885.24 152.994 1886.67 154.846 Q1888.11 156.675 1890.98 156.675 Q1894.43 156.675 1896.42 154.476 Q1898.43 152.277 1898.43 148.48 L1898.43 133.781 L1902.69 133.781 L1902.69 159.707 L1898.43 159.707 L1898.43 155.726 Q1896.88 158.087 1894.82 159.244 Q1892.78 160.378 1890.08 160.378 Q1885.61 160.378 1883.29 157.601 Q1880.98 154.823 1880.98 149.476 M1891.7 133.156 L1891.7 133.156 Z" fill="#000000" fill-rule="evenodd" fill-opacity="1" /><path clip-path="url(#clip490)" d="M1933.02 144.059 L1933.02 159.707 L1928.76 159.707 L1928.76 144.198 Q1928.76 140.517 1927.32 138.689 Q1925.89 136.86 1923.02 136.86 Q1919.57 136.86 1917.58 139.059 Q1915.59 141.258 1915.59 145.054 L1915.59 159.707 L1911.3 159.707 L1911.3 133.781 L1915.59 133.781 L1915.59 137.809 Q1917.11 135.471 1919.17 134.314 Q1921.26 133.156 1923.96 133.156 Q1928.43 133.156 1930.72 135.934 Q1933.02 138.689 1933.02 144.059 Z" fill="#000000" fill-rule="evenodd" fill-opacity="1" /><path clip-path="url(#clip490)" d="M1945.72 126.42 L1945.72 133.781 L1954.5 133.781 L1954.5 137.092 L1945.72 137.092 L1945.72 151.166 Q1945.72 154.337 1946.58 155.24 Q1947.46 156.142 1950.12 156.142 L1954.5 156.142 L1954.5 159.707 L1950.12 159.707 Q1945.19 159.707 1943.32 157.878 Q1941.44 156.027 1941.44 151.166 L1941.44 137.092 L1938.32 137.092 L1938.32 133.781 L1941.44 133.781 L1941.44 126.42 L1945.72 126.42 Z" fill="#000000" fill-rule="evenodd" fill-opacity="1" /><path clip-path="url(#clip490)" d="M1981.65 144.059 L1981.65 159.707 L1977.39 159.707 L1977.39 144.198 Q1977.39 140.517 1975.96 138.689 Q1974.52 136.86 1971.65 136.86 Q1968.2 136.86 1966.21 139.059 Q1964.22 141.258 1964.22 145.054 L1964.22 159.707 L1959.94 159.707 L1959.94 123.689 L1964.22 123.689 L1964.22 137.809 Q1965.75 135.471 1967.81 134.314 Q1969.89 133.156 1972.6 133.156 Q1977.07 133.156 1979.36 135.934 Q1981.65 138.689 1981.65 144.059 Z" fill="#000000" fill-rule="evenodd" fill-opacity="1" /><path clip-path="url(#clip490)" d="M2005.17 137.763 Q2004.45 137.346 2003.59 137.161 Q2002.76 136.953 2001.74 136.953 Q1998.13 136.953 1996.19 139.314 Q1994.27 141.652 1994.27 146.05 L1994.27 159.707 L1989.98 159.707 L1989.98 133.781 L1994.27 133.781 L1994.27 137.809 Q1995.61 135.448 1997.76 134.314 Q1999.91 133.156 2002.99 133.156 Q2003.43 133.156 2003.96 133.226 Q2004.5 133.272 2005.14 133.388 L2005.17 137.763 Z" fill="#000000" fill-rule="evenodd" fill-opacity="1" /><path clip-path="url(#clip490)" d="M2030.77 145.679 L2030.77 147.763 L2011.19 147.763 Q2011.46 152.161 2013.83 154.476 Q2016.21 156.767 2020.45 156.767 Q2022.9 156.767 2025.19 156.166 Q2027.51 155.564 2029.77 154.36 L2029.77 158.388 Q2027.48 159.36 2025.08 159.869 Q2022.67 160.378 2020.19 160.378 Q2013.99 160.378 2010.35 156.767 Q2006.74 153.156 2006.74 146.999 Q2006.74 140.633 2010.17 136.906 Q2013.62 133.156 2019.45 133.156 Q2024.68 133.156 2027.71 136.536 Q2030.77 139.892 2030.77 145.679 M2026.51 144.429 Q2026.46 140.934 2024.54 138.851 Q2022.64 136.767 2019.5 136.767 Q2015.93 136.767 2013.78 138.781 Q2011.65 140.795 2011.33 144.453 L2026.51 144.429 Z" fill="#000000" fill-rule="evenodd" fill-opacity="1" /><path clip-path="url(#clip490)" d="M2049.54 146.675 Q2044.38 146.675 2042.39 147.855 Q2040.4 149.036 2040.4 151.883 Q2040.4 154.152 2041.88 155.494 Q2043.39 156.814 2045.95 156.814 Q2049.5 156.814 2051.63 154.314 Q2053.78 151.791 2053.78 147.624 L2053.78 146.675 L2049.54 146.675 M2058.04 144.916 L2058.04 159.707 L2053.78 159.707 L2053.78 155.772 Q2052.32 158.133 2050.14 159.267 Q2047.97 160.378 2044.82 160.378 Q2040.84 160.378 2038.48 158.156 Q2036.14 155.911 2036.14 152.161 Q2036.14 147.786 2039.06 145.564 Q2042 143.342 2047.81 143.342 L2053.78 143.342 L2053.78 142.925 Q2053.78 139.985 2051.83 138.388 Q2049.91 136.767 2046.42 136.767 Q2044.2 136.767 2042.09 137.3 Q2039.98 137.832 2038.04 138.897 L2038.04 134.962 Q2040.38 134.059 2042.58 133.619 Q2044.77 133.156 2046.86 133.156 Q2052.48 133.156 2055.26 136.073 Q2058.04 138.99 2058.04 144.916 Z" fill="#000000" fill-rule="evenodd" fill-opacity="1" /><path clip-path="url(#clip490)" d="M2083.87 137.717 L2083.87 123.689 L2088.13 123.689 L2088.13 159.707 L2083.87 159.707 L2083.87 155.818 Q2082.53 158.133 2080.47 159.267 Q2078.43 160.378 2075.56 160.378 Q2070.86 160.378 2067.9 156.628 Q2064.96 152.879 2064.96 146.767 Q2064.96 140.656 2067.9 136.906 Q2070.86 133.156 2075.56 133.156 Q2078.43 133.156 2080.47 134.291 Q2082.53 135.402 2083.87 137.717 M2069.36 146.767 Q2069.36 151.466 2071.28 154.152 Q2073.22 156.814 2076.6 156.814 Q2079.98 156.814 2081.93 154.152 Q2083.87 151.466 2083.87 146.767 Q2083.87 142.068 2081.93 139.406 Q2079.98 136.721 2076.6 136.721 Q2073.22 136.721 2071.28 139.406 Q2069.36 142.068 2069.36 146.767 Z" fill="#000000" fill-rule="evenodd" fill-opacity="1" /><path clip-path="url(#clip490)" d="M2119.08 145.679 L2119.08 147.763 L2099.5 147.763 Q2099.77 152.161 2102.14 154.476 Q2104.52 156.767 2108.76 156.767 Q2111.21 156.767 2113.5 156.166 Q2115.82 155.564 2118.08 154.36 L2118.08 158.388 Q2115.79 159.36 2113.38 159.869 Q2110.98 160.378 2108.5 160.378 Q2102.3 160.378 2098.66 156.767 Q2095.05 153.156 2095.05 146.999 Q2095.05 140.633 2098.48 136.906 Q2101.93 133.156 2107.76 133.156 Q2112.99 133.156 2116.02 136.536 Q2119.08 139.892 2119.08 145.679 M2114.82 144.429 Q2114.77 140.934 2112.85 138.851 Q2110.95 136.767 2107.81 136.767 Q2104.24 136.767 2102.09 138.781 Q2099.96 140.795 2099.64 144.453 L2114.82 144.429 Z" fill="#000000" fill-rule="evenodd" fill-opacity="1" /><path clip-path="url(#clip490)" d="M2143.13 137.717 L2143.13 123.689 L2147.39 123.689 L2147.39 159.707 L2143.13 159.707 L2143.13 155.818 Q2141.79 158.133 2139.73 159.267 Q2137.69 160.378 2134.82 160.378 Q2130.12 160.378 2127.16 156.628 Q2124.22 152.879 2124.22 146.767 Q2124.22 140.656 2127.16 136.906 Q2130.12 133.156 2134.82 133.156 Q2137.69 133.156 2139.73 134.291 Q2141.79 135.402 2143.13 137.717 M2128.62 146.767 Q2128.62 151.466 2130.54 154.152 Q2132.48 156.814 2135.86 156.814 Q2139.24 156.814 2141.19 154.152 Q2143.13 151.466 2143.13 146.767 Q2143.13 142.068 2141.19 139.406 Q2139.24 136.721 2135.86 136.721 Q2132.48 136.721 2130.54 139.406 Q2128.62 142.068 2128.62 146.767 Z" fill="#000000" fill-rule="evenodd" fill-opacity="1" /><polyline clip-path="url(#clip490)" style="stroke:#e26f46; stroke-linecap:butt; stroke-linejoin:round; stroke-width:4; stroke-opacity:1; fill:none" points="
  1727.87,194.267 1859.11,194.267 
  "/>
<circle clip-path="url(#clip490)" cx="1793.49" cy="194.267" r="23" fill="#e26f46" fill-rule="evenodd" fill-opacity="1" stroke="#000000" stroke-opacity="1" stroke-width="4.9152"/>
<path clip-path="url(#clip490)" d="M1888.39 178.26 L1888.39 185.621 L1897.16 185.621 L1897.16 188.932 L1888.39 188.932 L1888.39 203.006 Q1888.39 206.177 1889.24 207.08 Q1890.12 207.982 1892.78 207.982 L1897.16 207.982 L1897.16 211.547 L1892.78 211.547 Q1887.85 211.547 1885.98 209.718 Q1884.1 207.867 1884.1 203.006 L1884.1 188.932 L1880.98 188.932 L1880.98 185.621 L1884.1 185.621 L1884.1 178.26 L1888.39 178.26 Z" fill="#000000" fill-rule="evenodd" fill-opacity="1" /><path clip-path="url(#clip490)" d="M1924.31 195.899 L1924.31 211.547 L1920.05 211.547 L1920.05 196.038 Q1920.05 192.357 1918.62 190.529 Q1917.18 188.7 1914.31 188.7 Q1910.86 188.7 1908.87 190.899 Q1906.88 193.098 1906.88 196.894 L1906.88 211.547 L1902.6 211.547 L1902.6 175.529 L1906.88 175.529 L1906.88 189.649 Q1908.41 187.311 1910.47 186.154 Q1912.55 184.996 1915.26 184.996 Q1919.73 184.996 1922.02 187.774 Q1924.31 190.529 1924.31 195.899 Z" fill="#000000" fill-rule="evenodd" fill-opacity="1" /><path clip-path="url(#clip490)" d="M1947.83 189.603 Q1947.11 189.186 1946.26 189.001 Q1945.42 188.793 1944.4 188.793 Q1940.79 188.793 1938.85 191.154 Q1936.93 193.492 1936.93 197.89 L1936.93 211.547 L1932.65 211.547 L1932.65 185.621 L1936.93 185.621 L1936.93 189.649 Q1938.27 187.288 1940.42 186.154 Q1942.58 184.996 1945.65 184.996 Q1946.09 184.996 1946.63 185.066 Q1947.16 185.112 1947.81 185.228 L1947.83 189.603 Z" fill="#000000" fill-rule="evenodd" fill-opacity="1" /><path clip-path="url(#clip490)" d="M1973.43 197.519 L1973.43 199.603 L1953.85 199.603 Q1954.13 204.001 1956.49 206.316 Q1958.87 208.607 1963.11 208.607 Q1965.56 208.607 1967.85 208.006 Q1970.17 207.404 1972.44 206.2 L1972.44 210.228 Q1970.15 211.2 1967.74 211.709 Q1965.33 212.218 1962.85 212.218 Q1956.65 212.218 1953.02 208.607 Q1949.4 204.996 1949.4 198.839 Q1949.4 192.473 1952.83 188.746 Q1956.28 184.996 1962.11 184.996 Q1967.34 184.996 1970.38 188.376 Q1973.43 191.732 1973.43 197.519 M1969.17 196.269 Q1969.13 192.774 1967.21 190.691 Q1965.31 188.607 1962.16 188.607 Q1958.59 188.607 1956.44 190.621 Q1954.31 192.635 1953.99 196.293 L1969.17 196.269 Z" fill="#000000" fill-rule="evenodd" fill-opacity="1" /><path clip-path="url(#clip490)" d="M1992.21 198.515 Q1987.04 198.515 1985.05 199.695 Q1983.06 200.876 1983.06 203.723 Q1983.06 205.992 1984.54 207.334 Q1986.05 208.654 1988.62 208.654 Q1992.16 208.654 1994.29 206.154 Q1996.44 203.631 1996.44 199.464 L1996.44 198.515 L1992.21 198.515 M2000.7 196.756 L2000.7 211.547 L1996.44 211.547 L1996.44 207.612 Q1994.98 209.973 1992.81 211.107 Q1990.63 212.218 1987.48 212.218 Q1983.5 212.218 1981.14 209.996 Q1978.8 207.751 1978.8 204.001 Q1978.8 199.626 1981.72 197.404 Q1984.66 195.182 1990.47 195.182 L1996.44 195.182 L1996.44 194.765 Q1996.44 191.825 1994.5 190.228 Q1992.58 188.607 1989.08 188.607 Q1986.86 188.607 1984.75 189.14 Q1982.64 189.672 1980.7 190.737 L1980.7 186.802 Q1983.04 185.899 1985.24 185.459 Q1987.44 184.996 1989.52 184.996 Q1995.14 184.996 1997.92 187.913 Q2000.7 190.83 2000.7 196.756 Z" fill="#000000" fill-rule="evenodd" fill-opacity="1" /><path clip-path="url(#clip490)" d="M2026.53 189.557 L2026.53 175.529 L2030.79 175.529 L2030.79 211.547 L2026.53 211.547 L2026.53 207.658 Q2025.19 209.973 2023.13 211.107 Q2021.09 212.218 2018.22 212.218 Q2013.52 212.218 2010.56 208.468 Q2007.62 204.719 2007.62 198.607 Q2007.62 192.496 2010.56 188.746 Q2013.52 184.996 2018.22 184.996 Q2021.09 184.996 2023.13 186.131 Q2025.19 187.242 2026.53 189.557 M2012.02 198.607 Q2012.02 203.306 2013.94 205.992 Q2015.89 208.654 2019.27 208.654 Q2022.64 208.654 2024.59 205.992 Q2026.53 203.306 2026.53 198.607 Q2026.53 193.908 2024.59 191.246 Q2022.64 188.561 2019.27 188.561 Q2015.89 188.561 2013.94 191.246 Q2012.02 193.908 2012.02 198.607 Z" fill="#000000" fill-rule="evenodd" fill-opacity="1" /><path clip-path="url(#clip490)" d="M2061.74 197.519 L2061.74 199.603 L2042.16 199.603 Q2042.44 204.001 2044.8 206.316 Q2047.18 208.607 2051.42 208.607 Q2053.87 208.607 2056.16 208.006 Q2058.48 207.404 2060.75 206.2 L2060.75 210.228 Q2058.45 211.2 2056.05 211.709 Q2053.64 212.218 2051.16 212.218 Q2044.96 212.218 2041.33 208.607 Q2037.71 204.996 2037.71 198.839 Q2037.71 192.473 2041.14 188.746 Q2044.59 184.996 2050.42 184.996 Q2055.65 184.996 2058.69 188.376 Q2061.74 191.732 2061.74 197.519 M2057.48 196.269 Q2057.44 192.774 2055.51 190.691 Q2053.62 188.607 2050.47 188.607 Q2046.9 188.607 2044.75 190.621 Q2042.62 192.635 2042.3 196.293 L2057.48 196.269 Z" fill="#000000" fill-rule="evenodd" fill-opacity="1" /><path clip-path="url(#clip490)" d="M2085.79 189.557 L2085.79 175.529 L2090.05 175.529 L2090.05 211.547 L2085.79 211.547 L2085.79 207.658 Q2084.45 209.973 2082.39 211.107 Q2080.35 212.218 2077.48 212.218 Q2072.78 212.218 2069.82 208.468 Q2066.88 204.719 2066.88 198.607 Q2066.88 192.496 2069.82 188.746 Q2072.78 184.996 2077.48 184.996 Q2080.35 184.996 2082.39 186.131 Q2084.45 187.242 2085.79 189.557 M2071.28 198.607 Q2071.28 203.306 2073.2 205.992 Q2075.14 208.654 2078.52 208.654 Q2081.9 208.654 2083.85 205.992 Q2085.79 203.306 2085.79 198.607 Q2085.79 193.908 2083.85 191.246 Q2081.9 188.561 2078.52 188.561 Q2075.14 188.561 2073.2 191.246 Q2071.28 193.908 2071.28 198.607 Z" fill="#000000" fill-rule="evenodd" fill-opacity="1" /><polyline clip-path="url(#clip490)" style="stroke:#3da44d; stroke-linecap:butt; stroke-linejoin:round; stroke-width:4; stroke-opacity:1; fill:none" points="
  1727.87,246.107 1859.11,246.107 
  "/>
<line clip-path="url(#clip490)" x1="1793.49" y1="246.107" x2="1793.49" y2="220.507" style="stroke:#3da44d; stroke-width:4.9152; stroke-opacity:1"/>
<line clip-path="url(#clip490)" x1="1793.49" y1="246.107" x2="1767.89" y2="246.107" style="stroke:#3da44d; stroke-width:4.9152; stroke-opacity:1"/>
<line clip-path="url(#clip490)" x1="1793.49" y1="246.107" x2="1793.49" y2="271.707" style="stroke:#3da44d; stroke-width:4.9152; stroke-opacity:1"/>
<line clip-path="url(#clip490)" x1="1793.49" y1="246.107" x2="1819.09" y2="246.107" style="stroke:#3da44d; stroke-width:4.9152; stroke-opacity:1"/>
<path clip-path="url(#clip490)" d="M1885.65 232.67 L1885.65 245.656 L1891.53 245.656 Q1894.8 245.656 1896.58 243.966 Q1898.36 242.276 1898.36 239.151 Q1898.36 236.049 1896.58 234.36 Q1894.8 232.67 1891.53 232.67 L1885.65 232.67 M1880.98 228.827 L1891.53 228.827 Q1897.34 228.827 1900.31 231.466 Q1903.29 234.082 1903.29 239.151 Q1903.29 244.267 1900.31 246.883 Q1897.34 249.498 1891.53 249.498 L1885.65 249.498 L1885.65 263.387 L1880.98 263.387 L1880.98 228.827 Z" fill="#000000" fill-rule="evenodd" fill-opacity="1" /><path clip-path="url(#clip490)" d="M1917.74 240.447 Q1914.31 240.447 1912.32 243.133 Q1910.33 245.795 1910.33 250.447 Q1910.33 255.1 1912.3 257.785 Q1914.29 260.447 1917.74 260.447 Q1921.14 260.447 1923.13 257.762 Q1925.12 255.077 1925.12 250.447 Q1925.12 245.841 1923.13 243.156 Q1921.14 240.447 1917.74 240.447 M1917.74 236.836 Q1923.29 236.836 1926.46 240.447 Q1929.64 244.059 1929.64 250.447 Q1929.64 256.813 1926.46 260.447 Q1923.29 264.058 1917.74 264.058 Q1912.16 264.058 1908.99 260.447 Q1905.84 256.813 1905.84 250.447 Q1905.84 244.059 1908.99 240.447 Q1912.16 236.836 1917.74 236.836 Z" fill="#000000" fill-rule="evenodd" fill-opacity="1" /><path clip-path="url(#clip490)" d="M1936.7 227.369 L1940.96 227.369 L1940.96 263.387 L1936.7 263.387 L1936.7 227.369 Z" fill="#000000" fill-rule="evenodd" fill-opacity="1" /><path clip-path="url(#clip490)" d="M1960.65 265.795 Q1958.85 270.424 1957.14 271.836 Q1955.42 273.248 1952.55 273.248 L1949.15 273.248 L1949.15 269.683 L1951.65 269.683 Q1953.41 269.683 1954.38 268.85 Q1955.35 268.017 1956.53 264.915 L1957.3 262.971 L1946.81 237.461 L1951.33 237.461 L1959.43 257.739 L1967.53 237.461 L1972.04 237.461 L1960.65 265.795 Z" fill="#000000" fill-rule="evenodd" fill-opacity="1" /><path clip-path="url(#clip490)" d="M2000.1 249.359 L2000.1 251.443 L1980.52 251.443 Q1980.79 255.841 1983.15 258.156 Q1985.54 260.447 1989.77 260.447 Q1992.23 260.447 1994.52 259.846 Q1996.83 259.244 1999.1 258.04 L1999.1 262.068 Q1996.81 263.04 1994.4 263.549 Q1992 264.058 1989.52 264.058 Q1983.32 264.058 1979.68 260.447 Q1976.07 256.836 1976.07 250.679 Q1976.07 244.313 1979.5 240.586 Q1982.95 236.836 1988.78 236.836 Q1994.01 236.836 1997.04 240.216 Q2000.1 243.572 2000.1 249.359 M1995.84 248.109 Q1995.79 244.614 1993.87 242.531 Q1991.97 240.447 1988.83 240.447 Q1985.26 240.447 1983.11 242.461 Q1980.98 244.475 1980.65 248.133 L1995.84 248.109 Z" fill="#000000" fill-rule="evenodd" fill-opacity="1" /><path clip-path="url(#clip490)" d="M2023.62 238.225 L2023.62 242.253 Q2021.81 241.327 2019.87 240.864 Q2017.92 240.401 2015.84 240.401 Q2012.67 240.401 2011.07 241.373 Q2009.5 242.346 2009.5 244.29 Q2009.5 245.772 2010.63 246.628 Q2011.77 247.461 2015.19 248.225 L2016.65 248.549 Q2021.19 249.522 2023.08 251.304 Q2025.01 253.063 2025.01 256.234 Q2025.01 259.846 2022.14 261.952 Q2019.29 264.058 2014.29 264.058 Q2012.2 264.058 2009.94 263.642 Q2007.69 263.248 2005.19 262.438 L2005.19 258.04 Q2007.55 259.267 2009.84 259.892 Q2012.14 260.494 2014.38 260.494 Q2017.39 260.494 2019.01 259.475 Q2020.63 258.434 2020.63 256.559 Q2020.63 254.822 2019.45 253.896 Q2018.29 252.971 2014.33 252.114 L2012.85 251.767 Q2008.89 250.934 2007.14 249.221 Q2005.38 247.484 2005.38 244.475 Q2005.38 240.818 2007.97 238.827 Q2010.56 236.836 2015.33 236.836 Q2017.69 236.836 2019.77 237.184 Q2021.86 237.531 2023.62 238.225 Z" fill="#000000" fill-rule="evenodd" fill-opacity="1" /><path clip-path="url(#clip490)" d="M2036 230.1 L2036 237.461 L2044.77 237.461 L2044.77 240.772 L2036 240.772 L2036 254.846 Q2036 258.017 2036.86 258.92 Q2037.74 259.822 2040.4 259.822 L2044.77 259.822 L2044.77 263.387 L2040.4 263.387 Q2035.47 263.387 2033.59 261.558 Q2031.72 259.707 2031.72 254.846 L2031.72 240.772 L2028.59 240.772 L2028.59 237.461 L2031.72 237.461 L2031.72 230.1 L2036 230.1 Z" fill="#000000" fill-rule="evenodd" fill-opacity="1" /><path clip-path="url(#clip490)" d="M2072.55 249.359 L2072.55 251.443 L2052.97 251.443 Q2053.25 255.841 2055.61 258.156 Q2057.99 260.447 2062.23 260.447 Q2064.68 260.447 2066.97 259.846 Q2069.29 259.244 2071.56 258.04 L2071.56 262.068 Q2069.26 263.04 2066.86 263.549 Q2064.45 264.058 2061.97 264.058 Q2055.77 264.058 2052.14 260.447 Q2048.52 256.836 2048.52 250.679 Q2048.52 244.313 2051.95 240.586 Q2055.4 236.836 2061.23 236.836 Q2066.46 236.836 2069.5 240.216 Q2072.55 243.572 2072.55 249.359 M2068.29 248.109 Q2068.25 244.614 2066.33 242.531 Q2064.43 240.447 2061.28 240.447 Q2057.71 240.447 2055.56 242.461 Q2053.43 244.475 2053.11 248.133 L2068.29 248.109 Z" fill="#000000" fill-rule="evenodd" fill-opacity="1" /><path clip-path="url(#clip490)" d="M2094.57 241.443 Q2093.85 241.026 2092.99 240.841 Q2092.16 240.633 2091.14 240.633 Q2087.53 240.633 2085.58 242.994 Q2083.66 245.332 2083.66 249.73 L2083.66 263.387 L2079.38 263.387 L2079.38 237.461 L2083.66 237.461 L2083.66 241.489 Q2085.01 239.128 2087.16 237.994 Q2089.31 236.836 2092.39 236.836 Q2092.83 236.836 2093.36 236.906 Q2093.89 236.952 2094.54 237.068 L2094.57 241.443 Z" fill="#000000" fill-rule="evenodd" fill-opacity="1" /></svg>
