<?xml version="1.0" encoding="utf-8"?>
<svg xmlns="http://www.w3.org/2000/svg" xmlns:xlink="http://www.w3.org/1999/xlink" width="576" height="384" viewBox="0 0 2304 1536">
<defs>
  <clipPath id="clip450">
    <rect x="0" y="0" width="2304" height="1536"/>
  </clipPath>
</defs>
<path clip-path="url(#clip450)" d="
M0 1536 L2304 1536 L2304 0 L0 0  Z
  " fill="#ffffff" fill-rule="evenodd" fill-opacity="1"/>
<defs>
  <clipPath id="clip451">
    <rect x="460" y="0" width="1614" height="1536"/>
  </clipPath>
</defs>
<path clip-path="url(#clip450)" d="
M312.666 1347.54 L2256.76 1347.54 L2256.76 47.2441 L312.666 47.2441  Z
  " fill="#ffffff" fill-rule="evenodd" fill-opacity="1"/>
<defs>
  <clipPath id="clip452">
    <rect x="312" y="47" width="1945" height="1301"/>
  </clipPath>
</defs>
<polyline clip-path="url(#clip452)" style="stroke:#000000; stroke-linecap:butt; stroke-linejoin:round; stroke-width:2; stroke-opacity:0.1; fill:none" points="
  806.728,1347.54 806.728,47.2441 
  "/>
<polyline clip-path="url(#clip452)" style="stroke:#000000; stroke-linecap:butt; stroke-linejoin:round; stroke-width:2; stroke-opacity:0.1; fill:none" points="
  2048.82,1347.54 2048.82,47.2441 
  "/>
<polyline clip-path="url(#clip450)" style="stroke:#000000; stroke-linecap:butt; stroke-linejoin:round; stroke-width:4; stroke-opacity:1; fill:none" points="
  312.666,1347.54 2256.76,1347.54 
  "/>
<polyline clip-path="url(#clip450)" style="stroke:#000000; stroke-linecap:butt; stroke-linejoin:round; stroke-width:4; stroke-opacity:1; fill:none" points="
  806.728,1347.54 806.728,1328.64 
  "/>
<polyline clip-path="url(#clip450)" style="stroke:#000000; stroke-linecap:butt; stroke-linejoin:round; stroke-width:4; stroke-opacity:1; fill:none" points="
  2048.82,1347.54 2048.82,1328.64 
  "/>
<path clip-path="url(#clip450)" d="M756.608 1420.89 L764.247 1420.89 L764.247 1394.53 L755.936 1396.19 L755.936 1391.94 L764.2 1390.27 L768.876 1390.27 L768.876 1420.89 L776.515 1420.89 L776.515 1424.83 L756.608 1424.83 L756.608 1420.89 Z" fill="#000000" fill-rule="evenodd" fill-opacity="1" /><path clip-path="url(#clip450)" d="M795.959 1393.35 Q792.348 1393.35 790.52 1396.91 Q788.714 1400.45 788.714 1407.58 Q788.714 1414.69 790.52 1418.25 Q792.348 1421.8 795.959 1421.8 Q799.594 1421.8 801.399 1418.25 Q803.228 1414.69 803.228 1407.58 Q803.228 1400.45 801.399 1396.91 Q799.594 1393.35 795.959 1393.35 M795.959 1389.64 Q801.77 1389.64 804.825 1394.25 Q807.904 1398.83 807.904 1407.58 Q807.904 1416.31 804.825 1420.92 Q801.77 1425.5 795.959 1425.5 Q790.149 1425.5 787.071 1420.92 Q784.015 1416.31 784.015 1407.58 Q784.015 1398.83 787.071 1394.25 Q790.149 1389.64 795.959 1389.64 Z" fill="#000000" fill-rule="evenodd" fill-opacity="1" /><path clip-path="url(#clip450)" d="M807.904 1383.74 L832.015 1383.74 L832.015 1386.94 L807.904 1386.94 L807.904 1383.74 Z" fill="#000000" fill-rule="evenodd" fill-opacity="1" /><path clip-path="url(#clip450)" d="M851.726 1382.28 Q854.453 1382.86 855.976 1384.7 Q857.519 1386.55 857.519 1389.26 Q857.519 1393.41 854.66 1395.69 Q851.801 1397.96 846.535 1397.96 Q844.767 1397.96 842.886 1397.61 Q841.024 1397.27 839.031 1396.57 L839.031 1392.9 Q840.611 1393.83 842.491 1394.3 Q844.372 1394.77 846.422 1394.77 Q849.996 1394.77 851.858 1393.36 Q853.738 1391.95 853.738 1389.26 Q853.738 1386.77 851.989 1385.38 Q850.259 1383.97 847.156 1383.97 L843.883 1383.97 L843.883 1380.85 L847.306 1380.85 Q850.108 1380.85 851.594 1379.74 Q853.08 1378.61 853.08 1376.5 Q853.08 1374.34 851.538 1373.19 Q850.014 1372.03 847.156 1372.03 Q845.595 1372.03 843.808 1372.37 Q842.021 1372.7 839.877 1373.42 L839.877 1370.03 Q842.04 1369.43 843.921 1369.13 Q845.82 1368.83 847.494 1368.83 Q851.82 1368.83 854.34 1370.81 Q856.86 1372.76 856.86 1376.11 Q856.86 1378.44 855.525 1380.06 Q854.19 1381.66 851.726 1382.28 Z" fill="#000000" fill-rule="evenodd" fill-opacity="1" /><path clip-path="url(#clip450)" d="M1999.08 1420.89 L2006.72 1420.89 L2006.72 1394.53 L1998.41 1396.19 L1998.41 1391.94 L2006.68 1390.27 L2011.35 1390.27 L2011.35 1420.89 L2018.99 1420.89 L2018.99 1424.83 L1999.08 1424.83 L1999.08 1420.89 Z" fill="#000000" fill-rule="evenodd" fill-opacity="1" /><path clip-path="url(#clip450)" d="M2038.43 1393.35 Q2034.82 1393.35 2032.99 1396.91 Q2031.19 1400.45 2031.19 1407.58 Q2031.19 1414.69 2032.99 1418.25 Q2034.82 1421.8 2038.43 1421.8 Q2042.07 1421.8 2043.87 1418.25 Q2045.7 1414.69 2045.7 1407.58 Q2045.7 1400.45 2043.87 1396.91 Q2042.07 1393.35 2038.43 1393.35 M2038.43 1389.64 Q2044.24 1389.64 2047.3 1394.25 Q2050.38 1398.83 2050.38 1407.58 Q2050.38 1416.31 2047.3 1420.92 Q2044.24 1425.5 2038.43 1425.5 Q2032.62 1425.5 2029.55 1420.92 Q2026.49 1416.31 2026.49 1407.58 Q2026.49 1398.83 2029.55 1394.25 Q2032.62 1389.64 2038.43 1389.64 Z" fill="#000000" fill-rule="evenodd" fill-opacity="1" /><path clip-path="url(#clip450)" d="M2050.38 1383.74 L2074.49 1383.74 L2074.49 1386.94 L2050.38 1386.94 L2050.38 1383.74 Z" fill="#000000" fill-rule="evenodd" fill-opacity="1" /><path clip-path="url(#clip450)" d="M2085.96 1394.22 L2099.22 1394.22 L2099.22 1397.42 L2081.39 1397.42 L2081.39 1394.22 Q2083.56 1391.98 2087.28 1388.22 Q2091.02 1384.44 2091.98 1383.35 Q2093.81 1381.3 2094.52 1379.89 Q2095.25 1378.46 2095.25 1377.09 Q2095.25 1374.85 2093.67 1373.44 Q2092.11 1372.03 2089.59 1372.03 Q2087.81 1372.03 2085.81 1372.65 Q2083.84 1373.27 2081.58 1374.53 L2081.58 1370.69 Q2083.88 1369.77 2085.87 1369.3 Q2087.86 1368.83 2089.52 1368.83 Q2093.88 1368.83 2096.48 1371.01 Q2099.07 1373.19 2099.07 1376.84 Q2099.07 1378.57 2098.41 1380.13 Q2097.77 1381.68 2096.06 1383.78 Q2095.59 1384.33 2093.07 1386.94 Q2090.55 1389.54 2085.96 1394.22 Z" fill="#000000" fill-rule="evenodd" fill-opacity="1" /><path clip-path="url(#clip450)" d="M1208.47 1461.87 L1238.51 1461.87 L1238.51 1467.28 L1214.9 1467.28 L1214.9 1481.34 L1237.53 1481.34 L1237.53 1486.76 L1214.9 1486.76 L1214.9 1503.97 L1239.08 1503.97 L1239.08 1509.39 L1208.47 1509.39 L1208.47 1461.87 Z" fill="#000000" fill-rule="evenodd" fill-opacity="1" /><path clip-path="url(#clip450)" d="M1270.05 1479.21 Q1269.07 1478.64 1267.89 1478.38 Q1266.74 1478.1 1265.34 1478.1 Q1260.38 1478.1 1257.7 1481.34 Q1255.06 1484.56 1255.06 1490.61 L1255.06 1509.39 L1249.17 1509.39 L1249.17 1473.74 L1255.06 1473.74 L1255.06 1479.28 Q1256.91 1476.03 1259.87 1474.47 Q1262.83 1472.88 1267.06 1472.88 Q1267.67 1472.88 1268.4 1472.97 Q1269.13 1473.04 1270.02 1473.2 L1270.05 1479.21 Z" fill="#000000" fill-rule="evenodd" fill-opacity="1" /><path clip-path="url(#clip450)" d="M1295.71 1479.21 Q1294.72 1478.64 1293.54 1478.38 Q1292.4 1478.1 1291 1478.1 Q1286.03 1478.1 1283.36 1481.34 Q1280.72 1484.56 1280.72 1490.61 L1280.72 1509.39 L1274.83 1509.39 L1274.83 1473.74 L1280.72 1473.74 L1280.72 1479.28 Q1282.56 1476.03 1285.52 1474.47 Q1288.48 1472.88 1292.72 1472.88 Q1293.32 1472.88 1294.05 1472.97 Q1294.78 1473.04 1295.68 1473.2 L1295.71 1479.21 Z" fill="#000000" fill-rule="evenodd" fill-opacity="1" /><path clip-path="url(#clip450)" d="M1314.23 1477.84 Q1309.52 1477.84 1306.78 1481.54 Q1304.05 1485.2 1304.05 1491.59 Q1304.05 1497.99 1306.75 1501.68 Q1309.49 1505.34 1314.23 1505.34 Q1318.91 1505.34 1321.65 1501.65 Q1324.39 1497.96 1324.39 1491.59 Q1324.39 1485.26 1321.65 1481.57 Q1318.91 1477.84 1314.23 1477.84 M1314.23 1472.88 Q1321.87 1472.88 1326.23 1477.84 Q1330.59 1482.81 1330.59 1491.59 Q1330.59 1500.35 1326.23 1505.34 Q1321.87 1510.31 1314.23 1510.31 Q1306.56 1510.31 1302.2 1505.34 Q1297.87 1500.35 1297.87 1491.59 Q1297.87 1482.81 1302.2 1477.84 Q1306.56 1472.88 1314.23 1472.88 Z" fill="#000000" fill-rule="evenodd" fill-opacity="1" /><path clip-path="url(#clip450)" d="M1360.96 1479.21 Q1359.97 1478.64 1358.79 1478.38 Q1357.65 1478.1 1356.25 1478.1 Q1351.28 1478.1 1348.61 1481.34 Q1345.96 1484.56 1345.96 1490.61 L1345.96 1509.39 L1340.08 1509.39 L1340.08 1473.74 L1345.96 1473.74 L1345.96 1479.28 Q1347.81 1476.03 1350.77 1474.47 Q1353.73 1472.88 1357.96 1472.88 Q1358.57 1472.88 1359.3 1472.97 Q1360.03 1473.04 1360.92 1473.2 L1360.96 1479.21 Z" fill="#000000" fill-rule="evenodd" fill-opacity="1" /><polyline clip-path="url(#clip452)" style="stroke:#000000; stroke-linecap:butt; stroke-linejoin:round; stroke-width:2; stroke-opacity:0.1; fill:none" points="
  312.666,1276.13 2256.76,1276.13 
  "/>
<polyline clip-path="url(#clip452)" style="stroke:#000000; stroke-linecap:butt; stroke-linejoin:round; stroke-width:2; stroke-opacity:0.1; fill:none" points="
  312.666,984.905 2256.76,984.905 
  "/>
<polyline clip-path="url(#clip452)" style="stroke:#000000; stroke-linecap:butt; stroke-linejoin:round; stroke-width:2; stroke-opacity:0.1; fill:none" points="
  312.666,693.677 2256.76,693.677 
  "/>
<polyline clip-path="url(#clip452)" style="stroke:#000000; stroke-linecap:butt; stroke-linejoin:round; stroke-width:2; stroke-opacity:0.1; fill:none" points="
  312.666,402.45 2256.76,402.45 
  "/>
<polyline clip-path="url(#clip452)" style="stroke:#000000; stroke-linecap:butt; stroke-linejoin:round; stroke-width:2; stroke-opacity:0.1; fill:none" points="
  312.666,111.223 2256.76,111.223 
  "/>
<polyline clip-path="url(#clip450)" style="stroke:#000000; stroke-linecap:butt; stroke-linejoin:round; stroke-width:4; stroke-opacity:1; fill:none" points="
  312.666,1347.54 312.666,47.2441 
  "/>
<polyline clip-path="url(#clip450)" style="stroke:#000000; stroke-linecap:butt; stroke-linejoin:round; stroke-width:4; stroke-opacity:1; fill:none" points="
  312.666,1276.13 331.564,1276.13 
  "/>
<polyline clip-path="url(#clip450)" style="stroke:#000000; stroke-linecap:butt; stroke-linejoin:round; stroke-width:4; stroke-opacity:1; fill:none" points="
  312.666,984.905 331.564,984.905 
  "/>
<polyline clip-path="url(#clip450)" style="stroke:#000000; stroke-linecap:butt; stroke-linejoin:round; stroke-width:4; stroke-opacity:1; fill:none" points="
  312.666,693.677 331.564,693.677 
  "/>
<polyline clip-path="url(#clip450)" style="stroke:#000000; stroke-linecap:butt; stroke-linejoin:round; stroke-width:4; stroke-opacity:1; fill:none" points="
  312.666,402.45 331.564,402.45 
  "/>
<polyline clip-path="url(#clip450)" style="stroke:#000000; stroke-linecap:butt; stroke-linejoin:round; stroke-width:4; stroke-opacity:1; fill:none" points="
  312.666,111.223 331.564,111.223 
  "/>
<path clip-path="url(#clip450)" d="M115.411 1295.92 L123.05 1295.92 L123.05 1269.56 L114.74 1271.23 L114.74 1266.97 L123.004 1265.3 L127.68 1265.3 L127.68 1295.92 L135.319 1295.92 L135.319 1299.86 L115.411 1299.86 L115.411 1295.92 Z" fill="#000000" fill-rule="evenodd" fill-opacity="1" /><path clip-path="url(#clip450)" d="M154.763 1268.38 Q151.152 1268.38 149.323 1271.94 Q147.518 1275.48 147.518 1282.61 Q147.518 1289.72 149.323 1293.29 Q151.152 1296.83 154.763 1296.83 Q158.397 1296.83 160.203 1293.29 Q162.032 1289.72 162.032 1282.61 Q162.032 1275.48 160.203 1271.94 Q158.397 1268.38 154.763 1268.38 M154.763 1264.67 Q160.573 1264.67 163.629 1269.28 Q166.707 1273.86 166.707 1282.61 Q166.707 1291.34 163.629 1295.95 Q160.573 1300.53 154.763 1300.53 Q148.953 1300.53 145.874 1295.95 Q142.819 1291.34 142.819 1282.61 Q142.819 1273.86 145.874 1269.28 Q148.953 1264.67 154.763 1264.67 Z" fill="#000000" fill-rule="evenodd" fill-opacity="1" /><path clip-path="url(#clip450)" d="M166.707 1258.78 L190.819 1258.78 L190.819 1261.97 L166.707 1261.97 L166.707 1258.78 Z" fill="#000000" fill-rule="evenodd" fill-opacity="1" /><path clip-path="url(#clip450)" d="M199.677 1269.25 L205.884 1269.25 L205.884 1247.83 L199.132 1249.18 L199.132 1245.72 L205.846 1244.37 L209.646 1244.37 L209.646 1269.25 L215.852 1269.25 L215.852 1272.45 L199.677 1272.45 L199.677 1269.25 Z" fill="#000000" fill-rule="evenodd" fill-opacity="1" /><path clip-path="url(#clip450)" d="M223.526 1267.67 L227.494 1267.67 L227.494 1272.45 L223.526 1272.45 L223.526 1267.67 Z" fill="#000000" fill-rule="evenodd" fill-opacity="1" /><path clip-path="url(#clip450)" d="M246.208 1247.68 L236.616 1262.67 L246.208 1262.67 L246.208 1247.68 M245.211 1244.37 L249.988 1244.37 L249.988 1262.67 L253.994 1262.67 L253.994 1265.83 L249.988 1265.83 L249.988 1272.45 L246.208 1272.45 L246.208 1265.83 L233.531 1265.83 L233.531 1262.16 L245.211 1244.37 Z" fill="#000000" fill-rule="evenodd" fill-opacity="1" /><path clip-path="url(#clip450)" d="M268.401 1246.87 Q265.467 1246.87 263.981 1249.77 Q262.514 1252.64 262.514 1258.44 Q262.514 1264.21 263.981 1267.11 Q265.467 1269.99 268.401 1269.99 Q271.354 1269.99 272.821 1267.11 Q274.307 1264.21 274.307 1258.44 Q274.307 1252.64 272.821 1249.77 Q271.354 1246.87 268.401 1246.87 M268.401 1243.86 Q273.122 1243.86 275.604 1247.6 Q278.106 1251.33 278.106 1258.44 Q278.106 1265.53 275.604 1269.27 Q273.122 1272.99 268.401 1272.99 Q263.68 1272.99 261.179 1269.27 Q258.696 1265.53 258.696 1258.44 Q258.696 1251.33 261.179 1247.6 Q263.68 1243.86 268.401 1243.86 Z" fill="#000000" fill-rule="evenodd" fill-opacity="1" /><path clip-path="url(#clip450)" d="M116.22 1004.7 L123.859 1004.7 L123.859 978.332 L115.549 979.998 L115.549 975.739 L123.813 974.072 L128.489 974.072 L128.489 1004.7 L136.127 1004.7 L136.127 1008.63 L116.22 1008.63 L116.22 1004.7 Z" fill="#000000" fill-rule="evenodd" fill-opacity="1" /><path clip-path="url(#clip450)" d="M155.572 977.151 Q151.961 977.151 150.132 980.716 Q148.326 984.257 148.326 991.387 Q148.326 998.493 150.132 1002.06 Q151.961 1005.6 155.572 1005.6 Q159.206 1005.6 161.012 1002.06 Q162.84 998.493 162.84 991.387 Q162.84 984.257 161.012 980.716 Q159.206 977.151 155.572 977.151 M155.572 973.447 Q161.382 973.447 164.438 978.054 Q167.516 982.637 167.516 991.387 Q167.516 1000.11 164.438 1004.72 Q161.382 1009.3 155.572 1009.3 Q149.762 1009.3 146.683 1004.72 Q143.627 1000.11 143.627 991.387 Q143.627 982.637 146.683 978.054 Q149.762 973.447 155.572 973.447 Z" fill="#000000" fill-rule="evenodd" fill-opacity="1" /><path clip-path="url(#clip450)" d="M167.516 967.549 L191.628 967.549 L191.628 970.746 L167.516 970.746 L167.516 967.549 Z" fill="#000000" fill-rule="evenodd" fill-opacity="1" /><path clip-path="url(#clip450)" d="M200.486 978.025 L206.693 978.025 L206.693 956.603 L199.941 957.957 L199.941 954.496 L206.655 953.142 L210.454 953.142 L210.454 978.025 L216.661 978.025 L216.661 981.222 L200.486 981.222 L200.486 978.025 Z" fill="#000000" fill-rule="evenodd" fill-opacity="1" /><path clip-path="url(#clip450)" d="M224.334 976.445 L228.303 976.445 L228.303 981.222 L224.334 981.222 L224.334 976.445 Z" fill="#000000" fill-rule="evenodd" fill-opacity="1" /><path clip-path="url(#clip450)" d="M248.089 966.082 Q250.816 966.665 252.339 968.508 Q253.881 970.351 253.881 973.059 Q253.881 977.216 251.023 979.492 Q248.164 981.767 242.898 981.767 Q241.13 981.767 239.249 981.41 Q237.387 981.071 235.393 980.376 L235.393 976.708 Q236.973 977.63 238.854 978.1 Q240.735 978.57 242.785 978.57 Q246.358 978.57 248.22 977.159 Q250.101 975.749 250.101 973.059 Q250.101 970.577 248.352 969.185 Q246.622 967.774 243.518 967.774 L240.246 967.774 L240.246 964.652 L243.669 964.652 Q246.471 964.652 247.957 963.543 Q249.443 962.414 249.443 960.308 Q249.443 958.145 247.901 956.997 Q246.377 955.831 243.518 955.831 Q241.957 955.831 240.171 956.17 Q238.384 956.508 236.24 957.223 L236.24 953.838 Q238.403 953.236 240.283 952.935 Q242.183 952.634 243.857 952.634 Q248.183 952.634 250.703 954.609 Q253.223 956.565 253.223 959.913 Q253.223 962.245 251.888 963.862 Q250.553 965.461 248.089 966.082 Z" fill="#000000" fill-rule="evenodd" fill-opacity="1" /><path clip-path="url(#clip450)" d="M261.122 953.142 L276.037 953.142 L276.037 956.339 L264.602 956.339 L264.602 963.223 Q265.429 962.941 266.257 962.809 Q267.085 962.659 267.912 962.659 Q272.614 962.659 275.36 965.235 Q278.106 967.812 278.106 972.213 Q278.106 976.746 275.285 979.266 Q272.464 981.767 267.329 981.767 Q265.561 981.767 263.718 981.466 Q261.894 981.165 259.938 980.564 L259.938 976.746 Q261.63 977.667 263.436 978.119 Q265.241 978.57 267.254 978.57 Q270.508 978.57 272.407 976.858 Q274.307 975.147 274.307 972.213 Q274.307 969.279 272.407 967.567 Q270.508 965.856 267.254 965.856 Q265.73 965.856 264.207 966.194 Q262.702 966.533 261.122 967.248 L261.122 953.142 Z" fill="#000000" fill-rule="evenodd" fill-opacity="1" /><path clip-path="url(#clip450)" d="M115.411 713.47 L123.05 713.47 L123.05 687.104 L114.74 688.771 L114.74 684.512 L123.004 682.845 L127.68 682.845 L127.68 713.47 L135.319 713.47 L135.319 717.405 L115.411 717.405 L115.411 713.47 Z" fill="#000000" fill-rule="evenodd" fill-opacity="1" /><path clip-path="url(#clip450)" d="M154.763 685.924 Q151.152 685.924 149.323 689.488 Q147.518 693.03 147.518 700.16 Q147.518 707.266 149.323 710.831 Q151.152 714.373 154.763 714.373 Q158.397 714.373 160.203 710.831 Q162.032 707.266 162.032 700.16 Q162.032 693.03 160.203 689.488 Q158.397 685.924 154.763 685.924 M154.763 682.22 Q160.573 682.22 163.629 686.826 Q166.707 691.41 166.707 700.16 Q166.707 708.887 163.629 713.493 Q160.573 718.076 154.763 718.076 Q148.953 718.076 145.874 713.493 Q142.819 708.887 142.819 700.16 Q142.819 691.41 145.874 686.826 Q148.953 682.22 154.763 682.22 Z" fill="#000000" fill-rule="evenodd" fill-opacity="1" /><path clip-path="url(#clip450)" d="M166.707 676.321 L190.819 676.321 L190.819 679.519 L166.707 679.519 L166.707 676.321 Z" fill="#000000" fill-rule="evenodd" fill-opacity="1" /><path clip-path="url(#clip450)" d="M199.677 686.797 L205.884 686.797 L205.884 665.375 L199.132 666.729 L199.132 663.269 L205.846 661.915 L209.646 661.915 L209.646 686.797 L215.852 686.797 L215.852 689.995 L199.677 689.995 L199.677 686.797 Z" fill="#000000" fill-rule="evenodd" fill-opacity="1" /><path clip-path="url(#clip450)" d="M223.526 685.217 L227.494 685.217 L227.494 689.995 L223.526 689.995 L223.526 685.217 Z" fill="#000000" fill-rule="evenodd" fill-opacity="1" /><path clip-path="url(#clip450)" d="M247.28 674.854 Q250.007 675.437 251.531 677.281 Q253.073 679.124 253.073 681.832 Q253.073 685.989 250.214 688.264 Q247.355 690.54 242.089 690.54 Q240.321 690.54 238.44 690.183 Q236.578 689.844 234.585 689.148 L234.585 685.481 Q236.165 686.402 238.045 686.873 Q239.926 687.343 241.976 687.343 Q245.55 687.343 247.412 685.932 Q249.292 684.522 249.292 681.832 Q249.292 679.349 247.543 677.958 Q245.813 676.547 242.71 676.547 L239.437 676.547 L239.437 673.425 L242.86 673.425 Q245.662 673.425 247.148 672.315 Q248.634 671.187 248.634 669.08 Q248.634 666.917 247.092 665.77 Q245.568 664.604 242.71 664.604 Q241.149 664.604 239.362 664.943 Q237.575 665.281 235.431 665.996 L235.431 662.61 Q237.594 662.009 239.475 661.708 Q241.374 661.407 243.048 661.407 Q247.374 661.407 249.894 663.382 Q252.414 665.338 252.414 668.685 Q252.414 671.018 251.079 672.635 Q249.744 674.234 247.28 674.854 Z" fill="#000000" fill-rule="evenodd" fill-opacity="1" /><path clip-path="url(#clip450)" d="M268.401 664.416 Q265.467 664.416 263.981 667.312 Q262.514 670.19 262.514 675.983 Q262.514 681.757 263.981 684.653 Q265.467 687.531 268.401 687.531 Q271.354 687.531 272.821 684.653 Q274.307 681.757 274.307 675.983 Q274.307 670.19 272.821 667.312 Q271.354 664.416 268.401 664.416 M268.401 661.407 Q273.122 661.407 275.604 665.15 Q278.106 668.873 278.106 675.983 Q278.106 683.073 275.604 686.816 Q273.122 690.54 268.401 690.54 Q263.68 690.54 261.179 686.816 Q258.696 683.073 258.696 675.983 Q258.696 668.873 261.179 665.15 Q263.68 661.407 268.401 661.407 Z" fill="#000000" fill-rule="evenodd" fill-opacity="1" /><path clip-path="url(#clip450)" d="M116.22 422.243 L123.859 422.243 L123.859 395.877 L115.549 397.544 L115.549 393.284 L123.813 391.618 L128.489 391.618 L128.489 422.243 L136.127 422.243 L136.127 426.178 L116.22 426.178 L116.22 422.243 Z" fill="#000000" fill-rule="evenodd" fill-opacity="1" /><path clip-path="url(#clip450)" d="M155.572 394.696 Q151.961 394.696 150.132 398.261 Q148.326 401.803 148.326 408.932 Q148.326 416.039 150.132 419.604 Q151.961 423.145 155.572 423.145 Q159.206 423.145 161.012 419.604 Q162.84 416.039 162.84 408.932 Q162.84 401.803 161.012 398.261 Q159.206 394.696 155.572 394.696 M155.572 390.993 Q161.382 390.993 164.438 395.599 Q167.516 400.182 167.516 408.932 Q167.516 417.659 164.438 422.266 Q161.382 426.849 155.572 426.849 Q149.762 426.849 146.683 422.266 Q143.627 417.659 143.627 408.932 Q143.627 400.182 146.683 395.599 Q149.762 390.993 155.572 390.993 Z" fill="#000000" fill-rule="evenodd" fill-opacity="1" /><path clip-path="url(#clip450)" d="M167.516 385.094 L191.628 385.094 L191.628 388.291 L167.516 388.291 L167.516 385.094 Z" fill="#000000" fill-rule="evenodd" fill-opacity="1" /><path clip-path="url(#clip450)" d="M200.486 395.57 L206.693 395.57 L206.693 374.148 L199.941 375.502 L199.941 372.041 L206.655 370.687 L210.454 370.687 L210.454 395.57 L216.661 395.57 L216.661 398.767 L200.486 398.767 L200.486 395.57 Z" fill="#000000" fill-rule="evenodd" fill-opacity="1" /><path clip-path="url(#clip450)" d="M224.334 393.99 L228.303 393.99 L228.303 398.767 L224.334 398.767 L224.334 393.99 Z" fill="#000000" fill-rule="evenodd" fill-opacity="1" /><path clip-path="url(#clip450)" d="M239.851 395.57 L253.11 395.57 L253.11 398.767 L235.281 398.767 L235.281 395.57 Q237.443 393.332 241.167 389.57 Q244.91 385.79 245.869 384.699 Q247.694 382.649 248.408 381.238 Q249.142 379.809 249.142 378.436 Q249.142 376.198 247.562 374.787 Q246.001 373.377 243.481 373.377 Q241.694 373.377 239.7 373.997 Q237.726 374.618 235.469 375.878 L235.469 372.041 Q237.763 371.12 239.757 370.65 Q241.75 370.18 243.406 370.18 Q247.769 370.18 250.364 372.361 Q252.96 374.543 252.96 378.192 Q252.96 379.922 252.302 381.483 Q251.662 383.025 249.951 385.132 Q249.48 385.677 246.96 388.291 Q244.44 390.887 239.851 395.57 Z" fill="#000000" fill-rule="evenodd" fill-opacity="1" /><path clip-path="url(#clip450)" d="M261.122 370.687 L276.037 370.687 L276.037 373.885 L264.602 373.885 L264.602 380.768 Q265.429 380.486 266.257 380.355 Q267.085 380.204 267.912 380.204 Q272.614 380.204 275.36 382.781 Q278.106 385.357 278.106 389.758 Q278.106 394.291 275.285 396.811 Q272.464 399.313 267.329 399.313 Q265.561 399.313 263.718 399.012 Q261.894 398.711 259.938 398.109 L259.938 394.291 Q261.63 395.213 263.436 395.664 Q265.241 396.115 267.254 396.115 Q270.508 396.115 272.407 394.404 Q274.307 392.692 274.307 389.758 Q274.307 386.824 272.407 385.113 Q270.508 383.401 267.254 383.401 Q265.73 383.401 264.207 383.74 Q262.702 384.078 261.122 384.793 L261.122 370.687 Z" fill="#000000" fill-rule="evenodd" fill-opacity="1" /><path clip-path="url(#clip450)" d="M115.411 131.015 L123.05 131.015 L123.05 104.65 L114.74 106.316 L114.74 102.057 L123.004 100.39 L127.68 100.39 L127.68 131.015 L135.319 131.015 L135.319 134.95 L115.411 134.95 L115.411 131.015 Z" fill="#000000" fill-rule="evenodd" fill-opacity="1" /><path clip-path="url(#clip450)" d="M154.763 103.469 Q151.152 103.469 149.323 107.034 Q147.518 110.576 147.518 117.705 Q147.518 124.812 149.323 128.376 Q151.152 131.918 154.763 131.918 Q158.397 131.918 160.203 128.376 Q162.032 124.812 162.032 117.705 Q162.032 110.576 160.203 107.034 Q158.397 103.469 154.763 103.469 M154.763 99.7654 Q160.573 99.7654 163.629 104.372 Q166.707 108.955 166.707 117.705 Q166.707 126.432 163.629 131.038 Q160.573 135.622 154.763 135.622 Q148.953 135.622 145.874 131.038 Q142.819 126.432 142.819 117.705 Q142.819 108.955 145.874 104.372 Q148.953 99.7654 154.763 99.7654 Z" fill="#000000" fill-rule="evenodd" fill-opacity="1" /><path clip-path="url(#clip450)" d="M166.707 93.8668 L190.819 93.8668 L190.819 97.0641 L166.707 97.0641 L166.707 93.8668 Z" fill="#000000" fill-rule="evenodd" fill-opacity="1" /><path clip-path="url(#clip450)" d="M199.677 104.343 L205.884 104.343 L205.884 82.9207 L199.132 84.2748 L199.132 80.8142 L205.846 79.46 L209.646 79.46 L209.646 104.343 L215.852 104.343 L215.852 107.54 L199.677 107.54 L199.677 104.343 Z" fill="#000000" fill-rule="evenodd" fill-opacity="1" /><path clip-path="url(#clip450)" d="M223.526 102.763 L227.494 102.763 L227.494 107.54 L223.526 107.54 L223.526 102.763 Z" fill="#000000" fill-rule="evenodd" fill-opacity="1" /><path clip-path="url(#clip450)" d="M239.042 104.343 L252.302 104.343 L252.302 107.54 L234.472 107.54 L234.472 104.343 Q236.635 102.105 240.359 98.343 Q244.101 94.5627 245.061 93.4718 Q246.885 91.4218 247.6 90.0112 Q248.333 88.5818 248.333 87.2088 Q248.333 84.9707 246.753 83.5601 Q245.192 82.1495 242.672 82.1495 Q240.885 82.1495 238.892 82.7702 Q236.917 83.3909 234.66 84.651 L234.66 80.8142 Q236.954 79.8926 238.948 79.4224 Q240.942 78.9522 242.597 78.9522 Q246.96 78.9522 249.556 81.1339 Q252.151 83.3156 252.151 86.9643 Q252.151 88.6946 251.493 90.2557 Q250.853 91.7979 249.142 93.9044 Q248.672 94.4498 246.151 97.0641 Q243.631 99.6596 239.042 104.343 Z" fill="#000000" fill-rule="evenodd" fill-opacity="1" /><path clip-path="url(#clip450)" d="M268.401 81.9615 Q265.467 81.9615 263.981 84.8579 Q262.514 87.7355 262.514 93.5282 Q262.514 99.3022 263.981 102.199 Q265.467 105.076 268.401 105.076 Q271.354 105.076 272.821 102.199 Q274.307 99.3022 274.307 93.5282 Q274.307 87.7355 272.821 84.8579 Q271.354 81.9615 268.401 81.9615 M268.401 78.9522 Q273.122 78.9522 275.604 82.695 Q278.106 86.4189 278.106 93.5282 Q278.106 100.619 275.604 104.362 Q273.122 108.085 268.401 108.085 Q263.68 108.085 261.179 104.362 Q258.696 100.619 258.696 93.5282 Q258.696 86.4189 261.179 82.695 Q263.68 78.9522 268.401 78.9522 Z" fill="#000000" fill-rule="evenodd" fill-opacity="1" /><path clip-path="url(#clip450)" d="M18.4042 827.219 L18.4042 787.02 L23.815 787.02 L23.815 803.889 L65.9242 803.889 L65.9242 810.35 L23.815 810.35 L23.815 827.219 L18.4042 827.219 Z" fill="#000000" fill-rule="evenodd" fill-opacity="1" /><path clip-path="url(#clip450)" d="M30.2762 783.073 L30.2762 777.216 L65.9242 777.216 L65.9242 783.073 L30.2762 783.073 M16.399 783.073 L16.399 777.216 L23.815 777.216 L23.815 783.073 L16.399 783.073 Z" fill="#000000" fill-rule="evenodd" fill-opacity="1" /><path clip-path="url(#clip450)" d="M37.1193 737.208 Q33.1726 735.012 31.2947 731.956 Q29.4168 728.901 29.4168 724.763 Q29.4168 719.193 33.3317 716.169 Q37.2148 713.145 44.4081 713.145 L65.9242 713.145 L65.9242 719.034 L44.599 719.034 Q39.4746 719.034 36.992 720.848 Q34.5094 722.662 34.5094 726.386 Q34.5094 730.938 37.5331 733.579 Q40.5568 736.221 45.7767 736.221 L65.9242 736.221 L65.9242 742.109 L44.599 742.109 Q39.4428 742.109 36.992 743.924 Q34.5094 745.738 34.5094 749.526 Q34.5094 754.013 37.5649 756.655 Q40.5886 759.297 45.7767 759.297 L65.9242 759.297 L65.9242 765.185 L30.2762 765.185 L30.2762 759.297 L35.8144 759.297 Q32.536 757.292 30.9764 754.491 Q29.4168 751.69 29.4168 747.839 Q29.4168 743.956 31.3902 741.25 Q33.3636 738.513 37.1193 737.208 Z" fill="#000000" fill-rule="evenodd" fill-opacity="1" /><path clip-path="url(#clip450)" d="M46.6361 670.973 L49.5006 670.973 L49.5006 697.9 Q55.5481 697.518 58.7309 694.271 Q61.8819 690.993 61.8819 685.168 Q61.8819 681.794 61.0544 678.643 Q60.2269 675.461 58.5718 672.341 L64.1099 672.341 Q65.4467 675.492 66.147 678.803 Q66.8472 682.113 66.8472 685.518 Q66.8472 694.048 61.8819 699.045 Q56.9167 704.011 48.4503 704.011 Q39.6974 704.011 34.5731 699.3 Q29.4168 694.558 29.4168 686.537 Q29.4168 679.344 34.0638 675.174 Q38.6789 670.973 46.6361 670.973 M44.9173 676.829 Q40.1112 676.893 37.2466 679.535 Q34.3821 682.145 34.3821 686.473 Q34.3821 691.375 37.1512 694.335 Q39.9202 697.263 44.9492 697.709 L44.9173 676.829 Z" fill="#000000" fill-rule="evenodd" fill-opacity="1" /><path clip-path="url(#clip450)" d="M16.4626 626.572 Q23.7832 630.837 30.9446 632.906 Q38.106 634.975 45.4584 634.975 Q52.8108 634.975 60.0359 632.906 Q67.2291 630.805 74.5179 626.572 L74.5179 631.664 Q67.0382 636.439 59.8131 638.826 Q52.588 641.181 45.4584 641.181 Q38.3606 641.181 31.1674 638.826 Q23.9742 636.471 16.4626 631.664 L16.4626 626.572 Z" fill="#000000" fill-rule="evenodd" fill-opacity="1" /><path clip-path="url(#clip450)" d="M31.3265 592.484 L36.8647 592.484 Q35.5916 594.966 34.955 597.64 Q34.3184 600.313 34.3184 603.178 Q34.3184 607.538 35.6552 609.735 Q36.992 611.899 39.6656 611.899 Q41.7026 611.899 42.8803 610.339 Q44.0261 608.78 45.0765 604.069 L45.5221 602.064 Q46.8589 595.826 49.3097 593.216 Q51.7286 590.574 56.0891 590.574 Q61.0544 590.574 63.9508 594.521 Q66.8472 598.435 66.8472 605.31 Q66.8472 608.175 66.2743 611.294 Q65.7332 614.382 64.6192 617.819 L58.5718 617.819 Q60.2587 614.573 61.118 611.422 Q61.9456 608.27 61.9456 605.183 Q61.9456 601.045 60.5451 598.817 Q59.1129 596.589 56.5347 596.589 Q54.1476 596.589 52.8745 598.213 Q51.6013 599.804 50.4237 605.247 L49.9462 607.284 Q48.8004 612.726 46.4451 615.145 Q44.058 617.564 39.9202 617.564 Q34.8913 617.564 32.1541 614 Q29.4168 610.435 29.4168 603.878 Q29.4168 600.632 29.8943 597.767 Q30.3717 594.902 31.3265 592.484 Z" fill="#000000" fill-rule="evenodd" fill-opacity="1" /><path clip-path="url(#clip450)" d="M16.4626 582.171 L16.4626 577.079 Q23.9742 572.304 31.1674 569.949 Q38.3606 567.562 45.4584 567.562 Q52.588 567.562 59.8131 569.949 Q67.0382 572.304 74.5179 577.079 L74.5179 582.171 Q67.2291 577.938 60.0359 575.869 Q52.8108 573.768 45.4584 573.768 Q38.106 573.768 30.9446 575.869 Q23.7832 577.938 16.4626 582.171 Z" fill="#000000" fill-rule="evenodd" fill-opacity="1" /><polyline clip-path="url(#clip452)" style="stroke:#009af9; stroke-linecap:butt; stroke-linejoin:round; stroke-width:12; stroke-opacity:1; fill:none" points="
  2201.73,800.15 955.749,698.779 367.687,84.0448 834.929,152.57 
  "/>
<line clip-path="url(#clip452)" x1="2201.73" y1="800.15" x2="2201.73" y2="784.15" style="stroke:#009af9; stroke-width:3.072; stroke-opacity:1"/>
<line clip-path="url(#clip452)" x1="2201.73" y1="800.15" x2="2185.73" y2="800.15" style="stroke:#009af9; stroke-width:3.072; stroke-opacity:1"/>
<line clip-path="url(#clip452)" x1="2201.73" y1="800.15" x2="2201.73" y2="816.15" style="stroke:#009af9; stroke-width:3.072; stroke-opacity:1"/>
<line clip-path="url(#clip452)" x1="2201.73" y1="800.15" x2="2217.73" y2="800.15" style="stroke:#009af9; stroke-width:3.072; stroke-opacity:1"/>
<line clip-path="url(#clip452)" x1="955.749" y1="698.779" x2="955.749" y2="682.779" style="stroke:#009af9; stroke-width:3.072; stroke-opacity:1"/>
<line clip-path="url(#clip452)" x1="955.749" y1="698.779" x2="939.749" y2="698.779" style="stroke:#009af9; stroke-width:3.072; stroke-opacity:1"/>
<line clip-path="url(#clip452)" x1="955.749" y1="698.779" x2="955.749" y2="714.779" style="stroke:#009af9; stroke-width:3.072; stroke-opacity:1"/>
<line clip-path="url(#clip452)" x1="955.749" y1="698.779" x2="971.749" y2="698.779" style="stroke:#009af9; stroke-width:3.072; stroke-opacity:1"/>
<line clip-path="url(#clip452)" x1="367.687" y1="84.0448" x2="367.687" y2="68.0448" style="stroke:#009af9; stroke-width:3.072; stroke-opacity:1"/>
<line clip-path="url(#clip452)" x1="367.687" y1="84.0448" x2="351.687" y2="84.0448" style="stroke:#009af9; stroke-width:3.072; stroke-opacity:1"/>
<line clip-path="url(#clip452)" x1="367.687" y1="84.0448" x2="367.687" y2="100.045" style="stroke:#009af9; stroke-width:3.072; stroke-opacity:1"/>
<line clip-path="url(#clip452)" x1="367.687" y1="84.0448" x2="383.687" y2="84.0448" style="stroke:#009af9; stroke-width:3.072; stroke-opacity:1"/>
<line clip-path="url(#clip452)" x1="834.929" y1="152.57" x2="834.929" y2="136.57" style="stroke:#009af9; stroke-width:3.072; stroke-opacity:1"/>
<line clip-path="url(#clip452)" x1="834.929" y1="152.57" x2="818.929" y2="152.57" style="stroke:#009af9; stroke-width:3.072; stroke-opacity:1"/>
<line clip-path="url(#clip452)" x1="834.929" y1="152.57" x2="834.929" y2="168.57" style="stroke:#009af9; stroke-width:3.072; stroke-opacity:1"/>
<line clip-path="url(#clip452)" x1="834.929" y1="152.57" x2="850.929" y2="152.57" style="stroke:#009af9; stroke-width:3.072; stroke-opacity:1"/>
<polyline clip-path="url(#clip452)" style="stroke:#e26f46; stroke-linecap:butt; stroke-linejoin:round; stroke-width:12; stroke-opacity:1; fill:none" points="
  2201.73,1310.74 955.749,1251.04 367.687,744.702 834.929,760.551 
  "/>
<circle clip-path="url(#clip452)" cx="2201.73" cy="1310.74" r="14" fill="#e26f46" fill-rule="evenodd" fill-opacity="1" stroke="#000000" stroke-opacity="1" stroke-width="3.072"/>
<circle clip-path="url(#clip452)" cx="955.749" cy="1251.04" r="14" fill="#e26f46" fill-rule="evenodd" fill-opacity="1" stroke="#000000" stroke-opacity="1" stroke-width="3.072"/>
<circle clip-path="url(#clip452)" cx="367.687" cy="744.702" r="14" fill="#e26f46" fill-rule="evenodd" fill-opacity="1" stroke="#000000" stroke-opacity="1" stroke-width="3.072"/>
<circle clip-path="url(#clip452)" cx="834.929" cy="760.551" r="14" fill="#e26f46" fill-rule="evenodd" fill-opacity="1" stroke="#000000" stroke-opacity="1" stroke-width="3.072"/>
<polyline clip-path="url(#clip452)" style="stroke:#3da44d; stroke-linecap:butt; stroke-linejoin:round; stroke-width:12; stroke-opacity:1; fill:none" points="
  2201.73,1059.44 955.749,1177.23 367.687,381.253 834.929,586.344 
  "/>
<line clip-path="url(#clip452)" x1="2201.73" y1="1059.44" x2="2201.73" y2="1043.44" style="stroke:#3da44d; stroke-width:3.072; stroke-opacity:1"/>
<line clip-path="url(#clip452)" x1="2201.73" y1="1059.44" x2="2185.73" y2="1059.44" style="stroke:#3da44d; stroke-width:3.072; stroke-opacity:1"/>
<line clip-path="url(#clip452)" x1="2201.73" y1="1059.44" x2="2201.73" y2="1075.44" style="stroke:#3da44d; stroke-width:3.072; stroke-opacity:1"/>
<line clip-path="url(#clip452)" x1="2201.73" y1="1059.44" x2="2217.73" y2="1059.44" style="stroke:#3da44d; stroke-width:3.072; stroke-opacity:1"/>
<line clip-path="url(#clip452)" x1="955.749" y1="1177.23" x2="955.749" y2="1161.23" style="stroke:#3da44d; stroke-width:3.072; stroke-opacity:1"/>
<line clip-path="url(#clip452)" x1="955.749" y1="1177.23" x2="939.749" y2="1177.23" style="stroke:#3da44d; stroke-width:3.072; stroke-opacity:1"/>
<line clip-path="url(#clip452)" x1="955.749" y1="1177.23" x2="955.749" y2="1193.23" style="stroke:#3da44d; stroke-width:3.072; stroke-opacity:1"/>
<line clip-path="url(#clip452)" x1="955.749" y1="1177.23" x2="971.749" y2="1177.23" style="stroke:#3da44d; stroke-width:3.072; stroke-opacity:1"/>
<line clip-path="url(#clip452)" x1="367.687" y1="381.253" x2="367.687" y2="365.253" style="stroke:#3da44d; stroke-width:3.072; stroke-opacity:1"/>
<line clip-path="url(#clip452)" x1="367.687" y1="381.253" x2="351.687" y2="381.253" style="stroke:#3da44d; stroke-width:3.072; stroke-opacity:1"/>
<line clip-path="url(#clip452)" x1="367.687" y1="381.253" x2="367.687" y2="397.253" style="stroke:#3da44d; stroke-width:3.072; stroke-opacity:1"/>
<line clip-path="url(#clip452)" x1="367.687" y1="381.253" x2="383.687" y2="381.253" style="stroke:#3da44d; stroke-width:3.072; stroke-opacity:1"/>
<line clip-path="url(#clip452)" x1="834.929" y1="586.344" x2="834.929" y2="570.344" style="stroke:#3da44d; stroke-width:3.072; stroke-opacity:1"/>
<line clip-path="url(#clip452)" x1="834.929" y1="586.344" x2="818.929" y2="586.344" style="stroke:#3da44d; stroke-width:3.072; stroke-opacity:1"/>
<line clip-path="url(#clip452)" x1="834.929" y1="586.344" x2="834.929" y2="602.344" style="stroke:#3da44d; stroke-width:3.072; stroke-opacity:1"/>
<line clip-path="url(#clip452)" x1="834.929" y1="586.344" x2="850.929" y2="586.344" style="stroke:#3da44d; stroke-width:3.072; stroke-opacity:1"/>
<path clip-path="url(#clip450)" d="
M1709.53 297.947 L2191.95 297.947 L2191.95 90.5872 L1709.53 90.5872  Z
  " fill="#ffffff" fill-rule="evenodd" fill-opacity="1"/>
<polyline clip-path="url(#clip450)" style="stroke:#000000; stroke-linecap:butt; stroke-linejoin:round; stroke-width:4; stroke-opacity:1; fill:none" points="
  1709.53,297.947 2191.95,297.947 2191.95,90.5872 1709.53,90.5872 1709.53,297.947 
  "/>
<polyline clip-path="url(#clip450)" style="stroke:#009af9; stroke-linecap:butt; stroke-linejoin:round; stroke-width:4; stroke-opacity:1; fill:none" points="
  1731.13,142.427 1860.74,142.427 
  "/>
<line clip-path="url(#clip450)" x1="1795.94" y1="142.427" x2="1795.94" y2="116.827" style="stroke:#009af9; stroke-width:4.9152; stroke-opacity:1"/>
<line clip-path="url(#clip450)" x1="1795.94" y1="142.427" x2="1770.34" y2="142.427" style="stroke:#009af9; stroke-width:4.9152; stroke-opacity:1"/>
<line clip-path="url(#clip450)" x1="1795.94" y1="142.427" x2="1795.94" y2="168.027" style="stroke:#009af9; stroke-width:4.9152; stroke-opacity:1"/>
<line clip-path="url(#clip450)" x1="1795.94" y1="142.427" x2="1821.54" y2="142.427" style="stroke:#009af9; stroke-width:4.9152; stroke-opacity:1"/>
<path clip-path="url(#clip450)" d="M1882.34 149.476 L1882.34 133.781 L1886.6 133.781 L1886.6 149.314 Q1886.6 152.994 1888.03 154.846 Q1889.47 156.675 1892.34 156.675 Q1895.79 156.675 1897.78 154.476 Q1899.79 152.277 1899.79 148.48 L1899.79 133.781 L1904.05 133.781 L1904.05 159.707 L1899.79 159.707 L1899.79 155.726 Q1898.24 158.087 1896.18 159.244 Q1894.15 160.378 1891.44 160.378 Q1886.97 160.378 1884.66 157.601 Q1882.34 154.823 1882.34 149.476 M1893.06 133.156 L1893.06 133.156 Z" fill="#000000" fill-rule="evenodd" fill-opacity="1" /><path clip-path="url(#clip450)" d="M1934.38 144.059 L1934.38 159.707 L1930.12 159.707 L1930.12 144.198 Q1930.12 140.517 1928.68 138.689 Q1927.25 136.86 1924.38 136.86 Q1920.93 136.86 1918.94 139.059 Q1916.95 141.258 1916.95 145.054 L1916.95 159.707 L1912.66 159.707 L1912.66 133.781 L1916.95 133.781 L1916.95 137.809 Q1918.47 135.471 1920.53 134.314 Q1922.62 133.156 1925.33 133.156 Q1929.79 133.156 1932.09 135.934 Q1934.38 138.689 1934.38 144.059 Z" fill="#000000" fill-rule="evenodd" fill-opacity="1" /><path clip-path="url(#clip450)" d="M1947.09 126.42 L1947.09 133.781 L1955.86 133.781 L1955.86 137.092 L1947.09 137.092 L1947.09 151.166 Q1947.09 154.337 1947.94 155.24 Q1948.82 156.142 1951.48 156.142 L1955.86 156.142 L1955.86 159.707 L1951.48 159.707 Q1946.55 159.707 1944.68 157.878 Q1942.8 156.027 1942.8 151.166 L1942.8 137.092 L1939.68 137.092 L1939.68 133.781 L1942.8 133.781 L1942.8 126.42 L1947.09 126.42 Z" fill="#000000" fill-rule="evenodd" fill-opacity="1" /><path clip-path="url(#clip450)" d="M1983.01 144.059 L1983.01 159.707 L1978.75 159.707 L1978.75 144.198 Q1978.75 140.517 1977.32 138.689 Q1975.88 136.86 1973.01 136.86 Q1969.56 136.86 1967.57 139.059 Q1965.58 141.258 1965.58 145.054 L1965.58 159.707 L1961.3 159.707 L1961.3 123.689 L1965.58 123.689 L1965.58 137.809 Q1967.11 135.471 1969.17 134.314 Q1971.25 133.156 1973.96 133.156 Q1978.43 133.156 1980.72 135.934 Q1983.01 138.689 1983.01 144.059 Z" fill="#000000" fill-rule="evenodd" fill-opacity="1" /><path clip-path="url(#clip450)" d="M2006.53 137.763 Q2005.81 137.346 2004.96 137.161 Q2004.12 136.953 2003.1 136.953 Q1999.49 136.953 1997.55 139.314 Q1995.63 141.652 1995.63 146.05 L1995.63 159.707 L1991.34 159.707 L1991.34 133.781 L1995.63 133.781 L1995.63 137.809 Q1996.97 135.448 1999.12 134.314 Q2001.27 133.156 2004.35 133.156 Q2004.79 133.156 2005.33 133.226 Q2005.86 133.272 2006.51 133.388 L2006.53 137.763 Z" fill="#000000" fill-rule="evenodd" fill-opacity="1" /><path clip-path="url(#clip450)" d="M2032.13 145.679 L2032.13 147.763 L2012.55 147.763 Q2012.83 152.161 2015.19 154.476 Q2017.57 156.767 2021.81 156.767 Q2024.26 156.767 2026.55 156.166 Q2028.87 155.564 2031.14 154.36 L2031.14 158.388 Q2028.84 159.36 2026.44 159.869 Q2024.03 160.378 2021.55 160.378 Q2015.35 160.378 2011.71 156.767 Q2008.1 153.156 2008.1 146.999 Q2008.1 140.633 2011.53 136.906 Q2014.98 133.156 2020.81 133.156 Q2026.04 133.156 2029.08 136.536 Q2032.13 139.892 2032.13 145.679 M2027.87 144.429 Q2027.83 140.934 2025.9 138.851 Q2024.01 136.767 2020.86 136.767 Q2017.29 136.767 2015.14 138.781 Q2013.01 140.795 2012.69 144.453 L2027.87 144.429 Z" fill="#000000" fill-rule="evenodd" fill-opacity="1" /><path clip-path="url(#clip450)" d="M2050.9 146.675 Q2045.74 146.675 2043.75 147.855 Q2041.76 149.036 2041.76 151.883 Q2041.76 154.152 2043.24 155.494 Q2044.75 156.814 2047.32 156.814 Q2050.86 156.814 2052.99 154.314 Q2055.14 151.791 2055.14 147.624 L2055.14 146.675 L2050.9 146.675 M2059.4 144.916 L2059.4 159.707 L2055.14 159.707 L2055.14 155.772 Q2053.68 158.133 2051.51 159.267 Q2049.33 160.378 2046.18 160.378 Q2042.2 160.378 2039.84 158.156 Q2037.5 155.911 2037.5 152.161 Q2037.5 147.786 2040.42 145.564 Q2043.36 143.342 2049.17 143.342 L2055.14 143.342 L2055.14 142.925 Q2055.14 139.985 2053.2 138.388 Q2051.27 136.767 2047.78 136.767 Q2045.56 136.767 2043.45 137.3 Q2041.34 137.832 2039.4 138.897 L2039.4 134.962 Q2041.74 134.059 2043.94 133.619 Q2046.14 133.156 2048.22 133.156 Q2053.84 133.156 2056.62 136.073 Q2059.4 138.99 2059.4 144.916 Z" fill="#000000" fill-rule="evenodd" fill-opacity="1" /><path clip-path="url(#clip450)" d="M2085.23 137.717 L2085.23 123.689 L2089.49 123.689 L2089.49 159.707 L2085.23 159.707 L2085.23 155.818 Q2083.89 158.133 2081.83 159.267 Q2079.79 160.378 2076.92 160.378 Q2072.22 160.378 2069.26 156.628 Q2066.32 152.879 2066.32 146.767 Q2066.32 140.656 2069.26 136.906 Q2072.22 133.156 2076.92 133.156 Q2079.79 133.156 2081.83 134.291 Q2083.89 135.402 2085.23 137.717 M2070.72 146.767 Q2070.72 151.466 2072.64 154.152 Q2074.58 156.814 2077.96 156.814 Q2081.34 156.814 2083.29 154.152 Q2085.23 151.466 2085.23 146.767 Q2085.23 142.068 2083.29 139.406 Q2081.34 136.721 2077.96 136.721 Q2074.58 136.721 2072.64 139.406 Q2070.72 142.068 2070.72 146.767 Z" fill="#000000" fill-rule="evenodd" fill-opacity="1" /><path clip-path="url(#clip450)" d="M2120.44 145.679 L2120.44 147.763 L2100.86 147.763 Q2101.14 152.161 2103.5 154.476 Q2105.88 156.767 2110.12 156.767 Q2112.57 156.767 2114.86 156.166 Q2117.18 155.564 2119.45 154.36 L2119.45 158.388 Q2117.15 159.36 2114.75 159.869 Q2112.34 160.378 2109.86 160.378 Q2103.66 160.378 2100.02 156.767 Q2096.41 153.156 2096.41 146.999 Q2096.41 140.633 2099.84 136.906 Q2103.29 133.156 2109.12 133.156 Q2114.35 133.156 2117.39 136.536 Q2120.44 139.892 2120.44 145.679 M2116.18 144.429 Q2116.14 140.934 2114.21 138.851 Q2112.32 136.767 2109.17 136.767 Q2105.6 136.767 2103.45 138.781 Q2101.32 140.795 2101 144.453 L2116.18 144.429 Z" fill="#000000" fill-rule="evenodd" fill-opacity="1" /><path clip-path="url(#clip450)" d="M2144.49 137.717 L2144.49 123.689 L2148.75 123.689 L2148.75 159.707 L2144.49 159.707 L2144.49 155.818 Q2143.15 158.133 2141.09 159.267 Q2139.05 160.378 2136.18 160.378 Q2131.48 160.378 2128.52 156.628 Q2125.58 152.879 2125.58 146.767 Q2125.58 140.656 2128.52 136.906 Q2131.48 133.156 2136.18 133.156 Q2139.05 133.156 2141.09 134.291 Q2143.15 135.402 2144.49 137.717 M2129.98 146.767 Q2129.98 151.466 2131.9 154.152 Q2133.84 156.814 2137.22 156.814 Q2140.6 156.814 2142.55 154.152 Q2144.49 151.466 2144.49 146.767 Q2144.49 142.068 2142.55 139.406 Q2140.6 136.721 2137.22 136.721 Q2133.84 136.721 2131.9 139.406 Q2129.98 142.068 2129.98 146.767 Z" fill="#000000" fill-rule="evenodd" fill-opacity="1" /><polyline clip-path="url(#clip450)" style="stroke:#e26f46; stroke-linecap:butt; stroke-linejoin:round; stroke-width:4; stroke-opacity:1; fill:none" points="
  1731.13,194.267 1860.74,194.267 
  "/>
<circle clip-path="url(#clip450)" cx="1795.94" cy="194.267" r="23" fill="#e26f46" fill-rule="evenodd" fill-opacity="1" stroke="#000000" stroke-opacity="1" stroke-width="4.9152"/>
<path clip-path="url(#clip450)" d="M1889.75 178.26 L1889.75 185.621 L1898.52 185.621 L1898.52 188.932 L1889.75 188.932 L1889.75 203.006 Q1889.75 206.177 1890.6 207.08 Q1891.48 207.982 1894.15 207.982 L1898.52 207.982 L1898.52 211.547 L1894.15 211.547 Q1889.22 211.547 1887.34 209.718 Q1885.47 207.867 1885.47 203.006 L1885.47 188.932 L1882.34 188.932 L1882.34 185.621 L1885.47 185.621 L1885.47 178.26 L1889.75 178.26 Z" fill="#000000" fill-rule="evenodd" fill-opacity="1" /><path clip-path="url(#clip450)" d="M1925.67 195.899 L1925.67 211.547 L1921.41 211.547 L1921.41 196.038 Q1921.41 192.357 1919.98 190.529 Q1918.54 188.7 1915.67 188.7 Q1912.22 188.7 1910.23 190.899 Q1908.24 193.098 1908.24 196.894 L1908.24 211.547 L1903.96 211.547 L1903.96 175.529 L1908.24 175.529 L1908.24 189.649 Q1909.77 187.311 1911.83 186.154 Q1913.91 184.996 1916.62 184.996 Q1921.09 184.996 1923.38 187.774 Q1925.67 190.529 1925.67 195.899 Z" fill="#000000" fill-rule="evenodd" fill-opacity="1" /><path clip-path="url(#clip450)" d="M1949.19 189.603 Q1948.47 189.186 1947.62 189.001 Q1946.78 188.793 1945.77 188.793 Q1942.15 188.793 1940.21 191.154 Q1938.29 193.492 1938.29 197.89 L1938.29 211.547 L1934.01 211.547 L1934.01 185.621 L1938.29 185.621 L1938.29 189.649 Q1939.63 187.288 1941.78 186.154 Q1943.94 184.996 1947.02 184.996 Q1947.46 184.996 1947.99 185.066 Q1948.52 185.112 1949.17 185.228 L1949.19 189.603 Z" fill="#000000" fill-rule="evenodd" fill-opacity="1" /><path clip-path="url(#clip450)" d="M1974.79 197.519 L1974.79 199.603 L1955.21 199.603 Q1955.49 204.001 1957.85 206.316 Q1960.23 208.607 1964.47 208.607 Q1966.92 208.607 1969.21 208.006 Q1971.53 207.404 1973.8 206.2 L1973.8 210.228 Q1971.51 211.2 1969.1 211.709 Q1966.69 212.218 1964.21 212.218 Q1958.01 212.218 1954.38 208.607 Q1950.77 204.996 1950.77 198.839 Q1950.77 192.473 1954.19 188.746 Q1957.64 184.996 1963.47 184.996 Q1968.71 184.996 1971.74 188.376 Q1974.79 191.732 1974.79 197.519 M1970.53 196.269 Q1970.49 192.774 1968.57 190.691 Q1966.67 188.607 1963.52 188.607 Q1959.96 188.607 1957.8 190.621 Q1955.67 192.635 1955.35 196.293 L1970.53 196.269 Z" fill="#000000" fill-rule="evenodd" fill-opacity="1" /><path clip-path="url(#clip450)" d="M1993.57 198.515 Q1988.4 198.515 1986.41 199.695 Q1984.42 200.876 1984.42 203.723 Q1984.42 205.992 1985.9 207.334 Q1987.41 208.654 1989.98 208.654 Q1993.52 208.654 1995.65 206.154 Q1997.8 203.631 1997.8 199.464 L1997.8 198.515 L1993.57 198.515 M2002.06 196.756 L2002.06 211.547 L1997.8 211.547 L1997.8 207.612 Q1996.34 209.973 1994.17 211.107 Q1991.99 212.218 1988.84 212.218 Q1984.86 212.218 1982.5 209.996 Q1980.16 207.751 1980.16 204.001 Q1980.16 199.626 1983.08 197.404 Q1986.02 195.182 1991.83 195.182 L1997.8 195.182 L1997.8 194.765 Q1997.8 191.825 1995.86 190.228 Q1993.94 188.607 1990.44 188.607 Q1988.22 188.607 1986.11 189.14 Q1984.01 189.672 1982.06 190.737 L1982.06 186.802 Q1984.4 185.899 1986.6 185.459 Q1988.8 184.996 1990.88 184.996 Q1996.51 184.996 1999.28 187.913 Q2002.06 190.83 2002.06 196.756 Z" fill="#000000" fill-rule="evenodd" fill-opacity="1" /><path clip-path="url(#clip450)" d="M2027.9 189.557 L2027.9 175.529 L2032.15 175.529 L2032.15 211.547 L2027.9 211.547 L2027.9 207.658 Q2026.55 209.973 2024.49 211.107 Q2022.46 212.218 2019.58 212.218 Q2014.89 212.218 2011.92 208.468 Q2008.98 204.719 2008.98 198.607 Q2008.98 192.496 2011.92 188.746 Q2014.89 184.996 2019.58 184.996 Q2022.46 184.996 2024.49 186.131 Q2026.55 187.242 2027.9 189.557 M2013.38 198.607 Q2013.38 203.306 2015.3 205.992 Q2017.25 208.654 2020.63 208.654 Q2024.01 208.654 2025.95 205.992 Q2027.9 203.306 2027.9 198.607 Q2027.9 193.908 2025.95 191.246 Q2024.01 188.561 2020.63 188.561 Q2017.25 188.561 2015.3 191.246 Q2013.38 193.908 2013.38 198.607 Z" fill="#000000" fill-rule="evenodd" fill-opacity="1" /><path clip-path="url(#clip450)" d="M2063.1 197.519 L2063.1 199.603 L2043.52 199.603 Q2043.8 204.001 2046.16 206.316 Q2048.54 208.607 2052.78 208.607 Q2055.23 208.607 2057.52 208.006 Q2059.84 207.404 2062.11 206.2 L2062.11 210.228 Q2059.82 211.2 2057.41 211.709 Q2055 212.218 2052.52 212.218 Q2046.32 212.218 2042.69 208.607 Q2039.08 204.996 2039.08 198.839 Q2039.08 192.473 2042.5 188.746 Q2045.95 184.996 2051.78 184.996 Q2057.02 184.996 2060.05 188.376 Q2063.1 191.732 2063.1 197.519 M2058.84 196.269 Q2058.8 192.774 2056.88 190.691 Q2054.98 188.607 2051.83 188.607 Q2048.27 188.607 2046.11 190.621 Q2043.98 192.635 2043.66 196.293 L2058.84 196.269 Z" fill="#000000" fill-rule="evenodd" fill-opacity="1" /><path clip-path="url(#clip450)" d="M2087.15 189.557 L2087.15 175.529 L2091.41 175.529 L2091.41 211.547 L2087.15 211.547 L2087.15 207.658 Q2085.81 209.973 2083.75 211.107 Q2081.71 212.218 2078.84 212.218 Q2074.14 212.218 2071.18 208.468 Q2068.24 204.719 2068.24 198.607 Q2068.24 192.496 2071.18 188.746 Q2074.14 184.996 2078.84 184.996 Q2081.71 184.996 2083.75 186.131 Q2085.81 187.242 2087.15 189.557 M2072.64 198.607 Q2072.64 203.306 2074.56 205.992 Q2076.51 208.654 2079.89 208.654 Q2083.27 208.654 2085.21 205.992 Q2087.15 203.306 2087.15 198.607 Q2087.15 193.908 2085.21 191.246 Q2083.27 188.561 2079.89 188.561 Q2076.51 188.561 2074.56 191.246 Q2072.64 193.908 2072.64 198.607 Z" fill="#000000" fill-rule="evenodd" fill-opacity="1" /><polyline clip-path="url(#clip450)" style="stroke:#3da44d; stroke-linecap:butt; stroke-linejoin:round; stroke-width:4; stroke-opacity:1; fill:none" points="
  1731.13,246.107 1860.74,246.107 
  "/>
<line clip-path="url(#clip450)" x1="1795.94" y1="246.107" x2="1795.94" y2="220.507" style="stroke:#3da44d; stroke-width:4.9152; stroke-opacity:1"/>
<line clip-path="url(#clip450)" x1="1795.94" y1="246.107" x2="1770.34" y2="246.107" style="stroke:#3da44d; stroke-width:4.9152; stroke-opacity:1"/>
<line clip-path="url(#clip450)" x1="1795.94" y1="246.107" x2="1795.94" y2="271.707" style="stroke:#3da44d; stroke-width:4.9152; stroke-opacity:1"/>
<line clip-path="url(#clip450)" x1="1795.94" y1="246.107" x2="1821.54" y2="246.107" style="stroke:#3da44d; stroke-width:4.9152; stroke-opacity:1"/>
<path clip-path="url(#clip450)" d="M1887.02 232.67 L1887.02 245.656 L1892.9 245.656 Q1896.16 245.656 1897.94 243.966 Q1899.72 242.276 1899.72 239.151 Q1899.72 236.049 1897.94 234.36 Q1896.16 232.67 1892.9 232.67 L1887.02 232.67 M1882.34 228.827 L1892.9 228.827 Q1898.71 228.827 1901.67 231.466 Q1904.65 234.082 1904.65 239.151 Q1904.65 244.267 1901.67 246.883 Q1898.71 249.498 1892.9 249.498 L1887.02 249.498 L1887.02 263.387 L1882.34 263.387 L1882.34 228.827 Z" fill="#000000" fill-rule="evenodd" fill-opacity="1" /><path clip-path="url(#clip450)" d="M1919.1 240.447 Q1915.67 240.447 1913.68 243.133 Q1911.69 245.795 1911.69 250.447 Q1911.69 255.1 1913.66 257.785 Q1915.65 260.447 1919.1 260.447 Q1922.5 260.447 1924.49 257.762 Q1926.48 255.077 1926.48 250.447 Q1926.48 245.841 1924.49 243.156 Q1922.5 240.447 1919.1 240.447 M1919.1 236.836 Q1924.65 236.836 1927.83 240.447 Q1931 244.059 1931 250.447 Q1931 256.813 1927.83 260.447 Q1924.65 264.058 1919.1 264.058 Q1913.52 264.058 1910.35 260.447 Q1907.2 256.813 1907.2 250.447 Q1907.2 244.059 1910.35 240.447 Q1913.52 236.836 1919.1 236.836 Z" fill="#000000" fill-rule="evenodd" fill-opacity="1" /><path clip-path="url(#clip450)" d="M1938.06 227.369 L1942.32 227.369 L1942.32 263.387 L1938.06 263.387 L1938.06 227.369 Z" fill="#000000" fill-rule="evenodd" fill-opacity="1" /><path clip-path="url(#clip450)" d="M1962.02 265.795 Q1960.21 270.424 1958.5 271.836 Q1956.78 273.248 1953.91 273.248 L1950.51 273.248 L1950.51 269.683 L1953.01 269.683 Q1954.77 269.683 1955.74 268.85 Q1956.71 268.017 1957.9 264.915 L1958.66 262.971 L1948.17 237.461 L1952.69 237.461 L1960.79 257.739 L1968.89 237.461 L1973.4 237.461 L1962.02 265.795 Z" fill="#000000" fill-rule="evenodd" fill-opacity="1" /><path clip-path="url(#clip450)" d="M2001.46 249.359 L2001.46 251.443 L1981.88 251.443 Q1982.15 255.841 1984.52 258.156 Q1986.9 260.447 1991.14 260.447 Q1993.59 260.447 1995.88 259.846 Q1998.2 259.244 2000.46 258.04 L2000.46 262.068 Q1998.17 263.04 1995.77 263.549 Q1993.36 264.058 1990.88 264.058 Q1984.68 264.058 1981.04 260.447 Q1977.43 256.836 1977.43 250.679 Q1977.43 244.313 1980.86 240.586 Q1984.31 236.836 1990.14 236.836 Q1995.37 236.836 1998.4 240.216 Q2001.46 243.572 2001.46 249.359 M1997.2 248.109 Q1997.15 244.614 1995.23 242.531 Q1993.34 240.447 1990.19 240.447 Q1986.62 240.447 1984.47 242.461 Q1982.34 244.475 1982.02 248.133 L1997.2 248.109 Z" fill="#000000" fill-rule="evenodd" fill-opacity="1" /><path clip-path="url(#clip450)" d="M2024.98 238.225 L2024.98 242.253 Q2023.17 241.327 2021.23 240.864 Q2019.28 240.401 2017.2 240.401 Q2014.03 240.401 2012.43 241.373 Q2010.86 242.346 2010.86 244.29 Q2010.86 245.772 2011.99 246.628 Q2013.13 247.461 2016.55 248.225 L2018.01 248.549 Q2022.55 249.522 2024.45 251.304 Q2026.37 253.063 2026.37 256.234 Q2026.37 259.846 2023.5 261.952 Q2020.65 264.058 2015.65 264.058 Q2013.57 264.058 2011.3 263.642 Q2009.05 263.248 2006.55 262.438 L2006.55 258.04 Q2008.91 259.267 2011.21 259.892 Q2013.5 260.494 2015.74 260.494 Q2018.75 260.494 2020.37 259.475 Q2021.99 258.434 2021.99 256.559 Q2021.99 254.822 2020.81 253.896 Q2019.65 252.971 2015.7 252.114 L2014.21 251.767 Q2010.26 250.934 2008.5 249.221 Q2006.74 247.484 2006.74 244.475 Q2006.74 240.818 2009.33 238.827 Q2011.92 236.836 2016.69 236.836 Q2019.05 236.836 2021.14 237.184 Q2023.22 237.531 2024.98 238.225 Z" fill="#000000" fill-rule="evenodd" fill-opacity="1" /><path clip-path="url(#clip450)" d="M2037.36 230.1 L2037.36 237.461 L2046.14 237.461 L2046.14 240.772 L2037.36 240.772 L2037.36 254.846 Q2037.36 258.017 2038.22 258.92 Q2039.1 259.822 2041.76 259.822 L2046.14 259.822 L2046.14 263.387 L2041.76 263.387 Q2036.83 263.387 2034.96 261.558 Q2033.08 259.707 2033.08 254.846 L2033.08 240.772 L2029.96 240.772 L2029.96 237.461 L2033.08 237.461 L2033.08 230.1 L2037.36 230.1 Z" fill="#000000" fill-rule="evenodd" fill-opacity="1" /><path clip-path="url(#clip450)" d="M2073.91 249.359 L2073.91 251.443 L2054.33 251.443 Q2054.61 255.841 2056.97 258.156 Q2059.35 260.447 2063.59 260.447 Q2066.04 260.447 2068.33 259.846 Q2070.65 259.244 2072.92 258.04 L2072.92 262.068 Q2070.63 263.04 2068.22 263.549 Q2065.81 264.058 2063.33 264.058 Q2057.13 264.058 2053.5 260.447 Q2049.89 256.836 2049.89 250.679 Q2049.89 244.313 2053.31 240.586 Q2056.76 236.836 2062.59 236.836 Q2067.83 236.836 2070.86 240.216 Q2073.91 243.572 2073.91 249.359 M2069.65 248.109 Q2069.61 244.614 2067.69 242.531 Q2065.79 240.447 2062.64 240.447 Q2059.08 240.447 2056.92 242.461 Q2054.79 244.475 2054.47 248.133 L2069.65 248.109 Z" fill="#000000" fill-rule="evenodd" fill-opacity="1" /><path clip-path="url(#clip450)" d="M2095.93 241.443 Q2095.21 241.026 2094.35 240.841 Q2093.52 240.633 2092.5 240.633 Q2088.89 240.633 2086.95 242.994 Q2085.02 245.332 2085.02 249.73 L2085.02 263.387 L2080.74 263.387 L2080.74 237.461 L2085.02 237.461 L2085.02 241.489 Q2086.37 239.128 2088.52 237.994 Q2090.67 236.836 2093.75 236.836 Q2094.19 236.836 2094.72 236.906 Q2095.26 236.952 2095.9 237.068 L2095.93 241.443 Z" fill="#000000" fill-rule="evenodd" fill-opacity="1" /></svg>
