<?xml version="1.0" encoding="utf-8"?>
<svg xmlns="http://www.w3.org/2000/svg" xmlns:xlink="http://www.w3.org/1999/xlink" width="576" height="384" viewBox="0 0 2304 1536">
<defs>
  <clipPath id="clip760">
    <rect x="0" y="0" width="2304" height="1536"/>
  </clipPath>
</defs>
<path clip-path="url(#clip760)" d="
M0 1536 L2304 1536 L2304 0 L0 0  Z
  " fill="#ffffff" fill-rule="evenodd" fill-opacity="1"/>
<defs>
  <clipPath id="clip761">
    <rect x="460" y="0" width="1614" height="1536"/>
  </clipPath>
</defs>
<path clip-path="url(#clip760)" d="
M288.159 1347.54 L2256.76 1347.54 L2256.76 47.2441 L288.159 47.2441  Z
  " fill="#ffffff" fill-rule="evenodd" fill-opacity="1"/>
<defs>
  <clipPath id="clip762">
    <rect x="288" y="47" width="1970" height="1301"/>
  </clipPath>
</defs>
<polyline clip-path="url(#clip762)" style="stroke:#000000; stroke-linecap:butt; stroke-linejoin:round; stroke-width:2; stroke-opacity:0.1; fill:none" points="
  785.377,1347.54 785.377,47.2441 
  "/>
<polyline clip-path="url(#clip762)" style="stroke:#000000; stroke-linecap:butt; stroke-linejoin:round; stroke-width:2; stroke-opacity:0.1; fill:none" points="
  1628.21,1347.54 1628.21,47.2441 
  "/>
<polyline clip-path="url(#clip760)" style="stroke:#000000; stroke-linecap:butt; stroke-linejoin:round; stroke-width:4; stroke-opacity:1; fill:none" points="
  288.159,1347.54 2256.76,1347.54 
  "/>
<polyline clip-path="url(#clip760)" style="stroke:#000000; stroke-linecap:butt; stroke-linejoin:round; stroke-width:4; stroke-opacity:1; fill:none" points="
  785.377,1347.54 785.377,1328.64 
  "/>
<polyline clip-path="url(#clip760)" style="stroke:#000000; stroke-linecap:butt; stroke-linejoin:round; stroke-width:4; stroke-opacity:1; fill:none" points="
  1628.21,1347.54 1628.21,1328.64 
  "/>
<path clip-path="url(#clip760)" d="M735.031 1420.89 L742.67 1420.89 L742.67 1394.53 L734.36 1396.19 L734.36 1391.94 L742.624 1390.27 L747.3 1390.27 L747.3 1420.89 L754.939 1420.89 L754.939 1424.83 L735.031 1424.83 L735.031 1420.89 Z" fill="#000000" fill-rule="evenodd" fill-opacity="1" /><path clip-path="url(#clip760)" d="M774.383 1393.35 Q770.772 1393.35 768.943 1396.91 Q767.138 1400.45 767.138 1407.58 Q767.138 1414.69 768.943 1418.25 Q770.772 1421.8 774.383 1421.8 Q778.017 1421.8 779.823 1418.25 Q781.652 1414.69 781.652 1407.58 Q781.652 1400.45 779.823 1396.91 Q778.017 1393.35 774.383 1393.35 M774.383 1389.64 Q780.193 1389.64 783.249 1394.25 Q786.328 1398.83 786.328 1407.58 Q786.328 1416.31 783.249 1420.92 Q780.193 1425.5 774.383 1425.5 Q768.573 1425.5 765.494 1420.92 Q762.439 1416.31 762.439 1407.58 Q762.439 1398.83 765.494 1394.25 Q768.573 1389.64 774.383 1389.64 Z" fill="#000000" fill-rule="evenodd" fill-opacity="1" /><path clip-path="url(#clip760)" d="M786.328 1383.74 L810.439 1383.74 L810.439 1386.94 L786.328 1386.94 L786.328 1383.74 Z" fill="#000000" fill-rule="evenodd" fill-opacity="1" /><path clip-path="url(#clip760)" d="M826.764 1384.08 Q824.056 1384.08 822.495 1385.53 Q820.953 1386.98 820.953 1389.52 Q820.953 1392.06 822.495 1393.51 Q824.056 1394.95 826.764 1394.95 Q829.473 1394.95 831.034 1393.51 Q832.595 1392.04 832.595 1389.52 Q832.595 1386.98 831.034 1385.53 Q829.491 1384.08 826.764 1384.08 M822.965 1382.47 Q820.52 1381.86 819.147 1380.19 Q817.793 1378.52 817.793 1376.11 Q817.793 1372.74 820.181 1370.79 Q822.589 1368.83 826.764 1368.83 Q830.958 1368.83 833.347 1370.79 Q835.736 1372.74 835.736 1376.11 Q835.736 1378.52 834.363 1380.19 Q833.008 1381.86 830.582 1382.47 Q833.328 1383.11 834.852 1384.97 Q836.394 1386.83 836.394 1389.52 Q836.394 1393.6 833.892 1395.78 Q831.41 1397.96 826.764 1397.96 Q822.119 1397.96 819.617 1395.78 Q817.135 1393.6 817.135 1389.52 Q817.135 1386.83 818.677 1384.97 Q820.219 1383.11 822.965 1382.47 M821.573 1376.47 Q821.573 1378.65 822.927 1379.87 Q824.3 1381.09 826.764 1381.09 Q829.209 1381.09 830.582 1379.87 Q831.974 1378.65 831.974 1376.47 Q831.974 1374.28 830.582 1373.06 Q829.209 1371.84 826.764 1371.84 Q824.3 1371.84 822.927 1373.06 Q821.573 1374.28 821.573 1376.47 Z" fill="#000000" fill-rule="evenodd" fill-opacity="1" /><path clip-path="url(#clip760)" d="M1577.76 1420.89 L1585.4 1420.89 L1585.4 1394.53 L1577.09 1396.19 L1577.09 1391.94 L1585.35 1390.27 L1590.03 1390.27 L1590.03 1420.89 L1597.67 1420.89 L1597.67 1424.83 L1577.76 1424.83 L1577.76 1420.89 Z" fill="#000000" fill-rule="evenodd" fill-opacity="1" /><path clip-path="url(#clip760)" d="M1617.11 1393.35 Q1613.5 1393.35 1611.67 1396.91 Q1609.86 1400.45 1609.86 1407.58 Q1609.86 1414.69 1611.67 1418.25 Q1613.5 1421.8 1617.11 1421.8 Q1620.74 1421.8 1622.55 1418.25 Q1624.38 1414.69 1624.38 1407.58 Q1624.38 1400.45 1622.55 1396.91 Q1620.74 1393.35 1617.11 1393.35 M1617.11 1389.64 Q1622.92 1389.64 1625.98 1394.25 Q1629.05 1398.83 1629.05 1407.58 Q1629.05 1416.31 1625.98 1420.92 Q1622.92 1425.5 1617.11 1425.5 Q1611.3 1425.5 1608.22 1420.92 Q1605.17 1416.31 1605.17 1407.58 Q1605.17 1398.83 1608.22 1394.25 Q1611.3 1389.64 1617.11 1389.64 Z" fill="#000000" fill-rule="evenodd" fill-opacity="1" /><path clip-path="url(#clip760)" d="M1629.05 1383.74 L1653.17 1383.74 L1653.17 1386.94 L1629.05 1386.94 L1629.05 1383.74 Z" fill="#000000" fill-rule="evenodd" fill-opacity="1" /><path clip-path="url(#clip760)" d="M1669.96 1381.86 Q1667.4 1381.86 1665.9 1383.61 Q1664.41 1385.36 1664.41 1388.41 Q1664.41 1391.44 1665.9 1393.21 Q1667.4 1394.95 1669.96 1394.95 Q1672.52 1394.95 1674 1393.21 Q1675.51 1391.44 1675.51 1388.41 Q1675.51 1385.36 1674 1383.61 Q1672.52 1381.86 1669.96 1381.86 M1677.5 1369.96 L1677.5 1373.42 Q1676.07 1372.74 1674.61 1372.39 Q1673.16 1372.03 1671.73 1372.03 Q1667.97 1372.03 1665.97 1374.57 Q1664 1377.11 1663.72 1382.24 Q1664.83 1380.6 1666.5 1379.74 Q1668.17 1378.85 1670.19 1378.85 Q1674.42 1378.85 1676.86 1381.43 Q1679.33 1383.99 1679.33 1388.41 Q1679.33 1392.74 1676.77 1395.35 Q1674.21 1397.96 1669.96 1397.96 Q1665.09 1397.96 1662.51 1394.24 Q1659.94 1390.5 1659.94 1383.41 Q1659.94 1376.75 1663.1 1372.8 Q1666.26 1368.83 1671.58 1368.83 Q1673.01 1368.83 1674.46 1369.11 Q1675.92 1369.39 1677.5 1369.96 Z" fill="#000000" fill-rule="evenodd" fill-opacity="1" /><path clip-path="url(#clip760)" d="M1196.21 1461.87 L1226.26 1461.87 L1226.26 1467.28 L1202.64 1467.28 L1202.64 1481.34 L1225.27 1481.34 L1225.27 1486.76 L1202.64 1486.76 L1202.64 1503.97 L1226.83 1503.97 L1226.83 1509.39 L1196.21 1509.39 L1196.21 1461.87 Z" fill="#000000" fill-rule="evenodd" fill-opacity="1" /><path clip-path="url(#clip760)" d="M1257.8 1479.21 Q1256.81 1478.64 1255.64 1478.38 Q1254.49 1478.1 1253.09 1478.1 Q1248.12 1478.1 1245.45 1481.34 Q1242.81 1484.56 1242.81 1490.61 L1242.81 1509.39 L1236.92 1509.39 L1236.92 1473.74 L1242.81 1473.74 L1242.81 1479.28 Q1244.66 1476.03 1247.62 1474.47 Q1250.58 1472.88 1254.81 1472.88 Q1255.41 1472.88 1256.15 1472.97 Q1256.88 1473.04 1257.77 1473.2 L1257.8 1479.21 Z" fill="#000000" fill-rule="evenodd" fill-opacity="1" /><path clip-path="url(#clip760)" d="M1283.45 1479.21 Q1282.47 1478.64 1281.29 1478.38 Q1280.14 1478.1 1278.74 1478.1 Q1273.78 1478.1 1271.1 1481.34 Q1268.46 1484.56 1268.46 1490.61 L1268.46 1509.39 L1262.57 1509.39 L1262.57 1473.74 L1268.46 1473.74 L1268.46 1479.28 Q1270.31 1476.03 1273.27 1474.47 Q1276.23 1472.88 1280.46 1472.88 Q1281.07 1472.88 1281.8 1472.97 Q1282.53 1473.04 1283.42 1473.2 L1283.45 1479.21 Z" fill="#000000" fill-rule="evenodd" fill-opacity="1" /><path clip-path="url(#clip760)" d="M1301.98 1477.84 Q1297.27 1477.84 1294.53 1481.54 Q1291.79 1485.2 1291.79 1491.59 Q1291.79 1497.99 1294.5 1501.68 Q1297.24 1505.34 1301.98 1505.34 Q1306.66 1505.34 1309.39 1501.65 Q1312.13 1497.96 1312.13 1491.59 Q1312.13 1485.26 1309.39 1481.57 Q1306.66 1477.84 1301.98 1477.84 M1301.98 1472.88 Q1309.62 1472.88 1313.98 1477.84 Q1318.34 1482.81 1318.34 1491.59 Q1318.34 1500.35 1313.98 1505.34 Q1309.62 1510.31 1301.98 1510.31 Q1294.31 1510.31 1289.95 1505.34 Q1285.62 1500.35 1285.62 1491.59 Q1285.62 1482.81 1289.95 1477.84 Q1294.31 1472.88 1301.98 1472.88 Z" fill="#000000" fill-rule="evenodd" fill-opacity="1" /><path clip-path="url(#clip760)" d="M1348.7 1479.21 Q1347.72 1478.64 1346.54 1478.38 Q1345.39 1478.1 1343.99 1478.1 Q1339.03 1478.1 1336.35 1481.34 Q1333.71 1484.56 1333.71 1490.61 L1333.71 1509.39 L1327.82 1509.39 L1327.82 1473.74 L1333.71 1473.74 L1333.71 1479.28 Q1335.56 1476.03 1338.52 1474.47 Q1341.48 1472.88 1345.71 1472.88 Q1346.32 1472.88 1347.05 1472.97 Q1347.78 1473.04 1348.67 1473.2 L1348.7 1479.21 Z" fill="#000000" fill-rule="evenodd" fill-opacity="1" /><polyline clip-path="url(#clip762)" style="stroke:#000000; stroke-linecap:butt; stroke-linejoin:round; stroke-width:2; stroke-opacity:0.1; fill:none" points="
  288.159,1093.41 2256.76,1093.41 
  "/>
<polyline clip-path="url(#clip762)" style="stroke:#000000; stroke-linecap:butt; stroke-linejoin:round; stroke-width:2; stroke-opacity:0.1; fill:none" points="
  288.159,550.042 2256.76,550.042 
  "/>
<polyline clip-path="url(#clip760)" style="stroke:#000000; stroke-linecap:butt; stroke-linejoin:round; stroke-width:4; stroke-opacity:1; fill:none" points="
  288.159,1347.54 288.159,47.2441 
  "/>
<polyline clip-path="url(#clip760)" style="stroke:#000000; stroke-linecap:butt; stroke-linejoin:round; stroke-width:4; stroke-opacity:1; fill:none" points="
  288.159,1093.41 307.057,1093.41 
  "/>
<polyline clip-path="url(#clip760)" style="stroke:#000000; stroke-linecap:butt; stroke-linejoin:round; stroke-width:4; stroke-opacity:1; fill:none" points="
  288.159,550.042 307.057,550.042 
  "/>
<path clip-path="url(#clip760)" d="M115.411 1113.2 L123.05 1113.2 L123.05 1086.84 L114.74 1088.51 L114.74 1084.25 L123.004 1082.58 L127.68 1082.58 L127.68 1113.2 L135.319 1113.2 L135.319 1117.14 L115.411 1117.14 L115.411 1113.2 Z" fill="#000000" fill-rule="evenodd" fill-opacity="1" /><path clip-path="url(#clip760)" d="M154.763 1085.66 Q151.152 1085.66 149.323 1089.22 Q147.518 1092.77 147.518 1099.89 Q147.518 1107 149.323 1110.57 Q151.152 1114.11 154.763 1114.11 Q158.397 1114.11 160.203 1110.57 Q162.032 1107 162.032 1099.89 Q162.032 1092.77 160.203 1089.22 Q158.397 1085.66 154.763 1085.66 M154.763 1081.95 Q160.573 1081.95 163.629 1086.56 Q166.707 1091.14 166.707 1099.89 Q166.707 1108.62 163.629 1113.23 Q160.573 1117.81 154.763 1117.81 Q148.953 1117.81 145.874 1113.23 Q142.819 1108.62 142.819 1099.89 Q142.819 1091.14 145.874 1086.56 Q148.953 1081.95 154.763 1081.95 Z" fill="#000000" fill-rule="evenodd" fill-opacity="1" /><path clip-path="url(#clip760)" d="M166.707 1076.06 L190.819 1076.06 L190.819 1079.25 L166.707 1079.25 L166.707 1076.06 Z" fill="#000000" fill-rule="evenodd" fill-opacity="1" /><path clip-path="url(#clip760)" d="M209.458 1064.96 L199.866 1079.95 L209.458 1079.95 L209.458 1064.96 M208.461 1061.65 L213.238 1061.65 L213.238 1079.95 L217.244 1079.95 L217.244 1083.11 L213.238 1083.11 L213.238 1089.73 L209.458 1089.73 L209.458 1083.11 L196.781 1083.11 L196.781 1079.44 L208.461 1061.65 Z" fill="#000000" fill-rule="evenodd" fill-opacity="1" /><path clip-path="url(#clip760)" d="M223.526 1084.95 L227.494 1084.95 L227.494 1089.73 L223.526 1089.73 L223.526 1084.95 Z" fill="#000000" fill-rule="evenodd" fill-opacity="1" /><path clip-path="url(#clip760)" d="M243.895 1064.15 Q240.961 1064.15 239.475 1067.05 Q238.008 1069.92 238.008 1075.72 Q238.008 1081.49 239.475 1084.39 Q240.961 1087.27 243.895 1087.27 Q246.847 1087.27 248.314 1084.39 Q249.8 1081.49 249.8 1075.72 Q249.8 1069.92 248.314 1067.05 Q246.847 1064.15 243.895 1064.15 M243.895 1061.14 Q248.615 1061.14 251.098 1064.88 Q253.599 1068.61 253.599 1075.72 Q253.599 1082.81 251.098 1086.55 Q248.615 1090.27 243.895 1090.27 Q239.174 1090.27 236.672 1086.55 Q234.19 1082.81 234.19 1075.72 Q234.19 1068.61 236.672 1064.88 Q239.174 1061.14 243.895 1061.14 Z" fill="#000000" fill-rule="evenodd" fill-opacity="1" /><path clip-path="url(#clip760)" d="M116.22 569.835 L123.859 569.835 L123.859 543.469 L115.549 545.136 L115.549 540.877 L123.813 539.21 L128.489 539.21 L128.489 569.835 L136.127 569.835 L136.127 573.77 L116.22 573.77 L116.22 569.835 Z" fill="#000000" fill-rule="evenodd" fill-opacity="1" /><path clip-path="url(#clip760)" d="M155.572 542.289 Q151.961 542.289 150.132 545.854 Q148.326 549.395 148.326 556.525 Q148.326 563.631 150.132 567.196 Q151.961 570.738 155.572 570.738 Q159.206 570.738 161.012 567.196 Q162.84 563.631 162.84 556.525 Q162.84 549.395 161.012 545.854 Q159.206 542.289 155.572 542.289 M155.572 538.585 Q161.382 538.585 164.438 543.192 Q167.516 547.775 167.516 556.525 Q167.516 565.252 164.438 569.858 Q161.382 574.441 155.572 574.441 Q149.762 574.441 146.683 569.858 Q143.627 565.252 143.627 556.525 Q143.627 547.775 146.683 543.192 Q149.762 538.585 155.572 538.585 Z" fill="#000000" fill-rule="evenodd" fill-opacity="1" /><path clip-path="url(#clip760)" d="M167.516 532.686 L191.628 532.686 L191.628 535.884 L167.516 535.884 L167.516 532.686 Z" fill="#000000" fill-rule="evenodd" fill-opacity="1" /><path clip-path="url(#clip760)" d="M211.338 531.219 Q214.065 531.802 215.589 533.646 Q217.131 535.489 217.131 538.197 Q217.131 542.354 214.272 544.629 Q211.414 546.905 206.147 546.905 Q204.379 546.905 202.499 546.548 Q200.637 546.209 198.643 545.513 L198.643 541.846 Q200.223 542.767 202.104 543.238 Q203.984 543.708 206.035 543.708 Q209.608 543.708 211.47 542.297 Q213.351 540.887 213.351 538.197 Q213.351 535.714 211.602 534.323 Q209.871 532.912 206.768 532.912 L203.495 532.912 L203.495 529.79 L206.918 529.79 Q209.721 529.79 211.207 528.68 Q212.692 527.552 212.692 525.445 Q212.692 523.283 211.15 522.135 Q209.627 520.969 206.768 520.969 Q205.207 520.969 203.42 521.308 Q201.633 521.646 199.489 522.361 L199.489 518.976 Q201.652 518.374 203.533 518.073 Q205.433 517.772 207.107 517.772 Q211.432 517.772 213.953 519.747 Q216.473 521.703 216.473 525.05 Q216.473 527.383 215.137 529 Q213.802 530.599 211.338 531.219 Z" fill="#000000" fill-rule="evenodd" fill-opacity="1" /><path clip-path="url(#clip760)" d="M224.334 541.582 L228.303 541.582 L228.303 546.36 L224.334 546.36 L224.334 541.582 Z" fill="#000000" fill-rule="evenodd" fill-opacity="1" /><path clip-path="url(#clip760)" d="M236.616 518.28 L251.531 518.28 L251.531 521.477 L240.095 521.477 L240.095 528.361 Q240.923 528.079 241.75 527.947 Q242.578 527.796 243.406 527.796 Q248.107 527.796 250.853 530.373 Q253.599 532.95 253.599 537.351 Q253.599 541.883 250.778 544.404 Q247.957 546.905 242.823 546.905 Q241.055 546.905 239.211 546.604 Q237.387 546.303 235.431 545.701 L235.431 541.883 Q237.124 542.805 238.929 543.256 Q240.735 543.708 242.747 543.708 Q246.001 543.708 247.901 541.996 Q249.8 540.285 249.8 537.351 Q249.8 534.417 247.901 532.705 Q246.001 530.994 242.747 530.994 Q241.224 530.994 239.7 531.332 Q238.196 531.671 236.616 532.385 L236.616 518.28 Z" fill="#000000" fill-rule="evenodd" fill-opacity="1" /><path clip-path="url(#clip760)" d="M18.4042 827.219 L18.4042 787.02 L23.815 787.02 L23.815 803.889 L65.9242 803.889 L65.9242 810.35 L23.815 810.35 L23.815 827.219 L18.4042 827.219 Z" fill="#000000" fill-rule="evenodd" fill-opacity="1" /><path clip-path="url(#clip760)" d="M30.2762 783.073 L30.2762 777.216 L65.9242 777.216 L65.9242 783.073 L30.2762 783.073 M16.399 783.073 L16.399 777.216 L23.815 777.216 L23.815 783.073 L16.399 783.073 Z" fill="#000000" fill-rule="evenodd" fill-opacity="1" /><path clip-path="url(#clip760)" d="M37.1193 737.208 Q33.1726 735.012 31.2947 731.956 Q29.4168 728.901 29.4168 724.763 Q29.4168 719.193 33.3317 716.169 Q37.2148 713.145 44.4081 713.145 L65.9242 713.145 L65.9242 719.034 L44.599 719.034 Q39.4746 719.034 36.992 720.848 Q34.5094 722.662 34.5094 726.386 Q34.5094 730.938 37.5331 733.579 Q40.5568 736.221 45.7767 736.221 L65.9242 736.221 L65.9242 742.109 L44.599 742.109 Q39.4428 742.109 36.992 743.924 Q34.5094 745.738 34.5094 749.526 Q34.5094 754.013 37.5649 756.655 Q40.5886 759.297 45.7767 759.297 L65.9242 759.297 L65.9242 765.185 L30.2762 765.185 L30.2762 759.297 L35.8144 759.297 Q32.536 757.292 30.9764 754.491 Q29.4168 751.69 29.4168 747.839 Q29.4168 743.956 31.3902 741.25 Q33.3636 738.513 37.1193 737.208 Z" fill="#000000" fill-rule="evenodd" fill-opacity="1" /><path clip-path="url(#clip760)" d="M46.6361 670.973 L49.5006 670.973 L49.5006 697.9 Q55.5481 697.518 58.7309 694.271 Q61.8819 690.993 61.8819 685.168 Q61.8819 681.794 61.0544 678.643 Q60.2269 675.461 58.5718 672.341 L64.1099 672.341 Q65.4467 675.492 66.147 678.803 Q66.8472 682.113 66.8472 685.518 Q66.8472 694.048 61.8819 699.045 Q56.9167 704.011 48.4503 704.011 Q39.6974 704.011 34.5731 699.3 Q29.4168 694.558 29.4168 686.537 Q29.4168 679.344 34.0638 675.174 Q38.6789 670.973 46.6361 670.973 M44.9173 676.829 Q40.1112 676.893 37.2466 679.535 Q34.3821 682.145 34.3821 686.473 Q34.3821 691.375 37.1512 694.335 Q39.9202 697.263 44.9492 697.709 L44.9173 676.829 Z" fill="#000000" fill-rule="evenodd" fill-opacity="1" /><path clip-path="url(#clip760)" d="M16.4626 626.572 Q23.7832 630.837 30.9446 632.906 Q38.106 634.975 45.4584 634.975 Q52.8108 634.975 60.0359 632.906 Q67.2291 630.805 74.5179 626.572 L74.5179 631.664 Q67.0382 636.439 59.8131 638.826 Q52.588 641.181 45.4584 641.181 Q38.3606 641.181 31.1674 638.826 Q23.9742 636.471 16.4626 631.664 L16.4626 626.572 Z" fill="#000000" fill-rule="evenodd" fill-opacity="1" /><path clip-path="url(#clip760)" d="M31.3265 592.484 L36.8647 592.484 Q35.5916 594.966 34.955 597.64 Q34.3184 600.313 34.3184 603.178 Q34.3184 607.538 35.6552 609.735 Q36.992 611.899 39.6656 611.899 Q41.7026 611.899 42.8803 610.339 Q44.0261 608.78 45.0765 604.069 L45.5221 602.064 Q46.8589 595.826 49.3097 593.216 Q51.7286 590.574 56.0891 590.574 Q61.0544 590.574 63.9508 594.521 Q66.8472 598.435 66.8472 605.31 Q66.8472 608.175 66.2743 611.294 Q65.7332 614.382 64.6192 617.819 L58.5718 617.819 Q60.2587 614.573 61.118 611.422 Q61.9456 608.27 61.9456 605.183 Q61.9456 601.045 60.5451 598.817 Q59.1129 596.589 56.5347 596.589 Q54.1476 596.589 52.8745 598.213 Q51.6013 599.804 50.4237 605.247 L49.9462 607.284 Q48.8004 612.726 46.4451 615.145 Q44.058 617.564 39.9202 617.564 Q34.8913 617.564 32.1541 614 Q29.4168 610.435 29.4168 603.878 Q29.4168 600.632 29.8943 597.767 Q30.3717 594.902 31.3265 592.484 Z" fill="#000000" fill-rule="evenodd" fill-opacity="1" /><path clip-path="url(#clip760)" d="M16.4626 582.171 L16.4626 577.079 Q23.9742 572.304 31.1674 569.949 Q38.3606 567.562 45.4584 567.562 Q52.588 567.562 59.8131 569.949 Q67.0382 572.304 74.5179 577.079 L74.5179 582.171 Q67.2291 577.938 60.0359 575.869 Q52.8108 573.768 45.4584 573.768 Q38.106 573.768 30.9446 575.869 Q23.7832 577.938 16.4626 582.171 Z" fill="#000000" fill-rule="evenodd" fill-opacity="1" /><polyline clip-path="url(#clip762)" style="stroke:#009af9; stroke-linecap:butt; stroke-linejoin:round; stroke-width:12; stroke-opacity:1; fill:none" points="
  1741.88,1310.74 1513.72,1200.27 1202.75,1000.54 964.415,768.431 
  "/>
<line clip-path="url(#clip762)" x1="1741.88" y1="1310.74" x2="1741.88" y2="1294.74" style="stroke:#009af9; stroke-width:3.072; stroke-opacity:1"/>
<line clip-path="url(#clip762)" x1="1741.88" y1="1310.74" x2="1725.88" y2="1310.74" style="stroke:#009af9; stroke-width:3.072; stroke-opacity:1"/>
<line clip-path="url(#clip762)" x1="1741.88" y1="1310.74" x2="1741.88" y2="1326.74" style="stroke:#009af9; stroke-width:3.072; stroke-opacity:1"/>
<line clip-path="url(#clip762)" x1="1741.88" y1="1310.74" x2="1757.88" y2="1310.74" style="stroke:#009af9; stroke-width:3.072; stroke-opacity:1"/>
<line clip-path="url(#clip762)" x1="1513.72" y1="1200.27" x2="1513.72" y2="1184.27" style="stroke:#009af9; stroke-width:3.072; stroke-opacity:1"/>
<line clip-path="url(#clip762)" x1="1513.72" y1="1200.27" x2="1497.72" y2="1200.27" style="stroke:#009af9; stroke-width:3.072; stroke-opacity:1"/>
<line clip-path="url(#clip762)" x1="1513.72" y1="1200.27" x2="1513.72" y2="1216.27" style="stroke:#009af9; stroke-width:3.072; stroke-opacity:1"/>
<line clip-path="url(#clip762)" x1="1513.72" y1="1200.27" x2="1529.72" y2="1200.27" style="stroke:#009af9; stroke-width:3.072; stroke-opacity:1"/>
<line clip-path="url(#clip762)" x1="1202.75" y1="1000.54" x2="1202.75" y2="984.538" style="stroke:#009af9; stroke-width:3.072; stroke-opacity:1"/>
<line clip-path="url(#clip762)" x1="1202.75" y1="1000.54" x2="1186.75" y2="1000.54" style="stroke:#009af9; stroke-width:3.072; stroke-opacity:1"/>
<line clip-path="url(#clip762)" x1="1202.75" y1="1000.54" x2="1202.75" y2="1016.54" style="stroke:#009af9; stroke-width:3.072; stroke-opacity:1"/>
<line clip-path="url(#clip762)" x1="1202.75" y1="1000.54" x2="1218.75" y2="1000.54" style="stroke:#009af9; stroke-width:3.072; stroke-opacity:1"/>
<line clip-path="url(#clip762)" x1="964.415" y1="768.431" x2="964.415" y2="752.431" style="stroke:#009af9; stroke-width:3.072; stroke-opacity:1"/>
<line clip-path="url(#clip762)" x1="964.415" y1="768.431" x2="948.415" y2="768.431" style="stroke:#009af9; stroke-width:3.072; stroke-opacity:1"/>
<line clip-path="url(#clip762)" x1="964.415" y1="768.431" x2="964.415" y2="784.431" style="stroke:#009af9; stroke-width:3.072; stroke-opacity:1"/>
<line clip-path="url(#clip762)" x1="964.415" y1="768.431" x2="980.415" y2="768.431" style="stroke:#009af9; stroke-width:3.072; stroke-opacity:1"/>
<polyline clip-path="url(#clip762)" style="stroke:#e26f46; stroke-linecap:butt; stroke-linejoin:round; stroke-width:12; stroke-opacity:1; fill:none" points="
  2038.34,972.693 1490.9,856.586 1116.43,664.373 1157.39,458.527 
  "/>
<circle clip-path="url(#clip762)" cx="2038.34" cy="972.693" r="14" fill="#e26f46" fill-rule="evenodd" fill-opacity="1" stroke="#000000" stroke-opacity="1" stroke-width="3.072"/>
<circle clip-path="url(#clip762)" cx="1490.9" cy="856.586" r="14" fill="#e26f46" fill-rule="evenodd" fill-opacity="1" stroke="#000000" stroke-opacity="1" stroke-width="3.072"/>
<circle clip-path="url(#clip762)" cx="1116.43" cy="664.373" r="14" fill="#e26f46" fill-rule="evenodd" fill-opacity="1" stroke="#000000" stroke-opacity="1" stroke-width="3.072"/>
<circle clip-path="url(#clip762)" cx="1157.39" cy="458.527" r="14" fill="#e26f46" fill-rule="evenodd" fill-opacity="1" stroke="#000000" stroke-opacity="1" stroke-width="3.072"/>
<polyline clip-path="url(#clip762)" style="stroke:#3da44d; stroke-linecap:butt; stroke-linejoin:round; stroke-width:12; stroke-opacity:1; fill:none" points="
  2201.04,1136.79 2200.9,922.699 1887.23,607.932 1513.55,567.84 
  "/>
<line clip-path="url(#clip762)" x1="2201.04" y1="1136.79" x2="2201.04" y2="1120.79" style="stroke:#3da44d; stroke-width:3.072; stroke-opacity:1"/>
<line clip-path="url(#clip762)" x1="2201.04" y1="1136.79" x2="2185.04" y2="1136.79" style="stroke:#3da44d; stroke-width:3.072; stroke-opacity:1"/>
<line clip-path="url(#clip762)" x1="2201.04" y1="1136.79" x2="2201.04" y2="1152.79" style="stroke:#3da44d; stroke-width:3.072; stroke-opacity:1"/>
<line clip-path="url(#clip762)" x1="2201.04" y1="1136.79" x2="2217.04" y2="1136.79" style="stroke:#3da44d; stroke-width:3.072; stroke-opacity:1"/>
<line clip-path="url(#clip762)" x1="2200.9" y1="922.699" x2="2200.9" y2="906.699" style="stroke:#3da44d; stroke-width:3.072; stroke-opacity:1"/>
<line clip-path="url(#clip762)" x1="2200.9" y1="922.699" x2="2184.9" y2="922.699" style="stroke:#3da44d; stroke-width:3.072; stroke-opacity:1"/>
<line clip-path="url(#clip762)" x1="2200.9" y1="922.699" x2="2200.9" y2="938.699" style="stroke:#3da44d; stroke-width:3.072; stroke-opacity:1"/>
<line clip-path="url(#clip762)" x1="2200.9" y1="922.699" x2="2216.9" y2="922.699" style="stroke:#3da44d; stroke-width:3.072; stroke-opacity:1"/>
<line clip-path="url(#clip762)" x1="1887.23" y1="607.932" x2="1887.23" y2="591.932" style="stroke:#3da44d; stroke-width:3.072; stroke-opacity:1"/>
<line clip-path="url(#clip762)" x1="1887.23" y1="607.932" x2="1871.23" y2="607.932" style="stroke:#3da44d; stroke-width:3.072; stroke-opacity:1"/>
<line clip-path="url(#clip762)" x1="1887.23" y1="607.932" x2="1887.23" y2="623.932" style="stroke:#3da44d; stroke-width:3.072; stroke-opacity:1"/>
<line clip-path="url(#clip762)" x1="1887.23" y1="607.932" x2="1903.23" y2="607.932" style="stroke:#3da44d; stroke-width:3.072; stroke-opacity:1"/>
<line clip-path="url(#clip762)" x1="1513.55" y1="567.84" x2="1513.55" y2="551.84" style="stroke:#3da44d; stroke-width:3.072; stroke-opacity:1"/>
<line clip-path="url(#clip762)" x1="1513.55" y1="567.84" x2="1497.55" y2="567.84" style="stroke:#3da44d; stroke-width:3.072; stroke-opacity:1"/>
<line clip-path="url(#clip762)" x1="1513.55" y1="567.84" x2="1513.55" y2="583.84" style="stroke:#3da44d; stroke-width:3.072; stroke-opacity:1"/>
<line clip-path="url(#clip762)" x1="1513.55" y1="567.84" x2="1529.55" y2="567.84" style="stroke:#3da44d; stroke-width:3.072; stroke-opacity:1"/>
<polyline clip-path="url(#clip762)" style="stroke:#c271d2; stroke-linecap:butt; stroke-linejoin:round; stroke-width:12; stroke-opacity:1; fill:none" points="
  981.562,860.169 1397,783.903 940.2,726.43 343.874,583.871 
  "/>
<path clip-path="url(#clip762)" d="M981.562 844.169 L965.562 860.169 L981.562 876.169 L997.562 860.169 L981.562 844.169 Z" fill="#c271d2" fill-rule="evenodd" fill-opacity="1" stroke="#000000" stroke-opacity="1" stroke-width="3.072"/>
<path clip-path="url(#clip762)" d="M1397 767.903 L1381 783.903 L1397 799.903 L1413 783.903 L1397 767.903 Z" fill="#c271d2" fill-rule="evenodd" fill-opacity="1" stroke="#000000" stroke-opacity="1" stroke-width="3.072"/>
<path clip-path="url(#clip762)" d="M940.2 710.43 L924.2 726.43 L940.2 742.43 L956.2 726.43 L940.2 710.43 Z" fill="#c271d2" fill-rule="evenodd" fill-opacity="1" stroke="#000000" stroke-opacity="1" stroke-width="3.072"/>
<path clip-path="url(#clip762)" d="M343.874 567.871 L327.874 583.871 L343.874 599.871 L359.874 583.871 L343.874 567.871 Z" fill="#c271d2" fill-rule="evenodd" fill-opacity="1" stroke="#000000" stroke-opacity="1" stroke-width="3.072"/>
<polyline clip-path="url(#clip762)" style="stroke:#ac8d18; stroke-linecap:butt; stroke-linejoin:round; stroke-width:12; stroke-opacity:1; fill:none" points="
  2160.97,1053.01 1893.32,953.391 1813.11,835.354 1635.47,726.17 
  "/>
<path clip-path="url(#clip762)" d="M2176.97 1037.01 L2144.97 1037.01 L2160.97 1069.01 L2176.97 1037.01 Z" fill="#ac8d18" fill-rule="evenodd" fill-opacity="1" stroke="#000000" stroke-opacity="1" stroke-width="3.072"/>
<path clip-path="url(#clip762)" d="M1909.32 937.391 L1877.32 937.391 L1893.32 969.391 L1909.32 937.391 Z" fill="#ac8d18" fill-rule="evenodd" fill-opacity="1" stroke="#000000" stroke-opacity="1" stroke-width="3.072"/>
<path clip-path="url(#clip762)" d="M1829.11 819.354 L1797.11 819.354 L1813.11 851.354 L1829.11 819.354 Z" fill="#ac8d18" fill-rule="evenodd" fill-opacity="1" stroke="#000000" stroke-opacity="1" stroke-width="3.072"/>
<path clip-path="url(#clip762)" d="M1651.47 710.17 L1619.47 710.17 L1635.47 742.17 L1651.47 710.17 Z" fill="#ac8d18" fill-rule="evenodd" fill-opacity="1" stroke="#000000" stroke-opacity="1" stroke-width="3.072"/>
<polyline clip-path="url(#clip762)" style="stroke:#00a9ad; stroke-linecap:butt; stroke-linejoin:round; stroke-width:12; stroke-opacity:1; fill:none" points="
  1655.99,989.996 1478.19,894.472 1298.71,753.385 1069.47,633.034 
  "/>
<path clip-path="url(#clip762)" d="M1655.99 973.996 L1643.47 980.028 L1640.39 993.564 L1649.04 1004.41 L1662.93 1004.41 L1671.59 993.564 L1668.5 980.028 Z" fill="#00a9ad" fill-rule="evenodd" fill-opacity="1" stroke="#000000" stroke-opacity="1" stroke-width="3.072"/>
<path clip-path="url(#clip762)" d="M1478.19 878.472 L1465.68 884.504 L1462.59 898.04 L1471.24 908.888 L1485.13 908.888 L1493.79 898.04 L1490.7 884.504 Z" fill="#00a9ad" fill-rule="evenodd" fill-opacity="1" stroke="#000000" stroke-opacity="1" stroke-width="3.072"/>
<path clip-path="url(#clip762)" d="M1298.71 737.385 L1286.19 743.417 L1283.11 756.953 L1291.76 767.801 L1305.65 767.801 L1314.31 756.953 L1311.22 743.417 Z" fill="#00a9ad" fill-rule="evenodd" fill-opacity="1" stroke="#000000" stroke-opacity="1" stroke-width="3.072"/>
<path clip-path="url(#clip762)" d="M1069.47 617.034 L1056.96 623.066 L1053.87 636.602 L1062.53 647.45 L1076.41 647.45 L1085.07 636.602 L1081.98 623.066 Z" fill="#00a9ad" fill-rule="evenodd" fill-opacity="1" stroke="#000000" stroke-opacity="1" stroke-width="3.072"/>
<polyline clip-path="url(#clip762)" style="stroke:#ed5d92; stroke-linecap:butt; stroke-linejoin:round; stroke-width:12; stroke-opacity:1; fill:none" points="
  1143.62,1116.44 945.672,1003.96 748.731,868.948 479.072,718.239 
  "/>
<path clip-path="url(#clip762)" d="M1143.62 1132.44 L1129.77 1124.44 L1129.77 1108.44 L1143.62 1100.44 L1157.48 1108.44 L1157.48 1124.44 Z" fill="#ed5d92" fill-rule="evenodd" fill-opacity="1" stroke="#000000" stroke-opacity="1" stroke-width="3.072"/>
<path clip-path="url(#clip762)" d="M945.672 1019.96 L931.816 1011.96 L931.816 995.961 L945.672 987.961 L959.528 995.961 L959.528 1011.96 Z" fill="#ed5d92" fill-rule="evenodd" fill-opacity="1" stroke="#000000" stroke-opacity="1" stroke-width="3.072"/>
<path clip-path="url(#clip762)" d="M748.731 884.948 L734.875 876.948 L734.875 860.948 L748.731 852.948 L762.587 860.948 L762.587 876.948 Z" fill="#ed5d92" fill-rule="evenodd" fill-opacity="1" stroke="#000000" stroke-opacity="1" stroke-width="3.072"/>
<path clip-path="url(#clip762)" d="M479.072 734.239 L465.216 726.239 L465.216 710.239 L479.072 702.239 L492.928 710.239 L492.928 726.239 Z" fill="#ed5d92" fill-rule="evenodd" fill-opacity="1" stroke="#000000" stroke-opacity="1" stroke-width="3.072"/>
<polyline clip-path="url(#clip762)" style="stroke:#c68125; stroke-linecap:butt; stroke-linejoin:round; stroke-width:12; stroke-opacity:1; fill:none" points="
  1973.14,776.151 1975.2,701.282 1675.26,615.243 851.363,475.614 
  "/>
<line clip-path="url(#clip762)" x1="1989.14" y1="776.151" x2="1957.14" y2="776.151" style="stroke:#c68125; stroke-width:3.072; stroke-opacity:1"/>
<line clip-path="url(#clip762)" x1="1991.2" y1="701.282" x2="1959.2" y2="701.282" style="stroke:#c68125; stroke-width:3.072; stroke-opacity:1"/>
<line clip-path="url(#clip762)" x1="1691.26" y1="615.243" x2="1659.26" y2="615.243" style="stroke:#c68125; stroke-width:3.072; stroke-opacity:1"/>
<line clip-path="url(#clip762)" x1="867.363" y1="475.614" x2="835.363" y2="475.614" style="stroke:#c68125; stroke-width:3.072; stroke-opacity:1"/>
<polyline clip-path="url(#clip762)" style="stroke:#00a98d; stroke-linecap:butt; stroke-linejoin:round; stroke-width:12; stroke-opacity:1; fill:none" points="
  1599.68,261.451 1966.14,241.164 937.203,174.385 1038.22,84.0448 
  "/>
<path clip-path="url(#clip762)" d="M1586.88 261.451 L1606.08 272.651 L1606.08 250.251 L1586.88 261.451 Z" fill="#00a98d" fill-rule="evenodd" fill-opacity="1" stroke="#000000" stroke-opacity="1" stroke-width="3.072"/>
<path clip-path="url(#clip762)" d="M1953.34 241.164 L1972.54 252.364 L1972.54 229.964 L1953.34 241.164 Z" fill="#00a98d" fill-rule="evenodd" fill-opacity="1" stroke="#000000" stroke-opacity="1" stroke-width="3.072"/>
<path clip-path="url(#clip762)" d="M924.403 174.385 L943.603 185.585 L943.603 163.185 L924.403 174.385 Z" fill="#00a98d" fill-rule="evenodd" fill-opacity="1" stroke="#000000" stroke-opacity="1" stroke-width="3.072"/>
<path clip-path="url(#clip762)" d="M1025.42 84.0448 L1044.62 95.2448 L1044.62 72.8448 L1025.42 84.0448 Z" fill="#00a98d" fill-rule="evenodd" fill-opacity="1" stroke="#000000" stroke-opacity="1" stroke-width="3.072"/>
<path clip-path="url(#clip760)" d="
M1645.74 608.987 L2191.14 608.987 L2191.14 90.5872 L1645.74 90.5872  Z
  " fill="#ffffff" fill-rule="evenodd" fill-opacity="1"/>
<polyline clip-path="url(#clip760)" style="stroke:#000000; stroke-linecap:butt; stroke-linejoin:round; stroke-width:4; stroke-opacity:1; fill:none" points="
  1645.74,608.987 2191.14,608.987 2191.14,90.5872 1645.74,90.5872 1645.74,608.987 
  "/>
<polyline clip-path="url(#clip760)" style="stroke:#009af9; stroke-linecap:butt; stroke-linejoin:round; stroke-width:4; stroke-opacity:1; fill:none" points="
  1667.61,142.427 1798.85,142.427 
  "/>
<line clip-path="url(#clip760)" x1="1733.23" y1="142.427" x2="1733.23" y2="116.827" style="stroke:#009af9; stroke-width:4.9152; stroke-opacity:1"/>
<line clip-path="url(#clip760)" x1="1733.23" y1="142.427" x2="1707.63" y2="142.427" style="stroke:#009af9; stroke-width:4.9152; stroke-opacity:1"/>
<line clip-path="url(#clip760)" x1="1733.23" y1="142.427" x2="1733.23" y2="168.027" style="stroke:#009af9; stroke-width:4.9152; stroke-opacity:1"/>
<line clip-path="url(#clip760)" x1="1733.23" y1="142.427" x2="1758.83" y2="142.427" style="stroke:#009af9; stroke-width:4.9152; stroke-opacity:1"/>
<path clip-path="url(#clip760)" d="M1837.11 143.504 Q1838.62 144.013 1840.03 145.679 Q1841.47 147.346 1842.9 150.263 L1847.65 159.707 L1842.62 159.707 L1838.2 150.841 Q1836.49 147.369 1834.87 146.235 Q1833.27 145.101 1830.49 145.101 L1825.4 145.101 L1825.4 159.707 L1820.72 159.707 L1820.72 125.147 L1831.28 125.147 Q1837.21 125.147 1840.12 127.624 Q1843.04 130.101 1843.04 135.101 Q1843.04 138.365 1841.51 140.517 Q1840.01 142.67 1837.11 143.504 M1825.4 128.99 L1825.4 141.258 L1831.28 141.258 Q1834.66 141.258 1836.37 139.707 Q1838.11 138.133 1838.11 135.101 Q1838.11 132.068 1836.37 130.541 Q1834.66 128.99 1831.28 128.99 L1825.4 128.99 Z" fill="#000000" fill-rule="evenodd" fill-opacity="1" /><path clip-path="url(#clip760)" d="M1861.4 136.767 Q1857.97 136.767 1855.98 139.453 Q1853.99 142.115 1853.99 146.767 Q1853.99 151.42 1855.96 154.105 Q1857.95 156.767 1861.4 156.767 Q1864.8 156.767 1866.79 154.082 Q1868.78 151.397 1868.78 146.767 Q1868.78 142.161 1866.79 139.476 Q1864.8 136.767 1861.4 136.767 M1861.4 133.156 Q1866.95 133.156 1870.12 136.767 Q1873.29 140.379 1873.29 146.767 Q1873.29 153.133 1870.12 156.767 Q1866.95 160.378 1861.4 160.378 Q1855.82 160.378 1852.65 156.767 Q1849.5 153.133 1849.5 146.767 Q1849.5 140.379 1852.65 136.767 Q1855.82 133.156 1861.4 133.156 Z" fill="#000000" fill-rule="evenodd" fill-opacity="1" /><path clip-path="url(#clip760)" d="M1896.88 134.545 L1896.88 138.573 Q1895.08 137.647 1893.13 137.184 Q1891.19 136.721 1889.1 136.721 Q1885.93 136.721 1884.34 137.693 Q1882.76 138.666 1882.76 140.61 Q1882.76 142.092 1883.9 142.948 Q1885.03 143.781 1888.46 144.545 L1889.91 144.869 Q1894.45 145.842 1896.35 147.624 Q1898.27 149.383 1898.27 152.554 Q1898.27 156.166 1895.4 158.272 Q1892.55 160.378 1887.55 160.378 Q1885.47 160.378 1883.2 159.962 Q1880.96 159.568 1878.46 158.758 L1878.46 154.36 Q1880.82 155.587 1883.11 156.212 Q1885.4 156.814 1887.65 156.814 Q1890.65 156.814 1892.28 155.795 Q1893.9 154.754 1893.9 152.879 Q1893.9 151.142 1892.71 150.216 Q1891.56 149.291 1887.6 148.434 L1886.12 148.087 Q1882.16 147.254 1880.4 145.541 Q1878.64 143.804 1878.64 140.795 Q1878.64 137.138 1881.23 135.147 Q1883.83 133.156 1888.59 133.156 Q1890.96 133.156 1893.04 133.504 Q1895.12 133.851 1896.88 134.545 Z" fill="#000000" fill-rule="evenodd" fill-opacity="1" /><path clip-path="url(#clip760)" d="M1927.23 145.679 L1927.23 147.763 L1907.65 147.763 Q1907.92 152.161 1910.28 154.476 Q1912.67 156.767 1916.9 156.767 Q1919.36 156.767 1921.65 156.166 Q1923.96 155.564 1926.23 154.36 L1926.23 158.388 Q1923.94 159.36 1921.53 159.869 Q1919.13 160.378 1916.65 160.378 Q1910.45 160.378 1906.81 156.767 Q1903.2 153.156 1903.2 146.999 Q1903.2 140.633 1906.63 136.906 Q1910.08 133.156 1915.91 133.156 Q1921.14 133.156 1924.17 136.536 Q1927.23 139.892 1927.23 145.679 M1922.97 144.429 Q1922.92 140.934 1921 138.851 Q1919.1 136.767 1915.96 136.767 Q1912.39 136.767 1910.24 138.781 Q1908.11 140.795 1907.78 144.453 L1922.97 144.429 Z" fill="#000000" fill-rule="evenodd" fill-opacity="1" /><path clip-path="url(#clip760)" d="M1955.77 144.059 L1955.77 159.707 L1951.51 159.707 L1951.51 144.198 Q1951.51 140.517 1950.08 138.689 Q1948.64 136.86 1945.77 136.86 Q1942.32 136.86 1940.33 139.059 Q1938.34 141.258 1938.34 145.054 L1938.34 159.707 L1934.06 159.707 L1934.06 133.781 L1938.34 133.781 L1938.34 137.809 Q1939.87 135.471 1941.93 134.314 Q1944.01 133.156 1946.72 133.156 Q1951.19 133.156 1953.48 135.934 Q1955.77 138.689 1955.77 144.059 Z" fill="#000000" fill-rule="evenodd" fill-opacity="1" /><path clip-path="url(#clip760)" d="M1982.88 146.767 Q1982.88 142.068 1980.93 139.406 Q1979.01 136.721 1975.63 136.721 Q1972.25 136.721 1970.31 139.406 Q1968.39 142.068 1968.39 146.767 Q1968.39 151.466 1970.31 154.152 Q1972.25 156.814 1975.63 156.814 Q1979.01 156.814 1980.93 154.152 Q1982.88 151.466 1982.88 146.767 M1968.39 137.717 Q1969.73 135.402 1971.77 134.291 Q1973.83 133.156 1976.67 133.156 Q1981.39 133.156 1984.33 136.906 Q1987.3 140.656 1987.3 146.767 Q1987.3 152.879 1984.33 156.628 Q1981.39 160.378 1976.67 160.378 Q1973.83 160.378 1971.77 159.267 Q1969.73 158.133 1968.39 155.818 L1968.39 159.707 L1964.1 159.707 L1964.1 123.689 L1968.39 123.689 L1968.39 137.717 Z" fill="#000000" fill-rule="evenodd" fill-opacity="1" /><path clip-path="url(#clip760)" d="M2009.38 137.763 Q2008.66 137.346 2007.81 137.161 Q2006.97 136.953 2005.96 136.953 Q2002.34 136.953 2000.4 139.314 Q1998.48 141.652 1998.48 146.05 L1998.48 159.707 L1994.2 159.707 L1994.2 133.781 L1998.48 133.781 L1998.48 137.809 Q1999.82 135.448 2001.97 134.314 Q2004.13 133.156 2007.2 133.156 Q2007.64 133.156 2008.18 133.226 Q2008.71 133.272 2009.36 133.388 L2009.38 137.763 Z" fill="#000000" fill-rule="evenodd" fill-opacity="1" /><path clip-path="url(#clip760)" d="M2022.85 136.767 Q2019.43 136.767 2017.44 139.453 Q2015.45 142.115 2015.45 146.767 Q2015.45 151.42 2017.41 154.105 Q2019.4 156.767 2022.85 156.767 Q2026.26 156.767 2028.25 154.082 Q2030.24 151.397 2030.24 146.767 Q2030.24 142.161 2028.25 139.476 Q2026.26 136.767 2022.85 136.767 M2022.85 133.156 Q2028.41 133.156 2031.58 136.767 Q2034.75 140.379 2034.75 146.767 Q2034.75 153.133 2031.58 156.767 Q2028.41 160.378 2022.85 160.378 Q2017.27 160.378 2014.1 156.767 Q2010.95 153.133 2010.95 146.767 Q2010.95 140.379 2014.1 136.767 Q2017.27 133.156 2022.85 133.156 Z" fill="#000000" fill-rule="evenodd" fill-opacity="1" /><path clip-path="url(#clip760)" d="M2060.47 134.777 L2060.47 138.758 Q2058.66 137.763 2056.83 137.277 Q2055.03 136.767 2053.18 136.767 Q2049.03 136.767 2046.74 139.406 Q2044.45 142.022 2044.45 146.767 Q2044.45 151.513 2046.74 154.152 Q2049.03 156.767 2053.18 156.767 Q2055.03 156.767 2056.83 156.281 Q2058.66 155.772 2060.47 154.777 L2060.47 158.712 Q2058.69 159.545 2056.76 159.962 Q2054.87 160.378 2052.71 160.378 Q2046.86 160.378 2043.41 156.698 Q2039.96 153.017 2039.96 146.767 Q2039.96 140.425 2043.43 136.791 Q2046.93 133.156 2052.99 133.156 Q2054.96 133.156 2056.83 133.573 Q2058.71 133.967 2060.47 134.777 Z" fill="#000000" fill-rule="evenodd" fill-opacity="1" /><path clip-path="url(#clip760)" d="M2067.71 123.689 L2072 123.689 L2072 144.962 L2084.7 133.781 L2090.14 133.781 L2076.39 145.911 L2090.72 159.707 L2085.17 159.707 L2072 147.045 L2072 159.707 L2067.71 159.707 L2067.71 123.689 Z" fill="#000000" fill-rule="evenodd" fill-opacity="1" /><path clip-path="url(#clip760)" d="M2099.96 155.772 L2116.28 155.772 L2116.28 159.707 L2094.33 159.707 L2094.33 155.772 Q2097 153.017 2101.58 148.388 Q2106.19 143.735 2107.37 142.392 Q2109.61 139.869 2110.49 138.133 Q2111.39 136.374 2111.39 134.684 Q2111.39 131.93 2109.45 130.193 Q2107.53 128.457 2104.43 128.457 Q2102.23 128.457 2099.77 129.221 Q2097.34 129.985 2094.57 131.536 L2094.57 126.814 Q2097.39 125.68 2099.84 125.101 Q2102.3 124.522 2104.33 124.522 Q2109.7 124.522 2112.9 127.207 Q2116.09 129.893 2116.09 134.383 Q2116.09 136.513 2115.28 138.434 Q2114.5 140.332 2112.39 142.925 Q2111.81 143.596 2108.71 146.814 Q2105.61 150.008 2099.96 155.772 Z" fill="#000000" fill-rule="evenodd" fill-opacity="1" /><path clip-path="url(#clip760)" d="M2140.26 141.073 Q2143.62 141.791 2145.49 144.059 Q2147.39 146.328 2147.39 149.661 Q2147.39 154.777 2143.87 157.578 Q2140.35 160.378 2133.87 160.378 Q2131.7 160.378 2129.38 159.939 Q2127.09 159.522 2124.63 158.666 L2124.63 154.152 Q2126.58 155.286 2128.89 155.865 Q2131.21 156.443 2133.73 156.443 Q2138.13 156.443 2140.42 154.707 Q2142.74 152.971 2142.74 149.661 Q2142.74 146.605 2140.58 144.892 Q2138.45 143.156 2134.63 143.156 L2130.61 143.156 L2130.61 139.314 L2134.82 139.314 Q2138.27 139.314 2140.1 137.948 Q2141.93 136.559 2141.93 133.967 Q2141.93 131.305 2140.03 129.893 Q2138.15 128.457 2134.63 128.457 Q2132.71 128.457 2130.51 128.874 Q2128.32 129.291 2125.68 130.17 L2125.68 126.004 Q2128.34 125.263 2130.65 124.893 Q2132.99 124.522 2135.05 124.522 Q2140.38 124.522 2143.48 126.953 Q2146.58 129.36 2146.58 133.48 Q2146.58 136.351 2144.94 138.342 Q2143.29 140.309 2140.26 141.073 Z" fill="#000000" fill-rule="evenodd" fill-opacity="1" /><polyline clip-path="url(#clip760)" style="stroke:#e26f46; stroke-linecap:butt; stroke-linejoin:round; stroke-width:4; stroke-opacity:1; fill:none" points="
  1667.61,194.267 1798.85,194.267 
  "/>
<circle clip-path="url(#clip760)" cx="1733.23" cy="194.267" r="23" fill="#e26f46" fill-rule="evenodd" fill-opacity="1" stroke="#000000" stroke-opacity="1" stroke-width="4.9152"/>
<path clip-path="url(#clip760)" d="M1820.72 176.987 L1825.4 176.987 L1825.4 191.594 L1840.91 176.987 L1846.93 176.987 L1829.78 193.098 L1848.15 211.547 L1842 211.547 L1825.4 194.904 L1825.4 211.547 L1820.72 211.547 L1820.72 176.987 Z" fill="#000000" fill-rule="evenodd" fill-opacity="1" /><path clip-path="url(#clip760)" d="M1848.57 185.621 L1853.09 185.621 L1861.19 207.381 L1869.29 185.621 L1873.8 185.621 L1864.08 211.547 L1858.29 211.547 L1848.57 185.621 Z" fill="#000000" fill-rule="evenodd" fill-opacity="1" /><path clip-path="url(#clip760)" d="M1891.46 198.515 Q1886.3 198.515 1884.31 199.695 Q1882.32 200.876 1882.32 203.723 Q1882.32 205.992 1883.8 207.334 Q1885.31 208.654 1887.88 208.654 Q1891.42 208.654 1893.55 206.154 Q1895.7 203.631 1895.7 199.464 L1895.7 198.515 L1891.46 198.515 M1899.96 196.756 L1899.96 211.547 L1895.7 211.547 L1895.7 207.612 Q1894.24 209.973 1892.07 211.107 Q1889.89 212.218 1886.74 212.218 Q1882.76 212.218 1880.4 209.996 Q1878.06 207.751 1878.06 204.001 Q1878.06 199.626 1880.98 197.404 Q1883.92 195.182 1889.73 195.182 L1895.7 195.182 L1895.7 194.765 Q1895.7 191.825 1893.76 190.228 Q1891.84 188.607 1888.34 188.607 Q1886.12 188.607 1884.01 189.14 Q1881.9 189.672 1879.96 190.737 L1879.96 186.802 Q1882.3 185.899 1884.5 185.459 Q1886.7 184.996 1888.78 184.996 Q1894.4 184.996 1897.18 187.913 Q1899.96 190.83 1899.96 196.756 Z" fill="#000000" fill-rule="evenodd" fill-opacity="1" /><path clip-path="url(#clip760)" d="M1930.91 197.519 L1930.91 199.603 L1911.33 199.603 Q1911.6 204.001 1913.96 206.316 Q1916.35 208.607 1920.59 208.607 Q1923.04 208.607 1925.33 208.006 Q1927.65 207.404 1929.91 206.2 L1929.91 210.228 Q1927.62 211.2 1925.21 211.709 Q1922.81 212.218 1920.33 212.218 Q1914.13 212.218 1910.49 208.607 Q1906.88 204.996 1906.88 198.839 Q1906.88 192.473 1910.31 188.746 Q1913.76 184.996 1919.59 184.996 Q1924.82 184.996 1927.85 188.376 Q1930.91 191.732 1930.91 197.519 M1926.65 196.269 Q1926.6 192.774 1924.68 190.691 Q1922.78 188.607 1919.64 188.607 Q1916.07 188.607 1913.92 190.621 Q1911.79 192.635 1911.46 196.293 L1926.65 196.269 Z" fill="#000000" fill-rule="evenodd" fill-opacity="1" /><path clip-path="url(#clip760)" d="M1952.92 189.603 Q1952.21 189.186 1951.35 189.001 Q1950.52 188.793 1949.5 188.793 Q1945.89 188.793 1943.94 191.154 Q1942.02 193.492 1942.02 197.89 L1942.02 211.547 L1937.74 211.547 L1937.74 185.621 L1942.02 185.621 L1942.02 189.649 Q1943.36 187.288 1945.52 186.154 Q1947.67 184.996 1950.75 184.996 Q1951.19 184.996 1951.72 185.066 Q1952.25 185.112 1952.9 185.228 L1952.92 189.603 Z" fill="#000000" fill-rule="evenodd" fill-opacity="1" /><path clip-path="url(#clip760)" d="M1978.11 195.899 L1978.11 211.547 L1973.85 211.547 L1973.85 196.038 Q1973.85 192.357 1972.41 190.529 Q1970.98 188.7 1968.11 188.7 Q1964.66 188.7 1962.67 190.899 Q1960.68 193.098 1960.68 196.894 L1960.68 211.547 L1956.4 211.547 L1956.4 185.621 L1960.68 185.621 L1960.68 189.649 Q1962.21 187.311 1964.27 186.154 Q1966.35 184.996 1969.06 184.996 Q1973.52 184.996 1975.82 187.774 Q1978.11 190.529 1978.11 195.899 Z" fill="#000000" fill-rule="evenodd" fill-opacity="1" /><path clip-path="url(#clip760)" d="M1996.65 188.607 Q1993.22 188.607 1991.23 191.293 Q1989.24 193.955 1989.24 198.607 Q1989.24 203.26 1991.21 205.945 Q1993.2 208.607 1996.65 208.607 Q2000.05 208.607 2002.04 205.922 Q2004.03 203.237 2004.03 198.607 Q2004.03 194.001 2002.04 191.316 Q2000.05 188.607 1996.65 188.607 M1996.65 184.996 Q2002.21 184.996 2005.38 188.607 Q2008.55 192.219 2008.55 198.607 Q2008.55 204.973 2005.38 208.607 Q2002.21 212.218 1996.65 212.218 Q1991.07 212.218 1987.9 208.607 Q1984.75 204.973 1984.75 198.607 Q1984.75 192.219 1987.9 188.607 Q1991.07 184.996 1996.65 184.996 Z" fill="#000000" fill-rule="evenodd" fill-opacity="1" /><path clip-path="url(#clip760)" d="M2030.38 192.913 Q2033.73 193.631 2035.61 195.899 Q2037.51 198.168 2037.51 201.501 Q2037.51 206.617 2033.99 209.418 Q2030.47 212.218 2023.99 212.218 Q2021.81 212.218 2019.5 211.779 Q2017.2 211.362 2014.75 210.506 L2014.75 205.992 Q2016.7 207.126 2019.01 207.705 Q2021.33 208.283 2023.85 208.283 Q2028.25 208.283 2030.54 206.547 Q2032.85 204.811 2032.85 201.501 Q2032.85 198.445 2030.7 196.732 Q2028.57 194.996 2024.75 194.996 L2020.72 194.996 L2020.72 191.154 L2024.94 191.154 Q2028.39 191.154 2030.21 189.788 Q2032.04 188.399 2032.04 185.807 Q2032.04 183.145 2030.14 181.733 Q2028.27 180.297 2024.75 180.297 Q2022.83 180.297 2020.63 180.714 Q2018.43 181.131 2015.79 182.01 L2015.79 177.844 Q2018.45 177.103 2020.77 176.733 Q2023.11 176.362 2025.17 176.362 Q2030.49 176.362 2033.59 178.793 Q2036.7 181.2 2036.7 185.32 Q2036.7 188.191 2035.05 190.182 Q2033.41 192.149 2030.38 192.913 Z" fill="#000000" fill-rule="evenodd" fill-opacity="1" /><polyline clip-path="url(#clip760)" style="stroke:#3da44d; stroke-linecap:butt; stroke-linejoin:round; stroke-width:4; stroke-opacity:1; fill:none" points="
  1667.61,246.107 1798.85,246.107 
  "/>
<line clip-path="url(#clip760)" x1="1733.23" y1="246.107" x2="1733.23" y2="220.507" style="stroke:#3da44d; stroke-width:4.9152; stroke-opacity:1"/>
<line clip-path="url(#clip760)" x1="1733.23" y1="246.107" x2="1707.63" y2="246.107" style="stroke:#3da44d; stroke-width:4.9152; stroke-opacity:1"/>
<line clip-path="url(#clip760)" x1="1733.23" y1="246.107" x2="1733.23" y2="271.707" style="stroke:#3da44d; stroke-width:4.9152; stroke-opacity:1"/>
<line clip-path="url(#clip760)" x1="1733.23" y1="246.107" x2="1758.83" y2="246.107" style="stroke:#3da44d; stroke-width:4.9152; stroke-opacity:1"/>
<path clip-path="url(#clip760)" d="M1848.59 231.489 L1848.59 236.42 Q1846.23 234.221 1843.55 233.133 Q1840.89 232.045 1837.88 232.045 Q1831.95 232.045 1828.8 235.679 Q1825.66 239.29 1825.66 246.142 Q1825.66 252.971 1828.8 256.605 Q1831.95 260.216 1837.88 260.216 Q1840.89 260.216 1843.55 259.128 Q1846.23 258.04 1848.59 255.841 L1848.59 260.725 Q1846.14 262.392 1843.39 263.225 Q1840.65 264.058 1837.6 264.058 Q1829.75 264.058 1825.24 259.267 Q1820.72 254.452 1820.72 246.142 Q1820.72 237.809 1825.24 233.017 Q1829.75 228.202 1837.6 228.202 Q1840.7 228.202 1843.43 229.036 Q1846.19 229.846 1848.59 231.489 Z" fill="#000000" fill-rule="evenodd" fill-opacity="1" /><path clip-path="url(#clip760)" d="M1864.73 263.387 L1851.53 228.827 L1856.42 228.827 L1867.37 257.924 L1878.34 228.827 L1883.2 228.827 L1870.03 263.387 L1864.73 263.387 Z" fill="#000000" fill-rule="evenodd" fill-opacity="1" /><path clip-path="url(#clip760)" d="M1901.44 231.998 Q1896.35 231.998 1893.34 235.795 Q1890.35 239.591 1890.35 246.142 Q1890.35 252.67 1893.34 256.466 Q1896.35 260.262 1901.44 260.262 Q1906.53 260.262 1909.5 256.466 Q1912.48 252.67 1912.48 246.142 Q1912.48 239.591 1909.5 235.795 Q1906.53 231.998 1901.44 231.998 M1901.44 228.202 Q1908.71 228.202 1913.06 233.086 Q1917.41 237.948 1917.41 246.142 Q1917.41 254.313 1913.06 259.197 Q1908.71 264.058 1901.44 264.058 Q1894.15 264.058 1889.78 259.197 Q1885.42 254.336 1885.42 246.142 Q1885.42 237.948 1889.78 233.086 Q1894.15 228.202 1901.44 228.202 Z" fill="#000000" fill-rule="evenodd" fill-opacity="1" /><path clip-path="url(#clip760)" d="M1929.4 232.67 L1929.4 259.545 L1935.05 259.545 Q1942.21 259.545 1945.52 256.304 Q1948.85 253.063 1948.85 246.072 Q1948.85 239.128 1945.52 235.91 Q1942.21 232.67 1935.05 232.67 L1929.4 232.67 M1924.73 228.827 L1934.34 228.827 Q1944.38 228.827 1949.08 233.017 Q1953.78 237.184 1953.78 246.072 Q1953.78 255.008 1949.06 259.197 Q1944.33 263.387 1934.34 263.387 L1924.73 263.387 L1924.73 228.827 Z" fill="#000000" fill-rule="evenodd" fill-opacity="1" /><path clip-path="url(#clip760)" d="M1961.23 228.827 L1983.08 228.827 L1983.08 232.762 L1965.91 232.762 L1965.91 242.994 L1982.37 242.994 L1982.37 246.929 L1965.91 246.929 L1965.91 259.452 L1983.5 259.452 L1983.5 263.387 L1961.23 263.387 L1961.23 228.827 Z" fill="#000000" fill-rule="evenodd" fill-opacity="1" /><path clip-path="url(#clip760)" d="M2010.7 271.258 L2010.7 274.568 L1986.07 274.568 L1986.07 271.258 L2010.7 271.258 Z" fill="#000000" fill-rule="evenodd" fill-opacity="1" /><path clip-path="url(#clip760)" d="M2019.57 246.883 L2019.57 259.545 L2027.07 259.545 Q2030.84 259.545 2032.64 257.994 Q2034.47 256.42 2034.47 253.202 Q2034.47 249.961 2032.64 248.434 Q2030.84 246.883 2027.07 246.883 L2019.57 246.883 M2019.57 232.67 L2019.57 243.086 L2026.49 243.086 Q2029.91 243.086 2031.58 241.813 Q2033.27 240.517 2033.27 237.878 Q2033.27 235.262 2031.58 233.966 Q2029.91 232.67 2026.49 232.67 L2019.57 232.67 M2014.89 228.827 L2026.83 228.827 Q2032.18 228.827 2035.08 231.049 Q2037.97 233.272 2037.97 237.369 Q2037.97 240.54 2036.49 242.415 Q2035.01 244.29 2032.14 244.753 Q2035.58 245.494 2037.48 247.855 Q2039.4 250.193 2039.4 253.711 Q2039.4 258.341 2036.26 260.864 Q2033.11 263.387 2027.3 263.387 L2014.89 263.387 L2014.89 228.827 Z" fill="#000000" fill-rule="evenodd" fill-opacity="1" /><path clip-path="url(#clip760)" d="M2052.09 232.67 L2052.09 259.545 L2057.74 259.545 Q2064.89 259.545 2068.2 256.304 Q2071.53 253.063 2071.53 246.072 Q2071.53 239.128 2068.2 235.91 Q2064.89 232.67 2057.74 232.67 L2052.09 232.67 M2047.41 228.827 L2057.02 228.827 Q2067.07 228.827 2071.76 233.017 Q2076.46 237.184 2076.46 246.072 Q2076.46 255.008 2071.74 259.197 Q2067.02 263.387 2057.02 263.387 L2047.41 263.387 L2047.41 228.827 Z" fill="#000000" fill-rule="evenodd" fill-opacity="1" /><path clip-path="url(#clip760)" d="M2083.92 228.827 L2103.78 228.827 L2103.78 232.762 L2088.59 232.762 L2088.59 242.947 L2102.3 242.947 L2102.3 246.883 L2088.59 246.883 L2088.59 263.387 L2083.92 263.387 L2083.92 228.827 Z" fill="#000000" fill-rule="evenodd" fill-opacity="1" /><polyline clip-path="url(#clip760)" style="stroke:#c271d2; stroke-linecap:butt; stroke-linejoin:round; stroke-width:4; stroke-opacity:1; fill:none" points="
  1667.61,297.947 1798.85,297.947 
  "/>
<path clip-path="url(#clip760)" d="M1733.23 272.347 L1707.63 297.947 L1733.23 323.547 L1758.83 297.947 L1733.23 272.347 Z" fill="#c271d2" fill-rule="evenodd" fill-opacity="1" stroke="#000000" stroke-opacity="1" stroke-width="4.9152"/>
<path clip-path="url(#clip760)" d="M1820.72 280.667 L1825.4 280.667 L1825.4 295.274 L1840.91 280.667 L1846.93 280.667 L1829.78 296.778 L1848.15 315.227 L1842 315.227 L1825.4 298.584 L1825.4 315.227 L1820.72 315.227 L1820.72 280.667 Z" fill="#000000" fill-rule="evenodd" fill-opacity="1" /><path clip-path="url(#clip760)" d="M1871.44 301.199 L1871.44 303.283 L1851.86 303.283 Q1852.14 307.681 1854.5 309.996 Q1856.88 312.287 1861.12 312.287 Q1863.57 312.287 1865.86 311.686 Q1868.18 311.084 1870.45 309.88 L1870.45 313.908 Q1868.15 314.88 1865.75 315.389 Q1863.34 315.898 1860.86 315.898 Q1854.66 315.898 1851.03 312.287 Q1847.41 308.676 1847.41 302.519 Q1847.41 296.153 1850.84 292.426 Q1854.29 288.676 1860.12 288.676 Q1865.35 288.676 1868.39 292.056 Q1871.44 295.412 1871.44 301.199 M1867.18 299.949 Q1867.14 296.454 1865.22 294.371 Q1863.32 292.287 1860.17 292.287 Q1856.6 292.287 1854.45 294.301 Q1852.32 296.315 1852 299.973 L1867.18 299.949 Z" fill="#000000" fill-rule="evenodd" fill-opacity="1" /><path clip-path="url(#clip760)" d="M1899.98 299.579 L1899.98 315.227 L1895.72 315.227 L1895.72 299.718 Q1895.72 296.037 1894.29 294.209 Q1892.85 292.38 1889.98 292.38 Q1886.53 292.38 1884.54 294.579 Q1882.55 296.778 1882.55 300.574 L1882.55 315.227 L1878.27 315.227 L1878.27 289.301 L1882.55 289.301 L1882.55 293.329 Q1884.08 290.991 1886.14 289.834 Q1888.22 288.676 1890.93 288.676 Q1895.4 288.676 1897.69 291.454 Q1899.98 294.209 1899.98 299.579 Z" fill="#000000" fill-rule="evenodd" fill-opacity="1" /><path clip-path="url(#clip760)" d="M1934.54 283.329 L1934.54 288.26 Q1932.18 286.061 1929.5 284.973 Q1926.84 283.885 1923.83 283.885 Q1917.9 283.885 1914.75 287.519 Q1911.6 291.13 1911.6 297.982 Q1911.6 304.811 1914.75 308.445 Q1917.9 312.056 1923.83 312.056 Q1926.84 312.056 1929.5 310.968 Q1932.18 309.88 1934.54 307.681 L1934.54 312.565 Q1932.09 314.232 1929.34 315.065 Q1926.6 315.898 1923.55 315.898 Q1915.7 315.898 1911.19 311.107 Q1906.67 306.292 1906.67 297.982 Q1906.67 289.649 1911.19 284.857 Q1915.7 280.042 1923.55 280.042 Q1926.65 280.042 1929.38 280.876 Q1932.14 281.686 1934.54 283.329 Z" fill="#000000" fill-rule="evenodd" fill-opacity="1" /><path clip-path="url(#clip760)" d="M1953.36 302.195 Q1948.2 302.195 1946.21 303.375 Q1944.22 304.556 1944.22 307.403 Q1944.22 309.672 1945.7 311.014 Q1947.21 312.334 1949.77 312.334 Q1953.32 312.334 1955.45 309.834 Q1957.6 307.311 1957.6 303.144 L1957.6 302.195 L1953.36 302.195 M1961.86 300.436 L1961.86 315.227 L1957.6 315.227 L1957.6 311.292 Q1956.14 313.653 1953.96 314.787 Q1951.79 315.898 1948.64 315.898 Q1944.66 315.898 1942.3 313.676 Q1939.96 311.431 1939.96 307.681 Q1939.96 303.306 1942.88 301.084 Q1945.82 298.862 1951.63 298.862 L1957.6 298.862 L1957.6 298.445 Q1957.6 295.505 1955.65 293.908 Q1953.73 292.287 1950.24 292.287 Q1948.02 292.287 1945.91 292.82 Q1943.8 293.352 1941.86 294.417 L1941.86 290.482 Q1944.2 289.579 1946.4 289.139 Q1948.59 288.676 1950.68 288.676 Q1956.3 288.676 1959.08 291.593 Q1961.86 294.51 1961.86 300.436 Z" fill="#000000" fill-rule="evenodd" fill-opacity="1" /><path clip-path="url(#clip760)" d="M1985.65 293.283 Q1984.94 292.866 1984.08 292.681 Q1983.25 292.473 1982.23 292.473 Q1978.62 292.473 1976.67 294.834 Q1974.75 297.172 1974.75 301.57 L1974.75 315.227 L1970.47 315.227 L1970.47 289.301 L1974.75 289.301 L1974.75 293.329 Q1976.09 290.968 1978.25 289.834 Q1980.4 288.676 1983.48 288.676 Q1983.92 288.676 1984.45 288.746 Q1984.98 288.792 1985.63 288.908 L1985.65 293.283 Z" fill="#000000" fill-rule="evenodd" fill-opacity="1" /><path clip-path="url(#clip760)" d="M1994.24 311.338 L1994.24 325.088 L1989.96 325.088 L1989.96 289.301 L1994.24 289.301 L1994.24 293.237 Q1995.58 290.922 1997.62 289.811 Q1999.68 288.676 2002.53 288.676 Q2007.25 288.676 2010.19 292.426 Q2013.15 296.176 2013.15 302.287 Q2013.15 308.399 2010.19 312.148 Q2007.25 315.898 2002.53 315.898 Q1999.68 315.898 1997.62 314.787 Q1995.58 313.653 1994.24 311.338 M2008.73 302.287 Q2008.73 297.588 2006.79 294.926 Q2004.87 292.241 2001.49 292.241 Q1998.11 292.241 1996.16 294.926 Q1994.24 297.588 1994.24 302.287 Q1994.24 306.986 1996.16 309.672 Q1998.11 312.334 2001.49 312.334 Q2004.87 312.334 2006.79 309.672 Q2008.73 306.986 2008.73 302.287 Z" fill="#000000" fill-rule="evenodd" fill-opacity="1" /><path clip-path="url(#clip760)" d="M2033.66 284.741 L2021.86 303.19 L2033.66 303.19 L2033.66 284.741 M2032.44 280.667 L2038.32 280.667 L2038.32 303.19 L2043.25 303.19 L2043.25 307.079 L2038.32 307.079 L2038.32 315.227 L2033.66 315.227 L2033.66 307.079 L2018.06 307.079 L2018.06 302.565 L2032.44 280.667 Z" fill="#000000" fill-rule="evenodd" fill-opacity="1" /><polyline clip-path="url(#clip760)" style="stroke:#ac8d18; stroke-linecap:butt; stroke-linejoin:round; stroke-width:4; stroke-opacity:1; fill:none" points="
  1667.61,349.787 1798.85,349.787 
  "/>
<path clip-path="url(#clip760)" d="M1758.83 324.187 L1707.63 324.187 L1733.23 375.387 L1758.83 324.187 Z" fill="#ac8d18" fill-rule="evenodd" fill-opacity="1" stroke="#000000" stroke-opacity="1" stroke-width="4.9152"/>
<path clip-path="url(#clip760)" d="M1820.72 332.507 L1849.96 332.507 L1849.96 336.442 L1837.69 336.442 L1837.69 367.067 L1832.99 367.067 L1832.99 336.442 L1820.72 336.442 L1820.72 332.507 Z" fill="#000000" fill-rule="evenodd" fill-opacity="1" /><path clip-path="url(#clip760)" d="M1870.86 350.864 Q1872.37 351.373 1873.78 353.039 Q1875.21 354.706 1876.65 357.623 L1881.4 367.067 L1876.37 367.067 L1871.95 358.201 Q1870.24 354.729 1868.62 353.595 Q1867.02 352.461 1864.24 352.461 L1859.15 352.461 L1859.15 367.067 L1854.47 367.067 L1854.47 332.507 L1865.03 332.507 Q1870.96 332.507 1873.87 334.984 Q1876.79 337.461 1876.79 342.461 Q1876.79 345.725 1875.26 347.877 Q1873.76 350.03 1870.86 350.864 M1859.15 336.35 L1859.15 348.618 L1865.03 348.618 Q1868.41 348.618 1870.12 347.067 Q1871.86 345.493 1871.86 342.461 Q1871.86 339.428 1870.12 337.901 Q1868.41 336.35 1865.03 336.35 L1859.15 336.35 Z" fill="#000000" fill-rule="evenodd" fill-opacity="1" /><path clip-path="url(#clip760)" d="M1892.09 350.563 L1892.09 363.225 L1899.59 363.225 Q1903.36 363.225 1905.17 361.674 Q1907 360.1 1907 356.882 Q1907 353.641 1905.17 352.114 Q1903.36 350.563 1899.59 350.563 L1892.09 350.563 M1892.09 336.35 L1892.09 346.766 L1899.01 346.766 Q1902.44 346.766 1904.1 345.493 Q1905.79 344.197 1905.79 341.558 Q1905.79 338.942 1904.1 337.646 Q1902.44 336.35 1899.01 336.35 L1892.09 336.35 M1887.41 332.507 L1899.36 332.507 Q1904.71 332.507 1907.6 334.729 Q1910.49 336.952 1910.49 341.049 Q1910.49 344.22 1909.01 346.095 Q1907.53 347.97 1904.66 348.433 Q1908.11 349.174 1910.01 351.535 Q1911.93 353.873 1911.93 357.391 Q1911.93 362.021 1908.78 364.544 Q1905.63 367.067 1899.82 367.067 L1887.41 367.067 L1887.41 332.507 Z" fill="#000000" fill-rule="evenodd" fill-opacity="1" /><path clip-path="url(#clip760)" d="M1924.61 336.35 L1924.61 363.225 L1930.26 363.225 Q1937.41 363.225 1940.72 359.984 Q1944.06 356.743 1944.06 349.752 Q1944.06 342.808 1940.72 339.59 Q1937.41 336.35 1930.26 336.35 L1924.61 336.35 M1919.94 332.507 L1929.54 332.507 Q1939.59 332.507 1944.29 336.697 Q1948.99 340.864 1948.99 349.752 Q1948.99 358.688 1944.27 362.877 Q1939.54 367.067 1929.54 367.067 L1919.94 367.067 L1919.94 332.507 Z" fill="#000000" fill-rule="evenodd" fill-opacity="1" /><path clip-path="url(#clip760)" d="M1956.44 332.507 L1976.3 332.507 L1976.3 336.442 L1961.12 336.442 L1961.12 346.627 L1974.82 346.627 L1974.82 350.563 L1961.12 350.563 L1961.12 367.067 L1956.44 367.067 L1956.44 332.507 Z" fill="#000000" fill-rule="evenodd" fill-opacity="1" /><path clip-path="url(#clip760)" d="M1988.15 363.132 L2004.47 363.132 L2004.47 367.067 L1982.53 367.067 L1982.53 363.132 Q1985.19 360.377 1989.77 355.748 Q1994.38 351.095 1995.56 349.752 Q1997.81 347.229 1998.69 345.493 Q1999.59 343.734 1999.59 342.044 Q1999.59 339.29 1997.64 337.553 Q1995.72 335.817 1992.62 335.817 Q1990.42 335.817 1987.97 336.581 Q1985.54 337.345 1982.76 338.896 L1982.76 334.174 Q1985.58 333.04 1988.04 332.461 Q1990.49 331.882 1992.53 331.882 Q1997.9 331.882 2001.09 334.567 Q2004.29 337.253 2004.29 341.743 Q2004.29 343.873 2003.48 345.794 Q2002.69 347.692 2000.58 350.285 Q2000.01 350.956 1996.9 354.174 Q1993.8 357.368 1988.15 363.132 Z" fill="#000000" fill-rule="evenodd" fill-opacity="1" /><polyline clip-path="url(#clip760)" style="stroke:#00a9ad; stroke-linecap:butt; stroke-linejoin:round; stroke-width:4; stroke-opacity:1; fill:none" points="
  1667.61,401.627 1798.85,401.627 
  "/>
<path clip-path="url(#clip760)" d="M1733.23 376.027 L1713.21 385.678 L1708.27 407.336 L1722.12 424.693 L1744.34 424.693 L1758.19 407.336 L1753.25 385.678 Z" fill="#00a9ad" fill-rule="evenodd" fill-opacity="1" stroke="#000000" stroke-opacity="1" stroke-width="4.9152"/>
<path clip-path="url(#clip760)" d="M1820.72 384.347 L1825.4 384.347 L1825.4 398.954 L1840.91 384.347 L1846.93 384.347 L1829.78 400.458 L1848.15 418.907 L1842 418.907 L1825.4 402.264 L1825.4 418.907 L1820.72 418.907 L1820.72 384.347 Z" fill="#000000" fill-rule="evenodd" fill-opacity="1" /><path clip-path="url(#clip760)" d="M1871.44 404.879 L1871.44 406.963 L1851.86 406.963 Q1852.14 411.361 1854.5 413.676 Q1856.88 415.967 1861.12 415.967 Q1863.57 415.967 1865.86 415.366 Q1868.18 414.764 1870.45 413.56 L1870.45 417.588 Q1868.15 418.56 1865.75 419.069 Q1863.34 419.578 1860.86 419.578 Q1854.66 419.578 1851.03 415.967 Q1847.41 412.356 1847.41 406.199 Q1847.41 399.833 1850.84 396.106 Q1854.29 392.356 1860.12 392.356 Q1865.35 392.356 1868.39 395.736 Q1871.44 399.092 1871.44 404.879 M1867.18 403.629 Q1867.14 400.134 1865.22 398.051 Q1863.32 395.967 1860.17 395.967 Q1856.6 395.967 1854.45 397.981 Q1852.32 399.995 1852 403.653 L1867.18 403.629 Z" fill="#000000" fill-rule="evenodd" fill-opacity="1" /><path clip-path="url(#clip760)" d="M1899.98 403.259 L1899.98 418.907 L1895.72 418.907 L1895.72 403.398 Q1895.72 399.717 1894.29 397.889 Q1892.85 396.06 1889.98 396.06 Q1886.53 396.06 1884.54 398.259 Q1882.55 400.458 1882.55 404.254 L1882.55 418.907 L1878.27 418.907 L1878.27 392.981 L1882.55 392.981 L1882.55 397.009 Q1884.08 394.671 1886.14 393.514 Q1888.22 392.356 1890.93 392.356 Q1895.4 392.356 1897.69 395.134 Q1899.98 397.889 1899.98 403.259 Z" fill="#000000" fill-rule="evenodd" fill-opacity="1" /><path clip-path="url(#clip760)" d="M1934.54 387.009 L1934.54 391.94 Q1932.18 389.741 1929.5 388.653 Q1926.84 387.565 1923.83 387.565 Q1917.9 387.565 1914.75 391.199 Q1911.6 394.81 1911.6 401.662 Q1911.6 408.491 1914.75 412.125 Q1917.9 415.736 1923.83 415.736 Q1926.84 415.736 1929.5 414.648 Q1932.18 413.56 1934.54 411.361 L1934.54 416.245 Q1932.09 417.912 1929.34 418.745 Q1926.6 419.578 1923.55 419.578 Q1915.7 419.578 1911.19 414.787 Q1906.67 409.972 1906.67 401.662 Q1906.67 393.329 1911.19 388.537 Q1915.7 383.722 1923.55 383.722 Q1926.65 383.722 1929.38 384.556 Q1932.14 385.366 1934.54 387.009 Z" fill="#000000" fill-rule="evenodd" fill-opacity="1" /><path clip-path="url(#clip760)" d="M1953.36 405.875 Q1948.2 405.875 1946.21 407.055 Q1944.22 408.236 1944.22 411.083 Q1944.22 413.352 1945.7 414.694 Q1947.21 416.014 1949.77 416.014 Q1953.32 416.014 1955.45 413.514 Q1957.6 410.991 1957.6 406.824 L1957.6 405.875 L1953.36 405.875 M1961.86 404.116 L1961.86 418.907 L1957.6 418.907 L1957.6 414.972 Q1956.14 417.333 1953.96 418.467 Q1951.79 419.578 1948.64 419.578 Q1944.66 419.578 1942.3 417.356 Q1939.96 415.111 1939.96 411.361 Q1939.96 406.986 1942.88 404.764 Q1945.82 402.542 1951.63 402.542 L1957.6 402.542 L1957.6 402.125 Q1957.6 399.185 1955.65 397.588 Q1953.73 395.967 1950.24 395.967 Q1948.02 395.967 1945.91 396.5 Q1943.8 397.032 1941.86 398.097 L1941.86 394.162 Q1944.2 393.259 1946.4 392.819 Q1948.59 392.356 1950.68 392.356 Q1956.3 392.356 1959.08 395.273 Q1961.86 398.19 1961.86 404.116 Z" fill="#000000" fill-rule="evenodd" fill-opacity="1" /><path clip-path="url(#clip760)" d="M1985.65 396.963 Q1984.94 396.546 1984.08 396.361 Q1983.25 396.153 1982.23 396.153 Q1978.62 396.153 1976.67 398.514 Q1974.75 400.852 1974.75 405.25 L1974.75 418.907 L1970.47 418.907 L1970.47 392.981 L1974.75 392.981 L1974.75 397.009 Q1976.09 394.648 1978.25 393.514 Q1980.4 392.356 1983.48 392.356 Q1983.92 392.356 1984.45 392.426 Q1984.98 392.472 1985.63 392.588 L1985.65 396.963 Z" fill="#000000" fill-rule="evenodd" fill-opacity="1" /><path clip-path="url(#clip760)" d="M1994.24 415.018 L1994.24 428.768 L1989.96 428.768 L1989.96 392.981 L1994.24 392.981 L1994.24 396.917 Q1995.58 394.602 1997.62 393.491 Q1999.68 392.356 2002.53 392.356 Q2007.25 392.356 2010.19 396.106 Q2013.15 399.856 2013.15 405.967 Q2013.15 412.079 2010.19 415.828 Q2007.25 419.578 2002.53 419.578 Q1999.68 419.578 1997.62 418.467 Q1995.58 417.333 1994.24 415.018 M2008.73 405.967 Q2008.73 401.268 2006.79 398.606 Q2004.87 395.921 2001.49 395.921 Q1998.11 395.921 1996.16 398.606 Q1994.24 401.268 1994.24 405.967 Q1994.24 410.666 1996.16 413.352 Q1998.11 416.014 2001.49 416.014 Q2004.87 416.014 2006.79 413.352 Q2008.73 410.666 2008.73 405.967 Z" fill="#000000" fill-rule="evenodd" fill-opacity="1" /><path clip-path="url(#clip760)" d="M2034.98 400.273 Q2038.34 400.991 2040.21 403.259 Q2042.11 405.528 2042.11 408.861 Q2042.11 413.977 2038.59 416.778 Q2035.08 419.578 2028.59 419.578 Q2026.42 419.578 2024.1 419.139 Q2021.81 418.722 2019.36 417.866 L2019.36 413.352 Q2021.3 414.486 2023.62 415.065 Q2025.93 415.643 2028.45 415.643 Q2032.85 415.643 2035.14 413.907 Q2037.46 412.171 2037.46 408.861 Q2037.46 405.805 2035.31 404.092 Q2033.18 402.356 2029.36 402.356 L2025.33 402.356 L2025.33 398.514 L2029.54 398.514 Q2032.99 398.514 2034.82 397.148 Q2036.65 395.759 2036.65 393.167 Q2036.65 390.505 2034.75 389.093 Q2032.88 387.657 2029.36 387.657 Q2027.44 387.657 2025.24 388.074 Q2023.04 388.491 2020.4 389.37 L2020.4 385.204 Q2023.06 384.463 2025.38 384.093 Q2027.71 383.722 2029.77 383.722 Q2035.1 383.722 2038.2 386.153 Q2041.3 388.56 2041.3 392.68 Q2041.3 395.551 2039.66 397.542 Q2038.02 399.509 2034.98 400.273 Z" fill="#000000" fill-rule="evenodd" fill-opacity="1" /><polyline clip-path="url(#clip760)" style="stroke:#ed5d92; stroke-linecap:butt; stroke-linejoin:round; stroke-width:4; stroke-opacity:1; fill:none" points="
  1667.61,453.467 1798.85,453.467 
  "/>
<path clip-path="url(#clip760)" d="M1733.23 479.067 L1711.06 466.267 L1711.06 440.667 L1733.23 427.867 L1755.4 440.667 L1755.4 466.267 Z" fill="#ed5d92" fill-rule="evenodd" fill-opacity="1" stroke="#000000" stroke-opacity="1" stroke-width="4.9152"/>
<path clip-path="url(#clip760)" d="M1837.11 454.544 Q1838.62 455.053 1840.03 456.719 Q1841.47 458.386 1842.9 461.303 L1847.65 470.747 L1842.62 470.747 L1838.2 461.881 Q1836.49 458.409 1834.87 457.275 Q1833.27 456.141 1830.49 456.141 L1825.4 456.141 L1825.4 470.747 L1820.72 470.747 L1820.72 436.187 L1831.28 436.187 Q1837.21 436.187 1840.12 438.664 Q1843.04 441.141 1843.04 446.141 Q1843.04 449.405 1841.51 451.557 Q1840.01 453.71 1837.11 454.544 M1825.4 440.03 L1825.4 452.298 L1831.28 452.298 Q1834.66 452.298 1836.37 450.747 Q1838.11 449.173 1838.11 446.141 Q1838.11 443.108 1836.37 441.581 Q1834.66 440.03 1831.28 440.03 L1825.4 440.03 Z" fill="#000000" fill-rule="evenodd" fill-opacity="1" /><path clip-path="url(#clip760)" d="M1861.4 447.807 Q1857.97 447.807 1855.98 450.493 Q1853.99 453.155 1853.99 457.807 Q1853.99 462.46 1855.96 465.145 Q1857.95 467.807 1861.4 467.807 Q1864.8 467.807 1866.79 465.122 Q1868.78 462.437 1868.78 457.807 Q1868.78 453.201 1866.79 450.516 Q1864.8 447.807 1861.4 447.807 M1861.4 444.196 Q1866.95 444.196 1870.12 447.807 Q1873.29 451.419 1873.29 457.807 Q1873.29 464.173 1870.12 467.807 Q1866.95 471.418 1861.4 471.418 Q1855.82 471.418 1852.65 467.807 Q1849.5 464.173 1849.5 457.807 Q1849.5 451.419 1852.65 447.807 Q1855.82 444.196 1861.4 444.196 Z" fill="#000000" fill-rule="evenodd" fill-opacity="1" /><path clip-path="url(#clip760)" d="M1897.41 448.757 L1897.41 434.729 L1901.67 434.729 L1901.67 470.747 L1897.41 470.747 L1897.41 466.858 Q1896.07 469.173 1894.01 470.307 Q1891.97 471.418 1889.1 471.418 Q1884.4 471.418 1881.44 467.668 Q1878.5 463.919 1878.5 457.807 Q1878.5 451.696 1881.44 447.946 Q1884.4 444.196 1889.1 444.196 Q1891.97 444.196 1894.01 445.331 Q1896.07 446.442 1897.41 448.757 M1882.9 457.807 Q1882.9 462.506 1884.82 465.192 Q1886.77 467.854 1890.15 467.854 Q1893.53 467.854 1895.47 465.192 Q1897.41 462.506 1897.41 457.807 Q1897.41 453.108 1895.47 450.446 Q1893.53 447.761 1890.15 447.761 Q1886.77 447.761 1884.82 450.446 Q1882.9 453.108 1882.9 457.807 Z" fill="#000000" fill-rule="evenodd" fill-opacity="1" /><path clip-path="url(#clip760)" d="M1922.23 457.715 Q1917.07 457.715 1915.08 458.895 Q1913.09 460.076 1913.09 462.923 Q1913.09 465.192 1914.57 466.534 Q1916.07 467.854 1918.64 467.854 Q1922.18 467.854 1924.31 465.354 Q1926.46 462.831 1926.46 458.664 L1926.46 457.715 L1922.23 457.715 M1930.72 455.956 L1930.72 470.747 L1926.46 470.747 L1926.46 466.812 Q1925.01 469.173 1922.83 470.307 Q1920.65 471.418 1917.51 471.418 Q1913.52 471.418 1911.16 469.196 Q1908.83 466.951 1908.83 463.201 Q1908.83 458.826 1911.74 456.604 Q1914.68 454.382 1920.49 454.382 L1926.46 454.382 L1926.46 453.965 Q1926.46 451.025 1924.52 449.428 Q1922.6 447.807 1919.1 447.807 Q1916.88 447.807 1914.77 448.34 Q1912.67 448.872 1910.72 449.937 L1910.72 446.002 Q1913.06 445.099 1915.26 444.659 Q1917.46 444.196 1919.54 444.196 Q1925.17 444.196 1927.95 447.113 Q1930.72 450.03 1930.72 455.956 Z" fill="#000000" fill-rule="evenodd" fill-opacity="1" /><path clip-path="url(#clip760)" d="M1956.02 445.585 L1956.02 449.613 Q1954.22 448.687 1952.27 448.224 Q1950.33 447.761 1948.25 447.761 Q1945.08 447.761 1943.48 448.733 Q1941.9 449.706 1941.9 451.65 Q1941.9 453.132 1943.04 453.988 Q1944.17 454.821 1947.6 455.585 L1949.06 455.909 Q1953.59 456.882 1955.49 458.664 Q1957.41 460.423 1957.41 463.594 Q1957.41 467.206 1954.54 469.312 Q1951.7 471.418 1946.7 471.418 Q1944.61 471.418 1942.34 471.002 Q1940.1 470.608 1937.6 469.798 L1937.6 465.4 Q1939.96 466.627 1942.25 467.252 Q1944.54 467.854 1946.79 467.854 Q1949.8 467.854 1951.42 466.835 Q1953.04 465.794 1953.04 463.919 Q1953.04 462.182 1951.86 461.256 Q1950.7 460.331 1946.74 459.474 L1945.26 459.127 Q1941.3 458.294 1939.54 456.581 Q1937.78 454.844 1937.78 451.835 Q1937.78 448.178 1940.38 446.187 Q1942.97 444.196 1947.74 444.196 Q1950.1 444.196 1952.18 444.544 Q1954.27 444.891 1956.02 445.585 Z" fill="#000000" fill-rule="evenodd" fill-opacity="1" /><path clip-path="url(#clip760)" d="M1977.64 440.261 L1965.84 458.71 L1977.64 458.71 L1977.64 440.261 M1976.42 436.187 L1982.3 436.187 L1982.3 458.71 L1987.23 458.71 L1987.23 462.599 L1982.3 462.599 L1982.3 470.747 L1977.64 470.747 L1977.64 462.599 L1962.04 462.599 L1962.04 458.085 L1976.42 436.187 Z" fill="#000000" fill-rule="evenodd" fill-opacity="1" /><polyline clip-path="url(#clip760)" style="stroke:#c68125; stroke-linecap:butt; stroke-linejoin:round; stroke-width:4; stroke-opacity:1; fill:none" points="
  1667.61,505.307 1798.85,505.307 
  "/>
<line clip-path="url(#clip760)" x1="1758.83" y1="505.307" x2="1707.63" y2="505.307" style="stroke:#c68125; stroke-width:4.9152; stroke-opacity:1"/>
<path clip-path="url(#clip760)" d="M1820.72 486.569 L1824.98 486.569 L1824.98 522.587 L1820.72 522.587 L1820.72 486.569 Z" fill="#000000" fill-rule="evenodd" fill-opacity="1" /><path clip-path="url(#clip760)" d="M1850.42 497.425 L1850.42 501.453 Q1848.62 500.527 1846.67 500.064 Q1844.73 499.601 1842.65 499.601 Q1839.47 499.601 1837.88 500.573 Q1836.3 501.546 1836.3 503.49 Q1836.3 504.972 1837.44 505.828 Q1838.57 506.661 1842 507.425 L1843.46 507.749 Q1847.99 508.722 1849.89 510.504 Q1851.81 512.263 1851.81 515.434 Q1851.81 519.046 1848.94 521.152 Q1846.09 523.258 1841.09 523.258 Q1839.01 523.258 1836.74 522.842 Q1834.5 522.448 1832 521.638 L1832 517.24 Q1834.36 518.467 1836.65 519.092 Q1838.94 519.694 1841.19 519.694 Q1844.2 519.694 1845.82 518.675 Q1847.44 517.634 1847.44 515.759 Q1847.44 514.022 1846.26 513.096 Q1845.1 512.171 1841.14 511.314 L1839.66 510.967 Q1835.7 510.134 1833.94 508.421 Q1832.18 506.684 1832.18 503.675 Q1832.18 500.018 1834.78 498.027 Q1837.37 496.036 1842.14 496.036 Q1844.5 496.036 1846.58 496.384 Q1848.66 496.731 1850.42 497.425 Z" fill="#000000" fill-rule="evenodd" fill-opacity="1" /><path clip-path="url(#clip760)" d="M1868.64 499.647 Q1865.22 499.647 1863.22 502.333 Q1861.23 504.995 1861.23 509.647 Q1861.23 514.3 1863.2 516.985 Q1865.19 519.647 1868.64 519.647 Q1872.04 519.647 1874.03 516.962 Q1876.03 514.277 1876.03 509.647 Q1876.03 505.041 1874.03 502.356 Q1872.04 499.647 1868.64 499.647 M1868.64 496.036 Q1874.2 496.036 1877.37 499.647 Q1880.54 503.259 1880.54 509.647 Q1880.54 516.013 1877.37 519.647 Q1874.2 523.258 1868.64 523.258 Q1863.06 523.258 1859.89 519.647 Q1856.74 516.013 1856.74 509.647 Q1856.74 503.259 1859.89 499.647 Q1863.06 496.036 1868.64 496.036 Z" fill="#000000" fill-rule="evenodd" fill-opacity="1" /><path clip-path="url(#clip760)" d="M1904.66 500.597 L1904.66 486.569 L1908.92 486.569 L1908.92 522.587 L1904.66 522.587 L1904.66 518.698 Q1903.32 521.013 1901.26 522.147 Q1899.22 523.258 1896.35 523.258 Q1891.65 523.258 1888.69 519.508 Q1885.75 515.759 1885.75 509.647 Q1885.75 503.536 1888.69 499.786 Q1891.65 496.036 1896.35 496.036 Q1899.22 496.036 1901.26 497.171 Q1903.32 498.282 1904.66 500.597 M1890.15 509.647 Q1890.15 514.346 1892.07 517.032 Q1894.01 519.694 1897.39 519.694 Q1900.77 519.694 1902.71 517.032 Q1904.66 514.346 1904.66 509.647 Q1904.66 504.948 1902.71 502.286 Q1900.77 499.601 1897.39 499.601 Q1894.01 499.601 1892.07 502.286 Q1890.15 504.948 1890.15 509.647 Z" fill="#000000" fill-rule="evenodd" fill-opacity="1" /><path clip-path="url(#clip760)" d="M1929.47 509.555 Q1924.31 509.555 1922.32 510.735 Q1920.33 511.916 1920.33 514.763 Q1920.33 517.032 1921.81 518.374 Q1923.32 519.694 1925.89 519.694 Q1929.43 519.694 1931.56 517.194 Q1933.71 514.671 1933.71 510.504 L1933.71 509.555 L1929.47 509.555 M1937.97 507.796 L1937.97 522.587 L1933.71 522.587 L1933.71 518.652 Q1932.25 521.013 1930.08 522.147 Q1927.9 523.258 1924.75 523.258 Q1920.77 523.258 1918.41 521.036 Q1916.07 518.791 1916.07 515.041 Q1916.07 510.666 1918.99 508.444 Q1921.93 506.222 1927.74 506.222 L1933.71 506.222 L1933.71 505.805 Q1933.71 502.865 1931.77 501.268 Q1929.84 499.647 1926.35 499.647 Q1924.13 499.647 1922.02 500.18 Q1919.91 500.712 1917.97 501.777 L1917.97 497.842 Q1920.31 496.939 1922.51 496.499 Q1924.71 496.036 1926.79 496.036 Q1932.41 496.036 1935.19 498.953 Q1937.97 501.87 1937.97 507.796 Z" fill="#000000" fill-rule="evenodd" fill-opacity="1" /><polyline clip-path="url(#clip760)" style="stroke:#00a98d; stroke-linecap:butt; stroke-linejoin:round; stroke-width:4; stroke-opacity:1; fill:none" points="
  1667.61,557.147 1798.85,557.147 
  "/>
<path clip-path="url(#clip760)" d="M1712.75 557.147 L1743.47 575.067 L1743.47 539.227 L1712.75 557.147 Z" fill="#00a98d" fill-rule="evenodd" fill-opacity="1" stroke="#000000" stroke-opacity="1" stroke-width="4.9152"/>
<path clip-path="url(#clip760)" d="M1835.91 552.483 Q1835.19 552.066 1834.34 551.881 Q1833.5 551.673 1832.48 551.673 Q1828.87 551.673 1826.93 554.034 Q1825.01 556.372 1825.01 560.77 L1825.01 574.427 L1820.72 574.427 L1820.72 548.501 L1825.01 548.501 L1825.01 552.529 Q1826.35 550.168 1828.5 549.034 Q1830.66 547.876 1833.73 547.876 Q1834.17 547.876 1834.71 547.946 Q1835.24 547.992 1835.89 548.108 L1835.91 552.483 Z" fill="#000000" fill-rule="evenodd" fill-opacity="1" /><path clip-path="url(#clip760)" d="M1852.16 561.395 Q1847 561.395 1845.01 562.575 Q1843.02 563.756 1843.02 566.603 Q1843.02 568.872 1844.5 570.214 Q1846 571.534 1848.57 571.534 Q1852.11 571.534 1854.24 569.034 Q1856.4 566.511 1856.4 562.344 L1856.4 561.395 L1852.16 561.395 M1860.65 559.636 L1860.65 574.427 L1856.4 574.427 L1856.4 570.492 Q1854.94 572.853 1852.76 573.987 Q1850.59 575.098 1847.44 575.098 Q1843.46 575.098 1841.09 572.876 Q1838.76 570.631 1838.76 566.881 Q1838.76 562.506 1841.67 560.284 Q1844.61 558.062 1850.42 558.062 L1856.4 558.062 L1856.4 557.645 Q1856.4 554.705 1854.45 553.108 Q1852.53 551.487 1849.03 551.487 Q1846.81 551.487 1844.71 552.02 Q1842.6 552.552 1840.65 553.617 L1840.65 549.682 Q1842.99 548.779 1845.19 548.339 Q1847.39 547.876 1849.47 547.876 Q1855.1 547.876 1857.88 550.793 Q1860.65 553.71 1860.65 559.636 Z" fill="#000000" fill-rule="evenodd" fill-opacity="1" /><path clip-path="url(#clip760)" d="M1886.49 552.437 L1886.49 538.409 L1890.75 538.409 L1890.75 574.427 L1886.49 574.427 L1886.49 570.538 Q1885.15 572.853 1883.09 573.987 Q1881.05 575.098 1878.18 575.098 Q1873.48 575.098 1870.52 571.348 Q1867.58 567.599 1867.58 561.487 Q1867.58 555.376 1870.52 551.626 Q1873.48 547.876 1878.18 547.876 Q1881.05 547.876 1883.09 549.011 Q1885.15 550.122 1886.49 552.437 M1871.97 561.487 Q1871.97 566.186 1873.9 568.872 Q1875.84 571.534 1879.22 571.534 Q1882.6 571.534 1884.54 568.872 Q1886.49 566.186 1886.49 561.487 Q1886.49 556.788 1884.54 554.126 Q1882.6 551.441 1879.22 551.441 Q1875.84 551.441 1873.9 554.126 Q1871.97 556.788 1871.97 561.487 Z" fill="#000000" fill-rule="evenodd" fill-opacity="1" /><path clip-path="url(#clip760)" d="M1911.3 561.395 Q1906.14 561.395 1904.15 562.575 Q1902.16 563.756 1902.16 566.603 Q1902.16 568.872 1903.64 570.214 Q1905.15 571.534 1907.71 571.534 Q1911.26 571.534 1913.39 569.034 Q1915.54 566.511 1915.54 562.344 L1915.54 561.395 L1911.3 561.395 M1919.8 559.636 L1919.8 574.427 L1915.54 574.427 L1915.54 570.492 Q1914.08 572.853 1911.9 573.987 Q1909.73 575.098 1906.58 575.098 Q1902.6 575.098 1900.24 572.876 Q1897.9 570.631 1897.9 566.881 Q1897.9 562.506 1900.82 560.284 Q1903.76 558.062 1909.57 558.062 L1915.54 558.062 L1915.54 557.645 Q1915.54 554.705 1913.59 553.108 Q1911.67 551.487 1908.18 551.487 Q1905.96 551.487 1903.85 552.02 Q1901.74 552.552 1899.8 553.617 L1899.8 549.682 Q1902.14 548.779 1904.34 548.339 Q1906.53 547.876 1908.62 547.876 Q1914.24 547.876 1917.02 550.793 Q1919.8 553.71 1919.8 559.636 Z" fill="#000000" fill-rule="evenodd" fill-opacity="1" /><path clip-path="url(#clip760)" d="M1928.13 564.196 L1928.13 548.501 L1932.39 548.501 L1932.39 564.034 Q1932.39 567.714 1933.83 569.566 Q1935.26 571.395 1938.13 571.395 Q1941.58 571.395 1943.57 569.196 Q1945.58 566.997 1945.58 563.2 L1945.58 548.501 L1949.84 548.501 L1949.84 574.427 L1945.58 574.427 L1945.58 570.446 Q1944.03 572.807 1941.97 573.964 Q1939.94 575.098 1937.23 575.098 Q1932.76 575.098 1930.45 572.321 Q1928.13 569.543 1928.13 564.196 M1938.85 547.876 L1938.85 547.876 Z" fill="#000000" fill-rule="evenodd" fill-opacity="1" /></svg>
