<?xml version="1.0" encoding="utf-8"?>
<svg xmlns="http://www.w3.org/2000/svg" xmlns:xlink="http://www.w3.org/1999/xlink" width="576" height="384" viewBox="0 0 2304 1536">
<defs>
  <clipPath id="clip320">
    <rect x="0" y="0" width="2304" height="1536"/>
  </clipPath>
</defs>
<path clip-path="url(#clip320)" d="
M0 1536 L2304 1536 L2304 0 L0 0  Z
  " fill="#ffffff" fill-rule="evenodd" fill-opacity="1"/>
<defs>
  <clipPath id="clip321">
    <rect x="460" y="0" width="1614" height="1536"/>
  </clipPath>
</defs>
<path clip-path="url(#clip320)" d="
M250.882 1347.54 L2256.76 1347.54 L2256.76 47.2441 L250.882 47.2441  Z
  " fill="#ffffff" fill-rule="evenodd" fill-opacity="1"/>
<defs>
  <clipPath id="clip322">
    <rect x="250" y="47" width="2007" height="1301"/>
  </clipPath>
</defs>
<polyline clip-path="url(#clip322)" style="stroke:#000000; stroke-linecap:butt; stroke-linejoin:round; stroke-width:2; stroke-opacity:0.1; fill:none" points="
  813.463,1347.54 813.463,47.2441 
  "/>
<polyline clip-path="url(#clip322)" style="stroke:#000000; stroke-linecap:butt; stroke-linejoin:round; stroke-width:2; stroke-opacity:0.1; fill:none" points="
  1738.45,1347.54 1738.45,47.2441 
  "/>
<polyline clip-path="url(#clip320)" style="stroke:#000000; stroke-linecap:butt; stroke-linejoin:round; stroke-width:4; stroke-opacity:1; fill:none" points="
  250.882,1347.54 2256.76,1347.54 
  "/>
<polyline clip-path="url(#clip320)" style="stroke:#000000; stroke-linecap:butt; stroke-linejoin:round; stroke-width:4; stroke-opacity:1; fill:none" points="
  813.463,1347.54 813.463,1328.64 
  "/>
<polyline clip-path="url(#clip320)" style="stroke:#000000; stroke-linecap:butt; stroke-linejoin:round; stroke-width:4; stroke-opacity:1; fill:none" points="
  1738.45,1347.54 1738.45,1328.64 
  "/>
<path clip-path="url(#clip320)" d="M751.475 1420.89 L759.114 1420.89 L759.114 1394.53 L750.804 1396.19 L750.804 1391.94 L759.068 1390.27 L763.744 1390.27 L763.744 1420.89 L771.383 1420.89 L771.383 1424.83 L751.475 1424.83 L751.475 1420.89 Z" fill="#000000" fill-rule="evenodd" fill-opacity="1" /><path clip-path="url(#clip320)" d="M790.827 1393.35 Q787.216 1393.35 785.387 1396.91 Q783.582 1400.45 783.582 1407.58 Q783.582 1414.69 785.387 1418.25 Q787.216 1421.8 790.827 1421.8 Q794.461 1421.8 796.267 1418.25 Q798.095 1414.69 798.095 1407.58 Q798.095 1400.45 796.267 1396.91 Q794.461 1393.35 790.827 1393.35 M790.827 1389.64 Q796.637 1389.64 799.693 1394.25 Q802.771 1398.83 802.771 1407.58 Q802.771 1416.31 799.693 1420.92 Q796.637 1425.5 790.827 1425.5 Q785.017 1425.5 781.938 1420.92 Q778.882 1416.31 778.882 1407.58 Q778.882 1398.83 781.938 1394.25 Q785.017 1389.64 790.827 1389.64 Z" fill="#000000" fill-rule="evenodd" fill-opacity="1" /><path clip-path="url(#clip320)" d="M802.771 1383.74 L826.883 1383.74 L826.883 1386.94 L802.771 1386.94 L802.771 1383.74 Z" fill="#000000" fill-rule="evenodd" fill-opacity="1" /><path clip-path="url(#clip320)" d="M835.741 1394.22 L841.948 1394.22 L841.948 1372.8 L835.196 1374.15 L835.196 1370.69 L841.91 1369.34 L845.709 1369.34 L845.709 1394.22 L851.916 1394.22 L851.916 1397.42 L835.741 1397.42 L835.741 1394.22 Z" fill="#000000" fill-rule="evenodd" fill-opacity="1" /><path clip-path="url(#clip320)" d="M862.862 1394.22 L876.122 1394.22 L876.122 1397.42 L858.292 1397.42 L858.292 1394.22 Q860.455 1391.98 864.179 1388.22 Q867.921 1384.44 868.881 1383.35 Q870.705 1381.3 871.42 1379.89 Q872.153 1378.46 872.153 1377.09 Q872.153 1374.85 870.573 1373.44 Q869.012 1372.03 866.492 1372.03 Q864.705 1372.03 862.712 1372.65 Q860.737 1373.27 858.48 1374.53 L858.48 1370.69 Q860.774 1369.77 862.768 1369.3 Q864.762 1368.83 866.417 1368.83 Q870.78 1368.83 873.376 1371.01 Q875.971 1373.19 875.971 1376.84 Q875.971 1378.57 875.313 1380.13 Q874.673 1381.68 872.962 1383.78 Q872.492 1384.33 869.971 1386.94 Q867.451 1389.54 862.862 1394.22 Z" fill="#000000" fill-rule="evenodd" fill-opacity="1" /><path clip-path="url(#clip320)" d="M1688.14 1420.89 L1695.78 1420.89 L1695.78 1394.53 L1687.47 1396.19 L1687.47 1391.94 L1695.74 1390.27 L1700.41 1390.27 L1700.41 1420.89 L1708.05 1420.89 L1708.05 1424.83 L1688.14 1424.83 L1688.14 1420.89 Z" fill="#000000" fill-rule="evenodd" fill-opacity="1" /><path clip-path="url(#clip320)" d="M1727.5 1393.35 Q1723.89 1393.35 1722.06 1396.91 Q1720.25 1400.45 1720.25 1407.58 Q1720.25 1414.69 1722.06 1418.25 Q1723.89 1421.8 1727.5 1421.8 Q1731.13 1421.8 1732.94 1418.25 Q1734.76 1414.69 1734.76 1407.58 Q1734.76 1400.45 1732.94 1396.91 Q1731.13 1393.35 1727.5 1393.35 M1727.5 1389.64 Q1733.31 1389.64 1736.36 1394.25 Q1739.44 1398.83 1739.44 1407.58 Q1739.44 1416.31 1736.36 1420.92 Q1733.31 1425.5 1727.5 1425.5 Q1721.69 1425.5 1718.61 1420.92 Q1715.55 1416.31 1715.55 1407.58 Q1715.55 1398.83 1718.61 1394.25 Q1721.69 1389.64 1727.5 1389.64 Z" fill="#000000" fill-rule="evenodd" fill-opacity="1" /><path clip-path="url(#clip320)" d="M1739.44 1383.74 L1763.55 1383.74 L1763.55 1386.94 L1739.44 1386.94 L1739.44 1383.74 Z" fill="#000000" fill-rule="evenodd" fill-opacity="1" /><path clip-path="url(#clip320)" d="M1771.87 1396.84 L1771.87 1393.37 Q1773.29 1394.05 1774.76 1394.41 Q1776.23 1394.77 1777.64 1394.77 Q1781.4 1394.77 1783.38 1392.25 Q1785.37 1389.71 1785.65 1384.55 Q1784.56 1386.17 1782.89 1387.04 Q1781.21 1387.9 1779.18 1387.9 Q1774.97 1387.9 1772.5 1385.36 Q1770.06 1382.8 1770.06 1378.38 Q1770.06 1374.06 1772.62 1371.44 Q1775.18 1368.83 1779.43 1368.83 Q1784.3 1368.83 1786.86 1372.57 Q1789.43 1376.3 1789.43 1383.41 Q1789.43 1390.05 1786.27 1394.01 Q1783.13 1397.96 1777.81 1397.96 Q1776.38 1397.96 1774.91 1397.68 Q1773.45 1397.4 1771.87 1396.84 M1779.43 1384.93 Q1781.98 1384.93 1783.47 1383.18 Q1784.97 1381.43 1784.97 1378.38 Q1784.97 1375.36 1783.47 1373.61 Q1781.98 1371.84 1779.43 1371.84 Q1776.87 1371.84 1775.36 1373.61 Q1773.88 1375.36 1773.88 1378.38 Q1773.88 1381.43 1775.36 1383.18 Q1776.87 1384.93 1779.43 1384.93 Z" fill="#000000" fill-rule="evenodd" fill-opacity="1" /><path clip-path="url(#clip320)" d="M1177.57 1461.87 L1207.62 1461.87 L1207.62 1467.28 L1184 1467.28 L1184 1481.34 L1206.63 1481.34 L1206.63 1486.76 L1184 1486.76 L1184 1503.97 L1208.19 1503.97 L1208.19 1509.39 L1177.57 1509.39 L1177.57 1461.87 Z" fill="#000000" fill-rule="evenodd" fill-opacity="1" /><path clip-path="url(#clip320)" d="M1239.16 1479.21 Q1238.18 1478.64 1237 1478.38 Q1235.85 1478.1 1234.45 1478.1 Q1229.49 1478.1 1226.81 1481.34 Q1224.17 1484.56 1224.17 1490.61 L1224.17 1509.39 L1218.28 1509.39 L1218.28 1473.74 L1224.17 1473.74 L1224.17 1479.28 Q1226.02 1476.03 1228.98 1474.47 Q1231.94 1472.88 1236.17 1472.88 Q1236.77 1472.88 1237.51 1472.97 Q1238.24 1473.04 1239.13 1473.2 L1239.16 1479.21 Z" fill="#000000" fill-rule="evenodd" fill-opacity="1" /><path clip-path="url(#clip320)" d="M1264.82 1479.21 Q1263.83 1478.64 1262.65 1478.38 Q1261.51 1478.1 1260.11 1478.1 Q1255.14 1478.1 1252.47 1481.34 Q1249.82 1484.56 1249.82 1490.61 L1249.82 1509.39 L1243.94 1509.39 L1243.94 1473.74 L1249.82 1473.74 L1249.82 1479.28 Q1251.67 1476.03 1254.63 1474.47 Q1257.59 1472.88 1261.82 1472.88 Q1262.43 1472.88 1263.16 1472.97 Q1263.89 1473.04 1264.78 1473.2 L1264.82 1479.21 Z" fill="#000000" fill-rule="evenodd" fill-opacity="1" /><path clip-path="url(#clip320)" d="M1283.34 1477.84 Q1278.63 1477.84 1275.89 1481.54 Q1273.15 1485.2 1273.15 1491.59 Q1273.15 1497.99 1275.86 1501.68 Q1278.6 1505.34 1283.34 1505.34 Q1288.02 1505.34 1290.76 1501.65 Q1293.49 1497.96 1293.49 1491.59 Q1293.49 1485.26 1290.76 1481.57 Q1288.02 1477.84 1283.34 1477.84 M1283.34 1472.88 Q1290.98 1472.88 1295.34 1477.84 Q1299.7 1482.81 1299.7 1491.59 Q1299.7 1500.35 1295.34 1505.34 Q1290.98 1510.31 1283.34 1510.31 Q1275.67 1510.31 1271.31 1505.34 Q1266.98 1500.35 1266.98 1491.59 Q1266.98 1482.81 1271.31 1477.84 Q1275.67 1472.88 1283.34 1472.88 Z" fill="#000000" fill-rule="evenodd" fill-opacity="1" /><path clip-path="url(#clip320)" d="M1330.06 1479.21 Q1329.08 1478.64 1327.9 1478.38 Q1326.75 1478.1 1325.35 1478.1 Q1320.39 1478.1 1317.71 1481.34 Q1315.07 1484.56 1315.07 1490.61 L1315.07 1509.39 L1309.18 1509.39 L1309.18 1473.74 L1315.07 1473.74 L1315.07 1479.28 Q1316.92 1476.03 1319.88 1474.47 Q1322.84 1472.88 1327.07 1472.88 Q1327.68 1472.88 1328.41 1472.97 Q1329.14 1473.04 1330.03 1473.2 L1330.06 1479.21 Z" fill="#000000" fill-rule="evenodd" fill-opacity="1" /><polyline clip-path="url(#clip322)" style="stroke:#000000; stroke-linecap:butt; stroke-linejoin:round; stroke-width:2; stroke-opacity:0.1; fill:none" points="
  250.882,879.576 2256.76,879.576 
  "/>
<polyline clip-path="url(#clip322)" style="stroke:#000000; stroke-linecap:butt; stroke-linejoin:round; stroke-width:2; stroke-opacity:0.1; fill:none" points="
  250.882,122.124 2256.76,122.124 
  "/>
<polyline clip-path="url(#clip320)" style="stroke:#000000; stroke-linecap:butt; stroke-linejoin:round; stroke-width:4; stroke-opacity:1; fill:none" points="
  250.882,1347.54 250.882,47.2441 
  "/>
<polyline clip-path="url(#clip320)" style="stroke:#000000; stroke-linecap:butt; stroke-linejoin:round; stroke-width:4; stroke-opacity:1; fill:none" points="
  250.882,879.576 269.78,879.576 
  "/>
<polyline clip-path="url(#clip320)" style="stroke:#000000; stroke-linecap:butt; stroke-linejoin:round; stroke-width:4; stroke-opacity:1; fill:none" points="
  250.882,122.124 269.78,122.124 
  "/>
<path clip-path="url(#clip320)" d="M115.411 899.369 L123.05 899.369 L123.05 873.003 L114.74 874.67 L114.74 870.41 L123.004 868.744 L127.68 868.744 L127.68 899.369 L135.319 899.369 L135.319 903.304 L115.411 903.304 L115.411 899.369 Z" fill="#000000" fill-rule="evenodd" fill-opacity="1" /><path clip-path="url(#clip320)" d="M154.763 871.822 Q151.152 871.822 149.323 875.387 Q147.518 878.929 147.518 886.058 Q147.518 893.165 149.323 896.73 Q151.152 900.271 154.763 900.271 Q158.397 900.271 160.203 896.73 Q162.032 893.165 162.032 886.058 Q162.032 878.929 160.203 875.387 Q158.397 871.822 154.763 871.822 M154.763 868.119 Q160.573 868.119 163.629 872.725 Q166.707 877.308 166.707 886.058 Q166.707 894.785 163.629 899.392 Q160.573 903.975 154.763 903.975 Q148.953 903.975 145.874 899.392 Q142.819 894.785 142.819 886.058 Q142.819 877.308 145.874 872.725 Q148.953 868.119 154.763 868.119 Z" fill="#000000" fill-rule="evenodd" fill-opacity="1" /><path clip-path="url(#clip320)" d="M166.707 862.22 L190.819 862.22 L190.819 865.417 L166.707 865.417 L166.707 862.22 Z" fill="#000000" fill-rule="evenodd" fill-opacity="1" /><path clip-path="url(#clip320)" d="M210.53 860.753 Q213.257 861.336 214.78 863.179 Q216.322 865.022 216.322 867.731 Q216.322 871.887 213.464 874.163 Q210.605 876.439 205.339 876.439 Q203.571 876.439 201.69 876.081 Q199.828 875.743 197.834 875.047 L197.834 871.379 Q199.414 872.301 201.295 872.771 Q203.176 873.241 205.226 873.241 Q208.799 873.241 210.661 871.831 Q212.542 870.42 212.542 867.731 Q212.542 865.248 210.793 863.856 Q209.063 862.446 205.959 862.446 L202.687 862.446 L202.687 859.324 L206.11 859.324 Q208.912 859.324 210.398 858.214 Q211.884 857.086 211.884 854.979 Q211.884 852.816 210.341 851.669 Q208.818 850.503 205.959 850.503 Q204.398 850.503 202.612 850.841 Q200.825 851.18 198.681 851.895 L198.681 848.509 Q200.844 847.907 202.724 847.606 Q204.624 847.305 206.298 847.305 Q210.624 847.305 213.144 849.28 Q215.664 851.236 215.664 854.584 Q215.664 856.916 214.329 858.534 Q212.993 860.132 210.53 860.753 Z" fill="#000000" fill-rule="evenodd" fill-opacity="1" /><path clip-path="url(#clip320)" d="M116.183 141.916 L123.821 141.916 L123.821 115.551 L115.511 117.217 L115.511 112.958 L123.775 111.291 L128.451 111.291 L128.451 141.916 L136.09 141.916 L136.09 145.851 L116.183 145.851 L116.183 141.916 Z" fill="#000000" fill-rule="evenodd" fill-opacity="1" /><path clip-path="url(#clip320)" d="M155.534 114.37 Q151.923 114.37 150.094 117.935 Q148.289 121.477 148.289 128.606 Q148.289 135.713 150.094 139.277 Q151.923 142.819 155.534 142.819 Q159.168 142.819 160.974 139.277 Q162.803 135.713 162.803 128.606 Q162.803 121.477 160.974 117.935 Q159.168 114.37 155.534 114.37 M155.534 110.666 Q161.344 110.666 164.4 115.273 Q167.479 119.856 167.479 128.606 Q167.479 137.333 164.4 141.939 Q161.344 146.523 155.534 146.523 Q149.724 146.523 146.645 141.939 Q143.59 137.333 143.59 128.606 Q143.59 119.856 146.645 115.273 Q149.724 110.666 155.534 110.666 Z" fill="#000000" fill-rule="evenodd" fill-opacity="1" /><path clip-path="url(#clip320)" d="M167.479 104.768 L191.59 104.768 L191.59 107.965 L167.479 107.965 L167.479 104.768 Z" fill="#000000" fill-rule="evenodd" fill-opacity="1" /><path clip-path="url(#clip320)" d="M203.063 115.244 L216.322 115.244 L216.322 118.441 L198.493 118.441 L198.493 115.244 Q200.655 113.006 204.379 109.244 Q208.122 105.464 209.081 104.373 Q210.906 102.323 211.62 100.912 Q212.354 99.4828 212.354 98.1098 Q212.354 95.8717 210.774 94.4611 Q209.213 93.0505 206.693 93.0505 Q204.906 93.0505 202.912 93.6712 Q200.938 94.2918 198.681 95.5519 L198.681 91.7152 Q200.975 90.7936 202.969 90.3234 Q204.962 89.8532 206.618 89.8532 Q210.981 89.8532 213.576 92.0349 Q216.172 94.2166 216.172 97.8653 Q216.172 99.5956 215.514 101.157 Q214.874 102.699 213.163 104.805 Q212.692 105.351 210.172 107.965 Q207.652 110.561 203.063 115.244 Z" fill="#000000" fill-rule="evenodd" fill-opacity="1" /><path clip-path="url(#clip320)" d="M18.4042 827.219 L18.4042 787.02 L23.815 787.02 L23.815 803.889 L65.9242 803.889 L65.9242 810.35 L23.815 810.35 L23.815 827.219 L18.4042 827.219 Z" fill="#000000" fill-rule="evenodd" fill-opacity="1" /><path clip-path="url(#clip320)" d="M30.2762 783.073 L30.2762 777.216 L65.9242 777.216 L65.9242 783.073 L30.2762 783.073 M16.399 783.073 L16.399 777.216 L23.815 777.216 L23.815 783.073 L16.399 783.073 Z" fill="#000000" fill-rule="evenodd" fill-opacity="1" /><path clip-path="url(#clip320)" d="M37.1193 737.208 Q33.1726 735.012 31.2947 731.956 Q29.4168 728.901 29.4168 724.763 Q29.4168 719.193 33.3317 716.169 Q37.2148 713.145 44.4081 713.145 L65.9242 713.145 L65.9242 719.034 L44.599 719.034 Q39.4746 719.034 36.992 720.848 Q34.5094 722.662 34.5094 726.386 Q34.5094 730.938 37.5331 733.579 Q40.5568 736.221 45.7767 736.221 L65.9242 736.221 L65.9242 742.109 L44.599 742.109 Q39.4428 742.109 36.992 743.924 Q34.5094 745.738 34.5094 749.526 Q34.5094 754.013 37.5649 756.655 Q40.5886 759.297 45.7767 759.297 L65.9242 759.297 L65.9242 765.185 L30.2762 765.185 L30.2762 759.297 L35.8144 759.297 Q32.536 757.292 30.9764 754.491 Q29.4168 751.69 29.4168 747.839 Q29.4168 743.956 31.3902 741.25 Q33.3636 738.513 37.1193 737.208 Z" fill="#000000" fill-rule="evenodd" fill-opacity="1" /><path clip-path="url(#clip320)" d="M46.6361 670.973 L49.5006 670.973 L49.5006 697.9 Q55.5481 697.518 58.7309 694.271 Q61.8819 690.993 61.8819 685.168 Q61.8819 681.794 61.0544 678.643 Q60.2269 675.461 58.5718 672.341 L64.1099 672.341 Q65.4467 675.492 66.147 678.803 Q66.8472 682.113 66.8472 685.518 Q66.8472 694.048 61.8819 699.045 Q56.9167 704.011 48.4503 704.011 Q39.6974 704.011 34.5731 699.3 Q29.4168 694.558 29.4168 686.537 Q29.4168 679.344 34.0638 675.174 Q38.6789 670.973 46.6361 670.973 M44.9173 676.829 Q40.1112 676.893 37.2466 679.535 Q34.3821 682.145 34.3821 686.473 Q34.3821 691.375 37.1512 694.335 Q39.9202 697.263 44.9492 697.709 L44.9173 676.829 Z" fill="#000000" fill-rule="evenodd" fill-opacity="1" /><path clip-path="url(#clip320)" d="M16.4626 626.572 Q23.7832 630.837 30.9446 632.906 Q38.106 634.975 45.4584 634.975 Q52.8108 634.975 60.0359 632.906 Q67.2291 630.805 74.5179 626.572 L74.5179 631.664 Q67.0382 636.439 59.8131 638.826 Q52.588 641.181 45.4584 641.181 Q38.3606 641.181 31.1674 638.826 Q23.9742 636.471 16.4626 631.664 L16.4626 626.572 Z" fill="#000000" fill-rule="evenodd" fill-opacity="1" /><path clip-path="url(#clip320)" d="M31.3265 592.484 L36.8647 592.484 Q35.5916 594.966 34.955 597.64 Q34.3184 600.313 34.3184 603.178 Q34.3184 607.538 35.6552 609.735 Q36.992 611.899 39.6656 611.899 Q41.7026 611.899 42.8803 610.339 Q44.0261 608.78 45.0765 604.069 L45.5221 602.064 Q46.8589 595.826 49.3097 593.216 Q51.7286 590.574 56.0891 590.574 Q61.0544 590.574 63.9508 594.521 Q66.8472 598.435 66.8472 605.31 Q66.8472 608.175 66.2743 611.294 Q65.7332 614.382 64.6192 617.819 L58.5718 617.819 Q60.2587 614.573 61.118 611.422 Q61.9456 608.27 61.9456 605.183 Q61.9456 601.045 60.5451 598.817 Q59.1129 596.589 56.5347 596.589 Q54.1476 596.589 52.8745 598.213 Q51.6013 599.804 50.4237 605.247 L49.9462 607.284 Q48.8004 612.726 46.4451 615.145 Q44.058 617.564 39.9202 617.564 Q34.8913 617.564 32.1541 614 Q29.4168 610.435 29.4168 603.878 Q29.4168 600.632 29.8943 597.767 Q30.3717 594.902 31.3265 592.484 Z" fill="#000000" fill-rule="evenodd" fill-opacity="1" /><path clip-path="url(#clip320)" d="M16.4626 582.171 L16.4626 577.079 Q23.9742 572.304 31.1674 569.949 Q38.3606 567.562 45.4584 567.562 Q52.588 567.562 59.8131 569.949 Q67.0382 572.304 74.5179 577.079 L74.5179 582.171 Q67.2291 577.938 60.0359 575.869 Q52.8108 573.768 45.4584 573.768 Q38.106 573.768 30.9446 575.869 Q23.7832 577.938 16.4626 582.171 Z" fill="#000000" fill-rule="evenodd" fill-opacity="1" /><polyline clip-path="url(#clip322)" style="stroke:#009af9; stroke-linecap:butt; stroke-linejoin:round; stroke-width:12; stroke-opacity:1; fill:none" points="
  1939.5,1302.42 2199.99,1235.35 1906.1,1188.96 1649.93,1098.58 1298.58,988.932 931.252,807.757 307.652,648.19 
  "/>
<line clip-path="url(#clip322)" x1="1939.5" y1="1302.42" x2="1939.5" y2="1286.42" style="stroke:#009af9; stroke-width:3.072; stroke-opacity:1"/>
<line clip-path="url(#clip322)" x1="1939.5" y1="1302.42" x2="1923.5" y2="1302.42" style="stroke:#009af9; stroke-width:3.072; stroke-opacity:1"/>
<line clip-path="url(#clip322)" x1="1939.5" y1="1302.42" x2="1939.5" y2="1318.42" style="stroke:#009af9; stroke-width:3.072; stroke-opacity:1"/>
<line clip-path="url(#clip322)" x1="1939.5" y1="1302.42" x2="1955.5" y2="1302.42" style="stroke:#009af9; stroke-width:3.072; stroke-opacity:1"/>
<line clip-path="url(#clip322)" x1="2199.99" y1="1235.35" x2="2199.99" y2="1219.35" style="stroke:#009af9; stroke-width:3.072; stroke-opacity:1"/>
<line clip-path="url(#clip322)" x1="2199.99" y1="1235.35" x2="2183.99" y2="1235.35" style="stroke:#009af9; stroke-width:3.072; stroke-opacity:1"/>
<line clip-path="url(#clip322)" x1="2199.99" y1="1235.35" x2="2199.99" y2="1251.35" style="stroke:#009af9; stroke-width:3.072; stroke-opacity:1"/>
<line clip-path="url(#clip322)" x1="2199.99" y1="1235.35" x2="2215.99" y2="1235.35" style="stroke:#009af9; stroke-width:3.072; stroke-opacity:1"/>
<line clip-path="url(#clip322)" x1="1906.1" y1="1188.96" x2="1906.1" y2="1172.96" style="stroke:#009af9; stroke-width:3.072; stroke-opacity:1"/>
<line clip-path="url(#clip322)" x1="1906.1" y1="1188.96" x2="1890.1" y2="1188.96" style="stroke:#009af9; stroke-width:3.072; stroke-opacity:1"/>
<line clip-path="url(#clip322)" x1="1906.1" y1="1188.96" x2="1906.1" y2="1204.96" style="stroke:#009af9; stroke-width:3.072; stroke-opacity:1"/>
<line clip-path="url(#clip322)" x1="1906.1" y1="1188.96" x2="1922.1" y2="1188.96" style="stroke:#009af9; stroke-width:3.072; stroke-opacity:1"/>
<line clip-path="url(#clip322)" x1="1649.93" y1="1098.58" x2="1649.93" y2="1082.58" style="stroke:#009af9; stroke-width:3.072; stroke-opacity:1"/>
<line clip-path="url(#clip322)" x1="1649.93" y1="1098.58" x2="1633.93" y2="1098.58" style="stroke:#009af9; stroke-width:3.072; stroke-opacity:1"/>
<line clip-path="url(#clip322)" x1="1649.93" y1="1098.58" x2="1649.93" y2="1114.58" style="stroke:#009af9; stroke-width:3.072; stroke-opacity:1"/>
<line clip-path="url(#clip322)" x1="1649.93" y1="1098.58" x2="1665.93" y2="1098.58" style="stroke:#009af9; stroke-width:3.072; stroke-opacity:1"/>
<line clip-path="url(#clip322)" x1="1298.58" y1="988.932" x2="1298.58" y2="972.932" style="stroke:#009af9; stroke-width:3.072; stroke-opacity:1"/>
<line clip-path="url(#clip322)" x1="1298.58" y1="988.932" x2="1282.58" y2="988.932" style="stroke:#009af9; stroke-width:3.072; stroke-opacity:1"/>
<line clip-path="url(#clip322)" x1="1298.58" y1="988.932" x2="1298.58" y2="1004.93" style="stroke:#009af9; stroke-width:3.072; stroke-opacity:1"/>
<line clip-path="url(#clip322)" x1="1298.58" y1="988.932" x2="1314.58" y2="988.932" style="stroke:#009af9; stroke-width:3.072; stroke-opacity:1"/>
<line clip-path="url(#clip322)" x1="931.252" y1="807.757" x2="931.252" y2="791.757" style="stroke:#009af9; stroke-width:3.072; stroke-opacity:1"/>
<line clip-path="url(#clip322)" x1="931.252" y1="807.757" x2="915.252" y2="807.757" style="stroke:#009af9; stroke-width:3.072; stroke-opacity:1"/>
<line clip-path="url(#clip322)" x1="931.252" y1="807.757" x2="931.252" y2="823.757" style="stroke:#009af9; stroke-width:3.072; stroke-opacity:1"/>
<line clip-path="url(#clip322)" x1="931.252" y1="807.757" x2="947.252" y2="807.757" style="stroke:#009af9; stroke-width:3.072; stroke-opacity:1"/>
<line clip-path="url(#clip322)" x1="307.652" y1="648.19" x2="307.652" y2="632.19" style="stroke:#009af9; stroke-width:3.072; stroke-opacity:1"/>
<line clip-path="url(#clip322)" x1="307.652" y1="648.19" x2="291.652" y2="648.19" style="stroke:#009af9; stroke-width:3.072; stroke-opacity:1"/>
<line clip-path="url(#clip322)" x1="307.652" y1="648.19" x2="307.652" y2="664.19" style="stroke:#009af9; stroke-width:3.072; stroke-opacity:1"/>
<line clip-path="url(#clip322)" x1="307.652" y1="648.19" x2="323.652" y2="648.19" style="stroke:#009af9; stroke-width:3.072; stroke-opacity:1"/>
<polyline clip-path="url(#clip322)" style="stroke:#e26f46; stroke-linecap:butt; stroke-linejoin:round; stroke-width:12; stroke-opacity:1; fill:none" points="
  1939.5,426.238 2199.99,393.592 1906.1,475.422 1649.93,382.493 1298.58,370.411 931.252,246.007 307.652,84.0448 
  "/>
<circle clip-path="url(#clip322)" cx="1939.5" cy="426.238" r="14" fill="#e26f46" fill-rule="evenodd" fill-opacity="1" stroke="#000000" stroke-opacity="1" stroke-width="3.072"/>
<circle clip-path="url(#clip322)" cx="2199.99" cy="393.592" r="14" fill="#e26f46" fill-rule="evenodd" fill-opacity="1" stroke="#000000" stroke-opacity="1" stroke-width="3.072"/>
<circle clip-path="url(#clip322)" cx="1906.1" cy="475.422" r="14" fill="#e26f46" fill-rule="evenodd" fill-opacity="1" stroke="#000000" stroke-opacity="1" stroke-width="3.072"/>
<circle clip-path="url(#clip322)" cx="1649.93" cy="382.493" r="14" fill="#e26f46" fill-rule="evenodd" fill-opacity="1" stroke="#000000" stroke-opacity="1" stroke-width="3.072"/>
<circle clip-path="url(#clip322)" cx="1298.58" cy="370.411" r="14" fill="#e26f46" fill-rule="evenodd" fill-opacity="1" stroke="#000000" stroke-opacity="1" stroke-width="3.072"/>
<circle clip-path="url(#clip322)" cx="931.252" cy="246.007" r="14" fill="#e26f46" fill-rule="evenodd" fill-opacity="1" stroke="#000000" stroke-opacity="1" stroke-width="3.072"/>
<circle clip-path="url(#clip322)" cx="307.652" cy="84.0448" r="14" fill="#e26f46" fill-rule="evenodd" fill-opacity="1" stroke="#000000" stroke-opacity="1" stroke-width="3.072"/>
<polyline clip-path="url(#clip322)" style="stroke:#3da44d; stroke-linecap:butt; stroke-linejoin:round; stroke-width:12; stroke-opacity:1; fill:none" points="
  1939.5,1310.74 2199.99,1227.52 1906.1,1209.05 1649.93,1121.99 1298.58,1037.05 931.252,853.449 307.652,699.69 
  "/>
<line clip-path="url(#clip322)" x1="1939.5" y1="1310.74" x2="1939.5" y2="1294.74" style="stroke:#3da44d; stroke-width:3.072; stroke-opacity:1"/>
<line clip-path="url(#clip322)" x1="1939.5" y1="1310.74" x2="1923.5" y2="1310.74" style="stroke:#3da44d; stroke-width:3.072; stroke-opacity:1"/>
<line clip-path="url(#clip322)" x1="1939.5" y1="1310.74" x2="1939.5" y2="1326.74" style="stroke:#3da44d; stroke-width:3.072; stroke-opacity:1"/>
<line clip-path="url(#clip322)" x1="1939.5" y1="1310.74" x2="1955.5" y2="1310.74" style="stroke:#3da44d; stroke-width:3.072; stroke-opacity:1"/>
<line clip-path="url(#clip322)" x1="2199.99" y1="1227.52" x2="2199.99" y2="1211.52" style="stroke:#3da44d; stroke-width:3.072; stroke-opacity:1"/>
<line clip-path="url(#clip322)" x1="2199.99" y1="1227.52" x2="2183.99" y2="1227.52" style="stroke:#3da44d; stroke-width:3.072; stroke-opacity:1"/>
<line clip-path="url(#clip322)" x1="2199.99" y1="1227.52" x2="2199.99" y2="1243.52" style="stroke:#3da44d; stroke-width:3.072; stroke-opacity:1"/>
<line clip-path="url(#clip322)" x1="2199.99" y1="1227.52" x2="2215.99" y2="1227.52" style="stroke:#3da44d; stroke-width:3.072; stroke-opacity:1"/>
<line clip-path="url(#clip322)" x1="1906.1" y1="1209.05" x2="1906.1" y2="1193.05" style="stroke:#3da44d; stroke-width:3.072; stroke-opacity:1"/>
<line clip-path="url(#clip322)" x1="1906.1" y1="1209.05" x2="1890.1" y2="1209.05" style="stroke:#3da44d; stroke-width:3.072; stroke-opacity:1"/>
<line clip-path="url(#clip322)" x1="1906.1" y1="1209.05" x2="1906.1" y2="1225.05" style="stroke:#3da44d; stroke-width:3.072; stroke-opacity:1"/>
<line clip-path="url(#clip322)" x1="1906.1" y1="1209.05" x2="1922.1" y2="1209.05" style="stroke:#3da44d; stroke-width:3.072; stroke-opacity:1"/>
<line clip-path="url(#clip322)" x1="1649.93" y1="1121.99" x2="1649.93" y2="1105.99" style="stroke:#3da44d; stroke-width:3.072; stroke-opacity:1"/>
<line clip-path="url(#clip322)" x1="1649.93" y1="1121.99" x2="1633.93" y2="1121.99" style="stroke:#3da44d; stroke-width:3.072; stroke-opacity:1"/>
<line clip-path="url(#clip322)" x1="1649.93" y1="1121.99" x2="1649.93" y2="1137.99" style="stroke:#3da44d; stroke-width:3.072; stroke-opacity:1"/>
<line clip-path="url(#clip322)" x1="1649.93" y1="1121.99" x2="1665.93" y2="1121.99" style="stroke:#3da44d; stroke-width:3.072; stroke-opacity:1"/>
<line clip-path="url(#clip322)" x1="1298.58" y1="1037.05" x2="1298.58" y2="1021.05" style="stroke:#3da44d; stroke-width:3.072; stroke-opacity:1"/>
<line clip-path="url(#clip322)" x1="1298.58" y1="1037.05" x2="1282.58" y2="1037.05" style="stroke:#3da44d; stroke-width:3.072; stroke-opacity:1"/>
<line clip-path="url(#clip322)" x1="1298.58" y1="1037.05" x2="1298.58" y2="1053.05" style="stroke:#3da44d; stroke-width:3.072; stroke-opacity:1"/>
<line clip-path="url(#clip322)" x1="1298.58" y1="1037.05" x2="1314.58" y2="1037.05" style="stroke:#3da44d; stroke-width:3.072; stroke-opacity:1"/>
<line clip-path="url(#clip322)" x1="931.252" y1="853.449" x2="931.252" y2="837.449" style="stroke:#3da44d; stroke-width:3.072; stroke-opacity:1"/>
<line clip-path="url(#clip322)" x1="931.252" y1="853.449" x2="915.252" y2="853.449" style="stroke:#3da44d; stroke-width:3.072; stroke-opacity:1"/>
<line clip-path="url(#clip322)" x1="931.252" y1="853.449" x2="931.252" y2="869.449" style="stroke:#3da44d; stroke-width:3.072; stroke-opacity:1"/>
<line clip-path="url(#clip322)" x1="931.252" y1="853.449" x2="947.252" y2="853.449" style="stroke:#3da44d; stroke-width:3.072; stroke-opacity:1"/>
<line clip-path="url(#clip322)" x1="307.652" y1="699.69" x2="307.652" y2="683.69" style="stroke:#3da44d; stroke-width:3.072; stroke-opacity:1"/>
<line clip-path="url(#clip322)" x1="307.652" y1="699.69" x2="291.652" y2="699.69" style="stroke:#3da44d; stroke-width:3.072; stroke-opacity:1"/>
<line clip-path="url(#clip322)" x1="307.652" y1="699.69" x2="307.652" y2="715.69" style="stroke:#3da44d; stroke-width:3.072; stroke-opacity:1"/>
<line clip-path="url(#clip322)" x1="307.652" y1="699.69" x2="323.652" y2="699.69" style="stroke:#3da44d; stroke-width:3.072; stroke-opacity:1"/>
<path clip-path="url(#clip320)" d="
M1700.61 297.947 L2189.89 297.947 L2189.89 90.5872 L1700.61 90.5872  Z
  " fill="#ffffff" fill-rule="evenodd" fill-opacity="1"/>
<polyline clip-path="url(#clip320)" style="stroke:#000000; stroke-linecap:butt; stroke-linejoin:round; stroke-width:4; stroke-opacity:1; fill:none" points="
  1700.61,297.947 2189.89,297.947 2189.89,90.5872 1700.61,90.5872 1700.61,297.947 
  "/>
<polyline clip-path="url(#clip320)" style="stroke:#009af9; stroke-linecap:butt; stroke-linejoin:round; stroke-width:4; stroke-opacity:1; fill:none" points="
  1722.9,142.427 1856.62,142.427 
  "/>
<line clip-path="url(#clip320)" x1="1789.76" y1="142.427" x2="1789.76" y2="116.827" style="stroke:#009af9; stroke-width:4.9152; stroke-opacity:1"/>
<line clip-path="url(#clip320)" x1="1789.76" y1="142.427" x2="1764.16" y2="142.427" style="stroke:#009af9; stroke-width:4.9152; stroke-opacity:1"/>
<line clip-path="url(#clip320)" x1="1789.76" y1="142.427" x2="1789.76" y2="168.027" style="stroke:#009af9; stroke-width:4.9152; stroke-opacity:1"/>
<line clip-path="url(#clip320)" x1="1789.76" y1="142.427" x2="1815.36" y2="142.427" style="stroke:#009af9; stroke-width:4.9152; stroke-opacity:1"/>
<path clip-path="url(#clip320)" d="M1878.91 149.476 L1878.91 133.781 L1883.17 133.781 L1883.17 149.314 Q1883.17 152.994 1884.6 154.846 Q1886.04 156.675 1888.91 156.675 Q1892.36 156.675 1894.35 154.476 Q1896.36 152.277 1896.36 148.48 L1896.36 133.781 L1900.62 133.781 L1900.62 159.707 L1896.36 159.707 L1896.36 155.726 Q1894.81 158.087 1892.75 159.244 Q1890.71 160.378 1888.01 160.378 Q1883.54 160.378 1881.22 157.601 Q1878.91 154.823 1878.91 149.476 M1889.63 133.156 L1889.63 133.156 Z" fill="#000000" fill-rule="evenodd" fill-opacity="1" /><path clip-path="url(#clip320)" d="M1930.94 144.059 L1930.94 159.707 L1926.69 159.707 L1926.69 144.198 Q1926.69 140.517 1925.25 138.689 Q1923.82 136.86 1920.94 136.86 Q1917.5 136.86 1915.5 139.059 Q1913.51 141.258 1913.51 145.054 L1913.51 159.707 L1909.23 159.707 L1909.23 133.781 L1913.51 133.781 L1913.51 137.809 Q1915.04 135.471 1917.1 134.314 Q1919.19 133.156 1921.89 133.156 Q1926.36 133.156 1928.65 135.934 Q1930.94 138.689 1930.94 144.059 Z" fill="#000000" fill-rule="evenodd" fill-opacity="1" /><path clip-path="url(#clip320)" d="M1943.65 126.42 L1943.65 133.781 L1952.43 133.781 L1952.43 137.092 L1943.65 137.092 L1943.65 151.166 Q1943.65 154.337 1944.51 155.24 Q1945.39 156.142 1948.05 156.142 L1952.43 156.142 L1952.43 159.707 L1948.05 159.707 Q1943.12 159.707 1941.25 157.878 Q1939.37 156.027 1939.37 151.166 L1939.37 137.092 L1936.25 137.092 L1936.25 133.781 L1939.37 133.781 L1939.37 126.42 L1943.65 126.42 Z" fill="#000000" fill-rule="evenodd" fill-opacity="1" /><path clip-path="url(#clip320)" d="M1979.58 144.059 L1979.58 159.707 L1975.32 159.707 L1975.32 144.198 Q1975.32 140.517 1973.88 138.689 Q1972.45 136.86 1969.58 136.86 Q1966.13 136.86 1964.14 139.059 Q1962.15 141.258 1962.15 145.054 L1962.15 159.707 L1957.87 159.707 L1957.87 123.689 L1962.15 123.689 L1962.15 137.809 Q1963.68 135.471 1965.74 134.314 Q1967.82 133.156 1970.53 133.156 Q1975 133.156 1977.29 135.934 Q1979.58 138.689 1979.58 144.059 Z" fill="#000000" fill-rule="evenodd" fill-opacity="1" /><path clip-path="url(#clip320)" d="M2003.1 137.763 Q2002.38 137.346 2001.52 137.161 Q2000.69 136.953 1999.67 136.953 Q1996.06 136.953 1994.12 139.314 Q1992.19 141.652 1992.19 146.05 L1992.19 159.707 L1987.91 159.707 L1987.91 133.781 L1992.19 133.781 L1992.19 137.809 Q1993.54 135.448 1995.69 134.314 Q1997.84 133.156 2000.92 133.156 Q2001.36 133.156 2001.89 133.226 Q2002.43 133.272 2003.07 133.388 L2003.1 137.763 Z" fill="#000000" fill-rule="evenodd" fill-opacity="1" /><path clip-path="url(#clip320)" d="M2028.7 145.679 L2028.7 147.763 L2009.12 147.763 Q2009.39 152.161 2011.75 154.476 Q2014.14 156.767 2018.37 156.767 Q2020.83 156.767 2023.12 156.166 Q2025.43 155.564 2027.7 154.36 L2027.7 158.388 Q2025.41 159.36 2023 159.869 Q2020.6 160.378 2018.12 160.378 Q2011.92 160.378 2008.28 156.767 Q2004.67 153.156 2004.67 146.999 Q2004.67 140.633 2008.1 136.906 Q2011.55 133.156 2017.38 133.156 Q2022.61 133.156 2025.64 136.536 Q2028.7 139.892 2028.7 145.679 M2024.44 144.429 Q2024.39 140.934 2022.47 138.851 Q2020.57 136.767 2017.43 136.767 Q2013.86 136.767 2011.71 138.781 Q2009.58 140.795 2009.25 144.453 L2024.44 144.429 Z" fill="#000000" fill-rule="evenodd" fill-opacity="1" /><path clip-path="url(#clip320)" d="M2047.47 146.675 Q2042.31 146.675 2040.32 147.855 Q2038.33 149.036 2038.33 151.883 Q2038.33 154.152 2039.81 155.494 Q2041.31 156.814 2043.88 156.814 Q2047.43 156.814 2049.56 154.314 Q2051.71 151.791 2051.71 147.624 L2051.71 146.675 L2047.47 146.675 M2055.97 144.916 L2055.97 159.707 L2051.71 159.707 L2051.71 155.772 Q2050.25 158.133 2048.07 159.267 Q2045.9 160.378 2042.75 160.378 Q2038.77 160.378 2036.41 158.156 Q2034.07 155.911 2034.07 152.161 Q2034.07 147.786 2036.99 145.564 Q2039.93 143.342 2045.74 143.342 L2051.71 143.342 L2051.71 142.925 Q2051.71 139.985 2049.76 138.388 Q2047.84 136.767 2044.35 136.767 Q2042.12 136.767 2040.02 137.3 Q2037.91 137.832 2035.97 138.897 L2035.97 134.962 Q2038.31 134.059 2040.5 133.619 Q2042.7 133.156 2044.79 133.156 Q2050.41 133.156 2053.19 136.073 Q2055.97 138.99 2055.97 144.916 Z" fill="#000000" fill-rule="evenodd" fill-opacity="1" /><path clip-path="url(#clip320)" d="M2081.8 137.717 L2081.8 123.689 L2086.06 123.689 L2086.06 159.707 L2081.8 159.707 L2081.8 155.818 Q2080.46 158.133 2078.4 159.267 Q2076.36 160.378 2073.49 160.378 Q2068.79 160.378 2065.83 156.628 Q2062.89 152.879 2062.89 146.767 Q2062.89 140.656 2065.83 136.906 Q2068.79 133.156 2073.49 133.156 Q2076.36 133.156 2078.4 134.291 Q2080.46 135.402 2081.8 137.717 M2067.29 146.767 Q2067.29 151.466 2069.21 154.152 Q2071.15 156.814 2074.53 156.814 Q2077.91 156.814 2079.86 154.152 Q2081.8 151.466 2081.8 146.767 Q2081.8 142.068 2079.86 139.406 Q2077.91 136.721 2074.53 136.721 Q2071.15 136.721 2069.21 139.406 Q2067.29 142.068 2067.29 146.767 Z" fill="#000000" fill-rule="evenodd" fill-opacity="1" /><path clip-path="url(#clip320)" d="M2117.01 145.679 L2117.01 147.763 L2097.43 147.763 Q2097.7 152.161 2100.06 154.476 Q2102.45 156.767 2106.68 156.767 Q2109.14 156.767 2111.43 156.166 Q2113.74 155.564 2116.01 154.36 L2116.01 158.388 Q2113.72 159.36 2111.31 159.869 Q2108.91 160.378 2106.43 160.378 Q2100.23 160.378 2096.59 156.767 Q2092.98 153.156 2092.98 146.999 Q2092.98 140.633 2096.41 136.906 Q2099.86 133.156 2105.69 133.156 Q2110.92 133.156 2113.95 136.536 Q2117.01 139.892 2117.01 145.679 M2112.75 144.429 Q2112.7 140.934 2110.78 138.851 Q2108.88 136.767 2105.74 136.767 Q2102.17 136.767 2100.02 138.781 Q2097.89 140.795 2097.56 144.453 L2112.75 144.429 Z" fill="#000000" fill-rule="evenodd" fill-opacity="1" /><path clip-path="url(#clip320)" d="M2141.06 137.717 L2141.06 123.689 L2145.32 123.689 L2145.32 159.707 L2141.06 159.707 L2141.06 155.818 Q2139.72 158.133 2137.66 159.267 Q2135.62 160.378 2132.75 160.378 Q2128.05 160.378 2125.09 156.628 Q2122.15 152.879 2122.15 146.767 Q2122.15 140.656 2125.09 136.906 Q2128.05 133.156 2132.75 133.156 Q2135.62 133.156 2137.66 134.291 Q2139.72 135.402 2141.06 137.717 M2126.55 146.767 Q2126.55 151.466 2128.47 154.152 Q2130.41 156.814 2133.79 156.814 Q2137.17 156.814 2139.11 154.152 Q2141.06 151.466 2141.06 146.767 Q2141.06 142.068 2139.11 139.406 Q2137.17 136.721 2133.79 136.721 Q2130.41 136.721 2128.47 139.406 Q2126.55 142.068 2126.55 146.767 Z" fill="#000000" fill-rule="evenodd" fill-opacity="1" /><polyline clip-path="url(#clip320)" style="stroke:#e26f46; stroke-linecap:butt; stroke-linejoin:round; stroke-width:4; stroke-opacity:1; fill:none" points="
  1722.9,194.267 1856.62,194.267 
  "/>
<circle clip-path="url(#clip320)" cx="1789.76" cy="194.267" r="23" fill="#e26f46" fill-rule="evenodd" fill-opacity="1" stroke="#000000" stroke-opacity="1" stroke-width="4.9152"/>
<path clip-path="url(#clip320)" d="M1886.32 178.26 L1886.32 185.621 L1895.09 185.621 L1895.09 188.932 L1886.32 188.932 L1886.32 203.006 Q1886.32 206.177 1887.17 207.08 Q1888.05 207.982 1890.71 207.982 L1895.09 207.982 L1895.09 211.547 L1890.71 211.547 Q1885.78 211.547 1883.91 209.718 Q1882.03 207.867 1882.03 203.006 L1882.03 188.932 L1878.91 188.932 L1878.91 185.621 L1882.03 185.621 L1882.03 178.26 L1886.32 178.26 Z" fill="#000000" fill-rule="evenodd" fill-opacity="1" /><path clip-path="url(#clip320)" d="M1922.24 195.899 L1922.24 211.547 L1917.98 211.547 L1917.98 196.038 Q1917.98 192.357 1916.55 190.529 Q1915.11 188.7 1912.24 188.7 Q1908.79 188.7 1906.8 190.899 Q1904.81 193.098 1904.81 196.894 L1904.81 211.547 L1900.53 211.547 L1900.53 175.529 L1904.81 175.529 L1904.81 189.649 Q1906.34 187.311 1908.4 186.154 Q1910.48 184.996 1913.19 184.996 Q1917.66 184.996 1919.95 187.774 Q1922.24 190.529 1922.24 195.899 Z" fill="#000000" fill-rule="evenodd" fill-opacity="1" /><path clip-path="url(#clip320)" d="M1945.76 189.603 Q1945.04 189.186 1944.19 189.001 Q1943.35 188.793 1942.33 188.793 Q1938.72 188.793 1936.78 191.154 Q1934.86 193.492 1934.86 197.89 L1934.86 211.547 L1930.57 211.547 L1930.57 185.621 L1934.86 185.621 L1934.86 189.649 Q1936.2 187.288 1938.35 186.154 Q1940.5 184.996 1943.58 184.996 Q1944.02 184.996 1944.56 185.066 Q1945.09 185.112 1945.74 185.228 L1945.76 189.603 Z" fill="#000000" fill-rule="evenodd" fill-opacity="1" /><path clip-path="url(#clip320)" d="M1971.36 197.519 L1971.36 199.603 L1951.78 199.603 Q1952.06 204.001 1954.42 206.316 Q1956.8 208.607 1961.04 208.607 Q1963.49 208.607 1965.78 208.006 Q1968.1 207.404 1970.37 206.2 L1970.37 210.228 Q1968.07 211.2 1965.67 211.709 Q1963.26 212.218 1960.78 212.218 Q1954.58 212.218 1950.94 208.607 Q1947.33 204.996 1947.33 198.839 Q1947.33 192.473 1950.76 188.746 Q1954.21 184.996 1960.04 184.996 Q1965.27 184.996 1968.31 188.376 Q1971.36 191.732 1971.36 197.519 M1967.1 196.269 Q1967.06 192.774 1965.13 190.691 Q1963.24 188.607 1960.09 188.607 Q1956.52 188.607 1954.37 190.621 Q1952.24 192.635 1951.92 196.293 L1967.1 196.269 Z" fill="#000000" fill-rule="evenodd" fill-opacity="1" /><path clip-path="url(#clip320)" d="M1990.13 198.515 Q1984.97 198.515 1982.98 199.695 Q1980.99 200.876 1980.99 203.723 Q1980.99 205.992 1982.47 207.334 Q1983.98 208.654 1986.55 208.654 Q1990.09 208.654 1992.22 206.154 Q1994.37 203.631 1994.37 199.464 L1994.37 198.515 L1990.13 198.515 M1998.63 196.756 L1998.63 211.547 L1994.37 211.547 L1994.37 207.612 Q1992.91 209.973 1990.74 211.107 Q1988.56 212.218 1985.41 212.218 Q1981.43 212.218 1979.07 209.996 Q1976.73 207.751 1976.73 204.001 Q1976.73 199.626 1979.65 197.404 Q1982.59 195.182 1988.4 195.182 L1994.37 195.182 L1994.37 194.765 Q1994.37 191.825 1992.43 190.228 Q1990.5 188.607 1987.01 188.607 Q1984.79 188.607 1982.68 189.14 Q1980.57 189.672 1978.63 190.737 L1978.63 186.802 Q1980.97 185.899 1983.17 185.459 Q1985.37 184.996 1987.45 184.996 Q1993.07 184.996 1995.85 187.913 Q1998.63 190.83 1998.63 196.756 Z" fill="#000000" fill-rule="evenodd" fill-opacity="1" /><path clip-path="url(#clip320)" d="M2024.46 189.557 L2024.46 175.529 L2028.72 175.529 L2028.72 211.547 L2024.46 211.547 L2024.46 207.658 Q2023.12 209.973 2021.06 211.107 Q2019.02 212.218 2016.15 212.218 Q2011.45 212.218 2008.49 208.468 Q2005.55 204.719 2005.55 198.607 Q2005.55 192.496 2008.49 188.746 Q2011.45 184.996 2016.15 184.996 Q2019.02 184.996 2021.06 186.131 Q2023.12 187.242 2024.46 189.557 M2009.95 198.607 Q2009.95 203.306 2011.87 205.992 Q2013.81 208.654 2017.19 208.654 Q2020.57 208.654 2022.52 205.992 Q2024.46 203.306 2024.46 198.607 Q2024.46 193.908 2022.52 191.246 Q2020.57 188.561 2017.19 188.561 Q2013.81 188.561 2011.87 191.246 Q2009.95 193.908 2009.95 198.607 Z" fill="#000000" fill-rule="evenodd" fill-opacity="1" /><path clip-path="url(#clip320)" d="M2059.67 197.519 L2059.67 199.603 L2040.09 199.603 Q2040.37 204.001 2042.73 206.316 Q2045.11 208.607 2049.35 208.607 Q2051.8 208.607 2054.09 208.006 Q2056.41 207.404 2058.68 206.2 L2058.68 210.228 Q2056.38 211.2 2053.98 211.709 Q2051.57 212.218 2049.09 212.218 Q2042.89 212.218 2039.25 208.607 Q2035.64 204.996 2035.64 198.839 Q2035.64 192.473 2039.07 188.746 Q2042.52 184.996 2048.35 184.996 Q2053.58 184.996 2056.62 188.376 Q2059.67 191.732 2059.67 197.519 M2055.41 196.269 Q2055.37 192.774 2053.44 190.691 Q2051.55 188.607 2048.4 188.607 Q2044.83 188.607 2042.68 190.621 Q2040.55 192.635 2040.23 196.293 L2055.41 196.269 Z" fill="#000000" fill-rule="evenodd" fill-opacity="1" /><path clip-path="url(#clip320)" d="M2083.72 189.557 L2083.72 175.529 L2087.98 175.529 L2087.98 211.547 L2083.72 211.547 L2083.72 207.658 Q2082.38 209.973 2080.32 211.107 Q2078.28 212.218 2075.41 212.218 Q2070.71 212.218 2067.75 208.468 Q2064.81 204.719 2064.81 198.607 Q2064.81 192.496 2067.75 188.746 Q2070.71 184.996 2075.41 184.996 Q2078.28 184.996 2080.32 186.131 Q2082.38 187.242 2083.72 189.557 M2069.21 198.607 Q2069.21 203.306 2071.13 205.992 Q2073.07 208.654 2076.45 208.654 Q2079.83 208.654 2081.78 205.992 Q2083.72 203.306 2083.72 198.607 Q2083.72 193.908 2081.78 191.246 Q2079.83 188.561 2076.45 188.561 Q2073.07 188.561 2071.13 191.246 Q2069.21 193.908 2069.21 198.607 Z" fill="#000000" fill-rule="evenodd" fill-opacity="1" /><polyline clip-path="url(#clip320)" style="stroke:#3da44d; stroke-linecap:butt; stroke-linejoin:round; stroke-width:4; stroke-opacity:1; fill:none" points="
  1722.9,246.107 1856.62,246.107 
  "/>
<line clip-path="url(#clip320)" x1="1789.76" y1="246.107" x2="1789.76" y2="220.507" style="stroke:#3da44d; stroke-width:4.9152; stroke-opacity:1"/>
<line clip-path="url(#clip320)" x1="1789.76" y1="246.107" x2="1764.16" y2="246.107" style="stroke:#3da44d; stroke-width:4.9152; stroke-opacity:1"/>
<line clip-path="url(#clip320)" x1="1789.76" y1="246.107" x2="1789.76" y2="271.707" style="stroke:#3da44d; stroke-width:4.9152; stroke-opacity:1"/>
<line clip-path="url(#clip320)" x1="1789.76" y1="246.107" x2="1815.36" y2="246.107" style="stroke:#3da44d; stroke-width:4.9152; stroke-opacity:1"/>
<path clip-path="url(#clip320)" d="M1883.58 232.67 L1883.58 245.656 L1889.46 245.656 Q1892.73 245.656 1894.51 243.966 Q1896.29 242.276 1896.29 239.151 Q1896.29 236.049 1894.51 234.36 Q1892.73 232.67 1889.46 232.67 L1883.58 232.67 M1878.91 228.827 L1889.46 228.827 Q1895.27 228.827 1898.24 231.466 Q1901.22 234.082 1901.22 239.151 Q1901.22 244.267 1898.24 246.883 Q1895.27 249.498 1889.46 249.498 L1883.58 249.498 L1883.58 263.387 L1878.91 263.387 L1878.91 228.827 Z" fill="#000000" fill-rule="evenodd" fill-opacity="1" /><path clip-path="url(#clip320)" d="M1915.67 240.447 Q1912.24 240.447 1910.25 243.133 Q1908.26 245.795 1908.26 250.447 Q1908.26 255.1 1910.23 257.785 Q1912.22 260.447 1915.67 260.447 Q1919.07 260.447 1921.06 257.762 Q1923.05 255.077 1923.05 250.447 Q1923.05 245.841 1921.06 243.156 Q1919.07 240.447 1915.67 240.447 M1915.67 236.836 Q1921.22 236.836 1924.39 240.447 Q1927.57 244.059 1927.57 250.447 Q1927.57 256.813 1924.39 260.447 Q1921.22 264.058 1915.67 264.058 Q1910.09 264.058 1906.92 260.447 Q1903.77 256.813 1903.77 250.447 Q1903.77 244.059 1906.92 240.447 Q1910.09 236.836 1915.67 236.836 Z" fill="#000000" fill-rule="evenodd" fill-opacity="1" /><path clip-path="url(#clip320)" d="M1934.63 227.369 L1938.88 227.369 L1938.88 263.387 L1934.63 263.387 L1934.63 227.369 Z" fill="#000000" fill-rule="evenodd" fill-opacity="1" /><path clip-path="url(#clip320)" d="M1958.58 265.795 Q1956.78 270.424 1955.06 271.836 Q1953.35 273.248 1950.48 273.248 L1947.08 273.248 L1947.08 269.683 L1949.58 269.683 Q1951.34 269.683 1952.31 268.85 Q1953.28 268.017 1954.46 264.915 L1955.23 262.971 L1944.74 237.461 L1949.25 237.461 L1957.36 257.739 L1965.46 237.461 L1969.97 237.461 L1958.58 265.795 Z" fill="#000000" fill-rule="evenodd" fill-opacity="1" /><path clip-path="url(#clip320)" d="M1998.03 249.359 L1998.03 251.443 L1978.44 251.443 Q1978.72 255.841 1981.08 258.156 Q1983.47 260.447 1987.7 260.447 Q1990.16 260.447 1992.45 259.846 Q1994.76 259.244 1997.03 258.04 L1997.03 262.068 Q1994.74 263.04 1992.33 263.549 Q1989.93 264.058 1987.45 264.058 Q1981.25 264.058 1977.61 260.447 Q1974 256.836 1974 250.679 Q1974 244.313 1977.43 240.586 Q1980.87 236.836 1986.71 236.836 Q1991.94 236.836 1994.97 240.216 Q1998.03 243.572 1998.03 249.359 M1993.77 248.109 Q1993.72 244.614 1991.8 242.531 Q1989.9 240.447 1986.75 240.447 Q1983.19 240.447 1981.04 242.461 Q1978.91 244.475 1978.58 248.133 L1993.77 248.109 Z" fill="#000000" fill-rule="evenodd" fill-opacity="1" /><path clip-path="url(#clip320)" d="M2021.55 238.225 L2021.55 242.253 Q2019.74 241.327 2017.8 240.864 Q2015.85 240.401 2013.77 240.401 Q2010.6 240.401 2009 241.373 Q2007.43 242.346 2007.43 244.29 Q2007.43 245.772 2008.56 246.628 Q2009.69 247.461 2013.12 248.225 L2014.58 248.549 Q2019.12 249.522 2021.01 251.304 Q2022.93 253.063 2022.93 256.234 Q2022.93 259.846 2020.06 261.952 Q2017.22 264.058 2012.22 264.058 Q2010.13 264.058 2007.87 263.642 Q2005.62 263.248 2003.12 262.438 L2003.12 258.04 Q2005.48 259.267 2007.77 259.892 Q2010.06 260.494 2012.31 260.494 Q2015.32 260.494 2016.94 259.475 Q2018.56 258.434 2018.56 256.559 Q2018.56 254.822 2017.38 253.896 Q2016.22 252.971 2012.26 252.114 L2010.78 251.767 Q2006.82 250.934 2005.06 249.221 Q2003.31 247.484 2003.31 244.475 Q2003.31 240.818 2005.9 238.827 Q2008.49 236.836 2013.26 236.836 Q2015.62 236.836 2017.7 237.184 Q2019.79 237.531 2021.55 238.225 Z" fill="#000000" fill-rule="evenodd" fill-opacity="1" /><path clip-path="url(#clip320)" d="M2033.93 230.1 L2033.93 237.461 L2042.7 237.461 L2042.7 240.772 L2033.93 240.772 L2033.93 254.846 Q2033.93 258.017 2034.79 258.92 Q2035.67 259.822 2038.33 259.822 L2042.7 259.822 L2042.7 263.387 L2038.33 263.387 Q2033.4 263.387 2031.52 261.558 Q2029.65 259.707 2029.65 254.846 L2029.65 240.772 L2026.52 240.772 L2026.52 237.461 L2029.65 237.461 L2029.65 230.1 L2033.93 230.1 Z" fill="#000000" fill-rule="evenodd" fill-opacity="1" /><path clip-path="url(#clip320)" d="M2070.48 249.359 L2070.48 251.443 L2050.9 251.443 Q2051.18 255.841 2053.54 258.156 Q2055.92 260.447 2060.16 260.447 Q2062.61 260.447 2064.9 259.846 Q2067.22 259.244 2069.49 258.04 L2069.49 262.068 Q2067.19 263.04 2064.79 263.549 Q2062.38 264.058 2059.9 264.058 Q2053.7 264.058 2050.06 260.447 Q2046.45 256.836 2046.45 250.679 Q2046.45 244.313 2049.88 240.586 Q2053.33 236.836 2059.16 236.836 Q2064.39 236.836 2067.43 240.216 Q2070.48 243.572 2070.48 249.359 M2066.22 248.109 Q2066.18 244.614 2064.25 242.531 Q2062.36 240.447 2059.21 240.447 Q2055.64 240.447 2053.49 242.461 Q2051.36 244.475 2051.04 248.133 L2066.22 248.109 Z" fill="#000000" fill-rule="evenodd" fill-opacity="1" /><path clip-path="url(#clip320)" d="M2092.49 241.443 Q2091.78 241.026 2090.92 240.841 Q2090.09 240.633 2089.07 240.633 Q2085.46 240.633 2083.51 242.994 Q2081.59 245.332 2081.59 249.73 L2081.59 263.387 L2077.31 263.387 L2077.31 237.461 L2081.59 237.461 L2081.59 241.489 Q2082.93 239.128 2085.09 237.994 Q2087.24 236.836 2090.32 236.836 Q2090.76 236.836 2091.29 236.906 Q2091.82 236.952 2092.47 237.068 L2092.49 241.443 Z" fill="#000000" fill-rule="evenodd" fill-opacity="1" /></svg>
