<?xml version="1.0" encoding="utf-8"?>
<svg xmlns="http://www.w3.org/2000/svg" xmlns:xlink="http://www.w3.org/1999/xlink" width="576" height="384" viewBox="0 0 2304 1536">
<defs>
  <clipPath id="clip720">
    <rect x="0" y="0" width="2304" height="1536"/>
  </clipPath>
</defs>
<path clip-path="url(#clip720)" d="
M0 1536 L2304 1536 L2304 0 L0 0  Z
  " fill="#ffffff" fill-rule="evenodd" fill-opacity="1"/>
<defs>
  <clipPath id="clip721">
    <rect x="460" y="0" width="1614" height="1536"/>
  </clipPath>
</defs>
<path clip-path="url(#clip720)" d="
M251.804 1347.54 L2256.76 1347.54 L2256.76 47.2441 L251.804 47.2441  Z
  " fill="#ffffff" fill-rule="evenodd" fill-opacity="1"/>
<defs>
  <clipPath id="clip722">
    <rect x="251" y="47" width="2006" height="1301"/>
  </clipPath>
</defs>
<polyline clip-path="url(#clip722)" style="stroke:#000000; stroke-linecap:butt; stroke-linejoin:round; stroke-width:2; stroke-opacity:0.1; fill:none" points="
  842.612,1347.54 842.612,47.2441 
  "/>
<polyline clip-path="url(#clip722)" style="stroke:#000000; stroke-linecap:butt; stroke-linejoin:round; stroke-width:2; stroke-opacity:0.1; fill:none" points="
  1636.74,1347.54 1636.74,47.2441 
  "/>
<polyline clip-path="url(#clip720)" style="stroke:#000000; stroke-linecap:butt; stroke-linejoin:round; stroke-width:4; stroke-opacity:1; fill:none" points="
  251.804,1347.54 2256.76,1347.54 
  "/>
<polyline clip-path="url(#clip720)" style="stroke:#000000; stroke-linecap:butt; stroke-linejoin:round; stroke-width:4; stroke-opacity:1; fill:none" points="
  842.612,1347.54 842.612,1328.64 
  "/>
<polyline clip-path="url(#clip720)" style="stroke:#000000; stroke-linecap:butt; stroke-linejoin:round; stroke-width:4; stroke-opacity:1; fill:none" points="
  1636.74,1347.54 1636.74,1328.64 
  "/>
<path clip-path="url(#clip720)" d="M792.163 1420.89 L799.802 1420.89 L799.802 1394.53 L791.492 1396.19 L791.492 1391.94 L799.755 1390.27 L804.431 1390.27 L804.431 1420.89 L812.07 1420.89 L812.07 1424.83 L792.163 1424.83 L792.163 1420.89 Z" fill="#000000" fill-rule="evenodd" fill-opacity="1" /><path clip-path="url(#clip720)" d="M831.515 1393.35 Q827.903 1393.35 826.075 1396.91 Q824.269 1400.45 824.269 1407.58 Q824.269 1414.69 826.075 1418.25 Q827.903 1421.8 831.515 1421.8 Q835.149 1421.8 836.954 1418.25 Q838.783 1414.69 838.783 1407.58 Q838.783 1400.45 836.954 1396.91 Q835.149 1393.35 831.515 1393.35 M831.515 1389.64 Q837.325 1389.64 840.38 1394.25 Q843.459 1398.83 843.459 1407.58 Q843.459 1416.31 840.38 1420.92 Q837.325 1425.5 831.515 1425.5 Q825.704 1425.5 822.626 1420.92 Q819.57 1416.31 819.57 1407.58 Q819.57 1398.83 822.626 1394.25 Q825.704 1389.64 831.515 1389.64 Z" fill="#000000" fill-rule="evenodd" fill-opacity="1" /><path clip-path="url(#clip720)" d="M843.459 1383.74 L867.571 1383.74 L867.571 1386.94 L843.459 1386.94 L843.459 1383.74 Z" fill="#000000" fill-rule="evenodd" fill-opacity="1" /><path clip-path="url(#clip720)" d="M884.366 1381.86 Q881.808 1381.86 880.303 1383.61 Q878.818 1385.36 878.818 1388.41 Q878.818 1391.44 880.303 1393.21 Q881.808 1394.95 884.366 1394.95 Q886.924 1394.95 888.41 1393.21 Q889.914 1391.44 889.914 1388.41 Q889.914 1385.36 888.41 1383.61 Q886.924 1381.86 884.366 1381.86 M891.908 1369.96 L891.908 1373.42 Q890.478 1372.74 889.011 1372.39 Q887.563 1372.03 886.134 1372.03 Q882.372 1372.03 880.379 1374.57 Q878.404 1377.11 878.122 1382.24 Q879.231 1380.6 880.905 1379.74 Q882.579 1378.85 884.592 1378.85 Q888.823 1378.85 891.268 1381.43 Q893.732 1383.99 893.732 1388.41 Q893.732 1392.74 891.174 1395.35 Q888.616 1397.96 884.366 1397.96 Q879.495 1397.96 876.918 1394.24 Q874.341 1390.5 874.341 1383.41 Q874.341 1376.75 877.501 1372.8 Q880.661 1368.83 885.983 1368.83 Q887.413 1368.83 888.861 1369.11 Q890.328 1369.39 891.908 1369.96 Z" fill="#000000" fill-rule="evenodd" fill-opacity="1" /><path clip-path="url(#clip720)" d="M1586.16 1420.89 L1593.8 1420.89 L1593.8 1394.53 L1585.49 1396.19 L1585.49 1391.94 L1593.75 1390.27 L1598.43 1390.27 L1598.43 1420.89 L1606.07 1420.89 L1606.07 1424.83 L1586.16 1424.83 L1586.16 1420.89 Z" fill="#000000" fill-rule="evenodd" fill-opacity="1" /><path clip-path="url(#clip720)" d="M1625.51 1393.35 Q1621.9 1393.35 1620.07 1396.91 Q1618.27 1400.45 1618.27 1407.58 Q1618.27 1414.69 1620.07 1418.25 Q1621.9 1421.8 1625.51 1421.8 Q1629.14 1421.8 1630.95 1418.25 Q1632.78 1414.69 1632.78 1407.58 Q1632.78 1400.45 1630.95 1396.91 Q1629.14 1393.35 1625.51 1393.35 M1625.51 1389.64 Q1631.32 1389.64 1634.38 1394.25 Q1637.45 1398.83 1637.45 1407.58 Q1637.45 1416.31 1634.38 1420.92 Q1631.32 1425.5 1625.51 1425.5 Q1619.7 1425.5 1616.62 1420.92 Q1613.57 1416.31 1613.57 1407.58 Q1613.57 1398.83 1616.62 1394.25 Q1619.7 1389.64 1625.51 1389.64 Z" fill="#000000" fill-rule="evenodd" fill-opacity="1" /><path clip-path="url(#clip720)" d="M1637.45 1383.74 L1661.57 1383.74 L1661.57 1386.94 L1637.45 1386.94 L1637.45 1383.74 Z" fill="#000000" fill-rule="evenodd" fill-opacity="1" /><path clip-path="url(#clip720)" d="M1680.2 1372.65 L1670.61 1387.64 L1680.2 1387.64 L1680.2 1372.65 M1679.21 1369.34 L1683.99 1369.34 L1683.99 1387.64 L1687.99 1387.64 L1687.99 1390.8 L1683.99 1390.8 L1683.99 1397.42 L1680.2 1397.42 L1680.2 1390.8 L1667.53 1390.8 L1667.53 1387.13 L1679.21 1369.34 Z" fill="#000000" fill-rule="evenodd" fill-opacity="1" /><path clip-path="url(#clip720)" d="M1178.03 1461.87 L1208.08 1461.87 L1208.08 1467.28 L1184.46 1467.28 L1184.46 1481.34 L1207.09 1481.34 L1207.09 1486.76 L1184.46 1486.76 L1184.46 1503.97 L1208.65 1503.97 L1208.65 1509.39 L1178.03 1509.39 L1178.03 1461.87 Z" fill="#000000" fill-rule="evenodd" fill-opacity="1" /><path clip-path="url(#clip720)" d="M1239.62 1479.21 Q1238.64 1478.64 1237.46 1478.38 Q1236.31 1478.1 1234.91 1478.1 Q1229.95 1478.1 1227.27 1481.34 Q1224.63 1484.56 1224.63 1490.61 L1224.63 1509.39 L1218.74 1509.39 L1218.74 1473.74 L1224.63 1473.74 L1224.63 1479.28 Q1226.48 1476.03 1229.44 1474.47 Q1232.4 1472.88 1236.63 1472.88 Q1237.24 1472.88 1237.97 1472.97 Q1238.7 1473.04 1239.59 1473.2 L1239.62 1479.21 Z" fill="#000000" fill-rule="evenodd" fill-opacity="1" /><path clip-path="url(#clip720)" d="M1265.28 1479.21 Q1264.29 1478.64 1263.11 1478.38 Q1261.97 1478.1 1260.57 1478.1 Q1255.6 1478.1 1252.93 1481.34 Q1250.29 1484.56 1250.29 1490.61 L1250.29 1509.39 L1244.4 1509.39 L1244.4 1473.74 L1250.29 1473.74 L1250.29 1479.28 Q1252.13 1476.03 1255.09 1474.47 Q1258.05 1472.88 1262.28 1472.88 Q1262.89 1472.88 1263.62 1472.97 Q1264.35 1473.04 1265.24 1473.2 L1265.28 1479.21 Z" fill="#000000" fill-rule="evenodd" fill-opacity="1" /><path clip-path="url(#clip720)" d="M1283.8 1477.84 Q1279.09 1477.84 1276.35 1481.54 Q1273.62 1485.2 1273.62 1491.59 Q1273.62 1497.99 1276.32 1501.68 Q1279.06 1505.34 1283.8 1505.34 Q1288.48 1505.34 1291.22 1501.65 Q1293.95 1497.96 1293.95 1491.59 Q1293.95 1485.26 1291.22 1481.57 Q1288.48 1477.84 1283.8 1477.84 M1283.8 1472.88 Q1291.44 1472.88 1295.8 1477.84 Q1300.16 1482.81 1300.16 1491.59 Q1300.16 1500.35 1295.8 1505.34 Q1291.44 1510.31 1283.8 1510.31 Q1276.13 1510.31 1271.77 1505.34 Q1267.44 1500.35 1267.44 1491.59 Q1267.44 1482.81 1271.77 1477.84 Q1276.13 1472.88 1283.8 1472.88 Z" fill="#000000" fill-rule="evenodd" fill-opacity="1" /><path clip-path="url(#clip720)" d="M1330.53 1479.21 Q1329.54 1478.64 1328.36 1478.38 Q1327.22 1478.1 1325.81 1478.1 Q1320.85 1478.1 1318.18 1481.34 Q1315.53 1484.56 1315.53 1490.61 L1315.53 1509.39 L1309.65 1509.39 L1309.65 1473.74 L1315.53 1473.74 L1315.53 1479.28 Q1317.38 1476.03 1320.34 1474.47 Q1323.3 1472.88 1327.53 1472.88 Q1328.14 1472.88 1328.87 1472.97 Q1329.6 1473.04 1330.49 1473.2 L1330.53 1479.21 Z" fill="#000000" fill-rule="evenodd" fill-opacity="1" /><polyline clip-path="url(#clip722)" style="stroke:#000000; stroke-linecap:butt; stroke-linejoin:round; stroke-width:2; stroke-opacity:0.1; fill:none" points="
  251.804,1210.46 2256.76,1210.46 
  "/>
<polyline clip-path="url(#clip722)" style="stroke:#000000; stroke-linecap:butt; stroke-linejoin:round; stroke-width:2; stroke-opacity:0.1; fill:none" points="
  251.804,703.253 2256.76,703.253 
  "/>
<polyline clip-path="url(#clip722)" style="stroke:#000000; stroke-linecap:butt; stroke-linejoin:round; stroke-width:2; stroke-opacity:0.1; fill:none" points="
  251.804,196.05 2256.76,196.05 
  "/>
<polyline clip-path="url(#clip720)" style="stroke:#000000; stroke-linecap:butt; stroke-linejoin:round; stroke-width:4; stroke-opacity:1; fill:none" points="
  251.804,1347.54 251.804,47.2441 
  "/>
<polyline clip-path="url(#clip720)" style="stroke:#000000; stroke-linecap:butt; stroke-linejoin:round; stroke-width:4; stroke-opacity:1; fill:none" points="
  251.804,1210.46 270.702,1210.46 
  "/>
<polyline clip-path="url(#clip720)" style="stroke:#000000; stroke-linecap:butt; stroke-linejoin:round; stroke-width:4; stroke-opacity:1; fill:none" points="
  251.804,703.253 270.702,703.253 
  "/>
<polyline clip-path="url(#clip720)" style="stroke:#000000; stroke-linecap:butt; stroke-linejoin:round; stroke-width:4; stroke-opacity:1; fill:none" points="
  251.804,196.05 270.702,196.05 
  "/>
<path clip-path="url(#clip720)" d="M115.411 1230.25 L123.05 1230.25 L123.05 1203.88 L114.74 1205.55 L114.74 1201.29 L123.004 1199.62 L127.68 1199.62 L127.68 1230.25 L135.319 1230.25 L135.319 1234.18 L115.411 1234.18 L115.411 1230.25 Z" fill="#000000" fill-rule="evenodd" fill-opacity="1" /><path clip-path="url(#clip720)" d="M154.763 1202.7 Q151.152 1202.7 149.323 1206.27 Q147.518 1209.81 147.518 1216.94 Q147.518 1224.04 149.323 1227.61 Q151.152 1231.15 154.763 1231.15 Q158.397 1231.15 160.203 1227.61 Q162.032 1224.04 162.032 1216.94 Q162.032 1209.81 160.203 1206.27 Q158.397 1202.7 154.763 1202.7 M154.763 1199 Q160.573 1199 163.629 1203.6 Q166.707 1208.19 166.707 1216.94 Q166.707 1225.66 163.629 1230.27 Q160.573 1234.85 154.763 1234.85 Q148.953 1234.85 145.874 1230.27 Q142.819 1225.66 142.819 1216.94 Q142.819 1208.19 145.874 1203.6 Q148.953 1199 154.763 1199 Z" fill="#000000" fill-rule="evenodd" fill-opacity="1" /><path clip-path="url(#clip720)" d="M166.707 1193.1 L190.819 1193.1 L190.819 1196.3 L166.707 1196.3 L166.707 1193.1 Z" fill="#000000" fill-rule="evenodd" fill-opacity="1" /><path clip-path="url(#clip720)" d="M209.458 1182 L199.866 1196.99 L209.458 1196.99 L209.458 1182 M208.461 1178.69 L213.238 1178.69 L213.238 1196.99 L217.244 1196.99 L217.244 1200.15 L213.238 1200.15 L213.238 1206.77 L209.458 1206.77 L209.458 1200.15 L196.781 1200.15 L196.781 1196.49 L208.461 1178.69 Z" fill="#000000" fill-rule="evenodd" fill-opacity="1" /><path clip-path="url(#clip720)" d="M116.333 723.045 L123.972 723.045 L123.972 696.68 L115.662 698.346 L115.662 694.087 L123.926 692.42 L128.601 692.42 L128.601 723.045 L136.24 723.045 L136.24 726.98 L116.333 726.98 L116.333 723.045 Z" fill="#000000" fill-rule="evenodd" fill-opacity="1" /><path clip-path="url(#clip720)" d="M155.685 695.499 Q152.074 695.499 150.245 699.064 Q148.439 702.606 148.439 709.735 Q148.439 716.842 150.245 720.406 Q152.074 723.948 155.685 723.948 Q159.319 723.948 161.124 720.406 Q162.953 716.842 162.953 709.735 Q162.953 702.606 161.124 699.064 Q159.319 695.499 155.685 695.499 M155.685 691.795 Q161.495 691.795 164.55 696.402 Q167.629 700.985 167.629 709.735 Q167.629 718.462 164.55 723.068 Q161.495 727.652 155.685 727.652 Q149.875 727.652 146.796 723.068 Q143.74 718.462 143.74 709.735 Q143.74 700.985 146.796 696.402 Q149.875 691.795 155.685 691.795 Z" fill="#000000" fill-rule="evenodd" fill-opacity="1" /><path clip-path="url(#clip720)" d="M167.629 685.897 L191.741 685.897 L191.741 689.094 L167.629 689.094 L167.629 685.897 Z" fill="#000000" fill-rule="evenodd" fill-opacity="1" /><path clip-path="url(#clip720)" d="M211.451 684.43 Q214.178 685.013 215.702 686.856 Q217.244 688.699 217.244 691.408 Q217.244 695.564 214.385 697.84 Q211.526 700.116 206.26 700.116 Q204.492 700.116 202.612 699.758 Q200.75 699.42 198.756 698.724 L198.756 695.056 Q200.336 695.978 202.217 696.448 Q204.097 696.918 206.147 696.918 Q209.721 696.918 211.583 695.508 Q213.464 694.097 213.464 691.408 Q213.464 688.925 211.714 687.533 Q209.984 686.123 206.881 686.123 L203.608 686.123 L203.608 683 L207.031 683 Q209.834 683 211.32 681.891 Q212.805 680.762 212.805 678.656 Q212.805 676.493 211.263 675.346 Q209.74 674.18 206.881 674.18 Q205.32 674.18 203.533 674.518 Q201.746 674.857 199.602 675.571 L199.602 672.186 Q201.765 671.584 203.646 671.283 Q205.546 670.982 207.219 670.982 Q211.545 670.982 214.065 672.957 Q216.586 674.913 216.586 678.261 Q216.586 680.593 215.25 682.211 Q213.915 683.809 211.451 684.43 Z" fill="#000000" fill-rule="evenodd" fill-opacity="1" /><path clip-path="url(#clip720)" d="M117.104 215.842 L124.743 215.842 L124.743 189.477 L116.433 191.144 L116.433 186.884 L124.697 185.218 L129.373 185.218 L129.373 215.842 L137.011 215.842 L137.011 219.778 L117.104 219.778 L117.104 215.842 Z" fill="#000000" fill-rule="evenodd" fill-opacity="1" /><path clip-path="url(#clip720)" d="M156.456 188.296 Q152.845 188.296 151.016 191.861 Q149.21 195.403 149.21 202.532 Q149.21 209.639 151.016 213.204 Q152.845 216.745 156.456 216.745 Q160.09 216.745 161.896 213.204 Q163.724 209.639 163.724 202.532 Q163.724 195.403 161.896 191.861 Q160.09 188.296 156.456 188.296 M156.456 184.593 Q162.266 184.593 165.321 189.199 Q168.4 193.782 168.4 202.532 Q168.4 211.259 165.321 215.866 Q162.266 220.449 156.456 220.449 Q150.646 220.449 147.567 215.866 Q144.511 211.259 144.511 202.532 Q144.511 193.782 147.567 189.199 Q150.646 184.593 156.456 184.593 Z" fill="#000000" fill-rule="evenodd" fill-opacity="1" /><path clip-path="url(#clip720)" d="M168.4 178.694 L192.512 178.694 L192.512 181.891 L168.4 181.891 L168.4 178.694 Z" fill="#000000" fill-rule="evenodd" fill-opacity="1" /><path clip-path="url(#clip720)" d="M203.984 189.17 L217.244 189.17 L217.244 192.367 L199.414 192.367 L199.414 189.17 Q201.577 186.932 205.301 183.17 Q209.044 179.39 210.003 178.299 Q211.827 176.249 212.542 174.838 Q213.276 173.409 213.276 172.036 Q213.276 169.798 211.696 168.387 Q210.135 166.977 207.614 166.977 Q205.828 166.977 203.834 167.597 Q201.859 168.218 199.602 169.478 L199.602 165.641 Q201.897 164.72 203.89 164.25 Q205.884 163.779 207.539 163.779 Q211.903 163.779 214.498 165.961 Q217.093 168.143 217.093 171.792 Q217.093 173.522 216.435 175.083 Q215.796 176.625 214.084 178.732 Q213.614 179.277 211.094 181.891 Q208.574 184.487 203.984 189.17 Z" fill="#000000" fill-rule="evenodd" fill-opacity="1" /><path clip-path="url(#clip720)" d="M18.4042 827.219 L18.4042 787.02 L23.815 787.02 L23.815 803.889 L65.9242 803.889 L65.9242 810.35 L23.815 810.35 L23.815 827.219 L18.4042 827.219 Z" fill="#000000" fill-rule="evenodd" fill-opacity="1" /><path clip-path="url(#clip720)" d="M30.2762 783.073 L30.2762 777.216 L65.9242 777.216 L65.9242 783.073 L30.2762 783.073 M16.399 783.073 L16.399 777.216 L23.815 777.216 L23.815 783.073 L16.399 783.073 Z" fill="#000000" fill-rule="evenodd" fill-opacity="1" /><path clip-path="url(#clip720)" d="M37.1193 737.208 Q33.1726 735.012 31.2947 731.956 Q29.4168 728.901 29.4168 724.763 Q29.4168 719.193 33.3317 716.169 Q37.2148 713.145 44.4081 713.145 L65.9242 713.145 L65.9242 719.034 L44.599 719.034 Q39.4746 719.034 36.992 720.848 Q34.5094 722.662 34.5094 726.386 Q34.5094 730.938 37.5331 733.579 Q40.5568 736.221 45.7767 736.221 L65.9242 736.221 L65.9242 742.109 L44.599 742.109 Q39.4428 742.109 36.992 743.924 Q34.5094 745.738 34.5094 749.526 Q34.5094 754.013 37.5649 756.655 Q40.5886 759.297 45.7767 759.297 L65.9242 759.297 L65.9242 765.185 L30.2762 765.185 L30.2762 759.297 L35.8144 759.297 Q32.536 757.292 30.9764 754.491 Q29.4168 751.69 29.4168 747.839 Q29.4168 743.956 31.3902 741.25 Q33.3636 738.513 37.1193 737.208 Z" fill="#000000" fill-rule="evenodd" fill-opacity="1" /><path clip-path="url(#clip720)" d="M46.6361 670.973 L49.5006 670.973 L49.5006 697.9 Q55.5481 697.518 58.7309 694.271 Q61.8819 690.993 61.8819 685.168 Q61.8819 681.794 61.0544 678.643 Q60.2269 675.461 58.5718 672.341 L64.1099 672.341 Q65.4467 675.492 66.147 678.803 Q66.8472 682.113 66.8472 685.518 Q66.8472 694.048 61.8819 699.045 Q56.9167 704.011 48.4503 704.011 Q39.6974 704.011 34.5731 699.3 Q29.4168 694.558 29.4168 686.537 Q29.4168 679.344 34.0638 675.174 Q38.6789 670.973 46.6361 670.973 M44.9173 676.829 Q40.1112 676.893 37.2466 679.535 Q34.3821 682.145 34.3821 686.473 Q34.3821 691.375 37.1512 694.335 Q39.9202 697.263 44.9492 697.709 L44.9173 676.829 Z" fill="#000000" fill-rule="evenodd" fill-opacity="1" /><path clip-path="url(#clip720)" d="M16.4626 626.572 Q23.7832 630.837 30.9446 632.906 Q38.106 634.975 45.4584 634.975 Q52.8108 634.975 60.0359 632.906 Q67.2291 630.805 74.5179 626.572 L74.5179 631.664 Q67.0382 636.439 59.8131 638.826 Q52.588 641.181 45.4584 641.181 Q38.3606 641.181 31.1674 638.826 Q23.9742 636.471 16.4626 631.664 L16.4626 626.572 Z" fill="#000000" fill-rule="evenodd" fill-opacity="1" /><path clip-path="url(#clip720)" d="M31.3265 592.484 L36.8647 592.484 Q35.5916 594.966 34.955 597.64 Q34.3184 600.313 34.3184 603.178 Q34.3184 607.538 35.6552 609.735 Q36.992 611.899 39.6656 611.899 Q41.7026 611.899 42.8803 610.339 Q44.0261 608.78 45.0765 604.069 L45.5221 602.064 Q46.8589 595.826 49.3097 593.216 Q51.7286 590.574 56.0891 590.574 Q61.0544 590.574 63.9508 594.521 Q66.8472 598.435 66.8472 605.31 Q66.8472 608.175 66.2743 611.294 Q65.7332 614.382 64.6192 617.819 L58.5718 617.819 Q60.2587 614.573 61.118 611.422 Q61.9456 608.27 61.9456 605.183 Q61.9456 601.045 60.5451 598.817 Q59.1129 596.589 56.5347 596.589 Q54.1476 596.589 52.8745 598.213 Q51.6013 599.804 50.4237 605.247 L49.9462 607.284 Q48.8004 612.726 46.4451 615.145 Q44.058 617.564 39.9202 617.564 Q34.8913 617.564 32.1541 614 Q29.4168 610.435 29.4168 603.878 Q29.4168 600.632 29.8943 597.767 Q30.3717 594.902 31.3265 592.484 Z" fill="#000000" fill-rule="evenodd" fill-opacity="1" /><path clip-path="url(#clip720)" d="M16.4626 582.171 L16.4626 577.079 Q23.9742 572.304 31.1674 569.949 Q38.3606 567.562 45.4584 567.562 Q52.588 567.562 59.8131 569.949 Q67.0382 572.304 74.5179 577.079 L74.5179 582.171 Q67.2291 577.938 60.0359 575.869 Q52.8108 573.768 45.4584 573.768 Q38.106 573.768 30.9446 575.869 Q23.7832 577.938 16.4626 582.171 Z" fill="#000000" fill-rule="evenodd" fill-opacity="1" /><polyline clip-path="url(#clip722)" style="stroke:#009af9; stroke-linecap:butt; stroke-linejoin:round; stroke-width:12; stroke-opacity:1; fill:none" points="
  1144.48,1310.74 1023.15,1256.74 818.764,1160.15 602.971,1051.16 
  "/>
<line clip-path="url(#clip722)" x1="1144.48" y1="1310.74" x2="1144.48" y2="1294.74" style="stroke:#009af9; stroke-width:3.072; stroke-opacity:1"/>
<line clip-path="url(#clip722)" x1="1144.48" y1="1310.74" x2="1128.48" y2="1310.74" style="stroke:#009af9; stroke-width:3.072; stroke-opacity:1"/>
<line clip-path="url(#clip722)" x1="1144.48" y1="1310.74" x2="1144.48" y2="1326.74" style="stroke:#009af9; stroke-width:3.072; stroke-opacity:1"/>
<line clip-path="url(#clip722)" x1="1144.48" y1="1310.74" x2="1160.48" y2="1310.74" style="stroke:#009af9; stroke-width:3.072; stroke-opacity:1"/>
<line clip-path="url(#clip722)" x1="1023.15" y1="1256.74" x2="1023.15" y2="1240.74" style="stroke:#009af9; stroke-width:3.072; stroke-opacity:1"/>
<line clip-path="url(#clip722)" x1="1023.15" y1="1256.74" x2="1007.15" y2="1256.74" style="stroke:#009af9; stroke-width:3.072; stroke-opacity:1"/>
<line clip-path="url(#clip722)" x1="1023.15" y1="1256.74" x2="1023.15" y2="1272.74" style="stroke:#009af9; stroke-width:3.072; stroke-opacity:1"/>
<line clip-path="url(#clip722)" x1="1023.15" y1="1256.74" x2="1039.15" y2="1256.74" style="stroke:#009af9; stroke-width:3.072; stroke-opacity:1"/>
<line clip-path="url(#clip722)" x1="818.764" y1="1160.15" x2="818.764" y2="1144.15" style="stroke:#009af9; stroke-width:3.072; stroke-opacity:1"/>
<line clip-path="url(#clip722)" x1="818.764" y1="1160.15" x2="802.764" y2="1160.15" style="stroke:#009af9; stroke-width:3.072; stroke-opacity:1"/>
<line clip-path="url(#clip722)" x1="818.764" y1="1160.15" x2="818.764" y2="1176.15" style="stroke:#009af9; stroke-width:3.072; stroke-opacity:1"/>
<line clip-path="url(#clip722)" x1="818.764" y1="1160.15" x2="834.764" y2="1160.15" style="stroke:#009af9; stroke-width:3.072; stroke-opacity:1"/>
<line clip-path="url(#clip722)" x1="602.971" y1="1051.16" x2="602.971" y2="1035.16" style="stroke:#009af9; stroke-width:3.072; stroke-opacity:1"/>
<line clip-path="url(#clip722)" x1="602.971" y1="1051.16" x2="586.971" y2="1051.16" style="stroke:#009af9; stroke-width:3.072; stroke-opacity:1"/>
<line clip-path="url(#clip722)" x1="602.971" y1="1051.16" x2="602.971" y2="1067.16" style="stroke:#009af9; stroke-width:3.072; stroke-opacity:1"/>
<line clip-path="url(#clip722)" x1="602.971" y1="1051.16" x2="618.971" y2="1051.16" style="stroke:#009af9; stroke-width:3.072; stroke-opacity:1"/>
<polyline clip-path="url(#clip722)" style="stroke:#e26f46; stroke-linecap:butt; stroke-linejoin:round; stroke-width:12; stroke-opacity:1; fill:none" points="
  1598.98,1169.8 1260.78,1087.3 956.518,982.624 491.067,865.667 
  "/>
<circle clip-path="url(#clip722)" cx="1598.98" cy="1169.8" r="14" fill="#e26f46" fill-rule="evenodd" fill-opacity="1" stroke="#000000" stroke-opacity="1" stroke-width="3.072"/>
<circle clip-path="url(#clip722)" cx="1260.78" cy="1087.3" r="14" fill="#e26f46" fill-rule="evenodd" fill-opacity="1" stroke="#000000" stroke-opacity="1" stroke-width="3.072"/>
<circle clip-path="url(#clip722)" cx="956.518" cy="982.624" r="14" fill="#e26f46" fill-rule="evenodd" fill-opacity="1" stroke="#000000" stroke-opacity="1" stroke-width="3.072"/>
<circle clip-path="url(#clip722)" cx="491.067" cy="865.667" r="14" fill="#e26f46" fill-rule="evenodd" fill-opacity="1" stroke="#000000" stroke-opacity="1" stroke-width="3.072"/>
<polyline clip-path="url(#clip722)" style="stroke:#3da44d; stroke-linecap:butt; stroke-linejoin:round; stroke-width:12; stroke-opacity:1; fill:none" points="
  1774.31,1094.19 1486.17,1058.59 1214.61,1009 748.789,947.963 
  "/>
<line clip-path="url(#clip722)" x1="1774.31" y1="1094.19" x2="1774.31" y2="1078.19" style="stroke:#3da44d; stroke-width:3.072; stroke-opacity:1"/>
<line clip-path="url(#clip722)" x1="1774.31" y1="1094.19" x2="1758.31" y2="1094.19" style="stroke:#3da44d; stroke-width:3.072; stroke-opacity:1"/>
<line clip-path="url(#clip722)" x1="1774.31" y1="1094.19" x2="1774.31" y2="1110.19" style="stroke:#3da44d; stroke-width:3.072; stroke-opacity:1"/>
<line clip-path="url(#clip722)" x1="1774.31" y1="1094.19" x2="1790.31" y2="1094.19" style="stroke:#3da44d; stroke-width:3.072; stroke-opacity:1"/>
<line clip-path="url(#clip722)" x1="1486.17" y1="1058.59" x2="1486.17" y2="1042.59" style="stroke:#3da44d; stroke-width:3.072; stroke-opacity:1"/>
<line clip-path="url(#clip722)" x1="1486.17" y1="1058.59" x2="1470.17" y2="1058.59" style="stroke:#3da44d; stroke-width:3.072; stroke-opacity:1"/>
<line clip-path="url(#clip722)" x1="1486.17" y1="1058.59" x2="1486.17" y2="1074.59" style="stroke:#3da44d; stroke-width:3.072; stroke-opacity:1"/>
<line clip-path="url(#clip722)" x1="1486.17" y1="1058.59" x2="1502.17" y2="1058.59" style="stroke:#3da44d; stroke-width:3.072; stroke-opacity:1"/>
<line clip-path="url(#clip722)" x1="1214.61" y1="1009" x2="1214.61" y2="993.002" style="stroke:#3da44d; stroke-width:3.072; stroke-opacity:1"/>
<line clip-path="url(#clip722)" x1="1214.61" y1="1009" x2="1198.61" y2="1009" style="stroke:#3da44d; stroke-width:3.072; stroke-opacity:1"/>
<line clip-path="url(#clip722)" x1="1214.61" y1="1009" x2="1214.61" y2="1025" style="stroke:#3da44d; stroke-width:3.072; stroke-opacity:1"/>
<line clip-path="url(#clip722)" x1="1214.61" y1="1009" x2="1230.61" y2="1009" style="stroke:#3da44d; stroke-width:3.072; stroke-opacity:1"/>
<line clip-path="url(#clip722)" x1="748.789" y1="947.963" x2="748.789" y2="931.963" style="stroke:#3da44d; stroke-width:3.072; stroke-opacity:1"/>
<line clip-path="url(#clip722)" x1="748.789" y1="947.963" x2="732.789" y2="947.963" style="stroke:#3da44d; stroke-width:3.072; stroke-opacity:1"/>
<line clip-path="url(#clip722)" x1="748.789" y1="947.963" x2="748.789" y2="963.963" style="stroke:#3da44d; stroke-width:3.072; stroke-opacity:1"/>
<line clip-path="url(#clip722)" x1="748.789" y1="947.963" x2="764.789" y2="947.963" style="stroke:#3da44d; stroke-width:3.072; stroke-opacity:1"/>
<polyline clip-path="url(#clip722)" style="stroke:#c271d2; stroke-linecap:butt; stroke-linejoin:round; stroke-width:12; stroke-opacity:1; fill:none" points="
  1383.05,1187.95 1259.43,1143.33 1218.32,1088.21 997.43,1033.46 
  "/>
<path clip-path="url(#clip722)" d="M1383.05 1171.95 L1367.05 1187.95 L1383.05 1203.95 L1399.05 1187.95 L1383.05 1171.95 Z" fill="#c271d2" fill-rule="evenodd" fill-opacity="1" stroke="#000000" stroke-opacity="1" stroke-width="3.072"/>
<path clip-path="url(#clip722)" d="M1259.43 1127.33 L1243.43 1143.33 L1259.43 1159.33 L1275.43 1143.33 L1259.43 1127.33 Z" fill="#c271d2" fill-rule="evenodd" fill-opacity="1" stroke="#000000" stroke-opacity="1" stroke-width="3.072"/>
<path clip-path="url(#clip722)" d="M1218.32 1072.21 L1202.32 1088.21 L1218.32 1104.21 L1234.32 1088.21 L1218.32 1072.21 Z" fill="#c271d2" fill-rule="evenodd" fill-opacity="1" stroke="#000000" stroke-opacity="1" stroke-width="3.072"/>
<path clip-path="url(#clip722)" d="M997.43 1017.46 L981.43 1033.46 L997.43 1049.46 L1013.43 1033.46 L997.43 1017.46 Z" fill="#c271d2" fill-rule="evenodd" fill-opacity="1" stroke="#000000" stroke-opacity="1" stroke-width="3.072"/>
<polyline clip-path="url(#clip722)" style="stroke:#ac8d18; stroke-linecap:butt; stroke-linejoin:round; stroke-width:12; stroke-opacity:1; fill:none" points="
  1590.09,1201.61 1320.97,1060.16 1162.23,912.439 800.086,887.474 
  "/>
<path clip-path="url(#clip722)" d="M1606.09 1185.61 L1574.09 1185.61 L1590.09 1217.61 L1606.09 1185.61 Z" fill="#ac8d18" fill-rule="evenodd" fill-opacity="1" stroke="#000000" stroke-opacity="1" stroke-width="3.072"/>
<path clip-path="url(#clip722)" d="M1336.97 1044.16 L1304.97 1044.16 L1320.97 1076.16 L1336.97 1044.16 Z" fill="#ac8d18" fill-rule="evenodd" fill-opacity="1" stroke="#000000" stroke-opacity="1" stroke-width="3.072"/>
<path clip-path="url(#clip722)" d="M1178.23 896.439 L1146.23 896.439 L1162.23 928.439 L1178.23 896.439 Z" fill="#ac8d18" fill-rule="evenodd" fill-opacity="1" stroke="#000000" stroke-opacity="1" stroke-width="3.072"/>
<path clip-path="url(#clip722)" d="M816.086 871.474 L784.086 871.474 L800.086 903.474 L816.086 871.474 Z" fill="#ac8d18" fill-rule="evenodd" fill-opacity="1" stroke="#000000" stroke-opacity="1" stroke-width="3.072"/>
<polyline clip-path="url(#clip722)" style="stroke:#00a9ad; stroke-linecap:butt; stroke-linejoin:round; stroke-width:12; stroke-opacity:1; fill:none" points="
  1697.87,991.206 1639.19,967.649 1501.21,917.461 1365.05,845.655 
  "/>
<path clip-path="url(#clip722)" d="M1697.87 975.206 L1685.36 981.238 L1682.27 994.774 L1690.92 1005.62 L1704.81 1005.62 L1713.47 994.774 L1710.38 981.238 Z" fill="#00a9ad" fill-rule="evenodd" fill-opacity="1" stroke="#000000" stroke-opacity="1" stroke-width="3.072"/>
<path clip-path="url(#clip722)" d="M1639.19 951.649 L1626.67 957.681 L1623.59 971.217 L1632.24 982.065 L1646.13 982.065 L1654.79 971.217 L1651.7 957.681 Z" fill="#00a9ad" fill-rule="evenodd" fill-opacity="1" stroke="#000000" stroke-opacity="1" stroke-width="3.072"/>
<path clip-path="url(#clip722)" d="M1501.21 901.461 L1488.7 907.493 L1485.61 921.029 L1494.27 931.877 L1508.15 931.877 L1516.81 921.029 L1513.72 907.493 Z" fill="#00a9ad" fill-rule="evenodd" fill-opacity="1" stroke="#000000" stroke-opacity="1" stroke-width="3.072"/>
<path clip-path="url(#clip722)" d="M1365.05 829.655 L1352.54 835.687 L1349.45 849.223 L1358.1 860.071 L1371.99 860.071 L1380.65 849.223 L1377.56 835.687 Z" fill="#00a9ad" fill-rule="evenodd" fill-opacity="1" stroke="#000000" stroke-opacity="1" stroke-width="3.072"/>
<polyline clip-path="url(#clip722)" style="stroke:#ed5d92; stroke-linecap:butt; stroke-linejoin:round; stroke-width:12; stroke-opacity:1; fill:none" points="
  1628.9,820.341 1613.94,806.146 1547.26,773.917 1571.14,734.049 
  "/>
<path clip-path="url(#clip722)" d="M1628.9 836.341 L1615.04 828.341 L1615.04 812.341 L1628.9 804.341 L1642.75 812.341 L1642.75 828.341 Z" fill="#ed5d92" fill-rule="evenodd" fill-opacity="1" stroke="#000000" stroke-opacity="1" stroke-width="3.072"/>
<path clip-path="url(#clip722)" d="M1613.94 822.146 L1600.09 814.146 L1600.09 798.146 L1613.94 790.146 L1627.8 798.146 L1627.8 814.146 Z" fill="#ed5d92" fill-rule="evenodd" fill-opacity="1" stroke="#000000" stroke-opacity="1" stroke-width="3.072"/>
<path clip-path="url(#clip722)" d="M1547.26 789.917 L1533.41 781.917 L1533.41 765.917 L1547.26 757.917 L1561.12 765.917 L1561.12 781.917 Z" fill="#ed5d92" fill-rule="evenodd" fill-opacity="1" stroke="#000000" stroke-opacity="1" stroke-width="3.072"/>
<path clip-path="url(#clip722)" d="M1571.14 750.049 L1557.28 742.049 L1557.28 726.049 L1571.14 718.049 L1584.99 726.049 L1584.99 742.049 Z" fill="#ed5d92" fill-rule="evenodd" fill-opacity="1" stroke="#000000" stroke-opacity="1" stroke-width="3.072"/>
<polyline clip-path="url(#clip722)" style="stroke:#c68125; stroke-linecap:butt; stroke-linejoin:round; stroke-width:12; stroke-opacity:1; fill:none" points="
  2200.01,892.627 1283.49,761.31 1161.48,882.746 308.548,84.0448 
  "/>
<line clip-path="url(#clip722)" x1="2216.01" y1="892.627" x2="2184.01" y2="892.627" style="stroke:#c68125; stroke-width:3.072; stroke-opacity:1"/>
<line clip-path="url(#clip722)" x1="1299.49" y1="761.31" x2="1267.49" y2="761.31" style="stroke:#c68125; stroke-width:3.072; stroke-opacity:1"/>
<line clip-path="url(#clip722)" x1="1177.48" y1="882.746" x2="1145.48" y2="882.746" style="stroke:#c68125; stroke-width:3.072; stroke-opacity:1"/>
<line clip-path="url(#clip722)" x1="324.548" y1="84.0448" x2="292.548" y2="84.0448" style="stroke:#c68125; stroke-width:3.072; stroke-opacity:1"/>
<polyline clip-path="url(#clip722)" style="stroke:#00a98d; stroke-linecap:butt; stroke-linejoin:round; stroke-width:12; stroke-opacity:1; fill:none" points="
  1421.89,1033.13 1040.54,1026.99 705.548,997.214 466.189,972.822 
  "/>
<path clip-path="url(#clip722)" d="M1409.09 1033.13 L1428.29 1044.33 L1428.29 1021.93 L1409.09 1033.13 Z" fill="#00a98d" fill-rule="evenodd" fill-opacity="1" stroke="#000000" stroke-opacity="1" stroke-width="3.072"/>
<path clip-path="url(#clip722)" d="M1027.74 1026.99 L1046.94 1038.19 L1046.94 1015.79 L1027.74 1026.99 Z" fill="#00a98d" fill-rule="evenodd" fill-opacity="1" stroke="#000000" stroke-opacity="1" stroke-width="3.072"/>
<path clip-path="url(#clip722)" d="M692.748 997.214 L711.948 1008.41 L711.948 986.014 L692.748 997.214 Z" fill="#00a98d" fill-rule="evenodd" fill-opacity="1" stroke="#000000" stroke-opacity="1" stroke-width="3.072"/>
<path clip-path="url(#clip722)" d="M453.389 972.822 L472.589 984.022 L472.589 961.622 L453.389 972.822 Z" fill="#00a98d" fill-rule="evenodd" fill-opacity="1" stroke="#000000" stroke-opacity="1" stroke-width="3.072"/>
<path clip-path="url(#clip720)" d="
M1640.49 608.987 L2189.92 608.987 L2189.92 90.5872 L1640.49 90.5872  Z
  " fill="#ffffff" fill-rule="evenodd" fill-opacity="1"/>
<polyline clip-path="url(#clip720)" style="stroke:#000000; stroke-linecap:butt; stroke-linejoin:round; stroke-width:4; stroke-opacity:1; fill:none" points="
  1640.49,608.987 2189.92,608.987 2189.92,90.5872 1640.49,90.5872 1640.49,608.987 
  "/>
<polyline clip-path="url(#clip720)" style="stroke:#009af9; stroke-linecap:butt; stroke-linejoin:round; stroke-width:4; stroke-opacity:1; fill:none" points="
  1662.76,142.427 1796.43,142.427 
  "/>
<line clip-path="url(#clip720)" x1="1729.6" y1="142.427" x2="1729.6" y2="116.827" style="stroke:#009af9; stroke-width:4.9152; stroke-opacity:1"/>
<line clip-path="url(#clip720)" x1="1729.6" y1="142.427" x2="1704" y2="142.427" style="stroke:#009af9; stroke-width:4.9152; stroke-opacity:1"/>
<line clip-path="url(#clip720)" x1="1729.6" y1="142.427" x2="1729.6" y2="168.027" style="stroke:#009af9; stroke-width:4.9152; stroke-opacity:1"/>
<line clip-path="url(#clip720)" x1="1729.6" y1="142.427" x2="1755.2" y2="142.427" style="stroke:#009af9; stroke-width:4.9152; stroke-opacity:1"/>
<path clip-path="url(#clip720)" d="M1835.09 143.504 Q1836.6 144.013 1838.01 145.679 Q1839.45 147.346 1840.88 150.263 L1845.63 159.707 L1840.6 159.707 L1836.18 150.841 Q1834.47 147.369 1832.85 146.235 Q1831.25 145.101 1828.47 145.101 L1823.38 145.101 L1823.38 159.707 L1818.7 159.707 L1818.7 125.147 L1829.26 125.147 Q1835.19 125.147 1838.1 127.624 Q1841.02 130.101 1841.02 135.101 Q1841.02 138.365 1839.49 140.517 Q1837.99 142.67 1835.09 143.504 M1823.38 128.99 L1823.38 141.258 L1829.26 141.258 Q1832.64 141.258 1834.35 139.707 Q1836.09 138.133 1836.09 135.101 Q1836.09 132.068 1834.35 130.541 Q1832.64 128.99 1829.26 128.99 L1823.38 128.99 Z" fill="#000000" fill-rule="evenodd" fill-opacity="1" /><path clip-path="url(#clip720)" d="M1859.38 136.767 Q1855.95 136.767 1853.96 139.453 Q1851.97 142.115 1851.97 146.767 Q1851.97 151.42 1853.94 154.105 Q1855.93 156.767 1859.38 156.767 Q1862.78 156.767 1864.77 154.082 Q1866.76 151.397 1866.76 146.767 Q1866.76 142.161 1864.77 139.476 Q1862.78 136.767 1859.38 136.767 M1859.38 133.156 Q1864.93 133.156 1868.1 136.767 Q1871.27 140.379 1871.27 146.767 Q1871.27 153.133 1868.1 156.767 Q1864.93 160.378 1859.38 160.378 Q1853.8 160.378 1850.63 156.767 Q1847.48 153.133 1847.48 146.767 Q1847.48 140.379 1850.63 136.767 Q1853.8 133.156 1859.38 133.156 Z" fill="#000000" fill-rule="evenodd" fill-opacity="1" /><path clip-path="url(#clip720)" d="M1894.86 134.545 L1894.86 138.573 Q1893.06 137.647 1891.11 137.184 Q1889.17 136.721 1887.08 136.721 Q1883.91 136.721 1882.32 137.693 Q1880.74 138.666 1880.74 140.61 Q1880.74 142.092 1881.88 142.948 Q1883.01 143.781 1886.44 144.545 L1887.89 144.869 Q1892.43 145.842 1894.33 147.624 Q1896.25 149.383 1896.25 152.554 Q1896.25 156.166 1893.38 158.272 Q1890.53 160.378 1885.53 160.378 Q1883.45 160.378 1881.18 159.962 Q1878.94 159.568 1876.44 158.758 L1876.44 154.36 Q1878.8 155.587 1881.09 156.212 Q1883.38 156.814 1885.63 156.814 Q1888.63 156.814 1890.26 155.795 Q1891.88 154.754 1891.88 152.879 Q1891.88 151.142 1890.7 150.216 Q1889.54 149.291 1885.58 148.434 L1884.1 148.087 Q1880.14 147.254 1878.38 145.541 Q1876.62 143.804 1876.62 140.795 Q1876.62 137.138 1879.21 135.147 Q1881.81 133.156 1886.57 133.156 Q1888.94 133.156 1891.02 133.504 Q1893.1 133.851 1894.86 134.545 Z" fill="#000000" fill-rule="evenodd" fill-opacity="1" /><path clip-path="url(#clip720)" d="M1925.21 145.679 L1925.21 147.763 L1905.63 147.763 Q1905.9 152.161 1908.26 154.476 Q1910.65 156.767 1914.88 156.767 Q1917.34 156.767 1919.63 156.166 Q1921.94 155.564 1924.21 154.36 L1924.21 158.388 Q1921.92 159.36 1919.51 159.869 Q1917.11 160.378 1914.63 160.378 Q1908.43 160.378 1904.79 156.767 Q1901.18 153.156 1901.18 146.999 Q1901.18 140.633 1904.61 136.906 Q1908.06 133.156 1913.89 133.156 Q1919.12 133.156 1922.15 136.536 Q1925.21 139.892 1925.21 145.679 M1920.95 144.429 Q1920.9 140.934 1918.98 138.851 Q1917.08 136.767 1913.94 136.767 Q1910.37 136.767 1908.22 138.781 Q1906.09 140.795 1905.76 144.453 L1920.95 144.429 Z" fill="#000000" fill-rule="evenodd" fill-opacity="1" /><path clip-path="url(#clip720)" d="M1953.75 144.059 L1953.75 159.707 L1949.49 159.707 L1949.49 144.198 Q1949.49 140.517 1948.06 138.689 Q1946.62 136.86 1943.75 136.86 Q1940.3 136.86 1938.31 139.059 Q1936.32 141.258 1936.32 145.054 L1936.32 159.707 L1932.04 159.707 L1932.04 133.781 L1936.32 133.781 L1936.32 137.809 Q1937.85 135.471 1939.91 134.314 Q1941.99 133.156 1944.7 133.156 Q1949.17 133.156 1951.46 135.934 Q1953.75 138.689 1953.75 144.059 Z" fill="#000000" fill-rule="evenodd" fill-opacity="1" /><path clip-path="url(#clip720)" d="M1980.86 146.767 Q1980.86 142.068 1978.91 139.406 Q1976.99 136.721 1973.61 136.721 Q1970.23 136.721 1968.29 139.406 Q1966.37 142.068 1966.37 146.767 Q1966.37 151.466 1968.29 154.152 Q1970.23 156.814 1973.61 156.814 Q1976.99 156.814 1978.91 154.152 Q1980.86 151.466 1980.86 146.767 M1966.37 137.717 Q1967.71 135.402 1969.75 134.291 Q1971.81 133.156 1974.65 133.156 Q1979.38 133.156 1982.32 136.906 Q1985.28 140.656 1985.28 146.767 Q1985.28 152.879 1982.32 156.628 Q1979.38 160.378 1974.65 160.378 Q1971.81 160.378 1969.75 159.267 Q1967.71 158.133 1966.37 155.818 L1966.37 159.707 L1962.08 159.707 L1962.08 123.689 L1966.37 123.689 L1966.37 137.717 Z" fill="#000000" fill-rule="evenodd" fill-opacity="1" /><path clip-path="url(#clip720)" d="M2007.36 137.763 Q2006.64 137.346 2005.79 137.161 Q2004.95 136.953 2003.94 136.953 Q2000.32 136.953 1998.38 139.314 Q1996.46 141.652 1996.46 146.05 L1996.46 159.707 L1992.18 159.707 L1992.18 133.781 L1996.46 133.781 L1996.46 137.809 Q1997.8 135.448 1999.95 134.314 Q2002.11 133.156 2005.19 133.156 Q2005.63 133.156 2006.16 133.226 Q2006.69 133.272 2007.34 133.388 L2007.36 137.763 Z" fill="#000000" fill-rule="evenodd" fill-opacity="1" /><path clip-path="url(#clip720)" d="M2020.83 136.767 Q2017.41 136.767 2015.42 139.453 Q2013.43 142.115 2013.43 146.767 Q2013.43 151.42 2015.39 154.105 Q2017.38 156.767 2020.83 156.767 Q2024.24 156.767 2026.23 154.082 Q2028.22 151.397 2028.22 146.767 Q2028.22 142.161 2026.23 139.476 Q2024.24 136.767 2020.83 136.767 M2020.83 133.156 Q2026.39 133.156 2029.56 136.767 Q2032.73 140.379 2032.73 146.767 Q2032.73 153.133 2029.56 156.767 Q2026.39 160.378 2020.83 160.378 Q2015.25 160.378 2012.08 156.767 Q2008.94 153.133 2008.94 146.767 Q2008.94 140.379 2012.08 136.767 Q2015.25 133.156 2020.83 133.156 Z" fill="#000000" fill-rule="evenodd" fill-opacity="1" /><path clip-path="url(#clip720)" d="M2058.45 134.777 L2058.45 138.758 Q2056.64 137.763 2054.81 137.277 Q2053.01 136.767 2051.16 136.767 Q2047.01 136.767 2044.72 139.406 Q2042.43 142.022 2042.43 146.767 Q2042.43 151.513 2044.72 154.152 Q2047.01 156.767 2051.16 156.767 Q2053.01 156.767 2054.81 156.281 Q2056.64 155.772 2058.45 154.777 L2058.45 158.712 Q2056.67 159.545 2054.75 159.962 Q2052.85 160.378 2050.69 160.378 Q2044.84 160.378 2041.39 156.698 Q2037.94 153.017 2037.94 146.767 Q2037.94 140.425 2041.41 136.791 Q2044.91 133.156 2050.97 133.156 Q2052.94 133.156 2054.81 133.573 Q2056.69 133.967 2058.45 134.777 Z" fill="#000000" fill-rule="evenodd" fill-opacity="1" /><path clip-path="url(#clip720)" d="M2065.69 123.689 L2069.98 123.689 L2069.98 144.962 L2082.68 133.781 L2088.12 133.781 L2074.37 145.911 L2088.7 159.707 L2083.15 159.707 L2069.98 147.045 L2069.98 159.707 L2065.69 159.707 L2065.69 123.689 Z" fill="#000000" fill-rule="evenodd" fill-opacity="1" /><path clip-path="url(#clip720)" d="M2097.94 155.772 L2114.26 155.772 L2114.26 159.707 L2092.31 159.707 L2092.31 155.772 Q2094.98 153.017 2099.56 148.388 Q2104.17 143.735 2105.35 142.392 Q2107.59 139.869 2108.47 138.133 Q2109.37 136.374 2109.37 134.684 Q2109.37 131.93 2107.43 130.193 Q2105.51 128.457 2102.41 128.457 Q2100.21 128.457 2097.75 129.221 Q2095.32 129.985 2092.55 131.536 L2092.55 126.814 Q2095.37 125.68 2097.82 125.101 Q2100.28 124.522 2102.31 124.522 Q2107.68 124.522 2110.88 127.207 Q2114.07 129.893 2114.07 134.383 Q2114.07 136.513 2113.26 138.434 Q2112.48 140.332 2110.37 142.925 Q2109.79 143.596 2106.69 146.814 Q2103.59 150.008 2097.94 155.772 Z" fill="#000000" fill-rule="evenodd" fill-opacity="1" /><path clip-path="url(#clip720)" d="M2138.24 141.073 Q2141.6 141.791 2143.47 144.059 Q2145.37 146.328 2145.37 149.661 Q2145.37 154.777 2141.85 157.578 Q2138.33 160.378 2131.85 160.378 Q2129.68 160.378 2127.36 159.939 Q2125.07 159.522 2122.62 158.666 L2122.62 154.152 Q2124.56 155.286 2126.87 155.865 Q2129.19 156.443 2131.71 156.443 Q2136.11 156.443 2138.4 154.707 Q2140.72 152.971 2140.72 149.661 Q2140.72 146.605 2138.56 144.892 Q2136.43 143.156 2132.62 143.156 L2128.59 143.156 L2128.59 139.314 L2132.8 139.314 Q2136.25 139.314 2138.08 137.948 Q2139.91 136.559 2139.91 133.967 Q2139.91 131.305 2138.01 129.893 Q2136.13 128.457 2132.62 128.457 Q2130.69 128.457 2128.49 128.874 Q2126.3 129.291 2123.66 130.17 L2123.66 126.004 Q2126.32 125.263 2128.63 124.893 Q2130.97 124.522 2133.03 124.522 Q2138.36 124.522 2141.46 126.953 Q2144.56 129.36 2144.56 133.48 Q2144.56 136.351 2142.92 138.342 Q2141.27 140.309 2138.24 141.073 Z" fill="#000000" fill-rule="evenodd" fill-opacity="1" /><polyline clip-path="url(#clip720)" style="stroke:#e26f46; stroke-linecap:butt; stroke-linejoin:round; stroke-width:4; stroke-opacity:1; fill:none" points="
  1662.76,194.267 1796.43,194.267 
  "/>
<circle clip-path="url(#clip720)" cx="1729.6" cy="194.267" r="23" fill="#e26f46" fill-rule="evenodd" fill-opacity="1" stroke="#000000" stroke-opacity="1" stroke-width="4.9152"/>
<path clip-path="url(#clip720)" d="M1818.7 176.987 L1838.57 176.987 L1838.57 180.922 L1823.38 180.922 L1823.38 191.107 L1837.08 191.107 L1837.08 195.043 L1823.38 195.043 L1823.38 211.547 L1818.7 211.547 L1818.7 176.987 Z" fill="#000000" fill-rule="evenodd" fill-opacity="1" /><path clip-path="url(#clip720)" d="M1850.65 195.043 L1850.65 207.705 L1858.15 207.705 Q1861.92 207.705 1863.73 206.154 Q1865.56 204.58 1865.56 201.362 Q1865.56 198.121 1863.73 196.594 Q1861.92 195.043 1858.15 195.043 L1850.65 195.043 M1850.65 180.83 L1850.65 191.246 L1857.57 191.246 Q1861 191.246 1862.66 189.973 Q1864.35 188.677 1864.35 186.038 Q1864.35 183.422 1862.66 182.126 Q1861 180.83 1857.57 180.83 L1850.65 180.83 M1845.97 176.987 L1857.92 176.987 Q1863.26 176.987 1866.16 179.209 Q1869.05 181.432 1869.05 185.529 Q1869.05 188.7 1867.57 190.575 Q1866.09 192.45 1863.22 192.913 Q1866.67 193.654 1868.57 196.015 Q1870.49 198.353 1870.49 201.871 Q1870.49 206.501 1867.34 209.024 Q1864.19 211.547 1858.38 211.547 L1845.97 211.547 L1845.97 176.987 Z" fill="#000000" fill-rule="evenodd" fill-opacity="1" /><path clip-path="url(#clip720)" d="M1883.17 180.83 L1883.17 207.705 L1888.82 207.705 Q1895.97 207.705 1899.28 204.464 Q1902.62 201.223 1902.62 194.232 Q1902.62 187.288 1899.28 184.07 Q1895.97 180.83 1888.82 180.83 L1883.17 180.83 M1878.5 176.987 L1888.1 176.987 Q1898.15 176.987 1902.85 181.177 Q1907.55 185.344 1907.55 194.232 Q1907.55 203.168 1902.82 207.357 Q1898.1 211.547 1888.1 211.547 L1878.5 211.547 L1878.5 176.987 Z" fill="#000000" fill-rule="evenodd" fill-opacity="1" /><path clip-path="url(#clip720)" d="M1915 176.987 L1934.86 176.987 L1934.86 180.922 L1919.68 180.922 L1919.68 191.107 L1933.38 191.107 L1933.38 195.043 L1919.68 195.043 L1919.68 211.547 L1915 211.547 L1915 176.987 Z" fill="#000000" fill-rule="evenodd" fill-opacity="1" /><polyline clip-path="url(#clip720)" style="stroke:#3da44d; stroke-linecap:butt; stroke-linejoin:round; stroke-width:4; stroke-opacity:1; fill:none" points="
  1662.76,246.107 1796.43,246.107 
  "/>
<line clip-path="url(#clip720)" x1="1729.6" y1="246.107" x2="1729.6" y2="220.507" style="stroke:#3da44d; stroke-width:4.9152; stroke-opacity:1"/>
<line clip-path="url(#clip720)" x1="1729.6" y1="246.107" x2="1704" y2="246.107" style="stroke:#3da44d; stroke-width:4.9152; stroke-opacity:1"/>
<line clip-path="url(#clip720)" x1="1729.6" y1="246.107" x2="1729.6" y2="271.707" style="stroke:#3da44d; stroke-width:4.9152; stroke-opacity:1"/>
<line clip-path="url(#clip720)" x1="1729.6" y1="246.107" x2="1755.2" y2="246.107" style="stroke:#3da44d; stroke-width:4.9152; stroke-opacity:1"/>
<path clip-path="url(#clip720)" d="M1834.72 231.998 Q1829.63 231.998 1826.62 235.795 Q1823.64 239.591 1823.64 246.142 Q1823.64 252.67 1826.62 256.466 Q1829.63 260.262 1834.72 260.262 Q1839.82 260.262 1842.78 256.466 Q1845.76 252.67 1845.76 246.142 Q1845.76 239.591 1842.78 235.795 Q1839.82 231.998 1834.72 231.998 M1841.27 262.762 L1847.43 269.498 L1841.78 269.498 L1836.67 263.966 Q1835.9 264.012 1835.49 264.035 Q1835.09 264.058 1834.72 264.058 Q1827.43 264.058 1823.06 259.197 Q1818.7 254.313 1818.7 246.142 Q1818.7 237.948 1823.06 233.086 Q1827.43 228.202 1834.72 228.202 Q1841.99 228.202 1846.34 233.086 Q1850.7 237.948 1850.7 246.142 Q1850.7 252.16 1848.26 256.443 Q1845.86 260.725 1841.27 262.762 Z" fill="#000000" fill-rule="evenodd" fill-opacity="1" /><path clip-path="url(#clip720)" d="M1858.01 228.827 L1864.31 228.827 L1879.63 257.739 L1879.63 228.827 L1884.17 228.827 L1884.17 263.387 L1877.87 263.387 L1862.55 234.475 L1862.55 263.387 L1858.01 263.387 L1858.01 228.827 Z" fill="#000000" fill-rule="evenodd" fill-opacity="1" /><path clip-path="url(#clip720)" d="M1898.15 232.67 L1898.15 259.545 L1903.8 259.545 Q1910.95 259.545 1914.26 256.304 Q1917.59 253.063 1917.59 246.072 Q1917.59 239.128 1914.26 235.91 Q1910.95 232.67 1903.8 232.67 L1898.15 232.67 M1893.47 228.827 L1903.08 228.827 Q1913.13 228.827 1917.82 233.017 Q1922.52 237.184 1922.52 246.072 Q1922.52 255.008 1917.8 259.197 Q1913.08 263.387 1903.08 263.387 L1893.47 263.387 L1893.47 228.827 Z" fill="#000000" fill-rule="evenodd" fill-opacity="1" /><path clip-path="url(#clip720)" d="M1929.98 228.827 L1949.84 228.827 L1949.84 232.762 L1934.65 232.762 L1934.65 242.947 L1948.36 242.947 L1948.36 246.883 L1934.65 246.883 L1934.65 263.387 L1929.98 263.387 L1929.98 228.827 Z" fill="#000000" fill-rule="evenodd" fill-opacity="1" /><polyline clip-path="url(#clip720)" style="stroke:#c271d2; stroke-linecap:butt; stroke-linejoin:round; stroke-width:4; stroke-opacity:1; fill:none" points="
  1662.76,297.947 1796.43,297.947 
  "/>
<path clip-path="url(#clip720)" d="M1729.6 272.347 L1704 297.947 L1729.6 323.547 L1755.2 297.947 L1729.6 272.347 Z" fill="#c271d2" fill-rule="evenodd" fill-opacity="1" stroke="#000000" stroke-opacity="1" stroke-width="4.9152"/>
<path clip-path="url(#clip720)" d="M1818.7 280.667 L1847.94 280.667 L1847.94 284.602 L1835.67 284.602 L1835.67 315.227 L1830.97 315.227 L1830.97 284.602 L1818.7 284.602 L1818.7 280.667 Z" fill="#000000" fill-rule="evenodd" fill-opacity="1" /><path clip-path="url(#clip720)" d="M1868.84 299.024 Q1870.35 299.533 1871.76 301.199 Q1873.2 302.866 1874.63 305.783 L1879.38 315.227 L1874.35 315.227 L1869.93 306.361 Q1868.22 302.889 1866.6 301.755 Q1865 300.621 1862.22 300.621 L1857.13 300.621 L1857.13 315.227 L1852.45 315.227 L1852.45 280.667 L1863.01 280.667 Q1868.94 280.667 1871.85 283.144 Q1874.77 285.621 1874.77 290.621 Q1874.77 293.885 1873.24 296.037 Q1871.74 298.19 1868.84 299.024 M1857.13 284.51 L1857.13 296.778 L1863.01 296.778 Q1866.39 296.778 1868.1 295.227 Q1869.84 293.653 1869.84 290.621 Q1869.84 287.588 1868.1 286.061 Q1866.39 284.51 1863.01 284.51 L1857.13 284.51 Z" fill="#000000" fill-rule="evenodd" fill-opacity="1" /><path clip-path="url(#clip720)" d="M1890.07 298.723 L1890.07 311.385 L1897.57 311.385 Q1901.34 311.385 1903.15 309.834 Q1904.98 308.26 1904.98 305.042 Q1904.98 301.801 1903.15 300.274 Q1901.34 298.723 1897.57 298.723 L1890.07 298.723 M1890.07 284.51 L1890.07 294.926 L1896.99 294.926 Q1900.42 294.926 1902.08 293.653 Q1903.77 292.357 1903.77 289.718 Q1903.77 287.102 1902.08 285.806 Q1900.42 284.51 1896.99 284.51 L1890.07 284.51 M1885.39 280.667 L1897.34 280.667 Q1902.69 280.667 1905.58 282.889 Q1908.47 285.112 1908.47 289.209 Q1908.47 292.38 1906.99 294.255 Q1905.51 296.13 1902.64 296.593 Q1906.09 297.334 1907.99 299.695 Q1909.91 302.033 1909.91 305.551 Q1909.91 310.181 1906.76 312.704 Q1903.61 315.227 1897.8 315.227 L1885.39 315.227 L1885.39 280.667 Z" fill="#000000" fill-rule="evenodd" fill-opacity="1" /><path clip-path="url(#clip720)" d="M1922.59 284.51 L1922.59 311.385 L1928.24 311.385 Q1935.39 311.385 1938.7 308.144 Q1942.04 304.903 1942.04 297.912 Q1942.04 290.968 1938.7 287.75 Q1935.39 284.51 1928.24 284.51 L1922.59 284.51 M1917.92 280.667 L1927.52 280.667 Q1937.57 280.667 1942.27 284.857 Q1946.97 289.024 1946.97 297.912 Q1946.97 306.848 1942.25 311.037 Q1937.52 315.227 1927.52 315.227 L1917.92 315.227 L1917.92 280.667 Z" fill="#000000" fill-rule="evenodd" fill-opacity="1" /><path clip-path="url(#clip720)" d="M1954.42 280.667 L1974.28 280.667 L1974.28 284.602 L1959.1 284.602 L1959.1 294.787 L1972.8 294.787 L1972.8 298.723 L1959.1 298.723 L1959.1 315.227 L1954.42 315.227 L1954.42 280.667 Z" fill="#000000" fill-rule="evenodd" fill-opacity="1" /><path clip-path="url(#clip720)" d="M1986.13 311.292 L2002.45 311.292 L2002.45 315.227 L1980.51 315.227 L1980.51 311.292 Q1983.17 308.537 1987.75 303.908 Q1992.36 299.255 1993.54 297.912 Q1995.79 295.389 1996.67 293.653 Q1997.57 291.894 1997.57 290.204 Q1997.57 287.45 1995.63 285.713 Q1993.7 283.977 1990.6 283.977 Q1988.4 283.977 1985.95 284.741 Q1983.52 285.505 1980.74 287.056 L1980.74 282.334 Q1983.56 281.2 1986.02 280.621 Q1988.47 280.042 1990.51 280.042 Q1995.88 280.042 1999.07 282.727 Q2002.27 285.413 2002.27 289.903 Q2002.27 292.033 2001.46 293.954 Q2000.67 295.852 1998.56 298.445 Q1997.99 299.116 1994.88 302.334 Q1991.78 305.528 1986.13 311.292 Z" fill="#000000" fill-rule="evenodd" fill-opacity="1" /><polyline clip-path="url(#clip720)" style="stroke:#ac8d18; stroke-linecap:butt; stroke-linejoin:round; stroke-width:4; stroke-opacity:1; fill:none" points="
  1662.76,349.787 1796.43,349.787 
  "/>
<path clip-path="url(#clip720)" d="M1755.2 324.187 L1704 324.187 L1729.6 375.387 L1755.2 324.187 Z" fill="#ac8d18" fill-rule="evenodd" fill-opacity="1" stroke="#000000" stroke-opacity="1" stroke-width="4.9152"/>
<path clip-path="url(#clip720)" d="M1846.57 335.169 L1846.57 340.1 Q1844.21 337.901 1841.53 336.813 Q1838.87 335.725 1835.86 335.725 Q1829.93 335.725 1826.78 339.359 Q1823.64 342.97 1823.64 349.822 Q1823.64 356.651 1826.78 360.285 Q1829.93 363.896 1835.86 363.896 Q1838.87 363.896 1841.53 362.808 Q1844.21 361.72 1846.57 359.521 L1846.57 364.405 Q1844.12 366.072 1841.37 366.905 Q1838.64 367.738 1835.58 367.738 Q1827.73 367.738 1823.22 362.947 Q1818.7 358.132 1818.7 349.822 Q1818.7 341.489 1823.22 336.697 Q1827.73 331.882 1835.58 331.882 Q1838.68 331.882 1841.41 332.716 Q1844.17 333.526 1846.57 335.169 Z" fill="#000000" fill-rule="evenodd" fill-opacity="1" /><path clip-path="url(#clip720)" d="M1862.71 367.067 L1849.51 332.507 L1854.4 332.507 L1865.35 361.604 L1876.32 332.507 L1881.18 332.507 L1868.01 367.067 L1862.71 367.067 Z" fill="#000000" fill-rule="evenodd" fill-opacity="1" /><path clip-path="url(#clip720)" d="M1899.42 335.678 Q1894.33 335.678 1891.32 339.475 Q1888.33 343.271 1888.33 349.822 Q1888.33 356.35 1891.32 360.146 Q1894.33 363.942 1899.42 363.942 Q1904.51 363.942 1907.48 360.146 Q1910.46 356.35 1910.46 349.822 Q1910.46 343.271 1907.48 339.475 Q1904.51 335.678 1899.42 335.678 M1899.42 331.882 Q1906.69 331.882 1911.04 336.766 Q1915.39 341.628 1915.39 349.822 Q1915.39 357.993 1911.04 362.877 Q1906.69 367.738 1899.42 367.738 Q1892.13 367.738 1887.76 362.877 Q1883.4 358.016 1883.4 349.822 Q1883.4 341.628 1887.76 336.766 Q1892.13 331.882 1899.42 331.882 Z" fill="#000000" fill-rule="evenodd" fill-opacity="1" /><path clip-path="url(#clip720)" d="M1927.38 336.35 L1927.38 363.225 L1933.03 363.225 Q1940.19 363.225 1943.5 359.984 Q1946.83 356.743 1946.83 349.752 Q1946.83 342.808 1943.5 339.59 Q1940.19 336.35 1933.03 336.35 L1927.38 336.35 M1922.71 332.507 L1932.32 332.507 Q1942.36 332.507 1947.06 336.697 Q1951.76 340.864 1951.76 349.752 Q1951.76 358.688 1947.04 362.877 Q1942.32 367.067 1932.32 367.067 L1922.71 367.067 L1922.71 332.507 Z" fill="#000000" fill-rule="evenodd" fill-opacity="1" /><path clip-path="url(#clip720)" d="M1959.21 332.507 L1981.07 332.507 L1981.07 336.442 L1963.89 336.442 L1963.89 346.674 L1980.35 346.674 L1980.35 350.609 L1963.89 350.609 L1963.89 363.132 L1981.48 363.132 L1981.48 367.067 L1959.21 367.067 L1959.21 332.507 Z" fill="#000000" fill-rule="evenodd" fill-opacity="1" /><path clip-path="url(#clip720)" d="M2008.68 374.938 L2008.68 378.248 L1984.05 378.248 L1984.05 374.938 L2008.68 374.938 Z" fill="#000000" fill-rule="evenodd" fill-opacity="1" /><path clip-path="url(#clip720)" d="M2017.55 350.563 L2017.55 363.225 L2025.05 363.225 Q2028.82 363.225 2030.62 361.674 Q2032.45 360.1 2032.45 356.882 Q2032.45 353.641 2030.62 352.114 Q2028.82 350.563 2025.05 350.563 L2017.55 350.563 M2017.55 336.35 L2017.55 346.766 L2024.47 346.766 Q2027.89 346.766 2029.56 345.493 Q2031.25 344.197 2031.25 341.558 Q2031.25 338.942 2029.56 337.646 Q2027.89 336.35 2024.47 336.35 L2017.55 336.35 M2012.87 332.507 L2024.81 332.507 Q2030.16 332.507 2033.06 334.729 Q2035.95 336.952 2035.95 341.049 Q2035.95 344.22 2034.47 346.095 Q2032.99 347.97 2030.12 348.433 Q2033.56 349.174 2035.46 351.535 Q2037.38 353.873 2037.38 357.391 Q2037.38 362.021 2034.24 364.544 Q2031.09 367.067 2025.28 367.067 L2012.87 367.067 L2012.87 332.507 Z" fill="#000000" fill-rule="evenodd" fill-opacity="1" /><path clip-path="url(#clip720)" d="M2050.07 336.35 L2050.07 363.225 L2055.72 363.225 Q2062.87 363.225 2066.18 359.984 Q2069.51 356.743 2069.51 349.752 Q2069.51 342.808 2066.18 339.59 Q2062.87 336.35 2055.72 336.35 L2050.07 336.35 M2045.39 332.507 L2055 332.507 Q2065.05 332.507 2069.75 336.697 Q2074.44 340.864 2074.44 349.752 Q2074.44 358.688 2069.72 362.877 Q2065 367.067 2055 367.067 L2045.39 367.067 L2045.39 332.507 Z" fill="#000000" fill-rule="evenodd" fill-opacity="1" /><path clip-path="url(#clip720)" d="M2081.9 332.507 L2101.76 332.507 L2101.76 336.442 L2086.57 336.442 L2086.57 346.627 L2100.28 346.627 L2100.28 350.563 L2086.57 350.563 L2086.57 367.067 L2081.9 367.067 L2081.9 332.507 Z" fill="#000000" fill-rule="evenodd" fill-opacity="1" /><polyline clip-path="url(#clip720)" style="stroke:#00a9ad; stroke-linecap:butt; stroke-linejoin:round; stroke-width:4; stroke-opacity:1; fill:none" points="
  1662.76,401.627 1796.43,401.627 
  "/>
<path clip-path="url(#clip720)" d="M1729.6 376.027 L1709.58 385.678 L1704.64 407.336 L1718.49 424.693 L1740.71 424.693 L1754.56 407.336 L1749.61 385.678 Z" fill="#00a9ad" fill-rule="evenodd" fill-opacity="1" stroke="#000000" stroke-opacity="1" stroke-width="4.9152"/>
<path clip-path="url(#clip720)" d="M1833.89 396.963 Q1833.17 396.546 1832.32 396.361 Q1831.48 396.153 1830.46 396.153 Q1826.85 396.153 1824.91 398.514 Q1822.99 400.852 1822.99 405.25 L1822.99 418.907 L1818.7 418.907 L1818.7 392.981 L1822.99 392.981 L1822.99 397.009 Q1824.33 394.648 1826.48 393.514 Q1828.64 392.356 1831.71 392.356 Q1832.15 392.356 1832.69 392.426 Q1833.22 392.472 1833.87 392.588 L1833.89 396.963 Z" fill="#000000" fill-rule="evenodd" fill-opacity="1" /><path clip-path="url(#clip720)" d="M1847.36 395.967 Q1843.94 395.967 1841.95 398.653 Q1839.95 401.315 1839.95 405.967 Q1839.95 410.62 1841.92 413.305 Q1843.91 415.967 1847.36 415.967 Q1850.76 415.967 1852.76 413.282 Q1854.75 410.597 1854.75 405.967 Q1854.75 401.361 1852.76 398.676 Q1850.76 395.967 1847.36 395.967 M1847.36 392.356 Q1852.92 392.356 1856.09 395.967 Q1859.26 399.579 1859.26 405.967 Q1859.26 412.333 1856.09 415.967 Q1852.92 419.578 1847.36 419.578 Q1841.78 419.578 1838.61 415.967 Q1835.46 412.333 1835.46 405.967 Q1835.46 399.579 1838.61 395.967 Q1841.78 392.356 1847.36 392.356 Z" fill="#000000" fill-rule="evenodd" fill-opacity="1" /><path clip-path="url(#clip720)" d="M1883.38 396.917 L1883.38 382.889 L1887.64 382.889 L1887.64 418.907 L1883.38 418.907 L1883.38 415.018 Q1882.04 417.333 1879.98 418.467 Q1877.94 419.578 1875.07 419.578 Q1870.37 419.578 1867.41 415.828 Q1864.47 412.079 1864.47 405.967 Q1864.47 399.856 1867.41 396.106 Q1870.37 392.356 1875.07 392.356 Q1877.94 392.356 1879.98 393.491 Q1882.04 394.602 1883.38 396.917 M1868.87 405.967 Q1868.87 410.666 1870.79 413.352 Q1872.73 416.014 1876.11 416.014 Q1879.49 416.014 1881.44 413.352 Q1883.38 410.666 1883.38 405.967 Q1883.38 401.268 1881.44 398.606 Q1879.49 395.921 1876.11 395.921 Q1872.73 395.921 1870.79 398.606 Q1868.87 401.268 1868.87 405.967 Z" fill="#000000" fill-rule="evenodd" fill-opacity="1" /><path clip-path="url(#clip720)" d="M1908.2 405.875 Q1903.03 405.875 1901.04 407.055 Q1899.05 408.236 1899.05 411.083 Q1899.05 413.352 1900.53 414.694 Q1902.04 416.014 1904.61 416.014 Q1908.15 416.014 1910.28 413.514 Q1912.43 410.991 1912.43 406.824 L1912.43 405.875 L1908.2 405.875 M1916.69 404.116 L1916.69 418.907 L1912.43 418.907 L1912.43 414.972 Q1910.97 417.333 1908.8 418.467 Q1906.62 419.578 1903.47 419.578 Q1899.49 419.578 1897.13 417.356 Q1894.79 415.111 1894.79 411.361 Q1894.79 406.986 1897.71 404.764 Q1900.65 402.542 1906.46 402.542 L1912.43 402.542 L1912.43 402.125 Q1912.43 399.185 1910.49 397.588 Q1908.57 395.967 1905.07 395.967 Q1902.85 395.967 1900.74 396.5 Q1898.63 397.032 1896.69 398.097 L1896.69 394.162 Q1899.03 393.259 1901.23 392.819 Q1903.43 392.356 1905.51 392.356 Q1911.13 392.356 1913.91 395.273 Q1916.69 398.19 1916.69 404.116 Z" fill="#000000" fill-rule="evenodd" fill-opacity="1" /><path clip-path="url(#clip720)" d="M1941.99 393.745 L1941.99 397.773 Q1940.19 396.847 1938.24 396.384 Q1936.3 395.921 1934.21 395.921 Q1931.04 395.921 1929.44 396.893 Q1927.87 397.866 1927.87 399.81 Q1927.87 401.292 1929.01 402.148 Q1930.14 402.981 1933.57 403.745 L1935.02 404.069 Q1939.56 405.042 1941.46 406.824 Q1943.38 408.583 1943.38 411.754 Q1943.38 415.366 1940.51 417.472 Q1937.66 419.578 1932.66 419.578 Q1930.58 419.578 1928.31 419.162 Q1926.07 418.768 1923.57 417.958 L1923.57 413.56 Q1925.93 414.787 1928.22 415.412 Q1930.51 416.014 1932.76 416.014 Q1935.76 416.014 1937.38 414.995 Q1939.01 413.954 1939.01 412.079 Q1939.01 410.342 1937.82 409.416 Q1936.67 408.491 1932.71 407.634 L1931.23 407.287 Q1927.27 406.454 1925.51 404.741 Q1923.75 403.004 1923.75 399.995 Q1923.75 396.338 1926.34 394.347 Q1928.94 392.356 1933.7 392.356 Q1936.07 392.356 1938.15 392.704 Q1940.23 393.051 1941.99 393.745 Z" fill="#000000" fill-rule="evenodd" fill-opacity="1" /><polyline clip-path="url(#clip720)" style="stroke:#ed5d92; stroke-linecap:butt; stroke-linejoin:round; stroke-width:4; stroke-opacity:1; fill:none" points="
  1662.76,453.467 1796.43,453.467 
  "/>
<path clip-path="url(#clip720)" d="M1729.6 479.067 L1707.43 466.267 L1707.43 440.667 L1729.6 427.867 L1751.77 440.667 L1751.77 466.267 Z" fill="#ed5d92" fill-rule="evenodd" fill-opacity="1" stroke="#000000" stroke-opacity="1" stroke-width="4.9152"/>
<path clip-path="url(#clip720)" d="M1833.89 448.803 Q1833.17 448.386 1832.32 448.201 Q1831.48 447.993 1830.46 447.993 Q1826.85 447.993 1824.91 450.354 Q1822.99 452.692 1822.99 457.09 L1822.99 470.747 L1818.7 470.747 L1818.7 444.821 L1822.99 444.821 L1822.99 448.849 Q1824.33 446.488 1826.48 445.354 Q1828.64 444.196 1831.71 444.196 Q1832.15 444.196 1832.69 444.266 Q1833.22 444.312 1833.87 444.428 L1833.89 448.803 Z" fill="#000000" fill-rule="evenodd" fill-opacity="1" /><path clip-path="url(#clip720)" d="M1850.14 457.715 Q1844.98 457.715 1842.99 458.895 Q1841 460.076 1841 462.923 Q1841 465.192 1842.48 466.534 Q1843.98 467.854 1846.55 467.854 Q1850.09 467.854 1852.22 465.354 Q1854.38 462.831 1854.38 458.664 L1854.38 457.715 L1850.14 457.715 M1858.64 455.956 L1858.64 470.747 L1854.38 470.747 L1854.38 466.812 Q1852.92 469.173 1850.74 470.307 Q1848.57 471.418 1845.42 471.418 Q1841.44 471.418 1839.08 469.196 Q1836.74 466.951 1836.74 463.201 Q1836.74 458.826 1839.65 456.604 Q1842.59 454.382 1848.4 454.382 L1854.38 454.382 L1854.38 453.965 Q1854.38 451.025 1852.43 449.428 Q1850.51 447.807 1847.01 447.807 Q1844.79 447.807 1842.69 448.34 Q1840.58 448.872 1838.64 449.937 L1838.64 446.002 Q1840.97 445.099 1843.17 444.659 Q1845.37 444.196 1847.45 444.196 Q1853.08 444.196 1855.86 447.113 Q1858.64 450.03 1858.64 455.956 Z" fill="#000000" fill-rule="evenodd" fill-opacity="1" /><path clip-path="url(#clip720)" d="M1884.47 448.757 L1884.47 434.729 L1888.73 434.729 L1888.73 470.747 L1884.47 470.747 L1884.47 466.858 Q1883.13 469.173 1881.07 470.307 Q1879.03 471.418 1876.16 471.418 Q1871.46 471.418 1868.5 467.668 Q1865.56 463.919 1865.56 457.807 Q1865.56 451.696 1868.5 447.946 Q1871.46 444.196 1876.16 444.196 Q1879.03 444.196 1881.07 445.331 Q1883.13 446.442 1884.47 448.757 M1869.95 457.807 Q1869.95 462.506 1871.88 465.192 Q1873.82 467.854 1877.2 467.854 Q1880.58 467.854 1882.52 465.192 Q1884.47 462.506 1884.47 457.807 Q1884.47 453.108 1882.52 450.446 Q1880.58 447.761 1877.2 447.761 Q1873.82 447.761 1871.88 450.446 Q1869.95 453.108 1869.95 457.807 Z" fill="#000000" fill-rule="evenodd" fill-opacity="1" /><path clip-path="url(#clip720)" d="M1909.28 457.715 Q1904.12 457.715 1902.13 458.895 Q1900.14 460.076 1900.14 462.923 Q1900.14 465.192 1901.62 466.534 Q1903.13 467.854 1905.7 467.854 Q1909.24 467.854 1911.37 465.354 Q1913.52 462.831 1913.52 458.664 L1913.52 457.715 L1909.28 457.715 M1917.78 455.956 L1917.78 470.747 L1913.52 470.747 L1913.52 466.812 Q1912.06 469.173 1909.88 470.307 Q1907.71 471.418 1904.56 471.418 Q1900.58 471.418 1898.22 469.196 Q1895.88 466.951 1895.88 463.201 Q1895.88 458.826 1898.8 456.604 Q1901.74 454.382 1907.55 454.382 L1913.52 454.382 L1913.52 453.965 Q1913.52 451.025 1911.57 449.428 Q1909.65 447.807 1906.16 447.807 Q1903.94 447.807 1901.83 448.34 Q1899.72 448.872 1897.78 449.937 L1897.78 446.002 Q1900.12 445.099 1902.32 444.659 Q1904.51 444.196 1906.6 444.196 Q1912.22 444.196 1915 447.113 Q1917.78 450.03 1917.78 455.956 Z" fill="#000000" fill-rule="evenodd" fill-opacity="1" /><path clip-path="url(#clip720)" d="M1926.11 460.516 L1926.11 444.821 L1930.37 444.821 L1930.37 460.354 Q1930.37 464.034 1931.81 465.886 Q1933.24 467.715 1936.11 467.715 Q1939.56 467.715 1941.55 465.516 Q1943.57 463.317 1943.57 459.52 L1943.57 444.821 L1947.82 444.821 L1947.82 470.747 L1943.57 470.747 L1943.57 466.766 Q1942.01 469.127 1939.95 470.284 Q1937.92 471.418 1935.21 471.418 Q1930.74 471.418 1928.43 468.641 Q1926.11 465.863 1926.11 460.516 M1936.83 444.196 L1936.83 444.196 Z" fill="#000000" fill-rule="evenodd" fill-opacity="1" /><polyline clip-path="url(#clip720)" style="stroke:#c68125; stroke-linecap:butt; stroke-linejoin:round; stroke-width:4; stroke-opacity:1; fill:none" points="
  1662.76,505.307 1796.43,505.307 
  "/>
<line clip-path="url(#clip720)" x1="1755.2" y1="505.307" x2="1704" y2="505.307" style="stroke:#c68125; stroke-width:4.9152; stroke-opacity:1"/>
<path clip-path="url(#clip720)" d="M1818.7 486.569 L1822.96 486.569 L1822.96 522.587 L1818.7 522.587 L1818.7 486.569 Z" fill="#000000" fill-rule="evenodd" fill-opacity="1" /><path clip-path="url(#clip720)" d="M1848.4 497.425 L1848.4 501.453 Q1846.6 500.527 1844.65 500.064 Q1842.71 499.601 1840.63 499.601 Q1837.45 499.601 1835.86 500.573 Q1834.28 501.546 1834.28 503.49 Q1834.28 504.972 1835.42 505.828 Q1836.55 506.661 1839.98 507.425 L1841.44 507.749 Q1845.97 508.722 1847.87 510.504 Q1849.79 512.263 1849.79 515.434 Q1849.79 519.046 1846.92 521.152 Q1844.08 523.258 1839.08 523.258 Q1836.99 523.258 1834.72 522.842 Q1832.48 522.448 1829.98 521.638 L1829.98 517.24 Q1832.34 518.467 1834.63 519.092 Q1836.92 519.694 1839.17 519.694 Q1842.18 519.694 1843.8 518.675 Q1845.42 517.634 1845.42 515.759 Q1845.42 514.022 1844.24 513.096 Q1843.08 512.171 1839.12 511.314 L1837.64 510.967 Q1833.68 510.134 1831.92 508.421 Q1830.16 506.684 1830.16 503.675 Q1830.16 500.018 1832.76 498.027 Q1835.35 496.036 1840.12 496.036 Q1842.48 496.036 1844.56 496.384 Q1846.64 496.731 1848.4 497.425 Z" fill="#000000" fill-rule="evenodd" fill-opacity="1" /><path clip-path="url(#clip720)" d="M1866.62 499.647 Q1863.2 499.647 1861.2 502.333 Q1859.21 504.995 1859.21 509.647 Q1859.21 514.3 1861.18 516.985 Q1863.17 519.647 1866.62 519.647 Q1870.02 519.647 1872.01 516.962 Q1874.01 514.277 1874.01 509.647 Q1874.01 505.041 1872.01 502.356 Q1870.02 499.647 1866.62 499.647 M1866.62 496.036 Q1872.18 496.036 1875.35 499.647 Q1878.52 503.259 1878.52 509.647 Q1878.52 516.013 1875.35 519.647 Q1872.18 523.258 1866.62 523.258 Q1861.04 523.258 1857.87 519.647 Q1854.72 516.013 1854.72 509.647 Q1854.72 503.259 1857.87 499.647 Q1861.04 496.036 1866.62 496.036 Z" fill="#000000" fill-rule="evenodd" fill-opacity="1" /><path clip-path="url(#clip720)" d="M1902.64 500.597 L1902.64 486.569 L1906.9 486.569 L1906.9 522.587 L1902.64 522.587 L1902.64 518.698 Q1901.3 521.013 1899.24 522.147 Q1897.2 523.258 1894.33 523.258 Q1889.63 523.258 1886.67 519.508 Q1883.73 515.759 1883.73 509.647 Q1883.73 503.536 1886.67 499.786 Q1889.63 496.036 1894.33 496.036 Q1897.2 496.036 1899.24 497.171 Q1901.3 498.282 1902.64 500.597 M1888.13 509.647 Q1888.13 514.346 1890.05 517.032 Q1891.99 519.694 1895.37 519.694 Q1898.75 519.694 1900.7 517.032 Q1902.64 514.346 1902.64 509.647 Q1902.64 504.948 1900.7 502.286 Q1898.75 499.601 1895.37 499.601 Q1891.99 499.601 1890.05 502.286 Q1888.13 504.948 1888.13 509.647 Z" fill="#000000" fill-rule="evenodd" fill-opacity="1" /><path clip-path="url(#clip720)" d="M1927.45 509.555 Q1922.29 509.555 1920.3 510.735 Q1918.31 511.916 1918.31 514.763 Q1918.31 517.032 1919.79 518.374 Q1921.3 519.694 1923.87 519.694 Q1927.41 519.694 1929.54 517.194 Q1931.69 514.671 1931.69 510.504 L1931.69 509.555 L1927.45 509.555 M1935.95 507.796 L1935.95 522.587 L1931.69 522.587 L1931.69 518.652 Q1930.23 521.013 1928.06 522.147 Q1925.88 523.258 1922.73 523.258 Q1918.75 523.258 1916.39 521.036 Q1914.05 518.791 1914.05 515.041 Q1914.05 510.666 1916.97 508.444 Q1919.91 506.222 1925.72 506.222 L1931.69 506.222 L1931.69 505.805 Q1931.69 502.865 1929.75 501.268 Q1927.82 499.647 1924.33 499.647 Q1922.11 499.647 1920 500.18 Q1917.89 500.712 1915.95 501.777 L1915.95 497.842 Q1918.29 496.939 1920.49 496.499 Q1922.69 496.036 1924.77 496.036 Q1930.39 496.036 1933.17 498.953 Q1935.95 501.87 1935.95 507.796 Z" fill="#000000" fill-rule="evenodd" fill-opacity="1" /><polyline clip-path="url(#clip720)" style="stroke:#00a98d; stroke-linecap:butt; stroke-linejoin:round; stroke-width:4; stroke-opacity:1; fill:none" points="
  1662.76,557.147 1796.43,557.147 
  "/>
<path clip-path="url(#clip720)" d="M1709.12 557.147 L1739.84 575.067 L1739.84 539.227 L1709.12 557.147 Z" fill="#00a98d" fill-rule="evenodd" fill-opacity="1" stroke="#000000" stroke-opacity="1" stroke-width="4.9152"/>
<path clip-path="url(#clip720)" d="M1835.09 558.224 Q1836.6 558.733 1838.01 560.399 Q1839.45 562.066 1840.88 564.983 L1845.63 574.427 L1840.6 574.427 L1836.18 565.561 Q1834.47 562.089 1832.85 560.955 Q1831.25 559.821 1828.47 559.821 L1823.38 559.821 L1823.38 574.427 L1818.7 574.427 L1818.7 539.867 L1829.26 539.867 Q1835.19 539.867 1838.1 542.344 Q1841.02 544.821 1841.02 549.821 Q1841.02 553.085 1839.49 555.237 Q1837.99 557.39 1835.09 558.224 M1823.38 543.71 L1823.38 555.978 L1829.26 555.978 Q1832.64 555.978 1834.35 554.427 Q1836.09 552.853 1836.09 549.821 Q1836.09 546.788 1834.35 545.261 Q1832.64 543.71 1829.26 543.71 L1823.38 543.71 Z" fill="#000000" fill-rule="evenodd" fill-opacity="1" /><path clip-path="url(#clip720)" d="M1862.2 561.395 Q1857.04 561.395 1855.05 562.575 Q1853.06 563.756 1853.06 566.603 Q1853.06 568.872 1854.54 570.214 Q1856.04 571.534 1858.61 571.534 Q1862.15 571.534 1864.28 569.034 Q1866.44 566.511 1866.44 562.344 L1866.44 561.395 L1862.2 561.395 M1870.7 559.636 L1870.7 574.427 L1866.44 574.427 L1866.44 570.492 Q1864.98 572.853 1862.8 573.987 Q1860.63 575.098 1857.48 575.098 Q1853.5 575.098 1851.14 572.876 Q1848.8 570.631 1848.8 566.881 Q1848.8 562.506 1851.71 560.284 Q1854.65 558.062 1860.46 558.062 L1866.44 558.062 L1866.44 557.645 Q1866.44 554.705 1864.49 553.108 Q1862.57 551.487 1859.07 551.487 Q1856.85 551.487 1854.75 552.02 Q1852.64 552.552 1850.7 553.617 L1850.7 549.682 Q1853.03 548.779 1855.23 548.339 Q1857.43 547.876 1859.51 547.876 Q1865.14 547.876 1867.92 550.793 Q1870.7 553.71 1870.7 559.636 Z" fill="#000000" fill-rule="evenodd" fill-opacity="1" /><path clip-path="url(#clip720)" d="M1896.53 552.437 L1896.53 538.409 L1900.79 538.409 L1900.79 574.427 L1896.53 574.427 L1896.53 570.538 Q1895.19 572.853 1893.13 573.987 Q1891.09 575.098 1888.22 575.098 Q1883.52 575.098 1880.56 571.348 Q1877.62 567.599 1877.62 561.487 Q1877.62 555.376 1880.56 551.626 Q1883.52 547.876 1888.22 547.876 Q1891.09 547.876 1893.13 549.011 Q1895.19 550.122 1896.53 552.437 M1882.01 561.487 Q1882.01 566.186 1883.94 568.872 Q1885.88 571.534 1889.26 571.534 Q1892.64 571.534 1894.58 568.872 Q1896.53 566.186 1896.53 561.487 Q1896.53 556.788 1894.58 554.126 Q1892.64 551.441 1889.26 551.441 Q1885.88 551.441 1883.94 554.126 Q1882.01 556.788 1882.01 561.487 Z" fill="#000000" fill-rule="evenodd" fill-opacity="1" /><path clip-path="url(#clip720)" d="M1921.34 561.395 Q1916.18 561.395 1914.19 562.575 Q1912.2 563.756 1912.2 566.603 Q1912.2 568.872 1913.68 570.214 Q1915.19 571.534 1917.76 571.534 Q1921.3 571.534 1923.43 569.034 Q1925.58 566.511 1925.58 562.344 L1925.58 561.395 L1921.34 561.395 M1929.84 559.636 L1929.84 574.427 L1925.58 574.427 L1925.58 570.492 Q1924.12 572.853 1921.94 573.987 Q1919.77 575.098 1916.62 575.098 Q1912.64 575.098 1910.28 572.876 Q1907.94 570.631 1907.94 566.881 Q1907.94 562.506 1910.86 560.284 Q1913.8 558.062 1919.61 558.062 L1925.58 558.062 L1925.58 557.645 Q1925.58 554.705 1923.63 553.108 Q1921.71 551.487 1918.22 551.487 Q1916 551.487 1913.89 552.02 Q1911.78 552.552 1909.84 553.617 L1909.84 549.682 Q1912.18 548.779 1914.38 548.339 Q1916.57 547.876 1918.66 547.876 Q1924.28 547.876 1927.06 550.793 Q1929.84 553.71 1929.84 559.636 Z" fill="#000000" fill-rule="evenodd" fill-opacity="1" /><path clip-path="url(#clip720)" d="M1938.17 564.196 L1938.17 548.501 L1942.43 548.501 L1942.43 564.034 Q1942.43 567.714 1943.87 569.566 Q1945.3 571.395 1948.17 571.395 Q1951.62 571.395 1953.61 569.196 Q1955.63 566.997 1955.63 563.2 L1955.63 548.501 L1959.88 548.501 L1959.88 574.427 L1955.63 574.427 L1955.63 570.446 Q1954.07 572.807 1952.01 573.964 Q1949.98 575.098 1947.27 575.098 Q1942.8 575.098 1940.49 572.321 Q1938.17 569.543 1938.17 564.196 M1948.89 547.876 L1948.89 547.876 Z" fill="#000000" fill-rule="evenodd" fill-opacity="1" /><path clip-path="url(#clip720)" d="M1968.84 539.867 L1973.52 539.867 L1973.52 574.427 L1968.84 574.427 L1968.84 539.867 Z" fill="#000000" fill-rule="evenodd" fill-opacity="1" /><path clip-path="url(#clip720)" d="M1982.82 539.867 L1987.5 539.867 L1987.5 574.427 L1982.82 574.427 L1982.82 539.867 Z" fill="#000000" fill-rule="evenodd" fill-opacity="1" /><path clip-path="url(#clip720)" d="M2008.36 544.474 L2002.01 561.673 L2014.72 561.673 L2008.36 544.474 M2005.72 539.867 L2011.02 539.867 L2024.19 574.427 L2019.33 574.427 L2016.18 565.561 L2000.6 565.561 L1997.45 574.427 L1992.52 574.427 L2005.72 539.867 Z" fill="#000000" fill-rule="evenodd" fill-opacity="1" /><path clip-path="url(#clip720)" d="M2029.7 539.867 L2048.06 539.867 L2048.06 543.802 L2033.98 543.802 L2033.98 552.275 Q2035 551.927 2036.02 551.765 Q2037.04 551.58 2038.06 551.58 Q2043.84 551.58 2047.22 554.751 Q2050.6 557.923 2050.6 563.339 Q2050.6 568.918 2047.13 572.02 Q2043.66 575.098 2037.34 575.098 Q2035.16 575.098 2032.89 574.728 Q2030.65 574.358 2028.24 573.617 L2028.24 568.918 Q2030.32 570.052 2032.55 570.608 Q2034.77 571.163 2037.25 571.163 Q2041.25 571.163 2043.59 569.057 Q2045.93 566.95 2045.93 563.339 Q2045.93 559.728 2043.59 557.622 Q2041.25 555.515 2037.25 555.515 Q2035.37 555.515 2033.5 555.932 Q2031.64 556.349 2029.7 557.228 L2029.7 539.867 Z" fill="#000000" fill-rule="evenodd" fill-opacity="1" /></svg>
