<?xml version="1.0" encoding="utf-8"?>
<svg xmlns="http://www.w3.org/2000/svg" xmlns:xlink="http://www.w3.org/1999/xlink" width="576" height="384" viewBox="0 0 2304 1536">
<defs>
  <clipPath id="clip800">
    <rect x="0" y="0" width="2304" height="1536"/>
  </clipPath>
</defs>
<path clip-path="url(#clip800)" d="
M0 1536 L2304 1536 L2304 0 L0 0  Z
  " fill="#ffffff" fill-rule="evenodd" fill-opacity="1"/>
<defs>
  <clipPath id="clip801">
    <rect x="460" y="0" width="1614" height="1536"/>
  </clipPath>
</defs>
<path clip-path="url(#clip800)" d="
M251.804 1347.54 L2256.76 1347.54 L2256.76 47.2441 L251.804 47.2441  Z
  " fill="#ffffff" fill-rule="evenodd" fill-opacity="1"/>
<defs>
  <clipPath id="clip802">
    <rect x="251" y="47" width="2006" height="1301"/>
  </clipPath>
</defs>
<polyline clip-path="url(#clip802)" style="stroke:#000000; stroke-linecap:butt; stroke-linejoin:round; stroke-width:2; stroke-opacity:0.1; fill:none" points="
  1051.76,1347.54 1051.76,47.2441 
  "/>
<polyline clip-path="url(#clip802)" style="stroke:#000000; stroke-linecap:butt; stroke-linejoin:round; stroke-width:2; stroke-opacity:0.1; fill:none" points="
  2066.24,1347.54 2066.24,47.2441 
  "/>
<polyline clip-path="url(#clip800)" style="stroke:#000000; stroke-linecap:butt; stroke-linejoin:round; stroke-width:4; stroke-opacity:1; fill:none" points="
  251.804,1347.54 2256.76,1347.54 
  "/>
<polyline clip-path="url(#clip800)" style="stroke:#000000; stroke-linecap:butt; stroke-linejoin:round; stroke-width:4; stroke-opacity:1; fill:none" points="
  1051.76,1347.54 1051.76,1328.64 
  "/>
<polyline clip-path="url(#clip800)" style="stroke:#000000; stroke-linecap:butt; stroke-linejoin:round; stroke-width:4; stroke-opacity:1; fill:none" points="
  2066.24,1347.54 2066.24,1328.64 
  "/>
<path clip-path="url(#clip800)" d="M1001.31 1420.89 L1008.95 1420.89 L1008.95 1394.53 L1000.64 1396.19 L1000.64 1391.94 L1008.9 1390.27 L1013.58 1390.27 L1013.58 1420.89 L1021.22 1420.89 L1021.22 1424.83 L1001.31 1424.83 L1001.31 1420.89 Z" fill="#000000" fill-rule="evenodd" fill-opacity="1" /><path clip-path="url(#clip800)" d="M1040.66 1393.35 Q1037.05 1393.35 1035.22 1396.91 Q1033.41 1400.45 1033.41 1407.58 Q1033.41 1414.69 1035.22 1418.25 Q1037.05 1421.8 1040.66 1421.8 Q1044.29 1421.8 1046.1 1418.25 Q1047.93 1414.69 1047.93 1407.58 Q1047.93 1400.45 1046.1 1396.91 Q1044.29 1393.35 1040.66 1393.35 M1040.66 1389.64 Q1046.47 1389.64 1049.53 1394.25 Q1052.6 1398.83 1052.6 1407.58 Q1052.6 1416.31 1049.53 1420.92 Q1046.47 1425.5 1040.66 1425.5 Q1034.85 1425.5 1031.77 1420.92 Q1028.72 1416.31 1028.72 1407.58 Q1028.72 1398.83 1031.77 1394.25 Q1034.85 1389.64 1040.66 1389.64 Z" fill="#000000" fill-rule="evenodd" fill-opacity="1" /><path clip-path="url(#clip800)" d="M1052.6 1383.74 L1076.72 1383.74 L1076.72 1386.94 L1052.6 1386.94 L1052.6 1383.74 Z" fill="#000000" fill-rule="evenodd" fill-opacity="1" /><path clip-path="url(#clip800)" d="M1093.51 1381.86 Q1090.95 1381.86 1089.45 1383.61 Q1087.96 1385.36 1087.96 1388.41 Q1087.96 1391.44 1089.45 1393.21 Q1090.95 1394.95 1093.51 1394.95 Q1096.07 1394.95 1097.56 1393.21 Q1099.06 1391.44 1099.06 1388.41 Q1099.06 1385.36 1097.56 1383.61 Q1096.07 1381.86 1093.51 1381.86 M1101.05 1369.96 L1101.05 1373.42 Q1099.62 1372.74 1098.16 1372.39 Q1096.71 1372.03 1095.28 1372.03 Q1091.52 1372.03 1089.52 1374.57 Q1087.55 1377.11 1087.27 1382.24 Q1088.38 1380.6 1090.05 1379.74 Q1091.72 1378.85 1093.74 1378.85 Q1097.97 1378.85 1100.41 1381.43 Q1102.88 1383.99 1102.88 1388.41 Q1102.88 1392.74 1100.32 1395.35 Q1097.76 1397.96 1093.51 1397.96 Q1088.64 1397.96 1086.06 1394.24 Q1083.49 1390.5 1083.49 1383.41 Q1083.49 1376.75 1086.65 1372.8 Q1089.81 1368.83 1095.13 1368.83 Q1096.56 1368.83 1098.01 1369.11 Q1099.47 1369.39 1101.05 1369.96 Z" fill="#000000" fill-rule="evenodd" fill-opacity="1" /><path clip-path="url(#clip800)" d="M2016.12 1420.89 L2023.76 1420.89 L2023.76 1394.53 L2015.45 1396.19 L2015.45 1391.94 L2023.72 1390.27 L2028.39 1390.27 L2028.39 1420.89 L2036.03 1420.89 L2036.03 1424.83 L2016.12 1424.83 L2016.12 1420.89 Z" fill="#000000" fill-rule="evenodd" fill-opacity="1" /><path clip-path="url(#clip800)" d="M2055.47 1393.35 Q2051.86 1393.35 2050.03 1396.91 Q2048.23 1400.45 2048.23 1407.58 Q2048.23 1414.69 2050.03 1418.25 Q2051.86 1421.8 2055.47 1421.8 Q2059.11 1421.8 2060.91 1418.25 Q2062.74 1414.69 2062.74 1407.58 Q2062.74 1400.45 2060.91 1396.91 Q2059.11 1393.35 2055.47 1393.35 M2055.47 1389.64 Q2061.28 1389.64 2064.34 1394.25 Q2067.42 1398.83 2067.42 1407.58 Q2067.42 1416.31 2064.34 1420.92 Q2061.28 1425.5 2055.47 1425.5 Q2049.66 1425.5 2046.59 1420.92 Q2043.53 1416.31 2043.53 1407.58 Q2043.53 1398.83 2046.59 1394.25 Q2049.66 1389.64 2055.47 1389.64 Z" fill="#000000" fill-rule="evenodd" fill-opacity="1" /><path clip-path="url(#clip800)" d="M2067.42 1383.74 L2091.53 1383.74 L2091.53 1386.94 L2067.42 1386.94 L2067.42 1383.74 Z" fill="#000000" fill-rule="evenodd" fill-opacity="1" /><path clip-path="url(#clip800)" d="M2111.24 1382.28 Q2113.97 1382.86 2115.49 1384.7 Q2117.03 1386.55 2117.03 1389.26 Q2117.03 1393.41 2114.17 1395.69 Q2111.32 1397.96 2106.05 1397.96 Q2104.28 1397.96 2102.4 1397.61 Q2100.54 1397.27 2098.55 1396.57 L2098.55 1392.9 Q2100.13 1393.83 2102.01 1394.3 Q2103.89 1394.77 2105.94 1394.77 Q2109.51 1394.77 2111.37 1393.36 Q2113.25 1391.95 2113.25 1389.26 Q2113.25 1386.77 2111.5 1385.38 Q2109.77 1383.97 2106.67 1383.97 L2103.4 1383.97 L2103.4 1380.85 L2106.82 1380.85 Q2109.62 1380.85 2111.11 1379.74 Q2112.59 1378.61 2112.59 1376.5 Q2112.59 1374.34 2111.05 1373.19 Q2109.53 1372.03 2106.67 1372.03 Q2105.11 1372.03 2103.32 1372.37 Q2101.54 1372.7 2099.39 1373.42 L2099.39 1370.03 Q2101.55 1369.43 2103.44 1369.13 Q2105.34 1368.83 2107.01 1368.83 Q2111.33 1368.83 2113.85 1370.81 Q2116.38 1372.76 2116.38 1376.11 Q2116.38 1378.44 2115.04 1380.06 Q2113.7 1381.66 2111.24 1382.28 Z" fill="#000000" fill-rule="evenodd" fill-opacity="1" /><path clip-path="url(#clip800)" d="M1178.03 1461.87 L1208.08 1461.87 L1208.08 1467.28 L1184.46 1467.28 L1184.46 1481.34 L1207.09 1481.34 L1207.09 1486.76 L1184.46 1486.76 L1184.46 1503.97 L1208.65 1503.97 L1208.65 1509.39 L1178.03 1509.39 L1178.03 1461.87 Z" fill="#000000" fill-rule="evenodd" fill-opacity="1" /><path clip-path="url(#clip800)" d="M1239.62 1479.21 Q1238.64 1478.64 1237.46 1478.38 Q1236.31 1478.1 1234.91 1478.1 Q1229.95 1478.1 1227.27 1481.34 Q1224.63 1484.56 1224.63 1490.61 L1224.63 1509.39 L1218.74 1509.39 L1218.74 1473.74 L1224.63 1473.74 L1224.63 1479.28 Q1226.48 1476.03 1229.44 1474.47 Q1232.4 1472.88 1236.63 1472.88 Q1237.24 1472.88 1237.97 1472.97 Q1238.7 1473.04 1239.59 1473.2 L1239.62 1479.21 Z" fill="#000000" fill-rule="evenodd" fill-opacity="1" /><path clip-path="url(#clip800)" d="M1265.28 1479.21 Q1264.29 1478.64 1263.11 1478.38 Q1261.97 1478.1 1260.57 1478.1 Q1255.6 1478.1 1252.93 1481.34 Q1250.29 1484.56 1250.29 1490.61 L1250.29 1509.39 L1244.4 1509.39 L1244.4 1473.74 L1250.29 1473.74 L1250.29 1479.28 Q1252.13 1476.03 1255.09 1474.47 Q1258.05 1472.88 1262.28 1472.88 Q1262.89 1472.88 1263.62 1472.97 Q1264.35 1473.04 1265.24 1473.2 L1265.28 1479.21 Z" fill="#000000" fill-rule="evenodd" fill-opacity="1" /><path clip-path="url(#clip800)" d="M1283.8 1477.84 Q1279.09 1477.84 1276.35 1481.54 Q1273.62 1485.2 1273.62 1491.59 Q1273.62 1497.99 1276.32 1501.68 Q1279.06 1505.34 1283.8 1505.34 Q1288.48 1505.34 1291.22 1501.65 Q1293.95 1497.96 1293.95 1491.59 Q1293.95 1485.26 1291.22 1481.57 Q1288.48 1477.84 1283.8 1477.84 M1283.8 1472.88 Q1291.44 1472.88 1295.8 1477.84 Q1300.16 1482.81 1300.16 1491.59 Q1300.16 1500.35 1295.8 1505.34 Q1291.44 1510.31 1283.8 1510.31 Q1276.13 1510.31 1271.77 1505.34 Q1267.44 1500.35 1267.44 1491.59 Q1267.44 1482.81 1271.77 1477.84 Q1276.13 1472.88 1283.8 1472.88 Z" fill="#000000" fill-rule="evenodd" fill-opacity="1" /><path clip-path="url(#clip800)" d="M1330.53 1479.21 Q1329.54 1478.64 1328.36 1478.38 Q1327.22 1478.1 1325.81 1478.1 Q1320.85 1478.1 1318.18 1481.34 Q1315.53 1484.56 1315.53 1490.61 L1315.53 1509.39 L1309.65 1509.39 L1309.65 1473.74 L1315.53 1473.74 L1315.53 1479.28 Q1317.38 1476.03 1320.34 1474.47 Q1323.3 1472.88 1327.53 1472.88 Q1328.14 1472.88 1328.87 1472.97 Q1329.6 1473.04 1330.49 1473.2 L1330.53 1479.21 Z" fill="#000000" fill-rule="evenodd" fill-opacity="1" /><polyline clip-path="url(#clip802)" style="stroke:#000000; stroke-linecap:butt; stroke-linejoin:round; stroke-width:2; stroke-opacity:0.1; fill:none" points="
  251.804,1207.78 2256.76,1207.78 
  "/>
<polyline clip-path="url(#clip802)" style="stroke:#000000; stroke-linecap:butt; stroke-linejoin:round; stroke-width:2; stroke-opacity:0.1; fill:none" points="
  251.804,701.491 2256.76,701.491 
  "/>
<polyline clip-path="url(#clip802)" style="stroke:#000000; stroke-linecap:butt; stroke-linejoin:round; stroke-width:2; stroke-opacity:0.1; fill:none" points="
  251.804,195.205 2256.76,195.205 
  "/>
<polyline clip-path="url(#clip800)" style="stroke:#000000; stroke-linecap:butt; stroke-linejoin:round; stroke-width:4; stroke-opacity:1; fill:none" points="
  251.804,1347.54 251.804,47.2441 
  "/>
<polyline clip-path="url(#clip800)" style="stroke:#000000; stroke-linecap:butt; stroke-linejoin:round; stroke-width:4; stroke-opacity:1; fill:none" points="
  251.804,1207.78 270.702,1207.78 
  "/>
<polyline clip-path="url(#clip800)" style="stroke:#000000; stroke-linecap:butt; stroke-linejoin:round; stroke-width:4; stroke-opacity:1; fill:none" points="
  251.804,701.491 270.702,701.491 
  "/>
<polyline clip-path="url(#clip800)" style="stroke:#000000; stroke-linecap:butt; stroke-linejoin:round; stroke-width:4; stroke-opacity:1; fill:none" points="
  251.804,195.205 270.702,195.205 
  "/>
<path clip-path="url(#clip800)" d="M115.411 1227.57 L123.05 1227.57 L123.05 1201.2 L114.74 1202.87 L114.74 1198.61 L123.004 1196.94 L127.68 1196.94 L127.68 1227.57 L135.319 1227.57 L135.319 1231.5 L115.411 1231.5 L115.411 1227.57 Z" fill="#000000" fill-rule="evenodd" fill-opacity="1" /><path clip-path="url(#clip800)" d="M154.763 1200.02 Q151.152 1200.02 149.323 1203.59 Q147.518 1207.13 147.518 1214.26 Q147.518 1221.36 149.323 1224.93 Q151.152 1228.47 154.763 1228.47 Q158.397 1228.47 160.203 1224.93 Q162.032 1221.36 162.032 1214.26 Q162.032 1207.13 160.203 1203.59 Q158.397 1200.02 154.763 1200.02 M154.763 1196.32 Q160.573 1196.32 163.629 1200.93 Q166.707 1205.51 166.707 1214.26 Q166.707 1222.99 163.629 1227.59 Q160.573 1232.17 154.763 1232.17 Q148.953 1232.17 145.874 1227.59 Q142.819 1222.99 142.819 1214.26 Q142.819 1205.51 145.874 1200.93 Q148.953 1196.32 154.763 1196.32 Z" fill="#000000" fill-rule="evenodd" fill-opacity="1" /><path clip-path="url(#clip800)" d="M166.707 1190.42 L190.819 1190.42 L190.819 1193.62 L166.707 1193.62 L166.707 1190.42 Z" fill="#000000" fill-rule="evenodd" fill-opacity="1" /><path clip-path="url(#clip800)" d="M209.458 1179.32 L199.866 1194.31 L209.458 1194.31 L209.458 1179.32 M208.461 1176.01 L213.238 1176.01 L213.238 1194.31 L217.244 1194.31 L217.244 1197.47 L213.238 1197.47 L213.238 1204.09 L209.458 1204.09 L209.458 1197.47 L196.781 1197.47 L196.781 1193.81 L208.461 1176.01 Z" fill="#000000" fill-rule="evenodd" fill-opacity="1" /><path clip-path="url(#clip800)" d="M116.333 721.283 L123.972 721.283 L123.972 694.918 L115.662 696.584 L115.662 692.325 L123.926 690.658 L128.601 690.658 L128.601 721.283 L136.24 721.283 L136.24 725.218 L116.333 725.218 L116.333 721.283 Z" fill="#000000" fill-rule="evenodd" fill-opacity="1" /><path clip-path="url(#clip800)" d="M155.685 693.737 Q152.074 693.737 150.245 697.302 Q148.439 700.843 148.439 707.973 Q148.439 715.079 150.245 718.644 Q152.074 722.186 155.685 722.186 Q159.319 722.186 161.124 718.644 Q162.953 715.079 162.953 707.973 Q162.953 700.843 161.124 697.302 Q159.319 693.737 155.685 693.737 M155.685 690.033 Q161.495 690.033 164.55 694.64 Q167.629 699.223 167.629 707.973 Q167.629 716.7 164.55 721.306 Q161.495 725.89 155.685 725.89 Q149.875 725.89 146.796 721.306 Q143.74 716.7 143.74 707.973 Q143.74 699.223 146.796 694.64 Q149.875 690.033 155.685 690.033 Z" fill="#000000" fill-rule="evenodd" fill-opacity="1" /><path clip-path="url(#clip800)" d="M167.629 684.135 L191.741 684.135 L191.741 687.332 L167.629 687.332 L167.629 684.135 Z" fill="#000000" fill-rule="evenodd" fill-opacity="1" /><path clip-path="url(#clip800)" d="M211.451 682.668 Q214.178 683.251 215.702 685.094 Q217.244 686.937 217.244 689.645 Q217.244 693.802 214.385 696.078 Q211.526 698.353 206.26 698.353 Q204.492 698.353 202.612 697.996 Q200.75 697.657 198.756 696.962 L198.756 693.294 Q200.336 694.216 202.217 694.686 Q204.097 695.156 206.147 695.156 Q209.721 695.156 211.583 693.745 Q213.464 692.335 213.464 689.645 Q213.464 687.163 211.714 685.771 Q209.984 684.36 206.881 684.36 L203.608 684.36 L203.608 681.238 L207.031 681.238 Q209.834 681.238 211.32 680.129 Q212.805 679 212.805 676.894 Q212.805 674.731 211.263 673.583 Q209.74 672.417 206.881 672.417 Q205.32 672.417 203.533 672.756 Q201.746 673.094 199.602 673.809 L199.602 670.424 Q201.765 669.822 203.646 669.521 Q205.546 669.22 207.219 669.22 Q211.545 669.22 214.065 671.195 Q216.586 673.151 216.586 676.499 Q216.586 678.831 215.25 680.448 Q213.915 682.047 211.451 682.668 Z" fill="#000000" fill-rule="evenodd" fill-opacity="1" /><path clip-path="url(#clip800)" d="M117.104 214.998 L124.743 214.998 L124.743 188.632 L116.433 190.299 L116.433 186.04 L124.697 184.373 L129.373 184.373 L129.373 214.998 L137.011 214.998 L137.011 218.933 L117.104 218.933 L117.104 214.998 Z" fill="#000000" fill-rule="evenodd" fill-opacity="1" /><path clip-path="url(#clip800)" d="M156.456 187.452 Q152.845 187.452 151.016 191.016 Q149.21 194.558 149.21 201.688 Q149.21 208.794 151.016 212.359 Q152.845 215.9 156.456 215.9 Q160.09 215.9 161.896 212.359 Q163.724 208.794 163.724 201.688 Q163.724 194.558 161.896 191.016 Q160.09 187.452 156.456 187.452 M156.456 183.748 Q162.266 183.748 165.321 188.354 Q168.4 192.938 168.4 201.688 Q168.4 210.414 165.321 215.021 Q162.266 219.604 156.456 219.604 Q150.646 219.604 147.567 215.021 Q144.511 210.414 144.511 201.688 Q144.511 192.938 147.567 188.354 Q150.646 183.748 156.456 183.748 Z" fill="#000000" fill-rule="evenodd" fill-opacity="1" /><path clip-path="url(#clip800)" d="M168.4 177.849 L192.512 177.849 L192.512 181.047 L168.4 181.047 L168.4 177.849 Z" fill="#000000" fill-rule="evenodd" fill-opacity="1" /><path clip-path="url(#clip800)" d="M203.984 188.325 L217.244 188.325 L217.244 191.522 L199.414 191.522 L199.414 188.325 Q201.577 186.087 205.301 182.325 Q209.044 178.545 210.003 177.454 Q211.827 175.404 212.542 173.994 Q213.276 172.564 213.276 171.191 Q213.276 168.953 211.696 167.543 Q210.135 166.132 207.614 166.132 Q205.828 166.132 203.834 166.753 Q201.859 167.373 199.602 168.633 L199.602 164.797 Q201.897 163.875 203.89 163.405 Q205.884 162.935 207.539 162.935 Q211.903 162.935 214.498 165.116 Q217.093 167.298 217.093 170.947 Q217.093 172.677 216.435 174.238 Q215.796 175.78 214.084 177.887 Q213.614 178.432 211.094 181.047 Q208.574 183.642 203.984 188.325 Z" fill="#000000" fill-rule="evenodd" fill-opacity="1" /><path clip-path="url(#clip800)" d="M18.4042 827.219 L18.4042 787.02 L23.815 787.02 L23.815 803.889 L65.9242 803.889 L65.9242 810.35 L23.815 810.35 L23.815 827.219 L18.4042 827.219 Z" fill="#000000" fill-rule="evenodd" fill-opacity="1" /><path clip-path="url(#clip800)" d="M30.2762 783.073 L30.2762 777.216 L65.9242 777.216 L65.9242 783.073 L30.2762 783.073 M16.399 783.073 L16.399 777.216 L23.815 777.216 L23.815 783.073 L16.399 783.073 Z" fill="#000000" fill-rule="evenodd" fill-opacity="1" /><path clip-path="url(#clip800)" d="M37.1193 737.208 Q33.1726 735.012 31.2947 731.956 Q29.4168 728.901 29.4168 724.763 Q29.4168 719.193 33.3317 716.169 Q37.2148 713.145 44.4081 713.145 L65.9242 713.145 L65.9242 719.034 L44.599 719.034 Q39.4746 719.034 36.992 720.848 Q34.5094 722.662 34.5094 726.386 Q34.5094 730.938 37.5331 733.579 Q40.5568 736.221 45.7767 736.221 L65.9242 736.221 L65.9242 742.109 L44.599 742.109 Q39.4428 742.109 36.992 743.924 Q34.5094 745.738 34.5094 749.526 Q34.5094 754.013 37.5649 756.655 Q40.5886 759.297 45.7767 759.297 L65.9242 759.297 L65.9242 765.185 L30.2762 765.185 L30.2762 759.297 L35.8144 759.297 Q32.536 757.292 30.9764 754.491 Q29.4168 751.69 29.4168 747.839 Q29.4168 743.956 31.3902 741.25 Q33.3636 738.513 37.1193 737.208 Z" fill="#000000" fill-rule="evenodd" fill-opacity="1" /><path clip-path="url(#clip800)" d="M46.6361 670.973 L49.5006 670.973 L49.5006 697.9 Q55.5481 697.518 58.7309 694.271 Q61.8819 690.993 61.8819 685.168 Q61.8819 681.794 61.0544 678.643 Q60.2269 675.461 58.5718 672.341 L64.1099 672.341 Q65.4467 675.492 66.147 678.803 Q66.8472 682.113 66.8472 685.518 Q66.8472 694.048 61.8819 699.045 Q56.9167 704.011 48.4503 704.011 Q39.6974 704.011 34.5731 699.3 Q29.4168 694.558 29.4168 686.537 Q29.4168 679.344 34.0638 675.174 Q38.6789 670.973 46.6361 670.973 M44.9173 676.829 Q40.1112 676.893 37.2466 679.535 Q34.3821 682.145 34.3821 686.473 Q34.3821 691.375 37.1512 694.335 Q39.9202 697.263 44.9492 697.709 L44.9173 676.829 Z" fill="#000000" fill-rule="evenodd" fill-opacity="1" /><path clip-path="url(#clip800)" d="M16.4626 626.572 Q23.7832 630.837 30.9446 632.906 Q38.106 634.975 45.4584 634.975 Q52.8108 634.975 60.0359 632.906 Q67.2291 630.805 74.5179 626.572 L74.5179 631.664 Q67.0382 636.439 59.8131 638.826 Q52.588 641.181 45.4584 641.181 Q38.3606 641.181 31.1674 638.826 Q23.9742 636.471 16.4626 631.664 L16.4626 626.572 Z" fill="#000000" fill-rule="evenodd" fill-opacity="1" /><path clip-path="url(#clip800)" d="M31.3265 592.484 L36.8647 592.484 Q35.5916 594.966 34.955 597.64 Q34.3184 600.313 34.3184 603.178 Q34.3184 607.538 35.6552 609.735 Q36.992 611.899 39.6656 611.899 Q41.7026 611.899 42.8803 610.339 Q44.0261 608.78 45.0765 604.069 L45.5221 602.064 Q46.8589 595.826 49.3097 593.216 Q51.7286 590.574 56.0891 590.574 Q61.0544 590.574 63.9508 594.521 Q66.8472 598.435 66.8472 605.31 Q66.8472 608.175 66.2743 611.294 Q65.7332 614.382 64.6192 617.819 L58.5718 617.819 Q60.2587 614.573 61.118 611.422 Q61.9456 608.27 61.9456 605.183 Q61.9456 601.045 60.5451 598.817 Q59.1129 596.589 56.5347 596.589 Q54.1476 596.589 52.8745 598.213 Q51.6013 599.804 50.4237 605.247 L49.9462 607.284 Q48.8004 612.726 46.4451 615.145 Q44.058 617.564 39.9202 617.564 Q34.8913 617.564 32.1541 614 Q29.4168 610.435 29.4168 603.878 Q29.4168 600.632 29.8943 597.767 Q30.3717 594.902 31.3265 592.484 Z" fill="#000000" fill-rule="evenodd" fill-opacity="1" /><path clip-path="url(#clip800)" d="M16.4626 582.171 L16.4626 577.079 Q23.9742 572.304 31.1674 569.949 Q38.3606 567.562 45.4584 567.562 Q52.588 567.562 59.8131 569.949 Q67.0382 572.304 74.5179 577.079 L74.5179 582.171 Q67.2291 577.938 60.0359 575.869 Q52.8108 573.768 45.4584 573.768 Q38.106 573.768 30.9446 575.869 Q23.7832 577.938 16.4626 582.171 Z" fill="#000000" fill-rule="evenodd" fill-opacity="1" /><polyline clip-path="url(#clip802)" style="stroke:#009af9; stroke-linecap:butt; stroke-linejoin:round; stroke-width:12; stroke-opacity:1; fill:none" points="
  1516.69,1310.74 1400.84,1253.62 1259.61,1161.09 1092.69,1051.07 
  "/>
<line clip-path="url(#clip802)" x1="1516.69" y1="1310.74" x2="1516.69" y2="1294.74" style="stroke:#009af9; stroke-width:3.072; stroke-opacity:1"/>
<line clip-path="url(#clip802)" x1="1516.69" y1="1310.74" x2="1500.69" y2="1310.74" style="stroke:#009af9; stroke-width:3.072; stroke-opacity:1"/>
<line clip-path="url(#clip802)" x1="1516.69" y1="1310.74" x2="1516.69" y2="1326.74" style="stroke:#009af9; stroke-width:3.072; stroke-opacity:1"/>
<line clip-path="url(#clip802)" x1="1516.69" y1="1310.74" x2="1532.69" y2="1310.74" style="stroke:#009af9; stroke-width:3.072; stroke-opacity:1"/>
<line clip-path="url(#clip802)" x1="1400.84" y1="1253.62" x2="1400.84" y2="1237.62" style="stroke:#009af9; stroke-width:3.072; stroke-opacity:1"/>
<line clip-path="url(#clip802)" x1="1400.84" y1="1253.62" x2="1384.84" y2="1253.62" style="stroke:#009af9; stroke-width:3.072; stroke-opacity:1"/>
<line clip-path="url(#clip802)" x1="1400.84" y1="1253.62" x2="1400.84" y2="1269.62" style="stroke:#009af9; stroke-width:3.072; stroke-opacity:1"/>
<line clip-path="url(#clip802)" x1="1400.84" y1="1253.62" x2="1416.84" y2="1253.62" style="stroke:#009af9; stroke-width:3.072; stroke-opacity:1"/>
<line clip-path="url(#clip802)" x1="1259.61" y1="1161.09" x2="1259.61" y2="1145.09" style="stroke:#009af9; stroke-width:3.072; stroke-opacity:1"/>
<line clip-path="url(#clip802)" x1="1259.61" y1="1161.09" x2="1243.61" y2="1161.09" style="stroke:#009af9; stroke-width:3.072; stroke-opacity:1"/>
<line clip-path="url(#clip802)" x1="1259.61" y1="1161.09" x2="1259.61" y2="1177.09" style="stroke:#009af9; stroke-width:3.072; stroke-opacity:1"/>
<line clip-path="url(#clip802)" x1="1259.61" y1="1161.09" x2="1275.61" y2="1161.09" style="stroke:#009af9; stroke-width:3.072; stroke-opacity:1"/>
<line clip-path="url(#clip802)" x1="1092.69" y1="1051.07" x2="1092.69" y2="1035.07" style="stroke:#009af9; stroke-width:3.072; stroke-opacity:1"/>
<line clip-path="url(#clip802)" x1="1092.69" y1="1051.07" x2="1076.69" y2="1051.07" style="stroke:#009af9; stroke-width:3.072; stroke-opacity:1"/>
<line clip-path="url(#clip802)" x1="1092.69" y1="1051.07" x2="1092.69" y2="1067.07" style="stroke:#009af9; stroke-width:3.072; stroke-opacity:1"/>
<line clip-path="url(#clip802)" x1="1092.69" y1="1051.07" x2="1108.69" y2="1051.07" style="stroke:#009af9; stroke-width:3.072; stroke-opacity:1"/>
<polyline clip-path="url(#clip802)" style="stroke:#e26f46; stroke-linecap:butt; stroke-linejoin:round; stroke-width:12; stroke-opacity:1; fill:none" points="
  1463.67,1154.65 1318.79,1096.06 1183.16,1008.58 1024.87,911.65 
  "/>
<circle clip-path="url(#clip802)" cx="1463.67" cy="1154.65" r="14" fill="#e26f46" fill-rule="evenodd" fill-opacity="1" stroke="#000000" stroke-opacity="1" stroke-width="3.072"/>
<circle clip-path="url(#clip802)" cx="1318.79" cy="1096.06" r="14" fill="#e26f46" fill-rule="evenodd" fill-opacity="1" stroke="#000000" stroke-opacity="1" stroke-width="3.072"/>
<circle clip-path="url(#clip802)" cx="1183.16" cy="1008.58" r="14" fill="#e26f46" fill-rule="evenodd" fill-opacity="1" stroke="#000000" stroke-opacity="1" stroke-width="3.072"/>
<circle clip-path="url(#clip802)" cx="1024.87" cy="911.65" r="14" fill="#e26f46" fill-rule="evenodd" fill-opacity="1" stroke="#000000" stroke-opacity="1" stroke-width="3.072"/>
<polyline clip-path="url(#clip802)" style="stroke:#3da44d; stroke-linecap:butt; stroke-linejoin:round; stroke-width:12; stroke-opacity:1; fill:none" points="
  1723.36,1180.46 1515.97,1068.37 1328.44,944.924 1005.25,905.542 
  "/>
<line clip-path="url(#clip802)" x1="1723.36" y1="1180.46" x2="1723.36" y2="1164.46" style="stroke:#3da44d; stroke-width:3.072; stroke-opacity:1"/>
<line clip-path="url(#clip802)" x1="1723.36" y1="1180.46" x2="1707.36" y2="1180.46" style="stroke:#3da44d; stroke-width:3.072; stroke-opacity:1"/>
<line clip-path="url(#clip802)" x1="1723.36" y1="1180.46" x2="1723.36" y2="1196.46" style="stroke:#3da44d; stroke-width:3.072; stroke-opacity:1"/>
<line clip-path="url(#clip802)" x1="1723.36" y1="1180.46" x2="1739.36" y2="1180.46" style="stroke:#3da44d; stroke-width:3.072; stroke-opacity:1"/>
<line clip-path="url(#clip802)" x1="1515.97" y1="1068.37" x2="1515.97" y2="1052.37" style="stroke:#3da44d; stroke-width:3.072; stroke-opacity:1"/>
<line clip-path="url(#clip802)" x1="1515.97" y1="1068.37" x2="1499.97" y2="1068.37" style="stroke:#3da44d; stroke-width:3.072; stroke-opacity:1"/>
<line clip-path="url(#clip802)" x1="1515.97" y1="1068.37" x2="1515.97" y2="1084.37" style="stroke:#3da44d; stroke-width:3.072; stroke-opacity:1"/>
<line clip-path="url(#clip802)" x1="1515.97" y1="1068.37" x2="1531.97" y2="1068.37" style="stroke:#3da44d; stroke-width:3.072; stroke-opacity:1"/>
<line clip-path="url(#clip802)" x1="1328.44" y1="944.924" x2="1328.44" y2="928.924" style="stroke:#3da44d; stroke-width:3.072; stroke-opacity:1"/>
<line clip-path="url(#clip802)" x1="1328.44" y1="944.924" x2="1312.44" y2="944.924" style="stroke:#3da44d; stroke-width:3.072; stroke-opacity:1"/>
<line clip-path="url(#clip802)" x1="1328.44" y1="944.924" x2="1328.44" y2="960.924" style="stroke:#3da44d; stroke-width:3.072; stroke-opacity:1"/>
<line clip-path="url(#clip802)" x1="1328.44" y1="944.924" x2="1344.44" y2="944.924" style="stroke:#3da44d; stroke-width:3.072; stroke-opacity:1"/>
<line clip-path="url(#clip802)" x1="1005.25" y1="905.542" x2="1005.25" y2="889.542" style="stroke:#3da44d; stroke-width:3.072; stroke-opacity:1"/>
<line clip-path="url(#clip802)" x1="1005.25" y1="905.542" x2="989.251" y2="905.542" style="stroke:#3da44d; stroke-width:3.072; stroke-opacity:1"/>
<line clip-path="url(#clip802)" x1="1005.25" y1="905.542" x2="1005.25" y2="921.542" style="stroke:#3da44d; stroke-width:3.072; stroke-opacity:1"/>
<line clip-path="url(#clip802)" x1="1005.25" y1="905.542" x2="1021.25" y2="905.542" style="stroke:#3da44d; stroke-width:3.072; stroke-opacity:1"/>
<polyline clip-path="url(#clip802)" style="stroke:#c271d2; stroke-linecap:butt; stroke-linejoin:round; stroke-width:12; stroke-opacity:1; fill:none" points="
  1405.14,1101.16 1220.16,1064.2 1028.66,1036.24 864.583,972.231 
  "/>
<path clip-path="url(#clip802)" d="M1405.14 1085.16 L1389.14 1101.16 L1405.14 1117.16 L1421.14 1101.16 L1405.14 1085.16 Z" fill="#c271d2" fill-rule="evenodd" fill-opacity="1" stroke="#000000" stroke-opacity="1" stroke-width="3.072"/>
<path clip-path="url(#clip802)" d="M1220.16 1048.2 L1204.16 1064.2 L1220.16 1080.2 L1236.16 1064.2 L1220.16 1048.2 Z" fill="#c271d2" fill-rule="evenodd" fill-opacity="1" stroke="#000000" stroke-opacity="1" stroke-width="3.072"/>
<path clip-path="url(#clip802)" d="M1028.66 1020.24 L1012.66 1036.24 L1028.66 1052.24 L1044.66 1036.24 L1028.66 1020.24 Z" fill="#c271d2" fill-rule="evenodd" fill-opacity="1" stroke="#000000" stroke-opacity="1" stroke-width="3.072"/>
<path clip-path="url(#clip802)" d="M864.583 956.231 L848.583 972.231 L864.583 988.231 L880.583 972.231 L864.583 956.231 Z" fill="#c271d2" fill-rule="evenodd" fill-opacity="1" stroke="#000000" stroke-opacity="1" stroke-width="3.072"/>
<polyline clip-path="url(#clip802)" style="stroke:#ac8d18; stroke-linecap:butt; stroke-linejoin:round; stroke-width:12; stroke-opacity:1; fill:none" points="
  1652.25,1185.39 1571.99,1143.46 1537.97,1088.83 1384.04,1033.02 
  "/>
<path clip-path="url(#clip802)" d="M1668.25 1169.39 L1636.25 1169.39 L1652.25 1201.39 L1668.25 1169.39 Z" fill="#ac8d18" fill-rule="evenodd" fill-opacity="1" stroke="#000000" stroke-opacity="1" stroke-width="3.072"/>
<path clip-path="url(#clip802)" d="M1587.99 1127.46 L1555.99 1127.46 L1571.99 1159.46 L1587.99 1127.46 Z" fill="#ac8d18" fill-rule="evenodd" fill-opacity="1" stroke="#000000" stroke-opacity="1" stroke-width="3.072"/>
<path clip-path="url(#clip802)" d="M1553.97 1072.83 L1521.97 1072.83 L1537.97 1104.83 L1553.97 1072.83 Z" fill="#ac8d18" fill-rule="evenodd" fill-opacity="1" stroke="#000000" stroke-opacity="1" stroke-width="3.072"/>
<path clip-path="url(#clip802)" d="M1400.04 1017.02 L1368.04 1017.02 L1384.04 1049.02 L1400.04 1017.02 Z" fill="#ac8d18" fill-rule="evenodd" fill-opacity="1" stroke="#000000" stroke-opacity="1" stroke-width="3.072"/>
<polyline clip-path="url(#clip802)" style="stroke:#00a9ad; stroke-linecap:butt; stroke-linejoin:round; stroke-width:12; stroke-opacity:1; fill:none" points="
  1531.41,1162.26 1420.38,1124.89 1304.04,1048.81 1178.98,990.693 
  "/>
<path clip-path="url(#clip802)" d="M1531.41 1146.26 L1518.9 1152.29 L1515.81 1165.83 L1524.46 1176.68 L1538.35 1176.68 L1547.01 1165.83 L1543.92 1152.29 Z" fill="#00a9ad" fill-rule="evenodd" fill-opacity="1" stroke="#000000" stroke-opacity="1" stroke-width="3.072"/>
<path clip-path="url(#clip802)" d="M1420.38 1108.89 L1407.86 1114.92 L1404.78 1128.46 L1413.43 1139.3 L1427.32 1139.3 L1435.98 1128.46 L1432.89 1114.92 Z" fill="#00a9ad" fill-rule="evenodd" fill-opacity="1" stroke="#000000" stroke-opacity="1" stroke-width="3.072"/>
<path clip-path="url(#clip802)" d="M1304.04 1032.81 L1291.53 1038.84 L1288.44 1052.38 L1297.1 1063.23 L1310.99 1063.23 L1319.64 1052.38 L1316.55 1038.84 Z" fill="#00a9ad" fill-rule="evenodd" fill-opacity="1" stroke="#000000" stroke-opacity="1" stroke-width="3.072"/>
<path clip-path="url(#clip802)" d="M1178.98 974.693 L1166.47 980.725 L1163.38 994.261 L1172.04 1005.11 L1185.93 1005.11 L1194.58 994.261 L1191.49 980.725 Z" fill="#00a9ad" fill-rule="evenodd" fill-opacity="1" stroke="#000000" stroke-opacity="1" stroke-width="3.072"/>
<polyline clip-path="url(#clip802)" style="stroke:#ed5d92; stroke-linecap:butt; stroke-linejoin:round; stroke-width:12; stroke-opacity:1; fill:none" points="
  875.456,1217.19 710.72,1171.8 523.326,1104.86 308.548,1035.14 
  "/>
<path clip-path="url(#clip802)" d="M875.456 1233.19 L861.6 1225.19 L861.6 1209.19 L875.456 1201.19 L889.312 1209.19 L889.312 1225.19 Z" fill="#ed5d92" fill-rule="evenodd" fill-opacity="1" stroke="#000000" stroke-opacity="1" stroke-width="3.072"/>
<path clip-path="url(#clip802)" d="M710.72 1187.8 L696.864 1179.8 L696.864 1163.8 L710.72 1155.8 L724.576 1163.8 L724.576 1179.8 Z" fill="#ed5d92" fill-rule="evenodd" fill-opacity="1" stroke="#000000" stroke-opacity="1" stroke-width="3.072"/>
<path clip-path="url(#clip802)" d="M523.326 1120.86 L509.47 1112.86 L509.47 1096.86 L523.326 1088.86 L537.182 1096.86 L537.182 1112.86 Z" fill="#ed5d92" fill-rule="evenodd" fill-opacity="1" stroke="#000000" stroke-opacity="1" stroke-width="3.072"/>
<path clip-path="url(#clip802)" d="M308.548 1051.14 L294.692 1043.14 L294.692 1027.14 L308.548 1019.14 L322.404 1027.14 L322.404 1043.14 Z" fill="#ed5d92" fill-rule="evenodd" fill-opacity="1" stroke="#000000" stroke-opacity="1" stroke-width="3.072"/>
<polyline clip-path="url(#clip802)" style="stroke:#c68125; stroke-linecap:butt; stroke-linejoin:round; stroke-width:12; stroke-opacity:1; fill:none" points="
  2200.01,883.534 1424.54,760.194 1042.55,880.232 613.291,84.0448 
  "/>
<line clip-path="url(#clip802)" x1="2216.01" y1="883.534" x2="2184.01" y2="883.534" style="stroke:#c68125; stroke-width:3.072; stroke-opacity:1"/>
<line clip-path="url(#clip802)" x1="1440.54" y1="760.194" x2="1408.54" y2="760.194" style="stroke:#c68125; stroke-width:3.072; stroke-opacity:1"/>
<line clip-path="url(#clip802)" x1="1058.55" y1="880.232" x2="1026.55" y2="880.232" style="stroke:#c68125; stroke-width:3.072; stroke-opacity:1"/>
<line clip-path="url(#clip802)" x1="629.291" y1="84.0448" x2="597.291" y2="84.0448" style="stroke:#c68125; stroke-width:3.072; stroke-opacity:1"/>
<polyline clip-path="url(#clip802)" style="stroke:#00a98d; stroke-linecap:butt; stroke-linejoin:round; stroke-width:12; stroke-opacity:1; fill:none" points="
  1291,816.123 1467.75,807.631 732.439,776.905 730.785,735.33 
  "/>
<path clip-path="url(#clip802)" d="M1278.2 816.123 L1297.4 827.323 L1297.4 804.923 L1278.2 816.123 Z" fill="#00a98d" fill-rule="evenodd" fill-opacity="1" stroke="#000000" stroke-opacity="1" stroke-width="3.072"/>
<path clip-path="url(#clip802)" d="M1454.95 807.631 L1474.15 818.831 L1474.15 796.431 L1454.95 807.631 Z" fill="#00a98d" fill-rule="evenodd" fill-opacity="1" stroke="#000000" stroke-opacity="1" stroke-width="3.072"/>
<path clip-path="url(#clip802)" d="M719.639 776.905 L738.839 788.105 L738.839 765.705 L719.639 776.905 Z" fill="#00a98d" fill-rule="evenodd" fill-opacity="1" stroke="#000000" stroke-opacity="1" stroke-width="3.072"/>
<path clip-path="url(#clip802)" d="M717.985 735.33 L737.185 746.53 L737.185 724.13 L717.985 735.33 Z" fill="#00a98d" fill-rule="evenodd" fill-opacity="1" stroke="#000000" stroke-opacity="1" stroke-width="3.072"/>
<path clip-path="url(#clip800)" d="
M1640.49 608.987 L2189.92 608.987 L2189.92 90.5872 L1640.49 90.5872  Z
  " fill="#ffffff" fill-rule="evenodd" fill-opacity="1"/>
<polyline clip-path="url(#clip800)" style="stroke:#000000; stroke-linecap:butt; stroke-linejoin:round; stroke-width:4; stroke-opacity:1; fill:none" points="
  1640.49,608.987 2189.92,608.987 2189.92,90.5872 1640.49,90.5872 1640.49,608.987 
  "/>
<polyline clip-path="url(#clip800)" style="stroke:#009af9; stroke-linecap:butt; stroke-linejoin:round; stroke-width:4; stroke-opacity:1; fill:none" points="
  1662.76,142.427 1796.43,142.427 
  "/>
<line clip-path="url(#clip800)" x1="1729.6" y1="142.427" x2="1729.6" y2="116.827" style="stroke:#009af9; stroke-width:4.9152; stroke-opacity:1"/>
<line clip-path="url(#clip800)" x1="1729.6" y1="142.427" x2="1704" y2="142.427" style="stroke:#009af9; stroke-width:4.9152; stroke-opacity:1"/>
<line clip-path="url(#clip800)" x1="1729.6" y1="142.427" x2="1729.6" y2="168.027" style="stroke:#009af9; stroke-width:4.9152; stroke-opacity:1"/>
<line clip-path="url(#clip800)" x1="1729.6" y1="142.427" x2="1755.2" y2="142.427" style="stroke:#009af9; stroke-width:4.9152; stroke-opacity:1"/>
<path clip-path="url(#clip800)" d="M1835.09 143.504 Q1836.6 144.013 1838.01 145.679 Q1839.45 147.346 1840.88 150.263 L1845.63 159.707 L1840.6 159.707 L1836.18 150.841 Q1834.47 147.369 1832.85 146.235 Q1831.25 145.101 1828.47 145.101 L1823.38 145.101 L1823.38 159.707 L1818.7 159.707 L1818.7 125.147 L1829.26 125.147 Q1835.19 125.147 1838.1 127.624 Q1841.02 130.101 1841.02 135.101 Q1841.02 138.365 1839.49 140.517 Q1837.99 142.67 1835.09 143.504 M1823.38 128.99 L1823.38 141.258 L1829.26 141.258 Q1832.64 141.258 1834.35 139.707 Q1836.09 138.133 1836.09 135.101 Q1836.09 132.068 1834.35 130.541 Q1832.64 128.99 1829.26 128.99 L1823.38 128.99 Z" fill="#000000" fill-rule="evenodd" fill-opacity="1" /><path clip-path="url(#clip800)" d="M1859.38 136.767 Q1855.95 136.767 1853.96 139.453 Q1851.97 142.115 1851.97 146.767 Q1851.97 151.42 1853.94 154.105 Q1855.93 156.767 1859.38 156.767 Q1862.78 156.767 1864.77 154.082 Q1866.76 151.397 1866.76 146.767 Q1866.76 142.161 1864.77 139.476 Q1862.78 136.767 1859.38 136.767 M1859.38 133.156 Q1864.93 133.156 1868.1 136.767 Q1871.27 140.379 1871.27 146.767 Q1871.27 153.133 1868.1 156.767 Q1864.93 160.378 1859.38 160.378 Q1853.8 160.378 1850.63 156.767 Q1847.48 153.133 1847.48 146.767 Q1847.48 140.379 1850.63 136.767 Q1853.8 133.156 1859.38 133.156 Z" fill="#000000" fill-rule="evenodd" fill-opacity="1" /><path clip-path="url(#clip800)" d="M1894.86 134.545 L1894.86 138.573 Q1893.06 137.647 1891.11 137.184 Q1889.17 136.721 1887.08 136.721 Q1883.91 136.721 1882.32 137.693 Q1880.74 138.666 1880.74 140.61 Q1880.74 142.092 1881.88 142.948 Q1883.01 143.781 1886.44 144.545 L1887.89 144.869 Q1892.43 145.842 1894.33 147.624 Q1896.25 149.383 1896.25 152.554 Q1896.25 156.166 1893.38 158.272 Q1890.53 160.378 1885.53 160.378 Q1883.45 160.378 1881.18 159.962 Q1878.94 159.568 1876.44 158.758 L1876.44 154.36 Q1878.8 155.587 1881.09 156.212 Q1883.38 156.814 1885.63 156.814 Q1888.63 156.814 1890.26 155.795 Q1891.88 154.754 1891.88 152.879 Q1891.88 151.142 1890.7 150.216 Q1889.54 149.291 1885.58 148.434 L1884.1 148.087 Q1880.14 147.254 1878.38 145.541 Q1876.62 143.804 1876.62 140.795 Q1876.62 137.138 1879.21 135.147 Q1881.81 133.156 1886.57 133.156 Q1888.94 133.156 1891.02 133.504 Q1893.1 133.851 1894.86 134.545 Z" fill="#000000" fill-rule="evenodd" fill-opacity="1" /><path clip-path="url(#clip800)" d="M1925.21 145.679 L1925.21 147.763 L1905.63 147.763 Q1905.9 152.161 1908.26 154.476 Q1910.65 156.767 1914.88 156.767 Q1917.34 156.767 1919.63 156.166 Q1921.94 155.564 1924.21 154.36 L1924.21 158.388 Q1921.92 159.36 1919.51 159.869 Q1917.11 160.378 1914.63 160.378 Q1908.43 160.378 1904.79 156.767 Q1901.18 153.156 1901.18 146.999 Q1901.18 140.633 1904.61 136.906 Q1908.06 133.156 1913.89 133.156 Q1919.12 133.156 1922.15 136.536 Q1925.21 139.892 1925.21 145.679 M1920.95 144.429 Q1920.9 140.934 1918.98 138.851 Q1917.08 136.767 1913.94 136.767 Q1910.37 136.767 1908.22 138.781 Q1906.09 140.795 1905.76 144.453 L1920.95 144.429 Z" fill="#000000" fill-rule="evenodd" fill-opacity="1" /><path clip-path="url(#clip800)" d="M1953.75 144.059 L1953.75 159.707 L1949.49 159.707 L1949.49 144.198 Q1949.49 140.517 1948.06 138.689 Q1946.62 136.86 1943.75 136.86 Q1940.3 136.86 1938.31 139.059 Q1936.32 141.258 1936.32 145.054 L1936.32 159.707 L1932.04 159.707 L1932.04 133.781 L1936.32 133.781 L1936.32 137.809 Q1937.85 135.471 1939.91 134.314 Q1941.99 133.156 1944.7 133.156 Q1949.17 133.156 1951.46 135.934 Q1953.75 138.689 1953.75 144.059 Z" fill="#000000" fill-rule="evenodd" fill-opacity="1" /><path clip-path="url(#clip800)" d="M1980.86 146.767 Q1980.86 142.068 1978.91 139.406 Q1976.99 136.721 1973.61 136.721 Q1970.23 136.721 1968.29 139.406 Q1966.37 142.068 1966.37 146.767 Q1966.37 151.466 1968.29 154.152 Q1970.23 156.814 1973.61 156.814 Q1976.99 156.814 1978.91 154.152 Q1980.86 151.466 1980.86 146.767 M1966.37 137.717 Q1967.71 135.402 1969.75 134.291 Q1971.81 133.156 1974.65 133.156 Q1979.38 133.156 1982.32 136.906 Q1985.28 140.656 1985.28 146.767 Q1985.28 152.879 1982.32 156.628 Q1979.38 160.378 1974.65 160.378 Q1971.81 160.378 1969.75 159.267 Q1967.71 158.133 1966.37 155.818 L1966.37 159.707 L1962.08 159.707 L1962.08 123.689 L1966.37 123.689 L1966.37 137.717 Z" fill="#000000" fill-rule="evenodd" fill-opacity="1" /><path clip-path="url(#clip800)" d="M2007.36 137.763 Q2006.64 137.346 2005.79 137.161 Q2004.95 136.953 2003.94 136.953 Q2000.32 136.953 1998.38 139.314 Q1996.46 141.652 1996.46 146.05 L1996.46 159.707 L1992.18 159.707 L1992.18 133.781 L1996.46 133.781 L1996.46 137.809 Q1997.8 135.448 1999.95 134.314 Q2002.11 133.156 2005.19 133.156 Q2005.63 133.156 2006.16 133.226 Q2006.69 133.272 2007.34 133.388 L2007.36 137.763 Z" fill="#000000" fill-rule="evenodd" fill-opacity="1" /><path clip-path="url(#clip800)" d="M2020.83 136.767 Q2017.41 136.767 2015.42 139.453 Q2013.43 142.115 2013.43 146.767 Q2013.43 151.42 2015.39 154.105 Q2017.38 156.767 2020.83 156.767 Q2024.24 156.767 2026.23 154.082 Q2028.22 151.397 2028.22 146.767 Q2028.22 142.161 2026.23 139.476 Q2024.24 136.767 2020.83 136.767 M2020.83 133.156 Q2026.39 133.156 2029.56 136.767 Q2032.73 140.379 2032.73 146.767 Q2032.73 153.133 2029.56 156.767 Q2026.39 160.378 2020.83 160.378 Q2015.25 160.378 2012.08 156.767 Q2008.94 153.133 2008.94 146.767 Q2008.94 140.379 2012.08 136.767 Q2015.25 133.156 2020.83 133.156 Z" fill="#000000" fill-rule="evenodd" fill-opacity="1" /><path clip-path="url(#clip800)" d="M2058.45 134.777 L2058.45 138.758 Q2056.64 137.763 2054.81 137.277 Q2053.01 136.767 2051.16 136.767 Q2047.01 136.767 2044.72 139.406 Q2042.43 142.022 2042.43 146.767 Q2042.43 151.513 2044.72 154.152 Q2047.01 156.767 2051.16 156.767 Q2053.01 156.767 2054.81 156.281 Q2056.64 155.772 2058.45 154.777 L2058.45 158.712 Q2056.67 159.545 2054.75 159.962 Q2052.85 160.378 2050.69 160.378 Q2044.84 160.378 2041.39 156.698 Q2037.94 153.017 2037.94 146.767 Q2037.94 140.425 2041.41 136.791 Q2044.91 133.156 2050.97 133.156 Q2052.94 133.156 2054.81 133.573 Q2056.69 133.967 2058.45 134.777 Z" fill="#000000" fill-rule="evenodd" fill-opacity="1" /><path clip-path="url(#clip800)" d="M2065.69 123.689 L2069.98 123.689 L2069.98 144.962 L2082.68 133.781 L2088.12 133.781 L2074.37 145.911 L2088.7 159.707 L2083.15 159.707 L2069.98 147.045 L2069.98 159.707 L2065.69 159.707 L2065.69 123.689 Z" fill="#000000" fill-rule="evenodd" fill-opacity="1" /><path clip-path="url(#clip800)" d="M2097.94 155.772 L2114.26 155.772 L2114.26 159.707 L2092.31 159.707 L2092.31 155.772 Q2094.98 153.017 2099.56 148.388 Q2104.17 143.735 2105.35 142.392 Q2107.59 139.869 2108.47 138.133 Q2109.37 136.374 2109.37 134.684 Q2109.37 131.93 2107.43 130.193 Q2105.51 128.457 2102.41 128.457 Q2100.21 128.457 2097.75 129.221 Q2095.32 129.985 2092.55 131.536 L2092.55 126.814 Q2095.37 125.68 2097.82 125.101 Q2100.28 124.522 2102.31 124.522 Q2107.68 124.522 2110.88 127.207 Q2114.07 129.893 2114.07 134.383 Q2114.07 136.513 2113.26 138.434 Q2112.48 140.332 2110.37 142.925 Q2109.79 143.596 2106.69 146.814 Q2103.59 150.008 2097.94 155.772 Z" fill="#000000" fill-rule="evenodd" fill-opacity="1" /><path clip-path="url(#clip800)" d="M2138.24 141.073 Q2141.6 141.791 2143.47 144.059 Q2145.37 146.328 2145.37 149.661 Q2145.37 154.777 2141.85 157.578 Q2138.33 160.378 2131.85 160.378 Q2129.68 160.378 2127.36 159.939 Q2125.07 159.522 2122.62 158.666 L2122.62 154.152 Q2124.56 155.286 2126.87 155.865 Q2129.19 156.443 2131.71 156.443 Q2136.11 156.443 2138.4 154.707 Q2140.72 152.971 2140.72 149.661 Q2140.72 146.605 2138.56 144.892 Q2136.43 143.156 2132.62 143.156 L2128.59 143.156 L2128.59 139.314 L2132.8 139.314 Q2136.25 139.314 2138.08 137.948 Q2139.91 136.559 2139.91 133.967 Q2139.91 131.305 2138.01 129.893 Q2136.13 128.457 2132.62 128.457 Q2130.69 128.457 2128.49 128.874 Q2126.3 129.291 2123.66 130.17 L2123.66 126.004 Q2126.32 125.263 2128.63 124.893 Q2130.97 124.522 2133.03 124.522 Q2138.36 124.522 2141.46 126.953 Q2144.56 129.36 2144.56 133.48 Q2144.56 136.351 2142.92 138.342 Q2141.27 140.309 2138.24 141.073 Z" fill="#000000" fill-rule="evenodd" fill-opacity="1" /><polyline clip-path="url(#clip800)" style="stroke:#e26f46; stroke-linecap:butt; stroke-linejoin:round; stroke-width:4; stroke-opacity:1; fill:none" points="
  1662.76,194.267 1796.43,194.267 
  "/>
<circle clip-path="url(#clip800)" cx="1729.6" cy="194.267" r="23" fill="#e26f46" fill-rule="evenodd" fill-opacity="1" stroke="#000000" stroke-opacity="1" stroke-width="4.9152"/>
<path clip-path="url(#clip800)" d="M1818.7 176.987 L1823.38 176.987 L1823.38 191.594 L1838.89 176.987 L1844.91 176.987 L1827.76 193.098 L1846.14 211.547 L1839.98 211.547 L1823.38 194.904 L1823.38 211.547 L1818.7 211.547 L1818.7 176.987 Z" fill="#000000" fill-rule="evenodd" fill-opacity="1" /><path clip-path="url(#clip800)" d="M1846.55 185.621 L1851.07 185.621 L1859.17 207.381 L1867.27 185.621 L1871.78 185.621 L1862.06 211.547 L1856.27 211.547 L1846.55 185.621 Z" fill="#000000" fill-rule="evenodd" fill-opacity="1" /><path clip-path="url(#clip800)" d="M1889.45 198.515 Q1884.28 198.515 1882.29 199.695 Q1880.3 200.876 1880.3 203.723 Q1880.3 205.992 1881.78 207.334 Q1883.29 208.654 1885.86 208.654 Q1889.4 208.654 1891.53 206.154 Q1893.68 203.631 1893.68 199.464 L1893.68 198.515 L1889.45 198.515 M1897.94 196.756 L1897.94 211.547 L1893.68 211.547 L1893.68 207.612 Q1892.22 209.973 1890.05 211.107 Q1887.87 212.218 1884.72 212.218 Q1880.74 212.218 1878.38 209.996 Q1876.04 207.751 1876.04 204.001 Q1876.04 199.626 1878.96 197.404 Q1881.9 195.182 1887.71 195.182 L1893.68 195.182 L1893.68 194.765 Q1893.68 191.825 1891.74 190.228 Q1889.82 188.607 1886.32 188.607 Q1884.1 188.607 1881.99 189.14 Q1879.88 189.672 1877.94 190.737 L1877.94 186.802 Q1880.28 185.899 1882.48 185.459 Q1884.68 184.996 1886.76 184.996 Q1892.38 184.996 1895.16 187.913 Q1897.94 190.83 1897.94 196.756 Z" fill="#000000" fill-rule="evenodd" fill-opacity="1" /><path clip-path="url(#clip800)" d="M1928.89 197.519 L1928.89 199.603 L1909.31 199.603 Q1909.58 204.001 1911.95 206.316 Q1914.33 208.607 1918.57 208.607 Q1921.02 208.607 1923.31 208.006 Q1925.63 207.404 1927.89 206.2 L1927.89 210.228 Q1925.6 211.2 1923.19 211.709 Q1920.79 212.218 1918.31 212.218 Q1912.11 212.218 1908.47 208.607 Q1904.86 204.996 1904.86 198.839 Q1904.86 192.473 1908.29 188.746 Q1911.74 184.996 1917.57 184.996 Q1922.8 184.996 1925.83 188.376 Q1928.89 191.732 1928.89 197.519 M1924.63 196.269 Q1924.58 192.774 1922.66 190.691 Q1920.76 188.607 1917.62 188.607 Q1914.05 188.607 1911.9 190.621 Q1909.77 192.635 1909.45 196.293 L1924.63 196.269 Z" fill="#000000" fill-rule="evenodd" fill-opacity="1" /><path clip-path="url(#clip800)" d="M1950.9 189.603 Q1950.19 189.186 1949.33 189.001 Q1948.5 188.793 1947.48 188.793 Q1943.87 188.793 1941.92 191.154 Q1940 193.492 1940 197.89 L1940 211.547 L1935.72 211.547 L1935.72 185.621 L1940 185.621 L1940 189.649 Q1941.34 187.288 1943.5 186.154 Q1945.65 184.996 1948.73 184.996 Q1949.17 184.996 1949.7 185.066 Q1950.23 185.112 1950.88 185.228 L1950.9 189.603 Z" fill="#000000" fill-rule="evenodd" fill-opacity="1" /><path clip-path="url(#clip800)" d="M1976.09 195.899 L1976.09 211.547 L1971.83 211.547 L1971.83 196.038 Q1971.83 192.357 1970.39 190.529 Q1968.96 188.7 1966.09 188.7 Q1962.64 188.7 1960.65 190.899 Q1958.66 193.098 1958.66 196.894 L1958.66 211.547 L1954.38 211.547 L1954.38 185.621 L1958.66 185.621 L1958.66 189.649 Q1960.19 187.311 1962.25 186.154 Q1964.33 184.996 1967.04 184.996 Q1971.5 184.996 1973.8 187.774 Q1976.09 190.529 1976.09 195.899 Z" fill="#000000" fill-rule="evenodd" fill-opacity="1" /><path clip-path="url(#clip800)" d="M1994.63 188.607 Q1991.2 188.607 1989.21 191.293 Q1987.22 193.955 1987.22 198.607 Q1987.22 203.26 1989.19 205.945 Q1991.18 208.607 1994.63 208.607 Q1998.03 208.607 2000.02 205.922 Q2002.01 203.237 2002.01 198.607 Q2002.01 194.001 2000.02 191.316 Q1998.03 188.607 1994.63 188.607 M1994.63 184.996 Q2000.19 184.996 2003.36 188.607 Q2006.53 192.219 2006.53 198.607 Q2006.53 204.973 2003.36 208.607 Q2000.19 212.218 1994.63 212.218 Q1989.05 212.218 1985.88 208.607 Q1982.73 204.973 1982.73 198.607 Q1982.73 192.219 1985.88 188.607 Q1989.05 184.996 1994.63 184.996 Z" fill="#000000" fill-rule="evenodd" fill-opacity="1" /><path clip-path="url(#clip800)" d="M2028.36 192.913 Q2031.71 193.631 2033.59 195.899 Q2035.49 198.168 2035.49 201.501 Q2035.49 206.617 2031.97 209.418 Q2028.45 212.218 2021.97 212.218 Q2019.79 212.218 2017.48 211.779 Q2015.19 211.362 2012.73 210.506 L2012.73 205.992 Q2014.68 207.126 2016.99 207.705 Q2019.31 208.283 2021.83 208.283 Q2026.23 208.283 2028.52 206.547 Q2030.83 204.811 2030.83 201.501 Q2030.83 198.445 2028.68 196.732 Q2026.55 194.996 2022.73 194.996 L2018.7 194.996 L2018.7 191.154 L2022.92 191.154 Q2026.37 191.154 2028.19 189.788 Q2030.02 188.399 2030.02 185.807 Q2030.02 183.145 2028.12 181.733 Q2026.25 180.297 2022.73 180.297 Q2020.81 180.297 2018.61 180.714 Q2016.41 181.131 2013.77 182.01 L2013.77 177.844 Q2016.44 177.103 2018.75 176.733 Q2021.09 176.362 2023.15 176.362 Q2028.47 176.362 2031.57 178.793 Q2034.68 181.2 2034.68 185.32 Q2034.68 188.191 2033.03 190.182 Q2031.39 192.149 2028.36 192.913 Z" fill="#000000" fill-rule="evenodd" fill-opacity="1" /><polyline clip-path="url(#clip800)" style="stroke:#3da44d; stroke-linecap:butt; stroke-linejoin:round; stroke-width:4; stroke-opacity:1; fill:none" points="
  1662.76,246.107 1796.43,246.107 
  "/>
<line clip-path="url(#clip800)" x1="1729.6" y1="246.107" x2="1729.6" y2="220.507" style="stroke:#3da44d; stroke-width:4.9152; stroke-opacity:1"/>
<line clip-path="url(#clip800)" x1="1729.6" y1="246.107" x2="1704" y2="246.107" style="stroke:#3da44d; stroke-width:4.9152; stroke-opacity:1"/>
<line clip-path="url(#clip800)" x1="1729.6" y1="246.107" x2="1729.6" y2="271.707" style="stroke:#3da44d; stroke-width:4.9152; stroke-opacity:1"/>
<line clip-path="url(#clip800)" x1="1729.6" y1="246.107" x2="1755.2" y2="246.107" style="stroke:#3da44d; stroke-width:4.9152; stroke-opacity:1"/>
<path clip-path="url(#clip800)" d="M1846.57 231.489 L1846.57 236.42 Q1844.21 234.221 1841.53 233.133 Q1838.87 232.045 1835.86 232.045 Q1829.93 232.045 1826.78 235.679 Q1823.64 239.29 1823.64 246.142 Q1823.64 252.971 1826.78 256.605 Q1829.93 260.216 1835.86 260.216 Q1838.87 260.216 1841.53 259.128 Q1844.21 258.04 1846.57 255.841 L1846.57 260.725 Q1844.12 262.392 1841.37 263.225 Q1838.64 264.058 1835.58 264.058 Q1827.73 264.058 1823.22 259.267 Q1818.7 254.452 1818.7 246.142 Q1818.7 237.809 1823.22 233.017 Q1827.73 228.202 1835.58 228.202 Q1838.68 228.202 1841.41 229.036 Q1844.17 229.846 1846.57 231.489 Z" fill="#000000" fill-rule="evenodd" fill-opacity="1" /><path clip-path="url(#clip800)" d="M1862.71 263.387 L1849.51 228.827 L1854.4 228.827 L1865.35 257.924 L1876.32 228.827 L1881.18 228.827 L1868.01 263.387 L1862.71 263.387 Z" fill="#000000" fill-rule="evenodd" fill-opacity="1" /><path clip-path="url(#clip800)" d="M1899.42 231.998 Q1894.33 231.998 1891.32 235.795 Q1888.33 239.591 1888.33 246.142 Q1888.33 252.67 1891.32 256.466 Q1894.33 260.262 1899.42 260.262 Q1904.51 260.262 1907.48 256.466 Q1910.46 252.67 1910.46 246.142 Q1910.46 239.591 1907.48 235.795 Q1904.51 231.998 1899.42 231.998 M1899.42 228.202 Q1906.69 228.202 1911.04 233.086 Q1915.39 237.948 1915.39 246.142 Q1915.39 254.313 1911.04 259.197 Q1906.69 264.058 1899.42 264.058 Q1892.13 264.058 1887.76 259.197 Q1883.4 254.336 1883.4 246.142 Q1883.4 237.948 1887.76 233.086 Q1892.13 228.202 1899.42 228.202 Z" fill="#000000" fill-rule="evenodd" fill-opacity="1" /><path clip-path="url(#clip800)" d="M1927.38 232.67 L1927.38 259.545 L1933.03 259.545 Q1940.19 259.545 1943.5 256.304 Q1946.83 253.063 1946.83 246.072 Q1946.83 239.128 1943.5 235.91 Q1940.19 232.67 1933.03 232.67 L1927.38 232.67 M1922.71 228.827 L1932.32 228.827 Q1942.36 228.827 1947.06 233.017 Q1951.76 237.184 1951.76 246.072 Q1951.76 255.008 1947.04 259.197 Q1942.32 263.387 1932.32 263.387 L1922.71 263.387 L1922.71 228.827 Z" fill="#000000" fill-rule="evenodd" fill-opacity="1" /><path clip-path="url(#clip800)" d="M1959.21 228.827 L1981.07 228.827 L1981.07 232.762 L1963.89 232.762 L1963.89 242.994 L1980.35 242.994 L1980.35 246.929 L1963.89 246.929 L1963.89 259.452 L1981.48 259.452 L1981.48 263.387 L1959.21 263.387 L1959.21 228.827 Z" fill="#000000" fill-rule="evenodd" fill-opacity="1" /><path clip-path="url(#clip800)" d="M2008.68 271.258 L2008.68 274.568 L1984.05 274.568 L1984.05 271.258 L2008.68 271.258 Z" fill="#000000" fill-rule="evenodd" fill-opacity="1" /><path clip-path="url(#clip800)" d="M2017.55 246.883 L2017.55 259.545 L2025.05 259.545 Q2028.82 259.545 2030.62 257.994 Q2032.45 256.42 2032.45 253.202 Q2032.45 249.961 2030.62 248.434 Q2028.82 246.883 2025.05 246.883 L2017.55 246.883 M2017.55 232.67 L2017.55 243.086 L2024.47 243.086 Q2027.89 243.086 2029.56 241.813 Q2031.25 240.517 2031.25 237.878 Q2031.25 235.262 2029.56 233.966 Q2027.89 232.67 2024.47 232.67 L2017.55 232.67 M2012.87 228.827 L2024.81 228.827 Q2030.16 228.827 2033.06 231.049 Q2035.95 233.272 2035.95 237.369 Q2035.95 240.54 2034.47 242.415 Q2032.99 244.29 2030.12 244.753 Q2033.56 245.494 2035.46 247.855 Q2037.38 250.193 2037.38 253.711 Q2037.38 258.341 2034.24 260.864 Q2031.09 263.387 2025.28 263.387 L2012.87 263.387 L2012.87 228.827 Z" fill="#000000" fill-rule="evenodd" fill-opacity="1" /><path clip-path="url(#clip800)" d="M2050.07 232.67 L2050.07 259.545 L2055.72 259.545 Q2062.87 259.545 2066.18 256.304 Q2069.51 253.063 2069.51 246.072 Q2069.51 239.128 2066.18 235.91 Q2062.87 232.67 2055.72 232.67 L2050.07 232.67 M2045.39 228.827 L2055 228.827 Q2065.05 228.827 2069.75 233.017 Q2074.44 237.184 2074.44 246.072 Q2074.44 255.008 2069.72 259.197 Q2065 263.387 2055 263.387 L2045.39 263.387 L2045.39 228.827 Z" fill="#000000" fill-rule="evenodd" fill-opacity="1" /><path clip-path="url(#clip800)" d="M2081.9 228.827 L2101.76 228.827 L2101.76 232.762 L2086.57 232.762 L2086.57 242.947 L2100.28 242.947 L2100.28 246.883 L2086.57 246.883 L2086.57 263.387 L2081.9 263.387 L2081.9 228.827 Z" fill="#000000" fill-rule="evenodd" fill-opacity="1" /><polyline clip-path="url(#clip800)" style="stroke:#c271d2; stroke-linecap:butt; stroke-linejoin:round; stroke-width:4; stroke-opacity:1; fill:none" points="
  1662.76,297.947 1796.43,297.947 
  "/>
<path clip-path="url(#clip800)" d="M1729.6 272.347 L1704 297.947 L1729.6 323.547 L1755.2 297.947 L1729.6 272.347 Z" fill="#c271d2" fill-rule="evenodd" fill-opacity="1" stroke="#000000" stroke-opacity="1" stroke-width="4.9152"/>
<path clip-path="url(#clip800)" d="M1818.7 280.667 L1823.38 280.667 L1823.38 295.274 L1838.89 280.667 L1844.91 280.667 L1827.76 296.778 L1846.14 315.227 L1839.98 315.227 L1823.38 298.584 L1823.38 315.227 L1818.7 315.227 L1818.7 280.667 Z" fill="#000000" fill-rule="evenodd" fill-opacity="1" /><path clip-path="url(#clip800)" d="M1869.42 301.199 L1869.42 303.283 L1849.84 303.283 Q1850.12 307.681 1852.48 309.996 Q1854.86 312.287 1859.1 312.287 Q1861.55 312.287 1863.84 311.686 Q1866.16 311.084 1868.43 309.88 L1868.43 313.908 Q1866.14 314.88 1863.73 315.389 Q1861.32 315.898 1858.84 315.898 Q1852.64 315.898 1849.01 312.287 Q1845.39 308.676 1845.39 302.519 Q1845.39 296.153 1848.82 292.426 Q1852.27 288.676 1858.1 288.676 Q1863.33 288.676 1866.37 292.056 Q1869.42 295.412 1869.42 301.199 M1865.16 299.949 Q1865.12 296.454 1863.2 294.371 Q1861.3 292.287 1858.15 292.287 Q1854.58 292.287 1852.43 294.301 Q1850.3 296.315 1849.98 299.973 L1865.16 299.949 Z" fill="#000000" fill-rule="evenodd" fill-opacity="1" /><path clip-path="url(#clip800)" d="M1897.96 299.579 L1897.96 315.227 L1893.7 315.227 L1893.7 299.718 Q1893.7 296.037 1892.27 294.209 Q1890.83 292.38 1887.96 292.38 Q1884.51 292.38 1882.52 294.579 Q1880.53 296.778 1880.53 300.574 L1880.53 315.227 L1876.25 315.227 L1876.25 289.301 L1880.53 289.301 L1880.53 293.329 Q1882.06 290.991 1884.12 289.834 Q1886.2 288.676 1888.91 288.676 Q1893.38 288.676 1895.67 291.454 Q1897.96 294.209 1897.96 299.579 Z" fill="#000000" fill-rule="evenodd" fill-opacity="1" /><path clip-path="url(#clip800)" d="M1932.52 283.329 L1932.52 288.26 Q1930.16 286.061 1927.48 284.973 Q1924.82 283.885 1921.81 283.885 Q1915.88 283.885 1912.73 287.519 Q1909.58 291.13 1909.58 297.982 Q1909.58 304.811 1912.73 308.445 Q1915.88 312.056 1921.81 312.056 Q1924.82 312.056 1927.48 310.968 Q1930.16 309.88 1932.52 307.681 L1932.52 312.565 Q1930.07 314.232 1927.32 315.065 Q1924.58 315.898 1921.53 315.898 Q1913.68 315.898 1909.17 311.107 Q1904.65 306.292 1904.65 297.982 Q1904.65 289.649 1909.17 284.857 Q1913.68 280.042 1921.53 280.042 Q1924.63 280.042 1927.36 280.876 Q1930.12 281.686 1932.52 283.329 Z" fill="#000000" fill-rule="evenodd" fill-opacity="1" /><path clip-path="url(#clip800)" d="M1951.34 302.195 Q1946.18 302.195 1944.19 303.375 Q1942.2 304.556 1942.2 307.403 Q1942.2 309.672 1943.68 311.014 Q1945.19 312.334 1947.76 312.334 Q1951.3 312.334 1953.43 309.834 Q1955.58 307.311 1955.58 303.144 L1955.58 302.195 L1951.34 302.195 M1959.84 300.436 L1959.84 315.227 L1955.58 315.227 L1955.58 311.292 Q1954.12 313.653 1951.94 314.787 Q1949.77 315.898 1946.62 315.898 Q1942.64 315.898 1940.28 313.676 Q1937.94 311.431 1937.94 307.681 Q1937.94 303.306 1940.86 301.084 Q1943.8 298.862 1949.61 298.862 L1955.58 298.862 L1955.58 298.445 Q1955.58 295.505 1953.63 293.908 Q1951.71 292.287 1948.22 292.287 Q1946 292.287 1943.89 292.82 Q1941.78 293.352 1939.84 294.417 L1939.84 290.482 Q1942.18 289.579 1944.38 289.139 Q1946.57 288.676 1948.66 288.676 Q1954.28 288.676 1957.06 291.593 Q1959.84 294.51 1959.84 300.436 Z" fill="#000000" fill-rule="evenodd" fill-opacity="1" /><path clip-path="url(#clip800)" d="M1983.63 293.283 Q1982.92 292.866 1982.06 292.681 Q1981.23 292.473 1980.21 292.473 Q1976.6 292.473 1974.65 294.834 Q1972.73 297.172 1972.73 301.57 L1972.73 315.227 L1968.45 315.227 L1968.45 289.301 L1972.73 289.301 L1972.73 293.329 Q1974.07 290.968 1976.23 289.834 Q1978.38 288.676 1981.46 288.676 Q1981.9 288.676 1982.43 288.746 Q1982.96 288.792 1983.61 288.908 L1983.63 293.283 Z" fill="#000000" fill-rule="evenodd" fill-opacity="1" /><path clip-path="url(#clip800)" d="M1992.22 311.338 L1992.22 325.088 L1987.94 325.088 L1987.94 289.301 L1992.22 289.301 L1992.22 293.237 Q1993.56 290.922 1995.6 289.811 Q1997.66 288.676 2000.51 288.676 Q2005.23 288.676 2008.17 292.426 Q2011.13 296.176 2011.13 302.287 Q2011.13 308.399 2008.17 312.148 Q2005.23 315.898 2000.51 315.898 Q1997.66 315.898 1995.6 314.787 Q1993.56 313.653 1992.22 311.338 M2006.71 302.287 Q2006.71 297.588 2004.77 294.926 Q2002.85 292.241 1999.47 292.241 Q1996.09 292.241 1994.14 294.926 Q1992.22 297.588 1992.22 302.287 Q1992.22 306.986 1994.14 309.672 Q1996.09 312.334 1999.47 312.334 Q2002.85 312.334 2004.77 309.672 Q2006.71 306.986 2006.71 302.287 Z" fill="#000000" fill-rule="evenodd" fill-opacity="1" /><path clip-path="url(#clip800)" d="M2031.64 284.741 L2019.84 303.19 L2031.64 303.19 L2031.64 284.741 M2030.42 280.667 L2036.3 280.667 L2036.3 303.19 L2041.23 303.19 L2041.23 307.079 L2036.3 307.079 L2036.3 315.227 L2031.64 315.227 L2031.64 307.079 L2016.04 307.079 L2016.04 302.565 L2030.42 280.667 Z" fill="#000000" fill-rule="evenodd" fill-opacity="1" /><polyline clip-path="url(#clip800)" style="stroke:#ac8d18; stroke-linecap:butt; stroke-linejoin:round; stroke-width:4; stroke-opacity:1; fill:none" points="
  1662.76,349.787 1796.43,349.787 
  "/>
<path clip-path="url(#clip800)" d="M1755.2 324.187 L1704 324.187 L1729.6 375.387 L1755.2 324.187 Z" fill="#ac8d18" fill-rule="evenodd" fill-opacity="1" stroke="#000000" stroke-opacity="1" stroke-width="4.9152"/>
<path clip-path="url(#clip800)" d="M1818.7 332.507 L1847.94 332.507 L1847.94 336.442 L1835.67 336.442 L1835.67 367.067 L1830.97 367.067 L1830.97 336.442 L1818.7 336.442 L1818.7 332.507 Z" fill="#000000" fill-rule="evenodd" fill-opacity="1" /><path clip-path="url(#clip800)" d="M1868.84 350.864 Q1870.35 351.373 1871.76 353.039 Q1873.2 354.706 1874.63 357.623 L1879.38 367.067 L1874.35 367.067 L1869.93 358.201 Q1868.22 354.729 1866.6 353.595 Q1865 352.461 1862.22 352.461 L1857.13 352.461 L1857.13 367.067 L1852.45 367.067 L1852.45 332.507 L1863.01 332.507 Q1868.94 332.507 1871.85 334.984 Q1874.77 337.461 1874.77 342.461 Q1874.77 345.725 1873.24 347.877 Q1871.74 350.03 1868.84 350.864 M1857.13 336.35 L1857.13 348.618 L1863.01 348.618 Q1866.39 348.618 1868.1 347.067 Q1869.84 345.493 1869.84 342.461 Q1869.84 339.428 1868.1 337.901 Q1866.39 336.35 1863.01 336.35 L1857.13 336.35 Z" fill="#000000" fill-rule="evenodd" fill-opacity="1" /><path clip-path="url(#clip800)" d="M1890.07 350.563 L1890.07 363.225 L1897.57 363.225 Q1901.34 363.225 1903.15 361.674 Q1904.98 360.1 1904.98 356.882 Q1904.98 353.641 1903.15 352.114 Q1901.34 350.563 1897.57 350.563 L1890.07 350.563 M1890.07 336.35 L1890.07 346.766 L1896.99 346.766 Q1900.42 346.766 1902.08 345.493 Q1903.77 344.197 1903.77 341.558 Q1903.77 338.942 1902.08 337.646 Q1900.42 336.35 1896.99 336.35 L1890.07 336.35 M1885.39 332.507 L1897.34 332.507 Q1902.69 332.507 1905.58 334.729 Q1908.47 336.952 1908.47 341.049 Q1908.47 344.22 1906.99 346.095 Q1905.51 347.97 1902.64 348.433 Q1906.09 349.174 1907.99 351.535 Q1909.91 353.873 1909.91 357.391 Q1909.91 362.021 1906.76 364.544 Q1903.61 367.067 1897.8 367.067 L1885.39 367.067 L1885.39 332.507 Z" fill="#000000" fill-rule="evenodd" fill-opacity="1" /><path clip-path="url(#clip800)" d="M1922.59 336.35 L1922.59 363.225 L1928.24 363.225 Q1935.39 363.225 1938.7 359.984 Q1942.04 356.743 1942.04 349.752 Q1942.04 342.808 1938.7 339.59 Q1935.39 336.35 1928.24 336.35 L1922.59 336.35 M1917.92 332.507 L1927.52 332.507 Q1937.57 332.507 1942.27 336.697 Q1946.97 340.864 1946.97 349.752 Q1946.97 358.688 1942.25 362.877 Q1937.52 367.067 1927.52 367.067 L1917.92 367.067 L1917.92 332.507 Z" fill="#000000" fill-rule="evenodd" fill-opacity="1" /><path clip-path="url(#clip800)" d="M1954.42 332.507 L1974.28 332.507 L1974.28 336.442 L1959.1 336.442 L1959.1 346.627 L1972.8 346.627 L1972.8 350.563 L1959.1 350.563 L1959.1 367.067 L1954.42 367.067 L1954.42 332.507 Z" fill="#000000" fill-rule="evenodd" fill-opacity="1" /><path clip-path="url(#clip800)" d="M1986.13 363.132 L2002.45 363.132 L2002.45 367.067 L1980.51 367.067 L1980.51 363.132 Q1983.17 360.377 1987.75 355.748 Q1992.36 351.095 1993.54 349.752 Q1995.79 347.229 1996.67 345.493 Q1997.57 343.734 1997.57 342.044 Q1997.57 339.29 1995.63 337.553 Q1993.7 335.817 1990.6 335.817 Q1988.4 335.817 1985.95 336.581 Q1983.52 337.345 1980.74 338.896 L1980.74 334.174 Q1983.56 333.04 1986.02 332.461 Q1988.47 331.882 1990.51 331.882 Q1995.88 331.882 1999.07 334.567 Q2002.27 337.253 2002.27 341.743 Q2002.27 343.873 2001.46 345.794 Q2000.67 347.692 1998.56 350.285 Q1997.99 350.956 1994.88 354.174 Q1991.78 357.368 1986.13 363.132 Z" fill="#000000" fill-rule="evenodd" fill-opacity="1" /><polyline clip-path="url(#clip800)" style="stroke:#00a9ad; stroke-linecap:butt; stroke-linejoin:round; stroke-width:4; stroke-opacity:1; fill:none" points="
  1662.76,401.627 1796.43,401.627 
  "/>
<path clip-path="url(#clip800)" d="M1729.6 376.027 L1709.58 385.678 L1704.64 407.336 L1718.49 424.693 L1740.71 424.693 L1754.56 407.336 L1749.61 385.678 Z" fill="#00a9ad" fill-rule="evenodd" fill-opacity="1" stroke="#000000" stroke-opacity="1" stroke-width="4.9152"/>
<path clip-path="url(#clip800)" d="M1818.7 384.347 L1823.38 384.347 L1823.38 398.954 L1838.89 384.347 L1844.91 384.347 L1827.76 400.458 L1846.14 418.907 L1839.98 418.907 L1823.38 402.264 L1823.38 418.907 L1818.7 418.907 L1818.7 384.347 Z" fill="#000000" fill-rule="evenodd" fill-opacity="1" /><path clip-path="url(#clip800)" d="M1869.42 404.879 L1869.42 406.963 L1849.84 406.963 Q1850.12 411.361 1852.48 413.676 Q1854.86 415.967 1859.1 415.967 Q1861.55 415.967 1863.84 415.366 Q1866.16 414.764 1868.43 413.56 L1868.43 417.588 Q1866.14 418.56 1863.73 419.069 Q1861.32 419.578 1858.84 419.578 Q1852.64 419.578 1849.01 415.967 Q1845.39 412.356 1845.39 406.199 Q1845.39 399.833 1848.82 396.106 Q1852.27 392.356 1858.1 392.356 Q1863.33 392.356 1866.37 395.736 Q1869.42 399.092 1869.42 404.879 M1865.16 403.629 Q1865.12 400.134 1863.2 398.051 Q1861.3 395.967 1858.15 395.967 Q1854.58 395.967 1852.43 397.981 Q1850.3 399.995 1849.98 403.653 L1865.16 403.629 Z" fill="#000000" fill-rule="evenodd" fill-opacity="1" /><path clip-path="url(#clip800)" d="M1897.96 403.259 L1897.96 418.907 L1893.7 418.907 L1893.7 403.398 Q1893.7 399.717 1892.27 397.889 Q1890.83 396.06 1887.96 396.06 Q1884.51 396.06 1882.52 398.259 Q1880.53 400.458 1880.53 404.254 L1880.53 418.907 L1876.25 418.907 L1876.25 392.981 L1880.53 392.981 L1880.53 397.009 Q1882.06 394.671 1884.12 393.514 Q1886.2 392.356 1888.91 392.356 Q1893.38 392.356 1895.67 395.134 Q1897.96 397.889 1897.96 403.259 Z" fill="#000000" fill-rule="evenodd" fill-opacity="1" /><path clip-path="url(#clip800)" d="M1932.52 387.009 L1932.52 391.94 Q1930.16 389.741 1927.48 388.653 Q1924.82 387.565 1921.81 387.565 Q1915.88 387.565 1912.73 391.199 Q1909.58 394.81 1909.58 401.662 Q1909.58 408.491 1912.73 412.125 Q1915.88 415.736 1921.81 415.736 Q1924.82 415.736 1927.48 414.648 Q1930.16 413.56 1932.52 411.361 L1932.52 416.245 Q1930.07 417.912 1927.32 418.745 Q1924.58 419.578 1921.53 419.578 Q1913.68 419.578 1909.17 414.787 Q1904.65 409.972 1904.65 401.662 Q1904.65 393.329 1909.17 388.537 Q1913.68 383.722 1921.53 383.722 Q1924.63 383.722 1927.36 384.556 Q1930.12 385.366 1932.52 387.009 Z" fill="#000000" fill-rule="evenodd" fill-opacity="1" /><path clip-path="url(#clip800)" d="M1951.34 405.875 Q1946.18 405.875 1944.19 407.055 Q1942.2 408.236 1942.2 411.083 Q1942.2 413.352 1943.68 414.694 Q1945.19 416.014 1947.76 416.014 Q1951.3 416.014 1953.43 413.514 Q1955.58 410.991 1955.58 406.824 L1955.58 405.875 L1951.34 405.875 M1959.84 404.116 L1959.84 418.907 L1955.58 418.907 L1955.58 414.972 Q1954.12 417.333 1951.94 418.467 Q1949.77 419.578 1946.62 419.578 Q1942.64 419.578 1940.28 417.356 Q1937.94 415.111 1937.94 411.361 Q1937.94 406.986 1940.86 404.764 Q1943.8 402.542 1949.61 402.542 L1955.58 402.542 L1955.58 402.125 Q1955.58 399.185 1953.63 397.588 Q1951.71 395.967 1948.22 395.967 Q1946 395.967 1943.89 396.5 Q1941.78 397.032 1939.84 398.097 L1939.84 394.162 Q1942.18 393.259 1944.38 392.819 Q1946.57 392.356 1948.66 392.356 Q1954.28 392.356 1957.06 395.273 Q1959.84 398.19 1959.84 404.116 Z" fill="#000000" fill-rule="evenodd" fill-opacity="1" /><path clip-path="url(#clip800)" d="M1983.63 396.963 Q1982.92 396.546 1982.06 396.361 Q1981.23 396.153 1980.21 396.153 Q1976.6 396.153 1974.65 398.514 Q1972.73 400.852 1972.73 405.25 L1972.73 418.907 L1968.45 418.907 L1968.45 392.981 L1972.73 392.981 L1972.73 397.009 Q1974.07 394.648 1976.23 393.514 Q1978.38 392.356 1981.46 392.356 Q1981.9 392.356 1982.43 392.426 Q1982.96 392.472 1983.61 392.588 L1983.63 396.963 Z" fill="#000000" fill-rule="evenodd" fill-opacity="1" /><path clip-path="url(#clip800)" d="M1992.22 415.018 L1992.22 428.768 L1987.94 428.768 L1987.94 392.981 L1992.22 392.981 L1992.22 396.917 Q1993.56 394.602 1995.6 393.491 Q1997.66 392.356 2000.51 392.356 Q2005.23 392.356 2008.17 396.106 Q2011.13 399.856 2011.13 405.967 Q2011.13 412.079 2008.17 415.828 Q2005.23 419.578 2000.51 419.578 Q1997.66 419.578 1995.6 418.467 Q1993.56 417.333 1992.22 415.018 M2006.71 405.967 Q2006.71 401.268 2004.77 398.606 Q2002.85 395.921 1999.47 395.921 Q1996.09 395.921 1994.14 398.606 Q1992.22 401.268 1992.22 405.967 Q1992.22 410.666 1994.14 413.352 Q1996.09 416.014 1999.47 416.014 Q2002.85 416.014 2004.77 413.352 Q2006.71 410.666 2006.71 405.967 Z" fill="#000000" fill-rule="evenodd" fill-opacity="1" /><path clip-path="url(#clip800)" d="M2032.96 400.273 Q2036.32 400.991 2038.19 403.259 Q2040.09 405.528 2040.09 408.861 Q2040.09 413.977 2036.57 416.778 Q2033.06 419.578 2026.57 419.578 Q2024.4 419.578 2022.08 419.139 Q2019.79 418.722 2017.34 417.866 L2017.34 413.352 Q2019.28 414.486 2021.6 415.065 Q2023.91 415.643 2026.44 415.643 Q2030.83 415.643 2033.12 413.907 Q2035.44 412.171 2035.44 408.861 Q2035.44 405.805 2033.29 404.092 Q2031.16 402.356 2027.34 402.356 L2023.31 402.356 L2023.31 398.514 L2027.52 398.514 Q2030.97 398.514 2032.8 397.148 Q2034.63 395.759 2034.63 393.167 Q2034.63 390.505 2032.73 389.093 Q2030.86 387.657 2027.34 387.657 Q2025.42 387.657 2023.22 388.074 Q2021.02 388.491 2018.38 389.37 L2018.38 385.204 Q2021.04 384.463 2023.36 384.093 Q2025.69 383.722 2027.75 383.722 Q2033.08 383.722 2036.18 386.153 Q2039.28 388.56 2039.28 392.68 Q2039.28 395.551 2037.64 397.542 Q2036 399.509 2032.96 400.273 Z" fill="#000000" fill-rule="evenodd" fill-opacity="1" /><polyline clip-path="url(#clip800)" style="stroke:#ed5d92; stroke-linecap:butt; stroke-linejoin:round; stroke-width:4; stroke-opacity:1; fill:none" points="
  1662.76,453.467 1796.43,453.467 
  "/>
<path clip-path="url(#clip800)" d="M1729.6 479.067 L1707.43 466.267 L1707.43 440.667 L1729.6 427.867 L1751.77 440.667 L1751.77 466.267 Z" fill="#ed5d92" fill-rule="evenodd" fill-opacity="1" stroke="#000000" stroke-opacity="1" stroke-width="4.9152"/>
<path clip-path="url(#clip800)" d="M1835.09 454.544 Q1836.6 455.053 1838.01 456.719 Q1839.45 458.386 1840.88 461.303 L1845.63 470.747 L1840.6 470.747 L1836.18 461.881 Q1834.47 458.409 1832.85 457.275 Q1831.25 456.141 1828.47 456.141 L1823.38 456.141 L1823.38 470.747 L1818.7 470.747 L1818.7 436.187 L1829.26 436.187 Q1835.19 436.187 1838.1 438.664 Q1841.02 441.141 1841.02 446.141 Q1841.02 449.405 1839.49 451.557 Q1837.99 453.71 1835.09 454.544 M1823.38 440.03 L1823.38 452.298 L1829.26 452.298 Q1832.64 452.298 1834.35 450.747 Q1836.09 449.173 1836.09 446.141 Q1836.09 443.108 1834.35 441.581 Q1832.64 440.03 1829.26 440.03 L1823.38 440.03 Z" fill="#000000" fill-rule="evenodd" fill-opacity="1" /><path clip-path="url(#clip800)" d="M1859.38 447.807 Q1855.95 447.807 1853.96 450.493 Q1851.97 453.155 1851.97 457.807 Q1851.97 462.46 1853.94 465.145 Q1855.93 467.807 1859.38 467.807 Q1862.78 467.807 1864.77 465.122 Q1866.76 462.437 1866.76 457.807 Q1866.76 453.201 1864.77 450.516 Q1862.78 447.807 1859.38 447.807 M1859.38 444.196 Q1864.93 444.196 1868.1 447.807 Q1871.27 451.419 1871.27 457.807 Q1871.27 464.173 1868.1 467.807 Q1864.93 471.418 1859.38 471.418 Q1853.8 471.418 1850.63 467.807 Q1847.48 464.173 1847.48 457.807 Q1847.48 451.419 1850.63 447.807 Q1853.8 444.196 1859.38 444.196 Z" fill="#000000" fill-rule="evenodd" fill-opacity="1" /><path clip-path="url(#clip800)" d="M1895.39 448.757 L1895.39 434.729 L1899.65 434.729 L1899.65 470.747 L1895.39 470.747 L1895.39 466.858 Q1894.05 469.173 1891.99 470.307 Q1889.95 471.418 1887.08 471.418 Q1882.38 471.418 1879.42 467.668 Q1876.48 463.919 1876.48 457.807 Q1876.48 451.696 1879.42 447.946 Q1882.38 444.196 1887.08 444.196 Q1889.95 444.196 1891.99 445.331 Q1894.05 446.442 1895.39 448.757 M1880.88 457.807 Q1880.88 462.506 1882.8 465.192 Q1884.75 467.854 1888.13 467.854 Q1891.51 467.854 1893.45 465.192 Q1895.39 462.506 1895.39 457.807 Q1895.39 453.108 1893.45 450.446 Q1891.51 447.761 1888.13 447.761 Q1884.75 447.761 1882.8 450.446 Q1880.88 453.108 1880.88 457.807 Z" fill="#000000" fill-rule="evenodd" fill-opacity="1" /><path clip-path="url(#clip800)" d="M1920.21 457.715 Q1915.05 457.715 1913.06 458.895 Q1911.07 460.076 1911.07 462.923 Q1911.07 465.192 1912.55 466.534 Q1914.05 467.854 1916.62 467.854 Q1920.16 467.854 1922.29 465.354 Q1924.44 462.831 1924.44 458.664 L1924.44 457.715 L1920.21 457.715 M1928.7 455.956 L1928.7 470.747 L1924.44 470.747 L1924.44 466.812 Q1922.99 469.173 1920.81 470.307 Q1918.63 471.418 1915.49 471.418 Q1911.51 471.418 1909.14 469.196 Q1906.81 466.951 1906.81 463.201 Q1906.81 458.826 1909.72 456.604 Q1912.66 454.382 1918.47 454.382 L1924.44 454.382 L1924.44 453.965 Q1924.44 451.025 1922.5 449.428 Q1920.58 447.807 1917.08 447.807 Q1914.86 447.807 1912.76 448.34 Q1910.65 448.872 1908.7 449.937 L1908.7 446.002 Q1911.04 445.099 1913.24 444.659 Q1915.44 444.196 1917.52 444.196 Q1923.15 444.196 1925.93 447.113 Q1928.7 450.03 1928.7 455.956 Z" fill="#000000" fill-rule="evenodd" fill-opacity="1" /><path clip-path="url(#clip800)" d="M1954 445.585 L1954 449.613 Q1952.2 448.687 1950.25 448.224 Q1948.31 447.761 1946.23 447.761 Q1943.06 447.761 1941.46 448.733 Q1939.88 449.706 1939.88 451.65 Q1939.88 453.132 1941.02 453.988 Q1942.15 454.821 1945.58 455.585 L1947.04 455.909 Q1951.57 456.882 1953.47 458.664 Q1955.39 460.423 1955.39 463.594 Q1955.39 467.206 1952.52 469.312 Q1949.68 471.418 1944.68 471.418 Q1942.59 471.418 1940.32 471.002 Q1938.08 470.608 1935.58 469.798 L1935.58 465.4 Q1937.94 466.627 1940.23 467.252 Q1942.52 467.854 1944.77 467.854 Q1947.78 467.854 1949.4 466.835 Q1951.02 465.794 1951.02 463.919 Q1951.02 462.182 1949.84 461.256 Q1948.68 460.331 1944.72 459.474 L1943.24 459.127 Q1939.28 458.294 1937.52 456.581 Q1935.76 454.844 1935.76 451.835 Q1935.76 448.178 1938.36 446.187 Q1940.95 444.196 1945.72 444.196 Q1948.08 444.196 1950.16 444.544 Q1952.25 444.891 1954 445.585 Z" fill="#000000" fill-rule="evenodd" fill-opacity="1" /><path clip-path="url(#clip800)" d="M1975.63 440.261 L1963.82 458.71 L1975.63 458.71 L1975.63 440.261 M1974.4 436.187 L1980.28 436.187 L1980.28 458.71 L1985.21 458.71 L1985.21 462.599 L1980.28 462.599 L1980.28 470.747 L1975.63 470.747 L1975.63 462.599 L1960.02 462.599 L1960.02 458.085 L1974.4 436.187 Z" fill="#000000" fill-rule="evenodd" fill-opacity="1" /><polyline clip-path="url(#clip800)" style="stroke:#c68125; stroke-linecap:butt; stroke-linejoin:round; stroke-width:4; stroke-opacity:1; fill:none" points="
  1662.76,505.307 1796.43,505.307 
  "/>
<line clip-path="url(#clip800)" x1="1755.2" y1="505.307" x2="1704" y2="505.307" style="stroke:#c68125; stroke-width:4.9152; stroke-opacity:1"/>
<path clip-path="url(#clip800)" d="M1818.7 486.569 L1822.96 486.569 L1822.96 522.587 L1818.7 522.587 L1818.7 486.569 Z" fill="#000000" fill-rule="evenodd" fill-opacity="1" /><path clip-path="url(#clip800)" d="M1848.4 497.425 L1848.4 501.453 Q1846.6 500.527 1844.65 500.064 Q1842.71 499.601 1840.63 499.601 Q1837.45 499.601 1835.86 500.573 Q1834.28 501.546 1834.28 503.49 Q1834.28 504.972 1835.42 505.828 Q1836.55 506.661 1839.98 507.425 L1841.44 507.749 Q1845.97 508.722 1847.87 510.504 Q1849.79 512.263 1849.79 515.434 Q1849.79 519.046 1846.92 521.152 Q1844.08 523.258 1839.08 523.258 Q1836.99 523.258 1834.72 522.842 Q1832.48 522.448 1829.98 521.638 L1829.98 517.24 Q1832.34 518.467 1834.63 519.092 Q1836.92 519.694 1839.17 519.694 Q1842.18 519.694 1843.8 518.675 Q1845.42 517.634 1845.42 515.759 Q1845.42 514.022 1844.24 513.096 Q1843.08 512.171 1839.12 511.314 L1837.64 510.967 Q1833.68 510.134 1831.92 508.421 Q1830.16 506.684 1830.16 503.675 Q1830.16 500.018 1832.76 498.027 Q1835.35 496.036 1840.12 496.036 Q1842.48 496.036 1844.56 496.384 Q1846.64 496.731 1848.4 497.425 Z" fill="#000000" fill-rule="evenodd" fill-opacity="1" /><path clip-path="url(#clip800)" d="M1866.62 499.647 Q1863.2 499.647 1861.2 502.333 Q1859.21 504.995 1859.21 509.647 Q1859.21 514.3 1861.18 516.985 Q1863.17 519.647 1866.62 519.647 Q1870.02 519.647 1872.01 516.962 Q1874.01 514.277 1874.01 509.647 Q1874.01 505.041 1872.01 502.356 Q1870.02 499.647 1866.62 499.647 M1866.62 496.036 Q1872.18 496.036 1875.35 499.647 Q1878.52 503.259 1878.52 509.647 Q1878.52 516.013 1875.35 519.647 Q1872.18 523.258 1866.62 523.258 Q1861.04 523.258 1857.87 519.647 Q1854.72 516.013 1854.72 509.647 Q1854.72 503.259 1857.87 499.647 Q1861.04 496.036 1866.62 496.036 Z" fill="#000000" fill-rule="evenodd" fill-opacity="1" /><path clip-path="url(#clip800)" d="M1902.64 500.597 L1902.64 486.569 L1906.9 486.569 L1906.9 522.587 L1902.64 522.587 L1902.64 518.698 Q1901.3 521.013 1899.24 522.147 Q1897.2 523.258 1894.33 523.258 Q1889.63 523.258 1886.67 519.508 Q1883.73 515.759 1883.73 509.647 Q1883.73 503.536 1886.67 499.786 Q1889.63 496.036 1894.33 496.036 Q1897.2 496.036 1899.24 497.171 Q1901.3 498.282 1902.64 500.597 M1888.13 509.647 Q1888.13 514.346 1890.05 517.032 Q1891.99 519.694 1895.37 519.694 Q1898.75 519.694 1900.7 517.032 Q1902.64 514.346 1902.64 509.647 Q1902.64 504.948 1900.7 502.286 Q1898.75 499.601 1895.37 499.601 Q1891.99 499.601 1890.05 502.286 Q1888.13 504.948 1888.13 509.647 Z" fill="#000000" fill-rule="evenodd" fill-opacity="1" /><path clip-path="url(#clip800)" d="M1927.45 509.555 Q1922.29 509.555 1920.3 510.735 Q1918.31 511.916 1918.31 514.763 Q1918.31 517.032 1919.79 518.374 Q1921.3 519.694 1923.87 519.694 Q1927.41 519.694 1929.54 517.194 Q1931.69 514.671 1931.69 510.504 L1931.69 509.555 L1927.45 509.555 M1935.95 507.796 L1935.95 522.587 L1931.69 522.587 L1931.69 518.652 Q1930.23 521.013 1928.06 522.147 Q1925.88 523.258 1922.73 523.258 Q1918.75 523.258 1916.39 521.036 Q1914.05 518.791 1914.05 515.041 Q1914.05 510.666 1916.97 508.444 Q1919.91 506.222 1925.72 506.222 L1931.69 506.222 L1931.69 505.805 Q1931.69 502.865 1929.75 501.268 Q1927.82 499.647 1924.33 499.647 Q1922.11 499.647 1920 500.18 Q1917.89 500.712 1915.95 501.777 L1915.95 497.842 Q1918.29 496.939 1920.49 496.499 Q1922.69 496.036 1924.77 496.036 Q1930.39 496.036 1933.17 498.953 Q1935.95 501.87 1935.95 507.796 Z" fill="#000000" fill-rule="evenodd" fill-opacity="1" /><polyline clip-path="url(#clip800)" style="stroke:#00a98d; stroke-linecap:butt; stroke-linejoin:round; stroke-width:4; stroke-opacity:1; fill:none" points="
  1662.76,557.147 1796.43,557.147 
  "/>
<path clip-path="url(#clip800)" d="M1709.12 557.147 L1739.84 575.067 L1739.84 539.227 L1709.12 557.147 Z" fill="#00a98d" fill-rule="evenodd" fill-opacity="1" stroke="#000000" stroke-opacity="1" stroke-width="4.9152"/>
<path clip-path="url(#clip800)" d="M1833.89 552.483 Q1833.17 552.066 1832.32 551.881 Q1831.48 551.673 1830.46 551.673 Q1826.85 551.673 1824.91 554.034 Q1822.99 556.372 1822.99 560.77 L1822.99 574.427 L1818.7 574.427 L1818.7 548.501 L1822.99 548.501 L1822.99 552.529 Q1824.33 550.168 1826.48 549.034 Q1828.64 547.876 1831.71 547.876 Q1832.15 547.876 1832.69 547.946 Q1833.22 547.992 1833.87 548.108 L1833.89 552.483 Z" fill="#000000" fill-rule="evenodd" fill-opacity="1" /><path clip-path="url(#clip800)" d="M1850.14 561.395 Q1844.98 561.395 1842.99 562.575 Q1841 563.756 1841 566.603 Q1841 568.872 1842.48 570.214 Q1843.98 571.534 1846.55 571.534 Q1850.09 571.534 1852.22 569.034 Q1854.38 566.511 1854.38 562.344 L1854.38 561.395 L1850.14 561.395 M1858.64 559.636 L1858.64 574.427 L1854.38 574.427 L1854.38 570.492 Q1852.92 572.853 1850.74 573.987 Q1848.57 575.098 1845.42 575.098 Q1841.44 575.098 1839.08 572.876 Q1836.74 570.631 1836.74 566.881 Q1836.74 562.506 1839.65 560.284 Q1842.59 558.062 1848.4 558.062 L1854.38 558.062 L1854.38 557.645 Q1854.38 554.705 1852.43 553.108 Q1850.51 551.487 1847.01 551.487 Q1844.79 551.487 1842.69 552.02 Q1840.58 552.552 1838.64 553.617 L1838.64 549.682 Q1840.97 548.779 1843.17 548.339 Q1845.37 547.876 1847.45 547.876 Q1853.08 547.876 1855.86 550.793 Q1858.64 553.71 1858.64 559.636 Z" fill="#000000" fill-rule="evenodd" fill-opacity="1" /><path clip-path="url(#clip800)" d="M1884.47 552.437 L1884.47 538.409 L1888.73 538.409 L1888.73 574.427 L1884.47 574.427 L1884.47 570.538 Q1883.13 572.853 1881.07 573.987 Q1879.03 575.098 1876.16 575.098 Q1871.46 575.098 1868.5 571.348 Q1865.56 567.599 1865.56 561.487 Q1865.56 555.376 1868.5 551.626 Q1871.46 547.876 1876.16 547.876 Q1879.03 547.876 1881.07 549.011 Q1883.13 550.122 1884.47 552.437 M1869.95 561.487 Q1869.95 566.186 1871.88 568.872 Q1873.82 571.534 1877.2 571.534 Q1880.58 571.534 1882.52 568.872 Q1884.47 566.186 1884.47 561.487 Q1884.47 556.788 1882.52 554.126 Q1880.58 551.441 1877.2 551.441 Q1873.82 551.441 1871.88 554.126 Q1869.95 556.788 1869.95 561.487 Z" fill="#000000" fill-rule="evenodd" fill-opacity="1" /><path clip-path="url(#clip800)" d="M1909.28 561.395 Q1904.12 561.395 1902.13 562.575 Q1900.14 563.756 1900.14 566.603 Q1900.14 568.872 1901.62 570.214 Q1903.13 571.534 1905.7 571.534 Q1909.24 571.534 1911.37 569.034 Q1913.52 566.511 1913.52 562.344 L1913.52 561.395 L1909.28 561.395 M1917.78 559.636 L1917.78 574.427 L1913.52 574.427 L1913.52 570.492 Q1912.06 572.853 1909.88 573.987 Q1907.71 575.098 1904.56 575.098 Q1900.58 575.098 1898.22 572.876 Q1895.88 570.631 1895.88 566.881 Q1895.88 562.506 1898.8 560.284 Q1901.74 558.062 1907.55 558.062 L1913.52 558.062 L1913.52 557.645 Q1913.52 554.705 1911.57 553.108 Q1909.65 551.487 1906.16 551.487 Q1903.94 551.487 1901.83 552.02 Q1899.72 552.552 1897.78 553.617 L1897.78 549.682 Q1900.12 548.779 1902.32 548.339 Q1904.51 547.876 1906.6 547.876 Q1912.22 547.876 1915 550.793 Q1917.78 553.71 1917.78 559.636 Z" fill="#000000" fill-rule="evenodd" fill-opacity="1" /><path clip-path="url(#clip800)" d="M1926.11 564.196 L1926.11 548.501 L1930.37 548.501 L1930.37 564.034 Q1930.37 567.714 1931.81 569.566 Q1933.24 571.395 1936.11 571.395 Q1939.56 571.395 1941.55 569.196 Q1943.57 566.997 1943.57 563.2 L1943.57 548.501 L1947.82 548.501 L1947.82 574.427 L1943.57 574.427 L1943.57 570.446 Q1942.01 572.807 1939.95 573.964 Q1937.92 575.098 1935.21 575.098 Q1930.74 575.098 1928.43 572.321 Q1926.11 569.543 1926.11 564.196 M1936.83 547.876 L1936.83 547.876 Z" fill="#000000" fill-rule="evenodd" fill-opacity="1" /></svg>
