<?xml version="1.0" encoding="utf-8"?>
<svg xmlns="http://www.w3.org/2000/svg" xmlns:xlink="http://www.w3.org/1999/xlink" width="576" height="384" viewBox="0 0 2304 1536">
<defs>
  <clipPath id="clip680">
    <rect x="0" y="0" width="2304" height="1536"/>
  </clipPath>
</defs>
<path clip-path="url(#clip680)" d="
M0 1536 L2304 1536 L2304 0 L0 0  Z
  " fill="#ffffff" fill-rule="evenodd" fill-opacity="1"/>
<defs>
  <clipPath id="clip681">
    <rect x="460" y="0" width="1614" height="1536"/>
  </clipPath>
</defs>
<path clip-path="url(#clip680)" d="
M251.804 1347.54 L2256.76 1347.54 L2256.76 47.2441 L251.804 47.2441  Z
  " fill="#ffffff" fill-rule="evenodd" fill-opacity="1"/>
<defs>
  <clipPath id="clip682">
    <rect x="251" y="47" width="2006" height="1301"/>
  </clipPath>
</defs>
<polyline clip-path="url(#clip682)" style="stroke:#000000; stroke-linecap:butt; stroke-linejoin:round; stroke-width:2; stroke-opacity:0.1; fill:none" points="
  831.225,1347.54 831.225,47.2441 
  "/>
<polyline clip-path="url(#clip682)" style="stroke:#000000; stroke-linecap:butt; stroke-linejoin:round; stroke-width:2; stroke-opacity:0.1; fill:none" points="
  1637.44,1347.54 1637.44,47.2441 
  "/>
<polyline clip-path="url(#clip680)" style="stroke:#000000; stroke-linecap:butt; stroke-linejoin:round; stroke-width:4; stroke-opacity:1; fill:none" points="
  251.804,1347.54 2256.76,1347.54 
  "/>
<polyline clip-path="url(#clip680)" style="stroke:#000000; stroke-linecap:butt; stroke-linejoin:round; stroke-width:4; stroke-opacity:1; fill:none" points="
  831.225,1347.54 831.225,1328.64 
  "/>
<polyline clip-path="url(#clip680)" style="stroke:#000000; stroke-linecap:butt; stroke-linejoin:round; stroke-width:4; stroke-opacity:1; fill:none" points="
  1637.44,1347.54 1637.44,1328.64 
  "/>
<path clip-path="url(#clip680)" d="M780.776 1420.89 L788.415 1420.89 L788.415 1394.53 L780.105 1396.19 L780.105 1391.94 L788.369 1390.27 L793.045 1390.27 L793.045 1420.89 L800.683 1420.89 L800.683 1424.83 L780.776 1424.83 L780.776 1420.89 Z" fill="#000000" fill-rule="evenodd" fill-opacity="1" /><path clip-path="url(#clip680)" d="M820.128 1393.35 Q816.517 1393.35 814.688 1396.91 Q812.882 1400.45 812.882 1407.58 Q812.882 1414.69 814.688 1418.25 Q816.517 1421.8 820.128 1421.8 Q823.762 1421.8 825.568 1418.25 Q827.396 1414.69 827.396 1407.58 Q827.396 1400.45 825.568 1396.91 Q823.762 1393.35 820.128 1393.35 M820.128 1389.64 Q825.938 1389.64 828.993 1394.25 Q832.072 1398.83 832.072 1407.58 Q832.072 1416.31 828.993 1420.92 Q825.938 1425.5 820.128 1425.5 Q814.318 1425.5 811.239 1420.92 Q808.183 1416.31 808.183 1407.58 Q808.183 1398.83 811.239 1394.25 Q814.318 1389.64 820.128 1389.64 Z" fill="#000000" fill-rule="evenodd" fill-opacity="1" /><path clip-path="url(#clip680)" d="M832.072 1383.74 L856.184 1383.74 L856.184 1386.94 L832.072 1386.94 L832.072 1383.74 Z" fill="#000000" fill-rule="evenodd" fill-opacity="1" /><path clip-path="url(#clip680)" d="M872.979 1381.86 Q870.421 1381.86 868.917 1383.61 Q867.431 1385.36 867.431 1388.41 Q867.431 1391.44 868.917 1393.21 Q870.421 1394.95 872.979 1394.95 Q875.537 1394.95 877.023 1393.21 Q878.527 1391.44 878.527 1388.41 Q878.527 1385.36 877.023 1383.61 Q875.537 1381.86 872.979 1381.86 M880.521 1369.96 L880.521 1373.42 Q879.092 1372.74 877.625 1372.39 Q876.176 1372.03 874.747 1372.03 Q870.985 1372.03 868.992 1374.57 Q867.017 1377.11 866.735 1382.24 Q867.845 1380.6 869.518 1379.74 Q871.192 1378.85 873.205 1378.85 Q877.437 1378.85 879.882 1381.43 Q882.345 1383.99 882.345 1388.41 Q882.345 1392.74 879.787 1395.35 Q877.23 1397.96 872.979 1397.96 Q868.108 1397.96 865.531 1394.24 Q862.955 1390.5 862.955 1383.41 Q862.955 1376.75 866.114 1372.8 Q869.274 1368.83 874.597 1368.83 Q876.026 1368.83 877.474 1369.11 Q878.941 1369.39 880.521 1369.96 Z" fill="#000000" fill-rule="evenodd" fill-opacity="1" /><path clip-path="url(#clip680)" d="M1586.86 1420.89 L1594.5 1420.89 L1594.5 1394.53 L1586.19 1396.19 L1586.19 1391.94 L1594.45 1390.27 L1599.13 1390.27 L1599.13 1420.89 L1606.77 1420.89 L1606.77 1424.83 L1586.86 1424.83 L1586.86 1420.89 Z" fill="#000000" fill-rule="evenodd" fill-opacity="1" /><path clip-path="url(#clip680)" d="M1626.21 1393.35 Q1622.6 1393.35 1620.77 1396.91 Q1618.97 1400.45 1618.97 1407.58 Q1618.97 1414.69 1620.77 1418.25 Q1622.6 1421.8 1626.21 1421.8 Q1629.85 1421.8 1631.65 1418.25 Q1633.48 1414.69 1633.48 1407.58 Q1633.48 1400.45 1631.65 1396.91 Q1629.85 1393.35 1626.21 1393.35 M1626.21 1389.64 Q1632.02 1389.64 1635.08 1394.25 Q1638.16 1398.83 1638.16 1407.58 Q1638.16 1416.31 1635.08 1420.92 Q1632.02 1425.5 1626.21 1425.5 Q1620.4 1425.5 1617.32 1420.92 Q1614.27 1416.31 1614.27 1407.58 Q1614.27 1398.83 1617.32 1394.25 Q1620.4 1389.64 1626.21 1389.64 Z" fill="#000000" fill-rule="evenodd" fill-opacity="1" /><path clip-path="url(#clip680)" d="M1638.16 1383.74 L1662.27 1383.74 L1662.27 1386.94 L1638.16 1386.94 L1638.16 1383.74 Z" fill="#000000" fill-rule="evenodd" fill-opacity="1" /><path clip-path="url(#clip680)" d="M1680.91 1372.65 L1671.32 1387.64 L1680.91 1387.64 L1680.91 1372.65 M1679.91 1369.34 L1684.69 1369.34 L1684.69 1387.64 L1688.69 1387.64 L1688.69 1390.8 L1684.69 1390.8 L1684.69 1397.42 L1680.91 1397.42 L1680.91 1390.8 L1668.23 1390.8 L1668.23 1387.13 L1679.91 1369.34 Z" fill="#000000" fill-rule="evenodd" fill-opacity="1" /><path clip-path="url(#clip680)" d="M1178.03 1461.87 L1208.08 1461.87 L1208.08 1467.28 L1184.46 1467.28 L1184.46 1481.34 L1207.09 1481.34 L1207.09 1486.76 L1184.46 1486.76 L1184.46 1503.97 L1208.65 1503.97 L1208.65 1509.39 L1178.03 1509.39 L1178.03 1461.87 Z" fill="#000000" fill-rule="evenodd" fill-opacity="1" /><path clip-path="url(#clip680)" d="M1239.62 1479.21 Q1238.64 1478.64 1237.46 1478.38 Q1236.31 1478.1 1234.91 1478.1 Q1229.95 1478.1 1227.27 1481.34 Q1224.63 1484.56 1224.63 1490.61 L1224.63 1509.39 L1218.74 1509.39 L1218.74 1473.74 L1224.63 1473.74 L1224.63 1479.28 Q1226.48 1476.03 1229.44 1474.47 Q1232.4 1472.88 1236.63 1472.88 Q1237.24 1472.88 1237.97 1472.97 Q1238.7 1473.04 1239.59 1473.2 L1239.62 1479.21 Z" fill="#000000" fill-rule="evenodd" fill-opacity="1" /><path clip-path="url(#clip680)" d="M1265.28 1479.21 Q1264.29 1478.64 1263.11 1478.38 Q1261.97 1478.1 1260.57 1478.1 Q1255.6 1478.1 1252.93 1481.34 Q1250.29 1484.56 1250.29 1490.61 L1250.29 1509.39 L1244.4 1509.39 L1244.4 1473.74 L1250.29 1473.74 L1250.29 1479.28 Q1252.13 1476.03 1255.09 1474.47 Q1258.05 1472.88 1262.28 1472.88 Q1262.89 1472.88 1263.62 1472.97 Q1264.35 1473.04 1265.24 1473.2 L1265.28 1479.21 Z" fill="#000000" fill-rule="evenodd" fill-opacity="1" /><path clip-path="url(#clip680)" d="M1283.8 1477.84 Q1279.09 1477.84 1276.35 1481.54 Q1273.62 1485.2 1273.62 1491.59 Q1273.62 1497.99 1276.32 1501.68 Q1279.06 1505.34 1283.8 1505.34 Q1288.48 1505.34 1291.22 1501.65 Q1293.95 1497.96 1293.95 1491.59 Q1293.95 1485.26 1291.22 1481.57 Q1288.48 1477.84 1283.8 1477.84 M1283.8 1472.88 Q1291.44 1472.88 1295.8 1477.84 Q1300.16 1482.81 1300.16 1491.59 Q1300.16 1500.35 1295.8 1505.34 Q1291.44 1510.31 1283.8 1510.31 Q1276.13 1510.31 1271.77 1505.34 Q1267.44 1500.35 1267.44 1491.59 Q1267.44 1482.81 1271.77 1477.84 Q1276.13 1472.88 1283.8 1472.88 Z" fill="#000000" fill-rule="evenodd" fill-opacity="1" /><path clip-path="url(#clip680)" d="M1330.53 1479.21 Q1329.54 1478.64 1328.36 1478.38 Q1327.22 1478.1 1325.81 1478.1 Q1320.85 1478.1 1318.18 1481.34 Q1315.53 1484.56 1315.53 1490.61 L1315.53 1509.39 L1309.65 1509.39 L1309.65 1473.74 L1315.53 1473.74 L1315.53 1479.28 Q1317.38 1476.03 1320.34 1474.47 Q1323.3 1472.88 1327.53 1472.88 Q1328.14 1472.88 1328.87 1472.97 Q1329.6 1473.04 1330.49 1473.2 L1330.53 1479.21 Z" fill="#000000" fill-rule="evenodd" fill-opacity="1" /><polyline clip-path="url(#clip682)" style="stroke:#000000; stroke-linecap:butt; stroke-linejoin:round; stroke-width:2; stroke-opacity:0.1; fill:none" points="
  251.804,1209.13 2256.76,1209.13 
  "/>
<polyline clip-path="url(#clip682)" style="stroke:#000000; stroke-linecap:butt; stroke-linejoin:round; stroke-width:2; stroke-opacity:0.1; fill:none" points="
  251.804,703.477 2256.76,703.477 
  "/>
<polyline clip-path="url(#clip682)" style="stroke:#000000; stroke-linecap:butt; stroke-linejoin:round; stroke-width:2; stroke-opacity:0.1; fill:none" points="
  251.804,197.826 2256.76,197.826 
  "/>
<polyline clip-path="url(#clip680)" style="stroke:#000000; stroke-linecap:butt; stroke-linejoin:round; stroke-width:4; stroke-opacity:1; fill:none" points="
  251.804,1347.54 251.804,47.2441 
  "/>
<polyline clip-path="url(#clip680)" style="stroke:#000000; stroke-linecap:butt; stroke-linejoin:round; stroke-width:4; stroke-opacity:1; fill:none" points="
  251.804,1209.13 270.702,1209.13 
  "/>
<polyline clip-path="url(#clip680)" style="stroke:#000000; stroke-linecap:butt; stroke-linejoin:round; stroke-width:4; stroke-opacity:1; fill:none" points="
  251.804,703.477 270.702,703.477 
  "/>
<polyline clip-path="url(#clip680)" style="stroke:#000000; stroke-linecap:butt; stroke-linejoin:round; stroke-width:4; stroke-opacity:1; fill:none" points="
  251.804,197.826 270.702,197.826 
  "/>
<path clip-path="url(#clip680)" d="M115.411 1228.92 L123.05 1228.92 L123.05 1202.56 L114.74 1204.22 L114.74 1199.96 L123.004 1198.3 L127.68 1198.3 L127.68 1228.92 L135.319 1228.92 L135.319 1232.86 L115.411 1232.86 L115.411 1228.92 Z" fill="#000000" fill-rule="evenodd" fill-opacity="1" /><path clip-path="url(#clip680)" d="M154.763 1201.38 Q151.152 1201.38 149.323 1204.94 Q147.518 1208.48 147.518 1215.61 Q147.518 1222.72 149.323 1226.28 Q151.152 1229.82 154.763 1229.82 Q158.397 1229.82 160.203 1226.28 Q162.032 1222.72 162.032 1215.61 Q162.032 1208.48 160.203 1204.94 Q158.397 1201.38 154.763 1201.38 M154.763 1197.67 Q160.573 1197.67 163.629 1202.28 Q166.707 1206.86 166.707 1215.61 Q166.707 1224.34 163.629 1228.94 Q160.573 1233.53 154.763 1233.53 Q148.953 1233.53 145.874 1228.94 Q142.819 1224.34 142.819 1215.61 Q142.819 1206.86 145.874 1202.28 Q148.953 1197.67 154.763 1197.67 Z" fill="#000000" fill-rule="evenodd" fill-opacity="1" /><path clip-path="url(#clip680)" d="M166.707 1191.77 L190.819 1191.77 L190.819 1194.97 L166.707 1194.97 L166.707 1191.77 Z" fill="#000000" fill-rule="evenodd" fill-opacity="1" /><path clip-path="url(#clip680)" d="M209.458 1180.68 L199.866 1195.67 L209.458 1195.67 L209.458 1180.68 M208.461 1177.37 L213.238 1177.37 L213.238 1195.67 L217.244 1195.67 L217.244 1198.83 L213.238 1198.83 L213.238 1205.45 L209.458 1205.45 L209.458 1198.83 L196.781 1198.83 L196.781 1195.16 L208.461 1177.37 Z" fill="#000000" fill-rule="evenodd" fill-opacity="1" /><path clip-path="url(#clip680)" d="M116.333 723.27 L123.972 723.27 L123.972 696.904 L115.662 698.571 L115.662 694.312 L123.926 692.645 L128.601 692.645 L128.601 723.27 L136.24 723.27 L136.24 727.205 L116.333 727.205 L116.333 723.27 Z" fill="#000000" fill-rule="evenodd" fill-opacity="1" /><path clip-path="url(#clip680)" d="M155.685 695.724 Q152.074 695.724 150.245 699.288 Q148.439 702.83 148.439 709.96 Q148.439 717.066 150.245 720.631 Q152.074 724.173 155.685 724.173 Q159.319 724.173 161.124 720.631 Q162.953 717.066 162.953 709.96 Q162.953 702.83 161.124 699.288 Q159.319 695.724 155.685 695.724 M155.685 692.02 Q161.495 692.02 164.55 696.626 Q167.629 701.21 167.629 709.96 Q167.629 718.687 164.55 723.293 Q161.495 727.876 155.685 727.876 Q149.875 727.876 146.796 723.293 Q143.74 718.687 143.74 709.96 Q143.74 701.21 146.796 696.626 Q149.875 692.02 155.685 692.02 Z" fill="#000000" fill-rule="evenodd" fill-opacity="1" /><path clip-path="url(#clip680)" d="M167.629 686.121 L191.741 686.121 L191.741 689.319 L167.629 689.319 L167.629 686.121 Z" fill="#000000" fill-rule="evenodd" fill-opacity="1" /><path clip-path="url(#clip680)" d="M211.451 684.654 Q214.178 685.237 215.702 687.081 Q217.244 688.924 217.244 691.632 Q217.244 695.789 214.385 698.064 Q211.526 700.34 206.26 700.34 Q204.492 700.34 202.612 699.983 Q200.75 699.644 198.756 698.948 L198.756 695.281 Q200.336 696.202 202.217 696.673 Q204.097 697.143 206.147 697.143 Q209.721 697.143 211.583 695.732 Q213.464 694.322 213.464 691.632 Q213.464 689.149 211.714 687.758 Q209.984 686.347 206.881 686.347 L203.608 686.347 L203.608 683.225 L207.031 683.225 Q209.834 683.225 211.32 682.115 Q212.805 680.987 212.805 678.88 Q212.805 676.717 211.263 675.57 Q209.74 674.404 206.881 674.404 Q205.32 674.404 203.533 674.743 Q201.746 675.081 199.602 675.796 L199.602 672.41 Q201.765 671.809 203.646 671.508 Q205.546 671.207 207.219 671.207 Q211.545 671.207 214.065 673.182 Q216.586 675.138 216.586 678.485 Q216.586 680.818 215.25 682.435 Q213.915 684.034 211.451 684.654 Z" fill="#000000" fill-rule="evenodd" fill-opacity="1" /><path clip-path="url(#clip680)" d="M117.104 217.618 L124.743 217.618 L124.743 191.252 L116.433 192.919 L116.433 188.66 L124.697 186.993 L129.373 186.993 L129.373 217.618 L137.011 217.618 L137.011 221.553 L117.104 221.553 L117.104 217.618 Z" fill="#000000" fill-rule="evenodd" fill-opacity="1" /><path clip-path="url(#clip680)" d="M156.456 190.072 Q152.845 190.072 151.016 193.637 Q149.21 197.178 149.21 204.308 Q149.21 211.414 151.016 214.979 Q152.845 218.521 156.456 218.521 Q160.09 218.521 161.896 214.979 Q163.724 211.414 163.724 204.308 Q163.724 197.178 161.896 193.637 Q160.09 190.072 156.456 190.072 M156.456 186.368 Q162.266 186.368 165.321 190.975 Q168.4 195.558 168.4 204.308 Q168.4 213.035 165.321 217.641 Q162.266 222.225 156.456 222.225 Q150.646 222.225 147.567 217.641 Q144.511 213.035 144.511 204.308 Q144.511 195.558 147.567 190.975 Q150.646 186.368 156.456 186.368 Z" fill="#000000" fill-rule="evenodd" fill-opacity="1" /><path clip-path="url(#clip680)" d="M168.4 180.47 L192.512 180.47 L192.512 183.667 L168.4 183.667 L168.4 180.47 Z" fill="#000000" fill-rule="evenodd" fill-opacity="1" /><path clip-path="url(#clip680)" d="M203.984 190.946 L217.244 190.946 L217.244 194.143 L199.414 194.143 L199.414 190.946 Q201.577 188.707 205.301 184.946 Q209.044 181.166 210.003 180.075 Q211.827 178.025 212.542 176.614 Q213.276 175.185 213.276 173.812 Q213.276 171.574 211.696 170.163 Q210.135 168.752 207.614 168.752 Q205.828 168.752 203.834 169.373 Q201.859 169.994 199.602 171.254 L199.602 167.417 Q201.897 166.495 203.89 166.025 Q205.884 165.555 207.539 165.555 Q211.903 165.555 214.498 167.737 Q217.093 169.918 217.093 173.567 Q217.093 175.297 216.435 176.859 Q215.796 178.401 214.084 180.507 Q213.614 181.053 211.094 183.667 Q208.574 186.262 203.984 190.946 Z" fill="#000000" fill-rule="evenodd" fill-opacity="1" /><path clip-path="url(#clip680)" d="M18.4042 827.219 L18.4042 787.02 L23.815 787.02 L23.815 803.889 L65.9242 803.889 L65.9242 810.35 L23.815 810.35 L23.815 827.219 L18.4042 827.219 Z" fill="#000000" fill-rule="evenodd" fill-opacity="1" /><path clip-path="url(#clip680)" d="M30.2762 783.073 L30.2762 777.216 L65.9242 777.216 L65.9242 783.073 L30.2762 783.073 M16.399 783.073 L16.399 777.216 L23.815 777.216 L23.815 783.073 L16.399 783.073 Z" fill="#000000" fill-rule="evenodd" fill-opacity="1" /><path clip-path="url(#clip680)" d="M37.1193 737.208 Q33.1726 735.012 31.2947 731.956 Q29.4168 728.901 29.4168 724.763 Q29.4168 719.193 33.3317 716.169 Q37.2148 713.145 44.4081 713.145 L65.9242 713.145 L65.9242 719.034 L44.599 719.034 Q39.4746 719.034 36.992 720.848 Q34.5094 722.662 34.5094 726.386 Q34.5094 730.938 37.5331 733.579 Q40.5568 736.221 45.7767 736.221 L65.9242 736.221 L65.9242 742.109 L44.599 742.109 Q39.4428 742.109 36.992 743.924 Q34.5094 745.738 34.5094 749.526 Q34.5094 754.013 37.5649 756.655 Q40.5886 759.297 45.7767 759.297 L65.9242 759.297 L65.9242 765.185 L30.2762 765.185 L30.2762 759.297 L35.8144 759.297 Q32.536 757.292 30.9764 754.491 Q29.4168 751.69 29.4168 747.839 Q29.4168 743.956 31.3902 741.25 Q33.3636 738.513 37.1193 737.208 Z" fill="#000000" fill-rule="evenodd" fill-opacity="1" /><path clip-path="url(#clip680)" d="M46.6361 670.973 L49.5006 670.973 L49.5006 697.9 Q55.5481 697.518 58.7309 694.271 Q61.8819 690.993 61.8819 685.168 Q61.8819 681.794 61.0544 678.643 Q60.2269 675.461 58.5718 672.341 L64.1099 672.341 Q65.4467 675.492 66.147 678.803 Q66.8472 682.113 66.8472 685.518 Q66.8472 694.048 61.8819 699.045 Q56.9167 704.011 48.4503 704.011 Q39.6974 704.011 34.5731 699.3 Q29.4168 694.558 29.4168 686.537 Q29.4168 679.344 34.0638 675.174 Q38.6789 670.973 46.6361 670.973 M44.9173 676.829 Q40.1112 676.893 37.2466 679.535 Q34.3821 682.145 34.3821 686.473 Q34.3821 691.375 37.1512 694.335 Q39.9202 697.263 44.9492 697.709 L44.9173 676.829 Z" fill="#000000" fill-rule="evenodd" fill-opacity="1" /><path clip-path="url(#clip680)" d="M16.4626 626.572 Q23.7832 630.837 30.9446 632.906 Q38.106 634.975 45.4584 634.975 Q52.8108 634.975 60.0359 632.906 Q67.2291 630.805 74.5179 626.572 L74.5179 631.664 Q67.0382 636.439 59.8131 638.826 Q52.588 641.181 45.4584 641.181 Q38.3606 641.181 31.1674 638.826 Q23.9742 636.471 16.4626 631.664 L16.4626 626.572 Z" fill="#000000" fill-rule="evenodd" fill-opacity="1" /><path clip-path="url(#clip680)" d="M31.3265 592.484 L36.8647 592.484 Q35.5916 594.966 34.955 597.64 Q34.3184 600.313 34.3184 603.178 Q34.3184 607.538 35.6552 609.735 Q36.992 611.899 39.6656 611.899 Q41.7026 611.899 42.8803 610.339 Q44.0261 608.78 45.0765 604.069 L45.5221 602.064 Q46.8589 595.826 49.3097 593.216 Q51.7286 590.574 56.0891 590.574 Q61.0544 590.574 63.9508 594.521 Q66.8472 598.435 66.8472 605.31 Q66.8472 608.175 66.2743 611.294 Q65.7332 614.382 64.6192 617.819 L58.5718 617.819 Q60.2587 614.573 61.118 611.422 Q61.9456 608.27 61.9456 605.183 Q61.9456 601.045 60.5451 598.817 Q59.1129 596.589 56.5347 596.589 Q54.1476 596.589 52.8745 598.213 Q51.6013 599.804 50.4237 605.247 L49.9462 607.284 Q48.8004 612.726 46.4451 615.145 Q44.058 617.564 39.9202 617.564 Q34.8913 617.564 32.1541 614 Q29.4168 610.435 29.4168 603.878 Q29.4168 600.632 29.8943 597.767 Q30.3717 594.902 31.3265 592.484 Z" fill="#000000" fill-rule="evenodd" fill-opacity="1" /><path clip-path="url(#clip680)" d="M16.4626 582.171 L16.4626 577.079 Q23.9742 572.304 31.1674 569.949 Q38.3606 567.562 45.4584 567.562 Q52.588 567.562 59.8131 569.949 Q67.0382 572.304 74.5179 577.079 L74.5179 582.171 Q67.2291 577.938 60.0359 575.869 Q52.8108 573.768 45.4584 573.768 Q38.106 573.768 30.9446 575.869 Q23.7832 577.938 16.4626 582.171 Z" fill="#000000" fill-rule="evenodd" fill-opacity="1" /><polyline clip-path="url(#clip682)" style="stroke:#009af9; stroke-linecap:butt; stroke-linejoin:round; stroke-width:12; stroke-opacity:1; fill:none" points="
  1385.45,1310.74 1247.35,1255 1079,1160.57 880.024,1052.05 
  "/>
<line clip-path="url(#clip682)" x1="1385.45" y1="1310.74" x2="1385.45" y2="1294.74" style="stroke:#009af9; stroke-width:3.072; stroke-opacity:1"/>
<line clip-path="url(#clip682)" x1="1385.45" y1="1310.74" x2="1369.45" y2="1310.74" style="stroke:#009af9; stroke-width:3.072; stroke-opacity:1"/>
<line clip-path="url(#clip682)" x1="1385.45" y1="1310.74" x2="1385.45" y2="1326.74" style="stroke:#009af9; stroke-width:3.072; stroke-opacity:1"/>
<line clip-path="url(#clip682)" x1="1385.45" y1="1310.74" x2="1401.45" y2="1310.74" style="stroke:#009af9; stroke-width:3.072; stroke-opacity:1"/>
<line clip-path="url(#clip682)" x1="1247.35" y1="1255" x2="1247.35" y2="1239" style="stroke:#009af9; stroke-width:3.072; stroke-opacity:1"/>
<line clip-path="url(#clip682)" x1="1247.35" y1="1255" x2="1231.35" y2="1255" style="stroke:#009af9; stroke-width:3.072; stroke-opacity:1"/>
<line clip-path="url(#clip682)" x1="1247.35" y1="1255" x2="1247.35" y2="1271" style="stroke:#009af9; stroke-width:3.072; stroke-opacity:1"/>
<line clip-path="url(#clip682)" x1="1247.35" y1="1255" x2="1263.35" y2="1255" style="stroke:#009af9; stroke-width:3.072; stroke-opacity:1"/>
<line clip-path="url(#clip682)" x1="1079" y1="1160.57" x2="1079" y2="1144.57" style="stroke:#009af9; stroke-width:3.072; stroke-opacity:1"/>
<line clip-path="url(#clip682)" x1="1079" y1="1160.57" x2="1063" y2="1160.57" style="stroke:#009af9; stroke-width:3.072; stroke-opacity:1"/>
<line clip-path="url(#clip682)" x1="1079" y1="1160.57" x2="1079" y2="1176.57" style="stroke:#009af9; stroke-width:3.072; stroke-opacity:1"/>
<line clip-path="url(#clip682)" x1="1079" y1="1160.57" x2="1095" y2="1160.57" style="stroke:#009af9; stroke-width:3.072; stroke-opacity:1"/>
<line clip-path="url(#clip682)" x1="880.024" y1="1052.05" x2="880.024" y2="1036.05" style="stroke:#009af9; stroke-width:3.072; stroke-opacity:1"/>
<line clip-path="url(#clip682)" x1="880.024" y1="1052.05" x2="864.024" y2="1052.05" style="stroke:#009af9; stroke-width:3.072; stroke-opacity:1"/>
<line clip-path="url(#clip682)" x1="880.024" y1="1052.05" x2="880.024" y2="1068.05" style="stroke:#009af9; stroke-width:3.072; stroke-opacity:1"/>
<line clip-path="url(#clip682)" x1="880.024" y1="1052.05" x2="896.024" y2="1052.05" style="stroke:#009af9; stroke-width:3.072; stroke-opacity:1"/>
<polyline clip-path="url(#clip682)" style="stroke:#e26f46; stroke-linecap:butt; stroke-linejoin:round; stroke-width:12; stroke-opacity:1; fill:none" points="
  1615.9,1169.42 1290.83,1081.45 978.449,979.479 524.062,863.512 
  "/>
<circle clip-path="url(#clip682)" cx="1615.9" cy="1169.42" r="14" fill="#e26f46" fill-rule="evenodd" fill-opacity="1" stroke="#000000" stroke-opacity="1" stroke-width="3.072"/>
<circle clip-path="url(#clip682)" cx="1290.83" cy="1081.45" r="14" fill="#e26f46" fill-rule="evenodd" fill-opacity="1" stroke="#000000" stroke-opacity="1" stroke-width="3.072"/>
<circle clip-path="url(#clip682)" cx="978.449" cy="979.479" r="14" fill="#e26f46" fill-rule="evenodd" fill-opacity="1" stroke="#000000" stroke-opacity="1" stroke-width="3.072"/>
<circle clip-path="url(#clip682)" cx="524.062" cy="863.512" r="14" fill="#e26f46" fill-rule="evenodd" fill-opacity="1" stroke="#000000" stroke-opacity="1" stroke-width="3.072"/>
<polyline clip-path="url(#clip682)" style="stroke:#3da44d; stroke-linecap:butt; stroke-linejoin:round; stroke-width:12; stroke-opacity:1; fill:none" points="
  1621.05,1097.19 1385.06,1066.34 1083.84,1019.48 763.267,949.846 
  "/>
<line clip-path="url(#clip682)" x1="1621.05" y1="1097.19" x2="1621.05" y2="1081.19" style="stroke:#3da44d; stroke-width:3.072; stroke-opacity:1"/>
<line clip-path="url(#clip682)" x1="1621.05" y1="1097.19" x2="1605.05" y2="1097.19" style="stroke:#3da44d; stroke-width:3.072; stroke-opacity:1"/>
<line clip-path="url(#clip682)" x1="1621.05" y1="1097.19" x2="1621.05" y2="1113.19" style="stroke:#3da44d; stroke-width:3.072; stroke-opacity:1"/>
<line clip-path="url(#clip682)" x1="1621.05" y1="1097.19" x2="1637.05" y2="1097.19" style="stroke:#3da44d; stroke-width:3.072; stroke-opacity:1"/>
<line clip-path="url(#clip682)" x1="1385.06" y1="1066.34" x2="1385.06" y2="1050.34" style="stroke:#3da44d; stroke-width:3.072; stroke-opacity:1"/>
<line clip-path="url(#clip682)" x1="1385.06" y1="1066.34" x2="1369.06" y2="1066.34" style="stroke:#3da44d; stroke-width:3.072; stroke-opacity:1"/>
<line clip-path="url(#clip682)" x1="1385.06" y1="1066.34" x2="1385.06" y2="1082.34" style="stroke:#3da44d; stroke-width:3.072; stroke-opacity:1"/>
<line clip-path="url(#clip682)" x1="1385.06" y1="1066.34" x2="1401.06" y2="1066.34" style="stroke:#3da44d; stroke-width:3.072; stroke-opacity:1"/>
<line clip-path="url(#clip682)" x1="1083.84" y1="1019.48" x2="1083.84" y2="1003.48" style="stroke:#3da44d; stroke-width:3.072; stroke-opacity:1"/>
<line clip-path="url(#clip682)" x1="1083.84" y1="1019.48" x2="1067.84" y2="1019.48" style="stroke:#3da44d; stroke-width:3.072; stroke-opacity:1"/>
<line clip-path="url(#clip682)" x1="1083.84" y1="1019.48" x2="1083.84" y2="1035.48" style="stroke:#3da44d; stroke-width:3.072; stroke-opacity:1"/>
<line clip-path="url(#clip682)" x1="1083.84" y1="1019.48" x2="1099.84" y2="1019.48" style="stroke:#3da44d; stroke-width:3.072; stroke-opacity:1"/>
<line clip-path="url(#clip682)" x1="763.267" y1="949.846" x2="763.267" y2="933.846" style="stroke:#3da44d; stroke-width:3.072; stroke-opacity:1"/>
<line clip-path="url(#clip682)" x1="763.267" y1="949.846" x2="747.267" y2="949.846" style="stroke:#3da44d; stroke-width:3.072; stroke-opacity:1"/>
<line clip-path="url(#clip682)" x1="763.267" y1="949.846" x2="763.267" y2="965.846" style="stroke:#3da44d; stroke-width:3.072; stroke-opacity:1"/>
<line clip-path="url(#clip682)" x1="763.267" y1="949.846" x2="779.267" y2="949.846" style="stroke:#3da44d; stroke-width:3.072; stroke-opacity:1"/>
<polyline clip-path="url(#clip682)" style="stroke:#c271d2; stroke-linecap:butt; stroke-linejoin:round; stroke-width:12; stroke-opacity:1; fill:none" points="
  1547.05,1188.54 1451.38,1143.55 1410.82,1088.95 1227.33,1034.47 
  "/>
<path clip-path="url(#clip682)" d="M1547.05 1172.54 L1531.05 1188.54 L1547.05 1204.54 L1563.05 1188.54 L1547.05 1172.54 Z" fill="#c271d2" fill-rule="evenodd" fill-opacity="1" stroke="#000000" stroke-opacity="1" stroke-width="3.072"/>
<path clip-path="url(#clip682)" d="M1451.38 1127.55 L1435.38 1143.55 L1451.38 1159.55 L1467.38 1143.55 L1451.38 1127.55 Z" fill="#c271d2" fill-rule="evenodd" fill-opacity="1" stroke="#000000" stroke-opacity="1" stroke-width="3.072"/>
<path clip-path="url(#clip682)" d="M1410.82 1072.95 L1394.82 1088.95 L1410.82 1104.95 L1426.82 1088.95 L1410.82 1072.95 Z" fill="#c271d2" fill-rule="evenodd" fill-opacity="1" stroke="#000000" stroke-opacity="1" stroke-width="3.072"/>
<path clip-path="url(#clip682)" d="M1227.33 1018.47 L1211.33 1034.47 L1227.33 1050.47 L1243.33 1034.47 L1227.33 1018.47 Z" fill="#c271d2" fill-rule="evenodd" fill-opacity="1" stroke="#000000" stroke-opacity="1" stroke-width="3.072"/>
<polyline clip-path="url(#clip682)" style="stroke:#ac8d18; stroke-linecap:butt; stroke-linejoin:round; stroke-width:12; stroke-opacity:1; fill:none" points="
  1631.81,1239.92 1384.6,1115.94 1161.05,978.071 775.786,953.291 
  "/>
<path clip-path="url(#clip682)" d="M1647.81 1223.92 L1615.81 1223.92 L1631.81 1255.92 L1647.81 1223.92 Z" fill="#ac8d18" fill-rule="evenodd" fill-opacity="1" stroke="#000000" stroke-opacity="1" stroke-width="3.072"/>
<path clip-path="url(#clip682)" d="M1400.6 1099.94 L1368.6 1099.94 L1384.6 1131.94 L1400.6 1099.94 Z" fill="#ac8d18" fill-rule="evenodd" fill-opacity="1" stroke="#000000" stroke-opacity="1" stroke-width="3.072"/>
<path clip-path="url(#clip682)" d="M1177.05 962.071 L1145.05 962.071 L1161.05 994.071 L1177.05 962.071 Z" fill="#ac8d18" fill-rule="evenodd" fill-opacity="1" stroke="#000000" stroke-opacity="1" stroke-width="3.072"/>
<path clip-path="url(#clip682)" d="M791.786 937.291 L759.786 937.291 L775.786 969.291 L791.786 937.291 Z" fill="#ac8d18" fill-rule="evenodd" fill-opacity="1" stroke="#000000" stroke-opacity="1" stroke-width="3.072"/>
<polyline clip-path="url(#clip682)" style="stroke:#00a9ad; stroke-linecap:butt; stroke-linejoin:round; stroke-width:12; stroke-opacity:1; fill:none" points="
  1203.32,983.003 943.974,961.954 665.317,909.888 332.923,838.248 
  "/>
<path clip-path="url(#clip682)" d="M1203.32 967.003 L1190.81 973.035 L1187.72 986.571 L1196.38 997.419 L1210.27 997.419 L1218.92 986.571 L1215.84 973.035 Z" fill="#00a9ad" fill-rule="evenodd" fill-opacity="1" stroke="#000000" stroke-opacity="1" stroke-width="3.072"/>
<path clip-path="url(#clip682)" d="M943.974 945.954 L931.462 951.986 L928.374 965.522 L937.03 976.37 L950.918 976.37 L959.574 965.522 L956.486 951.986 Z" fill="#00a9ad" fill-rule="evenodd" fill-opacity="1" stroke="#000000" stroke-opacity="1" stroke-width="3.072"/>
<path clip-path="url(#clip682)" d="M665.317 893.888 L652.805 899.92 L649.717 913.456 L658.373 924.304 L672.261 924.304 L680.917 913.456 L677.829 899.92 Z" fill="#00a9ad" fill-rule="evenodd" fill-opacity="1" stroke="#000000" stroke-opacity="1" stroke-width="3.072"/>
<path clip-path="url(#clip682)" d="M332.923 822.248 L320.411 828.28 L317.323 841.816 L325.979 852.664 L339.867 852.664 L348.523 841.816 L345.435 828.28 Z" fill="#00a9ad" fill-rule="evenodd" fill-opacity="1" stroke="#000000" stroke-opacity="1" stroke-width="3.072"/>
<polyline clip-path="url(#clip682)" style="stroke:#ed5d92; stroke-linecap:butt; stroke-linejoin:round; stroke-width:12; stroke-opacity:1; fill:none" points="
  1116.42,818.637 1327.12,809.239 450.578,776.967 448.607,737.408 
  "/>
<path clip-path="url(#clip682)" d="M1116.42 834.637 L1102.56 826.637 L1102.56 810.637 L1116.42 802.637 L1130.27 810.637 L1130.27 826.637 Z" fill="#ed5d92" fill-rule="evenodd" fill-opacity="1" stroke="#000000" stroke-opacity="1" stroke-width="3.072"/>
<path clip-path="url(#clip682)" d="M1327.12 825.239 L1313.26 817.239 L1313.26 801.239 L1327.12 793.239 L1340.97 801.239 L1340.97 817.239 Z" fill="#ed5d92" fill-rule="evenodd" fill-opacity="1" stroke="#000000" stroke-opacity="1" stroke-width="3.072"/>
<path clip-path="url(#clip682)" d="M450.578 792.967 L436.722 784.967 L436.722 768.967 L450.578 760.967 L464.434 768.967 L464.434 784.967 Z" fill="#ed5d92" fill-rule="evenodd" fill-opacity="1" stroke="#000000" stroke-opacity="1" stroke-width="3.072"/>
<path clip-path="url(#clip682)" d="M448.607 753.408 L434.751 745.408 L434.751 729.408 L448.607 721.408 L462.463 729.408 L462.463 745.408 Z" fill="#ed5d92" fill-rule="evenodd" fill-opacity="1" stroke="#000000" stroke-opacity="1" stroke-width="3.072"/>
<polyline clip-path="url(#clip682)" style="stroke:#c68125; stroke-linecap:butt; stroke-linejoin:round; stroke-width:12; stroke-opacity:1; fill:none" points="
  2200.01,888.12 1275.6,760.328 820.246,881.501 308.548,84.0448 
  "/>
<line clip-path="url(#clip682)" x1="2216.01" y1="888.12" x2="2184.01" y2="888.12" style="stroke:#c68125; stroke-width:3.072; stroke-opacity:1"/>
<line clip-path="url(#clip682)" x1="1291.6" y1="760.328" x2="1259.6" y2="760.328" style="stroke:#c68125; stroke-width:3.072; stroke-opacity:1"/>
<line clip-path="url(#clip682)" x1="836.246" y1="881.501" x2="804.246" y2="881.501" style="stroke:#c68125; stroke-width:3.072; stroke-opacity:1"/>
<line clip-path="url(#clip682)" x1="324.548" y1="84.0448" x2="292.548" y2="84.0448" style="stroke:#c68125; stroke-width:3.072; stroke-opacity:1"/>
<polyline clip-path="url(#clip682)" style="stroke:#00a98d; stroke-linecap:butt; stroke-linejoin:round; stroke-width:12; stroke-opacity:1; fill:none" points="
  1429.46,1029.63 1050.33,1021.46 584.109,992.465 495.364,966.707 
  "/>
<path clip-path="url(#clip682)" d="M1416.66 1029.63 L1435.86 1040.83 L1435.86 1018.43 L1416.66 1029.63 Z" fill="#00a98d" fill-rule="evenodd" fill-opacity="1" stroke="#000000" stroke-opacity="1" stroke-width="3.072"/>
<path clip-path="url(#clip682)" d="M1037.53 1021.46 L1056.73 1032.66 L1056.73 1010.26 L1037.53 1021.46 Z" fill="#00a98d" fill-rule="evenodd" fill-opacity="1" stroke="#000000" stroke-opacity="1" stroke-width="3.072"/>
<path clip-path="url(#clip682)" d="M571.309 992.465 L590.509 1003.67 L590.509 981.265 L571.309 992.465 Z" fill="#00a98d" fill-rule="evenodd" fill-opacity="1" stroke="#000000" stroke-opacity="1" stroke-width="3.072"/>
<path clip-path="url(#clip682)" d="M482.564 966.707 L501.764 977.907 L501.764 955.507 L482.564 966.707 Z" fill="#00a98d" fill-rule="evenodd" fill-opacity="1" stroke="#000000" stroke-opacity="1" stroke-width="3.072"/>
<path clip-path="url(#clip680)" d="
M1640.49 608.987 L2189.92 608.987 L2189.92 90.5872 L1640.49 90.5872  Z
  " fill="#ffffff" fill-rule="evenodd" fill-opacity="1"/>
<polyline clip-path="url(#clip680)" style="stroke:#000000; stroke-linecap:butt; stroke-linejoin:round; stroke-width:4; stroke-opacity:1; fill:none" points="
  1640.49,608.987 2189.92,608.987 2189.92,90.5872 1640.49,90.5872 1640.49,608.987 
  "/>
<polyline clip-path="url(#clip680)" style="stroke:#009af9; stroke-linecap:butt; stroke-linejoin:round; stroke-width:4; stroke-opacity:1; fill:none" points="
  1662.76,142.427 1796.43,142.427 
  "/>
<line clip-path="url(#clip680)" x1="1729.6" y1="142.427" x2="1729.6" y2="116.827" style="stroke:#009af9; stroke-width:4.9152; stroke-opacity:1"/>
<line clip-path="url(#clip680)" x1="1729.6" y1="142.427" x2="1704" y2="142.427" style="stroke:#009af9; stroke-width:4.9152; stroke-opacity:1"/>
<line clip-path="url(#clip680)" x1="1729.6" y1="142.427" x2="1729.6" y2="168.027" style="stroke:#009af9; stroke-width:4.9152; stroke-opacity:1"/>
<line clip-path="url(#clip680)" x1="1729.6" y1="142.427" x2="1755.2" y2="142.427" style="stroke:#009af9; stroke-width:4.9152; stroke-opacity:1"/>
<path clip-path="url(#clip680)" d="M1835.09 143.504 Q1836.6 144.013 1838.01 145.679 Q1839.45 147.346 1840.88 150.263 L1845.63 159.707 L1840.6 159.707 L1836.18 150.841 Q1834.47 147.369 1832.85 146.235 Q1831.25 145.101 1828.47 145.101 L1823.38 145.101 L1823.38 159.707 L1818.7 159.707 L1818.7 125.147 L1829.26 125.147 Q1835.19 125.147 1838.1 127.624 Q1841.02 130.101 1841.02 135.101 Q1841.02 138.365 1839.49 140.517 Q1837.99 142.67 1835.09 143.504 M1823.38 128.99 L1823.38 141.258 L1829.26 141.258 Q1832.64 141.258 1834.35 139.707 Q1836.09 138.133 1836.09 135.101 Q1836.09 132.068 1834.35 130.541 Q1832.64 128.99 1829.26 128.99 L1823.38 128.99 Z" fill="#000000" fill-rule="evenodd" fill-opacity="1" /><path clip-path="url(#clip680)" d="M1859.38 136.767 Q1855.95 136.767 1853.96 139.453 Q1851.97 142.115 1851.97 146.767 Q1851.97 151.42 1853.94 154.105 Q1855.93 156.767 1859.38 156.767 Q1862.78 156.767 1864.77 154.082 Q1866.76 151.397 1866.76 146.767 Q1866.76 142.161 1864.77 139.476 Q1862.78 136.767 1859.38 136.767 M1859.38 133.156 Q1864.93 133.156 1868.1 136.767 Q1871.27 140.379 1871.27 146.767 Q1871.27 153.133 1868.1 156.767 Q1864.93 160.378 1859.38 160.378 Q1853.8 160.378 1850.63 156.767 Q1847.48 153.133 1847.48 146.767 Q1847.48 140.379 1850.63 136.767 Q1853.8 133.156 1859.38 133.156 Z" fill="#000000" fill-rule="evenodd" fill-opacity="1" /><path clip-path="url(#clip680)" d="M1894.86 134.545 L1894.86 138.573 Q1893.06 137.647 1891.11 137.184 Q1889.17 136.721 1887.08 136.721 Q1883.91 136.721 1882.32 137.693 Q1880.74 138.666 1880.74 140.61 Q1880.74 142.092 1881.88 142.948 Q1883.01 143.781 1886.44 144.545 L1887.89 144.869 Q1892.43 145.842 1894.33 147.624 Q1896.25 149.383 1896.25 152.554 Q1896.25 156.166 1893.38 158.272 Q1890.53 160.378 1885.53 160.378 Q1883.45 160.378 1881.18 159.962 Q1878.94 159.568 1876.44 158.758 L1876.44 154.36 Q1878.8 155.587 1881.09 156.212 Q1883.38 156.814 1885.63 156.814 Q1888.63 156.814 1890.26 155.795 Q1891.88 154.754 1891.88 152.879 Q1891.88 151.142 1890.7 150.216 Q1889.54 149.291 1885.58 148.434 L1884.1 148.087 Q1880.14 147.254 1878.38 145.541 Q1876.62 143.804 1876.62 140.795 Q1876.62 137.138 1879.21 135.147 Q1881.81 133.156 1886.57 133.156 Q1888.94 133.156 1891.02 133.504 Q1893.1 133.851 1894.86 134.545 Z" fill="#000000" fill-rule="evenodd" fill-opacity="1" /><path clip-path="url(#clip680)" d="M1925.21 145.679 L1925.21 147.763 L1905.63 147.763 Q1905.9 152.161 1908.26 154.476 Q1910.65 156.767 1914.88 156.767 Q1917.34 156.767 1919.63 156.166 Q1921.94 155.564 1924.21 154.36 L1924.21 158.388 Q1921.92 159.36 1919.51 159.869 Q1917.11 160.378 1914.63 160.378 Q1908.43 160.378 1904.79 156.767 Q1901.18 153.156 1901.18 146.999 Q1901.18 140.633 1904.61 136.906 Q1908.06 133.156 1913.89 133.156 Q1919.12 133.156 1922.15 136.536 Q1925.21 139.892 1925.21 145.679 M1920.95 144.429 Q1920.9 140.934 1918.98 138.851 Q1917.08 136.767 1913.94 136.767 Q1910.37 136.767 1908.22 138.781 Q1906.09 140.795 1905.76 144.453 L1920.95 144.429 Z" fill="#000000" fill-rule="evenodd" fill-opacity="1" /><path clip-path="url(#clip680)" d="M1953.75 144.059 L1953.75 159.707 L1949.49 159.707 L1949.49 144.198 Q1949.49 140.517 1948.06 138.689 Q1946.62 136.86 1943.75 136.86 Q1940.3 136.86 1938.31 139.059 Q1936.32 141.258 1936.32 145.054 L1936.32 159.707 L1932.04 159.707 L1932.04 133.781 L1936.32 133.781 L1936.32 137.809 Q1937.85 135.471 1939.91 134.314 Q1941.99 133.156 1944.7 133.156 Q1949.17 133.156 1951.46 135.934 Q1953.75 138.689 1953.75 144.059 Z" fill="#000000" fill-rule="evenodd" fill-opacity="1" /><path clip-path="url(#clip680)" d="M1980.86 146.767 Q1980.86 142.068 1978.91 139.406 Q1976.99 136.721 1973.61 136.721 Q1970.23 136.721 1968.29 139.406 Q1966.37 142.068 1966.37 146.767 Q1966.37 151.466 1968.29 154.152 Q1970.23 156.814 1973.61 156.814 Q1976.99 156.814 1978.91 154.152 Q1980.86 151.466 1980.86 146.767 M1966.37 137.717 Q1967.71 135.402 1969.75 134.291 Q1971.81 133.156 1974.65 133.156 Q1979.38 133.156 1982.32 136.906 Q1985.28 140.656 1985.28 146.767 Q1985.28 152.879 1982.32 156.628 Q1979.38 160.378 1974.65 160.378 Q1971.81 160.378 1969.75 159.267 Q1967.71 158.133 1966.37 155.818 L1966.37 159.707 L1962.08 159.707 L1962.08 123.689 L1966.37 123.689 L1966.37 137.717 Z" fill="#000000" fill-rule="evenodd" fill-opacity="1" /><path clip-path="url(#clip680)" d="M2007.36 137.763 Q2006.64 137.346 2005.79 137.161 Q2004.95 136.953 2003.94 136.953 Q2000.32 136.953 1998.38 139.314 Q1996.46 141.652 1996.46 146.05 L1996.46 159.707 L1992.18 159.707 L1992.18 133.781 L1996.46 133.781 L1996.46 137.809 Q1997.8 135.448 1999.95 134.314 Q2002.11 133.156 2005.19 133.156 Q2005.63 133.156 2006.16 133.226 Q2006.69 133.272 2007.34 133.388 L2007.36 137.763 Z" fill="#000000" fill-rule="evenodd" fill-opacity="1" /><path clip-path="url(#clip680)" d="M2020.83 136.767 Q2017.41 136.767 2015.42 139.453 Q2013.43 142.115 2013.43 146.767 Q2013.43 151.42 2015.39 154.105 Q2017.38 156.767 2020.83 156.767 Q2024.24 156.767 2026.23 154.082 Q2028.22 151.397 2028.22 146.767 Q2028.22 142.161 2026.23 139.476 Q2024.24 136.767 2020.83 136.767 M2020.83 133.156 Q2026.39 133.156 2029.56 136.767 Q2032.73 140.379 2032.73 146.767 Q2032.73 153.133 2029.56 156.767 Q2026.39 160.378 2020.83 160.378 Q2015.25 160.378 2012.08 156.767 Q2008.94 153.133 2008.94 146.767 Q2008.94 140.379 2012.08 136.767 Q2015.25 133.156 2020.83 133.156 Z" fill="#000000" fill-rule="evenodd" fill-opacity="1" /><path clip-path="url(#clip680)" d="M2058.45 134.777 L2058.45 138.758 Q2056.64 137.763 2054.81 137.277 Q2053.01 136.767 2051.16 136.767 Q2047.01 136.767 2044.72 139.406 Q2042.43 142.022 2042.43 146.767 Q2042.43 151.513 2044.72 154.152 Q2047.01 156.767 2051.16 156.767 Q2053.01 156.767 2054.81 156.281 Q2056.64 155.772 2058.45 154.777 L2058.45 158.712 Q2056.67 159.545 2054.75 159.962 Q2052.85 160.378 2050.69 160.378 Q2044.84 160.378 2041.39 156.698 Q2037.94 153.017 2037.94 146.767 Q2037.94 140.425 2041.41 136.791 Q2044.91 133.156 2050.97 133.156 Q2052.94 133.156 2054.81 133.573 Q2056.69 133.967 2058.45 134.777 Z" fill="#000000" fill-rule="evenodd" fill-opacity="1" /><path clip-path="url(#clip680)" d="M2065.69 123.689 L2069.98 123.689 L2069.98 144.962 L2082.68 133.781 L2088.12 133.781 L2074.37 145.911 L2088.7 159.707 L2083.15 159.707 L2069.98 147.045 L2069.98 159.707 L2065.69 159.707 L2065.69 123.689 Z" fill="#000000" fill-rule="evenodd" fill-opacity="1" /><path clip-path="url(#clip680)" d="M2097.94 155.772 L2114.26 155.772 L2114.26 159.707 L2092.31 159.707 L2092.31 155.772 Q2094.98 153.017 2099.56 148.388 Q2104.17 143.735 2105.35 142.392 Q2107.59 139.869 2108.47 138.133 Q2109.37 136.374 2109.37 134.684 Q2109.37 131.93 2107.43 130.193 Q2105.51 128.457 2102.41 128.457 Q2100.21 128.457 2097.75 129.221 Q2095.32 129.985 2092.55 131.536 L2092.55 126.814 Q2095.37 125.68 2097.82 125.101 Q2100.28 124.522 2102.31 124.522 Q2107.68 124.522 2110.88 127.207 Q2114.07 129.893 2114.07 134.383 Q2114.07 136.513 2113.26 138.434 Q2112.48 140.332 2110.37 142.925 Q2109.79 143.596 2106.69 146.814 Q2103.59 150.008 2097.94 155.772 Z" fill="#000000" fill-rule="evenodd" fill-opacity="1" /><path clip-path="url(#clip680)" d="M2138.24 141.073 Q2141.6 141.791 2143.47 144.059 Q2145.37 146.328 2145.37 149.661 Q2145.37 154.777 2141.85 157.578 Q2138.33 160.378 2131.85 160.378 Q2129.68 160.378 2127.36 159.939 Q2125.07 159.522 2122.62 158.666 L2122.62 154.152 Q2124.56 155.286 2126.87 155.865 Q2129.19 156.443 2131.71 156.443 Q2136.11 156.443 2138.4 154.707 Q2140.72 152.971 2140.72 149.661 Q2140.72 146.605 2138.56 144.892 Q2136.43 143.156 2132.62 143.156 L2128.59 143.156 L2128.59 139.314 L2132.8 139.314 Q2136.25 139.314 2138.08 137.948 Q2139.91 136.559 2139.91 133.967 Q2139.91 131.305 2138.01 129.893 Q2136.13 128.457 2132.62 128.457 Q2130.69 128.457 2128.49 128.874 Q2126.3 129.291 2123.66 130.17 L2123.66 126.004 Q2126.32 125.263 2128.63 124.893 Q2130.97 124.522 2133.03 124.522 Q2138.36 124.522 2141.46 126.953 Q2144.56 129.36 2144.56 133.48 Q2144.56 136.351 2142.92 138.342 Q2141.27 140.309 2138.24 141.073 Z" fill="#000000" fill-rule="evenodd" fill-opacity="1" /><polyline clip-path="url(#clip680)" style="stroke:#e26f46; stroke-linecap:butt; stroke-linejoin:round; stroke-width:4; stroke-opacity:1; fill:none" points="
  1662.76,194.267 1796.43,194.267 
  "/>
<circle clip-path="url(#clip680)" cx="1729.6" cy="194.267" r="23" fill="#e26f46" fill-rule="evenodd" fill-opacity="1" stroke="#000000" stroke-opacity="1" stroke-width="4.9152"/>
<path clip-path="url(#clip680)" d="M1818.7 176.987 L1838.57 176.987 L1838.57 180.922 L1823.38 180.922 L1823.38 191.107 L1837.08 191.107 L1837.08 195.043 L1823.38 195.043 L1823.38 211.547 L1818.7 211.547 L1818.7 176.987 Z" fill="#000000" fill-rule="evenodd" fill-opacity="1" /><path clip-path="url(#clip680)" d="M1850.65 195.043 L1850.65 207.705 L1858.15 207.705 Q1861.92 207.705 1863.73 206.154 Q1865.56 204.58 1865.56 201.362 Q1865.56 198.121 1863.73 196.594 Q1861.92 195.043 1858.15 195.043 L1850.65 195.043 M1850.65 180.83 L1850.65 191.246 L1857.57 191.246 Q1861 191.246 1862.66 189.973 Q1864.35 188.677 1864.35 186.038 Q1864.35 183.422 1862.66 182.126 Q1861 180.83 1857.57 180.83 L1850.65 180.83 M1845.97 176.987 L1857.92 176.987 Q1863.26 176.987 1866.16 179.209 Q1869.05 181.432 1869.05 185.529 Q1869.05 188.7 1867.57 190.575 Q1866.09 192.45 1863.22 192.913 Q1866.67 193.654 1868.57 196.015 Q1870.49 198.353 1870.49 201.871 Q1870.49 206.501 1867.34 209.024 Q1864.19 211.547 1858.38 211.547 L1845.97 211.547 L1845.97 176.987 Z" fill="#000000" fill-rule="evenodd" fill-opacity="1" /><path clip-path="url(#clip680)" d="M1883.17 180.83 L1883.17 207.705 L1888.82 207.705 Q1895.97 207.705 1899.28 204.464 Q1902.62 201.223 1902.62 194.232 Q1902.62 187.288 1899.28 184.07 Q1895.97 180.83 1888.82 180.83 L1883.17 180.83 M1878.5 176.987 L1888.1 176.987 Q1898.15 176.987 1902.85 181.177 Q1907.55 185.344 1907.55 194.232 Q1907.55 203.168 1902.82 207.357 Q1898.1 211.547 1888.1 211.547 L1878.5 211.547 L1878.5 176.987 Z" fill="#000000" fill-rule="evenodd" fill-opacity="1" /><path clip-path="url(#clip680)" d="M1915 176.987 L1934.86 176.987 L1934.86 180.922 L1919.68 180.922 L1919.68 191.107 L1933.38 191.107 L1933.38 195.043 L1919.68 195.043 L1919.68 211.547 L1915 211.547 L1915 176.987 Z" fill="#000000" fill-rule="evenodd" fill-opacity="1" /><polyline clip-path="url(#clip680)" style="stroke:#3da44d; stroke-linecap:butt; stroke-linejoin:round; stroke-width:4; stroke-opacity:1; fill:none" points="
  1662.76,246.107 1796.43,246.107 
  "/>
<line clip-path="url(#clip680)" x1="1729.6" y1="246.107" x2="1729.6" y2="220.507" style="stroke:#3da44d; stroke-width:4.9152; stroke-opacity:1"/>
<line clip-path="url(#clip680)" x1="1729.6" y1="246.107" x2="1704" y2="246.107" style="stroke:#3da44d; stroke-width:4.9152; stroke-opacity:1"/>
<line clip-path="url(#clip680)" x1="1729.6" y1="246.107" x2="1729.6" y2="271.707" style="stroke:#3da44d; stroke-width:4.9152; stroke-opacity:1"/>
<line clip-path="url(#clip680)" x1="1729.6" y1="246.107" x2="1755.2" y2="246.107" style="stroke:#3da44d; stroke-width:4.9152; stroke-opacity:1"/>
<path clip-path="url(#clip680)" d="M1834.72 231.998 Q1829.63 231.998 1826.62 235.795 Q1823.64 239.591 1823.64 246.142 Q1823.64 252.67 1826.62 256.466 Q1829.63 260.262 1834.72 260.262 Q1839.82 260.262 1842.78 256.466 Q1845.76 252.67 1845.76 246.142 Q1845.76 239.591 1842.78 235.795 Q1839.82 231.998 1834.72 231.998 M1841.27 262.762 L1847.43 269.498 L1841.78 269.498 L1836.67 263.966 Q1835.9 264.012 1835.49 264.035 Q1835.09 264.058 1834.72 264.058 Q1827.43 264.058 1823.06 259.197 Q1818.7 254.313 1818.7 246.142 Q1818.7 237.948 1823.06 233.086 Q1827.43 228.202 1834.72 228.202 Q1841.99 228.202 1846.34 233.086 Q1850.7 237.948 1850.7 246.142 Q1850.7 252.16 1848.26 256.443 Q1845.86 260.725 1841.27 262.762 Z" fill="#000000" fill-rule="evenodd" fill-opacity="1" /><path clip-path="url(#clip680)" d="M1858.01 228.827 L1864.31 228.827 L1879.63 257.739 L1879.63 228.827 L1884.17 228.827 L1884.17 263.387 L1877.87 263.387 L1862.55 234.475 L1862.55 263.387 L1858.01 263.387 L1858.01 228.827 Z" fill="#000000" fill-rule="evenodd" fill-opacity="1" /><path clip-path="url(#clip680)" d="M1898.15 232.67 L1898.15 259.545 L1903.8 259.545 Q1910.95 259.545 1914.26 256.304 Q1917.59 253.063 1917.59 246.072 Q1917.59 239.128 1914.26 235.91 Q1910.95 232.67 1903.8 232.67 L1898.15 232.67 M1893.47 228.827 L1903.08 228.827 Q1913.13 228.827 1917.82 233.017 Q1922.52 237.184 1922.52 246.072 Q1922.52 255.008 1917.8 259.197 Q1913.08 263.387 1903.08 263.387 L1893.47 263.387 L1893.47 228.827 Z" fill="#000000" fill-rule="evenodd" fill-opacity="1" /><path clip-path="url(#clip680)" d="M1929.98 228.827 L1949.84 228.827 L1949.84 232.762 L1934.65 232.762 L1934.65 242.947 L1948.36 242.947 L1948.36 246.883 L1934.65 246.883 L1934.65 263.387 L1929.98 263.387 L1929.98 228.827 Z" fill="#000000" fill-rule="evenodd" fill-opacity="1" /><polyline clip-path="url(#clip680)" style="stroke:#c271d2; stroke-linecap:butt; stroke-linejoin:round; stroke-width:4; stroke-opacity:1; fill:none" points="
  1662.76,297.947 1796.43,297.947 
  "/>
<path clip-path="url(#clip680)" d="M1729.6 272.347 L1704 297.947 L1729.6 323.547 L1755.2 297.947 L1729.6 272.347 Z" fill="#c271d2" fill-rule="evenodd" fill-opacity="1" stroke="#000000" stroke-opacity="1" stroke-width="4.9152"/>
<path clip-path="url(#clip680)" d="M1818.7 280.667 L1847.94 280.667 L1847.94 284.602 L1835.67 284.602 L1835.67 315.227 L1830.97 315.227 L1830.97 284.602 L1818.7 284.602 L1818.7 280.667 Z" fill="#000000" fill-rule="evenodd" fill-opacity="1" /><path clip-path="url(#clip680)" d="M1868.84 299.024 Q1870.35 299.533 1871.76 301.199 Q1873.2 302.866 1874.63 305.783 L1879.38 315.227 L1874.35 315.227 L1869.93 306.361 Q1868.22 302.889 1866.6 301.755 Q1865 300.621 1862.22 300.621 L1857.13 300.621 L1857.13 315.227 L1852.45 315.227 L1852.45 280.667 L1863.01 280.667 Q1868.94 280.667 1871.85 283.144 Q1874.77 285.621 1874.77 290.621 Q1874.77 293.885 1873.24 296.037 Q1871.74 298.19 1868.84 299.024 M1857.13 284.51 L1857.13 296.778 L1863.01 296.778 Q1866.39 296.778 1868.1 295.227 Q1869.84 293.653 1869.84 290.621 Q1869.84 287.588 1868.1 286.061 Q1866.39 284.51 1863.01 284.51 L1857.13 284.51 Z" fill="#000000" fill-rule="evenodd" fill-opacity="1" /><path clip-path="url(#clip680)" d="M1890.07 298.723 L1890.07 311.385 L1897.57 311.385 Q1901.34 311.385 1903.15 309.834 Q1904.98 308.26 1904.98 305.042 Q1904.98 301.801 1903.15 300.274 Q1901.34 298.723 1897.57 298.723 L1890.07 298.723 M1890.07 284.51 L1890.07 294.926 L1896.99 294.926 Q1900.42 294.926 1902.08 293.653 Q1903.77 292.357 1903.77 289.718 Q1903.77 287.102 1902.08 285.806 Q1900.42 284.51 1896.99 284.51 L1890.07 284.51 M1885.39 280.667 L1897.34 280.667 Q1902.69 280.667 1905.58 282.889 Q1908.47 285.112 1908.47 289.209 Q1908.47 292.38 1906.99 294.255 Q1905.51 296.13 1902.64 296.593 Q1906.09 297.334 1907.99 299.695 Q1909.91 302.033 1909.91 305.551 Q1909.91 310.181 1906.76 312.704 Q1903.61 315.227 1897.8 315.227 L1885.39 315.227 L1885.39 280.667 Z" fill="#000000" fill-rule="evenodd" fill-opacity="1" /><path clip-path="url(#clip680)" d="M1922.59 284.51 L1922.59 311.385 L1928.24 311.385 Q1935.39 311.385 1938.7 308.144 Q1942.04 304.903 1942.04 297.912 Q1942.04 290.968 1938.7 287.75 Q1935.39 284.51 1928.24 284.51 L1922.59 284.51 M1917.92 280.667 L1927.52 280.667 Q1937.57 280.667 1942.27 284.857 Q1946.97 289.024 1946.97 297.912 Q1946.97 306.848 1942.25 311.037 Q1937.52 315.227 1927.52 315.227 L1917.92 315.227 L1917.92 280.667 Z" fill="#000000" fill-rule="evenodd" fill-opacity="1" /><path clip-path="url(#clip680)" d="M1954.42 280.667 L1974.28 280.667 L1974.28 284.602 L1959.1 284.602 L1959.1 294.787 L1972.8 294.787 L1972.8 298.723 L1959.1 298.723 L1959.1 315.227 L1954.42 315.227 L1954.42 280.667 Z" fill="#000000" fill-rule="evenodd" fill-opacity="1" /><path clip-path="url(#clip680)" d="M1986.13 311.292 L2002.45 311.292 L2002.45 315.227 L1980.51 315.227 L1980.51 311.292 Q1983.17 308.537 1987.75 303.908 Q1992.36 299.255 1993.54 297.912 Q1995.79 295.389 1996.67 293.653 Q1997.57 291.894 1997.57 290.204 Q1997.57 287.45 1995.63 285.713 Q1993.7 283.977 1990.6 283.977 Q1988.4 283.977 1985.95 284.741 Q1983.52 285.505 1980.74 287.056 L1980.74 282.334 Q1983.56 281.2 1986.02 280.621 Q1988.47 280.042 1990.51 280.042 Q1995.88 280.042 1999.07 282.727 Q2002.27 285.413 2002.27 289.903 Q2002.27 292.033 2001.46 293.954 Q2000.67 295.852 1998.56 298.445 Q1997.99 299.116 1994.88 302.334 Q1991.78 305.528 1986.13 311.292 Z" fill="#000000" fill-rule="evenodd" fill-opacity="1" /><polyline clip-path="url(#clip680)" style="stroke:#ac8d18; stroke-linecap:butt; stroke-linejoin:round; stroke-width:4; stroke-opacity:1; fill:none" points="
  1662.76,349.787 1796.43,349.787 
  "/>
<path clip-path="url(#clip680)" d="M1755.2 324.187 L1704 324.187 L1729.6 375.387 L1755.2 324.187 Z" fill="#ac8d18" fill-rule="evenodd" fill-opacity="1" stroke="#000000" stroke-opacity="1" stroke-width="4.9152"/>
<path clip-path="url(#clip680)" d="M1846.57 335.169 L1846.57 340.1 Q1844.21 337.901 1841.53 336.813 Q1838.87 335.725 1835.86 335.725 Q1829.93 335.725 1826.78 339.359 Q1823.64 342.97 1823.64 349.822 Q1823.64 356.651 1826.78 360.285 Q1829.93 363.896 1835.86 363.896 Q1838.87 363.896 1841.53 362.808 Q1844.21 361.72 1846.57 359.521 L1846.57 364.405 Q1844.12 366.072 1841.37 366.905 Q1838.64 367.738 1835.58 367.738 Q1827.73 367.738 1823.22 362.947 Q1818.7 358.132 1818.7 349.822 Q1818.7 341.489 1823.22 336.697 Q1827.73 331.882 1835.58 331.882 Q1838.68 331.882 1841.41 332.716 Q1844.17 333.526 1846.57 335.169 Z" fill="#000000" fill-rule="evenodd" fill-opacity="1" /><path clip-path="url(#clip680)" d="M1862.71 367.067 L1849.51 332.507 L1854.4 332.507 L1865.35 361.604 L1876.32 332.507 L1881.18 332.507 L1868.01 367.067 L1862.71 367.067 Z" fill="#000000" fill-rule="evenodd" fill-opacity="1" /><path clip-path="url(#clip680)" d="M1899.42 335.678 Q1894.33 335.678 1891.32 339.475 Q1888.33 343.271 1888.33 349.822 Q1888.33 356.35 1891.32 360.146 Q1894.33 363.942 1899.42 363.942 Q1904.51 363.942 1907.48 360.146 Q1910.46 356.35 1910.46 349.822 Q1910.46 343.271 1907.48 339.475 Q1904.51 335.678 1899.42 335.678 M1899.42 331.882 Q1906.69 331.882 1911.04 336.766 Q1915.39 341.628 1915.39 349.822 Q1915.39 357.993 1911.04 362.877 Q1906.69 367.738 1899.42 367.738 Q1892.13 367.738 1887.76 362.877 Q1883.4 358.016 1883.4 349.822 Q1883.4 341.628 1887.76 336.766 Q1892.13 331.882 1899.42 331.882 Z" fill="#000000" fill-rule="evenodd" fill-opacity="1" /><path clip-path="url(#clip680)" d="M1927.38 336.35 L1927.38 363.225 L1933.03 363.225 Q1940.19 363.225 1943.5 359.984 Q1946.83 356.743 1946.83 349.752 Q1946.83 342.808 1943.5 339.59 Q1940.19 336.35 1933.03 336.35 L1927.38 336.35 M1922.71 332.507 L1932.32 332.507 Q1942.36 332.507 1947.06 336.697 Q1951.76 340.864 1951.76 349.752 Q1951.76 358.688 1947.04 362.877 Q1942.32 367.067 1932.32 367.067 L1922.71 367.067 L1922.71 332.507 Z" fill="#000000" fill-rule="evenodd" fill-opacity="1" /><path clip-path="url(#clip680)" d="M1959.21 332.507 L1981.07 332.507 L1981.07 336.442 L1963.89 336.442 L1963.89 346.674 L1980.35 346.674 L1980.35 350.609 L1963.89 350.609 L1963.89 363.132 L1981.48 363.132 L1981.48 367.067 L1959.21 367.067 L1959.21 332.507 Z" fill="#000000" fill-rule="evenodd" fill-opacity="1" /><path clip-path="url(#clip680)" d="M2008.68 374.938 L2008.68 378.248 L1984.05 378.248 L1984.05 374.938 L2008.68 374.938 Z" fill="#000000" fill-rule="evenodd" fill-opacity="1" /><path clip-path="url(#clip680)" d="M2017.55 350.563 L2017.55 363.225 L2025.05 363.225 Q2028.82 363.225 2030.62 361.674 Q2032.45 360.1 2032.45 356.882 Q2032.45 353.641 2030.62 352.114 Q2028.82 350.563 2025.05 350.563 L2017.55 350.563 M2017.55 336.35 L2017.55 346.766 L2024.47 346.766 Q2027.89 346.766 2029.56 345.493 Q2031.25 344.197 2031.25 341.558 Q2031.25 338.942 2029.56 337.646 Q2027.89 336.35 2024.47 336.35 L2017.55 336.35 M2012.87 332.507 L2024.81 332.507 Q2030.16 332.507 2033.06 334.729 Q2035.95 336.952 2035.95 341.049 Q2035.95 344.22 2034.47 346.095 Q2032.99 347.97 2030.12 348.433 Q2033.56 349.174 2035.46 351.535 Q2037.38 353.873 2037.38 357.391 Q2037.38 362.021 2034.24 364.544 Q2031.09 367.067 2025.28 367.067 L2012.87 367.067 L2012.87 332.507 Z" fill="#000000" fill-rule="evenodd" fill-opacity="1" /><path clip-path="url(#clip680)" d="M2050.07 336.35 L2050.07 363.225 L2055.72 363.225 Q2062.87 363.225 2066.18 359.984 Q2069.51 356.743 2069.51 349.752 Q2069.51 342.808 2066.18 339.59 Q2062.87 336.35 2055.72 336.35 L2050.07 336.35 M2045.39 332.507 L2055 332.507 Q2065.05 332.507 2069.75 336.697 Q2074.44 340.864 2074.44 349.752 Q2074.44 358.688 2069.72 362.877 Q2065 367.067 2055 367.067 L2045.39 367.067 L2045.39 332.507 Z" fill="#000000" fill-rule="evenodd" fill-opacity="1" /><path clip-path="url(#clip680)" d="M2081.9 332.507 L2101.76 332.507 L2101.76 336.442 L2086.57 336.442 L2086.57 346.627 L2100.28 346.627 L2100.28 350.563 L2086.57 350.563 L2086.57 367.067 L2081.9 367.067 L2081.9 332.507 Z" fill="#000000" fill-rule="evenodd" fill-opacity="1" /><polyline clip-path="url(#clip680)" style="stroke:#00a9ad; stroke-linecap:butt; stroke-linejoin:round; stroke-width:4; stroke-opacity:1; fill:none" points="
  1662.76,401.627 1796.43,401.627 
  "/>
<path clip-path="url(#clip680)" d="M1729.6 376.027 L1709.58 385.678 L1704.64 407.336 L1718.49 424.693 L1740.71 424.693 L1754.56 407.336 L1749.61 385.678 Z" fill="#00a9ad" fill-rule="evenodd" fill-opacity="1" stroke="#000000" stroke-opacity="1" stroke-width="4.9152"/>
<path clip-path="url(#clip680)" d="M1833.89 396.963 Q1833.17 396.546 1832.32 396.361 Q1831.48 396.153 1830.46 396.153 Q1826.85 396.153 1824.91 398.514 Q1822.99 400.852 1822.99 405.25 L1822.99 418.907 L1818.7 418.907 L1818.7 392.981 L1822.99 392.981 L1822.99 397.009 Q1824.33 394.648 1826.48 393.514 Q1828.64 392.356 1831.71 392.356 Q1832.15 392.356 1832.69 392.426 Q1833.22 392.472 1833.87 392.588 L1833.89 396.963 Z" fill="#000000" fill-rule="evenodd" fill-opacity="1" /><path clip-path="url(#clip680)" d="M1847.36 395.967 Q1843.94 395.967 1841.95 398.653 Q1839.95 401.315 1839.95 405.967 Q1839.95 410.62 1841.92 413.305 Q1843.91 415.967 1847.36 415.967 Q1850.76 415.967 1852.76 413.282 Q1854.75 410.597 1854.75 405.967 Q1854.75 401.361 1852.76 398.676 Q1850.76 395.967 1847.36 395.967 M1847.36 392.356 Q1852.92 392.356 1856.09 395.967 Q1859.26 399.579 1859.26 405.967 Q1859.26 412.333 1856.09 415.967 Q1852.92 419.578 1847.36 419.578 Q1841.78 419.578 1838.61 415.967 Q1835.46 412.333 1835.46 405.967 Q1835.46 399.579 1838.61 395.967 Q1841.78 392.356 1847.36 392.356 Z" fill="#000000" fill-rule="evenodd" fill-opacity="1" /><path clip-path="url(#clip680)" d="M1883.38 396.917 L1883.38 382.889 L1887.64 382.889 L1887.64 418.907 L1883.38 418.907 L1883.38 415.018 Q1882.04 417.333 1879.98 418.467 Q1877.94 419.578 1875.07 419.578 Q1870.37 419.578 1867.41 415.828 Q1864.47 412.079 1864.47 405.967 Q1864.47 399.856 1867.41 396.106 Q1870.37 392.356 1875.07 392.356 Q1877.94 392.356 1879.98 393.491 Q1882.04 394.602 1883.38 396.917 M1868.87 405.967 Q1868.87 410.666 1870.79 413.352 Q1872.73 416.014 1876.11 416.014 Q1879.49 416.014 1881.44 413.352 Q1883.38 410.666 1883.38 405.967 Q1883.38 401.268 1881.44 398.606 Q1879.49 395.921 1876.11 395.921 Q1872.73 395.921 1870.79 398.606 Q1868.87 401.268 1868.87 405.967 Z" fill="#000000" fill-rule="evenodd" fill-opacity="1" /><path clip-path="url(#clip680)" d="M1908.2 405.875 Q1903.03 405.875 1901.04 407.055 Q1899.05 408.236 1899.05 411.083 Q1899.05 413.352 1900.53 414.694 Q1902.04 416.014 1904.61 416.014 Q1908.15 416.014 1910.28 413.514 Q1912.43 410.991 1912.43 406.824 L1912.43 405.875 L1908.2 405.875 M1916.69 404.116 L1916.69 418.907 L1912.43 418.907 L1912.43 414.972 Q1910.97 417.333 1908.8 418.467 Q1906.62 419.578 1903.47 419.578 Q1899.49 419.578 1897.13 417.356 Q1894.79 415.111 1894.79 411.361 Q1894.79 406.986 1897.71 404.764 Q1900.65 402.542 1906.46 402.542 L1912.43 402.542 L1912.43 402.125 Q1912.43 399.185 1910.49 397.588 Q1908.57 395.967 1905.07 395.967 Q1902.85 395.967 1900.74 396.5 Q1898.63 397.032 1896.69 398.097 L1896.69 394.162 Q1899.03 393.259 1901.23 392.819 Q1903.43 392.356 1905.51 392.356 Q1911.13 392.356 1913.91 395.273 Q1916.69 398.19 1916.69 404.116 Z" fill="#000000" fill-rule="evenodd" fill-opacity="1" /><path clip-path="url(#clip680)" d="M1941.99 393.745 L1941.99 397.773 Q1940.19 396.847 1938.24 396.384 Q1936.3 395.921 1934.21 395.921 Q1931.04 395.921 1929.44 396.893 Q1927.87 397.866 1927.87 399.81 Q1927.87 401.292 1929.01 402.148 Q1930.14 402.981 1933.57 403.745 L1935.02 404.069 Q1939.56 405.042 1941.46 406.824 Q1943.38 408.583 1943.38 411.754 Q1943.38 415.366 1940.51 417.472 Q1937.66 419.578 1932.66 419.578 Q1930.58 419.578 1928.31 419.162 Q1926.07 418.768 1923.57 417.958 L1923.57 413.56 Q1925.93 414.787 1928.22 415.412 Q1930.51 416.014 1932.76 416.014 Q1935.76 416.014 1937.38 414.995 Q1939.01 413.954 1939.01 412.079 Q1939.01 410.342 1937.82 409.416 Q1936.67 408.491 1932.71 407.634 L1931.23 407.287 Q1927.27 406.454 1925.51 404.741 Q1923.75 403.004 1923.75 399.995 Q1923.75 396.338 1926.34 394.347 Q1928.94 392.356 1933.7 392.356 Q1936.07 392.356 1938.15 392.704 Q1940.23 393.051 1941.99 393.745 Z" fill="#000000" fill-rule="evenodd" fill-opacity="1" /><polyline clip-path="url(#clip680)" style="stroke:#ed5d92; stroke-linecap:butt; stroke-linejoin:round; stroke-width:4; stroke-opacity:1; fill:none" points="
  1662.76,453.467 1796.43,453.467 
  "/>
<path clip-path="url(#clip680)" d="M1729.6 479.067 L1707.43 466.267 L1707.43 440.667 L1729.6 427.867 L1751.77 440.667 L1751.77 466.267 Z" fill="#ed5d92" fill-rule="evenodd" fill-opacity="1" stroke="#000000" stroke-opacity="1" stroke-width="4.9152"/>
<path clip-path="url(#clip680)" d="M1833.89 448.803 Q1833.17 448.386 1832.32 448.201 Q1831.48 447.993 1830.46 447.993 Q1826.85 447.993 1824.91 450.354 Q1822.99 452.692 1822.99 457.09 L1822.99 470.747 L1818.7 470.747 L1818.7 444.821 L1822.99 444.821 L1822.99 448.849 Q1824.33 446.488 1826.48 445.354 Q1828.64 444.196 1831.71 444.196 Q1832.15 444.196 1832.69 444.266 Q1833.22 444.312 1833.87 444.428 L1833.89 448.803 Z" fill="#000000" fill-rule="evenodd" fill-opacity="1" /><path clip-path="url(#clip680)" d="M1850.14 457.715 Q1844.98 457.715 1842.99 458.895 Q1841 460.076 1841 462.923 Q1841 465.192 1842.48 466.534 Q1843.98 467.854 1846.55 467.854 Q1850.09 467.854 1852.22 465.354 Q1854.38 462.831 1854.38 458.664 L1854.38 457.715 L1850.14 457.715 M1858.64 455.956 L1858.64 470.747 L1854.38 470.747 L1854.38 466.812 Q1852.92 469.173 1850.74 470.307 Q1848.57 471.418 1845.42 471.418 Q1841.44 471.418 1839.08 469.196 Q1836.74 466.951 1836.74 463.201 Q1836.74 458.826 1839.65 456.604 Q1842.59 454.382 1848.4 454.382 L1854.38 454.382 L1854.38 453.965 Q1854.38 451.025 1852.43 449.428 Q1850.51 447.807 1847.01 447.807 Q1844.79 447.807 1842.69 448.34 Q1840.58 448.872 1838.64 449.937 L1838.64 446.002 Q1840.97 445.099 1843.17 444.659 Q1845.37 444.196 1847.45 444.196 Q1853.08 444.196 1855.86 447.113 Q1858.64 450.03 1858.64 455.956 Z" fill="#000000" fill-rule="evenodd" fill-opacity="1" /><path clip-path="url(#clip680)" d="M1884.47 448.757 L1884.47 434.729 L1888.73 434.729 L1888.73 470.747 L1884.47 470.747 L1884.47 466.858 Q1883.13 469.173 1881.07 470.307 Q1879.03 471.418 1876.16 471.418 Q1871.46 471.418 1868.5 467.668 Q1865.56 463.919 1865.56 457.807 Q1865.56 451.696 1868.5 447.946 Q1871.46 444.196 1876.16 444.196 Q1879.03 444.196 1881.07 445.331 Q1883.13 446.442 1884.47 448.757 M1869.95 457.807 Q1869.95 462.506 1871.88 465.192 Q1873.82 467.854 1877.2 467.854 Q1880.58 467.854 1882.52 465.192 Q1884.47 462.506 1884.47 457.807 Q1884.47 453.108 1882.52 450.446 Q1880.58 447.761 1877.2 447.761 Q1873.82 447.761 1871.88 450.446 Q1869.95 453.108 1869.95 457.807 Z" fill="#000000" fill-rule="evenodd" fill-opacity="1" /><path clip-path="url(#clip680)" d="M1909.28 457.715 Q1904.12 457.715 1902.13 458.895 Q1900.14 460.076 1900.14 462.923 Q1900.14 465.192 1901.62 466.534 Q1903.13 467.854 1905.7 467.854 Q1909.24 467.854 1911.37 465.354 Q1913.52 462.831 1913.52 458.664 L1913.52 457.715 L1909.28 457.715 M1917.78 455.956 L1917.78 470.747 L1913.52 470.747 L1913.52 466.812 Q1912.06 469.173 1909.88 470.307 Q1907.71 471.418 1904.56 471.418 Q1900.58 471.418 1898.22 469.196 Q1895.88 466.951 1895.88 463.201 Q1895.88 458.826 1898.8 456.604 Q1901.74 454.382 1907.55 454.382 L1913.52 454.382 L1913.52 453.965 Q1913.52 451.025 1911.57 449.428 Q1909.65 447.807 1906.16 447.807 Q1903.94 447.807 1901.83 448.34 Q1899.72 448.872 1897.78 449.937 L1897.78 446.002 Q1900.12 445.099 1902.32 444.659 Q1904.51 444.196 1906.6 444.196 Q1912.22 444.196 1915 447.113 Q1917.78 450.03 1917.78 455.956 Z" fill="#000000" fill-rule="evenodd" fill-opacity="1" /><path clip-path="url(#clip680)" d="M1926.11 460.516 L1926.11 444.821 L1930.37 444.821 L1930.37 460.354 Q1930.37 464.034 1931.81 465.886 Q1933.24 467.715 1936.11 467.715 Q1939.56 467.715 1941.55 465.516 Q1943.57 463.317 1943.57 459.52 L1943.57 444.821 L1947.82 444.821 L1947.82 470.747 L1943.57 470.747 L1943.57 466.766 Q1942.01 469.127 1939.95 470.284 Q1937.92 471.418 1935.21 471.418 Q1930.74 471.418 1928.43 468.641 Q1926.11 465.863 1926.11 460.516 M1936.83 444.196 L1936.83 444.196 Z" fill="#000000" fill-rule="evenodd" fill-opacity="1" /><polyline clip-path="url(#clip680)" style="stroke:#c68125; stroke-linecap:butt; stroke-linejoin:round; stroke-width:4; stroke-opacity:1; fill:none" points="
  1662.76,505.307 1796.43,505.307 
  "/>
<line clip-path="url(#clip680)" x1="1755.2" y1="505.307" x2="1704" y2="505.307" style="stroke:#c68125; stroke-width:4.9152; stroke-opacity:1"/>
<path clip-path="url(#clip680)" d="M1818.7 486.569 L1822.96 486.569 L1822.96 522.587 L1818.7 522.587 L1818.7 486.569 Z" fill="#000000" fill-rule="evenodd" fill-opacity="1" /><path clip-path="url(#clip680)" d="M1848.4 497.425 L1848.4 501.453 Q1846.6 500.527 1844.65 500.064 Q1842.71 499.601 1840.63 499.601 Q1837.45 499.601 1835.86 500.573 Q1834.28 501.546 1834.28 503.49 Q1834.28 504.972 1835.42 505.828 Q1836.55 506.661 1839.98 507.425 L1841.44 507.749 Q1845.97 508.722 1847.87 510.504 Q1849.79 512.263 1849.79 515.434 Q1849.79 519.046 1846.92 521.152 Q1844.08 523.258 1839.08 523.258 Q1836.99 523.258 1834.72 522.842 Q1832.48 522.448 1829.98 521.638 L1829.98 517.24 Q1832.34 518.467 1834.63 519.092 Q1836.92 519.694 1839.17 519.694 Q1842.18 519.694 1843.8 518.675 Q1845.42 517.634 1845.42 515.759 Q1845.42 514.022 1844.24 513.096 Q1843.08 512.171 1839.12 511.314 L1837.64 510.967 Q1833.68 510.134 1831.92 508.421 Q1830.16 506.684 1830.16 503.675 Q1830.16 500.018 1832.76 498.027 Q1835.35 496.036 1840.12 496.036 Q1842.48 496.036 1844.56 496.384 Q1846.64 496.731 1848.4 497.425 Z" fill="#000000" fill-rule="evenodd" fill-opacity="1" /><path clip-path="url(#clip680)" d="M1866.62 499.647 Q1863.2 499.647 1861.2 502.333 Q1859.21 504.995 1859.21 509.647 Q1859.21 514.3 1861.18 516.985 Q1863.17 519.647 1866.62 519.647 Q1870.02 519.647 1872.01 516.962 Q1874.01 514.277 1874.01 509.647 Q1874.01 505.041 1872.01 502.356 Q1870.02 499.647 1866.62 499.647 M1866.62 496.036 Q1872.18 496.036 1875.35 499.647 Q1878.52 503.259 1878.52 509.647 Q1878.52 516.013 1875.35 519.647 Q1872.18 523.258 1866.62 523.258 Q1861.04 523.258 1857.87 519.647 Q1854.72 516.013 1854.72 509.647 Q1854.72 503.259 1857.87 499.647 Q1861.04 496.036 1866.62 496.036 Z" fill="#000000" fill-rule="evenodd" fill-opacity="1" /><path clip-path="url(#clip680)" d="M1902.64 500.597 L1902.64 486.569 L1906.9 486.569 L1906.9 522.587 L1902.64 522.587 L1902.64 518.698 Q1901.3 521.013 1899.24 522.147 Q1897.2 523.258 1894.33 523.258 Q1889.63 523.258 1886.67 519.508 Q1883.73 515.759 1883.73 509.647 Q1883.73 503.536 1886.67 499.786 Q1889.63 496.036 1894.33 496.036 Q1897.2 496.036 1899.24 497.171 Q1901.3 498.282 1902.64 500.597 M1888.13 509.647 Q1888.13 514.346 1890.05 517.032 Q1891.99 519.694 1895.37 519.694 Q1898.75 519.694 1900.7 517.032 Q1902.64 514.346 1902.64 509.647 Q1902.64 504.948 1900.7 502.286 Q1898.75 499.601 1895.37 499.601 Q1891.99 499.601 1890.05 502.286 Q1888.13 504.948 1888.13 509.647 Z" fill="#000000" fill-rule="evenodd" fill-opacity="1" /><path clip-path="url(#clip680)" d="M1927.45 509.555 Q1922.29 509.555 1920.3 510.735 Q1918.31 511.916 1918.31 514.763 Q1918.31 517.032 1919.79 518.374 Q1921.3 519.694 1923.87 519.694 Q1927.41 519.694 1929.54 517.194 Q1931.69 514.671 1931.69 510.504 L1931.69 509.555 L1927.45 509.555 M1935.95 507.796 L1935.95 522.587 L1931.69 522.587 L1931.69 518.652 Q1930.23 521.013 1928.06 522.147 Q1925.88 523.258 1922.73 523.258 Q1918.75 523.258 1916.39 521.036 Q1914.05 518.791 1914.05 515.041 Q1914.05 510.666 1916.97 508.444 Q1919.91 506.222 1925.72 506.222 L1931.69 506.222 L1931.69 505.805 Q1931.69 502.865 1929.75 501.268 Q1927.82 499.647 1924.33 499.647 Q1922.11 499.647 1920 500.18 Q1917.89 500.712 1915.95 501.777 L1915.95 497.842 Q1918.29 496.939 1920.49 496.499 Q1922.69 496.036 1924.77 496.036 Q1930.39 496.036 1933.17 498.953 Q1935.95 501.87 1935.95 507.796 Z" fill="#000000" fill-rule="evenodd" fill-opacity="1" /><polyline clip-path="url(#clip680)" style="stroke:#00a98d; stroke-linecap:butt; stroke-linejoin:round; stroke-width:4; stroke-opacity:1; fill:none" points="
  1662.76,557.147 1796.43,557.147 
  "/>
<path clip-path="url(#clip680)" d="M1709.12 557.147 L1739.84 575.067 L1739.84 539.227 L1709.12 557.147 Z" fill="#00a98d" fill-rule="evenodd" fill-opacity="1" stroke="#000000" stroke-opacity="1" stroke-width="4.9152"/>
<path clip-path="url(#clip680)" d="M1835.09 558.224 Q1836.6 558.733 1838.01 560.399 Q1839.45 562.066 1840.88 564.983 L1845.63 574.427 L1840.6 574.427 L1836.18 565.561 Q1834.47 562.089 1832.85 560.955 Q1831.25 559.821 1828.47 559.821 L1823.38 559.821 L1823.38 574.427 L1818.7 574.427 L1818.7 539.867 L1829.26 539.867 Q1835.19 539.867 1838.1 542.344 Q1841.02 544.821 1841.02 549.821 Q1841.02 553.085 1839.49 555.237 Q1837.99 557.39 1835.09 558.224 M1823.38 543.71 L1823.38 555.978 L1829.26 555.978 Q1832.64 555.978 1834.35 554.427 Q1836.09 552.853 1836.09 549.821 Q1836.09 546.788 1834.35 545.261 Q1832.64 543.71 1829.26 543.71 L1823.38 543.71 Z" fill="#000000" fill-rule="evenodd" fill-opacity="1" /><path clip-path="url(#clip680)" d="M1862.2 561.395 Q1857.04 561.395 1855.05 562.575 Q1853.06 563.756 1853.06 566.603 Q1853.06 568.872 1854.54 570.214 Q1856.04 571.534 1858.61 571.534 Q1862.15 571.534 1864.28 569.034 Q1866.44 566.511 1866.44 562.344 L1866.44 561.395 L1862.2 561.395 M1870.7 559.636 L1870.7 574.427 L1866.44 574.427 L1866.44 570.492 Q1864.98 572.853 1862.8 573.987 Q1860.63 575.098 1857.48 575.098 Q1853.5 575.098 1851.14 572.876 Q1848.8 570.631 1848.8 566.881 Q1848.8 562.506 1851.71 560.284 Q1854.65 558.062 1860.46 558.062 L1866.44 558.062 L1866.44 557.645 Q1866.44 554.705 1864.49 553.108 Q1862.57 551.487 1859.07 551.487 Q1856.85 551.487 1854.75 552.02 Q1852.64 552.552 1850.7 553.617 L1850.7 549.682 Q1853.03 548.779 1855.23 548.339 Q1857.43 547.876 1859.51 547.876 Q1865.14 547.876 1867.92 550.793 Q1870.7 553.71 1870.7 559.636 Z" fill="#000000" fill-rule="evenodd" fill-opacity="1" /><path clip-path="url(#clip680)" d="M1896.53 552.437 L1896.53 538.409 L1900.79 538.409 L1900.79 574.427 L1896.53 574.427 L1896.53 570.538 Q1895.19 572.853 1893.13 573.987 Q1891.09 575.098 1888.22 575.098 Q1883.52 575.098 1880.56 571.348 Q1877.62 567.599 1877.62 561.487 Q1877.62 555.376 1880.56 551.626 Q1883.52 547.876 1888.22 547.876 Q1891.09 547.876 1893.13 549.011 Q1895.19 550.122 1896.53 552.437 M1882.01 561.487 Q1882.01 566.186 1883.94 568.872 Q1885.88 571.534 1889.26 571.534 Q1892.64 571.534 1894.58 568.872 Q1896.53 566.186 1896.53 561.487 Q1896.53 556.788 1894.58 554.126 Q1892.64 551.441 1889.26 551.441 Q1885.88 551.441 1883.94 554.126 Q1882.01 556.788 1882.01 561.487 Z" fill="#000000" fill-rule="evenodd" fill-opacity="1" /><path clip-path="url(#clip680)" d="M1921.34 561.395 Q1916.18 561.395 1914.19 562.575 Q1912.2 563.756 1912.2 566.603 Q1912.2 568.872 1913.68 570.214 Q1915.19 571.534 1917.76 571.534 Q1921.3 571.534 1923.43 569.034 Q1925.58 566.511 1925.58 562.344 L1925.58 561.395 L1921.34 561.395 M1929.84 559.636 L1929.84 574.427 L1925.58 574.427 L1925.58 570.492 Q1924.12 572.853 1921.94 573.987 Q1919.77 575.098 1916.62 575.098 Q1912.64 575.098 1910.28 572.876 Q1907.94 570.631 1907.94 566.881 Q1907.94 562.506 1910.86 560.284 Q1913.8 558.062 1919.61 558.062 L1925.58 558.062 L1925.58 557.645 Q1925.58 554.705 1923.63 553.108 Q1921.71 551.487 1918.22 551.487 Q1916 551.487 1913.89 552.02 Q1911.78 552.552 1909.84 553.617 L1909.84 549.682 Q1912.18 548.779 1914.38 548.339 Q1916.57 547.876 1918.66 547.876 Q1924.28 547.876 1927.06 550.793 Q1929.84 553.71 1929.84 559.636 Z" fill="#000000" fill-rule="evenodd" fill-opacity="1" /><path clip-path="url(#clip680)" d="M1938.17 564.196 L1938.17 548.501 L1942.43 548.501 L1942.43 564.034 Q1942.43 567.714 1943.87 569.566 Q1945.3 571.395 1948.17 571.395 Q1951.62 571.395 1953.61 569.196 Q1955.63 566.997 1955.63 563.2 L1955.63 548.501 L1959.88 548.501 L1959.88 574.427 L1955.63 574.427 L1955.63 570.446 Q1954.07 572.807 1952.01 573.964 Q1949.98 575.098 1947.27 575.098 Q1942.8 575.098 1940.49 572.321 Q1938.17 569.543 1938.17 564.196 M1948.89 547.876 L1948.89 547.876 Z" fill="#000000" fill-rule="evenodd" fill-opacity="1" /><path clip-path="url(#clip680)" d="M1968.84 539.867 L1973.52 539.867 L1973.52 574.427 L1968.84 574.427 L1968.84 539.867 Z" fill="#000000" fill-rule="evenodd" fill-opacity="1" /><path clip-path="url(#clip680)" d="M1982.82 539.867 L1987.5 539.867 L1987.5 574.427 L1982.82 574.427 L1982.82 539.867 Z" fill="#000000" fill-rule="evenodd" fill-opacity="1" /><path clip-path="url(#clip680)" d="M2008.36 544.474 L2002.01 561.673 L2014.72 561.673 L2008.36 544.474 M2005.72 539.867 L2011.02 539.867 L2024.19 574.427 L2019.33 574.427 L2016.18 565.561 L2000.6 565.561 L1997.45 574.427 L1992.52 574.427 L2005.72 539.867 Z" fill="#000000" fill-rule="evenodd" fill-opacity="1" /><path clip-path="url(#clip680)" d="M2029.7 539.867 L2048.06 539.867 L2048.06 543.802 L2033.98 543.802 L2033.98 552.275 Q2035 551.927 2036.02 551.765 Q2037.04 551.58 2038.06 551.58 Q2043.84 551.58 2047.22 554.751 Q2050.6 557.923 2050.6 563.339 Q2050.6 568.918 2047.13 572.02 Q2043.66 575.098 2037.34 575.098 Q2035.16 575.098 2032.89 574.728 Q2030.65 574.358 2028.24 573.617 L2028.24 568.918 Q2030.32 570.052 2032.55 570.608 Q2034.77 571.163 2037.25 571.163 Q2041.25 571.163 2043.59 569.057 Q2045.93 566.95 2045.93 563.339 Q2045.93 559.728 2043.59 557.622 Q2041.25 555.515 2037.25 555.515 Q2035.37 555.515 2033.5 555.932 Q2031.64 556.349 2029.7 557.228 L2029.7 539.867 Z" fill="#000000" fill-rule="evenodd" fill-opacity="1" /></svg>
