<?xml version="1.0" encoding="utf-8"?>
<svg xmlns="http://www.w3.org/2000/svg" xmlns:xlink="http://www.w3.org/1999/xlink" width="576" height="384" viewBox="0 0 2304 1536">
<defs>
  <clipPath id="clip080">
    <rect x="0" y="0" width="2304" height="1536"/>
  </clipPath>
</defs>
<path clip-path="url(#clip080)" d="
M0 1536 L2304 1536 L2304 0 L0 0  Z
  " fill="#ffffff" fill-rule="evenodd" fill-opacity="1"/>
<defs>
  <clipPath id="clip081">
    <rect x="460" y="0" width="1614" height="1536"/>
  </clipPath>
</defs>
<path clip-path="url(#clip080)" d="
M250.882 1347.54 L2256.76 1347.54 L2256.76 47.2441 L250.882 47.2441  Z
  " fill="#ffffff" fill-rule="evenodd" fill-opacity="1"/>
<defs>
  <clipPath id="clip082">
    <rect x="250" y="47" width="2007" height="1301"/>
  </clipPath>
</defs>
<polyline clip-path="url(#clip082)" style="stroke:#000000; stroke-linecap:butt; stroke-linejoin:round; stroke-width:2; stroke-opacity:0.1; fill:none" points="
  1076.72,1347.54 1076.72,47.2441 
  "/>
<polyline clip-path="url(#clip082)" style="stroke:#000000; stroke-linecap:butt; stroke-linejoin:round; stroke-width:2; stroke-opacity:0.1; fill:none" points="
  2248.47,1347.54 2248.47,47.2441 
  "/>
<polyline clip-path="url(#clip080)" style="stroke:#000000; stroke-linecap:butt; stroke-linejoin:round; stroke-width:4; stroke-opacity:1; fill:none" points="
  250.882,1347.54 2256.76,1347.54 
  "/>
<polyline clip-path="url(#clip080)" style="stroke:#000000; stroke-linecap:butt; stroke-linejoin:round; stroke-width:4; stroke-opacity:1; fill:none" points="
  1076.72,1347.54 1076.72,1328.64 
  "/>
<polyline clip-path="url(#clip080)" style="stroke:#000000; stroke-linecap:butt; stroke-linejoin:round; stroke-width:4; stroke-opacity:1; fill:none" points="
  2248.47,1347.54 2248.47,1328.64 
  "/>
<path clip-path="url(#clip080)" d="M1014.08 1420.89 L1021.72 1420.89 L1021.72 1394.53 L1013.41 1396.19 L1013.41 1391.94 L1021.68 1390.27 L1026.35 1390.27 L1026.35 1420.89 L1033.99 1420.89 L1033.99 1424.83 L1014.08 1424.83 L1014.08 1420.89 Z" fill="#000000" fill-rule="evenodd" fill-opacity="1" /><path clip-path="url(#clip080)" d="M1053.44 1393.35 Q1049.82 1393.35 1048 1396.91 Q1046.19 1400.45 1046.19 1407.58 Q1046.19 1414.69 1048 1418.25 Q1049.82 1421.8 1053.44 1421.8 Q1057.07 1421.8 1058.88 1418.25 Q1060.7 1414.69 1060.7 1407.58 Q1060.7 1400.45 1058.88 1396.91 Q1057.07 1393.35 1053.44 1393.35 M1053.44 1389.64 Q1059.25 1389.64 1062.3 1394.25 Q1065.38 1398.83 1065.38 1407.58 Q1065.38 1416.31 1062.3 1420.92 Q1059.25 1425.5 1053.44 1425.5 Q1047.63 1425.5 1044.55 1420.92 Q1041.49 1416.31 1041.49 1407.58 Q1041.49 1398.83 1044.55 1394.25 Q1047.63 1389.64 1053.44 1389.64 Z" fill="#000000" fill-rule="evenodd" fill-opacity="1" /><path clip-path="url(#clip080)" d="M1065.38 1383.74 L1089.49 1383.74 L1089.49 1386.94 L1065.38 1386.94 L1065.38 1383.74 Z" fill="#000000" fill-rule="evenodd" fill-opacity="1" /><path clip-path="url(#clip080)" d="M1098.35 1394.22 L1104.56 1394.22 L1104.56 1372.8 L1097.8 1374.15 L1097.8 1370.69 L1104.52 1369.34 L1108.32 1369.34 L1108.32 1394.22 L1114.52 1394.22 L1114.52 1397.42 L1098.35 1397.42 L1098.35 1394.22 Z" fill="#000000" fill-rule="evenodd" fill-opacity="1" /><path clip-path="url(#clip080)" d="M1130.32 1371.84 Q1127.39 1371.84 1125.9 1374.74 Q1124.44 1377.61 1124.44 1383.41 Q1124.44 1389.18 1125.9 1392.08 Q1127.39 1394.95 1130.32 1394.95 Q1133.28 1394.95 1134.74 1392.08 Q1136.23 1389.18 1136.23 1383.41 Q1136.23 1377.61 1134.74 1374.74 Q1133.28 1371.84 1130.32 1371.84 M1130.32 1368.83 Q1135.04 1368.83 1137.53 1372.57 Q1140.03 1376.3 1140.03 1383.41 Q1140.03 1390.5 1137.53 1394.24 Q1135.04 1397.96 1130.32 1397.96 Q1125.6 1397.96 1123.1 1394.24 Q1120.62 1390.5 1120.62 1383.41 Q1120.62 1376.3 1123.1 1372.57 Q1125.6 1368.83 1130.32 1368.83 Z" fill="#000000" fill-rule="evenodd" fill-opacity="1" /><path clip-path="url(#clip080)" d="M2198.49 1420.89 L2206.13 1420.89 L2206.13 1394.53 L2197.82 1396.19 L2197.82 1391.94 L2206.08 1390.27 L2210.76 1390.27 L2210.76 1420.89 L2218.4 1420.89 L2218.4 1424.83 L2198.49 1424.83 L2198.49 1420.89 Z" fill="#000000" fill-rule="evenodd" fill-opacity="1" /><path clip-path="url(#clip080)" d="M2237.84 1393.35 Q2234.23 1393.35 2232.4 1396.91 Q2230.6 1400.45 2230.6 1407.58 Q2230.6 1414.69 2232.4 1418.25 Q2234.23 1421.8 2237.84 1421.8 Q2241.48 1421.8 2243.28 1418.25 Q2245.11 1414.69 2245.11 1407.58 Q2245.11 1400.45 2243.28 1396.91 Q2241.48 1393.35 2237.84 1393.35 M2237.84 1389.64 Q2243.65 1389.64 2246.71 1394.25 Q2249.79 1398.83 2249.79 1407.58 Q2249.79 1416.31 2246.71 1420.92 Q2243.65 1425.5 2237.84 1425.5 Q2232.03 1425.5 2228.95 1420.92 Q2225.9 1416.31 2225.9 1407.58 Q2225.9 1398.83 2228.95 1394.25 Q2232.03 1389.64 2237.84 1389.64 Z" fill="#000000" fill-rule="evenodd" fill-opacity="1" /><path clip-path="url(#clip080)" d="M2249.79 1383.74 L2273.9 1383.74 L2273.9 1386.94 L2249.79 1386.94 L2249.79 1383.74 Z" fill="#000000" fill-rule="evenodd" fill-opacity="1" /><path clip-path="url(#clip080)" d="M2282.14 1369.34 L2297.05 1369.34 L2297.05 1372.54 L2285.62 1372.54 L2285.62 1379.42 Q2286.44 1379.14 2287.27 1379.01 Q2288.1 1378.85 2288.93 1378.85 Q2293.63 1378.85 2296.37 1381.43 Q2299.12 1384.01 2299.12 1388.41 Q2299.12 1392.94 2296.3 1395.46 Q2293.48 1397.96 2288.34 1397.96 Q2286.57 1397.96 2284.73 1397.66 Q2282.91 1397.36 2280.95 1396.76 L2280.95 1392.94 Q2282.64 1393.86 2284.45 1394.31 Q2286.25 1394.77 2288.27 1394.77 Q2291.52 1394.77 2293.42 1393.05 Q2295.32 1391.34 2295.32 1388.41 Q2295.32 1385.48 2293.42 1383.76 Q2291.52 1382.05 2288.27 1382.05 Q2286.74 1382.05 2285.22 1382.39 Q2283.72 1382.73 2282.14 1383.44 L2282.14 1369.34 Z" fill="#000000" fill-rule="evenodd" fill-opacity="1" /><path clip-path="url(#clip080)" d="M1177.57 1461.87 L1207.62 1461.87 L1207.62 1467.28 L1184 1467.28 L1184 1481.34 L1206.63 1481.34 L1206.63 1486.76 L1184 1486.76 L1184 1503.97 L1208.19 1503.97 L1208.19 1509.39 L1177.57 1509.39 L1177.57 1461.87 Z" fill="#000000" fill-rule="evenodd" fill-opacity="1" /><path clip-path="url(#clip080)" d="M1239.16 1479.21 Q1238.18 1478.64 1237 1478.38 Q1235.85 1478.1 1234.45 1478.1 Q1229.49 1478.1 1226.81 1481.34 Q1224.17 1484.56 1224.17 1490.61 L1224.17 1509.39 L1218.28 1509.39 L1218.28 1473.74 L1224.17 1473.74 L1224.17 1479.28 Q1226.02 1476.03 1228.98 1474.47 Q1231.94 1472.88 1236.17 1472.88 Q1236.77 1472.88 1237.51 1472.97 Q1238.24 1473.04 1239.13 1473.2 L1239.16 1479.21 Z" fill="#000000" fill-rule="evenodd" fill-opacity="1" /><path clip-path="url(#clip080)" d="M1264.82 1479.21 Q1263.83 1478.64 1262.65 1478.38 Q1261.51 1478.1 1260.11 1478.1 Q1255.14 1478.1 1252.47 1481.34 Q1249.82 1484.56 1249.82 1490.61 L1249.82 1509.39 L1243.94 1509.39 L1243.94 1473.74 L1249.82 1473.74 L1249.82 1479.28 Q1251.67 1476.03 1254.63 1474.47 Q1257.59 1472.88 1261.82 1472.88 Q1262.43 1472.88 1263.16 1472.97 Q1263.89 1473.04 1264.78 1473.2 L1264.82 1479.21 Z" fill="#000000" fill-rule="evenodd" fill-opacity="1" /><path clip-path="url(#clip080)" d="M1283.34 1477.84 Q1278.63 1477.84 1275.89 1481.54 Q1273.15 1485.2 1273.15 1491.59 Q1273.15 1497.99 1275.86 1501.68 Q1278.6 1505.34 1283.34 1505.34 Q1288.02 1505.34 1290.76 1501.65 Q1293.49 1497.96 1293.49 1491.59 Q1293.49 1485.26 1290.76 1481.57 Q1288.02 1477.84 1283.34 1477.84 M1283.34 1472.88 Q1290.98 1472.88 1295.34 1477.84 Q1299.7 1482.81 1299.7 1491.59 Q1299.7 1500.35 1295.34 1505.34 Q1290.98 1510.31 1283.34 1510.31 Q1275.67 1510.31 1271.31 1505.34 Q1266.98 1500.35 1266.98 1491.59 Q1266.98 1482.81 1271.31 1477.84 Q1275.67 1472.88 1283.34 1472.88 Z" fill="#000000" fill-rule="evenodd" fill-opacity="1" /><path clip-path="url(#clip080)" d="M1330.06 1479.21 Q1329.08 1478.64 1327.9 1478.38 Q1326.75 1478.1 1325.35 1478.1 Q1320.39 1478.1 1317.71 1481.34 Q1315.07 1484.56 1315.07 1490.61 L1315.07 1509.39 L1309.18 1509.39 L1309.18 1473.74 L1315.07 1473.74 L1315.07 1479.28 Q1316.92 1476.03 1319.88 1474.47 Q1322.84 1472.88 1327.07 1472.88 Q1327.68 1472.88 1328.41 1472.97 Q1329.14 1473.04 1330.03 1473.2 L1330.06 1479.21 Z" fill="#000000" fill-rule="evenodd" fill-opacity="1" /><polyline clip-path="url(#clip082)" style="stroke:#000000; stroke-linecap:butt; stroke-linejoin:round; stroke-width:2; stroke-opacity:0.1; fill:none" points="
  250.882,1028.21 2256.76,1028.21 
  "/>
<polyline clip-path="url(#clip082)" style="stroke:#000000; stroke-linecap:butt; stroke-linejoin:round; stroke-width:2; stroke-opacity:0.1; fill:none" points="
  250.882,643.046 2256.76,643.046 
  "/>
<polyline clip-path="url(#clip082)" style="stroke:#000000; stroke-linecap:butt; stroke-linejoin:round; stroke-width:2; stroke-opacity:0.1; fill:none" points="
  250.882,257.886 2256.76,257.886 
  "/>
<polyline clip-path="url(#clip080)" style="stroke:#000000; stroke-linecap:butt; stroke-linejoin:round; stroke-width:4; stroke-opacity:1; fill:none" points="
  250.882,1347.54 250.882,47.2441 
  "/>
<polyline clip-path="url(#clip080)" style="stroke:#000000; stroke-linecap:butt; stroke-linejoin:round; stroke-width:4; stroke-opacity:1; fill:none" points="
  250.882,1028.21 269.78,1028.21 
  "/>
<polyline clip-path="url(#clip080)" style="stroke:#000000; stroke-linecap:butt; stroke-linejoin:round; stroke-width:4; stroke-opacity:1; fill:none" points="
  250.882,643.046 269.78,643.046 
  "/>
<polyline clip-path="url(#clip080)" style="stroke:#000000; stroke-linecap:butt; stroke-linejoin:round; stroke-width:4; stroke-opacity:1; fill:none" points="
  250.882,257.886 269.78,257.886 
  "/>
<path clip-path="url(#clip080)" d="M115.411 1048 L123.05 1048 L123.05 1021.63 L114.74 1023.3 L114.74 1019.04 L123.004 1017.37 L127.68 1017.37 L127.68 1048 L135.319 1048 L135.319 1051.93 L115.411 1051.93 L115.411 1048 Z" fill="#000000" fill-rule="evenodd" fill-opacity="1" /><path clip-path="url(#clip080)" d="M154.763 1020.45 Q151.152 1020.45 149.323 1024.02 Q147.518 1027.56 147.518 1034.69 Q147.518 1041.79 149.323 1045.36 Q151.152 1048.9 154.763 1048.9 Q158.397 1048.9 160.203 1045.36 Q162.032 1041.79 162.032 1034.69 Q162.032 1027.56 160.203 1024.02 Q158.397 1020.45 154.763 1020.45 M154.763 1016.75 Q160.573 1016.75 163.629 1021.35 Q166.707 1025.94 166.707 1034.69 Q166.707 1043.41 163.629 1048.02 Q160.573 1052.6 154.763 1052.6 Q148.953 1052.6 145.874 1048.02 Q142.819 1043.41 142.819 1034.69 Q142.819 1025.94 145.874 1021.35 Q148.953 1016.75 154.763 1016.75 Z" fill="#000000" fill-rule="evenodd" fill-opacity="1" /><path clip-path="url(#clip080)" d="M166.707 1010.85 L190.819 1010.85 L190.819 1014.05 L166.707 1014.05 L166.707 1010.85 Z" fill="#000000" fill-rule="evenodd" fill-opacity="1" /><path clip-path="url(#clip080)" d="M210.53 1009.38 Q213.257 1009.97 214.78 1011.81 Q216.322 1013.65 216.322 1016.36 Q216.322 1020.52 213.464 1022.79 Q210.605 1025.07 205.339 1025.07 Q203.571 1025.07 201.69 1024.71 Q199.828 1024.37 197.834 1023.68 L197.834 1020.01 Q199.414 1020.93 201.295 1021.4 Q203.176 1021.87 205.226 1021.87 Q208.799 1021.87 210.661 1020.46 Q212.542 1019.05 212.542 1016.36 Q212.542 1013.88 210.793 1012.49 Q209.063 1011.08 205.959 1011.08 L202.687 1011.08 L202.687 1007.95 L206.11 1007.95 Q208.912 1007.95 210.398 1006.84 Q211.884 1005.72 211.884 1003.61 Q211.884 1001.45 210.341 1000.3 Q208.818 999.132 205.959 999.132 Q204.398 999.132 202.612 999.471 Q200.825 999.81 198.681 1000.52 L198.681 997.139 Q200.844 996.537 202.724 996.236 Q204.624 995.935 206.298 995.935 Q210.624 995.935 213.144 997.91 Q215.664 999.866 215.664 1003.21 Q215.664 1005.55 214.329 1007.16 Q212.993 1008.76 210.53 1009.38 Z" fill="#000000" fill-rule="evenodd" fill-opacity="1" /><path clip-path="url(#clip080)" d="M116.183 662.838 L123.821 662.838 L123.821 636.473 L115.511 638.14 L115.511 633.88 L123.775 632.214 L128.451 632.214 L128.451 662.838 L136.09 662.838 L136.09 666.774 L116.183 666.774 L116.183 662.838 Z" fill="#000000" fill-rule="evenodd" fill-opacity="1" /><path clip-path="url(#clip080)" d="M155.534 635.292 Q151.923 635.292 150.094 638.857 Q148.289 642.399 148.289 649.528 Q148.289 656.635 150.094 660.2 Q151.923 663.741 155.534 663.741 Q159.168 663.741 160.974 660.2 Q162.803 656.635 162.803 649.528 Q162.803 642.399 160.974 638.857 Q159.168 635.292 155.534 635.292 M155.534 631.589 Q161.344 631.589 164.4 636.195 Q167.479 640.778 167.479 649.528 Q167.479 658.255 164.4 662.862 Q161.344 667.445 155.534 667.445 Q149.724 667.445 146.645 662.862 Q143.59 658.255 143.59 649.528 Q143.59 640.778 146.645 636.195 Q149.724 631.589 155.534 631.589 Z" fill="#000000" fill-rule="evenodd" fill-opacity="1" /><path clip-path="url(#clip080)" d="M167.479 625.69 L191.59 625.69 L191.59 628.887 L167.479 628.887 L167.479 625.69 Z" fill="#000000" fill-rule="evenodd" fill-opacity="1" /><path clip-path="url(#clip080)" d="M203.063 636.166 L216.322 636.166 L216.322 639.363 L198.493 639.363 L198.493 636.166 Q200.655 633.928 204.379 630.166 Q208.122 626.386 209.081 625.295 Q210.906 623.245 211.62 621.834 Q212.354 620.405 212.354 619.032 Q212.354 616.794 210.774 615.383 Q209.213 613.973 206.693 613.973 Q204.906 613.973 202.912 614.593 Q200.938 615.214 198.681 616.474 L198.681 612.637 Q200.975 611.716 202.969 611.246 Q204.962 610.775 206.618 610.775 Q210.981 610.775 213.576 612.957 Q216.172 615.139 216.172 618.788 Q216.172 620.518 215.514 622.079 Q214.874 623.621 213.163 625.728 Q212.692 626.273 210.172 628.887 Q207.652 631.483 203.063 636.166 Z" fill="#000000" fill-rule="evenodd" fill-opacity="1" /><path clip-path="url(#clip080)" d="M115.882 277.679 L123.52 277.679 L123.52 251.313 L115.21 252.98 L115.21 248.721 L123.474 247.054 L128.15 247.054 L128.15 277.679 L135.789 277.679 L135.789 281.614 L115.882 281.614 L115.882 277.679 Z" fill="#000000" fill-rule="evenodd" fill-opacity="1" /><path clip-path="url(#clip080)" d="M155.233 250.133 Q151.622 250.133 149.793 253.697 Q147.988 257.239 147.988 264.369 Q147.988 271.475 149.793 275.04 Q151.622 278.581 155.233 278.581 Q158.868 278.581 160.673 275.04 Q162.502 271.475 162.502 264.369 Q162.502 257.239 160.673 253.697 Q158.868 250.133 155.233 250.133 M155.233 246.429 Q161.043 246.429 164.099 251.035 Q167.178 255.619 167.178 264.369 Q167.178 273.095 164.099 277.702 Q161.043 282.285 155.233 282.285 Q149.423 282.285 146.344 277.702 Q143.289 273.095 143.289 264.369 Q143.289 255.619 146.344 251.035 Q149.423 246.429 155.233 246.429 Z" fill="#000000" fill-rule="evenodd" fill-opacity="1" /><path clip-path="url(#clip080)" d="M167.178 240.53 L191.289 240.53 L191.289 243.728 L167.178 243.728 L167.178 240.53 Z" fill="#000000" fill-rule="evenodd" fill-opacity="1" /><path clip-path="url(#clip080)" d="M200.148 251.006 L206.354 251.006 L206.354 229.584 L199.602 230.938 L199.602 227.478 L206.317 226.123 L210.116 226.123 L210.116 251.006 L216.322 251.006 L216.322 254.203 L200.148 254.203 L200.148 251.006 Z" fill="#000000" fill-rule="evenodd" fill-opacity="1" /><path clip-path="url(#clip080)" d="M18.4042 827.219 L18.4042 787.02 L23.815 787.02 L23.815 803.889 L65.9242 803.889 L65.9242 810.35 L23.815 810.35 L23.815 827.219 L18.4042 827.219 Z" fill="#000000" fill-rule="evenodd" fill-opacity="1" /><path clip-path="url(#clip080)" d="M30.2762 783.073 L30.2762 777.216 L65.9242 777.216 L65.9242 783.073 L30.2762 783.073 M16.399 783.073 L16.399 777.216 L23.815 777.216 L23.815 783.073 L16.399 783.073 Z" fill="#000000" fill-rule="evenodd" fill-opacity="1" /><path clip-path="url(#clip080)" d="M37.1193 737.208 Q33.1726 735.012 31.2947 731.956 Q29.4168 728.901 29.4168 724.763 Q29.4168 719.193 33.3317 716.169 Q37.2148 713.145 44.4081 713.145 L65.9242 713.145 L65.9242 719.034 L44.599 719.034 Q39.4746 719.034 36.992 720.848 Q34.5094 722.662 34.5094 726.386 Q34.5094 730.938 37.5331 733.579 Q40.5568 736.221 45.7767 736.221 L65.9242 736.221 L65.9242 742.109 L44.599 742.109 Q39.4428 742.109 36.992 743.924 Q34.5094 745.738 34.5094 749.526 Q34.5094 754.013 37.5649 756.655 Q40.5886 759.297 45.7767 759.297 L65.9242 759.297 L65.9242 765.185 L30.2762 765.185 L30.2762 759.297 L35.8144 759.297 Q32.536 757.292 30.9764 754.491 Q29.4168 751.69 29.4168 747.839 Q29.4168 743.956 31.3902 741.25 Q33.3636 738.513 37.1193 737.208 Z" fill="#000000" fill-rule="evenodd" fill-opacity="1" /><path clip-path="url(#clip080)" d="M46.6361 670.973 L49.5006 670.973 L49.5006 697.9 Q55.5481 697.518 58.7309 694.271 Q61.8819 690.993 61.8819 685.168 Q61.8819 681.794 61.0544 678.643 Q60.2269 675.461 58.5718 672.341 L64.1099 672.341 Q65.4467 675.492 66.147 678.803 Q66.8472 682.113 66.8472 685.518 Q66.8472 694.048 61.8819 699.045 Q56.9167 704.011 48.4503 704.011 Q39.6974 704.011 34.5731 699.3 Q29.4168 694.558 29.4168 686.537 Q29.4168 679.344 34.0638 675.174 Q38.6789 670.973 46.6361 670.973 M44.9173 676.829 Q40.1112 676.893 37.2466 679.535 Q34.3821 682.145 34.3821 686.473 Q34.3821 691.375 37.1512 694.335 Q39.9202 697.263 44.9492 697.709 L44.9173 676.829 Z" fill="#000000" fill-rule="evenodd" fill-opacity="1" /><path clip-path="url(#clip080)" d="M16.4626 626.572 Q23.7832 630.837 30.9446 632.906 Q38.106 634.975 45.4584 634.975 Q52.8108 634.975 60.0359 632.906 Q67.2291 630.805 74.5179 626.572 L74.5179 631.664 Q67.0382 636.439 59.8131 638.826 Q52.588 641.181 45.4584 641.181 Q38.3606 641.181 31.1674 638.826 Q23.9742 636.471 16.4626 631.664 L16.4626 626.572 Z" fill="#000000" fill-rule="evenodd" fill-opacity="1" /><path clip-path="url(#clip080)" d="M31.3265 592.484 L36.8647 592.484 Q35.5916 594.966 34.955 597.64 Q34.3184 600.313 34.3184 603.178 Q34.3184 607.538 35.6552 609.735 Q36.992 611.899 39.6656 611.899 Q41.7026 611.899 42.8803 610.339 Q44.0261 608.78 45.0765 604.069 L45.5221 602.064 Q46.8589 595.826 49.3097 593.216 Q51.7286 590.574 56.0891 590.574 Q61.0544 590.574 63.9508 594.521 Q66.8472 598.435 66.8472 605.31 Q66.8472 608.175 66.2743 611.294 Q65.7332 614.382 64.6192 617.819 L58.5718 617.819 Q60.2587 614.573 61.118 611.422 Q61.9456 608.27 61.9456 605.183 Q61.9456 601.045 60.5451 598.817 Q59.1129 596.589 56.5347 596.589 Q54.1476 596.589 52.8745 598.213 Q51.6013 599.804 50.4237 605.247 L49.9462 607.284 Q48.8004 612.726 46.4451 615.145 Q44.058 617.564 39.9202 617.564 Q34.8913 617.564 32.1541 614 Q29.4168 610.435 29.4168 603.878 Q29.4168 600.632 29.8943 597.767 Q30.3717 594.902 31.3265 592.484 Z" fill="#000000" fill-rule="evenodd" fill-opacity="1" /><path clip-path="url(#clip080)" d="M16.4626 582.171 L16.4626 577.079 Q23.9742 572.304 31.1674 569.949 Q38.3606 567.562 45.4584 567.562 Q52.588 567.562 59.8131 569.949 Q67.0382 572.304 74.5179 577.079 L74.5179 582.171 Q67.2291 577.938 60.0359 575.869 Q52.8108 573.768 45.4584 573.768 Q38.106 573.768 30.9446 575.869 Q23.7832 577.938 16.4626 582.171 Z" fill="#000000" fill-rule="evenodd" fill-opacity="1" /><polyline clip-path="url(#clip082)" style="stroke:#009af9; stroke-linecap:butt; stroke-linejoin:round; stroke-width:12; stroke-opacity:1; fill:none" points="
  1884.51,1161.18 1679.08,1074.41 1483,1053.97 1242.01,988.536 1050.59,931.204 848.185,876.232 761.27,784.978 
  "/>
<line clip-path="url(#clip082)" x1="1884.51" y1="1161.18" x2="1884.51" y2="1145.18" style="stroke:#009af9; stroke-width:3.072; stroke-opacity:1"/>
<line clip-path="url(#clip082)" x1="1884.51" y1="1161.18" x2="1868.51" y2="1161.18" style="stroke:#009af9; stroke-width:3.072; stroke-opacity:1"/>
<line clip-path="url(#clip082)" x1="1884.51" y1="1161.18" x2="1884.51" y2="1177.18" style="stroke:#009af9; stroke-width:3.072; stroke-opacity:1"/>
<line clip-path="url(#clip082)" x1="1884.51" y1="1161.18" x2="1900.51" y2="1161.18" style="stroke:#009af9; stroke-width:3.072; stroke-opacity:1"/>
<line clip-path="url(#clip082)" x1="1679.08" y1="1074.41" x2="1679.08" y2="1058.41" style="stroke:#009af9; stroke-width:3.072; stroke-opacity:1"/>
<line clip-path="url(#clip082)" x1="1679.08" y1="1074.41" x2="1663.08" y2="1074.41" style="stroke:#009af9; stroke-width:3.072; stroke-opacity:1"/>
<line clip-path="url(#clip082)" x1="1679.08" y1="1074.41" x2="1679.08" y2="1090.41" style="stroke:#009af9; stroke-width:3.072; stroke-opacity:1"/>
<line clip-path="url(#clip082)" x1="1679.08" y1="1074.41" x2="1695.08" y2="1074.41" style="stroke:#009af9; stroke-width:3.072; stroke-opacity:1"/>
<line clip-path="url(#clip082)" x1="1483" y1="1053.97" x2="1483" y2="1037.97" style="stroke:#009af9; stroke-width:3.072; stroke-opacity:1"/>
<line clip-path="url(#clip082)" x1="1483" y1="1053.97" x2="1467" y2="1053.97" style="stroke:#009af9; stroke-width:3.072; stroke-opacity:1"/>
<line clip-path="url(#clip082)" x1="1483" y1="1053.97" x2="1483" y2="1069.97" style="stroke:#009af9; stroke-width:3.072; stroke-opacity:1"/>
<line clip-path="url(#clip082)" x1="1483" y1="1053.97" x2="1499" y2="1053.97" style="stroke:#009af9; stroke-width:3.072; stroke-opacity:1"/>
<line clip-path="url(#clip082)" x1="1242.01" y1="988.536" x2="1242.01" y2="972.536" style="stroke:#009af9; stroke-width:3.072; stroke-opacity:1"/>
<line clip-path="url(#clip082)" x1="1242.01" y1="988.536" x2="1226.01" y2="988.536" style="stroke:#009af9; stroke-width:3.072; stroke-opacity:1"/>
<line clip-path="url(#clip082)" x1="1242.01" y1="988.536" x2="1242.01" y2="1004.54" style="stroke:#009af9; stroke-width:3.072; stroke-opacity:1"/>
<line clip-path="url(#clip082)" x1="1242.01" y1="988.536" x2="1258.01" y2="988.536" style="stroke:#009af9; stroke-width:3.072; stroke-opacity:1"/>
<line clip-path="url(#clip082)" x1="1050.59" y1="931.204" x2="1050.59" y2="915.204" style="stroke:#009af9; stroke-width:3.072; stroke-opacity:1"/>
<line clip-path="url(#clip082)" x1="1050.59" y1="931.204" x2="1034.59" y2="931.204" style="stroke:#009af9; stroke-width:3.072; stroke-opacity:1"/>
<line clip-path="url(#clip082)" x1="1050.59" y1="931.204" x2="1050.59" y2="947.204" style="stroke:#009af9; stroke-width:3.072; stroke-opacity:1"/>
<line clip-path="url(#clip082)" x1="1050.59" y1="931.204" x2="1066.59" y2="931.204" style="stroke:#009af9; stroke-width:3.072; stroke-opacity:1"/>
<line clip-path="url(#clip082)" x1="848.185" y1="876.232" x2="848.185" y2="860.232" style="stroke:#009af9; stroke-width:3.072; stroke-opacity:1"/>
<line clip-path="url(#clip082)" x1="848.185" y1="876.232" x2="832.185" y2="876.232" style="stroke:#009af9; stroke-width:3.072; stroke-opacity:1"/>
<line clip-path="url(#clip082)" x1="848.185" y1="876.232" x2="848.185" y2="892.232" style="stroke:#009af9; stroke-width:3.072; stroke-opacity:1"/>
<line clip-path="url(#clip082)" x1="848.185" y1="876.232" x2="864.185" y2="876.232" style="stroke:#009af9; stroke-width:3.072; stroke-opacity:1"/>
<line clip-path="url(#clip082)" x1="761.27" y1="784.978" x2="761.27" y2="768.978" style="stroke:#009af9; stroke-width:3.072; stroke-opacity:1"/>
<line clip-path="url(#clip082)" x1="761.27" y1="784.978" x2="745.27" y2="784.978" style="stroke:#009af9; stroke-width:3.072; stroke-opacity:1"/>
<line clip-path="url(#clip082)" x1="761.27" y1="784.978" x2="761.27" y2="800.978" style="stroke:#009af9; stroke-width:3.072; stroke-opacity:1"/>
<line clip-path="url(#clip082)" x1="761.27" y1="784.978" x2="777.27" y2="784.978" style="stroke:#009af9; stroke-width:3.072; stroke-opacity:1"/>
<polyline clip-path="url(#clip082)" style="stroke:#e26f46; stroke-linecap:butt; stroke-linejoin:round; stroke-width:12; stroke-opacity:1; fill:none" points="
  1992.15,1236.54 1791.27,1186.79 1582.02,1139.19 1388.29,1102.11 1170.36,1053.36 996.171,1008.69 807.09,956.775 
  "/>
<circle clip-path="url(#clip082)" cx="1992.15" cy="1236.54" r="14" fill="#e26f46" fill-rule="evenodd" fill-opacity="1" stroke="#000000" stroke-opacity="1" stroke-width="3.072"/>
<circle clip-path="url(#clip082)" cx="1791.27" cy="1186.79" r="14" fill="#e26f46" fill-rule="evenodd" fill-opacity="1" stroke="#000000" stroke-opacity="1" stroke-width="3.072"/>
<circle clip-path="url(#clip082)" cx="1582.02" cy="1139.19" r="14" fill="#e26f46" fill-rule="evenodd" fill-opacity="1" stroke="#000000" stroke-opacity="1" stroke-width="3.072"/>
<circle clip-path="url(#clip082)" cx="1388.29" cy="1102.11" r="14" fill="#e26f46" fill-rule="evenodd" fill-opacity="1" stroke="#000000" stroke-opacity="1" stroke-width="3.072"/>
<circle clip-path="url(#clip082)" cx="1170.36" cy="1053.36" r="14" fill="#e26f46" fill-rule="evenodd" fill-opacity="1" stroke="#000000" stroke-opacity="1" stroke-width="3.072"/>
<circle clip-path="url(#clip082)" cx="996.171" cy="1008.69" r="14" fill="#e26f46" fill-rule="evenodd" fill-opacity="1" stroke="#000000" stroke-opacity="1" stroke-width="3.072"/>
<circle clip-path="url(#clip082)" cx="807.09" cy="956.775" r="14" fill="#e26f46" fill-rule="evenodd" fill-opacity="1" stroke="#000000" stroke-opacity="1" stroke-width="3.072"/>
<polyline clip-path="url(#clip082)" style="stroke:#3da44d; stroke-linecap:butt; stroke-linejoin:round; stroke-width:12; stroke-opacity:1; fill:none" points="
  1544.94,1310.74 1384.28,1255.29 1205.17,1187.83 1008.96,1111.62 800.219,1025.07 582.064,926.901 354.534,833.275 
  "/>
<line clip-path="url(#clip082)" x1="1544.94" y1="1310.74" x2="1544.94" y2="1294.74" style="stroke:#3da44d; stroke-width:3.072; stroke-opacity:1"/>
<line clip-path="url(#clip082)" x1="1544.94" y1="1310.74" x2="1528.94" y2="1310.74" style="stroke:#3da44d; stroke-width:3.072; stroke-opacity:1"/>
<line clip-path="url(#clip082)" x1="1544.94" y1="1310.74" x2="1544.94" y2="1326.74" style="stroke:#3da44d; stroke-width:3.072; stroke-opacity:1"/>
<line clip-path="url(#clip082)" x1="1544.94" y1="1310.74" x2="1560.94" y2="1310.74" style="stroke:#3da44d; stroke-width:3.072; stroke-opacity:1"/>
<line clip-path="url(#clip082)" x1="1384.28" y1="1255.29" x2="1384.28" y2="1239.29" style="stroke:#3da44d; stroke-width:3.072; stroke-opacity:1"/>
<line clip-path="url(#clip082)" x1="1384.28" y1="1255.29" x2="1368.28" y2="1255.29" style="stroke:#3da44d; stroke-width:3.072; stroke-opacity:1"/>
<line clip-path="url(#clip082)" x1="1384.28" y1="1255.29" x2="1384.28" y2="1271.29" style="stroke:#3da44d; stroke-width:3.072; stroke-opacity:1"/>
<line clip-path="url(#clip082)" x1="1384.28" y1="1255.29" x2="1400.28" y2="1255.29" style="stroke:#3da44d; stroke-width:3.072; stroke-opacity:1"/>
<line clip-path="url(#clip082)" x1="1205.17" y1="1187.83" x2="1205.17" y2="1171.83" style="stroke:#3da44d; stroke-width:3.072; stroke-opacity:1"/>
<line clip-path="url(#clip082)" x1="1205.17" y1="1187.83" x2="1189.17" y2="1187.83" style="stroke:#3da44d; stroke-width:3.072; stroke-opacity:1"/>
<line clip-path="url(#clip082)" x1="1205.17" y1="1187.83" x2="1205.17" y2="1203.83" style="stroke:#3da44d; stroke-width:3.072; stroke-opacity:1"/>
<line clip-path="url(#clip082)" x1="1205.17" y1="1187.83" x2="1221.17" y2="1187.83" style="stroke:#3da44d; stroke-width:3.072; stroke-opacity:1"/>
<line clip-path="url(#clip082)" x1="1008.96" y1="1111.62" x2="1008.96" y2="1095.62" style="stroke:#3da44d; stroke-width:3.072; stroke-opacity:1"/>
<line clip-path="url(#clip082)" x1="1008.96" y1="1111.62" x2="992.957" y2="1111.62" style="stroke:#3da44d; stroke-width:3.072; stroke-opacity:1"/>
<line clip-path="url(#clip082)" x1="1008.96" y1="1111.62" x2="1008.96" y2="1127.62" style="stroke:#3da44d; stroke-width:3.072; stroke-opacity:1"/>
<line clip-path="url(#clip082)" x1="1008.96" y1="1111.62" x2="1024.96" y2="1111.62" style="stroke:#3da44d; stroke-width:3.072; stroke-opacity:1"/>
<line clip-path="url(#clip082)" x1="800.219" y1="1025.07" x2="800.219" y2="1009.07" style="stroke:#3da44d; stroke-width:3.072; stroke-opacity:1"/>
<line clip-path="url(#clip082)" x1="800.219" y1="1025.07" x2="784.219" y2="1025.07" style="stroke:#3da44d; stroke-width:3.072; stroke-opacity:1"/>
<line clip-path="url(#clip082)" x1="800.219" y1="1025.07" x2="800.219" y2="1041.07" style="stroke:#3da44d; stroke-width:3.072; stroke-opacity:1"/>
<line clip-path="url(#clip082)" x1="800.219" y1="1025.07" x2="816.219" y2="1025.07" style="stroke:#3da44d; stroke-width:3.072; stroke-opacity:1"/>
<line clip-path="url(#clip082)" x1="582.064" y1="926.901" x2="582.064" y2="910.901" style="stroke:#3da44d; stroke-width:3.072; stroke-opacity:1"/>
<line clip-path="url(#clip082)" x1="582.064" y1="926.901" x2="566.064" y2="926.901" style="stroke:#3da44d; stroke-width:3.072; stroke-opacity:1"/>
<line clip-path="url(#clip082)" x1="582.064" y1="926.901" x2="582.064" y2="942.901" style="stroke:#3da44d; stroke-width:3.072; stroke-opacity:1"/>
<line clip-path="url(#clip082)" x1="582.064" y1="926.901" x2="598.064" y2="926.901" style="stroke:#3da44d; stroke-width:3.072; stroke-opacity:1"/>
<line clip-path="url(#clip082)" x1="354.534" y1="833.275" x2="354.534" y2="817.275" style="stroke:#3da44d; stroke-width:3.072; stroke-opacity:1"/>
<line clip-path="url(#clip082)" x1="354.534" y1="833.275" x2="338.534" y2="833.275" style="stroke:#3da44d; stroke-width:3.072; stroke-opacity:1"/>
<line clip-path="url(#clip082)" x1="354.534" y1="833.275" x2="354.534" y2="849.275" style="stroke:#3da44d; stroke-width:3.072; stroke-opacity:1"/>
<line clip-path="url(#clip082)" x1="354.534" y1="833.275" x2="370.534" y2="833.275" style="stroke:#3da44d; stroke-width:3.072; stroke-opacity:1"/>
<polyline clip-path="url(#clip082)" style="stroke:#c271d2; stroke-linecap:butt; stroke-linejoin:round; stroke-width:12; stroke-opacity:1; fill:none" points="
  2199.99,1231.79 1926.49,1187.62 1821.6,1117.24 1500.2,1104.74 1190.09,1058.69 1079.75,1012.71 844.337,989.216 
  "/>
<path clip-path="url(#clip082)" d="M2199.99 1215.79 L2183.99 1231.79 L2199.99 1247.79 L2215.99 1231.79 L2199.99 1215.79 Z" fill="#c271d2" fill-rule="evenodd" fill-opacity="1" stroke="#000000" stroke-opacity="1" stroke-width="3.072"/>
<path clip-path="url(#clip082)" d="M1926.49 1171.62 L1910.49 1187.62 L1926.49 1203.62 L1942.49 1187.62 L1926.49 1171.62 Z" fill="#c271d2" fill-rule="evenodd" fill-opacity="1" stroke="#000000" stroke-opacity="1" stroke-width="3.072"/>
<path clip-path="url(#clip082)" d="M1821.6 1101.24 L1805.6 1117.24 L1821.6 1133.24 L1837.6 1117.24 L1821.6 1101.24 Z" fill="#c271d2" fill-rule="evenodd" fill-opacity="1" stroke="#000000" stroke-opacity="1" stroke-width="3.072"/>
<path clip-path="url(#clip082)" d="M1500.2 1088.74 L1484.2 1104.74 L1500.2 1120.74 L1516.2 1104.74 L1500.2 1088.74 Z" fill="#c271d2" fill-rule="evenodd" fill-opacity="1" stroke="#000000" stroke-opacity="1" stroke-width="3.072"/>
<path clip-path="url(#clip082)" d="M1190.09 1042.69 L1174.09 1058.69 L1190.09 1074.69 L1206.09 1058.69 L1190.09 1042.69 Z" fill="#c271d2" fill-rule="evenodd" fill-opacity="1" stroke="#000000" stroke-opacity="1" stroke-width="3.072"/>
<path clip-path="url(#clip082)" d="M1079.75 996.71 L1063.75 1012.71 L1079.75 1028.71 L1095.75 1012.71 L1079.75 996.71 Z" fill="#c271d2" fill-rule="evenodd" fill-opacity="1" stroke="#000000" stroke-opacity="1" stroke-width="3.072"/>
<path clip-path="url(#clip082)" d="M844.337 973.216 L828.337 989.216 L844.337 1005.22 L860.337 989.216 L844.337 973.216 Z" fill="#c271d2" fill-rule="evenodd" fill-opacity="1" stroke="#000000" stroke-opacity="1" stroke-width="3.072"/>
<polyline clip-path="url(#clip082)" style="stroke:#ac8d18; stroke-linecap:butt; stroke-linejoin:round; stroke-width:12; stroke-opacity:1; fill:none" points="
  2030.84,1159.65 1812.04,1113.21 1602.81,1058.57 1394.8,1006.83 1160.4,951.659 963.515,891.627 752.912,823.273 
  "/>
<path clip-path="url(#clip082)" d="M2046.84 1143.65 L2014.84 1143.65 L2030.84 1175.65 L2046.84 1143.65 Z" fill="#ac8d18" fill-rule="evenodd" fill-opacity="1" stroke="#000000" stroke-opacity="1" stroke-width="3.072"/>
<path clip-path="url(#clip082)" d="M1828.04 1097.21 L1796.04 1097.21 L1812.04 1129.21 L1828.04 1097.21 Z" fill="#ac8d18" fill-rule="evenodd" fill-opacity="1" stroke="#000000" stroke-opacity="1" stroke-width="3.072"/>
<path clip-path="url(#clip082)" d="M1618.81 1042.57 L1586.81 1042.57 L1602.81 1074.57 L1618.81 1042.57 Z" fill="#ac8d18" fill-rule="evenodd" fill-opacity="1" stroke="#000000" stroke-opacity="1" stroke-width="3.072"/>
<path clip-path="url(#clip082)" d="M1410.8 990.83 L1378.8 990.83 L1394.8 1022.83 L1410.8 990.83 Z" fill="#ac8d18" fill-rule="evenodd" fill-opacity="1" stroke="#000000" stroke-opacity="1" stroke-width="3.072"/>
<path clip-path="url(#clip082)" d="M1176.4 935.659 L1144.4 935.659 L1160.4 967.659 L1176.4 935.659 Z" fill="#ac8d18" fill-rule="evenodd" fill-opacity="1" stroke="#000000" stroke-opacity="1" stroke-width="3.072"/>
<path clip-path="url(#clip082)" d="M979.515 875.627 L947.515 875.627 L963.515 907.627 L979.515 875.627 Z" fill="#ac8d18" fill-rule="evenodd" fill-opacity="1" stroke="#000000" stroke-opacity="1" stroke-width="3.072"/>
<path clip-path="url(#clip082)" d="M768.912 807.273 L736.912 807.273 L752.912 839.273 L768.912 807.273 Z" fill="#ac8d18" fill-rule="evenodd" fill-opacity="1" stroke="#000000" stroke-opacity="1" stroke-width="3.072"/>
<polyline clip-path="url(#clip082)" style="stroke:#00a9ad; stroke-linecap:butt; stroke-linejoin:round; stroke-width:12; stroke-opacity:1; fill:none" points="
  1534.58,1306.52 1375.25,1244.33 1196.45,1164.65 997.046,1065.72 782.442,965.185 549.901,859.031 307.652,759.78 
  "/>
<path clip-path="url(#clip082)" d="M1534.58 1290.52 L1522.07 1296.56 L1518.98 1310.09 L1527.64 1320.94 L1541.53 1320.94 L1550.18 1310.09 L1547.09 1296.56 Z" fill="#00a9ad" fill-rule="evenodd" fill-opacity="1" stroke="#000000" stroke-opacity="1" stroke-width="3.072"/>
<path clip-path="url(#clip082)" d="M1375.25 1228.33 L1362.74 1234.36 L1359.65 1247.89 L1368.3 1258.74 L1382.19 1258.74 L1390.85 1247.89 L1387.76 1234.36 Z" fill="#00a9ad" fill-rule="evenodd" fill-opacity="1" stroke="#000000" stroke-opacity="1" stroke-width="3.072"/>
<path clip-path="url(#clip082)" d="M1196.45 1148.65 L1183.94 1154.68 L1180.85 1168.21 L1189.51 1179.06 L1203.4 1179.06 L1212.05 1168.21 L1208.96 1154.68 Z" fill="#00a9ad" fill-rule="evenodd" fill-opacity="1" stroke="#000000" stroke-opacity="1" stroke-width="3.072"/>
<path clip-path="url(#clip082)" d="M997.046 1049.72 L984.534 1055.76 L981.446 1069.29 L990.102 1080.14 L1003.99 1080.14 L1012.65 1069.29 L1009.56 1055.76 Z" fill="#00a9ad" fill-rule="evenodd" fill-opacity="1" stroke="#000000" stroke-opacity="1" stroke-width="3.072"/>
<path clip-path="url(#clip082)" d="M782.442 949.185 L769.93 955.217 L766.842 968.753 L775.498 979.601 L789.386 979.601 L798.042 968.753 L794.954 955.217 Z" fill="#00a9ad" fill-rule="evenodd" fill-opacity="1" stroke="#000000" stroke-opacity="1" stroke-width="3.072"/>
<path clip-path="url(#clip082)" d="M549.901 843.031 L537.389 849.063 L534.301 862.599 L542.957 873.447 L556.845 873.447 L565.501 862.599 L562.413 849.063 Z" fill="#00a9ad" fill-rule="evenodd" fill-opacity="1" stroke="#000000" stroke-opacity="1" stroke-width="3.072"/>
<path clip-path="url(#clip082)" d="M307.652 743.78 L295.14 749.812 L292.052 763.348 L300.708 774.196 L314.596 774.196 L323.252 763.348 L320.164 749.812 Z" fill="#00a9ad" fill-rule="evenodd" fill-opacity="1" stroke="#000000" stroke-opacity="1" stroke-width="3.072"/>
<polyline clip-path="url(#clip082)" style="stroke:#ed5d92; stroke-linecap:butt; stroke-linejoin:round; stroke-width:12; stroke-opacity:1; fill:none" points="
  1780.01,1160.1 1582.76,1100.62 1367.19,1016.7 1141.46,907.461 907.488,793.518 663.965,684.626 417.679,580.339 
  "/>
<path clip-path="url(#clip082)" d="M1780.01 1176.1 L1766.16 1168.1 L1766.16 1152.1 L1780.01 1144.1 L1793.87 1152.1 L1793.87 1168.1 Z" fill="#ed5d92" fill-rule="evenodd" fill-opacity="1" stroke="#000000" stroke-opacity="1" stroke-width="3.072"/>
<path clip-path="url(#clip082)" d="M1582.76 1116.62 L1568.9 1108.62 L1568.9 1092.62 L1582.76 1084.62 L1596.61 1092.62 L1596.61 1108.62 Z" fill="#ed5d92" fill-rule="evenodd" fill-opacity="1" stroke="#000000" stroke-opacity="1" stroke-width="3.072"/>
<path clip-path="url(#clip082)" d="M1367.19 1032.7 L1353.34 1024.7 L1353.34 1008.7 L1367.19 1000.7 L1381.05 1008.7 L1381.05 1024.7 Z" fill="#ed5d92" fill-rule="evenodd" fill-opacity="1" stroke="#000000" stroke-opacity="1" stroke-width="3.072"/>
<path clip-path="url(#clip082)" d="M1141.46 923.461 L1127.61 915.461 L1127.61 899.461 L1141.46 891.461 L1155.32 899.461 L1155.32 915.461 Z" fill="#ed5d92" fill-rule="evenodd" fill-opacity="1" stroke="#000000" stroke-opacity="1" stroke-width="3.072"/>
<path clip-path="url(#clip082)" d="M907.488 809.518 L893.632 801.518 L893.632 785.518 L907.488 777.518 L921.344 785.518 L921.344 801.518 Z" fill="#ed5d92" fill-rule="evenodd" fill-opacity="1" stroke="#000000" stroke-opacity="1" stroke-width="3.072"/>
<path clip-path="url(#clip082)" d="M663.965 700.626 L650.109 692.626 L650.109 676.626 L663.965 668.626 L677.821 676.626 L677.821 692.626 Z" fill="#ed5d92" fill-rule="evenodd" fill-opacity="1" stroke="#000000" stroke-opacity="1" stroke-width="3.072"/>
<path clip-path="url(#clip082)" d="M417.679 596.339 L403.823 588.339 L403.823 572.339 L417.679 564.339 L431.535 572.339 L431.535 588.339 Z" fill="#ed5d92" fill-rule="evenodd" fill-opacity="1" stroke="#000000" stroke-opacity="1" stroke-width="3.072"/>
<polyline clip-path="url(#clip082)" style="stroke:#c68125; stroke-linecap:butt; stroke-linejoin:round; stroke-width:12; stroke-opacity:1; fill:none" points="
  2145.8,1071.42 1777.71,1044.65 1503.55,1022.44 1279.02,992.183 952.178,955.754 1007.23,922.497 594.147,891.719 
  "/>
<line clip-path="url(#clip082)" x1="2161.8" y1="1071.42" x2="2129.8" y2="1071.42" style="stroke:#c68125; stroke-width:3.072; stroke-opacity:1"/>
<line clip-path="url(#clip082)" x1="1793.71" y1="1044.65" x2="1761.71" y2="1044.65" style="stroke:#c68125; stroke-width:3.072; stroke-opacity:1"/>
<line clip-path="url(#clip082)" x1="1519.55" y1="1022.44" x2="1487.55" y2="1022.44" style="stroke:#c68125; stroke-width:3.072; stroke-opacity:1"/>
<line clip-path="url(#clip082)" x1="1295.02" y1="992.183" x2="1263.02" y2="992.183" style="stroke:#c68125; stroke-width:3.072; stroke-opacity:1"/>
<line clip-path="url(#clip082)" x1="968.178" y1="955.754" x2="936.178" y2="955.754" style="stroke:#c68125; stroke-width:3.072; stroke-opacity:1"/>
<line clip-path="url(#clip082)" x1="1023.23" y1="922.497" x2="991.228" y2="922.497" style="stroke:#c68125; stroke-width:3.072; stroke-opacity:1"/>
<line clip-path="url(#clip082)" x1="610.147" y1="891.719" x2="578.147" y2="891.719" style="stroke:#c68125; stroke-width:3.072; stroke-opacity:1"/>
<polyline clip-path="url(#clip082)" style="stroke:#00a98d; stroke-linecap:butt; stroke-linejoin:round; stroke-width:12; stroke-opacity:1; fill:none" points="
  2100.74,1041.48 1740.5,781.053 1443.4,724.444 1245.27,572.344 1380.85,737.851 1166.33,334.563 710.964,84.0448 
  "/>
<path clip-path="url(#clip082)" d="M2087.94 1041.48 L2107.14 1052.68 L2107.14 1030.28 L2087.94 1041.48 Z" fill="#00a98d" fill-rule="evenodd" fill-opacity="1" stroke="#000000" stroke-opacity="1" stroke-width="3.072"/>
<path clip-path="url(#clip082)" d="M1727.7 781.053 L1746.9 792.253 L1746.9 769.853 L1727.7 781.053 Z" fill="#00a98d" fill-rule="evenodd" fill-opacity="1" stroke="#000000" stroke-opacity="1" stroke-width="3.072"/>
<path clip-path="url(#clip082)" d="M1430.6 724.444 L1449.8 735.644 L1449.8 713.244 L1430.6 724.444 Z" fill="#00a98d" fill-rule="evenodd" fill-opacity="1" stroke="#000000" stroke-opacity="1" stroke-width="3.072"/>
<path clip-path="url(#clip082)" d="M1232.47 572.344 L1251.67 583.544 L1251.67 561.144 L1232.47 572.344 Z" fill="#00a98d" fill-rule="evenodd" fill-opacity="1" stroke="#000000" stroke-opacity="1" stroke-width="3.072"/>
<path clip-path="url(#clip082)" d="M1368.05 737.851 L1387.25 749.051 L1387.25 726.651 L1368.05 737.851 Z" fill="#00a98d" fill-rule="evenodd" fill-opacity="1" stroke="#000000" stroke-opacity="1" stroke-width="3.072"/>
<path clip-path="url(#clip082)" d="M1153.53 334.563 L1172.73 345.763 L1172.73 323.363 L1153.53 334.563 Z" fill="#00a98d" fill-rule="evenodd" fill-opacity="1" stroke="#000000" stroke-opacity="1" stroke-width="3.072"/>
<path clip-path="url(#clip082)" d="M698.164 84.0448 L717.364 95.2448 L717.364 72.8448 L698.164 84.0448 Z" fill="#00a98d" fill-rule="evenodd" fill-opacity="1" stroke="#000000" stroke-opacity="1" stroke-width="3.072"/>
<path clip-path="url(#clip080)" d="
M1683.96 608.987 L2189.89 608.987 L2189.89 90.5872 L1683.96 90.5872  Z
  " fill="#ffffff" fill-rule="evenodd" fill-opacity="1"/>
<polyline clip-path="url(#clip080)" style="stroke:#000000; stroke-linecap:butt; stroke-linejoin:round; stroke-width:4; stroke-opacity:1; fill:none" points="
  1683.96,608.987 2189.89,608.987 2189.89,90.5872 1683.96,90.5872 1683.96,608.987 
  "/>
<polyline clip-path="url(#clip080)" style="stroke:#009af9; stroke-linecap:butt; stroke-linejoin:round; stroke-width:4; stroke-opacity:1; fill:none" points="
  1706.25,142.427 1839.98,142.427 
  "/>
<line clip-path="url(#clip080)" x1="1773.11" y1="142.427" x2="1773.11" y2="116.827" style="stroke:#009af9; stroke-width:4.9152; stroke-opacity:1"/>
<line clip-path="url(#clip080)" x1="1773.11" y1="142.427" x2="1747.51" y2="142.427" style="stroke:#009af9; stroke-width:4.9152; stroke-opacity:1"/>
<line clip-path="url(#clip080)" x1="1773.11" y1="142.427" x2="1773.11" y2="168.027" style="stroke:#009af9; stroke-width:4.9152; stroke-opacity:1"/>
<line clip-path="url(#clip080)" x1="1773.11" y1="142.427" x2="1798.71" y2="142.427" style="stroke:#009af9; stroke-width:4.9152; stroke-opacity:1"/>
<path clip-path="url(#clip080)" d="M1862.26 125.147 L1882.13 125.147 L1882.13 129.082 L1866.94 129.082 L1866.94 139.267 L1880.64 139.267 L1880.64 143.203 L1866.94 143.203 L1866.94 159.707 L1862.26 159.707 L1862.26 125.147 Z" fill="#000000" fill-rule="evenodd" fill-opacity="1" /><path clip-path="url(#clip080)" d="M1894.21 143.203 L1894.21 155.865 L1901.71 155.865 Q1905.48 155.865 1907.29 154.314 Q1909.12 152.74 1909.12 149.522 Q1909.12 146.281 1907.29 144.754 Q1905.48 143.203 1901.71 143.203 L1894.21 143.203 M1894.21 128.99 L1894.21 139.406 L1901.13 139.406 Q1904.56 139.406 1906.22 138.133 Q1907.91 136.837 1907.91 134.198 Q1907.91 131.582 1906.22 130.286 Q1904.56 128.99 1901.13 128.99 L1894.21 128.99 M1889.53 125.147 L1901.48 125.147 Q1906.82 125.147 1909.72 127.369 Q1912.61 129.592 1912.61 133.689 Q1912.61 136.86 1911.13 138.735 Q1909.65 140.61 1906.78 141.073 Q1910.23 141.814 1912.13 144.175 Q1914.05 146.513 1914.05 150.031 Q1914.05 154.661 1910.9 157.184 Q1907.75 159.707 1901.94 159.707 L1889.53 159.707 L1889.53 125.147 Z" fill="#000000" fill-rule="evenodd" fill-opacity="1" /><path clip-path="url(#clip080)" d="M1926.73 128.99 L1926.73 155.865 L1932.38 155.865 Q1939.53 155.865 1942.84 152.624 Q1946.18 149.383 1946.18 142.392 Q1946.18 135.448 1942.84 132.23 Q1939.53 128.99 1932.38 128.99 L1926.73 128.99 M1922.06 125.147 L1931.66 125.147 Q1941.71 125.147 1946.41 129.337 Q1951.11 133.504 1951.11 142.392 Q1951.11 151.328 1946.38 155.517 Q1941.66 159.707 1931.66 159.707 L1922.06 159.707 L1922.06 125.147 Z" fill="#000000" fill-rule="evenodd" fill-opacity="1" /><path clip-path="url(#clip080)" d="M1958.56 125.147 L1978.42 125.147 L1978.42 129.082 L1963.24 129.082 L1963.24 139.267 L1976.94 139.267 L1976.94 143.203 L1963.24 143.203 L1963.24 159.707 L1958.56 159.707 L1958.56 125.147 Z" fill="#000000" fill-rule="evenodd" fill-opacity="1" /><polyline clip-path="url(#clip080)" style="stroke:#e26f46; stroke-linecap:butt; stroke-linejoin:round; stroke-width:4; stroke-opacity:1; fill:none" points="
  1706.25,194.267 1839.98,194.267 
  "/>
<circle clip-path="url(#clip080)" cx="1773.11" cy="194.267" r="23" fill="#e26f46" fill-rule="evenodd" fill-opacity="1" stroke="#000000" stroke-opacity="1" stroke-width="4.9152"/>
<path clip-path="url(#clip080)" d="M1878.28 180.158 Q1873.19 180.158 1870.18 183.955 Q1867.19 187.751 1867.19 194.302 Q1867.19 200.83 1870.18 204.626 Q1873.19 208.422 1878.28 208.422 Q1883.38 208.422 1886.34 204.626 Q1889.32 200.83 1889.32 194.302 Q1889.32 187.751 1886.34 183.955 Q1883.38 180.158 1878.28 180.158 M1884.83 210.922 L1890.99 217.658 L1885.34 217.658 L1880.23 212.126 Q1879.46 212.172 1879.05 212.195 Q1878.65 212.218 1878.28 212.218 Q1870.99 212.218 1866.62 207.357 Q1862.26 202.473 1862.26 194.302 Q1862.26 186.108 1866.62 181.246 Q1870.99 176.362 1878.28 176.362 Q1885.55 176.362 1889.9 181.246 Q1894.26 186.108 1894.26 194.302 Q1894.26 200.32 1891.82 204.603 Q1889.42 208.885 1884.83 210.922 Z" fill="#000000" fill-rule="evenodd" fill-opacity="1" /><path clip-path="url(#clip080)" d="M1901.57 176.987 L1907.87 176.987 L1923.19 205.899 L1923.19 176.987 L1927.73 176.987 L1927.73 211.547 L1921.43 211.547 L1906.11 182.635 L1906.11 211.547 L1901.57 211.547 L1901.57 176.987 Z" fill="#000000" fill-rule="evenodd" fill-opacity="1" /><path clip-path="url(#clip080)" d="M1941.71 180.83 L1941.71 207.705 L1947.36 207.705 Q1954.51 207.705 1957.82 204.464 Q1961.15 201.223 1961.15 194.232 Q1961.15 187.288 1957.82 184.07 Q1954.51 180.83 1947.36 180.83 L1941.71 180.83 M1937.03 176.987 L1946.64 176.987 Q1956.69 176.987 1961.38 181.177 Q1966.08 185.344 1966.08 194.232 Q1966.08 203.168 1961.36 207.357 Q1956.64 211.547 1946.64 211.547 L1937.03 211.547 L1937.03 176.987 Z" fill="#000000" fill-rule="evenodd" fill-opacity="1" /><path clip-path="url(#clip080)" d="M1973.54 176.987 L1993.4 176.987 L1993.4 180.922 L1978.21 180.922 L1978.21 191.107 L1991.92 191.107 L1991.92 195.043 L1978.21 195.043 L1978.21 211.547 L1973.54 211.547 L1973.54 176.987 Z" fill="#000000" fill-rule="evenodd" fill-opacity="1" /><polyline clip-path="url(#clip080)" style="stroke:#3da44d; stroke-linecap:butt; stroke-linejoin:round; stroke-width:4; stroke-opacity:1; fill:none" points="
  1706.25,246.107 1839.98,246.107 
  "/>
<line clip-path="url(#clip080)" x1="1773.11" y1="246.107" x2="1773.11" y2="220.507" style="stroke:#3da44d; stroke-width:4.9152; stroke-opacity:1"/>
<line clip-path="url(#clip080)" x1="1773.11" y1="246.107" x2="1747.51" y2="246.107" style="stroke:#3da44d; stroke-width:4.9152; stroke-opacity:1"/>
<line clip-path="url(#clip080)" x1="1773.11" y1="246.107" x2="1773.11" y2="271.707" style="stroke:#3da44d; stroke-width:4.9152; stroke-opacity:1"/>
<line clip-path="url(#clip080)" x1="1773.11" y1="246.107" x2="1798.71" y2="246.107" style="stroke:#3da44d; stroke-width:4.9152; stroke-opacity:1"/>
<path clip-path="url(#clip080)" d="M1878.65 247.184 Q1880.16 247.693 1881.57 249.359 Q1883.01 251.026 1884.44 253.943 L1889.19 263.387 L1884.16 263.387 L1879.74 254.521 Q1878.03 251.049 1876.41 249.915 Q1874.81 248.781 1872.03 248.781 L1866.94 248.781 L1866.94 263.387 L1862.26 263.387 L1862.26 228.827 L1872.82 228.827 Q1878.75 228.827 1881.66 231.304 Q1884.58 233.781 1884.58 238.781 Q1884.58 242.045 1883.05 244.197 Q1881.55 246.35 1878.65 247.184 M1866.94 232.67 L1866.94 244.938 L1872.82 244.938 Q1876.2 244.938 1877.91 243.387 Q1879.65 241.813 1879.65 238.781 Q1879.65 235.748 1877.91 234.221 Q1876.2 232.67 1872.82 232.67 L1866.94 232.67 Z" fill="#000000" fill-rule="evenodd" fill-opacity="1" /><path clip-path="url(#clip080)" d="M1902.94 240.447 Q1899.51 240.447 1897.52 243.133 Q1895.53 245.795 1895.53 250.447 Q1895.53 255.1 1897.5 257.785 Q1899.49 260.447 1902.94 260.447 Q1906.34 260.447 1908.33 257.762 Q1910.32 255.077 1910.32 250.447 Q1910.32 245.841 1908.33 243.156 Q1906.34 240.447 1902.94 240.447 M1902.94 236.836 Q1908.49 236.836 1911.66 240.447 Q1914.83 244.059 1914.83 250.447 Q1914.83 256.813 1911.66 260.447 Q1908.49 264.058 1902.94 264.058 Q1897.36 264.058 1894.19 260.447 Q1891.04 256.813 1891.04 250.447 Q1891.04 244.059 1894.19 240.447 Q1897.36 236.836 1902.94 236.836 Z" fill="#000000" fill-rule="evenodd" fill-opacity="1" /><path clip-path="url(#clip080)" d="M1938.95 241.397 L1938.95 227.369 L1943.21 227.369 L1943.21 263.387 L1938.95 263.387 L1938.95 259.498 Q1937.61 261.813 1935.55 262.947 Q1933.51 264.058 1930.64 264.058 Q1925.94 264.058 1922.98 260.308 Q1920.04 256.559 1920.04 250.447 Q1920.04 244.336 1922.98 240.586 Q1925.94 236.836 1930.64 236.836 Q1933.51 236.836 1935.55 237.971 Q1937.61 239.082 1938.95 241.397 M1924.44 250.447 Q1924.44 255.146 1926.36 257.832 Q1928.31 260.494 1931.69 260.494 Q1935.06 260.494 1937.01 257.832 Q1938.95 255.146 1938.95 250.447 Q1938.95 245.748 1937.01 243.086 Q1935.06 240.401 1931.69 240.401 Q1928.31 240.401 1926.36 243.086 Q1924.44 245.748 1924.44 250.447 Z" fill="#000000" fill-rule="evenodd" fill-opacity="1" /><path clip-path="url(#clip080)" d="M1963.77 250.355 Q1958.61 250.355 1956.62 251.535 Q1954.63 252.716 1954.63 255.563 Q1954.63 257.832 1956.11 259.174 Q1957.61 260.494 1960.18 260.494 Q1963.72 260.494 1965.85 257.994 Q1968 255.471 1968 251.304 L1968 250.355 L1963.77 250.355 M1972.26 248.596 L1972.26 263.387 L1968 263.387 L1968 259.452 Q1966.55 261.813 1964.37 262.947 Q1962.19 264.058 1959.05 264.058 Q1955.06 264.058 1952.7 261.836 Q1950.37 259.591 1950.37 255.841 Q1950.37 251.466 1953.28 249.244 Q1956.22 247.022 1962.03 247.022 L1968 247.022 L1968 246.605 Q1968 243.665 1966.06 242.068 Q1964.14 240.447 1960.64 240.447 Q1958.42 240.447 1956.31 240.98 Q1954.21 241.512 1952.26 242.577 L1952.26 238.642 Q1954.6 237.739 1956.8 237.299 Q1959 236.836 1961.08 236.836 Q1966.71 236.836 1969.49 239.753 Q1972.26 242.67 1972.26 248.596 Z" fill="#000000" fill-rule="evenodd" fill-opacity="1" /><path clip-path="url(#clip080)" d="M1997.56 238.225 L1997.56 242.253 Q1995.76 241.327 1993.81 240.864 Q1991.87 240.401 1989.79 240.401 Q1986.62 240.401 1985.02 241.373 Q1983.44 242.346 1983.44 244.29 Q1983.44 245.772 1984.58 246.628 Q1985.71 247.461 1989.14 248.225 L1990.6 248.549 Q1995.13 249.522 1997.03 251.304 Q1998.95 253.063 1998.95 256.234 Q1998.95 259.846 1996.08 261.952 Q1993.24 264.058 1988.24 264.058 Q1986.15 264.058 1983.88 263.642 Q1981.64 263.248 1979.14 262.438 L1979.14 258.04 Q1981.5 259.267 1983.79 259.892 Q1986.08 260.494 1988.33 260.494 Q1991.34 260.494 1992.96 259.475 Q1994.58 258.434 1994.58 256.559 Q1994.58 254.822 1993.4 253.896 Q1992.24 252.971 1988.28 252.114 L1986.8 251.767 Q1982.84 250.934 1981.08 249.221 Q1979.32 247.484 1979.32 244.475 Q1979.32 240.818 1981.92 238.827 Q1984.51 236.836 1989.28 236.836 Q1991.64 236.836 1993.72 237.184 Q1995.81 237.531 1997.56 238.225 Z" fill="#000000" fill-rule="evenodd" fill-opacity="1" /><path clip-path="url(#clip080)" d="M2019.18 232.901 L2007.38 251.35 L2019.18 251.35 L2019.18 232.901 M2017.96 228.827 L2023.84 228.827 L2023.84 251.35 L2028.77 251.35 L2028.77 255.239 L2023.84 255.239 L2023.84 263.387 L2019.18 263.387 L2019.18 255.239 L2003.58 255.239 L2003.58 250.725 L2017.96 228.827 Z" fill="#000000" fill-rule="evenodd" fill-opacity="1" /><path clip-path="url(#clip080)" d="M2040.76 232.67 L2040.76 245.656 L2046.64 245.656 Q2049.9 245.656 2051.68 243.966 Q2053.47 242.276 2053.47 239.151 Q2053.47 236.049 2051.68 234.36 Q2049.9 232.67 2046.64 232.67 L2040.76 232.67 M2036.08 228.827 L2046.64 228.827 Q2052.45 228.827 2055.41 231.466 Q2058.4 234.082 2058.4 239.151 Q2058.4 244.267 2055.41 246.883 Q2052.45 249.498 2046.64 249.498 L2040.76 249.498 L2040.76 263.387 L2036.08 263.387 L2036.08 228.827 Z" fill="#000000" fill-rule="evenodd" fill-opacity="1" /><polyline clip-path="url(#clip080)" style="stroke:#c271d2; stroke-linecap:butt; stroke-linejoin:round; stroke-width:4; stroke-opacity:1; fill:none" points="
  1706.25,297.947 1839.98,297.947 
  "/>
<path clip-path="url(#clip080)" d="M1773.11 272.347 L1747.51 297.947 L1773.11 323.547 L1798.71 297.947 L1773.11 272.347 Z" fill="#c271d2" fill-rule="evenodd" fill-opacity="1" stroke="#000000" stroke-opacity="1" stroke-width="4.9152"/>
<path clip-path="url(#clip080)" d="M1890.13 283.329 L1890.13 288.26 Q1887.77 286.061 1885.09 284.973 Q1882.43 283.885 1879.42 283.885 Q1873.49 283.885 1870.34 287.519 Q1867.19 291.13 1867.19 297.982 Q1867.19 304.811 1870.34 308.445 Q1873.49 312.056 1879.42 312.056 Q1882.43 312.056 1885.09 310.968 Q1887.77 309.88 1890.13 307.681 L1890.13 312.565 Q1887.68 314.232 1884.93 315.065 Q1882.19 315.898 1879.14 315.898 Q1871.29 315.898 1866.78 311.107 Q1862.26 306.292 1862.26 297.982 Q1862.26 289.649 1866.78 284.857 Q1871.29 280.042 1879.14 280.042 Q1882.24 280.042 1884.97 280.876 Q1887.73 281.686 1890.13 283.329 Z" fill="#000000" fill-rule="evenodd" fill-opacity="1" /><path clip-path="url(#clip080)" d="M1906.27 315.227 L1893.07 280.667 L1897.96 280.667 L1908.91 309.764 L1919.88 280.667 L1924.74 280.667 L1911.57 315.227 L1906.27 315.227 Z" fill="#000000" fill-rule="evenodd" fill-opacity="1" /><path clip-path="url(#clip080)" d="M1942.98 283.838 Q1937.89 283.838 1934.88 287.635 Q1931.89 291.431 1931.89 297.982 Q1931.89 304.51 1934.88 308.306 Q1937.89 312.102 1942.98 312.102 Q1948.07 312.102 1951.04 308.306 Q1954.02 304.51 1954.02 297.982 Q1954.02 291.431 1951.04 287.635 Q1948.07 283.838 1942.98 283.838 M1942.98 280.042 Q1950.25 280.042 1954.6 284.926 Q1958.95 289.788 1958.95 297.982 Q1958.95 306.153 1954.6 311.037 Q1950.25 315.898 1942.98 315.898 Q1935.69 315.898 1931.32 311.037 Q1926.96 306.176 1926.96 297.982 Q1926.96 289.788 1931.32 284.926 Q1935.69 280.042 1942.98 280.042 Z" fill="#000000" fill-rule="evenodd" fill-opacity="1" /><path clip-path="url(#clip080)" d="M1970.94 284.51 L1970.94 311.385 L1976.59 311.385 Q1983.75 311.385 1987.06 308.144 Q1990.39 304.903 1990.39 297.912 Q1990.39 290.968 1987.06 287.75 Q1983.75 284.51 1976.59 284.51 L1970.94 284.51 M1966.27 280.667 L1975.87 280.667 Q1985.92 280.667 1990.62 284.857 Q1995.32 289.024 1995.32 297.912 Q1995.32 306.848 1990.6 311.037 Q1985.87 315.227 1975.87 315.227 L1966.27 315.227 L1966.27 280.667 Z" fill="#000000" fill-rule="evenodd" fill-opacity="1" /><path clip-path="url(#clip080)" d="M2002.77 280.667 L2024.62 280.667 L2024.62 284.602 L2007.45 284.602 L2007.45 294.834 L2023.91 294.834 L2023.91 298.769 L2007.45 298.769 L2007.45 311.292 L2025.04 311.292 L2025.04 315.227 L2002.77 315.227 L2002.77 280.667 Z" fill="#000000" fill-rule="evenodd" fill-opacity="1" /><path clip-path="url(#clip080)" d="M2052.24 323.098 L2052.24 326.408 L2027.61 326.408 L2027.61 323.098 L2052.24 323.098 Z" fill="#000000" fill-rule="evenodd" fill-opacity="1" /><path clip-path="url(#clip080)" d="M2061.11 298.723 L2061.11 311.385 L2068.61 311.385 Q2072.38 311.385 2074.18 309.834 Q2076.01 308.26 2076.01 305.042 Q2076.01 301.801 2074.18 300.274 Q2072.38 298.723 2068.61 298.723 L2061.11 298.723 M2061.11 284.51 L2061.11 294.926 L2068.03 294.926 Q2071.45 294.926 2073.12 293.653 Q2074.81 292.357 2074.81 289.718 Q2074.81 287.102 2073.12 285.806 Q2071.45 284.51 2068.03 284.51 L2061.11 284.51 M2056.43 280.667 L2068.37 280.667 Q2073.72 280.667 2076.62 282.889 Q2079.51 285.112 2079.51 289.209 Q2079.51 292.38 2078.03 294.255 Q2076.55 296.13 2073.68 296.593 Q2077.12 297.334 2079.02 299.695 Q2080.94 302.033 2080.94 305.551 Q2080.94 310.181 2077.8 312.704 Q2074.65 315.227 2068.84 315.227 L2056.43 315.227 L2056.43 280.667 Z" fill="#000000" fill-rule="evenodd" fill-opacity="1" /><path clip-path="url(#clip080)" d="M2093.63 284.51 L2093.63 311.385 L2099.28 311.385 Q2106.43 311.385 2109.74 308.144 Q2113.07 304.903 2113.07 297.912 Q2113.07 290.968 2109.74 287.75 Q2106.43 284.51 2099.28 284.51 L2093.63 284.51 M2088.95 280.667 L2098.56 280.667 Q2108.61 280.667 2113.3 284.857 Q2118 289.024 2118 297.912 Q2118 306.848 2113.28 311.037 Q2108.56 315.227 2098.56 315.227 L2088.95 315.227 L2088.95 280.667 Z" fill="#000000" fill-rule="evenodd" fill-opacity="1" /><path clip-path="url(#clip080)" d="M2125.46 280.667 L2145.32 280.667 L2145.32 284.602 L2130.13 284.602 L2130.13 294.787 L2143.84 294.787 L2143.84 298.723 L2130.13 298.723 L2130.13 315.227 L2125.46 315.227 L2125.46 280.667 Z" fill="#000000" fill-rule="evenodd" fill-opacity="1" /><polyline clip-path="url(#clip080)" style="stroke:#ac8d18; stroke-linecap:butt; stroke-linejoin:round; stroke-width:4; stroke-opacity:1; fill:none" points="
  1706.25,349.787 1839.98,349.787 
  "/>
<path clip-path="url(#clip080)" d="M1798.71 324.187 L1747.51 324.187 L1773.11 375.387 L1798.71 324.187 Z" fill="#ac8d18" fill-rule="evenodd" fill-opacity="1" stroke="#000000" stroke-opacity="1" stroke-width="4.9152"/>
<path clip-path="url(#clip080)" d="M1881.18 345.077 L1881.18 331.049 L1885.44 331.049 L1885.44 367.067 L1881.18 367.067 L1881.18 363.178 Q1879.83 365.493 1877.77 366.627 Q1875.74 367.738 1872.87 367.738 Q1868.17 367.738 1865.2 363.988 Q1862.26 360.239 1862.26 354.127 Q1862.26 348.016 1865.2 344.266 Q1868.17 340.516 1872.87 340.516 Q1875.74 340.516 1877.77 341.651 Q1879.83 342.762 1881.18 345.077 M1866.66 354.127 Q1866.66 358.826 1868.58 361.512 Q1870.53 364.174 1873.91 364.174 Q1877.29 364.174 1879.23 361.512 Q1881.18 358.826 1881.18 354.127 Q1881.18 349.428 1879.23 346.766 Q1877.29 344.081 1873.91 344.081 Q1870.53 344.081 1868.58 346.766 Q1866.66 349.428 1866.66 354.127 Z" fill="#000000" fill-rule="evenodd" fill-opacity="1" /><path clip-path="url(#clip080)" d="M1911.27 345.077 L1911.27 331.049 L1915.53 331.049 L1915.53 367.067 L1911.27 367.067 L1911.27 363.178 Q1909.93 365.493 1907.87 366.627 Q1905.83 367.738 1902.96 367.738 Q1898.26 367.738 1895.3 363.988 Q1892.36 360.239 1892.36 354.127 Q1892.36 348.016 1895.3 344.266 Q1898.26 340.516 1902.96 340.516 Q1905.83 340.516 1907.87 341.651 Q1909.93 342.762 1911.27 345.077 M1896.76 354.127 Q1896.76 358.826 1898.68 361.512 Q1900.62 364.174 1904 364.174 Q1907.38 364.174 1909.32 361.512 Q1911.27 358.826 1911.27 354.127 Q1911.27 349.428 1909.32 346.766 Q1907.38 344.081 1904 344.081 Q1900.62 344.081 1898.68 346.766 Q1896.76 349.428 1896.76 354.127 Z" fill="#000000" fill-rule="evenodd" fill-opacity="1" /><path clip-path="url(#clip080)" d="M1946.48 353.039 L1946.48 355.123 L1926.89 355.123 Q1927.17 359.521 1929.53 361.836 Q1931.92 364.127 1936.15 364.127 Q1938.61 364.127 1940.9 363.526 Q1943.21 362.924 1945.48 361.72 L1945.48 365.748 Q1943.19 366.72 1940.78 367.229 Q1938.38 367.738 1935.9 367.738 Q1929.69 367.738 1926.06 364.127 Q1922.45 360.516 1922.45 354.359 Q1922.45 347.993 1925.88 344.266 Q1929.32 340.516 1935.16 340.516 Q1940.39 340.516 1943.42 343.896 Q1946.48 347.252 1946.48 353.039 M1942.22 351.789 Q1942.17 348.294 1940.25 346.211 Q1938.35 344.127 1935.2 344.127 Q1931.64 344.127 1929.49 346.141 Q1927.36 348.155 1927.03 351.813 L1942.22 351.789 Z" fill="#000000" fill-rule="evenodd" fill-opacity="1" /><path clip-path="url(#clip080)" d="M1972.08 354.127 Q1972.08 349.428 1970.13 346.766 Q1968.21 344.081 1964.83 344.081 Q1961.45 344.081 1959.51 346.766 Q1957.59 349.428 1957.59 354.127 Q1957.59 358.826 1959.51 361.512 Q1961.45 364.174 1964.83 364.174 Q1968.21 364.174 1970.13 361.512 Q1972.08 358.826 1972.08 354.127 M1957.59 345.077 Q1958.93 342.762 1960.97 341.651 Q1963.03 340.516 1965.88 340.516 Q1970.6 340.516 1973.54 344.266 Q1976.5 348.016 1976.5 354.127 Q1976.5 360.239 1973.54 363.988 Q1970.6 367.738 1965.88 367.738 Q1963.03 367.738 1960.97 366.627 Q1958.93 365.493 1957.59 363.178 L1957.59 367.067 L1953.31 367.067 L1953.31 331.049 L1957.59 331.049 L1957.59 345.077 Z" fill="#000000" fill-rule="evenodd" fill-opacity="1" /><path clip-path="url(#clip080)" d="M2000.62 345.077 L2000.62 331.049 L2004.88 331.049 L2004.88 367.067 L2000.62 367.067 L2000.62 363.178 Q1999.28 365.493 1997.22 366.627 Q1995.18 367.738 1992.31 367.738 Q1987.61 367.738 1984.65 363.988 Q1981.71 360.239 1981.71 354.127 Q1981.71 348.016 1984.65 344.266 Q1987.61 340.516 1992.31 340.516 Q1995.18 340.516 1997.22 341.651 Q1999.28 342.762 2000.62 345.077 M1986.11 354.127 Q1986.11 358.826 1988.03 361.512 Q1989.97 364.174 1993.35 364.174 Q1996.73 364.174 1998.68 361.512 Q2000.62 358.826 2000.62 354.127 Q2000.62 349.428 1998.68 346.766 Q1996.73 344.081 1993.35 344.081 Q1989.97 344.081 1988.03 346.766 Q1986.11 349.428 1986.11 354.127 Z" fill="#000000" fill-rule="evenodd" fill-opacity="1" /><path clip-path="url(#clip080)" d="M2026.78 331.049 L2026.78 334.591 L2022.7 334.591 Q2020.41 334.591 2019.51 335.516 Q2018.63 336.442 2018.63 338.85 L2018.63 341.141 L2025.64 341.141 L2025.64 344.452 L2018.63 344.452 L2018.63 367.067 L2014.35 367.067 L2014.35 344.452 L2010.27 344.452 L2010.27 341.141 L2014.35 341.141 L2014.35 339.336 Q2014.35 335.007 2016.36 333.04 Q2018.37 331.049 2022.75 331.049 L2026.78 331.049 Z" fill="#000000" fill-rule="evenodd" fill-opacity="1" /><polyline clip-path="url(#clip080)" style="stroke:#00a9ad; stroke-linecap:butt; stroke-linejoin:round; stroke-width:4; stroke-opacity:1; fill:none" points="
  1706.25,401.627 1839.98,401.627 
  "/>
<path clip-path="url(#clip080)" d="M1773.11 376.027 L1753.1 385.678 L1748.15 407.336 L1762 424.693 L1784.22 424.693 L1798.07 407.336 L1793.13 385.678 Z" fill="#00a9ad" fill-rule="evenodd" fill-opacity="1" stroke="#000000" stroke-opacity="1" stroke-width="4.9152"/>
<path clip-path="url(#clip080)" d="M1878.65 402.704 Q1880.16 403.213 1881.57 404.879 Q1883.01 406.546 1884.44 409.463 L1889.19 418.907 L1884.16 418.907 L1879.74 410.041 Q1878.03 406.569 1876.41 405.435 Q1874.81 404.301 1872.03 404.301 L1866.94 404.301 L1866.94 418.907 L1862.26 418.907 L1862.26 384.347 L1872.82 384.347 Q1878.75 384.347 1881.66 386.824 Q1884.58 389.301 1884.58 394.301 Q1884.58 397.565 1883.05 399.717 Q1881.55 401.87 1878.65 402.704 M1866.94 388.19 L1866.94 400.458 L1872.82 400.458 Q1876.2 400.458 1877.91 398.907 Q1879.65 397.333 1879.65 394.301 Q1879.65 391.268 1877.91 389.741 Q1876.2 388.19 1872.82 388.19 L1866.94 388.19 Z" fill="#000000" fill-rule="evenodd" fill-opacity="1" /><path clip-path="url(#clip080)" d="M1902.94 395.967 Q1899.51 395.967 1897.52 398.653 Q1895.53 401.315 1895.53 405.967 Q1895.53 410.62 1897.5 413.305 Q1899.49 415.967 1902.94 415.967 Q1906.34 415.967 1908.33 413.282 Q1910.32 410.597 1910.32 405.967 Q1910.32 401.361 1908.33 398.676 Q1906.34 395.967 1902.94 395.967 M1902.94 392.356 Q1908.49 392.356 1911.66 395.967 Q1914.83 399.579 1914.83 405.967 Q1914.83 412.333 1911.66 415.967 Q1908.49 419.578 1902.94 419.578 Q1897.36 419.578 1894.19 415.967 Q1891.04 412.333 1891.04 405.967 Q1891.04 399.579 1894.19 395.967 Q1897.36 392.356 1902.94 392.356 Z" fill="#000000" fill-rule="evenodd" fill-opacity="1" /><path clip-path="url(#clip080)" d="M1938.95 396.917 L1938.95 382.889 L1943.21 382.889 L1943.21 418.907 L1938.95 418.907 L1938.95 415.018 Q1937.61 417.333 1935.55 418.467 Q1933.51 419.578 1930.64 419.578 Q1925.94 419.578 1922.98 415.828 Q1920.04 412.079 1920.04 405.967 Q1920.04 399.856 1922.98 396.106 Q1925.94 392.356 1930.64 392.356 Q1933.51 392.356 1935.55 393.491 Q1937.61 394.602 1938.95 396.917 M1924.44 405.967 Q1924.44 410.666 1926.36 413.352 Q1928.31 416.014 1931.69 416.014 Q1935.06 416.014 1937.01 413.352 Q1938.95 410.666 1938.95 405.967 Q1938.95 401.268 1937.01 398.606 Q1935.06 395.921 1931.69 395.921 Q1928.31 395.921 1926.36 398.606 Q1924.44 401.268 1924.44 405.967 Z" fill="#000000" fill-rule="evenodd" fill-opacity="1" /><path clip-path="url(#clip080)" d="M1963.77 405.875 Q1958.61 405.875 1956.62 407.055 Q1954.63 408.236 1954.63 411.083 Q1954.63 413.352 1956.11 414.694 Q1957.61 416.014 1960.18 416.014 Q1963.72 416.014 1965.85 413.514 Q1968 410.991 1968 406.824 L1968 405.875 L1963.77 405.875 M1972.26 404.116 L1972.26 418.907 L1968 418.907 L1968 414.972 Q1966.55 417.333 1964.37 418.467 Q1962.19 419.578 1959.05 419.578 Q1955.06 419.578 1952.7 417.356 Q1950.37 415.111 1950.37 411.361 Q1950.37 406.986 1953.28 404.764 Q1956.22 402.542 1962.03 402.542 L1968 402.542 L1968 402.125 Q1968 399.185 1966.06 397.588 Q1964.14 395.967 1960.64 395.967 Q1958.42 395.967 1956.31 396.5 Q1954.21 397.032 1952.26 398.097 L1952.26 394.162 Q1954.6 393.259 1956.8 392.819 Q1959 392.356 1961.08 392.356 Q1966.71 392.356 1969.49 395.273 Q1972.26 398.19 1972.26 404.116 Z" fill="#000000" fill-rule="evenodd" fill-opacity="1" /><path clip-path="url(#clip080)" d="M1997.56 393.745 L1997.56 397.773 Q1995.76 396.847 1993.81 396.384 Q1991.87 395.921 1989.79 395.921 Q1986.62 395.921 1985.02 396.893 Q1983.44 397.866 1983.44 399.81 Q1983.44 401.292 1984.58 402.148 Q1985.71 402.981 1989.14 403.745 L1990.6 404.069 Q1995.13 405.042 1997.03 406.824 Q1998.95 408.583 1998.95 411.754 Q1998.95 415.366 1996.08 417.472 Q1993.24 419.578 1988.24 419.578 Q1986.15 419.578 1983.88 419.162 Q1981.64 418.768 1979.14 417.958 L1979.14 413.56 Q1981.5 414.787 1983.79 415.412 Q1986.08 416.014 1988.33 416.014 Q1991.34 416.014 1992.96 414.995 Q1994.58 413.954 1994.58 412.079 Q1994.58 410.342 1993.4 409.416 Q1992.24 408.491 1988.28 407.634 L1986.8 407.287 Q1982.84 406.454 1981.08 404.741 Q1979.32 403.004 1979.32 399.995 Q1979.32 396.338 1981.92 394.347 Q1984.51 392.356 1989.28 392.356 Q1991.64 392.356 1993.72 392.704 Q1995.81 393.051 1997.56 393.745 Z" fill="#000000" fill-rule="evenodd" fill-opacity="1" /><path clip-path="url(#clip080)" d="M2019.18 388.421 L2007.38 406.87 L2019.18 406.87 L2019.18 388.421 M2017.96 384.347 L2023.84 384.347 L2023.84 406.87 L2028.77 406.87 L2028.77 410.759 L2023.84 410.759 L2023.84 418.907 L2019.18 418.907 L2019.18 410.759 L2003.58 410.759 L2003.58 406.245 L2017.96 384.347 Z" fill="#000000" fill-rule="evenodd" fill-opacity="1" /><polyline clip-path="url(#clip080)" style="stroke:#ed5d92; stroke-linecap:butt; stroke-linejoin:round; stroke-width:4; stroke-opacity:1; fill:none" points="
  1706.25,453.467 1839.98,453.467 
  "/>
<path clip-path="url(#clip080)" d="M1773.11 479.067 L1750.94 466.267 L1750.94 440.667 L1773.11 427.867 L1795.28 440.667 L1795.28 466.267 Z" fill="#ed5d92" fill-rule="evenodd" fill-opacity="1" stroke="#000000" stroke-opacity="1" stroke-width="4.9152"/>
<path clip-path="url(#clip080)" d="M1877.45 448.803 Q1876.73 448.386 1875.88 448.201 Q1875.04 447.993 1874.02 447.993 Q1870.41 447.993 1868.47 450.354 Q1866.55 452.692 1866.55 457.09 L1866.55 470.747 L1862.26 470.747 L1862.26 444.821 L1866.55 444.821 L1866.55 448.849 Q1867.89 446.488 1870.04 445.354 Q1872.19 444.196 1875.27 444.196 Q1875.71 444.196 1876.25 444.266 Q1876.78 444.312 1877.43 444.428 L1877.45 448.803 Z" fill="#000000" fill-rule="evenodd" fill-opacity="1" /><path clip-path="url(#clip080)" d="M1890.92 447.807 Q1887.5 447.807 1885.51 450.493 Q1883.51 453.155 1883.51 457.807 Q1883.51 462.46 1885.48 465.145 Q1887.47 467.807 1890.92 467.807 Q1894.32 467.807 1896.32 465.122 Q1898.31 462.437 1898.31 457.807 Q1898.31 453.201 1896.32 450.516 Q1894.32 447.807 1890.92 447.807 M1890.92 444.196 Q1896.48 444.196 1899.65 447.807 Q1902.82 451.419 1902.82 457.807 Q1902.82 464.173 1899.65 467.807 Q1896.48 471.418 1890.92 471.418 Q1885.34 471.418 1882.17 467.807 Q1879.02 464.173 1879.02 457.807 Q1879.02 451.419 1882.17 447.807 Q1885.34 444.196 1890.92 444.196 Z" fill="#000000" fill-rule="evenodd" fill-opacity="1" /><path clip-path="url(#clip080)" d="M1926.94 448.757 L1926.94 434.729 L1931.2 434.729 L1931.2 470.747 L1926.94 470.747 L1926.94 466.858 Q1925.6 469.173 1923.54 470.307 Q1921.5 471.418 1918.63 471.418 Q1913.93 471.418 1910.97 467.668 Q1908.03 463.919 1908.03 457.807 Q1908.03 451.696 1910.97 447.946 Q1913.93 444.196 1918.63 444.196 Q1921.5 444.196 1923.54 445.331 Q1925.6 446.442 1926.94 448.757 M1912.43 457.807 Q1912.43 462.506 1914.35 465.192 Q1916.29 467.854 1919.67 467.854 Q1923.05 467.854 1925 465.192 Q1926.94 462.506 1926.94 457.807 Q1926.94 453.108 1925 450.446 Q1923.05 447.761 1919.67 447.761 Q1916.29 447.761 1914.35 450.446 Q1912.43 453.108 1912.43 457.807 Z" fill="#000000" fill-rule="evenodd" fill-opacity="1" /><path clip-path="url(#clip080)" d="M1951.75 457.715 Q1946.59 457.715 1944.6 458.895 Q1942.61 460.076 1942.61 462.923 Q1942.61 465.192 1944.09 466.534 Q1945.6 467.854 1948.17 467.854 Q1951.71 467.854 1953.84 465.354 Q1955.99 462.831 1955.99 458.664 L1955.99 457.715 L1951.75 457.715 M1960.25 455.956 L1960.25 470.747 L1955.99 470.747 L1955.99 466.812 Q1954.53 469.173 1952.36 470.307 Q1950.18 471.418 1947.03 471.418 Q1943.05 471.418 1940.69 469.196 Q1938.35 466.951 1938.35 463.201 Q1938.35 458.826 1941.27 456.604 Q1944.21 454.382 1950.02 454.382 L1955.99 454.382 L1955.99 453.965 Q1955.99 451.025 1954.05 449.428 Q1952.13 447.807 1948.63 447.807 Q1946.41 447.807 1944.3 448.34 Q1942.19 448.872 1940.25 449.937 L1940.25 446.002 Q1942.59 445.099 1944.79 444.659 Q1946.99 444.196 1949.07 444.196 Q1954.69 444.196 1957.47 447.113 Q1960.25 450.03 1960.25 455.956 Z" fill="#000000" fill-rule="evenodd" fill-opacity="1" /><path clip-path="url(#clip080)" d="M1985.55 445.585 L1985.55 449.613 Q1983.75 448.687 1981.8 448.224 Q1979.86 447.761 1977.77 447.761 Q1974.6 447.761 1973 448.733 Q1971.43 449.706 1971.43 451.65 Q1971.43 453.132 1972.56 453.988 Q1973.7 454.821 1977.12 455.585 L1978.58 455.909 Q1983.12 456.882 1985.02 458.664 Q1986.94 460.423 1986.94 463.594 Q1986.94 467.206 1984.07 469.312 Q1981.22 471.418 1976.22 471.418 Q1974.14 471.418 1971.87 471.002 Q1969.62 470.608 1967.12 469.798 L1967.12 465.4 Q1969.49 466.627 1971.78 467.252 Q1974.07 467.854 1976.31 467.854 Q1979.32 467.854 1980.94 466.835 Q1982.56 465.794 1982.56 463.919 Q1982.56 462.182 1981.38 461.256 Q1980.23 460.331 1976.27 459.474 L1974.79 459.127 Q1970.83 458.294 1969.07 456.581 Q1967.31 454.844 1967.31 451.835 Q1967.31 448.178 1969.9 446.187 Q1972.5 444.196 1977.26 444.196 Q1979.62 444.196 1981.71 444.544 Q1983.79 444.891 1985.55 445.585 Z" fill="#000000" fill-rule="evenodd" fill-opacity="1" /><polyline clip-path="url(#clip080)" style="stroke:#c68125; stroke-linecap:butt; stroke-linejoin:round; stroke-width:4; stroke-opacity:1; fill:none" points="
  1706.25,505.307 1839.98,505.307 
  "/>
<line clip-path="url(#clip080)" x1="1798.71" y1="505.307" x2="1747.51" y2="505.307" style="stroke:#c68125; stroke-width:4.9152; stroke-opacity:1"/>
<path clip-path="url(#clip080)" d="M1877.45 500.643 Q1876.73 500.226 1875.88 500.041 Q1875.04 499.833 1874.02 499.833 Q1870.41 499.833 1868.47 502.194 Q1866.55 504.532 1866.55 508.93 L1866.55 522.587 L1862.26 522.587 L1862.26 496.661 L1866.55 496.661 L1866.55 500.689 Q1867.89 498.328 1870.04 497.194 Q1872.19 496.036 1875.27 496.036 Q1875.71 496.036 1876.25 496.106 Q1876.78 496.152 1877.43 496.268 L1877.45 500.643 Z" fill="#000000" fill-rule="evenodd" fill-opacity="1" /><path clip-path="url(#clip080)" d="M1893.7 509.555 Q1888.54 509.555 1886.55 510.735 Q1884.56 511.916 1884.56 514.763 Q1884.56 517.032 1886.04 518.374 Q1887.54 519.694 1890.11 519.694 Q1893.65 519.694 1895.78 517.194 Q1897.94 514.671 1897.94 510.504 L1897.94 509.555 L1893.7 509.555 M1902.19 507.796 L1902.19 522.587 L1897.94 522.587 L1897.94 518.652 Q1896.48 521.013 1894.3 522.147 Q1892.13 523.258 1888.98 523.258 Q1885 523.258 1882.63 521.036 Q1880.3 518.791 1880.3 515.041 Q1880.3 510.666 1883.21 508.444 Q1886.15 506.222 1891.96 506.222 L1897.94 506.222 L1897.94 505.805 Q1897.94 502.865 1895.99 501.268 Q1894.07 499.647 1890.57 499.647 Q1888.35 499.647 1886.25 500.18 Q1884.14 500.712 1882.19 501.777 L1882.19 497.842 Q1884.53 496.939 1886.73 496.499 Q1888.93 496.036 1891.01 496.036 Q1896.64 496.036 1899.42 498.953 Q1902.19 501.87 1902.19 507.796 Z" fill="#000000" fill-rule="evenodd" fill-opacity="1" /><path clip-path="url(#clip080)" d="M1928.03 500.597 L1928.03 486.569 L1932.29 486.569 L1932.29 522.587 L1928.03 522.587 L1928.03 518.698 Q1926.69 521.013 1924.63 522.147 Q1922.59 523.258 1919.72 523.258 Q1915.02 523.258 1912.06 519.508 Q1909.12 515.759 1909.12 509.647 Q1909.12 503.536 1912.06 499.786 Q1915.02 496.036 1919.72 496.036 Q1922.59 496.036 1924.63 497.171 Q1926.69 498.282 1928.03 500.597 M1913.51 509.647 Q1913.51 514.346 1915.44 517.032 Q1917.38 519.694 1920.76 519.694 Q1924.14 519.694 1926.08 517.032 Q1928.03 514.346 1928.03 509.647 Q1928.03 504.948 1926.08 502.286 Q1924.14 499.601 1920.76 499.601 Q1917.38 499.601 1915.44 502.286 Q1913.51 504.948 1913.51 509.647 Z" fill="#000000" fill-rule="evenodd" fill-opacity="1" /><path clip-path="url(#clip080)" d="M1952.84 509.555 Q1947.68 509.555 1945.69 510.735 Q1943.7 511.916 1943.7 514.763 Q1943.7 517.032 1945.18 518.374 Q1946.69 519.694 1949.25 519.694 Q1952.8 519.694 1954.93 517.194 Q1957.08 514.671 1957.08 510.504 L1957.08 509.555 L1952.84 509.555 M1961.34 507.796 L1961.34 522.587 L1957.08 522.587 L1957.08 518.652 Q1955.62 521.013 1953.44 522.147 Q1951.27 523.258 1948.12 523.258 Q1944.14 523.258 1941.78 521.036 Q1939.44 518.791 1939.44 515.041 Q1939.44 510.666 1942.36 508.444 Q1945.3 506.222 1951.11 506.222 L1957.08 506.222 L1957.08 505.805 Q1957.08 502.865 1955.13 501.268 Q1953.21 499.647 1949.72 499.647 Q1947.5 499.647 1945.39 500.18 Q1943.28 500.712 1941.34 501.777 L1941.34 497.842 Q1943.68 496.939 1945.88 496.499 Q1948.07 496.036 1950.16 496.036 Q1955.78 496.036 1958.56 498.953 Q1961.34 501.87 1961.34 507.796 Z" fill="#000000" fill-rule="evenodd" fill-opacity="1" /><path clip-path="url(#clip080)" d="M1969.67 512.356 L1969.67 496.661 L1973.93 496.661 L1973.93 512.194 Q1973.93 515.874 1975.37 517.726 Q1976.8 519.555 1979.67 519.555 Q1983.12 519.555 1985.11 517.356 Q1987.12 515.157 1987.12 511.36 L1987.12 496.661 L1991.38 496.661 L1991.38 522.587 L1987.12 522.587 L1987.12 518.606 Q1985.57 520.967 1983.51 522.124 Q1981.48 523.258 1978.77 523.258 Q1974.3 523.258 1971.99 520.481 Q1969.67 517.703 1969.67 512.356 M1980.39 496.036 L1980.39 496.036 Z" fill="#000000" fill-rule="evenodd" fill-opacity="1" /><polyline clip-path="url(#clip080)" style="stroke:#00a98d; stroke-linecap:butt; stroke-linejoin:round; stroke-width:4; stroke-opacity:1; fill:none" points="
  1706.25,557.147 1839.98,557.147 
  "/>
<path clip-path="url(#clip080)" d="M1752.63 557.147 L1783.35 575.067 L1783.35 539.227 L1752.63 557.147 Z" fill="#00a98d" fill-rule="evenodd" fill-opacity="1" stroke="#000000" stroke-opacity="1" stroke-width="4.9152"/>
<path clip-path="url(#clip080)" d="M1862.26 538.409 L1866.52 538.409 L1866.52 574.427 L1862.26 574.427 L1862.26 538.409 Z" fill="#000000" fill-rule="evenodd" fill-opacity="1" /><path clip-path="url(#clip080)" d="M1891.96 549.265 L1891.96 553.293 Q1890.16 552.367 1888.21 551.904 Q1886.27 551.441 1884.19 551.441 Q1881.01 551.441 1879.42 552.413 Q1877.84 553.386 1877.84 555.33 Q1877.84 556.812 1878.98 557.668 Q1880.11 558.501 1883.54 559.265 L1885 559.589 Q1889.53 560.562 1891.43 562.344 Q1893.35 564.103 1893.35 567.274 Q1893.35 570.886 1890.48 572.992 Q1887.63 575.098 1882.63 575.098 Q1880.55 575.098 1878.28 574.682 Q1876.04 574.288 1873.54 573.478 L1873.54 569.08 Q1875.9 570.307 1878.19 570.932 Q1880.48 571.534 1882.73 571.534 Q1885.74 571.534 1887.36 570.515 Q1888.98 569.474 1888.98 567.599 Q1888.98 565.862 1887.8 564.936 Q1886.64 564.011 1882.68 563.154 L1881.2 562.807 Q1877.24 561.974 1875.48 560.261 Q1873.72 558.524 1873.72 555.515 Q1873.72 551.858 1876.32 549.867 Q1878.91 547.876 1883.68 547.876 Q1886.04 547.876 1888.12 548.224 Q1890.2 548.571 1891.96 549.265 Z" fill="#000000" fill-rule="evenodd" fill-opacity="1" /><path clip-path="url(#clip080)" d="M1910.18 551.487 Q1906.75 551.487 1904.76 554.173 Q1902.77 556.835 1902.77 561.487 Q1902.77 566.14 1904.74 568.825 Q1906.73 571.487 1910.18 571.487 Q1913.58 571.487 1915.57 568.802 Q1917.57 566.117 1917.57 561.487 Q1917.57 556.881 1915.57 554.196 Q1913.58 551.487 1910.18 551.487 M1910.18 547.876 Q1915.74 547.876 1918.91 551.487 Q1922.08 555.099 1922.08 561.487 Q1922.08 567.853 1918.91 571.487 Q1915.74 575.098 1910.18 575.098 Q1904.6 575.098 1901.43 571.487 Q1898.28 567.853 1898.28 561.487 Q1898.28 555.099 1901.43 551.487 Q1904.6 547.876 1910.18 547.876 Z" fill="#000000" fill-rule="evenodd" fill-opacity="1" /><path clip-path="url(#clip080)" d="M1946.2 552.437 L1946.2 538.409 L1950.46 538.409 L1950.46 574.427 L1946.2 574.427 L1946.2 570.538 Q1944.86 572.853 1942.8 573.987 Q1940.76 575.098 1937.89 575.098 Q1933.19 575.098 1930.23 571.348 Q1927.29 567.599 1927.29 561.487 Q1927.29 555.376 1930.23 551.626 Q1933.19 547.876 1937.89 547.876 Q1940.76 547.876 1942.8 549.011 Q1944.86 550.122 1946.2 552.437 M1931.69 561.487 Q1931.69 566.186 1933.61 568.872 Q1935.55 571.534 1938.93 571.534 Q1942.31 571.534 1944.25 568.872 Q1946.2 566.186 1946.2 561.487 Q1946.2 556.788 1944.25 554.126 Q1942.31 551.441 1938.93 551.441 Q1935.55 551.441 1933.61 554.126 Q1931.69 556.788 1931.69 561.487 Z" fill="#000000" fill-rule="evenodd" fill-opacity="1" /><path clip-path="url(#clip080)" d="M1971.01 561.395 Q1965.85 561.395 1963.86 562.575 Q1961.87 563.756 1961.87 566.603 Q1961.87 568.872 1963.35 570.214 Q1964.86 571.534 1967.43 571.534 Q1970.97 571.534 1973.1 569.034 Q1975.25 566.511 1975.25 562.344 L1975.25 561.395 L1971.01 561.395 M1979.51 559.636 L1979.51 574.427 L1975.25 574.427 L1975.25 570.492 Q1973.79 572.853 1971.62 573.987 Q1969.44 575.098 1966.29 575.098 Q1962.31 575.098 1959.95 572.876 Q1957.61 570.631 1957.61 566.881 Q1957.61 562.506 1960.53 560.284 Q1963.47 558.062 1969.28 558.062 L1975.25 558.062 L1975.25 557.645 Q1975.25 554.705 1973.31 553.108 Q1971.38 551.487 1967.89 551.487 Q1965.67 551.487 1963.56 552.02 Q1961.45 552.552 1959.51 553.617 L1959.51 549.682 Q1961.85 548.779 1964.05 548.339 Q1966.25 547.876 1968.33 547.876 Q1973.95 547.876 1976.73 550.793 Q1979.51 553.71 1979.51 559.636 Z" fill="#000000" fill-rule="evenodd" fill-opacity="1" /></svg>
