<?xml version="1.0" encoding="utf-8"?>
<svg xmlns="http://www.w3.org/2000/svg" xmlns:xlink="http://www.w3.org/1999/xlink" width="576" height="384" viewBox="0 0 2304 1536">
<defs>
  <clipPath id="clip640">
    <rect x="0" y="0" width="2304" height="1536"/>
  </clipPath>
</defs>
<path clip-path="url(#clip640)" d="
M0 1536 L2304 1536 L2304 0 L0 0  Z
  " fill="#ffffff" fill-rule="evenodd" fill-opacity="1"/>
<defs>
  <clipPath id="clip641">
    <rect x="460" y="0" width="1614" height="1536"/>
  </clipPath>
</defs>
<path clip-path="url(#clip640)" d="
M288.159 1347.54 L2256.76 1347.54 L2256.76 47.2441 L288.159 47.2441  Z
  " fill="#ffffff" fill-rule="evenodd" fill-opacity="1"/>
<defs>
  <clipPath id="clip642">
    <rect x="288" y="47" width="1970" height="1301"/>
  </clipPath>
</defs>
<polyline clip-path="url(#clip642)" style="stroke:#000000; stroke-linecap:butt; stroke-linejoin:round; stroke-width:2; stroke-opacity:0.1; fill:none" points="
  1184.3,1347.54 1184.3,47.2441 
  "/>
<polyline clip-path="url(#clip642)" style="stroke:#000000; stroke-linecap:butt; stroke-linejoin:round; stroke-width:2; stroke-opacity:0.1; fill:none" points="
  2096.11,1347.54 2096.11,47.2441 
  "/>
<polyline clip-path="url(#clip640)" style="stroke:#000000; stroke-linecap:butt; stroke-linejoin:round; stroke-width:4; stroke-opacity:1; fill:none" points="
  288.159,1347.54 2256.76,1347.54 
  "/>
<polyline clip-path="url(#clip640)" style="stroke:#000000; stroke-linecap:butt; stroke-linejoin:round; stroke-width:4; stroke-opacity:1; fill:none" points="
  1184.3,1347.54 1184.3,1328.64 
  "/>
<polyline clip-path="url(#clip640)" style="stroke:#000000; stroke-linecap:butt; stroke-linejoin:round; stroke-width:4; stroke-opacity:1; fill:none" points="
  2096.11,1347.54 2096.11,1328.64 
  "/>
<path clip-path="url(#clip640)" d="M1133.85 1420.89 L1141.49 1420.89 L1141.49 1394.53 L1133.18 1396.19 L1133.18 1391.94 L1141.44 1390.27 L1146.12 1390.27 L1146.12 1420.89 L1153.76 1420.89 L1153.76 1424.83 L1133.85 1424.83 L1133.85 1420.89 Z" fill="#000000" fill-rule="evenodd" fill-opacity="1" /><path clip-path="url(#clip640)" d="M1173.2 1393.35 Q1169.59 1393.35 1167.76 1396.91 Q1165.96 1400.45 1165.96 1407.58 Q1165.96 1414.69 1167.76 1418.25 Q1169.59 1421.8 1173.2 1421.8 Q1176.84 1421.8 1178.64 1418.25 Q1180.47 1414.69 1180.47 1407.58 Q1180.47 1400.45 1178.64 1396.91 Q1176.84 1393.35 1173.2 1393.35 M1173.2 1389.64 Q1179.01 1389.64 1182.07 1394.25 Q1185.15 1398.83 1185.15 1407.58 Q1185.15 1416.31 1182.07 1420.92 Q1179.01 1425.5 1173.2 1425.5 Q1167.39 1425.5 1164.31 1420.92 Q1161.26 1416.31 1161.26 1407.58 Q1161.26 1398.83 1164.31 1394.25 Q1167.39 1389.64 1173.2 1389.64 Z" fill="#000000" fill-rule="evenodd" fill-opacity="1" /><path clip-path="url(#clip640)" d="M1185.15 1383.74 L1209.26 1383.74 L1209.26 1386.94 L1185.15 1386.94 L1185.15 1383.74 Z" fill="#000000" fill-rule="evenodd" fill-opacity="1" /><path clip-path="url(#clip640)" d="M1226.05 1381.86 Q1223.5 1381.86 1221.99 1383.61 Q1220.51 1385.36 1220.51 1388.41 Q1220.51 1391.44 1221.99 1393.21 Q1223.5 1394.95 1226.05 1394.95 Q1228.61 1394.95 1230.1 1393.21 Q1231.6 1391.44 1231.6 1388.41 Q1231.6 1385.36 1230.1 1383.61 Q1228.61 1381.86 1226.05 1381.86 M1233.6 1369.96 L1233.6 1373.42 Q1232.17 1372.74 1230.7 1372.39 Q1229.25 1372.03 1227.82 1372.03 Q1224.06 1372.03 1222.07 1374.57 Q1220.09 1377.11 1219.81 1382.24 Q1220.92 1380.6 1222.59 1379.74 Q1224.27 1378.85 1226.28 1378.85 Q1230.51 1378.85 1232.96 1381.43 Q1235.42 1383.99 1235.42 1388.41 Q1235.42 1392.74 1232.86 1395.35 Q1230.3 1397.96 1226.05 1397.96 Q1221.18 1397.96 1218.61 1394.24 Q1216.03 1390.5 1216.03 1383.41 Q1216.03 1376.75 1219.19 1372.8 Q1222.35 1368.83 1227.67 1368.83 Q1229.1 1368.83 1230.55 1369.11 Q1232.02 1369.39 1233.6 1369.96 Z" fill="#000000" fill-rule="evenodd" fill-opacity="1" /><path clip-path="url(#clip640)" d="M2045.53 1420.89 L2053.17 1420.89 L2053.17 1394.53 L2044.86 1396.19 L2044.86 1391.94 L2053.13 1390.27 L2057.8 1390.27 L2057.8 1420.89 L2065.44 1420.89 L2065.44 1424.83 L2045.53 1424.83 L2045.53 1420.89 Z" fill="#000000" fill-rule="evenodd" fill-opacity="1" /><path clip-path="url(#clip640)" d="M2084.88 1393.35 Q2081.27 1393.35 2079.44 1396.91 Q2077.64 1400.45 2077.64 1407.58 Q2077.64 1414.69 2079.44 1418.25 Q2081.27 1421.8 2084.88 1421.8 Q2088.52 1421.8 2090.32 1418.25 Q2092.15 1414.69 2092.15 1407.58 Q2092.15 1400.45 2090.32 1396.91 Q2088.52 1393.35 2084.88 1393.35 M2084.88 1389.64 Q2090.69 1389.64 2093.75 1394.25 Q2096.83 1398.83 2096.83 1407.58 Q2096.83 1416.31 2093.75 1420.92 Q2090.69 1425.5 2084.88 1425.5 Q2079.07 1425.5 2076 1420.92 Q2072.94 1416.31 2072.94 1407.58 Q2072.94 1398.83 2076 1394.25 Q2079.07 1389.64 2084.88 1389.64 Z" fill="#000000" fill-rule="evenodd" fill-opacity="1" /><path clip-path="url(#clip640)" d="M2096.83 1383.74 L2120.94 1383.74 L2120.94 1386.94 L2096.83 1386.94 L2096.83 1383.74 Z" fill="#000000" fill-rule="evenodd" fill-opacity="1" /><path clip-path="url(#clip640)" d="M2139.58 1372.65 L2129.99 1387.64 L2139.58 1387.64 L2139.58 1372.65 M2138.58 1369.34 L2143.36 1369.34 L2143.36 1387.64 L2147.37 1387.64 L2147.37 1390.8 L2143.36 1390.8 L2143.36 1397.42 L2139.58 1397.42 L2139.58 1390.8 L2126.9 1390.8 L2126.9 1387.13 L2138.58 1369.34 Z" fill="#000000" fill-rule="evenodd" fill-opacity="1" /><path clip-path="url(#clip640)" d="M1196.21 1461.87 L1226.26 1461.87 L1226.26 1467.28 L1202.64 1467.28 L1202.64 1481.34 L1225.27 1481.34 L1225.27 1486.76 L1202.64 1486.76 L1202.64 1503.97 L1226.83 1503.97 L1226.83 1509.39 L1196.21 1509.39 L1196.21 1461.87 Z" fill="#000000" fill-rule="evenodd" fill-opacity="1" /><path clip-path="url(#clip640)" d="M1257.8 1479.21 Q1256.81 1478.64 1255.64 1478.38 Q1254.49 1478.1 1253.09 1478.1 Q1248.12 1478.1 1245.45 1481.34 Q1242.81 1484.56 1242.81 1490.61 L1242.81 1509.39 L1236.92 1509.39 L1236.92 1473.74 L1242.81 1473.74 L1242.81 1479.28 Q1244.66 1476.03 1247.62 1474.47 Q1250.58 1472.88 1254.81 1472.88 Q1255.41 1472.88 1256.15 1472.97 Q1256.88 1473.04 1257.77 1473.2 L1257.8 1479.21 Z" fill="#000000" fill-rule="evenodd" fill-opacity="1" /><path clip-path="url(#clip640)" d="M1283.45 1479.21 Q1282.47 1478.64 1281.29 1478.38 Q1280.14 1478.1 1278.74 1478.1 Q1273.78 1478.1 1271.1 1481.34 Q1268.46 1484.56 1268.46 1490.61 L1268.46 1509.39 L1262.57 1509.39 L1262.57 1473.74 L1268.46 1473.74 L1268.46 1479.28 Q1270.31 1476.03 1273.27 1474.47 Q1276.23 1472.88 1280.46 1472.88 Q1281.07 1472.88 1281.8 1472.97 Q1282.53 1473.04 1283.42 1473.2 L1283.45 1479.21 Z" fill="#000000" fill-rule="evenodd" fill-opacity="1" /><path clip-path="url(#clip640)" d="M1301.98 1477.84 Q1297.27 1477.84 1294.53 1481.54 Q1291.79 1485.2 1291.79 1491.59 Q1291.79 1497.99 1294.5 1501.68 Q1297.24 1505.34 1301.98 1505.34 Q1306.66 1505.34 1309.39 1501.65 Q1312.13 1497.96 1312.13 1491.59 Q1312.13 1485.26 1309.39 1481.57 Q1306.66 1477.84 1301.98 1477.84 M1301.98 1472.88 Q1309.62 1472.88 1313.98 1477.84 Q1318.34 1482.81 1318.34 1491.59 Q1318.34 1500.35 1313.98 1505.34 Q1309.62 1510.31 1301.98 1510.31 Q1294.31 1510.31 1289.95 1505.34 Q1285.62 1500.35 1285.62 1491.59 Q1285.62 1482.81 1289.95 1477.84 Q1294.31 1472.88 1301.98 1472.88 Z" fill="#000000" fill-rule="evenodd" fill-opacity="1" /><path clip-path="url(#clip640)" d="M1348.7 1479.21 Q1347.72 1478.64 1346.54 1478.38 Q1345.39 1478.1 1343.99 1478.1 Q1339.03 1478.1 1336.35 1481.34 Q1333.71 1484.56 1333.71 1490.61 L1333.71 1509.39 L1327.82 1509.39 L1327.82 1473.74 L1333.71 1473.74 L1333.71 1479.28 Q1335.56 1476.03 1338.52 1474.47 Q1341.48 1472.88 1345.71 1472.88 Q1346.32 1472.88 1347.05 1472.97 Q1347.78 1473.04 1348.67 1473.2 L1348.7 1479.21 Z" fill="#000000" fill-rule="evenodd" fill-opacity="1" /><polyline clip-path="url(#clip642)" style="stroke:#000000; stroke-linecap:butt; stroke-linejoin:round; stroke-width:2; stroke-opacity:0.1; fill:none" points="
  288.159,1099.72 2256.76,1099.72 
  "/>
<polyline clip-path="url(#clip642)" style="stroke:#000000; stroke-linecap:butt; stroke-linejoin:round; stroke-width:2; stroke-opacity:0.1; fill:none" points="
  288.159,552.113 2256.76,552.113 
  "/>
<polyline clip-path="url(#clip640)" style="stroke:#000000; stroke-linecap:butt; stroke-linejoin:round; stroke-width:4; stroke-opacity:1; fill:none" points="
  288.159,1347.54 288.159,47.2441 
  "/>
<polyline clip-path="url(#clip640)" style="stroke:#000000; stroke-linecap:butt; stroke-linejoin:round; stroke-width:4; stroke-opacity:1; fill:none" points="
  288.159,1099.72 307.057,1099.72 
  "/>
<polyline clip-path="url(#clip640)" style="stroke:#000000; stroke-linecap:butt; stroke-linejoin:round; stroke-width:4; stroke-opacity:1; fill:none" points="
  288.159,552.113 307.057,552.113 
  "/>
<path clip-path="url(#clip640)" d="M115.411 1119.51 L123.05 1119.51 L123.05 1093.14 L114.74 1094.81 L114.74 1090.55 L123.004 1088.88 L127.68 1088.88 L127.68 1119.51 L135.319 1119.51 L135.319 1123.44 L115.411 1123.44 L115.411 1119.51 Z" fill="#000000" fill-rule="evenodd" fill-opacity="1" /><path clip-path="url(#clip640)" d="M154.763 1091.96 Q151.152 1091.96 149.323 1095.53 Q147.518 1099.07 147.518 1106.2 Q147.518 1113.31 149.323 1116.87 Q151.152 1120.41 154.763 1120.41 Q158.397 1120.41 160.203 1116.87 Q162.032 1113.31 162.032 1106.2 Q162.032 1099.07 160.203 1095.53 Q158.397 1091.96 154.763 1091.96 M154.763 1088.26 Q160.573 1088.26 163.629 1092.87 Q166.707 1097.45 166.707 1106.2 Q166.707 1114.93 163.629 1119.53 Q160.573 1124.12 154.763 1124.12 Q148.953 1124.12 145.874 1119.53 Q142.819 1114.93 142.819 1106.2 Q142.819 1097.45 145.874 1092.87 Q148.953 1088.26 154.763 1088.26 Z" fill="#000000" fill-rule="evenodd" fill-opacity="1" /><path clip-path="url(#clip640)" d="M166.707 1082.36 L190.819 1082.36 L190.819 1085.56 L166.707 1085.56 L166.707 1082.36 Z" fill="#000000" fill-rule="evenodd" fill-opacity="1" /><path clip-path="url(#clip640)" d="M209.458 1071.26 L199.866 1086.25 L209.458 1086.25 L209.458 1071.26 M208.461 1067.95 L213.238 1067.95 L213.238 1086.25 L217.244 1086.25 L217.244 1089.41 L213.238 1089.41 L213.238 1096.03 L209.458 1096.03 L209.458 1089.41 L196.781 1089.41 L196.781 1085.75 L208.461 1067.95 Z" fill="#000000" fill-rule="evenodd" fill-opacity="1" /><path clip-path="url(#clip640)" d="M223.526 1091.26 L227.494 1091.26 L227.494 1096.03 L223.526 1096.03 L223.526 1091.26 Z" fill="#000000" fill-rule="evenodd" fill-opacity="1" /><path clip-path="url(#clip640)" d="M243.895 1070.46 Q240.961 1070.46 239.475 1073.35 Q238.008 1076.23 238.008 1082.02 Q238.008 1087.8 239.475 1090.69 Q240.961 1093.57 243.895 1093.57 Q246.847 1093.57 248.314 1090.69 Q249.8 1087.8 249.8 1082.02 Q249.8 1076.23 248.314 1073.35 Q246.847 1070.46 243.895 1070.46 M243.895 1067.45 Q248.615 1067.45 251.098 1071.19 Q253.599 1074.91 253.599 1082.02 Q253.599 1089.11 251.098 1092.86 Q248.615 1096.58 243.895 1096.58 Q239.174 1096.58 236.672 1092.86 Q234.19 1089.11 234.19 1082.02 Q234.19 1074.91 236.672 1071.19 Q239.174 1067.45 243.895 1067.45 Z" fill="#000000" fill-rule="evenodd" fill-opacity="1" /><path clip-path="url(#clip640)" d="M116.22 571.906 L123.859 571.906 L123.859 545.54 L115.549 547.207 L115.549 542.947 L123.813 541.281 L128.489 541.281 L128.489 571.906 L136.127 571.906 L136.127 575.841 L116.22 575.841 L116.22 571.906 Z" fill="#000000" fill-rule="evenodd" fill-opacity="1" /><path clip-path="url(#clip640)" d="M155.572 544.359 Q151.961 544.359 150.132 547.924 Q148.326 551.466 148.326 558.595 Q148.326 565.702 150.132 569.267 Q151.961 572.808 155.572 572.808 Q159.206 572.808 161.012 569.267 Q162.84 565.702 162.84 558.595 Q162.84 551.466 161.012 547.924 Q159.206 544.359 155.572 544.359 M155.572 540.656 Q161.382 540.656 164.438 545.262 Q167.516 549.846 167.516 558.595 Q167.516 567.322 164.438 571.929 Q161.382 576.512 155.572 576.512 Q149.762 576.512 146.683 571.929 Q143.627 567.322 143.627 558.595 Q143.627 549.846 146.683 545.262 Q149.762 540.656 155.572 540.656 Z" fill="#000000" fill-rule="evenodd" fill-opacity="1" /><path clip-path="url(#clip640)" d="M167.516 534.757 L191.628 534.757 L191.628 537.954 L167.516 537.954 L167.516 534.757 Z" fill="#000000" fill-rule="evenodd" fill-opacity="1" /><path clip-path="url(#clip640)" d="M211.338 533.29 Q214.065 533.873 215.589 535.716 Q217.131 537.559 217.131 540.268 Q217.131 544.424 214.272 546.7 Q211.414 548.976 206.147 548.976 Q204.379 548.976 202.499 548.618 Q200.637 548.28 198.643 547.584 L198.643 543.917 Q200.223 544.838 202.104 545.308 Q203.984 545.778 206.035 545.778 Q209.608 545.778 211.47 544.368 Q213.351 542.957 213.351 540.268 Q213.351 537.785 211.602 536.393 Q209.871 534.983 206.768 534.983 L203.495 534.983 L203.495 531.861 L206.918 531.861 Q209.721 531.861 211.207 530.751 Q212.692 529.623 212.692 527.516 Q212.692 525.353 211.15 524.206 Q209.627 523.04 206.768 523.04 Q205.207 523.04 203.42 523.378 Q201.633 523.717 199.489 524.432 L199.489 521.046 Q201.652 520.444 203.533 520.143 Q205.433 519.843 207.107 519.843 Q211.432 519.843 213.953 521.817 Q216.473 523.773 216.473 527.121 Q216.473 529.453 215.137 531.071 Q213.802 532.669 211.338 533.29 Z" fill="#000000" fill-rule="evenodd" fill-opacity="1" /><path clip-path="url(#clip640)" d="M224.334 543.653 L228.303 543.653 L228.303 548.43 L224.334 548.43 L224.334 543.653 Z" fill="#000000" fill-rule="evenodd" fill-opacity="1" /><path clip-path="url(#clip640)" d="M236.616 520.35 L251.531 520.35 L251.531 523.548 L240.095 523.548 L240.095 530.431 Q240.923 530.149 241.75 530.018 Q242.578 529.867 243.406 529.867 Q248.107 529.867 250.853 532.444 Q253.599 535.02 253.599 539.421 Q253.599 543.954 250.778 546.474 Q247.957 548.976 242.823 548.976 Q241.055 548.976 239.211 548.675 Q237.387 548.374 235.431 547.772 L235.431 543.954 Q237.124 544.876 238.929 545.327 Q240.735 545.778 242.747 545.778 Q246.001 545.778 247.901 544.067 Q249.8 542.355 249.8 539.421 Q249.8 536.487 247.901 534.776 Q246.001 533.064 242.747 533.064 Q241.224 533.064 239.7 533.403 Q238.196 533.741 236.616 534.456 L236.616 520.35 Z" fill="#000000" fill-rule="evenodd" fill-opacity="1" /><path clip-path="url(#clip640)" d="M18.4042 827.219 L18.4042 787.02 L23.815 787.02 L23.815 803.889 L65.9242 803.889 L65.9242 810.35 L23.815 810.35 L23.815 827.219 L18.4042 827.219 Z" fill="#000000" fill-rule="evenodd" fill-opacity="1" /><path clip-path="url(#clip640)" d="M30.2762 783.073 L30.2762 777.216 L65.9242 777.216 L65.9242 783.073 L30.2762 783.073 M16.399 783.073 L16.399 777.216 L23.815 777.216 L23.815 783.073 L16.399 783.073 Z" fill="#000000" fill-rule="evenodd" fill-opacity="1" /><path clip-path="url(#clip640)" d="M37.1193 737.208 Q33.1726 735.012 31.2947 731.956 Q29.4168 728.901 29.4168 724.763 Q29.4168 719.193 33.3317 716.169 Q37.2148 713.145 44.4081 713.145 L65.9242 713.145 L65.9242 719.034 L44.599 719.034 Q39.4746 719.034 36.992 720.848 Q34.5094 722.662 34.5094 726.386 Q34.5094 730.938 37.5331 733.579 Q40.5568 736.221 45.7767 736.221 L65.9242 736.221 L65.9242 742.109 L44.599 742.109 Q39.4428 742.109 36.992 743.924 Q34.5094 745.738 34.5094 749.526 Q34.5094 754.013 37.5649 756.655 Q40.5886 759.297 45.7767 759.297 L65.9242 759.297 L65.9242 765.185 L30.2762 765.185 L30.2762 759.297 L35.8144 759.297 Q32.536 757.292 30.9764 754.491 Q29.4168 751.69 29.4168 747.839 Q29.4168 743.956 31.3902 741.25 Q33.3636 738.513 37.1193 737.208 Z" fill="#000000" fill-rule="evenodd" fill-opacity="1" /><path clip-path="url(#clip640)" d="M46.6361 670.973 L49.5006 670.973 L49.5006 697.9 Q55.5481 697.518 58.7309 694.271 Q61.8819 690.993 61.8819 685.168 Q61.8819 681.794 61.0544 678.643 Q60.2269 675.461 58.5718 672.341 L64.1099 672.341 Q65.4467 675.492 66.147 678.803 Q66.8472 682.113 66.8472 685.518 Q66.8472 694.048 61.8819 699.045 Q56.9167 704.011 48.4503 704.011 Q39.6974 704.011 34.5731 699.3 Q29.4168 694.558 29.4168 686.537 Q29.4168 679.344 34.0638 675.174 Q38.6789 670.973 46.6361 670.973 M44.9173 676.829 Q40.1112 676.893 37.2466 679.535 Q34.3821 682.145 34.3821 686.473 Q34.3821 691.375 37.1512 694.335 Q39.9202 697.263 44.9492 697.709 L44.9173 676.829 Z" fill="#000000" fill-rule="evenodd" fill-opacity="1" /><path clip-path="url(#clip640)" d="M16.4626 626.572 Q23.7832 630.837 30.9446 632.906 Q38.106 634.975 45.4584 634.975 Q52.8108 634.975 60.0359 632.906 Q67.2291 630.805 74.5179 626.572 L74.5179 631.664 Q67.0382 636.439 59.8131 638.826 Q52.588 641.181 45.4584 641.181 Q38.3606 641.181 31.1674 638.826 Q23.9742 636.471 16.4626 631.664 L16.4626 626.572 Z" fill="#000000" fill-rule="evenodd" fill-opacity="1" /><path clip-path="url(#clip640)" d="M31.3265 592.484 L36.8647 592.484 Q35.5916 594.966 34.955 597.64 Q34.3184 600.313 34.3184 603.178 Q34.3184 607.538 35.6552 609.735 Q36.992 611.899 39.6656 611.899 Q41.7026 611.899 42.8803 610.339 Q44.0261 608.78 45.0765 604.069 L45.5221 602.064 Q46.8589 595.826 49.3097 593.216 Q51.7286 590.574 56.0891 590.574 Q61.0544 590.574 63.9508 594.521 Q66.8472 598.435 66.8472 605.31 Q66.8472 608.175 66.2743 611.294 Q65.7332 614.382 64.6192 617.819 L58.5718 617.819 Q60.2587 614.573 61.118 611.422 Q61.9456 608.27 61.9456 605.183 Q61.9456 601.045 60.5451 598.817 Q59.1129 596.589 56.5347 596.589 Q54.1476 596.589 52.8745 598.213 Q51.6013 599.804 50.4237 605.247 L49.9462 607.284 Q48.8004 612.726 46.4451 615.145 Q44.058 617.564 39.9202 617.564 Q34.8913 617.564 32.1541 614 Q29.4168 610.435 29.4168 603.878 Q29.4168 600.632 29.8943 597.767 Q30.3717 594.902 31.3265 592.484 Z" fill="#000000" fill-rule="evenodd" fill-opacity="1" /><path clip-path="url(#clip640)" d="M16.4626 582.171 L16.4626 577.079 Q23.9742 572.304 31.1674 569.949 Q38.3606 567.562 45.4584 567.562 Q52.588 567.562 59.8131 569.949 Q67.0382 572.304 74.5179 577.079 L74.5179 582.171 Q67.2291 577.938 60.0359 575.869 Q52.8108 573.768 45.4584 573.768 Q38.106 573.768 30.9446 575.869 Q23.7832 577.938 16.4626 582.171 Z" fill="#000000" fill-rule="evenodd" fill-opacity="1" /><polyline clip-path="url(#clip642)" style="stroke:#009af9; stroke-linecap:butt; stroke-linejoin:round; stroke-width:12; stroke-opacity:1; fill:none" points="
  1307.28,1310.74 1060.44,1192.44 724.017,997.485 466.179,758.941 
  "/>
<line clip-path="url(#clip642)" x1="1307.28" y1="1310.74" x2="1307.28" y2="1294.74" style="stroke:#009af9; stroke-width:3.072; stroke-opacity:1"/>
<line clip-path="url(#clip642)" x1="1307.28" y1="1310.74" x2="1291.28" y2="1310.74" style="stroke:#009af9; stroke-width:3.072; stroke-opacity:1"/>
<line clip-path="url(#clip642)" x1="1307.28" y1="1310.74" x2="1307.28" y2="1326.74" style="stroke:#009af9; stroke-width:3.072; stroke-opacity:1"/>
<line clip-path="url(#clip642)" x1="1307.28" y1="1310.74" x2="1323.28" y2="1310.74" style="stroke:#009af9; stroke-width:3.072; stroke-opacity:1"/>
<line clip-path="url(#clip642)" x1="1060.44" y1="1192.44" x2="1060.44" y2="1176.44" style="stroke:#009af9; stroke-width:3.072; stroke-opacity:1"/>
<line clip-path="url(#clip642)" x1="1060.44" y1="1192.44" x2="1044.44" y2="1192.44" style="stroke:#009af9; stroke-width:3.072; stroke-opacity:1"/>
<line clip-path="url(#clip642)" x1="1060.44" y1="1192.44" x2="1060.44" y2="1208.44" style="stroke:#009af9; stroke-width:3.072; stroke-opacity:1"/>
<line clip-path="url(#clip642)" x1="1060.44" y1="1192.44" x2="1076.44" y2="1192.44" style="stroke:#009af9; stroke-width:3.072; stroke-opacity:1"/>
<line clip-path="url(#clip642)" x1="724.017" y1="997.485" x2="724.017" y2="981.485" style="stroke:#009af9; stroke-width:3.072; stroke-opacity:1"/>
<line clip-path="url(#clip642)" x1="724.017" y1="997.485" x2="708.017" y2="997.485" style="stroke:#009af9; stroke-width:3.072; stroke-opacity:1"/>
<line clip-path="url(#clip642)" x1="724.017" y1="997.485" x2="724.017" y2="1013.49" style="stroke:#009af9; stroke-width:3.072; stroke-opacity:1"/>
<line clip-path="url(#clip642)" x1="724.017" y1="997.485" x2="740.017" y2="997.485" style="stroke:#009af9; stroke-width:3.072; stroke-opacity:1"/>
<line clip-path="url(#clip642)" x1="466.179" y1="758.941" x2="466.179" y2="742.941" style="stroke:#009af9; stroke-width:3.072; stroke-opacity:1"/>
<line clip-path="url(#clip642)" x1="466.179" y1="758.941" x2="450.179" y2="758.941" style="stroke:#009af9; stroke-width:3.072; stroke-opacity:1"/>
<line clip-path="url(#clip642)" x1="466.179" y1="758.941" x2="466.179" y2="774.941" style="stroke:#009af9; stroke-width:3.072; stroke-opacity:1"/>
<line clip-path="url(#clip642)" x1="466.179" y1="758.941" x2="482.179" y2="758.941" style="stroke:#009af9; stroke-width:3.072; stroke-opacity:1"/>
<polyline clip-path="url(#clip642)" style="stroke:#e26f46; stroke-linecap:butt; stroke-linejoin:round; stroke-width:12; stroke-opacity:1; fill:none" points="
  2009.05,1003.86 1678.57,845.27 690.138,611.645 815.705,364.063 
  "/>
<circle clip-path="url(#clip642)" cx="2009.05" cy="1003.86" r="14" fill="#e26f46" fill-rule="evenodd" fill-opacity="1" stroke="#000000" stroke-opacity="1" stroke-width="3.072"/>
<circle clip-path="url(#clip642)" cx="1678.57" cy="845.27" r="14" fill="#e26f46" fill-rule="evenodd" fill-opacity="1" stroke="#000000" stroke-opacity="1" stroke-width="3.072"/>
<circle clip-path="url(#clip642)" cx="690.138" cy="611.645" r="14" fill="#e26f46" fill-rule="evenodd" fill-opacity="1" stroke="#000000" stroke-opacity="1" stroke-width="3.072"/>
<circle clip-path="url(#clip642)" cx="815.705" cy="364.063" r="14" fill="#e26f46" fill-rule="evenodd" fill-opacity="1" stroke="#000000" stroke-opacity="1" stroke-width="3.072"/>
<polyline clip-path="url(#clip642)" style="stroke:#3da44d; stroke-linecap:butt; stroke-linejoin:round; stroke-width:12; stroke-opacity:1; fill:none" points="
  2201.04,859.665 1706.17,790.989 1565.9,688.115 1028.85,541.056 
  "/>
<line clip-path="url(#clip642)" x1="2201.04" y1="859.665" x2="2201.04" y2="843.665" style="stroke:#3da44d; stroke-width:3.072; stroke-opacity:1"/>
<line clip-path="url(#clip642)" x1="2201.04" y1="859.665" x2="2185.04" y2="859.665" style="stroke:#3da44d; stroke-width:3.072; stroke-opacity:1"/>
<line clip-path="url(#clip642)" x1="2201.04" y1="859.665" x2="2201.04" y2="875.665" style="stroke:#3da44d; stroke-width:3.072; stroke-opacity:1"/>
<line clip-path="url(#clip642)" x1="2201.04" y1="859.665" x2="2217.04" y2="859.665" style="stroke:#3da44d; stroke-width:3.072; stroke-opacity:1"/>
<line clip-path="url(#clip642)" x1="1706.17" y1="790.989" x2="1706.17" y2="774.989" style="stroke:#3da44d; stroke-width:3.072; stroke-opacity:1"/>
<line clip-path="url(#clip642)" x1="1706.17" y1="790.989" x2="1690.17" y2="790.989" style="stroke:#3da44d; stroke-width:3.072; stroke-opacity:1"/>
<line clip-path="url(#clip642)" x1="1706.17" y1="790.989" x2="1706.17" y2="806.989" style="stroke:#3da44d; stroke-width:3.072; stroke-opacity:1"/>
<line clip-path="url(#clip642)" x1="1706.17" y1="790.989" x2="1722.17" y2="790.989" style="stroke:#3da44d; stroke-width:3.072; stroke-opacity:1"/>
<line clip-path="url(#clip642)" x1="1565.9" y1="688.115" x2="1565.9" y2="672.115" style="stroke:#3da44d; stroke-width:3.072; stroke-opacity:1"/>
<line clip-path="url(#clip642)" x1="1565.9" y1="688.115" x2="1549.9" y2="688.115" style="stroke:#3da44d; stroke-width:3.072; stroke-opacity:1"/>
<line clip-path="url(#clip642)" x1="1565.9" y1="688.115" x2="1565.9" y2="704.115" style="stroke:#3da44d; stroke-width:3.072; stroke-opacity:1"/>
<line clip-path="url(#clip642)" x1="1565.9" y1="688.115" x2="1581.9" y2="688.115" style="stroke:#3da44d; stroke-width:3.072; stroke-opacity:1"/>
<line clip-path="url(#clip642)" x1="1028.85" y1="541.056" x2="1028.85" y2="525.056" style="stroke:#3da44d; stroke-width:3.072; stroke-opacity:1"/>
<line clip-path="url(#clip642)" x1="1028.85" y1="541.056" x2="1012.85" y2="541.056" style="stroke:#3da44d; stroke-width:3.072; stroke-opacity:1"/>
<line clip-path="url(#clip642)" x1="1028.85" y1="541.056" x2="1028.85" y2="557.056" style="stroke:#3da44d; stroke-width:3.072; stroke-opacity:1"/>
<line clip-path="url(#clip642)" x1="1028.85" y1="541.056" x2="1044.85" y2="541.056" style="stroke:#3da44d; stroke-width:3.072; stroke-opacity:1"/>
<polyline clip-path="url(#clip642)" style="stroke:#c271d2; stroke-linecap:butt; stroke-linejoin:round; stroke-width:12; stroke-opacity:1; fill:none" points="
  1760.67,1044.46 1471.11,953.996 1384.33,842.603 1192.15,719.282 
  "/>
<path clip-path="url(#clip642)" d="M1760.67 1028.46 L1744.67 1044.46 L1760.67 1060.46 L1776.67 1044.46 L1760.67 1028.46 Z" fill="#c271d2" fill-rule="evenodd" fill-opacity="1" stroke="#000000" stroke-opacity="1" stroke-width="3.072"/>
<path clip-path="url(#clip642)" d="M1471.11 937.996 L1455.11 953.996 L1471.11 969.996 L1487.11 953.996 L1471.11 937.996 Z" fill="#c271d2" fill-rule="evenodd" fill-opacity="1" stroke="#000000" stroke-opacity="1" stroke-width="3.072"/>
<path clip-path="url(#clip642)" d="M1384.33 826.603 L1368.33 842.603 L1384.33 858.603 L1400.33 842.603 L1384.33 826.603 Z" fill="#c271d2" fill-rule="evenodd" fill-opacity="1" stroke="#000000" stroke-opacity="1" stroke-width="3.072"/>
<path clip-path="url(#clip642)" d="M1192.15 703.282 L1176.15 719.282 L1192.15 735.282 L1208.15 719.282 L1192.15 703.282 Z" fill="#c271d2" fill-rule="evenodd" fill-opacity="1" stroke="#000000" stroke-opacity="1" stroke-width="3.072"/>
<polyline clip-path="url(#clip642)" style="stroke:#ac8d18; stroke-linecap:butt; stroke-linejoin:round; stroke-width:12; stroke-opacity:1; fill:none" points="
  1804.02,1113.38 1803.87,879.993 1464.52,612.84 1060.26,557.898 
  "/>
<path clip-path="url(#clip642)" d="M1820.02 1097.38 L1788.02 1097.38 L1804.02 1129.38 L1820.02 1097.38 Z" fill="#ac8d18" fill-rule="evenodd" fill-opacity="1" stroke="#000000" stroke-opacity="1" stroke-width="3.072"/>
<path clip-path="url(#clip642)" d="M1819.87 863.993 L1787.87 863.993 L1803.87 895.993 L1819.87 863.993 Z" fill="#ac8d18" fill-rule="evenodd" fill-opacity="1" stroke="#000000" stroke-opacity="1" stroke-width="3.072"/>
<path clip-path="url(#clip642)" d="M1480.52 596.84 L1448.52 596.84 L1464.52 628.84 L1480.52 596.84 Z" fill="#ac8d18" fill-rule="evenodd" fill-opacity="1" stroke="#000000" stroke-opacity="1" stroke-width="3.072"/>
<path clip-path="url(#clip642)" d="M1076.26 541.898 L1044.26 541.898 L1060.26 573.898 L1076.26 541.898 Z" fill="#ac8d18" fill-rule="evenodd" fill-opacity="1" stroke="#000000" stroke-opacity="1" stroke-width="3.072"/>
<polyline clip-path="url(#clip642)" style="stroke:#00a9ad; stroke-linecap:butt; stroke-linejoin:round; stroke-width:12; stroke-opacity:1; fill:none" points="
  1224.72,636.2 1095.63,584.206 805.963,469.395 467.198,317.386 
  "/>
<path clip-path="url(#clip642)" d="M1224.72 620.2 L1212.2 626.232 L1209.12 639.768 L1217.77 650.616 L1231.66 650.616 L1240.32 639.768 L1237.23 626.232 Z" fill="#00a9ad" fill-rule="evenodd" fill-opacity="1" stroke="#000000" stroke-opacity="1" stroke-width="3.072"/>
<path clip-path="url(#clip642)" d="M1095.63 568.206 L1083.12 574.238 L1080.03 587.774 L1088.69 598.622 L1102.57 598.622 L1111.23 587.774 L1108.14 574.238 Z" fill="#00a9ad" fill-rule="evenodd" fill-opacity="1" stroke="#000000" stroke-opacity="1" stroke-width="3.072"/>
<path clip-path="url(#clip642)" d="M805.963 453.395 L793.451 459.427 L790.363 472.963 L799.019 483.811 L812.907 483.811 L821.563 472.963 L818.475 459.427 Z" fill="#00a9ad" fill-rule="evenodd" fill-opacity="1" stroke="#000000" stroke-opacity="1" stroke-width="3.072"/>
<path clip-path="url(#clip642)" d="M467.198 301.386 L454.686 307.418 L451.598 320.954 L460.254 331.802 L474.142 331.802 L482.798 320.954 L479.71 307.418 Z" fill="#00a9ad" fill-rule="evenodd" fill-opacity="1" stroke="#000000" stroke-opacity="1" stroke-width="3.072"/>
<polyline clip-path="url(#clip642)" style="stroke:#ed5d92; stroke-linecap:butt; stroke-linejoin:round; stroke-width:12; stroke-opacity:1; fill:none" points="
  1153.44,255.514 1549.89,235.719 436.739,165.941 546.026,84.0448 
  "/>
<path clip-path="url(#clip642)" d="M1153.44 271.514 L1139.59 263.514 L1139.59 247.514 L1153.44 239.514 L1167.3 247.514 L1167.3 263.514 Z" fill="#ed5d92" fill-rule="evenodd" fill-opacity="1" stroke="#000000" stroke-opacity="1" stroke-width="3.072"/>
<path clip-path="url(#clip642)" d="M1549.89 251.719 L1536.04 243.719 L1536.04 227.719 L1549.89 219.719 L1563.75 227.719 L1563.75 243.719 Z" fill="#ed5d92" fill-rule="evenodd" fill-opacity="1" stroke="#000000" stroke-opacity="1" stroke-width="3.072"/>
<path clip-path="url(#clip642)" d="M436.739 181.941 L422.883 173.941 L422.883 157.941 L436.739 149.941 L450.595 157.941 L450.595 173.941 Z" fill="#ed5d92" fill-rule="evenodd" fill-opacity="1" stroke="#000000" stroke-opacity="1" stroke-width="3.072"/>
<path clip-path="url(#clip642)" d="M546.026 100.045 L532.17 92.0448 L532.17 76.0448 L546.026 68.0448 L559.882 76.0448 L559.882 92.0448 Z" fill="#ed5d92" fill-rule="evenodd" fill-opacity="1" stroke="#000000" stroke-opacity="1" stroke-width="3.072"/>
<polyline clip-path="url(#clip642)" style="stroke:#c68125; stroke-linecap:butt; stroke-linejoin:round; stroke-width:12; stroke-opacity:1; fill:none" points="
  1557.47,947.424 1559.7,827.337 1235.2,713.505 343.874,542.13 
  "/>
<line clip-path="url(#clip642)" x1="1573.47" y1="947.424" x2="1541.47" y2="947.424" style="stroke:#c68125; stroke-width:3.072; stroke-opacity:1"/>
<line clip-path="url(#clip642)" x1="1575.7" y1="827.337" x2="1543.7" y2="827.337" style="stroke:#c68125; stroke-width:3.072; stroke-opacity:1"/>
<line clip-path="url(#clip642)" x1="1251.2" y1="713.505" x2="1219.2" y2="713.505" style="stroke:#c68125; stroke-width:3.072; stroke-opacity:1"/>
<line clip-path="url(#clip642)" x1="359.874" y1="542.13" x2="327.874" y2="542.13" style="stroke:#c68125; stroke-width:3.072; stroke-opacity:1"/>
<polyline clip-path="url(#clip642)" style="stroke:#00a98d; stroke-linecap:butt; stroke-linejoin:round; stroke-width:12; stroke-opacity:1; fill:none" points="
  1629.14,718.921 1220.73,702.278 645.203,649.155 527.413,589.497 
  "/>
<path clip-path="url(#clip642)" d="M1616.34 718.921 L1635.54 730.121 L1635.54 707.721 L1616.34 718.921 Z" fill="#00a98d" fill-rule="evenodd" fill-opacity="1" stroke="#000000" stroke-opacity="1" stroke-width="3.072"/>
<path clip-path="url(#clip642)" d="M1207.93 702.278 L1227.13 713.478 L1227.13 691.078 L1207.93 702.278 Z" fill="#00a98d" fill-rule="evenodd" fill-opacity="1" stroke="#000000" stroke-opacity="1" stroke-width="3.072"/>
<path clip-path="url(#clip642)" d="M632.403 649.155 L651.603 660.355 L651.603 637.955 L632.403 649.155 Z" fill="#00a98d" fill-rule="evenodd" fill-opacity="1" stroke="#000000" stroke-opacity="1" stroke-width="3.072"/>
<path clip-path="url(#clip642)" d="M514.613 589.497 L533.813 600.697 L533.813 578.297 L514.613 589.497 Z" fill="#00a98d" fill-rule="evenodd" fill-opacity="1" stroke="#000000" stroke-opacity="1" stroke-width="3.072"/>
<path clip-path="url(#clip640)" d="
M1645.74 608.987 L2191.14 608.987 L2191.14 90.5872 L1645.74 90.5872  Z
  " fill="#ffffff" fill-rule="evenodd" fill-opacity="1"/>
<polyline clip-path="url(#clip640)" style="stroke:#000000; stroke-linecap:butt; stroke-linejoin:round; stroke-width:4; stroke-opacity:1; fill:none" points="
  1645.74,608.987 2191.14,608.987 2191.14,90.5872 1645.74,90.5872 1645.74,608.987 
  "/>
<polyline clip-path="url(#clip640)" style="stroke:#009af9; stroke-linecap:butt; stroke-linejoin:round; stroke-width:4; stroke-opacity:1; fill:none" points="
  1667.61,142.427 1798.85,142.427 
  "/>
<line clip-path="url(#clip640)" x1="1733.23" y1="142.427" x2="1733.23" y2="116.827" style="stroke:#009af9; stroke-width:4.9152; stroke-opacity:1"/>
<line clip-path="url(#clip640)" x1="1733.23" y1="142.427" x2="1707.63" y2="142.427" style="stroke:#009af9; stroke-width:4.9152; stroke-opacity:1"/>
<line clip-path="url(#clip640)" x1="1733.23" y1="142.427" x2="1733.23" y2="168.027" style="stroke:#009af9; stroke-width:4.9152; stroke-opacity:1"/>
<line clip-path="url(#clip640)" x1="1733.23" y1="142.427" x2="1758.83" y2="142.427" style="stroke:#009af9; stroke-width:4.9152; stroke-opacity:1"/>
<path clip-path="url(#clip640)" d="M1837.11 143.504 Q1838.62 144.013 1840.03 145.679 Q1841.47 147.346 1842.9 150.263 L1847.65 159.707 L1842.62 159.707 L1838.2 150.841 Q1836.49 147.369 1834.87 146.235 Q1833.27 145.101 1830.49 145.101 L1825.4 145.101 L1825.4 159.707 L1820.72 159.707 L1820.72 125.147 L1831.28 125.147 Q1837.21 125.147 1840.12 127.624 Q1843.04 130.101 1843.04 135.101 Q1843.04 138.365 1841.51 140.517 Q1840.01 142.67 1837.11 143.504 M1825.4 128.99 L1825.4 141.258 L1831.28 141.258 Q1834.66 141.258 1836.37 139.707 Q1838.11 138.133 1838.11 135.101 Q1838.11 132.068 1836.37 130.541 Q1834.66 128.99 1831.28 128.99 L1825.4 128.99 Z" fill="#000000" fill-rule="evenodd" fill-opacity="1" /><path clip-path="url(#clip640)" d="M1861.4 136.767 Q1857.97 136.767 1855.98 139.453 Q1853.99 142.115 1853.99 146.767 Q1853.99 151.42 1855.96 154.105 Q1857.95 156.767 1861.4 156.767 Q1864.8 156.767 1866.79 154.082 Q1868.78 151.397 1868.78 146.767 Q1868.78 142.161 1866.79 139.476 Q1864.8 136.767 1861.4 136.767 M1861.4 133.156 Q1866.95 133.156 1870.12 136.767 Q1873.29 140.379 1873.29 146.767 Q1873.29 153.133 1870.12 156.767 Q1866.95 160.378 1861.4 160.378 Q1855.82 160.378 1852.65 156.767 Q1849.5 153.133 1849.5 146.767 Q1849.5 140.379 1852.65 136.767 Q1855.82 133.156 1861.4 133.156 Z" fill="#000000" fill-rule="evenodd" fill-opacity="1" /><path clip-path="url(#clip640)" d="M1896.88 134.545 L1896.88 138.573 Q1895.08 137.647 1893.13 137.184 Q1891.19 136.721 1889.1 136.721 Q1885.93 136.721 1884.34 137.693 Q1882.76 138.666 1882.76 140.61 Q1882.76 142.092 1883.9 142.948 Q1885.03 143.781 1888.46 144.545 L1889.91 144.869 Q1894.45 145.842 1896.35 147.624 Q1898.27 149.383 1898.27 152.554 Q1898.27 156.166 1895.4 158.272 Q1892.55 160.378 1887.55 160.378 Q1885.47 160.378 1883.2 159.962 Q1880.96 159.568 1878.46 158.758 L1878.46 154.36 Q1880.82 155.587 1883.11 156.212 Q1885.4 156.814 1887.65 156.814 Q1890.65 156.814 1892.28 155.795 Q1893.9 154.754 1893.9 152.879 Q1893.9 151.142 1892.71 150.216 Q1891.56 149.291 1887.6 148.434 L1886.12 148.087 Q1882.16 147.254 1880.4 145.541 Q1878.64 143.804 1878.64 140.795 Q1878.64 137.138 1881.23 135.147 Q1883.83 133.156 1888.59 133.156 Q1890.96 133.156 1893.04 133.504 Q1895.12 133.851 1896.88 134.545 Z" fill="#000000" fill-rule="evenodd" fill-opacity="1" /><path clip-path="url(#clip640)" d="M1927.23 145.679 L1927.23 147.763 L1907.65 147.763 Q1907.92 152.161 1910.28 154.476 Q1912.67 156.767 1916.9 156.767 Q1919.36 156.767 1921.65 156.166 Q1923.96 155.564 1926.23 154.36 L1926.23 158.388 Q1923.94 159.36 1921.53 159.869 Q1919.13 160.378 1916.65 160.378 Q1910.45 160.378 1906.81 156.767 Q1903.2 153.156 1903.2 146.999 Q1903.2 140.633 1906.63 136.906 Q1910.08 133.156 1915.91 133.156 Q1921.14 133.156 1924.17 136.536 Q1927.23 139.892 1927.23 145.679 M1922.97 144.429 Q1922.92 140.934 1921 138.851 Q1919.1 136.767 1915.96 136.767 Q1912.39 136.767 1910.24 138.781 Q1908.11 140.795 1907.78 144.453 L1922.97 144.429 Z" fill="#000000" fill-rule="evenodd" fill-opacity="1" /><path clip-path="url(#clip640)" d="M1955.77 144.059 L1955.77 159.707 L1951.51 159.707 L1951.51 144.198 Q1951.51 140.517 1950.08 138.689 Q1948.64 136.86 1945.77 136.86 Q1942.32 136.86 1940.33 139.059 Q1938.34 141.258 1938.34 145.054 L1938.34 159.707 L1934.06 159.707 L1934.06 133.781 L1938.34 133.781 L1938.34 137.809 Q1939.87 135.471 1941.93 134.314 Q1944.01 133.156 1946.72 133.156 Q1951.19 133.156 1953.48 135.934 Q1955.77 138.689 1955.77 144.059 Z" fill="#000000" fill-rule="evenodd" fill-opacity="1" /><path clip-path="url(#clip640)" d="M1982.88 146.767 Q1982.88 142.068 1980.93 139.406 Q1979.01 136.721 1975.63 136.721 Q1972.25 136.721 1970.31 139.406 Q1968.39 142.068 1968.39 146.767 Q1968.39 151.466 1970.31 154.152 Q1972.25 156.814 1975.63 156.814 Q1979.01 156.814 1980.93 154.152 Q1982.88 151.466 1982.88 146.767 M1968.39 137.717 Q1969.73 135.402 1971.77 134.291 Q1973.83 133.156 1976.67 133.156 Q1981.39 133.156 1984.33 136.906 Q1987.3 140.656 1987.3 146.767 Q1987.3 152.879 1984.33 156.628 Q1981.39 160.378 1976.67 160.378 Q1973.83 160.378 1971.77 159.267 Q1969.73 158.133 1968.39 155.818 L1968.39 159.707 L1964.1 159.707 L1964.1 123.689 L1968.39 123.689 L1968.39 137.717 Z" fill="#000000" fill-rule="evenodd" fill-opacity="1" /><path clip-path="url(#clip640)" d="M2009.38 137.763 Q2008.66 137.346 2007.81 137.161 Q2006.97 136.953 2005.96 136.953 Q2002.34 136.953 2000.4 139.314 Q1998.48 141.652 1998.48 146.05 L1998.48 159.707 L1994.2 159.707 L1994.2 133.781 L1998.48 133.781 L1998.48 137.809 Q1999.82 135.448 2001.97 134.314 Q2004.13 133.156 2007.2 133.156 Q2007.64 133.156 2008.18 133.226 Q2008.71 133.272 2009.36 133.388 L2009.38 137.763 Z" fill="#000000" fill-rule="evenodd" fill-opacity="1" /><path clip-path="url(#clip640)" d="M2022.85 136.767 Q2019.43 136.767 2017.44 139.453 Q2015.45 142.115 2015.45 146.767 Q2015.45 151.42 2017.41 154.105 Q2019.4 156.767 2022.85 156.767 Q2026.26 156.767 2028.25 154.082 Q2030.24 151.397 2030.24 146.767 Q2030.24 142.161 2028.25 139.476 Q2026.26 136.767 2022.85 136.767 M2022.85 133.156 Q2028.41 133.156 2031.58 136.767 Q2034.75 140.379 2034.75 146.767 Q2034.75 153.133 2031.58 156.767 Q2028.41 160.378 2022.85 160.378 Q2017.27 160.378 2014.1 156.767 Q2010.95 153.133 2010.95 146.767 Q2010.95 140.379 2014.1 136.767 Q2017.27 133.156 2022.85 133.156 Z" fill="#000000" fill-rule="evenodd" fill-opacity="1" /><path clip-path="url(#clip640)" d="M2060.47 134.777 L2060.47 138.758 Q2058.66 137.763 2056.83 137.277 Q2055.03 136.767 2053.18 136.767 Q2049.03 136.767 2046.74 139.406 Q2044.45 142.022 2044.45 146.767 Q2044.45 151.513 2046.74 154.152 Q2049.03 156.767 2053.18 156.767 Q2055.03 156.767 2056.83 156.281 Q2058.66 155.772 2060.47 154.777 L2060.47 158.712 Q2058.69 159.545 2056.76 159.962 Q2054.87 160.378 2052.71 160.378 Q2046.86 160.378 2043.41 156.698 Q2039.96 153.017 2039.96 146.767 Q2039.96 140.425 2043.43 136.791 Q2046.93 133.156 2052.99 133.156 Q2054.96 133.156 2056.83 133.573 Q2058.71 133.967 2060.47 134.777 Z" fill="#000000" fill-rule="evenodd" fill-opacity="1" /><path clip-path="url(#clip640)" d="M2067.71 123.689 L2072 123.689 L2072 144.962 L2084.7 133.781 L2090.14 133.781 L2076.39 145.911 L2090.72 159.707 L2085.17 159.707 L2072 147.045 L2072 159.707 L2067.71 159.707 L2067.71 123.689 Z" fill="#000000" fill-rule="evenodd" fill-opacity="1" /><path clip-path="url(#clip640)" d="M2099.96 155.772 L2116.28 155.772 L2116.28 159.707 L2094.33 159.707 L2094.33 155.772 Q2097 153.017 2101.58 148.388 Q2106.19 143.735 2107.37 142.392 Q2109.61 139.869 2110.49 138.133 Q2111.39 136.374 2111.39 134.684 Q2111.39 131.93 2109.45 130.193 Q2107.53 128.457 2104.43 128.457 Q2102.23 128.457 2099.77 129.221 Q2097.34 129.985 2094.57 131.536 L2094.57 126.814 Q2097.39 125.68 2099.84 125.101 Q2102.3 124.522 2104.33 124.522 Q2109.7 124.522 2112.9 127.207 Q2116.09 129.893 2116.09 134.383 Q2116.09 136.513 2115.28 138.434 Q2114.5 140.332 2112.39 142.925 Q2111.81 143.596 2108.71 146.814 Q2105.61 150.008 2099.96 155.772 Z" fill="#000000" fill-rule="evenodd" fill-opacity="1" /><path clip-path="url(#clip640)" d="M2140.26 141.073 Q2143.62 141.791 2145.49 144.059 Q2147.39 146.328 2147.39 149.661 Q2147.39 154.777 2143.87 157.578 Q2140.35 160.378 2133.87 160.378 Q2131.7 160.378 2129.38 159.939 Q2127.09 159.522 2124.63 158.666 L2124.63 154.152 Q2126.58 155.286 2128.89 155.865 Q2131.21 156.443 2133.73 156.443 Q2138.13 156.443 2140.42 154.707 Q2142.74 152.971 2142.74 149.661 Q2142.74 146.605 2140.58 144.892 Q2138.45 143.156 2134.63 143.156 L2130.61 143.156 L2130.61 139.314 L2134.82 139.314 Q2138.27 139.314 2140.1 137.948 Q2141.93 136.559 2141.93 133.967 Q2141.93 131.305 2140.03 129.893 Q2138.15 128.457 2134.63 128.457 Q2132.71 128.457 2130.51 128.874 Q2128.32 129.291 2125.68 130.17 L2125.68 126.004 Q2128.34 125.263 2130.65 124.893 Q2132.99 124.522 2135.05 124.522 Q2140.38 124.522 2143.48 126.953 Q2146.58 129.36 2146.58 133.48 Q2146.58 136.351 2144.94 138.342 Q2143.29 140.309 2140.26 141.073 Z" fill="#000000" fill-rule="evenodd" fill-opacity="1" /><polyline clip-path="url(#clip640)" style="stroke:#e26f46; stroke-linecap:butt; stroke-linejoin:round; stroke-width:4; stroke-opacity:1; fill:none" points="
  1667.61,194.267 1798.85,194.267 
  "/>
<circle clip-path="url(#clip640)" cx="1733.23" cy="194.267" r="23" fill="#e26f46" fill-rule="evenodd" fill-opacity="1" stroke="#000000" stroke-opacity="1" stroke-width="4.9152"/>
<path clip-path="url(#clip640)" d="M1820.72 176.987 L1840.59 176.987 L1840.59 180.922 L1825.4 180.922 L1825.4 191.107 L1839.1 191.107 L1839.1 195.043 L1825.4 195.043 L1825.4 211.547 L1820.72 211.547 L1820.72 176.987 Z" fill="#000000" fill-rule="evenodd" fill-opacity="1" /><path clip-path="url(#clip640)" d="M1852.67 195.043 L1852.67 207.705 L1860.17 207.705 Q1863.94 207.705 1865.75 206.154 Q1867.58 204.58 1867.58 201.362 Q1867.58 198.121 1865.75 196.594 Q1863.94 195.043 1860.17 195.043 L1852.67 195.043 M1852.67 180.83 L1852.67 191.246 L1859.59 191.246 Q1863.02 191.246 1864.68 189.973 Q1866.37 188.677 1866.37 186.038 Q1866.37 183.422 1864.68 182.126 Q1863.02 180.83 1859.59 180.83 L1852.67 180.83 M1847.99 176.987 L1859.94 176.987 Q1865.28 176.987 1868.18 179.209 Q1871.07 181.432 1871.07 185.529 Q1871.07 188.7 1869.59 190.575 Q1868.11 192.45 1865.24 192.913 Q1868.69 193.654 1870.59 196.015 Q1872.51 198.353 1872.51 201.871 Q1872.51 206.501 1869.36 209.024 Q1866.21 211.547 1860.4 211.547 L1847.99 211.547 L1847.99 176.987 Z" fill="#000000" fill-rule="evenodd" fill-opacity="1" /><path clip-path="url(#clip640)" d="M1885.19 180.83 L1885.19 207.705 L1890.84 207.705 Q1897.99 207.705 1901.3 204.464 Q1904.64 201.223 1904.64 194.232 Q1904.64 187.288 1901.3 184.07 Q1897.99 180.83 1890.84 180.83 L1885.19 180.83 M1880.52 176.987 L1890.12 176.987 Q1900.17 176.987 1904.87 181.177 Q1909.57 185.344 1909.57 194.232 Q1909.57 203.168 1904.84 207.357 Q1900.12 211.547 1890.12 211.547 L1880.52 211.547 L1880.52 176.987 Z" fill="#000000" fill-rule="evenodd" fill-opacity="1" /><path clip-path="url(#clip640)" d="M1917.02 176.987 L1936.88 176.987 L1936.88 180.922 L1921.7 180.922 L1921.7 191.107 L1935.4 191.107 L1935.4 195.043 L1921.7 195.043 L1921.7 211.547 L1917.02 211.547 L1917.02 176.987 Z" fill="#000000" fill-rule="evenodd" fill-opacity="1" /><polyline clip-path="url(#clip640)" style="stroke:#3da44d; stroke-linecap:butt; stroke-linejoin:round; stroke-width:4; stroke-opacity:1; fill:none" points="
  1667.61,246.107 1798.85,246.107 
  "/>
<line clip-path="url(#clip640)" x1="1733.23" y1="246.107" x2="1733.23" y2="220.507" style="stroke:#3da44d; stroke-width:4.9152; stroke-opacity:1"/>
<line clip-path="url(#clip640)" x1="1733.23" y1="246.107" x2="1707.63" y2="246.107" style="stroke:#3da44d; stroke-width:4.9152; stroke-opacity:1"/>
<line clip-path="url(#clip640)" x1="1733.23" y1="246.107" x2="1733.23" y2="271.707" style="stroke:#3da44d; stroke-width:4.9152; stroke-opacity:1"/>
<line clip-path="url(#clip640)" x1="1733.23" y1="246.107" x2="1758.83" y2="246.107" style="stroke:#3da44d; stroke-width:4.9152; stroke-opacity:1"/>
<path clip-path="url(#clip640)" d="M1836.74 231.998 Q1831.65 231.998 1828.64 235.795 Q1825.66 239.591 1825.66 246.142 Q1825.66 252.67 1828.64 256.466 Q1831.65 260.262 1836.74 260.262 Q1841.84 260.262 1844.8 256.466 Q1847.78 252.67 1847.78 246.142 Q1847.78 239.591 1844.8 235.795 Q1841.84 231.998 1836.74 231.998 M1843.29 262.762 L1849.45 269.498 L1843.8 269.498 L1838.69 263.966 Q1837.92 264.012 1837.51 264.035 Q1837.11 264.058 1836.74 264.058 Q1829.45 264.058 1825.08 259.197 Q1820.72 254.313 1820.72 246.142 Q1820.72 237.948 1825.08 233.086 Q1829.45 228.202 1836.74 228.202 Q1844.01 228.202 1848.36 233.086 Q1852.72 237.948 1852.72 246.142 Q1852.72 252.16 1850.28 256.443 Q1847.88 260.725 1843.29 262.762 Z" fill="#000000" fill-rule="evenodd" fill-opacity="1" /><path clip-path="url(#clip640)" d="M1860.03 228.827 L1866.33 228.827 L1881.65 257.739 L1881.65 228.827 L1886.19 228.827 L1886.19 263.387 L1879.89 263.387 L1864.57 234.475 L1864.57 263.387 L1860.03 263.387 L1860.03 228.827 Z" fill="#000000" fill-rule="evenodd" fill-opacity="1" /><path clip-path="url(#clip640)" d="M1900.17 232.67 L1900.17 259.545 L1905.82 259.545 Q1912.97 259.545 1916.28 256.304 Q1919.61 253.063 1919.61 246.072 Q1919.61 239.128 1916.28 235.91 Q1912.97 232.67 1905.82 232.67 L1900.17 232.67 M1895.49 228.827 L1905.1 228.827 Q1915.15 228.827 1919.84 233.017 Q1924.54 237.184 1924.54 246.072 Q1924.54 255.008 1919.82 259.197 Q1915.1 263.387 1905.1 263.387 L1895.49 263.387 L1895.49 228.827 Z" fill="#000000" fill-rule="evenodd" fill-opacity="1" /><path clip-path="url(#clip640)" d="M1932 228.827 L1951.86 228.827 L1951.86 232.762 L1936.67 232.762 L1936.67 242.947 L1950.38 242.947 L1950.38 246.883 L1936.67 246.883 L1936.67 263.387 L1932 263.387 L1932 228.827 Z" fill="#000000" fill-rule="evenodd" fill-opacity="1" /><polyline clip-path="url(#clip640)" style="stroke:#c271d2; stroke-linecap:butt; stroke-linejoin:round; stroke-width:4; stroke-opacity:1; fill:none" points="
  1667.61,297.947 1798.85,297.947 
  "/>
<path clip-path="url(#clip640)" d="M1733.23 272.347 L1707.63 297.947 L1733.23 323.547 L1758.83 297.947 L1733.23 272.347 Z" fill="#c271d2" fill-rule="evenodd" fill-opacity="1" stroke="#000000" stroke-opacity="1" stroke-width="4.9152"/>
<path clip-path="url(#clip640)" d="M1820.72 280.667 L1849.96 280.667 L1849.96 284.602 L1837.69 284.602 L1837.69 315.227 L1832.99 315.227 L1832.99 284.602 L1820.72 284.602 L1820.72 280.667 Z" fill="#000000" fill-rule="evenodd" fill-opacity="1" /><path clip-path="url(#clip640)" d="M1870.86 299.024 Q1872.37 299.533 1873.78 301.199 Q1875.21 302.866 1876.65 305.783 L1881.4 315.227 L1876.37 315.227 L1871.95 306.361 Q1870.24 302.889 1868.62 301.755 Q1867.02 300.621 1864.24 300.621 L1859.15 300.621 L1859.15 315.227 L1854.47 315.227 L1854.47 280.667 L1865.03 280.667 Q1870.96 280.667 1873.87 283.144 Q1876.79 285.621 1876.79 290.621 Q1876.79 293.885 1875.26 296.037 Q1873.76 298.19 1870.86 299.024 M1859.15 284.51 L1859.15 296.778 L1865.03 296.778 Q1868.41 296.778 1870.12 295.227 Q1871.86 293.653 1871.86 290.621 Q1871.86 287.588 1870.12 286.061 Q1868.41 284.51 1865.03 284.51 L1859.15 284.51 Z" fill="#000000" fill-rule="evenodd" fill-opacity="1" /><path clip-path="url(#clip640)" d="M1892.09 298.723 L1892.09 311.385 L1899.59 311.385 Q1903.36 311.385 1905.17 309.834 Q1907 308.26 1907 305.042 Q1907 301.801 1905.17 300.274 Q1903.36 298.723 1899.59 298.723 L1892.09 298.723 M1892.09 284.51 L1892.09 294.926 L1899.01 294.926 Q1902.44 294.926 1904.1 293.653 Q1905.79 292.357 1905.79 289.718 Q1905.79 287.102 1904.1 285.806 Q1902.44 284.51 1899.01 284.51 L1892.09 284.51 M1887.41 280.667 L1899.36 280.667 Q1904.71 280.667 1907.6 282.889 Q1910.49 285.112 1910.49 289.209 Q1910.49 292.38 1909.01 294.255 Q1907.53 296.13 1904.66 296.593 Q1908.11 297.334 1910.01 299.695 Q1911.93 302.033 1911.93 305.551 Q1911.93 310.181 1908.78 312.704 Q1905.63 315.227 1899.82 315.227 L1887.41 315.227 L1887.41 280.667 Z" fill="#000000" fill-rule="evenodd" fill-opacity="1" /><path clip-path="url(#clip640)" d="M1924.61 284.51 L1924.61 311.385 L1930.26 311.385 Q1937.41 311.385 1940.72 308.144 Q1944.06 304.903 1944.06 297.912 Q1944.06 290.968 1940.72 287.75 Q1937.41 284.51 1930.26 284.51 L1924.61 284.51 M1919.94 280.667 L1929.54 280.667 Q1939.59 280.667 1944.29 284.857 Q1948.99 289.024 1948.99 297.912 Q1948.99 306.848 1944.27 311.037 Q1939.54 315.227 1929.54 315.227 L1919.94 315.227 L1919.94 280.667 Z" fill="#000000" fill-rule="evenodd" fill-opacity="1" /><path clip-path="url(#clip640)" d="M1956.44 280.667 L1976.3 280.667 L1976.3 284.602 L1961.12 284.602 L1961.12 294.787 L1974.82 294.787 L1974.82 298.723 L1961.12 298.723 L1961.12 315.227 L1956.44 315.227 L1956.44 280.667 Z" fill="#000000" fill-rule="evenodd" fill-opacity="1" /><path clip-path="url(#clip640)" d="M1988.15 311.292 L2004.47 311.292 L2004.47 315.227 L1982.53 315.227 L1982.53 311.292 Q1985.19 308.537 1989.77 303.908 Q1994.38 299.255 1995.56 297.912 Q1997.81 295.389 1998.69 293.653 Q1999.59 291.894 1999.59 290.204 Q1999.59 287.45 1997.64 285.713 Q1995.72 283.977 1992.62 283.977 Q1990.42 283.977 1987.97 284.741 Q1985.54 285.505 1982.76 287.056 L1982.76 282.334 Q1985.58 281.2 1988.04 280.621 Q1990.49 280.042 1992.53 280.042 Q1997.9 280.042 2001.09 282.727 Q2004.29 285.413 2004.29 289.903 Q2004.29 292.033 2003.48 293.954 Q2002.69 295.852 2000.58 298.445 Q2000.01 299.116 1996.9 302.334 Q1993.8 305.528 1988.15 311.292 Z" fill="#000000" fill-rule="evenodd" fill-opacity="1" /><polyline clip-path="url(#clip640)" style="stroke:#ac8d18; stroke-linecap:butt; stroke-linejoin:round; stroke-width:4; stroke-opacity:1; fill:none" points="
  1667.61,349.787 1798.85,349.787 
  "/>
<path clip-path="url(#clip640)" d="M1758.83 324.187 L1707.63 324.187 L1733.23 375.387 L1758.83 324.187 Z" fill="#ac8d18" fill-rule="evenodd" fill-opacity="1" stroke="#000000" stroke-opacity="1" stroke-width="4.9152"/>
<path clip-path="url(#clip640)" d="M1848.59 335.169 L1848.59 340.1 Q1846.23 337.901 1843.55 336.813 Q1840.89 335.725 1837.88 335.725 Q1831.95 335.725 1828.8 339.359 Q1825.66 342.97 1825.66 349.822 Q1825.66 356.651 1828.8 360.285 Q1831.95 363.896 1837.88 363.896 Q1840.89 363.896 1843.55 362.808 Q1846.23 361.72 1848.59 359.521 L1848.59 364.405 Q1846.14 366.072 1843.39 366.905 Q1840.65 367.738 1837.6 367.738 Q1829.75 367.738 1825.24 362.947 Q1820.72 358.132 1820.72 349.822 Q1820.72 341.489 1825.24 336.697 Q1829.75 331.882 1837.6 331.882 Q1840.7 331.882 1843.43 332.716 Q1846.19 333.526 1848.59 335.169 Z" fill="#000000" fill-rule="evenodd" fill-opacity="1" /><path clip-path="url(#clip640)" d="M1864.73 367.067 L1851.53 332.507 L1856.42 332.507 L1867.37 361.604 L1878.34 332.507 L1883.2 332.507 L1870.03 367.067 L1864.73 367.067 Z" fill="#000000" fill-rule="evenodd" fill-opacity="1" /><path clip-path="url(#clip640)" d="M1901.44 335.678 Q1896.35 335.678 1893.34 339.475 Q1890.35 343.271 1890.35 349.822 Q1890.35 356.35 1893.34 360.146 Q1896.35 363.942 1901.44 363.942 Q1906.53 363.942 1909.5 360.146 Q1912.48 356.35 1912.48 349.822 Q1912.48 343.271 1909.5 339.475 Q1906.53 335.678 1901.44 335.678 M1901.44 331.882 Q1908.71 331.882 1913.06 336.766 Q1917.41 341.628 1917.41 349.822 Q1917.41 357.993 1913.06 362.877 Q1908.71 367.738 1901.44 367.738 Q1894.15 367.738 1889.78 362.877 Q1885.42 358.016 1885.42 349.822 Q1885.42 341.628 1889.78 336.766 Q1894.15 331.882 1901.44 331.882 Z" fill="#000000" fill-rule="evenodd" fill-opacity="1" /><path clip-path="url(#clip640)" d="M1929.4 336.35 L1929.4 363.225 L1935.05 363.225 Q1942.21 363.225 1945.52 359.984 Q1948.85 356.743 1948.85 349.752 Q1948.85 342.808 1945.52 339.59 Q1942.21 336.35 1935.05 336.35 L1929.4 336.35 M1924.73 332.507 L1934.34 332.507 Q1944.38 332.507 1949.08 336.697 Q1953.78 340.864 1953.78 349.752 Q1953.78 358.688 1949.06 362.877 Q1944.33 367.067 1934.34 367.067 L1924.73 367.067 L1924.73 332.507 Z" fill="#000000" fill-rule="evenodd" fill-opacity="1" /><path clip-path="url(#clip640)" d="M1961.23 332.507 L1983.08 332.507 L1983.08 336.442 L1965.91 336.442 L1965.91 346.674 L1982.37 346.674 L1982.37 350.609 L1965.91 350.609 L1965.91 363.132 L1983.5 363.132 L1983.5 367.067 L1961.23 367.067 L1961.23 332.507 Z" fill="#000000" fill-rule="evenodd" fill-opacity="1" /><path clip-path="url(#clip640)" d="M2010.7 374.938 L2010.7 378.248 L1986.07 378.248 L1986.07 374.938 L2010.7 374.938 Z" fill="#000000" fill-rule="evenodd" fill-opacity="1" /><path clip-path="url(#clip640)" d="M2019.57 350.563 L2019.57 363.225 L2027.07 363.225 Q2030.84 363.225 2032.64 361.674 Q2034.47 360.1 2034.47 356.882 Q2034.47 353.641 2032.64 352.114 Q2030.84 350.563 2027.07 350.563 L2019.57 350.563 M2019.57 336.35 L2019.57 346.766 L2026.49 346.766 Q2029.91 346.766 2031.58 345.493 Q2033.27 344.197 2033.27 341.558 Q2033.27 338.942 2031.58 337.646 Q2029.91 336.35 2026.49 336.35 L2019.57 336.35 M2014.89 332.507 L2026.83 332.507 Q2032.18 332.507 2035.08 334.729 Q2037.97 336.952 2037.97 341.049 Q2037.97 344.22 2036.49 346.095 Q2035.01 347.97 2032.14 348.433 Q2035.58 349.174 2037.48 351.535 Q2039.4 353.873 2039.4 357.391 Q2039.4 362.021 2036.26 364.544 Q2033.11 367.067 2027.3 367.067 L2014.89 367.067 L2014.89 332.507 Z" fill="#000000" fill-rule="evenodd" fill-opacity="1" /><path clip-path="url(#clip640)" d="M2052.09 336.35 L2052.09 363.225 L2057.74 363.225 Q2064.89 363.225 2068.2 359.984 Q2071.53 356.743 2071.53 349.752 Q2071.53 342.808 2068.2 339.59 Q2064.89 336.35 2057.74 336.35 L2052.09 336.35 M2047.41 332.507 L2057.02 332.507 Q2067.07 332.507 2071.76 336.697 Q2076.46 340.864 2076.46 349.752 Q2076.46 358.688 2071.74 362.877 Q2067.02 367.067 2057.02 367.067 L2047.41 367.067 L2047.41 332.507 Z" fill="#000000" fill-rule="evenodd" fill-opacity="1" /><path clip-path="url(#clip640)" d="M2083.92 332.507 L2103.78 332.507 L2103.78 336.442 L2088.59 336.442 L2088.59 346.627 L2102.3 346.627 L2102.3 350.563 L2088.59 350.563 L2088.59 367.067 L2083.92 367.067 L2083.92 332.507 Z" fill="#000000" fill-rule="evenodd" fill-opacity="1" /><polyline clip-path="url(#clip640)" style="stroke:#00a9ad; stroke-linecap:butt; stroke-linejoin:round; stroke-width:4; stroke-opacity:1; fill:none" points="
  1667.61,401.627 1798.85,401.627 
  "/>
<path clip-path="url(#clip640)" d="M1733.23 376.027 L1713.21 385.678 L1708.27 407.336 L1722.12 424.693 L1744.34 424.693 L1758.19 407.336 L1753.25 385.678 Z" fill="#00a9ad" fill-rule="evenodd" fill-opacity="1" stroke="#000000" stroke-opacity="1" stroke-width="4.9152"/>
<path clip-path="url(#clip640)" d="M1835.91 396.963 Q1835.19 396.546 1834.34 396.361 Q1833.5 396.153 1832.48 396.153 Q1828.87 396.153 1826.93 398.514 Q1825.01 400.852 1825.01 405.25 L1825.01 418.907 L1820.72 418.907 L1820.72 392.981 L1825.01 392.981 L1825.01 397.009 Q1826.35 394.648 1828.5 393.514 Q1830.66 392.356 1833.73 392.356 Q1834.17 392.356 1834.71 392.426 Q1835.24 392.472 1835.89 392.588 L1835.91 396.963 Z" fill="#000000" fill-rule="evenodd" fill-opacity="1" /><path clip-path="url(#clip640)" d="M1849.38 395.967 Q1845.96 395.967 1843.97 398.653 Q1841.97 401.315 1841.97 405.967 Q1841.97 410.62 1843.94 413.305 Q1845.93 415.967 1849.38 415.967 Q1852.78 415.967 1854.78 413.282 Q1856.77 410.597 1856.77 405.967 Q1856.77 401.361 1854.78 398.676 Q1852.78 395.967 1849.38 395.967 M1849.38 392.356 Q1854.94 392.356 1858.11 395.967 Q1861.28 399.579 1861.28 405.967 Q1861.28 412.333 1858.11 415.967 Q1854.94 419.578 1849.38 419.578 Q1843.8 419.578 1840.63 415.967 Q1837.48 412.333 1837.48 405.967 Q1837.48 399.579 1840.63 395.967 Q1843.8 392.356 1849.38 392.356 Z" fill="#000000" fill-rule="evenodd" fill-opacity="1" /><path clip-path="url(#clip640)" d="M1885.4 396.917 L1885.4 382.889 L1889.66 382.889 L1889.66 418.907 L1885.4 418.907 L1885.4 415.018 Q1884.06 417.333 1882 418.467 Q1879.96 419.578 1877.09 419.578 Q1872.39 419.578 1869.43 415.828 Q1866.49 412.079 1866.49 405.967 Q1866.49 399.856 1869.43 396.106 Q1872.39 392.356 1877.09 392.356 Q1879.96 392.356 1882 393.491 Q1884.06 394.602 1885.4 396.917 M1870.89 405.967 Q1870.89 410.666 1872.81 413.352 Q1874.75 416.014 1878.13 416.014 Q1881.51 416.014 1883.46 413.352 Q1885.4 410.666 1885.4 405.967 Q1885.4 401.268 1883.46 398.606 Q1881.51 395.921 1878.13 395.921 Q1874.75 395.921 1872.81 398.606 Q1870.89 401.268 1870.89 405.967 Z" fill="#000000" fill-rule="evenodd" fill-opacity="1" /><path clip-path="url(#clip640)" d="M1910.21 405.875 Q1905.05 405.875 1903.06 407.055 Q1901.07 408.236 1901.07 411.083 Q1901.07 413.352 1902.55 414.694 Q1904.06 416.014 1906.63 416.014 Q1910.17 416.014 1912.3 413.514 Q1914.45 410.991 1914.45 406.824 L1914.45 405.875 L1910.21 405.875 M1918.71 404.116 L1918.71 418.907 L1914.45 418.907 L1914.45 414.972 Q1912.99 417.333 1910.82 418.467 Q1908.64 419.578 1905.49 419.578 Q1901.51 419.578 1899.15 417.356 Q1896.81 415.111 1896.81 411.361 Q1896.81 406.986 1899.73 404.764 Q1902.67 402.542 1908.48 402.542 L1914.45 402.542 L1914.45 402.125 Q1914.45 399.185 1912.51 397.588 Q1910.59 395.967 1907.09 395.967 Q1904.87 395.967 1902.76 396.5 Q1900.65 397.032 1898.71 398.097 L1898.71 394.162 Q1901.05 393.259 1903.25 392.819 Q1905.45 392.356 1907.53 392.356 Q1913.15 392.356 1915.93 395.273 Q1918.71 398.19 1918.71 404.116 Z" fill="#000000" fill-rule="evenodd" fill-opacity="1" /><path clip-path="url(#clip640)" d="M1944.01 393.745 L1944.01 397.773 Q1942.21 396.847 1940.26 396.384 Q1938.32 395.921 1936.23 395.921 Q1933.06 395.921 1931.46 396.893 Q1929.89 397.866 1929.89 399.81 Q1929.89 401.292 1931.02 402.148 Q1932.16 402.981 1935.59 403.745 L1937.04 404.069 Q1941.58 405.042 1943.48 406.824 Q1945.4 408.583 1945.4 411.754 Q1945.4 415.366 1942.53 417.472 Q1939.68 419.578 1934.68 419.578 Q1932.6 419.578 1930.33 419.162 Q1928.09 418.768 1925.59 417.958 L1925.59 413.56 Q1927.95 414.787 1930.24 415.412 Q1932.53 416.014 1934.77 416.014 Q1937.78 416.014 1939.4 414.995 Q1941.02 413.954 1941.02 412.079 Q1941.02 410.342 1939.84 409.416 Q1938.69 408.491 1934.73 407.634 L1933.25 407.287 Q1929.29 406.454 1927.53 404.741 Q1925.77 403.004 1925.77 399.995 Q1925.77 396.338 1928.36 394.347 Q1930.96 392.356 1935.72 392.356 Q1938.08 392.356 1940.17 392.704 Q1942.25 393.051 1944.01 393.745 Z" fill="#000000" fill-rule="evenodd" fill-opacity="1" /><polyline clip-path="url(#clip640)" style="stroke:#ed5d92; stroke-linecap:butt; stroke-linejoin:round; stroke-width:4; stroke-opacity:1; fill:none" points="
  1667.61,453.467 1798.85,453.467 
  "/>
<path clip-path="url(#clip640)" d="M1733.23 479.067 L1711.06 466.267 L1711.06 440.667 L1733.23 427.867 L1755.4 440.667 L1755.4 466.267 Z" fill="#ed5d92" fill-rule="evenodd" fill-opacity="1" stroke="#000000" stroke-opacity="1" stroke-width="4.9152"/>
<path clip-path="url(#clip640)" d="M1835.91 448.803 Q1835.19 448.386 1834.34 448.201 Q1833.5 447.993 1832.48 447.993 Q1828.87 447.993 1826.93 450.354 Q1825.01 452.692 1825.01 457.09 L1825.01 470.747 L1820.72 470.747 L1820.72 444.821 L1825.01 444.821 L1825.01 448.849 Q1826.35 446.488 1828.5 445.354 Q1830.66 444.196 1833.73 444.196 Q1834.17 444.196 1834.71 444.266 Q1835.24 444.312 1835.89 444.428 L1835.91 448.803 Z" fill="#000000" fill-rule="evenodd" fill-opacity="1" /><path clip-path="url(#clip640)" d="M1852.16 457.715 Q1847 457.715 1845.01 458.895 Q1843.02 460.076 1843.02 462.923 Q1843.02 465.192 1844.5 466.534 Q1846 467.854 1848.57 467.854 Q1852.11 467.854 1854.24 465.354 Q1856.4 462.831 1856.4 458.664 L1856.4 457.715 L1852.16 457.715 M1860.65 455.956 L1860.65 470.747 L1856.4 470.747 L1856.4 466.812 Q1854.94 469.173 1852.76 470.307 Q1850.59 471.418 1847.44 471.418 Q1843.46 471.418 1841.09 469.196 Q1838.76 466.951 1838.76 463.201 Q1838.76 458.826 1841.67 456.604 Q1844.61 454.382 1850.42 454.382 L1856.4 454.382 L1856.4 453.965 Q1856.4 451.025 1854.45 449.428 Q1852.53 447.807 1849.03 447.807 Q1846.81 447.807 1844.71 448.34 Q1842.6 448.872 1840.65 449.937 L1840.65 446.002 Q1842.99 445.099 1845.19 444.659 Q1847.39 444.196 1849.47 444.196 Q1855.1 444.196 1857.88 447.113 Q1860.65 450.03 1860.65 455.956 Z" fill="#000000" fill-rule="evenodd" fill-opacity="1" /><path clip-path="url(#clip640)" d="M1886.49 448.757 L1886.49 434.729 L1890.75 434.729 L1890.75 470.747 L1886.49 470.747 L1886.49 466.858 Q1885.15 469.173 1883.09 470.307 Q1881.05 471.418 1878.18 471.418 Q1873.48 471.418 1870.52 467.668 Q1867.58 463.919 1867.58 457.807 Q1867.58 451.696 1870.52 447.946 Q1873.48 444.196 1878.18 444.196 Q1881.05 444.196 1883.09 445.331 Q1885.15 446.442 1886.49 448.757 M1871.97 457.807 Q1871.97 462.506 1873.9 465.192 Q1875.84 467.854 1879.22 467.854 Q1882.6 467.854 1884.54 465.192 Q1886.49 462.506 1886.49 457.807 Q1886.49 453.108 1884.54 450.446 Q1882.6 447.761 1879.22 447.761 Q1875.84 447.761 1873.9 450.446 Q1871.97 453.108 1871.97 457.807 Z" fill="#000000" fill-rule="evenodd" fill-opacity="1" /><path clip-path="url(#clip640)" d="M1911.3 457.715 Q1906.14 457.715 1904.15 458.895 Q1902.16 460.076 1902.16 462.923 Q1902.16 465.192 1903.64 466.534 Q1905.15 467.854 1907.71 467.854 Q1911.26 467.854 1913.39 465.354 Q1915.54 462.831 1915.54 458.664 L1915.54 457.715 L1911.3 457.715 M1919.8 455.956 L1919.8 470.747 L1915.54 470.747 L1915.54 466.812 Q1914.08 469.173 1911.9 470.307 Q1909.73 471.418 1906.58 471.418 Q1902.6 471.418 1900.24 469.196 Q1897.9 466.951 1897.9 463.201 Q1897.9 458.826 1900.82 456.604 Q1903.76 454.382 1909.57 454.382 L1915.54 454.382 L1915.54 453.965 Q1915.54 451.025 1913.59 449.428 Q1911.67 447.807 1908.18 447.807 Q1905.96 447.807 1903.85 448.34 Q1901.74 448.872 1899.8 449.937 L1899.8 446.002 Q1902.14 445.099 1904.34 444.659 Q1906.53 444.196 1908.62 444.196 Q1914.24 444.196 1917.02 447.113 Q1919.8 450.03 1919.8 455.956 Z" fill="#000000" fill-rule="evenodd" fill-opacity="1" /><path clip-path="url(#clip640)" d="M1928.13 460.516 L1928.13 444.821 L1932.39 444.821 L1932.39 460.354 Q1932.39 464.034 1933.83 465.886 Q1935.26 467.715 1938.13 467.715 Q1941.58 467.715 1943.57 465.516 Q1945.58 463.317 1945.58 459.52 L1945.58 444.821 L1949.84 444.821 L1949.84 470.747 L1945.58 470.747 L1945.58 466.766 Q1944.03 469.127 1941.97 470.284 Q1939.94 471.418 1937.23 471.418 Q1932.76 471.418 1930.45 468.641 Q1928.13 465.863 1928.13 460.516 M1938.85 444.196 L1938.85 444.196 Z" fill="#000000" fill-rule="evenodd" fill-opacity="1" /><polyline clip-path="url(#clip640)" style="stroke:#c68125; stroke-linecap:butt; stroke-linejoin:round; stroke-width:4; stroke-opacity:1; fill:none" points="
  1667.61,505.307 1798.85,505.307 
  "/>
<line clip-path="url(#clip640)" x1="1758.83" y1="505.307" x2="1707.63" y2="505.307" style="stroke:#c68125; stroke-width:4.9152; stroke-opacity:1"/>
<path clip-path="url(#clip640)" d="M1820.72 486.569 L1824.98 486.569 L1824.98 522.587 L1820.72 522.587 L1820.72 486.569 Z" fill="#000000" fill-rule="evenodd" fill-opacity="1" /><path clip-path="url(#clip640)" d="M1850.42 497.425 L1850.42 501.453 Q1848.62 500.527 1846.67 500.064 Q1844.73 499.601 1842.65 499.601 Q1839.47 499.601 1837.88 500.573 Q1836.3 501.546 1836.3 503.49 Q1836.3 504.972 1837.44 505.828 Q1838.57 506.661 1842 507.425 L1843.46 507.749 Q1847.99 508.722 1849.89 510.504 Q1851.81 512.263 1851.81 515.434 Q1851.81 519.046 1848.94 521.152 Q1846.09 523.258 1841.09 523.258 Q1839.01 523.258 1836.74 522.842 Q1834.5 522.448 1832 521.638 L1832 517.24 Q1834.36 518.467 1836.65 519.092 Q1838.94 519.694 1841.19 519.694 Q1844.2 519.694 1845.82 518.675 Q1847.44 517.634 1847.44 515.759 Q1847.44 514.022 1846.26 513.096 Q1845.1 512.171 1841.14 511.314 L1839.66 510.967 Q1835.7 510.134 1833.94 508.421 Q1832.18 506.684 1832.18 503.675 Q1832.18 500.018 1834.78 498.027 Q1837.37 496.036 1842.14 496.036 Q1844.5 496.036 1846.58 496.384 Q1848.66 496.731 1850.42 497.425 Z" fill="#000000" fill-rule="evenodd" fill-opacity="1" /><path clip-path="url(#clip640)" d="M1868.64 499.647 Q1865.22 499.647 1863.22 502.333 Q1861.23 504.995 1861.23 509.647 Q1861.23 514.3 1863.2 516.985 Q1865.19 519.647 1868.64 519.647 Q1872.04 519.647 1874.03 516.962 Q1876.03 514.277 1876.03 509.647 Q1876.03 505.041 1874.03 502.356 Q1872.04 499.647 1868.64 499.647 M1868.64 496.036 Q1874.2 496.036 1877.37 499.647 Q1880.54 503.259 1880.54 509.647 Q1880.54 516.013 1877.37 519.647 Q1874.2 523.258 1868.64 523.258 Q1863.06 523.258 1859.89 519.647 Q1856.74 516.013 1856.74 509.647 Q1856.74 503.259 1859.89 499.647 Q1863.06 496.036 1868.64 496.036 Z" fill="#000000" fill-rule="evenodd" fill-opacity="1" /><path clip-path="url(#clip640)" d="M1904.66 500.597 L1904.66 486.569 L1908.92 486.569 L1908.92 522.587 L1904.66 522.587 L1904.66 518.698 Q1903.32 521.013 1901.26 522.147 Q1899.22 523.258 1896.35 523.258 Q1891.65 523.258 1888.69 519.508 Q1885.75 515.759 1885.75 509.647 Q1885.75 503.536 1888.69 499.786 Q1891.65 496.036 1896.35 496.036 Q1899.22 496.036 1901.26 497.171 Q1903.32 498.282 1904.66 500.597 M1890.15 509.647 Q1890.15 514.346 1892.07 517.032 Q1894.01 519.694 1897.39 519.694 Q1900.77 519.694 1902.71 517.032 Q1904.66 514.346 1904.66 509.647 Q1904.66 504.948 1902.71 502.286 Q1900.77 499.601 1897.39 499.601 Q1894.01 499.601 1892.07 502.286 Q1890.15 504.948 1890.15 509.647 Z" fill="#000000" fill-rule="evenodd" fill-opacity="1" /><path clip-path="url(#clip640)" d="M1929.47 509.555 Q1924.31 509.555 1922.32 510.735 Q1920.33 511.916 1920.33 514.763 Q1920.33 517.032 1921.81 518.374 Q1923.32 519.694 1925.89 519.694 Q1929.43 519.694 1931.56 517.194 Q1933.71 514.671 1933.71 510.504 L1933.71 509.555 L1929.47 509.555 M1937.97 507.796 L1937.97 522.587 L1933.71 522.587 L1933.71 518.652 Q1932.25 521.013 1930.08 522.147 Q1927.9 523.258 1924.75 523.258 Q1920.77 523.258 1918.41 521.036 Q1916.07 518.791 1916.07 515.041 Q1916.07 510.666 1918.99 508.444 Q1921.93 506.222 1927.74 506.222 L1933.71 506.222 L1933.71 505.805 Q1933.71 502.865 1931.77 501.268 Q1929.84 499.647 1926.35 499.647 Q1924.13 499.647 1922.02 500.18 Q1919.91 500.712 1917.97 501.777 L1917.97 497.842 Q1920.31 496.939 1922.51 496.499 Q1924.71 496.036 1926.79 496.036 Q1932.41 496.036 1935.19 498.953 Q1937.97 501.87 1937.97 507.796 Z" fill="#000000" fill-rule="evenodd" fill-opacity="1" /><polyline clip-path="url(#clip640)" style="stroke:#00a98d; stroke-linecap:butt; stroke-linejoin:round; stroke-width:4; stroke-opacity:1; fill:none" points="
  1667.61,557.147 1798.85,557.147 
  "/>
<path clip-path="url(#clip640)" d="M1712.75 557.147 L1743.47 575.067 L1743.47 539.227 L1712.75 557.147 Z" fill="#00a98d" fill-rule="evenodd" fill-opacity="1" stroke="#000000" stroke-opacity="1" stroke-width="4.9152"/>
<path clip-path="url(#clip640)" d="M1837.11 558.224 Q1838.62 558.733 1840.03 560.399 Q1841.47 562.066 1842.9 564.983 L1847.65 574.427 L1842.62 574.427 L1838.2 565.561 Q1836.49 562.089 1834.87 560.955 Q1833.27 559.821 1830.49 559.821 L1825.4 559.821 L1825.4 574.427 L1820.72 574.427 L1820.72 539.867 L1831.28 539.867 Q1837.21 539.867 1840.12 542.344 Q1843.04 544.821 1843.04 549.821 Q1843.04 553.085 1841.51 555.237 Q1840.01 557.39 1837.11 558.224 M1825.4 543.71 L1825.4 555.978 L1831.28 555.978 Q1834.66 555.978 1836.37 554.427 Q1838.11 552.853 1838.11 549.821 Q1838.11 546.788 1836.37 545.261 Q1834.66 543.71 1831.28 543.71 L1825.4 543.71 Z" fill="#000000" fill-rule="evenodd" fill-opacity="1" /><path clip-path="url(#clip640)" d="M1864.22 561.395 Q1859.06 561.395 1857.07 562.575 Q1855.08 563.756 1855.08 566.603 Q1855.08 568.872 1856.56 570.214 Q1858.06 571.534 1860.63 571.534 Q1864.17 571.534 1866.3 569.034 Q1868.46 566.511 1868.46 562.344 L1868.46 561.395 L1864.22 561.395 M1872.71 559.636 L1872.71 574.427 L1868.46 574.427 L1868.46 570.492 Q1867 572.853 1864.82 573.987 Q1862.65 575.098 1859.5 575.098 Q1855.52 575.098 1853.15 572.876 Q1850.82 570.631 1850.82 566.881 Q1850.82 562.506 1853.73 560.284 Q1856.67 558.062 1862.48 558.062 L1868.46 558.062 L1868.46 557.645 Q1868.46 554.705 1866.51 553.108 Q1864.59 551.487 1861.09 551.487 Q1858.87 551.487 1856.77 552.02 Q1854.66 552.552 1852.72 553.617 L1852.72 549.682 Q1855.05 548.779 1857.25 548.339 Q1859.45 547.876 1861.53 547.876 Q1867.16 547.876 1869.94 550.793 Q1872.71 553.71 1872.71 559.636 Z" fill="#000000" fill-rule="evenodd" fill-opacity="1" /><path clip-path="url(#clip640)" d="M1898.55 552.437 L1898.55 538.409 L1902.81 538.409 L1902.81 574.427 L1898.55 574.427 L1898.55 570.538 Q1897.21 572.853 1895.15 573.987 Q1893.11 575.098 1890.24 575.098 Q1885.54 575.098 1882.58 571.348 Q1879.64 567.599 1879.64 561.487 Q1879.64 555.376 1882.58 551.626 Q1885.54 547.876 1890.24 547.876 Q1893.11 547.876 1895.15 549.011 Q1897.21 550.122 1898.55 552.437 M1884.03 561.487 Q1884.03 566.186 1885.96 568.872 Q1887.9 571.534 1891.28 571.534 Q1894.66 571.534 1896.6 568.872 Q1898.55 566.186 1898.55 561.487 Q1898.55 556.788 1896.6 554.126 Q1894.66 551.441 1891.28 551.441 Q1887.9 551.441 1885.96 554.126 Q1884.03 556.788 1884.03 561.487 Z" fill="#000000" fill-rule="evenodd" fill-opacity="1" /><path clip-path="url(#clip640)" d="M1923.36 561.395 Q1918.2 561.395 1916.21 562.575 Q1914.22 563.756 1914.22 566.603 Q1914.22 568.872 1915.7 570.214 Q1917.21 571.534 1919.77 571.534 Q1923.32 571.534 1925.45 569.034 Q1927.6 566.511 1927.6 562.344 L1927.6 561.395 L1923.36 561.395 M1931.86 559.636 L1931.86 574.427 L1927.6 574.427 L1927.6 570.492 Q1926.14 572.853 1923.96 573.987 Q1921.79 575.098 1918.64 575.098 Q1914.66 575.098 1912.3 572.876 Q1909.96 570.631 1909.96 566.881 Q1909.96 562.506 1912.88 560.284 Q1915.82 558.062 1921.63 558.062 L1927.6 558.062 L1927.6 557.645 Q1927.6 554.705 1925.65 553.108 Q1923.73 551.487 1920.24 551.487 Q1918.02 551.487 1915.91 552.02 Q1913.8 552.552 1911.86 553.617 L1911.86 549.682 Q1914.2 548.779 1916.4 548.339 Q1918.59 547.876 1920.68 547.876 Q1926.3 547.876 1929.08 550.793 Q1931.86 553.71 1931.86 559.636 Z" fill="#000000" fill-rule="evenodd" fill-opacity="1" /><path clip-path="url(#clip640)" d="M1940.19 564.196 L1940.19 548.501 L1944.45 548.501 L1944.45 564.034 Q1944.45 567.714 1945.89 569.566 Q1947.32 571.395 1950.19 571.395 Q1953.64 571.395 1955.63 569.196 Q1957.65 566.997 1957.65 563.2 L1957.65 548.501 L1961.9 548.501 L1961.9 574.427 L1957.65 574.427 L1957.65 570.446 Q1956.09 572.807 1954.03 573.964 Q1952 575.098 1949.29 575.098 Q1944.82 575.098 1942.51 572.321 Q1940.19 569.543 1940.19 564.196 M1950.91 547.876 L1950.91 547.876 Z" fill="#000000" fill-rule="evenodd" fill-opacity="1" /><path clip-path="url(#clip640)" d="M1970.86 539.867 L1975.54 539.867 L1975.54 574.427 L1970.86 574.427 L1970.86 539.867 Z" fill="#000000" fill-rule="evenodd" fill-opacity="1" /><path clip-path="url(#clip640)" d="M1984.84 539.867 L1989.52 539.867 L1989.52 574.427 L1984.84 574.427 L1984.84 539.867 Z" fill="#000000" fill-rule="evenodd" fill-opacity="1" /><path clip-path="url(#clip640)" d="M2010.38 544.474 L2004.03 561.673 L2016.74 561.673 L2010.38 544.474 M2007.74 539.867 L2013.04 539.867 L2026.21 574.427 L2021.35 574.427 L2018.2 565.561 L2002.62 565.561 L1999.47 574.427 L1994.54 574.427 L2007.74 539.867 Z" fill="#000000" fill-rule="evenodd" fill-opacity="1" /><path clip-path="url(#clip640)" d="M2031.72 539.867 L2050.08 539.867 L2050.08 543.802 L2036 543.802 L2036 552.275 Q2037.02 551.927 2038.04 551.765 Q2039.06 551.58 2040.08 551.58 Q2045.86 551.58 2049.24 554.751 Q2052.62 557.923 2052.62 563.339 Q2052.62 568.918 2049.15 572.02 Q2045.68 575.098 2039.36 575.098 Q2037.18 575.098 2034.91 574.728 Q2032.67 574.358 2030.26 573.617 L2030.26 568.918 Q2032.34 570.052 2034.57 570.608 Q2036.79 571.163 2039.27 571.163 Q2043.27 571.163 2045.61 569.057 Q2047.95 566.95 2047.95 563.339 Q2047.95 559.728 2045.61 557.622 Q2043.27 555.515 2039.27 555.515 Q2037.39 555.515 2035.52 555.932 Q2033.66 556.349 2031.72 557.228 L2031.72 539.867 Z" fill="#000000" fill-rule="evenodd" fill-opacity="1" /></svg>
