<?xml version="1.0" encoding="utf-8"?>
<svg xmlns="http://www.w3.org/2000/svg" xmlns:xlink="http://www.w3.org/1999/xlink" width="576" height="384" viewBox="0 0 2304 1536">
<defs>
  <clipPath id="clip120">
    <rect x="0" y="0" width="2304" height="1536"/>
  </clipPath>
</defs>
<path clip-path="url(#clip120)" d="
M0 1536 L2304 1536 L2304 0 L0 0  Z
  " fill="#ffffff" fill-rule="evenodd" fill-opacity="1"/>
<defs>
  <clipPath id="clip121">
    <rect x="460" y="0" width="1614" height="1536"/>
  </clipPath>
</defs>
<path clip-path="url(#clip120)" d="
M250.882 1347.54 L2256.76 1347.54 L2256.76 47.2441 L250.882 47.2441  Z
  " fill="#ffffff" fill-rule="evenodd" fill-opacity="1"/>
<defs>
  <clipPath id="clip122">
    <rect x="250" y="47" width="2007" height="1301"/>
  </clipPath>
</defs>
<polyline clip-path="url(#clip122)" style="stroke:#000000; stroke-linecap:butt; stroke-linejoin:round; stroke-width:2; stroke-opacity:0.1; fill:none" points="
  961.453,1347.54 961.453,47.2441 
  "/>
<polyline clip-path="url(#clip122)" style="stroke:#000000; stroke-linecap:butt; stroke-linejoin:round; stroke-width:2; stroke-opacity:0.1; fill:none" points="
  2001,1347.54 2001,47.2441 
  "/>
<polyline clip-path="url(#clip120)" style="stroke:#000000; stroke-linecap:butt; stroke-linejoin:round; stroke-width:4; stroke-opacity:1; fill:none" points="
  250.882,1347.54 2256.76,1347.54 
  "/>
<polyline clip-path="url(#clip120)" style="stroke:#000000; stroke-linecap:butt; stroke-linejoin:round; stroke-width:4; stroke-opacity:1; fill:none" points="
  961.453,1347.54 961.453,1328.64 
  "/>
<polyline clip-path="url(#clip120)" style="stroke:#000000; stroke-linecap:butt; stroke-linejoin:round; stroke-width:4; stroke-opacity:1; fill:none" points="
  2001,1347.54 2001,1328.64 
  "/>
<path clip-path="url(#clip120)" d="M898.816 1420.89 L906.455 1420.89 L906.455 1394.53 L898.145 1396.19 L898.145 1391.94 L906.409 1390.27 L911.085 1390.27 L911.085 1420.89 L918.723 1420.89 L918.723 1424.83 L898.816 1424.83 L898.816 1420.89 Z" fill="#000000" fill-rule="evenodd" fill-opacity="1" /><path clip-path="url(#clip120)" d="M938.168 1393.35 Q934.557 1393.35 932.728 1396.91 Q930.922 1400.45 930.922 1407.58 Q930.922 1414.69 932.728 1418.25 Q934.557 1421.8 938.168 1421.8 Q941.802 1421.8 943.608 1418.25 Q945.436 1414.69 945.436 1407.58 Q945.436 1400.45 943.608 1396.91 Q941.802 1393.35 938.168 1393.35 M938.168 1389.64 Q943.978 1389.64 947.033 1394.25 Q950.112 1398.83 950.112 1407.58 Q950.112 1416.31 947.033 1420.92 Q943.978 1425.5 938.168 1425.5 Q932.358 1425.5 929.279 1420.92 Q926.223 1416.31 926.223 1407.58 Q926.223 1398.83 929.279 1394.25 Q932.358 1389.64 938.168 1389.64 Z" fill="#000000" fill-rule="evenodd" fill-opacity="1" /><path clip-path="url(#clip120)" d="M950.112 1383.74 L974.224 1383.74 L974.224 1386.94 L950.112 1386.94 L950.112 1383.74 Z" fill="#000000" fill-rule="evenodd" fill-opacity="1" /><path clip-path="url(#clip120)" d="M983.082 1394.22 L989.289 1394.22 L989.289 1372.8 L982.537 1374.15 L982.537 1370.69 L989.251 1369.34 L993.05 1369.34 L993.05 1394.22 L999.257 1394.22 L999.257 1397.42 L983.082 1397.42 L983.082 1394.22 Z" fill="#000000" fill-rule="evenodd" fill-opacity="1" /><path clip-path="url(#clip120)" d="M1015.06 1371.84 Q1012.12 1371.84 1010.64 1374.74 Q1009.17 1377.61 1009.17 1383.41 Q1009.17 1389.18 1010.64 1392.08 Q1012.12 1394.95 1015.06 1394.95 Q1018.01 1394.95 1019.48 1392.08 Q1020.96 1389.18 1020.96 1383.41 Q1020.96 1377.61 1019.48 1374.74 Q1018.01 1371.84 1015.06 1371.84 M1015.06 1368.83 Q1019.78 1368.83 1022.26 1372.57 Q1024.76 1376.3 1024.76 1383.41 Q1024.76 1390.5 1022.26 1394.24 Q1019.78 1397.96 1015.06 1397.96 Q1010.33 1397.96 1007.83 1394.24 Q1005.35 1390.5 1005.35 1383.41 Q1005.35 1376.3 1007.83 1372.57 Q1010.33 1368.83 1015.06 1368.83 Z" fill="#000000" fill-rule="evenodd" fill-opacity="1" /><path clip-path="url(#clip120)" d="M1951.02 1420.89 L1958.66 1420.89 L1958.66 1394.53 L1950.35 1396.19 L1950.35 1391.94 L1958.61 1390.27 L1963.29 1390.27 L1963.29 1420.89 L1970.93 1420.89 L1970.93 1424.83 L1951.02 1424.83 L1951.02 1420.89 Z" fill="#000000" fill-rule="evenodd" fill-opacity="1" /><path clip-path="url(#clip120)" d="M1990.37 1393.35 Q1986.76 1393.35 1984.93 1396.91 Q1983.12 1400.45 1983.12 1407.58 Q1983.12 1414.69 1984.93 1418.25 Q1986.76 1421.8 1990.37 1421.8 Q1994 1421.8 1995.81 1418.25 Q1997.64 1414.69 1997.64 1407.58 Q1997.64 1400.45 1995.81 1396.91 Q1994 1393.35 1990.37 1393.35 M1990.37 1389.64 Q1996.18 1389.64 1999.24 1394.25 Q2002.31 1398.83 2002.31 1407.58 Q2002.31 1416.31 1999.24 1420.92 Q1996.18 1425.5 1990.37 1425.5 Q1984.56 1425.5 1981.48 1420.92 Q1978.42 1416.31 1978.42 1407.58 Q1978.42 1398.83 1981.48 1394.25 Q1984.56 1389.64 1990.37 1389.64 Z" fill="#000000" fill-rule="evenodd" fill-opacity="1" /><path clip-path="url(#clip120)" d="M2002.31 1383.74 L2026.43 1383.74 L2026.43 1386.94 L2002.31 1386.94 L2002.31 1383.74 Z" fill="#000000" fill-rule="evenodd" fill-opacity="1" /><path clip-path="url(#clip120)" d="M2034.66 1369.34 L2049.58 1369.34 L2049.58 1372.54 L2038.14 1372.54 L2038.14 1379.42 Q2038.97 1379.14 2039.8 1379.01 Q2040.63 1378.85 2041.45 1378.85 Q2046.15 1378.85 2048.9 1381.43 Q2051.65 1384.01 2051.65 1388.41 Q2051.65 1392.94 2048.83 1395.46 Q2046 1397.96 2040.87 1397.96 Q2039.1 1397.96 2037.26 1397.66 Q2035.43 1397.36 2033.48 1396.76 L2033.48 1392.94 Q2035.17 1393.86 2036.98 1394.31 Q2038.78 1394.77 2040.79 1394.77 Q2044.05 1394.77 2045.95 1393.05 Q2047.85 1391.34 2047.85 1388.41 Q2047.85 1385.48 2045.95 1383.76 Q2044.05 1382.05 2040.79 1382.05 Q2039.27 1382.05 2037.75 1382.39 Q2036.24 1382.73 2034.66 1383.44 L2034.66 1369.34 Z" fill="#000000" fill-rule="evenodd" fill-opacity="1" /><path clip-path="url(#clip120)" d="M1177.57 1461.87 L1207.62 1461.87 L1207.62 1467.28 L1184 1467.28 L1184 1481.34 L1206.63 1481.34 L1206.63 1486.76 L1184 1486.76 L1184 1503.97 L1208.19 1503.97 L1208.19 1509.39 L1177.57 1509.39 L1177.57 1461.87 Z" fill="#000000" fill-rule="evenodd" fill-opacity="1" /><path clip-path="url(#clip120)" d="M1239.16 1479.21 Q1238.18 1478.64 1237 1478.38 Q1235.85 1478.1 1234.45 1478.1 Q1229.49 1478.1 1226.81 1481.34 Q1224.17 1484.56 1224.17 1490.61 L1224.17 1509.39 L1218.28 1509.39 L1218.28 1473.74 L1224.17 1473.74 L1224.17 1479.28 Q1226.02 1476.03 1228.98 1474.47 Q1231.94 1472.88 1236.17 1472.88 Q1236.77 1472.88 1237.51 1472.97 Q1238.24 1473.04 1239.13 1473.2 L1239.16 1479.21 Z" fill="#000000" fill-rule="evenodd" fill-opacity="1" /><path clip-path="url(#clip120)" d="M1264.82 1479.21 Q1263.83 1478.64 1262.65 1478.38 Q1261.51 1478.1 1260.11 1478.1 Q1255.14 1478.1 1252.47 1481.34 Q1249.82 1484.56 1249.82 1490.61 L1249.82 1509.39 L1243.94 1509.39 L1243.94 1473.74 L1249.82 1473.74 L1249.82 1479.28 Q1251.67 1476.03 1254.63 1474.47 Q1257.59 1472.88 1261.82 1472.88 Q1262.43 1472.88 1263.16 1472.97 Q1263.89 1473.04 1264.78 1473.2 L1264.82 1479.21 Z" fill="#000000" fill-rule="evenodd" fill-opacity="1" /><path clip-path="url(#clip120)" d="M1283.34 1477.84 Q1278.63 1477.84 1275.89 1481.54 Q1273.15 1485.2 1273.15 1491.59 Q1273.15 1497.99 1275.86 1501.68 Q1278.6 1505.34 1283.34 1505.34 Q1288.02 1505.34 1290.76 1501.65 Q1293.49 1497.96 1293.49 1491.59 Q1293.49 1485.26 1290.76 1481.57 Q1288.02 1477.84 1283.34 1477.84 M1283.34 1472.88 Q1290.98 1472.88 1295.34 1477.84 Q1299.7 1482.81 1299.7 1491.59 Q1299.7 1500.35 1295.34 1505.34 Q1290.98 1510.31 1283.34 1510.31 Q1275.67 1510.31 1271.31 1505.34 Q1266.98 1500.35 1266.98 1491.59 Q1266.98 1482.81 1271.31 1477.84 Q1275.67 1472.88 1283.34 1472.88 Z" fill="#000000" fill-rule="evenodd" fill-opacity="1" /><path clip-path="url(#clip120)" d="M1330.06 1479.21 Q1329.08 1478.64 1327.9 1478.38 Q1326.75 1478.1 1325.35 1478.1 Q1320.39 1478.1 1317.71 1481.34 Q1315.07 1484.56 1315.07 1490.61 L1315.07 1509.39 L1309.18 1509.39 L1309.18 1473.74 L1315.07 1473.74 L1315.07 1479.28 Q1316.92 1476.03 1319.88 1474.47 Q1322.84 1472.88 1327.07 1472.88 Q1327.68 1472.88 1328.41 1472.97 Q1329.14 1473.04 1330.03 1473.2 L1330.06 1479.21 Z" fill="#000000" fill-rule="evenodd" fill-opacity="1" /><polyline clip-path="url(#clip122)" style="stroke:#000000; stroke-linecap:butt; stroke-linejoin:round; stroke-width:2; stroke-opacity:0.1; fill:none" points="
  250.882,1031.23 2256.76,1031.23 
  "/>
<polyline clip-path="url(#clip122)" style="stroke:#000000; stroke-linecap:butt; stroke-linejoin:round; stroke-width:2; stroke-opacity:0.1; fill:none" points="
  250.882,646.834 2256.76,646.834 
  "/>
<polyline clip-path="url(#clip122)" style="stroke:#000000; stroke-linecap:butt; stroke-linejoin:round; stroke-width:2; stroke-opacity:0.1; fill:none" points="
  250.882,262.442 2256.76,262.442 
  "/>
<polyline clip-path="url(#clip120)" style="stroke:#000000; stroke-linecap:butt; stroke-linejoin:round; stroke-width:4; stroke-opacity:1; fill:none" points="
  250.882,1347.54 250.882,47.2441 
  "/>
<polyline clip-path="url(#clip120)" style="stroke:#000000; stroke-linecap:butt; stroke-linejoin:round; stroke-width:4; stroke-opacity:1; fill:none" points="
  250.882,1031.23 269.78,1031.23 
  "/>
<polyline clip-path="url(#clip120)" style="stroke:#000000; stroke-linecap:butt; stroke-linejoin:round; stroke-width:4; stroke-opacity:1; fill:none" points="
  250.882,646.834 269.78,646.834 
  "/>
<polyline clip-path="url(#clip120)" style="stroke:#000000; stroke-linecap:butt; stroke-linejoin:round; stroke-width:4; stroke-opacity:1; fill:none" points="
  250.882,262.442 269.78,262.442 
  "/>
<path clip-path="url(#clip120)" d="M115.411 1051.02 L123.05 1051.02 L123.05 1024.65 L114.74 1026.32 L114.74 1022.06 L123.004 1020.39 L127.68 1020.39 L127.68 1051.02 L135.319 1051.02 L135.319 1054.95 L115.411 1054.95 L115.411 1051.02 Z" fill="#000000" fill-rule="evenodd" fill-opacity="1" /><path clip-path="url(#clip120)" d="M154.763 1023.47 Q151.152 1023.47 149.323 1027.04 Q147.518 1030.58 147.518 1037.71 Q147.518 1044.82 149.323 1048.38 Q151.152 1051.92 154.763 1051.92 Q158.397 1051.92 160.203 1048.38 Q162.032 1044.82 162.032 1037.71 Q162.032 1030.58 160.203 1027.04 Q158.397 1023.47 154.763 1023.47 M154.763 1019.77 Q160.573 1019.77 163.629 1024.38 Q166.707 1028.96 166.707 1037.71 Q166.707 1046.44 163.629 1051.04 Q160.573 1055.63 154.763 1055.63 Q148.953 1055.63 145.874 1051.04 Q142.819 1046.44 142.819 1037.71 Q142.819 1028.96 145.874 1024.38 Q148.953 1019.77 154.763 1019.77 Z" fill="#000000" fill-rule="evenodd" fill-opacity="1" /><path clip-path="url(#clip120)" d="M166.707 1013.87 L190.819 1013.87 L190.819 1017.07 L166.707 1017.07 L166.707 1013.87 Z" fill="#000000" fill-rule="evenodd" fill-opacity="1" /><path clip-path="url(#clip120)" d="M210.53 1012.4 Q213.257 1012.99 214.78 1014.83 Q216.322 1016.67 216.322 1019.38 Q216.322 1023.54 213.464 1025.81 Q210.605 1028.09 205.339 1028.09 Q203.571 1028.09 201.69 1027.73 Q199.828 1027.39 197.834 1026.7 L197.834 1023.03 Q199.414 1023.95 201.295 1024.42 Q203.176 1024.89 205.226 1024.89 Q208.799 1024.89 210.661 1023.48 Q212.542 1022.07 212.542 1019.38 Q212.542 1016.9 210.793 1015.51 Q209.063 1014.1 205.959 1014.1 L202.687 1014.1 L202.687 1010.97 L206.11 1010.97 Q208.912 1010.97 210.398 1009.86 Q211.884 1008.74 211.884 1006.63 Q211.884 1004.47 210.341 1003.32 Q208.818 1002.15 205.959 1002.15 Q204.398 1002.15 202.612 1002.49 Q200.825 1002.83 198.681 1003.55 L198.681 1000.16 Q200.844 999.558 202.724 999.257 Q204.624 998.956 206.298 998.956 Q210.624 998.956 213.144 1000.93 Q215.664 1002.89 215.664 1006.23 Q215.664 1008.57 214.329 1010.18 Q212.993 1011.78 210.53 1012.4 Z" fill="#000000" fill-rule="evenodd" fill-opacity="1" /><path clip-path="url(#clip120)" d="M116.183 666.627 L123.821 666.627 L123.821 640.261 L115.511 641.928 L115.511 637.668 L123.775 636.002 L128.451 636.002 L128.451 666.627 L136.09 666.627 L136.09 670.562 L116.183 670.562 L116.183 666.627 Z" fill="#000000" fill-rule="evenodd" fill-opacity="1" /><path clip-path="url(#clip120)" d="M155.534 639.08 Q151.923 639.08 150.094 642.645 Q148.289 646.187 148.289 653.317 Q148.289 660.423 150.094 663.988 Q151.923 667.529 155.534 667.529 Q159.168 667.529 160.974 663.988 Q162.803 660.423 162.803 653.317 Q162.803 646.187 160.974 642.645 Q159.168 639.08 155.534 639.08 M155.534 635.377 Q161.344 635.377 164.4 639.983 Q167.479 644.567 167.479 653.317 Q167.479 662.043 164.4 666.65 Q161.344 671.233 155.534 671.233 Q149.724 671.233 146.645 666.65 Q143.59 662.043 143.59 653.317 Q143.59 644.567 146.645 639.983 Q149.724 635.377 155.534 635.377 Z" fill="#000000" fill-rule="evenodd" fill-opacity="1" /><path clip-path="url(#clip120)" d="M167.479 629.478 L191.59 629.478 L191.59 632.675 L167.479 632.675 L167.479 629.478 Z" fill="#000000" fill-rule="evenodd" fill-opacity="1" /><path clip-path="url(#clip120)" d="M203.063 639.954 L216.322 639.954 L216.322 643.151 L198.493 643.151 L198.493 639.954 Q200.655 637.716 204.379 633.954 Q208.122 630.174 209.081 629.083 Q210.906 627.033 211.62 625.623 Q212.354 624.193 212.354 622.82 Q212.354 620.582 210.774 619.171 Q209.213 617.761 206.693 617.761 Q204.906 617.761 202.912 618.382 Q200.938 619.002 198.681 620.262 L198.681 616.426 Q200.975 615.504 202.969 615.034 Q204.962 614.564 206.618 614.564 Q210.981 614.564 213.576 616.745 Q216.172 618.927 216.172 622.576 Q216.172 624.306 215.514 625.867 Q214.874 627.409 213.163 629.516 Q212.692 630.061 210.172 632.675 Q207.652 635.271 203.063 639.954 Z" fill="#000000" fill-rule="evenodd" fill-opacity="1" /><path clip-path="url(#clip120)" d="M115.882 282.234 L123.52 282.234 L123.52 255.868 L115.21 257.535 L115.21 253.276 L123.474 251.609 L128.15 251.609 L128.15 282.234 L135.789 282.234 L135.789 286.169 L115.882 286.169 L115.882 282.234 Z" fill="#000000" fill-rule="evenodd" fill-opacity="1" /><path clip-path="url(#clip120)" d="M155.233 254.688 Q151.622 254.688 149.793 258.253 Q147.988 261.794 147.988 268.924 Q147.988 276.03 149.793 279.595 Q151.622 283.137 155.233 283.137 Q158.868 283.137 160.673 279.595 Q162.502 276.03 162.502 268.924 Q162.502 261.794 160.673 258.253 Q158.868 254.688 155.233 254.688 M155.233 250.984 Q161.043 250.984 164.099 255.591 Q167.178 260.174 167.178 268.924 Q167.178 277.651 164.099 282.257 Q161.043 286.84 155.233 286.84 Q149.423 286.84 146.344 282.257 Q143.289 277.651 143.289 268.924 Q143.289 260.174 146.344 255.591 Q149.423 250.984 155.233 250.984 Z" fill="#000000" fill-rule="evenodd" fill-opacity="1" /><path clip-path="url(#clip120)" d="M167.178 245.086 L191.289 245.086 L191.289 248.283 L167.178 248.283 L167.178 245.086 Z" fill="#000000" fill-rule="evenodd" fill-opacity="1" /><path clip-path="url(#clip120)" d="M200.148 255.561 L206.354 255.561 L206.354 234.139 L199.602 235.494 L199.602 232.033 L206.317 230.679 L210.116 230.679 L210.116 255.561 L216.322 255.561 L216.322 258.759 L200.148 258.759 L200.148 255.561 Z" fill="#000000" fill-rule="evenodd" fill-opacity="1" /><path clip-path="url(#clip120)" d="M18.4042 827.219 L18.4042 787.02 L23.815 787.02 L23.815 803.889 L65.9242 803.889 L65.9242 810.35 L23.815 810.35 L23.815 827.219 L18.4042 827.219 Z" fill="#000000" fill-rule="evenodd" fill-opacity="1" /><path clip-path="url(#clip120)" d="M30.2762 783.073 L30.2762 777.216 L65.9242 777.216 L65.9242 783.073 L30.2762 783.073 M16.399 783.073 L16.399 777.216 L23.815 777.216 L23.815 783.073 L16.399 783.073 Z" fill="#000000" fill-rule="evenodd" fill-opacity="1" /><path clip-path="url(#clip120)" d="M37.1193 737.208 Q33.1726 735.012 31.2947 731.956 Q29.4168 728.901 29.4168 724.763 Q29.4168 719.193 33.3317 716.169 Q37.2148 713.145 44.4081 713.145 L65.9242 713.145 L65.9242 719.034 L44.599 719.034 Q39.4746 719.034 36.992 720.848 Q34.5094 722.662 34.5094 726.386 Q34.5094 730.938 37.5331 733.579 Q40.5568 736.221 45.7767 736.221 L65.9242 736.221 L65.9242 742.109 L44.599 742.109 Q39.4428 742.109 36.992 743.924 Q34.5094 745.738 34.5094 749.526 Q34.5094 754.013 37.5649 756.655 Q40.5886 759.297 45.7767 759.297 L65.9242 759.297 L65.9242 765.185 L30.2762 765.185 L30.2762 759.297 L35.8144 759.297 Q32.536 757.292 30.9764 754.491 Q29.4168 751.69 29.4168 747.839 Q29.4168 743.956 31.3902 741.25 Q33.3636 738.513 37.1193 737.208 Z" fill="#000000" fill-rule="evenodd" fill-opacity="1" /><path clip-path="url(#clip120)" d="M46.6361 670.973 L49.5006 670.973 L49.5006 697.9 Q55.5481 697.518 58.7309 694.271 Q61.8819 690.993 61.8819 685.168 Q61.8819 681.794 61.0544 678.643 Q60.2269 675.461 58.5718 672.341 L64.1099 672.341 Q65.4467 675.492 66.147 678.803 Q66.8472 682.113 66.8472 685.518 Q66.8472 694.048 61.8819 699.045 Q56.9167 704.011 48.4503 704.011 Q39.6974 704.011 34.5731 699.3 Q29.4168 694.558 29.4168 686.537 Q29.4168 679.344 34.0638 675.174 Q38.6789 670.973 46.6361 670.973 M44.9173 676.829 Q40.1112 676.893 37.2466 679.535 Q34.3821 682.145 34.3821 686.473 Q34.3821 691.375 37.1512 694.335 Q39.9202 697.263 44.9492 697.709 L44.9173 676.829 Z" fill="#000000" fill-rule="evenodd" fill-opacity="1" /><path clip-path="url(#clip120)" d="M16.4626 626.572 Q23.7832 630.837 30.9446 632.906 Q38.106 634.975 45.4584 634.975 Q52.8108 634.975 60.0359 632.906 Q67.2291 630.805 74.5179 626.572 L74.5179 631.664 Q67.0382 636.439 59.8131 638.826 Q52.588 641.181 45.4584 641.181 Q38.3606 641.181 31.1674 638.826 Q23.9742 636.471 16.4626 631.664 L16.4626 626.572 Z" fill="#000000" fill-rule="evenodd" fill-opacity="1" /><path clip-path="url(#clip120)" d="M31.3265 592.484 L36.8647 592.484 Q35.5916 594.966 34.955 597.64 Q34.3184 600.313 34.3184 603.178 Q34.3184 607.538 35.6552 609.735 Q36.992 611.899 39.6656 611.899 Q41.7026 611.899 42.8803 610.339 Q44.0261 608.78 45.0765 604.069 L45.5221 602.064 Q46.8589 595.826 49.3097 593.216 Q51.7286 590.574 56.0891 590.574 Q61.0544 590.574 63.9508 594.521 Q66.8472 598.435 66.8472 605.31 Q66.8472 608.175 66.2743 611.294 Q65.7332 614.382 64.6192 617.819 L58.5718 617.819 Q60.2587 614.573 61.118 611.422 Q61.9456 608.27 61.9456 605.183 Q61.9456 601.045 60.5451 598.817 Q59.1129 596.589 56.5347 596.589 Q54.1476 596.589 52.8745 598.213 Q51.6013 599.804 50.4237 605.247 L49.9462 607.284 Q48.8004 612.726 46.4451 615.145 Q44.058 617.564 39.9202 617.564 Q34.8913 617.564 32.1541 614 Q29.4168 610.435 29.4168 603.878 Q29.4168 600.632 29.8943 597.767 Q30.3717 594.902 31.3265 592.484 Z" fill="#000000" fill-rule="evenodd" fill-opacity="1" /><path clip-path="url(#clip120)" d="M16.4626 582.171 L16.4626 577.079 Q23.9742 572.304 31.1674 569.949 Q38.3606 567.562 45.4584 567.562 Q52.588 567.562 59.8131 569.949 Q67.0382 572.304 74.5179 577.079 L74.5179 582.171 Q67.2291 577.938 60.0359 575.869 Q52.8108 573.768 45.4584 573.768 Q38.106 573.768 30.9446 575.869 Q23.7832 577.938 16.4626 582.171 Z" fill="#000000" fill-rule="evenodd" fill-opacity="1" /><polyline clip-path="url(#clip122)" style="stroke:#009af9; stroke-linecap:butt; stroke-linejoin:round; stroke-width:12; stroke-opacity:1; fill:none" points="
  1727.85,1158.68 1504.38,1061.99 1375.58,1050.3 1158.42,992.534 967.258,934.163 765.465,878.178 677.837,797.111 
  "/>
<line clip-path="url(#clip122)" x1="1727.85" y1="1158.68" x2="1727.85" y2="1142.68" style="stroke:#009af9; stroke-width:3.072; stroke-opacity:1"/>
<line clip-path="url(#clip122)" x1="1727.85" y1="1158.68" x2="1711.85" y2="1158.68" style="stroke:#009af9; stroke-width:3.072; stroke-opacity:1"/>
<line clip-path="url(#clip122)" x1="1727.85" y1="1158.68" x2="1727.85" y2="1174.68" style="stroke:#009af9; stroke-width:3.072; stroke-opacity:1"/>
<line clip-path="url(#clip122)" x1="1727.85" y1="1158.68" x2="1743.85" y2="1158.68" style="stroke:#009af9; stroke-width:3.072; stroke-opacity:1"/>
<line clip-path="url(#clip122)" x1="1504.38" y1="1061.99" x2="1504.38" y2="1045.99" style="stroke:#009af9; stroke-width:3.072; stroke-opacity:1"/>
<line clip-path="url(#clip122)" x1="1504.38" y1="1061.99" x2="1488.38" y2="1061.99" style="stroke:#009af9; stroke-width:3.072; stroke-opacity:1"/>
<line clip-path="url(#clip122)" x1="1504.38" y1="1061.99" x2="1504.38" y2="1077.99" style="stroke:#009af9; stroke-width:3.072; stroke-opacity:1"/>
<line clip-path="url(#clip122)" x1="1504.38" y1="1061.99" x2="1520.38" y2="1061.99" style="stroke:#009af9; stroke-width:3.072; stroke-opacity:1"/>
<line clip-path="url(#clip122)" x1="1375.58" y1="1050.3" x2="1375.58" y2="1034.3" style="stroke:#009af9; stroke-width:3.072; stroke-opacity:1"/>
<line clip-path="url(#clip122)" x1="1375.58" y1="1050.3" x2="1359.58" y2="1050.3" style="stroke:#009af9; stroke-width:3.072; stroke-opacity:1"/>
<line clip-path="url(#clip122)" x1="1375.58" y1="1050.3" x2="1375.58" y2="1066.3" style="stroke:#009af9; stroke-width:3.072; stroke-opacity:1"/>
<line clip-path="url(#clip122)" x1="1375.58" y1="1050.3" x2="1391.58" y2="1050.3" style="stroke:#009af9; stroke-width:3.072; stroke-opacity:1"/>
<line clip-path="url(#clip122)" x1="1158.42" y1="992.534" x2="1158.42" y2="976.534" style="stroke:#009af9; stroke-width:3.072; stroke-opacity:1"/>
<line clip-path="url(#clip122)" x1="1158.42" y1="992.534" x2="1142.42" y2="992.534" style="stroke:#009af9; stroke-width:3.072; stroke-opacity:1"/>
<line clip-path="url(#clip122)" x1="1158.42" y1="992.534" x2="1158.42" y2="1008.53" style="stroke:#009af9; stroke-width:3.072; stroke-opacity:1"/>
<line clip-path="url(#clip122)" x1="1158.42" y1="992.534" x2="1174.42" y2="992.534" style="stroke:#009af9; stroke-width:3.072; stroke-opacity:1"/>
<line clip-path="url(#clip122)" x1="967.258" y1="934.163" x2="967.258" y2="918.163" style="stroke:#009af9; stroke-width:3.072; stroke-opacity:1"/>
<line clip-path="url(#clip122)" x1="967.258" y1="934.163" x2="951.258" y2="934.163" style="stroke:#009af9; stroke-width:3.072; stroke-opacity:1"/>
<line clip-path="url(#clip122)" x1="967.258" y1="934.163" x2="967.258" y2="950.163" style="stroke:#009af9; stroke-width:3.072; stroke-opacity:1"/>
<line clip-path="url(#clip122)" x1="967.258" y1="934.163" x2="983.258" y2="934.163" style="stroke:#009af9; stroke-width:3.072; stroke-opacity:1"/>
<line clip-path="url(#clip122)" x1="765.465" y1="878.178" x2="765.465" y2="862.178" style="stroke:#009af9; stroke-width:3.072; stroke-opacity:1"/>
<line clip-path="url(#clip122)" x1="765.465" y1="878.178" x2="749.465" y2="878.178" style="stroke:#009af9; stroke-width:3.072; stroke-opacity:1"/>
<line clip-path="url(#clip122)" x1="765.465" y1="878.178" x2="765.465" y2="894.178" style="stroke:#009af9; stroke-width:3.072; stroke-opacity:1"/>
<line clip-path="url(#clip122)" x1="765.465" y1="878.178" x2="781.465" y2="878.178" style="stroke:#009af9; stroke-width:3.072; stroke-opacity:1"/>
<line clip-path="url(#clip122)" x1="677.837" y1="797.111" x2="677.837" y2="781.111" style="stroke:#009af9; stroke-width:3.072; stroke-opacity:1"/>
<line clip-path="url(#clip122)" x1="677.837" y1="797.111" x2="661.837" y2="797.111" style="stroke:#009af9; stroke-width:3.072; stroke-opacity:1"/>
<line clip-path="url(#clip122)" x1="677.837" y1="797.111" x2="677.837" y2="813.111" style="stroke:#009af9; stroke-width:3.072; stroke-opacity:1"/>
<line clip-path="url(#clip122)" x1="677.837" y1="797.111" x2="693.837" y2="797.111" style="stroke:#009af9; stroke-width:3.072; stroke-opacity:1"/>
<polyline clip-path="url(#clip122)" style="stroke:#e26f46; stroke-linecap:butt; stroke-linejoin:round; stroke-width:12; stroke-opacity:1; fill:none" points="
  1800.37,1233.41 1666.12,1184.14 1470.97,1137.93 1314.28,1102.95 1033.93,1049.88 904.714,1007.49 737.896,957.509 
  "/>
<circle clip-path="url(#clip122)" cx="1800.37" cy="1233.41" r="14" fill="#e26f46" fill-rule="evenodd" fill-opacity="1" stroke="#000000" stroke-opacity="1" stroke-width="3.072"/>
<circle clip-path="url(#clip122)" cx="1666.12" cy="1184.14" r="14" fill="#e26f46" fill-rule="evenodd" fill-opacity="1" stroke="#000000" stroke-opacity="1" stroke-width="3.072"/>
<circle clip-path="url(#clip122)" cx="1470.97" cy="1137.93" r="14" fill="#e26f46" fill-rule="evenodd" fill-opacity="1" stroke="#000000" stroke-opacity="1" stroke-width="3.072"/>
<circle clip-path="url(#clip122)" cx="1314.28" cy="1102.95" r="14" fill="#e26f46" fill-rule="evenodd" fill-opacity="1" stroke="#000000" stroke-opacity="1" stroke-width="3.072"/>
<circle clip-path="url(#clip122)" cx="1033.93" cy="1049.88" r="14" fill="#e26f46" fill-rule="evenodd" fill-opacity="1" stroke="#000000" stroke-opacity="1" stroke-width="3.072"/>
<circle clip-path="url(#clip122)" cx="904.714" cy="1007.49" r="14" fill="#e26f46" fill-rule="evenodd" fill-opacity="1" stroke="#000000" stroke-opacity="1" stroke-width="3.072"/>
<circle clip-path="url(#clip122)" cx="737.896" cy="957.509" r="14" fill="#e26f46" fill-rule="evenodd" fill-opacity="1" stroke="#000000" stroke-opacity="1" stroke-width="3.072"/>
<polyline clip-path="url(#clip122)" style="stroke:#3da44d; stroke-linecap:butt; stroke-linejoin:round; stroke-width:12; stroke-opacity:1; fill:none" points="
  1360.87,1310.74 1228.72,1253.52 1104.89,1187.65 964.417,1112.12 780.945,1024.6 560.156,927.167 327.718,833.136 
  "/>
<line clip-path="url(#clip122)" x1="1360.87" y1="1310.74" x2="1360.87" y2="1294.74" style="stroke:#3da44d; stroke-width:3.072; stroke-opacity:1"/>
<line clip-path="url(#clip122)" x1="1360.87" y1="1310.74" x2="1344.87" y2="1310.74" style="stroke:#3da44d; stroke-width:3.072; stroke-opacity:1"/>
<line clip-path="url(#clip122)" x1="1360.87" y1="1310.74" x2="1360.87" y2="1326.74" style="stroke:#3da44d; stroke-width:3.072; stroke-opacity:1"/>
<line clip-path="url(#clip122)" x1="1360.87" y1="1310.74" x2="1376.87" y2="1310.74" style="stroke:#3da44d; stroke-width:3.072; stroke-opacity:1"/>
<line clip-path="url(#clip122)" x1="1228.72" y1="1253.52" x2="1228.72" y2="1237.52" style="stroke:#3da44d; stroke-width:3.072; stroke-opacity:1"/>
<line clip-path="url(#clip122)" x1="1228.72" y1="1253.52" x2="1212.72" y2="1253.52" style="stroke:#3da44d; stroke-width:3.072; stroke-opacity:1"/>
<line clip-path="url(#clip122)" x1="1228.72" y1="1253.52" x2="1228.72" y2="1269.52" style="stroke:#3da44d; stroke-width:3.072; stroke-opacity:1"/>
<line clip-path="url(#clip122)" x1="1228.72" y1="1253.52" x2="1244.72" y2="1253.52" style="stroke:#3da44d; stroke-width:3.072; stroke-opacity:1"/>
<line clip-path="url(#clip122)" x1="1104.89" y1="1187.65" x2="1104.89" y2="1171.65" style="stroke:#3da44d; stroke-width:3.072; stroke-opacity:1"/>
<line clip-path="url(#clip122)" x1="1104.89" y1="1187.65" x2="1088.89" y2="1187.65" style="stroke:#3da44d; stroke-width:3.072; stroke-opacity:1"/>
<line clip-path="url(#clip122)" x1="1104.89" y1="1187.65" x2="1104.89" y2="1203.65" style="stroke:#3da44d; stroke-width:3.072; stroke-opacity:1"/>
<line clip-path="url(#clip122)" x1="1104.89" y1="1187.65" x2="1120.89" y2="1187.65" style="stroke:#3da44d; stroke-width:3.072; stroke-opacity:1"/>
<line clip-path="url(#clip122)" x1="964.417" y1="1112.12" x2="964.417" y2="1096.12" style="stroke:#3da44d; stroke-width:3.072; stroke-opacity:1"/>
<line clip-path="url(#clip122)" x1="964.417" y1="1112.12" x2="948.417" y2="1112.12" style="stroke:#3da44d; stroke-width:3.072; stroke-opacity:1"/>
<line clip-path="url(#clip122)" x1="964.417" y1="1112.12" x2="964.417" y2="1128.12" style="stroke:#3da44d; stroke-width:3.072; stroke-opacity:1"/>
<line clip-path="url(#clip122)" x1="964.417" y1="1112.12" x2="980.417" y2="1112.12" style="stroke:#3da44d; stroke-width:3.072; stroke-opacity:1"/>
<line clip-path="url(#clip122)" x1="780.945" y1="1024.6" x2="780.945" y2="1008.6" style="stroke:#3da44d; stroke-width:3.072; stroke-opacity:1"/>
<line clip-path="url(#clip122)" x1="780.945" y1="1024.6" x2="764.945" y2="1024.6" style="stroke:#3da44d; stroke-width:3.072; stroke-opacity:1"/>
<line clip-path="url(#clip122)" x1="780.945" y1="1024.6" x2="780.945" y2="1040.6" style="stroke:#3da44d; stroke-width:3.072; stroke-opacity:1"/>
<line clip-path="url(#clip122)" x1="780.945" y1="1024.6" x2="796.945" y2="1024.6" style="stroke:#3da44d; stroke-width:3.072; stroke-opacity:1"/>
<line clip-path="url(#clip122)" x1="560.156" y1="927.167" x2="560.156" y2="911.167" style="stroke:#3da44d; stroke-width:3.072; stroke-opacity:1"/>
<line clip-path="url(#clip122)" x1="560.156" y1="927.167" x2="544.156" y2="927.167" style="stroke:#3da44d; stroke-width:3.072; stroke-opacity:1"/>
<line clip-path="url(#clip122)" x1="560.156" y1="927.167" x2="560.156" y2="943.167" style="stroke:#3da44d; stroke-width:3.072; stroke-opacity:1"/>
<line clip-path="url(#clip122)" x1="560.156" y1="927.167" x2="576.156" y2="927.167" style="stroke:#3da44d; stroke-width:3.072; stroke-opacity:1"/>
<line clip-path="url(#clip122)" x1="327.718" y1="833.136" x2="327.718" y2="817.136" style="stroke:#3da44d; stroke-width:3.072; stroke-opacity:1"/>
<line clip-path="url(#clip122)" x1="327.718" y1="833.136" x2="311.718" y2="833.136" style="stroke:#3da44d; stroke-width:3.072; stroke-opacity:1"/>
<line clip-path="url(#clip122)" x1="327.718" y1="833.136" x2="327.718" y2="849.136" style="stroke:#3da44d; stroke-width:3.072; stroke-opacity:1"/>
<line clip-path="url(#clip122)" x1="327.718" y1="833.136" x2="343.718" y2="833.136" style="stroke:#3da44d; stroke-width:3.072; stroke-opacity:1"/>
<polyline clip-path="url(#clip122)" style="stroke:#c271d2; stroke-linecap:butt; stroke-linejoin:round; stroke-width:12; stroke-opacity:1; fill:none" points="
  1968.73,1194.48 1783.7,1148.77 1641.08,1087.97 1383.75,1073.05 1087.22,1026.08 952.264,976.901 821.732,945.833 
  "/>
<path clip-path="url(#clip122)" d="M1968.73 1178.48 L1952.73 1194.48 L1968.73 1210.48 L1984.73 1194.48 L1968.73 1178.48 Z" fill="#c271d2" fill-rule="evenodd" fill-opacity="1" stroke="#000000" stroke-opacity="1" stroke-width="3.072"/>
<path clip-path="url(#clip122)" d="M1783.7 1132.77 L1767.7 1148.77 L1783.7 1164.77 L1799.7 1148.77 L1783.7 1132.77 Z" fill="#c271d2" fill-rule="evenodd" fill-opacity="1" stroke="#000000" stroke-opacity="1" stroke-width="3.072"/>
<path clip-path="url(#clip122)" d="M1641.08 1071.97 L1625.08 1087.97 L1641.08 1103.97 L1657.08 1087.97 L1641.08 1071.97 Z" fill="#c271d2" fill-rule="evenodd" fill-opacity="1" stroke="#000000" stroke-opacity="1" stroke-width="3.072"/>
<path clip-path="url(#clip122)" d="M1383.75 1057.05 L1367.75 1073.05 L1383.75 1089.05 L1399.75 1073.05 L1383.75 1057.05 Z" fill="#c271d2" fill-rule="evenodd" fill-opacity="1" stroke="#000000" stroke-opacity="1" stroke-width="3.072"/>
<path clip-path="url(#clip122)" d="M1087.22 1010.08 L1071.22 1026.08 L1087.22 1042.08 L1103.22 1026.08 L1087.22 1010.08 Z" fill="#c271d2" fill-rule="evenodd" fill-opacity="1" stroke="#000000" stroke-opacity="1" stroke-width="3.072"/>
<path clip-path="url(#clip122)" d="M952.264 960.901 L936.264 976.901 L952.264 992.901 L968.264 976.901 L952.264 960.901 Z" fill="#c271d2" fill-rule="evenodd" fill-opacity="1" stroke="#000000" stroke-opacity="1" stroke-width="3.072"/>
<path clip-path="url(#clip122)" d="M821.732 929.833 L805.732 945.833 L821.732 961.833 L837.732 945.833 L821.732 929.833 Z" fill="#c271d2" fill-rule="evenodd" fill-opacity="1" stroke="#000000" stroke-opacity="1" stroke-width="3.072"/>
<polyline clip-path="url(#clip122)" style="stroke:#ac8d18; stroke-linecap:butt; stroke-linejoin:round; stroke-width:12; stroke-opacity:1; fill:none" points="
  1948.41,1165.48 1866.57,1116.33 1759.62,1063.25 1715.49,1011.63 1707.15,955.776 1647.77,897.002 1566.6,828.682 
  "/>
<path clip-path="url(#clip122)" d="M1964.41 1149.48 L1932.41 1149.48 L1948.41 1181.48 L1964.41 1149.48 Z" fill="#ac8d18" fill-rule="evenodd" fill-opacity="1" stroke="#000000" stroke-opacity="1" stroke-width="3.072"/>
<path clip-path="url(#clip122)" d="M1882.57 1100.33 L1850.57 1100.33 L1866.57 1132.33 L1882.57 1100.33 Z" fill="#ac8d18" fill-rule="evenodd" fill-opacity="1" stroke="#000000" stroke-opacity="1" stroke-width="3.072"/>
<path clip-path="url(#clip122)" d="M1775.62 1047.25 L1743.62 1047.25 L1759.62 1079.25 L1775.62 1047.25 Z" fill="#ac8d18" fill-rule="evenodd" fill-opacity="1" stroke="#000000" stroke-opacity="1" stroke-width="3.072"/>
<path clip-path="url(#clip122)" d="M1731.49 995.632 L1699.49 995.632 L1715.49 1027.63 L1731.49 995.632 Z" fill="#ac8d18" fill-rule="evenodd" fill-opacity="1" stroke="#000000" stroke-opacity="1" stroke-width="3.072"/>
<path clip-path="url(#clip122)" d="M1723.15 939.776 L1691.15 939.776 L1707.15 971.776 L1723.15 939.776 Z" fill="#ac8d18" fill-rule="evenodd" fill-opacity="1" stroke="#000000" stroke-opacity="1" stroke-width="3.072"/>
<path clip-path="url(#clip122)" d="M1663.77 881.002 L1631.77 881.002 L1647.77 913.002 L1663.77 881.002 Z" fill="#ac8d18" fill-rule="evenodd" fill-opacity="1" stroke="#000000" stroke-opacity="1" stroke-width="3.072"/>
<path clip-path="url(#clip122)" d="M1582.6 812.682 L1550.6 812.682 L1566.6 844.682 L1582.6 812.682 Z" fill="#ac8d18" fill-rule="evenodd" fill-opacity="1" stroke="#000000" stroke-opacity="1" stroke-width="3.072"/>
<polyline clip-path="url(#clip122)" style="stroke:#00a9ad; stroke-linecap:butt; stroke-linejoin:round; stroke-width:12; stroke-opacity:1; fill:none" points="
  1436.83,1306.18 1268.79,1244.55 1107.71,1165.83 918.692,1067.74 715.709,964.919 508.55,860.501 307.652,761.698 
  "/>
<path clip-path="url(#clip122)" d="M1436.83 1290.18 L1424.32 1296.22 L1421.23 1309.75 L1429.89 1320.6 L1443.77 1320.6 L1452.43 1309.75 L1449.34 1296.22 Z" fill="#00a9ad" fill-rule="evenodd" fill-opacity="1" stroke="#000000" stroke-opacity="1" stroke-width="3.072"/>
<path clip-path="url(#clip122)" d="M1268.79 1228.55 L1256.28 1234.58 L1253.19 1248.12 L1261.85 1258.97 L1275.74 1258.97 L1284.39 1248.12 L1281.31 1234.58 Z" fill="#00a9ad" fill-rule="evenodd" fill-opacity="1" stroke="#000000" stroke-opacity="1" stroke-width="3.072"/>
<path clip-path="url(#clip122)" d="M1107.71 1149.83 L1095.2 1155.86 L1092.11 1169.4 L1100.77 1180.25 L1114.66 1180.25 L1123.31 1169.4 L1120.22 1155.86 Z" fill="#00a9ad" fill-rule="evenodd" fill-opacity="1" stroke="#000000" stroke-opacity="1" stroke-width="3.072"/>
<path clip-path="url(#clip122)" d="M918.692 1051.74 L906.18 1057.77 L903.092 1071.31 L911.748 1082.16 L925.636 1082.16 L934.292 1071.31 L931.204 1057.77 Z" fill="#00a9ad" fill-rule="evenodd" fill-opacity="1" stroke="#000000" stroke-opacity="1" stroke-width="3.072"/>
<path clip-path="url(#clip122)" d="M715.709 948.919 L703.197 954.951 L700.109 968.487 L708.765 979.335 L722.653 979.335 L731.309 968.487 L728.221 954.951 Z" fill="#00a9ad" fill-rule="evenodd" fill-opacity="1" stroke="#000000" stroke-opacity="1" stroke-width="3.072"/>
<path clip-path="url(#clip122)" d="M508.55 844.501 L496.038 850.533 L492.95 864.069 L501.606 874.917 L515.494 874.917 L524.15 864.069 L521.062 850.533 Z" fill="#00a9ad" fill-rule="evenodd" fill-opacity="1" stroke="#000000" stroke-opacity="1" stroke-width="3.072"/>
<path clip-path="url(#clip122)" d="M307.652 745.698 L295.14 751.73 L292.052 765.266 L300.708 776.114 L314.596 776.114 L323.252 765.266 L320.164 751.73 Z" fill="#00a9ad" fill-rule="evenodd" fill-opacity="1" stroke="#000000" stroke-opacity="1" stroke-width="3.072"/>
<polyline clip-path="url(#clip122)" style="stroke:#ed5d92; stroke-linecap:butt; stroke-linejoin:round; stroke-width:12; stroke-opacity:1; fill:none" points="
  2091.76,1159.11 2003.97,1101.56 1867.78,1016.5 1675.34,907.147 1534.38,794.083 1369.91,685.504 1285.61,581.11 
  "/>
<path clip-path="url(#clip122)" d="M2091.76 1175.11 L2077.9 1167.11 L2077.9 1151.11 L2091.76 1143.11 L2105.61 1151.11 L2105.61 1167.11 Z" fill="#ed5d92" fill-rule="evenodd" fill-opacity="1" stroke="#000000" stroke-opacity="1" stroke-width="3.072"/>
<path clip-path="url(#clip122)" d="M2003.97 1117.56 L1990.11 1109.56 L1990.11 1093.56 L2003.97 1085.56 L2017.83 1093.56 L2017.83 1109.56 Z" fill="#ed5d92" fill-rule="evenodd" fill-opacity="1" stroke="#000000" stroke-opacity="1" stroke-width="3.072"/>
<path clip-path="url(#clip122)" d="M1867.78 1032.5 L1853.92 1024.5 L1853.92 1008.5 L1867.78 1000.5 L1881.63 1008.5 L1881.63 1024.5 Z" fill="#ed5d92" fill-rule="evenodd" fill-opacity="1" stroke="#000000" stroke-opacity="1" stroke-width="3.072"/>
<path clip-path="url(#clip122)" d="M1675.34 923.147 L1661.48 915.147 L1661.48 899.147 L1675.34 891.147 L1689.2 899.147 L1689.2 915.147 Z" fill="#ed5d92" fill-rule="evenodd" fill-opacity="1" stroke="#000000" stroke-opacity="1" stroke-width="3.072"/>
<path clip-path="url(#clip122)" d="M1534.38 810.083 L1520.53 802.083 L1520.53 786.083 L1534.38 778.083 L1548.24 786.083 L1548.24 802.083 Z" fill="#ed5d92" fill-rule="evenodd" fill-opacity="1" stroke="#000000" stroke-opacity="1" stroke-width="3.072"/>
<path clip-path="url(#clip122)" d="M1369.91 701.504 L1356.05 693.504 L1356.05 677.504 L1369.91 669.504 L1383.76 677.504 L1383.76 693.504 Z" fill="#ed5d92" fill-rule="evenodd" fill-opacity="1" stroke="#000000" stroke-opacity="1" stroke-width="3.072"/>
<path clip-path="url(#clip122)" d="M1285.61 597.11 L1271.75 589.11 L1271.75 573.11 L1285.61 565.11 L1299.47 573.11 L1299.47 589.11 Z" fill="#ed5d92" fill-rule="evenodd" fill-opacity="1" stroke="#000000" stroke-opacity="1" stroke-width="3.072"/>
<polyline clip-path="url(#clip122)" style="stroke:#c68125; stroke-linecap:butt; stroke-linejoin:round; stroke-width:12; stroke-opacity:1; fill:none" points="
  2137.63,1068.22 2199.99,1043.17 2151.79,1020.87 2131.97,990.114 2102.37,953.227 2166.01,919.707 2144.73,894.236 
  "/>
<line clip-path="url(#clip122)" x1="2153.63" y1="1068.22" x2="2121.63" y2="1068.22" style="stroke:#c68125; stroke-width:3.072; stroke-opacity:1"/>
<line clip-path="url(#clip122)" x1="2215.99" y1="1043.17" x2="2183.99" y2="1043.17" style="stroke:#c68125; stroke-width:3.072; stroke-opacity:1"/>
<line clip-path="url(#clip122)" x1="2167.79" y1="1020.87" x2="2135.79" y2="1020.87" style="stroke:#c68125; stroke-width:3.072; stroke-opacity:1"/>
<line clip-path="url(#clip122)" x1="2147.97" y1="990.114" x2="2115.97" y2="990.114" style="stroke:#c68125; stroke-width:3.072; stroke-opacity:1"/>
<line clip-path="url(#clip122)" x1="2118.37" y1="953.227" x2="2086.37" y2="953.227" style="stroke:#c68125; stroke-width:3.072; stroke-opacity:1"/>
<line clip-path="url(#clip122)" x1="2182.01" y1="919.707" x2="2150.01" y2="919.707" style="stroke:#c68125; stroke-width:3.072; stroke-opacity:1"/>
<line clip-path="url(#clip122)" x1="2160.73" y1="894.236" x2="2128.73" y2="894.236" style="stroke:#c68125; stroke-width:3.072; stroke-opacity:1"/>
<polyline clip-path="url(#clip122)" style="stroke:#00a98d; stroke-linecap:butt; stroke-linejoin:round; stroke-width:12; stroke-opacity:1; fill:none" points="
  1887.21,1045.95 1814.67,786.591 1654.69,729.463 927.301,570.987 1242.25,737.613 1475.21,341.787 477.508,84.0448 
  "/>
<path clip-path="url(#clip122)" d="M1874.41 1045.95 L1893.61 1057.15 L1893.61 1034.75 L1874.41 1045.95 Z" fill="#00a98d" fill-rule="evenodd" fill-opacity="1" stroke="#000000" stroke-opacity="1" stroke-width="3.072"/>
<path clip-path="url(#clip122)" d="M1801.87 786.591 L1821.07 797.791 L1821.07 775.391 L1801.87 786.591 Z" fill="#00a98d" fill-rule="evenodd" fill-opacity="1" stroke="#000000" stroke-opacity="1" stroke-width="3.072"/>
<path clip-path="url(#clip122)" d="M1641.89 729.463 L1661.09 740.663 L1661.09 718.263 L1641.89 729.463 Z" fill="#00a98d" fill-rule="evenodd" fill-opacity="1" stroke="#000000" stroke-opacity="1" stroke-width="3.072"/>
<path clip-path="url(#clip122)" d="M914.501 570.987 L933.701 582.187 L933.701 559.787 L914.501 570.987 Z" fill="#00a98d" fill-rule="evenodd" fill-opacity="1" stroke="#000000" stroke-opacity="1" stroke-width="3.072"/>
<path clip-path="url(#clip122)" d="M1229.45 737.613 L1248.65 748.813 L1248.65 726.413 L1229.45 737.613 Z" fill="#00a98d" fill-rule="evenodd" fill-opacity="1" stroke="#000000" stroke-opacity="1" stroke-width="3.072"/>
<path clip-path="url(#clip122)" d="M1462.41 341.787 L1481.61 352.987 L1481.61 330.587 L1462.41 341.787 Z" fill="#00a98d" fill-rule="evenodd" fill-opacity="1" stroke="#000000" stroke-opacity="1" stroke-width="3.072"/>
<path clip-path="url(#clip122)" d="M464.708 84.0448 L483.908 95.2448 L483.908 72.8448 L464.708 84.0448 Z" fill="#00a98d" fill-rule="evenodd" fill-opacity="1" stroke="#000000" stroke-opacity="1" stroke-width="3.072"/>
<path clip-path="url(#clip120)" d="
M1683.96 608.987 L2189.89 608.987 L2189.89 90.5872 L1683.96 90.5872  Z
  " fill="#ffffff" fill-rule="evenodd" fill-opacity="1"/>
<polyline clip-path="url(#clip120)" style="stroke:#000000; stroke-linecap:butt; stroke-linejoin:round; stroke-width:4; stroke-opacity:1; fill:none" points="
  1683.96,608.987 2189.89,608.987 2189.89,90.5872 1683.96,90.5872 1683.96,608.987 
  "/>
<polyline clip-path="url(#clip120)" style="stroke:#009af9; stroke-linecap:butt; stroke-linejoin:round; stroke-width:4; stroke-opacity:1; fill:none" points="
  1706.25,142.427 1839.98,142.427 
  "/>
<line clip-path="url(#clip120)" x1="1773.11" y1="142.427" x2="1773.11" y2="116.827" style="stroke:#009af9; stroke-width:4.9152; stroke-opacity:1"/>
<line clip-path="url(#clip120)" x1="1773.11" y1="142.427" x2="1747.51" y2="142.427" style="stroke:#009af9; stroke-width:4.9152; stroke-opacity:1"/>
<line clip-path="url(#clip120)" x1="1773.11" y1="142.427" x2="1773.11" y2="168.027" style="stroke:#009af9; stroke-width:4.9152; stroke-opacity:1"/>
<line clip-path="url(#clip120)" x1="1773.11" y1="142.427" x2="1798.71" y2="142.427" style="stroke:#009af9; stroke-width:4.9152; stroke-opacity:1"/>
<path clip-path="url(#clip120)" d="M1862.26 125.147 L1882.13 125.147 L1882.13 129.082 L1866.94 129.082 L1866.94 139.267 L1880.64 139.267 L1880.64 143.203 L1866.94 143.203 L1866.94 159.707 L1862.26 159.707 L1862.26 125.147 Z" fill="#000000" fill-rule="evenodd" fill-opacity="1" /><path clip-path="url(#clip120)" d="M1894.21 143.203 L1894.21 155.865 L1901.71 155.865 Q1905.48 155.865 1907.29 154.314 Q1909.12 152.74 1909.12 149.522 Q1909.12 146.281 1907.29 144.754 Q1905.48 143.203 1901.71 143.203 L1894.21 143.203 M1894.21 128.99 L1894.21 139.406 L1901.13 139.406 Q1904.56 139.406 1906.22 138.133 Q1907.91 136.837 1907.91 134.198 Q1907.91 131.582 1906.22 130.286 Q1904.56 128.99 1901.13 128.99 L1894.21 128.99 M1889.53 125.147 L1901.48 125.147 Q1906.82 125.147 1909.72 127.369 Q1912.61 129.592 1912.61 133.689 Q1912.61 136.86 1911.13 138.735 Q1909.65 140.61 1906.78 141.073 Q1910.23 141.814 1912.13 144.175 Q1914.05 146.513 1914.05 150.031 Q1914.05 154.661 1910.9 157.184 Q1907.75 159.707 1901.94 159.707 L1889.53 159.707 L1889.53 125.147 Z" fill="#000000" fill-rule="evenodd" fill-opacity="1" /><path clip-path="url(#clip120)" d="M1926.73 128.99 L1926.73 155.865 L1932.38 155.865 Q1939.53 155.865 1942.84 152.624 Q1946.18 149.383 1946.18 142.392 Q1946.18 135.448 1942.84 132.23 Q1939.53 128.99 1932.38 128.99 L1926.73 128.99 M1922.06 125.147 L1931.66 125.147 Q1941.71 125.147 1946.41 129.337 Q1951.11 133.504 1951.11 142.392 Q1951.11 151.328 1946.38 155.517 Q1941.66 159.707 1931.66 159.707 L1922.06 159.707 L1922.06 125.147 Z" fill="#000000" fill-rule="evenodd" fill-opacity="1" /><path clip-path="url(#clip120)" d="M1958.56 125.147 L1978.42 125.147 L1978.42 129.082 L1963.24 129.082 L1963.24 139.267 L1976.94 139.267 L1976.94 143.203 L1963.24 143.203 L1963.24 159.707 L1958.56 159.707 L1958.56 125.147 Z" fill="#000000" fill-rule="evenodd" fill-opacity="1" /><polyline clip-path="url(#clip120)" style="stroke:#e26f46; stroke-linecap:butt; stroke-linejoin:round; stroke-width:4; stroke-opacity:1; fill:none" points="
  1706.25,194.267 1839.98,194.267 
  "/>
<circle clip-path="url(#clip120)" cx="1773.11" cy="194.267" r="23" fill="#e26f46" fill-rule="evenodd" fill-opacity="1" stroke="#000000" stroke-opacity="1" stroke-width="4.9152"/>
<path clip-path="url(#clip120)" d="M1878.28 180.158 Q1873.19 180.158 1870.18 183.955 Q1867.19 187.751 1867.19 194.302 Q1867.19 200.83 1870.18 204.626 Q1873.19 208.422 1878.28 208.422 Q1883.38 208.422 1886.34 204.626 Q1889.32 200.83 1889.32 194.302 Q1889.32 187.751 1886.34 183.955 Q1883.38 180.158 1878.28 180.158 M1884.83 210.922 L1890.99 217.658 L1885.34 217.658 L1880.23 212.126 Q1879.46 212.172 1879.05 212.195 Q1878.65 212.218 1878.28 212.218 Q1870.99 212.218 1866.62 207.357 Q1862.26 202.473 1862.26 194.302 Q1862.26 186.108 1866.62 181.246 Q1870.99 176.362 1878.28 176.362 Q1885.55 176.362 1889.9 181.246 Q1894.26 186.108 1894.26 194.302 Q1894.26 200.32 1891.82 204.603 Q1889.42 208.885 1884.83 210.922 Z" fill="#000000" fill-rule="evenodd" fill-opacity="1" /><path clip-path="url(#clip120)" d="M1901.57 176.987 L1907.87 176.987 L1923.19 205.899 L1923.19 176.987 L1927.73 176.987 L1927.73 211.547 L1921.43 211.547 L1906.11 182.635 L1906.11 211.547 L1901.57 211.547 L1901.57 176.987 Z" fill="#000000" fill-rule="evenodd" fill-opacity="1" /><path clip-path="url(#clip120)" d="M1941.71 180.83 L1941.71 207.705 L1947.36 207.705 Q1954.51 207.705 1957.82 204.464 Q1961.15 201.223 1961.15 194.232 Q1961.15 187.288 1957.82 184.07 Q1954.51 180.83 1947.36 180.83 L1941.71 180.83 M1937.03 176.987 L1946.64 176.987 Q1956.69 176.987 1961.38 181.177 Q1966.08 185.344 1966.08 194.232 Q1966.08 203.168 1961.36 207.357 Q1956.64 211.547 1946.64 211.547 L1937.03 211.547 L1937.03 176.987 Z" fill="#000000" fill-rule="evenodd" fill-opacity="1" /><path clip-path="url(#clip120)" d="M1973.54 176.987 L1993.4 176.987 L1993.4 180.922 L1978.21 180.922 L1978.21 191.107 L1991.92 191.107 L1991.92 195.043 L1978.21 195.043 L1978.21 211.547 L1973.54 211.547 L1973.54 176.987 Z" fill="#000000" fill-rule="evenodd" fill-opacity="1" /><polyline clip-path="url(#clip120)" style="stroke:#3da44d; stroke-linecap:butt; stroke-linejoin:round; stroke-width:4; stroke-opacity:1; fill:none" points="
  1706.25,246.107 1839.98,246.107 
  "/>
<line clip-path="url(#clip120)" x1="1773.11" y1="246.107" x2="1773.11" y2="220.507" style="stroke:#3da44d; stroke-width:4.9152; stroke-opacity:1"/>
<line clip-path="url(#clip120)" x1="1773.11" y1="246.107" x2="1747.51" y2="246.107" style="stroke:#3da44d; stroke-width:4.9152; stroke-opacity:1"/>
<line clip-path="url(#clip120)" x1="1773.11" y1="246.107" x2="1773.11" y2="271.707" style="stroke:#3da44d; stroke-width:4.9152; stroke-opacity:1"/>
<line clip-path="url(#clip120)" x1="1773.11" y1="246.107" x2="1798.71" y2="246.107" style="stroke:#3da44d; stroke-width:4.9152; stroke-opacity:1"/>
<path clip-path="url(#clip120)" d="M1878.65 247.184 Q1880.16 247.693 1881.57 249.359 Q1883.01 251.026 1884.44 253.943 L1889.19 263.387 L1884.16 263.387 L1879.74 254.521 Q1878.03 251.049 1876.41 249.915 Q1874.81 248.781 1872.03 248.781 L1866.94 248.781 L1866.94 263.387 L1862.26 263.387 L1862.26 228.827 L1872.82 228.827 Q1878.75 228.827 1881.66 231.304 Q1884.58 233.781 1884.58 238.781 Q1884.58 242.045 1883.05 244.197 Q1881.55 246.35 1878.65 247.184 M1866.94 232.67 L1866.94 244.938 L1872.82 244.938 Q1876.2 244.938 1877.91 243.387 Q1879.65 241.813 1879.65 238.781 Q1879.65 235.748 1877.91 234.221 Q1876.2 232.67 1872.82 232.67 L1866.94 232.67 Z" fill="#000000" fill-rule="evenodd" fill-opacity="1" /><path clip-path="url(#clip120)" d="M1902.94 240.447 Q1899.51 240.447 1897.52 243.133 Q1895.53 245.795 1895.53 250.447 Q1895.53 255.1 1897.5 257.785 Q1899.49 260.447 1902.94 260.447 Q1906.34 260.447 1908.33 257.762 Q1910.32 255.077 1910.32 250.447 Q1910.32 245.841 1908.33 243.156 Q1906.34 240.447 1902.94 240.447 M1902.94 236.836 Q1908.49 236.836 1911.66 240.447 Q1914.83 244.059 1914.83 250.447 Q1914.83 256.813 1911.66 260.447 Q1908.49 264.058 1902.94 264.058 Q1897.36 264.058 1894.19 260.447 Q1891.04 256.813 1891.04 250.447 Q1891.04 244.059 1894.19 240.447 Q1897.36 236.836 1902.94 236.836 Z" fill="#000000" fill-rule="evenodd" fill-opacity="1" /><path clip-path="url(#clip120)" d="M1938.95 241.397 L1938.95 227.369 L1943.21 227.369 L1943.21 263.387 L1938.95 263.387 L1938.95 259.498 Q1937.61 261.813 1935.55 262.947 Q1933.51 264.058 1930.64 264.058 Q1925.94 264.058 1922.98 260.308 Q1920.04 256.559 1920.04 250.447 Q1920.04 244.336 1922.98 240.586 Q1925.94 236.836 1930.64 236.836 Q1933.51 236.836 1935.55 237.971 Q1937.61 239.082 1938.95 241.397 M1924.44 250.447 Q1924.44 255.146 1926.36 257.832 Q1928.31 260.494 1931.69 260.494 Q1935.06 260.494 1937.01 257.832 Q1938.95 255.146 1938.95 250.447 Q1938.95 245.748 1937.01 243.086 Q1935.06 240.401 1931.69 240.401 Q1928.31 240.401 1926.36 243.086 Q1924.44 245.748 1924.44 250.447 Z" fill="#000000" fill-rule="evenodd" fill-opacity="1" /><path clip-path="url(#clip120)" d="M1963.77 250.355 Q1958.61 250.355 1956.62 251.535 Q1954.63 252.716 1954.63 255.563 Q1954.63 257.832 1956.11 259.174 Q1957.61 260.494 1960.18 260.494 Q1963.72 260.494 1965.85 257.994 Q1968 255.471 1968 251.304 L1968 250.355 L1963.77 250.355 M1972.26 248.596 L1972.26 263.387 L1968 263.387 L1968 259.452 Q1966.55 261.813 1964.37 262.947 Q1962.19 264.058 1959.05 264.058 Q1955.06 264.058 1952.7 261.836 Q1950.37 259.591 1950.37 255.841 Q1950.37 251.466 1953.28 249.244 Q1956.22 247.022 1962.03 247.022 L1968 247.022 L1968 246.605 Q1968 243.665 1966.06 242.068 Q1964.14 240.447 1960.64 240.447 Q1958.42 240.447 1956.31 240.98 Q1954.21 241.512 1952.26 242.577 L1952.26 238.642 Q1954.6 237.739 1956.8 237.299 Q1959 236.836 1961.08 236.836 Q1966.71 236.836 1969.49 239.753 Q1972.26 242.67 1972.26 248.596 Z" fill="#000000" fill-rule="evenodd" fill-opacity="1" /><path clip-path="url(#clip120)" d="M1997.56 238.225 L1997.56 242.253 Q1995.76 241.327 1993.81 240.864 Q1991.87 240.401 1989.79 240.401 Q1986.62 240.401 1985.02 241.373 Q1983.44 242.346 1983.44 244.29 Q1983.44 245.772 1984.58 246.628 Q1985.71 247.461 1989.14 248.225 L1990.6 248.549 Q1995.13 249.522 1997.03 251.304 Q1998.95 253.063 1998.95 256.234 Q1998.95 259.846 1996.08 261.952 Q1993.24 264.058 1988.24 264.058 Q1986.15 264.058 1983.88 263.642 Q1981.64 263.248 1979.14 262.438 L1979.14 258.04 Q1981.5 259.267 1983.79 259.892 Q1986.08 260.494 1988.33 260.494 Q1991.34 260.494 1992.96 259.475 Q1994.58 258.434 1994.58 256.559 Q1994.58 254.822 1993.4 253.896 Q1992.24 252.971 1988.28 252.114 L1986.8 251.767 Q1982.84 250.934 1981.08 249.221 Q1979.32 247.484 1979.32 244.475 Q1979.32 240.818 1981.92 238.827 Q1984.51 236.836 1989.28 236.836 Q1991.64 236.836 1993.72 237.184 Q1995.81 237.531 1997.56 238.225 Z" fill="#000000" fill-rule="evenodd" fill-opacity="1" /><path clip-path="url(#clip120)" d="M2019.18 232.901 L2007.38 251.35 L2019.18 251.35 L2019.18 232.901 M2017.96 228.827 L2023.84 228.827 L2023.84 251.35 L2028.77 251.35 L2028.77 255.239 L2023.84 255.239 L2023.84 263.387 L2019.18 263.387 L2019.18 255.239 L2003.58 255.239 L2003.58 250.725 L2017.96 228.827 Z" fill="#000000" fill-rule="evenodd" fill-opacity="1" /><path clip-path="url(#clip120)" d="M2040.76 232.67 L2040.76 245.656 L2046.64 245.656 Q2049.9 245.656 2051.68 243.966 Q2053.47 242.276 2053.47 239.151 Q2053.47 236.049 2051.68 234.36 Q2049.9 232.67 2046.64 232.67 L2040.76 232.67 M2036.08 228.827 L2046.64 228.827 Q2052.45 228.827 2055.41 231.466 Q2058.4 234.082 2058.4 239.151 Q2058.4 244.267 2055.41 246.883 Q2052.45 249.498 2046.64 249.498 L2040.76 249.498 L2040.76 263.387 L2036.08 263.387 L2036.08 228.827 Z" fill="#000000" fill-rule="evenodd" fill-opacity="1" /><polyline clip-path="url(#clip120)" style="stroke:#c271d2; stroke-linecap:butt; stroke-linejoin:round; stroke-width:4; stroke-opacity:1; fill:none" points="
  1706.25,297.947 1839.98,297.947 
  "/>
<path clip-path="url(#clip120)" d="M1773.11 272.347 L1747.51 297.947 L1773.11 323.547 L1798.71 297.947 L1773.11 272.347 Z" fill="#c271d2" fill-rule="evenodd" fill-opacity="1" stroke="#000000" stroke-opacity="1" stroke-width="4.9152"/>
<path clip-path="url(#clip120)" d="M1890.13 283.329 L1890.13 288.26 Q1887.77 286.061 1885.09 284.973 Q1882.43 283.885 1879.42 283.885 Q1873.49 283.885 1870.34 287.519 Q1867.19 291.13 1867.19 297.982 Q1867.19 304.811 1870.34 308.445 Q1873.49 312.056 1879.42 312.056 Q1882.43 312.056 1885.09 310.968 Q1887.77 309.88 1890.13 307.681 L1890.13 312.565 Q1887.68 314.232 1884.93 315.065 Q1882.19 315.898 1879.14 315.898 Q1871.29 315.898 1866.78 311.107 Q1862.26 306.292 1862.26 297.982 Q1862.26 289.649 1866.78 284.857 Q1871.29 280.042 1879.14 280.042 Q1882.24 280.042 1884.97 280.876 Q1887.73 281.686 1890.13 283.329 Z" fill="#000000" fill-rule="evenodd" fill-opacity="1" /><path clip-path="url(#clip120)" d="M1906.27 315.227 L1893.07 280.667 L1897.96 280.667 L1908.91 309.764 L1919.88 280.667 L1924.74 280.667 L1911.57 315.227 L1906.27 315.227 Z" fill="#000000" fill-rule="evenodd" fill-opacity="1" /><path clip-path="url(#clip120)" d="M1942.98 283.838 Q1937.89 283.838 1934.88 287.635 Q1931.89 291.431 1931.89 297.982 Q1931.89 304.51 1934.88 308.306 Q1937.89 312.102 1942.98 312.102 Q1948.07 312.102 1951.04 308.306 Q1954.02 304.51 1954.02 297.982 Q1954.02 291.431 1951.04 287.635 Q1948.07 283.838 1942.98 283.838 M1942.98 280.042 Q1950.25 280.042 1954.6 284.926 Q1958.95 289.788 1958.95 297.982 Q1958.95 306.153 1954.6 311.037 Q1950.25 315.898 1942.98 315.898 Q1935.69 315.898 1931.32 311.037 Q1926.96 306.176 1926.96 297.982 Q1926.96 289.788 1931.32 284.926 Q1935.69 280.042 1942.98 280.042 Z" fill="#000000" fill-rule="evenodd" fill-opacity="1" /><path clip-path="url(#clip120)" d="M1970.94 284.51 L1970.94 311.385 L1976.59 311.385 Q1983.75 311.385 1987.06 308.144 Q1990.39 304.903 1990.39 297.912 Q1990.39 290.968 1987.06 287.75 Q1983.75 284.51 1976.59 284.51 L1970.94 284.51 M1966.27 280.667 L1975.87 280.667 Q1985.92 280.667 1990.62 284.857 Q1995.32 289.024 1995.32 297.912 Q1995.32 306.848 1990.6 311.037 Q1985.87 315.227 1975.87 315.227 L1966.27 315.227 L1966.27 280.667 Z" fill="#000000" fill-rule="evenodd" fill-opacity="1" /><path clip-path="url(#clip120)" d="M2002.77 280.667 L2024.62 280.667 L2024.62 284.602 L2007.45 284.602 L2007.45 294.834 L2023.91 294.834 L2023.91 298.769 L2007.45 298.769 L2007.45 311.292 L2025.04 311.292 L2025.04 315.227 L2002.77 315.227 L2002.77 280.667 Z" fill="#000000" fill-rule="evenodd" fill-opacity="1" /><path clip-path="url(#clip120)" d="M2052.24 323.098 L2052.24 326.408 L2027.61 326.408 L2027.61 323.098 L2052.24 323.098 Z" fill="#000000" fill-rule="evenodd" fill-opacity="1" /><path clip-path="url(#clip120)" d="M2061.11 298.723 L2061.11 311.385 L2068.61 311.385 Q2072.38 311.385 2074.18 309.834 Q2076.01 308.26 2076.01 305.042 Q2076.01 301.801 2074.18 300.274 Q2072.38 298.723 2068.61 298.723 L2061.11 298.723 M2061.11 284.51 L2061.11 294.926 L2068.03 294.926 Q2071.45 294.926 2073.12 293.653 Q2074.81 292.357 2074.81 289.718 Q2074.81 287.102 2073.12 285.806 Q2071.45 284.51 2068.03 284.51 L2061.11 284.51 M2056.43 280.667 L2068.37 280.667 Q2073.72 280.667 2076.62 282.889 Q2079.51 285.112 2079.51 289.209 Q2079.51 292.38 2078.03 294.255 Q2076.55 296.13 2073.68 296.593 Q2077.12 297.334 2079.02 299.695 Q2080.94 302.033 2080.94 305.551 Q2080.94 310.181 2077.8 312.704 Q2074.65 315.227 2068.84 315.227 L2056.43 315.227 L2056.43 280.667 Z" fill="#000000" fill-rule="evenodd" fill-opacity="1" /><path clip-path="url(#clip120)" d="M2093.63 284.51 L2093.63 311.385 L2099.28 311.385 Q2106.43 311.385 2109.74 308.144 Q2113.07 304.903 2113.07 297.912 Q2113.07 290.968 2109.74 287.75 Q2106.43 284.51 2099.28 284.51 L2093.63 284.51 M2088.95 280.667 L2098.56 280.667 Q2108.61 280.667 2113.3 284.857 Q2118 289.024 2118 297.912 Q2118 306.848 2113.28 311.037 Q2108.56 315.227 2098.56 315.227 L2088.95 315.227 L2088.95 280.667 Z" fill="#000000" fill-rule="evenodd" fill-opacity="1" /><path clip-path="url(#clip120)" d="M2125.46 280.667 L2145.32 280.667 L2145.32 284.602 L2130.13 284.602 L2130.13 294.787 L2143.84 294.787 L2143.84 298.723 L2130.13 298.723 L2130.13 315.227 L2125.46 315.227 L2125.46 280.667 Z" fill="#000000" fill-rule="evenodd" fill-opacity="1" /><polyline clip-path="url(#clip120)" style="stroke:#ac8d18; stroke-linecap:butt; stroke-linejoin:round; stroke-width:4; stroke-opacity:1; fill:none" points="
  1706.25,349.787 1839.98,349.787 
  "/>
<path clip-path="url(#clip120)" d="M1798.71 324.187 L1747.51 324.187 L1773.11 375.387 L1798.71 324.187 Z" fill="#ac8d18" fill-rule="evenodd" fill-opacity="1" stroke="#000000" stroke-opacity="1" stroke-width="4.9152"/>
<path clip-path="url(#clip120)" d="M1881.18 345.077 L1881.18 331.049 L1885.44 331.049 L1885.44 367.067 L1881.18 367.067 L1881.18 363.178 Q1879.83 365.493 1877.77 366.627 Q1875.74 367.738 1872.87 367.738 Q1868.17 367.738 1865.2 363.988 Q1862.26 360.239 1862.26 354.127 Q1862.26 348.016 1865.2 344.266 Q1868.17 340.516 1872.87 340.516 Q1875.74 340.516 1877.77 341.651 Q1879.83 342.762 1881.18 345.077 M1866.66 354.127 Q1866.66 358.826 1868.58 361.512 Q1870.53 364.174 1873.91 364.174 Q1877.29 364.174 1879.23 361.512 Q1881.18 358.826 1881.18 354.127 Q1881.18 349.428 1879.23 346.766 Q1877.29 344.081 1873.91 344.081 Q1870.53 344.081 1868.58 346.766 Q1866.66 349.428 1866.66 354.127 Z" fill="#000000" fill-rule="evenodd" fill-opacity="1" /><path clip-path="url(#clip120)" d="M1911.27 345.077 L1911.27 331.049 L1915.53 331.049 L1915.53 367.067 L1911.27 367.067 L1911.27 363.178 Q1909.93 365.493 1907.87 366.627 Q1905.83 367.738 1902.96 367.738 Q1898.26 367.738 1895.3 363.988 Q1892.36 360.239 1892.36 354.127 Q1892.36 348.016 1895.3 344.266 Q1898.26 340.516 1902.96 340.516 Q1905.83 340.516 1907.87 341.651 Q1909.93 342.762 1911.27 345.077 M1896.76 354.127 Q1896.76 358.826 1898.68 361.512 Q1900.62 364.174 1904 364.174 Q1907.38 364.174 1909.32 361.512 Q1911.27 358.826 1911.27 354.127 Q1911.27 349.428 1909.32 346.766 Q1907.38 344.081 1904 344.081 Q1900.62 344.081 1898.68 346.766 Q1896.76 349.428 1896.76 354.127 Z" fill="#000000" fill-rule="evenodd" fill-opacity="1" /><path clip-path="url(#clip120)" d="M1946.48 353.039 L1946.48 355.123 L1926.89 355.123 Q1927.17 359.521 1929.53 361.836 Q1931.92 364.127 1936.15 364.127 Q1938.61 364.127 1940.9 363.526 Q1943.21 362.924 1945.48 361.72 L1945.48 365.748 Q1943.19 366.72 1940.78 367.229 Q1938.38 367.738 1935.9 367.738 Q1929.69 367.738 1926.06 364.127 Q1922.45 360.516 1922.45 354.359 Q1922.45 347.993 1925.88 344.266 Q1929.32 340.516 1935.16 340.516 Q1940.39 340.516 1943.42 343.896 Q1946.48 347.252 1946.48 353.039 M1942.22 351.789 Q1942.17 348.294 1940.25 346.211 Q1938.35 344.127 1935.2 344.127 Q1931.64 344.127 1929.49 346.141 Q1927.36 348.155 1927.03 351.813 L1942.22 351.789 Z" fill="#000000" fill-rule="evenodd" fill-opacity="1" /><path clip-path="url(#clip120)" d="M1972.08 354.127 Q1972.08 349.428 1970.13 346.766 Q1968.21 344.081 1964.83 344.081 Q1961.45 344.081 1959.51 346.766 Q1957.59 349.428 1957.59 354.127 Q1957.59 358.826 1959.51 361.512 Q1961.45 364.174 1964.83 364.174 Q1968.21 364.174 1970.13 361.512 Q1972.08 358.826 1972.08 354.127 M1957.59 345.077 Q1958.93 342.762 1960.97 341.651 Q1963.03 340.516 1965.88 340.516 Q1970.6 340.516 1973.54 344.266 Q1976.5 348.016 1976.5 354.127 Q1976.5 360.239 1973.54 363.988 Q1970.6 367.738 1965.88 367.738 Q1963.03 367.738 1960.97 366.627 Q1958.93 365.493 1957.59 363.178 L1957.59 367.067 L1953.31 367.067 L1953.31 331.049 L1957.59 331.049 L1957.59 345.077 Z" fill="#000000" fill-rule="evenodd" fill-opacity="1" /><path clip-path="url(#clip120)" d="M2000.62 345.077 L2000.62 331.049 L2004.88 331.049 L2004.88 367.067 L2000.62 367.067 L2000.62 363.178 Q1999.28 365.493 1997.22 366.627 Q1995.18 367.738 1992.31 367.738 Q1987.61 367.738 1984.65 363.988 Q1981.71 360.239 1981.71 354.127 Q1981.71 348.016 1984.65 344.266 Q1987.61 340.516 1992.31 340.516 Q1995.18 340.516 1997.22 341.651 Q1999.28 342.762 2000.62 345.077 M1986.11 354.127 Q1986.11 358.826 1988.03 361.512 Q1989.97 364.174 1993.35 364.174 Q1996.73 364.174 1998.68 361.512 Q2000.62 358.826 2000.62 354.127 Q2000.62 349.428 1998.68 346.766 Q1996.73 344.081 1993.35 344.081 Q1989.97 344.081 1988.03 346.766 Q1986.11 349.428 1986.11 354.127 Z" fill="#000000" fill-rule="evenodd" fill-opacity="1" /><path clip-path="url(#clip120)" d="M2026.78 331.049 L2026.78 334.591 L2022.7 334.591 Q2020.41 334.591 2019.51 335.516 Q2018.63 336.442 2018.63 338.85 L2018.63 341.141 L2025.64 341.141 L2025.64 344.452 L2018.63 344.452 L2018.63 367.067 L2014.35 367.067 L2014.35 344.452 L2010.27 344.452 L2010.27 341.141 L2014.35 341.141 L2014.35 339.336 Q2014.35 335.007 2016.36 333.04 Q2018.37 331.049 2022.75 331.049 L2026.78 331.049 Z" fill="#000000" fill-rule="evenodd" fill-opacity="1" /><polyline clip-path="url(#clip120)" style="stroke:#00a9ad; stroke-linecap:butt; stroke-linejoin:round; stroke-width:4; stroke-opacity:1; fill:none" points="
  1706.25,401.627 1839.98,401.627 
  "/>
<path clip-path="url(#clip120)" d="M1773.11 376.027 L1753.1 385.678 L1748.15 407.336 L1762 424.693 L1784.22 424.693 L1798.07 407.336 L1793.13 385.678 Z" fill="#00a9ad" fill-rule="evenodd" fill-opacity="1" stroke="#000000" stroke-opacity="1" stroke-width="4.9152"/>
<path clip-path="url(#clip120)" d="M1878.65 402.704 Q1880.16 403.213 1881.57 404.879 Q1883.01 406.546 1884.44 409.463 L1889.19 418.907 L1884.16 418.907 L1879.74 410.041 Q1878.03 406.569 1876.41 405.435 Q1874.81 404.301 1872.03 404.301 L1866.94 404.301 L1866.94 418.907 L1862.26 418.907 L1862.26 384.347 L1872.82 384.347 Q1878.75 384.347 1881.66 386.824 Q1884.58 389.301 1884.58 394.301 Q1884.58 397.565 1883.05 399.717 Q1881.55 401.87 1878.65 402.704 M1866.94 388.19 L1866.94 400.458 L1872.82 400.458 Q1876.2 400.458 1877.91 398.907 Q1879.65 397.333 1879.65 394.301 Q1879.65 391.268 1877.91 389.741 Q1876.2 388.19 1872.82 388.19 L1866.94 388.19 Z" fill="#000000" fill-rule="evenodd" fill-opacity="1" /><path clip-path="url(#clip120)" d="M1902.94 395.967 Q1899.51 395.967 1897.52 398.653 Q1895.53 401.315 1895.53 405.967 Q1895.53 410.62 1897.5 413.305 Q1899.49 415.967 1902.94 415.967 Q1906.34 415.967 1908.33 413.282 Q1910.32 410.597 1910.32 405.967 Q1910.32 401.361 1908.33 398.676 Q1906.34 395.967 1902.94 395.967 M1902.94 392.356 Q1908.49 392.356 1911.66 395.967 Q1914.83 399.579 1914.83 405.967 Q1914.83 412.333 1911.66 415.967 Q1908.49 419.578 1902.94 419.578 Q1897.36 419.578 1894.19 415.967 Q1891.04 412.333 1891.04 405.967 Q1891.04 399.579 1894.19 395.967 Q1897.36 392.356 1902.94 392.356 Z" fill="#000000" fill-rule="evenodd" fill-opacity="1" /><path clip-path="url(#clip120)" d="M1938.95 396.917 L1938.95 382.889 L1943.21 382.889 L1943.21 418.907 L1938.95 418.907 L1938.95 415.018 Q1937.61 417.333 1935.55 418.467 Q1933.51 419.578 1930.64 419.578 Q1925.94 419.578 1922.98 415.828 Q1920.04 412.079 1920.04 405.967 Q1920.04 399.856 1922.98 396.106 Q1925.94 392.356 1930.64 392.356 Q1933.51 392.356 1935.55 393.491 Q1937.61 394.602 1938.95 396.917 M1924.44 405.967 Q1924.44 410.666 1926.36 413.352 Q1928.31 416.014 1931.69 416.014 Q1935.06 416.014 1937.01 413.352 Q1938.95 410.666 1938.95 405.967 Q1938.95 401.268 1937.01 398.606 Q1935.06 395.921 1931.69 395.921 Q1928.31 395.921 1926.36 398.606 Q1924.44 401.268 1924.44 405.967 Z" fill="#000000" fill-rule="evenodd" fill-opacity="1" /><path clip-path="url(#clip120)" d="M1963.77 405.875 Q1958.61 405.875 1956.62 407.055 Q1954.63 408.236 1954.63 411.083 Q1954.63 413.352 1956.11 414.694 Q1957.61 416.014 1960.18 416.014 Q1963.72 416.014 1965.85 413.514 Q1968 410.991 1968 406.824 L1968 405.875 L1963.77 405.875 M1972.26 404.116 L1972.26 418.907 L1968 418.907 L1968 414.972 Q1966.55 417.333 1964.37 418.467 Q1962.19 419.578 1959.05 419.578 Q1955.06 419.578 1952.7 417.356 Q1950.37 415.111 1950.37 411.361 Q1950.37 406.986 1953.28 404.764 Q1956.22 402.542 1962.03 402.542 L1968 402.542 L1968 402.125 Q1968 399.185 1966.06 397.588 Q1964.14 395.967 1960.64 395.967 Q1958.42 395.967 1956.31 396.5 Q1954.21 397.032 1952.26 398.097 L1952.26 394.162 Q1954.6 393.259 1956.8 392.819 Q1959 392.356 1961.08 392.356 Q1966.71 392.356 1969.49 395.273 Q1972.26 398.19 1972.26 404.116 Z" fill="#000000" fill-rule="evenodd" fill-opacity="1" /><path clip-path="url(#clip120)" d="M1997.56 393.745 L1997.56 397.773 Q1995.76 396.847 1993.81 396.384 Q1991.87 395.921 1989.79 395.921 Q1986.62 395.921 1985.02 396.893 Q1983.44 397.866 1983.44 399.81 Q1983.44 401.292 1984.58 402.148 Q1985.71 402.981 1989.14 403.745 L1990.6 404.069 Q1995.13 405.042 1997.03 406.824 Q1998.95 408.583 1998.95 411.754 Q1998.95 415.366 1996.08 417.472 Q1993.24 419.578 1988.24 419.578 Q1986.15 419.578 1983.88 419.162 Q1981.64 418.768 1979.14 417.958 L1979.14 413.56 Q1981.5 414.787 1983.79 415.412 Q1986.08 416.014 1988.33 416.014 Q1991.34 416.014 1992.96 414.995 Q1994.58 413.954 1994.58 412.079 Q1994.58 410.342 1993.4 409.416 Q1992.24 408.491 1988.28 407.634 L1986.8 407.287 Q1982.84 406.454 1981.08 404.741 Q1979.32 403.004 1979.32 399.995 Q1979.32 396.338 1981.92 394.347 Q1984.51 392.356 1989.28 392.356 Q1991.64 392.356 1993.72 392.704 Q1995.81 393.051 1997.56 393.745 Z" fill="#000000" fill-rule="evenodd" fill-opacity="1" /><path clip-path="url(#clip120)" d="M2019.18 388.421 L2007.38 406.87 L2019.18 406.87 L2019.18 388.421 M2017.96 384.347 L2023.84 384.347 L2023.84 406.87 L2028.77 406.87 L2028.77 410.759 L2023.84 410.759 L2023.84 418.907 L2019.18 418.907 L2019.18 410.759 L2003.58 410.759 L2003.58 406.245 L2017.96 384.347 Z" fill="#000000" fill-rule="evenodd" fill-opacity="1" /><polyline clip-path="url(#clip120)" style="stroke:#ed5d92; stroke-linecap:butt; stroke-linejoin:round; stroke-width:4; stroke-opacity:1; fill:none" points="
  1706.25,453.467 1839.98,453.467 
  "/>
<path clip-path="url(#clip120)" d="M1773.11 479.067 L1750.94 466.267 L1750.94 440.667 L1773.11 427.867 L1795.28 440.667 L1795.28 466.267 Z" fill="#ed5d92" fill-rule="evenodd" fill-opacity="1" stroke="#000000" stroke-opacity="1" stroke-width="4.9152"/>
<path clip-path="url(#clip120)" d="M1877.45 448.803 Q1876.73 448.386 1875.88 448.201 Q1875.04 447.993 1874.02 447.993 Q1870.41 447.993 1868.47 450.354 Q1866.55 452.692 1866.55 457.09 L1866.55 470.747 L1862.26 470.747 L1862.26 444.821 L1866.55 444.821 L1866.55 448.849 Q1867.89 446.488 1870.04 445.354 Q1872.19 444.196 1875.27 444.196 Q1875.71 444.196 1876.25 444.266 Q1876.78 444.312 1877.43 444.428 L1877.45 448.803 Z" fill="#000000" fill-rule="evenodd" fill-opacity="1" /><path clip-path="url(#clip120)" d="M1890.92 447.807 Q1887.5 447.807 1885.51 450.493 Q1883.51 453.155 1883.51 457.807 Q1883.51 462.46 1885.48 465.145 Q1887.47 467.807 1890.92 467.807 Q1894.32 467.807 1896.32 465.122 Q1898.31 462.437 1898.31 457.807 Q1898.31 453.201 1896.32 450.516 Q1894.32 447.807 1890.92 447.807 M1890.92 444.196 Q1896.48 444.196 1899.65 447.807 Q1902.82 451.419 1902.82 457.807 Q1902.82 464.173 1899.65 467.807 Q1896.48 471.418 1890.92 471.418 Q1885.34 471.418 1882.17 467.807 Q1879.02 464.173 1879.02 457.807 Q1879.02 451.419 1882.17 447.807 Q1885.34 444.196 1890.92 444.196 Z" fill="#000000" fill-rule="evenodd" fill-opacity="1" /><path clip-path="url(#clip120)" d="M1926.94 448.757 L1926.94 434.729 L1931.2 434.729 L1931.2 470.747 L1926.94 470.747 L1926.94 466.858 Q1925.6 469.173 1923.54 470.307 Q1921.5 471.418 1918.63 471.418 Q1913.93 471.418 1910.97 467.668 Q1908.03 463.919 1908.03 457.807 Q1908.03 451.696 1910.97 447.946 Q1913.93 444.196 1918.63 444.196 Q1921.5 444.196 1923.54 445.331 Q1925.6 446.442 1926.94 448.757 M1912.43 457.807 Q1912.43 462.506 1914.35 465.192 Q1916.29 467.854 1919.67 467.854 Q1923.05 467.854 1925 465.192 Q1926.94 462.506 1926.94 457.807 Q1926.94 453.108 1925 450.446 Q1923.05 447.761 1919.67 447.761 Q1916.29 447.761 1914.35 450.446 Q1912.43 453.108 1912.43 457.807 Z" fill="#000000" fill-rule="evenodd" fill-opacity="1" /><path clip-path="url(#clip120)" d="M1951.75 457.715 Q1946.59 457.715 1944.6 458.895 Q1942.61 460.076 1942.61 462.923 Q1942.61 465.192 1944.09 466.534 Q1945.6 467.854 1948.17 467.854 Q1951.71 467.854 1953.84 465.354 Q1955.99 462.831 1955.99 458.664 L1955.99 457.715 L1951.75 457.715 M1960.25 455.956 L1960.25 470.747 L1955.99 470.747 L1955.99 466.812 Q1954.53 469.173 1952.36 470.307 Q1950.18 471.418 1947.03 471.418 Q1943.05 471.418 1940.69 469.196 Q1938.35 466.951 1938.35 463.201 Q1938.35 458.826 1941.27 456.604 Q1944.21 454.382 1950.02 454.382 L1955.99 454.382 L1955.99 453.965 Q1955.99 451.025 1954.05 449.428 Q1952.13 447.807 1948.63 447.807 Q1946.41 447.807 1944.3 448.34 Q1942.19 448.872 1940.25 449.937 L1940.25 446.002 Q1942.59 445.099 1944.79 444.659 Q1946.99 444.196 1949.07 444.196 Q1954.69 444.196 1957.47 447.113 Q1960.25 450.03 1960.25 455.956 Z" fill="#000000" fill-rule="evenodd" fill-opacity="1" /><path clip-path="url(#clip120)" d="M1985.55 445.585 L1985.55 449.613 Q1983.75 448.687 1981.8 448.224 Q1979.86 447.761 1977.77 447.761 Q1974.6 447.761 1973 448.733 Q1971.43 449.706 1971.43 451.65 Q1971.43 453.132 1972.56 453.988 Q1973.7 454.821 1977.12 455.585 L1978.58 455.909 Q1983.12 456.882 1985.02 458.664 Q1986.94 460.423 1986.94 463.594 Q1986.94 467.206 1984.07 469.312 Q1981.22 471.418 1976.22 471.418 Q1974.14 471.418 1971.87 471.002 Q1969.62 470.608 1967.12 469.798 L1967.12 465.4 Q1969.49 466.627 1971.78 467.252 Q1974.07 467.854 1976.31 467.854 Q1979.32 467.854 1980.94 466.835 Q1982.56 465.794 1982.56 463.919 Q1982.56 462.182 1981.38 461.256 Q1980.23 460.331 1976.27 459.474 L1974.79 459.127 Q1970.83 458.294 1969.07 456.581 Q1967.31 454.844 1967.31 451.835 Q1967.31 448.178 1969.9 446.187 Q1972.5 444.196 1977.26 444.196 Q1979.62 444.196 1981.71 444.544 Q1983.79 444.891 1985.55 445.585 Z" fill="#000000" fill-rule="evenodd" fill-opacity="1" /><polyline clip-path="url(#clip120)" style="stroke:#c68125; stroke-linecap:butt; stroke-linejoin:round; stroke-width:4; stroke-opacity:1; fill:none" points="
  1706.25,505.307 1839.98,505.307 
  "/>
<line clip-path="url(#clip120)" x1="1798.71" y1="505.307" x2="1747.51" y2="505.307" style="stroke:#c68125; stroke-width:4.9152; stroke-opacity:1"/>
<path clip-path="url(#clip120)" d="M1877.45 500.643 Q1876.73 500.226 1875.88 500.041 Q1875.04 499.833 1874.02 499.833 Q1870.41 499.833 1868.47 502.194 Q1866.55 504.532 1866.55 508.93 L1866.55 522.587 L1862.26 522.587 L1862.26 496.661 L1866.55 496.661 L1866.55 500.689 Q1867.89 498.328 1870.04 497.194 Q1872.19 496.036 1875.27 496.036 Q1875.71 496.036 1876.25 496.106 Q1876.78 496.152 1877.43 496.268 L1877.45 500.643 Z" fill="#000000" fill-rule="evenodd" fill-opacity="1" /><path clip-path="url(#clip120)" d="M1893.7 509.555 Q1888.54 509.555 1886.55 510.735 Q1884.56 511.916 1884.56 514.763 Q1884.56 517.032 1886.04 518.374 Q1887.54 519.694 1890.11 519.694 Q1893.65 519.694 1895.78 517.194 Q1897.94 514.671 1897.94 510.504 L1897.94 509.555 L1893.7 509.555 M1902.19 507.796 L1902.19 522.587 L1897.94 522.587 L1897.94 518.652 Q1896.48 521.013 1894.3 522.147 Q1892.13 523.258 1888.98 523.258 Q1885 523.258 1882.63 521.036 Q1880.3 518.791 1880.3 515.041 Q1880.3 510.666 1883.21 508.444 Q1886.15 506.222 1891.96 506.222 L1897.94 506.222 L1897.94 505.805 Q1897.94 502.865 1895.99 501.268 Q1894.07 499.647 1890.57 499.647 Q1888.35 499.647 1886.25 500.18 Q1884.14 500.712 1882.19 501.777 L1882.19 497.842 Q1884.53 496.939 1886.73 496.499 Q1888.93 496.036 1891.01 496.036 Q1896.64 496.036 1899.42 498.953 Q1902.19 501.87 1902.19 507.796 Z" fill="#000000" fill-rule="evenodd" fill-opacity="1" /><path clip-path="url(#clip120)" d="M1928.03 500.597 L1928.03 486.569 L1932.29 486.569 L1932.29 522.587 L1928.03 522.587 L1928.03 518.698 Q1926.69 521.013 1924.63 522.147 Q1922.59 523.258 1919.72 523.258 Q1915.02 523.258 1912.06 519.508 Q1909.12 515.759 1909.12 509.647 Q1909.12 503.536 1912.06 499.786 Q1915.02 496.036 1919.72 496.036 Q1922.59 496.036 1924.63 497.171 Q1926.69 498.282 1928.03 500.597 M1913.51 509.647 Q1913.51 514.346 1915.44 517.032 Q1917.38 519.694 1920.76 519.694 Q1924.14 519.694 1926.08 517.032 Q1928.03 514.346 1928.03 509.647 Q1928.03 504.948 1926.08 502.286 Q1924.14 499.601 1920.76 499.601 Q1917.38 499.601 1915.44 502.286 Q1913.51 504.948 1913.51 509.647 Z" fill="#000000" fill-rule="evenodd" fill-opacity="1" /><path clip-path="url(#clip120)" d="M1952.84 509.555 Q1947.68 509.555 1945.69 510.735 Q1943.7 511.916 1943.7 514.763 Q1943.7 517.032 1945.18 518.374 Q1946.69 519.694 1949.25 519.694 Q1952.8 519.694 1954.93 517.194 Q1957.08 514.671 1957.08 510.504 L1957.08 509.555 L1952.84 509.555 M1961.34 507.796 L1961.34 522.587 L1957.08 522.587 L1957.08 518.652 Q1955.62 521.013 1953.44 522.147 Q1951.27 523.258 1948.12 523.258 Q1944.14 523.258 1941.78 521.036 Q1939.44 518.791 1939.44 515.041 Q1939.44 510.666 1942.36 508.444 Q1945.3 506.222 1951.11 506.222 L1957.08 506.222 L1957.08 505.805 Q1957.08 502.865 1955.13 501.268 Q1953.21 499.647 1949.72 499.647 Q1947.5 499.647 1945.39 500.18 Q1943.28 500.712 1941.34 501.777 L1941.34 497.842 Q1943.68 496.939 1945.88 496.499 Q1948.07 496.036 1950.16 496.036 Q1955.78 496.036 1958.56 498.953 Q1961.34 501.87 1961.34 507.796 Z" fill="#000000" fill-rule="evenodd" fill-opacity="1" /><path clip-path="url(#clip120)" d="M1969.67 512.356 L1969.67 496.661 L1973.93 496.661 L1973.93 512.194 Q1973.93 515.874 1975.37 517.726 Q1976.8 519.555 1979.67 519.555 Q1983.12 519.555 1985.11 517.356 Q1987.12 515.157 1987.12 511.36 L1987.12 496.661 L1991.38 496.661 L1991.38 522.587 L1987.12 522.587 L1987.12 518.606 Q1985.57 520.967 1983.51 522.124 Q1981.48 523.258 1978.77 523.258 Q1974.3 523.258 1971.99 520.481 Q1969.67 517.703 1969.67 512.356 M1980.39 496.036 L1980.39 496.036 Z" fill="#000000" fill-rule="evenodd" fill-opacity="1" /><polyline clip-path="url(#clip120)" style="stroke:#00a98d; stroke-linecap:butt; stroke-linejoin:round; stroke-width:4; stroke-opacity:1; fill:none" points="
  1706.25,557.147 1839.98,557.147 
  "/>
<path clip-path="url(#clip120)" d="M1752.63 557.147 L1783.35 575.067 L1783.35 539.227 L1752.63 557.147 Z" fill="#00a98d" fill-rule="evenodd" fill-opacity="1" stroke="#000000" stroke-opacity="1" stroke-width="4.9152"/>
<path clip-path="url(#clip120)" d="M1862.26 538.409 L1866.52 538.409 L1866.52 574.427 L1862.26 574.427 L1862.26 538.409 Z" fill="#000000" fill-rule="evenodd" fill-opacity="1" /><path clip-path="url(#clip120)" d="M1891.96 549.265 L1891.96 553.293 Q1890.16 552.367 1888.21 551.904 Q1886.27 551.441 1884.19 551.441 Q1881.01 551.441 1879.42 552.413 Q1877.84 553.386 1877.84 555.33 Q1877.84 556.812 1878.98 557.668 Q1880.11 558.501 1883.54 559.265 L1885 559.589 Q1889.53 560.562 1891.43 562.344 Q1893.35 564.103 1893.35 567.274 Q1893.35 570.886 1890.48 572.992 Q1887.63 575.098 1882.63 575.098 Q1880.55 575.098 1878.28 574.682 Q1876.04 574.288 1873.54 573.478 L1873.54 569.08 Q1875.9 570.307 1878.19 570.932 Q1880.48 571.534 1882.73 571.534 Q1885.74 571.534 1887.36 570.515 Q1888.98 569.474 1888.98 567.599 Q1888.98 565.862 1887.8 564.936 Q1886.64 564.011 1882.68 563.154 L1881.2 562.807 Q1877.24 561.974 1875.48 560.261 Q1873.72 558.524 1873.72 555.515 Q1873.72 551.858 1876.32 549.867 Q1878.91 547.876 1883.68 547.876 Q1886.04 547.876 1888.12 548.224 Q1890.2 548.571 1891.96 549.265 Z" fill="#000000" fill-rule="evenodd" fill-opacity="1" /><path clip-path="url(#clip120)" d="M1910.18 551.487 Q1906.75 551.487 1904.76 554.173 Q1902.77 556.835 1902.77 561.487 Q1902.77 566.14 1904.74 568.825 Q1906.73 571.487 1910.18 571.487 Q1913.58 571.487 1915.57 568.802 Q1917.57 566.117 1917.57 561.487 Q1917.57 556.881 1915.57 554.196 Q1913.58 551.487 1910.18 551.487 M1910.18 547.876 Q1915.74 547.876 1918.91 551.487 Q1922.08 555.099 1922.08 561.487 Q1922.08 567.853 1918.91 571.487 Q1915.74 575.098 1910.18 575.098 Q1904.6 575.098 1901.43 571.487 Q1898.28 567.853 1898.28 561.487 Q1898.28 555.099 1901.43 551.487 Q1904.6 547.876 1910.18 547.876 Z" fill="#000000" fill-rule="evenodd" fill-opacity="1" /><path clip-path="url(#clip120)" d="M1946.2 552.437 L1946.2 538.409 L1950.46 538.409 L1950.46 574.427 L1946.2 574.427 L1946.2 570.538 Q1944.86 572.853 1942.8 573.987 Q1940.76 575.098 1937.89 575.098 Q1933.19 575.098 1930.23 571.348 Q1927.29 567.599 1927.29 561.487 Q1927.29 555.376 1930.23 551.626 Q1933.19 547.876 1937.89 547.876 Q1940.76 547.876 1942.8 549.011 Q1944.86 550.122 1946.2 552.437 M1931.69 561.487 Q1931.69 566.186 1933.61 568.872 Q1935.55 571.534 1938.93 571.534 Q1942.31 571.534 1944.25 568.872 Q1946.2 566.186 1946.2 561.487 Q1946.2 556.788 1944.25 554.126 Q1942.31 551.441 1938.93 551.441 Q1935.55 551.441 1933.61 554.126 Q1931.69 556.788 1931.69 561.487 Z" fill="#000000" fill-rule="evenodd" fill-opacity="1" /><path clip-path="url(#clip120)" d="M1971.01 561.395 Q1965.85 561.395 1963.86 562.575 Q1961.87 563.756 1961.87 566.603 Q1961.87 568.872 1963.35 570.214 Q1964.86 571.534 1967.43 571.534 Q1970.97 571.534 1973.1 569.034 Q1975.25 566.511 1975.25 562.344 L1975.25 561.395 L1971.01 561.395 M1979.51 559.636 L1979.51 574.427 L1975.25 574.427 L1975.25 570.492 Q1973.79 572.853 1971.62 573.987 Q1969.44 575.098 1966.29 575.098 Q1962.31 575.098 1959.95 572.876 Q1957.61 570.631 1957.61 566.881 Q1957.61 562.506 1960.53 560.284 Q1963.47 558.062 1969.28 558.062 L1975.25 558.062 L1975.25 557.645 Q1975.25 554.705 1973.31 553.108 Q1971.38 551.487 1967.89 551.487 Q1965.67 551.487 1963.56 552.02 Q1961.45 552.552 1959.51 553.617 L1959.51 549.682 Q1961.85 548.779 1964.05 548.339 Q1966.25 547.876 1968.33 547.876 Q1973.95 547.876 1976.73 550.793 Q1979.51 553.71 1979.51 559.636 Z" fill="#000000" fill-rule="evenodd" fill-opacity="1" /></svg>
