<?xml version="1.0" encoding="utf-8"?>
<svg xmlns="http://www.w3.org/2000/svg" xmlns:xlink="http://www.w3.org/1999/xlink" width="576" height="384" viewBox="0 0 2304 1536">
<defs>
  <clipPath id="clip960">
    <rect x="0" y="0" width="2304" height="1536"/>
  </clipPath>
</defs>
<path clip-path="url(#clip960)" d="
M0 1536 L2304 1536 L2304 0 L0 0  Z
  " fill="#ffffff" fill-rule="evenodd" fill-opacity="1"/>
<defs>
  <clipPath id="clip961">
    <rect x="460" y="0" width="1614" height="1536"/>
  </clipPath>
</defs>
<path clip-path="url(#clip960)" d="
M288.291 1347.54 L2256.76 1347.54 L2256.76 47.2441 L288.291 47.2441  Z
  " fill="#ffffff" fill-rule="evenodd" fill-opacity="1"/>
<defs>
  <clipPath id="clip962">
    <rect x="288" y="47" width="1969" height="1301"/>
  </clipPath>
</defs>
<polyline clip-path="url(#clip962)" style="stroke:#000000; stroke-linecap:butt; stroke-linejoin:round; stroke-width:2; stroke-opacity:0.1; fill:none" points="
  376.972,1347.54 376.972,47.2441 
  "/>
<polyline clip-path="url(#clip962)" style="stroke:#000000; stroke-linecap:butt; stroke-linejoin:round; stroke-width:2; stroke-opacity:0.1; fill:none" points="
  1515.38,1347.54 1515.38,47.2441 
  "/>
<polyline clip-path="url(#clip960)" style="stroke:#000000; stroke-linecap:butt; stroke-linejoin:round; stroke-width:4; stroke-opacity:1; fill:none" points="
  288.291,1347.54 2256.76,1347.54 
  "/>
<polyline clip-path="url(#clip960)" style="stroke:#000000; stroke-linecap:butt; stroke-linejoin:round; stroke-width:4; stroke-opacity:1; fill:none" points="
  376.972,1347.54 376.972,1328.64 
  "/>
<polyline clip-path="url(#clip960)" style="stroke:#000000; stroke-linecap:butt; stroke-linejoin:round; stroke-width:4; stroke-opacity:1; fill:none" points="
  1515.38,1347.54 1515.38,1328.64 
  "/>
<path clip-path="url(#clip960)" d="M326.626 1420.89 L334.265 1420.89 L334.265 1394.53 L325.955 1396.19 L325.955 1391.94 L334.219 1390.27 L338.895 1390.27 L338.895 1420.89 L346.534 1420.89 L346.534 1424.83 L326.626 1424.83 L326.626 1420.89 Z" fill="#000000" fill-rule="evenodd" fill-opacity="1" /><path clip-path="url(#clip960)" d="M365.978 1393.35 Q362.367 1393.35 360.538 1396.91 Q358.733 1400.45 358.733 1407.58 Q358.733 1414.69 360.538 1418.25 Q362.367 1421.8 365.978 1421.8 Q369.612 1421.8 371.418 1418.25 Q373.246 1414.69 373.246 1407.58 Q373.246 1400.45 371.418 1396.91 Q369.612 1393.35 365.978 1393.35 M365.978 1389.64 Q371.788 1389.64 374.844 1394.25 Q377.922 1398.83 377.922 1407.58 Q377.922 1416.31 374.844 1420.92 Q371.788 1425.5 365.978 1425.5 Q360.168 1425.5 357.089 1420.92 Q354.034 1416.31 354.034 1407.58 Q354.034 1398.83 357.089 1394.25 Q360.168 1389.64 365.978 1389.64 Z" fill="#000000" fill-rule="evenodd" fill-opacity="1" /><path clip-path="url(#clip960)" d="M377.922 1383.74 L402.034 1383.74 L402.034 1386.94 L377.922 1386.94 L377.922 1383.74 Z" fill="#000000" fill-rule="evenodd" fill-opacity="1" /><path clip-path="url(#clip960)" d="M418.359 1384.08 Q415.651 1384.08 414.09 1385.53 Q412.548 1386.98 412.548 1389.52 Q412.548 1392.06 414.09 1393.51 Q415.651 1394.95 418.359 1394.95 Q421.067 1394.95 422.628 1393.51 Q424.19 1392.04 424.19 1389.52 Q424.19 1386.98 422.628 1385.53 Q421.086 1384.08 418.359 1384.08 M414.56 1382.47 Q412.115 1381.86 410.742 1380.19 Q409.388 1378.52 409.388 1376.11 Q409.388 1372.74 411.776 1370.79 Q414.184 1368.83 418.359 1368.83 Q422.553 1368.83 424.942 1370.79 Q427.33 1372.74 427.33 1376.11 Q427.33 1378.52 425.957 1380.19 Q424.603 1381.86 422.177 1382.47 Q424.923 1383.11 426.446 1384.97 Q427.989 1386.83 427.989 1389.52 Q427.989 1393.6 425.487 1395.78 Q423.005 1397.96 418.359 1397.96 Q413.714 1397.96 411.212 1395.78 Q408.73 1393.6 408.73 1389.52 Q408.73 1386.83 410.272 1384.97 Q411.814 1383.11 414.56 1382.47 M413.168 1376.47 Q413.168 1378.65 414.522 1379.87 Q415.895 1381.09 418.359 1381.09 Q420.804 1381.09 422.177 1379.87 Q423.569 1378.65 423.569 1376.47 Q423.569 1374.28 422.177 1373.06 Q420.804 1371.84 418.359 1371.84 Q415.895 1371.84 414.522 1373.06 Q413.168 1374.28 413.168 1376.47 Z" fill="#000000" fill-rule="evenodd" fill-opacity="1" /><path clip-path="url(#clip960)" d="M1464.93 1420.89 L1472.57 1420.89 L1472.57 1394.53 L1464.26 1396.19 L1464.26 1391.94 L1472.52 1390.27 L1477.2 1390.27 L1477.2 1420.89 L1484.84 1420.89 L1484.84 1424.83 L1464.93 1424.83 L1464.93 1420.89 Z" fill="#000000" fill-rule="evenodd" fill-opacity="1" /><path clip-path="url(#clip960)" d="M1504.28 1393.35 Q1500.67 1393.35 1498.84 1396.91 Q1497.04 1400.45 1497.04 1407.58 Q1497.04 1414.69 1498.84 1418.25 Q1500.67 1421.8 1504.28 1421.8 Q1507.92 1421.8 1509.72 1418.25 Q1511.55 1414.69 1511.55 1407.58 Q1511.55 1400.45 1509.72 1396.91 Q1507.92 1393.35 1504.28 1393.35 M1504.28 1389.64 Q1510.09 1389.64 1513.15 1394.25 Q1516.23 1398.83 1516.23 1407.58 Q1516.23 1416.31 1513.15 1420.92 Q1510.09 1425.5 1504.28 1425.5 Q1498.47 1425.5 1495.39 1420.92 Q1492.34 1416.31 1492.34 1407.58 Q1492.34 1398.83 1495.39 1394.25 Q1498.47 1389.64 1504.28 1389.64 Z" fill="#000000" fill-rule="evenodd" fill-opacity="1" /><path clip-path="url(#clip960)" d="M1516.23 1383.74 L1540.34 1383.74 L1540.34 1386.94 L1516.23 1386.94 L1516.23 1383.74 Z" fill="#000000" fill-rule="evenodd" fill-opacity="1" /><path clip-path="url(#clip960)" d="M1557.13 1381.86 Q1554.57 1381.86 1553.07 1383.61 Q1551.58 1385.36 1551.58 1388.41 Q1551.58 1391.44 1553.07 1393.21 Q1554.57 1394.95 1557.13 1394.95 Q1559.69 1394.95 1561.18 1393.21 Q1562.68 1391.44 1562.68 1388.41 Q1562.68 1385.36 1561.18 1383.61 Q1559.69 1381.86 1557.13 1381.86 M1564.67 1369.96 L1564.67 1373.42 Q1563.24 1372.74 1561.78 1372.39 Q1560.33 1372.03 1558.9 1372.03 Q1555.14 1372.03 1553.15 1374.57 Q1551.17 1377.11 1550.89 1382.24 Q1552 1380.6 1553.67 1379.74 Q1555.35 1378.85 1557.36 1378.85 Q1561.59 1378.85 1564.03 1381.43 Q1566.5 1383.99 1566.5 1388.41 Q1566.5 1392.74 1563.94 1395.35 Q1561.38 1397.96 1557.13 1397.96 Q1552.26 1397.96 1549.68 1394.24 Q1547.11 1390.5 1547.11 1383.41 Q1547.11 1376.75 1550.27 1372.8 Q1553.43 1368.83 1558.75 1368.83 Q1560.18 1368.83 1561.63 1369.11 Q1563.09 1369.39 1564.67 1369.96 Z" fill="#000000" fill-rule="evenodd" fill-opacity="1" /><path clip-path="url(#clip960)" d="M1196.28 1461.87 L1226.32 1461.87 L1226.32 1467.28 L1202.71 1467.28 L1202.71 1481.34 L1225.34 1481.34 L1225.34 1486.76 L1202.71 1486.76 L1202.71 1503.97 L1226.9 1503.97 L1226.9 1509.39 L1196.28 1509.39 L1196.28 1461.87 Z" fill="#000000" fill-rule="evenodd" fill-opacity="1" /><path clip-path="url(#clip960)" d="M1257.87 1479.21 Q1256.88 1478.64 1255.7 1478.38 Q1254.56 1478.1 1253.16 1478.1 Q1248.19 1478.1 1245.52 1481.34 Q1242.88 1484.56 1242.88 1490.61 L1242.88 1509.39 L1236.99 1509.39 L1236.99 1473.74 L1242.88 1473.74 L1242.88 1479.28 Q1244.72 1476.03 1247.68 1474.47 Q1250.64 1472.88 1254.87 1472.88 Q1255.48 1472.88 1256.21 1472.97 Q1256.94 1473.04 1257.83 1473.2 L1257.87 1479.21 Z" fill="#000000" fill-rule="evenodd" fill-opacity="1" /><path clip-path="url(#clip960)" d="M1283.52 1479.21 Q1282.53 1478.64 1281.36 1478.38 Q1280.21 1478.1 1278.81 1478.1 Q1273.84 1478.1 1271.17 1481.34 Q1268.53 1484.56 1268.53 1490.61 L1268.53 1509.39 L1262.64 1509.39 L1262.64 1473.74 L1268.53 1473.74 L1268.53 1479.28 Q1270.38 1476.03 1273.34 1474.47 Q1276.3 1472.88 1280.53 1472.88 Q1281.13 1472.88 1281.87 1472.97 Q1282.6 1473.04 1283.49 1473.2 L1283.52 1479.21 Z" fill="#000000" fill-rule="evenodd" fill-opacity="1" /><path clip-path="url(#clip960)" d="M1302.04 1477.84 Q1297.33 1477.84 1294.6 1481.54 Q1291.86 1485.2 1291.86 1491.59 Q1291.86 1497.99 1294.56 1501.68 Q1297.3 1505.34 1302.04 1505.34 Q1306.72 1505.34 1309.46 1501.65 Q1312.2 1497.96 1312.2 1491.59 Q1312.2 1485.26 1309.46 1481.57 Q1306.72 1477.84 1302.04 1477.84 M1302.04 1472.88 Q1309.68 1472.88 1314.04 1477.84 Q1318.4 1482.81 1318.4 1491.59 Q1318.4 1500.35 1314.04 1505.34 Q1309.68 1510.31 1302.04 1510.31 Q1294.37 1510.31 1290.01 1505.34 Q1285.68 1500.35 1285.68 1491.59 Q1285.68 1482.81 1290.01 1477.84 Q1294.37 1472.88 1302.04 1472.88 Z" fill="#000000" fill-rule="evenodd" fill-opacity="1" /><path clip-path="url(#clip960)" d="M1348.77 1479.21 Q1347.78 1478.64 1346.6 1478.38 Q1345.46 1478.1 1344.06 1478.1 Q1339.09 1478.1 1336.42 1481.34 Q1333.78 1484.56 1333.78 1490.61 L1333.78 1509.39 L1327.89 1509.39 L1327.89 1473.74 L1333.78 1473.74 L1333.78 1479.28 Q1335.62 1476.03 1338.58 1474.47 Q1341.54 1472.88 1345.78 1472.88 Q1346.38 1472.88 1347.11 1472.97 Q1347.85 1473.04 1348.74 1473.2 L1348.77 1479.21 Z" fill="#000000" fill-rule="evenodd" fill-opacity="1" /><polyline clip-path="url(#clip962)" style="stroke:#000000; stroke-linecap:butt; stroke-linejoin:round; stroke-width:2; stroke-opacity:0.1; fill:none" points="
  288.291,924.494 2256.76,924.494 
  "/>
<polyline clip-path="url(#clip962)" style="stroke:#000000; stroke-linecap:butt; stroke-linejoin:round; stroke-width:2; stroke-opacity:0.1; fill:none" points="
  288.291,410.966 2256.76,410.966 
  "/>
<polyline clip-path="url(#clip960)" style="stroke:#000000; stroke-linecap:butt; stroke-linejoin:round; stroke-width:4; stroke-opacity:1; fill:none" points="
  288.291,1347.54 288.291,47.2441 
  "/>
<polyline clip-path="url(#clip960)" style="stroke:#000000; stroke-linecap:butt; stroke-linejoin:round; stroke-width:4; stroke-opacity:1; fill:none" points="
  288.291,924.494 307.189,924.494 
  "/>
<polyline clip-path="url(#clip960)" style="stroke:#000000; stroke-linecap:butt; stroke-linejoin:round; stroke-width:4; stroke-opacity:1; fill:none" points="
  288.291,410.966 307.189,410.966 
  "/>
<path clip-path="url(#clip960)" d="M116.277 944.287 L123.915 944.287 L123.915 917.921 L115.605 919.588 L115.605 915.329 L123.869 913.662 L128.545 913.662 L128.545 944.287 L136.184 944.287 L136.184 948.222 L116.277 948.222 L116.277 944.287 Z" fill="#000000" fill-rule="evenodd" fill-opacity="1" /><path clip-path="url(#clip960)" d="M155.628 916.741 Q152.017 916.741 150.188 920.305 Q148.383 923.847 148.383 930.977 Q148.383 938.083 150.188 941.648 Q152.017 945.19 155.628 945.19 Q159.262 945.19 161.068 941.648 Q162.897 938.083 162.897 930.977 Q162.897 923.847 161.068 920.305 Q159.262 916.741 155.628 916.741 M155.628 913.037 Q161.438 913.037 164.494 917.643 Q167.573 922.227 167.573 930.977 Q167.573 939.703 164.494 944.31 Q161.438 948.893 155.628 948.893 Q149.818 948.893 146.739 944.31 Q143.684 939.703 143.684 930.977 Q143.684 922.227 146.739 917.643 Q149.818 913.037 155.628 913.037 Z" fill="#000000" fill-rule="evenodd" fill-opacity="1" /><path clip-path="url(#clip960)" d="M167.573 907.138 L191.684 907.138 L191.684 910.336 L167.573 910.336 L167.573 907.138 Z" fill="#000000" fill-rule="evenodd" fill-opacity="1" /><path clip-path="url(#clip960)" d="M211.395 905.671 Q214.122 906.254 215.645 908.097 Q217.188 909.941 217.188 912.649 Q217.188 916.805 214.329 919.081 Q211.47 921.357 206.204 921.357 Q204.436 921.357 202.555 921 Q200.693 920.661 198.699 919.965 L198.699 916.298 Q200.279 917.219 202.16 917.689 Q204.041 918.16 206.091 918.16 Q209.664 918.16 211.526 916.749 Q213.407 915.338 213.407 912.649 Q213.407 910.166 211.658 908.775 Q209.928 907.364 206.824 907.364 L203.552 907.364 L203.552 904.242 L206.975 904.242 Q209.777 904.242 211.263 903.132 Q212.749 902.004 212.749 899.897 Q212.749 897.734 211.207 896.587 Q209.683 895.421 206.824 895.421 Q205.263 895.421 203.477 895.76 Q201.69 896.098 199.546 896.813 L199.546 893.427 Q201.709 892.826 203.59 892.525 Q205.489 892.224 207.163 892.224 Q211.489 892.224 214.009 894.199 Q216.529 896.155 216.529 899.502 Q216.529 901.835 215.194 903.452 Q213.859 905.051 211.395 905.671 Z" fill="#000000" fill-rule="evenodd" fill-opacity="1" /><path clip-path="url(#clip960)" d="M224.391 916.034 L228.359 916.034 L228.359 920.812 L224.391 920.812 L224.391 916.034 Z" fill="#000000" fill-rule="evenodd" fill-opacity="1" /><path clip-path="url(#clip960)" d="M235.676 892.732 L253.731 892.732 L253.731 894.349 L243.537 920.812 L239.569 920.812 L249.161 895.929 L235.676 895.929 L235.676 892.732 Z" fill="#000000" fill-rule="evenodd" fill-opacity="1" /><path clip-path="url(#clip960)" d="M115.411 430.758 L123.05 430.758 L123.05 404.392 L114.74 406.059 L114.74 401.8 L123.004 400.133 L127.68 400.133 L127.68 430.758 L135.319 430.758 L135.319 434.693 L115.411 434.693 L115.411 430.758 Z" fill="#000000" fill-rule="evenodd" fill-opacity="1" /><path clip-path="url(#clip960)" d="M154.763 403.212 Q151.152 403.212 149.323 406.777 Q147.518 410.318 147.518 417.448 Q147.518 424.554 149.323 428.119 Q151.152 431.661 154.763 431.661 Q158.397 431.661 160.203 428.119 Q162.032 424.554 162.032 417.448 Q162.032 410.318 160.203 406.777 Q158.397 403.212 154.763 403.212 M154.763 399.508 Q160.573 399.508 163.629 404.115 Q166.707 408.698 166.707 417.448 Q166.707 426.175 163.629 430.781 Q160.573 435.364 154.763 435.364 Q148.953 435.364 145.874 430.781 Q142.819 426.175 142.819 417.448 Q142.819 408.698 145.874 404.115 Q148.953 399.508 154.763 399.508 Z" fill="#000000" fill-rule="evenodd" fill-opacity="1" /><path clip-path="url(#clip960)" d="M166.707 393.609 L190.819 393.609 L190.819 396.807 L166.707 396.807 L166.707 393.609 Z" fill="#000000" fill-rule="evenodd" fill-opacity="1" /><path clip-path="url(#clip960)" d="M210.53 392.142 Q213.257 392.725 214.78 394.569 Q216.322 396.412 216.322 399.12 Q216.322 403.277 213.464 405.552 Q210.605 407.828 205.339 407.828 Q203.571 407.828 201.69 407.471 Q199.828 407.132 197.834 406.436 L197.834 402.769 Q199.414 403.69 201.295 404.161 Q203.176 404.631 205.226 404.631 Q208.799 404.631 210.661 403.22 Q212.542 401.81 212.542 399.12 Q212.542 396.638 210.793 395.246 Q209.063 393.835 205.959 393.835 L202.687 393.835 L202.687 390.713 L206.11 390.713 Q208.912 390.713 210.398 389.603 Q211.884 388.475 211.884 386.368 Q211.884 384.206 210.341 383.058 Q208.818 381.892 205.959 381.892 Q204.398 381.892 202.612 382.231 Q200.825 382.569 198.681 383.284 L198.681 379.899 Q200.844 379.297 202.724 378.996 Q204.624 378.695 206.298 378.695 Q210.624 378.695 213.144 380.67 Q215.664 382.626 215.664 385.974 Q215.664 388.306 214.329 389.923 Q212.993 391.522 210.53 392.142 Z" fill="#000000" fill-rule="evenodd" fill-opacity="1" /><path clip-path="url(#clip960)" d="M223.526 402.506 L227.494 402.506 L227.494 407.283 L223.526 407.283 L223.526 402.506 Z" fill="#000000" fill-rule="evenodd" fill-opacity="1" /><path clip-path="url(#clip960)" d="M244.365 391.729 Q241.807 391.729 240.302 393.478 Q238.816 395.227 238.816 398.274 Q238.816 401.302 240.302 403.07 Q241.807 404.819 244.365 404.819 Q246.923 404.819 248.408 403.07 Q249.913 401.302 249.913 398.274 Q249.913 395.227 248.408 393.478 Q246.923 391.729 244.365 391.729 M251.907 379.823 L251.907 383.284 Q250.477 382.607 249.01 382.25 Q247.562 381.892 246.133 381.892 Q242.371 381.892 240.378 384.431 Q238.403 386.97 238.121 392.105 Q239.23 390.469 240.904 389.603 Q242.578 388.719 244.59 388.719 Q248.822 388.719 251.267 391.296 Q253.731 393.854 253.731 398.274 Q253.731 402.6 251.173 405.214 Q248.615 407.828 244.365 407.828 Q239.494 407.828 236.917 404.104 Q234.34 400.361 234.34 393.271 Q234.34 386.613 237.5 382.663 Q240.66 378.695 245.982 378.695 Q247.412 378.695 248.86 378.977 Q250.327 379.259 251.907 379.823 Z" fill="#000000" fill-rule="evenodd" fill-opacity="1" /><path clip-path="url(#clip960)" d="M18.4042 827.219 L18.4042 787.02 L23.815 787.02 L23.815 803.889 L65.9242 803.889 L65.9242 810.35 L23.815 810.35 L23.815 827.219 L18.4042 827.219 Z" fill="#000000" fill-rule="evenodd" fill-opacity="1" /><path clip-path="url(#clip960)" d="M30.2762 783.073 L30.2762 777.216 L65.9242 777.216 L65.9242 783.073 L30.2762 783.073 M16.399 783.073 L16.399 777.216 L23.815 777.216 L23.815 783.073 L16.399 783.073 Z" fill="#000000" fill-rule="evenodd" fill-opacity="1" /><path clip-path="url(#clip960)" d="M37.1193 737.208 Q33.1726 735.012 31.2947 731.956 Q29.4168 728.901 29.4168 724.763 Q29.4168 719.193 33.3317 716.169 Q37.2148 713.145 44.4081 713.145 L65.9242 713.145 L65.9242 719.034 L44.599 719.034 Q39.4746 719.034 36.992 720.848 Q34.5094 722.662 34.5094 726.386 Q34.5094 730.938 37.5331 733.579 Q40.5568 736.221 45.7767 736.221 L65.9242 736.221 L65.9242 742.109 L44.599 742.109 Q39.4428 742.109 36.992 743.924 Q34.5094 745.738 34.5094 749.526 Q34.5094 754.013 37.5649 756.655 Q40.5886 759.297 45.7767 759.297 L65.9242 759.297 L65.9242 765.185 L30.2762 765.185 L30.2762 759.297 L35.8144 759.297 Q32.536 757.292 30.9764 754.491 Q29.4168 751.69 29.4168 747.839 Q29.4168 743.956 31.3902 741.25 Q33.3636 738.513 37.1193 737.208 Z" fill="#000000" fill-rule="evenodd" fill-opacity="1" /><path clip-path="url(#clip960)" d="M46.6361 670.973 L49.5006 670.973 L49.5006 697.9 Q55.5481 697.518 58.7309 694.271 Q61.8819 690.993 61.8819 685.168 Q61.8819 681.794 61.0544 678.643 Q60.2269 675.461 58.5718 672.341 L64.1099 672.341 Q65.4467 675.492 66.147 678.803 Q66.8472 682.113 66.8472 685.518 Q66.8472 694.048 61.8819 699.045 Q56.9167 704.011 48.4503 704.011 Q39.6974 704.011 34.5731 699.3 Q29.4168 694.558 29.4168 686.537 Q29.4168 679.344 34.0638 675.174 Q38.6789 670.973 46.6361 670.973 M44.9173 676.829 Q40.1112 676.893 37.2466 679.535 Q34.3821 682.145 34.3821 686.473 Q34.3821 691.375 37.1512 694.335 Q39.9202 697.263 44.9492 697.709 L44.9173 676.829 Z" fill="#000000" fill-rule="evenodd" fill-opacity="1" /><path clip-path="url(#clip960)" d="M16.4626 626.572 Q23.7832 630.837 30.9446 632.906 Q38.106 634.975 45.4584 634.975 Q52.8108 634.975 60.0359 632.906 Q67.2291 630.805 74.5179 626.572 L74.5179 631.664 Q67.0382 636.439 59.8131 638.826 Q52.588 641.181 45.4584 641.181 Q38.3606 641.181 31.1674 638.826 Q23.9742 636.471 16.4626 631.664 L16.4626 626.572 Z" fill="#000000" fill-rule="evenodd" fill-opacity="1" /><path clip-path="url(#clip960)" d="M31.3265 592.484 L36.8647 592.484 Q35.5916 594.966 34.955 597.64 Q34.3184 600.313 34.3184 603.178 Q34.3184 607.538 35.6552 609.735 Q36.992 611.899 39.6656 611.899 Q41.7026 611.899 42.8803 610.339 Q44.0261 608.78 45.0765 604.069 L45.5221 602.064 Q46.8589 595.826 49.3097 593.216 Q51.7286 590.574 56.0891 590.574 Q61.0544 590.574 63.9508 594.521 Q66.8472 598.435 66.8472 605.31 Q66.8472 608.175 66.2743 611.294 Q65.7332 614.382 64.6192 617.819 L58.5718 617.819 Q60.2587 614.573 61.118 611.422 Q61.9456 608.27 61.9456 605.183 Q61.9456 601.045 60.5451 598.817 Q59.1129 596.589 56.5347 596.589 Q54.1476 596.589 52.8745 598.213 Q51.6013 599.804 50.4237 605.247 L49.9462 607.284 Q48.8004 612.726 46.4451 615.145 Q44.058 617.564 39.9202 617.564 Q34.8913 617.564 32.1541 614 Q29.4168 610.435 29.4168 603.878 Q29.4168 600.632 29.8943 597.767 Q30.3717 594.902 31.3265 592.484 Z" fill="#000000" fill-rule="evenodd" fill-opacity="1" /><path clip-path="url(#clip960)" d="M16.4626 582.171 L16.4626 577.079 Q23.9742 572.304 31.1674 569.949 Q38.3606 567.562 45.4584 567.562 Q52.588 567.562 59.8131 569.949 Q67.0382 572.304 74.5179 577.079 L74.5179 582.171 Q67.2291 577.938 60.0359 575.869 Q52.8108 573.768 45.4584 573.768 Q38.106 573.768 30.9446 575.869 Q23.7832 577.938 16.4626 582.171 Z" fill="#000000" fill-rule="evenodd" fill-opacity="1" /><polyline clip-path="url(#clip962)" style="stroke:#009af9; stroke-linecap:butt; stroke-linejoin:round; stroke-width:12; stroke-opacity:1; fill:none" points="
  2201.04,1310.74 2035.71,1198.65 1585.97,1020.76 1092.16,263.358 
  "/>
<line clip-path="url(#clip962)" x1="2201.04" y1="1310.74" x2="2201.04" y2="1294.74" style="stroke:#009af9; stroke-width:3.072; stroke-opacity:1"/>
<line clip-path="url(#clip962)" x1="2201.04" y1="1310.74" x2="2185.04" y2="1310.74" style="stroke:#009af9; stroke-width:3.072; stroke-opacity:1"/>
<line clip-path="url(#clip962)" x1="2201.04" y1="1310.74" x2="2201.04" y2="1326.74" style="stroke:#009af9; stroke-width:3.072; stroke-opacity:1"/>
<line clip-path="url(#clip962)" x1="2201.04" y1="1310.74" x2="2217.04" y2="1310.74" style="stroke:#009af9; stroke-width:3.072; stroke-opacity:1"/>
<line clip-path="url(#clip962)" x1="2035.71" y1="1198.65" x2="2035.71" y2="1182.65" style="stroke:#009af9; stroke-width:3.072; stroke-opacity:1"/>
<line clip-path="url(#clip962)" x1="2035.71" y1="1198.65" x2="2019.71" y2="1198.65" style="stroke:#009af9; stroke-width:3.072; stroke-opacity:1"/>
<line clip-path="url(#clip962)" x1="2035.71" y1="1198.65" x2="2035.71" y2="1214.65" style="stroke:#009af9; stroke-width:3.072; stroke-opacity:1"/>
<line clip-path="url(#clip962)" x1="2035.71" y1="1198.65" x2="2051.71" y2="1198.65" style="stroke:#009af9; stroke-width:3.072; stroke-opacity:1"/>
<line clip-path="url(#clip962)" x1="1585.97" y1="1020.76" x2="1585.97" y2="1004.76" style="stroke:#009af9; stroke-width:3.072; stroke-opacity:1"/>
<line clip-path="url(#clip962)" x1="1585.97" y1="1020.76" x2="1569.97" y2="1020.76" style="stroke:#009af9; stroke-width:3.072; stroke-opacity:1"/>
<line clip-path="url(#clip962)" x1="1585.97" y1="1020.76" x2="1585.97" y2="1036.76" style="stroke:#009af9; stroke-width:3.072; stroke-opacity:1"/>
<line clip-path="url(#clip962)" x1="1585.97" y1="1020.76" x2="1601.97" y2="1020.76" style="stroke:#009af9; stroke-width:3.072; stroke-opacity:1"/>
<line clip-path="url(#clip962)" x1="1092.16" y1="263.358" x2="1092.16" y2="247.358" style="stroke:#009af9; stroke-width:3.072; stroke-opacity:1"/>
<line clip-path="url(#clip962)" x1="1092.16" y1="263.358" x2="1076.16" y2="263.358" style="stroke:#009af9; stroke-width:3.072; stroke-opacity:1"/>
<line clip-path="url(#clip962)" x1="1092.16" y1="263.358" x2="1092.16" y2="279.358" style="stroke:#009af9; stroke-width:3.072; stroke-opacity:1"/>
<line clip-path="url(#clip962)" x1="1092.16" y1="263.358" x2="1108.16" y2="263.358" style="stroke:#009af9; stroke-width:3.072; stroke-opacity:1"/>
<polyline clip-path="url(#clip962)" style="stroke:#e26f46; stroke-linecap:butt; stroke-linejoin:round; stroke-width:12; stroke-opacity:1; fill:none" points="
  920.551,776.591 666.028,755.767 923.106,690.823 344.002,331.793 
  "/>
<circle clip-path="url(#clip962)" cx="920.551" cy="776.591" r="14" fill="#e26f46" fill-rule="evenodd" fill-opacity="1" stroke="#000000" stroke-opacity="1" stroke-width="3.072"/>
<circle clip-path="url(#clip962)" cx="666.028" cy="755.767" r="14" fill="#e26f46" fill-rule="evenodd" fill-opacity="1" stroke="#000000" stroke-opacity="1" stroke-width="3.072"/>
<circle clip-path="url(#clip962)" cx="923.106" cy="690.823" r="14" fill="#e26f46" fill-rule="evenodd" fill-opacity="1" stroke="#000000" stroke-opacity="1" stroke-width="3.072"/>
<circle clip-path="url(#clip962)" cx="344.002" cy="331.793" r="14" fill="#e26f46" fill-rule="evenodd" fill-opacity="1" stroke="#000000" stroke-opacity="1" stroke-width="3.072"/>
<polyline clip-path="url(#clip962)" style="stroke:#3da44d; stroke-linecap:butt; stroke-linejoin:round; stroke-width:12; stroke-opacity:1; fill:none" points="
  904.86,365.552 940.394,392.861 576.063,208.129 771.298,84.0448 
  "/>
<line clip-path="url(#clip962)" x1="904.86" y1="365.552" x2="904.86" y2="349.552" style="stroke:#3da44d; stroke-width:3.072; stroke-opacity:1"/>
<line clip-path="url(#clip962)" x1="904.86" y1="365.552" x2="888.86" y2="365.552" style="stroke:#3da44d; stroke-width:3.072; stroke-opacity:1"/>
<line clip-path="url(#clip962)" x1="904.86" y1="365.552" x2="904.86" y2="381.552" style="stroke:#3da44d; stroke-width:3.072; stroke-opacity:1"/>
<line clip-path="url(#clip962)" x1="904.86" y1="365.552" x2="920.86" y2="365.552" style="stroke:#3da44d; stroke-width:3.072; stroke-opacity:1"/>
<line clip-path="url(#clip962)" x1="940.394" y1="392.861" x2="940.394" y2="376.861" style="stroke:#3da44d; stroke-width:3.072; stroke-opacity:1"/>
<line clip-path="url(#clip962)" x1="940.394" y1="392.861" x2="924.394" y2="392.861" style="stroke:#3da44d; stroke-width:3.072; stroke-opacity:1"/>
<line clip-path="url(#clip962)" x1="940.394" y1="392.861" x2="940.394" y2="408.861" style="stroke:#3da44d; stroke-width:3.072; stroke-opacity:1"/>
<line clip-path="url(#clip962)" x1="940.394" y1="392.861" x2="956.394" y2="392.861" style="stroke:#3da44d; stroke-width:3.072; stroke-opacity:1"/>
<line clip-path="url(#clip962)" x1="576.063" y1="208.129" x2="576.063" y2="192.129" style="stroke:#3da44d; stroke-width:3.072; stroke-opacity:1"/>
<line clip-path="url(#clip962)" x1="576.063" y1="208.129" x2="560.063" y2="208.129" style="stroke:#3da44d; stroke-width:3.072; stroke-opacity:1"/>
<line clip-path="url(#clip962)" x1="576.063" y1="208.129" x2="576.063" y2="224.129" style="stroke:#3da44d; stroke-width:3.072; stroke-opacity:1"/>
<line clip-path="url(#clip962)" x1="576.063" y1="208.129" x2="592.063" y2="208.129" style="stroke:#3da44d; stroke-width:3.072; stroke-opacity:1"/>
<line clip-path="url(#clip962)" x1="771.298" y1="84.0448" x2="771.298" y2="68.0448" style="stroke:#3da44d; stroke-width:3.072; stroke-opacity:1"/>
<line clip-path="url(#clip962)" x1="771.298" y1="84.0448" x2="755.298" y2="84.0448" style="stroke:#3da44d; stroke-width:3.072; stroke-opacity:1"/>
<line clip-path="url(#clip962)" x1="771.298" y1="84.0448" x2="771.298" y2="100.045" style="stroke:#3da44d; stroke-width:3.072; stroke-opacity:1"/>
<line clip-path="url(#clip962)" x1="771.298" y1="84.0448" x2="787.298" y2="84.0448" style="stroke:#3da44d; stroke-width:3.072; stroke-opacity:1"/>
<path clip-path="url(#clip960)" d="
M1095.88 297.947 L2191.14 297.947 L2191.14 90.5872 L1095.88 90.5872  Z
  " fill="#ffffff" fill-rule="evenodd" fill-opacity="1"/>
<polyline clip-path="url(#clip960)" style="stroke:#000000; stroke-linecap:butt; stroke-linejoin:round; stroke-width:4; stroke-opacity:1; fill:none" points="
  1095.88,297.947 2191.14,297.947 2191.14,90.5872 1095.88,90.5872 1095.88,297.947 
  "/>
<polyline clip-path="url(#clip960)" style="stroke:#009af9; stroke-linecap:butt; stroke-linejoin:round; stroke-width:4; stroke-opacity:1; fill:none" points="
  1117.75,142.427 1248.98,142.427 
  "/>
<line clip-path="url(#clip960)" x1="1183.36" y1="142.427" x2="1183.36" y2="116.827" style="stroke:#009af9; stroke-width:4.9152; stroke-opacity:1"/>
<line clip-path="url(#clip960)" x1="1183.36" y1="142.427" x2="1157.76" y2="142.427" style="stroke:#009af9; stroke-width:4.9152; stroke-opacity:1"/>
<line clip-path="url(#clip960)" x1="1183.36" y1="142.427" x2="1183.36" y2="168.027" style="stroke:#009af9; stroke-width:4.9152; stroke-opacity:1"/>
<line clip-path="url(#clip960)" x1="1183.36" y1="142.427" x2="1208.96" y2="142.427" style="stroke:#009af9; stroke-width:4.9152; stroke-opacity:1"/>
<path clip-path="url(#clip960)" d="M1270.85 125.147 L1275.53 125.147 L1275.53 159.707 L1270.85 159.707 L1270.85 125.147 Z" fill="#000000" fill-rule="evenodd" fill-opacity="1" /><path clip-path="url(#clip960)" d="M1304.83 138.758 Q1306.43 135.888 1308.65 134.522 Q1310.87 133.156 1313.88 133.156 Q1317.93 133.156 1320.13 136.004 Q1322.33 138.828 1322.33 144.059 L1322.33 159.707 L1318.05 159.707 L1318.05 144.198 Q1318.05 140.471 1316.73 138.666 Q1315.41 136.86 1312.7 136.86 Q1309.39 136.86 1307.47 139.059 Q1305.55 141.258 1305.55 145.054 L1305.55 159.707 L1301.27 159.707 L1301.27 144.198 Q1301.27 140.448 1299.95 138.666 Q1298.63 136.86 1295.87 136.86 Q1292.61 136.86 1290.69 139.082 Q1288.77 141.281 1288.77 145.054 L1288.77 159.707 L1284.48 159.707 L1284.48 133.781 L1288.77 133.781 L1288.77 137.809 Q1290.23 135.425 1292.26 134.291 Q1294.3 133.156 1297.1 133.156 Q1299.92 133.156 1301.89 134.592 Q1303.88 136.027 1304.83 138.758 Z" fill="#000000" fill-rule="evenodd" fill-opacity="1" /><path clip-path="url(#clip960)" d="M1334.95 155.818 L1334.95 169.568 L1330.67 169.568 L1330.67 133.781 L1334.95 133.781 L1334.95 137.717 Q1336.29 135.402 1338.33 134.291 Q1340.39 133.156 1343.23 133.156 Q1347.96 133.156 1350.9 136.906 Q1353.86 140.656 1353.86 146.767 Q1353.86 152.879 1350.9 156.628 Q1347.96 160.378 1343.23 160.378 Q1340.39 160.378 1338.33 159.267 Q1336.29 158.133 1334.95 155.818 M1349.44 146.767 Q1349.44 142.068 1347.49 139.406 Q1345.57 136.721 1342.19 136.721 Q1338.81 136.721 1336.87 139.406 Q1334.95 142.068 1334.95 146.767 Q1334.95 151.466 1336.87 154.152 Q1338.81 156.814 1342.19 156.814 Q1345.57 156.814 1347.49 154.152 Q1349.44 151.466 1349.44 146.767 Z" fill="#000000" fill-rule="evenodd" fill-opacity="1" /><path clip-path="url(#clip960)" d="M1360.92 123.689 L1365.18 123.689 L1365.18 159.707 L1360.92 159.707 L1360.92 123.689 Z" fill="#000000" fill-rule="evenodd" fill-opacity="1" /><path clip-path="url(#clip960)" d="M1374.09 133.781 L1378.35 133.781 L1378.35 159.707 L1374.09 159.707 L1374.09 133.781 M1374.09 123.689 L1378.35 123.689 L1378.35 129.082 L1374.09 129.082 L1374.09 123.689 Z" fill="#000000" fill-rule="evenodd" fill-opacity="1" /><path clip-path="url(#clip960)" d="M1405.92 134.777 L1405.92 138.758 Q1404.11 137.763 1402.28 137.277 Q1400.48 136.767 1398.63 136.767 Q1394.48 136.767 1392.19 139.406 Q1389.9 142.022 1389.9 146.767 Q1389.9 151.513 1392.19 154.152 Q1394.48 156.767 1398.63 156.767 Q1400.48 156.767 1402.28 156.281 Q1404.11 155.772 1405.92 154.777 L1405.92 158.712 Q1404.14 159.545 1402.22 159.962 Q1400.32 160.378 1398.16 160.378 Q1392.31 160.378 1388.86 156.698 Q1385.41 153.017 1385.41 146.767 Q1385.41 140.425 1388.88 136.791 Q1392.38 133.156 1398.44 133.156 Q1400.41 133.156 1402.28 133.573 Q1404.16 133.967 1405.92 134.777 Z" fill="#000000" fill-rule="evenodd" fill-opacity="1" /><path clip-path="url(#clip960)" d="M1413.33 133.781 L1417.59 133.781 L1417.59 159.707 L1413.33 159.707 L1413.33 133.781 M1413.33 123.689 L1417.59 123.689 L1417.59 129.082 L1413.33 129.082 L1413.33 123.689 Z" fill="#000000" fill-rule="evenodd" fill-opacity="1" /><path clip-path="url(#clip960)" d="M1430.71 126.42 L1430.71 133.781 L1439.48 133.781 L1439.48 137.092 L1430.71 137.092 L1430.71 151.166 Q1430.71 154.337 1431.57 155.24 Q1432.45 156.142 1435.11 156.142 L1439.48 156.142 L1439.48 159.707 L1435.11 159.707 Q1430.18 159.707 1428.3 157.878 Q1426.43 156.027 1426.43 151.166 L1426.43 137.092 L1423.3 137.092 L1423.3 133.781 L1426.43 133.781 L1426.43 126.42 L1430.71 126.42 Z" fill="#000000" fill-rule="evenodd" fill-opacity="1" /><path clip-path="url(#clip960)" d="M1445.27 125.147 L1467.12 125.147 L1467.12 129.082 L1449.95 129.082 L1449.95 139.314 L1466.41 139.314 L1466.41 143.249 L1449.95 143.249 L1449.95 155.772 L1467.54 155.772 L1467.54 159.707 L1445.27 159.707 L1445.27 125.147 Z" fill="#000000" fill-rule="evenodd" fill-opacity="1" /><path clip-path="url(#clip960)" d="M1474.6 149.476 L1474.6 133.781 L1478.86 133.781 L1478.86 149.314 Q1478.86 152.994 1480.29 154.846 Q1481.73 156.675 1484.6 156.675 Q1488.05 156.675 1490.04 154.476 Q1492.05 152.277 1492.05 148.48 L1492.05 133.781 L1496.31 133.781 L1496.31 159.707 L1492.05 159.707 L1492.05 155.726 Q1490.5 158.087 1488.44 159.244 Q1486.4 160.378 1483.7 160.378 Q1479.23 160.378 1476.91 157.601 Q1474.6 154.823 1474.6 149.476 M1485.32 133.156 L1485.32 133.156 Z" fill="#000000" fill-rule="evenodd" fill-opacity="1" /><path clip-path="url(#clip960)" d="M1505.09 123.689 L1509.34 123.689 L1509.34 159.707 L1505.09 159.707 L1505.09 123.689 Z" fill="#000000" fill-rule="evenodd" fill-opacity="1" /><path clip-path="url(#clip960)" d="M1540.43 145.679 L1540.43 147.763 L1520.85 147.763 Q1521.13 152.161 1523.49 154.476 Q1525.87 156.767 1530.11 156.767 Q1532.56 156.767 1534.85 156.166 Q1537.17 155.564 1539.44 154.36 L1539.44 158.388 Q1537.15 159.36 1534.74 159.869 Q1532.33 160.378 1529.85 160.378 Q1523.65 160.378 1520.02 156.767 Q1516.4 153.156 1516.4 146.999 Q1516.4 140.633 1519.83 136.906 Q1523.28 133.156 1529.11 133.156 Q1534.34 133.156 1537.38 136.536 Q1540.43 139.892 1540.43 145.679 M1536.17 144.429 Q1536.13 140.934 1534.21 138.851 Q1532.31 136.767 1529.16 136.767 Q1525.59 136.767 1523.44 138.781 Q1521.31 140.795 1520.99 144.453 L1536.17 144.429 Z" fill="#000000" fill-rule="evenodd" fill-opacity="1" /><path clip-path="url(#clip960)" d="M1562.45 137.763 Q1561.73 137.346 1560.87 137.161 Q1560.04 136.953 1559.02 136.953 Q1555.41 136.953 1553.46 139.314 Q1551.54 141.652 1551.54 146.05 L1551.54 159.707 L1547.26 159.707 L1547.26 133.781 L1551.54 133.781 L1551.54 137.809 Q1552.89 135.448 1555.04 134.314 Q1557.19 133.156 1560.27 133.156 Q1560.71 133.156 1561.24 133.226 Q1561.77 133.272 1562.42 133.388 L1562.45 137.763 Z" fill="#000000" fill-rule="evenodd" fill-opacity="1" /><path clip-path="url(#clip960)" d="M1567.1 125.147 L1588.95 125.147 L1588.95 129.082 L1571.77 129.082 L1571.77 139.314 L1588.23 139.314 L1588.23 143.249 L1571.77 143.249 L1571.77 155.772 L1589.37 155.772 L1589.37 159.707 L1567.1 159.707 L1567.1 125.147 Z" fill="#000000" fill-rule="evenodd" fill-opacity="1" /><path clip-path="url(#clip960)" d="M1618.42 133.781 L1609.04 146.397 L1618.9 159.707 L1613.88 159.707 L1606.33 149.522 L1598.79 159.707 L1593.77 159.707 L1603.83 146.142 L1594.62 133.781 L1599.65 133.781 L1606.52 143.017 L1613.39 133.781 L1618.42 133.781 Z" fill="#000000" fill-rule="evenodd" fill-opacity="1" /><path clip-path="url(#clip960)" d="M1629.14 126.42 L1629.14 133.781 L1637.91 133.781 L1637.91 137.092 L1629.14 137.092 L1629.14 151.166 Q1629.14 154.337 1629.99 155.24 Q1630.87 156.142 1633.53 156.142 L1637.91 156.142 L1637.91 159.707 L1633.53 159.707 Q1628.6 159.707 1626.73 157.878 Q1624.85 156.027 1624.85 151.166 L1624.85 137.092 L1621.73 137.092 L1621.73 133.781 L1624.85 133.781 L1624.85 126.42 L1629.14 126.42 Z" fill="#000000" fill-rule="evenodd" fill-opacity="1" /><path clip-path="url(#clip960)" d="M1658.53 137.763 Q1657.82 137.346 1656.96 137.161 Q1656.13 136.953 1655.11 136.953 Q1651.5 136.953 1649.55 139.314 Q1647.63 141.652 1647.63 146.05 L1647.63 159.707 L1643.35 159.707 L1643.35 133.781 L1647.63 133.781 L1647.63 137.809 Q1648.97 135.448 1651.13 134.314 Q1653.28 133.156 1656.36 133.156 Q1656.8 133.156 1657.33 133.226 Q1657.86 133.272 1658.51 133.388 L1658.53 137.763 Z" fill="#000000" fill-rule="evenodd" fill-opacity="1" /><path clip-path="url(#clip960)" d="M1674.78 146.675 Q1669.62 146.675 1667.63 147.855 Q1665.64 149.036 1665.64 151.883 Q1665.64 154.152 1667.12 155.494 Q1668.63 156.814 1671.2 156.814 Q1674.74 156.814 1676.87 154.314 Q1679.02 151.791 1679.02 147.624 L1679.02 146.675 L1674.78 146.675 M1683.28 144.916 L1683.28 159.707 L1679.02 159.707 L1679.02 155.772 Q1677.56 158.133 1675.39 159.267 Q1673.21 160.378 1670.06 160.378 Q1666.08 160.378 1663.72 158.156 Q1661.38 155.911 1661.38 152.161 Q1661.38 147.786 1664.3 145.564 Q1667.24 143.342 1673.05 143.342 L1679.02 143.342 L1679.02 142.925 Q1679.02 139.985 1677.08 138.388 Q1675.15 136.767 1671.66 136.767 Q1669.44 136.767 1667.33 137.3 Q1665.22 137.832 1663.28 138.897 L1663.28 134.962 Q1665.62 134.059 1667.82 133.619 Q1670.02 133.156 1672.1 133.156 Q1677.72 133.156 1680.5 136.073 Q1683.28 138.99 1683.28 144.916 Z" fill="#000000" fill-rule="evenodd" fill-opacity="1" /><path clip-path="url(#clip960)" d="M1696.17 155.818 L1696.17 169.568 L1691.89 169.568 L1691.89 133.781 L1696.17 133.781 L1696.17 137.717 Q1697.51 135.402 1699.55 134.291 Q1701.61 133.156 1704.46 133.156 Q1709.18 133.156 1712.12 136.906 Q1715.08 140.656 1715.08 146.767 Q1715.08 152.879 1712.12 156.628 Q1709.18 160.378 1704.46 160.378 Q1701.61 160.378 1699.55 159.267 Q1697.51 158.133 1696.17 155.818 M1710.66 146.767 Q1710.66 142.068 1708.72 139.406 Q1706.8 136.721 1703.42 136.721 Q1700.04 136.721 1698.09 139.406 Q1696.17 142.068 1696.17 146.767 Q1696.17 151.466 1698.09 154.152 Q1700.04 156.814 1703.42 156.814 Q1706.8 156.814 1708.72 154.152 Q1710.66 151.466 1710.66 146.767 Z" fill="#000000" fill-rule="evenodd" fill-opacity="1" /><path clip-path="url(#clip960)" d="M1732.19 136.767 Q1728.76 136.767 1726.77 139.453 Q1724.78 142.115 1724.78 146.767 Q1724.78 151.42 1726.75 154.105 Q1728.74 156.767 1732.19 156.767 Q1735.59 156.767 1737.58 154.082 Q1739.57 151.397 1739.57 146.767 Q1739.57 142.161 1737.58 139.476 Q1735.59 136.767 1732.19 136.767 M1732.19 133.156 Q1737.75 133.156 1740.92 136.767 Q1744.09 140.379 1744.09 146.767 Q1744.09 153.133 1740.92 156.767 Q1737.75 160.378 1732.19 160.378 Q1726.61 160.378 1723.44 156.767 Q1720.29 153.133 1720.29 146.767 Q1720.29 140.379 1723.44 136.767 Q1726.61 133.156 1732.19 133.156 Z" fill="#000000" fill-rule="evenodd" fill-opacity="1" /><path clip-path="url(#clip960)" d="M1751.15 123.689 L1755.41 123.689 L1755.41 159.707 L1751.15 159.707 L1751.15 123.689 Z" fill="#000000" fill-rule="evenodd" fill-opacity="1" /><path clip-path="url(#clip960)" d="M1776.1 146.675 Q1770.94 146.675 1768.95 147.855 Q1766.96 149.036 1766.96 151.883 Q1766.96 154.152 1768.44 155.494 Q1769.95 156.814 1772.51 156.814 Q1776.06 156.814 1778.19 154.314 Q1780.34 151.791 1780.34 147.624 L1780.34 146.675 L1776.1 146.675 M1784.6 144.916 L1784.6 159.707 L1780.34 159.707 L1780.34 155.772 Q1778.88 158.133 1776.7 159.267 Q1774.53 160.378 1771.38 160.378 Q1767.4 160.378 1765.04 158.156 Q1762.7 155.911 1762.7 152.161 Q1762.7 147.786 1765.62 145.564 Q1768.56 143.342 1774.37 143.342 L1780.34 143.342 L1780.34 142.925 Q1780.34 139.985 1778.39 138.388 Q1776.47 136.767 1772.98 136.767 Q1770.76 136.767 1768.65 137.3 Q1766.54 137.832 1764.6 138.897 L1764.6 134.962 Q1766.94 134.059 1769.13 133.619 Q1771.33 133.156 1773.42 133.156 Q1779.04 133.156 1781.82 136.073 Q1784.6 138.99 1784.6 144.916 Z" fill="#000000" fill-rule="evenodd" fill-opacity="1" /><path clip-path="url(#clip960)" d="M1797.58 126.42 L1797.58 133.781 L1806.36 133.781 L1806.36 137.092 L1797.58 137.092 L1797.58 151.166 Q1797.58 154.337 1798.44 155.24 Q1799.32 156.142 1801.98 156.142 L1806.36 156.142 L1806.36 159.707 L1801.98 159.707 Q1797.05 159.707 1795.18 157.878 Q1793.3 156.027 1793.3 151.166 L1793.3 137.092 L1790.18 137.092 L1790.18 133.781 L1793.3 133.781 L1793.3 126.42 L1797.58 126.42 Z" fill="#000000" fill-rule="evenodd" fill-opacity="1" /><path clip-path="url(#clip960)" d="M1811.96 133.781 L1816.22 133.781 L1816.22 159.707 L1811.96 159.707 L1811.96 133.781 M1811.96 123.689 L1816.22 123.689 L1816.22 129.082 L1811.96 129.082 L1811.96 123.689 Z" fill="#000000" fill-rule="evenodd" fill-opacity="1" /><path clip-path="url(#clip960)" d="M1835.18 136.767 Q1831.75 136.767 1829.76 139.453 Q1827.77 142.115 1827.77 146.767 Q1827.77 151.42 1829.74 154.105 Q1831.73 156.767 1835.18 156.767 Q1838.58 156.767 1840.57 154.082 Q1842.56 151.397 1842.56 146.767 Q1842.56 142.161 1840.57 139.476 Q1838.58 136.767 1835.18 136.767 M1835.18 133.156 Q1840.73 133.156 1843.9 136.767 Q1847.07 140.379 1847.07 146.767 Q1847.07 153.133 1843.9 156.767 Q1840.73 160.378 1835.18 160.378 Q1829.6 160.378 1826.43 156.767 Q1823.28 153.133 1823.28 146.767 Q1823.28 140.379 1826.43 136.767 Q1829.6 133.156 1835.18 133.156 Z" fill="#000000" fill-rule="evenodd" fill-opacity="1" /><path clip-path="url(#clip960)" d="M1875.69 144.059 L1875.69 159.707 L1871.43 159.707 L1871.43 144.198 Q1871.43 140.517 1869.99 138.689 Q1868.56 136.86 1865.69 136.86 Q1862.24 136.86 1860.25 139.059 Q1858.25 141.258 1858.25 145.054 L1858.25 159.707 L1853.97 159.707 L1853.97 133.781 L1858.25 133.781 L1858.25 137.809 Q1859.78 135.471 1861.84 134.314 Q1863.93 133.156 1866.63 133.156 Q1871.1 133.156 1873.39 135.934 Q1875.69 138.689 1875.69 144.059 Z" fill="#000000" fill-rule="evenodd" fill-opacity="1" /><polyline clip-path="url(#clip960)" style="stroke:#e26f46; stroke-linecap:butt; stroke-linejoin:round; stroke-width:4; stroke-opacity:1; fill:none" points="
  1117.75,194.267 1248.98,194.267 
  "/>
<circle clip-path="url(#clip960)" cx="1183.36" cy="194.267" r="23" fill="#e26f46" fill-rule="evenodd" fill-opacity="1" stroke="#000000" stroke-opacity="1" stroke-width="4.9152"/>
<path clip-path="url(#clip960)" d="M1270.85 176.987 L1275.53 176.987 L1275.53 211.547 L1270.85 211.547 L1270.85 176.987 Z" fill="#000000" fill-rule="evenodd" fill-opacity="1" /><path clip-path="url(#clip960)" d="M1304.83 190.598 Q1306.43 187.728 1308.65 186.362 Q1310.87 184.996 1313.88 184.996 Q1317.93 184.996 1320.13 187.844 Q1322.33 190.668 1322.33 195.899 L1322.33 211.547 L1318.05 211.547 L1318.05 196.038 Q1318.05 192.311 1316.73 190.506 Q1315.41 188.7 1312.7 188.7 Q1309.39 188.7 1307.47 190.899 Q1305.55 193.098 1305.55 196.894 L1305.55 211.547 L1301.27 211.547 L1301.27 196.038 Q1301.27 192.288 1299.95 190.506 Q1298.63 188.7 1295.87 188.7 Q1292.61 188.7 1290.69 190.922 Q1288.77 193.121 1288.77 196.894 L1288.77 211.547 L1284.48 211.547 L1284.48 185.621 L1288.77 185.621 L1288.77 189.649 Q1290.23 187.265 1292.26 186.131 Q1294.3 184.996 1297.1 184.996 Q1299.92 184.996 1301.89 186.432 Q1303.88 187.867 1304.83 190.598 Z" fill="#000000" fill-rule="evenodd" fill-opacity="1" /><path clip-path="url(#clip960)" d="M1334.95 207.658 L1334.95 221.408 L1330.67 221.408 L1330.67 185.621 L1334.95 185.621 L1334.95 189.557 Q1336.29 187.242 1338.33 186.131 Q1340.39 184.996 1343.23 184.996 Q1347.96 184.996 1350.9 188.746 Q1353.86 192.496 1353.86 198.607 Q1353.86 204.719 1350.9 208.468 Q1347.96 212.218 1343.23 212.218 Q1340.39 212.218 1338.33 211.107 Q1336.29 209.973 1334.95 207.658 M1349.44 198.607 Q1349.44 193.908 1347.49 191.246 Q1345.57 188.561 1342.19 188.561 Q1338.81 188.561 1336.87 191.246 Q1334.95 193.908 1334.95 198.607 Q1334.95 203.306 1336.87 205.992 Q1338.81 208.654 1342.19 208.654 Q1345.57 208.654 1347.49 205.992 Q1349.44 203.306 1349.44 198.607 Z" fill="#000000" fill-rule="evenodd" fill-opacity="1" /><path clip-path="url(#clip960)" d="M1360.92 175.529 L1365.18 175.529 L1365.18 211.547 L1360.92 211.547 L1360.92 175.529 Z" fill="#000000" fill-rule="evenodd" fill-opacity="1" /><path clip-path="url(#clip960)" d="M1374.09 185.621 L1378.35 185.621 L1378.35 211.547 L1374.09 211.547 L1374.09 185.621 M1374.09 175.529 L1378.35 175.529 L1378.35 180.922 L1374.09 180.922 L1374.09 175.529 Z" fill="#000000" fill-rule="evenodd" fill-opacity="1" /><path clip-path="url(#clip960)" d="M1405.92 186.617 L1405.92 190.598 Q1404.11 189.603 1402.28 189.117 Q1400.48 188.607 1398.63 188.607 Q1394.48 188.607 1392.19 191.246 Q1389.9 193.862 1389.9 198.607 Q1389.9 203.353 1392.19 205.992 Q1394.48 208.607 1398.63 208.607 Q1400.48 208.607 1402.28 208.121 Q1404.11 207.612 1405.92 206.617 L1405.92 210.552 Q1404.14 211.385 1402.22 211.802 Q1400.32 212.218 1398.16 212.218 Q1392.31 212.218 1388.86 208.538 Q1385.41 204.857 1385.41 198.607 Q1385.41 192.265 1388.88 188.631 Q1392.38 184.996 1398.44 184.996 Q1400.41 184.996 1402.28 185.413 Q1404.16 185.807 1405.92 186.617 Z" fill="#000000" fill-rule="evenodd" fill-opacity="1" /><path clip-path="url(#clip960)" d="M1413.33 185.621 L1417.59 185.621 L1417.59 211.547 L1413.33 211.547 L1413.33 185.621 M1413.33 175.529 L1417.59 175.529 L1417.59 180.922 L1413.33 180.922 L1413.33 175.529 Z" fill="#000000" fill-rule="evenodd" fill-opacity="1" /><path clip-path="url(#clip960)" d="M1430.71 178.26 L1430.71 185.621 L1439.48 185.621 L1439.48 188.932 L1430.71 188.932 L1430.71 203.006 Q1430.71 206.177 1431.57 207.08 Q1432.45 207.982 1435.11 207.982 L1439.48 207.982 L1439.48 211.547 L1435.11 211.547 Q1430.18 211.547 1428.3 209.718 Q1426.43 207.867 1426.43 203.006 L1426.43 188.932 L1423.3 188.932 L1423.3 185.621 L1426.43 185.621 L1426.43 178.26 L1430.71 178.26 Z" fill="#000000" fill-rule="evenodd" fill-opacity="1" /><path clip-path="url(#clip960)" d="M1445.27 176.987 L1467.12 176.987 L1467.12 180.922 L1449.95 180.922 L1449.95 191.154 L1466.41 191.154 L1466.41 195.089 L1449.95 195.089 L1449.95 207.612 L1467.54 207.612 L1467.54 211.547 L1445.27 211.547 L1445.27 176.987 Z" fill="#000000" fill-rule="evenodd" fill-opacity="1" /><path clip-path="url(#clip960)" d="M1474.6 201.316 L1474.6 185.621 L1478.86 185.621 L1478.86 201.154 Q1478.86 204.834 1480.29 206.686 Q1481.73 208.515 1484.6 208.515 Q1488.05 208.515 1490.04 206.316 Q1492.05 204.117 1492.05 200.32 L1492.05 185.621 L1496.31 185.621 L1496.31 211.547 L1492.05 211.547 L1492.05 207.566 Q1490.5 209.927 1488.44 211.084 Q1486.4 212.218 1483.7 212.218 Q1479.23 212.218 1476.91 209.441 Q1474.6 206.663 1474.6 201.316 M1485.32 184.996 L1485.32 184.996 Z" fill="#000000" fill-rule="evenodd" fill-opacity="1" /><path clip-path="url(#clip960)" d="M1505.09 175.529 L1509.34 175.529 L1509.34 211.547 L1505.09 211.547 L1505.09 175.529 Z" fill="#000000" fill-rule="evenodd" fill-opacity="1" /><path clip-path="url(#clip960)" d="M1540.43 197.519 L1540.43 199.603 L1520.85 199.603 Q1521.13 204.001 1523.49 206.316 Q1525.87 208.607 1530.11 208.607 Q1532.56 208.607 1534.85 208.006 Q1537.17 207.404 1539.44 206.2 L1539.44 210.228 Q1537.15 211.2 1534.74 211.709 Q1532.33 212.218 1529.85 212.218 Q1523.65 212.218 1520.02 208.607 Q1516.4 204.996 1516.4 198.839 Q1516.4 192.473 1519.83 188.746 Q1523.28 184.996 1529.11 184.996 Q1534.34 184.996 1537.38 188.376 Q1540.43 191.732 1540.43 197.519 M1536.17 196.269 Q1536.13 192.774 1534.21 190.691 Q1532.31 188.607 1529.16 188.607 Q1525.59 188.607 1523.44 190.621 Q1521.31 192.635 1520.99 196.293 L1536.17 196.269 Z" fill="#000000" fill-rule="evenodd" fill-opacity="1" /><path clip-path="url(#clip960)" d="M1562.45 189.603 Q1561.73 189.186 1560.87 189.001 Q1560.04 188.793 1559.02 188.793 Q1555.41 188.793 1553.46 191.154 Q1551.54 193.492 1551.54 197.89 L1551.54 211.547 L1547.26 211.547 L1547.26 185.621 L1551.54 185.621 L1551.54 189.649 Q1552.89 187.288 1555.04 186.154 Q1557.19 184.996 1560.27 184.996 Q1560.71 184.996 1561.24 185.066 Q1561.77 185.112 1562.42 185.228 L1562.45 189.603 Z" fill="#000000" fill-rule="evenodd" fill-opacity="1" /><path clip-path="url(#clip960)" d="M1571.77 195.043 L1571.77 207.705 L1579.27 207.705 Q1583.05 207.705 1584.85 206.154 Q1586.68 204.58 1586.68 201.362 Q1586.68 198.121 1584.85 196.594 Q1583.05 195.043 1579.27 195.043 L1571.77 195.043 M1571.77 180.83 L1571.77 191.246 L1578.7 191.246 Q1582.12 191.246 1583.79 189.973 Q1585.48 188.677 1585.48 186.038 Q1585.48 183.422 1583.79 182.126 Q1582.12 180.83 1578.7 180.83 L1571.77 180.83 M1567.1 176.987 L1579.04 176.987 Q1584.39 176.987 1587.28 179.209 Q1590.18 181.432 1590.18 185.529 Q1590.18 188.7 1588.7 190.575 Q1587.21 192.45 1584.34 192.913 Q1587.79 193.654 1589.69 196.015 Q1591.61 198.353 1591.61 201.871 Q1591.61 206.501 1588.46 209.024 Q1585.32 211.547 1579.51 211.547 L1567.1 211.547 L1567.1 176.987 Z" fill="#000000" fill-rule="evenodd" fill-opacity="1" /><path clip-path="url(#clip960)" d="M1611.22 198.515 Q1606.06 198.515 1604.07 199.695 Q1602.08 200.876 1602.08 203.723 Q1602.08 205.992 1603.56 207.334 Q1605.06 208.654 1607.63 208.654 Q1611.17 208.654 1613.3 206.154 Q1615.46 203.631 1615.46 199.464 L1615.46 198.515 L1611.22 198.515 M1619.71 196.756 L1619.71 211.547 L1615.46 211.547 L1615.46 207.612 Q1614 209.973 1611.82 211.107 Q1609.64 212.218 1606.5 212.218 Q1602.52 212.218 1600.15 209.996 Q1597.82 207.751 1597.82 204.001 Q1597.82 199.626 1600.73 197.404 Q1603.67 195.182 1609.48 195.182 L1615.46 195.182 L1615.46 194.765 Q1615.46 191.825 1613.51 190.228 Q1611.59 188.607 1608.09 188.607 Q1605.87 188.607 1603.77 189.14 Q1601.66 189.672 1599.71 190.737 L1599.71 186.802 Q1602.05 185.899 1604.25 185.459 Q1606.45 184.996 1608.53 184.996 Q1614.16 184.996 1616.94 187.913 Q1619.71 190.83 1619.71 196.756 Z" fill="#000000" fill-rule="evenodd" fill-opacity="1" /><path clip-path="url(#clip960)" d="M1643.51 189.603 Q1642.79 189.186 1641.94 189.001 Q1641.1 188.793 1640.08 188.793 Q1636.47 188.793 1634.53 191.154 Q1632.61 193.492 1632.61 197.89 L1632.61 211.547 L1628.33 211.547 L1628.33 185.621 L1632.61 185.621 L1632.61 189.649 Q1633.95 187.288 1636.1 186.154 Q1638.26 184.996 1641.33 184.996 Q1641.77 184.996 1642.31 185.066 Q1642.84 185.112 1643.49 185.228 L1643.51 189.603 Z" fill="#000000" fill-rule="evenodd" fill-opacity="1" /><path clip-path="url(#clip960)" d="M1658.77 213.955 Q1656.96 218.584 1655.25 219.996 Q1653.53 221.408 1650.66 221.408 L1647.26 221.408 L1647.26 217.843 L1649.76 217.843 Q1651.52 217.843 1652.49 217.01 Q1653.46 216.177 1654.64 213.075 L1655.41 211.131 L1644.92 185.621 L1649.44 185.621 L1657.54 205.899 L1665.64 185.621 L1670.15 185.621 L1658.77 213.955 Z" fill="#000000" fill-rule="evenodd" fill-opacity="1" /><path clip-path="url(#clip960)" d="M1694.69 186.617 L1694.69 190.598 Q1692.89 189.603 1691.06 189.117 Q1689.25 188.607 1687.4 188.607 Q1683.26 188.607 1680.96 191.246 Q1678.67 193.862 1678.67 198.607 Q1678.67 203.353 1680.96 205.992 Q1683.26 208.607 1687.4 208.607 Q1689.25 208.607 1691.06 208.121 Q1692.89 207.612 1694.69 206.617 L1694.69 210.552 Q1692.91 211.385 1690.99 211.802 Q1689.09 212.218 1686.94 212.218 Q1681.08 212.218 1677.63 208.538 Q1674.18 204.857 1674.18 198.607 Q1674.18 192.265 1677.65 188.631 Q1681.15 184.996 1687.21 184.996 Q1689.18 184.996 1691.06 185.413 Q1692.93 185.807 1694.69 186.617 Z" fill="#000000" fill-rule="evenodd" fill-opacity="1" /><path clip-path="url(#clip960)" d="M1724.27 197.519 L1724.27 199.603 L1704.69 199.603 Q1704.97 204.001 1707.33 206.316 Q1709.71 208.607 1713.95 208.607 Q1716.4 208.607 1718.7 208.006 Q1721.01 207.404 1723.28 206.2 L1723.28 210.228 Q1720.99 211.2 1718.58 211.709 Q1716.17 212.218 1713.7 212.218 Q1707.49 212.218 1703.86 208.607 Q1700.25 204.996 1700.25 198.839 Q1700.25 192.473 1703.67 188.746 Q1707.12 184.996 1712.95 184.996 Q1718.19 184.996 1721.22 188.376 Q1724.27 191.732 1724.27 197.519 M1720.01 196.269 Q1719.97 192.774 1718.05 190.691 Q1716.15 188.607 1713 188.607 Q1709.44 188.607 1707.28 190.621 Q1705.15 192.635 1704.83 196.293 L1720.01 196.269 Z" fill="#000000" fill-rule="evenodd" fill-opacity="1" /><path clip-path="url(#clip960)" d="M1752.82 195.899 L1752.82 211.547 L1748.56 211.547 L1748.56 196.038 Q1748.56 192.357 1747.12 190.529 Q1745.69 188.7 1742.82 188.7 Q1739.37 188.7 1737.38 190.899 Q1735.39 193.098 1735.39 196.894 L1735.39 211.547 L1731.1 211.547 L1731.1 185.621 L1735.39 185.621 L1735.39 189.649 Q1736.91 187.311 1738.97 186.154 Q1741.06 184.996 1743.76 184.996 Q1748.23 184.996 1750.52 187.774 Q1752.82 190.529 1752.82 195.899 Z" fill="#000000" fill-rule="evenodd" fill-opacity="1" /><path clip-path="url(#clip960)" d="M1765.52 178.26 L1765.52 185.621 L1774.3 185.621 L1774.3 188.932 L1765.52 188.932 L1765.52 203.006 Q1765.52 206.177 1766.38 207.08 Q1767.26 207.982 1769.92 207.982 L1774.3 207.982 L1774.3 211.547 L1769.92 211.547 Q1764.99 211.547 1763.12 209.718 Q1761.24 207.867 1761.24 203.006 L1761.24 188.932 L1758.12 188.932 L1758.12 185.621 L1761.24 185.621 L1761.24 178.26 L1765.52 178.26 Z" fill="#000000" fill-rule="evenodd" fill-opacity="1" /><path clip-path="url(#clip960)" d="M1794.92 189.603 Q1794.2 189.186 1793.35 189.001 Q1792.51 188.793 1791.5 188.793 Q1787.88 188.793 1785.94 191.154 Q1784.02 193.492 1784.02 197.89 L1784.02 211.547 L1779.74 211.547 L1779.74 185.621 L1784.02 185.621 L1784.02 189.649 Q1785.36 187.288 1787.51 186.154 Q1789.67 184.996 1792.75 184.996 Q1793.19 184.996 1793.72 185.066 Q1794.25 185.112 1794.9 185.228 L1794.92 189.603 Z" fill="#000000" fill-rule="evenodd" fill-opacity="1" /><path clip-path="url(#clip960)" d="M1799.39 185.621 L1803.65 185.621 L1803.65 211.547 L1799.39 211.547 L1799.39 185.621 M1799.39 175.529 L1803.65 175.529 L1803.65 180.922 L1799.39 180.922 L1799.39 175.529 Z" fill="#000000" fill-rule="evenodd" fill-opacity="1" /><path clip-path="url(#clip960)" d="M1831.22 186.617 L1831.22 190.598 Q1829.41 189.603 1827.58 189.117 Q1825.78 188.607 1823.93 188.607 Q1819.78 188.607 1817.49 191.246 Q1815.2 193.862 1815.2 198.607 Q1815.2 203.353 1817.49 205.992 Q1819.78 208.607 1823.93 208.607 Q1825.78 208.607 1827.58 208.121 Q1829.41 207.612 1831.22 206.617 L1831.22 210.552 Q1829.44 211.385 1827.51 211.802 Q1825.62 212.218 1823.46 212.218 Q1817.61 212.218 1814.16 208.538 Q1810.71 204.857 1810.71 198.607 Q1810.71 192.265 1814.18 188.631 Q1817.68 184.996 1823.74 184.996 Q1825.71 184.996 1827.58 185.413 Q1829.46 185.807 1831.22 186.617 Z" fill="#000000" fill-rule="evenodd" fill-opacity="1" /><path clip-path="url(#clip960)" d="M1838.81 176.987 L1860.66 176.987 L1860.66 180.922 L1843.49 180.922 L1843.49 191.154 L1859.94 191.154 L1859.94 195.089 L1843.49 195.089 L1843.49 207.612 L1861.08 207.612 L1861.08 211.547 L1838.81 211.547 L1838.81 176.987 Z" fill="#000000" fill-rule="evenodd" fill-opacity="1" /><path clip-path="url(#clip960)" d="M1890.13 185.621 L1880.75 198.237 L1890.62 211.547 L1885.59 211.547 L1878.05 201.362 L1870.5 211.547 L1865.48 211.547 L1875.55 197.982 L1866.33 185.621 L1871.36 185.621 L1878.23 194.857 L1885.11 185.621 L1890.13 185.621 Z" fill="#000000" fill-rule="evenodd" fill-opacity="1" /><path clip-path="url(#clip960)" d="M1900.85 178.26 L1900.85 185.621 L1909.62 185.621 L1909.62 188.932 L1900.85 188.932 L1900.85 203.006 Q1900.85 206.177 1901.7 207.08 Q1902.58 207.982 1905.25 207.982 L1909.62 207.982 L1909.62 211.547 L1905.25 211.547 Q1900.31 211.547 1898.44 209.718 Q1896.56 207.867 1896.56 203.006 L1896.56 188.932 L1893.44 188.932 L1893.44 185.621 L1896.56 185.621 L1896.56 178.26 L1900.85 178.26 Z" fill="#000000" fill-rule="evenodd" fill-opacity="1" /><path clip-path="url(#clip960)" d="M1930.25 189.603 Q1929.53 189.186 1928.67 189.001 Q1927.84 188.793 1926.82 188.793 Q1923.21 188.793 1921.26 191.154 Q1919.34 193.492 1919.34 197.89 L1919.34 211.547 L1915.06 211.547 L1915.06 185.621 L1919.34 185.621 L1919.34 189.649 Q1920.68 187.288 1922.84 186.154 Q1924.99 184.996 1928.07 184.996 Q1928.51 184.996 1929.04 185.066 Q1929.57 185.112 1930.22 185.228 L1930.25 189.603 Z" fill="#000000" fill-rule="evenodd" fill-opacity="1" /><path clip-path="url(#clip960)" d="M1946.5 198.515 Q1941.33 198.515 1939.34 199.695 Q1937.35 200.876 1937.35 203.723 Q1937.35 205.992 1938.83 207.334 Q1940.34 208.654 1942.91 208.654 Q1946.45 208.654 1948.58 206.154 Q1950.73 203.631 1950.73 199.464 L1950.73 198.515 L1946.5 198.515 M1954.99 196.756 L1954.99 211.547 L1950.73 211.547 L1950.73 207.612 Q1949.27 209.973 1947.1 211.107 Q1944.92 212.218 1941.77 212.218 Q1937.79 212.218 1935.43 209.996 Q1933.09 207.751 1933.09 204.001 Q1933.09 199.626 1936.01 197.404 Q1938.95 195.182 1944.76 195.182 L1950.73 195.182 L1950.73 194.765 Q1950.73 191.825 1948.79 190.228 Q1946.87 188.607 1943.37 188.607 Q1941.15 188.607 1939.04 189.14 Q1936.93 189.672 1934.99 190.737 L1934.99 186.802 Q1937.33 185.899 1939.53 185.459 Q1941.73 184.996 1943.81 184.996 Q1949.43 184.996 1952.21 187.913 Q1954.99 190.83 1954.99 196.756 Z" fill="#000000" fill-rule="evenodd" fill-opacity="1" /><path clip-path="url(#clip960)" d="M1967.88 207.658 L1967.88 221.408 L1963.6 221.408 L1963.6 185.621 L1967.88 185.621 L1967.88 189.557 Q1969.23 187.242 1971.26 186.131 Q1973.32 184.996 1976.17 184.996 Q1980.89 184.996 1983.83 188.746 Q1986.8 192.496 1986.8 198.607 Q1986.8 204.719 1983.83 208.468 Q1980.89 212.218 1976.17 212.218 Q1973.32 212.218 1971.26 211.107 Q1969.23 209.973 1967.88 207.658 M1982.37 198.607 Q1982.37 193.908 1980.43 191.246 Q1978.51 188.561 1975.13 188.561 Q1971.75 188.561 1969.81 191.246 Q1967.88 193.908 1967.88 198.607 Q1967.88 203.306 1969.81 205.992 Q1971.75 208.654 1975.13 208.654 Q1978.51 208.654 1980.43 205.992 Q1982.37 203.306 1982.37 198.607 Z" fill="#000000" fill-rule="evenodd" fill-opacity="1" /><path clip-path="url(#clip960)" d="M2003.9 188.607 Q2000.48 188.607 1998.49 191.293 Q1996.49 193.955 1996.49 198.607 Q1996.49 203.26 1998.46 205.945 Q2000.45 208.607 2003.9 208.607 Q2007.3 208.607 2009.3 205.922 Q2011.29 203.237 2011.29 198.607 Q2011.29 194.001 2009.3 191.316 Q2007.3 188.607 2003.9 188.607 M2003.9 184.996 Q2009.46 184.996 2012.63 188.607 Q2015.8 192.219 2015.8 198.607 Q2015.8 204.973 2012.63 208.607 Q2009.46 212.218 2003.9 212.218 Q1998.32 212.218 1995.15 208.607 Q1992 204.973 1992 198.607 Q1992 192.219 1995.15 188.607 Q1998.32 184.996 2003.9 184.996 Z" fill="#000000" fill-rule="evenodd" fill-opacity="1" /><path clip-path="url(#clip960)" d="M2022.86 175.529 L2027.12 175.529 L2027.12 211.547 L2022.86 211.547 L2022.86 175.529 Z" fill="#000000" fill-rule="evenodd" fill-opacity="1" /><path clip-path="url(#clip960)" d="M2047.81 198.515 Q2042.65 198.515 2040.66 199.695 Q2038.67 200.876 2038.67 203.723 Q2038.67 205.992 2040.15 207.334 Q2041.66 208.654 2044.23 208.654 Q2047.77 208.654 2049.9 206.154 Q2052.05 203.631 2052.05 199.464 L2052.05 198.515 L2047.81 198.515 M2056.31 196.756 L2056.31 211.547 L2052.05 211.547 L2052.05 207.612 Q2050.59 209.973 2048.42 211.107 Q2046.24 212.218 2043.09 212.218 Q2039.11 212.218 2036.75 209.996 Q2034.41 207.751 2034.41 204.001 Q2034.41 199.626 2037.33 197.404 Q2040.27 195.182 2046.08 195.182 L2052.05 195.182 L2052.05 194.765 Q2052.05 191.825 2050.11 190.228 Q2048.18 188.607 2044.69 188.607 Q2042.47 188.607 2040.36 189.14 Q2038.25 189.672 2036.31 190.737 L2036.31 186.802 Q2038.65 185.899 2040.85 185.459 Q2043.05 184.996 2045.13 184.996 Q2050.75 184.996 2053.53 187.913 Q2056.31 190.83 2056.31 196.756 Z" fill="#000000" fill-rule="evenodd" fill-opacity="1" /><path clip-path="url(#clip960)" d="M2069.3 178.26 L2069.3 185.621 L2078.07 185.621 L2078.07 188.932 L2069.3 188.932 L2069.3 203.006 Q2069.3 206.177 2070.15 207.08 Q2071.03 207.982 2073.69 207.982 L2078.07 207.982 L2078.07 211.547 L2073.69 211.547 Q2068.76 211.547 2066.89 209.718 Q2065.01 207.867 2065.01 203.006 L2065.01 188.932 L2061.89 188.932 L2061.89 185.621 L2065.01 185.621 L2065.01 178.26 L2069.3 178.26 Z" fill="#000000" fill-rule="evenodd" fill-opacity="1" /><path clip-path="url(#clip960)" d="M2083.67 185.621 L2087.93 185.621 L2087.93 211.547 L2083.67 211.547 L2083.67 185.621 M2083.67 175.529 L2087.93 175.529 L2087.93 180.922 L2083.67 180.922 L2083.67 175.529 Z" fill="#000000" fill-rule="evenodd" fill-opacity="1" /><path clip-path="url(#clip960)" d="M2106.89 188.607 Q2103.46 188.607 2101.47 191.293 Q2099.48 193.955 2099.48 198.607 Q2099.48 203.26 2101.45 205.945 Q2103.44 208.607 2106.89 208.607 Q2110.29 208.607 2112.28 205.922 Q2114.27 203.237 2114.27 198.607 Q2114.27 194.001 2112.28 191.316 Q2110.29 188.607 2106.89 188.607 M2106.89 184.996 Q2112.44 184.996 2115.61 188.607 Q2118.79 192.219 2118.79 198.607 Q2118.79 204.973 2115.61 208.607 Q2112.44 212.218 2106.89 212.218 Q2101.31 212.218 2098.14 208.607 Q2094.99 204.973 2094.99 198.607 Q2094.99 192.219 2098.14 188.607 Q2101.31 184.996 2106.89 184.996 Z" fill="#000000" fill-rule="evenodd" fill-opacity="1" /><path clip-path="url(#clip960)" d="M2147.4 195.899 L2147.4 211.547 L2143.14 211.547 L2143.14 196.038 Q2143.14 192.357 2141.7 190.529 Q2140.27 188.7 2137.4 188.7 Q2133.95 188.7 2131.96 190.899 Q2129.97 193.098 2129.97 196.894 L2129.97 211.547 L2125.68 211.547 L2125.68 185.621 L2129.97 185.621 L2129.97 189.649 Q2131.49 187.311 2133.55 186.154 Q2135.64 184.996 2138.35 184.996 Q2142.81 184.996 2145.11 187.774 Q2147.4 190.529 2147.4 195.899 Z" fill="#000000" fill-rule="evenodd" fill-opacity="1" /><polyline clip-path="url(#clip960)" style="stroke:#3da44d; stroke-linecap:butt; stroke-linejoin:round; stroke-width:4; stroke-opacity:1; fill:none" points="
  1117.75,246.107 1248.98,246.107 
  "/>
<line clip-path="url(#clip960)" x1="1183.36" y1="246.107" x2="1183.36" y2="220.507" style="stroke:#3da44d; stroke-width:4.9152; stroke-opacity:1"/>
<line clip-path="url(#clip960)" x1="1183.36" y1="246.107" x2="1157.76" y2="246.107" style="stroke:#3da44d; stroke-width:4.9152; stroke-opacity:1"/>
<line clip-path="url(#clip960)" x1="1183.36" y1="246.107" x2="1183.36" y2="271.707" style="stroke:#3da44d; stroke-width:4.9152; stroke-opacity:1"/>
<line clip-path="url(#clip960)" x1="1183.36" y1="246.107" x2="1208.96" y2="246.107" style="stroke:#3da44d; stroke-width:4.9152; stroke-opacity:1"/>
<path clip-path="url(#clip960)" d="M1270.85 228.827 L1275.53 228.827 L1275.53 263.387 L1270.85 263.387 L1270.85 228.827 Z" fill="#000000" fill-rule="evenodd" fill-opacity="1" /><path clip-path="url(#clip960)" d="M1304.83 242.438 Q1306.43 239.568 1308.65 238.202 Q1310.87 236.836 1313.88 236.836 Q1317.93 236.836 1320.13 239.684 Q1322.33 242.508 1322.33 247.739 L1322.33 263.387 L1318.05 263.387 L1318.05 247.878 Q1318.05 244.151 1316.73 242.346 Q1315.41 240.54 1312.7 240.54 Q1309.39 240.54 1307.47 242.739 Q1305.55 244.938 1305.55 248.734 L1305.55 263.387 L1301.27 263.387 L1301.27 247.878 Q1301.27 244.128 1299.95 242.346 Q1298.63 240.54 1295.87 240.54 Q1292.61 240.54 1290.69 242.762 Q1288.77 244.961 1288.77 248.734 L1288.77 263.387 L1284.48 263.387 L1284.48 237.461 L1288.77 237.461 L1288.77 241.489 Q1290.23 239.105 1292.26 237.971 Q1294.3 236.836 1297.1 236.836 Q1299.92 236.836 1301.89 238.272 Q1303.88 239.707 1304.83 242.438 Z" fill="#000000" fill-rule="evenodd" fill-opacity="1" /><path clip-path="url(#clip960)" d="M1334.95 259.498 L1334.95 273.248 L1330.67 273.248 L1330.67 237.461 L1334.95 237.461 L1334.95 241.397 Q1336.29 239.082 1338.33 237.971 Q1340.39 236.836 1343.23 236.836 Q1347.96 236.836 1350.9 240.586 Q1353.86 244.336 1353.86 250.447 Q1353.86 256.559 1350.9 260.308 Q1347.96 264.058 1343.23 264.058 Q1340.39 264.058 1338.33 262.947 Q1336.29 261.813 1334.95 259.498 M1349.44 250.447 Q1349.44 245.748 1347.49 243.086 Q1345.57 240.401 1342.19 240.401 Q1338.81 240.401 1336.87 243.086 Q1334.95 245.748 1334.95 250.447 Q1334.95 255.146 1336.87 257.832 Q1338.81 260.494 1342.19 260.494 Q1345.57 260.494 1347.49 257.832 Q1349.44 255.146 1349.44 250.447 Z" fill="#000000" fill-rule="evenodd" fill-opacity="1" /><path clip-path="url(#clip960)" d="M1360.92 227.369 L1365.18 227.369 L1365.18 263.387 L1360.92 263.387 L1360.92 227.369 Z" fill="#000000" fill-rule="evenodd" fill-opacity="1" /><path clip-path="url(#clip960)" d="M1374.09 237.461 L1378.35 237.461 L1378.35 263.387 L1374.09 263.387 L1374.09 237.461 M1374.09 227.369 L1378.35 227.369 L1378.35 232.762 L1374.09 232.762 L1374.09 227.369 Z" fill="#000000" fill-rule="evenodd" fill-opacity="1" /><path clip-path="url(#clip960)" d="M1405.92 238.457 L1405.92 242.438 Q1404.11 241.443 1402.28 240.957 Q1400.48 240.447 1398.63 240.447 Q1394.48 240.447 1392.19 243.086 Q1389.9 245.702 1389.9 250.447 Q1389.9 255.193 1392.19 257.832 Q1394.48 260.447 1398.63 260.447 Q1400.48 260.447 1402.28 259.961 Q1404.11 259.452 1405.92 258.457 L1405.92 262.392 Q1404.14 263.225 1402.22 263.642 Q1400.32 264.058 1398.16 264.058 Q1392.31 264.058 1388.86 260.378 Q1385.41 256.697 1385.41 250.447 Q1385.41 244.105 1388.88 240.471 Q1392.38 236.836 1398.44 236.836 Q1400.41 236.836 1402.28 237.253 Q1404.16 237.647 1405.92 238.457 Z" fill="#000000" fill-rule="evenodd" fill-opacity="1" /><path clip-path="url(#clip960)" d="M1413.33 237.461 L1417.59 237.461 L1417.59 263.387 L1413.33 263.387 L1413.33 237.461 M1413.33 227.369 L1417.59 227.369 L1417.59 232.762 L1413.33 232.762 L1413.33 227.369 Z" fill="#000000" fill-rule="evenodd" fill-opacity="1" /><path clip-path="url(#clip960)" d="M1430.71 230.1 L1430.71 237.461 L1439.48 237.461 L1439.48 240.772 L1430.71 240.772 L1430.71 254.846 Q1430.71 258.017 1431.57 258.92 Q1432.45 259.822 1435.11 259.822 L1439.48 259.822 L1439.48 263.387 L1435.11 263.387 Q1430.18 263.387 1428.3 261.558 Q1426.43 259.707 1426.43 254.846 L1426.43 240.772 L1423.3 240.772 L1423.3 237.461 L1426.43 237.461 L1426.43 230.1 L1430.71 230.1 Z" fill="#000000" fill-rule="evenodd" fill-opacity="1" /><path clip-path="url(#clip960)" d="M1445.27 228.827 L1449.95 228.827 L1449.95 242.994 L1466.94 242.994 L1466.94 228.827 L1471.61 228.827 L1471.61 263.387 L1466.94 263.387 L1466.94 246.929 L1449.95 246.929 L1449.95 263.387 L1445.27 263.387 L1445.27 228.827 Z" fill="#000000" fill-rule="evenodd" fill-opacity="1" /><path clip-path="url(#clip960)" d="M1492.52 250.355 Q1487.35 250.355 1485.36 251.535 Q1483.37 252.716 1483.37 255.563 Q1483.37 257.832 1484.85 259.174 Q1486.36 260.494 1488.93 260.494 Q1492.47 260.494 1494.6 257.994 Q1496.75 255.471 1496.75 251.304 L1496.75 250.355 L1492.52 250.355 M1501.01 248.596 L1501.01 263.387 L1496.75 263.387 L1496.75 259.452 Q1495.29 261.813 1493.12 262.947 Q1490.94 264.058 1487.79 264.058 Q1483.81 264.058 1481.45 261.836 Q1479.11 259.591 1479.11 255.841 Q1479.11 251.466 1482.03 249.244 Q1484.97 247.022 1490.78 247.022 L1496.75 247.022 L1496.75 246.605 Q1496.75 243.665 1494.81 242.068 Q1492.89 240.447 1489.39 240.447 Q1487.17 240.447 1485.06 240.98 Q1482.96 241.512 1481.01 242.577 L1481.01 238.642 Q1483.35 237.739 1485.55 237.299 Q1487.75 236.836 1489.83 236.836 Q1495.46 236.836 1498.23 239.753 Q1501.01 242.67 1501.01 248.596 Z" fill="#000000" fill-rule="evenodd" fill-opacity="1" /><path clip-path="url(#clip960)" d="M1509.78 237.461 L1514.04 237.461 L1514.04 263.387 L1509.78 263.387 L1509.78 237.461 M1509.78 227.369 L1514.04 227.369 L1514.04 232.762 L1509.78 232.762 L1509.78 227.369 Z" fill="#000000" fill-rule="evenodd" fill-opacity="1" /><path clip-path="url(#clip960)" d="M1537.98 241.443 Q1537.26 241.026 1536.4 240.841 Q1535.57 240.633 1534.55 240.633 Q1530.94 240.633 1529 242.994 Q1527.08 245.332 1527.08 249.73 L1527.08 263.387 L1522.79 263.387 L1522.79 237.461 L1527.08 237.461 L1527.08 241.489 Q1528.42 239.128 1530.57 237.994 Q1532.72 236.836 1535.8 236.836 Q1536.24 236.836 1536.78 236.906 Q1537.31 236.952 1537.96 237.068 L1537.98 241.443 Z" fill="#000000" fill-rule="evenodd" fill-opacity="1" /><path clip-path="url(#clip960)" d="M1563.58 249.359 L1563.58 251.443 L1544 251.443 Q1544.27 255.841 1546.64 258.156 Q1549.02 260.447 1553.26 260.447 Q1555.71 260.447 1558 259.846 Q1560.32 259.244 1562.59 258.04 L1562.59 262.068 Q1560.29 263.04 1557.89 263.549 Q1555.48 264.058 1553 264.058 Q1546.8 264.058 1543.16 260.447 Q1539.55 256.836 1539.55 250.679 Q1539.55 244.313 1542.98 240.586 Q1546.43 236.836 1552.26 236.836 Q1557.49 236.836 1560.52 240.216 Q1563.58 243.572 1563.58 249.359 M1559.32 248.109 Q1559.27 244.614 1557.35 242.531 Q1555.46 240.447 1552.31 240.447 Q1548.74 240.447 1546.59 242.461 Q1544.46 244.475 1544.14 248.133 L1559.32 248.109 Z" fill="#000000" fill-rule="evenodd" fill-opacity="1" /><path clip-path="url(#clip960)" d="M1585.59 241.443 Q1584.88 241.026 1584.02 240.841 Q1583.19 240.633 1582.17 240.633 Q1578.56 240.633 1576.61 242.994 Q1574.69 245.332 1574.69 249.73 L1574.69 263.387 L1570.41 263.387 L1570.41 237.461 L1574.69 237.461 L1574.69 241.489 Q1576.03 239.128 1578.19 237.994 Q1580.34 236.836 1583.42 236.836 Q1583.86 236.836 1584.39 236.906 Q1584.92 236.952 1585.57 237.068 L1585.59 241.443 Z" fill="#000000" fill-rule="evenodd" fill-opacity="1" /><path clip-path="url(#clip960)" d="M1587.17 228.827 L1591.89 228.827 L1599.16 258.04 L1606.4 228.827 L1611.66 228.827 L1618.93 258.04 L1626.17 228.827 L1630.92 228.827 L1622.24 263.387 L1616.36 263.387 L1609.07 233.387 L1601.71 263.387 L1595.83 263.387 L1587.17 228.827 Z" fill="#000000" fill-rule="evenodd" fill-opacity="1" /><path clip-path="url(#clip960)" d="M1645.69 250.355 Q1640.52 250.355 1638.53 251.535 Q1636.54 252.716 1636.54 255.563 Q1636.54 257.832 1638.02 259.174 Q1639.53 260.494 1642.1 260.494 Q1645.64 260.494 1647.77 257.994 Q1649.92 255.471 1649.92 251.304 L1649.92 250.355 L1645.69 250.355 M1654.18 248.596 L1654.18 263.387 L1649.92 263.387 L1649.92 259.452 Q1648.46 261.813 1646.29 262.947 Q1644.11 264.058 1640.96 264.058 Q1636.98 264.058 1634.62 261.836 Q1632.28 259.591 1632.28 255.841 Q1632.28 251.466 1635.2 249.244 Q1638.14 247.022 1643.95 247.022 L1649.92 247.022 L1649.92 246.605 Q1649.92 243.665 1647.98 242.068 Q1646.06 240.447 1642.56 240.447 Q1640.34 240.447 1638.23 240.98 Q1636.13 241.512 1634.18 242.577 L1634.18 238.642 Q1636.52 237.739 1638.72 237.299 Q1640.92 236.836 1643 236.836 Q1648.63 236.836 1651.4 239.753 Q1654.18 242.67 1654.18 248.596 Z" fill="#000000" fill-rule="evenodd" fill-opacity="1" /><path clip-path="url(#clip960)" d="M1684.51 247.739 L1684.51 263.387 L1680.25 263.387 L1680.25 247.878 Q1680.25 244.197 1678.81 242.369 Q1677.38 240.54 1674.51 240.54 Q1671.06 240.54 1669.07 242.739 Q1667.08 244.938 1667.08 248.734 L1667.08 263.387 L1662.79 263.387 L1662.79 237.461 L1667.08 237.461 L1667.08 241.489 Q1668.6 239.151 1670.66 237.994 Q1672.75 236.836 1675.45 236.836 Q1679.92 236.836 1682.21 239.614 Q1684.51 242.369 1684.51 247.739 Z" fill="#000000" fill-rule="evenodd" fill-opacity="1" /><path clip-path="url(#clip960)" d="M1714.55 247.739 L1714.55 263.387 L1710.29 263.387 L1710.29 247.878 Q1710.29 244.197 1708.86 242.369 Q1707.42 240.54 1704.55 240.54 Q1701.1 240.54 1699.11 242.739 Q1697.12 244.938 1697.12 248.734 L1697.12 263.387 L1692.84 263.387 L1692.84 237.461 L1697.12 237.461 L1697.12 241.489 Q1698.65 239.151 1700.71 237.994 Q1702.79 236.836 1705.5 236.836 Q1709.97 236.836 1712.26 239.614 Q1714.55 242.369 1714.55 247.739 Z" fill="#000000" fill-rule="evenodd" fill-opacity="1" /><path clip-path="url(#clip960)" d="M1745.22 249.359 L1745.22 251.443 L1725.64 251.443 Q1725.92 255.841 1728.28 258.156 Q1730.66 260.447 1734.9 260.447 Q1737.35 260.447 1739.64 259.846 Q1741.96 259.244 1744.23 258.04 L1744.23 262.068 Q1741.94 263.04 1739.53 263.549 Q1737.12 264.058 1734.64 264.058 Q1728.44 264.058 1724.81 260.447 Q1721.2 256.836 1721.2 250.679 Q1721.2 244.313 1724.62 240.586 Q1728.07 236.836 1733.9 236.836 Q1739.14 236.836 1742.17 240.216 Q1745.22 243.572 1745.22 249.359 M1740.96 248.109 Q1740.92 244.614 1739 242.531 Q1737.1 240.447 1733.95 240.447 Q1730.39 240.447 1728.23 242.461 Q1726.1 244.475 1725.78 248.133 L1740.96 248.109 Z" fill="#000000" fill-rule="evenodd" fill-opacity="1" /><path clip-path="url(#clip960)" d="M1767.24 241.443 Q1766.52 241.026 1765.66 240.841 Q1764.83 240.633 1763.81 240.633 Q1760.2 240.633 1758.26 242.994 Q1756.33 245.332 1756.33 249.73 L1756.33 263.387 L1752.05 263.387 L1752.05 237.461 L1756.33 237.461 L1756.33 241.489 Q1757.68 239.128 1759.83 237.994 Q1761.98 236.836 1765.06 236.836 Q1765.5 236.836 1766.03 236.906 Q1766.57 236.952 1767.21 237.068 L1767.24 241.443 Z" fill="#000000" fill-rule="evenodd" fill-opacity="1" /><path clip-path="url(#clip960)" d="M1771.89 228.827 L1793.74 228.827 L1793.74 232.762 L1776.57 232.762 L1776.57 242.994 L1793.02 242.994 L1793.02 246.929 L1776.57 246.929 L1776.57 259.452 L1794.16 259.452 L1794.16 263.387 L1771.89 263.387 L1771.89 228.827 Z" fill="#000000" fill-rule="evenodd" fill-opacity="1" /><path clip-path="url(#clip960)" d="M1823.21 237.461 L1813.83 250.077 L1823.69 263.387 L1818.67 263.387 L1811.13 253.202 L1803.58 263.387 L1798.56 263.387 L1808.63 249.822 L1799.41 237.461 L1804.44 237.461 L1811.31 246.697 L1818.19 237.461 L1823.21 237.461 Z" fill="#000000" fill-rule="evenodd" fill-opacity="1" /><path clip-path="url(#clip960)" d="M1833.93 230.1 L1833.93 237.461 L1842.7 237.461 L1842.7 240.772 L1833.93 240.772 L1833.93 254.846 Q1833.93 258.017 1834.78 258.92 Q1835.66 259.822 1838.32 259.822 L1842.7 259.822 L1842.7 263.387 L1838.32 263.387 Q1833.39 263.387 1831.52 261.558 Q1829.64 259.707 1829.64 254.846 L1829.64 240.772 L1826.52 240.772 L1826.52 237.461 L1829.64 237.461 L1829.64 230.1 L1833.93 230.1 Z" fill="#000000" fill-rule="evenodd" fill-opacity="1" /><path clip-path="url(#clip960)" d="M1863.32 241.443 Q1862.61 241.026 1861.75 240.841 Q1860.92 240.633 1859.9 240.633 Q1856.29 240.633 1854.34 242.994 Q1852.42 245.332 1852.42 249.73 L1852.42 263.387 L1848.14 263.387 L1848.14 237.461 L1852.42 237.461 L1852.42 241.489 Q1853.76 239.128 1855.92 237.994 Q1858.07 236.836 1861.15 236.836 Q1861.59 236.836 1862.12 236.906 Q1862.65 236.952 1863.3 237.068 L1863.32 241.443 Z" fill="#000000" fill-rule="evenodd" fill-opacity="1" /><path clip-path="url(#clip960)" d="M1879.57 250.355 Q1874.41 250.355 1872.42 251.535 Q1870.43 252.716 1870.43 255.563 Q1870.43 257.832 1871.91 259.174 Q1873.42 260.494 1875.99 260.494 Q1879.53 260.494 1881.66 257.994 Q1883.81 255.471 1883.81 251.304 L1883.81 250.355 L1879.57 250.355 M1888.07 248.596 L1888.07 263.387 L1883.81 263.387 L1883.81 259.452 Q1882.35 261.813 1880.18 262.947 Q1878 264.058 1874.85 264.058 Q1870.87 264.058 1868.51 261.836 Q1866.17 259.591 1866.17 255.841 Q1866.17 251.466 1869.09 249.244 Q1872.03 247.022 1877.84 247.022 L1883.81 247.022 L1883.81 246.605 Q1883.81 243.665 1881.87 242.068 Q1879.94 240.447 1876.45 240.447 Q1874.23 240.447 1872.12 240.98 Q1870.01 241.512 1868.07 242.577 L1868.07 238.642 Q1870.41 237.739 1872.61 237.299 Q1874.81 236.836 1876.89 236.836 Q1882.51 236.836 1885.29 239.753 Q1888.07 242.67 1888.07 248.596 Z" fill="#000000" fill-rule="evenodd" fill-opacity="1" /><path clip-path="url(#clip960)" d="M1900.96 259.498 L1900.96 273.248 L1896.68 273.248 L1896.68 237.461 L1900.96 237.461 L1900.96 241.397 Q1902.31 239.082 1904.34 237.971 Q1906.4 236.836 1909.25 236.836 Q1913.97 236.836 1916.91 240.586 Q1919.87 244.336 1919.87 250.447 Q1919.87 256.559 1916.91 260.308 Q1913.97 264.058 1909.25 264.058 Q1906.4 264.058 1904.34 262.947 Q1902.31 261.813 1900.96 259.498 M1915.45 250.447 Q1915.45 245.748 1913.51 243.086 Q1911.59 240.401 1908.21 240.401 Q1904.83 240.401 1902.88 243.086 Q1900.96 245.748 1900.96 250.447 Q1900.96 255.146 1902.88 257.832 Q1904.83 260.494 1908.21 260.494 Q1911.59 260.494 1913.51 257.832 Q1915.45 255.146 1915.45 250.447 Z" fill="#000000" fill-rule="evenodd" fill-opacity="1" /><path clip-path="url(#clip960)" d="M1936.98 240.447 Q1933.56 240.447 1931.56 243.133 Q1929.57 245.795 1929.57 250.447 Q1929.57 255.1 1931.54 257.785 Q1933.53 260.447 1936.98 260.447 Q1940.38 260.447 1942.37 257.762 Q1944.37 255.077 1944.37 250.447 Q1944.37 245.841 1942.37 243.156 Q1940.38 240.447 1936.98 240.447 M1936.98 236.836 Q1942.54 236.836 1945.71 240.447 Q1948.88 244.059 1948.88 250.447 Q1948.88 256.813 1945.71 260.447 Q1942.54 264.058 1936.98 264.058 Q1931.4 264.058 1928.23 260.447 Q1925.08 256.813 1925.08 250.447 Q1925.08 244.059 1928.23 240.447 Q1931.4 236.836 1936.98 236.836 Z" fill="#000000" fill-rule="evenodd" fill-opacity="1" /><path clip-path="url(#clip960)" d="M1955.94 227.369 L1960.2 227.369 L1960.2 263.387 L1955.94 263.387 L1955.94 227.369 Z" fill="#000000" fill-rule="evenodd" fill-opacity="1" /><path clip-path="url(#clip960)" d="M1980.89 250.355 Q1975.73 250.355 1973.74 251.535 Q1971.75 252.716 1971.75 255.563 Q1971.75 257.832 1973.23 259.174 Q1974.74 260.494 1977.31 260.494 Q1980.85 260.494 1982.98 257.994 Q1985.13 255.471 1985.13 251.304 L1985.13 250.355 L1980.89 250.355 M1989.39 248.596 L1989.39 263.387 L1985.13 263.387 L1985.13 259.452 Q1983.67 261.813 1981.49 262.947 Q1979.32 264.058 1976.17 264.058 Q1972.19 264.058 1969.83 261.836 Q1967.49 259.591 1967.49 255.841 Q1967.49 251.466 1970.41 249.244 Q1973.35 247.022 1979.16 247.022 L1985.13 247.022 L1985.13 246.605 Q1985.13 243.665 1983.18 242.068 Q1981.26 240.447 1977.77 240.447 Q1975.55 240.447 1973.44 240.98 Q1971.33 241.512 1969.39 242.577 L1969.39 238.642 Q1971.73 237.739 1973.93 237.299 Q1976.12 236.836 1978.21 236.836 Q1983.83 236.836 1986.61 239.753 Q1989.39 242.67 1989.39 248.596 Z" fill="#000000" fill-rule="evenodd" fill-opacity="1" /><path clip-path="url(#clip960)" d="M2002.37 230.1 L2002.37 237.461 L2011.15 237.461 L2011.15 240.772 L2002.37 240.772 L2002.37 254.846 Q2002.37 258.017 2003.23 258.92 Q2004.11 259.822 2006.77 259.822 L2011.15 259.822 L2011.15 263.387 L2006.77 263.387 Q2001.84 263.387 1999.97 261.558 Q1998.09 259.707 1998.09 254.846 L1998.09 240.772 L1994.97 240.772 L1994.97 237.461 L1998.09 237.461 L1998.09 230.1 L2002.37 230.1 Z" fill="#000000" fill-rule="evenodd" fill-opacity="1" /><path clip-path="url(#clip960)" d="M2016.75 237.461 L2021.01 237.461 L2021.01 263.387 L2016.75 263.387 L2016.75 237.461 M2016.75 227.369 L2021.01 227.369 L2021.01 232.762 L2016.75 232.762 L2016.75 227.369 Z" fill="#000000" fill-rule="evenodd" fill-opacity="1" /><path clip-path="url(#clip960)" d="M2039.97 240.447 Q2036.54 240.447 2034.55 243.133 Q2032.56 245.795 2032.56 250.447 Q2032.56 255.1 2034.53 257.785 Q2036.52 260.447 2039.97 260.447 Q2043.37 260.447 2045.36 257.762 Q2047.35 255.077 2047.35 250.447 Q2047.35 245.841 2045.36 243.156 Q2043.37 240.447 2039.97 240.447 M2039.97 236.836 Q2045.52 236.836 2048.69 240.447 Q2051.86 244.059 2051.86 250.447 Q2051.86 256.813 2048.69 260.447 Q2045.52 264.058 2039.97 264.058 Q2034.39 264.058 2031.22 260.447 Q2028.07 256.813 2028.07 250.447 Q2028.07 244.059 2031.22 240.447 Q2034.39 236.836 2039.97 236.836 Z" fill="#000000" fill-rule="evenodd" fill-opacity="1" /><path clip-path="url(#clip960)" d="M2080.48 247.739 L2080.48 263.387 L2076.22 263.387 L2076.22 247.878 Q2076.22 244.197 2074.78 242.369 Q2073.35 240.54 2070.48 240.54 Q2067.03 240.54 2065.04 242.739 Q2063.05 244.938 2063.05 248.734 L2063.05 263.387 L2058.76 263.387 L2058.76 237.461 L2063.05 237.461 L2063.05 241.489 Q2064.57 239.151 2066.63 237.994 Q2068.72 236.836 2071.42 236.836 Q2075.89 236.836 2078.18 239.614 Q2080.48 242.369 2080.48 247.739 Z" fill="#000000" fill-rule="evenodd" fill-opacity="1" /></svg>
