<?xml version="1.0" encoding="utf-8"?>
<svg xmlns="http://www.w3.org/2000/svg" xmlns:xlink="http://www.w3.org/1999/xlink" width="576" height="384" viewBox="0 0 2304 1536">
<defs>
  <clipPath id="clip940">
    <rect x="0" y="0" width="2304" height="1536"/>
  </clipPath>
</defs>
<path clip-path="url(#clip940)" d="
M0 1536 L2304 1536 L2304 0 L0 0  Z
  " fill="#ffffff" fill-rule="evenodd" fill-opacity="1"/>
<defs>
  <clipPath id="clip941">
    <rect x="460" y="0" width="1614" height="1536"/>
  </clipPath>
</defs>
<path clip-path="url(#clip940)" d="
M288.554 1347.54 L2256.76 1347.54 L2256.76 47.2441 L288.554 47.2441  Z
  " fill="#ffffff" fill-rule="evenodd" fill-opacity="1"/>
<defs>
  <clipPath id="clip942">
    <rect x="288" y="47" width="1969" height="1301"/>
  </clipPath>
</defs>
<polyline clip-path="url(#clip942)" style="stroke:#000000; stroke-linecap:butt; stroke-linejoin:round; stroke-width:2; stroke-opacity:0.1; fill:none" points="
  468.656,1347.54 468.656,47.2441 
  "/>
<polyline clip-path="url(#clip942)" style="stroke:#000000; stroke-linecap:butt; stroke-linejoin:round; stroke-width:2; stroke-opacity:0.1; fill:none" points="
  1493.2,1347.54 1493.2,47.2441 
  "/>
<polyline clip-path="url(#clip940)" style="stroke:#000000; stroke-linecap:butt; stroke-linejoin:round; stroke-width:4; stroke-opacity:1; fill:none" points="
  288.554,1347.54 2256.76,1347.54 
  "/>
<polyline clip-path="url(#clip940)" style="stroke:#000000; stroke-linecap:butt; stroke-linejoin:round; stroke-width:4; stroke-opacity:1; fill:none" points="
  468.656,1347.54 468.656,1328.64 
  "/>
<polyline clip-path="url(#clip940)" style="stroke:#000000; stroke-linecap:butt; stroke-linejoin:round; stroke-width:4; stroke-opacity:1; fill:none" points="
  1493.2,1347.54 1493.2,1328.64 
  "/>
<path clip-path="url(#clip940)" d="M434.429 1420.89 L442.067 1420.89 L442.067 1394.53 L433.757 1396.19 L433.757 1391.94 L442.021 1390.27 L446.697 1390.27 L446.697 1420.89 L454.336 1420.89 L454.336 1424.83 L434.429 1424.83 L434.429 1420.89 Z" fill="#000000" fill-rule="evenodd" fill-opacity="1" /><path clip-path="url(#clip940)" d="M473.78 1393.35 Q470.169 1393.35 468.34 1396.91 Q466.535 1400.45 466.535 1407.58 Q466.535 1414.69 468.34 1418.25 Q470.169 1421.8 473.78 1421.8 Q477.414 1421.8 479.22 1418.25 Q481.049 1414.69 481.049 1407.58 Q481.049 1400.45 479.22 1396.91 Q477.414 1393.35 473.78 1393.35 M473.78 1389.64 Q479.59 1389.64 482.646 1394.25 Q485.725 1398.83 485.725 1407.58 Q485.725 1416.31 482.646 1420.92 Q479.59 1425.5 473.78 1425.5 Q467.97 1425.5 464.891 1420.92 Q461.836 1416.31 461.836 1407.58 Q461.836 1398.83 464.891 1394.25 Q467.97 1389.64 473.78 1389.64 Z" fill="#000000" fill-rule="evenodd" fill-opacity="1" /><path clip-path="url(#clip940)" d="M490.295 1394.22 L503.554 1394.22 L503.554 1397.42 L485.725 1397.42 L485.725 1394.22 Q487.888 1391.98 491.611 1388.22 Q495.354 1384.44 496.313 1383.35 Q498.138 1381.3 498.852 1379.89 Q499.586 1378.46 499.586 1377.09 Q499.586 1374.85 498.006 1373.44 Q496.445 1372.03 493.925 1372.03 Q492.138 1372.03 490.144 1372.65 Q488.17 1373.27 485.913 1374.53 L485.913 1370.69 Q488.207 1369.77 490.201 1369.3 Q492.194 1368.83 493.85 1368.83 Q498.213 1368.83 500.808 1371.01 Q503.404 1373.19 503.404 1376.84 Q503.404 1378.57 502.746 1380.13 Q502.106 1381.68 500.395 1383.78 Q499.924 1384.33 497.404 1386.94 Q494.884 1389.54 490.295 1394.22 Z" fill="#000000" fill-rule="evenodd" fill-opacity="1" /><path clip-path="url(#clip940)" d="M1457.65 1420.89 L1465.29 1420.89 L1465.29 1394.53 L1456.98 1396.19 L1456.98 1391.94 L1465.25 1390.27 L1469.92 1390.27 L1469.92 1420.89 L1477.56 1420.89 L1477.56 1424.83 L1457.65 1424.83 L1457.65 1420.89 Z" fill="#000000" fill-rule="evenodd" fill-opacity="1" /><path clip-path="url(#clip940)" d="M1497 1393.35 Q1493.39 1393.35 1491.56 1396.91 Q1489.76 1400.45 1489.76 1407.58 Q1489.76 1414.69 1491.56 1418.25 Q1493.39 1421.8 1497 1421.8 Q1500.64 1421.8 1502.44 1418.25 Q1504.27 1414.69 1504.27 1407.58 Q1504.27 1400.45 1502.44 1396.91 Q1500.64 1393.35 1497 1393.35 M1497 1389.64 Q1502.81 1389.64 1505.87 1394.25 Q1508.95 1398.83 1508.95 1407.58 Q1508.95 1416.31 1505.87 1420.92 Q1502.81 1425.5 1497 1425.5 Q1491.19 1425.5 1488.12 1420.92 Q1485.06 1416.31 1485.06 1407.58 Q1485.06 1398.83 1488.12 1394.25 Q1491.19 1389.64 1497 1389.64 Z" fill="#000000" fill-rule="evenodd" fill-opacity="1" /><path clip-path="url(#clip940)" d="M1521.63 1372.65 L1512.03 1387.64 L1521.63 1387.64 L1521.63 1372.65 M1520.63 1369.34 L1525.41 1369.34 L1525.41 1387.64 L1529.41 1387.64 L1529.41 1390.8 L1525.41 1390.8 L1525.41 1397.42 L1521.63 1397.42 L1521.63 1390.8 L1508.95 1390.8 L1508.95 1387.13 L1520.63 1369.34 Z" fill="#000000" fill-rule="evenodd" fill-opacity="1" /><path clip-path="url(#clip940)" d="M1196.41 1461.87 L1226.46 1461.87 L1226.46 1467.28 L1202.84 1467.28 L1202.84 1481.34 L1225.47 1481.34 L1225.47 1486.76 L1202.84 1486.76 L1202.84 1503.97 L1227.03 1503.97 L1227.03 1509.39 L1196.41 1509.39 L1196.41 1461.87 Z" fill="#000000" fill-rule="evenodd" fill-opacity="1" /><path clip-path="url(#clip940)" d="M1258 1479.21 Q1257.01 1478.64 1255.83 1478.38 Q1254.69 1478.1 1253.29 1478.1 Q1248.32 1478.1 1245.65 1481.34 Q1243.01 1484.56 1243.01 1490.61 L1243.01 1509.39 L1237.12 1509.39 L1237.12 1473.74 L1243.01 1473.74 L1243.01 1479.28 Q1244.85 1476.03 1247.81 1474.47 Q1250.77 1472.88 1255.01 1472.88 Q1255.61 1472.88 1256.34 1472.97 Q1257.08 1473.04 1257.97 1473.2 L1258 1479.21 Z" fill="#000000" fill-rule="evenodd" fill-opacity="1" /><path clip-path="url(#clip940)" d="M1283.65 1479.21 Q1282.67 1478.64 1281.49 1478.38 Q1280.34 1478.1 1278.94 1478.1 Q1273.98 1478.1 1271.3 1481.34 Q1268.66 1484.56 1268.66 1490.61 L1268.66 1509.39 L1262.77 1509.39 L1262.77 1473.74 L1268.66 1473.74 L1268.66 1479.28 Q1270.51 1476.03 1273.47 1474.47 Q1276.43 1472.88 1280.66 1472.88 Q1281.26 1472.88 1282 1472.97 Q1282.73 1473.04 1283.62 1473.2 L1283.65 1479.21 Z" fill="#000000" fill-rule="evenodd" fill-opacity="1" /><path clip-path="url(#clip940)" d="M1302.18 1477.84 Q1297.47 1477.84 1294.73 1481.54 Q1291.99 1485.2 1291.99 1491.59 Q1291.99 1497.99 1294.7 1501.68 Q1297.43 1505.34 1302.18 1505.34 Q1306.85 1505.34 1309.59 1501.65 Q1312.33 1497.96 1312.33 1491.59 Q1312.33 1485.26 1309.59 1481.57 Q1306.85 1477.84 1302.18 1477.84 M1302.18 1472.88 Q1309.81 1472.88 1314.18 1477.84 Q1318.54 1482.81 1318.54 1491.59 Q1318.54 1500.35 1314.18 1505.34 Q1309.81 1510.31 1302.18 1510.31 Q1294.51 1510.31 1290.14 1505.34 Q1285.82 1500.35 1285.82 1491.59 Q1285.82 1482.81 1290.14 1477.84 Q1294.51 1472.88 1302.18 1472.88 Z" fill="#000000" fill-rule="evenodd" fill-opacity="1" /><path clip-path="url(#clip940)" d="M1348.9 1479.21 Q1347.91 1478.64 1346.74 1478.38 Q1345.59 1478.1 1344.19 1478.1 Q1339.22 1478.1 1336.55 1481.34 Q1333.91 1484.56 1333.91 1490.61 L1333.91 1509.39 L1328.02 1509.39 L1328.02 1473.74 L1333.91 1473.74 L1333.91 1479.28 Q1335.76 1476.03 1338.72 1474.47 Q1341.68 1472.88 1345.91 1472.88 Q1346.51 1472.88 1347.25 1472.97 Q1347.98 1473.04 1348.87 1473.2 L1348.9 1479.21 Z" fill="#000000" fill-rule="evenodd" fill-opacity="1" /><polyline clip-path="url(#clip942)" style="stroke:#000000; stroke-linecap:butt; stroke-linejoin:round; stroke-width:2; stroke-opacity:0.1; fill:none" points="
  288.554,1282.6 2256.76,1282.6 
  "/>
<polyline clip-path="url(#clip942)" style="stroke:#000000; stroke-linecap:butt; stroke-linejoin:round; stroke-width:2; stroke-opacity:0.1; fill:none" points="
  288.554,964.724 2256.76,964.724 
  "/>
<polyline clip-path="url(#clip942)" style="stroke:#000000; stroke-linecap:butt; stroke-linejoin:round; stroke-width:2; stroke-opacity:0.1; fill:none" points="
  288.554,646.851 2256.76,646.851 
  "/>
<polyline clip-path="url(#clip942)" style="stroke:#000000; stroke-linecap:butt; stroke-linejoin:round; stroke-width:2; stroke-opacity:0.1; fill:none" points="
  288.554,328.977 2256.76,328.977 
  "/>
<polyline clip-path="url(#clip940)" style="stroke:#000000; stroke-linecap:butt; stroke-linejoin:round; stroke-width:4; stroke-opacity:1; fill:none" points="
  288.554,1347.54 288.554,47.2441 
  "/>
<polyline clip-path="url(#clip940)" style="stroke:#000000; stroke-linecap:butt; stroke-linejoin:round; stroke-width:4; stroke-opacity:1; fill:none" points="
  288.554,1282.6 307.452,1282.6 
  "/>
<polyline clip-path="url(#clip940)" style="stroke:#000000; stroke-linecap:butt; stroke-linejoin:round; stroke-width:4; stroke-opacity:1; fill:none" points="
  288.554,964.724 307.452,964.724 
  "/>
<polyline clip-path="url(#clip940)" style="stroke:#000000; stroke-linecap:butt; stroke-linejoin:round; stroke-width:4; stroke-opacity:1; fill:none" points="
  288.554,646.851 307.452,646.851 
  "/>
<polyline clip-path="url(#clip940)" style="stroke:#000000; stroke-linecap:butt; stroke-linejoin:round; stroke-width:4; stroke-opacity:1; fill:none" points="
  288.554,328.977 307.452,328.977 
  "/>
<path clip-path="url(#clip940)" d="M115.806 1302.39 L123.445 1302.39 L123.445 1276.02 L115.135 1277.69 L115.135 1273.43 L123.399 1271.77 L128.075 1271.77 L128.075 1302.39 L135.714 1302.39 L135.714 1306.33 L115.806 1306.33 L115.806 1302.39 Z" fill="#000000" fill-rule="evenodd" fill-opacity="1" /><path clip-path="url(#clip940)" d="M155.158 1274.84 Q151.547 1274.84 149.718 1278.41 Q147.913 1281.95 147.913 1289.08 Q147.913 1296.19 149.718 1299.75 Q151.547 1303.29 155.158 1303.29 Q158.792 1303.29 160.598 1299.75 Q162.427 1296.19 162.427 1289.08 Q162.427 1281.95 160.598 1278.41 Q158.792 1274.84 155.158 1274.84 M155.158 1271.14 Q160.968 1271.14 164.024 1275.75 Q167.102 1280.33 167.102 1289.08 Q167.102 1297.81 164.024 1302.41 Q160.968 1307 155.158 1307 Q149.348 1307 146.269 1302.41 Q143.214 1297.81 143.214 1289.08 Q143.214 1280.33 146.269 1275.75 Q149.348 1271.14 155.158 1271.14 Z" fill="#000000" fill-rule="evenodd" fill-opacity="1" /><path clip-path="url(#clip940)" d="M167.102 1265.24 L191.214 1265.24 L191.214 1268.44 L167.102 1268.44 L167.102 1265.24 Z" fill="#000000" fill-rule="evenodd" fill-opacity="1" /><path clip-path="url(#clip940)" d="M210.925 1263.77 Q213.652 1264.36 215.175 1266.2 Q216.717 1268.04 216.717 1270.75 Q216.717 1274.91 213.859 1277.18 Q211 1279.46 205.734 1279.46 Q203.966 1279.46 202.085 1279.1 Q200.223 1278.76 198.229 1278.07 L198.229 1274.4 Q199.809 1275.32 201.69 1275.79 Q203.571 1276.26 205.621 1276.26 Q209.194 1276.26 211.056 1274.85 Q212.937 1273.44 212.937 1270.75 Q212.937 1268.27 211.188 1266.88 Q209.458 1265.47 206.354 1265.47 L203.082 1265.47 L203.082 1262.35 L206.505 1262.35 Q209.307 1262.35 210.793 1261.24 Q212.279 1260.11 212.279 1258 Q212.279 1255.84 210.736 1254.69 Q209.213 1253.52 206.354 1253.52 Q204.793 1253.52 203.006 1253.86 Q201.22 1254.2 199.076 1254.92 L199.076 1251.53 Q201.239 1250.93 203.119 1250.63 Q205.019 1250.33 206.693 1250.33 Q211.019 1250.33 213.539 1252.3 Q216.059 1254.26 216.059 1257.61 Q216.059 1259.94 214.724 1261.56 Q213.388 1263.15 210.925 1263.77 Z" fill="#000000" fill-rule="evenodd" fill-opacity="1" /><path clip-path="url(#clip940)" d="M223.921 1274.14 L227.889 1274.14 L227.889 1278.92 L223.921 1278.92 L223.921 1274.14 Z" fill="#000000" fill-rule="evenodd" fill-opacity="1" /><path clip-path="url(#clip940)" d="M244.29 1253.34 Q241.356 1253.34 239.87 1256.23 Q238.403 1259.11 238.403 1264.9 Q238.403 1270.68 239.87 1273.57 Q241.356 1276.45 244.29 1276.45 Q247.242 1276.45 248.709 1273.57 Q250.195 1270.68 250.195 1264.9 Q250.195 1259.11 248.709 1256.23 Q247.242 1253.34 244.29 1253.34 M244.29 1250.33 Q249.01 1250.33 251.493 1254.07 Q253.994 1257.79 253.994 1264.9 Q253.994 1271.99 251.493 1275.74 Q249.01 1279.46 244.29 1279.46 Q239.569 1279.46 237.067 1275.74 Q234.585 1271.99 234.585 1264.9 Q234.585 1257.79 237.067 1254.07 Q239.569 1250.33 244.29 1250.33 Z" fill="#000000" fill-rule="evenodd" fill-opacity="1" /><path clip-path="url(#clip940)" d="M116.54 984.517 L124.179 984.517 L124.179 958.151 L115.869 959.818 L115.869 955.559 L124.132 953.892 L128.808 953.892 L128.808 984.517 L136.447 984.517 L136.447 988.452 L116.54 988.452 L116.54 984.517 Z" fill="#000000" fill-rule="evenodd" fill-opacity="1" /><path clip-path="url(#clip940)" d="M155.892 956.971 Q152.28 956.971 150.452 960.536 Q148.646 964.077 148.646 971.207 Q148.646 978.313 150.452 981.878 Q152.28 985.42 155.892 985.42 Q159.526 985.42 161.331 981.878 Q163.16 978.313 163.16 971.207 Q163.16 964.077 161.331 960.536 Q159.526 956.971 155.892 956.971 M155.892 953.267 Q161.702 953.267 164.757 957.873 Q167.836 962.457 167.836 971.207 Q167.836 979.934 164.757 984.54 Q161.702 989.123 155.892 989.123 Q150.081 989.123 147.003 984.54 Q143.947 979.934 143.947 971.207 Q143.947 962.457 147.003 957.873 Q150.081 953.267 155.892 953.267 Z" fill="#000000" fill-rule="evenodd" fill-opacity="1" /><path clip-path="url(#clip940)" d="M167.836 947.368 L191.947 947.368 L191.947 950.566 L167.836 950.566 L167.836 947.368 Z" fill="#000000" fill-rule="evenodd" fill-opacity="1" /><path clip-path="url(#clip940)" d="M203.42 957.844 L216.68 957.844 L216.68 961.042 L198.85 961.042 L198.85 957.844 Q201.013 955.606 204.737 951.845 Q208.48 948.064 209.439 946.973 Q211.263 944.923 211.978 943.513 Q212.711 942.083 212.711 940.71 Q212.711 938.472 211.131 937.062 Q209.57 935.651 207.05 935.651 Q205.263 935.651 203.27 936.272 Q201.295 936.892 199.038 938.153 L199.038 934.316 Q201.333 933.394 203.326 932.924 Q205.32 932.454 206.975 932.454 Q211.338 932.454 213.934 934.636 Q216.529 936.817 216.529 940.466 Q216.529 942.196 215.871 943.757 Q215.232 945.3 213.52 947.406 Q213.05 947.951 210.53 950.566 Q208.009 953.161 203.42 957.844 Z" fill="#000000" fill-rule="evenodd" fill-opacity="1" /><path clip-path="url(#clip940)" d="M224.654 956.264 L228.623 956.264 L228.623 961.042 L224.654 961.042 L224.654 956.264 Z" fill="#000000" fill-rule="evenodd" fill-opacity="1" /><path clip-path="url(#clip940)" d="M235.939 932.962 L253.994 932.962 L253.994 934.579 L243.801 961.042 L239.832 961.042 L249.424 936.159 L235.939 936.159 L235.939 932.962 Z" fill="#000000" fill-rule="evenodd" fill-opacity="1" /><path clip-path="url(#clip940)" d="M115.411 666.643 L123.05 666.643 L123.05 640.278 L114.74 641.944 L114.74 637.685 L123.004 636.018 L127.68 636.018 L127.68 666.643 L135.319 666.643 L135.319 670.578 L115.411 670.578 L115.411 666.643 Z" fill="#000000" fill-rule="evenodd" fill-opacity="1" /><path clip-path="url(#clip940)" d="M154.763 639.097 Q151.152 639.097 149.323 642.662 Q147.518 646.204 147.518 653.333 Q147.518 660.44 149.323 664.004 Q151.152 667.546 154.763 667.546 Q158.397 667.546 160.203 664.004 Q162.032 660.44 162.032 653.333 Q162.032 646.204 160.203 642.662 Q158.397 639.097 154.763 639.097 M154.763 635.393 Q160.573 635.393 163.629 640 Q166.707 644.583 166.707 653.333 Q166.707 662.06 163.629 666.666 Q160.573 671.25 154.763 671.25 Q148.953 671.25 145.874 666.666 Q142.819 662.06 142.819 653.333 Q142.819 644.583 145.874 640 Q148.953 635.393 154.763 635.393 Z" fill="#000000" fill-rule="evenodd" fill-opacity="1" /><path clip-path="url(#clip940)" d="M166.707 629.495 L190.819 629.495 L190.819 632.692 L166.707 632.692 L166.707 629.495 Z" fill="#000000" fill-rule="evenodd" fill-opacity="1" /><path clip-path="url(#clip940)" d="M202.292 639.971 L215.551 639.971 L215.551 643.168 L197.721 643.168 L197.721 639.971 Q199.884 637.733 203.608 633.971 Q207.351 630.191 208.31 629.1 Q210.135 627.05 210.849 625.639 Q211.583 624.21 211.583 622.837 Q211.583 620.599 210.003 619.188 Q208.442 617.778 205.922 617.778 Q204.135 617.778 202.141 618.398 Q200.166 619.019 197.91 620.279 L197.91 616.442 Q200.204 615.521 202.198 615.05 Q204.191 614.58 205.846 614.58 Q210.21 614.58 212.805 616.762 Q215.401 618.944 215.401 622.592 Q215.401 624.323 214.743 625.884 Q214.103 627.426 212.392 629.532 Q211.921 630.078 209.401 632.692 Q206.881 635.288 202.292 639.971 Z" fill="#000000" fill-rule="evenodd" fill-opacity="1" /><path clip-path="url(#clip940)" d="M223.526 638.391 L227.494 638.391 L227.494 643.168 L223.526 643.168 L223.526 638.391 Z" fill="#000000" fill-rule="evenodd" fill-opacity="1" /><path clip-path="url(#clip940)" d="M246.208 618.398 L236.616 633.388 L246.208 633.388 L246.208 618.398 M245.211 615.088 L249.988 615.088 L249.988 633.388 L253.994 633.388 L253.994 636.548 L249.988 636.548 L249.988 643.168 L246.208 643.168 L246.208 636.548 L233.531 636.548 L233.531 632.88 L245.211 615.088 Z" fill="#000000" fill-rule="evenodd" fill-opacity="1" /><path clip-path="url(#clip940)" d="M116.803 348.77 L124.442 348.77 L124.442 322.404 L116.132 324.071 L116.132 319.812 L124.396 318.145 L129.072 318.145 L129.072 348.77 L136.711 348.77 L136.711 352.705 L116.803 352.705 L116.803 348.77 Z" fill="#000000" fill-rule="evenodd" fill-opacity="1" /><path clip-path="url(#clip940)" d="M156.155 321.224 Q152.544 321.224 150.715 324.788 Q148.91 328.33 148.91 335.46 Q148.91 342.566 150.715 346.131 Q152.544 349.673 156.155 349.673 Q159.789 349.673 161.595 346.131 Q163.423 342.566 163.423 335.46 Q163.423 328.33 161.595 324.788 Q159.789 321.224 156.155 321.224 M156.155 317.52 Q161.965 317.52 165.021 322.126 Q168.099 326.71 168.099 335.46 Q168.099 344.186 165.021 348.793 Q161.965 353.376 156.155 353.376 Q150.345 353.376 147.266 348.793 Q144.21 344.186 144.21 335.46 Q144.21 326.71 147.266 322.126 Q150.345 317.52 156.155 317.52 Z" fill="#000000" fill-rule="evenodd" fill-opacity="1" /><path clip-path="url(#clip940)" d="M168.099 311.621 L192.211 311.621 L192.211 314.819 L168.099 314.819 L168.099 311.621 Z" fill="#000000" fill-rule="evenodd" fill-opacity="1" /><path clip-path="url(#clip940)" d="M203.684 322.097 L216.943 322.097 L216.943 325.295 L199.113 325.295 L199.113 322.097 Q201.276 319.859 205 316.098 Q208.743 312.317 209.702 311.226 Q211.526 309.176 212.241 307.766 Q212.975 306.336 212.975 304.963 Q212.975 302.725 211.395 301.315 Q209.834 299.904 207.313 299.904 Q205.527 299.904 203.533 300.525 Q201.558 301.145 199.301 302.405 L199.301 298.569 Q201.596 297.647 203.59 297.177 Q205.583 296.707 207.238 296.707 Q211.602 296.707 214.197 298.888 Q216.793 301.07 216.793 304.719 Q216.793 306.449 216.134 308.01 Q215.495 309.552 213.783 311.659 Q213.313 312.204 210.793 314.819 Q208.273 317.414 203.684 322.097 Z" fill="#000000" fill-rule="evenodd" fill-opacity="1" /><path clip-path="url(#clip940)" d="M224.918 320.517 L228.886 320.517 L228.886 325.295 L224.918 325.295 L224.918 320.517 Z" fill="#000000" fill-rule="evenodd" fill-opacity="1" /><path clip-path="url(#clip940)" d="M237.82 322.097 L244.026 322.097 L244.026 300.675 L237.274 302.029 L237.274 298.569 L243.989 297.215 L247.788 297.215 L247.788 322.097 L253.994 322.097 L253.994 325.295 L237.82 325.295 L237.82 322.097 Z" fill="#000000" fill-rule="evenodd" fill-opacity="1" /><path clip-path="url(#clip940)" d="M18.4042 827.219 L18.4042 787.02 L23.815 787.02 L23.815 803.889 L65.9242 803.889 L65.9242 810.35 L23.815 810.35 L23.815 827.219 L18.4042 827.219 Z" fill="#000000" fill-rule="evenodd" fill-opacity="1" /><path clip-path="url(#clip940)" d="M30.2762 783.073 L30.2762 777.216 L65.9242 777.216 L65.9242 783.073 L30.2762 783.073 M16.399 783.073 L16.399 777.216 L23.815 777.216 L23.815 783.073 L16.399 783.073 Z" fill="#000000" fill-rule="evenodd" fill-opacity="1" /><path clip-path="url(#clip940)" d="M37.1193 737.208 Q33.1726 735.012 31.2947 731.956 Q29.4168 728.901 29.4168 724.763 Q29.4168 719.193 33.3317 716.169 Q37.2148 713.145 44.4081 713.145 L65.9242 713.145 L65.9242 719.034 L44.599 719.034 Q39.4746 719.034 36.992 720.848 Q34.5094 722.662 34.5094 726.386 Q34.5094 730.938 37.5331 733.579 Q40.5568 736.221 45.7767 736.221 L65.9242 736.221 L65.9242 742.109 L44.599 742.109 Q39.4428 742.109 36.992 743.924 Q34.5094 745.738 34.5094 749.526 Q34.5094 754.013 37.5649 756.655 Q40.5886 759.297 45.7767 759.297 L65.9242 759.297 L65.9242 765.185 L30.2762 765.185 L30.2762 759.297 L35.8144 759.297 Q32.536 757.292 30.9764 754.491 Q29.4168 751.69 29.4168 747.839 Q29.4168 743.956 31.3902 741.25 Q33.3636 738.513 37.1193 737.208 Z" fill="#000000" fill-rule="evenodd" fill-opacity="1" /><path clip-path="url(#clip940)" d="M46.6361 670.973 L49.5006 670.973 L49.5006 697.9 Q55.5481 697.518 58.7309 694.271 Q61.8819 690.993 61.8819 685.168 Q61.8819 681.794 61.0544 678.643 Q60.2269 675.461 58.5718 672.341 L64.1099 672.341 Q65.4467 675.492 66.147 678.803 Q66.8472 682.113 66.8472 685.518 Q66.8472 694.048 61.8819 699.045 Q56.9167 704.011 48.4503 704.011 Q39.6974 704.011 34.5731 699.3 Q29.4168 694.558 29.4168 686.537 Q29.4168 679.344 34.0638 675.174 Q38.6789 670.973 46.6361 670.973 M44.9173 676.829 Q40.1112 676.893 37.2466 679.535 Q34.3821 682.145 34.3821 686.473 Q34.3821 691.375 37.1512 694.335 Q39.9202 697.263 44.9492 697.709 L44.9173 676.829 Z" fill="#000000" fill-rule="evenodd" fill-opacity="1" /><path clip-path="url(#clip940)" d="M16.4626 626.572 Q23.7832 630.837 30.9446 632.906 Q38.106 634.975 45.4584 634.975 Q52.8108 634.975 60.0359 632.906 Q67.2291 630.805 74.5179 626.572 L74.5179 631.664 Q67.0382 636.439 59.8131 638.826 Q52.588 641.181 45.4584 641.181 Q38.3606 641.181 31.1674 638.826 Q23.9742 636.471 16.4626 631.664 L16.4626 626.572 Z" fill="#000000" fill-rule="evenodd" fill-opacity="1" /><path clip-path="url(#clip940)" d="M31.3265 592.484 L36.8647 592.484 Q35.5916 594.966 34.955 597.64 Q34.3184 600.313 34.3184 603.178 Q34.3184 607.538 35.6552 609.735 Q36.992 611.899 39.6656 611.899 Q41.7026 611.899 42.8803 610.339 Q44.0261 608.78 45.0765 604.069 L45.5221 602.064 Q46.8589 595.826 49.3097 593.216 Q51.7286 590.574 56.0891 590.574 Q61.0544 590.574 63.9508 594.521 Q66.8472 598.435 66.8472 605.31 Q66.8472 608.175 66.2743 611.294 Q65.7332 614.382 64.6192 617.819 L58.5718 617.819 Q60.2587 614.573 61.118 611.422 Q61.9456 608.27 61.9456 605.183 Q61.9456 601.045 60.5451 598.817 Q59.1129 596.589 56.5347 596.589 Q54.1476 596.589 52.8745 598.213 Q51.6013 599.804 50.4237 605.247 L49.9462 607.284 Q48.8004 612.726 46.4451 615.145 Q44.058 617.564 39.9202 617.564 Q34.8913 617.564 32.1541 614 Q29.4168 610.435 29.4168 603.878 Q29.4168 600.632 29.8943 597.767 Q30.3717 594.902 31.3265 592.484 Z" fill="#000000" fill-rule="evenodd" fill-opacity="1" /><path clip-path="url(#clip940)" d="M16.4626 582.171 L16.4626 577.079 Q23.9742 572.304 31.1674 569.949 Q38.3606 567.562 45.4584 567.562 Q52.588 567.562 59.8131 569.949 Q67.0382 572.304 74.5179 577.079 L74.5179 582.171 Q67.2291 577.938 60.0359 575.869 Q52.8108 573.768 45.4584 573.768 Q38.106 573.768 30.9446 575.869 Q23.7832 577.938 16.4626 582.171 Z" fill="#000000" fill-rule="evenodd" fill-opacity="1" /><polyline clip-path="url(#clip942)" style="stroke:#009af9; stroke-linecap:butt; stroke-linejoin:round; stroke-width:12; stroke-opacity:1; fill:none" points="
  2159.39,622.625 2145.03,494.677 2154.78,438.137 2172.39,264.788 1992.24,129.24 
  "/>
<line clip-path="url(#clip942)" x1="2159.39" y1="622.625" x2="2159.39" y2="606.625" style="stroke:#009af9; stroke-width:3.072; stroke-opacity:1"/>
<line clip-path="url(#clip942)" x1="2159.39" y1="622.625" x2="2143.39" y2="622.625" style="stroke:#009af9; stroke-width:3.072; stroke-opacity:1"/>
<line clip-path="url(#clip942)" x1="2159.39" y1="622.625" x2="2159.39" y2="638.625" style="stroke:#009af9; stroke-width:3.072; stroke-opacity:1"/>
<line clip-path="url(#clip942)" x1="2159.39" y1="622.625" x2="2175.39" y2="622.625" style="stroke:#009af9; stroke-width:3.072; stroke-opacity:1"/>
<line clip-path="url(#clip942)" x1="2145.03" y1="494.677" x2="2145.03" y2="478.677" style="stroke:#009af9; stroke-width:3.072; stroke-opacity:1"/>
<line clip-path="url(#clip942)" x1="2145.03" y1="494.677" x2="2129.03" y2="494.677" style="stroke:#009af9; stroke-width:3.072; stroke-opacity:1"/>
<line clip-path="url(#clip942)" x1="2145.03" y1="494.677" x2="2145.03" y2="510.677" style="stroke:#009af9; stroke-width:3.072; stroke-opacity:1"/>
<line clip-path="url(#clip942)" x1="2145.03" y1="494.677" x2="2161.03" y2="494.677" style="stroke:#009af9; stroke-width:3.072; stroke-opacity:1"/>
<line clip-path="url(#clip942)" x1="2154.78" y1="438.137" x2="2154.78" y2="422.137" style="stroke:#009af9; stroke-width:3.072; stroke-opacity:1"/>
<line clip-path="url(#clip942)" x1="2154.78" y1="438.137" x2="2138.78" y2="438.137" style="stroke:#009af9; stroke-width:3.072; stroke-opacity:1"/>
<line clip-path="url(#clip942)" x1="2154.78" y1="438.137" x2="2154.78" y2="454.137" style="stroke:#009af9; stroke-width:3.072; stroke-opacity:1"/>
<line clip-path="url(#clip942)" x1="2154.78" y1="438.137" x2="2170.78" y2="438.137" style="stroke:#009af9; stroke-width:3.072; stroke-opacity:1"/>
<line clip-path="url(#clip942)" x1="2172.39" y1="264.788" x2="2172.39" y2="248.788" style="stroke:#009af9; stroke-width:3.072; stroke-opacity:1"/>
<line clip-path="url(#clip942)" x1="2172.39" y1="264.788" x2="2156.39" y2="264.788" style="stroke:#009af9; stroke-width:3.072; stroke-opacity:1"/>
<line clip-path="url(#clip942)" x1="2172.39" y1="264.788" x2="2172.39" y2="280.788" style="stroke:#009af9; stroke-width:3.072; stroke-opacity:1"/>
<line clip-path="url(#clip942)" x1="2172.39" y1="264.788" x2="2188.39" y2="264.788" style="stroke:#009af9; stroke-width:3.072; stroke-opacity:1"/>
<line clip-path="url(#clip942)" x1="1992.24" y1="129.24" x2="1992.24" y2="113.24" style="stroke:#009af9; stroke-width:3.072; stroke-opacity:1"/>
<line clip-path="url(#clip942)" x1="1992.24" y1="129.24" x2="1976.24" y2="129.24" style="stroke:#009af9; stroke-width:3.072; stroke-opacity:1"/>
<line clip-path="url(#clip942)" x1="1992.24" y1="129.24" x2="1992.24" y2="145.24" style="stroke:#009af9; stroke-width:3.072; stroke-opacity:1"/>
<line clip-path="url(#clip942)" x1="1992.24" y1="129.24" x2="2008.24" y2="129.24" style="stroke:#009af9; stroke-width:3.072; stroke-opacity:1"/>
<polyline clip-path="url(#clip942)" style="stroke:#e26f46; stroke-linecap:butt; stroke-linejoin:round; stroke-width:12; stroke-opacity:1; fill:none" points="
  2201.05,1156.74 2156.53,955.366 1662.32,705.11 1131.01,429.124 586.591,84.0448 
  "/>
<circle clip-path="url(#clip942)" cx="2201.05" cy="1156.74" r="14" fill="#e26f46" fill-rule="evenodd" fill-opacity="1" stroke="#000000" stroke-opacity="1" stroke-width="3.072"/>
<circle clip-path="url(#clip942)" cx="2156.53" cy="955.366" r="14" fill="#e26f46" fill-rule="evenodd" fill-opacity="1" stroke="#000000" stroke-opacity="1" stroke-width="3.072"/>
<circle clip-path="url(#clip942)" cx="1662.32" cy="705.11" r="14" fill="#e26f46" fill-rule="evenodd" fill-opacity="1" stroke="#000000" stroke-opacity="1" stroke-width="3.072"/>
<circle clip-path="url(#clip942)" cx="1131.01" cy="429.124" r="14" fill="#e26f46" fill-rule="evenodd" fill-opacity="1" stroke="#000000" stroke-opacity="1" stroke-width="3.072"/>
<circle clip-path="url(#clip942)" cx="586.591" cy="84.0448" r="14" fill="#e26f46" fill-rule="evenodd" fill-opacity="1" stroke="#000000" stroke-opacity="1" stroke-width="3.072"/>
<polyline clip-path="url(#clip942)" style="stroke:#3da44d; stroke-linecap:butt; stroke-linejoin:round; stroke-width:12; stroke-opacity:1; fill:none" points="
  2137.1,537.779 1944.93,477.293 1611.23,392.906 763.944,306.631 344.258,237.369 
  "/>
<line clip-path="url(#clip942)" x1="2137.1" y1="537.779" x2="2137.1" y2="521.779" style="stroke:#3da44d; stroke-width:3.072; stroke-opacity:1"/>
<line clip-path="url(#clip942)" x1="2137.1" y1="537.779" x2="2121.1" y2="537.779" style="stroke:#3da44d; stroke-width:3.072; stroke-opacity:1"/>
<line clip-path="url(#clip942)" x1="2137.1" y1="537.779" x2="2137.1" y2="553.779" style="stroke:#3da44d; stroke-width:3.072; stroke-opacity:1"/>
<line clip-path="url(#clip942)" x1="2137.1" y1="537.779" x2="2153.1" y2="537.779" style="stroke:#3da44d; stroke-width:3.072; stroke-opacity:1"/>
<line clip-path="url(#clip942)" x1="1944.93" y1="477.293" x2="1944.93" y2="461.293" style="stroke:#3da44d; stroke-width:3.072; stroke-opacity:1"/>
<line clip-path="url(#clip942)" x1="1944.93" y1="477.293" x2="1928.93" y2="477.293" style="stroke:#3da44d; stroke-width:3.072; stroke-opacity:1"/>
<line clip-path="url(#clip942)" x1="1944.93" y1="477.293" x2="1944.93" y2="493.293" style="stroke:#3da44d; stroke-width:3.072; stroke-opacity:1"/>
<line clip-path="url(#clip942)" x1="1944.93" y1="477.293" x2="1960.93" y2="477.293" style="stroke:#3da44d; stroke-width:3.072; stroke-opacity:1"/>
<line clip-path="url(#clip942)" x1="1611.23" y1="392.906" x2="1611.23" y2="376.906" style="stroke:#3da44d; stroke-width:3.072; stroke-opacity:1"/>
<line clip-path="url(#clip942)" x1="1611.23" y1="392.906" x2="1595.23" y2="392.906" style="stroke:#3da44d; stroke-width:3.072; stroke-opacity:1"/>
<line clip-path="url(#clip942)" x1="1611.23" y1="392.906" x2="1611.23" y2="408.906" style="stroke:#3da44d; stroke-width:3.072; stroke-opacity:1"/>
<line clip-path="url(#clip942)" x1="1611.23" y1="392.906" x2="1627.23" y2="392.906" style="stroke:#3da44d; stroke-width:3.072; stroke-opacity:1"/>
<line clip-path="url(#clip942)" x1="763.944" y1="306.631" x2="763.944" y2="290.631" style="stroke:#3da44d; stroke-width:3.072; stroke-opacity:1"/>
<line clip-path="url(#clip942)" x1="763.944" y1="306.631" x2="747.944" y2="306.631" style="stroke:#3da44d; stroke-width:3.072; stroke-opacity:1"/>
<line clip-path="url(#clip942)" x1="763.944" y1="306.631" x2="763.944" y2="322.631" style="stroke:#3da44d; stroke-width:3.072; stroke-opacity:1"/>
<line clip-path="url(#clip942)" x1="763.944" y1="306.631" x2="779.944" y2="306.631" style="stroke:#3da44d; stroke-width:3.072; stroke-opacity:1"/>
<line clip-path="url(#clip942)" x1="344.258" y1="237.369" x2="344.258" y2="221.369" style="stroke:#3da44d; stroke-width:3.072; stroke-opacity:1"/>
<line clip-path="url(#clip942)" x1="344.258" y1="237.369" x2="328.258" y2="237.369" style="stroke:#3da44d; stroke-width:3.072; stroke-opacity:1"/>
<line clip-path="url(#clip942)" x1="344.258" y1="237.369" x2="344.258" y2="253.369" style="stroke:#3da44d; stroke-width:3.072; stroke-opacity:1"/>
<line clip-path="url(#clip942)" x1="344.258" y1="237.369" x2="360.258" y2="237.369" style="stroke:#3da44d; stroke-width:3.072; stroke-opacity:1"/>
<polyline clip-path="url(#clip942)" style="stroke:#c271d2; stroke-linecap:butt; stroke-linejoin:round; stroke-width:12; stroke-opacity:1; fill:none" points="
  2184.96,1310.74 2140.64,1129.02 1685.04,934.67 1616.96,764.188 975.511,472.866 
  "/>
<path clip-path="url(#clip942)" d="M2184.96 1294.74 L2168.96 1310.74 L2184.96 1326.74 L2200.96 1310.74 L2184.96 1294.74 Z" fill="#c271d2" fill-rule="evenodd" fill-opacity="1" stroke="#000000" stroke-opacity="1" stroke-width="3.072"/>
<path clip-path="url(#clip942)" d="M2140.64 1113.02 L2124.64 1129.02 L2140.64 1145.02 L2156.64 1129.02 L2140.64 1113.02 Z" fill="#c271d2" fill-rule="evenodd" fill-opacity="1" stroke="#000000" stroke-opacity="1" stroke-width="3.072"/>
<path clip-path="url(#clip942)" d="M1685.04 918.67 L1669.04 934.67 L1685.04 950.67 L1701.04 934.67 L1685.04 918.67 Z" fill="#c271d2" fill-rule="evenodd" fill-opacity="1" stroke="#000000" stroke-opacity="1" stroke-width="3.072"/>
<path clip-path="url(#clip942)" d="M1616.96 748.188 L1600.96 764.188 L1616.96 780.188 L1632.96 764.188 L1616.96 748.188 Z" fill="#c271d2" fill-rule="evenodd" fill-opacity="1" stroke="#000000" stroke-opacity="1" stroke-width="3.072"/>
<path clip-path="url(#clip942)" d="M975.511 456.866 L959.511 472.866 L975.511 488.866 L991.511 472.866 L975.511 456.866 Z" fill="#c271d2" fill-rule="evenodd" fill-opacity="1" stroke="#000000" stroke-opacity="1" stroke-width="3.072"/>
<path clip-path="url(#clip940)" d="
M1689.41 349.787 L2191.15 349.787 L2191.15 90.5872 L1689.41 90.5872  Z
  " fill="#ffffff" fill-rule="evenodd" fill-opacity="1"/>
<polyline clip-path="url(#clip940)" style="stroke:#000000; stroke-linecap:butt; stroke-linejoin:round; stroke-width:4; stroke-opacity:1; fill:none" points="
  1689.41,349.787 2191.15,349.787 2191.15,90.5872 1689.41,90.5872 1689.41,349.787 
  "/>
<polyline clip-path="url(#clip940)" style="stroke:#009af9; stroke-linecap:butt; stroke-linejoin:round; stroke-width:4; stroke-opacity:1; fill:none" points="
  1711.27,142.427 1842.49,142.427 
  "/>
<line clip-path="url(#clip940)" x1="1776.88" y1="142.427" x2="1776.88" y2="116.827" style="stroke:#009af9; stroke-width:4.9152; stroke-opacity:1"/>
<line clip-path="url(#clip940)" x1="1776.88" y1="142.427" x2="1751.28" y2="142.427" style="stroke:#009af9; stroke-width:4.9152; stroke-opacity:1"/>
<line clip-path="url(#clip940)" x1="1776.88" y1="142.427" x2="1776.88" y2="168.027" style="stroke:#009af9; stroke-width:4.9152; stroke-opacity:1"/>
<line clip-path="url(#clip940)" x1="1776.88" y1="142.427" x2="1802.48" y2="142.427" style="stroke:#009af9; stroke-width:4.9152; stroke-opacity:1"/>
<path clip-path="url(#clip940)" d="M1892.23 127.809 L1892.23 132.74 Q1889.87 130.541 1887.18 129.453 Q1884.52 128.365 1881.51 128.365 Q1875.58 128.365 1872.44 131.999 Q1869.29 135.61 1869.29 142.462 Q1869.29 149.291 1872.44 152.925 Q1875.58 156.536 1881.51 156.536 Q1884.52 156.536 1887.18 155.448 Q1889.87 154.36 1892.23 152.161 L1892.23 157.045 Q1889.77 158.712 1887.02 159.545 Q1884.29 160.378 1881.23 160.378 Q1873.39 160.378 1868.87 155.587 Q1864.36 150.772 1864.36 142.462 Q1864.36 134.129 1868.87 129.337 Q1873.39 124.522 1881.23 124.522 Q1884.33 124.522 1887.07 125.356 Q1889.82 126.166 1892.23 127.809 Z" fill="#000000" fill-rule="evenodd" fill-opacity="1" /><path clip-path="url(#clip940)" d="M1908.36 159.707 L1895.17 125.147 L1900.05 125.147 L1911 154.244 L1921.97 125.147 L1926.83 125.147 L1913.66 159.707 L1908.36 159.707 Z" fill="#000000" fill-rule="evenodd" fill-opacity="1" /><path clip-path="url(#clip940)" d="M1945.07 128.318 Q1939.98 128.318 1936.97 132.115 Q1933.99 135.911 1933.99 142.462 Q1933.99 148.99 1936.97 152.786 Q1939.98 156.582 1945.07 156.582 Q1950.17 156.582 1953.13 152.786 Q1956.12 148.99 1956.12 142.462 Q1956.12 135.911 1953.13 132.115 Q1950.17 128.318 1945.07 128.318 M1945.07 124.522 Q1952.34 124.522 1956.69 129.406 Q1961.05 134.268 1961.05 142.462 Q1961.05 150.633 1956.69 155.517 Q1952.34 160.378 1945.07 160.378 Q1937.78 160.378 1933.41 155.517 Q1929.06 150.656 1929.06 142.462 Q1929.06 134.268 1933.41 129.406 Q1937.78 124.522 1945.07 124.522 Z" fill="#000000" fill-rule="evenodd" fill-opacity="1" /><path clip-path="url(#clip940)" d="M1973.04 128.99 L1973.04 155.865 L1978.69 155.865 Q1985.84 155.865 1989.15 152.624 Q1992.48 149.383 1992.48 142.392 Q1992.48 135.448 1989.15 132.23 Q1985.84 128.99 1978.69 128.99 L1973.04 128.99 M1968.36 125.147 L1977.97 125.147 Q1988.01 125.147 1992.71 129.337 Q1997.41 133.504 1997.41 142.392 Q1997.41 151.328 1992.69 155.517 Q1987.97 159.707 1977.97 159.707 L1968.36 159.707 L1968.36 125.147 Z" fill="#000000" fill-rule="evenodd" fill-opacity="1" /><path clip-path="url(#clip940)" d="M2004.87 125.147 L2026.72 125.147 L2026.72 129.082 L2009.54 129.082 L2009.54 139.314 L2026 139.314 L2026 143.249 L2009.54 143.249 L2009.54 155.772 L2027.13 155.772 L2027.13 159.707 L2004.87 159.707 L2004.87 125.147 Z" fill="#000000" fill-rule="evenodd" fill-opacity="1" /><path clip-path="url(#clip940)" d="M2054.33 167.578 L2054.33 170.888 L2029.7 170.888 L2029.7 167.578 L2054.33 167.578 Z" fill="#000000" fill-rule="evenodd" fill-opacity="1" /><path clip-path="url(#clip940)" d="M2063.2 143.203 L2063.2 155.865 L2070.7 155.865 Q2074.47 155.865 2076.28 154.314 Q2078.11 152.74 2078.11 149.522 Q2078.11 146.281 2076.28 144.754 Q2074.47 143.203 2070.7 143.203 L2063.2 143.203 M2063.2 128.99 L2063.2 139.406 L2070.12 139.406 Q2073.55 139.406 2075.21 138.133 Q2076.9 136.837 2076.9 134.198 Q2076.9 131.582 2075.21 130.286 Q2073.55 128.99 2070.12 128.99 L2063.2 128.99 M2058.52 125.147 L2070.47 125.147 Q2075.81 125.147 2078.71 127.369 Q2081.6 129.592 2081.6 133.689 Q2081.6 136.86 2080.12 138.735 Q2078.64 140.61 2075.77 141.073 Q2079.22 141.814 2081.12 144.175 Q2083.04 146.513 2083.04 150.031 Q2083.04 154.661 2079.89 157.184 Q2076.74 159.707 2070.93 159.707 L2058.52 159.707 L2058.52 125.147 Z" fill="#000000" fill-rule="evenodd" fill-opacity="1" /><path clip-path="url(#clip940)" d="M2095.72 128.99 L2095.72 155.865 L2101.37 155.865 Q2108.52 155.865 2111.83 152.624 Q2115.17 149.383 2115.17 142.392 Q2115.17 135.448 2111.83 132.23 Q2108.52 128.99 2101.37 128.99 L2095.72 128.99 M2091.05 125.147 L2100.65 125.147 Q2110.7 125.147 2115.4 129.337 Q2120.1 133.504 2120.1 142.392 Q2120.1 151.328 2115.37 155.517 Q2110.65 159.707 2100.65 159.707 L2091.05 159.707 L2091.05 125.147 Z" fill="#000000" fill-rule="evenodd" fill-opacity="1" /><path clip-path="url(#clip940)" d="M2127.55 125.147 L2147.41 125.147 L2147.41 129.082 L2132.23 129.082 L2132.23 139.267 L2145.93 139.267 L2145.93 143.203 L2132.23 143.203 L2132.23 159.707 L2127.55 159.707 L2127.55 125.147 Z" fill="#000000" fill-rule="evenodd" fill-opacity="1" /><polyline clip-path="url(#clip940)" style="stroke:#e26f46; stroke-linecap:butt; stroke-linejoin:round; stroke-width:4; stroke-opacity:1; fill:none" points="
  1711.27,194.267 1842.49,194.267 
  "/>
<circle clip-path="url(#clip940)" cx="1776.88" cy="194.267" r="23" fill="#e26f46" fill-rule="evenodd" fill-opacity="1" stroke="#000000" stroke-opacity="1" stroke-width="4.9152"/>
<path clip-path="url(#clip940)" d="M1880.75 195.344 Q1882.25 195.853 1883.66 197.519 Q1885.1 199.186 1886.53 202.103 L1891.28 211.547 L1886.26 211.547 L1881.83 202.681 Q1880.12 199.209 1878.5 198.075 Q1876.9 196.941 1874.13 196.941 L1869.03 196.941 L1869.03 211.547 L1864.36 211.547 L1864.36 176.987 L1874.91 176.987 Q1880.84 176.987 1883.76 179.464 Q1886.67 181.941 1886.67 186.941 Q1886.67 190.205 1885.14 192.357 Q1883.64 194.51 1880.75 195.344 M1869.03 180.83 L1869.03 193.098 L1874.91 193.098 Q1878.29 193.098 1880.01 191.547 Q1881.74 189.973 1881.74 186.941 Q1881.74 183.908 1880.01 182.381 Q1878.29 180.83 1874.91 180.83 L1869.03 180.83 Z" fill="#000000" fill-rule="evenodd" fill-opacity="1" /><path clip-path="url(#clip940)" d="M1905.03 188.607 Q1901.6 188.607 1899.61 191.293 Q1897.62 193.955 1897.62 198.607 Q1897.62 203.26 1899.59 205.945 Q1901.58 208.607 1905.03 208.607 Q1908.43 208.607 1910.42 205.922 Q1912.41 203.237 1912.41 198.607 Q1912.41 194.001 1910.42 191.316 Q1908.43 188.607 1905.03 188.607 M1905.03 184.996 Q1910.58 184.996 1913.76 188.607 Q1916.93 192.219 1916.93 198.607 Q1916.93 204.973 1913.76 208.607 Q1910.58 212.218 1905.03 212.218 Q1899.45 212.218 1896.28 208.607 Q1893.13 204.973 1893.13 198.607 Q1893.13 192.219 1896.28 188.607 Q1899.45 184.996 1905.03 184.996 Z" fill="#000000" fill-rule="evenodd" fill-opacity="1" /><path clip-path="url(#clip940)" d="M1941.05 189.557 L1941.05 175.529 L1945.31 175.529 L1945.31 211.547 L1941.05 211.547 L1941.05 207.658 Q1939.7 209.973 1937.64 211.107 Q1935.61 212.218 1932.74 212.218 Q1928.04 212.218 1925.07 208.468 Q1922.13 204.719 1922.13 198.607 Q1922.13 192.496 1925.07 188.746 Q1928.04 184.996 1932.74 184.996 Q1935.61 184.996 1937.64 186.131 Q1939.7 187.242 1941.05 189.557 M1926.53 198.607 Q1926.53 203.306 1928.45 205.992 Q1930.4 208.654 1933.78 208.654 Q1937.16 208.654 1939.1 205.992 Q1941.05 203.306 1941.05 198.607 Q1941.05 193.908 1939.1 191.246 Q1937.16 188.561 1933.78 188.561 Q1930.4 188.561 1928.45 191.246 Q1926.53 193.908 1926.53 198.607 Z" fill="#000000" fill-rule="evenodd" fill-opacity="1" /><path clip-path="url(#clip940)" d="M1965.86 198.515 Q1960.7 198.515 1958.71 199.695 Q1956.72 200.876 1956.72 203.723 Q1956.72 205.992 1958.2 207.334 Q1959.7 208.654 1962.27 208.654 Q1965.82 208.654 1967.94 206.154 Q1970.1 203.631 1970.1 199.464 L1970.1 198.515 L1965.86 198.515 M1974.36 196.756 L1974.36 211.547 L1970.1 211.547 L1970.1 207.612 Q1968.64 209.973 1966.46 211.107 Q1964.29 212.218 1961.14 212.218 Q1957.16 212.218 1954.8 209.996 Q1952.46 207.751 1952.46 204.001 Q1952.46 199.626 1955.38 197.404 Q1958.32 195.182 1964.13 195.182 L1970.1 195.182 L1970.1 194.765 Q1970.1 191.825 1968.15 190.228 Q1966.23 188.607 1962.74 188.607 Q1960.51 188.607 1958.41 189.14 Q1956.3 189.672 1954.36 190.737 L1954.36 186.802 Q1956.69 185.899 1958.89 185.459 Q1961.09 184.996 1963.18 184.996 Q1968.8 184.996 1971.58 187.913 Q1974.36 190.83 1974.36 196.756 Z" fill="#000000" fill-rule="evenodd" fill-opacity="1" /><path clip-path="url(#clip940)" d="M1999.66 186.385 L1999.66 190.413 Q1997.85 189.487 1995.91 189.024 Q1993.96 188.561 1991.88 188.561 Q1988.71 188.561 1987.11 189.533 Q1985.54 190.506 1985.54 192.45 Q1985.54 193.932 1986.67 194.788 Q1987.81 195.621 1991.23 196.385 L1992.69 196.709 Q1997.23 197.682 1999.13 199.464 Q2001.05 201.223 2001.05 204.394 Q2001.05 208.006 1998.18 210.112 Q1995.33 212.218 1990.33 212.218 Q1988.25 212.218 1985.98 211.802 Q1983.73 211.408 1981.23 210.598 L1981.23 206.2 Q1983.59 207.427 1985.88 208.052 Q1988.18 208.654 1990.42 208.654 Q1993.43 208.654 1995.05 207.635 Q1996.67 206.594 1996.67 204.719 Q1996.67 202.982 1995.49 202.056 Q1994.33 201.131 1990.38 200.274 L1988.89 199.927 Q1984.94 199.094 1983.18 197.381 Q1981.42 195.644 1981.42 192.635 Q1981.42 188.978 1984.01 186.987 Q1986.6 184.996 1991.37 184.996 Q1993.73 184.996 1995.81 185.344 Q1997.9 185.691 1999.66 186.385 Z" fill="#000000" fill-rule="evenodd" fill-opacity="1" /><path clip-path="url(#clip940)" d="M2021.28 181.061 L2009.47 199.51 L2021.28 199.51 L2021.28 181.061 M2020.05 176.987 L2025.93 176.987 L2025.93 199.51 L2030.86 199.51 L2030.86 203.399 L2025.93 203.399 L2025.93 211.547 L2021.28 211.547 L2021.28 203.399 L2005.68 203.399 L2005.68 198.885 L2020.05 176.987 Z" fill="#000000" fill-rule="evenodd" fill-opacity="1" /><polyline clip-path="url(#clip940)" style="stroke:#3da44d; stroke-linecap:butt; stroke-linejoin:round; stroke-width:4; stroke-opacity:1; fill:none" points="
  1711.27,246.107 1842.49,246.107 
  "/>
<line clip-path="url(#clip940)" x1="1776.88" y1="246.107" x2="1776.88" y2="220.507" style="stroke:#3da44d; stroke-width:4.9152; stroke-opacity:1"/>
<line clip-path="url(#clip940)" x1="1776.88" y1="246.107" x2="1751.28" y2="246.107" style="stroke:#3da44d; stroke-width:4.9152; stroke-opacity:1"/>
<line clip-path="url(#clip940)" x1="1776.88" y1="246.107" x2="1776.88" y2="271.707" style="stroke:#3da44d; stroke-width:4.9152; stroke-opacity:1"/>
<line clip-path="url(#clip940)" x1="1776.88" y1="246.107" x2="1802.48" y2="246.107" style="stroke:#3da44d; stroke-width:4.9152; stroke-opacity:1"/>
<path clip-path="url(#clip940)" d="M1879.54 241.443 Q1878.82 241.026 1877.97 240.841 Q1877.14 240.633 1876.12 240.633 Q1872.51 240.633 1870.56 242.994 Q1868.64 245.332 1868.64 249.73 L1868.64 263.387 L1864.36 263.387 L1864.36 237.461 L1868.64 237.461 L1868.64 241.489 Q1869.98 239.128 1872.14 237.994 Q1874.29 236.836 1877.37 236.836 Q1877.81 236.836 1878.34 236.906 Q1878.87 236.952 1879.52 237.068 L1879.54 241.443 Z" fill="#000000" fill-rule="evenodd" fill-opacity="1" /><path clip-path="url(#clip940)" d="M1895.79 250.355 Q1890.63 250.355 1888.64 251.535 Q1886.65 252.716 1886.65 255.563 Q1886.65 257.832 1888.13 259.174 Q1889.63 260.494 1892.2 260.494 Q1895.75 260.494 1897.88 257.994 Q1900.03 255.471 1900.03 251.304 L1900.03 250.355 L1895.79 250.355 M1904.29 248.596 L1904.29 263.387 L1900.03 263.387 L1900.03 259.452 Q1898.57 261.813 1896.39 262.947 Q1894.22 264.058 1891.07 264.058 Q1887.09 264.058 1884.73 261.836 Q1882.39 259.591 1882.39 255.841 Q1882.39 251.466 1885.31 249.244 Q1888.25 247.022 1894.06 247.022 L1900.03 247.022 L1900.03 246.605 Q1900.03 243.665 1898.08 242.068 Q1896.16 240.447 1892.67 240.447 Q1890.45 240.447 1888.34 240.98 Q1886.23 241.512 1884.29 242.577 L1884.29 238.642 Q1886.63 237.739 1888.82 237.299 Q1891.02 236.836 1893.11 236.836 Q1898.73 236.836 1901.51 239.753 Q1904.29 242.67 1904.29 248.596 Z" fill="#000000" fill-rule="evenodd" fill-opacity="1" /><path clip-path="url(#clip940)" d="M1930.12 241.397 L1930.12 227.369 L1934.38 227.369 L1934.38 263.387 L1930.12 263.387 L1930.12 259.498 Q1928.78 261.813 1926.72 262.947 Q1924.68 264.058 1921.81 264.058 Q1917.11 264.058 1914.15 260.308 Q1911.21 256.559 1911.21 250.447 Q1911.21 244.336 1914.15 240.586 Q1917.11 236.836 1921.81 236.836 Q1924.68 236.836 1926.72 237.971 Q1928.78 239.082 1930.12 241.397 M1915.61 250.447 Q1915.61 255.146 1917.53 257.832 Q1919.47 260.494 1922.85 260.494 Q1926.23 260.494 1928.18 257.832 Q1930.12 255.146 1930.12 250.447 Q1930.12 245.748 1928.18 243.086 Q1926.23 240.401 1922.85 240.401 Q1919.47 240.401 1917.53 243.086 Q1915.61 245.748 1915.61 250.447 Z" fill="#000000" fill-rule="evenodd" fill-opacity="1" /><path clip-path="url(#clip940)" d="M1954.94 250.355 Q1949.77 250.355 1947.78 251.535 Q1945.79 252.716 1945.79 255.563 Q1945.79 257.832 1947.27 259.174 Q1948.78 260.494 1951.35 260.494 Q1954.89 260.494 1957.02 257.994 Q1959.17 255.471 1959.17 251.304 L1959.17 250.355 L1954.94 250.355 M1963.43 248.596 L1963.43 263.387 L1959.17 263.387 L1959.17 259.452 Q1957.71 261.813 1955.54 262.947 Q1953.36 264.058 1950.21 264.058 Q1946.23 264.058 1943.87 261.836 Q1941.53 259.591 1941.53 255.841 Q1941.53 251.466 1944.45 249.244 Q1947.39 247.022 1953.2 247.022 L1959.17 247.022 L1959.17 246.605 Q1959.17 243.665 1957.23 242.068 Q1955.31 240.447 1951.81 240.447 Q1949.59 240.447 1947.48 240.98 Q1945.38 241.512 1943.43 242.577 L1943.43 238.642 Q1945.77 237.739 1947.97 237.299 Q1950.17 236.836 1952.25 236.836 Q1957.88 236.836 1960.65 239.753 Q1963.43 242.67 1963.43 248.596 Z" fill="#000000" fill-rule="evenodd" fill-opacity="1" /><path clip-path="url(#clip940)" d="M1971.76 253.156 L1971.76 237.461 L1976.02 237.461 L1976.02 252.994 Q1976.02 256.674 1977.46 258.526 Q1978.89 260.355 1981.76 260.355 Q1985.21 260.355 1987.2 258.156 Q1989.22 255.957 1989.22 252.16 L1989.22 237.461 L1993.48 237.461 L1993.48 263.387 L1989.22 263.387 L1989.22 259.406 Q1987.67 261.767 1985.61 262.924 Q1983.57 264.058 1980.86 264.058 Q1976.39 264.058 1974.08 261.281 Q1971.76 258.503 1971.76 253.156 M1982.48 236.836 L1982.48 236.836 Z" fill="#000000" fill-rule="evenodd" fill-opacity="1" /><polyline clip-path="url(#clip940)" style="stroke:#c271d2; stroke-linecap:butt; stroke-linejoin:round; stroke-width:4; stroke-opacity:1; fill:none" points="
  1711.27,297.947 1842.49,297.947 
  "/>
<path clip-path="url(#clip940)" d="M1776.88 272.347 L1751.28 297.947 L1776.88 323.547 L1802.48 297.947 L1776.88 272.347 Z" fill="#c271d2" fill-rule="evenodd" fill-opacity="1" stroke="#000000" stroke-opacity="1" stroke-width="4.9152"/>
<path clip-path="url(#clip940)" d="M1880.75 299.024 Q1882.25 299.533 1883.66 301.199 Q1885.1 302.866 1886.53 305.783 L1891.28 315.227 L1886.26 315.227 L1881.83 306.361 Q1880.12 302.889 1878.5 301.755 Q1876.9 300.621 1874.13 300.621 L1869.03 300.621 L1869.03 315.227 L1864.36 315.227 L1864.36 280.667 L1874.91 280.667 Q1880.84 280.667 1883.76 283.144 Q1886.67 285.621 1886.67 290.621 Q1886.67 293.885 1885.14 296.037 Q1883.64 298.19 1880.75 299.024 M1869.03 284.51 L1869.03 296.778 L1874.91 296.778 Q1878.29 296.778 1880.01 295.227 Q1881.74 293.653 1881.74 290.621 Q1881.74 287.588 1880.01 286.061 Q1878.29 284.51 1874.91 284.51 L1869.03 284.51 Z" fill="#000000" fill-rule="evenodd" fill-opacity="1" /><path clip-path="url(#clip940)" d="M1905.03 292.287 Q1901.6 292.287 1899.61 294.973 Q1897.62 297.635 1897.62 302.287 Q1897.62 306.94 1899.59 309.625 Q1901.58 312.287 1905.03 312.287 Q1908.43 312.287 1910.42 309.602 Q1912.41 306.917 1912.41 302.287 Q1912.41 297.681 1910.42 294.996 Q1908.43 292.287 1905.03 292.287 M1905.03 288.676 Q1910.58 288.676 1913.76 292.287 Q1916.93 295.899 1916.93 302.287 Q1916.93 308.653 1913.76 312.287 Q1910.58 315.898 1905.03 315.898 Q1899.45 315.898 1896.28 312.287 Q1893.13 308.653 1893.13 302.287 Q1893.13 295.899 1896.28 292.287 Q1899.45 288.676 1905.03 288.676 Z" fill="#000000" fill-rule="evenodd" fill-opacity="1" /><path clip-path="url(#clip940)" d="M1941.05 293.237 L1941.05 279.209 L1945.31 279.209 L1945.31 315.227 L1941.05 315.227 L1941.05 311.338 Q1939.7 313.653 1937.64 314.787 Q1935.61 315.898 1932.74 315.898 Q1928.04 315.898 1925.07 312.148 Q1922.13 308.399 1922.13 302.287 Q1922.13 296.176 1925.07 292.426 Q1928.04 288.676 1932.74 288.676 Q1935.61 288.676 1937.64 289.811 Q1939.7 290.922 1941.05 293.237 M1926.53 302.287 Q1926.53 306.986 1928.45 309.672 Q1930.4 312.334 1933.78 312.334 Q1937.16 312.334 1939.1 309.672 Q1941.05 306.986 1941.05 302.287 Q1941.05 297.588 1939.1 294.926 Q1937.16 292.241 1933.78 292.241 Q1930.4 292.241 1928.45 294.926 Q1926.53 297.588 1926.53 302.287 Z" fill="#000000" fill-rule="evenodd" fill-opacity="1" /><path clip-path="url(#clip940)" d="M1965.86 302.195 Q1960.7 302.195 1958.71 303.375 Q1956.72 304.556 1956.72 307.403 Q1956.72 309.672 1958.2 311.014 Q1959.7 312.334 1962.27 312.334 Q1965.82 312.334 1967.94 309.834 Q1970.1 307.311 1970.1 303.144 L1970.1 302.195 L1965.86 302.195 M1974.36 300.436 L1974.36 315.227 L1970.1 315.227 L1970.1 311.292 Q1968.64 313.653 1966.46 314.787 Q1964.29 315.898 1961.14 315.898 Q1957.16 315.898 1954.8 313.676 Q1952.46 311.431 1952.46 307.681 Q1952.46 303.306 1955.38 301.084 Q1958.32 298.862 1964.13 298.862 L1970.1 298.862 L1970.1 298.445 Q1970.1 295.505 1968.15 293.908 Q1966.23 292.287 1962.74 292.287 Q1960.51 292.287 1958.41 292.82 Q1956.3 293.352 1954.36 294.417 L1954.36 290.482 Q1956.69 289.579 1958.89 289.139 Q1961.09 288.676 1963.18 288.676 Q1968.8 288.676 1971.58 291.593 Q1974.36 294.51 1974.36 300.436 Z" fill="#000000" fill-rule="evenodd" fill-opacity="1" /><path clip-path="url(#clip940)" d="M1999.66 290.065 L1999.66 294.093 Q1997.85 293.167 1995.91 292.704 Q1993.96 292.241 1991.88 292.241 Q1988.71 292.241 1987.11 293.213 Q1985.54 294.186 1985.54 296.13 Q1985.54 297.612 1986.67 298.468 Q1987.81 299.301 1991.23 300.065 L1992.69 300.389 Q1997.23 301.362 1999.13 303.144 Q2001.05 304.903 2001.05 308.074 Q2001.05 311.686 1998.18 313.792 Q1995.33 315.898 1990.33 315.898 Q1988.25 315.898 1985.98 315.482 Q1983.73 315.088 1981.23 314.278 L1981.23 309.88 Q1983.59 311.107 1985.88 311.732 Q1988.18 312.334 1990.42 312.334 Q1993.43 312.334 1995.05 311.315 Q1996.67 310.274 1996.67 308.399 Q1996.67 306.662 1995.49 305.736 Q1994.33 304.811 1990.38 303.954 L1988.89 303.607 Q1984.94 302.774 1983.18 301.061 Q1981.42 299.324 1981.42 296.315 Q1981.42 292.658 1984.01 290.667 Q1986.6 288.676 1991.37 288.676 Q1993.73 288.676 1995.81 289.024 Q1997.9 289.371 1999.66 290.065 Z" fill="#000000" fill-rule="evenodd" fill-opacity="1" /><path clip-path="url(#clip940)" d="M2008.48 280.667 L2026.83 280.667 L2026.83 284.602 L2012.76 284.602 L2012.76 293.075 Q2013.78 292.727 2014.8 292.565 Q2015.81 292.38 2016.83 292.38 Q2022.62 292.38 2026 295.551 Q2029.38 298.723 2029.38 304.139 Q2029.38 309.718 2025.91 312.82 Q2022.44 315.898 2016.12 315.898 Q2013.94 315.898 2011.67 315.528 Q2009.43 315.158 2007.02 314.417 L2007.02 309.718 Q2009.1 310.852 2011.32 311.408 Q2013.55 311.963 2016.02 311.963 Q2020.03 311.963 2022.37 309.857 Q2024.7 307.75 2024.7 304.139 Q2024.7 300.528 2022.37 298.422 Q2020.03 296.315 2016.02 296.315 Q2014.15 296.315 2012.27 296.732 Q2010.42 297.149 2008.48 298.028 L2008.48 280.667 Z" fill="#000000" fill-rule="evenodd" fill-opacity="1" /></svg>
