<?xml version="1.0" encoding="utf-8"?>
<svg xmlns="http://www.w3.org/2000/svg" xmlns:xlink="http://www.w3.org/1999/xlink" width="576" height="384" viewBox="0 0 2304 1536">
<defs>
  <clipPath id="clip900">
    <rect x="0" y="0" width="2304" height="1536"/>
  </clipPath>
</defs>
<path clip-path="url(#clip900)" d="
M0 1536 L2304 1536 L2304 0 L0 0  Z
  " fill="#ffffff" fill-rule="evenodd" fill-opacity="1"/>
<defs>
  <clipPath id="clip901">
    <rect x="460" y="0" width="1614" height="1536"/>
  </clipPath>
</defs>
<path clip-path="url(#clip900)" d="
M250.882 1347.54 L2256.76 1347.54 L2256.76 47.2441 L250.882 47.2441  Z
  " fill="#ffffff" fill-rule="evenodd" fill-opacity="1"/>
<defs>
  <clipPath id="clip902">
    <rect x="250" y="47" width="2007" height="1301"/>
  </clipPath>
</defs>
<polyline clip-path="url(#clip902)" style="stroke:#000000; stroke-linecap:butt; stroke-linejoin:round; stroke-width:2; stroke-opacity:0.1; fill:none" points="
  434.431,1347.54 434.431,47.2441 
  "/>
<polyline clip-path="url(#clip902)" style="stroke:#000000; stroke-linecap:butt; stroke-linejoin:round; stroke-width:2; stroke-opacity:0.1; fill:none" points="
  1478.58,1347.54 1478.58,47.2441 
  "/>
<polyline clip-path="url(#clip900)" style="stroke:#000000; stroke-linecap:butt; stroke-linejoin:round; stroke-width:4; stroke-opacity:1; fill:none" points="
  250.882,1347.54 2256.76,1347.54 
  "/>
<polyline clip-path="url(#clip900)" style="stroke:#000000; stroke-linecap:butt; stroke-linejoin:round; stroke-width:4; stroke-opacity:1; fill:none" points="
  434.431,1347.54 434.431,1328.64 
  "/>
<polyline clip-path="url(#clip900)" style="stroke:#000000; stroke-linecap:butt; stroke-linejoin:round; stroke-width:4; stroke-opacity:1; fill:none" points="
  1478.58,1347.54 1478.58,1328.64 
  "/>
<path clip-path="url(#clip900)" d="M400.204 1420.89 L407.843 1420.89 L407.843 1394.53 L399.533 1396.19 L399.533 1391.94 L407.796 1390.27 L412.472 1390.27 L412.472 1420.89 L420.111 1420.89 L420.111 1424.83 L400.204 1424.83 L400.204 1420.89 Z" fill="#000000" fill-rule="evenodd" fill-opacity="1" /><path clip-path="url(#clip900)" d="M439.555 1393.35 Q435.944 1393.35 434.116 1396.91 Q432.31 1400.45 432.31 1407.58 Q432.31 1414.69 434.116 1418.25 Q435.944 1421.8 439.555 1421.8 Q443.19 1421.8 444.995 1418.25 Q446.824 1414.69 446.824 1407.58 Q446.824 1400.45 444.995 1396.91 Q443.19 1393.35 439.555 1393.35 M439.555 1389.64 Q445.366 1389.64 448.421 1394.25 Q451.5 1398.83 451.5 1407.58 Q451.5 1416.31 448.421 1420.92 Q445.366 1425.5 439.555 1425.5 Q433.745 1425.5 430.667 1420.92 Q427.611 1416.31 427.611 1407.58 Q427.611 1398.83 430.667 1394.25 Q433.745 1389.64 439.555 1389.64 Z" fill="#000000" fill-rule="evenodd" fill-opacity="1" /><path clip-path="url(#clip900)" d="M456.07 1394.22 L469.33 1394.22 L469.33 1397.42 L451.5 1397.42 L451.5 1394.22 Q453.663 1391.98 457.387 1388.22 Q461.129 1384.44 462.089 1383.35 Q463.913 1381.3 464.628 1379.89 Q465.361 1378.46 465.361 1377.09 Q465.361 1374.85 463.781 1373.44 Q462.22 1372.03 459.7 1372.03 Q457.913 1372.03 455.92 1372.65 Q453.945 1373.27 451.688 1374.53 L451.688 1370.69 Q453.982 1369.77 455.976 1369.3 Q457.97 1368.83 459.625 1368.83 Q463.988 1368.83 466.584 1371.01 Q469.179 1373.19 469.179 1376.84 Q469.179 1378.57 468.521 1380.13 Q467.881 1381.68 466.17 1383.78 Q465.7 1384.33 463.179 1386.94 Q460.659 1389.54 456.07 1394.22 Z" fill="#000000" fill-rule="evenodd" fill-opacity="1" /><path clip-path="url(#clip900)" d="M1443.04 1420.89 L1450.68 1420.89 L1450.68 1394.53 L1442.37 1396.19 L1442.37 1391.94 L1450.63 1390.27 L1455.31 1390.27 L1455.31 1420.89 L1462.95 1420.89 L1462.95 1424.83 L1443.04 1424.83 L1443.04 1420.89 Z" fill="#000000" fill-rule="evenodd" fill-opacity="1" /><path clip-path="url(#clip900)" d="M1482.39 1393.35 Q1478.78 1393.35 1476.95 1396.91 Q1475.14 1400.45 1475.14 1407.58 Q1475.14 1414.69 1476.95 1418.25 Q1478.78 1421.8 1482.39 1421.8 Q1486.02 1421.8 1487.83 1418.25 Q1489.66 1414.69 1489.66 1407.58 Q1489.66 1400.45 1487.83 1396.91 Q1486.02 1393.35 1482.39 1393.35 M1482.39 1389.64 Q1488.2 1389.64 1491.26 1394.25 Q1494.33 1398.83 1494.33 1407.58 Q1494.33 1416.31 1491.26 1420.92 Q1488.2 1425.5 1482.39 1425.5 Q1476.58 1425.5 1473.5 1420.92 Q1470.45 1416.31 1470.45 1407.58 Q1470.45 1398.83 1473.5 1394.25 Q1476.58 1389.64 1482.39 1389.64 Z" fill="#000000" fill-rule="evenodd" fill-opacity="1" /><path clip-path="url(#clip900)" d="M1507.01 1372.65 L1497.42 1387.64 L1507.01 1387.64 L1507.01 1372.65 M1506.01 1369.34 L1510.79 1369.34 L1510.79 1387.64 L1514.8 1387.64 L1514.8 1390.8 L1510.79 1390.8 L1510.79 1397.42 L1507.01 1397.42 L1507.01 1390.8 L1494.33 1390.8 L1494.33 1387.13 L1506.01 1369.34 Z" fill="#000000" fill-rule="evenodd" fill-opacity="1" /><path clip-path="url(#clip900)" d="M1177.57 1461.87 L1207.62 1461.87 L1207.62 1467.28 L1184 1467.28 L1184 1481.34 L1206.63 1481.34 L1206.63 1486.76 L1184 1486.76 L1184 1503.97 L1208.19 1503.97 L1208.19 1509.39 L1177.57 1509.39 L1177.57 1461.87 Z" fill="#000000" fill-rule="evenodd" fill-opacity="1" /><path clip-path="url(#clip900)" d="M1239.16 1479.21 Q1238.18 1478.64 1237 1478.38 Q1235.85 1478.1 1234.45 1478.1 Q1229.49 1478.1 1226.81 1481.34 Q1224.17 1484.56 1224.17 1490.61 L1224.17 1509.39 L1218.28 1509.39 L1218.28 1473.74 L1224.17 1473.74 L1224.17 1479.28 Q1226.02 1476.03 1228.98 1474.47 Q1231.94 1472.88 1236.17 1472.88 Q1236.77 1472.88 1237.51 1472.97 Q1238.24 1473.04 1239.13 1473.2 L1239.16 1479.21 Z" fill="#000000" fill-rule="evenodd" fill-opacity="1" /><path clip-path="url(#clip900)" d="M1264.82 1479.21 Q1263.83 1478.64 1262.65 1478.38 Q1261.51 1478.1 1260.11 1478.1 Q1255.14 1478.1 1252.47 1481.34 Q1249.82 1484.56 1249.82 1490.61 L1249.82 1509.39 L1243.94 1509.39 L1243.94 1473.74 L1249.82 1473.74 L1249.82 1479.28 Q1251.67 1476.03 1254.63 1474.47 Q1257.59 1472.88 1261.82 1472.88 Q1262.43 1472.88 1263.16 1472.97 Q1263.89 1473.04 1264.78 1473.2 L1264.82 1479.21 Z" fill="#000000" fill-rule="evenodd" fill-opacity="1" /><path clip-path="url(#clip900)" d="M1283.34 1477.84 Q1278.63 1477.84 1275.89 1481.54 Q1273.15 1485.2 1273.15 1491.59 Q1273.15 1497.99 1275.86 1501.68 Q1278.6 1505.34 1283.34 1505.34 Q1288.02 1505.34 1290.76 1501.65 Q1293.49 1497.96 1293.49 1491.59 Q1293.49 1485.26 1290.76 1481.57 Q1288.02 1477.84 1283.34 1477.84 M1283.34 1472.88 Q1290.98 1472.88 1295.34 1477.84 Q1299.7 1482.81 1299.7 1491.59 Q1299.7 1500.35 1295.34 1505.34 Q1290.98 1510.31 1283.34 1510.31 Q1275.67 1510.31 1271.31 1505.34 Q1266.98 1500.35 1266.98 1491.59 Q1266.98 1482.81 1271.31 1477.84 Q1275.67 1472.88 1283.34 1472.88 Z" fill="#000000" fill-rule="evenodd" fill-opacity="1" /><path clip-path="url(#clip900)" d="M1330.06 1479.21 Q1329.08 1478.64 1327.9 1478.38 Q1326.75 1478.1 1325.35 1478.1 Q1320.39 1478.1 1317.71 1481.34 Q1315.07 1484.56 1315.07 1490.61 L1315.07 1509.39 L1309.18 1509.39 L1309.18 1473.74 L1315.07 1473.74 L1315.07 1479.28 Q1316.92 1476.03 1319.88 1474.47 Q1322.84 1472.88 1327.07 1472.88 Q1327.68 1472.88 1328.41 1472.97 Q1329.14 1473.04 1330.03 1473.2 L1330.06 1479.21 Z" fill="#000000" fill-rule="evenodd" fill-opacity="1" /><polyline clip-path="url(#clip902)" style="stroke:#000000; stroke-linecap:butt; stroke-linejoin:round; stroke-width:2; stroke-opacity:0.1; fill:none" points="
  250.882,1293.45 2256.76,1293.45 
  "/>
<polyline clip-path="url(#clip902)" style="stroke:#000000; stroke-linecap:butt; stroke-linejoin:round; stroke-width:2; stroke-opacity:0.1; fill:none" points="
  250.882,742.492 2256.76,742.492 
  "/>
<polyline clip-path="url(#clip902)" style="stroke:#000000; stroke-linecap:butt; stroke-linejoin:round; stroke-width:2; stroke-opacity:0.1; fill:none" points="
  250.882,191.536 2256.76,191.536 
  "/>
<polyline clip-path="url(#clip900)" style="stroke:#000000; stroke-linecap:butt; stroke-linejoin:round; stroke-width:4; stroke-opacity:1; fill:none" points="
  250.882,1347.54 250.882,47.2441 
  "/>
<polyline clip-path="url(#clip900)" style="stroke:#000000; stroke-linecap:butt; stroke-linejoin:round; stroke-width:4; stroke-opacity:1; fill:none" points="
  250.882,1293.45 269.78,1293.45 
  "/>
<polyline clip-path="url(#clip900)" style="stroke:#000000; stroke-linecap:butt; stroke-linejoin:round; stroke-width:4; stroke-opacity:1; fill:none" points="
  250.882,742.492 269.78,742.492 
  "/>
<polyline clip-path="url(#clip900)" style="stroke:#000000; stroke-linecap:butt; stroke-linejoin:round; stroke-width:4; stroke-opacity:1; fill:none" points="
  250.882,191.536 269.78,191.536 
  "/>
<path clip-path="url(#clip900)" d="M115.411 1313.24 L123.05 1313.24 L123.05 1286.87 L114.74 1288.54 L114.74 1284.28 L123.004 1282.61 L127.68 1282.61 L127.68 1313.24 L135.319 1313.24 L135.319 1317.17 L115.411 1317.17 L115.411 1313.24 Z" fill="#000000" fill-rule="evenodd" fill-opacity="1" /><path clip-path="url(#clip900)" d="M154.763 1285.69 Q151.152 1285.69 149.323 1289.26 Q147.518 1292.8 147.518 1299.93 Q147.518 1307.04 149.323 1310.6 Q151.152 1314.14 154.763 1314.14 Q158.397 1314.14 160.203 1310.6 Q162.032 1307.04 162.032 1299.93 Q162.032 1292.8 160.203 1289.26 Q158.397 1285.69 154.763 1285.69 M154.763 1281.99 Q160.573 1281.99 163.629 1286.6 Q166.707 1291.18 166.707 1299.93 Q166.707 1308.66 163.629 1313.26 Q160.573 1317.85 154.763 1317.85 Q148.953 1317.85 145.874 1313.26 Q142.819 1308.66 142.819 1299.93 Q142.819 1291.18 145.874 1286.6 Q148.953 1281.99 154.763 1281.99 Z" fill="#000000" fill-rule="evenodd" fill-opacity="1" /><path clip-path="url(#clip900)" d="M166.707 1276.09 L190.819 1276.09 L190.819 1279.29 L166.707 1279.29 L166.707 1276.09 Z" fill="#000000" fill-rule="evenodd" fill-opacity="1" /><path clip-path="url(#clip900)" d="M210.53 1274.62 Q213.257 1275.21 214.78 1277.05 Q216.322 1278.89 216.322 1281.6 Q216.322 1285.76 213.464 1288.03 Q210.605 1290.31 205.339 1290.31 Q203.571 1290.31 201.69 1289.95 Q199.828 1289.61 197.834 1288.92 L197.834 1285.25 Q199.414 1286.17 201.295 1286.64 Q203.176 1287.11 205.226 1287.11 Q208.799 1287.11 210.661 1285.7 Q212.542 1284.29 212.542 1281.6 Q212.542 1279.12 210.793 1277.73 Q209.063 1276.32 205.959 1276.32 L202.687 1276.32 L202.687 1273.19 L206.11 1273.19 Q208.912 1273.19 210.398 1272.08 Q211.884 1270.96 211.884 1268.85 Q211.884 1266.69 210.341 1265.54 Q208.818 1264.37 205.959 1264.37 Q204.398 1264.37 202.612 1264.71 Q200.825 1265.05 198.681 1265.77 L198.681 1262.38 Q200.844 1261.78 202.724 1261.48 Q204.624 1261.18 206.298 1261.18 Q210.624 1261.18 213.144 1263.15 Q215.664 1265.11 215.664 1268.46 Q215.664 1270.79 214.329 1272.4 Q212.993 1274 210.53 1274.62 Z" fill="#000000" fill-rule="evenodd" fill-opacity="1" /><path clip-path="url(#clip900)" d="M116.183 762.284 L123.821 762.284 L123.821 735.919 L115.511 737.585 L115.511 733.326 L123.775 731.659 L128.451 731.659 L128.451 762.284 L136.09 762.284 L136.09 766.219 L116.183 766.219 L116.183 762.284 Z" fill="#000000" fill-rule="evenodd" fill-opacity="1" /><path clip-path="url(#clip900)" d="M155.534 734.738 Q151.923 734.738 150.094 738.303 Q148.289 741.844 148.289 748.974 Q148.289 756.08 150.094 759.645 Q151.923 763.187 155.534 763.187 Q159.168 763.187 160.974 759.645 Q162.803 756.08 162.803 748.974 Q162.803 741.844 160.974 738.303 Q159.168 734.738 155.534 734.738 M155.534 731.034 Q161.344 731.034 164.4 735.641 Q167.479 740.224 167.479 748.974 Q167.479 757.701 164.4 762.307 Q161.344 766.891 155.534 766.891 Q149.724 766.891 146.645 762.307 Q143.59 757.701 143.59 748.974 Q143.59 740.224 146.645 735.641 Q149.724 731.034 155.534 731.034 Z" fill="#000000" fill-rule="evenodd" fill-opacity="1" /><path clip-path="url(#clip900)" d="M167.479 725.136 L191.59 725.136 L191.59 728.333 L167.479 728.333 L167.479 725.136 Z" fill="#000000" fill-rule="evenodd" fill-opacity="1" /><path clip-path="url(#clip900)" d="M203.063 735.612 L216.322 735.612 L216.322 738.809 L198.493 738.809 L198.493 735.612 Q200.655 733.373 204.379 729.612 Q208.122 725.832 209.081 724.741 Q210.906 722.691 211.62 721.28 Q212.354 719.851 212.354 718.478 Q212.354 716.24 210.774 714.829 Q209.213 713.418 206.693 713.418 Q204.906 713.418 202.912 714.039 Q200.938 714.66 198.681 715.92 L198.681 712.083 Q200.975 711.162 202.969 710.691 Q204.962 710.221 206.618 710.221 Q210.981 710.221 213.576 712.403 Q216.172 714.585 216.172 718.233 Q216.172 719.964 215.514 721.525 Q214.874 723.067 213.163 725.173 Q212.692 725.719 210.172 728.333 Q207.652 730.928 203.063 735.612 Z" fill="#000000" fill-rule="evenodd" fill-opacity="1" /><path clip-path="url(#clip900)" d="M115.882 211.329 L123.52 211.329 L123.52 184.963 L115.21 186.63 L115.21 182.371 L123.474 180.704 L128.15 180.704 L128.15 211.329 L135.789 211.329 L135.789 215.264 L115.882 215.264 L115.882 211.329 Z" fill="#000000" fill-rule="evenodd" fill-opacity="1" /><path clip-path="url(#clip900)" d="M155.233 183.783 Q151.622 183.783 149.793 187.347 Q147.988 190.889 147.988 198.019 Q147.988 205.125 149.793 208.69 Q151.622 212.232 155.233 212.232 Q158.868 212.232 160.673 208.69 Q162.502 205.125 162.502 198.019 Q162.502 190.889 160.673 187.347 Q158.868 183.783 155.233 183.783 M155.233 180.079 Q161.043 180.079 164.099 184.685 Q167.178 189.269 167.178 198.019 Q167.178 206.746 164.099 211.352 Q161.043 215.935 155.233 215.935 Q149.423 215.935 146.344 211.352 Q143.289 206.746 143.289 198.019 Q143.289 189.269 146.344 184.685 Q149.423 180.079 155.233 180.079 Z" fill="#000000" fill-rule="evenodd" fill-opacity="1" /><path clip-path="url(#clip900)" d="M167.178 174.18 L191.289 174.18 L191.289 177.378 L167.178 177.378 L167.178 174.18 Z" fill="#000000" fill-rule="evenodd" fill-opacity="1" /><path clip-path="url(#clip900)" d="M200.148 184.656 L206.354 184.656 L206.354 163.234 L199.602 164.588 L199.602 161.128 L206.317 159.774 L210.116 159.774 L210.116 184.656 L216.322 184.656 L216.322 187.854 L200.148 187.854 L200.148 184.656 Z" fill="#000000" fill-rule="evenodd" fill-opacity="1" /><path clip-path="url(#clip900)" d="M18.4042 827.219 L18.4042 787.02 L23.815 787.02 L23.815 803.889 L65.9242 803.889 L65.9242 810.35 L23.815 810.35 L23.815 827.219 L18.4042 827.219 Z" fill="#000000" fill-rule="evenodd" fill-opacity="1" /><path clip-path="url(#clip900)" d="M30.2762 783.073 L30.2762 777.216 L65.9242 777.216 L65.9242 783.073 L30.2762 783.073 M16.399 783.073 L16.399 777.216 L23.815 777.216 L23.815 783.073 L16.399 783.073 Z" fill="#000000" fill-rule="evenodd" fill-opacity="1" /><path clip-path="url(#clip900)" d="M37.1193 737.208 Q33.1726 735.012 31.2947 731.956 Q29.4168 728.901 29.4168 724.763 Q29.4168 719.193 33.3317 716.169 Q37.2148 713.145 44.4081 713.145 L65.9242 713.145 L65.9242 719.034 L44.599 719.034 Q39.4746 719.034 36.992 720.848 Q34.5094 722.662 34.5094 726.386 Q34.5094 730.938 37.5331 733.579 Q40.5568 736.221 45.7767 736.221 L65.9242 736.221 L65.9242 742.109 L44.599 742.109 Q39.4428 742.109 36.992 743.924 Q34.5094 745.738 34.5094 749.526 Q34.5094 754.013 37.5649 756.655 Q40.5886 759.297 45.7767 759.297 L65.9242 759.297 L65.9242 765.185 L30.2762 765.185 L30.2762 759.297 L35.8144 759.297 Q32.536 757.292 30.9764 754.491 Q29.4168 751.69 29.4168 747.839 Q29.4168 743.956 31.3902 741.25 Q33.3636 738.513 37.1193 737.208 Z" fill="#000000" fill-rule="evenodd" fill-opacity="1" /><path clip-path="url(#clip900)" d="M46.6361 670.973 L49.5006 670.973 L49.5006 697.9 Q55.5481 697.518 58.7309 694.271 Q61.8819 690.993 61.8819 685.168 Q61.8819 681.794 61.0544 678.643 Q60.2269 675.461 58.5718 672.341 L64.1099 672.341 Q65.4467 675.492 66.147 678.803 Q66.8472 682.113 66.8472 685.518 Q66.8472 694.048 61.8819 699.045 Q56.9167 704.011 48.4503 704.011 Q39.6974 704.011 34.5731 699.3 Q29.4168 694.558 29.4168 686.537 Q29.4168 679.344 34.0638 675.174 Q38.6789 670.973 46.6361 670.973 M44.9173 676.829 Q40.1112 676.893 37.2466 679.535 Q34.3821 682.145 34.3821 686.473 Q34.3821 691.375 37.1512 694.335 Q39.9202 697.263 44.9492 697.709 L44.9173 676.829 Z" fill="#000000" fill-rule="evenodd" fill-opacity="1" /><path clip-path="url(#clip900)" d="M16.4626 626.572 Q23.7832 630.837 30.9446 632.906 Q38.106 634.975 45.4584 634.975 Q52.8108 634.975 60.0359 632.906 Q67.2291 630.805 74.5179 626.572 L74.5179 631.664 Q67.0382 636.439 59.8131 638.826 Q52.588 641.181 45.4584 641.181 Q38.3606 641.181 31.1674 638.826 Q23.9742 636.471 16.4626 631.664 L16.4626 626.572 Z" fill="#000000" fill-rule="evenodd" fill-opacity="1" /><path clip-path="url(#clip900)" d="M31.3265 592.484 L36.8647 592.484 Q35.5916 594.966 34.955 597.64 Q34.3184 600.313 34.3184 603.178 Q34.3184 607.538 35.6552 609.735 Q36.992 611.899 39.6656 611.899 Q41.7026 611.899 42.8803 610.339 Q44.0261 608.78 45.0765 604.069 L45.5221 602.064 Q46.8589 595.826 49.3097 593.216 Q51.7286 590.574 56.0891 590.574 Q61.0544 590.574 63.9508 594.521 Q66.8472 598.435 66.8472 605.31 Q66.8472 608.175 66.2743 611.294 Q65.7332 614.382 64.6192 617.819 L58.5718 617.819 Q60.2587 614.573 61.118 611.422 Q61.9456 608.27 61.9456 605.183 Q61.9456 601.045 60.5451 598.817 Q59.1129 596.589 56.5347 596.589 Q54.1476 596.589 52.8745 598.213 Q51.6013 599.804 50.4237 605.247 L49.9462 607.284 Q48.8004 612.726 46.4451 615.145 Q44.058 617.564 39.9202 617.564 Q34.8913 617.564 32.1541 614 Q29.4168 610.435 29.4168 603.878 Q29.4168 600.632 29.8943 597.767 Q30.3717 594.902 31.3265 592.484 Z" fill="#000000" fill-rule="evenodd" fill-opacity="1" /><path clip-path="url(#clip900)" d="M16.4626 582.171 L16.4626 577.079 Q23.9742 572.304 31.1674 569.949 Q38.3606 567.562 45.4584 567.562 Q52.588 567.562 59.8131 569.949 Q67.0382 572.304 74.5179 577.079 L74.5179 582.171 Q67.2291 577.938 60.0359 575.869 Q52.8108 573.768 45.4584 573.768 Q38.106 573.768 30.9446 575.869 Q23.7832 577.938 16.4626 582.171 Z" fill="#000000" fill-rule="evenodd" fill-opacity="1" /><polyline clip-path="url(#clip902)" style="stroke:#009af9; stroke-linecap:butt; stroke-linejoin:round; stroke-width:12; stroke-opacity:1; fill:none" points="
  2020,867.064 2000.41,648.025 1987.52,457.41 1750.71,270.134 1259.19,84.0448 
  "/>
<line clip-path="url(#clip902)" x1="2020" y1="867.064" x2="2020" y2="851.064" style="stroke:#009af9; stroke-width:3.072; stroke-opacity:1"/>
<line clip-path="url(#clip902)" x1="2020" y1="867.064" x2="2004" y2="867.064" style="stroke:#009af9; stroke-width:3.072; stroke-opacity:1"/>
<line clip-path="url(#clip902)" x1="2020" y1="867.064" x2="2020" y2="883.064" style="stroke:#009af9; stroke-width:3.072; stroke-opacity:1"/>
<line clip-path="url(#clip902)" x1="2020" y1="867.064" x2="2036" y2="867.064" style="stroke:#009af9; stroke-width:3.072; stroke-opacity:1"/>
<line clip-path="url(#clip902)" x1="2000.41" y1="648.025" x2="2000.41" y2="632.025" style="stroke:#009af9; stroke-width:3.072; stroke-opacity:1"/>
<line clip-path="url(#clip902)" x1="2000.41" y1="648.025" x2="1984.41" y2="648.025" style="stroke:#009af9; stroke-width:3.072; stroke-opacity:1"/>
<line clip-path="url(#clip902)" x1="2000.41" y1="648.025" x2="2000.41" y2="664.025" style="stroke:#009af9; stroke-width:3.072; stroke-opacity:1"/>
<line clip-path="url(#clip902)" x1="2000.41" y1="648.025" x2="2016.41" y2="648.025" style="stroke:#009af9; stroke-width:3.072; stroke-opacity:1"/>
<line clip-path="url(#clip902)" x1="1987.52" y1="457.41" x2="1987.52" y2="441.41" style="stroke:#009af9; stroke-width:3.072; stroke-opacity:1"/>
<line clip-path="url(#clip902)" x1="1987.52" y1="457.41" x2="1971.52" y2="457.41" style="stroke:#009af9; stroke-width:3.072; stroke-opacity:1"/>
<line clip-path="url(#clip902)" x1="1987.52" y1="457.41" x2="1987.52" y2="473.41" style="stroke:#009af9; stroke-width:3.072; stroke-opacity:1"/>
<line clip-path="url(#clip902)" x1="1987.52" y1="457.41" x2="2003.52" y2="457.41" style="stroke:#009af9; stroke-width:3.072; stroke-opacity:1"/>
<line clip-path="url(#clip902)" x1="1750.71" y1="270.134" x2="1750.71" y2="254.134" style="stroke:#009af9; stroke-width:3.072; stroke-opacity:1"/>
<line clip-path="url(#clip902)" x1="1750.71" y1="270.134" x2="1734.71" y2="270.134" style="stroke:#009af9; stroke-width:3.072; stroke-opacity:1"/>
<line clip-path="url(#clip902)" x1="1750.71" y1="270.134" x2="1750.71" y2="286.134" style="stroke:#009af9; stroke-width:3.072; stroke-opacity:1"/>
<line clip-path="url(#clip902)" x1="1750.71" y1="270.134" x2="1766.71" y2="270.134" style="stroke:#009af9; stroke-width:3.072; stroke-opacity:1"/>
<line clip-path="url(#clip902)" x1="1259.19" y1="84.0448" x2="1259.19" y2="68.0448" style="stroke:#009af9; stroke-width:3.072; stroke-opacity:1"/>
<line clip-path="url(#clip902)" x1="1259.19" y1="84.0448" x2="1243.19" y2="84.0448" style="stroke:#009af9; stroke-width:3.072; stroke-opacity:1"/>
<line clip-path="url(#clip902)" x1="1259.19" y1="84.0448" x2="1259.19" y2="100.045" style="stroke:#009af9; stroke-width:3.072; stroke-opacity:1"/>
<line clip-path="url(#clip902)" x1="1259.19" y1="84.0448" x2="1275.19" y2="84.0448" style="stroke:#009af9; stroke-width:3.072; stroke-opacity:1"/>
<polyline clip-path="url(#clip902)" style="stroke:#e26f46; stroke-linecap:butt; stroke-linejoin:round; stroke-width:12; stroke-opacity:1; fill:none" points="
  2144.45,1014.24 2133.95,1008.14 2159.83,1008.31 2156.38,975.625 2129.96,919.299 
  "/>
<circle clip-path="url(#clip902)" cx="2144.45" cy="1014.24" r="14" fill="#e26f46" fill-rule="evenodd" fill-opacity="1" stroke="#000000" stroke-opacity="1" stroke-width="3.072"/>
<circle clip-path="url(#clip902)" cx="2133.95" cy="1008.14" r="14" fill="#e26f46" fill-rule="evenodd" fill-opacity="1" stroke="#000000" stroke-opacity="1" stroke-width="3.072"/>
<circle clip-path="url(#clip902)" cx="2159.83" cy="1008.31" r="14" fill="#e26f46" fill-rule="evenodd" fill-opacity="1" stroke="#000000" stroke-opacity="1" stroke-width="3.072"/>
<circle clip-path="url(#clip902)" cx="2156.38" cy="975.625" r="14" fill="#e26f46" fill-rule="evenodd" fill-opacity="1" stroke="#000000" stroke-opacity="1" stroke-width="3.072"/>
<circle clip-path="url(#clip902)" cx="2129.96" cy="919.299" r="14" fill="#e26f46" fill-rule="evenodd" fill-opacity="1" stroke="#000000" stroke-opacity="1" stroke-width="3.072"/>
<polyline clip-path="url(#clip902)" style="stroke:#3da44d; stroke-linecap:butt; stroke-linejoin:round; stroke-width:12; stroke-opacity:1; fill:none" points="
  2138.76,1032.6 2156.33,1004.21 2136.29,973.109 2131.62,944.462 2133.45,929.158 
  "/>
<line clip-path="url(#clip902)" x1="2138.76" y1="1032.6" x2="2138.76" y2="1016.6" style="stroke:#3da44d; stroke-width:3.072; stroke-opacity:1"/>
<line clip-path="url(#clip902)" x1="2138.76" y1="1032.6" x2="2122.76" y2="1032.6" style="stroke:#3da44d; stroke-width:3.072; stroke-opacity:1"/>
<line clip-path="url(#clip902)" x1="2138.76" y1="1032.6" x2="2138.76" y2="1048.6" style="stroke:#3da44d; stroke-width:3.072; stroke-opacity:1"/>
<line clip-path="url(#clip902)" x1="2138.76" y1="1032.6" x2="2154.76" y2="1032.6" style="stroke:#3da44d; stroke-width:3.072; stroke-opacity:1"/>
<line clip-path="url(#clip902)" x1="2156.33" y1="1004.21" x2="2156.33" y2="988.212" style="stroke:#3da44d; stroke-width:3.072; stroke-opacity:1"/>
<line clip-path="url(#clip902)" x1="2156.33" y1="1004.21" x2="2140.33" y2="1004.21" style="stroke:#3da44d; stroke-width:3.072; stroke-opacity:1"/>
<line clip-path="url(#clip902)" x1="2156.33" y1="1004.21" x2="2156.33" y2="1020.21" style="stroke:#3da44d; stroke-width:3.072; stroke-opacity:1"/>
<line clip-path="url(#clip902)" x1="2156.33" y1="1004.21" x2="2172.33" y2="1004.21" style="stroke:#3da44d; stroke-width:3.072; stroke-opacity:1"/>
<line clip-path="url(#clip902)" x1="2136.29" y1="973.109" x2="2136.29" y2="957.109" style="stroke:#3da44d; stroke-width:3.072; stroke-opacity:1"/>
<line clip-path="url(#clip902)" x1="2136.29" y1="973.109" x2="2120.29" y2="973.109" style="stroke:#3da44d; stroke-width:3.072; stroke-opacity:1"/>
<line clip-path="url(#clip902)" x1="2136.29" y1="973.109" x2="2136.29" y2="989.109" style="stroke:#3da44d; stroke-width:3.072; stroke-opacity:1"/>
<line clip-path="url(#clip902)" x1="2136.29" y1="973.109" x2="2152.29" y2="973.109" style="stroke:#3da44d; stroke-width:3.072; stroke-opacity:1"/>
<line clip-path="url(#clip902)" x1="2131.62" y1="944.462" x2="2131.62" y2="928.462" style="stroke:#3da44d; stroke-width:3.072; stroke-opacity:1"/>
<line clip-path="url(#clip902)" x1="2131.62" y1="944.462" x2="2115.62" y2="944.462" style="stroke:#3da44d; stroke-width:3.072; stroke-opacity:1"/>
<line clip-path="url(#clip902)" x1="2131.62" y1="944.462" x2="2131.62" y2="960.462" style="stroke:#3da44d; stroke-width:3.072; stroke-opacity:1"/>
<line clip-path="url(#clip902)" x1="2131.62" y1="944.462" x2="2147.62" y2="944.462" style="stroke:#3da44d; stroke-width:3.072; stroke-opacity:1"/>
<line clip-path="url(#clip902)" x1="2133.45" y1="929.158" x2="2133.45" y2="913.158" style="stroke:#3da44d; stroke-width:3.072; stroke-opacity:1"/>
<line clip-path="url(#clip902)" x1="2133.45" y1="929.158" x2="2117.45" y2="929.158" style="stroke:#3da44d; stroke-width:3.072; stroke-opacity:1"/>
<line clip-path="url(#clip902)" x1="2133.45" y1="929.158" x2="2133.45" y2="945.158" style="stroke:#3da44d; stroke-width:3.072; stroke-opacity:1"/>
<line clip-path="url(#clip902)" x1="2133.45" y1="929.158" x2="2149.45" y2="929.158" style="stroke:#3da44d; stroke-width:3.072; stroke-opacity:1"/>
<polyline clip-path="url(#clip902)" style="stroke:#c271d2; stroke-linecap:butt; stroke-linejoin:round; stroke-width:12; stroke-opacity:1; fill:none" points="
  2157.53,952.361 2142.89,891.536 2152.83,803.104 2170.77,777.07 1987.18,692.758 
  "/>
<path clip-path="url(#clip902)" d="M2157.53 936.361 L2141.53 952.361 L2157.53 968.361 L2173.53 952.361 L2157.53 936.361 Z" fill="#c271d2" fill-rule="evenodd" fill-opacity="1" stroke="#000000" stroke-opacity="1" stroke-width="3.072"/>
<path clip-path="url(#clip902)" d="M2142.89 875.536 L2126.89 891.536 L2142.89 907.536 L2158.89 891.536 L2142.89 875.536 Z" fill="#c271d2" fill-rule="evenodd" fill-opacity="1" stroke="#000000" stroke-opacity="1" stroke-width="3.072"/>
<path clip-path="url(#clip902)" d="M2152.83 787.104 L2136.83 803.104 L2152.83 819.104 L2168.83 803.104 L2152.83 787.104 Z" fill="#c271d2" fill-rule="evenodd" fill-opacity="1" stroke="#000000" stroke-opacity="1" stroke-width="3.072"/>
<path clip-path="url(#clip902)" d="M2170.77 761.07 L2154.77 777.07 L2170.77 793.07 L2186.77 777.07 L2170.77 761.07 Z" fill="#c271d2" fill-rule="evenodd" fill-opacity="1" stroke="#000000" stroke-opacity="1" stroke-width="3.072"/>
<path clip-path="url(#clip902)" d="M1987.18 676.758 L1971.18 692.758 L1987.18 708.758 L2003.18 692.758 L1987.18 676.758 Z" fill="#c271d2" fill-rule="evenodd" fill-opacity="1" stroke="#000000" stroke-opacity="1" stroke-width="3.072"/>
<polyline clip-path="url(#clip902)" style="stroke:#ac8d18; stroke-linecap:butt; stroke-linejoin:round; stroke-width:12; stroke-opacity:1; fill:none" points="
  2180.21,1079.29 2145.49,1049.96 2159.18,1013.32 2156.16,982.517 2140.18,952.476 
  "/>
<path clip-path="url(#clip902)" d="M2196.21 1063.29 L2164.21 1063.29 L2180.21 1095.29 L2196.21 1063.29 Z" fill="#ac8d18" fill-rule="evenodd" fill-opacity="1" stroke="#000000" stroke-opacity="1" stroke-width="3.072"/>
<path clip-path="url(#clip902)" d="M2161.49 1033.96 L2129.49 1033.96 L2145.49 1065.96 L2161.49 1033.96 Z" fill="#ac8d18" fill-rule="evenodd" fill-opacity="1" stroke="#000000" stroke-opacity="1" stroke-width="3.072"/>
<path clip-path="url(#clip902)" d="M2175.18 997.316 L2143.18 997.316 L2159.18 1029.32 L2175.18 997.316 Z" fill="#ac8d18" fill-rule="evenodd" fill-opacity="1" stroke="#000000" stroke-opacity="1" stroke-width="3.072"/>
<path clip-path="url(#clip902)" d="M2172.16 966.517 L2140.16 966.517 L2156.16 998.517 L2172.16 966.517 Z" fill="#ac8d18" fill-rule="evenodd" fill-opacity="1" stroke="#000000" stroke-opacity="1" stroke-width="3.072"/>
<path clip-path="url(#clip902)" d="M2156.18 936.476 L2124.18 936.476 L2140.18 968.476 L2156.18 936.476 Z" fill="#ac8d18" fill-rule="evenodd" fill-opacity="1" stroke="#000000" stroke-opacity="1" stroke-width="3.072"/>
<polyline clip-path="url(#clip902)" style="stroke:#00a9ad; stroke-linecap:butt; stroke-linejoin:round; stroke-width:12; stroke-opacity:1; fill:none" points="
  2152.46,1010.29 2140.19,982.725 2132.88,945.729 2113.86,912.653 2115.43,879.101 
  "/>
<path clip-path="url(#clip902)" d="M2152.46 994.294 L2139.95 1000.33 L2136.86 1013.86 L2145.52 1024.71 L2159.41 1024.71 L2168.06 1013.86 L2164.98 1000.33 Z" fill="#00a9ad" fill-rule="evenodd" fill-opacity="1" stroke="#000000" stroke-opacity="1" stroke-width="3.072"/>
<path clip-path="url(#clip902)" d="M2140.19 966.725 L2127.68 972.757 L2124.59 986.293 L2133.25 997.141 L2147.14 997.141 L2155.79 986.293 L2152.71 972.757 Z" fill="#00a9ad" fill-rule="evenodd" fill-opacity="1" stroke="#000000" stroke-opacity="1" stroke-width="3.072"/>
<path clip-path="url(#clip902)" d="M2132.88 929.729 L2120.36 935.761 L2117.28 949.297 L2125.93 960.145 L2139.82 960.145 L2148.48 949.297 L2145.39 935.761 Z" fill="#00a9ad" fill-rule="evenodd" fill-opacity="1" stroke="#000000" stroke-opacity="1" stroke-width="3.072"/>
<path clip-path="url(#clip902)" d="M2113.86 896.653 L2101.35 902.685 L2098.26 916.221 L2106.92 927.069 L2120.8 927.069 L2129.46 916.221 L2126.37 902.685 Z" fill="#00a9ad" fill-rule="evenodd" fill-opacity="1" stroke="#000000" stroke-opacity="1" stroke-width="3.072"/>
<path clip-path="url(#clip902)" d="M2115.43 863.101 L2102.92 869.133 L2099.83 882.669 L2108.48 893.517 L2122.37 893.517 L2131.03 882.669 L2127.94 869.133 Z" fill="#00a9ad" fill-rule="evenodd" fill-opacity="1" stroke="#000000" stroke-opacity="1" stroke-width="3.072"/>
<polyline clip-path="url(#clip902)" style="stroke:#ed5d92; stroke-linecap:butt; stroke-linejoin:round; stroke-width:12; stroke-opacity:1; fill:none" points="
  2199.99,1229.54 2154.61,1123.25 1650.94,994.089 1109.46,843.961 554.624,665.681 
  "/>
<path clip-path="url(#clip902)" d="M2199.99 1245.54 L2186.13 1237.54 L2186.13 1221.54 L2199.99 1213.54 L2213.84 1221.54 L2213.84 1237.54 Z" fill="#ed5d92" fill-rule="evenodd" fill-opacity="1" stroke="#000000" stroke-opacity="1" stroke-width="3.072"/>
<path clip-path="url(#clip902)" d="M2154.61 1139.25 L2140.76 1131.25 L2140.76 1115.25 L2154.61 1107.25 L2168.47 1115.25 L2168.47 1131.25 Z" fill="#ed5d92" fill-rule="evenodd" fill-opacity="1" stroke="#000000" stroke-opacity="1" stroke-width="3.072"/>
<path clip-path="url(#clip902)" d="M1650.94 1010.09 L1637.09 1002.09 L1637.09 986.089 L1650.94 978.089 L1664.8 986.089 L1664.8 1002.09 Z" fill="#ed5d92" fill-rule="evenodd" fill-opacity="1" stroke="#000000" stroke-opacity="1" stroke-width="3.072"/>
<path clip-path="url(#clip902)" d="M1109.46 859.961 L1095.6 851.961 L1095.6 835.961 L1109.46 827.961 L1123.32 835.961 L1123.32 851.961 Z" fill="#ed5d92" fill-rule="evenodd" fill-opacity="1" stroke="#000000" stroke-opacity="1" stroke-width="3.072"/>
<path clip-path="url(#clip902)" d="M554.624 681.681 L540.768 673.681 L540.768 657.681 L554.624 649.681 L568.48 657.681 L568.48 673.681 Z" fill="#ed5d92" fill-rule="evenodd" fill-opacity="1" stroke="#000000" stroke-opacity="1" stroke-width="3.072"/>
<polyline clip-path="url(#clip902)" style="stroke:#c68125; stroke-linecap:butt; stroke-linejoin:round; stroke-width:12; stroke-opacity:1; fill:none" points="
  2134.81,899.872 1938.96,866.394 1598.87,821.367 735.371,729.695 307.652,758.581 
  "/>
<line clip-path="url(#clip902)" x1="2150.81" y1="899.872" x2="2118.81" y2="899.872" style="stroke:#c68125; stroke-width:3.072; stroke-opacity:1"/>
<line clip-path="url(#clip902)" x1="1954.96" y1="866.394" x2="1922.96" y2="866.394" style="stroke:#c68125; stroke-width:3.072; stroke-opacity:1"/>
<line clip-path="url(#clip902)" x1="1614.87" y1="821.367" x2="1582.87" y2="821.367" style="stroke:#c68125; stroke-width:3.072; stroke-opacity:1"/>
<line clip-path="url(#clip902)" x1="751.371" y1="729.695" x2="719.371" y2="729.695" style="stroke:#c68125; stroke-width:3.072; stroke-opacity:1"/>
<line clip-path="url(#clip902)" x1="323.652" y1="758.581" x2="291.652" y2="758.581" style="stroke:#c68125; stroke-width:3.072; stroke-opacity:1"/>
<polyline clip-path="url(#clip902)" style="stroke:#00a98d; stroke-linecap:butt; stroke-linejoin:round; stroke-width:12; stroke-opacity:1; fill:none" points="
  2183.59,1310.74 2138.42,1214.55 1674.1,1119.01 1604.71,1030.93 950.988,874.69 
  "/>
<path clip-path="url(#clip902)" d="M2170.79 1310.74 L2189.99 1321.94 L2189.99 1299.54 L2170.79 1310.74 Z" fill="#00a98d" fill-rule="evenodd" fill-opacity="1" stroke="#000000" stroke-opacity="1" stroke-width="3.072"/>
<path clip-path="url(#clip902)" d="M2125.62 1214.55 L2144.82 1225.75 L2144.82 1203.35 L2125.62 1214.55 Z" fill="#00a98d" fill-rule="evenodd" fill-opacity="1" stroke="#000000" stroke-opacity="1" stroke-width="3.072"/>
<path clip-path="url(#clip902)" d="M1661.3 1119.01 L1680.5 1130.21 L1680.5 1107.81 L1661.3 1119.01 Z" fill="#00a98d" fill-rule="evenodd" fill-opacity="1" stroke="#000000" stroke-opacity="1" stroke-width="3.072"/>
<path clip-path="url(#clip902)" d="M1591.91 1030.93 L1611.11 1042.13 L1611.11 1019.73 L1591.91 1030.93 Z" fill="#00a98d" fill-rule="evenodd" fill-opacity="1" stroke="#000000" stroke-opacity="1" stroke-width="3.072"/>
<path clip-path="url(#clip902)" d="M938.188 874.69 L957.388 885.89 L957.388 863.49 L938.188 874.69 Z" fill="#00a98d" fill-rule="evenodd" fill-opacity="1" stroke="#000000" stroke-opacity="1" stroke-width="3.072"/>
<path clip-path="url(#clip900)" d="
M1683.96 608.987 L2189.89 608.987 L2189.89 90.5872 L1683.96 90.5872  Z
  " fill="#ffffff" fill-rule="evenodd" fill-opacity="1"/>
<polyline clip-path="url(#clip900)" style="stroke:#000000; stroke-linecap:butt; stroke-linejoin:round; stroke-width:4; stroke-opacity:1; fill:none" points="
  1683.96,608.987 2189.89,608.987 2189.89,90.5872 1683.96,90.5872 1683.96,608.987 
  "/>
<polyline clip-path="url(#clip900)" style="stroke:#009af9; stroke-linecap:butt; stroke-linejoin:round; stroke-width:4; stroke-opacity:1; fill:none" points="
  1706.25,142.427 1839.98,142.427 
  "/>
<line clip-path="url(#clip900)" x1="1773.11" y1="142.427" x2="1773.11" y2="116.827" style="stroke:#009af9; stroke-width:4.9152; stroke-opacity:1"/>
<line clip-path="url(#clip900)" x1="1773.11" y1="142.427" x2="1747.51" y2="142.427" style="stroke:#009af9; stroke-width:4.9152; stroke-opacity:1"/>
<line clip-path="url(#clip900)" x1="1773.11" y1="142.427" x2="1773.11" y2="168.027" style="stroke:#009af9; stroke-width:4.9152; stroke-opacity:1"/>
<line clip-path="url(#clip900)" x1="1773.11" y1="142.427" x2="1798.71" y2="142.427" style="stroke:#009af9; stroke-width:4.9152; stroke-opacity:1"/>
<path clip-path="url(#clip900)" d="M1878.65 143.504 Q1880.16 144.013 1881.57 145.679 Q1883.01 147.346 1884.44 150.263 L1889.19 159.707 L1884.16 159.707 L1879.74 150.841 Q1878.03 147.369 1876.41 146.235 Q1874.81 145.101 1872.03 145.101 L1866.94 145.101 L1866.94 159.707 L1862.26 159.707 L1862.26 125.147 L1872.82 125.147 Q1878.75 125.147 1881.66 127.624 Q1884.58 130.101 1884.58 135.101 Q1884.58 138.365 1883.05 140.517 Q1881.55 142.67 1878.65 143.504 M1866.94 128.99 L1866.94 141.258 L1872.82 141.258 Q1876.2 141.258 1877.91 139.707 Q1879.65 138.133 1879.65 135.101 Q1879.65 132.068 1877.91 130.541 Q1876.2 128.99 1872.82 128.99 L1866.94 128.99 Z" fill="#000000" fill-rule="evenodd" fill-opacity="1" /><path clip-path="url(#clip900)" d="M1902.94 136.767 Q1899.51 136.767 1897.52 139.453 Q1895.53 142.115 1895.53 146.767 Q1895.53 151.42 1897.5 154.105 Q1899.49 156.767 1902.94 156.767 Q1906.34 156.767 1908.33 154.082 Q1910.32 151.397 1910.32 146.767 Q1910.32 142.161 1908.33 139.476 Q1906.34 136.767 1902.94 136.767 M1902.94 133.156 Q1908.49 133.156 1911.66 136.767 Q1914.83 140.379 1914.83 146.767 Q1914.83 153.133 1911.66 156.767 Q1908.49 160.378 1902.94 160.378 Q1897.36 160.378 1894.19 156.767 Q1891.04 153.133 1891.04 146.767 Q1891.04 140.379 1894.19 136.767 Q1897.36 133.156 1902.94 133.156 Z" fill="#000000" fill-rule="evenodd" fill-opacity="1" /><path clip-path="url(#clip900)" d="M1938.95 137.717 L1938.95 123.689 L1943.21 123.689 L1943.21 159.707 L1938.95 159.707 L1938.95 155.818 Q1937.61 158.133 1935.55 159.267 Q1933.51 160.378 1930.64 160.378 Q1925.94 160.378 1922.98 156.628 Q1920.04 152.879 1920.04 146.767 Q1920.04 140.656 1922.98 136.906 Q1925.94 133.156 1930.64 133.156 Q1933.51 133.156 1935.55 134.291 Q1937.61 135.402 1938.95 137.717 M1924.44 146.767 Q1924.44 151.466 1926.36 154.152 Q1928.31 156.814 1931.69 156.814 Q1935.06 156.814 1937.01 154.152 Q1938.95 151.466 1938.95 146.767 Q1938.95 142.068 1937.01 139.406 Q1935.06 136.721 1931.69 136.721 Q1928.31 136.721 1926.36 139.406 Q1924.44 142.068 1924.44 146.767 Z" fill="#000000" fill-rule="evenodd" fill-opacity="1" /><path clip-path="url(#clip900)" d="M1963.77 146.675 Q1958.61 146.675 1956.62 147.855 Q1954.63 149.036 1954.63 151.883 Q1954.63 154.152 1956.11 155.494 Q1957.61 156.814 1960.18 156.814 Q1963.72 156.814 1965.85 154.314 Q1968 151.791 1968 147.624 L1968 146.675 L1963.77 146.675 M1972.26 144.916 L1972.26 159.707 L1968 159.707 L1968 155.772 Q1966.55 158.133 1964.37 159.267 Q1962.19 160.378 1959.05 160.378 Q1955.06 160.378 1952.7 158.156 Q1950.37 155.911 1950.37 152.161 Q1950.37 147.786 1953.28 145.564 Q1956.22 143.342 1962.03 143.342 L1968 143.342 L1968 142.925 Q1968 139.985 1966.06 138.388 Q1964.14 136.767 1960.64 136.767 Q1958.42 136.767 1956.31 137.3 Q1954.21 137.832 1952.26 138.897 L1952.26 134.962 Q1954.6 134.059 1956.8 133.619 Q1959 133.156 1961.08 133.156 Q1966.71 133.156 1969.49 136.073 Q1972.26 138.99 1972.26 144.916 Z" fill="#000000" fill-rule="evenodd" fill-opacity="1" /><path clip-path="url(#clip900)" d="M1997.56 134.545 L1997.56 138.573 Q1995.76 137.647 1993.81 137.184 Q1991.87 136.721 1989.79 136.721 Q1986.62 136.721 1985.02 137.693 Q1983.44 138.666 1983.44 140.61 Q1983.44 142.092 1984.58 142.948 Q1985.71 143.781 1989.14 144.545 L1990.6 144.869 Q1995.13 145.842 1997.03 147.624 Q1998.95 149.383 1998.95 152.554 Q1998.95 156.166 1996.08 158.272 Q1993.24 160.378 1988.24 160.378 Q1986.15 160.378 1983.88 159.962 Q1981.64 159.568 1979.14 158.758 L1979.14 154.36 Q1981.5 155.587 1983.79 156.212 Q1986.08 156.814 1988.33 156.814 Q1991.34 156.814 1992.96 155.795 Q1994.58 154.754 1994.58 152.879 Q1994.58 151.142 1993.4 150.216 Q1992.24 149.291 1988.28 148.434 L1986.8 148.087 Q1982.84 147.254 1981.08 145.541 Q1979.32 143.804 1979.32 140.795 Q1979.32 137.138 1981.92 135.147 Q1984.51 133.156 1989.28 133.156 Q1991.64 133.156 1993.72 133.504 Q1995.81 133.851 1997.56 134.545 Z" fill="#000000" fill-rule="evenodd" fill-opacity="1" /><path clip-path="url(#clip900)" d="M2020.5 141.073 Q2023.86 141.791 2025.74 144.059 Q2027.63 146.328 2027.63 149.661 Q2027.63 154.777 2024.12 157.578 Q2020.6 160.378 2014.12 160.378 Q2011.94 160.378 2009.62 159.939 Q2007.33 159.522 2004.88 158.666 L2004.88 154.152 Q2006.82 155.286 2009.14 155.865 Q2011.45 156.443 2013.98 156.443 Q2018.37 156.443 2020.67 154.707 Q2022.98 152.971 2022.98 149.661 Q2022.98 146.605 2020.83 144.892 Q2018.7 143.156 2014.88 143.156 L2010.85 143.156 L2010.85 139.314 L2015.06 139.314 Q2018.51 139.314 2020.34 137.948 Q2022.17 136.559 2022.17 133.967 Q2022.17 131.305 2020.27 129.893 Q2018.4 128.457 2014.88 128.457 Q2012.96 128.457 2010.76 128.874 Q2008.56 129.291 2005.92 130.17 L2005.92 126.004 Q2008.58 125.263 2010.9 124.893 Q2013.24 124.522 2015.3 124.522 Q2020.62 124.522 2023.72 126.953 Q2026.82 129.36 2026.82 133.48 Q2026.82 136.351 2025.18 138.342 Q2023.54 140.309 2020.5 141.073 Z" fill="#000000" fill-rule="evenodd" fill-opacity="1" /><polyline clip-path="url(#clip900)" style="stroke:#e26f46; stroke-linecap:butt; stroke-linejoin:round; stroke-width:4; stroke-opacity:1; fill:none" points="
  1706.25,194.267 1839.98,194.267 
  "/>
<circle clip-path="url(#clip900)" cx="1773.11" cy="194.267" r="23" fill="#e26f46" fill-rule="evenodd" fill-opacity="1" stroke="#000000" stroke-opacity="1" stroke-width="4.9152"/>
<path clip-path="url(#clip900)" d="M1862.26 176.987 L1866.94 176.987 L1866.94 191.594 L1882.45 176.987 L1888.47 176.987 L1871.32 193.098 L1889.69 211.547 L1883.54 211.547 L1866.94 194.904 L1866.94 211.547 L1862.26 211.547 L1862.26 176.987 Z" fill="#000000" fill-rule="evenodd" fill-opacity="1" /><path clip-path="url(#clip900)" d="M1890.11 185.621 L1894.63 185.621 L1902.73 207.381 L1910.83 185.621 L1915.34 185.621 L1905.62 211.547 L1899.83 211.547 L1890.11 185.621 Z" fill="#000000" fill-rule="evenodd" fill-opacity="1" /><path clip-path="url(#clip900)" d="M1933 198.515 Q1927.84 198.515 1925.85 199.695 Q1923.86 200.876 1923.86 203.723 Q1923.86 205.992 1925.34 207.334 Q1926.85 208.654 1929.42 208.654 Q1932.96 208.654 1935.09 206.154 Q1937.24 203.631 1937.24 199.464 L1937.24 198.515 L1933 198.515 M1941.5 196.756 L1941.5 211.547 L1937.24 211.547 L1937.24 207.612 Q1935.78 209.973 1933.61 211.107 Q1931.43 212.218 1928.28 212.218 Q1924.3 212.218 1921.94 209.996 Q1919.6 207.751 1919.6 204.001 Q1919.6 199.626 1922.52 197.404 Q1925.46 195.182 1931.27 195.182 L1937.24 195.182 L1937.24 194.765 Q1937.24 191.825 1935.3 190.228 Q1933.38 188.607 1929.88 188.607 Q1927.66 188.607 1925.55 189.14 Q1923.44 189.672 1921.5 190.737 L1921.5 186.802 Q1923.84 185.899 1926.04 185.459 Q1928.24 184.996 1930.32 184.996 Q1935.94 184.996 1938.72 187.913 Q1941.5 190.83 1941.5 196.756 Z" fill="#000000" fill-rule="evenodd" fill-opacity="1" /><path clip-path="url(#clip900)" d="M1972.45 197.519 L1972.45 199.603 L1952.87 199.603 Q1953.14 204.001 1955.5 206.316 Q1957.89 208.607 1962.13 208.607 Q1964.58 208.607 1966.87 208.006 Q1969.19 207.404 1971.45 206.2 L1971.45 210.228 Q1969.16 211.2 1966.75 211.709 Q1964.35 212.218 1961.87 212.218 Q1955.67 212.218 1952.03 208.607 Q1948.42 204.996 1948.42 198.839 Q1948.42 192.473 1951.85 188.746 Q1955.3 184.996 1961.13 184.996 Q1966.36 184.996 1969.39 188.376 Q1972.45 191.732 1972.45 197.519 M1968.19 196.269 Q1968.14 192.774 1966.22 190.691 Q1964.32 188.607 1961.18 188.607 Q1957.61 188.607 1955.46 190.621 Q1953.33 192.635 1953 196.293 L1968.19 196.269 Z" fill="#000000" fill-rule="evenodd" fill-opacity="1" /><path clip-path="url(#clip900)" d="M1994.46 189.603 Q1993.75 189.186 1992.89 189.001 Q1992.06 188.793 1991.04 188.793 Q1987.43 188.793 1985.48 191.154 Q1983.56 193.492 1983.56 197.89 L1983.56 211.547 L1979.28 211.547 L1979.28 185.621 L1983.56 185.621 L1983.56 189.649 Q1984.9 187.288 1987.06 186.154 Q1989.21 184.996 1992.29 184.996 Q1992.73 184.996 1993.26 185.066 Q1993.79 185.112 1994.44 185.228 L1994.46 189.603 Z" fill="#000000" fill-rule="evenodd" fill-opacity="1" /><path clip-path="url(#clip900)" d="M2019.65 195.899 L2019.65 211.547 L2015.39 211.547 L2015.39 196.038 Q2015.39 192.357 2013.95 190.529 Q2012.52 188.7 2009.65 188.7 Q2006.2 188.7 2004.21 190.899 Q2002.22 193.098 2002.22 196.894 L2002.22 211.547 L1997.94 211.547 L1997.94 185.621 L2002.22 185.621 L2002.22 189.649 Q2003.75 187.311 2005.81 186.154 Q2007.89 184.996 2010.6 184.996 Q2015.06 184.996 2017.36 187.774 Q2019.65 190.529 2019.65 195.899 Z" fill="#000000" fill-rule="evenodd" fill-opacity="1" /><path clip-path="url(#clip900)" d="M2038.19 188.607 Q2034.76 188.607 2032.77 191.293 Q2030.78 193.955 2030.78 198.607 Q2030.78 203.26 2032.75 205.945 Q2034.74 208.607 2038.19 208.607 Q2041.59 208.607 2043.58 205.922 Q2045.57 203.237 2045.57 198.607 Q2045.57 194.001 2043.58 191.316 Q2041.59 188.607 2038.19 188.607 M2038.19 184.996 Q2043.74 184.996 2046.92 188.607 Q2050.09 192.219 2050.09 198.607 Q2050.09 204.973 2046.92 208.607 Q2043.74 212.218 2038.19 212.218 Q2032.61 212.218 2029.44 208.607 Q2026.29 204.973 2026.29 198.607 Q2026.29 192.219 2029.44 188.607 Q2032.61 184.996 2038.19 184.996 Z" fill="#000000" fill-rule="evenodd" fill-opacity="1" /><path clip-path="url(#clip900)" d="M2070.6 181.061 L2058.79 199.51 L2070.6 199.51 L2070.6 181.061 M2069.37 176.987 L2075.25 176.987 L2075.25 199.51 L2080.18 199.51 L2080.18 203.399 L2075.25 203.399 L2075.25 211.547 L2070.6 211.547 L2070.6 203.399 L2054.99 203.399 L2054.99 198.885 L2069.37 176.987 Z" fill="#000000" fill-rule="evenodd" fill-opacity="1" /><polyline clip-path="url(#clip900)" style="stroke:#3da44d; stroke-linecap:butt; stroke-linejoin:round; stroke-width:4; stroke-opacity:1; fill:none" points="
  1706.25,246.107 1839.98,246.107 
  "/>
<line clip-path="url(#clip900)" x1="1773.11" y1="246.107" x2="1773.11" y2="220.507" style="stroke:#3da44d; stroke-width:4.9152; stroke-opacity:1"/>
<line clip-path="url(#clip900)" x1="1773.11" y1="246.107" x2="1747.51" y2="246.107" style="stroke:#3da44d; stroke-width:4.9152; stroke-opacity:1"/>
<line clip-path="url(#clip900)" x1="1773.11" y1="246.107" x2="1773.11" y2="271.707" style="stroke:#3da44d; stroke-width:4.9152; stroke-opacity:1"/>
<line clip-path="url(#clip900)" x1="1773.11" y1="246.107" x2="1798.71" y2="246.107" style="stroke:#3da44d; stroke-width:4.9152; stroke-opacity:1"/>
<path clip-path="url(#clip900)" d="M1862.26 228.827 L1866.94 228.827 L1866.94 243.434 L1882.45 228.827 L1888.47 228.827 L1871.32 244.938 L1889.69 263.387 L1883.54 263.387 L1866.94 246.744 L1866.94 263.387 L1862.26 263.387 L1862.26 228.827 Z" fill="#000000" fill-rule="evenodd" fill-opacity="1" /><path clip-path="url(#clip900)" d="M1890.11 237.461 L1894.63 237.461 L1902.73 259.221 L1910.83 237.461 L1915.34 237.461 L1905.62 263.387 L1899.83 263.387 L1890.11 237.461 Z" fill="#000000" fill-rule="evenodd" fill-opacity="1" /><path clip-path="url(#clip900)" d="M1933 250.355 Q1927.84 250.355 1925.85 251.535 Q1923.86 252.716 1923.86 255.563 Q1923.86 257.832 1925.34 259.174 Q1926.85 260.494 1929.42 260.494 Q1932.96 260.494 1935.09 257.994 Q1937.24 255.471 1937.24 251.304 L1937.24 250.355 L1933 250.355 M1941.5 248.596 L1941.5 263.387 L1937.24 263.387 L1937.24 259.452 Q1935.78 261.813 1933.61 262.947 Q1931.43 264.058 1928.28 264.058 Q1924.3 264.058 1921.94 261.836 Q1919.6 259.591 1919.6 255.841 Q1919.6 251.466 1922.52 249.244 Q1925.46 247.022 1931.27 247.022 L1937.24 247.022 L1937.24 246.605 Q1937.24 243.665 1935.3 242.068 Q1933.38 240.447 1929.88 240.447 Q1927.66 240.447 1925.55 240.98 Q1923.44 241.512 1921.5 242.577 L1921.5 238.642 Q1923.84 237.739 1926.04 237.299 Q1928.24 236.836 1930.32 236.836 Q1935.94 236.836 1938.72 239.753 Q1941.5 242.67 1941.5 248.596 Z" fill="#000000" fill-rule="evenodd" fill-opacity="1" /><path clip-path="url(#clip900)" d="M1972.45 249.359 L1972.45 251.443 L1952.87 251.443 Q1953.14 255.841 1955.5 258.156 Q1957.89 260.447 1962.13 260.447 Q1964.58 260.447 1966.87 259.846 Q1969.19 259.244 1971.45 258.04 L1971.45 262.068 Q1969.16 263.04 1966.75 263.549 Q1964.35 264.058 1961.87 264.058 Q1955.67 264.058 1952.03 260.447 Q1948.42 256.836 1948.42 250.679 Q1948.42 244.313 1951.85 240.586 Q1955.3 236.836 1961.13 236.836 Q1966.36 236.836 1969.39 240.216 Q1972.45 243.572 1972.45 249.359 M1968.19 248.109 Q1968.14 244.614 1966.22 242.531 Q1964.32 240.447 1961.18 240.447 Q1957.61 240.447 1955.46 242.461 Q1953.33 244.475 1953 248.133 L1968.19 248.109 Z" fill="#000000" fill-rule="evenodd" fill-opacity="1" /><path clip-path="url(#clip900)" d="M1994.46 241.443 Q1993.75 241.026 1992.89 240.841 Q1992.06 240.633 1991.04 240.633 Q1987.43 240.633 1985.48 242.994 Q1983.56 245.332 1983.56 249.73 L1983.56 263.387 L1979.28 263.387 L1979.28 237.461 L1983.56 237.461 L1983.56 241.489 Q1984.9 239.128 1987.06 237.994 Q1989.21 236.836 1992.29 236.836 Q1992.73 236.836 1993.26 236.906 Q1993.79 236.952 1994.44 237.068 L1994.46 241.443 Z" fill="#000000" fill-rule="evenodd" fill-opacity="1" /><path clip-path="url(#clip900)" d="M2019.65 247.739 L2019.65 263.387 L2015.39 263.387 L2015.39 247.878 Q2015.39 244.197 2013.95 242.369 Q2012.52 240.54 2009.65 240.54 Q2006.2 240.54 2004.21 242.739 Q2002.22 244.938 2002.22 248.734 L2002.22 263.387 L1997.94 263.387 L1997.94 237.461 L2002.22 237.461 L2002.22 241.489 Q2003.75 239.151 2005.81 237.994 Q2007.89 236.836 2010.6 236.836 Q2015.06 236.836 2017.36 239.614 Q2019.65 242.369 2019.65 247.739 Z" fill="#000000" fill-rule="evenodd" fill-opacity="1" /><path clip-path="url(#clip900)" d="M2038.19 240.447 Q2034.76 240.447 2032.77 243.133 Q2030.78 245.795 2030.78 250.447 Q2030.78 255.1 2032.75 257.785 Q2034.74 260.447 2038.19 260.447 Q2041.59 260.447 2043.58 257.762 Q2045.57 255.077 2045.57 250.447 Q2045.57 245.841 2043.58 243.156 Q2041.59 240.447 2038.19 240.447 M2038.19 236.836 Q2043.74 236.836 2046.92 240.447 Q2050.09 244.059 2050.09 250.447 Q2050.09 256.813 2046.92 260.447 Q2043.74 264.058 2038.19 264.058 Q2032.61 264.058 2029.44 260.447 Q2026.29 256.813 2026.29 250.447 Q2026.29 244.059 2029.44 240.447 Q2032.61 236.836 2038.19 236.836 Z" fill="#000000" fill-rule="evenodd" fill-opacity="1" /><path clip-path="url(#clip900)" d="M2057.8 228.827 L2076.15 228.827 L2076.15 232.762 L2062.08 232.762 L2062.08 241.235 Q2063.1 240.887 2064.12 240.725 Q2065.13 240.54 2066.15 240.54 Q2071.94 240.54 2075.32 243.711 Q2078.7 246.883 2078.7 252.299 Q2078.7 257.878 2075.23 260.98 Q2071.75 264.058 2065.43 264.058 Q2063.26 264.058 2060.99 263.688 Q2058.74 263.318 2056.34 262.577 L2056.34 257.878 Q2058.42 259.012 2060.64 259.568 Q2062.87 260.123 2065.34 260.123 Q2069.35 260.123 2071.68 258.017 Q2074.02 255.91 2074.02 252.299 Q2074.02 248.688 2071.68 246.582 Q2069.35 244.475 2065.34 244.475 Q2063.47 244.475 2061.59 244.892 Q2059.74 245.309 2057.8 246.188 L2057.8 228.827 Z" fill="#000000" fill-rule="evenodd" fill-opacity="1" /><polyline clip-path="url(#clip900)" style="stroke:#c271d2; stroke-linecap:butt; stroke-linejoin:round; stroke-width:4; stroke-opacity:1; fill:none" points="
  1706.25,297.947 1839.98,297.947 
  "/>
<path clip-path="url(#clip900)" d="M1773.11 272.347 L1747.51 297.947 L1773.11 323.547 L1798.71 297.947 L1773.11 272.347 Z" fill="#c271d2" fill-rule="evenodd" fill-opacity="1" stroke="#000000" stroke-opacity="1" stroke-width="4.9152"/>
<path clip-path="url(#clip900)" d="M1890.13 283.329 L1890.13 288.26 Q1887.77 286.061 1885.09 284.973 Q1882.43 283.885 1879.42 283.885 Q1873.49 283.885 1870.34 287.519 Q1867.19 291.13 1867.19 297.982 Q1867.19 304.811 1870.34 308.445 Q1873.49 312.056 1879.42 312.056 Q1882.43 312.056 1885.09 310.968 Q1887.77 309.88 1890.13 307.681 L1890.13 312.565 Q1887.68 314.232 1884.93 315.065 Q1882.19 315.898 1879.14 315.898 Q1871.29 315.898 1866.78 311.107 Q1862.26 306.292 1862.26 297.982 Q1862.26 289.649 1866.78 284.857 Q1871.29 280.042 1879.14 280.042 Q1882.24 280.042 1884.97 280.876 Q1887.73 281.686 1890.13 283.329 Z" fill="#000000" fill-rule="evenodd" fill-opacity="1" /><path clip-path="url(#clip900)" d="M1906.27 315.227 L1893.07 280.667 L1897.96 280.667 L1908.91 309.764 L1919.88 280.667 L1924.74 280.667 L1911.57 315.227 L1906.27 315.227 Z" fill="#000000" fill-rule="evenodd" fill-opacity="1" /><path clip-path="url(#clip900)" d="M1942.98 283.838 Q1937.89 283.838 1934.88 287.635 Q1931.89 291.431 1931.89 297.982 Q1931.89 304.51 1934.88 308.306 Q1937.89 312.102 1942.98 312.102 Q1948.07 312.102 1951.04 308.306 Q1954.02 304.51 1954.02 297.982 Q1954.02 291.431 1951.04 287.635 Q1948.07 283.838 1942.98 283.838 M1942.98 280.042 Q1950.25 280.042 1954.6 284.926 Q1958.95 289.788 1958.95 297.982 Q1958.95 306.153 1954.6 311.037 Q1950.25 315.898 1942.98 315.898 Q1935.69 315.898 1931.32 311.037 Q1926.96 306.176 1926.96 297.982 Q1926.96 289.788 1931.32 284.926 Q1935.69 280.042 1942.98 280.042 Z" fill="#000000" fill-rule="evenodd" fill-opacity="1" /><path clip-path="url(#clip900)" d="M1970.94 284.51 L1970.94 311.385 L1976.59 311.385 Q1983.75 311.385 1987.06 308.144 Q1990.39 304.903 1990.39 297.912 Q1990.39 290.968 1987.06 287.75 Q1983.75 284.51 1976.59 284.51 L1970.94 284.51 M1966.27 280.667 L1975.87 280.667 Q1985.92 280.667 1990.62 284.857 Q1995.32 289.024 1995.32 297.912 Q1995.32 306.848 1990.6 311.037 Q1985.87 315.227 1975.87 315.227 L1966.27 315.227 L1966.27 280.667 Z" fill="#000000" fill-rule="evenodd" fill-opacity="1" /><path clip-path="url(#clip900)" d="M2002.77 280.667 L2024.62 280.667 L2024.62 284.602 L2007.45 284.602 L2007.45 294.834 L2023.91 294.834 L2023.91 298.769 L2007.45 298.769 L2007.45 311.292 L2025.04 311.292 L2025.04 315.227 L2002.77 315.227 L2002.77 280.667 Z" fill="#000000" fill-rule="evenodd" fill-opacity="1" /><path clip-path="url(#clip900)" d="M2052.24 323.098 L2052.24 326.408 L2027.61 326.408 L2027.61 323.098 L2052.24 323.098 Z" fill="#000000" fill-rule="evenodd" fill-opacity="1" /><path clip-path="url(#clip900)" d="M2061.11 298.723 L2061.11 311.385 L2068.61 311.385 Q2072.38 311.385 2074.18 309.834 Q2076.01 308.26 2076.01 305.042 Q2076.01 301.801 2074.18 300.274 Q2072.38 298.723 2068.61 298.723 L2061.11 298.723 M2061.11 284.51 L2061.11 294.926 L2068.03 294.926 Q2071.45 294.926 2073.12 293.653 Q2074.81 292.357 2074.81 289.718 Q2074.81 287.102 2073.12 285.806 Q2071.45 284.51 2068.03 284.51 L2061.11 284.51 M2056.43 280.667 L2068.37 280.667 Q2073.72 280.667 2076.62 282.889 Q2079.51 285.112 2079.51 289.209 Q2079.51 292.38 2078.03 294.255 Q2076.55 296.13 2073.68 296.593 Q2077.12 297.334 2079.02 299.695 Q2080.94 302.033 2080.94 305.551 Q2080.94 310.181 2077.8 312.704 Q2074.65 315.227 2068.84 315.227 L2056.43 315.227 L2056.43 280.667 Z" fill="#000000" fill-rule="evenodd" fill-opacity="1" /><path clip-path="url(#clip900)" d="M2093.63 284.51 L2093.63 311.385 L2099.28 311.385 Q2106.43 311.385 2109.74 308.144 Q2113.07 304.903 2113.07 297.912 Q2113.07 290.968 2109.74 287.75 Q2106.43 284.51 2099.28 284.51 L2093.63 284.51 M2088.95 280.667 L2098.56 280.667 Q2108.61 280.667 2113.3 284.857 Q2118 289.024 2118 297.912 Q2118 306.848 2113.28 311.037 Q2108.56 315.227 2098.56 315.227 L2088.95 315.227 L2088.95 280.667 Z" fill="#000000" fill-rule="evenodd" fill-opacity="1" /><path clip-path="url(#clip900)" d="M2125.46 280.667 L2145.32 280.667 L2145.32 284.602 L2130.13 284.602 L2130.13 294.787 L2143.84 294.787 L2143.84 298.723 L2130.13 298.723 L2130.13 315.227 L2125.46 315.227 L2125.46 280.667 Z" fill="#000000" fill-rule="evenodd" fill-opacity="1" /><polyline clip-path="url(#clip900)" style="stroke:#ac8d18; stroke-linecap:butt; stroke-linejoin:round; stroke-width:4; stroke-opacity:1; fill:none" points="
  1706.25,349.787 1839.98,349.787 
  "/>
<path clip-path="url(#clip900)" d="M1798.71 324.187 L1747.51 324.187 L1773.11 375.387 L1798.71 324.187 Z" fill="#ac8d18" fill-rule="evenodd" fill-opacity="1" stroke="#000000" stroke-opacity="1" stroke-width="4.9152"/>
<path clip-path="url(#clip900)" d="M1862.26 332.507 L1866.94 332.507 L1866.94 347.114 L1882.45 332.507 L1888.47 332.507 L1871.32 348.618 L1889.69 367.067 L1883.54 367.067 L1866.94 350.424 L1866.94 367.067 L1862.26 367.067 L1862.26 332.507 Z" fill="#000000" fill-rule="evenodd" fill-opacity="1" /><path clip-path="url(#clip900)" d="M1912.98 353.039 L1912.98 355.123 L1893.4 355.123 Q1893.68 359.521 1896.04 361.836 Q1898.42 364.127 1902.66 364.127 Q1905.11 364.127 1907.4 363.526 Q1909.72 362.924 1911.99 361.72 L1911.99 365.748 Q1909.69 366.72 1907.29 367.229 Q1904.88 367.738 1902.4 367.738 Q1896.2 367.738 1892.57 364.127 Q1888.95 360.516 1888.95 354.359 Q1888.95 347.993 1892.38 344.266 Q1895.83 340.516 1901.66 340.516 Q1906.89 340.516 1909.93 343.896 Q1912.98 347.252 1912.98 353.039 M1908.72 351.789 Q1908.68 348.294 1906.75 346.211 Q1904.86 344.127 1901.71 344.127 Q1898.14 344.127 1895.99 346.141 Q1893.86 348.155 1893.54 351.813 L1908.72 351.789 Z" fill="#000000" fill-rule="evenodd" fill-opacity="1" /><path clip-path="url(#clip900)" d="M1941.52 351.419 L1941.52 367.067 L1937.26 367.067 L1937.26 351.558 Q1937.26 347.877 1935.83 346.049 Q1934.39 344.22 1931.52 344.22 Q1928.07 344.22 1926.08 346.419 Q1924.09 348.618 1924.09 352.414 L1924.09 367.067 L1919.81 367.067 L1919.81 341.141 L1924.09 341.141 L1924.09 345.169 Q1925.62 342.831 1927.68 341.674 Q1929.76 340.516 1932.47 340.516 Q1936.94 340.516 1939.23 343.294 Q1941.52 346.049 1941.52 351.419 Z" fill="#000000" fill-rule="evenodd" fill-opacity="1" /><path clip-path="url(#clip900)" d="M1976.08 335.169 L1976.08 340.1 Q1973.72 337.901 1971.04 336.813 Q1968.37 335.725 1965.37 335.725 Q1959.44 335.725 1956.29 339.359 Q1953.14 342.97 1953.14 349.822 Q1953.14 356.651 1956.29 360.285 Q1959.44 363.896 1965.37 363.896 Q1968.37 363.896 1971.04 362.808 Q1973.72 361.72 1976.08 359.521 L1976.08 364.405 Q1973.63 366.072 1970.87 366.905 Q1968.14 367.738 1965.09 367.738 Q1957.24 367.738 1952.73 362.947 Q1948.21 358.132 1948.21 349.822 Q1948.21 341.489 1952.73 336.697 Q1957.24 331.882 1965.09 331.882 Q1968.19 331.882 1970.92 332.716 Q1973.68 333.526 1976.08 335.169 Z" fill="#000000" fill-rule="evenodd" fill-opacity="1" /><path clip-path="url(#clip900)" d="M1994.9 354.035 Q1989.74 354.035 1987.75 355.215 Q1985.76 356.396 1985.76 359.243 Q1985.76 361.512 1987.24 362.854 Q1988.75 364.174 1991.31 364.174 Q1994.86 364.174 1996.99 361.674 Q1999.14 359.151 1999.14 354.984 L1999.14 354.035 L1994.9 354.035 M2003.4 352.276 L2003.4 367.067 L1999.14 367.067 L1999.14 363.132 Q1997.68 365.493 1995.5 366.627 Q1993.33 367.738 1990.18 367.738 Q1986.2 367.738 1983.84 365.516 Q1981.5 363.271 1981.5 359.521 Q1981.5 355.146 1984.42 352.924 Q1987.36 350.702 1993.17 350.702 L1999.14 350.702 L1999.14 350.285 Q1999.14 347.345 1997.19 345.748 Q1995.27 344.127 1991.78 344.127 Q1989.56 344.127 1987.45 344.66 Q1985.34 345.192 1983.4 346.257 L1983.4 342.322 Q1985.74 341.419 1987.94 340.979 Q1990.13 340.516 1992.22 340.516 Q1997.84 340.516 2000.62 343.433 Q2003.4 346.35 2003.4 352.276 Z" fill="#000000" fill-rule="evenodd" fill-opacity="1" /><path clip-path="url(#clip900)" d="M2027.19 345.123 Q2026.48 344.706 2025.62 344.521 Q2024.79 344.313 2023.77 344.313 Q2020.16 344.313 2018.21 346.674 Q2016.29 349.012 2016.29 353.41 L2016.29 367.067 L2012.01 367.067 L2012.01 341.141 L2016.29 341.141 L2016.29 345.169 Q2017.63 342.808 2019.79 341.674 Q2021.94 340.516 2025.02 340.516 Q2025.46 340.516 2025.99 340.586 Q2026.52 340.632 2027.17 340.748 L2027.19 345.123 Z" fill="#000000" fill-rule="evenodd" fill-opacity="1" /><path clip-path="url(#clip900)" d="M2035.78 363.178 L2035.78 376.928 L2031.5 376.928 L2031.5 341.141 L2035.78 341.141 L2035.78 345.077 Q2037.12 342.762 2039.16 341.651 Q2041.22 340.516 2044.07 340.516 Q2048.79 340.516 2051.73 344.266 Q2054.69 348.016 2054.69 354.127 Q2054.69 360.239 2051.73 363.988 Q2048.79 367.738 2044.07 367.738 Q2041.22 367.738 2039.16 366.627 Q2037.12 365.493 2035.78 363.178 M2050.27 354.127 Q2050.27 349.428 2048.33 346.766 Q2046.41 344.081 2043.03 344.081 Q2039.65 344.081 2037.7 346.766 Q2035.78 349.428 2035.78 354.127 Q2035.78 358.826 2037.7 361.512 Q2039.65 364.174 2043.03 364.174 Q2046.41 364.174 2048.33 361.512 Q2050.27 358.826 2050.27 354.127 Z" fill="#000000" fill-rule="evenodd" fill-opacity="1" /><path clip-path="url(#clip900)" d="M2075.2 336.581 L2063.4 355.03 L2075.2 355.03 L2075.2 336.581 M2073.98 332.507 L2079.86 332.507 L2079.86 355.03 L2084.79 355.03 L2084.79 358.919 L2079.86 358.919 L2079.86 367.067 L2075.2 367.067 L2075.2 358.919 L2059.6 358.919 L2059.6 354.405 L2073.98 332.507 Z" fill="#000000" fill-rule="evenodd" fill-opacity="1" /><polyline clip-path="url(#clip900)" style="stroke:#00a9ad; stroke-linecap:butt; stroke-linejoin:round; stroke-width:4; stroke-opacity:1; fill:none" points="
  1706.25,401.627 1839.98,401.627 
  "/>
<path clip-path="url(#clip900)" d="M1773.11 376.027 L1753.1 385.678 L1748.15 407.336 L1762 424.693 L1784.22 424.693 L1798.07 407.336 L1793.13 385.678 Z" fill="#00a9ad" fill-rule="evenodd" fill-opacity="1" stroke="#000000" stroke-opacity="1" stroke-width="4.9152"/>
<path clip-path="url(#clip900)" d="M1862.26 384.347 L1866.94 384.347 L1866.94 398.954 L1882.45 384.347 L1888.47 384.347 L1871.32 400.458 L1889.69 418.907 L1883.54 418.907 L1866.94 402.264 L1866.94 418.907 L1862.26 418.907 L1862.26 384.347 Z" fill="#000000" fill-rule="evenodd" fill-opacity="1" /><path clip-path="url(#clip900)" d="M1912.98 404.879 L1912.98 406.963 L1893.4 406.963 Q1893.68 411.361 1896.04 413.676 Q1898.42 415.967 1902.66 415.967 Q1905.11 415.967 1907.4 415.366 Q1909.72 414.764 1911.99 413.56 L1911.99 417.588 Q1909.69 418.56 1907.29 419.069 Q1904.88 419.578 1902.4 419.578 Q1896.2 419.578 1892.57 415.967 Q1888.95 412.356 1888.95 406.199 Q1888.95 399.833 1892.38 396.106 Q1895.83 392.356 1901.66 392.356 Q1906.89 392.356 1909.93 395.736 Q1912.98 399.092 1912.98 404.879 M1908.72 403.629 Q1908.68 400.134 1906.75 398.051 Q1904.86 395.967 1901.71 395.967 Q1898.14 395.967 1895.99 397.981 Q1893.86 399.995 1893.54 403.653 L1908.72 403.629 Z" fill="#000000" fill-rule="evenodd" fill-opacity="1" /><path clip-path="url(#clip900)" d="M1941.52 403.259 L1941.52 418.907 L1937.26 418.907 L1937.26 403.398 Q1937.26 399.717 1935.83 397.889 Q1934.39 396.06 1931.52 396.06 Q1928.07 396.06 1926.08 398.259 Q1924.09 400.458 1924.09 404.254 L1924.09 418.907 L1919.81 418.907 L1919.81 392.981 L1924.09 392.981 L1924.09 397.009 Q1925.62 394.671 1927.68 393.514 Q1929.76 392.356 1932.47 392.356 Q1936.94 392.356 1939.23 395.134 Q1941.52 397.889 1941.52 403.259 Z" fill="#000000" fill-rule="evenodd" fill-opacity="1" /><path clip-path="url(#clip900)" d="M1976.08 387.009 L1976.08 391.94 Q1973.72 389.741 1971.04 388.653 Q1968.37 387.565 1965.37 387.565 Q1959.44 387.565 1956.29 391.199 Q1953.14 394.81 1953.14 401.662 Q1953.14 408.491 1956.29 412.125 Q1959.44 415.736 1965.37 415.736 Q1968.37 415.736 1971.04 414.648 Q1973.72 413.56 1976.08 411.361 L1976.08 416.245 Q1973.63 417.912 1970.87 418.745 Q1968.14 419.578 1965.09 419.578 Q1957.24 419.578 1952.73 414.787 Q1948.21 409.972 1948.21 401.662 Q1948.21 393.329 1952.73 388.537 Q1957.24 383.722 1965.09 383.722 Q1968.19 383.722 1970.92 384.556 Q1973.68 385.366 1976.08 387.009 Z" fill="#000000" fill-rule="evenodd" fill-opacity="1" /><path clip-path="url(#clip900)" d="M1994.9 405.875 Q1989.74 405.875 1987.75 407.055 Q1985.76 408.236 1985.76 411.083 Q1985.76 413.352 1987.24 414.694 Q1988.75 416.014 1991.31 416.014 Q1994.86 416.014 1996.99 413.514 Q1999.14 410.991 1999.14 406.824 L1999.14 405.875 L1994.9 405.875 M2003.4 404.116 L2003.4 418.907 L1999.14 418.907 L1999.14 414.972 Q1997.68 417.333 1995.5 418.467 Q1993.33 419.578 1990.18 419.578 Q1986.2 419.578 1983.84 417.356 Q1981.5 415.111 1981.5 411.361 Q1981.5 406.986 1984.42 404.764 Q1987.36 402.542 1993.17 402.542 L1999.14 402.542 L1999.14 402.125 Q1999.14 399.185 1997.19 397.588 Q1995.27 395.967 1991.78 395.967 Q1989.56 395.967 1987.45 396.5 Q1985.34 397.032 1983.4 398.097 L1983.4 394.162 Q1985.74 393.259 1987.94 392.819 Q1990.13 392.356 1992.22 392.356 Q1997.84 392.356 2000.62 395.273 Q2003.4 398.19 2003.4 404.116 Z" fill="#000000" fill-rule="evenodd" fill-opacity="1" /><path clip-path="url(#clip900)" d="M2027.19 396.963 Q2026.48 396.546 2025.62 396.361 Q2024.79 396.153 2023.77 396.153 Q2020.16 396.153 2018.21 398.514 Q2016.29 400.852 2016.29 405.25 L2016.29 418.907 L2012.01 418.907 L2012.01 392.981 L2016.29 392.981 L2016.29 397.009 Q2017.63 394.648 2019.79 393.514 Q2021.94 392.356 2025.02 392.356 Q2025.46 392.356 2025.99 392.426 Q2026.52 392.472 2027.17 392.588 L2027.19 396.963 Z" fill="#000000" fill-rule="evenodd" fill-opacity="1" /><path clip-path="url(#clip900)" d="M2035.78 415.018 L2035.78 428.768 L2031.5 428.768 L2031.5 392.981 L2035.78 392.981 L2035.78 396.917 Q2037.12 394.602 2039.16 393.491 Q2041.22 392.356 2044.07 392.356 Q2048.79 392.356 2051.73 396.106 Q2054.69 399.856 2054.69 405.967 Q2054.69 412.079 2051.73 415.828 Q2048.79 419.578 2044.07 419.578 Q2041.22 419.578 2039.16 418.467 Q2037.12 417.333 2035.78 415.018 M2050.27 405.967 Q2050.27 401.268 2048.33 398.606 Q2046.41 395.921 2043.03 395.921 Q2039.65 395.921 2037.7 398.606 Q2035.78 401.268 2035.78 405.967 Q2035.78 410.666 2037.7 413.352 Q2039.65 416.014 2043.03 416.014 Q2046.41 416.014 2048.33 413.352 Q2050.27 410.666 2050.27 405.967 Z" fill="#000000" fill-rule="evenodd" fill-opacity="1" /><path clip-path="url(#clip900)" d="M2062.4 384.347 L2080.76 384.347 L2080.76 388.282 L2066.68 388.282 L2066.68 396.755 Q2067.7 396.407 2068.72 396.245 Q2069.74 396.06 2070.76 396.06 Q2076.55 396.06 2079.93 399.231 Q2083.3 402.403 2083.3 407.819 Q2083.3 413.398 2079.83 416.5 Q2076.36 419.578 2070.04 419.578 Q2067.87 419.578 2065.6 419.208 Q2063.35 418.838 2060.94 418.097 L2060.94 413.398 Q2063.03 414.532 2065.25 415.088 Q2067.47 415.643 2069.95 415.643 Q2073.95 415.643 2076.29 413.537 Q2078.63 411.43 2078.63 407.819 Q2078.63 404.208 2076.29 402.102 Q2073.95 399.995 2069.95 399.995 Q2068.07 399.995 2066.2 400.412 Q2064.35 400.829 2062.4 401.708 L2062.4 384.347 Z" fill="#000000" fill-rule="evenodd" fill-opacity="1" /><polyline clip-path="url(#clip900)" style="stroke:#ed5d92; stroke-linecap:butt; stroke-linejoin:round; stroke-width:4; stroke-opacity:1; fill:none" points="
  1706.25,453.467 1839.98,453.467 
  "/>
<path clip-path="url(#clip900)" d="M1773.11 479.067 L1750.94 466.267 L1750.94 440.667 L1773.11 427.867 L1795.28 440.667 L1795.28 466.267 Z" fill="#ed5d92" fill-rule="evenodd" fill-opacity="1" stroke="#000000" stroke-opacity="1" stroke-width="4.9152"/>
<path clip-path="url(#clip900)" d="M1878.65 454.544 Q1880.16 455.053 1881.57 456.719 Q1883.01 458.386 1884.44 461.303 L1889.19 470.747 L1884.16 470.747 L1879.74 461.881 Q1878.03 458.409 1876.41 457.275 Q1874.81 456.141 1872.03 456.141 L1866.94 456.141 L1866.94 470.747 L1862.26 470.747 L1862.26 436.187 L1872.82 436.187 Q1878.75 436.187 1881.66 438.664 Q1884.58 441.141 1884.58 446.141 Q1884.58 449.405 1883.05 451.557 Q1881.55 453.71 1878.65 454.544 M1866.94 440.03 L1866.94 452.298 L1872.82 452.298 Q1876.2 452.298 1877.91 450.747 Q1879.65 449.173 1879.65 446.141 Q1879.65 443.108 1877.91 441.581 Q1876.2 440.03 1872.82 440.03 L1866.94 440.03 Z" fill="#000000" fill-rule="evenodd" fill-opacity="1" /><path clip-path="url(#clip900)" d="M1902.94 447.807 Q1899.51 447.807 1897.52 450.493 Q1895.53 453.155 1895.53 457.807 Q1895.53 462.46 1897.5 465.145 Q1899.49 467.807 1902.94 467.807 Q1906.34 467.807 1908.33 465.122 Q1910.32 462.437 1910.32 457.807 Q1910.32 453.201 1908.33 450.516 Q1906.34 447.807 1902.94 447.807 M1902.94 444.196 Q1908.49 444.196 1911.66 447.807 Q1914.83 451.419 1914.83 457.807 Q1914.83 464.173 1911.66 467.807 Q1908.49 471.418 1902.94 471.418 Q1897.36 471.418 1894.19 467.807 Q1891.04 464.173 1891.04 457.807 Q1891.04 451.419 1894.19 447.807 Q1897.36 444.196 1902.94 444.196 Z" fill="#000000" fill-rule="evenodd" fill-opacity="1" /><path clip-path="url(#clip900)" d="M1938.95 448.757 L1938.95 434.729 L1943.21 434.729 L1943.21 470.747 L1938.95 470.747 L1938.95 466.858 Q1937.61 469.173 1935.55 470.307 Q1933.51 471.418 1930.64 471.418 Q1925.94 471.418 1922.98 467.668 Q1920.04 463.919 1920.04 457.807 Q1920.04 451.696 1922.98 447.946 Q1925.94 444.196 1930.64 444.196 Q1933.51 444.196 1935.55 445.331 Q1937.61 446.442 1938.95 448.757 M1924.44 457.807 Q1924.44 462.506 1926.36 465.192 Q1928.31 467.854 1931.69 467.854 Q1935.06 467.854 1937.01 465.192 Q1938.95 462.506 1938.95 457.807 Q1938.95 453.108 1937.01 450.446 Q1935.06 447.761 1931.69 447.761 Q1928.31 447.761 1926.36 450.446 Q1924.44 453.108 1924.44 457.807 Z" fill="#000000" fill-rule="evenodd" fill-opacity="1" /><path clip-path="url(#clip900)" d="M1963.77 457.715 Q1958.61 457.715 1956.62 458.895 Q1954.63 460.076 1954.63 462.923 Q1954.63 465.192 1956.11 466.534 Q1957.61 467.854 1960.18 467.854 Q1963.72 467.854 1965.85 465.354 Q1968 462.831 1968 458.664 L1968 457.715 L1963.77 457.715 M1972.26 455.956 L1972.26 470.747 L1968 470.747 L1968 466.812 Q1966.55 469.173 1964.37 470.307 Q1962.19 471.418 1959.05 471.418 Q1955.06 471.418 1952.7 469.196 Q1950.37 466.951 1950.37 463.201 Q1950.37 458.826 1953.28 456.604 Q1956.22 454.382 1962.03 454.382 L1968 454.382 L1968 453.965 Q1968 451.025 1966.06 449.428 Q1964.14 447.807 1960.64 447.807 Q1958.42 447.807 1956.31 448.34 Q1954.21 448.872 1952.26 449.937 L1952.26 446.002 Q1954.6 445.099 1956.8 444.659 Q1959 444.196 1961.08 444.196 Q1966.71 444.196 1969.49 447.113 Q1972.26 450.03 1972.26 455.956 Z" fill="#000000" fill-rule="evenodd" fill-opacity="1" /><path clip-path="url(#clip900)" d="M1997.56 445.585 L1997.56 449.613 Q1995.76 448.687 1993.81 448.224 Q1991.87 447.761 1989.79 447.761 Q1986.62 447.761 1985.02 448.733 Q1983.44 449.706 1983.44 451.65 Q1983.44 453.132 1984.58 453.988 Q1985.71 454.821 1989.14 455.585 L1990.6 455.909 Q1995.13 456.882 1997.03 458.664 Q1998.95 460.423 1998.95 463.594 Q1998.95 467.206 1996.08 469.312 Q1993.24 471.418 1988.24 471.418 Q1986.15 471.418 1983.88 471.002 Q1981.64 470.608 1979.14 469.798 L1979.14 465.4 Q1981.5 466.627 1983.79 467.252 Q1986.08 467.854 1988.33 467.854 Q1991.34 467.854 1992.96 466.835 Q1994.58 465.794 1994.58 463.919 Q1994.58 462.182 1993.4 461.256 Q1992.24 460.331 1988.28 459.474 L1986.8 459.127 Q1982.84 458.294 1981.08 456.581 Q1979.32 454.844 1979.32 451.835 Q1979.32 448.178 1981.92 446.187 Q1984.51 444.196 1989.28 444.196 Q1991.64 444.196 1993.72 444.544 Q1995.81 444.891 1997.56 445.585 Z" fill="#000000" fill-rule="evenodd" fill-opacity="1" /><path clip-path="url(#clip900)" d="M2019.18 440.261 L2007.38 458.71 L2019.18 458.71 L2019.18 440.261 M2017.96 436.187 L2023.84 436.187 L2023.84 458.71 L2028.77 458.71 L2028.77 462.599 L2023.84 462.599 L2023.84 470.747 L2019.18 470.747 L2019.18 462.599 L2003.58 462.599 L2003.58 458.085 L2017.96 436.187 Z" fill="#000000" fill-rule="evenodd" fill-opacity="1" /><polyline clip-path="url(#clip900)" style="stroke:#c68125; stroke-linecap:butt; stroke-linejoin:round; stroke-width:4; stroke-opacity:1; fill:none" points="
  1706.25,505.307 1839.98,505.307 
  "/>
<line clip-path="url(#clip900)" x1="1798.71" y1="505.307" x2="1747.51" y2="505.307" style="stroke:#c68125; stroke-width:4.9152; stroke-opacity:1"/>
<path clip-path="url(#clip900)" d="M1877.45 500.643 Q1876.73 500.226 1875.88 500.041 Q1875.04 499.833 1874.02 499.833 Q1870.41 499.833 1868.47 502.194 Q1866.55 504.532 1866.55 508.93 L1866.55 522.587 L1862.26 522.587 L1862.26 496.661 L1866.55 496.661 L1866.55 500.689 Q1867.89 498.328 1870.04 497.194 Q1872.19 496.036 1875.27 496.036 Q1875.71 496.036 1876.25 496.106 Q1876.78 496.152 1877.43 496.268 L1877.45 500.643 Z" fill="#000000" fill-rule="evenodd" fill-opacity="1" /><path clip-path="url(#clip900)" d="M1893.7 509.555 Q1888.54 509.555 1886.55 510.735 Q1884.56 511.916 1884.56 514.763 Q1884.56 517.032 1886.04 518.374 Q1887.54 519.694 1890.11 519.694 Q1893.65 519.694 1895.78 517.194 Q1897.94 514.671 1897.94 510.504 L1897.94 509.555 L1893.7 509.555 M1902.19 507.796 L1902.19 522.587 L1897.94 522.587 L1897.94 518.652 Q1896.48 521.013 1894.3 522.147 Q1892.13 523.258 1888.98 523.258 Q1885 523.258 1882.63 521.036 Q1880.3 518.791 1880.3 515.041 Q1880.3 510.666 1883.21 508.444 Q1886.15 506.222 1891.96 506.222 L1897.94 506.222 L1897.94 505.805 Q1897.94 502.865 1895.99 501.268 Q1894.07 499.647 1890.57 499.647 Q1888.35 499.647 1886.25 500.18 Q1884.14 500.712 1882.19 501.777 L1882.19 497.842 Q1884.53 496.939 1886.73 496.499 Q1888.93 496.036 1891.01 496.036 Q1896.64 496.036 1899.42 498.953 Q1902.19 501.87 1902.19 507.796 Z" fill="#000000" fill-rule="evenodd" fill-opacity="1" /><path clip-path="url(#clip900)" d="M1928.03 500.597 L1928.03 486.569 L1932.29 486.569 L1932.29 522.587 L1928.03 522.587 L1928.03 518.698 Q1926.69 521.013 1924.63 522.147 Q1922.59 523.258 1919.72 523.258 Q1915.02 523.258 1912.06 519.508 Q1909.12 515.759 1909.12 509.647 Q1909.12 503.536 1912.06 499.786 Q1915.02 496.036 1919.72 496.036 Q1922.59 496.036 1924.63 497.171 Q1926.69 498.282 1928.03 500.597 M1913.51 509.647 Q1913.51 514.346 1915.44 517.032 Q1917.38 519.694 1920.76 519.694 Q1924.14 519.694 1926.08 517.032 Q1928.03 514.346 1928.03 509.647 Q1928.03 504.948 1926.08 502.286 Q1924.14 499.601 1920.76 499.601 Q1917.38 499.601 1915.44 502.286 Q1913.51 504.948 1913.51 509.647 Z" fill="#000000" fill-rule="evenodd" fill-opacity="1" /><path clip-path="url(#clip900)" d="M1952.84 509.555 Q1947.68 509.555 1945.69 510.735 Q1943.7 511.916 1943.7 514.763 Q1943.7 517.032 1945.18 518.374 Q1946.69 519.694 1949.25 519.694 Q1952.8 519.694 1954.93 517.194 Q1957.08 514.671 1957.08 510.504 L1957.08 509.555 L1952.84 509.555 M1961.34 507.796 L1961.34 522.587 L1957.08 522.587 L1957.08 518.652 Q1955.62 521.013 1953.44 522.147 Q1951.27 523.258 1948.12 523.258 Q1944.14 523.258 1941.78 521.036 Q1939.44 518.791 1939.44 515.041 Q1939.44 510.666 1942.36 508.444 Q1945.3 506.222 1951.11 506.222 L1957.08 506.222 L1957.08 505.805 Q1957.08 502.865 1955.13 501.268 Q1953.21 499.647 1949.72 499.647 Q1947.5 499.647 1945.39 500.18 Q1943.28 500.712 1941.34 501.777 L1941.34 497.842 Q1943.68 496.939 1945.88 496.499 Q1948.07 496.036 1950.16 496.036 Q1955.78 496.036 1958.56 498.953 Q1961.34 501.87 1961.34 507.796 Z" fill="#000000" fill-rule="evenodd" fill-opacity="1" /><path clip-path="url(#clip900)" d="M1969.67 512.356 L1969.67 496.661 L1973.93 496.661 L1973.93 512.194 Q1973.93 515.874 1975.37 517.726 Q1976.8 519.555 1979.67 519.555 Q1983.12 519.555 1985.11 517.356 Q1987.12 515.157 1987.12 511.36 L1987.12 496.661 L1991.38 496.661 L1991.38 522.587 L1987.12 522.587 L1987.12 518.606 Q1985.57 520.967 1983.51 522.124 Q1981.48 523.258 1978.77 523.258 Q1974.3 523.258 1971.99 520.481 Q1969.67 517.703 1969.67 512.356 M1980.39 496.036 L1980.39 496.036 Z" fill="#000000" fill-rule="evenodd" fill-opacity="1" /><polyline clip-path="url(#clip900)" style="stroke:#00a98d; stroke-linecap:butt; stroke-linejoin:round; stroke-width:4; stroke-opacity:1; fill:none" points="
  1706.25,557.147 1839.98,557.147 
  "/>
<path clip-path="url(#clip900)" d="M1752.63 557.147 L1783.35 575.067 L1783.35 539.227 L1752.63 557.147 Z" fill="#00a98d" fill-rule="evenodd" fill-opacity="1" stroke="#000000" stroke-opacity="1" stroke-width="4.9152"/>
<path clip-path="url(#clip900)" d="M1878.65 558.224 Q1880.16 558.733 1881.57 560.399 Q1883.01 562.066 1884.44 564.983 L1889.19 574.427 L1884.16 574.427 L1879.74 565.561 Q1878.03 562.089 1876.41 560.955 Q1874.81 559.821 1872.03 559.821 L1866.94 559.821 L1866.94 574.427 L1862.26 574.427 L1862.26 539.867 L1872.82 539.867 Q1878.75 539.867 1881.66 542.344 Q1884.58 544.821 1884.58 549.821 Q1884.58 553.085 1883.05 555.237 Q1881.55 557.39 1878.65 558.224 M1866.94 543.71 L1866.94 555.978 L1872.82 555.978 Q1876.2 555.978 1877.91 554.427 Q1879.65 552.853 1879.65 549.821 Q1879.65 546.788 1877.91 545.261 Q1876.2 543.71 1872.82 543.71 L1866.94 543.71 Z" fill="#000000" fill-rule="evenodd" fill-opacity="1" /><path clip-path="url(#clip900)" d="M1902.94 551.487 Q1899.51 551.487 1897.52 554.173 Q1895.53 556.835 1895.53 561.487 Q1895.53 566.14 1897.5 568.825 Q1899.49 571.487 1902.94 571.487 Q1906.34 571.487 1908.33 568.802 Q1910.32 566.117 1910.32 561.487 Q1910.32 556.881 1908.33 554.196 Q1906.34 551.487 1902.94 551.487 M1902.94 547.876 Q1908.49 547.876 1911.66 551.487 Q1914.83 555.099 1914.83 561.487 Q1914.83 567.853 1911.66 571.487 Q1908.49 575.098 1902.94 575.098 Q1897.36 575.098 1894.19 571.487 Q1891.04 567.853 1891.04 561.487 Q1891.04 555.099 1894.19 551.487 Q1897.36 547.876 1902.94 547.876 Z" fill="#000000" fill-rule="evenodd" fill-opacity="1" /><path clip-path="url(#clip900)" d="M1938.95 552.437 L1938.95 538.409 L1943.21 538.409 L1943.21 574.427 L1938.95 574.427 L1938.95 570.538 Q1937.61 572.853 1935.55 573.987 Q1933.51 575.098 1930.64 575.098 Q1925.94 575.098 1922.98 571.348 Q1920.04 567.599 1920.04 561.487 Q1920.04 555.376 1922.98 551.626 Q1925.94 547.876 1930.64 547.876 Q1933.51 547.876 1935.55 549.011 Q1937.61 550.122 1938.95 552.437 M1924.44 561.487 Q1924.44 566.186 1926.36 568.872 Q1928.31 571.534 1931.69 571.534 Q1935.06 571.534 1937.01 568.872 Q1938.95 566.186 1938.95 561.487 Q1938.95 556.788 1937.01 554.126 Q1935.06 551.441 1931.69 551.441 Q1928.31 551.441 1926.36 554.126 Q1924.44 556.788 1924.44 561.487 Z" fill="#000000" fill-rule="evenodd" fill-opacity="1" /><path clip-path="url(#clip900)" d="M1963.77 561.395 Q1958.61 561.395 1956.62 562.575 Q1954.63 563.756 1954.63 566.603 Q1954.63 568.872 1956.11 570.214 Q1957.61 571.534 1960.18 571.534 Q1963.72 571.534 1965.85 569.034 Q1968 566.511 1968 562.344 L1968 561.395 L1963.77 561.395 M1972.26 559.636 L1972.26 574.427 L1968 574.427 L1968 570.492 Q1966.55 572.853 1964.37 573.987 Q1962.19 575.098 1959.05 575.098 Q1955.06 575.098 1952.7 572.876 Q1950.37 570.631 1950.37 566.881 Q1950.37 562.506 1953.28 560.284 Q1956.22 558.062 1962.03 558.062 L1968 558.062 L1968 557.645 Q1968 554.705 1966.06 553.108 Q1964.14 551.487 1960.64 551.487 Q1958.42 551.487 1956.31 552.02 Q1954.21 552.552 1952.26 553.617 L1952.26 549.682 Q1954.6 548.779 1956.8 548.339 Q1959 547.876 1961.08 547.876 Q1966.71 547.876 1969.49 550.793 Q1972.26 553.71 1972.26 559.636 Z" fill="#000000" fill-rule="evenodd" fill-opacity="1" /><path clip-path="url(#clip900)" d="M1997.56 549.265 L1997.56 553.293 Q1995.76 552.367 1993.81 551.904 Q1991.87 551.441 1989.79 551.441 Q1986.62 551.441 1985.02 552.413 Q1983.44 553.386 1983.44 555.33 Q1983.44 556.812 1984.58 557.668 Q1985.71 558.501 1989.14 559.265 L1990.6 559.589 Q1995.13 560.562 1997.03 562.344 Q1998.95 564.103 1998.95 567.274 Q1998.95 570.886 1996.08 572.992 Q1993.24 575.098 1988.24 575.098 Q1986.15 575.098 1983.88 574.682 Q1981.64 574.288 1979.14 573.478 L1979.14 569.08 Q1981.5 570.307 1983.79 570.932 Q1986.08 571.534 1988.33 571.534 Q1991.34 571.534 1992.96 570.515 Q1994.58 569.474 1994.58 567.599 Q1994.58 565.862 1993.4 564.936 Q1992.24 564.011 1988.28 563.154 L1986.8 562.807 Q1982.84 561.974 1981.08 560.261 Q1979.32 558.524 1979.32 555.515 Q1979.32 551.858 1981.92 549.867 Q1984.51 547.876 1989.28 547.876 Q1991.64 547.876 1993.72 548.224 Q1995.81 548.571 1997.56 549.265 Z" fill="#000000" fill-rule="evenodd" fill-opacity="1" /><path clip-path="url(#clip900)" d="M2006.38 539.867 L2024.74 539.867 L2024.74 543.802 L2010.67 543.802 L2010.67 552.275 Q2011.68 551.927 2012.7 551.765 Q2013.72 551.58 2014.74 551.58 Q2020.53 551.58 2023.91 554.751 Q2027.29 557.923 2027.29 563.339 Q2027.29 568.918 2023.81 572.02 Q2020.34 575.098 2014.02 575.098 Q2011.85 575.098 2009.58 574.728 Q2007.33 574.358 2004.93 573.617 L2004.93 568.918 Q2007.01 570.052 2009.23 570.608 Q2011.45 571.163 2013.93 571.163 Q2017.93 571.163 2020.27 569.057 Q2022.61 566.95 2022.61 563.339 Q2022.61 559.728 2020.27 557.622 Q2017.93 555.515 2013.93 555.515 Q2012.06 555.515 2010.18 555.932 Q2008.33 556.349 2006.38 557.228 L2006.38 539.867 Z" fill="#000000" fill-rule="evenodd" fill-opacity="1" /></svg>
