<?xml version="1.0" encoding="utf-8"?>
<svg xmlns="http://www.w3.org/2000/svg" xmlns:xlink="http://www.w3.org/1999/xlink" width="576" height="384" viewBox="0 0 2304 1536">
<defs>
  <clipPath id="clip580">
    <rect x="0" y="0" width="2304" height="1536"/>
  </clipPath>
</defs>
<path clip-path="url(#clip580)" d="
M0 1536 L2304 1536 L2304 0 L0 0  Z
  " fill="#ffffff" fill-rule="evenodd" fill-opacity="1"/>
<defs>
  <clipPath id="clip581">
    <rect x="460" y="0" width="1614" height="1536"/>
  </clipPath>
</defs>
<path clip-path="url(#clip580)" d="
M250.882 1347.54 L2256.76 1347.54 L2256.76 47.2441 L250.882 47.2441  Z
  " fill="#ffffff" fill-rule="evenodd" fill-opacity="1"/>
<defs>
  <clipPath id="clip582">
    <rect x="250" y="47" width="2007" height="1301"/>
  </clipPath>
</defs>
<polyline clip-path="url(#clip582)" style="stroke:#000000; stroke-linecap:butt; stroke-linejoin:round; stroke-width:2; stroke-opacity:0.1; fill:none" points="
  520.121,1347.54 520.121,47.2441 
  "/>
<polyline clip-path="url(#clip582)" style="stroke:#000000; stroke-linecap:butt; stroke-linejoin:round; stroke-width:2; stroke-opacity:0.1; fill:none" points="
  877.174,1347.54 877.174,47.2441 
  "/>
<polyline clip-path="url(#clip582)" style="stroke:#000000; stroke-linecap:butt; stroke-linejoin:round; stroke-width:2; stroke-opacity:0.1; fill:none" points="
  1234.23,1347.54 1234.23,47.2441 
  "/>
<polyline clip-path="url(#clip582)" style="stroke:#000000; stroke-linecap:butt; stroke-linejoin:round; stroke-width:2; stroke-opacity:0.1; fill:none" points="
  1591.28,1347.54 1591.28,47.2441 
  "/>
<polyline clip-path="url(#clip582)" style="stroke:#000000; stroke-linecap:butt; stroke-linejoin:round; stroke-width:2; stroke-opacity:0.1; fill:none" points="
  1948.33,1347.54 1948.33,47.2441 
  "/>
<polyline clip-path="url(#clip580)" style="stroke:#000000; stroke-linecap:butt; stroke-linejoin:round; stroke-width:4; stroke-opacity:1; fill:none" points="
  250.882,1347.54 2256.76,1347.54 
  "/>
<polyline clip-path="url(#clip580)" style="stroke:#000000; stroke-linecap:butt; stroke-linejoin:round; stroke-width:4; stroke-opacity:1; fill:none" points="
  520.121,1347.54 520.121,1328.64 
  "/>
<polyline clip-path="url(#clip580)" style="stroke:#000000; stroke-linecap:butt; stroke-linejoin:round; stroke-width:4; stroke-opacity:1; fill:none" points="
  877.174,1347.54 877.174,1328.64 
  "/>
<polyline clip-path="url(#clip580)" style="stroke:#000000; stroke-linecap:butt; stroke-linejoin:round; stroke-width:4; stroke-opacity:1; fill:none" points="
  1234.23,1347.54 1234.23,1328.64 
  "/>
<polyline clip-path="url(#clip580)" style="stroke:#000000; stroke-linecap:butt; stroke-linejoin:round; stroke-width:4; stroke-opacity:1; fill:none" points="
  1591.28,1347.54 1591.28,1328.64 
  "/>
<polyline clip-path="url(#clip580)" style="stroke:#000000; stroke-linecap:butt; stroke-linejoin:round; stroke-width:4; stroke-opacity:1; fill:none" points="
  1948.33,1347.54 1948.33,1328.64 
  "/>
<path clip-path="url(#clip580)" d="M469.54 1420.89 L477.179 1420.89 L477.179 1394.53 L468.869 1396.19 L468.869 1391.94 L477.133 1390.27 L481.809 1390.27 L481.809 1420.89 L489.448 1420.89 L489.448 1424.83 L469.54 1424.83 L469.54 1420.89 Z" fill="#000000" fill-rule="evenodd" fill-opacity="1" /><path clip-path="url(#clip580)" d="M508.892 1393.35 Q505.281 1393.35 503.452 1396.91 Q501.647 1400.45 501.647 1407.58 Q501.647 1414.69 503.452 1418.25 Q505.281 1421.8 508.892 1421.8 Q512.526 1421.8 514.332 1418.25 Q516.16 1414.69 516.16 1407.58 Q516.16 1400.45 514.332 1396.91 Q512.526 1393.35 508.892 1393.35 M508.892 1389.64 Q514.702 1389.64 517.758 1394.25 Q520.836 1398.83 520.836 1407.58 Q520.836 1416.31 517.758 1420.92 Q514.702 1425.5 508.892 1425.5 Q503.082 1425.5 500.003 1420.92 Q496.948 1416.31 496.948 1407.58 Q496.948 1398.83 500.003 1394.25 Q503.082 1389.64 508.892 1389.64 Z" fill="#000000" fill-rule="evenodd" fill-opacity="1" /><path clip-path="url(#clip580)" d="M520.836 1383.74 L544.948 1383.74 L544.948 1386.94 L520.836 1386.94 L520.836 1383.74 Z" fill="#000000" fill-rule="evenodd" fill-opacity="1" /><path clip-path="url(#clip580)" d="M563.586 1372.65 L553.994 1387.64 L563.586 1387.64 L563.586 1372.65 M562.59 1369.34 L567.367 1369.34 L567.367 1387.64 L571.373 1387.64 L571.373 1390.8 L567.367 1390.8 L567.367 1397.42 L563.586 1397.42 L563.586 1390.8 L550.91 1390.8 L550.91 1387.13 L562.59 1369.34 Z" fill="#000000" fill-rule="evenodd" fill-opacity="1" /><path clip-path="url(#clip580)" d="M827.054 1420.89 L834.693 1420.89 L834.693 1394.53 L826.383 1396.19 L826.383 1391.94 L834.647 1390.27 L839.323 1390.27 L839.323 1420.89 L846.961 1420.89 L846.961 1424.83 L827.054 1424.83 L827.054 1420.89 Z" fill="#000000" fill-rule="evenodd" fill-opacity="1" /><path clip-path="url(#clip580)" d="M866.406 1393.35 Q862.795 1393.35 860.966 1396.91 Q859.16 1400.45 859.16 1407.58 Q859.16 1414.69 860.966 1418.25 Q862.795 1421.8 866.406 1421.8 Q870.04 1421.8 871.845 1418.25 Q873.674 1414.69 873.674 1407.58 Q873.674 1400.45 871.845 1396.91 Q870.04 1393.35 866.406 1393.35 M866.406 1389.64 Q872.216 1389.64 875.271 1394.25 Q878.35 1398.83 878.35 1407.58 Q878.35 1416.31 875.271 1420.92 Q872.216 1425.5 866.406 1425.5 Q860.596 1425.5 857.517 1420.92 Q854.461 1416.31 854.461 1407.58 Q854.461 1398.83 857.517 1394.25 Q860.596 1389.64 866.406 1389.64 Z" fill="#000000" fill-rule="evenodd" fill-opacity="1" /><path clip-path="url(#clip580)" d="M878.35 1383.74 L902.462 1383.74 L902.462 1386.94 L878.35 1386.94 L878.35 1383.74 Z" fill="#000000" fill-rule="evenodd" fill-opacity="1" /><path clip-path="url(#clip580)" d="M922.172 1382.28 Q924.899 1382.86 926.423 1384.7 Q927.965 1386.55 927.965 1389.26 Q927.965 1393.41 925.106 1395.69 Q922.247 1397.96 916.981 1397.96 Q915.213 1397.96 913.333 1397.61 Q911.471 1397.27 909.477 1396.57 L909.477 1392.9 Q911.057 1393.83 912.938 1394.3 Q914.818 1394.77 916.868 1394.77 Q920.442 1394.77 922.304 1393.36 Q924.185 1391.95 924.185 1389.26 Q924.185 1386.77 922.435 1385.38 Q920.705 1383.97 917.602 1383.97 L914.329 1383.97 L914.329 1380.85 L917.752 1380.85 Q920.555 1380.85 922.041 1379.74 Q923.526 1378.61 923.526 1376.5 Q923.526 1374.34 921.984 1373.19 Q920.461 1372.03 917.602 1372.03 Q916.041 1372.03 914.254 1372.37 Q912.467 1372.7 910.323 1373.42 L910.323 1370.03 Q912.486 1369.43 914.367 1369.13 Q916.267 1368.83 917.94 1368.83 Q922.266 1368.83 924.786 1370.81 Q927.307 1372.76 927.307 1376.11 Q927.307 1378.44 925.971 1380.06 Q924.636 1381.66 922.172 1382.28 Z" fill="#000000" fill-rule="evenodd" fill-opacity="1" /><path clip-path="url(#clip580)" d="M1184.49 1420.89 L1192.13 1420.89 L1192.13 1394.53 L1183.82 1396.19 L1183.82 1391.94 L1192.09 1390.27 L1196.76 1390.27 L1196.76 1420.89 L1204.4 1420.89 L1204.4 1424.83 L1184.49 1424.83 L1184.49 1420.89 Z" fill="#000000" fill-rule="evenodd" fill-opacity="1" /><path clip-path="url(#clip580)" d="M1223.84 1393.35 Q1220.23 1393.35 1218.4 1396.91 Q1216.6 1400.45 1216.6 1407.58 Q1216.6 1414.69 1218.4 1418.25 Q1220.23 1421.8 1223.84 1421.8 Q1227.48 1421.8 1229.28 1418.25 Q1231.11 1414.69 1231.11 1407.58 Q1231.11 1400.45 1229.28 1396.91 Q1227.48 1393.35 1223.84 1393.35 M1223.84 1389.64 Q1229.65 1389.64 1232.71 1394.25 Q1235.79 1398.83 1235.79 1407.58 Q1235.79 1416.31 1232.71 1420.92 Q1229.65 1425.5 1223.84 1425.5 Q1218.03 1425.5 1214.96 1420.92 Q1211.9 1416.31 1211.9 1407.58 Q1211.9 1398.83 1214.96 1394.25 Q1218.03 1389.64 1223.84 1389.64 Z" fill="#000000" fill-rule="evenodd" fill-opacity="1" /><path clip-path="url(#clip580)" d="M1235.79 1383.74 L1259.9 1383.74 L1259.9 1386.94 L1235.79 1386.94 L1235.79 1383.74 Z" fill="#000000" fill-rule="evenodd" fill-opacity="1" /><path clip-path="url(#clip580)" d="M1271.37 1394.22 L1284.63 1394.22 L1284.63 1397.42 L1266.8 1397.42 L1266.8 1394.22 Q1268.97 1391.98 1272.69 1388.22 Q1276.43 1384.44 1277.39 1383.35 Q1279.22 1381.3 1279.93 1379.89 Q1280.66 1378.46 1280.66 1377.09 Q1280.66 1374.85 1279.08 1373.44 Q1277.52 1372.03 1275 1372.03 Q1273.22 1372.03 1271.22 1372.65 Q1269.25 1373.27 1266.99 1374.53 L1266.99 1370.69 Q1269.29 1369.77 1271.28 1369.3 Q1273.27 1368.83 1274.93 1368.83 Q1279.29 1368.83 1281.89 1371.01 Q1284.48 1373.19 1284.48 1376.84 Q1284.48 1378.57 1283.82 1380.13 Q1283.18 1381.68 1281.47 1383.78 Q1281 1384.33 1278.48 1386.94 Q1275.96 1389.54 1271.37 1394.22 Z" fill="#000000" fill-rule="evenodd" fill-opacity="1" /><path clip-path="url(#clip580)" d="M1541.4 1420.89 L1549.03 1420.89 L1549.03 1394.53 L1540.72 1396.19 L1540.72 1391.94 L1548.99 1390.27 L1553.66 1390.27 L1553.66 1420.89 L1561.3 1420.89 L1561.3 1424.83 L1541.4 1424.83 L1541.4 1420.89 Z" fill="#000000" fill-rule="evenodd" fill-opacity="1" /><path clip-path="url(#clip580)" d="M1580.75 1393.35 Q1577.14 1393.35 1575.31 1396.91 Q1573.5 1400.45 1573.5 1407.58 Q1573.5 1414.69 1575.31 1418.25 Q1577.14 1421.8 1580.75 1421.8 Q1584.38 1421.8 1586.19 1418.25 Q1588.02 1414.69 1588.02 1407.58 Q1588.02 1400.45 1586.19 1396.91 Q1584.38 1393.35 1580.75 1393.35 M1580.75 1389.64 Q1586.56 1389.64 1589.61 1394.25 Q1592.69 1398.83 1592.69 1407.58 Q1592.69 1416.31 1589.61 1420.92 Q1586.56 1425.5 1580.75 1425.5 Q1574.94 1425.5 1571.86 1420.92 Q1568.8 1416.31 1568.8 1407.58 Q1568.8 1398.83 1571.86 1394.25 Q1574.94 1389.64 1580.75 1389.64 Z" fill="#000000" fill-rule="evenodd" fill-opacity="1" /><path clip-path="url(#clip580)" d="M1592.69 1383.74 L1616.8 1383.74 L1616.8 1386.94 L1592.69 1386.94 L1592.69 1383.74 Z" fill="#000000" fill-rule="evenodd" fill-opacity="1" /><path clip-path="url(#clip580)" d="M1625.66 1394.22 L1631.87 1394.22 L1631.87 1372.8 L1625.12 1374.15 L1625.12 1370.69 L1631.83 1369.34 L1635.63 1369.34 L1635.63 1394.22 L1641.84 1394.22 L1641.84 1397.42 L1625.66 1397.42 L1625.66 1394.22 Z" fill="#000000" fill-rule="evenodd" fill-opacity="1" /><path clip-path="url(#clip580)" d="M1913.32 1420.89 L1920.95 1420.89 L1920.95 1394.53 L1912.64 1396.19 L1912.64 1391.94 L1920.91 1390.27 L1925.58 1390.27 L1925.58 1420.89 L1933.22 1420.89 L1933.22 1424.83 L1913.32 1424.83 L1913.32 1420.89 Z" fill="#000000" fill-rule="evenodd" fill-opacity="1" /><path clip-path="url(#clip580)" d="M1952.67 1393.35 Q1949.06 1393.35 1947.23 1396.91 Q1945.42 1400.45 1945.42 1407.58 Q1945.42 1414.69 1947.23 1418.25 Q1949.06 1421.8 1952.67 1421.8 Q1956.3 1421.8 1958.11 1418.25 Q1959.94 1414.69 1959.94 1407.58 Q1959.94 1400.45 1958.11 1396.91 Q1956.3 1393.35 1952.67 1393.35 M1952.67 1389.64 Q1958.48 1389.64 1961.53 1394.25 Q1964.61 1398.83 1964.61 1407.58 Q1964.61 1416.31 1961.53 1420.92 Q1958.48 1425.5 1952.67 1425.5 Q1946.86 1425.5 1943.78 1420.92 Q1940.72 1416.31 1940.72 1407.58 Q1940.72 1398.83 1943.78 1394.25 Q1946.86 1389.64 1952.67 1389.64 Z" fill="#000000" fill-rule="evenodd" fill-opacity="1" /><path clip-path="url(#clip580)" d="M1974.32 1371.84 Q1971.38 1371.84 1969.9 1374.74 Q1968.43 1377.61 1968.43 1383.41 Q1968.43 1389.18 1969.9 1392.08 Q1971.38 1394.95 1974.32 1394.95 Q1977.27 1394.95 1978.74 1392.08 Q1980.22 1389.18 1980.22 1383.41 Q1980.22 1377.61 1978.74 1374.74 Q1977.27 1371.84 1974.32 1371.84 M1974.32 1368.83 Q1979.04 1368.83 1981.52 1372.57 Q1984.02 1376.3 1984.02 1383.41 Q1984.02 1390.5 1981.52 1394.24 Q1979.04 1397.96 1974.32 1397.96 Q1969.6 1397.96 1967.09 1394.24 Q1964.61 1390.5 1964.61 1383.41 Q1964.61 1376.3 1967.09 1372.57 Q1969.6 1368.83 1974.32 1368.83 Z" fill="#000000" fill-rule="evenodd" fill-opacity="1" /><path clip-path="url(#clip580)" d="M1177.57 1461.87 L1207.62 1461.87 L1207.62 1467.28 L1184 1467.28 L1184 1481.34 L1206.63 1481.34 L1206.63 1486.76 L1184 1486.76 L1184 1503.97 L1208.19 1503.97 L1208.19 1509.39 L1177.57 1509.39 L1177.57 1461.87 Z" fill="#000000" fill-rule="evenodd" fill-opacity="1" /><path clip-path="url(#clip580)" d="M1239.16 1479.21 Q1238.18 1478.64 1237 1478.38 Q1235.85 1478.1 1234.45 1478.1 Q1229.49 1478.1 1226.81 1481.34 Q1224.17 1484.56 1224.17 1490.61 L1224.17 1509.39 L1218.28 1509.39 L1218.28 1473.74 L1224.17 1473.74 L1224.17 1479.28 Q1226.02 1476.03 1228.98 1474.47 Q1231.94 1472.88 1236.17 1472.88 Q1236.77 1472.88 1237.51 1472.97 Q1238.24 1473.04 1239.13 1473.2 L1239.16 1479.21 Z" fill="#000000" fill-rule="evenodd" fill-opacity="1" /><path clip-path="url(#clip580)" d="M1264.82 1479.21 Q1263.83 1478.64 1262.65 1478.38 Q1261.51 1478.1 1260.11 1478.1 Q1255.14 1478.1 1252.47 1481.34 Q1249.82 1484.56 1249.82 1490.61 L1249.82 1509.39 L1243.94 1509.39 L1243.94 1473.74 L1249.82 1473.74 L1249.82 1479.28 Q1251.67 1476.03 1254.63 1474.47 Q1257.59 1472.88 1261.82 1472.88 Q1262.43 1472.88 1263.16 1472.97 Q1263.89 1473.04 1264.78 1473.2 L1264.82 1479.21 Z" fill="#000000" fill-rule="evenodd" fill-opacity="1" /><path clip-path="url(#clip580)" d="M1283.34 1477.84 Q1278.63 1477.84 1275.89 1481.54 Q1273.15 1485.2 1273.15 1491.59 Q1273.15 1497.99 1275.86 1501.68 Q1278.6 1505.34 1283.34 1505.34 Q1288.02 1505.34 1290.76 1501.65 Q1293.49 1497.96 1293.49 1491.59 Q1293.49 1485.26 1290.76 1481.57 Q1288.02 1477.84 1283.34 1477.84 M1283.34 1472.88 Q1290.98 1472.88 1295.34 1477.84 Q1299.7 1482.81 1299.7 1491.59 Q1299.7 1500.35 1295.34 1505.34 Q1290.98 1510.31 1283.34 1510.31 Q1275.67 1510.31 1271.31 1505.34 Q1266.98 1500.35 1266.98 1491.59 Q1266.98 1482.81 1271.31 1477.84 Q1275.67 1472.88 1283.34 1472.88 Z" fill="#000000" fill-rule="evenodd" fill-opacity="1" /><path clip-path="url(#clip580)" d="M1330.06 1479.21 Q1329.08 1478.64 1327.9 1478.38 Q1326.75 1478.1 1325.35 1478.1 Q1320.39 1478.1 1317.71 1481.34 Q1315.07 1484.56 1315.07 1490.61 L1315.07 1509.39 L1309.18 1509.39 L1309.18 1473.74 L1315.07 1473.74 L1315.07 1479.28 Q1316.92 1476.03 1319.88 1474.47 Q1322.84 1472.88 1327.07 1472.88 Q1327.68 1472.88 1328.41 1472.97 Q1329.14 1473.04 1330.03 1473.2 L1330.06 1479.21 Z" fill="#000000" fill-rule="evenodd" fill-opacity="1" /><polyline clip-path="url(#clip582)" style="stroke:#000000; stroke-linecap:butt; stroke-linejoin:round; stroke-width:2; stroke-opacity:0.1; fill:none" points="
  250.882,907 2256.76,907 
  "/>
<polyline clip-path="url(#clip582)" style="stroke:#000000; stroke-linecap:butt; stroke-linejoin:round; stroke-width:2; stroke-opacity:0.1; fill:none" points="
  250.882,138.285 2256.76,138.285 
  "/>
<polyline clip-path="url(#clip580)" style="stroke:#000000; stroke-linecap:butt; stroke-linejoin:round; stroke-width:4; stroke-opacity:1; fill:none" points="
  250.882,1347.54 250.882,47.2441 
  "/>
<polyline clip-path="url(#clip580)" style="stroke:#000000; stroke-linecap:butt; stroke-linejoin:round; stroke-width:4; stroke-opacity:1; fill:none" points="
  250.882,907 269.78,907 
  "/>
<polyline clip-path="url(#clip580)" style="stroke:#000000; stroke-linecap:butt; stroke-linejoin:round; stroke-width:4; stroke-opacity:1; fill:none" points="
  250.882,138.285 269.78,138.285 
  "/>
<path clip-path="url(#clip580)" d="M115.411 926.793 L123.05 926.793 L123.05 900.427 L114.74 902.094 L114.74 897.834 L123.004 896.168 L127.68 896.168 L127.68 926.793 L135.319 926.793 L135.319 930.728 L115.411 930.728 L115.411 926.793 Z" fill="#000000" fill-rule="evenodd" fill-opacity="1" /><path clip-path="url(#clip580)" d="M154.763 899.246 Q151.152 899.246 149.323 902.811 Q147.518 906.353 147.518 913.482 Q147.518 920.589 149.323 924.154 Q151.152 927.695 154.763 927.695 Q158.397 927.695 160.203 924.154 Q162.032 920.589 162.032 913.482 Q162.032 906.353 160.203 902.811 Q158.397 899.246 154.763 899.246 M154.763 895.543 Q160.573 895.543 163.629 900.149 Q166.707 904.733 166.707 913.482 Q166.707 922.209 163.629 926.816 Q160.573 931.399 154.763 931.399 Q148.953 931.399 145.874 926.816 Q142.819 922.209 142.819 913.482 Q142.819 904.733 145.874 900.149 Q148.953 895.543 154.763 895.543 Z" fill="#000000" fill-rule="evenodd" fill-opacity="1" /><path clip-path="url(#clip580)" d="M166.707 889.644 L190.819 889.644 L190.819 892.841 L166.707 892.841 L166.707 889.644 Z" fill="#000000" fill-rule="evenodd" fill-opacity="1" /><path clip-path="url(#clip580)" d="M210.53 888.177 Q213.257 888.76 214.78 890.603 Q216.322 892.446 216.322 895.155 Q216.322 899.311 213.464 901.587 Q210.605 903.863 205.339 903.863 Q203.571 903.863 201.69 903.505 Q199.828 903.167 197.834 902.471 L197.834 898.803 Q199.414 899.725 201.295 900.195 Q203.176 900.665 205.226 900.665 Q208.799 900.665 210.661 899.255 Q212.542 897.844 212.542 895.155 Q212.542 892.672 210.793 891.28 Q209.063 889.87 205.959 889.87 L202.687 889.87 L202.687 886.748 L206.11 886.748 Q208.912 886.748 210.398 885.638 Q211.884 884.51 211.884 882.403 Q211.884 880.24 210.341 879.093 Q208.818 877.927 205.959 877.927 Q204.398 877.927 202.612 878.265 Q200.825 878.604 198.681 879.319 L198.681 875.933 Q200.844 875.331 202.724 875.03 Q204.624 874.73 206.298 874.73 Q210.624 874.73 213.144 876.704 Q215.664 878.66 215.664 882.008 Q215.664 884.34 214.329 885.958 Q212.993 887.556 210.53 888.177 Z" fill="#000000" fill-rule="evenodd" fill-opacity="1" /><path clip-path="url(#clip580)" d="M116.183 158.077 L123.821 158.077 L123.821 131.712 L115.511 133.378 L115.511 129.119 L123.775 127.452 L128.451 127.452 L128.451 158.077 L136.09 158.077 L136.09 162.012 L116.183 162.012 L116.183 158.077 Z" fill="#000000" fill-rule="evenodd" fill-opacity="1" /><path clip-path="url(#clip580)" d="M155.534 130.531 Q151.923 130.531 150.094 134.096 Q148.289 137.638 148.289 144.767 Q148.289 151.874 150.094 155.438 Q151.923 158.98 155.534 158.98 Q159.168 158.98 160.974 155.438 Q162.803 151.874 162.803 144.767 Q162.803 137.638 160.974 134.096 Q159.168 130.531 155.534 130.531 M155.534 126.827 Q161.344 126.827 164.4 131.434 Q167.479 136.017 167.479 144.767 Q167.479 153.494 164.4 158.1 Q161.344 162.684 155.534 162.684 Q149.724 162.684 146.645 158.1 Q143.59 153.494 143.59 144.767 Q143.59 136.017 146.645 131.434 Q149.724 126.827 155.534 126.827 Z" fill="#000000" fill-rule="evenodd" fill-opacity="1" /><path clip-path="url(#clip580)" d="M167.479 120.929 L191.59 120.929 L191.59 124.126 L167.479 124.126 L167.479 120.929 Z" fill="#000000" fill-rule="evenodd" fill-opacity="1" /><path clip-path="url(#clip580)" d="M203.063 131.405 L216.322 131.405 L216.322 134.602 L198.493 134.602 L198.493 131.405 Q200.655 129.167 204.379 125.405 Q208.122 121.625 209.081 120.534 Q210.906 118.484 211.62 117.073 Q212.354 115.644 212.354 114.271 Q212.354 112.033 210.774 110.622 Q209.213 109.212 206.693 109.212 Q204.906 109.212 202.912 109.832 Q200.938 110.453 198.681 111.713 L198.681 107.876 Q200.975 106.955 202.969 106.484 Q204.962 106.014 206.618 106.014 Q210.981 106.014 213.576 108.196 Q216.172 110.378 216.172 114.026 Q216.172 115.757 215.514 117.318 Q214.874 118.86 213.163 120.966 Q212.692 121.512 210.172 124.126 Q207.652 126.722 203.063 131.405 Z" fill="#000000" fill-rule="evenodd" fill-opacity="1" /><path clip-path="url(#clip580)" d="M18.4042 827.219 L18.4042 787.02 L23.815 787.02 L23.815 803.889 L65.9242 803.889 L65.9242 810.35 L23.815 810.35 L23.815 827.219 L18.4042 827.219 Z" fill="#000000" fill-rule="evenodd" fill-opacity="1" /><path clip-path="url(#clip580)" d="M30.2762 783.073 L30.2762 777.216 L65.9242 777.216 L65.9242 783.073 L30.2762 783.073 M16.399 783.073 L16.399 777.216 L23.815 777.216 L23.815 783.073 L16.399 783.073 Z" fill="#000000" fill-rule="evenodd" fill-opacity="1" /><path clip-path="url(#clip580)" d="M37.1193 737.208 Q33.1726 735.012 31.2947 731.956 Q29.4168 728.901 29.4168 724.763 Q29.4168 719.193 33.3317 716.169 Q37.2148 713.145 44.4081 713.145 L65.9242 713.145 L65.9242 719.034 L44.599 719.034 Q39.4746 719.034 36.992 720.848 Q34.5094 722.662 34.5094 726.386 Q34.5094 730.938 37.5331 733.579 Q40.5568 736.221 45.7767 736.221 L65.9242 736.221 L65.9242 742.109 L44.599 742.109 Q39.4428 742.109 36.992 743.924 Q34.5094 745.738 34.5094 749.526 Q34.5094 754.013 37.5649 756.655 Q40.5886 759.297 45.7767 759.297 L65.9242 759.297 L65.9242 765.185 L30.2762 765.185 L30.2762 759.297 L35.8144 759.297 Q32.536 757.292 30.9764 754.491 Q29.4168 751.69 29.4168 747.839 Q29.4168 743.956 31.3902 741.25 Q33.3636 738.513 37.1193 737.208 Z" fill="#000000" fill-rule="evenodd" fill-opacity="1" /><path clip-path="url(#clip580)" d="M46.6361 670.973 L49.5006 670.973 L49.5006 697.9 Q55.5481 697.518 58.7309 694.271 Q61.8819 690.993 61.8819 685.168 Q61.8819 681.794 61.0544 678.643 Q60.2269 675.461 58.5718 672.341 L64.1099 672.341 Q65.4467 675.492 66.147 678.803 Q66.8472 682.113 66.8472 685.518 Q66.8472 694.048 61.8819 699.045 Q56.9167 704.011 48.4503 704.011 Q39.6974 704.011 34.5731 699.3 Q29.4168 694.558 29.4168 686.537 Q29.4168 679.344 34.0638 675.174 Q38.6789 670.973 46.6361 670.973 M44.9173 676.829 Q40.1112 676.893 37.2466 679.535 Q34.3821 682.145 34.3821 686.473 Q34.3821 691.375 37.1512 694.335 Q39.9202 697.263 44.9492 697.709 L44.9173 676.829 Z" fill="#000000" fill-rule="evenodd" fill-opacity="1" /><path clip-path="url(#clip580)" d="M16.4626 626.572 Q23.7832 630.837 30.9446 632.906 Q38.106 634.975 45.4584 634.975 Q52.8108 634.975 60.0359 632.906 Q67.2291 630.805 74.5179 626.572 L74.5179 631.664 Q67.0382 636.439 59.8131 638.826 Q52.588 641.181 45.4584 641.181 Q38.3606 641.181 31.1674 638.826 Q23.9742 636.471 16.4626 631.664 L16.4626 626.572 Z" fill="#000000" fill-rule="evenodd" fill-opacity="1" /><path clip-path="url(#clip580)" d="M31.3265 592.484 L36.8647 592.484 Q35.5916 594.966 34.955 597.64 Q34.3184 600.313 34.3184 603.178 Q34.3184 607.538 35.6552 609.735 Q36.992 611.899 39.6656 611.899 Q41.7026 611.899 42.8803 610.339 Q44.0261 608.78 45.0765 604.069 L45.5221 602.064 Q46.8589 595.826 49.3097 593.216 Q51.7286 590.574 56.0891 590.574 Q61.0544 590.574 63.9508 594.521 Q66.8472 598.435 66.8472 605.31 Q66.8472 608.175 66.2743 611.294 Q65.7332 614.382 64.6192 617.819 L58.5718 617.819 Q60.2587 614.573 61.118 611.422 Q61.9456 608.27 61.9456 605.183 Q61.9456 601.045 60.5451 598.817 Q59.1129 596.589 56.5347 596.589 Q54.1476 596.589 52.8745 598.213 Q51.6013 599.804 50.4237 605.247 L49.9462 607.284 Q48.8004 612.726 46.4451 615.145 Q44.058 617.564 39.9202 617.564 Q34.8913 617.564 32.1541 614 Q29.4168 610.435 29.4168 603.878 Q29.4168 600.632 29.8943 597.767 Q30.3717 594.902 31.3265 592.484 Z" fill="#000000" fill-rule="evenodd" fill-opacity="1" /><path clip-path="url(#clip580)" d="M16.4626 582.171 L16.4626 577.079 Q23.9742 572.304 31.1674 569.949 Q38.3606 567.562 45.4584 567.562 Q52.588 567.562 59.8131 569.949 Q67.0382 572.304 74.5179 577.079 L74.5179 582.171 Q67.2291 577.938 60.0359 575.869 Q52.8108 573.768 45.4584 573.768 Q38.106 573.768 30.9446 575.869 Q23.7832 577.938 16.4626 582.171 Z" fill="#000000" fill-rule="evenodd" fill-opacity="1" /><polyline clip-path="url(#clip582)" style="stroke:#009af9; stroke-linecap:butt; stroke-linejoin:round; stroke-width:12; stroke-opacity:1; fill:none" points="
  1635.7,1310.74 1552.56,1112.21 1318.35,867.705 1088.52,626.902 
  "/>
<line clip-path="url(#clip582)" x1="1635.7" y1="1310.74" x2="1635.7" y2="1294.74" style="stroke:#009af9; stroke-width:3.072; stroke-opacity:1"/>
<line clip-path="url(#clip582)" x1="1635.7" y1="1310.74" x2="1619.7" y2="1310.74" style="stroke:#009af9; stroke-width:3.072; stroke-opacity:1"/>
<line clip-path="url(#clip582)" x1="1635.7" y1="1310.74" x2="1635.7" y2="1326.74" style="stroke:#009af9; stroke-width:3.072; stroke-opacity:1"/>
<line clip-path="url(#clip582)" x1="1635.7" y1="1310.74" x2="1651.7" y2="1310.74" style="stroke:#009af9; stroke-width:3.072; stroke-opacity:1"/>
<line clip-path="url(#clip582)" x1="1552.56" y1="1112.21" x2="1552.56" y2="1096.21" style="stroke:#009af9; stroke-width:3.072; stroke-opacity:1"/>
<line clip-path="url(#clip582)" x1="1552.56" y1="1112.21" x2="1536.56" y2="1112.21" style="stroke:#009af9; stroke-width:3.072; stroke-opacity:1"/>
<line clip-path="url(#clip582)" x1="1552.56" y1="1112.21" x2="1552.56" y2="1128.21" style="stroke:#009af9; stroke-width:3.072; stroke-opacity:1"/>
<line clip-path="url(#clip582)" x1="1552.56" y1="1112.21" x2="1568.56" y2="1112.21" style="stroke:#009af9; stroke-width:3.072; stroke-opacity:1"/>
<line clip-path="url(#clip582)" x1="1318.35" y1="867.705" x2="1318.35" y2="851.705" style="stroke:#009af9; stroke-width:3.072; stroke-opacity:1"/>
<line clip-path="url(#clip582)" x1="1318.35" y1="867.705" x2="1302.35" y2="867.705" style="stroke:#009af9; stroke-width:3.072; stroke-opacity:1"/>
<line clip-path="url(#clip582)" x1="1318.35" y1="867.705" x2="1318.35" y2="883.705" style="stroke:#009af9; stroke-width:3.072; stroke-opacity:1"/>
<line clip-path="url(#clip582)" x1="1318.35" y1="867.705" x2="1334.35" y2="867.705" style="stroke:#009af9; stroke-width:3.072; stroke-opacity:1"/>
<line clip-path="url(#clip582)" x1="1088.52" y1="626.902" x2="1088.52" y2="610.902" style="stroke:#009af9; stroke-width:3.072; stroke-opacity:1"/>
<line clip-path="url(#clip582)" x1="1088.52" y1="626.902" x2="1072.52" y2="626.902" style="stroke:#009af9; stroke-width:3.072; stroke-opacity:1"/>
<line clip-path="url(#clip582)" x1="1088.52" y1="626.902" x2="1088.52" y2="642.902" style="stroke:#009af9; stroke-width:3.072; stroke-opacity:1"/>
<line clip-path="url(#clip582)" x1="1088.52" y1="626.902" x2="1104.52" y2="626.902" style="stroke:#009af9; stroke-width:3.072; stroke-opacity:1"/>
<polyline clip-path="url(#clip582)" style="stroke:#e26f46; stroke-linecap:butt; stroke-linejoin:round; stroke-width:12; stroke-opacity:1; fill:none" points="
  2199.99,1153.45 1169.25,482.97 1358.2,265.902 868.816,84.0448 
  "/>
<circle clip-path="url(#clip582)" cx="2199.99" cy="1153.45" r="14" fill="#e26f46" fill-rule="evenodd" fill-opacity="1" stroke="#000000" stroke-opacity="1" stroke-width="3.072"/>
<circle clip-path="url(#clip582)" cx="1169.25" cy="482.97" r="14" fill="#e26f46" fill-rule="evenodd" fill-opacity="1" stroke="#000000" stroke-opacity="1" stroke-width="3.072"/>
<circle clip-path="url(#clip582)" cx="1358.2" cy="265.902" r="14" fill="#e26f46" fill-rule="evenodd" fill-opacity="1" stroke="#000000" stroke-opacity="1" stroke-width="3.072"/>
<circle clip-path="url(#clip582)" cx="868.816" cy="84.0448" r="14" fill="#e26f46" fill-rule="evenodd" fill-opacity="1" stroke="#000000" stroke-opacity="1" stroke-width="3.072"/>
<polyline clip-path="url(#clip582)" style="stroke:#3da44d; stroke-linecap:butt; stroke-linejoin:round; stroke-width:12; stroke-opacity:1; fill:none" points="
  1948.31,653.833 1919.98,614.896 1410.25,416.946 1154.27,340.498 
  "/>
<line clip-path="url(#clip582)" x1="1948.31" y1="653.833" x2="1948.31" y2="637.833" style="stroke:#3da44d; stroke-width:3.072; stroke-opacity:1"/>
<line clip-path="url(#clip582)" x1="1948.31" y1="653.833" x2="1932.31" y2="653.833" style="stroke:#3da44d; stroke-width:3.072; stroke-opacity:1"/>
<line clip-path="url(#clip582)" x1="1948.31" y1="653.833" x2="1948.31" y2="669.833" style="stroke:#3da44d; stroke-width:3.072; stroke-opacity:1"/>
<line clip-path="url(#clip582)" x1="1948.31" y1="653.833" x2="1964.31" y2="653.833" style="stroke:#3da44d; stroke-width:3.072; stroke-opacity:1"/>
<line clip-path="url(#clip582)" x1="1919.98" y1="614.896" x2="1919.98" y2="598.896" style="stroke:#3da44d; stroke-width:3.072; stroke-opacity:1"/>
<line clip-path="url(#clip582)" x1="1919.98" y1="614.896" x2="1903.98" y2="614.896" style="stroke:#3da44d; stroke-width:3.072; stroke-opacity:1"/>
<line clip-path="url(#clip582)" x1="1919.98" y1="614.896" x2="1919.98" y2="630.896" style="stroke:#3da44d; stroke-width:3.072; stroke-opacity:1"/>
<line clip-path="url(#clip582)" x1="1919.98" y1="614.896" x2="1935.98" y2="614.896" style="stroke:#3da44d; stroke-width:3.072; stroke-opacity:1"/>
<line clip-path="url(#clip582)" x1="1410.25" y1="416.946" x2="1410.25" y2="400.946" style="stroke:#3da44d; stroke-width:3.072; stroke-opacity:1"/>
<line clip-path="url(#clip582)" x1="1410.25" y1="416.946" x2="1394.25" y2="416.946" style="stroke:#3da44d; stroke-width:3.072; stroke-opacity:1"/>
<line clip-path="url(#clip582)" x1="1410.25" y1="416.946" x2="1410.25" y2="432.946" style="stroke:#3da44d; stroke-width:3.072; stroke-opacity:1"/>
<line clip-path="url(#clip582)" x1="1410.25" y1="416.946" x2="1426.25" y2="416.946" style="stroke:#3da44d; stroke-width:3.072; stroke-opacity:1"/>
<line clip-path="url(#clip582)" x1="1154.27" y1="340.498" x2="1154.27" y2="324.498" style="stroke:#3da44d; stroke-width:3.072; stroke-opacity:1"/>
<line clip-path="url(#clip582)" x1="1154.27" y1="340.498" x2="1138.27" y2="340.498" style="stroke:#3da44d; stroke-width:3.072; stroke-opacity:1"/>
<line clip-path="url(#clip582)" x1="1154.27" y1="340.498" x2="1154.27" y2="356.498" style="stroke:#3da44d; stroke-width:3.072; stroke-opacity:1"/>
<line clip-path="url(#clip582)" x1="1154.27" y1="340.498" x2="1170.27" y2="340.498" style="stroke:#3da44d; stroke-width:3.072; stroke-opacity:1"/>
<polyline clip-path="url(#clip582)" style="stroke:#c271d2; stroke-linecap:butt; stroke-linejoin:round; stroke-width:12; stroke-opacity:1; fill:none" points="
  2034.3,1304.99 2104.76,851.435 1742.17,847.823 2102.86,762.509 
  "/>
<path clip-path="url(#clip582)" d="M2034.3 1288.99 L2018.3 1304.99 L2034.3 1320.99 L2050.3 1304.99 L2034.3 1288.99 Z" fill="#c271d2" fill-rule="evenodd" fill-opacity="1" stroke="#000000" stroke-opacity="1" stroke-width="3.072"/>
<path clip-path="url(#clip582)" d="M2104.76 835.435 L2088.76 851.435 L2104.76 867.435 L2120.76 851.435 L2104.76 835.435 Z" fill="#c271d2" fill-rule="evenodd" fill-opacity="1" stroke="#000000" stroke-opacity="1" stroke-width="3.072"/>
<path clip-path="url(#clip582)" d="M1742.17 831.823 L1726.17 847.823 L1742.17 863.823 L1758.17 847.823 L1742.17 831.823 Z" fill="#c271d2" fill-rule="evenodd" fill-opacity="1" stroke="#000000" stroke-opacity="1" stroke-width="3.072"/>
<path clip-path="url(#clip582)" d="M2102.86 746.509 L2086.86 762.509 L2102.86 778.509 L2118.86 762.509 L2102.86 746.509 Z" fill="#c271d2" fill-rule="evenodd" fill-opacity="1" stroke="#000000" stroke-opacity="1" stroke-width="3.072"/>
<polyline clip-path="url(#clip582)" style="stroke:#ac8d18; stroke-linecap:butt; stroke-linejoin:round; stroke-width:12; stroke-opacity:1; fill:none" points="
  2103.52,637.776 1911.06,555.6 1221.43,483.126 1116.49,354.742 
  "/>
<path clip-path="url(#clip582)" d="M2119.52 621.776 L2087.52 621.776 L2103.52 653.776 L2119.52 621.776 Z" fill="#ac8d18" fill-rule="evenodd" fill-opacity="1" stroke="#000000" stroke-opacity="1" stroke-width="3.072"/>
<path clip-path="url(#clip582)" d="M1927.06 539.6 L1895.06 539.6 L1911.06 571.6 L1927.06 539.6 Z" fill="#ac8d18" fill-rule="evenodd" fill-opacity="1" stroke="#000000" stroke-opacity="1" stroke-width="3.072"/>
<path clip-path="url(#clip582)" d="M1237.43 467.126 L1205.43 467.126 L1221.43 499.126 L1237.43 467.126 Z" fill="#ac8d18" fill-rule="evenodd" fill-opacity="1" stroke="#000000" stroke-opacity="1" stroke-width="3.072"/>
<path clip-path="url(#clip582)" d="M1132.49 338.742 L1100.49 338.742 L1116.49 370.742 L1132.49 338.742 Z" fill="#ac8d18" fill-rule="evenodd" fill-opacity="1" stroke="#000000" stroke-opacity="1" stroke-width="3.072"/>
<polyline clip-path="url(#clip582)" style="stroke:#00a9ad; stroke-linecap:butt; stroke-linejoin:round; stroke-width:12; stroke-opacity:1; fill:none" points="
  1767.76,808.892 1279.57,700.287 799.055,535.566 515.707,383.765 
  "/>
<path clip-path="url(#clip582)" d="M1767.76 792.892 L1755.25 798.924 L1752.16 812.46 L1760.82 823.308 L1774.71 823.308 L1783.36 812.46 L1780.27 798.924 Z" fill="#00a9ad" fill-rule="evenodd" fill-opacity="1" stroke="#000000" stroke-opacity="1" stroke-width="3.072"/>
<path clip-path="url(#clip582)" d="M1279.57 684.287 L1267.06 690.319 L1263.97 703.855 L1272.63 714.703 L1286.51 714.703 L1295.17 703.855 L1292.08 690.319 Z" fill="#00a9ad" fill-rule="evenodd" fill-opacity="1" stroke="#000000" stroke-opacity="1" stroke-width="3.072"/>
<path clip-path="url(#clip582)" d="M799.055 519.566 L786.543 525.598 L783.455 539.134 L792.111 549.982 L805.999 549.982 L814.655 539.134 L811.567 525.598 Z" fill="#00a9ad" fill-rule="evenodd" fill-opacity="1" stroke="#000000" stroke-opacity="1" stroke-width="3.072"/>
<path clip-path="url(#clip582)" d="M515.707 367.765 L503.195 373.797 L500.107 387.333 L508.763 398.181 L522.651 398.181 L531.307 387.333 L528.219 373.797 Z" fill="#00a9ad" fill-rule="evenodd" fill-opacity="1" stroke="#000000" stroke-opacity="1" stroke-width="3.072"/>
<polyline clip-path="url(#clip582)" style="stroke:#ed5d92; stroke-linecap:butt; stroke-linejoin:round; stroke-width:12; stroke-opacity:1; fill:none" points="
  2116.04,1169.22 1128.86,1022.63 1347.48,940.918 1091.3,735.267 
  "/>
<path clip-path="url(#clip582)" d="M2116.04 1185.22 L2102.19 1177.22 L2102.19 1161.22 L2116.04 1153.22 L2129.9 1161.22 L2129.9 1177.22 Z" fill="#ed5d92" fill-rule="evenodd" fill-opacity="1" stroke="#000000" stroke-opacity="1" stroke-width="3.072"/>
<path clip-path="url(#clip582)" d="M1128.86 1038.63 L1115.01 1030.63 L1115.01 1014.63 L1128.86 1006.63 L1142.72 1014.63 L1142.72 1030.63 Z" fill="#ed5d92" fill-rule="evenodd" fill-opacity="1" stroke="#000000" stroke-opacity="1" stroke-width="3.072"/>
<path clip-path="url(#clip582)" d="M1347.48 956.918 L1333.63 948.918 L1333.63 932.918 L1347.48 924.918 L1361.34 932.918 L1361.34 948.918 Z" fill="#ed5d92" fill-rule="evenodd" fill-opacity="1" stroke="#000000" stroke-opacity="1" stroke-width="3.072"/>
<path clip-path="url(#clip582)" d="M1091.3 751.267 L1077.45 743.267 L1077.45 727.267 L1091.3 719.267 L1105.16 727.267 L1105.16 743.267 Z" fill="#ed5d92" fill-rule="evenodd" fill-opacity="1" stroke="#000000" stroke-opacity="1" stroke-width="3.072"/>
<polyline clip-path="url(#clip582)" style="stroke:#c68125; stroke-linecap:butt; stroke-linejoin:round; stroke-width:12; stroke-opacity:1; fill:none" points="
  1201.34,555.767 1070.05,516.98 307.652,457.22 337.629,335.745 
  "/>
<line clip-path="url(#clip582)" x1="1217.34" y1="555.767" x2="1185.34" y2="555.767" style="stroke:#c68125; stroke-width:3.072; stroke-opacity:1"/>
<line clip-path="url(#clip582)" x1="1086.05" y1="516.98" x2="1054.05" y2="516.98" style="stroke:#c68125; stroke-width:3.072; stroke-opacity:1"/>
<line clip-path="url(#clip582)" x1="323.652" y1="457.22" x2="291.652" y2="457.22" style="stroke:#c68125; stroke-width:3.072; stroke-opacity:1"/>
<line clip-path="url(#clip582)" x1="353.629" y1="335.745" x2="321.629" y2="335.745" style="stroke:#c68125; stroke-width:3.072; stroke-opacity:1"/>
<path clip-path="url(#clip580)" d="
M1640.35 557.147 L2189.89 557.147 L2189.89 90.5872 L1640.35 90.5872  Z
  " fill="#ffffff" fill-rule="evenodd" fill-opacity="1"/>
<polyline clip-path="url(#clip580)" style="stroke:#000000; stroke-linecap:butt; stroke-linejoin:round; stroke-width:4; stroke-opacity:1; fill:none" points="
  1640.35,557.147 2189.89,557.147 2189.89,90.5872 1640.35,90.5872 1640.35,557.147 
  "/>
<polyline clip-path="url(#clip580)" style="stroke:#009af9; stroke-linecap:butt; stroke-linejoin:round; stroke-width:4; stroke-opacity:1; fill:none" points="
  1662.64,142.427 1796.37,142.427 
  "/>
<line clip-path="url(#clip580)" x1="1729.5" y1="142.427" x2="1729.5" y2="116.827" style="stroke:#009af9; stroke-width:4.9152; stroke-opacity:1"/>
<line clip-path="url(#clip580)" x1="1729.5" y1="142.427" x2="1703.9" y2="142.427" style="stroke:#009af9; stroke-width:4.9152; stroke-opacity:1"/>
<line clip-path="url(#clip580)" x1="1729.5" y1="142.427" x2="1729.5" y2="168.027" style="stroke:#009af9; stroke-width:4.9152; stroke-opacity:1"/>
<line clip-path="url(#clip580)" x1="1729.5" y1="142.427" x2="1755.1" y2="142.427" style="stroke:#009af9; stroke-width:4.9152; stroke-opacity:1"/>
<path clip-path="url(#clip580)" d="M1835.04 143.504 Q1836.55 144.013 1837.96 145.679 Q1839.39 147.346 1840.83 150.263 L1845.57 159.707 L1840.55 159.707 L1836.13 150.841 Q1834.42 147.369 1832.8 146.235 Q1831.2 145.101 1828.42 145.101 L1823.33 145.101 L1823.33 159.707 L1818.65 159.707 L1818.65 125.147 L1829.21 125.147 Q1835.13 125.147 1838.05 127.624 Q1840.97 130.101 1840.97 135.101 Q1840.97 138.365 1839.44 140.517 Q1837.94 142.67 1835.04 143.504 M1823.33 128.99 L1823.33 141.258 L1829.21 141.258 Q1832.59 141.258 1834.3 139.707 Q1836.04 138.133 1836.04 135.101 Q1836.04 132.068 1834.3 130.541 Q1832.59 128.99 1829.21 128.99 L1823.33 128.99 Z" fill="#000000" fill-rule="evenodd" fill-opacity="1" /><path clip-path="url(#clip580)" d="M1859.32 136.767 Q1855.9 136.767 1853.91 139.453 Q1851.92 142.115 1851.92 146.767 Q1851.92 151.42 1853.88 154.105 Q1855.88 156.767 1859.32 156.767 Q1862.73 156.767 1864.72 154.082 Q1866.71 151.397 1866.71 146.767 Q1866.71 142.161 1864.72 139.476 Q1862.73 136.767 1859.32 136.767 M1859.32 133.156 Q1864.88 133.156 1868.05 136.767 Q1871.22 140.379 1871.22 146.767 Q1871.22 153.133 1868.05 156.767 Q1864.88 160.378 1859.32 160.378 Q1853.75 160.378 1850.57 156.767 Q1847.43 153.133 1847.43 146.767 Q1847.43 140.379 1850.57 136.767 Q1853.75 133.156 1859.32 133.156 Z" fill="#000000" fill-rule="evenodd" fill-opacity="1" /><path clip-path="url(#clip580)" d="M1894.81 134.545 L1894.81 138.573 Q1893.01 137.647 1891.06 137.184 Q1889.12 136.721 1887.03 136.721 Q1883.86 136.721 1882.26 137.693 Q1880.69 138.666 1880.69 140.61 Q1880.69 142.092 1881.82 142.948 Q1882.96 143.781 1886.38 144.545 L1887.84 144.869 Q1892.38 145.842 1894.28 147.624 Q1896.2 149.383 1896.2 152.554 Q1896.2 156.166 1893.33 158.272 Q1890.48 160.378 1885.48 160.378 Q1883.4 160.378 1881.13 159.962 Q1878.88 159.568 1876.38 158.758 L1876.38 154.36 Q1878.75 155.587 1881.04 156.212 Q1883.33 156.814 1885.57 156.814 Q1888.58 156.814 1890.2 155.795 Q1891.82 154.754 1891.82 152.879 Q1891.82 151.142 1890.64 150.216 Q1889.49 149.291 1885.53 148.434 L1884.05 148.087 Q1880.09 147.254 1878.33 145.541 Q1876.57 143.804 1876.57 140.795 Q1876.57 137.138 1879.16 135.147 Q1881.76 133.156 1886.52 133.156 Q1888.88 133.156 1890.97 133.504 Q1893.05 133.851 1894.81 134.545 Z" fill="#000000" fill-rule="evenodd" fill-opacity="1" /><path clip-path="url(#clip580)" d="M1925.16 145.679 L1925.16 147.763 L1905.57 147.763 Q1905.85 152.161 1908.21 154.476 Q1910.6 156.767 1914.83 156.767 Q1917.29 156.767 1919.58 156.166 Q1921.89 155.564 1924.16 154.36 L1924.16 158.388 Q1921.87 159.36 1919.46 159.869 Q1917.06 160.378 1914.58 160.378 Q1908.38 160.378 1904.74 156.767 Q1901.13 153.156 1901.13 146.999 Q1901.13 140.633 1904.56 136.906 Q1908 133.156 1913.84 133.156 Q1919.07 133.156 1922.1 136.536 Q1925.16 139.892 1925.16 145.679 M1920.9 144.429 Q1920.85 140.934 1918.93 138.851 Q1917.03 136.767 1913.88 136.767 Q1910.32 136.767 1908.17 138.781 Q1906.04 140.795 1905.71 144.453 L1920.9 144.429 Z" fill="#000000" fill-rule="evenodd" fill-opacity="1" /><path clip-path="url(#clip580)" d="M1953.7 144.059 L1953.7 159.707 L1949.44 159.707 L1949.44 144.198 Q1949.44 140.517 1948 138.689 Q1946.57 136.86 1943.7 136.86 Q1940.25 136.86 1938.26 139.059 Q1936.27 141.258 1936.27 145.054 L1936.27 159.707 L1931.99 159.707 L1931.99 133.781 L1936.27 133.781 L1936.27 137.809 Q1937.8 135.471 1939.86 134.314 Q1941.94 133.156 1944.65 133.156 Q1949.12 133.156 1951.41 135.934 Q1953.7 138.689 1953.7 144.059 Z" fill="#000000" fill-rule="evenodd" fill-opacity="1" /><path clip-path="url(#clip580)" d="M1980.81 146.767 Q1980.81 142.068 1978.86 139.406 Q1976.94 136.721 1973.56 136.721 Q1970.18 136.721 1968.24 139.406 Q1966.31 142.068 1966.31 146.767 Q1966.31 151.466 1968.24 154.152 Q1970.18 156.814 1973.56 156.814 Q1976.94 156.814 1978.86 154.152 Q1980.81 151.466 1980.81 146.767 M1966.31 137.717 Q1967.66 135.402 1969.69 134.291 Q1971.75 133.156 1974.6 133.156 Q1979.32 133.156 1982.26 136.906 Q1985.23 140.656 1985.23 146.767 Q1985.23 152.879 1982.26 156.628 Q1979.32 160.378 1974.6 160.378 Q1971.75 160.378 1969.69 159.267 Q1967.66 158.133 1966.31 155.818 L1966.31 159.707 L1962.03 159.707 L1962.03 123.689 L1966.31 123.689 L1966.31 137.717 Z" fill="#000000" fill-rule="evenodd" fill-opacity="1" /><path clip-path="url(#clip580)" d="M2007.31 137.763 Q2006.59 137.346 2005.74 137.161 Q2004.9 136.953 2003.88 136.953 Q2000.27 136.953 1998.33 139.314 Q1996.41 141.652 1996.41 146.05 L1996.41 159.707 L1992.12 159.707 L1992.12 133.781 L1996.41 133.781 L1996.41 137.809 Q1997.75 135.448 1999.9 134.314 Q2002.06 133.156 2005.13 133.156 Q2005.57 133.156 2006.11 133.226 Q2006.64 133.272 2007.29 133.388 L2007.31 137.763 Z" fill="#000000" fill-rule="evenodd" fill-opacity="1" /><path clip-path="url(#clip580)" d="M2020.78 136.767 Q2017.36 136.767 2015.37 139.453 Q2013.37 142.115 2013.37 146.767 Q2013.37 151.42 2015.34 154.105 Q2017.33 156.767 2020.78 156.767 Q2024.18 156.767 2026.18 154.082 Q2028.17 151.397 2028.17 146.767 Q2028.17 142.161 2026.18 139.476 Q2024.18 136.767 2020.78 136.767 M2020.78 133.156 Q2026.34 133.156 2029.51 136.767 Q2032.68 140.379 2032.68 146.767 Q2032.68 153.133 2029.51 156.767 Q2026.34 160.378 2020.78 160.378 Q2015.2 160.378 2012.03 156.767 Q2008.88 153.133 2008.88 146.767 Q2008.88 140.379 2012.03 136.767 Q2015.2 133.156 2020.78 133.156 Z" fill="#000000" fill-rule="evenodd" fill-opacity="1" /><path clip-path="url(#clip580)" d="M2058.4 134.777 L2058.4 138.758 Q2056.59 137.763 2054.76 137.277 Q2052.96 136.767 2051.11 136.767 Q2046.96 136.767 2044.67 139.406 Q2042.38 142.022 2042.38 146.767 Q2042.38 151.513 2044.67 154.152 Q2046.96 156.767 2051.11 156.767 Q2052.96 156.767 2054.76 156.281 Q2056.59 155.772 2058.4 154.777 L2058.4 158.712 Q2056.62 159.545 2054.69 159.962 Q2052.8 160.378 2050.64 160.378 Q2044.79 160.378 2041.34 156.698 Q2037.89 153.017 2037.89 146.767 Q2037.89 140.425 2041.36 136.791 Q2044.86 133.156 2050.92 133.156 Q2052.89 133.156 2054.76 133.573 Q2056.64 133.967 2058.4 134.777 Z" fill="#000000" fill-rule="evenodd" fill-opacity="1" /><path clip-path="url(#clip580)" d="M2065.64 123.689 L2069.93 123.689 L2069.93 144.962 L2082.63 133.781 L2088.07 133.781 L2074.32 145.911 L2088.65 159.707 L2083.1 159.707 L2069.93 147.045 L2069.93 159.707 L2065.64 159.707 L2065.64 123.689 Z" fill="#000000" fill-rule="evenodd" fill-opacity="1" /><path clip-path="url(#clip580)" d="M2097.89 155.772 L2114.21 155.772 L2114.21 159.707 L2092.26 159.707 L2092.26 155.772 Q2094.93 153.017 2099.51 148.388 Q2104.12 143.735 2105.3 142.392 Q2107.54 139.869 2108.42 138.133 Q2109.32 136.374 2109.32 134.684 Q2109.32 131.93 2107.38 130.193 Q2105.46 128.457 2102.36 128.457 Q2100.16 128.457 2097.7 129.221 Q2095.27 129.985 2092.49 131.536 L2092.49 126.814 Q2095.32 125.68 2097.77 125.101 Q2100.23 124.522 2102.26 124.522 Q2107.63 124.522 2110.83 127.207 Q2114.02 129.893 2114.02 134.383 Q2114.02 136.513 2113.21 138.434 Q2112.43 140.332 2110.32 142.925 Q2109.74 143.596 2106.64 146.814 Q2103.54 150.008 2097.89 155.772 Z" fill="#000000" fill-rule="evenodd" fill-opacity="1" /><path clip-path="url(#clip580)" d="M2138.19 141.073 Q2141.55 141.791 2143.42 144.059 Q2145.32 146.328 2145.32 149.661 Q2145.32 154.777 2141.8 157.578 Q2138.28 160.378 2131.8 160.378 Q2129.62 160.378 2127.31 159.939 Q2125.02 159.522 2122.56 158.666 L2122.56 154.152 Q2124.51 155.286 2126.82 155.865 Q2129.14 156.443 2131.66 156.443 Q2136.06 156.443 2138.35 154.707 Q2140.67 152.971 2140.67 149.661 Q2140.67 146.605 2138.51 144.892 Q2136.38 143.156 2132.56 143.156 L2128.54 143.156 L2128.54 139.314 L2132.75 139.314 Q2136.2 139.314 2138.03 137.948 Q2139.86 136.559 2139.86 133.967 Q2139.86 131.305 2137.96 129.893 Q2136.08 128.457 2132.56 128.457 Q2130.64 128.457 2128.44 128.874 Q2126.24 129.291 2123.61 130.17 L2123.61 126.004 Q2126.27 125.263 2128.58 124.893 Q2130.92 124.522 2132.98 124.522 Q2138.3 124.522 2141.41 126.953 Q2144.51 129.36 2144.51 133.48 Q2144.51 136.351 2142.86 138.342 Q2141.22 140.309 2138.19 141.073 Z" fill="#000000" fill-rule="evenodd" fill-opacity="1" /><polyline clip-path="url(#clip580)" style="stroke:#e26f46; stroke-linecap:butt; stroke-linejoin:round; stroke-width:4; stroke-opacity:1; fill:none" points="
  1662.64,194.267 1796.37,194.267 
  "/>
<circle clip-path="url(#clip580)" cx="1729.5" cy="194.267" r="23" fill="#e26f46" fill-rule="evenodd" fill-opacity="1" stroke="#000000" stroke-opacity="1" stroke-width="4.9152"/>
<path clip-path="url(#clip580)" d="M1818.65 176.987 L1838.51 176.987 L1838.51 180.922 L1823.33 180.922 L1823.33 191.107 L1837.03 191.107 L1837.03 195.043 L1823.33 195.043 L1823.33 211.547 L1818.65 211.547 L1818.65 176.987 Z" fill="#000000" fill-rule="evenodd" fill-opacity="1" /><path clip-path="url(#clip580)" d="M1850.6 195.043 L1850.6 207.705 L1858.1 207.705 Q1861.87 207.705 1863.68 206.154 Q1865.51 204.58 1865.51 201.362 Q1865.51 198.121 1863.68 196.594 Q1861.87 195.043 1858.1 195.043 L1850.6 195.043 M1850.6 180.83 L1850.6 191.246 L1857.52 191.246 Q1860.95 191.246 1862.61 189.973 Q1864.3 188.677 1864.3 186.038 Q1864.3 183.422 1862.61 182.126 Q1860.95 180.83 1857.52 180.83 L1850.6 180.83 M1845.92 176.987 L1857.87 176.987 Q1863.21 176.987 1866.11 179.209 Q1869 181.432 1869 185.529 Q1869 188.7 1867.52 190.575 Q1866.04 192.45 1863.17 192.913 Q1866.62 193.654 1868.51 196.015 Q1870.44 198.353 1870.44 201.871 Q1870.44 206.501 1867.29 209.024 Q1864.14 211.547 1858.33 211.547 L1845.92 211.547 L1845.92 176.987 Z" fill="#000000" fill-rule="evenodd" fill-opacity="1" /><path clip-path="url(#clip580)" d="M1883.12 180.83 L1883.12 207.705 L1888.77 207.705 Q1895.92 207.705 1899.23 204.464 Q1902.57 201.223 1902.57 194.232 Q1902.57 187.288 1899.23 184.07 Q1895.92 180.83 1888.77 180.83 L1883.12 180.83 M1878.44 176.987 L1888.05 176.987 Q1898.1 176.987 1902.8 181.177 Q1907.5 185.344 1907.5 194.232 Q1907.5 203.168 1902.77 207.357 Q1898.05 211.547 1888.05 211.547 L1878.44 211.547 L1878.44 176.987 Z" fill="#000000" fill-rule="evenodd" fill-opacity="1" /><path clip-path="url(#clip580)" d="M1914.95 176.987 L1934.81 176.987 L1934.81 180.922 L1919.63 180.922 L1919.63 191.107 L1933.33 191.107 L1933.33 195.043 L1919.63 195.043 L1919.63 211.547 L1914.95 211.547 L1914.95 176.987 Z" fill="#000000" fill-rule="evenodd" fill-opacity="1" /><polyline clip-path="url(#clip580)" style="stroke:#3da44d; stroke-linecap:butt; stroke-linejoin:round; stroke-width:4; stroke-opacity:1; fill:none" points="
  1662.64,246.107 1796.37,246.107 
  "/>
<line clip-path="url(#clip580)" x1="1729.5" y1="246.107" x2="1729.5" y2="220.507" style="stroke:#3da44d; stroke-width:4.9152; stroke-opacity:1"/>
<line clip-path="url(#clip580)" x1="1729.5" y1="246.107" x2="1703.9" y2="246.107" style="stroke:#3da44d; stroke-width:4.9152; stroke-opacity:1"/>
<line clip-path="url(#clip580)" x1="1729.5" y1="246.107" x2="1729.5" y2="271.707" style="stroke:#3da44d; stroke-width:4.9152; stroke-opacity:1"/>
<line clip-path="url(#clip580)" x1="1729.5" y1="246.107" x2="1755.1" y2="246.107" style="stroke:#3da44d; stroke-width:4.9152; stroke-opacity:1"/>
<path clip-path="url(#clip580)" d="M1846.52 231.489 L1846.52 236.42 Q1844.16 234.221 1841.48 233.133 Q1838.82 232.045 1835.81 232.045 Q1829.88 232.045 1826.73 235.679 Q1823.58 239.29 1823.58 246.142 Q1823.58 252.971 1826.73 256.605 Q1829.88 260.216 1835.81 260.216 Q1838.82 260.216 1841.48 259.128 Q1844.16 258.04 1846.52 255.841 L1846.52 260.725 Q1844.07 262.392 1841.32 263.225 Q1838.58 264.058 1835.53 264.058 Q1827.68 264.058 1823.17 259.267 Q1818.65 254.452 1818.65 246.142 Q1818.65 237.809 1823.17 233.017 Q1827.68 228.202 1835.53 228.202 Q1838.63 228.202 1841.36 229.036 Q1844.12 229.846 1846.52 231.489 Z" fill="#000000" fill-rule="evenodd" fill-opacity="1" /><path clip-path="url(#clip580)" d="M1862.66 263.387 L1849.46 228.827 L1854.35 228.827 L1865.3 257.924 L1876.27 228.827 L1881.13 228.827 L1867.96 263.387 L1862.66 263.387 Z" fill="#000000" fill-rule="evenodd" fill-opacity="1" /><path clip-path="url(#clip580)" d="M1899.37 231.998 Q1894.28 231.998 1891.27 235.795 Q1888.28 239.591 1888.28 246.142 Q1888.28 252.67 1891.27 256.466 Q1894.28 260.262 1899.37 260.262 Q1904.46 260.262 1907.43 256.466 Q1910.41 252.67 1910.41 246.142 Q1910.41 239.591 1907.43 235.795 Q1904.46 231.998 1899.37 231.998 M1899.37 228.202 Q1906.64 228.202 1910.99 233.086 Q1915.34 237.948 1915.34 246.142 Q1915.34 254.313 1910.99 259.197 Q1906.64 264.058 1899.37 264.058 Q1892.08 264.058 1887.7 259.197 Q1883.35 254.336 1883.35 246.142 Q1883.35 237.948 1887.7 233.086 Q1892.08 228.202 1899.37 228.202 Z" fill="#000000" fill-rule="evenodd" fill-opacity="1" /><path clip-path="url(#clip580)" d="M1927.33 232.67 L1927.33 259.545 L1932.98 259.545 Q1940.13 259.545 1943.44 256.304 Q1946.78 253.063 1946.78 246.072 Q1946.78 239.128 1943.44 235.91 Q1940.13 232.67 1932.98 232.67 L1927.33 232.67 M1922.66 228.827 L1932.26 228.827 Q1942.31 228.827 1947.01 233.017 Q1951.71 237.184 1951.71 246.072 Q1951.71 255.008 1946.99 259.197 Q1942.26 263.387 1932.26 263.387 L1922.66 263.387 L1922.66 228.827 Z" fill="#000000" fill-rule="evenodd" fill-opacity="1" /><path clip-path="url(#clip580)" d="M1959.16 228.827 L1981.01 228.827 L1981.01 232.762 L1963.84 232.762 L1963.84 242.994 L1980.3 242.994 L1980.3 246.929 L1963.84 246.929 L1963.84 259.452 L1981.43 259.452 L1981.43 263.387 L1959.16 263.387 L1959.16 228.827 Z" fill="#000000" fill-rule="evenodd" fill-opacity="1" /><path clip-path="url(#clip580)" d="M2008.63 271.258 L2008.63 274.568 L1984 274.568 L1984 271.258 L2008.63 271.258 Z" fill="#000000" fill-rule="evenodd" fill-opacity="1" /><path clip-path="url(#clip580)" d="M2017.5 246.883 L2017.5 259.545 L2025 259.545 Q2028.77 259.545 2030.57 257.994 Q2032.4 256.42 2032.4 253.202 Q2032.4 249.961 2030.57 248.434 Q2028.77 246.883 2025 246.883 L2017.5 246.883 M2017.5 232.67 L2017.5 243.086 L2024.42 243.086 Q2027.84 243.086 2029.51 241.813 Q2031.2 240.517 2031.2 237.878 Q2031.2 235.262 2029.51 233.966 Q2027.84 232.67 2024.42 232.67 L2017.5 232.67 M2012.82 228.827 L2024.76 228.827 Q2030.11 228.827 2033 231.049 Q2035.9 233.272 2035.9 237.369 Q2035.9 240.54 2034.42 242.415 Q2032.93 244.29 2030.06 244.753 Q2033.51 245.494 2035.41 247.855 Q2037.33 250.193 2037.33 253.711 Q2037.33 258.341 2034.18 260.864 Q2031.04 263.387 2025.23 263.387 L2012.82 263.387 L2012.82 228.827 Z" fill="#000000" fill-rule="evenodd" fill-opacity="1" /><path clip-path="url(#clip580)" d="M2050.02 232.67 L2050.02 259.545 L2055.67 259.545 Q2062.82 259.545 2066.13 256.304 Q2069.46 253.063 2069.46 246.072 Q2069.46 239.128 2066.13 235.91 Q2062.82 232.67 2055.67 232.67 L2050.02 232.67 M2045.34 228.827 L2054.95 228.827 Q2064.99 228.827 2069.69 233.017 Q2074.39 237.184 2074.39 246.072 Q2074.39 255.008 2069.67 259.197 Q2064.95 263.387 2054.95 263.387 L2045.34 263.387 L2045.34 228.827 Z" fill="#000000" fill-rule="evenodd" fill-opacity="1" /><path clip-path="url(#clip580)" d="M2081.85 228.827 L2101.71 228.827 L2101.71 232.762 L2086.52 232.762 L2086.52 242.947 L2100.23 242.947 L2100.23 246.883 L2086.52 246.883 L2086.52 263.387 L2081.85 263.387 L2081.85 228.827 Z" fill="#000000" fill-rule="evenodd" fill-opacity="1" /><polyline clip-path="url(#clip580)" style="stroke:#c271d2; stroke-linecap:butt; stroke-linejoin:round; stroke-width:4; stroke-opacity:1; fill:none" points="
  1662.64,297.947 1796.37,297.947 
  "/>
<path clip-path="url(#clip580)" d="M1729.5 272.347 L1703.9 297.947 L1729.5 323.547 L1755.1 297.947 L1729.5 272.347 Z" fill="#c271d2" fill-rule="evenodd" fill-opacity="1" stroke="#000000" stroke-opacity="1" stroke-width="4.9152"/>
<path clip-path="url(#clip580)" d="M1818.65 280.667 L1847.89 280.667 L1847.89 284.602 L1835.62 284.602 L1835.62 315.227 L1830.92 315.227 L1830.92 284.602 L1818.65 284.602 L1818.65 280.667 Z" fill="#000000" fill-rule="evenodd" fill-opacity="1" /><path clip-path="url(#clip580)" d="M1868.79 299.024 Q1870.3 299.533 1871.71 301.199 Q1873.14 302.866 1874.58 305.783 L1879.32 315.227 L1874.3 315.227 L1869.88 306.361 Q1868.17 302.889 1866.55 301.755 Q1864.95 300.621 1862.17 300.621 L1857.08 300.621 L1857.08 315.227 L1852.4 315.227 L1852.4 280.667 L1862.96 280.667 Q1868.88 280.667 1871.8 283.144 Q1874.72 285.621 1874.72 290.621 Q1874.72 293.885 1873.19 296.037 Q1871.69 298.19 1868.79 299.024 M1857.08 284.51 L1857.08 296.778 L1862.96 296.778 Q1866.34 296.778 1868.05 295.227 Q1869.79 293.653 1869.79 290.621 Q1869.79 287.588 1868.05 286.061 Q1866.34 284.51 1862.96 284.51 L1857.08 284.51 Z" fill="#000000" fill-rule="evenodd" fill-opacity="1" /><path clip-path="url(#clip580)" d="M1890.02 298.723 L1890.02 311.385 L1897.52 311.385 Q1901.29 311.385 1903.1 309.834 Q1904.93 308.26 1904.93 305.042 Q1904.93 301.801 1903.1 300.274 Q1901.29 298.723 1897.52 298.723 L1890.02 298.723 M1890.02 284.51 L1890.02 294.926 L1896.94 294.926 Q1900.37 294.926 1902.03 293.653 Q1903.72 292.357 1903.72 289.718 Q1903.72 287.102 1902.03 285.806 Q1900.37 284.51 1896.94 284.51 L1890.02 284.51 M1885.34 280.667 L1897.29 280.667 Q1902.63 280.667 1905.53 282.889 Q1908.42 285.112 1908.42 289.209 Q1908.42 292.38 1906.94 294.255 Q1905.46 296.13 1902.59 296.593 Q1906.04 297.334 1907.94 299.695 Q1909.86 302.033 1909.86 305.551 Q1909.86 310.181 1906.71 312.704 Q1903.56 315.227 1897.75 315.227 L1885.34 315.227 L1885.34 280.667 Z" fill="#000000" fill-rule="evenodd" fill-opacity="1" /><path clip-path="url(#clip580)" d="M1922.54 284.51 L1922.54 311.385 L1928.19 311.385 Q1935.34 311.385 1938.65 308.144 Q1941.99 304.903 1941.99 297.912 Q1941.99 290.968 1938.65 287.75 Q1935.34 284.51 1928.19 284.51 L1922.54 284.51 M1917.87 280.667 L1927.47 280.667 Q1937.52 280.667 1942.22 284.857 Q1946.92 289.024 1946.92 297.912 Q1946.92 306.848 1942.19 311.037 Q1937.47 315.227 1927.47 315.227 L1917.87 315.227 L1917.87 280.667 Z" fill="#000000" fill-rule="evenodd" fill-opacity="1" /><path clip-path="url(#clip580)" d="M1954.37 280.667 L1974.23 280.667 L1974.23 284.602 L1959.05 284.602 L1959.05 294.787 L1972.75 294.787 L1972.75 298.723 L1959.05 298.723 L1959.05 315.227 L1954.37 315.227 L1954.37 280.667 Z" fill="#000000" fill-rule="evenodd" fill-opacity="1" /><path clip-path="url(#clip580)" d="M1986.08 311.292 L2002.4 311.292 L2002.4 315.227 L1980.46 315.227 L1980.46 311.292 Q1983.12 308.537 1987.7 303.908 Q1992.31 299.255 1993.49 297.912 Q1995.74 295.389 1996.62 293.653 Q1997.52 291.894 1997.52 290.204 Q1997.52 287.45 1995.57 285.713 Q1993.65 283.977 1990.55 283.977 Q1988.35 283.977 1985.9 284.741 Q1983.47 285.505 1980.69 287.056 L1980.69 282.334 Q1983.51 281.2 1985.97 280.621 Q1988.42 280.042 1990.46 280.042 Q1995.83 280.042 1999.02 282.727 Q2002.22 285.413 2002.22 289.903 Q2002.22 292.033 2001.41 293.954 Q2000.62 295.852 1998.51 298.445 Q1997.94 299.116 1994.83 302.334 Q1991.73 305.528 1986.08 311.292 Z" fill="#000000" fill-rule="evenodd" fill-opacity="1" /><polyline clip-path="url(#clip580)" style="stroke:#ac8d18; stroke-linecap:butt; stroke-linejoin:round; stroke-width:4; stroke-opacity:1; fill:none" points="
  1662.64,349.787 1796.37,349.787 
  "/>
<path clip-path="url(#clip580)" d="M1755.1 324.187 L1703.9 324.187 L1729.5 375.387 L1755.1 324.187 Z" fill="#ac8d18" fill-rule="evenodd" fill-opacity="1" stroke="#000000" stroke-opacity="1" stroke-width="4.9152"/>
<path clip-path="url(#clip580)" d="M1837.57 345.077 L1837.57 331.049 L1841.82 331.049 L1841.82 367.067 L1837.57 367.067 L1837.57 363.178 Q1836.22 365.493 1834.16 366.627 Q1832.13 367.738 1829.26 367.738 Q1824.56 367.738 1821.59 363.988 Q1818.65 360.239 1818.65 354.127 Q1818.65 348.016 1821.59 344.266 Q1824.56 340.516 1829.26 340.516 Q1832.13 340.516 1834.16 341.651 Q1836.22 342.762 1837.57 345.077 M1823.05 354.127 Q1823.05 358.826 1824.97 361.512 Q1826.92 364.174 1830.3 364.174 Q1833.68 364.174 1835.62 361.512 Q1837.57 358.826 1837.57 354.127 Q1837.57 349.428 1835.62 346.766 Q1833.68 344.081 1830.3 344.081 Q1826.92 344.081 1824.97 346.766 Q1823.05 349.428 1823.05 354.127 Z" fill="#000000" fill-rule="evenodd" fill-opacity="1" /><path clip-path="url(#clip580)" d="M1867.66 345.077 L1867.66 331.049 L1871.92 331.049 L1871.92 367.067 L1867.66 367.067 L1867.66 363.178 Q1866.32 365.493 1864.26 366.627 Q1862.22 367.738 1859.35 367.738 Q1854.65 367.738 1851.69 363.988 Q1848.75 360.239 1848.75 354.127 Q1848.75 348.016 1851.69 344.266 Q1854.65 340.516 1859.35 340.516 Q1862.22 340.516 1864.26 341.651 Q1866.32 342.762 1867.66 345.077 M1853.14 354.127 Q1853.14 358.826 1855.07 361.512 Q1857.01 364.174 1860.39 364.174 Q1863.77 364.174 1865.71 361.512 Q1867.66 358.826 1867.66 354.127 Q1867.66 349.428 1865.71 346.766 Q1863.77 344.081 1860.39 344.081 Q1857.01 344.081 1855.07 346.766 Q1853.14 349.428 1853.14 354.127 Z" fill="#000000" fill-rule="evenodd" fill-opacity="1" /><path clip-path="url(#clip580)" d="M1902.87 353.039 L1902.87 355.123 L1883.28 355.123 Q1883.56 359.521 1885.92 361.836 Q1888.31 364.127 1892.54 364.127 Q1895 364.127 1897.29 363.526 Q1899.6 362.924 1901.87 361.72 L1901.87 365.748 Q1899.58 366.72 1897.17 367.229 Q1894.76 367.738 1892.29 367.738 Q1886.08 367.738 1882.45 364.127 Q1878.84 360.516 1878.84 354.359 Q1878.84 347.993 1882.26 344.266 Q1885.71 340.516 1891.55 340.516 Q1896.78 340.516 1899.81 343.896 Q1902.87 347.252 1902.87 353.039 M1898.61 351.789 Q1898.56 348.294 1896.64 346.211 Q1894.74 344.127 1891.59 344.127 Q1888.03 344.127 1885.88 346.141 Q1883.75 348.155 1883.42 351.813 L1898.61 351.789 Z" fill="#000000" fill-rule="evenodd" fill-opacity="1" /><path clip-path="url(#clip580)" d="M1928.47 354.127 Q1928.47 349.428 1926.52 346.766 Q1924.6 344.081 1921.22 344.081 Q1917.84 344.081 1915.9 346.766 Q1913.98 349.428 1913.98 354.127 Q1913.98 358.826 1915.9 361.512 Q1917.84 364.174 1921.22 364.174 Q1924.6 364.174 1926.52 361.512 Q1928.47 358.826 1928.47 354.127 M1913.98 345.077 Q1915.32 342.762 1917.36 341.651 Q1919.42 340.516 1922.26 340.516 Q1926.99 340.516 1929.93 344.266 Q1932.89 348.016 1932.89 354.127 Q1932.89 360.239 1929.93 363.988 Q1926.99 367.738 1922.26 367.738 Q1919.42 367.738 1917.36 366.627 Q1915.32 365.493 1913.98 363.178 L1913.98 367.067 L1909.69 367.067 L1909.69 331.049 L1913.98 331.049 L1913.98 345.077 Z" fill="#000000" fill-rule="evenodd" fill-opacity="1" /><path clip-path="url(#clip580)" d="M1957.01 345.077 L1957.01 331.049 L1961.27 331.049 L1961.27 367.067 L1957.01 367.067 L1957.01 363.178 Q1955.67 365.493 1953.61 366.627 Q1951.57 367.738 1948.7 367.738 Q1944 367.738 1941.04 363.988 Q1938.1 360.239 1938.1 354.127 Q1938.1 348.016 1941.04 344.266 Q1944 340.516 1948.7 340.516 Q1951.57 340.516 1953.61 341.651 Q1955.67 342.762 1957.01 345.077 M1942.5 354.127 Q1942.5 358.826 1944.42 361.512 Q1946.36 364.174 1949.74 364.174 Q1953.12 364.174 1955.06 361.512 Q1957.01 358.826 1957.01 354.127 Q1957.01 349.428 1955.06 346.766 Q1953.12 344.081 1949.74 344.081 Q1946.36 344.081 1944.42 346.766 Q1942.5 349.428 1942.5 354.127 Z" fill="#000000" fill-rule="evenodd" fill-opacity="1" /><path clip-path="url(#clip580)" d="M1983.17 331.049 L1983.17 334.591 L1979.09 334.591 Q1976.8 334.591 1975.9 335.516 Q1975.02 336.442 1975.02 338.85 L1975.02 341.141 L1982.03 341.141 L1982.03 344.452 L1975.02 344.452 L1975.02 367.067 L1970.74 367.067 L1970.74 344.452 L1966.66 344.452 L1966.66 341.141 L1970.74 341.141 L1970.74 339.336 Q1970.74 335.007 1972.75 333.04 Q1974.76 331.049 1979.14 331.049 L1983.17 331.049 Z" fill="#000000" fill-rule="evenodd" fill-opacity="1" /><polyline clip-path="url(#clip580)" style="stroke:#00a9ad; stroke-linecap:butt; stroke-linejoin:round; stroke-width:4; stroke-opacity:1; fill:none" points="
  1662.64,401.627 1796.37,401.627 
  "/>
<path clip-path="url(#clip580)" d="M1729.5 376.027 L1709.48 385.678 L1704.54 407.336 L1718.39 424.693 L1740.61 424.693 L1754.46 407.336 L1749.52 385.678 Z" fill="#00a9ad" fill-rule="evenodd" fill-opacity="1" stroke="#000000" stroke-opacity="1" stroke-width="4.9152"/>
<path clip-path="url(#clip580)" d="M1833.84 396.963 Q1833.12 396.546 1832.26 396.361 Q1831.43 396.153 1830.41 396.153 Q1826.8 396.153 1824.86 398.514 Q1822.94 400.852 1822.94 405.25 L1822.94 418.907 L1818.65 418.907 L1818.65 392.981 L1822.94 392.981 L1822.94 397.009 Q1824.28 394.648 1826.43 393.514 Q1828.58 392.356 1831.66 392.356 Q1832.1 392.356 1832.63 392.426 Q1833.17 392.472 1833.82 392.588 L1833.84 396.963 Z" fill="#000000" fill-rule="evenodd" fill-opacity="1" /><path clip-path="url(#clip580)" d="M1847.31 395.967 Q1843.88 395.967 1841.89 398.653 Q1839.9 401.315 1839.9 405.967 Q1839.9 410.62 1841.87 413.305 Q1843.86 415.967 1847.31 415.967 Q1850.71 415.967 1852.7 413.282 Q1854.7 410.597 1854.7 405.967 Q1854.7 401.361 1852.7 398.676 Q1850.71 395.967 1847.31 395.967 M1847.31 392.356 Q1852.87 392.356 1856.04 395.967 Q1859.21 399.579 1859.21 405.967 Q1859.21 412.333 1856.04 415.967 Q1852.87 419.578 1847.31 419.578 Q1841.73 419.578 1838.56 415.967 Q1835.41 412.333 1835.41 405.967 Q1835.41 399.579 1838.56 395.967 Q1841.73 392.356 1847.31 392.356 Z" fill="#000000" fill-rule="evenodd" fill-opacity="1" /><path clip-path="url(#clip580)" d="M1883.33 396.917 L1883.33 382.889 L1887.59 382.889 L1887.59 418.907 L1883.33 418.907 L1883.33 415.018 Q1881.99 417.333 1879.93 418.467 Q1877.89 419.578 1875.02 419.578 Q1870.32 419.578 1867.36 415.828 Q1864.42 412.079 1864.42 405.967 Q1864.42 399.856 1867.36 396.106 Q1870.32 392.356 1875.02 392.356 Q1877.89 392.356 1879.93 393.491 Q1881.99 394.602 1883.33 396.917 M1868.82 405.967 Q1868.82 410.666 1870.74 413.352 Q1872.68 416.014 1876.06 416.014 Q1879.44 416.014 1881.38 413.352 Q1883.33 410.666 1883.33 405.967 Q1883.33 401.268 1881.38 398.606 Q1879.44 395.921 1876.06 395.921 Q1872.68 395.921 1870.74 398.606 Q1868.82 401.268 1868.82 405.967 Z" fill="#000000" fill-rule="evenodd" fill-opacity="1" /><path clip-path="url(#clip580)" d="M1908.14 405.875 Q1902.98 405.875 1900.99 407.055 Q1899 408.236 1899 411.083 Q1899 413.352 1900.48 414.694 Q1901.99 416.014 1904.56 416.014 Q1908.1 416.014 1910.23 413.514 Q1912.38 410.991 1912.38 406.824 L1912.38 405.875 L1908.14 405.875 M1916.64 404.116 L1916.64 418.907 L1912.38 418.907 L1912.38 414.972 Q1910.92 417.333 1908.75 418.467 Q1906.57 419.578 1903.42 419.578 Q1899.44 419.578 1897.08 417.356 Q1894.74 415.111 1894.74 411.361 Q1894.74 406.986 1897.66 404.764 Q1900.6 402.542 1906.41 402.542 L1912.38 402.542 L1912.38 402.125 Q1912.38 399.185 1910.44 397.588 Q1908.51 395.967 1905.02 395.967 Q1902.8 395.967 1900.69 396.5 Q1898.58 397.032 1896.64 398.097 L1896.64 394.162 Q1898.98 393.259 1901.18 392.819 Q1903.38 392.356 1905.46 392.356 Q1911.08 392.356 1913.86 395.273 Q1916.64 398.19 1916.64 404.116 Z" fill="#000000" fill-rule="evenodd" fill-opacity="1" /><path clip-path="url(#clip580)" d="M1941.94 393.745 L1941.94 397.773 Q1940.13 396.847 1938.19 396.384 Q1936.25 395.921 1934.16 395.921 Q1930.99 395.921 1929.39 396.893 Q1927.82 397.866 1927.82 399.81 Q1927.82 401.292 1928.95 402.148 Q1930.09 402.981 1933.51 403.745 L1934.97 404.069 Q1939.51 405.042 1941.41 406.824 Q1943.33 408.583 1943.33 411.754 Q1943.33 415.366 1940.46 417.472 Q1937.61 419.578 1932.61 419.578 Q1930.53 419.578 1928.26 419.162 Q1926.01 418.768 1923.51 417.958 L1923.51 413.56 Q1925.88 414.787 1928.17 415.412 Q1930.46 416.014 1932.7 416.014 Q1935.71 416.014 1937.33 414.995 Q1938.95 413.954 1938.95 412.079 Q1938.95 410.342 1937.77 409.416 Q1936.62 408.491 1932.66 407.634 L1931.18 407.287 Q1927.22 406.454 1925.46 404.741 Q1923.7 403.004 1923.7 399.995 Q1923.7 396.338 1926.29 394.347 Q1928.88 392.356 1933.65 392.356 Q1936.01 392.356 1938.1 392.704 Q1940.18 393.051 1941.94 393.745 Z" fill="#000000" fill-rule="evenodd" fill-opacity="1" /><polyline clip-path="url(#clip580)" style="stroke:#ed5d92; stroke-linecap:butt; stroke-linejoin:round; stroke-width:4; stroke-opacity:1; fill:none" points="
  1662.64,453.467 1796.37,453.467 
  "/>
<path clip-path="url(#clip580)" d="M1729.5 479.067 L1707.33 466.267 L1707.33 440.667 L1729.5 427.867 L1751.67 440.667 L1751.67 466.267 Z" fill="#ed5d92" fill-rule="evenodd" fill-opacity="1" stroke="#000000" stroke-opacity="1" stroke-width="4.9152"/>
<path clip-path="url(#clip580)" d="M1818.65 434.729 L1822.91 434.729 L1822.91 470.747 L1818.65 470.747 L1818.65 434.729 Z" fill="#000000" fill-rule="evenodd" fill-opacity="1" /><path clip-path="url(#clip580)" d="M1848.35 445.585 L1848.35 449.613 Q1846.55 448.687 1844.6 448.224 Q1842.66 447.761 1840.57 447.761 Q1837.4 447.761 1835.81 448.733 Q1834.23 449.706 1834.23 451.65 Q1834.23 453.132 1835.37 453.988 Q1836.5 454.821 1839.93 455.585 L1841.38 455.909 Q1845.92 456.882 1847.82 458.664 Q1849.74 460.423 1849.74 463.594 Q1849.74 467.206 1846.87 469.312 Q1844.02 471.418 1839.02 471.418 Q1836.94 471.418 1834.67 471.002 Q1832.43 470.608 1829.93 469.798 L1829.93 465.4 Q1832.29 466.627 1834.58 467.252 Q1836.87 467.854 1839.12 467.854 Q1842.13 467.854 1843.75 466.835 Q1845.37 465.794 1845.37 463.919 Q1845.37 462.182 1844.19 461.256 Q1843.03 460.331 1839.07 459.474 L1837.59 459.127 Q1833.63 458.294 1831.87 456.581 Q1830.11 454.844 1830.11 451.835 Q1830.11 448.178 1832.7 446.187 Q1835.3 444.196 1840.07 444.196 Q1842.43 444.196 1844.51 444.544 Q1846.59 444.891 1848.35 445.585 Z" fill="#000000" fill-rule="evenodd" fill-opacity="1" /><path clip-path="url(#clip580)" d="M1866.57 447.807 Q1863.14 447.807 1861.15 450.493 Q1859.16 453.155 1859.16 457.807 Q1859.16 462.46 1861.13 465.145 Q1863.12 467.807 1866.57 467.807 Q1869.97 467.807 1871.96 465.122 Q1873.95 462.437 1873.95 457.807 Q1873.95 453.201 1871.96 450.516 Q1869.97 447.807 1866.57 447.807 M1866.57 444.196 Q1872.13 444.196 1875.3 447.807 Q1878.47 451.419 1878.47 457.807 Q1878.47 464.173 1875.3 467.807 Q1872.13 471.418 1866.57 471.418 Q1860.99 471.418 1857.82 467.807 Q1854.67 464.173 1854.67 457.807 Q1854.67 451.419 1857.82 447.807 Q1860.99 444.196 1866.57 444.196 Z" fill="#000000" fill-rule="evenodd" fill-opacity="1" /><path clip-path="url(#clip580)" d="M1902.59 448.757 L1902.59 434.729 L1906.85 434.729 L1906.85 470.747 L1902.59 470.747 L1902.59 466.858 Q1901.25 469.173 1899.19 470.307 Q1897.15 471.418 1894.28 471.418 Q1889.58 471.418 1886.62 467.668 Q1883.68 463.919 1883.68 457.807 Q1883.68 451.696 1886.62 447.946 Q1889.58 444.196 1894.28 444.196 Q1897.15 444.196 1899.19 445.331 Q1901.25 446.442 1902.59 448.757 M1888.07 457.807 Q1888.07 462.506 1890 465.192 Q1891.94 467.854 1895.32 467.854 Q1898.7 467.854 1900.64 465.192 Q1902.59 462.506 1902.59 457.807 Q1902.59 453.108 1900.64 450.446 Q1898.7 447.761 1895.32 447.761 Q1891.94 447.761 1890 450.446 Q1888.07 453.108 1888.07 457.807 Z" fill="#000000" fill-rule="evenodd" fill-opacity="1" /><path clip-path="url(#clip580)" d="M1927.4 457.715 Q1922.24 457.715 1920.25 458.895 Q1918.26 460.076 1918.26 462.923 Q1918.26 465.192 1919.74 466.534 Q1921.25 467.854 1923.82 467.854 Q1927.36 467.854 1929.49 465.354 Q1931.64 462.831 1931.64 458.664 L1931.64 457.715 L1927.4 457.715 M1935.9 455.956 L1935.9 470.747 L1931.64 470.747 L1931.64 466.812 Q1930.18 469.173 1928 470.307 Q1925.83 471.418 1922.68 471.418 Q1918.7 471.418 1916.34 469.196 Q1914 466.951 1914 463.201 Q1914 458.826 1916.92 456.604 Q1919.86 454.382 1925.67 454.382 L1931.64 454.382 L1931.64 453.965 Q1931.64 451.025 1929.69 449.428 Q1927.77 447.807 1924.28 447.807 Q1922.06 447.807 1919.95 448.34 Q1917.84 448.872 1915.9 449.937 L1915.9 446.002 Q1918.24 445.099 1920.44 444.659 Q1922.63 444.196 1924.72 444.196 Q1930.34 444.196 1933.12 447.113 Q1935.9 450.03 1935.9 455.956 Z" fill="#000000" fill-rule="evenodd" fill-opacity="1" /><polyline clip-path="url(#clip580)" style="stroke:#c68125; stroke-linecap:butt; stroke-linejoin:round; stroke-width:4; stroke-opacity:1; fill:none" points="
  1662.64,505.307 1796.37,505.307 
  "/>
<line clip-path="url(#clip580)" x1="1755.1" y1="505.307" x2="1703.9" y2="505.307" style="stroke:#c68125; stroke-width:4.9152; stroke-opacity:1"/>
<path clip-path="url(#clip580)" d="M1833.84 500.643 Q1833.12 500.226 1832.26 500.041 Q1831.43 499.833 1830.41 499.833 Q1826.8 499.833 1824.86 502.194 Q1822.94 504.532 1822.94 508.93 L1822.94 522.587 L1818.65 522.587 L1818.65 496.661 L1822.94 496.661 L1822.94 500.689 Q1824.28 498.328 1826.43 497.194 Q1828.58 496.036 1831.66 496.036 Q1832.1 496.036 1832.63 496.106 Q1833.17 496.152 1833.82 496.268 L1833.84 500.643 Z" fill="#000000" fill-rule="evenodd" fill-opacity="1" /><path clip-path="url(#clip580)" d="M1850.09 509.555 Q1844.93 509.555 1842.94 510.735 Q1840.95 511.916 1840.95 514.763 Q1840.95 517.032 1842.43 518.374 Q1843.93 519.694 1846.5 519.694 Q1850.04 519.694 1852.17 517.194 Q1854.32 514.671 1854.32 510.504 L1854.32 509.555 L1850.09 509.555 M1858.58 507.796 L1858.58 522.587 L1854.32 522.587 L1854.32 518.652 Q1852.87 521.013 1850.69 522.147 Q1848.51 523.258 1845.37 523.258 Q1841.38 523.258 1839.02 521.036 Q1836.69 518.791 1836.69 515.041 Q1836.69 510.666 1839.6 508.444 Q1842.54 506.222 1848.35 506.222 L1854.32 506.222 L1854.32 505.805 Q1854.32 502.865 1852.38 501.268 Q1850.46 499.647 1846.96 499.647 Q1844.74 499.647 1842.63 500.18 Q1840.53 500.712 1838.58 501.777 L1838.58 497.842 Q1840.92 496.939 1843.12 496.499 Q1845.32 496.036 1847.4 496.036 Q1853.03 496.036 1855.81 498.953 Q1858.58 501.87 1858.58 507.796 Z" fill="#000000" fill-rule="evenodd" fill-opacity="1" /><path clip-path="url(#clip580)" d="M1884.42 500.597 L1884.42 486.569 L1888.68 486.569 L1888.68 522.587 L1884.42 522.587 L1884.42 518.698 Q1883.07 521.013 1881.01 522.147 Q1878.98 523.258 1876.11 523.258 Q1871.41 523.258 1868.44 519.508 Q1865.51 515.759 1865.51 509.647 Q1865.51 503.536 1868.44 499.786 Q1871.41 496.036 1876.11 496.036 Q1878.98 496.036 1881.01 497.171 Q1883.07 498.282 1884.42 500.597 M1869.9 509.647 Q1869.9 514.346 1871.82 517.032 Q1873.77 519.694 1877.15 519.694 Q1880.53 519.694 1882.47 517.032 Q1884.42 514.346 1884.42 509.647 Q1884.42 504.948 1882.47 502.286 Q1880.53 499.601 1877.15 499.601 Q1873.77 499.601 1871.82 502.286 Q1869.9 504.948 1869.9 509.647 Z" fill="#000000" fill-rule="evenodd" fill-opacity="1" /><path clip-path="url(#clip580)" d="M1909.23 509.555 Q1904.07 509.555 1902.08 510.735 Q1900.09 511.916 1900.09 514.763 Q1900.09 517.032 1901.57 518.374 Q1903.07 519.694 1905.64 519.694 Q1909.19 519.694 1911.32 517.194 Q1913.47 514.671 1913.47 510.504 L1913.47 509.555 L1909.23 509.555 M1917.73 507.796 L1917.73 522.587 L1913.47 522.587 L1913.47 518.652 Q1912.01 521.013 1909.83 522.147 Q1907.66 523.258 1904.51 523.258 Q1900.53 523.258 1898.17 521.036 Q1895.83 518.791 1895.83 515.041 Q1895.83 510.666 1898.75 508.444 Q1901.69 506.222 1907.5 506.222 L1913.47 506.222 L1913.47 505.805 Q1913.47 502.865 1911.52 501.268 Q1909.6 499.647 1906.11 499.647 Q1903.88 499.647 1901.78 500.18 Q1899.67 500.712 1897.73 501.777 L1897.73 497.842 Q1900.07 496.939 1902.26 496.499 Q1904.46 496.036 1906.55 496.036 Q1912.17 496.036 1914.95 498.953 Q1917.73 501.87 1917.73 507.796 Z" fill="#000000" fill-rule="evenodd" fill-opacity="1" /><path clip-path="url(#clip580)" d="M1926.06 512.356 L1926.06 496.661 L1930.32 496.661 L1930.32 512.194 Q1930.32 515.874 1931.75 517.726 Q1933.19 519.555 1936.06 519.555 Q1939.51 519.555 1941.5 517.356 Q1943.51 515.157 1943.51 511.36 L1943.51 496.661 L1947.77 496.661 L1947.77 522.587 L1943.51 522.587 L1943.51 518.606 Q1941.96 520.967 1939.9 522.124 Q1937.87 523.258 1935.16 523.258 Q1930.69 523.258 1928.38 520.481 Q1926.06 517.703 1926.06 512.356 M1936.78 496.036 L1936.78 496.036 Z" fill="#000000" fill-rule="evenodd" fill-opacity="1" /></svg>
