<?xml version="1.0" encoding="utf-8"?>
<svg xmlns="http://www.w3.org/2000/svg" xmlns:xlink="http://www.w3.org/1999/xlink" width="576" height="384" viewBox="0 0 2304 1536">
<defs>
  <clipPath id="clip460">
    <rect x="0" y="0" width="2304" height="1536"/>
  </clipPath>
</defs>
<path clip-path="url(#clip460)" d="
M0 1536 L2304 1536 L2304 0 L0 0  Z
  " fill="#ffffff" fill-rule="evenodd" fill-opacity="1"/>
<defs>
  <clipPath id="clip461">
    <rect x="460" y="0" width="1614" height="1536"/>
  </clipPath>
</defs>
<path clip-path="url(#clip460)" d="
M250.882 1347.54 L2256.76 1347.54 L2256.76 47.2441 L250.882 47.2441  Z
  " fill="#ffffff" fill-rule="evenodd" fill-opacity="1"/>
<defs>
  <clipPath id="clip462">
    <rect x="250" y="47" width="2007" height="1301"/>
  </clipPath>
</defs>
<polyline clip-path="url(#clip462)" style="stroke:#000000; stroke-linecap:butt; stroke-linejoin:round; stroke-width:2; stroke-opacity:0.1; fill:none" points="
  538.009,1347.54 538.009,47.2441 
  "/>
<polyline clip-path="url(#clip462)" style="stroke:#000000; stroke-linecap:butt; stroke-linejoin:round; stroke-width:2; stroke-opacity:0.1; fill:none" points="
  1797.46,1347.54 1797.46,47.2441 
  "/>
<polyline clip-path="url(#clip460)" style="stroke:#000000; stroke-linecap:butt; stroke-linejoin:round; stroke-width:4; stroke-opacity:1; fill:none" points="
  250.882,1347.54 2256.76,1347.54 
  "/>
<polyline clip-path="url(#clip460)" style="stroke:#000000; stroke-linecap:butt; stroke-linejoin:round; stroke-width:4; stroke-opacity:1; fill:none" points="
  538.009,1347.54 538.009,1328.64 
  "/>
<polyline clip-path="url(#clip460)" style="stroke:#000000; stroke-linecap:butt; stroke-linejoin:round; stroke-width:4; stroke-opacity:1; fill:none" points="
  1797.46,1347.54 1797.46,1328.64 
  "/>
<path clip-path="url(#clip460)" d="M488.031 1420.89 L495.669 1420.89 L495.669 1394.53 L487.359 1396.19 L487.359 1391.94 L495.623 1390.27 L500.299 1390.27 L500.299 1420.89 L507.938 1420.89 L507.938 1424.83 L488.031 1424.83 L488.031 1420.89 Z" fill="#000000" fill-rule="evenodd" fill-opacity="1" /><path clip-path="url(#clip460)" d="M527.382 1393.35 Q523.771 1393.35 521.942 1396.91 Q520.137 1400.45 520.137 1407.58 Q520.137 1414.69 521.942 1418.25 Q523.771 1421.8 527.382 1421.8 Q531.016 1421.8 532.822 1418.25 Q534.651 1414.69 534.651 1407.58 Q534.651 1400.45 532.822 1396.91 Q531.016 1393.35 527.382 1393.35 M527.382 1389.64 Q533.192 1389.64 536.248 1394.25 Q539.327 1398.83 539.327 1407.58 Q539.327 1416.31 536.248 1420.92 Q533.192 1425.5 527.382 1425.5 Q521.572 1425.5 518.493 1420.92 Q515.438 1416.31 515.438 1407.58 Q515.438 1398.83 518.493 1394.25 Q521.572 1389.64 527.382 1389.64 Z" fill="#000000" fill-rule="evenodd" fill-opacity="1" /><path clip-path="url(#clip460)" d="M539.327 1383.74 L563.438 1383.74 L563.438 1386.94 L539.327 1386.94 L539.327 1383.74 Z" fill="#000000" fill-rule="evenodd" fill-opacity="1" /><path clip-path="url(#clip460)" d="M571.676 1369.34 L586.591 1369.34 L586.591 1372.54 L575.155 1372.54 L575.155 1379.42 Q575.983 1379.14 576.811 1379.01 Q577.638 1378.85 578.466 1378.85 Q583.168 1378.85 585.913 1381.43 Q588.659 1384.01 588.659 1388.41 Q588.659 1392.94 585.838 1395.46 Q583.017 1397.96 577.883 1397.96 Q576.115 1397.96 574.271 1397.66 Q572.447 1397.36 570.491 1396.76 L570.491 1392.94 Q572.184 1393.86 573.989 1394.31 Q575.795 1394.77 577.807 1394.77 Q581.061 1394.77 582.961 1393.05 Q584.86 1391.34 584.86 1388.41 Q584.86 1385.48 582.961 1383.76 Q581.061 1382.05 577.807 1382.05 Q576.284 1382.05 574.76 1382.39 Q573.256 1382.73 571.676 1383.44 L571.676 1369.34 Z" fill="#000000" fill-rule="evenodd" fill-opacity="1" /><path clip-path="url(#clip460)" d="M1762.44 1420.89 L1770.08 1420.89 L1770.08 1394.53 L1761.77 1396.19 L1761.77 1391.94 L1770.03 1390.27 L1774.71 1390.27 L1774.71 1420.89 L1782.35 1420.89 L1782.35 1424.83 L1762.44 1424.83 L1762.44 1420.89 Z" fill="#000000" fill-rule="evenodd" fill-opacity="1" /><path clip-path="url(#clip460)" d="M1801.79 1393.35 Q1798.18 1393.35 1796.35 1396.91 Q1794.55 1400.45 1794.55 1407.58 Q1794.55 1414.69 1796.35 1418.25 Q1798.18 1421.8 1801.79 1421.8 Q1805.43 1421.8 1807.23 1418.25 Q1809.06 1414.69 1809.06 1407.58 Q1809.06 1400.45 1807.23 1396.91 Q1805.43 1393.35 1801.79 1393.35 M1801.79 1389.64 Q1807.6 1389.64 1810.66 1394.25 Q1813.74 1398.83 1813.74 1407.58 Q1813.74 1416.31 1810.66 1420.92 Q1807.6 1425.5 1801.79 1425.5 Q1795.98 1425.5 1792.9 1420.92 Q1789.85 1416.31 1789.85 1407.58 Q1789.85 1398.83 1792.9 1394.25 Q1795.98 1389.64 1801.79 1389.64 Z" fill="#000000" fill-rule="evenodd" fill-opacity="1" /><path clip-path="url(#clip460)" d="M1823.44 1371.84 Q1820.51 1371.84 1819.02 1374.74 Q1817.56 1377.61 1817.56 1383.41 Q1817.56 1389.18 1819.02 1392.08 Q1820.51 1394.95 1823.44 1394.95 Q1826.4 1394.95 1827.86 1392.08 Q1829.35 1389.18 1829.35 1383.41 Q1829.35 1377.61 1827.86 1374.74 Q1826.4 1371.84 1823.44 1371.84 M1823.44 1368.83 Q1828.16 1368.83 1830.65 1372.57 Q1833.15 1376.3 1833.15 1383.41 Q1833.15 1390.5 1830.65 1394.24 Q1828.16 1397.96 1823.44 1397.96 Q1818.72 1397.96 1816.22 1394.24 Q1813.74 1390.5 1813.74 1383.41 Q1813.74 1376.3 1816.22 1372.57 Q1818.72 1368.83 1823.44 1368.83 Z" fill="#000000" fill-rule="evenodd" fill-opacity="1" /><path clip-path="url(#clip460)" d="M1177.57 1461.87 L1207.62 1461.87 L1207.62 1467.28 L1184 1467.28 L1184 1481.34 L1206.63 1481.34 L1206.63 1486.76 L1184 1486.76 L1184 1503.97 L1208.19 1503.97 L1208.19 1509.39 L1177.57 1509.39 L1177.57 1461.87 Z" fill="#000000" fill-rule="evenodd" fill-opacity="1" /><path clip-path="url(#clip460)" d="M1239.16 1479.21 Q1238.18 1478.64 1237 1478.38 Q1235.85 1478.1 1234.45 1478.1 Q1229.49 1478.1 1226.81 1481.34 Q1224.17 1484.56 1224.17 1490.61 L1224.17 1509.39 L1218.28 1509.39 L1218.28 1473.74 L1224.17 1473.74 L1224.17 1479.28 Q1226.02 1476.03 1228.98 1474.47 Q1231.94 1472.88 1236.17 1472.88 Q1236.77 1472.88 1237.51 1472.97 Q1238.24 1473.04 1239.13 1473.2 L1239.16 1479.21 Z" fill="#000000" fill-rule="evenodd" fill-opacity="1" /><path clip-path="url(#clip460)" d="M1264.82 1479.21 Q1263.83 1478.64 1262.65 1478.38 Q1261.51 1478.1 1260.11 1478.1 Q1255.14 1478.1 1252.47 1481.34 Q1249.82 1484.56 1249.82 1490.61 L1249.82 1509.39 L1243.94 1509.39 L1243.94 1473.74 L1249.82 1473.74 L1249.82 1479.28 Q1251.67 1476.03 1254.63 1474.47 Q1257.59 1472.88 1261.82 1472.88 Q1262.43 1472.88 1263.16 1472.97 Q1263.89 1473.04 1264.78 1473.2 L1264.82 1479.21 Z" fill="#000000" fill-rule="evenodd" fill-opacity="1" /><path clip-path="url(#clip460)" d="M1283.34 1477.84 Q1278.63 1477.84 1275.89 1481.54 Q1273.15 1485.2 1273.15 1491.59 Q1273.15 1497.99 1275.86 1501.68 Q1278.6 1505.34 1283.34 1505.34 Q1288.02 1505.34 1290.76 1501.65 Q1293.49 1497.96 1293.49 1491.59 Q1293.49 1485.26 1290.76 1481.57 Q1288.02 1477.84 1283.34 1477.84 M1283.34 1472.88 Q1290.98 1472.88 1295.34 1477.84 Q1299.7 1482.81 1299.7 1491.59 Q1299.7 1500.35 1295.34 1505.34 Q1290.98 1510.31 1283.34 1510.31 Q1275.67 1510.31 1271.31 1505.34 Q1266.98 1500.35 1266.98 1491.59 Q1266.98 1482.81 1271.31 1477.84 Q1275.67 1472.88 1283.34 1472.88 Z" fill="#000000" fill-rule="evenodd" fill-opacity="1" /><path clip-path="url(#clip460)" d="M1330.06 1479.21 Q1329.08 1478.64 1327.9 1478.38 Q1326.75 1478.1 1325.35 1478.1 Q1320.39 1478.1 1317.71 1481.34 Q1315.07 1484.56 1315.07 1490.61 L1315.07 1509.39 L1309.18 1509.39 L1309.18 1473.74 L1315.07 1473.74 L1315.07 1479.28 Q1316.92 1476.03 1319.88 1474.47 Q1322.84 1472.88 1327.07 1472.88 Q1327.68 1472.88 1328.41 1472.97 Q1329.14 1473.04 1330.03 1473.2 L1330.06 1479.21 Z" fill="#000000" fill-rule="evenodd" fill-opacity="1" /><polyline clip-path="url(#clip462)" style="stroke:#000000; stroke-linecap:butt; stroke-linejoin:round; stroke-width:2; stroke-opacity:0.1; fill:none" points="
  250.882,1015.18 2256.76,1015.18 
  "/>
<polyline clip-path="url(#clip462)" style="stroke:#000000; stroke-linecap:butt; stroke-linejoin:round; stroke-width:2; stroke-opacity:0.1; fill:none" points="
  250.882,577.006 2256.76,577.006 
  "/>
<polyline clip-path="url(#clip462)" style="stroke:#000000; stroke-linecap:butt; stroke-linejoin:round; stroke-width:2; stroke-opacity:0.1; fill:none" points="
  250.882,138.831 2256.76,138.831 
  "/>
<polyline clip-path="url(#clip460)" style="stroke:#000000; stroke-linecap:butt; stroke-linejoin:round; stroke-width:4; stroke-opacity:1; fill:none" points="
  250.882,1347.54 250.882,47.2441 
  "/>
<polyline clip-path="url(#clip460)" style="stroke:#000000; stroke-linecap:butt; stroke-linejoin:round; stroke-width:4; stroke-opacity:1; fill:none" points="
  250.882,1015.18 269.78,1015.18 
  "/>
<polyline clip-path="url(#clip460)" style="stroke:#000000; stroke-linecap:butt; stroke-linejoin:round; stroke-width:4; stroke-opacity:1; fill:none" points="
  250.882,577.006 269.78,577.006 
  "/>
<polyline clip-path="url(#clip460)" style="stroke:#000000; stroke-linecap:butt; stroke-linejoin:round; stroke-width:4; stroke-opacity:1; fill:none" points="
  250.882,138.831 269.78,138.831 
  "/>
<path clip-path="url(#clip460)" d="M115.411 1034.97 L123.05 1034.97 L123.05 1008.61 L114.74 1010.28 L114.74 1006.02 L123.004 1004.35 L127.68 1004.35 L127.68 1034.97 L135.319 1034.97 L135.319 1038.91 L115.411 1038.91 L115.411 1034.97 Z" fill="#000000" fill-rule="evenodd" fill-opacity="1" /><path clip-path="url(#clip460)" d="M154.763 1007.43 Q151.152 1007.43 149.323 1010.99 Q147.518 1014.53 147.518 1021.66 Q147.518 1028.77 149.323 1032.34 Q151.152 1035.88 154.763 1035.88 Q158.397 1035.88 160.203 1032.34 Q162.032 1028.77 162.032 1021.66 Q162.032 1014.53 160.203 1010.99 Q158.397 1007.43 154.763 1007.43 M154.763 1003.72 Q160.573 1003.72 163.629 1008.33 Q166.707 1012.91 166.707 1021.66 Q166.707 1030.39 163.629 1035 Q160.573 1039.58 154.763 1039.58 Q148.953 1039.58 145.874 1035 Q142.819 1030.39 142.819 1021.66 Q142.819 1012.91 145.874 1008.33 Q148.953 1003.72 154.763 1003.72 Z" fill="#000000" fill-rule="evenodd" fill-opacity="1" /><path clip-path="url(#clip460)" d="M166.707 997.826 L190.819 997.826 L190.819 1001.02 L166.707 1001.02 L166.707 997.826 Z" fill="#000000" fill-rule="evenodd" fill-opacity="1" /><path clip-path="url(#clip460)" d="M210.53 996.359 Q213.257 996.942 214.78 998.785 Q216.322 1000.63 216.322 1003.34 Q216.322 1007.49 213.464 1009.77 Q210.605 1012.04 205.339 1012.04 Q203.571 1012.04 201.69 1011.69 Q199.828 1011.35 197.834 1010.65 L197.834 1006.99 Q199.414 1007.91 201.295 1008.38 Q203.176 1008.85 205.226 1008.85 Q208.799 1008.85 210.661 1007.44 Q212.542 1006.03 212.542 1003.34 Q212.542 1000.85 210.793 999.462 Q209.063 998.051 205.959 998.051 L202.687 998.051 L202.687 994.929 L206.11 994.929 Q208.912 994.929 210.398 993.82 Q211.884 992.691 211.884 990.585 Q211.884 988.422 210.341 987.275 Q208.818 986.109 205.959 986.109 Q204.398 986.109 202.612 986.447 Q200.825 986.786 198.681 987.5 L198.681 984.115 Q200.844 983.513 202.724 983.212 Q204.624 982.911 206.298 982.911 Q210.624 982.911 213.144 984.886 Q215.664 986.842 215.664 990.19 Q215.664 992.522 214.329 994.139 Q212.993 995.738 210.53 996.359 Z" fill="#000000" fill-rule="evenodd" fill-opacity="1" /><path clip-path="url(#clip460)" d="M116.183 596.799 L123.821 596.799 L123.821 570.433 L115.511 572.1 L115.511 567.841 L123.775 566.174 L128.451 566.174 L128.451 596.799 L136.09 596.799 L136.09 600.734 L116.183 600.734 L116.183 596.799 Z" fill="#000000" fill-rule="evenodd" fill-opacity="1" /><path clip-path="url(#clip460)" d="M155.534 569.253 Q151.923 569.253 150.094 572.818 Q148.289 576.359 148.289 583.489 Q148.289 590.595 150.094 594.16 Q151.923 597.702 155.534 597.702 Q159.168 597.702 160.974 594.16 Q162.803 590.595 162.803 583.489 Q162.803 576.359 160.974 572.818 Q159.168 569.253 155.534 569.253 M155.534 565.549 Q161.344 565.549 164.4 570.156 Q167.479 574.739 167.479 583.489 Q167.479 592.216 164.4 596.822 Q161.344 601.405 155.534 601.405 Q149.724 601.405 146.645 596.822 Q143.59 592.216 143.59 583.489 Q143.59 574.739 146.645 570.156 Q149.724 565.549 155.534 565.549 Z" fill="#000000" fill-rule="evenodd" fill-opacity="1" /><path clip-path="url(#clip460)" d="M167.479 559.65 L191.59 559.65 L191.59 562.848 L167.479 562.848 L167.479 559.65 Z" fill="#000000" fill-rule="evenodd" fill-opacity="1" /><path clip-path="url(#clip460)" d="M203.063 570.126 L216.322 570.126 L216.322 573.324 L198.493 573.324 L198.493 570.126 Q200.655 567.888 204.379 564.127 Q208.122 560.346 209.081 559.255 Q210.906 557.205 211.62 555.795 Q212.354 554.365 212.354 552.992 Q212.354 550.754 210.774 549.344 Q209.213 547.933 206.693 547.933 Q204.906 547.933 202.912 548.554 Q200.938 549.175 198.681 550.435 L198.681 546.598 Q200.975 545.676 202.969 545.206 Q204.962 544.736 206.618 544.736 Q210.981 544.736 213.576 546.918 Q216.172 549.099 216.172 552.748 Q216.172 554.478 215.514 556.039 Q214.874 557.582 213.163 559.688 Q212.692 560.233 210.172 562.848 Q207.652 565.443 203.063 570.126 Z" fill="#000000" fill-rule="evenodd" fill-opacity="1" /><path clip-path="url(#clip460)" d="M115.882 158.624 L123.52 158.624 L123.52 132.258 L115.21 133.925 L115.21 129.665 L123.474 127.999 L128.15 127.999 L128.15 158.624 L135.789 158.624 L135.789 162.559 L115.882 162.559 L115.882 158.624 Z" fill="#000000" fill-rule="evenodd" fill-opacity="1" /><path clip-path="url(#clip460)" d="M155.233 131.077 Q151.622 131.077 149.793 134.642 Q147.988 138.184 147.988 145.313 Q147.988 152.42 149.793 155.985 Q151.622 159.526 155.233 159.526 Q158.868 159.526 160.673 155.985 Q162.502 152.42 162.502 145.313 Q162.502 138.184 160.673 134.642 Q158.868 131.077 155.233 131.077 M155.233 127.374 Q161.043 127.374 164.099 131.98 Q167.178 136.564 167.178 145.313 Q167.178 154.04 164.099 158.647 Q161.043 163.23 155.233 163.23 Q149.423 163.23 146.344 158.647 Q143.289 154.04 143.289 145.313 Q143.289 136.564 146.344 131.98 Q149.423 127.374 155.233 127.374 Z" fill="#000000" fill-rule="evenodd" fill-opacity="1" /><path clip-path="url(#clip460)" d="M167.178 121.475 L191.289 121.475 L191.289 124.672 L167.178 124.672 L167.178 121.475 Z" fill="#000000" fill-rule="evenodd" fill-opacity="1" /><path clip-path="url(#clip460)" d="M200.148 131.951 L206.354 131.951 L206.354 110.529 L199.602 111.883 L199.602 108.423 L206.317 107.068 L210.116 107.068 L210.116 131.951 L216.322 131.951 L216.322 135.148 L200.148 135.148 L200.148 131.951 Z" fill="#000000" fill-rule="evenodd" fill-opacity="1" /><path clip-path="url(#clip460)" d="M18.4042 827.219 L18.4042 787.02 L23.815 787.02 L23.815 803.889 L65.9242 803.889 L65.9242 810.35 L23.815 810.35 L23.815 827.219 L18.4042 827.219 Z" fill="#000000" fill-rule="evenodd" fill-opacity="1" /><path clip-path="url(#clip460)" d="M30.2762 783.073 L30.2762 777.216 L65.9242 777.216 L65.9242 783.073 L30.2762 783.073 M16.399 783.073 L16.399 777.216 L23.815 777.216 L23.815 783.073 L16.399 783.073 Z" fill="#000000" fill-rule="evenodd" fill-opacity="1" /><path clip-path="url(#clip460)" d="M37.1193 737.208 Q33.1726 735.012 31.2947 731.956 Q29.4168 728.901 29.4168 724.763 Q29.4168 719.193 33.3317 716.169 Q37.2148 713.145 44.4081 713.145 L65.9242 713.145 L65.9242 719.034 L44.599 719.034 Q39.4746 719.034 36.992 720.848 Q34.5094 722.662 34.5094 726.386 Q34.5094 730.938 37.5331 733.579 Q40.5568 736.221 45.7767 736.221 L65.9242 736.221 L65.9242 742.109 L44.599 742.109 Q39.4428 742.109 36.992 743.924 Q34.5094 745.738 34.5094 749.526 Q34.5094 754.013 37.5649 756.655 Q40.5886 759.297 45.7767 759.297 L65.9242 759.297 L65.9242 765.185 L30.2762 765.185 L30.2762 759.297 L35.8144 759.297 Q32.536 757.292 30.9764 754.491 Q29.4168 751.69 29.4168 747.839 Q29.4168 743.956 31.3902 741.25 Q33.3636 738.513 37.1193 737.208 Z" fill="#000000" fill-rule="evenodd" fill-opacity="1" /><path clip-path="url(#clip460)" d="M46.6361 670.973 L49.5006 670.973 L49.5006 697.9 Q55.5481 697.518 58.7309 694.271 Q61.8819 690.993 61.8819 685.168 Q61.8819 681.794 61.0544 678.643 Q60.2269 675.461 58.5718 672.341 L64.1099 672.341 Q65.4467 675.492 66.147 678.803 Q66.8472 682.113 66.8472 685.518 Q66.8472 694.048 61.8819 699.045 Q56.9167 704.011 48.4503 704.011 Q39.6974 704.011 34.5731 699.3 Q29.4168 694.558 29.4168 686.537 Q29.4168 679.344 34.0638 675.174 Q38.6789 670.973 46.6361 670.973 M44.9173 676.829 Q40.1112 676.893 37.2466 679.535 Q34.3821 682.145 34.3821 686.473 Q34.3821 691.375 37.1512 694.335 Q39.9202 697.263 44.9492 697.709 L44.9173 676.829 Z" fill="#000000" fill-rule="evenodd" fill-opacity="1" /><path clip-path="url(#clip460)" d="M16.4626 626.572 Q23.7832 630.837 30.9446 632.906 Q38.106 634.975 45.4584 634.975 Q52.8108 634.975 60.0359 632.906 Q67.2291 630.805 74.5179 626.572 L74.5179 631.664 Q67.0382 636.439 59.8131 638.826 Q52.588 641.181 45.4584 641.181 Q38.3606 641.181 31.1674 638.826 Q23.9742 636.471 16.4626 631.664 L16.4626 626.572 Z" fill="#000000" fill-rule="evenodd" fill-opacity="1" /><path clip-path="url(#clip460)" d="M31.3265 592.484 L36.8647 592.484 Q35.5916 594.966 34.955 597.64 Q34.3184 600.313 34.3184 603.178 Q34.3184 607.538 35.6552 609.735 Q36.992 611.899 39.6656 611.899 Q41.7026 611.899 42.8803 610.339 Q44.0261 608.78 45.0765 604.069 L45.5221 602.064 Q46.8589 595.826 49.3097 593.216 Q51.7286 590.574 56.0891 590.574 Q61.0544 590.574 63.9508 594.521 Q66.8472 598.435 66.8472 605.31 Q66.8472 608.175 66.2743 611.294 Q65.7332 614.382 64.6192 617.819 L58.5718 617.819 Q60.2587 614.573 61.118 611.422 Q61.9456 608.27 61.9456 605.183 Q61.9456 601.045 60.5451 598.817 Q59.1129 596.589 56.5347 596.589 Q54.1476 596.589 52.8745 598.213 Q51.6013 599.804 50.4237 605.247 L49.9462 607.284 Q48.8004 612.726 46.4451 615.145 Q44.058 617.564 39.9202 617.564 Q34.8913 617.564 32.1541 614 Q29.4168 610.435 29.4168 603.878 Q29.4168 600.632 29.8943 597.767 Q30.3717 594.902 31.3265 592.484 Z" fill="#000000" fill-rule="evenodd" fill-opacity="1" /><path clip-path="url(#clip460)" d="M16.4626 582.171 L16.4626 577.079 Q23.9742 572.304 31.1674 569.949 Q38.3606 567.562 45.4584 567.562 Q52.588 567.562 59.8131 569.949 Q67.0382 572.304 74.5179 577.079 L74.5179 582.171 Q67.2291 577.938 60.0359 575.869 Q52.8108 573.768 45.4584 573.768 Q38.106 573.768 30.9446 575.869 Q23.7832 577.938 16.4626 582.171 Z" fill="#000000" fill-rule="evenodd" fill-opacity="1" /><polyline clip-path="url(#clip462)" style="stroke:#009af9; stroke-linecap:butt; stroke-linejoin:round; stroke-width:12; stroke-opacity:1; fill:none" points="
  1576.91,1310.74 1518.26,1168.78 1353.03,1013.61 1190.88,872.073 
  "/>
<line clip-path="url(#clip462)" x1="1576.91" y1="1310.74" x2="1576.91" y2="1294.74" style="stroke:#009af9; stroke-width:3.072; stroke-opacity:1"/>
<line clip-path="url(#clip462)" x1="1576.91" y1="1310.74" x2="1560.91" y2="1310.74" style="stroke:#009af9; stroke-width:3.072; stroke-opacity:1"/>
<line clip-path="url(#clip462)" x1="1576.91" y1="1310.74" x2="1576.91" y2="1326.74" style="stroke:#009af9; stroke-width:3.072; stroke-opacity:1"/>
<line clip-path="url(#clip462)" x1="1576.91" y1="1310.74" x2="1592.91" y2="1310.74" style="stroke:#009af9; stroke-width:3.072; stroke-opacity:1"/>
<line clip-path="url(#clip462)" x1="1518.26" y1="1168.78" x2="1518.26" y2="1152.78" style="stroke:#009af9; stroke-width:3.072; stroke-opacity:1"/>
<line clip-path="url(#clip462)" x1="1518.26" y1="1168.78" x2="1502.26" y2="1168.78" style="stroke:#009af9; stroke-width:3.072; stroke-opacity:1"/>
<line clip-path="url(#clip462)" x1="1518.26" y1="1168.78" x2="1518.26" y2="1184.78" style="stroke:#009af9; stroke-width:3.072; stroke-opacity:1"/>
<line clip-path="url(#clip462)" x1="1518.26" y1="1168.78" x2="1534.26" y2="1168.78" style="stroke:#009af9; stroke-width:3.072; stroke-opacity:1"/>
<line clip-path="url(#clip462)" x1="1353.03" y1="1013.61" x2="1353.03" y2="997.61" style="stroke:#009af9; stroke-width:3.072; stroke-opacity:1"/>
<line clip-path="url(#clip462)" x1="1353.03" y1="1013.61" x2="1337.03" y2="1013.61" style="stroke:#009af9; stroke-width:3.072; stroke-opacity:1"/>
<line clip-path="url(#clip462)" x1="1353.03" y1="1013.61" x2="1353.03" y2="1029.61" style="stroke:#009af9; stroke-width:3.072; stroke-opacity:1"/>
<line clip-path="url(#clip462)" x1="1353.03" y1="1013.61" x2="1369.03" y2="1013.61" style="stroke:#009af9; stroke-width:3.072; stroke-opacity:1"/>
<line clip-path="url(#clip462)" x1="1190.88" y1="872.073" x2="1190.88" y2="856.073" style="stroke:#009af9; stroke-width:3.072; stroke-opacity:1"/>
<line clip-path="url(#clip462)" x1="1190.88" y1="872.073" x2="1174.88" y2="872.073" style="stroke:#009af9; stroke-width:3.072; stroke-opacity:1"/>
<line clip-path="url(#clip462)" x1="1190.88" y1="872.073" x2="1190.88" y2="888.073" style="stroke:#009af9; stroke-width:3.072; stroke-opacity:1"/>
<line clip-path="url(#clip462)" x1="1190.88" y1="872.073" x2="1206.88" y2="872.073" style="stroke:#009af9; stroke-width:3.072; stroke-opacity:1"/>
<polyline clip-path="url(#clip462)" style="stroke:#e26f46; stroke-linecap:butt; stroke-linejoin:round; stroke-width:12; stroke-opacity:1; fill:none" points="
  1906.44,894.799 1520.91,871.435 1696.29,823.461 2199.99,785.762 
  "/>
<circle clip-path="url(#clip462)" cx="1906.44" cy="894.799" r="14" fill="#e26f46" fill-rule="evenodd" fill-opacity="1" stroke="#000000" stroke-opacity="1" stroke-width="3.072"/>
<circle clip-path="url(#clip462)" cx="1520.91" cy="871.435" r="14" fill="#e26f46" fill-rule="evenodd" fill-opacity="1" stroke="#000000" stroke-opacity="1" stroke-width="3.072"/>
<circle clip-path="url(#clip462)" cx="1696.29" cy="823.461" r="14" fill="#e26f46" fill-rule="evenodd" fill-opacity="1" stroke="#000000" stroke-opacity="1" stroke-width="3.072"/>
<circle clip-path="url(#clip462)" cx="2199.99" cy="785.762" r="14" fill="#e26f46" fill-rule="evenodd" fill-opacity="1" stroke="#000000" stroke-opacity="1" stroke-width="3.072"/>
<polyline clip-path="url(#clip462)" style="stroke:#3da44d; stroke-linecap:butt; stroke-linejoin:round; stroke-width:12; stroke-opacity:1; fill:none" points="
  1706.47,939.574 1690.42,904.448 1685.75,884.536 1699.6,848.323 
  "/>
<line clip-path="url(#clip462)" x1="1706.47" y1="939.574" x2="1706.47" y2="923.574" style="stroke:#3da44d; stroke-width:3.072; stroke-opacity:1"/>
<line clip-path="url(#clip462)" x1="1706.47" y1="939.574" x2="1690.47" y2="939.574" style="stroke:#3da44d; stroke-width:3.072; stroke-opacity:1"/>
<line clip-path="url(#clip462)" x1="1706.47" y1="939.574" x2="1706.47" y2="955.574" style="stroke:#3da44d; stroke-width:3.072; stroke-opacity:1"/>
<line clip-path="url(#clip462)" x1="1706.47" y1="939.574" x2="1722.47" y2="939.574" style="stroke:#3da44d; stroke-width:3.072; stroke-opacity:1"/>
<line clip-path="url(#clip462)" x1="1690.42" y1="904.448" x2="1690.42" y2="888.448" style="stroke:#3da44d; stroke-width:3.072; stroke-opacity:1"/>
<line clip-path="url(#clip462)" x1="1690.42" y1="904.448" x2="1674.42" y2="904.448" style="stroke:#3da44d; stroke-width:3.072; stroke-opacity:1"/>
<line clip-path="url(#clip462)" x1="1690.42" y1="904.448" x2="1690.42" y2="920.448" style="stroke:#3da44d; stroke-width:3.072; stroke-opacity:1"/>
<line clip-path="url(#clip462)" x1="1690.42" y1="904.448" x2="1706.42" y2="904.448" style="stroke:#3da44d; stroke-width:3.072; stroke-opacity:1"/>
<line clip-path="url(#clip462)" x1="1685.75" y1="884.536" x2="1685.75" y2="868.536" style="stroke:#3da44d; stroke-width:3.072; stroke-opacity:1"/>
<line clip-path="url(#clip462)" x1="1685.75" y1="884.536" x2="1669.75" y2="884.536" style="stroke:#3da44d; stroke-width:3.072; stroke-opacity:1"/>
<line clip-path="url(#clip462)" x1="1685.75" y1="884.536" x2="1685.75" y2="900.536" style="stroke:#3da44d; stroke-width:3.072; stroke-opacity:1"/>
<line clip-path="url(#clip462)" x1="1685.75" y1="884.536" x2="1701.75" y2="884.536" style="stroke:#3da44d; stroke-width:3.072; stroke-opacity:1"/>
<line clip-path="url(#clip462)" x1="1699.6" y1="848.323" x2="1699.6" y2="832.323" style="stroke:#3da44d; stroke-width:3.072; stroke-opacity:1"/>
<line clip-path="url(#clip462)" x1="1699.6" y1="848.323" x2="1683.6" y2="848.323" style="stroke:#3da44d; stroke-width:3.072; stroke-opacity:1"/>
<line clip-path="url(#clip462)" x1="1699.6" y1="848.323" x2="1699.6" y2="864.323" style="stroke:#3da44d; stroke-width:3.072; stroke-opacity:1"/>
<line clip-path="url(#clip462)" x1="1699.6" y1="848.323" x2="1715.6" y2="848.323" style="stroke:#3da44d; stroke-width:3.072; stroke-opacity:1"/>
<polyline clip-path="url(#clip462)" style="stroke:#c271d2; stroke-linecap:butt; stroke-linejoin:round; stroke-width:12; stroke-opacity:1; fill:none" points="
  1710.28,918.582 1501.34,941.103 1617.54,937.152 1502.2,899.461 
  "/>
<path clip-path="url(#clip462)" d="M1710.28 902.582 L1694.28 918.582 L1710.28 934.582 L1726.28 918.582 L1710.28 902.582 Z" fill="#c271d2" fill-rule="evenodd" fill-opacity="1" stroke="#000000" stroke-opacity="1" stroke-width="3.072"/>
<path clip-path="url(#clip462)" d="M1501.34 925.103 L1485.34 941.103 L1501.34 957.103 L1517.34 941.103 L1501.34 925.103 Z" fill="#c271d2" fill-rule="evenodd" fill-opacity="1" stroke="#000000" stroke-opacity="1" stroke-width="3.072"/>
<path clip-path="url(#clip462)" d="M1617.54 921.152 L1601.54 937.152 L1617.54 953.152 L1633.54 937.152 L1617.54 921.152 Z" fill="#c271d2" fill-rule="evenodd" fill-opacity="1" stroke="#000000" stroke-opacity="1" stroke-width="3.072"/>
<path clip-path="url(#clip462)" d="M1502.2 883.461 L1486.2 899.461 L1502.2 915.461 L1518.2 899.461 L1502.2 883.461 Z" fill="#c271d2" fill-rule="evenodd" fill-opacity="1" stroke="#000000" stroke-opacity="1" stroke-width="3.072"/>
<polyline clip-path="url(#clip462)" style="stroke:#ac8d18; stroke-linecap:butt; stroke-linejoin:round; stroke-width:12; stroke-opacity:1; fill:none" points="
  1000.97,600.029 987.084,467.618 547.577,361.08 403.127,295.652 
  "/>
<path clip-path="url(#clip462)" d="M1016.97 584.029 L984.97 584.029 L1000.97 616.029 L1016.97 584.029 Z" fill="#ac8d18" fill-rule="evenodd" fill-opacity="1" stroke="#000000" stroke-opacity="1" stroke-width="3.072"/>
<path clip-path="url(#clip462)" d="M1003.08 451.618 L971.084 451.618 L987.084 483.618 L1003.08 451.618 Z" fill="#ac8d18" fill-rule="evenodd" fill-opacity="1" stroke="#000000" stroke-opacity="1" stroke-width="3.072"/>
<path clip-path="url(#clip462)" d="M563.577 345.08 L531.577 345.08 L547.577 377.08 L563.577 345.08 Z" fill="#ac8d18" fill-rule="evenodd" fill-opacity="1" stroke="#000000" stroke-opacity="1" stroke-width="3.072"/>
<path clip-path="url(#clip462)" d="M419.127 279.652 L387.127 279.652 L403.127 311.652 L419.127 279.652 Z" fill="#ac8d18" fill-rule="evenodd" fill-opacity="1" stroke="#000000" stroke-opacity="1" stroke-width="3.072"/>
<polyline clip-path="url(#clip462)" style="stroke:#00a9ad; stroke-linecap:butt; stroke-linejoin:round; stroke-width:12; stroke-opacity:1; fill:none" points="
  791.062,413.874 733.574,311.475 469.804,237.364 307.652,155.6 
  "/>
<path clip-path="url(#clip462)" d="M791.062 397.874 L778.55 403.906 L775.462 417.442 L784.118 428.29 L798.006 428.29 L806.662 417.442 L803.574 403.906 Z" fill="#00a9ad" fill-rule="evenodd" fill-opacity="1" stroke="#000000" stroke-opacity="1" stroke-width="3.072"/>
<path clip-path="url(#clip462)" d="M733.574 295.475 L721.062 301.507 L717.974 315.043 L726.63 325.891 L740.518 325.891 L749.174 315.043 L746.086 301.507 Z" fill="#00a9ad" fill-rule="evenodd" fill-opacity="1" stroke="#000000" stroke-opacity="1" stroke-width="3.072"/>
<path clip-path="url(#clip462)" d="M469.804 221.364 L457.292 227.396 L454.204 240.932 L462.86 251.78 L476.748 251.78 L485.404 240.932 L482.316 227.396 Z" fill="#00a9ad" fill-rule="evenodd" fill-opacity="1" stroke="#000000" stroke-opacity="1" stroke-width="3.072"/>
<path clip-path="url(#clip462)" d="M307.652 139.6 L295.14 145.632 L292.052 159.168 L300.708 170.016 L314.596 170.016 L323.252 159.168 L320.164 145.632 Z" fill="#00a9ad" fill-rule="evenodd" fill-opacity="1" stroke="#000000" stroke-opacity="1" stroke-width="3.072"/>
<polyline clip-path="url(#clip462)" style="stroke:#ed5d92; stroke-linecap:butt; stroke-linejoin:round; stroke-width:12; stroke-opacity:1; fill:none" points="
  1013.39,408.727 830.308,329.497 709.564,190.073 584.081,84.0448 
  "/>
<path clip-path="url(#clip462)" d="M1013.39 424.727 L999.538 416.727 L999.538 400.727 L1013.39 392.727 L1027.25 400.727 L1027.25 416.727 Z" fill="#ed5d92" fill-rule="evenodd" fill-opacity="1" stroke="#000000" stroke-opacity="1" stroke-width="3.072"/>
<path clip-path="url(#clip462)" d="M830.308 345.497 L816.452 337.497 L816.452 321.497 L830.308 313.497 L844.164 321.497 L844.164 337.497 Z" fill="#ed5d92" fill-rule="evenodd" fill-opacity="1" stroke="#000000" stroke-opacity="1" stroke-width="3.072"/>
<path clip-path="url(#clip462)" d="M709.564 206.073 L695.708 198.073 L695.708 182.073 L709.564 174.073 L723.42 182.073 L723.42 198.073 Z" fill="#ed5d92" fill-rule="evenodd" fill-opacity="1" stroke="#000000" stroke-opacity="1" stroke-width="3.072"/>
<path clip-path="url(#clip462)" d="M584.081 100.045 L570.225 92.0448 L570.225 76.0448 L584.081 68.0448 L597.937 76.0448 L597.937 92.0448 Z" fill="#ed5d92" fill-rule="evenodd" fill-opacity="1" stroke="#000000" stroke-opacity="1" stroke-width="3.072"/>
<path clip-path="url(#clip460)" d="
M1640.35 505.307 L2189.89 505.307 L2189.89 90.5872 L1640.35 90.5872  Z
  " fill="#ffffff" fill-rule="evenodd" fill-opacity="1"/>
<polyline clip-path="url(#clip460)" style="stroke:#000000; stroke-linecap:butt; stroke-linejoin:round; stroke-width:4; stroke-opacity:1; fill:none" points="
  1640.35,505.307 2189.89,505.307 2189.89,90.5872 1640.35,90.5872 1640.35,505.307 
  "/>
<polyline clip-path="url(#clip460)" style="stroke:#009af9; stroke-linecap:butt; stroke-linejoin:round; stroke-width:4; stroke-opacity:1; fill:none" points="
  1662.64,142.427 1796.37,142.427 
  "/>
<line clip-path="url(#clip460)" x1="1729.5" y1="142.427" x2="1729.5" y2="116.827" style="stroke:#009af9; stroke-width:4.9152; stroke-opacity:1"/>
<line clip-path="url(#clip460)" x1="1729.5" y1="142.427" x2="1703.9" y2="142.427" style="stroke:#009af9; stroke-width:4.9152; stroke-opacity:1"/>
<line clip-path="url(#clip460)" x1="1729.5" y1="142.427" x2="1729.5" y2="168.027" style="stroke:#009af9; stroke-width:4.9152; stroke-opacity:1"/>
<line clip-path="url(#clip460)" x1="1729.5" y1="142.427" x2="1755.1" y2="142.427" style="stroke:#009af9; stroke-width:4.9152; stroke-opacity:1"/>
<path clip-path="url(#clip460)" d="M1835.04 143.504 Q1836.55 144.013 1837.96 145.679 Q1839.39 147.346 1840.83 150.263 L1845.57 159.707 L1840.55 159.707 L1836.13 150.841 Q1834.42 147.369 1832.8 146.235 Q1831.2 145.101 1828.42 145.101 L1823.33 145.101 L1823.33 159.707 L1818.65 159.707 L1818.65 125.147 L1829.21 125.147 Q1835.13 125.147 1838.05 127.624 Q1840.97 130.101 1840.97 135.101 Q1840.97 138.365 1839.44 140.517 Q1837.94 142.67 1835.04 143.504 M1823.33 128.99 L1823.33 141.258 L1829.21 141.258 Q1832.59 141.258 1834.3 139.707 Q1836.04 138.133 1836.04 135.101 Q1836.04 132.068 1834.3 130.541 Q1832.59 128.99 1829.21 128.99 L1823.33 128.99 Z" fill="#000000" fill-rule="evenodd" fill-opacity="1" /><path clip-path="url(#clip460)" d="M1859.32 136.767 Q1855.9 136.767 1853.91 139.453 Q1851.92 142.115 1851.92 146.767 Q1851.92 151.42 1853.88 154.105 Q1855.88 156.767 1859.32 156.767 Q1862.73 156.767 1864.72 154.082 Q1866.71 151.397 1866.71 146.767 Q1866.71 142.161 1864.72 139.476 Q1862.73 136.767 1859.32 136.767 M1859.32 133.156 Q1864.88 133.156 1868.05 136.767 Q1871.22 140.379 1871.22 146.767 Q1871.22 153.133 1868.05 156.767 Q1864.88 160.378 1859.32 160.378 Q1853.75 160.378 1850.57 156.767 Q1847.43 153.133 1847.43 146.767 Q1847.43 140.379 1850.57 136.767 Q1853.75 133.156 1859.32 133.156 Z" fill="#000000" fill-rule="evenodd" fill-opacity="1" /><path clip-path="url(#clip460)" d="M1894.81 134.545 L1894.81 138.573 Q1893.01 137.647 1891.06 137.184 Q1889.12 136.721 1887.03 136.721 Q1883.86 136.721 1882.26 137.693 Q1880.69 138.666 1880.69 140.61 Q1880.69 142.092 1881.82 142.948 Q1882.96 143.781 1886.38 144.545 L1887.84 144.869 Q1892.38 145.842 1894.28 147.624 Q1896.2 149.383 1896.2 152.554 Q1896.2 156.166 1893.33 158.272 Q1890.48 160.378 1885.48 160.378 Q1883.4 160.378 1881.13 159.962 Q1878.88 159.568 1876.38 158.758 L1876.38 154.36 Q1878.75 155.587 1881.04 156.212 Q1883.33 156.814 1885.57 156.814 Q1888.58 156.814 1890.2 155.795 Q1891.82 154.754 1891.82 152.879 Q1891.82 151.142 1890.64 150.216 Q1889.49 149.291 1885.53 148.434 L1884.05 148.087 Q1880.09 147.254 1878.33 145.541 Q1876.57 143.804 1876.57 140.795 Q1876.57 137.138 1879.16 135.147 Q1881.76 133.156 1886.52 133.156 Q1888.88 133.156 1890.97 133.504 Q1893.05 133.851 1894.81 134.545 Z" fill="#000000" fill-rule="evenodd" fill-opacity="1" /><path clip-path="url(#clip460)" d="M1925.16 145.679 L1925.16 147.763 L1905.57 147.763 Q1905.85 152.161 1908.21 154.476 Q1910.6 156.767 1914.83 156.767 Q1917.29 156.767 1919.58 156.166 Q1921.89 155.564 1924.16 154.36 L1924.16 158.388 Q1921.87 159.36 1919.46 159.869 Q1917.06 160.378 1914.58 160.378 Q1908.38 160.378 1904.74 156.767 Q1901.13 153.156 1901.13 146.999 Q1901.13 140.633 1904.56 136.906 Q1908 133.156 1913.84 133.156 Q1919.07 133.156 1922.1 136.536 Q1925.16 139.892 1925.16 145.679 M1920.9 144.429 Q1920.85 140.934 1918.93 138.851 Q1917.03 136.767 1913.88 136.767 Q1910.32 136.767 1908.17 138.781 Q1906.04 140.795 1905.71 144.453 L1920.9 144.429 Z" fill="#000000" fill-rule="evenodd" fill-opacity="1" /><path clip-path="url(#clip460)" d="M1953.7 144.059 L1953.7 159.707 L1949.44 159.707 L1949.44 144.198 Q1949.44 140.517 1948 138.689 Q1946.57 136.86 1943.7 136.86 Q1940.25 136.86 1938.26 139.059 Q1936.27 141.258 1936.27 145.054 L1936.27 159.707 L1931.99 159.707 L1931.99 133.781 L1936.27 133.781 L1936.27 137.809 Q1937.8 135.471 1939.86 134.314 Q1941.94 133.156 1944.65 133.156 Q1949.12 133.156 1951.41 135.934 Q1953.7 138.689 1953.7 144.059 Z" fill="#000000" fill-rule="evenodd" fill-opacity="1" /><path clip-path="url(#clip460)" d="M1980.81 146.767 Q1980.81 142.068 1978.86 139.406 Q1976.94 136.721 1973.56 136.721 Q1970.18 136.721 1968.24 139.406 Q1966.31 142.068 1966.31 146.767 Q1966.31 151.466 1968.24 154.152 Q1970.18 156.814 1973.56 156.814 Q1976.94 156.814 1978.86 154.152 Q1980.81 151.466 1980.81 146.767 M1966.31 137.717 Q1967.66 135.402 1969.69 134.291 Q1971.75 133.156 1974.6 133.156 Q1979.32 133.156 1982.26 136.906 Q1985.23 140.656 1985.23 146.767 Q1985.23 152.879 1982.26 156.628 Q1979.32 160.378 1974.6 160.378 Q1971.75 160.378 1969.69 159.267 Q1967.66 158.133 1966.31 155.818 L1966.31 159.707 L1962.03 159.707 L1962.03 123.689 L1966.31 123.689 L1966.31 137.717 Z" fill="#000000" fill-rule="evenodd" fill-opacity="1" /><path clip-path="url(#clip460)" d="M2007.31 137.763 Q2006.59 137.346 2005.74 137.161 Q2004.9 136.953 2003.88 136.953 Q2000.27 136.953 1998.33 139.314 Q1996.41 141.652 1996.41 146.05 L1996.41 159.707 L1992.12 159.707 L1992.12 133.781 L1996.41 133.781 L1996.41 137.809 Q1997.75 135.448 1999.9 134.314 Q2002.06 133.156 2005.13 133.156 Q2005.57 133.156 2006.11 133.226 Q2006.64 133.272 2007.29 133.388 L2007.31 137.763 Z" fill="#000000" fill-rule="evenodd" fill-opacity="1" /><path clip-path="url(#clip460)" d="M2020.78 136.767 Q2017.36 136.767 2015.37 139.453 Q2013.37 142.115 2013.37 146.767 Q2013.37 151.42 2015.34 154.105 Q2017.33 156.767 2020.78 156.767 Q2024.18 156.767 2026.18 154.082 Q2028.17 151.397 2028.17 146.767 Q2028.17 142.161 2026.18 139.476 Q2024.18 136.767 2020.78 136.767 M2020.78 133.156 Q2026.34 133.156 2029.51 136.767 Q2032.68 140.379 2032.68 146.767 Q2032.68 153.133 2029.51 156.767 Q2026.34 160.378 2020.78 160.378 Q2015.2 160.378 2012.03 156.767 Q2008.88 153.133 2008.88 146.767 Q2008.88 140.379 2012.03 136.767 Q2015.2 133.156 2020.78 133.156 Z" fill="#000000" fill-rule="evenodd" fill-opacity="1" /><path clip-path="url(#clip460)" d="M2058.4 134.777 L2058.4 138.758 Q2056.59 137.763 2054.76 137.277 Q2052.96 136.767 2051.11 136.767 Q2046.96 136.767 2044.67 139.406 Q2042.38 142.022 2042.38 146.767 Q2042.38 151.513 2044.67 154.152 Q2046.96 156.767 2051.11 156.767 Q2052.96 156.767 2054.76 156.281 Q2056.59 155.772 2058.4 154.777 L2058.4 158.712 Q2056.62 159.545 2054.69 159.962 Q2052.8 160.378 2050.64 160.378 Q2044.79 160.378 2041.34 156.698 Q2037.89 153.017 2037.89 146.767 Q2037.89 140.425 2041.36 136.791 Q2044.86 133.156 2050.92 133.156 Q2052.89 133.156 2054.76 133.573 Q2056.64 133.967 2058.4 134.777 Z" fill="#000000" fill-rule="evenodd" fill-opacity="1" /><path clip-path="url(#clip460)" d="M2065.64 123.689 L2069.93 123.689 L2069.93 144.962 L2082.63 133.781 L2088.07 133.781 L2074.32 145.911 L2088.65 159.707 L2083.1 159.707 L2069.93 147.045 L2069.93 159.707 L2065.64 159.707 L2065.64 123.689 Z" fill="#000000" fill-rule="evenodd" fill-opacity="1" /><path clip-path="url(#clip460)" d="M2097.89 155.772 L2114.21 155.772 L2114.21 159.707 L2092.26 159.707 L2092.26 155.772 Q2094.93 153.017 2099.51 148.388 Q2104.12 143.735 2105.3 142.392 Q2107.54 139.869 2108.42 138.133 Q2109.32 136.374 2109.32 134.684 Q2109.32 131.93 2107.38 130.193 Q2105.46 128.457 2102.36 128.457 Q2100.16 128.457 2097.7 129.221 Q2095.27 129.985 2092.49 131.536 L2092.49 126.814 Q2095.32 125.68 2097.77 125.101 Q2100.23 124.522 2102.26 124.522 Q2107.63 124.522 2110.83 127.207 Q2114.02 129.893 2114.02 134.383 Q2114.02 136.513 2113.21 138.434 Q2112.43 140.332 2110.32 142.925 Q2109.74 143.596 2106.64 146.814 Q2103.54 150.008 2097.89 155.772 Z" fill="#000000" fill-rule="evenodd" fill-opacity="1" /><path clip-path="url(#clip460)" d="M2138.19 141.073 Q2141.55 141.791 2143.42 144.059 Q2145.32 146.328 2145.32 149.661 Q2145.32 154.777 2141.8 157.578 Q2138.28 160.378 2131.8 160.378 Q2129.62 160.378 2127.31 159.939 Q2125.02 159.522 2122.56 158.666 L2122.56 154.152 Q2124.51 155.286 2126.82 155.865 Q2129.14 156.443 2131.66 156.443 Q2136.06 156.443 2138.35 154.707 Q2140.67 152.971 2140.67 149.661 Q2140.67 146.605 2138.51 144.892 Q2136.38 143.156 2132.56 143.156 L2128.54 143.156 L2128.54 139.314 L2132.75 139.314 Q2136.2 139.314 2138.03 137.948 Q2139.86 136.559 2139.86 133.967 Q2139.86 131.305 2137.96 129.893 Q2136.08 128.457 2132.56 128.457 Q2130.64 128.457 2128.44 128.874 Q2126.24 129.291 2123.61 130.17 L2123.61 126.004 Q2126.27 125.263 2128.58 124.893 Q2130.92 124.522 2132.98 124.522 Q2138.3 124.522 2141.41 126.953 Q2144.51 129.36 2144.51 133.48 Q2144.51 136.351 2142.86 138.342 Q2141.22 140.309 2138.19 141.073 Z" fill="#000000" fill-rule="evenodd" fill-opacity="1" /><polyline clip-path="url(#clip460)" style="stroke:#e26f46; stroke-linecap:butt; stroke-linejoin:round; stroke-width:4; stroke-opacity:1; fill:none" points="
  1662.64,194.267 1796.37,194.267 
  "/>
<circle clip-path="url(#clip460)" cx="1729.5" cy="194.267" r="23" fill="#e26f46" fill-rule="evenodd" fill-opacity="1" stroke="#000000" stroke-opacity="1" stroke-width="4.9152"/>
<path clip-path="url(#clip460)" d="M1818.65 176.987 L1823.33 176.987 L1823.33 191.594 L1838.84 176.987 L1844.86 176.987 L1827.7 193.098 L1846.08 211.547 L1839.93 211.547 L1823.33 194.904 L1823.33 211.547 L1818.65 211.547 L1818.65 176.987 Z" fill="#000000" fill-rule="evenodd" fill-opacity="1" /><path clip-path="url(#clip460)" d="M1869.37 197.519 L1869.37 199.603 L1849.79 199.603 Q1850.07 204.001 1852.43 206.316 Q1854.81 208.607 1859.05 208.607 Q1861.5 208.607 1863.79 208.006 Q1866.11 207.404 1868.38 206.2 L1868.38 210.228 Q1866.08 211.2 1863.68 211.709 Q1861.27 212.218 1858.79 212.218 Q1852.59 212.218 1848.95 208.607 Q1845.34 204.996 1845.34 198.839 Q1845.34 192.473 1848.77 188.746 Q1852.22 184.996 1858.05 184.996 Q1863.28 184.996 1866.32 188.376 Q1869.37 191.732 1869.37 197.519 M1865.11 196.269 Q1865.07 192.774 1863.14 190.691 Q1861.25 188.607 1858.1 188.607 Q1854.53 188.607 1852.38 190.621 Q1850.25 192.635 1849.93 196.293 L1865.11 196.269 Z" fill="#000000" fill-rule="evenodd" fill-opacity="1" /><path clip-path="url(#clip460)" d="M1897.91 195.899 L1897.91 211.547 L1893.65 211.547 L1893.65 196.038 Q1893.65 192.357 1892.22 190.529 Q1890.78 188.7 1887.91 188.7 Q1884.46 188.7 1882.47 190.899 Q1880.48 193.098 1880.48 196.894 L1880.48 211.547 L1876.2 211.547 L1876.2 185.621 L1880.48 185.621 L1880.48 189.649 Q1882.01 187.311 1884.07 186.154 Q1886.15 184.996 1888.86 184.996 Q1893.33 184.996 1895.62 187.774 Q1897.91 190.529 1897.91 195.899 Z" fill="#000000" fill-rule="evenodd" fill-opacity="1" /><path clip-path="url(#clip460)" d="M1932.47 179.649 L1932.47 184.58 Q1930.11 182.381 1927.43 181.293 Q1924.76 180.205 1921.75 180.205 Q1915.83 180.205 1912.68 183.839 Q1909.53 187.45 1909.53 194.302 Q1909.53 201.131 1912.68 204.765 Q1915.83 208.376 1921.75 208.376 Q1924.76 208.376 1927.43 207.288 Q1930.11 206.2 1932.47 204.001 L1932.47 208.885 Q1930.02 210.552 1927.26 211.385 Q1924.53 212.218 1921.48 212.218 Q1913.63 212.218 1909.12 207.427 Q1904.6 202.612 1904.6 194.302 Q1904.6 185.969 1909.12 181.177 Q1913.63 176.362 1921.48 176.362 Q1924.58 176.362 1927.31 177.196 Q1930.07 178.006 1932.47 179.649 Z" fill="#000000" fill-rule="evenodd" fill-opacity="1" /><path clip-path="url(#clip460)" d="M1951.29 198.515 Q1946.13 198.515 1944.14 199.695 Q1942.15 200.876 1942.15 203.723 Q1942.15 205.992 1943.63 207.334 Q1945.13 208.654 1947.7 208.654 Q1951.25 208.654 1953.38 206.154 Q1955.53 203.631 1955.53 199.464 L1955.53 198.515 L1951.29 198.515 M1959.79 196.756 L1959.79 211.547 L1955.53 211.547 L1955.53 207.612 Q1954.07 209.973 1951.89 211.107 Q1949.72 212.218 1946.57 212.218 Q1942.59 212.218 1940.23 209.996 Q1937.89 207.751 1937.89 204.001 Q1937.89 199.626 1940.81 197.404 Q1943.75 195.182 1949.56 195.182 L1955.53 195.182 L1955.53 194.765 Q1955.53 191.825 1953.58 190.228 Q1951.66 188.607 1948.17 188.607 Q1945.94 188.607 1943.84 189.14 Q1941.73 189.672 1939.79 190.737 L1939.79 186.802 Q1942.13 185.899 1944.32 185.459 Q1946.52 184.996 1948.61 184.996 Q1954.23 184.996 1957.01 187.913 Q1959.79 190.83 1959.79 196.756 Z" fill="#000000" fill-rule="evenodd" fill-opacity="1" /><path clip-path="url(#clip460)" d="M1983.58 189.603 Q1982.87 189.186 1982.01 189.001 Q1981.18 188.793 1980.16 188.793 Q1976.55 188.793 1974.6 191.154 Q1972.68 193.492 1972.68 197.89 L1972.68 211.547 L1968.4 211.547 L1968.4 185.621 L1972.68 185.621 L1972.68 189.649 Q1974.02 187.288 1976.18 186.154 Q1978.33 184.996 1981.41 184.996 Q1981.85 184.996 1982.38 185.066 Q1982.91 185.112 1983.56 185.228 L1983.58 189.603 Z" fill="#000000" fill-rule="evenodd" fill-opacity="1" /><path clip-path="url(#clip460)" d="M1992.17 207.658 L1992.17 221.408 L1987.89 221.408 L1987.89 185.621 L1992.17 185.621 L1992.17 189.557 Q1993.51 187.242 1995.55 186.131 Q1997.61 184.996 2000.46 184.996 Q2005.18 184.996 2008.12 188.746 Q2011.08 192.496 2011.08 198.607 Q2011.08 204.719 2008.12 208.468 Q2005.18 212.218 2000.46 212.218 Q1997.61 212.218 1995.55 211.107 Q1993.51 209.973 1992.17 207.658 M2006.66 198.607 Q2006.66 193.908 2004.72 191.246 Q2002.8 188.561 1999.42 188.561 Q1996.04 188.561 1994.09 191.246 Q1992.17 193.908 1992.17 198.607 Q1992.17 203.306 1994.09 205.992 Q1996.04 208.654 1999.42 208.654 Q2002.8 208.654 2004.72 205.992 Q2006.66 203.306 2006.66 198.607 Z" fill="#000000" fill-rule="evenodd" fill-opacity="1" /><path clip-path="url(#clip460)" d="M2018.79 176.987 L2037.15 176.987 L2037.15 180.922 L2023.07 180.922 L2023.07 189.395 Q2024.09 189.047 2025.11 188.885 Q2026.13 188.7 2027.15 188.7 Q2032.93 188.7 2036.31 191.871 Q2039.69 195.043 2039.69 200.459 Q2039.69 206.038 2036.22 209.14 Q2032.75 212.218 2026.43 212.218 Q2024.25 212.218 2021.99 211.848 Q2019.74 211.478 2017.33 210.737 L2017.33 206.038 Q2019.42 207.172 2021.64 207.728 Q2023.86 208.283 2026.34 208.283 Q2030.34 208.283 2032.68 206.177 Q2035.02 204.07 2035.02 200.459 Q2035.02 196.848 2032.68 194.742 Q2030.34 192.635 2026.34 192.635 Q2024.46 192.635 2022.59 193.052 Q2020.74 193.469 2018.79 194.348 L2018.79 176.987 Z" fill="#000000" fill-rule="evenodd" fill-opacity="1" /><polyline clip-path="url(#clip460)" style="stroke:#3da44d; stroke-linecap:butt; stroke-linejoin:round; stroke-width:4; stroke-opacity:1; fill:none" points="
  1662.64,246.107 1796.37,246.107 
  "/>
<line clip-path="url(#clip460)" x1="1729.5" y1="246.107" x2="1729.5" y2="220.507" style="stroke:#3da44d; stroke-width:4.9152; stroke-opacity:1"/>
<line clip-path="url(#clip460)" x1="1729.5" y1="246.107" x2="1703.9" y2="246.107" style="stroke:#3da44d; stroke-width:4.9152; stroke-opacity:1"/>
<line clip-path="url(#clip460)" x1="1729.5" y1="246.107" x2="1729.5" y2="271.707" style="stroke:#3da44d; stroke-width:4.9152; stroke-opacity:1"/>
<line clip-path="url(#clip460)" x1="1729.5" y1="246.107" x2="1755.1" y2="246.107" style="stroke:#3da44d; stroke-width:4.9152; stroke-opacity:1"/>
<path clip-path="url(#clip460)" d="M1818.65 228.827 L1823.33 228.827 L1823.33 243.434 L1838.84 228.827 L1844.86 228.827 L1827.7 244.938 L1846.08 263.387 L1839.93 263.387 L1823.33 246.744 L1823.33 263.387 L1818.65 263.387 L1818.65 228.827 Z" fill="#000000" fill-rule="evenodd" fill-opacity="1" /><path clip-path="url(#clip460)" d="M1869.37 249.359 L1869.37 251.443 L1849.79 251.443 Q1850.07 255.841 1852.43 258.156 Q1854.81 260.447 1859.05 260.447 Q1861.5 260.447 1863.79 259.846 Q1866.11 259.244 1868.38 258.04 L1868.38 262.068 Q1866.08 263.04 1863.68 263.549 Q1861.27 264.058 1858.79 264.058 Q1852.59 264.058 1848.95 260.447 Q1845.34 256.836 1845.34 250.679 Q1845.34 244.313 1848.77 240.586 Q1852.22 236.836 1858.05 236.836 Q1863.28 236.836 1866.32 240.216 Q1869.37 243.572 1869.37 249.359 M1865.11 248.109 Q1865.07 244.614 1863.14 242.531 Q1861.25 240.447 1858.1 240.447 Q1854.53 240.447 1852.38 242.461 Q1850.25 244.475 1849.93 248.133 L1865.11 248.109 Z" fill="#000000" fill-rule="evenodd" fill-opacity="1" /><path clip-path="url(#clip460)" d="M1897.91 247.739 L1897.91 263.387 L1893.65 263.387 L1893.65 247.878 Q1893.65 244.197 1892.22 242.369 Q1890.78 240.54 1887.91 240.54 Q1884.46 240.54 1882.47 242.739 Q1880.48 244.938 1880.48 248.734 L1880.48 263.387 L1876.2 263.387 L1876.2 237.461 L1880.48 237.461 L1880.48 241.489 Q1882.01 239.151 1884.07 237.994 Q1886.15 236.836 1888.86 236.836 Q1893.33 236.836 1895.62 239.614 Q1897.91 242.369 1897.91 247.739 Z" fill="#000000" fill-rule="evenodd" fill-opacity="1" /><path clip-path="url(#clip460)" d="M1932.47 231.489 L1932.47 236.42 Q1930.11 234.221 1927.43 233.133 Q1924.76 232.045 1921.75 232.045 Q1915.83 232.045 1912.68 235.679 Q1909.53 239.29 1909.53 246.142 Q1909.53 252.971 1912.68 256.605 Q1915.83 260.216 1921.75 260.216 Q1924.76 260.216 1927.43 259.128 Q1930.11 258.04 1932.47 255.841 L1932.47 260.725 Q1930.02 262.392 1927.26 263.225 Q1924.53 264.058 1921.48 264.058 Q1913.63 264.058 1909.12 259.267 Q1904.6 254.452 1904.6 246.142 Q1904.6 237.809 1909.12 233.017 Q1913.63 228.202 1921.48 228.202 Q1924.58 228.202 1927.31 229.036 Q1930.07 229.846 1932.47 231.489 Z" fill="#000000" fill-rule="evenodd" fill-opacity="1" /><path clip-path="url(#clip460)" d="M1951.29 250.355 Q1946.13 250.355 1944.14 251.535 Q1942.15 252.716 1942.15 255.563 Q1942.15 257.832 1943.63 259.174 Q1945.13 260.494 1947.7 260.494 Q1951.25 260.494 1953.38 257.994 Q1955.53 255.471 1955.53 251.304 L1955.53 250.355 L1951.29 250.355 M1959.79 248.596 L1959.79 263.387 L1955.53 263.387 L1955.53 259.452 Q1954.07 261.813 1951.89 262.947 Q1949.72 264.058 1946.57 264.058 Q1942.59 264.058 1940.23 261.836 Q1937.89 259.591 1937.89 255.841 Q1937.89 251.466 1940.81 249.244 Q1943.75 247.022 1949.56 247.022 L1955.53 247.022 L1955.53 246.605 Q1955.53 243.665 1953.58 242.068 Q1951.66 240.447 1948.17 240.447 Q1945.94 240.447 1943.84 240.98 Q1941.73 241.512 1939.79 242.577 L1939.79 238.642 Q1942.13 237.739 1944.32 237.299 Q1946.52 236.836 1948.61 236.836 Q1954.23 236.836 1957.01 239.753 Q1959.79 242.67 1959.79 248.596 Z" fill="#000000" fill-rule="evenodd" fill-opacity="1" /><path clip-path="url(#clip460)" d="M1983.58 241.443 Q1982.87 241.026 1982.01 240.841 Q1981.18 240.633 1980.16 240.633 Q1976.55 240.633 1974.6 242.994 Q1972.68 245.332 1972.68 249.73 L1972.68 263.387 L1968.4 263.387 L1968.4 237.461 L1972.68 237.461 L1972.68 241.489 Q1974.02 239.128 1976.18 237.994 Q1978.33 236.836 1981.41 236.836 Q1981.85 236.836 1982.38 236.906 Q1982.91 236.952 1983.56 237.068 L1983.58 241.443 Z" fill="#000000" fill-rule="evenodd" fill-opacity="1" /><path clip-path="url(#clip460)" d="M1992.17 259.498 L1992.17 273.248 L1987.89 273.248 L1987.89 237.461 L1992.17 237.461 L1992.17 241.397 Q1993.51 239.082 1995.55 237.971 Q1997.61 236.836 2000.46 236.836 Q2005.18 236.836 2008.12 240.586 Q2011.08 244.336 2011.08 250.447 Q2011.08 256.559 2008.12 260.308 Q2005.18 264.058 2000.46 264.058 Q1997.61 264.058 1995.55 262.947 Q1993.51 261.813 1992.17 259.498 M2006.66 250.447 Q2006.66 245.748 2004.72 243.086 Q2002.8 240.401 1999.42 240.401 Q1996.04 240.401 1994.09 243.086 Q1992.17 245.748 1992.17 250.447 Q1992.17 255.146 1994.09 257.832 Q1996.04 260.494 1999.42 260.494 Q2002.8 260.494 2004.72 257.832 Q2006.66 255.146 2006.66 250.447 Z" fill="#000000" fill-rule="evenodd" fill-opacity="1" /><path clip-path="url(#clip460)" d="M2031.59 232.901 L2019.79 251.35 L2031.59 251.35 L2031.59 232.901 M2030.37 228.827 L2036.24 228.827 L2036.24 251.35 L2041.18 251.35 L2041.18 255.239 L2036.24 255.239 L2036.24 263.387 L2031.59 263.387 L2031.59 255.239 L2015.99 255.239 L2015.99 250.725 L2030.37 228.827 Z" fill="#000000" fill-rule="evenodd" fill-opacity="1" /><polyline clip-path="url(#clip460)" style="stroke:#c271d2; stroke-linecap:butt; stroke-linejoin:round; stroke-width:4; stroke-opacity:1; fill:none" points="
  1662.64,297.947 1796.37,297.947 
  "/>
<path clip-path="url(#clip460)" d="M1729.5 272.347 L1703.9 297.947 L1729.5 323.547 L1755.1 297.947 L1729.5 272.347 Z" fill="#c271d2" fill-rule="evenodd" fill-opacity="1" stroke="#000000" stroke-opacity="1" stroke-width="4.9152"/>
<path clip-path="url(#clip460)" d="M1818.65 280.667 L1823.33 280.667 L1823.33 295.274 L1838.84 280.667 L1844.86 280.667 L1827.7 296.778 L1846.08 315.227 L1839.93 315.227 L1823.33 298.584 L1823.33 315.227 L1818.65 315.227 L1818.65 280.667 Z" fill="#000000" fill-rule="evenodd" fill-opacity="1" /><path clip-path="url(#clip460)" d="M1869.37 301.199 L1869.37 303.283 L1849.79 303.283 Q1850.07 307.681 1852.43 309.996 Q1854.81 312.287 1859.05 312.287 Q1861.5 312.287 1863.79 311.686 Q1866.11 311.084 1868.38 309.88 L1868.38 313.908 Q1866.08 314.88 1863.68 315.389 Q1861.27 315.898 1858.79 315.898 Q1852.59 315.898 1848.95 312.287 Q1845.34 308.676 1845.34 302.519 Q1845.34 296.153 1848.77 292.426 Q1852.22 288.676 1858.05 288.676 Q1863.28 288.676 1866.32 292.056 Q1869.37 295.412 1869.37 301.199 M1865.11 299.949 Q1865.07 296.454 1863.14 294.371 Q1861.25 292.287 1858.1 292.287 Q1854.53 292.287 1852.38 294.301 Q1850.25 296.315 1849.93 299.973 L1865.11 299.949 Z" fill="#000000" fill-rule="evenodd" fill-opacity="1" /><path clip-path="url(#clip460)" d="M1897.91 299.579 L1897.91 315.227 L1893.65 315.227 L1893.65 299.718 Q1893.65 296.037 1892.22 294.209 Q1890.78 292.38 1887.91 292.38 Q1884.46 292.38 1882.47 294.579 Q1880.48 296.778 1880.48 300.574 L1880.48 315.227 L1876.2 315.227 L1876.2 289.301 L1880.48 289.301 L1880.48 293.329 Q1882.01 290.991 1884.07 289.834 Q1886.15 288.676 1888.86 288.676 Q1893.33 288.676 1895.62 291.454 Q1897.91 294.209 1897.91 299.579 Z" fill="#000000" fill-rule="evenodd" fill-opacity="1" /><path clip-path="url(#clip460)" d="M1932.47 283.329 L1932.47 288.26 Q1930.11 286.061 1927.43 284.973 Q1924.76 283.885 1921.75 283.885 Q1915.83 283.885 1912.68 287.519 Q1909.53 291.13 1909.53 297.982 Q1909.53 304.811 1912.68 308.445 Q1915.83 312.056 1921.75 312.056 Q1924.76 312.056 1927.43 310.968 Q1930.11 309.88 1932.47 307.681 L1932.47 312.565 Q1930.02 314.232 1927.26 315.065 Q1924.53 315.898 1921.48 315.898 Q1913.63 315.898 1909.12 311.107 Q1904.6 306.292 1904.6 297.982 Q1904.6 289.649 1909.12 284.857 Q1913.63 280.042 1921.48 280.042 Q1924.58 280.042 1927.31 280.876 Q1930.07 281.686 1932.47 283.329 Z" fill="#000000" fill-rule="evenodd" fill-opacity="1" /><path clip-path="url(#clip460)" d="M1951.29 302.195 Q1946.13 302.195 1944.14 303.375 Q1942.15 304.556 1942.15 307.403 Q1942.15 309.672 1943.63 311.014 Q1945.13 312.334 1947.7 312.334 Q1951.25 312.334 1953.38 309.834 Q1955.53 307.311 1955.53 303.144 L1955.53 302.195 L1951.29 302.195 M1959.79 300.436 L1959.79 315.227 L1955.53 315.227 L1955.53 311.292 Q1954.07 313.653 1951.89 314.787 Q1949.72 315.898 1946.57 315.898 Q1942.59 315.898 1940.23 313.676 Q1937.89 311.431 1937.89 307.681 Q1937.89 303.306 1940.81 301.084 Q1943.75 298.862 1949.56 298.862 L1955.53 298.862 L1955.53 298.445 Q1955.53 295.505 1953.58 293.908 Q1951.66 292.287 1948.17 292.287 Q1945.94 292.287 1943.84 292.82 Q1941.73 293.352 1939.79 294.417 L1939.79 290.482 Q1942.13 289.579 1944.32 289.139 Q1946.52 288.676 1948.61 288.676 Q1954.23 288.676 1957.01 291.593 Q1959.79 294.51 1959.79 300.436 Z" fill="#000000" fill-rule="evenodd" fill-opacity="1" /><path clip-path="url(#clip460)" d="M1983.58 293.283 Q1982.87 292.866 1982.01 292.681 Q1981.18 292.473 1980.16 292.473 Q1976.55 292.473 1974.6 294.834 Q1972.68 297.172 1972.68 301.57 L1972.68 315.227 L1968.4 315.227 L1968.4 289.301 L1972.68 289.301 L1972.68 293.329 Q1974.02 290.968 1976.18 289.834 Q1978.33 288.676 1981.41 288.676 Q1981.85 288.676 1982.38 288.746 Q1982.91 288.792 1983.56 288.908 L1983.58 293.283 Z" fill="#000000" fill-rule="evenodd" fill-opacity="1" /><path clip-path="url(#clip460)" d="M1992.17 311.338 L1992.17 325.088 L1987.89 325.088 L1987.89 289.301 L1992.17 289.301 L1992.17 293.237 Q1993.51 290.922 1995.55 289.811 Q1997.61 288.676 2000.46 288.676 Q2005.18 288.676 2008.12 292.426 Q2011.08 296.176 2011.08 302.287 Q2011.08 308.399 2008.12 312.148 Q2005.18 315.898 2000.46 315.898 Q1997.61 315.898 1995.55 314.787 Q1993.51 313.653 1992.17 311.338 M2006.66 302.287 Q2006.66 297.588 2004.72 294.926 Q2002.8 292.241 1999.42 292.241 Q1996.04 292.241 1994.09 294.926 Q1992.17 297.588 1992.17 302.287 Q1992.17 306.986 1994.09 309.672 Q1996.04 312.334 1999.42 312.334 Q2002.8 312.334 2004.72 309.672 Q2006.66 306.986 2006.66 302.287 Z" fill="#000000" fill-rule="evenodd" fill-opacity="1" /><path clip-path="url(#clip460)" d="M2032.91 296.593 Q2036.27 297.311 2038.14 299.579 Q2040.04 301.848 2040.04 305.181 Q2040.04 310.297 2036.52 313.098 Q2033 315.898 2026.52 315.898 Q2024.35 315.898 2022.03 315.459 Q2019.74 315.042 2017.29 314.186 L2017.29 309.672 Q2019.23 310.806 2021.55 311.385 Q2023.86 311.963 2026.38 311.963 Q2030.78 311.963 2033.07 310.227 Q2035.39 308.491 2035.39 305.181 Q2035.39 302.125 2033.24 300.412 Q2031.11 298.676 2027.29 298.676 L2023.26 298.676 L2023.26 294.834 L2027.47 294.834 Q2030.92 294.834 2032.75 293.468 Q2034.58 292.079 2034.58 289.487 Q2034.58 286.825 2032.68 285.413 Q2030.81 283.977 2027.29 283.977 Q2025.37 283.977 2023.17 284.394 Q2020.97 284.811 2018.33 285.69 L2018.33 281.524 Q2020.99 280.783 2023.31 280.413 Q2025.64 280.042 2027.7 280.042 Q2033.03 280.042 2036.13 282.473 Q2039.23 284.88 2039.23 289 Q2039.23 291.871 2037.59 293.862 Q2035.94 295.829 2032.91 296.593 Z" fill="#000000" fill-rule="evenodd" fill-opacity="1" /><polyline clip-path="url(#clip460)" style="stroke:#ac8d18; stroke-linecap:butt; stroke-linejoin:round; stroke-width:4; stroke-opacity:1; fill:none" points="
  1662.64,349.787 1796.37,349.787 
  "/>
<path clip-path="url(#clip460)" d="M1755.1 324.187 L1703.9 324.187 L1729.5 375.387 L1755.1 324.187 Z" fill="#ac8d18" fill-rule="evenodd" fill-opacity="1" stroke="#000000" stroke-opacity="1" stroke-width="4.9152"/>
<path clip-path="url(#clip460)" d="M1834.49 337.114 L1828.14 354.313 L1840.85 354.313 L1834.49 337.114 M1831.85 332.507 L1837.15 332.507 L1850.32 367.067 L1845.46 367.067 L1842.31 358.201 L1826.73 358.201 L1823.58 367.067 L1818.65 367.067 L1831.85 332.507 Z" fill="#000000" fill-rule="evenodd" fill-opacity="1" /><path clip-path="url(#clip460)" d="M1871.76 350.864 Q1873.26 351.373 1874.67 353.039 Q1876.11 354.706 1877.54 357.623 L1882.29 367.067 L1877.26 367.067 L1872.84 358.201 Q1871.13 354.729 1869.51 353.595 Q1867.91 352.461 1865.13 352.461 L1860.04 352.461 L1860.04 367.067 L1855.37 367.067 L1855.37 332.507 L1865.92 332.507 Q1871.85 332.507 1874.76 334.984 Q1877.68 337.461 1877.68 342.461 Q1877.68 345.725 1876.15 347.877 Q1874.65 350.03 1871.76 350.864 M1860.04 336.35 L1860.04 348.618 L1865.92 348.618 Q1869.3 348.618 1871.01 347.067 Q1872.75 345.493 1872.75 342.461 Q1872.75 339.428 1871.01 337.901 Q1869.3 336.35 1865.92 336.35 L1860.04 336.35 Z" fill="#000000" fill-rule="evenodd" fill-opacity="1" /><path clip-path="url(#clip460)" d="M1888.31 332.507 L1892.98 332.507 L1892.98 347.114 L1908.49 332.507 L1914.51 332.507 L1897.36 348.618 L1915.74 367.067 L1909.58 367.067 L1892.98 350.424 L1892.98 367.067 L1888.31 367.067 L1888.31 332.507 Z" fill="#000000" fill-rule="evenodd" fill-opacity="1" /><path clip-path="url(#clip460)" d="M1930.83 335.678 Q1925.74 335.678 1922.73 339.475 Q1919.74 343.271 1919.74 349.822 Q1919.74 356.35 1922.73 360.146 Q1925.74 363.942 1930.83 363.942 Q1935.92 363.942 1938.88 360.146 Q1941.87 356.35 1941.87 349.822 Q1941.87 343.271 1938.88 339.475 Q1935.92 335.678 1930.83 335.678 M1930.83 331.882 Q1938.1 331.882 1942.45 336.766 Q1946.8 341.628 1946.8 349.822 Q1946.8 357.993 1942.45 362.877 Q1938.1 367.738 1930.83 367.738 Q1923.54 367.738 1919.16 362.877 Q1914.81 358.016 1914.81 349.822 Q1914.81 341.628 1919.16 336.766 Q1923.54 331.882 1930.83 331.882 Z" fill="#000000" fill-rule="evenodd" fill-opacity="1" /><path clip-path="url(#clip460)" d="M1958.79 336.35 L1958.79 363.225 L1964.44 363.225 Q1971.59 363.225 1974.9 359.984 Q1978.24 356.743 1978.24 349.752 Q1978.24 342.808 1974.9 339.59 Q1971.59 336.35 1964.44 336.35 L1958.79 336.35 M1954.12 332.507 L1963.72 332.507 Q1973.77 332.507 1978.47 336.697 Q1983.17 340.864 1983.17 349.752 Q1983.17 358.688 1978.44 362.877 Q1973.72 367.067 1963.72 367.067 L1954.12 367.067 L1954.12 332.507 Z" fill="#000000" fill-rule="evenodd" fill-opacity="1" /><path clip-path="url(#clip460)" d="M1990.62 332.507 L2012.47 332.507 L2012.47 336.442 L1995.3 336.442 L1995.3 346.674 L2011.75 346.674 L2011.75 350.609 L1995.3 350.609 L1995.3 363.132 L2012.89 363.132 L2012.89 367.067 L1990.62 367.067 L1990.62 332.507 Z" fill="#000000" fill-rule="evenodd" fill-opacity="1" /><path clip-path="url(#clip460)" d="M2021.04 332.507 L2039.39 332.507 L2039.39 336.442 L2025.32 336.442 L2025.32 344.915 Q2026.34 344.567 2027.36 344.405 Q2028.37 344.22 2029.39 344.22 Q2035.18 344.22 2038.56 347.391 Q2041.94 350.563 2041.94 355.979 Q2041.94 361.558 2038.47 364.66 Q2035 367.738 2028.68 367.738 Q2026.5 367.738 2024.23 367.368 Q2021.99 366.998 2019.58 366.257 L2019.58 361.558 Q2021.66 362.692 2023.88 363.248 Q2026.11 363.803 2028.58 363.803 Q2032.59 363.803 2034.93 361.697 Q2037.26 359.59 2037.26 355.979 Q2037.26 352.368 2034.93 350.262 Q2032.59 348.155 2028.58 348.155 Q2026.71 348.155 2024.83 348.572 Q2022.98 348.989 2021.04 349.868 L2021.04 332.507 Z" fill="#000000" fill-rule="evenodd" fill-opacity="1" /><polyline clip-path="url(#clip460)" style="stroke:#00a9ad; stroke-linecap:butt; stroke-linejoin:round; stroke-width:4; stroke-opacity:1; fill:none" points="
  1662.64,401.627 1796.37,401.627 
  "/>
<path clip-path="url(#clip460)" d="M1729.5 376.027 L1709.48 385.678 L1704.54 407.336 L1718.39 424.693 L1740.61 424.693 L1754.46 407.336 L1749.52 385.678 Z" fill="#00a9ad" fill-rule="evenodd" fill-opacity="1" stroke="#000000" stroke-opacity="1" stroke-width="4.9152"/>
<path clip-path="url(#clip460)" d="M1834.49 388.954 L1828.14 406.153 L1840.85 406.153 L1834.49 388.954 M1831.85 384.347 L1837.15 384.347 L1850.32 418.907 L1845.46 418.907 L1842.31 410.041 L1826.73 410.041 L1823.58 418.907 L1818.65 418.907 L1831.85 384.347 Z" fill="#000000" fill-rule="evenodd" fill-opacity="1" /><path clip-path="url(#clip460)" d="M1871.76 402.704 Q1873.26 403.213 1874.67 404.879 Q1876.11 406.546 1877.54 409.463 L1882.29 418.907 L1877.26 418.907 L1872.84 410.041 Q1871.13 406.569 1869.51 405.435 Q1867.91 404.301 1865.13 404.301 L1860.04 404.301 L1860.04 418.907 L1855.37 418.907 L1855.37 384.347 L1865.92 384.347 Q1871.85 384.347 1874.76 386.824 Q1877.68 389.301 1877.68 394.301 Q1877.68 397.565 1876.15 399.717 Q1874.65 401.87 1871.76 402.704 M1860.04 388.19 L1860.04 400.458 L1865.92 400.458 Q1869.3 400.458 1871.01 398.907 Q1872.75 397.333 1872.75 394.301 Q1872.75 391.268 1871.01 389.741 Q1869.3 388.19 1865.92 388.19 L1860.04 388.19 Z" fill="#000000" fill-rule="evenodd" fill-opacity="1" /><path clip-path="url(#clip460)" d="M1888.31 384.347 L1892.98 384.347 L1892.98 398.954 L1908.49 384.347 L1914.51 384.347 L1897.36 400.458 L1915.74 418.907 L1909.58 418.907 L1892.98 402.264 L1892.98 418.907 L1888.31 418.907 L1888.31 384.347 Z" fill="#000000" fill-rule="evenodd" fill-opacity="1" /><path clip-path="url(#clip460)" d="M1930.83 387.518 Q1925.74 387.518 1922.73 391.315 Q1919.74 395.111 1919.74 401.662 Q1919.74 408.19 1922.73 411.986 Q1925.74 415.782 1930.83 415.782 Q1935.92 415.782 1938.88 411.986 Q1941.87 408.19 1941.87 401.662 Q1941.87 395.111 1938.88 391.315 Q1935.92 387.518 1930.83 387.518 M1930.83 383.722 Q1938.1 383.722 1942.45 388.606 Q1946.8 393.468 1946.8 401.662 Q1946.8 409.833 1942.45 414.717 Q1938.1 419.578 1930.83 419.578 Q1923.54 419.578 1919.16 414.717 Q1914.81 409.856 1914.81 401.662 Q1914.81 393.468 1919.16 388.606 Q1923.54 383.722 1930.83 383.722 Z" fill="#000000" fill-rule="evenodd" fill-opacity="1" /><path clip-path="url(#clip460)" d="M1958.79 388.19 L1958.79 415.065 L1964.44 415.065 Q1971.59 415.065 1974.9 411.824 Q1978.24 408.583 1978.24 401.592 Q1978.24 394.648 1974.9 391.43 Q1971.59 388.19 1964.44 388.19 L1958.79 388.19 M1954.12 384.347 L1963.72 384.347 Q1973.77 384.347 1978.47 388.537 Q1983.17 392.704 1983.17 401.592 Q1983.17 410.528 1978.44 414.717 Q1973.72 418.907 1963.72 418.907 L1954.12 418.907 L1954.12 384.347 Z" fill="#000000" fill-rule="evenodd" fill-opacity="1" /><path clip-path="url(#clip460)" d="M1990.62 384.347 L2012.47 384.347 L2012.47 388.282 L1995.3 388.282 L1995.3 398.514 L2011.75 398.514 L2011.75 402.449 L1995.3 402.449 L1995.3 414.972 L2012.89 414.972 L2012.89 418.907 L1990.62 418.907 L1990.62 384.347 Z" fill="#000000" fill-rule="evenodd" fill-opacity="1" /><path clip-path="url(#clip460)" d="M2033.84 388.421 L2022.03 406.87 L2033.84 406.87 L2033.84 388.421 M2032.61 384.347 L2038.49 384.347 L2038.49 406.87 L2043.42 406.87 L2043.42 410.759 L2038.49 410.759 L2038.49 418.907 L2033.84 418.907 L2033.84 410.759 L2018.24 410.759 L2018.24 406.245 L2032.61 384.347 Z" fill="#000000" fill-rule="evenodd" fill-opacity="1" /><polyline clip-path="url(#clip460)" style="stroke:#ed5d92; stroke-linecap:butt; stroke-linejoin:round; stroke-width:4; stroke-opacity:1; fill:none" points="
  1662.64,453.467 1796.37,453.467 
  "/>
<path clip-path="url(#clip460)" d="M1729.5 479.067 L1707.33 466.267 L1707.33 440.667 L1729.5 427.867 L1751.67 440.667 L1751.67 466.267 Z" fill="#ed5d92" fill-rule="evenodd" fill-opacity="1" stroke="#000000" stroke-opacity="1" stroke-width="4.9152"/>
<path clip-path="url(#clip460)" d="M1834.49 440.794 L1828.14 457.993 L1840.85 457.993 L1834.49 440.794 M1831.85 436.187 L1837.15 436.187 L1850.32 470.747 L1845.46 470.747 L1842.31 461.881 L1826.73 461.881 L1823.58 470.747 L1818.65 470.747 L1831.85 436.187 Z" fill="#000000" fill-rule="evenodd" fill-opacity="1" /><path clip-path="url(#clip460)" d="M1871.76 454.544 Q1873.26 455.053 1874.67 456.719 Q1876.11 458.386 1877.54 461.303 L1882.29 470.747 L1877.26 470.747 L1872.84 461.881 Q1871.13 458.409 1869.51 457.275 Q1867.91 456.141 1865.13 456.141 L1860.04 456.141 L1860.04 470.747 L1855.37 470.747 L1855.37 436.187 L1865.92 436.187 Q1871.85 436.187 1874.76 438.664 Q1877.68 441.141 1877.68 446.141 Q1877.68 449.405 1876.15 451.557 Q1874.65 453.71 1871.76 454.544 M1860.04 440.03 L1860.04 452.298 L1865.92 452.298 Q1869.3 452.298 1871.01 450.747 Q1872.75 449.173 1872.75 446.141 Q1872.75 443.108 1871.01 441.581 Q1869.3 440.03 1865.92 440.03 L1860.04 440.03 Z" fill="#000000" fill-rule="evenodd" fill-opacity="1" /><path clip-path="url(#clip460)" d="M1888.31 436.187 L1892.98 436.187 L1892.98 450.794 L1908.49 436.187 L1914.51 436.187 L1897.36 452.298 L1915.74 470.747 L1909.58 470.747 L1892.98 454.104 L1892.98 470.747 L1888.31 470.747 L1888.31 436.187 Z" fill="#000000" fill-rule="evenodd" fill-opacity="1" /><path clip-path="url(#clip460)" d="M1930.83 439.358 Q1925.74 439.358 1922.73 443.155 Q1919.74 446.951 1919.74 453.502 Q1919.74 460.03 1922.73 463.826 Q1925.74 467.622 1930.83 467.622 Q1935.92 467.622 1938.88 463.826 Q1941.87 460.03 1941.87 453.502 Q1941.87 446.951 1938.88 443.155 Q1935.92 439.358 1930.83 439.358 M1930.83 435.562 Q1938.1 435.562 1942.45 440.446 Q1946.8 445.308 1946.8 453.502 Q1946.8 461.673 1942.45 466.557 Q1938.1 471.418 1930.83 471.418 Q1923.54 471.418 1919.16 466.557 Q1914.81 461.696 1914.81 453.502 Q1914.81 445.308 1919.16 440.446 Q1923.54 435.562 1930.83 435.562 Z" fill="#000000" fill-rule="evenodd" fill-opacity="1" /><path clip-path="url(#clip460)" d="M1958.79 440.03 L1958.79 466.905 L1964.44 466.905 Q1971.59 466.905 1974.9 463.664 Q1978.24 460.423 1978.24 453.432 Q1978.24 446.488 1974.9 443.27 Q1971.59 440.03 1964.44 440.03 L1958.79 440.03 M1954.12 436.187 L1963.72 436.187 Q1973.77 436.187 1978.47 440.377 Q1983.17 444.544 1983.17 453.432 Q1983.17 462.368 1978.44 466.557 Q1973.72 470.747 1963.72 470.747 L1954.12 470.747 L1954.12 436.187 Z" fill="#000000" fill-rule="evenodd" fill-opacity="1" /><path clip-path="url(#clip460)" d="M1990.62 436.187 L2012.47 436.187 L2012.47 440.122 L1995.3 440.122 L1995.3 450.354 L2011.75 450.354 L2011.75 454.289 L1995.3 454.289 L1995.3 466.812 L2012.89 466.812 L2012.89 470.747 L1990.62 470.747 L1990.62 436.187 Z" fill="#000000" fill-rule="evenodd" fill-opacity="1" /><path clip-path="url(#clip460)" d="M2035.16 452.113 Q2038.51 452.831 2040.39 455.099 Q2042.29 457.368 2042.29 460.701 Q2042.29 465.817 2038.77 468.618 Q2035.25 471.418 2028.77 471.418 Q2026.59 471.418 2024.28 470.979 Q2021.99 470.562 2019.53 469.706 L2019.53 465.192 Q2021.48 466.326 2023.79 466.905 Q2026.11 467.483 2028.63 467.483 Q2033.03 467.483 2035.32 465.747 Q2037.63 464.011 2037.63 460.701 Q2037.63 457.645 2035.48 455.932 Q2033.35 454.196 2029.53 454.196 L2025.5 454.196 L2025.5 450.354 L2029.72 450.354 Q2033.17 450.354 2035 448.988 Q2036.82 447.599 2036.82 445.007 Q2036.82 442.345 2034.93 440.933 Q2033.05 439.497 2029.53 439.497 Q2027.61 439.497 2025.41 439.914 Q2023.21 440.331 2020.57 441.21 L2020.57 437.044 Q2023.24 436.303 2025.55 435.933 Q2027.89 435.562 2029.95 435.562 Q2035.27 435.562 2038.37 437.993 Q2041.48 440.4 2041.48 444.52 Q2041.48 447.391 2039.83 449.382 Q2038.19 451.349 2035.16 452.113 Z" fill="#000000" fill-rule="evenodd" fill-opacity="1" /></svg>
