<?xml version="1.0" encoding="utf-8"?>
<svg xmlns="http://www.w3.org/2000/svg" xmlns:xlink="http://www.w3.org/1999/xlink" width="576" height="384" viewBox="0 0 2304 1536">
<defs>
  <clipPath id="clip340">
    <rect x="0" y="0" width="2304" height="1536"/>
  </clipPath>
</defs>
<path clip-path="url(#clip340)" d="
M0 1536 L2304 1536 L2304 0 L0 0  Z
  " fill="#ffffff" fill-rule="evenodd" fill-opacity="1"/>
<defs>
  <clipPath id="clip341">
    <rect x="460" y="0" width="1614" height="1536"/>
  </clipPath>
</defs>
<path clip-path="url(#clip340)" d="
M250.882 1347.54 L2256.76 1347.54 L2256.76 47.2441 L250.882 47.2441  Z
  " fill="#ffffff" fill-rule="evenodd" fill-opacity="1"/>
<defs>
  <clipPath id="clip342">
    <rect x="250" y="47" width="2007" height="1301"/>
  </clipPath>
</defs>
<polyline clip-path="url(#clip342)" style="stroke:#000000; stroke-linecap:butt; stroke-linejoin:round; stroke-width:2; stroke-opacity:0.1; fill:none" points="
  520.121,1347.54 520.121,47.2441 
  "/>
<polyline clip-path="url(#clip342)" style="stroke:#000000; stroke-linecap:butt; stroke-linejoin:round; stroke-width:2; stroke-opacity:0.1; fill:none" points="
  877.174,1347.54 877.174,47.2441 
  "/>
<polyline clip-path="url(#clip342)" style="stroke:#000000; stroke-linecap:butt; stroke-linejoin:round; stroke-width:2; stroke-opacity:0.1; fill:none" points="
  1234.23,1347.54 1234.23,47.2441 
  "/>
<polyline clip-path="url(#clip342)" style="stroke:#000000; stroke-linecap:butt; stroke-linejoin:round; stroke-width:2; stroke-opacity:0.1; fill:none" points="
  1591.28,1347.54 1591.28,47.2441 
  "/>
<polyline clip-path="url(#clip342)" style="stroke:#000000; stroke-linecap:butt; stroke-linejoin:round; stroke-width:2; stroke-opacity:0.1; fill:none" points="
  1948.33,1347.54 1948.33,47.2441 
  "/>
<polyline clip-path="url(#clip340)" style="stroke:#000000; stroke-linecap:butt; stroke-linejoin:round; stroke-width:4; stroke-opacity:1; fill:none" points="
  250.882,1347.54 2256.76,1347.54 
  "/>
<polyline clip-path="url(#clip340)" style="stroke:#000000; stroke-linecap:butt; stroke-linejoin:round; stroke-width:4; stroke-opacity:1; fill:none" points="
  520.121,1347.54 520.121,1328.64 
  "/>
<polyline clip-path="url(#clip340)" style="stroke:#000000; stroke-linecap:butt; stroke-linejoin:round; stroke-width:4; stroke-opacity:1; fill:none" points="
  877.174,1347.54 877.174,1328.64 
  "/>
<polyline clip-path="url(#clip340)" style="stroke:#000000; stroke-linecap:butt; stroke-linejoin:round; stroke-width:4; stroke-opacity:1; fill:none" points="
  1234.23,1347.54 1234.23,1328.64 
  "/>
<polyline clip-path="url(#clip340)" style="stroke:#000000; stroke-linecap:butt; stroke-linejoin:round; stroke-width:4; stroke-opacity:1; fill:none" points="
  1591.28,1347.54 1591.28,1328.64 
  "/>
<polyline clip-path="url(#clip340)" style="stroke:#000000; stroke-linecap:butt; stroke-linejoin:round; stroke-width:4; stroke-opacity:1; fill:none" points="
  1948.33,1347.54 1948.33,1328.64 
  "/>
<path clip-path="url(#clip340)" d="M469.54 1420.89 L477.179 1420.89 L477.179 1394.53 L468.869 1396.19 L468.869 1391.94 L477.133 1390.27 L481.809 1390.27 L481.809 1420.89 L489.448 1420.89 L489.448 1424.83 L469.54 1424.83 L469.54 1420.89 Z" fill="#000000" fill-rule="evenodd" fill-opacity="1" /><path clip-path="url(#clip340)" d="M508.892 1393.35 Q505.281 1393.35 503.452 1396.91 Q501.647 1400.45 501.647 1407.58 Q501.647 1414.69 503.452 1418.25 Q505.281 1421.8 508.892 1421.8 Q512.526 1421.8 514.332 1418.25 Q516.16 1414.69 516.16 1407.58 Q516.16 1400.45 514.332 1396.91 Q512.526 1393.35 508.892 1393.35 M508.892 1389.64 Q514.702 1389.64 517.758 1394.25 Q520.836 1398.83 520.836 1407.58 Q520.836 1416.31 517.758 1420.92 Q514.702 1425.5 508.892 1425.5 Q503.082 1425.5 500.003 1420.92 Q496.948 1416.31 496.948 1407.58 Q496.948 1398.83 500.003 1394.25 Q503.082 1389.64 508.892 1389.64 Z" fill="#000000" fill-rule="evenodd" fill-opacity="1" /><path clip-path="url(#clip340)" d="M520.836 1383.74 L544.948 1383.74 L544.948 1386.94 L520.836 1386.94 L520.836 1383.74 Z" fill="#000000" fill-rule="evenodd" fill-opacity="1" /><path clip-path="url(#clip340)" d="M563.586 1372.65 L553.994 1387.64 L563.586 1387.64 L563.586 1372.65 M562.59 1369.34 L567.367 1369.34 L567.367 1387.64 L571.373 1387.64 L571.373 1390.8 L567.367 1390.8 L567.367 1397.42 L563.586 1397.42 L563.586 1390.8 L550.91 1390.8 L550.91 1387.13 L562.59 1369.34 Z" fill="#000000" fill-rule="evenodd" fill-opacity="1" /><path clip-path="url(#clip340)" d="M827.054 1420.89 L834.693 1420.89 L834.693 1394.53 L826.383 1396.19 L826.383 1391.94 L834.647 1390.27 L839.323 1390.27 L839.323 1420.89 L846.961 1420.89 L846.961 1424.83 L827.054 1424.83 L827.054 1420.89 Z" fill="#000000" fill-rule="evenodd" fill-opacity="1" /><path clip-path="url(#clip340)" d="M866.406 1393.35 Q862.795 1393.35 860.966 1396.91 Q859.16 1400.45 859.16 1407.58 Q859.16 1414.69 860.966 1418.25 Q862.795 1421.8 866.406 1421.8 Q870.04 1421.8 871.845 1418.25 Q873.674 1414.69 873.674 1407.58 Q873.674 1400.45 871.845 1396.91 Q870.04 1393.35 866.406 1393.35 M866.406 1389.64 Q872.216 1389.64 875.271 1394.25 Q878.35 1398.83 878.35 1407.58 Q878.35 1416.31 875.271 1420.92 Q872.216 1425.5 866.406 1425.5 Q860.596 1425.5 857.517 1420.92 Q854.461 1416.31 854.461 1407.58 Q854.461 1398.83 857.517 1394.25 Q860.596 1389.64 866.406 1389.64 Z" fill="#000000" fill-rule="evenodd" fill-opacity="1" /><path clip-path="url(#clip340)" d="M878.35 1383.74 L902.462 1383.74 L902.462 1386.94 L878.35 1386.94 L878.35 1383.74 Z" fill="#000000" fill-rule="evenodd" fill-opacity="1" /><path clip-path="url(#clip340)" d="M922.172 1382.28 Q924.899 1382.86 926.423 1384.7 Q927.965 1386.55 927.965 1389.26 Q927.965 1393.41 925.106 1395.69 Q922.247 1397.96 916.981 1397.96 Q915.213 1397.96 913.333 1397.61 Q911.471 1397.27 909.477 1396.57 L909.477 1392.9 Q911.057 1393.83 912.938 1394.3 Q914.818 1394.77 916.868 1394.77 Q920.442 1394.77 922.304 1393.36 Q924.185 1391.95 924.185 1389.26 Q924.185 1386.77 922.435 1385.38 Q920.705 1383.97 917.602 1383.97 L914.329 1383.97 L914.329 1380.85 L917.752 1380.85 Q920.555 1380.85 922.041 1379.74 Q923.526 1378.61 923.526 1376.5 Q923.526 1374.34 921.984 1373.19 Q920.461 1372.03 917.602 1372.03 Q916.041 1372.03 914.254 1372.37 Q912.467 1372.7 910.323 1373.42 L910.323 1370.03 Q912.486 1369.43 914.367 1369.13 Q916.267 1368.83 917.94 1368.83 Q922.266 1368.83 924.786 1370.81 Q927.307 1372.76 927.307 1376.11 Q927.307 1378.44 925.971 1380.06 Q924.636 1381.66 922.172 1382.28 Z" fill="#000000" fill-rule="evenodd" fill-opacity="1" /><path clip-path="url(#clip340)" d="M1184.49 1420.89 L1192.13 1420.89 L1192.13 1394.53 L1183.82 1396.19 L1183.82 1391.94 L1192.09 1390.27 L1196.76 1390.27 L1196.76 1420.89 L1204.4 1420.89 L1204.4 1424.83 L1184.49 1424.83 L1184.49 1420.89 Z" fill="#000000" fill-rule="evenodd" fill-opacity="1" /><path clip-path="url(#clip340)" d="M1223.84 1393.35 Q1220.23 1393.35 1218.4 1396.91 Q1216.6 1400.45 1216.6 1407.58 Q1216.6 1414.69 1218.4 1418.25 Q1220.23 1421.8 1223.84 1421.8 Q1227.48 1421.8 1229.28 1418.25 Q1231.11 1414.69 1231.11 1407.58 Q1231.11 1400.45 1229.28 1396.91 Q1227.48 1393.35 1223.84 1393.35 M1223.84 1389.64 Q1229.65 1389.64 1232.71 1394.25 Q1235.79 1398.83 1235.79 1407.58 Q1235.79 1416.31 1232.71 1420.92 Q1229.65 1425.5 1223.84 1425.5 Q1218.03 1425.5 1214.96 1420.92 Q1211.9 1416.31 1211.9 1407.58 Q1211.9 1398.83 1214.96 1394.25 Q1218.03 1389.64 1223.84 1389.64 Z" fill="#000000" fill-rule="evenodd" fill-opacity="1" /><path clip-path="url(#clip340)" d="M1235.79 1383.74 L1259.9 1383.74 L1259.9 1386.94 L1235.79 1386.94 L1235.79 1383.74 Z" fill="#000000" fill-rule="evenodd" fill-opacity="1" /><path clip-path="url(#clip340)" d="M1271.37 1394.22 L1284.63 1394.22 L1284.63 1397.42 L1266.8 1397.42 L1266.8 1394.22 Q1268.97 1391.98 1272.69 1388.22 Q1276.43 1384.44 1277.39 1383.35 Q1279.22 1381.3 1279.93 1379.89 Q1280.66 1378.46 1280.66 1377.09 Q1280.66 1374.85 1279.08 1373.44 Q1277.52 1372.03 1275 1372.03 Q1273.22 1372.03 1271.22 1372.65 Q1269.25 1373.27 1266.99 1374.53 L1266.99 1370.69 Q1269.29 1369.77 1271.28 1369.3 Q1273.27 1368.83 1274.93 1368.83 Q1279.29 1368.83 1281.89 1371.01 Q1284.48 1373.19 1284.48 1376.84 Q1284.48 1378.57 1283.82 1380.13 Q1283.18 1381.68 1281.47 1383.78 Q1281 1384.33 1278.48 1386.94 Q1275.96 1389.54 1271.37 1394.22 Z" fill="#000000" fill-rule="evenodd" fill-opacity="1" /><path clip-path="url(#clip340)" d="M1541.4 1420.89 L1549.03 1420.89 L1549.03 1394.53 L1540.72 1396.19 L1540.72 1391.94 L1548.99 1390.27 L1553.66 1390.27 L1553.66 1420.89 L1561.3 1420.89 L1561.3 1424.83 L1541.4 1424.83 L1541.4 1420.89 Z" fill="#000000" fill-rule="evenodd" fill-opacity="1" /><path clip-path="url(#clip340)" d="M1580.75 1393.35 Q1577.14 1393.35 1575.31 1396.91 Q1573.5 1400.45 1573.5 1407.58 Q1573.5 1414.69 1575.31 1418.25 Q1577.14 1421.8 1580.75 1421.8 Q1584.38 1421.8 1586.19 1418.25 Q1588.02 1414.69 1588.02 1407.58 Q1588.02 1400.45 1586.19 1396.91 Q1584.38 1393.35 1580.75 1393.35 M1580.75 1389.64 Q1586.56 1389.64 1589.61 1394.25 Q1592.69 1398.83 1592.69 1407.58 Q1592.69 1416.31 1589.61 1420.92 Q1586.56 1425.5 1580.75 1425.5 Q1574.94 1425.5 1571.86 1420.92 Q1568.8 1416.31 1568.8 1407.58 Q1568.8 1398.83 1571.86 1394.25 Q1574.94 1389.64 1580.75 1389.64 Z" fill="#000000" fill-rule="evenodd" fill-opacity="1" /><path clip-path="url(#clip340)" d="M1592.69 1383.74 L1616.8 1383.74 L1616.8 1386.94 L1592.69 1386.94 L1592.69 1383.74 Z" fill="#000000" fill-rule="evenodd" fill-opacity="1" /><path clip-path="url(#clip340)" d="M1625.66 1394.22 L1631.87 1394.22 L1631.87 1372.8 L1625.12 1374.15 L1625.12 1370.69 L1631.83 1369.34 L1635.63 1369.34 L1635.63 1394.22 L1641.84 1394.22 L1641.84 1397.42 L1625.66 1397.42 L1625.66 1394.22 Z" fill="#000000" fill-rule="evenodd" fill-opacity="1" /><path clip-path="url(#clip340)" d="M1913.32 1420.89 L1920.95 1420.89 L1920.95 1394.53 L1912.64 1396.19 L1912.64 1391.94 L1920.91 1390.27 L1925.58 1390.27 L1925.58 1420.89 L1933.22 1420.89 L1933.22 1424.83 L1913.32 1424.83 L1913.32 1420.89 Z" fill="#000000" fill-rule="evenodd" fill-opacity="1" /><path clip-path="url(#clip340)" d="M1952.67 1393.35 Q1949.06 1393.35 1947.23 1396.91 Q1945.42 1400.45 1945.42 1407.58 Q1945.42 1414.69 1947.23 1418.25 Q1949.06 1421.8 1952.67 1421.8 Q1956.3 1421.8 1958.11 1418.25 Q1959.94 1414.69 1959.94 1407.58 Q1959.94 1400.45 1958.11 1396.91 Q1956.3 1393.35 1952.67 1393.35 M1952.67 1389.64 Q1958.48 1389.64 1961.53 1394.25 Q1964.61 1398.83 1964.61 1407.58 Q1964.61 1416.31 1961.53 1420.92 Q1958.48 1425.5 1952.67 1425.5 Q1946.86 1425.5 1943.78 1420.92 Q1940.72 1416.31 1940.72 1407.58 Q1940.72 1398.83 1943.78 1394.25 Q1946.86 1389.64 1952.67 1389.64 Z" fill="#000000" fill-rule="evenodd" fill-opacity="1" /><path clip-path="url(#clip340)" d="M1974.32 1371.84 Q1971.38 1371.84 1969.9 1374.74 Q1968.43 1377.61 1968.43 1383.41 Q1968.43 1389.18 1969.9 1392.08 Q1971.38 1394.95 1974.32 1394.95 Q1977.27 1394.95 1978.74 1392.08 Q1980.22 1389.18 1980.22 1383.41 Q1980.22 1377.61 1978.74 1374.74 Q1977.27 1371.84 1974.32 1371.84 M1974.32 1368.83 Q1979.04 1368.83 1981.52 1372.57 Q1984.02 1376.3 1984.02 1383.41 Q1984.02 1390.5 1981.52 1394.24 Q1979.04 1397.96 1974.32 1397.96 Q1969.6 1397.96 1967.09 1394.24 Q1964.61 1390.5 1964.61 1383.41 Q1964.61 1376.3 1967.09 1372.57 Q1969.6 1368.83 1974.32 1368.83 Z" fill="#000000" fill-rule="evenodd" fill-opacity="1" /><path clip-path="url(#clip340)" d="M1177.57 1461.87 L1207.62 1461.87 L1207.62 1467.28 L1184 1467.28 L1184 1481.34 L1206.63 1481.34 L1206.63 1486.76 L1184 1486.76 L1184 1503.97 L1208.19 1503.97 L1208.19 1509.39 L1177.57 1509.39 L1177.57 1461.87 Z" fill="#000000" fill-rule="evenodd" fill-opacity="1" /><path clip-path="url(#clip340)" d="M1239.16 1479.21 Q1238.18 1478.64 1237 1478.38 Q1235.85 1478.1 1234.45 1478.1 Q1229.49 1478.1 1226.81 1481.34 Q1224.17 1484.56 1224.17 1490.61 L1224.17 1509.39 L1218.28 1509.39 L1218.28 1473.74 L1224.17 1473.74 L1224.17 1479.28 Q1226.02 1476.03 1228.98 1474.47 Q1231.94 1472.88 1236.17 1472.88 Q1236.77 1472.88 1237.51 1472.97 Q1238.24 1473.04 1239.13 1473.2 L1239.16 1479.21 Z" fill="#000000" fill-rule="evenodd" fill-opacity="1" /><path clip-path="url(#clip340)" d="M1264.82 1479.21 Q1263.83 1478.64 1262.65 1478.38 Q1261.51 1478.1 1260.11 1478.1 Q1255.14 1478.1 1252.47 1481.34 Q1249.82 1484.56 1249.82 1490.61 L1249.82 1509.39 L1243.94 1509.39 L1243.94 1473.74 L1249.82 1473.74 L1249.82 1479.28 Q1251.67 1476.03 1254.63 1474.47 Q1257.59 1472.88 1261.82 1472.88 Q1262.43 1472.88 1263.16 1472.97 Q1263.89 1473.04 1264.78 1473.2 L1264.82 1479.21 Z" fill="#000000" fill-rule="evenodd" fill-opacity="1" /><path clip-path="url(#clip340)" d="M1283.34 1477.84 Q1278.63 1477.84 1275.89 1481.54 Q1273.15 1485.2 1273.15 1491.59 Q1273.15 1497.99 1275.86 1501.68 Q1278.6 1505.34 1283.34 1505.34 Q1288.02 1505.34 1290.76 1501.65 Q1293.49 1497.96 1293.49 1491.59 Q1293.49 1485.26 1290.76 1481.57 Q1288.02 1477.84 1283.34 1477.84 M1283.34 1472.88 Q1290.98 1472.88 1295.34 1477.84 Q1299.7 1482.81 1299.7 1491.59 Q1299.7 1500.35 1295.34 1505.34 Q1290.98 1510.31 1283.34 1510.31 Q1275.67 1510.31 1271.31 1505.34 Q1266.98 1500.35 1266.98 1491.59 Q1266.98 1482.81 1271.31 1477.84 Q1275.67 1472.88 1283.34 1472.88 Z" fill="#000000" fill-rule="evenodd" fill-opacity="1" /><path clip-path="url(#clip340)" d="M1330.06 1479.21 Q1329.08 1478.64 1327.9 1478.38 Q1326.75 1478.1 1325.35 1478.1 Q1320.39 1478.1 1317.71 1481.34 Q1315.07 1484.56 1315.07 1490.61 L1315.07 1509.39 L1309.18 1509.39 L1309.18 1473.74 L1315.07 1473.74 L1315.07 1479.28 Q1316.92 1476.03 1319.88 1474.47 Q1322.84 1472.88 1327.07 1472.88 Q1327.68 1472.88 1328.41 1472.97 Q1329.14 1473.04 1330.03 1473.2 L1330.06 1479.21 Z" fill="#000000" fill-rule="evenodd" fill-opacity="1" /><polyline clip-path="url(#clip342)" style="stroke:#000000; stroke-linecap:butt; stroke-linejoin:round; stroke-width:2; stroke-opacity:0.1; fill:none" points="
  250.882,803.128 2256.76,803.128 
  "/>
<polyline clip-path="url(#clip342)" style="stroke:#000000; stroke-linecap:butt; stroke-linejoin:round; stroke-width:2; stroke-opacity:0.1; fill:none" points="
  250.882,117.643 2256.76,117.643 
  "/>
<polyline clip-path="url(#clip340)" style="stroke:#000000; stroke-linecap:butt; stroke-linejoin:round; stroke-width:4; stroke-opacity:1; fill:none" points="
  250.882,1347.54 250.882,47.2441 
  "/>
<polyline clip-path="url(#clip340)" style="stroke:#000000; stroke-linecap:butt; stroke-linejoin:round; stroke-width:4; stroke-opacity:1; fill:none" points="
  250.882,803.128 269.78,803.128 
  "/>
<polyline clip-path="url(#clip340)" style="stroke:#000000; stroke-linecap:butt; stroke-linejoin:round; stroke-width:4; stroke-opacity:1; fill:none" points="
  250.882,117.643 269.78,117.643 
  "/>
<path clip-path="url(#clip340)" d="M115.411 822.92 L123.05 822.92 L123.05 796.555 L114.74 798.221 L114.74 793.962 L123.004 792.296 L127.68 792.296 L127.68 822.92 L135.319 822.92 L135.319 826.856 L115.411 826.856 L115.411 822.92 Z" fill="#000000" fill-rule="evenodd" fill-opacity="1" /><path clip-path="url(#clip340)" d="M154.763 795.374 Q151.152 795.374 149.323 798.939 Q147.518 802.481 147.518 809.61 Q147.518 816.717 149.323 820.281 Q151.152 823.823 154.763 823.823 Q158.397 823.823 160.203 820.281 Q162.032 816.717 162.032 809.61 Q162.032 802.481 160.203 798.939 Q158.397 795.374 154.763 795.374 M154.763 791.671 Q160.573 791.671 163.629 796.277 Q166.707 800.86 166.707 809.61 Q166.707 818.337 163.629 822.944 Q160.573 827.527 154.763 827.527 Q148.953 827.527 145.874 822.944 Q142.819 818.337 142.819 809.61 Q142.819 800.86 145.874 796.277 Q148.953 791.671 154.763 791.671 Z" fill="#000000" fill-rule="evenodd" fill-opacity="1" /><path clip-path="url(#clip340)" d="M166.707 785.772 L190.819 785.772 L190.819 788.969 L166.707 788.969 L166.707 785.772 Z" fill="#000000" fill-rule="evenodd" fill-opacity="1" /><path clip-path="url(#clip340)" d="M210.53 784.305 Q213.257 784.888 214.78 786.731 Q216.322 788.574 216.322 791.283 Q216.322 795.439 213.464 797.715 Q210.605 799.991 205.339 799.991 Q203.571 799.991 201.69 799.633 Q199.828 799.295 197.834 798.599 L197.834 794.931 Q199.414 795.853 201.295 796.323 Q203.176 796.793 205.226 796.793 Q208.799 796.793 210.661 795.383 Q212.542 793.972 212.542 791.283 Q212.542 788.8 210.793 787.408 Q209.063 785.998 205.959 785.998 L202.687 785.998 L202.687 782.875 L206.11 782.875 Q208.912 782.875 210.398 781.766 Q211.884 780.637 211.884 778.531 Q211.884 776.368 210.341 775.221 Q208.818 774.055 205.959 774.055 Q204.398 774.055 202.612 774.393 Q200.825 774.732 198.681 775.446 L198.681 772.061 Q200.844 771.459 202.724 771.158 Q204.624 770.857 206.298 770.857 Q210.624 770.857 213.144 772.832 Q215.664 774.788 215.664 778.136 Q215.664 780.468 214.329 782.086 Q212.993 783.684 210.53 784.305 Z" fill="#000000" fill-rule="evenodd" fill-opacity="1" /><path clip-path="url(#clip340)" d="M116.183 137.435 L123.821 137.435 L123.821 111.069 L115.511 112.736 L115.511 108.477 L123.775 106.81 L128.451 106.81 L128.451 137.435 L136.09 137.435 L136.09 141.37 L116.183 141.37 L116.183 137.435 Z" fill="#000000" fill-rule="evenodd" fill-opacity="1" /><path clip-path="url(#clip340)" d="M155.534 109.889 Q151.923 109.889 150.094 113.454 Q148.289 116.995 148.289 124.125 Q148.289 131.231 150.094 134.796 Q151.923 138.338 155.534 138.338 Q159.168 138.338 160.974 134.796 Q162.803 131.231 162.803 124.125 Q162.803 116.995 160.974 113.454 Q159.168 109.889 155.534 109.889 M155.534 106.185 Q161.344 106.185 164.4 110.792 Q167.479 115.375 167.479 124.125 Q167.479 132.852 164.4 137.458 Q161.344 142.041 155.534 142.041 Q149.724 142.041 146.645 137.458 Q143.59 132.852 143.59 124.125 Q143.59 115.375 146.645 110.792 Q149.724 106.185 155.534 106.185 Z" fill="#000000" fill-rule="evenodd" fill-opacity="1" /><path clip-path="url(#clip340)" d="M167.479 100.287 L191.59 100.287 L191.59 103.484 L167.479 103.484 L167.479 100.287 Z" fill="#000000" fill-rule="evenodd" fill-opacity="1" /><path clip-path="url(#clip340)" d="M203.063 110.762 L216.322 110.762 L216.322 113.96 L198.493 113.96 L198.493 110.762 Q200.655 108.524 204.379 104.763 Q208.122 100.982 209.081 99.8915 Q210.906 97.8415 211.62 96.4309 Q212.354 95.0015 212.354 93.6286 Q212.354 91.3904 210.774 89.9798 Q209.213 88.5693 206.693 88.5693 Q204.906 88.5693 202.912 89.1899 Q200.938 89.8106 198.681 91.0707 L198.681 87.2339 Q200.975 86.3123 202.969 85.8421 Q204.962 85.3719 206.618 85.3719 Q210.981 85.3719 213.576 87.5536 Q216.172 89.7353 216.172 93.3841 Q216.172 95.1144 215.514 96.6754 Q214.874 98.2176 213.163 100.324 Q212.692 100.87 210.172 103.484 Q207.652 106.079 203.063 110.762 Z" fill="#000000" fill-rule="evenodd" fill-opacity="1" /><path clip-path="url(#clip340)" d="M18.4042 827.219 L18.4042 787.02 L23.815 787.02 L23.815 803.889 L65.9242 803.889 L65.9242 810.35 L23.815 810.35 L23.815 827.219 L18.4042 827.219 Z" fill="#000000" fill-rule="evenodd" fill-opacity="1" /><path clip-path="url(#clip340)" d="M30.2762 783.073 L30.2762 777.216 L65.9242 777.216 L65.9242 783.073 L30.2762 783.073 M16.399 783.073 L16.399 777.216 L23.815 777.216 L23.815 783.073 L16.399 783.073 Z" fill="#000000" fill-rule="evenodd" fill-opacity="1" /><path clip-path="url(#clip340)" d="M37.1193 737.208 Q33.1726 735.012 31.2947 731.956 Q29.4168 728.901 29.4168 724.763 Q29.4168 719.193 33.3317 716.169 Q37.2148 713.145 44.4081 713.145 L65.9242 713.145 L65.9242 719.034 L44.599 719.034 Q39.4746 719.034 36.992 720.848 Q34.5094 722.662 34.5094 726.386 Q34.5094 730.938 37.5331 733.579 Q40.5568 736.221 45.7767 736.221 L65.9242 736.221 L65.9242 742.109 L44.599 742.109 Q39.4428 742.109 36.992 743.924 Q34.5094 745.738 34.5094 749.526 Q34.5094 754.013 37.5649 756.655 Q40.5886 759.297 45.7767 759.297 L65.9242 759.297 L65.9242 765.185 L30.2762 765.185 L30.2762 759.297 L35.8144 759.297 Q32.536 757.292 30.9764 754.491 Q29.4168 751.69 29.4168 747.839 Q29.4168 743.956 31.3902 741.25 Q33.3636 738.513 37.1193 737.208 Z" fill="#000000" fill-rule="evenodd" fill-opacity="1" /><path clip-path="url(#clip340)" d="M46.6361 670.973 L49.5006 670.973 L49.5006 697.9 Q55.5481 697.518 58.7309 694.271 Q61.8819 690.993 61.8819 685.168 Q61.8819 681.794 61.0544 678.643 Q60.2269 675.461 58.5718 672.341 L64.1099 672.341 Q65.4467 675.492 66.147 678.803 Q66.8472 682.113 66.8472 685.518 Q66.8472 694.048 61.8819 699.045 Q56.9167 704.011 48.4503 704.011 Q39.6974 704.011 34.5731 699.3 Q29.4168 694.558 29.4168 686.537 Q29.4168 679.344 34.0638 675.174 Q38.6789 670.973 46.6361 670.973 M44.9173 676.829 Q40.1112 676.893 37.2466 679.535 Q34.3821 682.145 34.3821 686.473 Q34.3821 691.375 37.1512 694.335 Q39.9202 697.263 44.9492 697.709 L44.9173 676.829 Z" fill="#000000" fill-rule="evenodd" fill-opacity="1" /><path clip-path="url(#clip340)" d="M16.4626 626.572 Q23.7832 630.837 30.9446 632.906 Q38.106 634.975 45.4584 634.975 Q52.8108 634.975 60.0359 632.906 Q67.2291 630.805 74.5179 626.572 L74.5179 631.664 Q67.0382 636.439 59.8131 638.826 Q52.588 641.181 45.4584 641.181 Q38.3606 641.181 31.1674 638.826 Q23.9742 636.471 16.4626 631.664 L16.4626 626.572 Z" fill="#000000" fill-rule="evenodd" fill-opacity="1" /><path clip-path="url(#clip340)" d="M31.3265 592.484 L36.8647 592.484 Q35.5916 594.966 34.955 597.64 Q34.3184 600.313 34.3184 603.178 Q34.3184 607.538 35.6552 609.735 Q36.992 611.899 39.6656 611.899 Q41.7026 611.899 42.8803 610.339 Q44.0261 608.78 45.0765 604.069 L45.5221 602.064 Q46.8589 595.826 49.3097 593.216 Q51.7286 590.574 56.0891 590.574 Q61.0544 590.574 63.9508 594.521 Q66.8472 598.435 66.8472 605.31 Q66.8472 608.175 66.2743 611.294 Q65.7332 614.382 64.6192 617.819 L58.5718 617.819 Q60.2587 614.573 61.118 611.422 Q61.9456 608.27 61.9456 605.183 Q61.9456 601.045 60.5451 598.817 Q59.1129 596.589 56.5347 596.589 Q54.1476 596.589 52.8745 598.213 Q51.6013 599.804 50.4237 605.247 L49.9462 607.284 Q48.8004 612.726 46.4451 615.145 Q44.058 617.564 39.9202 617.564 Q34.8913 617.564 32.1541 614 Q29.4168 610.435 29.4168 603.878 Q29.4168 600.632 29.8943 597.767 Q30.3717 594.902 31.3265 592.484 Z" fill="#000000" fill-rule="evenodd" fill-opacity="1" /><path clip-path="url(#clip340)" d="M16.4626 582.171 L16.4626 577.079 Q23.9742 572.304 31.1674 569.949 Q38.3606 567.562 45.4584 567.562 Q52.588 567.562 59.8131 569.949 Q67.0382 572.304 74.5179 577.079 L74.5179 582.171 Q67.2291 577.938 60.0359 575.869 Q52.8108 573.768 45.4584 573.768 Q38.106 573.768 30.9446 575.869 Q23.7832 577.938 16.4626 582.171 Z" fill="#000000" fill-rule="evenodd" fill-opacity="1" /><polyline clip-path="url(#clip342)" style="stroke:#009af9; stroke-linecap:butt; stroke-linejoin:round; stroke-width:12; stroke-opacity:1; fill:none" points="
  1635.7,1266.5 1552.56,1041.24 1318.35,797.349 1088.52,574.006 
  "/>
<line clip-path="url(#clip342)" x1="1635.7" y1="1266.5" x2="1635.7" y2="1250.5" style="stroke:#009af9; stroke-width:3.072; stroke-opacity:1"/>
<line clip-path="url(#clip342)" x1="1635.7" y1="1266.5" x2="1619.7" y2="1266.5" style="stroke:#009af9; stroke-width:3.072; stroke-opacity:1"/>
<line clip-path="url(#clip342)" x1="1635.7" y1="1266.5" x2="1635.7" y2="1282.5" style="stroke:#009af9; stroke-width:3.072; stroke-opacity:1"/>
<line clip-path="url(#clip342)" x1="1635.7" y1="1266.5" x2="1651.7" y2="1266.5" style="stroke:#009af9; stroke-width:3.072; stroke-opacity:1"/>
<line clip-path="url(#clip342)" x1="1552.56" y1="1041.24" x2="1552.56" y2="1025.24" style="stroke:#009af9; stroke-width:3.072; stroke-opacity:1"/>
<line clip-path="url(#clip342)" x1="1552.56" y1="1041.24" x2="1536.56" y2="1041.24" style="stroke:#009af9; stroke-width:3.072; stroke-opacity:1"/>
<line clip-path="url(#clip342)" x1="1552.56" y1="1041.24" x2="1552.56" y2="1057.24" style="stroke:#009af9; stroke-width:3.072; stroke-opacity:1"/>
<line clip-path="url(#clip342)" x1="1552.56" y1="1041.24" x2="1568.56" y2="1041.24" style="stroke:#009af9; stroke-width:3.072; stroke-opacity:1"/>
<line clip-path="url(#clip342)" x1="1318.35" y1="797.349" x2="1318.35" y2="781.349" style="stroke:#009af9; stroke-width:3.072; stroke-opacity:1"/>
<line clip-path="url(#clip342)" x1="1318.35" y1="797.349" x2="1302.35" y2="797.349" style="stroke:#009af9; stroke-width:3.072; stroke-opacity:1"/>
<line clip-path="url(#clip342)" x1="1318.35" y1="797.349" x2="1318.35" y2="813.349" style="stroke:#009af9; stroke-width:3.072; stroke-opacity:1"/>
<line clip-path="url(#clip342)" x1="1318.35" y1="797.349" x2="1334.35" y2="797.349" style="stroke:#009af9; stroke-width:3.072; stroke-opacity:1"/>
<line clip-path="url(#clip342)" x1="1088.52" y1="574.006" x2="1088.52" y2="558.006" style="stroke:#009af9; stroke-width:3.072; stroke-opacity:1"/>
<line clip-path="url(#clip342)" x1="1088.52" y1="574.006" x2="1072.52" y2="574.006" style="stroke:#009af9; stroke-width:3.072; stroke-opacity:1"/>
<line clip-path="url(#clip342)" x1="1088.52" y1="574.006" x2="1088.52" y2="590.006" style="stroke:#009af9; stroke-width:3.072; stroke-opacity:1"/>
<line clip-path="url(#clip342)" x1="1088.52" y1="574.006" x2="1104.52" y2="574.006" style="stroke:#009af9; stroke-width:3.072; stroke-opacity:1"/>
<polyline clip-path="url(#clip342)" style="stroke:#e26f46; stroke-linecap:butt; stroke-linejoin:round; stroke-width:12; stroke-opacity:1; fill:none" points="
  2199.99,1075.99 1169.25,394.994 1358.2,208.505 868.816,84.0448 
  "/>
<circle clip-path="url(#clip342)" cx="2199.99" cy="1075.99" r="14" fill="#e26f46" fill-rule="evenodd" fill-opacity="1" stroke="#000000" stroke-opacity="1" stroke-width="3.072"/>
<circle clip-path="url(#clip342)" cx="1169.25" cy="394.994" r="14" fill="#e26f46" fill-rule="evenodd" fill-opacity="1" stroke="#000000" stroke-opacity="1" stroke-width="3.072"/>
<circle clip-path="url(#clip342)" cx="1358.2" cy="208.505" r="14" fill="#e26f46" fill-rule="evenodd" fill-opacity="1" stroke="#000000" stroke-opacity="1" stroke-width="3.072"/>
<circle clip-path="url(#clip342)" cx="868.816" cy="84.0448" r="14" fill="#e26f46" fill-rule="evenodd" fill-opacity="1" stroke="#000000" stroke-opacity="1" stroke-width="3.072"/>
<polyline clip-path="url(#clip342)" style="stroke:#3da44d; stroke-linecap:butt; stroke-linejoin:round; stroke-width:12; stroke-opacity:1; fill:none" points="
  1857.89,752.035 1822.97,638.187 1361.21,532.486 1170.47,424.811 
  "/>
<line clip-path="url(#clip342)" x1="1857.89" y1="752.035" x2="1857.89" y2="736.035" style="stroke:#3da44d; stroke-width:3.072; stroke-opacity:1"/>
<line clip-path="url(#clip342)" x1="1857.89" y1="752.035" x2="1841.89" y2="752.035" style="stroke:#3da44d; stroke-width:3.072; stroke-opacity:1"/>
<line clip-path="url(#clip342)" x1="1857.89" y1="752.035" x2="1857.89" y2="768.035" style="stroke:#3da44d; stroke-width:3.072; stroke-opacity:1"/>
<line clip-path="url(#clip342)" x1="1857.89" y1="752.035" x2="1873.89" y2="752.035" style="stroke:#3da44d; stroke-width:3.072; stroke-opacity:1"/>
<line clip-path="url(#clip342)" x1="1822.97" y1="638.187" x2="1822.97" y2="622.187" style="stroke:#3da44d; stroke-width:3.072; stroke-opacity:1"/>
<line clip-path="url(#clip342)" x1="1822.97" y1="638.187" x2="1806.97" y2="638.187" style="stroke:#3da44d; stroke-width:3.072; stroke-opacity:1"/>
<line clip-path="url(#clip342)" x1="1822.97" y1="638.187" x2="1822.97" y2="654.187" style="stroke:#3da44d; stroke-width:3.072; stroke-opacity:1"/>
<line clip-path="url(#clip342)" x1="1822.97" y1="638.187" x2="1838.97" y2="638.187" style="stroke:#3da44d; stroke-width:3.072; stroke-opacity:1"/>
<line clip-path="url(#clip342)" x1="1361.21" y1="532.486" x2="1361.21" y2="516.486" style="stroke:#3da44d; stroke-width:3.072; stroke-opacity:1"/>
<line clip-path="url(#clip342)" x1="1361.21" y1="532.486" x2="1345.21" y2="532.486" style="stroke:#3da44d; stroke-width:3.072; stroke-opacity:1"/>
<line clip-path="url(#clip342)" x1="1361.21" y1="532.486" x2="1361.21" y2="548.486" style="stroke:#3da44d; stroke-width:3.072; stroke-opacity:1"/>
<line clip-path="url(#clip342)" x1="1361.21" y1="532.486" x2="1377.21" y2="532.486" style="stroke:#3da44d; stroke-width:3.072; stroke-opacity:1"/>
<line clip-path="url(#clip342)" x1="1170.47" y1="424.811" x2="1170.47" y2="408.811" style="stroke:#3da44d; stroke-width:3.072; stroke-opacity:1"/>
<line clip-path="url(#clip342)" x1="1170.47" y1="424.811" x2="1154.47" y2="424.811" style="stroke:#3da44d; stroke-width:3.072; stroke-opacity:1"/>
<line clip-path="url(#clip342)" x1="1170.47" y1="424.811" x2="1170.47" y2="440.811" style="stroke:#3da44d; stroke-width:3.072; stroke-opacity:1"/>
<line clip-path="url(#clip342)" x1="1170.47" y1="424.811" x2="1186.47" y2="424.811" style="stroke:#3da44d; stroke-width:3.072; stroke-opacity:1"/>
<polyline clip-path="url(#clip342)" style="stroke:#c271d2; stroke-linecap:butt; stroke-linejoin:round; stroke-width:12; stroke-opacity:1; fill:none" points="
  1948.31,858.163 1919.98,760.378 1410.25,547.715 1154.27,442.755 
  "/>
<path clip-path="url(#clip342)" d="M1948.31 842.163 L1932.31 858.163 L1948.31 874.163 L1964.31 858.163 L1948.31 842.163 Z" fill="#c271d2" fill-rule="evenodd" fill-opacity="1" stroke="#000000" stroke-opacity="1" stroke-width="3.072"/>
<path clip-path="url(#clip342)" d="M1919.98 744.378 L1903.98 760.378 L1919.98 776.378 L1935.98 760.378 L1919.98 744.378 Z" fill="#c271d2" fill-rule="evenodd" fill-opacity="1" stroke="#000000" stroke-opacity="1" stroke-width="3.072"/>
<path clip-path="url(#clip342)" d="M1410.25 531.715 L1394.25 547.715 L1410.25 563.715 L1426.25 547.715 L1410.25 531.715 Z" fill="#c271d2" fill-rule="evenodd" fill-opacity="1" stroke="#000000" stroke-opacity="1" stroke-width="3.072"/>
<path clip-path="url(#clip342)" d="M1154.27 426.755 L1138.27 442.755 L1154.27 458.755 L1170.27 442.755 L1154.27 426.755 Z" fill="#c271d2" fill-rule="evenodd" fill-opacity="1" stroke="#000000" stroke-opacity="1" stroke-width="3.072"/>
<polyline clip-path="url(#clip342)" style="stroke:#ac8d18; stroke-linecap:butt; stroke-linejoin:round; stroke-width:12; stroke-opacity:1; fill:none" points="
  2034.3,1310.74 2104.76,778.008 1742.17,771.507 2102.86,692.657 
  "/>
<path clip-path="url(#clip342)" d="M2050.3 1294.74 L2018.3 1294.74 L2034.3 1326.74 L2050.3 1294.74 Z" fill="#ac8d18" fill-rule="evenodd" fill-opacity="1" stroke="#000000" stroke-opacity="1" stroke-width="3.072"/>
<path clip-path="url(#clip342)" d="M2120.76 762.008 L2088.76 762.008 L2104.76 794.008 L2120.76 762.008 Z" fill="#ac8d18" fill-rule="evenodd" fill-opacity="1" stroke="#000000" stroke-opacity="1" stroke-width="3.072"/>
<path clip-path="url(#clip342)" d="M1758.17 755.507 L1726.17 755.507 L1742.17 787.507 L1758.17 755.507 Z" fill="#ac8d18" fill-rule="evenodd" fill-opacity="1" stroke="#000000" stroke-opacity="1" stroke-width="3.072"/>
<path clip-path="url(#clip342)" d="M2118.86 676.657 L2086.86 676.657 L2102.86 708.657 L2118.86 676.657 Z" fill="#ac8d18" fill-rule="evenodd" fill-opacity="1" stroke="#000000" stroke-opacity="1" stroke-width="3.072"/>
<polyline clip-path="url(#clip342)" style="stroke:#00a9ad; stroke-linecap:butt; stroke-linejoin:round; stroke-width:12; stroke-opacity:1; fill:none" points="
  2103.52,594.749 1911.06,518.268 1221.43,446.509 1116.49,330.353 
  "/>
<path clip-path="url(#clip342)" d="M2103.52 578.749 L2091.01 584.781 L2087.92 598.317 L2096.57 609.165 L2110.46 609.165 L2119.12 598.317 L2116.03 584.781 Z" fill="#00a9ad" fill-rule="evenodd" fill-opacity="1" stroke="#000000" stroke-opacity="1" stroke-width="3.072"/>
<path clip-path="url(#clip342)" d="M1911.06 502.268 L1898.55 508.3 L1895.46 521.836 L1904.12 532.684 L1918.01 532.684 L1926.66 521.836 L1923.58 508.3 Z" fill="#00a9ad" fill-rule="evenodd" fill-opacity="1" stroke="#000000" stroke-opacity="1" stroke-width="3.072"/>
<path clip-path="url(#clip342)" d="M1221.43 430.509 L1208.92 436.541 L1205.83 450.077 L1214.48 460.925 L1228.37 460.925 L1237.03 450.077 L1233.94 436.541 Z" fill="#00a9ad" fill-rule="evenodd" fill-opacity="1" stroke="#000000" stroke-opacity="1" stroke-width="3.072"/>
<path clip-path="url(#clip342)" d="M1116.49 314.353 L1103.98 320.385 L1100.89 333.921 L1109.55 344.769 L1123.43 344.769 L1132.09 333.921 L1129 320.385 Z" fill="#00a9ad" fill-rule="evenodd" fill-opacity="1" stroke="#000000" stroke-opacity="1" stroke-width="3.072"/>
<polyline clip-path="url(#clip342)" style="stroke:#ed5d92; stroke-linecap:butt; stroke-linejoin:round; stroke-width:12; stroke-opacity:1; fill:none" points="
  1767.76,749.248 1279.57,646.17 799.055,497.382 515.707,338.433 
  "/>
<path clip-path="url(#clip342)" d="M1767.76 765.248 L1753.91 757.248 L1753.91 741.248 L1767.76 733.248 L1781.62 741.248 L1781.62 757.248 Z" fill="#ed5d92" fill-rule="evenodd" fill-opacity="1" stroke="#000000" stroke-opacity="1" stroke-width="3.072"/>
<path clip-path="url(#clip342)" d="M1279.57 662.17 L1265.71 654.17 L1265.71 638.17 L1279.57 630.17 L1293.43 638.17 L1293.43 654.17 Z" fill="#ed5d92" fill-rule="evenodd" fill-opacity="1" stroke="#000000" stroke-opacity="1" stroke-width="3.072"/>
<path clip-path="url(#clip342)" d="M799.055 513.382 L785.199 505.382 L785.199 489.382 L799.055 481.382 L812.911 489.382 L812.911 505.382 Z" fill="#ed5d92" fill-rule="evenodd" fill-opacity="1" stroke="#000000" stroke-opacity="1" stroke-width="3.072"/>
<path clip-path="url(#clip342)" d="M515.707 354.433 L501.851 346.433 L501.851 330.433 L515.707 322.433 L529.563 330.433 L529.563 346.433 Z" fill="#ed5d92" fill-rule="evenodd" fill-opacity="1" stroke="#000000" stroke-opacity="1" stroke-width="3.072"/>
<polyline clip-path="url(#clip342)" style="stroke:#c68125; stroke-linecap:butt; stroke-linejoin:round; stroke-width:12; stroke-opacity:1; fill:none" points="
  2104.51,952.431 1623.85,924.514 1324.52,832.435 1124.71,711.839 
  "/>
<line clip-path="url(#clip342)" x1="2120.51" y1="952.431" x2="2088.51" y2="952.431" style="stroke:#c68125; stroke-width:3.072; stroke-opacity:1"/>
<line clip-path="url(#clip342)" x1="1639.85" y1="924.514" x2="1607.85" y2="924.514" style="stroke:#c68125; stroke-width:3.072; stroke-opacity:1"/>
<line clip-path="url(#clip342)" x1="1340.52" y1="832.435" x2="1308.52" y2="832.435" style="stroke:#c68125; stroke-width:3.072; stroke-opacity:1"/>
<line clip-path="url(#clip342)" x1="1140.71" y1="711.839" x2="1108.71" y2="711.839" style="stroke:#c68125; stroke-width:3.072; stroke-opacity:1"/>
<polyline clip-path="url(#clip342)" style="stroke:#00a98d; stroke-linecap:butt; stroke-linejoin:round; stroke-width:12; stroke-opacity:1; fill:none" points="
  1201.34,485.708 1070.05,474.534 307.652,409.193 337.629,296.57 
  "/>
<path clip-path="url(#clip342)" d="M1188.54 485.708 L1207.74 496.908 L1207.74 474.508 L1188.54 485.708 Z" fill="#00a98d" fill-rule="evenodd" fill-opacity="1" stroke="#000000" stroke-opacity="1" stroke-width="3.072"/>
<path clip-path="url(#clip342)" d="M1057.25 474.534 L1076.45 485.734 L1076.45 463.334 L1057.25 474.534 Z" fill="#00a98d" fill-rule="evenodd" fill-opacity="1" stroke="#000000" stroke-opacity="1" stroke-width="3.072"/>
<path clip-path="url(#clip342)" d="M294.852 409.193 L314.052 420.393 L314.052 397.993 L294.852 409.193 Z" fill="#00a98d" fill-rule="evenodd" fill-opacity="1" stroke="#000000" stroke-opacity="1" stroke-width="3.072"/>
<path clip-path="url(#clip342)" d="M324.829 296.57 L344.029 307.77 L344.029 285.37 L324.829 296.57 Z" fill="#00a98d" fill-rule="evenodd" fill-opacity="1" stroke="#000000" stroke-opacity="1" stroke-width="3.072"/>
<path clip-path="url(#clip340)" d="
M1640.35 608.987 L2189.89 608.987 L2189.89 90.5872 L1640.35 90.5872  Z
  " fill="#ffffff" fill-rule="evenodd" fill-opacity="1"/>
<polyline clip-path="url(#clip340)" style="stroke:#000000; stroke-linecap:butt; stroke-linejoin:round; stroke-width:4; stroke-opacity:1; fill:none" points="
  1640.35,608.987 2189.89,608.987 2189.89,90.5872 1640.35,90.5872 1640.35,608.987 
  "/>
<polyline clip-path="url(#clip340)" style="stroke:#009af9; stroke-linecap:butt; stroke-linejoin:round; stroke-width:4; stroke-opacity:1; fill:none" points="
  1662.64,142.427 1796.37,142.427 
  "/>
<line clip-path="url(#clip340)" x1="1729.5" y1="142.427" x2="1729.5" y2="116.827" style="stroke:#009af9; stroke-width:4.9152; stroke-opacity:1"/>
<line clip-path="url(#clip340)" x1="1729.5" y1="142.427" x2="1703.9" y2="142.427" style="stroke:#009af9; stroke-width:4.9152; stroke-opacity:1"/>
<line clip-path="url(#clip340)" x1="1729.5" y1="142.427" x2="1729.5" y2="168.027" style="stroke:#009af9; stroke-width:4.9152; stroke-opacity:1"/>
<line clip-path="url(#clip340)" x1="1729.5" y1="142.427" x2="1755.1" y2="142.427" style="stroke:#009af9; stroke-width:4.9152; stroke-opacity:1"/>
<path clip-path="url(#clip340)" d="M1835.04 143.504 Q1836.55 144.013 1837.96 145.679 Q1839.39 147.346 1840.83 150.263 L1845.57 159.707 L1840.55 159.707 L1836.13 150.841 Q1834.42 147.369 1832.8 146.235 Q1831.2 145.101 1828.42 145.101 L1823.33 145.101 L1823.33 159.707 L1818.65 159.707 L1818.65 125.147 L1829.21 125.147 Q1835.13 125.147 1838.05 127.624 Q1840.97 130.101 1840.97 135.101 Q1840.97 138.365 1839.44 140.517 Q1837.94 142.67 1835.04 143.504 M1823.33 128.99 L1823.33 141.258 L1829.21 141.258 Q1832.59 141.258 1834.3 139.707 Q1836.04 138.133 1836.04 135.101 Q1836.04 132.068 1834.3 130.541 Q1832.59 128.99 1829.21 128.99 L1823.33 128.99 Z" fill="#000000" fill-rule="evenodd" fill-opacity="1" /><path clip-path="url(#clip340)" d="M1859.32 136.767 Q1855.9 136.767 1853.91 139.453 Q1851.92 142.115 1851.92 146.767 Q1851.92 151.42 1853.88 154.105 Q1855.88 156.767 1859.32 156.767 Q1862.73 156.767 1864.72 154.082 Q1866.71 151.397 1866.71 146.767 Q1866.71 142.161 1864.72 139.476 Q1862.73 136.767 1859.32 136.767 M1859.32 133.156 Q1864.88 133.156 1868.05 136.767 Q1871.22 140.379 1871.22 146.767 Q1871.22 153.133 1868.05 156.767 Q1864.88 160.378 1859.32 160.378 Q1853.75 160.378 1850.57 156.767 Q1847.43 153.133 1847.43 146.767 Q1847.43 140.379 1850.57 136.767 Q1853.75 133.156 1859.32 133.156 Z" fill="#000000" fill-rule="evenodd" fill-opacity="1" /><path clip-path="url(#clip340)" d="M1894.81 134.545 L1894.81 138.573 Q1893.01 137.647 1891.06 137.184 Q1889.12 136.721 1887.03 136.721 Q1883.86 136.721 1882.26 137.693 Q1880.69 138.666 1880.69 140.61 Q1880.69 142.092 1881.82 142.948 Q1882.96 143.781 1886.38 144.545 L1887.84 144.869 Q1892.38 145.842 1894.28 147.624 Q1896.2 149.383 1896.2 152.554 Q1896.2 156.166 1893.33 158.272 Q1890.48 160.378 1885.48 160.378 Q1883.4 160.378 1881.13 159.962 Q1878.88 159.568 1876.38 158.758 L1876.38 154.36 Q1878.75 155.587 1881.04 156.212 Q1883.33 156.814 1885.57 156.814 Q1888.58 156.814 1890.2 155.795 Q1891.82 154.754 1891.82 152.879 Q1891.82 151.142 1890.64 150.216 Q1889.49 149.291 1885.53 148.434 L1884.05 148.087 Q1880.09 147.254 1878.33 145.541 Q1876.57 143.804 1876.57 140.795 Q1876.57 137.138 1879.16 135.147 Q1881.76 133.156 1886.52 133.156 Q1888.88 133.156 1890.97 133.504 Q1893.05 133.851 1894.81 134.545 Z" fill="#000000" fill-rule="evenodd" fill-opacity="1" /><path clip-path="url(#clip340)" d="M1925.16 145.679 L1925.16 147.763 L1905.57 147.763 Q1905.85 152.161 1908.21 154.476 Q1910.6 156.767 1914.83 156.767 Q1917.29 156.767 1919.58 156.166 Q1921.89 155.564 1924.16 154.36 L1924.16 158.388 Q1921.87 159.36 1919.46 159.869 Q1917.06 160.378 1914.58 160.378 Q1908.38 160.378 1904.74 156.767 Q1901.13 153.156 1901.13 146.999 Q1901.13 140.633 1904.56 136.906 Q1908 133.156 1913.84 133.156 Q1919.07 133.156 1922.1 136.536 Q1925.16 139.892 1925.16 145.679 M1920.9 144.429 Q1920.85 140.934 1918.93 138.851 Q1917.03 136.767 1913.88 136.767 Q1910.32 136.767 1908.17 138.781 Q1906.04 140.795 1905.71 144.453 L1920.9 144.429 Z" fill="#000000" fill-rule="evenodd" fill-opacity="1" /><path clip-path="url(#clip340)" d="M1953.7 144.059 L1953.7 159.707 L1949.44 159.707 L1949.44 144.198 Q1949.44 140.517 1948 138.689 Q1946.57 136.86 1943.7 136.86 Q1940.25 136.86 1938.26 139.059 Q1936.27 141.258 1936.27 145.054 L1936.27 159.707 L1931.99 159.707 L1931.99 133.781 L1936.27 133.781 L1936.27 137.809 Q1937.8 135.471 1939.86 134.314 Q1941.94 133.156 1944.65 133.156 Q1949.12 133.156 1951.41 135.934 Q1953.7 138.689 1953.7 144.059 Z" fill="#000000" fill-rule="evenodd" fill-opacity="1" /><path clip-path="url(#clip340)" d="M1980.81 146.767 Q1980.81 142.068 1978.86 139.406 Q1976.94 136.721 1973.56 136.721 Q1970.18 136.721 1968.24 139.406 Q1966.31 142.068 1966.31 146.767 Q1966.31 151.466 1968.24 154.152 Q1970.18 156.814 1973.56 156.814 Q1976.94 156.814 1978.86 154.152 Q1980.81 151.466 1980.81 146.767 M1966.31 137.717 Q1967.66 135.402 1969.69 134.291 Q1971.75 133.156 1974.6 133.156 Q1979.32 133.156 1982.26 136.906 Q1985.23 140.656 1985.23 146.767 Q1985.23 152.879 1982.26 156.628 Q1979.32 160.378 1974.6 160.378 Q1971.75 160.378 1969.69 159.267 Q1967.66 158.133 1966.31 155.818 L1966.31 159.707 L1962.03 159.707 L1962.03 123.689 L1966.31 123.689 L1966.31 137.717 Z" fill="#000000" fill-rule="evenodd" fill-opacity="1" /><path clip-path="url(#clip340)" d="M2007.31 137.763 Q2006.59 137.346 2005.74 137.161 Q2004.9 136.953 2003.88 136.953 Q2000.27 136.953 1998.33 139.314 Q1996.41 141.652 1996.41 146.05 L1996.41 159.707 L1992.12 159.707 L1992.12 133.781 L1996.41 133.781 L1996.41 137.809 Q1997.75 135.448 1999.9 134.314 Q2002.06 133.156 2005.13 133.156 Q2005.57 133.156 2006.11 133.226 Q2006.64 133.272 2007.29 133.388 L2007.31 137.763 Z" fill="#000000" fill-rule="evenodd" fill-opacity="1" /><path clip-path="url(#clip340)" d="M2020.78 136.767 Q2017.36 136.767 2015.37 139.453 Q2013.37 142.115 2013.37 146.767 Q2013.37 151.42 2015.34 154.105 Q2017.33 156.767 2020.78 156.767 Q2024.18 156.767 2026.18 154.082 Q2028.17 151.397 2028.17 146.767 Q2028.17 142.161 2026.18 139.476 Q2024.18 136.767 2020.78 136.767 M2020.78 133.156 Q2026.34 133.156 2029.51 136.767 Q2032.68 140.379 2032.68 146.767 Q2032.68 153.133 2029.51 156.767 Q2026.34 160.378 2020.78 160.378 Q2015.2 160.378 2012.03 156.767 Q2008.88 153.133 2008.88 146.767 Q2008.88 140.379 2012.03 136.767 Q2015.2 133.156 2020.78 133.156 Z" fill="#000000" fill-rule="evenodd" fill-opacity="1" /><path clip-path="url(#clip340)" d="M2058.4 134.777 L2058.4 138.758 Q2056.59 137.763 2054.76 137.277 Q2052.96 136.767 2051.11 136.767 Q2046.96 136.767 2044.67 139.406 Q2042.38 142.022 2042.38 146.767 Q2042.38 151.513 2044.67 154.152 Q2046.96 156.767 2051.11 156.767 Q2052.96 156.767 2054.76 156.281 Q2056.59 155.772 2058.4 154.777 L2058.4 158.712 Q2056.62 159.545 2054.69 159.962 Q2052.8 160.378 2050.64 160.378 Q2044.79 160.378 2041.34 156.698 Q2037.89 153.017 2037.89 146.767 Q2037.89 140.425 2041.36 136.791 Q2044.86 133.156 2050.92 133.156 Q2052.89 133.156 2054.76 133.573 Q2056.64 133.967 2058.4 134.777 Z" fill="#000000" fill-rule="evenodd" fill-opacity="1" /><path clip-path="url(#clip340)" d="M2065.64 123.689 L2069.93 123.689 L2069.93 144.962 L2082.63 133.781 L2088.07 133.781 L2074.32 145.911 L2088.65 159.707 L2083.1 159.707 L2069.93 147.045 L2069.93 159.707 L2065.64 159.707 L2065.64 123.689 Z" fill="#000000" fill-rule="evenodd" fill-opacity="1" /><path clip-path="url(#clip340)" d="M2097.89 155.772 L2114.21 155.772 L2114.21 159.707 L2092.26 159.707 L2092.26 155.772 Q2094.93 153.017 2099.51 148.388 Q2104.12 143.735 2105.3 142.392 Q2107.54 139.869 2108.42 138.133 Q2109.32 136.374 2109.32 134.684 Q2109.32 131.93 2107.38 130.193 Q2105.46 128.457 2102.36 128.457 Q2100.16 128.457 2097.7 129.221 Q2095.27 129.985 2092.49 131.536 L2092.49 126.814 Q2095.32 125.68 2097.77 125.101 Q2100.23 124.522 2102.26 124.522 Q2107.63 124.522 2110.83 127.207 Q2114.02 129.893 2114.02 134.383 Q2114.02 136.513 2113.21 138.434 Q2112.43 140.332 2110.32 142.925 Q2109.74 143.596 2106.64 146.814 Q2103.54 150.008 2097.89 155.772 Z" fill="#000000" fill-rule="evenodd" fill-opacity="1" /><path clip-path="url(#clip340)" d="M2138.19 141.073 Q2141.55 141.791 2143.42 144.059 Q2145.32 146.328 2145.32 149.661 Q2145.32 154.777 2141.8 157.578 Q2138.28 160.378 2131.8 160.378 Q2129.62 160.378 2127.31 159.939 Q2125.02 159.522 2122.56 158.666 L2122.56 154.152 Q2124.51 155.286 2126.82 155.865 Q2129.14 156.443 2131.66 156.443 Q2136.06 156.443 2138.35 154.707 Q2140.67 152.971 2140.67 149.661 Q2140.67 146.605 2138.51 144.892 Q2136.38 143.156 2132.56 143.156 L2128.54 143.156 L2128.54 139.314 L2132.75 139.314 Q2136.2 139.314 2138.03 137.948 Q2139.86 136.559 2139.86 133.967 Q2139.86 131.305 2137.96 129.893 Q2136.08 128.457 2132.56 128.457 Q2130.64 128.457 2128.44 128.874 Q2126.24 129.291 2123.61 130.17 L2123.61 126.004 Q2126.27 125.263 2128.58 124.893 Q2130.92 124.522 2132.98 124.522 Q2138.3 124.522 2141.41 126.953 Q2144.51 129.36 2144.51 133.48 Q2144.51 136.351 2142.86 138.342 Q2141.22 140.309 2138.19 141.073 Z" fill="#000000" fill-rule="evenodd" fill-opacity="1" /><polyline clip-path="url(#clip340)" style="stroke:#e26f46; stroke-linecap:butt; stroke-linejoin:round; stroke-width:4; stroke-opacity:1; fill:none" points="
  1662.64,194.267 1796.37,194.267 
  "/>
<circle clip-path="url(#clip340)" cx="1729.5" cy="194.267" r="23" fill="#e26f46" fill-rule="evenodd" fill-opacity="1" stroke="#000000" stroke-opacity="1" stroke-width="4.9152"/>
<path clip-path="url(#clip340)" d="M1818.65 176.987 L1838.51 176.987 L1838.51 180.922 L1823.33 180.922 L1823.33 191.107 L1837.03 191.107 L1837.03 195.043 L1823.33 195.043 L1823.33 211.547 L1818.65 211.547 L1818.65 176.987 Z" fill="#000000" fill-rule="evenodd" fill-opacity="1" /><path clip-path="url(#clip340)" d="M1850.6 195.043 L1850.6 207.705 L1858.1 207.705 Q1861.87 207.705 1863.68 206.154 Q1865.51 204.58 1865.51 201.362 Q1865.51 198.121 1863.68 196.594 Q1861.87 195.043 1858.1 195.043 L1850.6 195.043 M1850.6 180.83 L1850.6 191.246 L1857.52 191.246 Q1860.95 191.246 1862.61 189.973 Q1864.3 188.677 1864.3 186.038 Q1864.3 183.422 1862.61 182.126 Q1860.95 180.83 1857.52 180.83 L1850.6 180.83 M1845.92 176.987 L1857.87 176.987 Q1863.21 176.987 1866.11 179.209 Q1869 181.432 1869 185.529 Q1869 188.7 1867.52 190.575 Q1866.04 192.45 1863.17 192.913 Q1866.62 193.654 1868.51 196.015 Q1870.44 198.353 1870.44 201.871 Q1870.44 206.501 1867.29 209.024 Q1864.14 211.547 1858.33 211.547 L1845.92 211.547 L1845.92 176.987 Z" fill="#000000" fill-rule="evenodd" fill-opacity="1" /><path clip-path="url(#clip340)" d="M1883.12 180.83 L1883.12 207.705 L1888.77 207.705 Q1895.92 207.705 1899.23 204.464 Q1902.57 201.223 1902.57 194.232 Q1902.57 187.288 1899.23 184.07 Q1895.92 180.83 1888.77 180.83 L1883.12 180.83 M1878.44 176.987 L1888.05 176.987 Q1898.1 176.987 1902.8 181.177 Q1907.5 185.344 1907.5 194.232 Q1907.5 203.168 1902.77 207.357 Q1898.05 211.547 1888.05 211.547 L1878.44 211.547 L1878.44 176.987 Z" fill="#000000" fill-rule="evenodd" fill-opacity="1" /><path clip-path="url(#clip340)" d="M1914.95 176.987 L1934.81 176.987 L1934.81 180.922 L1919.63 180.922 L1919.63 191.107 L1933.33 191.107 L1933.33 195.043 L1919.63 195.043 L1919.63 211.547 L1914.95 211.547 L1914.95 176.987 Z" fill="#000000" fill-rule="evenodd" fill-opacity="1" /><polyline clip-path="url(#clip340)" style="stroke:#3da44d; stroke-linecap:butt; stroke-linejoin:round; stroke-width:4; stroke-opacity:1; fill:none" points="
  1662.64,246.107 1796.37,246.107 
  "/>
<line clip-path="url(#clip340)" x1="1729.5" y1="246.107" x2="1729.5" y2="220.507" style="stroke:#3da44d; stroke-width:4.9152; stroke-opacity:1"/>
<line clip-path="url(#clip340)" x1="1729.5" y1="246.107" x2="1703.9" y2="246.107" style="stroke:#3da44d; stroke-width:4.9152; stroke-opacity:1"/>
<line clip-path="url(#clip340)" x1="1729.5" y1="246.107" x2="1729.5" y2="271.707" style="stroke:#3da44d; stroke-width:4.9152; stroke-opacity:1"/>
<line clip-path="url(#clip340)" x1="1729.5" y1="246.107" x2="1755.1" y2="246.107" style="stroke:#3da44d; stroke-width:4.9152; stroke-opacity:1"/>
<path clip-path="url(#clip340)" d="M1834.67 231.998 Q1829.58 231.998 1826.57 235.795 Q1823.58 239.591 1823.58 246.142 Q1823.58 252.67 1826.57 256.466 Q1829.58 260.262 1834.67 260.262 Q1839.76 260.262 1842.73 256.466 Q1845.71 252.67 1845.71 246.142 Q1845.71 239.591 1842.73 235.795 Q1839.76 231.998 1834.67 231.998 M1841.22 262.762 L1847.38 269.498 L1841.73 269.498 L1836.62 263.966 Q1835.85 264.012 1835.44 264.035 Q1835.04 264.058 1834.67 264.058 Q1827.38 264.058 1823.01 259.197 Q1818.65 254.313 1818.65 246.142 Q1818.65 237.948 1823.01 233.086 Q1827.38 228.202 1834.67 228.202 Q1841.94 228.202 1846.29 233.086 Q1850.64 237.948 1850.64 246.142 Q1850.64 252.16 1848.21 256.443 Q1845.81 260.725 1841.22 262.762 Z" fill="#000000" fill-rule="evenodd" fill-opacity="1" /><path clip-path="url(#clip340)" d="M1857.96 228.827 L1864.26 228.827 L1879.58 257.739 L1879.58 228.827 L1884.12 228.827 L1884.12 263.387 L1877.82 263.387 L1862.5 234.475 L1862.5 263.387 L1857.96 263.387 L1857.96 228.827 Z" fill="#000000" fill-rule="evenodd" fill-opacity="1" /><path clip-path="url(#clip340)" d="M1898.1 232.67 L1898.1 259.545 L1903.75 259.545 Q1910.9 259.545 1914.21 256.304 Q1917.54 253.063 1917.54 246.072 Q1917.54 239.128 1914.21 235.91 Q1910.9 232.67 1903.75 232.67 L1898.1 232.67 M1893.42 228.827 L1903.03 228.827 Q1913.07 228.827 1917.77 233.017 Q1922.47 237.184 1922.47 246.072 Q1922.47 255.008 1917.75 259.197 Q1913.03 263.387 1903.03 263.387 L1893.42 263.387 L1893.42 228.827 Z" fill="#000000" fill-rule="evenodd" fill-opacity="1" /><path clip-path="url(#clip340)" d="M1929.93 228.827 L1949.79 228.827 L1949.79 232.762 L1934.6 232.762 L1934.6 242.947 L1948.31 242.947 L1948.31 246.883 L1934.6 246.883 L1934.6 263.387 L1929.93 263.387 L1929.93 228.827 Z" fill="#000000" fill-rule="evenodd" fill-opacity="1" /><polyline clip-path="url(#clip340)" style="stroke:#c271d2; stroke-linecap:butt; stroke-linejoin:round; stroke-width:4; stroke-opacity:1; fill:none" points="
  1662.64,297.947 1796.37,297.947 
  "/>
<path clip-path="url(#clip340)" d="M1729.5 272.347 L1703.9 297.947 L1729.5 323.547 L1755.1 297.947 L1729.5 272.347 Z" fill="#c271d2" fill-rule="evenodd" fill-opacity="1" stroke="#000000" stroke-opacity="1" stroke-width="4.9152"/>
<path clip-path="url(#clip340)" d="M1846.52 283.329 L1846.52 288.26 Q1844.16 286.061 1841.48 284.973 Q1838.82 283.885 1835.81 283.885 Q1829.88 283.885 1826.73 287.519 Q1823.58 291.13 1823.58 297.982 Q1823.58 304.811 1826.73 308.445 Q1829.88 312.056 1835.81 312.056 Q1838.82 312.056 1841.48 310.968 Q1844.16 309.88 1846.52 307.681 L1846.52 312.565 Q1844.07 314.232 1841.32 315.065 Q1838.58 315.898 1835.53 315.898 Q1827.68 315.898 1823.17 311.107 Q1818.65 306.292 1818.65 297.982 Q1818.65 289.649 1823.17 284.857 Q1827.68 280.042 1835.53 280.042 Q1838.63 280.042 1841.36 280.876 Q1844.12 281.686 1846.52 283.329 Z" fill="#000000" fill-rule="evenodd" fill-opacity="1" /><path clip-path="url(#clip340)" d="M1862.66 315.227 L1849.46 280.667 L1854.35 280.667 L1865.3 309.764 L1876.27 280.667 L1881.13 280.667 L1867.96 315.227 L1862.66 315.227 Z" fill="#000000" fill-rule="evenodd" fill-opacity="1" /><path clip-path="url(#clip340)" d="M1899.37 283.838 Q1894.28 283.838 1891.27 287.635 Q1888.28 291.431 1888.28 297.982 Q1888.28 304.51 1891.27 308.306 Q1894.28 312.102 1899.37 312.102 Q1904.46 312.102 1907.43 308.306 Q1910.41 304.51 1910.41 297.982 Q1910.41 291.431 1907.43 287.635 Q1904.46 283.838 1899.37 283.838 M1899.37 280.042 Q1906.64 280.042 1910.99 284.926 Q1915.34 289.788 1915.34 297.982 Q1915.34 306.153 1910.99 311.037 Q1906.64 315.898 1899.37 315.898 Q1892.08 315.898 1887.7 311.037 Q1883.35 306.176 1883.35 297.982 Q1883.35 289.788 1887.7 284.926 Q1892.08 280.042 1899.37 280.042 Z" fill="#000000" fill-rule="evenodd" fill-opacity="1" /><path clip-path="url(#clip340)" d="M1927.33 284.51 L1927.33 311.385 L1932.98 311.385 Q1940.13 311.385 1943.44 308.144 Q1946.78 304.903 1946.78 297.912 Q1946.78 290.968 1943.44 287.75 Q1940.13 284.51 1932.98 284.51 L1927.33 284.51 M1922.66 280.667 L1932.26 280.667 Q1942.31 280.667 1947.01 284.857 Q1951.71 289.024 1951.71 297.912 Q1951.71 306.848 1946.99 311.037 Q1942.26 315.227 1932.26 315.227 L1922.66 315.227 L1922.66 280.667 Z" fill="#000000" fill-rule="evenodd" fill-opacity="1" /><path clip-path="url(#clip340)" d="M1959.16 280.667 L1981.01 280.667 L1981.01 284.602 L1963.84 284.602 L1963.84 294.834 L1980.3 294.834 L1980.3 298.769 L1963.84 298.769 L1963.84 311.292 L1981.43 311.292 L1981.43 315.227 L1959.16 315.227 L1959.16 280.667 Z" fill="#000000" fill-rule="evenodd" fill-opacity="1" /><path clip-path="url(#clip340)" d="M2008.63 323.098 L2008.63 326.408 L1984 326.408 L1984 323.098 L2008.63 323.098 Z" fill="#000000" fill-rule="evenodd" fill-opacity="1" /><path clip-path="url(#clip340)" d="M2017.5 298.723 L2017.5 311.385 L2025 311.385 Q2028.77 311.385 2030.57 309.834 Q2032.4 308.26 2032.4 305.042 Q2032.4 301.801 2030.57 300.274 Q2028.77 298.723 2025 298.723 L2017.5 298.723 M2017.5 284.51 L2017.5 294.926 L2024.42 294.926 Q2027.84 294.926 2029.51 293.653 Q2031.2 292.357 2031.2 289.718 Q2031.2 287.102 2029.51 285.806 Q2027.84 284.51 2024.42 284.51 L2017.5 284.51 M2012.82 280.667 L2024.76 280.667 Q2030.11 280.667 2033 282.889 Q2035.9 285.112 2035.9 289.209 Q2035.9 292.38 2034.42 294.255 Q2032.93 296.13 2030.06 296.593 Q2033.51 297.334 2035.41 299.695 Q2037.33 302.033 2037.33 305.551 Q2037.33 310.181 2034.18 312.704 Q2031.04 315.227 2025.23 315.227 L2012.82 315.227 L2012.82 280.667 Z" fill="#000000" fill-rule="evenodd" fill-opacity="1" /><path clip-path="url(#clip340)" d="M2050.02 284.51 L2050.02 311.385 L2055.67 311.385 Q2062.82 311.385 2066.13 308.144 Q2069.46 304.903 2069.46 297.912 Q2069.46 290.968 2066.13 287.75 Q2062.82 284.51 2055.67 284.51 L2050.02 284.51 M2045.34 280.667 L2054.95 280.667 Q2064.99 280.667 2069.69 284.857 Q2074.39 289.024 2074.39 297.912 Q2074.39 306.848 2069.67 311.037 Q2064.95 315.227 2054.95 315.227 L2045.34 315.227 L2045.34 280.667 Z" fill="#000000" fill-rule="evenodd" fill-opacity="1" /><path clip-path="url(#clip340)" d="M2081.85 280.667 L2101.71 280.667 L2101.71 284.602 L2086.52 284.602 L2086.52 294.787 L2100.23 294.787 L2100.23 298.723 L2086.52 298.723 L2086.52 315.227 L2081.85 315.227 L2081.85 280.667 Z" fill="#000000" fill-rule="evenodd" fill-opacity="1" /><polyline clip-path="url(#clip340)" style="stroke:#ac8d18; stroke-linecap:butt; stroke-linejoin:round; stroke-width:4; stroke-opacity:1; fill:none" points="
  1662.64,349.787 1796.37,349.787 
  "/>
<path clip-path="url(#clip340)" d="M1755.1 324.187 L1703.9 324.187 L1729.5 375.387 L1755.1 324.187 Z" fill="#ac8d18" fill-rule="evenodd" fill-opacity="1" stroke="#000000" stroke-opacity="1" stroke-width="4.9152"/>
<path clip-path="url(#clip340)" d="M1818.65 332.507 L1847.89 332.507 L1847.89 336.442 L1835.62 336.442 L1835.62 367.067 L1830.92 367.067 L1830.92 336.442 L1818.65 336.442 L1818.65 332.507 Z" fill="#000000" fill-rule="evenodd" fill-opacity="1" /><path clip-path="url(#clip340)" d="M1868.79 350.864 Q1870.3 351.373 1871.71 353.039 Q1873.14 354.706 1874.58 357.623 L1879.32 367.067 L1874.3 367.067 L1869.88 358.201 Q1868.17 354.729 1866.55 353.595 Q1864.95 352.461 1862.17 352.461 L1857.08 352.461 L1857.08 367.067 L1852.4 367.067 L1852.4 332.507 L1862.96 332.507 Q1868.88 332.507 1871.8 334.984 Q1874.72 337.461 1874.72 342.461 Q1874.72 345.725 1873.19 347.877 Q1871.69 350.03 1868.79 350.864 M1857.08 336.35 L1857.08 348.618 L1862.96 348.618 Q1866.34 348.618 1868.05 347.067 Q1869.79 345.493 1869.79 342.461 Q1869.79 339.428 1868.05 337.901 Q1866.34 336.35 1862.96 336.35 L1857.08 336.35 Z" fill="#000000" fill-rule="evenodd" fill-opacity="1" /><path clip-path="url(#clip340)" d="M1890.02 350.563 L1890.02 363.225 L1897.52 363.225 Q1901.29 363.225 1903.1 361.674 Q1904.93 360.1 1904.93 356.882 Q1904.93 353.641 1903.1 352.114 Q1901.29 350.563 1897.52 350.563 L1890.02 350.563 M1890.02 336.35 L1890.02 346.766 L1896.94 346.766 Q1900.37 346.766 1902.03 345.493 Q1903.72 344.197 1903.72 341.558 Q1903.72 338.942 1902.03 337.646 Q1900.37 336.35 1896.94 336.35 L1890.02 336.35 M1885.34 332.507 L1897.29 332.507 Q1902.63 332.507 1905.53 334.729 Q1908.42 336.952 1908.42 341.049 Q1908.42 344.22 1906.94 346.095 Q1905.46 347.97 1902.59 348.433 Q1906.04 349.174 1907.94 351.535 Q1909.86 353.873 1909.86 357.391 Q1909.86 362.021 1906.71 364.544 Q1903.56 367.067 1897.75 367.067 L1885.34 367.067 L1885.34 332.507 Z" fill="#000000" fill-rule="evenodd" fill-opacity="1" /><path clip-path="url(#clip340)" d="M1922.54 336.35 L1922.54 363.225 L1928.19 363.225 Q1935.34 363.225 1938.65 359.984 Q1941.99 356.743 1941.99 349.752 Q1941.99 342.808 1938.65 339.59 Q1935.34 336.35 1928.19 336.35 L1922.54 336.35 M1917.87 332.507 L1927.47 332.507 Q1937.52 332.507 1942.22 336.697 Q1946.92 340.864 1946.92 349.752 Q1946.92 358.688 1942.19 362.877 Q1937.47 367.067 1927.47 367.067 L1917.87 367.067 L1917.87 332.507 Z" fill="#000000" fill-rule="evenodd" fill-opacity="1" /><path clip-path="url(#clip340)" d="M1954.37 332.507 L1974.23 332.507 L1974.23 336.442 L1959.05 336.442 L1959.05 346.627 L1972.75 346.627 L1972.75 350.563 L1959.05 350.563 L1959.05 367.067 L1954.37 367.067 L1954.37 332.507 Z" fill="#000000" fill-rule="evenodd" fill-opacity="1" /><path clip-path="url(#clip340)" d="M1986.08 363.132 L2002.4 363.132 L2002.4 367.067 L1980.46 367.067 L1980.46 363.132 Q1983.12 360.377 1987.7 355.748 Q1992.31 351.095 1993.49 349.752 Q1995.74 347.229 1996.62 345.493 Q1997.52 343.734 1997.52 342.044 Q1997.52 339.29 1995.57 337.553 Q1993.65 335.817 1990.55 335.817 Q1988.35 335.817 1985.9 336.581 Q1983.47 337.345 1980.69 338.896 L1980.69 334.174 Q1983.51 333.04 1985.97 332.461 Q1988.42 331.882 1990.46 331.882 Q1995.83 331.882 1999.02 334.567 Q2002.22 337.253 2002.22 341.743 Q2002.22 343.873 2001.41 345.794 Q2000.62 347.692 1998.51 350.285 Q1997.94 350.956 1994.83 354.174 Q1991.73 357.368 1986.08 363.132 Z" fill="#000000" fill-rule="evenodd" fill-opacity="1" /><polyline clip-path="url(#clip340)" style="stroke:#00a9ad; stroke-linecap:butt; stroke-linejoin:round; stroke-width:4; stroke-opacity:1; fill:none" points="
  1662.64,401.627 1796.37,401.627 
  "/>
<path clip-path="url(#clip340)" d="M1729.5 376.027 L1709.48 385.678 L1704.54 407.336 L1718.39 424.693 L1740.61 424.693 L1754.46 407.336 L1749.52 385.678 Z" fill="#00a9ad" fill-rule="evenodd" fill-opacity="1" stroke="#000000" stroke-opacity="1" stroke-width="4.9152"/>
<path clip-path="url(#clip340)" d="M1837.57 396.917 L1837.57 382.889 L1841.82 382.889 L1841.82 418.907 L1837.57 418.907 L1837.57 415.018 Q1836.22 417.333 1834.16 418.467 Q1832.13 419.578 1829.26 419.578 Q1824.56 419.578 1821.59 415.828 Q1818.65 412.079 1818.65 405.967 Q1818.65 399.856 1821.59 396.106 Q1824.56 392.356 1829.26 392.356 Q1832.13 392.356 1834.16 393.491 Q1836.22 394.602 1837.57 396.917 M1823.05 405.967 Q1823.05 410.666 1824.97 413.352 Q1826.92 416.014 1830.3 416.014 Q1833.68 416.014 1835.62 413.352 Q1837.57 410.666 1837.57 405.967 Q1837.57 401.268 1835.62 398.606 Q1833.68 395.921 1830.3 395.921 Q1826.92 395.921 1824.97 398.606 Q1823.05 401.268 1823.05 405.967 Z" fill="#000000" fill-rule="evenodd" fill-opacity="1" /><path clip-path="url(#clip340)" d="M1867.66 396.917 L1867.66 382.889 L1871.92 382.889 L1871.92 418.907 L1867.66 418.907 L1867.66 415.018 Q1866.32 417.333 1864.26 418.467 Q1862.22 419.578 1859.35 419.578 Q1854.65 419.578 1851.69 415.828 Q1848.75 412.079 1848.75 405.967 Q1848.75 399.856 1851.69 396.106 Q1854.65 392.356 1859.35 392.356 Q1862.22 392.356 1864.26 393.491 Q1866.32 394.602 1867.66 396.917 M1853.14 405.967 Q1853.14 410.666 1855.07 413.352 Q1857.01 416.014 1860.39 416.014 Q1863.77 416.014 1865.71 413.352 Q1867.66 410.666 1867.66 405.967 Q1867.66 401.268 1865.71 398.606 Q1863.77 395.921 1860.39 395.921 Q1857.01 395.921 1855.07 398.606 Q1853.14 401.268 1853.14 405.967 Z" fill="#000000" fill-rule="evenodd" fill-opacity="1" /><path clip-path="url(#clip340)" d="M1902.87 404.879 L1902.87 406.963 L1883.28 406.963 Q1883.56 411.361 1885.92 413.676 Q1888.31 415.967 1892.54 415.967 Q1895 415.967 1897.29 415.366 Q1899.6 414.764 1901.87 413.56 L1901.87 417.588 Q1899.58 418.56 1897.17 419.069 Q1894.76 419.578 1892.29 419.578 Q1886.08 419.578 1882.45 415.967 Q1878.84 412.356 1878.84 406.199 Q1878.84 399.833 1882.26 396.106 Q1885.71 392.356 1891.55 392.356 Q1896.78 392.356 1899.81 395.736 Q1902.87 399.092 1902.87 404.879 M1898.61 403.629 Q1898.56 400.134 1896.64 398.051 Q1894.74 395.967 1891.59 395.967 Q1888.03 395.967 1885.88 397.981 Q1883.75 399.995 1883.42 403.653 L1898.61 403.629 Z" fill="#000000" fill-rule="evenodd" fill-opacity="1" /><path clip-path="url(#clip340)" d="M1928.47 405.967 Q1928.47 401.268 1926.52 398.606 Q1924.6 395.921 1921.22 395.921 Q1917.84 395.921 1915.9 398.606 Q1913.98 401.268 1913.98 405.967 Q1913.98 410.666 1915.9 413.352 Q1917.84 416.014 1921.22 416.014 Q1924.6 416.014 1926.52 413.352 Q1928.47 410.666 1928.47 405.967 M1913.98 396.917 Q1915.32 394.602 1917.36 393.491 Q1919.42 392.356 1922.26 392.356 Q1926.99 392.356 1929.93 396.106 Q1932.89 399.856 1932.89 405.967 Q1932.89 412.079 1929.93 415.828 Q1926.99 419.578 1922.26 419.578 Q1919.42 419.578 1917.36 418.467 Q1915.32 417.333 1913.98 415.018 L1913.98 418.907 L1909.69 418.907 L1909.69 382.889 L1913.98 382.889 L1913.98 396.917 Z" fill="#000000" fill-rule="evenodd" fill-opacity="1" /><path clip-path="url(#clip340)" d="M1957.01 396.917 L1957.01 382.889 L1961.27 382.889 L1961.27 418.907 L1957.01 418.907 L1957.01 415.018 Q1955.67 417.333 1953.61 418.467 Q1951.57 419.578 1948.7 419.578 Q1944 419.578 1941.04 415.828 Q1938.1 412.079 1938.1 405.967 Q1938.1 399.856 1941.04 396.106 Q1944 392.356 1948.7 392.356 Q1951.57 392.356 1953.61 393.491 Q1955.67 394.602 1957.01 396.917 M1942.5 405.967 Q1942.5 410.666 1944.42 413.352 Q1946.36 416.014 1949.74 416.014 Q1953.12 416.014 1955.06 413.352 Q1957.01 410.666 1957.01 405.967 Q1957.01 401.268 1955.06 398.606 Q1953.12 395.921 1949.74 395.921 Q1946.36 395.921 1944.42 398.606 Q1942.5 401.268 1942.5 405.967 Z" fill="#000000" fill-rule="evenodd" fill-opacity="1" /><path clip-path="url(#clip340)" d="M1983.17 382.889 L1983.17 386.431 L1979.09 386.431 Q1976.8 386.431 1975.9 387.356 Q1975.02 388.282 1975.02 390.69 L1975.02 392.981 L1982.03 392.981 L1982.03 396.292 L1975.02 396.292 L1975.02 418.907 L1970.74 418.907 L1970.74 396.292 L1966.66 396.292 L1966.66 392.981 L1970.74 392.981 L1970.74 391.176 Q1970.74 386.847 1972.75 384.88 Q1974.76 382.889 1979.14 382.889 L1983.17 382.889 Z" fill="#000000" fill-rule="evenodd" fill-opacity="1" /><polyline clip-path="url(#clip340)" style="stroke:#ed5d92; stroke-linecap:butt; stroke-linejoin:round; stroke-width:4; stroke-opacity:1; fill:none" points="
  1662.64,453.467 1796.37,453.467 
  "/>
<path clip-path="url(#clip340)" d="M1729.5 479.067 L1707.33 466.267 L1707.33 440.667 L1729.5 427.867 L1751.67 440.667 L1751.67 466.267 Z" fill="#ed5d92" fill-rule="evenodd" fill-opacity="1" stroke="#000000" stroke-opacity="1" stroke-width="4.9152"/>
<path clip-path="url(#clip340)" d="M1833.84 448.803 Q1833.12 448.386 1832.26 448.201 Q1831.43 447.993 1830.41 447.993 Q1826.8 447.993 1824.86 450.354 Q1822.94 452.692 1822.94 457.09 L1822.94 470.747 L1818.65 470.747 L1818.65 444.821 L1822.94 444.821 L1822.94 448.849 Q1824.28 446.488 1826.43 445.354 Q1828.58 444.196 1831.66 444.196 Q1832.1 444.196 1832.63 444.266 Q1833.17 444.312 1833.82 444.428 L1833.84 448.803 Z" fill="#000000" fill-rule="evenodd" fill-opacity="1" /><path clip-path="url(#clip340)" d="M1847.31 447.807 Q1843.88 447.807 1841.89 450.493 Q1839.9 453.155 1839.9 457.807 Q1839.9 462.46 1841.87 465.145 Q1843.86 467.807 1847.31 467.807 Q1850.71 467.807 1852.7 465.122 Q1854.7 462.437 1854.7 457.807 Q1854.7 453.201 1852.7 450.516 Q1850.71 447.807 1847.31 447.807 M1847.31 444.196 Q1852.87 444.196 1856.04 447.807 Q1859.21 451.419 1859.21 457.807 Q1859.21 464.173 1856.04 467.807 Q1852.87 471.418 1847.31 471.418 Q1841.73 471.418 1838.56 467.807 Q1835.41 464.173 1835.41 457.807 Q1835.41 451.419 1838.56 447.807 Q1841.73 444.196 1847.31 444.196 Z" fill="#000000" fill-rule="evenodd" fill-opacity="1" /><path clip-path="url(#clip340)" d="M1883.33 448.757 L1883.33 434.729 L1887.59 434.729 L1887.59 470.747 L1883.33 470.747 L1883.33 466.858 Q1881.99 469.173 1879.93 470.307 Q1877.89 471.418 1875.02 471.418 Q1870.32 471.418 1867.36 467.668 Q1864.42 463.919 1864.42 457.807 Q1864.42 451.696 1867.36 447.946 Q1870.32 444.196 1875.02 444.196 Q1877.89 444.196 1879.93 445.331 Q1881.99 446.442 1883.33 448.757 M1868.82 457.807 Q1868.82 462.506 1870.74 465.192 Q1872.68 467.854 1876.06 467.854 Q1879.44 467.854 1881.38 465.192 Q1883.33 462.506 1883.33 457.807 Q1883.33 453.108 1881.38 450.446 Q1879.44 447.761 1876.06 447.761 Q1872.68 447.761 1870.74 450.446 Q1868.82 453.108 1868.82 457.807 Z" fill="#000000" fill-rule="evenodd" fill-opacity="1" /><path clip-path="url(#clip340)" d="M1908.14 457.715 Q1902.98 457.715 1900.99 458.895 Q1899 460.076 1899 462.923 Q1899 465.192 1900.48 466.534 Q1901.99 467.854 1904.56 467.854 Q1908.1 467.854 1910.23 465.354 Q1912.38 462.831 1912.38 458.664 L1912.38 457.715 L1908.14 457.715 M1916.64 455.956 L1916.64 470.747 L1912.38 470.747 L1912.38 466.812 Q1910.92 469.173 1908.75 470.307 Q1906.57 471.418 1903.42 471.418 Q1899.44 471.418 1897.08 469.196 Q1894.74 466.951 1894.74 463.201 Q1894.74 458.826 1897.66 456.604 Q1900.6 454.382 1906.41 454.382 L1912.38 454.382 L1912.38 453.965 Q1912.38 451.025 1910.44 449.428 Q1908.51 447.807 1905.02 447.807 Q1902.8 447.807 1900.69 448.34 Q1898.58 448.872 1896.64 449.937 L1896.64 446.002 Q1898.98 445.099 1901.18 444.659 Q1903.38 444.196 1905.46 444.196 Q1911.08 444.196 1913.86 447.113 Q1916.64 450.03 1916.64 455.956 Z" fill="#000000" fill-rule="evenodd" fill-opacity="1" /><path clip-path="url(#clip340)" d="M1941.94 445.585 L1941.94 449.613 Q1940.13 448.687 1938.19 448.224 Q1936.25 447.761 1934.16 447.761 Q1930.99 447.761 1929.39 448.733 Q1927.82 449.706 1927.82 451.65 Q1927.82 453.132 1928.95 453.988 Q1930.09 454.821 1933.51 455.585 L1934.97 455.909 Q1939.51 456.882 1941.41 458.664 Q1943.33 460.423 1943.33 463.594 Q1943.33 467.206 1940.46 469.312 Q1937.61 471.418 1932.61 471.418 Q1930.53 471.418 1928.26 471.002 Q1926.01 470.608 1923.51 469.798 L1923.51 465.4 Q1925.88 466.627 1928.17 467.252 Q1930.46 467.854 1932.7 467.854 Q1935.71 467.854 1937.33 466.835 Q1938.95 465.794 1938.95 463.919 Q1938.95 462.182 1937.77 461.256 Q1936.62 460.331 1932.66 459.474 L1931.18 459.127 Q1927.22 458.294 1925.46 456.581 Q1923.7 454.844 1923.7 451.835 Q1923.7 448.178 1926.29 446.187 Q1928.88 444.196 1933.65 444.196 Q1936.01 444.196 1938.1 444.544 Q1940.18 444.891 1941.94 445.585 Z" fill="#000000" fill-rule="evenodd" fill-opacity="1" /><polyline clip-path="url(#clip340)" style="stroke:#c68125; stroke-linecap:butt; stroke-linejoin:round; stroke-width:4; stroke-opacity:1; fill:none" points="
  1662.64,505.307 1796.37,505.307 
  "/>
<line clip-path="url(#clip340)" x1="1755.1" y1="505.307" x2="1703.9" y2="505.307" style="stroke:#c68125; stroke-width:4.9152; stroke-opacity:1"/>
<path clip-path="url(#clip340)" d="M1818.65 486.569 L1822.91 486.569 L1822.91 522.587 L1818.65 522.587 L1818.65 486.569 Z" fill="#000000" fill-rule="evenodd" fill-opacity="1" /><path clip-path="url(#clip340)" d="M1848.35 497.425 L1848.35 501.453 Q1846.55 500.527 1844.6 500.064 Q1842.66 499.601 1840.57 499.601 Q1837.4 499.601 1835.81 500.573 Q1834.23 501.546 1834.23 503.49 Q1834.23 504.972 1835.37 505.828 Q1836.5 506.661 1839.93 507.425 L1841.38 507.749 Q1845.92 508.722 1847.82 510.504 Q1849.74 512.263 1849.74 515.434 Q1849.74 519.046 1846.87 521.152 Q1844.02 523.258 1839.02 523.258 Q1836.94 523.258 1834.67 522.842 Q1832.43 522.448 1829.93 521.638 L1829.93 517.24 Q1832.29 518.467 1834.58 519.092 Q1836.87 519.694 1839.12 519.694 Q1842.13 519.694 1843.75 518.675 Q1845.37 517.634 1845.37 515.759 Q1845.37 514.022 1844.19 513.096 Q1843.03 512.171 1839.07 511.314 L1837.59 510.967 Q1833.63 510.134 1831.87 508.421 Q1830.11 506.684 1830.11 503.675 Q1830.11 500.018 1832.7 498.027 Q1835.3 496.036 1840.07 496.036 Q1842.43 496.036 1844.51 496.384 Q1846.59 496.731 1848.35 497.425 Z" fill="#000000" fill-rule="evenodd" fill-opacity="1" /><path clip-path="url(#clip340)" d="M1866.57 499.647 Q1863.14 499.647 1861.15 502.333 Q1859.16 504.995 1859.16 509.647 Q1859.16 514.3 1861.13 516.985 Q1863.12 519.647 1866.57 519.647 Q1869.97 519.647 1871.96 516.962 Q1873.95 514.277 1873.95 509.647 Q1873.95 505.041 1871.96 502.356 Q1869.97 499.647 1866.57 499.647 M1866.57 496.036 Q1872.13 496.036 1875.3 499.647 Q1878.47 503.259 1878.47 509.647 Q1878.47 516.013 1875.3 519.647 Q1872.13 523.258 1866.57 523.258 Q1860.99 523.258 1857.82 519.647 Q1854.67 516.013 1854.67 509.647 Q1854.67 503.259 1857.82 499.647 Q1860.99 496.036 1866.57 496.036 Z" fill="#000000" fill-rule="evenodd" fill-opacity="1" /><path clip-path="url(#clip340)" d="M1902.59 500.597 L1902.59 486.569 L1906.85 486.569 L1906.85 522.587 L1902.59 522.587 L1902.59 518.698 Q1901.25 521.013 1899.19 522.147 Q1897.15 523.258 1894.28 523.258 Q1889.58 523.258 1886.62 519.508 Q1883.68 515.759 1883.68 509.647 Q1883.68 503.536 1886.62 499.786 Q1889.58 496.036 1894.28 496.036 Q1897.15 496.036 1899.19 497.171 Q1901.25 498.282 1902.59 500.597 M1888.07 509.647 Q1888.07 514.346 1890 517.032 Q1891.94 519.694 1895.32 519.694 Q1898.7 519.694 1900.64 517.032 Q1902.59 514.346 1902.59 509.647 Q1902.59 504.948 1900.64 502.286 Q1898.7 499.601 1895.32 499.601 Q1891.94 499.601 1890 502.286 Q1888.07 504.948 1888.07 509.647 Z" fill="#000000" fill-rule="evenodd" fill-opacity="1" /><path clip-path="url(#clip340)" d="M1927.4 509.555 Q1922.24 509.555 1920.25 510.735 Q1918.26 511.916 1918.26 514.763 Q1918.26 517.032 1919.74 518.374 Q1921.25 519.694 1923.82 519.694 Q1927.36 519.694 1929.49 517.194 Q1931.64 514.671 1931.64 510.504 L1931.64 509.555 L1927.4 509.555 M1935.9 507.796 L1935.9 522.587 L1931.64 522.587 L1931.64 518.652 Q1930.18 521.013 1928 522.147 Q1925.83 523.258 1922.68 523.258 Q1918.7 523.258 1916.34 521.036 Q1914 518.791 1914 515.041 Q1914 510.666 1916.92 508.444 Q1919.86 506.222 1925.67 506.222 L1931.64 506.222 L1931.64 505.805 Q1931.64 502.865 1929.69 501.268 Q1927.77 499.647 1924.28 499.647 Q1922.06 499.647 1919.95 500.18 Q1917.84 500.712 1915.9 501.777 L1915.9 497.842 Q1918.24 496.939 1920.44 496.499 Q1922.63 496.036 1924.72 496.036 Q1930.34 496.036 1933.12 498.953 Q1935.9 501.87 1935.9 507.796 Z" fill="#000000" fill-rule="evenodd" fill-opacity="1" /><polyline clip-path="url(#clip340)" style="stroke:#00a98d; stroke-linecap:butt; stroke-linejoin:round; stroke-width:4; stroke-opacity:1; fill:none" points="
  1662.64,557.147 1796.37,557.147 
  "/>
<path clip-path="url(#clip340)" d="M1709.02 557.147 L1739.74 575.067 L1739.74 539.227 L1709.02 557.147 Z" fill="#00a98d" fill-rule="evenodd" fill-opacity="1" stroke="#000000" stroke-opacity="1" stroke-width="4.9152"/>
<path clip-path="url(#clip340)" d="M1833.84 552.483 Q1833.12 552.066 1832.26 551.881 Q1831.43 551.673 1830.41 551.673 Q1826.8 551.673 1824.86 554.034 Q1822.94 556.372 1822.94 560.77 L1822.94 574.427 L1818.65 574.427 L1818.65 548.501 L1822.94 548.501 L1822.94 552.529 Q1824.28 550.168 1826.43 549.034 Q1828.58 547.876 1831.66 547.876 Q1832.1 547.876 1832.63 547.946 Q1833.17 547.992 1833.82 548.108 L1833.84 552.483 Z" fill="#000000" fill-rule="evenodd" fill-opacity="1" /><path clip-path="url(#clip340)" d="M1850.09 561.395 Q1844.93 561.395 1842.94 562.575 Q1840.95 563.756 1840.95 566.603 Q1840.95 568.872 1842.43 570.214 Q1843.93 571.534 1846.5 571.534 Q1850.04 571.534 1852.17 569.034 Q1854.32 566.511 1854.32 562.344 L1854.32 561.395 L1850.09 561.395 M1858.58 559.636 L1858.58 574.427 L1854.32 574.427 L1854.32 570.492 Q1852.87 572.853 1850.69 573.987 Q1848.51 575.098 1845.37 575.098 Q1841.38 575.098 1839.02 572.876 Q1836.69 570.631 1836.69 566.881 Q1836.69 562.506 1839.6 560.284 Q1842.54 558.062 1848.35 558.062 L1854.32 558.062 L1854.32 557.645 Q1854.32 554.705 1852.38 553.108 Q1850.46 551.487 1846.96 551.487 Q1844.74 551.487 1842.63 552.02 Q1840.53 552.552 1838.58 553.617 L1838.58 549.682 Q1840.92 548.779 1843.12 548.339 Q1845.32 547.876 1847.4 547.876 Q1853.03 547.876 1855.81 550.793 Q1858.58 553.71 1858.58 559.636 Z" fill="#000000" fill-rule="evenodd" fill-opacity="1" /><path clip-path="url(#clip340)" d="M1884.42 552.437 L1884.42 538.409 L1888.68 538.409 L1888.68 574.427 L1884.42 574.427 L1884.42 570.538 Q1883.07 572.853 1881.01 573.987 Q1878.98 575.098 1876.11 575.098 Q1871.41 575.098 1868.44 571.348 Q1865.51 567.599 1865.51 561.487 Q1865.51 555.376 1868.44 551.626 Q1871.41 547.876 1876.11 547.876 Q1878.98 547.876 1881.01 549.011 Q1883.07 550.122 1884.42 552.437 M1869.9 561.487 Q1869.9 566.186 1871.82 568.872 Q1873.77 571.534 1877.15 571.534 Q1880.53 571.534 1882.47 568.872 Q1884.42 566.186 1884.42 561.487 Q1884.42 556.788 1882.47 554.126 Q1880.53 551.441 1877.15 551.441 Q1873.77 551.441 1871.82 554.126 Q1869.9 556.788 1869.9 561.487 Z" fill="#000000" fill-rule="evenodd" fill-opacity="1" /><path clip-path="url(#clip340)" d="M1909.23 561.395 Q1904.07 561.395 1902.08 562.575 Q1900.09 563.756 1900.09 566.603 Q1900.09 568.872 1901.57 570.214 Q1903.07 571.534 1905.64 571.534 Q1909.19 571.534 1911.32 569.034 Q1913.47 566.511 1913.47 562.344 L1913.47 561.395 L1909.23 561.395 M1917.73 559.636 L1917.73 574.427 L1913.47 574.427 L1913.47 570.492 Q1912.01 572.853 1909.83 573.987 Q1907.66 575.098 1904.51 575.098 Q1900.53 575.098 1898.17 572.876 Q1895.83 570.631 1895.83 566.881 Q1895.83 562.506 1898.75 560.284 Q1901.69 558.062 1907.5 558.062 L1913.47 558.062 L1913.47 557.645 Q1913.47 554.705 1911.52 553.108 Q1909.6 551.487 1906.11 551.487 Q1903.88 551.487 1901.78 552.02 Q1899.67 552.552 1897.73 553.617 L1897.73 549.682 Q1900.07 548.779 1902.26 548.339 Q1904.46 547.876 1906.55 547.876 Q1912.17 547.876 1914.95 550.793 Q1917.73 553.71 1917.73 559.636 Z" fill="#000000" fill-rule="evenodd" fill-opacity="1" /><path clip-path="url(#clip340)" d="M1926.06 564.196 L1926.06 548.501 L1930.32 548.501 L1930.32 564.034 Q1930.32 567.714 1931.75 569.566 Q1933.19 571.395 1936.06 571.395 Q1939.51 571.395 1941.5 569.196 Q1943.51 566.997 1943.51 563.2 L1943.51 548.501 L1947.77 548.501 L1947.77 574.427 L1943.51 574.427 L1943.51 570.446 Q1941.96 572.807 1939.9 573.964 Q1937.87 575.098 1935.16 575.098 Q1930.69 575.098 1928.38 572.321 Q1926.06 569.543 1926.06 564.196 M1936.78 547.876 L1936.78 547.876 Z" fill="#000000" fill-rule="evenodd" fill-opacity="1" /></svg>
