<?xml version="1.0" encoding="utf-8"?>
<svg xmlns="http://www.w3.org/2000/svg" xmlns:xlink="http://www.w3.org/1999/xlink" width="576" height="384" viewBox="0 0 2304 1536">
<defs>
  <clipPath id="clip660">
    <rect x="0" y="0" width="2304" height="1536"/>
  </clipPath>
</defs>
<path clip-path="url(#clip660)" d="
M0 1536 L2304 1536 L2304 0 L0 0  Z
  " fill="#ffffff" fill-rule="evenodd" fill-opacity="1"/>
<defs>
  <clipPath id="clip661">
    <rect x="460" y="0" width="1614" height="1536"/>
  </clipPath>
</defs>
<path clip-path="url(#clip660)" d="
M288.159 1347.54 L2256.76 1347.54 L2256.76 47.2441 L288.159 47.2441  Z
  " fill="#ffffff" fill-rule="evenodd" fill-opacity="1"/>
<defs>
  <clipPath id="clip662">
    <rect x="288" y="47" width="1970" height="1301"/>
  </clipPath>
</defs>
<polyline clip-path="url(#clip662)" style="stroke:#000000; stroke-linecap:butt; stroke-linejoin:round; stroke-width:2; stroke-opacity:0.1; fill:none" points="
  940.752,1347.54 940.752,47.2441 
  "/>
<polyline clip-path="url(#clip662)" style="stroke:#000000; stroke-linecap:butt; stroke-linejoin:round; stroke-width:2; stroke-opacity:0.1; fill:none" points="
  1653,1347.54 1653,47.2441 
  "/>
<polyline clip-path="url(#clip660)" style="stroke:#000000; stroke-linecap:butt; stroke-linejoin:round; stroke-width:4; stroke-opacity:1; fill:none" points="
  288.159,1347.54 2256.76,1347.54 
  "/>
<polyline clip-path="url(#clip660)" style="stroke:#000000; stroke-linecap:butt; stroke-linejoin:round; stroke-width:4; stroke-opacity:1; fill:none" points="
  940.752,1347.54 940.752,1328.64 
  "/>
<polyline clip-path="url(#clip660)" style="stroke:#000000; stroke-linecap:butt; stroke-linejoin:round; stroke-width:4; stroke-opacity:1; fill:none" points="
  1653,1347.54 1653,1328.64 
  "/>
<path clip-path="url(#clip660)" d="M872.399 1420.89 L880.037 1420.89 L880.037 1394.53 L871.727 1396.19 L871.727 1391.94 L879.991 1390.27 L884.667 1390.27 L884.667 1420.89 L892.306 1420.89 L892.306 1424.83 L872.399 1424.83 L872.399 1420.89 Z" fill="#000000" fill-rule="evenodd" fill-opacity="1" /><path clip-path="url(#clip660)" d="M911.75 1393.35 Q908.139 1393.35 906.31 1396.91 Q904.505 1400.45 904.505 1407.58 Q904.505 1414.69 906.31 1418.25 Q908.139 1421.8 911.75 1421.8 Q915.384 1421.8 917.19 1418.25 Q919.019 1414.69 919.019 1407.58 Q919.019 1400.45 917.19 1396.91 Q915.384 1393.35 911.75 1393.35 M911.75 1389.64 Q917.56 1389.64 920.616 1394.25 Q923.695 1398.83 923.695 1407.58 Q923.695 1416.31 920.616 1420.92 Q917.56 1425.5 911.75 1425.5 Q905.94 1425.5 902.861 1420.92 Q899.806 1416.31 899.806 1407.58 Q899.806 1398.83 902.861 1394.25 Q905.94 1389.64 911.75 1389.64 Z" fill="#000000" fill-rule="evenodd" fill-opacity="1" /><path clip-path="url(#clip660)" d="M923.695 1383.74 L947.806 1383.74 L947.806 1386.94 L923.695 1386.94 L923.695 1383.74 Z" fill="#000000" fill-rule="evenodd" fill-opacity="1" /><path clip-path="url(#clip660)" d="M959.279 1394.22 L972.538 1394.22 L972.538 1397.42 L954.709 1397.42 L954.709 1394.22 Q956.871 1391.98 960.595 1388.22 Q964.338 1384.44 965.297 1383.35 Q967.122 1381.3 967.836 1379.89 Q968.57 1378.46 968.57 1377.09 Q968.57 1374.85 966.99 1373.44 Q965.429 1372.03 962.909 1372.03 Q961.122 1372.03 959.128 1372.65 Q957.154 1373.27 954.897 1374.53 L954.897 1370.69 Q957.191 1369.77 959.185 1369.3 Q961.178 1368.83 962.834 1368.83 Q967.197 1368.83 969.792 1371.01 Q972.388 1373.19 972.388 1376.84 Q972.388 1378.57 971.73 1380.13 Q971.09 1381.68 969.379 1383.78 Q968.908 1384.33 966.388 1386.94 Q963.868 1389.54 959.279 1394.22 Z" fill="#000000" fill-rule="evenodd" fill-opacity="1" /><path clip-path="url(#clip660)" d="M980.513 1392.64 L984.481 1392.64 L984.481 1397.42 L980.513 1397.42 L980.513 1392.64 Z" fill="#000000" fill-rule="evenodd" fill-opacity="1" /><path clip-path="url(#clip660)" d="M992.794 1369.34 L1007.71 1369.34 L1007.71 1372.54 L996.274 1372.54 L996.274 1379.42 Q997.101 1379.14 997.929 1379.01 Q998.756 1378.85 999.584 1378.85 Q1004.29 1378.85 1007.03 1381.43 Q1009.78 1384.01 1009.78 1388.41 Q1009.78 1392.94 1006.96 1395.46 Q1004.14 1397.96 999.001 1397.96 Q997.233 1397.96 995.39 1397.66 Q993.565 1397.36 991.609 1396.76 L991.609 1392.94 Q993.302 1393.86 995.108 1394.31 Q996.913 1394.77 998.926 1394.77 Q1002.18 1394.77 1004.08 1393.05 Q1005.98 1391.34 1005.98 1388.41 Q1005.98 1385.48 1004.08 1383.76 Q1002.18 1382.05 998.926 1382.05 Q997.402 1382.05 995.879 1382.39 Q994.374 1382.73 992.794 1383.44 L992.794 1369.34 Z" fill="#000000" fill-rule="evenodd" fill-opacity="1" /><path clip-path="url(#clip660)" d="M1599.6 1420.89 L1607.24 1420.89 L1607.24 1394.53 L1598.93 1396.19 L1598.93 1391.94 L1607.2 1390.27 L1611.87 1390.27 L1611.87 1420.89 L1619.51 1420.89 L1619.51 1424.83 L1599.6 1424.83 L1599.6 1420.89 Z" fill="#000000" fill-rule="evenodd" fill-opacity="1" /><path clip-path="url(#clip660)" d="M1638.96 1393.35 Q1635.34 1393.35 1633.52 1396.91 Q1631.71 1400.45 1631.71 1407.58 Q1631.71 1414.69 1633.52 1418.25 Q1635.34 1421.8 1638.96 1421.8 Q1642.59 1421.8 1644.4 1418.25 Q1646.22 1414.69 1646.22 1407.58 Q1646.22 1400.45 1644.4 1396.91 Q1642.59 1393.35 1638.96 1393.35 M1638.96 1389.64 Q1644.77 1389.64 1647.82 1394.25 Q1650.9 1398.83 1650.9 1407.58 Q1650.9 1416.31 1647.82 1420.92 Q1644.77 1425.5 1638.96 1425.5 Q1633.15 1425.5 1630.07 1420.92 Q1627.01 1416.31 1627.01 1407.58 Q1627.01 1398.83 1630.07 1394.25 Q1633.15 1389.64 1638.96 1389.64 Z" fill="#000000" fill-rule="evenodd" fill-opacity="1" /><path clip-path="url(#clip660)" d="M1660.6 1371.84 Q1657.67 1371.84 1656.19 1374.74 Q1654.72 1377.61 1654.72 1383.41 Q1654.72 1389.18 1656.19 1392.08 Q1657.67 1394.95 1660.6 1394.95 Q1663.56 1394.95 1665.02 1392.08 Q1666.51 1389.18 1666.51 1383.41 Q1666.51 1377.61 1665.02 1374.74 Q1663.56 1371.84 1660.6 1371.84 M1660.6 1368.83 Q1665.33 1368.83 1667.81 1372.57 Q1670.31 1376.3 1670.31 1383.41 Q1670.31 1390.5 1667.81 1394.24 Q1665.33 1397.96 1660.6 1397.96 Q1655.88 1397.96 1653.38 1394.24 Q1650.9 1390.5 1650.9 1383.41 Q1650.9 1376.3 1653.38 1372.57 Q1655.88 1368.83 1660.6 1368.83 Z" fill="#000000" fill-rule="evenodd" fill-opacity="1" /><path clip-path="url(#clip660)" d="M1676.99 1392.64 L1680.96 1392.64 L1680.96 1397.42 L1676.99 1397.42 L1676.99 1392.64 Z" fill="#000000" fill-rule="evenodd" fill-opacity="1" /><path clip-path="url(#clip660)" d="M1697.36 1371.84 Q1694.42 1371.84 1692.94 1374.74 Q1691.47 1377.61 1691.47 1383.41 Q1691.47 1389.18 1692.94 1392.08 Q1694.42 1394.95 1697.36 1394.95 Q1700.31 1394.95 1701.78 1392.08 Q1703.26 1389.18 1703.26 1383.41 Q1703.26 1377.61 1701.78 1374.74 Q1700.31 1371.84 1697.36 1371.84 M1697.36 1368.83 Q1702.08 1368.83 1704.56 1372.57 Q1707.06 1376.3 1707.06 1383.41 Q1707.06 1390.5 1704.56 1394.24 Q1702.08 1397.96 1697.36 1397.96 Q1692.63 1397.96 1690.13 1394.24 Q1687.65 1390.5 1687.65 1383.41 Q1687.65 1376.3 1690.13 1372.57 Q1692.63 1368.83 1697.36 1368.83 Z" fill="#000000" fill-rule="evenodd" fill-opacity="1" /><path clip-path="url(#clip660)" d="M1196.21 1461.87 L1226.26 1461.87 L1226.26 1467.28 L1202.64 1467.28 L1202.64 1481.34 L1225.27 1481.34 L1225.27 1486.76 L1202.64 1486.76 L1202.64 1503.97 L1226.83 1503.97 L1226.83 1509.39 L1196.21 1509.39 L1196.21 1461.87 Z" fill="#000000" fill-rule="evenodd" fill-opacity="1" /><path clip-path="url(#clip660)" d="M1257.8 1479.21 Q1256.81 1478.64 1255.64 1478.38 Q1254.49 1478.1 1253.09 1478.1 Q1248.12 1478.1 1245.45 1481.34 Q1242.81 1484.56 1242.81 1490.61 L1242.81 1509.39 L1236.92 1509.39 L1236.92 1473.74 L1242.81 1473.74 L1242.81 1479.28 Q1244.66 1476.03 1247.62 1474.47 Q1250.58 1472.88 1254.81 1472.88 Q1255.41 1472.88 1256.15 1472.97 Q1256.88 1473.04 1257.77 1473.2 L1257.8 1479.21 Z" fill="#000000" fill-rule="evenodd" fill-opacity="1" /><path clip-path="url(#clip660)" d="M1283.45 1479.21 Q1282.47 1478.64 1281.29 1478.38 Q1280.14 1478.1 1278.74 1478.1 Q1273.78 1478.1 1271.1 1481.34 Q1268.46 1484.56 1268.46 1490.61 L1268.46 1509.39 L1262.57 1509.39 L1262.57 1473.74 L1268.46 1473.74 L1268.46 1479.28 Q1270.31 1476.03 1273.27 1474.47 Q1276.23 1472.88 1280.46 1472.88 Q1281.07 1472.88 1281.8 1472.97 Q1282.53 1473.04 1283.42 1473.2 L1283.45 1479.21 Z" fill="#000000" fill-rule="evenodd" fill-opacity="1" /><path clip-path="url(#clip660)" d="M1301.98 1477.84 Q1297.27 1477.84 1294.53 1481.54 Q1291.79 1485.2 1291.79 1491.59 Q1291.79 1497.99 1294.5 1501.68 Q1297.24 1505.34 1301.98 1505.34 Q1306.66 1505.34 1309.39 1501.65 Q1312.13 1497.96 1312.13 1491.59 Q1312.13 1485.26 1309.39 1481.57 Q1306.66 1477.84 1301.98 1477.84 M1301.98 1472.88 Q1309.62 1472.88 1313.98 1477.84 Q1318.34 1482.81 1318.34 1491.59 Q1318.34 1500.35 1313.98 1505.34 Q1309.62 1510.31 1301.98 1510.31 Q1294.31 1510.31 1289.95 1505.34 Q1285.62 1500.35 1285.62 1491.59 Q1285.62 1482.81 1289.95 1477.84 Q1294.31 1472.88 1301.98 1472.88 Z" fill="#000000" fill-rule="evenodd" fill-opacity="1" /><path clip-path="url(#clip660)" d="M1348.7 1479.21 Q1347.72 1478.64 1346.54 1478.38 Q1345.39 1478.1 1343.99 1478.1 Q1339.03 1478.1 1336.35 1481.34 Q1333.71 1484.56 1333.71 1490.61 L1333.71 1509.39 L1327.82 1509.39 L1327.82 1473.74 L1333.71 1473.74 L1333.71 1479.28 Q1335.56 1476.03 1338.52 1474.47 Q1341.48 1472.88 1345.71 1472.88 Q1346.32 1472.88 1347.05 1472.97 Q1347.78 1473.04 1348.67 1473.2 L1348.7 1479.21 Z" fill="#000000" fill-rule="evenodd" fill-opacity="1" /><polyline clip-path="url(#clip662)" style="stroke:#000000; stroke-linecap:butt; stroke-linejoin:round; stroke-width:2; stroke-opacity:0.1; fill:none" points="
  288.159,1158.14 2256.76,1158.14 
  "/>
<polyline clip-path="url(#clip662)" style="stroke:#000000; stroke-linecap:butt; stroke-linejoin:round; stroke-width:2; stroke-opacity:0.1; fill:none" points="
  288.159,719.524 2256.76,719.524 
  "/>
<polyline clip-path="url(#clip662)" style="stroke:#000000; stroke-linecap:butt; stroke-linejoin:round; stroke-width:2; stroke-opacity:0.1; fill:none" points="
  288.159,280.912 2256.76,280.912 
  "/>
<polyline clip-path="url(#clip660)" style="stroke:#000000; stroke-linecap:butt; stroke-linejoin:round; stroke-width:4; stroke-opacity:1; fill:none" points="
  288.159,1347.54 288.159,47.2441 
  "/>
<polyline clip-path="url(#clip660)" style="stroke:#000000; stroke-linecap:butt; stroke-linejoin:round; stroke-width:4; stroke-opacity:1; fill:none" points="
  288.159,1158.14 307.057,1158.14 
  "/>
<polyline clip-path="url(#clip660)" style="stroke:#000000; stroke-linecap:butt; stroke-linejoin:round; stroke-width:4; stroke-opacity:1; fill:none" points="
  288.159,719.524 307.057,719.524 
  "/>
<polyline clip-path="url(#clip660)" style="stroke:#000000; stroke-linecap:butt; stroke-linejoin:round; stroke-width:4; stroke-opacity:1; fill:none" points="
  288.159,280.912 307.057,280.912 
  "/>
<path clip-path="url(#clip660)" d="M116.22 1177.93 L123.859 1177.93 L123.859 1151.56 L115.549 1153.23 L115.549 1148.97 L123.813 1147.3 L128.489 1147.3 L128.489 1177.93 L136.127 1177.93 L136.127 1181.86 L116.22 1181.86 L116.22 1177.93 Z" fill="#000000" fill-rule="evenodd" fill-opacity="1" /><path clip-path="url(#clip660)" d="M155.572 1150.38 Q151.961 1150.38 150.132 1153.95 Q148.326 1157.49 148.326 1164.62 Q148.326 1171.73 150.132 1175.29 Q151.961 1178.83 155.572 1178.83 Q159.206 1178.83 161.012 1175.29 Q162.84 1171.73 162.84 1164.62 Q162.84 1157.49 161.012 1153.95 Q159.206 1150.38 155.572 1150.38 M155.572 1146.68 Q161.382 1146.68 164.438 1151.29 Q167.516 1155.87 167.516 1164.62 Q167.516 1173.35 164.438 1177.95 Q161.382 1182.54 155.572 1182.54 Q149.762 1182.54 146.683 1177.95 Q143.627 1173.35 143.627 1164.62 Q143.627 1155.87 146.683 1151.29 Q149.762 1146.68 155.572 1146.68 Z" fill="#000000" fill-rule="evenodd" fill-opacity="1" /><path clip-path="url(#clip660)" d="M167.516 1140.78 L191.628 1140.78 L191.628 1143.98 L167.516 1143.98 L167.516 1140.78 Z" fill="#000000" fill-rule="evenodd" fill-opacity="1" /><path clip-path="url(#clip660)" d="M211.338 1139.31 Q214.065 1139.9 215.589 1141.74 Q217.131 1143.58 217.131 1146.29 Q217.131 1150.45 214.272 1152.72 Q211.414 1155 206.147 1155 Q204.379 1155 202.499 1154.64 Q200.637 1154.3 198.643 1153.61 L198.643 1149.94 Q200.223 1150.86 202.104 1151.33 Q203.984 1151.8 206.035 1151.8 Q209.608 1151.8 211.47 1150.39 Q213.351 1148.98 213.351 1146.29 Q213.351 1143.81 211.602 1142.42 Q209.871 1141.01 206.768 1141.01 L203.495 1141.01 L203.495 1137.88 L206.918 1137.88 Q209.721 1137.88 211.207 1136.77 Q212.692 1135.65 212.692 1133.54 Q212.692 1131.38 211.15 1130.23 Q209.627 1129.06 206.768 1129.06 Q205.207 1129.06 203.42 1129.4 Q201.633 1129.74 199.489 1130.45 L199.489 1127.07 Q201.652 1126.47 203.533 1126.17 Q205.433 1125.87 207.107 1125.87 Q211.432 1125.87 213.953 1127.84 Q216.473 1129.8 216.473 1133.14 Q216.473 1135.48 215.137 1137.09 Q213.802 1138.69 211.338 1139.31 Z" fill="#000000" fill-rule="evenodd" fill-opacity="1" /><path clip-path="url(#clip660)" d="M224.334 1149.68 L228.303 1149.68 L228.303 1154.45 L224.334 1154.45 L224.334 1149.68 Z" fill="#000000" fill-rule="evenodd" fill-opacity="1" /><path clip-path="url(#clip660)" d="M236.616 1126.37 L251.531 1126.37 L251.531 1129.57 L240.095 1129.57 L240.095 1136.45 Q240.923 1136.17 241.75 1136.04 Q242.578 1135.89 243.406 1135.89 Q248.107 1135.89 250.853 1138.47 Q253.599 1141.04 253.599 1145.44 Q253.599 1149.98 250.778 1152.5 Q247.957 1155 242.823 1155 Q241.055 1155 239.211 1154.7 Q237.387 1154.4 235.431 1153.8 L235.431 1149.98 Q237.124 1150.9 238.929 1151.35 Q240.735 1151.8 242.747 1151.8 Q246.001 1151.8 247.901 1150.09 Q249.8 1148.38 249.8 1145.44 Q249.8 1142.51 247.901 1140.8 Q246.001 1139.09 242.747 1139.09 Q241.224 1139.09 239.7 1139.43 Q238.196 1139.76 236.616 1140.48 L236.616 1126.37 Z" fill="#000000" fill-rule="evenodd" fill-opacity="1" /><path clip-path="url(#clip660)" d="M115.411 739.317 L123.05 739.317 L123.05 712.951 L114.74 714.618 L114.74 710.359 L123.004 708.692 L127.68 708.692 L127.68 739.317 L135.319 739.317 L135.319 743.252 L115.411 743.252 L115.411 739.317 Z" fill="#000000" fill-rule="evenodd" fill-opacity="1" /><path clip-path="url(#clip660)" d="M154.763 711.771 Q151.152 711.771 149.323 715.336 Q147.518 718.877 147.518 726.007 Q147.518 733.113 149.323 736.678 Q151.152 740.22 154.763 740.22 Q158.397 740.22 160.203 736.678 Q162.032 733.113 162.032 726.007 Q162.032 718.877 160.203 715.336 Q158.397 711.771 154.763 711.771 M154.763 708.067 Q160.573 708.067 163.629 712.673 Q166.707 717.257 166.707 726.007 Q166.707 734.734 163.629 739.34 Q160.573 743.923 154.763 743.923 Q148.953 743.923 145.874 739.34 Q142.819 734.734 142.819 726.007 Q142.819 717.257 145.874 712.673 Q148.953 708.067 154.763 708.067 Z" fill="#000000" fill-rule="evenodd" fill-opacity="1" /><path clip-path="url(#clip660)" d="M166.707 702.168 L190.819 702.168 L190.819 705.366 L166.707 705.366 L166.707 702.168 Z" fill="#000000" fill-rule="evenodd" fill-opacity="1" /><path clip-path="url(#clip660)" d="M210.53 700.701 Q213.257 701.284 214.78 703.128 Q216.322 704.971 216.322 707.679 Q216.322 711.836 213.464 714.111 Q210.605 716.387 205.339 716.387 Q203.571 716.387 201.69 716.03 Q199.828 715.691 197.834 714.995 L197.834 711.328 Q199.414 712.249 201.295 712.72 Q203.176 713.19 205.226 713.19 Q208.799 713.19 210.661 711.779 Q212.542 710.369 212.542 707.679 Q212.542 705.196 210.793 703.805 Q209.063 702.394 205.959 702.394 L202.687 702.394 L202.687 699.272 L206.11 699.272 Q208.912 699.272 210.398 698.162 Q211.884 697.034 211.884 694.927 Q211.884 692.764 210.341 691.617 Q208.818 690.451 205.959 690.451 Q204.398 690.451 202.612 690.79 Q200.825 691.128 198.681 691.843 L198.681 688.458 Q200.844 687.856 202.724 687.555 Q204.624 687.254 206.298 687.254 Q210.624 687.254 213.144 689.229 Q215.664 691.185 215.664 694.532 Q215.664 696.865 214.329 698.482 Q212.993 700.081 210.53 700.701 Z" fill="#000000" fill-rule="evenodd" fill-opacity="1" /><path clip-path="url(#clip660)" d="M223.526 711.064 L227.494 711.064 L227.494 715.842 L223.526 715.842 L223.526 711.064 Z" fill="#000000" fill-rule="evenodd" fill-opacity="1" /><path clip-path="url(#clip660)" d="M243.895 690.263 Q240.961 690.263 239.475 693.159 Q238.008 696.037 238.008 701.83 Q238.008 707.604 239.475 710.5 Q240.961 713.378 243.895 713.378 Q246.847 713.378 248.314 710.5 Q249.8 707.604 249.8 701.83 Q249.8 696.037 248.314 693.159 Q246.847 690.263 243.895 690.263 M243.895 687.254 Q248.615 687.254 251.098 690.997 Q253.599 694.721 253.599 701.83 Q253.599 708.92 251.098 712.663 Q248.615 716.387 243.895 716.387 Q239.174 716.387 236.672 712.663 Q234.19 708.92 234.19 701.83 Q234.19 694.721 236.672 690.997 Q239.174 687.254 243.895 687.254 Z" fill="#000000" fill-rule="evenodd" fill-opacity="1" /><path clip-path="url(#clip660)" d="M116.22 300.705 L123.859 300.705 L123.859 274.339 L115.549 276.006 L115.549 271.747 L123.813 270.08 L128.489 270.08 L128.489 300.705 L136.127 300.705 L136.127 304.64 L116.22 304.64 L116.22 300.705 Z" fill="#000000" fill-rule="evenodd" fill-opacity="1" /><path clip-path="url(#clip660)" d="M155.572 273.159 Q151.961 273.159 150.132 276.723 Q148.326 280.265 148.326 287.395 Q148.326 294.501 150.132 298.066 Q151.961 301.608 155.572 301.608 Q159.206 301.608 161.012 298.066 Q162.84 294.501 162.84 287.395 Q162.84 280.265 161.012 276.723 Q159.206 273.159 155.572 273.159 M155.572 269.455 Q161.382 269.455 164.438 274.061 Q167.516 278.645 167.516 287.395 Q167.516 296.122 164.438 300.728 Q161.382 305.311 155.572 305.311 Q149.762 305.311 146.683 300.728 Q143.627 296.122 143.627 287.395 Q143.627 278.645 146.683 274.061 Q149.762 269.455 155.572 269.455 Z" fill="#000000" fill-rule="evenodd" fill-opacity="1" /><path clip-path="url(#clip660)" d="M167.516 263.556 L191.628 263.556 L191.628 266.754 L167.516 266.754 L167.516 263.556 Z" fill="#000000" fill-rule="evenodd" fill-opacity="1" /><path clip-path="url(#clip660)" d="M203.101 274.032 L216.36 274.032 L216.36 277.23 L198.53 277.23 L198.53 274.032 Q200.693 271.794 204.417 268.033 Q208.16 264.252 209.119 263.161 Q210.943 261.111 211.658 259.701 Q212.392 258.271 212.392 256.898 Q212.392 254.66 210.812 253.25 Q209.251 251.839 206.73 251.839 Q204.944 251.839 202.95 252.46 Q200.975 253.08 198.718 254.341 L198.718 250.504 Q201.013 249.582 203.006 249.112 Q205 248.642 206.655 248.642 Q211.019 248.642 213.614 250.823 Q216.21 253.005 216.21 256.654 Q216.21 258.384 215.551 259.945 Q214.912 261.487 213.2 263.594 Q212.73 264.139 210.21 266.754 Q207.69 269.349 203.101 274.032 Z" fill="#000000" fill-rule="evenodd" fill-opacity="1" /><path clip-path="url(#clip660)" d="M224.334 272.452 L228.303 272.452 L228.303 277.23 L224.334 277.23 L224.334 272.452 Z" fill="#000000" fill-rule="evenodd" fill-opacity="1" /><path clip-path="url(#clip660)" d="M236.616 249.15 L251.531 249.15 L251.531 252.347 L240.095 252.347 L240.095 259.231 Q240.923 258.948 241.75 258.817 Q242.578 258.666 243.406 258.666 Q248.107 258.666 250.853 261.243 Q253.599 263.82 253.599 268.221 Q253.599 272.753 250.778 275.274 Q247.957 277.775 242.823 277.775 Q241.055 277.775 239.211 277.474 Q237.387 277.173 235.431 276.571 L235.431 272.753 Q237.124 273.675 238.929 274.126 Q240.735 274.578 242.747 274.578 Q246.001 274.578 247.901 272.866 Q249.8 271.155 249.8 268.221 Q249.8 265.287 247.901 263.575 Q246.001 261.864 242.747 261.864 Q241.224 261.864 239.7 262.202 Q238.196 262.541 236.616 263.255 L236.616 249.15 Z" fill="#000000" fill-rule="evenodd" fill-opacity="1" /><path clip-path="url(#clip660)" d="M18.4042 827.219 L18.4042 787.02 L23.815 787.02 L23.815 803.889 L65.9242 803.889 L65.9242 810.35 L23.815 810.35 L23.815 827.219 L18.4042 827.219 Z" fill="#000000" fill-rule="evenodd" fill-opacity="1" /><path clip-path="url(#clip660)" d="M30.2762 783.073 L30.2762 777.216 L65.9242 777.216 L65.9242 783.073 L30.2762 783.073 M16.399 783.073 L16.399 777.216 L23.815 777.216 L23.815 783.073 L16.399 783.073 Z" fill="#000000" fill-rule="evenodd" fill-opacity="1" /><path clip-path="url(#clip660)" d="M37.1193 737.208 Q33.1726 735.012 31.2947 731.956 Q29.4168 728.901 29.4168 724.763 Q29.4168 719.193 33.3317 716.169 Q37.2148 713.145 44.4081 713.145 L65.9242 713.145 L65.9242 719.034 L44.599 719.034 Q39.4746 719.034 36.992 720.848 Q34.5094 722.662 34.5094 726.386 Q34.5094 730.938 37.5331 733.579 Q40.5568 736.221 45.7767 736.221 L65.9242 736.221 L65.9242 742.109 L44.599 742.109 Q39.4428 742.109 36.992 743.924 Q34.5094 745.738 34.5094 749.526 Q34.5094 754.013 37.5649 756.655 Q40.5886 759.297 45.7767 759.297 L65.9242 759.297 L65.9242 765.185 L30.2762 765.185 L30.2762 759.297 L35.8144 759.297 Q32.536 757.292 30.9764 754.491 Q29.4168 751.69 29.4168 747.839 Q29.4168 743.956 31.3902 741.25 Q33.3636 738.513 37.1193 737.208 Z" fill="#000000" fill-rule="evenodd" fill-opacity="1" /><path clip-path="url(#clip660)" d="M46.6361 670.973 L49.5006 670.973 L49.5006 697.9 Q55.5481 697.518 58.7309 694.271 Q61.8819 690.993 61.8819 685.168 Q61.8819 681.794 61.0544 678.643 Q60.2269 675.461 58.5718 672.341 L64.1099 672.341 Q65.4467 675.492 66.147 678.803 Q66.8472 682.113 66.8472 685.518 Q66.8472 694.048 61.8819 699.045 Q56.9167 704.011 48.4503 704.011 Q39.6974 704.011 34.5731 699.3 Q29.4168 694.558 29.4168 686.537 Q29.4168 679.344 34.0638 675.174 Q38.6789 670.973 46.6361 670.973 M44.9173 676.829 Q40.1112 676.893 37.2466 679.535 Q34.3821 682.145 34.3821 686.473 Q34.3821 691.375 37.1512 694.335 Q39.9202 697.263 44.9492 697.709 L44.9173 676.829 Z" fill="#000000" fill-rule="evenodd" fill-opacity="1" /><path clip-path="url(#clip660)" d="M16.4626 626.572 Q23.7832 630.837 30.9446 632.906 Q38.106 634.975 45.4584 634.975 Q52.8108 634.975 60.0359 632.906 Q67.2291 630.805 74.5179 626.572 L74.5179 631.664 Q67.0382 636.439 59.8131 638.826 Q52.588 641.181 45.4584 641.181 Q38.3606 641.181 31.1674 638.826 Q23.9742 636.471 16.4626 631.664 L16.4626 626.572 Z" fill="#000000" fill-rule="evenodd" fill-opacity="1" /><path clip-path="url(#clip660)" d="M31.3265 592.484 L36.8647 592.484 Q35.5916 594.966 34.955 597.64 Q34.3184 600.313 34.3184 603.178 Q34.3184 607.538 35.6552 609.735 Q36.992 611.899 39.6656 611.899 Q41.7026 611.899 42.8803 610.339 Q44.0261 608.78 45.0765 604.069 L45.5221 602.064 Q46.8589 595.826 49.3097 593.216 Q51.7286 590.574 56.0891 590.574 Q61.0544 590.574 63.9508 594.521 Q66.8472 598.435 66.8472 605.31 Q66.8472 608.175 66.2743 611.294 Q65.7332 614.382 64.6192 617.819 L58.5718 617.819 Q60.2587 614.573 61.118 611.422 Q61.9456 608.27 61.9456 605.183 Q61.9456 601.045 60.5451 598.817 Q59.1129 596.589 56.5347 596.589 Q54.1476 596.589 52.8745 598.213 Q51.6013 599.804 50.4237 605.247 L49.9462 607.284 Q48.8004 612.726 46.4451 615.145 Q44.058 617.564 39.9202 617.564 Q34.8913 617.564 32.1541 614 Q29.4168 610.435 29.4168 603.878 Q29.4168 600.632 29.8943 597.767 Q30.3717 594.902 31.3265 592.484 Z" fill="#000000" fill-rule="evenodd" fill-opacity="1" /><path clip-path="url(#clip660)" d="M16.4626 582.171 L16.4626 577.079 Q23.9742 572.304 31.1674 569.949 Q38.3606 567.562 45.4584 567.562 Q52.588 567.562 59.8131 569.949 Q67.0382 572.304 74.5179 577.079 L74.5179 582.171 Q67.2291 577.938 60.0359 575.869 Q52.8108 573.768 45.4584 573.768 Q38.106 573.768 30.9446 575.869 Q23.7832 577.938 16.4626 582.171 Z" fill="#000000" fill-rule="evenodd" fill-opacity="1" /><polyline clip-path="url(#clip662)" style="stroke:#009af9; stroke-linecap:butt; stroke-linejoin:round; stroke-width:12; stroke-opacity:1; fill:none" points="
  1403.54,1200.81 1337.21,959.467 1150.33,659.654 966.936,431.336 
  "/>
<line clip-path="url(#clip662)" x1="1403.54" y1="1200.81" x2="1403.54" y2="1184.81" style="stroke:#009af9; stroke-width:3.072; stroke-opacity:1"/>
<line clip-path="url(#clip662)" x1="1403.54" y1="1200.81" x2="1387.54" y2="1200.81" style="stroke:#009af9; stroke-width:3.072; stroke-opacity:1"/>
<line clip-path="url(#clip662)" x1="1403.54" y1="1200.81" x2="1403.54" y2="1216.81" style="stroke:#009af9; stroke-width:3.072; stroke-opacity:1"/>
<line clip-path="url(#clip662)" x1="1403.54" y1="1200.81" x2="1419.54" y2="1200.81" style="stroke:#009af9; stroke-width:3.072; stroke-opacity:1"/>
<line clip-path="url(#clip662)" x1="1337.21" y1="959.467" x2="1337.21" y2="943.467" style="stroke:#009af9; stroke-width:3.072; stroke-opacity:1"/>
<line clip-path="url(#clip662)" x1="1337.21" y1="959.467" x2="1321.21" y2="959.467" style="stroke:#009af9; stroke-width:3.072; stroke-opacity:1"/>
<line clip-path="url(#clip662)" x1="1337.21" y1="959.467" x2="1337.21" y2="975.467" style="stroke:#009af9; stroke-width:3.072; stroke-opacity:1"/>
<line clip-path="url(#clip662)" x1="1337.21" y1="959.467" x2="1353.21" y2="959.467" style="stroke:#009af9; stroke-width:3.072; stroke-opacity:1"/>
<line clip-path="url(#clip662)" x1="1150.33" y1="659.654" x2="1150.33" y2="643.654" style="stroke:#009af9; stroke-width:3.072; stroke-opacity:1"/>
<line clip-path="url(#clip662)" x1="1150.33" y1="659.654" x2="1134.33" y2="659.654" style="stroke:#009af9; stroke-width:3.072; stroke-opacity:1"/>
<line clip-path="url(#clip662)" x1="1150.33" y1="659.654" x2="1150.33" y2="675.654" style="stroke:#009af9; stroke-width:3.072; stroke-opacity:1"/>
<line clip-path="url(#clip662)" x1="1150.33" y1="659.654" x2="1166.33" y2="659.654" style="stroke:#009af9; stroke-width:3.072; stroke-opacity:1"/>
<line clip-path="url(#clip662)" x1="966.936" y1="431.336" x2="966.936" y2="415.336" style="stroke:#009af9; stroke-width:3.072; stroke-opacity:1"/>
<line clip-path="url(#clip662)" x1="966.936" y1="431.336" x2="950.936" y2="431.336" style="stroke:#009af9; stroke-width:3.072; stroke-opacity:1"/>
<line clip-path="url(#clip662)" x1="966.936" y1="431.336" x2="966.936" y2="447.336" style="stroke:#009af9; stroke-width:3.072; stroke-opacity:1"/>
<line clip-path="url(#clip662)" x1="966.936" y1="431.336" x2="982.936" y2="431.336" style="stroke:#009af9; stroke-width:3.072; stroke-opacity:1"/>
<polyline clip-path="url(#clip662)" style="stroke:#e26f46; stroke-linecap:butt; stroke-linejoin:round; stroke-width:12; stroke-opacity:1; fill:none" points="
  1688.85,705.275 1554.65,562.952 1550.69,507.005 1582.12,431.141 
  "/>
<circle clip-path="url(#clip662)" cx="1688.85" cy="705.275" r="14" fill="#e26f46" fill-rule="evenodd" fill-opacity="1" stroke="#000000" stroke-opacity="1" stroke-width="3.072"/>
<circle clip-path="url(#clip662)" cx="1554.65" cy="562.952" r="14" fill="#e26f46" fill-rule="evenodd" fill-opacity="1" stroke="#000000" stroke-opacity="1" stroke-width="3.072"/>
<circle clip-path="url(#clip662)" cx="1550.69" cy="507.005" r="14" fill="#e26f46" fill-rule="evenodd" fill-opacity="1" stroke="#000000" stroke-opacity="1" stroke-width="3.072"/>
<circle clip-path="url(#clip662)" cx="1582.12" cy="431.141" r="14" fill="#e26f46" fill-rule="evenodd" fill-opacity="1" stroke="#000000" stroke-opacity="1" stroke-width="3.072"/>
<polyline clip-path="url(#clip662)" style="stroke:#3da44d; stroke-linecap:butt; stroke-linejoin:round; stroke-width:12; stroke-opacity:1; fill:none" points="
  1550.09,565.855 1531.93,494.184 1526.65,453.939 1542.31,384.672 
  "/>
<line clip-path="url(#clip662)" x1="1550.09" y1="565.855" x2="1550.09" y2="549.855" style="stroke:#3da44d; stroke-width:3.072; stroke-opacity:1"/>
<line clip-path="url(#clip662)" x1="1550.09" y1="565.855" x2="1534.09" y2="565.855" style="stroke:#3da44d; stroke-width:3.072; stroke-opacity:1"/>
<line clip-path="url(#clip662)" x1="1550.09" y1="565.855" x2="1550.09" y2="581.855" style="stroke:#3da44d; stroke-width:3.072; stroke-opacity:1"/>
<line clip-path="url(#clip662)" x1="1550.09" y1="565.855" x2="1566.09" y2="565.855" style="stroke:#3da44d; stroke-width:3.072; stroke-opacity:1"/>
<line clip-path="url(#clip662)" x1="1531.93" y1="494.184" x2="1531.93" y2="478.184" style="stroke:#3da44d; stroke-width:3.072; stroke-opacity:1"/>
<line clip-path="url(#clip662)" x1="1531.93" y1="494.184" x2="1515.93" y2="494.184" style="stroke:#3da44d; stroke-width:3.072; stroke-opacity:1"/>
<line clip-path="url(#clip662)" x1="1531.93" y1="494.184" x2="1531.93" y2="510.184" style="stroke:#3da44d; stroke-width:3.072; stroke-opacity:1"/>
<line clip-path="url(#clip662)" x1="1531.93" y1="494.184" x2="1547.93" y2="494.184" style="stroke:#3da44d; stroke-width:3.072; stroke-opacity:1"/>
<line clip-path="url(#clip662)" x1="1526.65" y1="453.939" x2="1526.65" y2="437.939" style="stroke:#3da44d; stroke-width:3.072; stroke-opacity:1"/>
<line clip-path="url(#clip662)" x1="1526.65" y1="453.939" x2="1510.65" y2="453.939" style="stroke:#3da44d; stroke-width:3.072; stroke-opacity:1"/>
<line clip-path="url(#clip662)" x1="1526.65" y1="453.939" x2="1526.65" y2="469.939" style="stroke:#3da44d; stroke-width:3.072; stroke-opacity:1"/>
<line clip-path="url(#clip662)" x1="1526.65" y1="453.939" x2="1542.65" y2="453.939" style="stroke:#3da44d; stroke-width:3.072; stroke-opacity:1"/>
<line clip-path="url(#clip662)" x1="1542.31" y1="384.672" x2="1542.31" y2="368.672" style="stroke:#3da44d; stroke-width:3.072; stroke-opacity:1"/>
<line clip-path="url(#clip662)" x1="1542.31" y1="384.672" x2="1526.31" y2="384.672" style="stroke:#3da44d; stroke-width:3.072; stroke-opacity:1"/>
<line clip-path="url(#clip662)" x1="1542.31" y1="384.672" x2="1542.31" y2="400.672" style="stroke:#3da44d; stroke-width:3.072; stroke-opacity:1"/>
<line clip-path="url(#clip662)" x1="1542.31" y1="384.672" x2="1558.31" y2="384.672" style="stroke:#3da44d; stroke-width:3.072; stroke-opacity:1"/>
<polyline clip-path="url(#clip662)" style="stroke:#c271d2; stroke-linecap:butt; stroke-linejoin:round; stroke-width:12; stroke-opacity:1; fill:none" points="
  1721.59,1225.89 1777.81,681.979 1488.5,675.93 1776.3,560.239 
  "/>
<path clip-path="url(#clip662)" d="M1721.59 1209.89 L1705.59 1225.89 L1721.59 1241.89 L1737.59 1225.89 L1721.59 1209.89 Z" fill="#c271d2" fill-rule="evenodd" fill-opacity="1" stroke="#000000" stroke-opacity="1" stroke-width="3.072"/>
<path clip-path="url(#clip662)" d="M1777.81 665.979 L1761.81 681.979 L1777.81 697.979 L1793.81 681.979 L1777.81 665.979 Z" fill="#c271d2" fill-rule="evenodd" fill-opacity="1" stroke="#000000" stroke-opacity="1" stroke-width="3.072"/>
<path clip-path="url(#clip662)" d="M1488.5 659.93 L1472.5 675.93 L1488.5 691.93 L1504.5 675.93 L1488.5 659.93 Z" fill="#c271d2" fill-rule="evenodd" fill-opacity="1" stroke="#000000" stroke-opacity="1" stroke-width="3.072"/>
<path clip-path="url(#clip662)" d="M1776.3 544.239 L1760.3 560.239 L1776.3 576.239 L1792.3 560.239 L1776.3 544.239 Z" fill="#c271d2" fill-rule="evenodd" fill-opacity="1" stroke="#000000" stroke-opacity="1" stroke-width="3.072"/>
<polyline clip-path="url(#clip662)" style="stroke:#ac8d18; stroke-linecap:butt; stroke-linejoin:round; stroke-width:12; stroke-opacity:1; fill:none" points="
  1554.39,516.527 1318.08,565.178 1449.5,551.718 1319.05,482.831 
  "/>
<path clip-path="url(#clip662)" d="M1570.39 500.527 L1538.39 500.527 L1554.39 532.527 L1570.39 500.527 Z" fill="#ac8d18" fill-rule="evenodd" fill-opacity="1" stroke="#000000" stroke-opacity="1" stroke-width="3.072"/>
<path clip-path="url(#clip662)" d="M1334.08 549.178 L1302.08 549.178 L1318.08 581.178 L1334.08 549.178 Z" fill="#ac8d18" fill-rule="evenodd" fill-opacity="1" stroke="#000000" stroke-opacity="1" stroke-width="3.072"/>
<path clip-path="url(#clip662)" d="M1465.5 535.718 L1433.5 535.718 L1449.5 567.718 L1465.5 535.718 Z" fill="#ac8d18" fill-rule="evenodd" fill-opacity="1" stroke="#000000" stroke-opacity="1" stroke-width="3.072"/>
<path clip-path="url(#clip662)" d="M1335.05 466.831 L1303.05 466.831 L1319.05 498.831 L1335.05 466.831 Z" fill="#ac8d18" fill-rule="evenodd" fill-opacity="1" stroke="#000000" stroke-opacity="1" stroke-width="3.072"/>
<polyline clip-path="url(#clip662)" style="stroke:#00a9ad; stroke-linecap:butt; stroke-linejoin:round; stroke-width:12; stroke-opacity:1; fill:none" points="
  2201.04,967.957 1968.92,1181.12 1778.34,1310.74 1777.41,860.009 
  "/>
<path clip-path="url(#clip662)" d="M2201.04 951.957 L2188.53 957.989 L2185.44 971.525 L2194.1 982.373 L2207.98 982.373 L2216.64 971.525 L2213.55 957.989 Z" fill="#00a9ad" fill-rule="evenodd" fill-opacity="1" stroke="#000000" stroke-opacity="1" stroke-width="3.072"/>
<path clip-path="url(#clip662)" d="M1968.92 1165.12 L1956.41 1171.15 L1953.32 1184.69 L1961.98 1195.54 L1975.87 1195.54 L1984.52 1184.69 L1981.43 1171.15 Z" fill="#00a9ad" fill-rule="evenodd" fill-opacity="1" stroke="#000000" stroke-opacity="1" stroke-width="3.072"/>
<path clip-path="url(#clip662)" d="M1778.34 1294.74 L1765.82 1300.77 L1762.74 1314.3 L1771.39 1325.15 L1785.28 1325.15 L1793.94 1314.3 L1790.85 1300.77 Z" fill="#00a9ad" fill-rule="evenodd" fill-opacity="1" stroke="#000000" stroke-opacity="1" stroke-width="3.072"/>
<path clip-path="url(#clip662)" d="M1777.41 844.009 L1764.9 850.041 L1761.81 863.577 L1770.47 874.425 L1784.36 874.425 L1793.01 863.577 L1789.92 850.041 Z" fill="#00a9ad" fill-rule="evenodd" fill-opacity="1" stroke="#000000" stroke-opacity="1" stroke-width="3.072"/>
<polyline clip-path="url(#clip662)" style="stroke:#ed5d92; stroke-linecap:butt; stroke-linejoin:round; stroke-width:12; stroke-opacity:1; fill:none" points="
  1056.96,340.575 952.201,295.825 343.874,217.286 367.793,84.0448 
  "/>
<path clip-path="url(#clip662)" d="M1056.96 356.575 L1043.1 348.575 L1043.1 332.575 L1056.96 324.575 L1070.81 332.575 L1070.81 348.575 Z" fill="#ed5d92" fill-rule="evenodd" fill-opacity="1" stroke="#000000" stroke-opacity="1" stroke-width="3.072"/>
<path clip-path="url(#clip662)" d="M952.201 311.825 L938.345 303.825 L938.345 287.825 L952.201 279.825 L966.057 287.825 L966.057 303.825 Z" fill="#ed5d92" fill-rule="evenodd" fill-opacity="1" stroke="#000000" stroke-opacity="1" stroke-width="3.072"/>
<path clip-path="url(#clip662)" d="M343.874 233.286 L330.018 225.286 L330.018 209.286 L343.874 201.286 L357.73 209.286 L357.73 225.286 Z" fill="#ed5d92" fill-rule="evenodd" fill-opacity="1" stroke="#000000" stroke-opacity="1" stroke-width="3.072"/>
<path clip-path="url(#clip662)" d="M367.793 100.045 L353.937 92.0448 L353.937 76.0448 L367.793 68.0448 L381.649 76.0448 L381.649 92.0448 Z" fill="#ed5d92" fill-rule="evenodd" fill-opacity="1" stroke="#000000" stroke-opacity="1" stroke-width="3.072"/>
<path clip-path="url(#clip660)" d="
M1645.74 505.307 L2191.14 505.307 L2191.14 90.5872 L1645.74 90.5872  Z
  " fill="#ffffff" fill-rule="evenodd" fill-opacity="1"/>
<polyline clip-path="url(#clip660)" style="stroke:#000000; stroke-linecap:butt; stroke-linejoin:round; stroke-width:4; stroke-opacity:1; fill:none" points="
  1645.74,505.307 2191.14,505.307 2191.14,90.5872 1645.74,90.5872 1645.74,505.307 
  "/>
<polyline clip-path="url(#clip660)" style="stroke:#009af9; stroke-linecap:butt; stroke-linejoin:round; stroke-width:4; stroke-opacity:1; fill:none" points="
  1667.61,142.427 1798.85,142.427 
  "/>
<line clip-path="url(#clip660)" x1="1733.23" y1="142.427" x2="1733.23" y2="116.827" style="stroke:#009af9; stroke-width:4.9152; stroke-opacity:1"/>
<line clip-path="url(#clip660)" x1="1733.23" y1="142.427" x2="1707.63" y2="142.427" style="stroke:#009af9; stroke-width:4.9152; stroke-opacity:1"/>
<line clip-path="url(#clip660)" x1="1733.23" y1="142.427" x2="1733.23" y2="168.027" style="stroke:#009af9; stroke-width:4.9152; stroke-opacity:1"/>
<line clip-path="url(#clip660)" x1="1733.23" y1="142.427" x2="1758.83" y2="142.427" style="stroke:#009af9; stroke-width:4.9152; stroke-opacity:1"/>
<path clip-path="url(#clip660)" d="M1837.11 143.504 Q1838.62 144.013 1840.03 145.679 Q1841.47 147.346 1842.9 150.263 L1847.65 159.707 L1842.62 159.707 L1838.2 150.841 Q1836.49 147.369 1834.87 146.235 Q1833.27 145.101 1830.49 145.101 L1825.4 145.101 L1825.4 159.707 L1820.72 159.707 L1820.72 125.147 L1831.28 125.147 Q1837.21 125.147 1840.12 127.624 Q1843.04 130.101 1843.04 135.101 Q1843.04 138.365 1841.51 140.517 Q1840.01 142.67 1837.11 143.504 M1825.4 128.99 L1825.4 141.258 L1831.28 141.258 Q1834.66 141.258 1836.37 139.707 Q1838.11 138.133 1838.11 135.101 Q1838.11 132.068 1836.37 130.541 Q1834.66 128.99 1831.28 128.99 L1825.4 128.99 Z" fill="#000000" fill-rule="evenodd" fill-opacity="1" /><path clip-path="url(#clip660)" d="M1861.4 136.767 Q1857.97 136.767 1855.98 139.453 Q1853.99 142.115 1853.99 146.767 Q1853.99 151.42 1855.96 154.105 Q1857.95 156.767 1861.4 156.767 Q1864.8 156.767 1866.79 154.082 Q1868.78 151.397 1868.78 146.767 Q1868.78 142.161 1866.79 139.476 Q1864.8 136.767 1861.4 136.767 M1861.4 133.156 Q1866.95 133.156 1870.12 136.767 Q1873.29 140.379 1873.29 146.767 Q1873.29 153.133 1870.12 156.767 Q1866.95 160.378 1861.4 160.378 Q1855.82 160.378 1852.65 156.767 Q1849.5 153.133 1849.5 146.767 Q1849.5 140.379 1852.65 136.767 Q1855.82 133.156 1861.4 133.156 Z" fill="#000000" fill-rule="evenodd" fill-opacity="1" /><path clip-path="url(#clip660)" d="M1896.88 134.545 L1896.88 138.573 Q1895.08 137.647 1893.13 137.184 Q1891.19 136.721 1889.1 136.721 Q1885.93 136.721 1884.34 137.693 Q1882.76 138.666 1882.76 140.61 Q1882.76 142.092 1883.9 142.948 Q1885.03 143.781 1888.46 144.545 L1889.91 144.869 Q1894.45 145.842 1896.35 147.624 Q1898.27 149.383 1898.27 152.554 Q1898.27 156.166 1895.4 158.272 Q1892.55 160.378 1887.55 160.378 Q1885.47 160.378 1883.2 159.962 Q1880.96 159.568 1878.46 158.758 L1878.46 154.36 Q1880.82 155.587 1883.11 156.212 Q1885.4 156.814 1887.65 156.814 Q1890.65 156.814 1892.28 155.795 Q1893.9 154.754 1893.9 152.879 Q1893.9 151.142 1892.71 150.216 Q1891.56 149.291 1887.6 148.434 L1886.12 148.087 Q1882.16 147.254 1880.4 145.541 Q1878.64 143.804 1878.64 140.795 Q1878.64 137.138 1881.23 135.147 Q1883.83 133.156 1888.59 133.156 Q1890.96 133.156 1893.04 133.504 Q1895.12 133.851 1896.88 134.545 Z" fill="#000000" fill-rule="evenodd" fill-opacity="1" /><path clip-path="url(#clip660)" d="M1927.23 145.679 L1927.23 147.763 L1907.65 147.763 Q1907.92 152.161 1910.28 154.476 Q1912.67 156.767 1916.9 156.767 Q1919.36 156.767 1921.65 156.166 Q1923.96 155.564 1926.23 154.36 L1926.23 158.388 Q1923.94 159.36 1921.53 159.869 Q1919.13 160.378 1916.65 160.378 Q1910.45 160.378 1906.81 156.767 Q1903.2 153.156 1903.2 146.999 Q1903.2 140.633 1906.63 136.906 Q1910.08 133.156 1915.91 133.156 Q1921.14 133.156 1924.17 136.536 Q1927.23 139.892 1927.23 145.679 M1922.97 144.429 Q1922.92 140.934 1921 138.851 Q1919.1 136.767 1915.96 136.767 Q1912.39 136.767 1910.24 138.781 Q1908.11 140.795 1907.78 144.453 L1922.97 144.429 Z" fill="#000000" fill-rule="evenodd" fill-opacity="1" /><path clip-path="url(#clip660)" d="M1955.77 144.059 L1955.77 159.707 L1951.51 159.707 L1951.51 144.198 Q1951.51 140.517 1950.08 138.689 Q1948.64 136.86 1945.77 136.86 Q1942.32 136.86 1940.33 139.059 Q1938.34 141.258 1938.34 145.054 L1938.34 159.707 L1934.06 159.707 L1934.06 133.781 L1938.34 133.781 L1938.34 137.809 Q1939.87 135.471 1941.93 134.314 Q1944.01 133.156 1946.72 133.156 Q1951.19 133.156 1953.48 135.934 Q1955.77 138.689 1955.77 144.059 Z" fill="#000000" fill-rule="evenodd" fill-opacity="1" /><path clip-path="url(#clip660)" d="M1982.88 146.767 Q1982.88 142.068 1980.93 139.406 Q1979.01 136.721 1975.63 136.721 Q1972.25 136.721 1970.31 139.406 Q1968.39 142.068 1968.39 146.767 Q1968.39 151.466 1970.31 154.152 Q1972.25 156.814 1975.63 156.814 Q1979.01 156.814 1980.93 154.152 Q1982.88 151.466 1982.88 146.767 M1968.39 137.717 Q1969.73 135.402 1971.77 134.291 Q1973.83 133.156 1976.67 133.156 Q1981.39 133.156 1984.33 136.906 Q1987.3 140.656 1987.3 146.767 Q1987.3 152.879 1984.33 156.628 Q1981.39 160.378 1976.67 160.378 Q1973.83 160.378 1971.77 159.267 Q1969.73 158.133 1968.39 155.818 L1968.39 159.707 L1964.1 159.707 L1964.1 123.689 L1968.39 123.689 L1968.39 137.717 Z" fill="#000000" fill-rule="evenodd" fill-opacity="1" /><path clip-path="url(#clip660)" d="M2009.38 137.763 Q2008.66 137.346 2007.81 137.161 Q2006.97 136.953 2005.96 136.953 Q2002.34 136.953 2000.4 139.314 Q1998.48 141.652 1998.48 146.05 L1998.48 159.707 L1994.2 159.707 L1994.2 133.781 L1998.48 133.781 L1998.48 137.809 Q1999.82 135.448 2001.97 134.314 Q2004.13 133.156 2007.2 133.156 Q2007.64 133.156 2008.18 133.226 Q2008.71 133.272 2009.36 133.388 L2009.38 137.763 Z" fill="#000000" fill-rule="evenodd" fill-opacity="1" /><path clip-path="url(#clip660)" d="M2022.85 136.767 Q2019.43 136.767 2017.44 139.453 Q2015.45 142.115 2015.45 146.767 Q2015.45 151.42 2017.41 154.105 Q2019.4 156.767 2022.85 156.767 Q2026.26 156.767 2028.25 154.082 Q2030.24 151.397 2030.24 146.767 Q2030.24 142.161 2028.25 139.476 Q2026.26 136.767 2022.85 136.767 M2022.85 133.156 Q2028.41 133.156 2031.58 136.767 Q2034.75 140.379 2034.75 146.767 Q2034.75 153.133 2031.58 156.767 Q2028.41 160.378 2022.85 160.378 Q2017.27 160.378 2014.1 156.767 Q2010.95 153.133 2010.95 146.767 Q2010.95 140.379 2014.1 136.767 Q2017.27 133.156 2022.85 133.156 Z" fill="#000000" fill-rule="evenodd" fill-opacity="1" /><path clip-path="url(#clip660)" d="M2060.47 134.777 L2060.47 138.758 Q2058.66 137.763 2056.83 137.277 Q2055.03 136.767 2053.18 136.767 Q2049.03 136.767 2046.74 139.406 Q2044.45 142.022 2044.45 146.767 Q2044.45 151.513 2046.74 154.152 Q2049.03 156.767 2053.18 156.767 Q2055.03 156.767 2056.83 156.281 Q2058.66 155.772 2060.47 154.777 L2060.47 158.712 Q2058.69 159.545 2056.76 159.962 Q2054.87 160.378 2052.71 160.378 Q2046.86 160.378 2043.41 156.698 Q2039.96 153.017 2039.96 146.767 Q2039.96 140.425 2043.43 136.791 Q2046.93 133.156 2052.99 133.156 Q2054.96 133.156 2056.83 133.573 Q2058.71 133.967 2060.47 134.777 Z" fill="#000000" fill-rule="evenodd" fill-opacity="1" /><path clip-path="url(#clip660)" d="M2067.71 123.689 L2072 123.689 L2072 144.962 L2084.7 133.781 L2090.14 133.781 L2076.39 145.911 L2090.72 159.707 L2085.17 159.707 L2072 147.045 L2072 159.707 L2067.71 159.707 L2067.71 123.689 Z" fill="#000000" fill-rule="evenodd" fill-opacity="1" /><path clip-path="url(#clip660)" d="M2099.96 155.772 L2116.28 155.772 L2116.28 159.707 L2094.33 159.707 L2094.33 155.772 Q2097 153.017 2101.58 148.388 Q2106.19 143.735 2107.37 142.392 Q2109.61 139.869 2110.49 138.133 Q2111.39 136.374 2111.39 134.684 Q2111.39 131.93 2109.45 130.193 Q2107.53 128.457 2104.43 128.457 Q2102.23 128.457 2099.77 129.221 Q2097.34 129.985 2094.57 131.536 L2094.57 126.814 Q2097.39 125.68 2099.84 125.101 Q2102.3 124.522 2104.33 124.522 Q2109.7 124.522 2112.9 127.207 Q2116.09 129.893 2116.09 134.383 Q2116.09 136.513 2115.28 138.434 Q2114.5 140.332 2112.39 142.925 Q2111.81 143.596 2108.71 146.814 Q2105.61 150.008 2099.96 155.772 Z" fill="#000000" fill-rule="evenodd" fill-opacity="1" /><path clip-path="url(#clip660)" d="M2140.26 141.073 Q2143.62 141.791 2145.49 144.059 Q2147.39 146.328 2147.39 149.661 Q2147.39 154.777 2143.87 157.578 Q2140.35 160.378 2133.87 160.378 Q2131.7 160.378 2129.38 159.939 Q2127.09 159.522 2124.63 158.666 L2124.63 154.152 Q2126.58 155.286 2128.89 155.865 Q2131.21 156.443 2133.73 156.443 Q2138.13 156.443 2140.42 154.707 Q2142.74 152.971 2142.74 149.661 Q2142.74 146.605 2140.58 144.892 Q2138.45 143.156 2134.63 143.156 L2130.61 143.156 L2130.61 139.314 L2134.82 139.314 Q2138.27 139.314 2140.1 137.948 Q2141.93 136.559 2141.93 133.967 Q2141.93 131.305 2140.03 129.893 Q2138.15 128.457 2134.63 128.457 Q2132.71 128.457 2130.51 128.874 Q2128.32 129.291 2125.68 130.17 L2125.68 126.004 Q2128.34 125.263 2130.65 124.893 Q2132.99 124.522 2135.05 124.522 Q2140.38 124.522 2143.48 126.953 Q2146.58 129.36 2146.58 133.48 Q2146.58 136.351 2144.94 138.342 Q2143.29 140.309 2140.26 141.073 Z" fill="#000000" fill-rule="evenodd" fill-opacity="1" /><polyline clip-path="url(#clip660)" style="stroke:#e26f46; stroke-linecap:butt; stroke-linejoin:round; stroke-width:4; stroke-opacity:1; fill:none" points="
  1667.61,194.267 1798.85,194.267 
  "/>
<circle clip-path="url(#clip660)" cx="1733.23" cy="194.267" r="23" fill="#e26f46" fill-rule="evenodd" fill-opacity="1" stroke="#000000" stroke-opacity="1" stroke-width="4.9152"/>
<path clip-path="url(#clip660)" d="M1820.72 176.987 L1825.4 176.987 L1825.4 191.594 L1840.91 176.987 L1846.93 176.987 L1829.78 193.098 L1848.15 211.547 L1842 211.547 L1825.4 194.904 L1825.4 211.547 L1820.72 211.547 L1820.72 176.987 Z" fill="#000000" fill-rule="evenodd" fill-opacity="1" /><path clip-path="url(#clip660)" d="M1848.57 185.621 L1853.09 185.621 L1861.19 207.381 L1869.29 185.621 L1873.8 185.621 L1864.08 211.547 L1858.29 211.547 L1848.57 185.621 Z" fill="#000000" fill-rule="evenodd" fill-opacity="1" /><path clip-path="url(#clip660)" d="M1891.46 198.515 Q1886.3 198.515 1884.31 199.695 Q1882.32 200.876 1882.32 203.723 Q1882.32 205.992 1883.8 207.334 Q1885.31 208.654 1887.88 208.654 Q1891.42 208.654 1893.55 206.154 Q1895.7 203.631 1895.7 199.464 L1895.7 198.515 L1891.46 198.515 M1899.96 196.756 L1899.96 211.547 L1895.7 211.547 L1895.7 207.612 Q1894.24 209.973 1892.07 211.107 Q1889.89 212.218 1886.74 212.218 Q1882.76 212.218 1880.4 209.996 Q1878.06 207.751 1878.06 204.001 Q1878.06 199.626 1880.98 197.404 Q1883.92 195.182 1889.73 195.182 L1895.7 195.182 L1895.7 194.765 Q1895.7 191.825 1893.76 190.228 Q1891.84 188.607 1888.34 188.607 Q1886.12 188.607 1884.01 189.14 Q1881.9 189.672 1879.96 190.737 L1879.96 186.802 Q1882.3 185.899 1884.5 185.459 Q1886.7 184.996 1888.78 184.996 Q1894.4 184.996 1897.18 187.913 Q1899.96 190.83 1899.96 196.756 Z" fill="#000000" fill-rule="evenodd" fill-opacity="1" /><path clip-path="url(#clip660)" d="M1930.91 197.519 L1930.91 199.603 L1911.33 199.603 Q1911.6 204.001 1913.96 206.316 Q1916.35 208.607 1920.59 208.607 Q1923.04 208.607 1925.33 208.006 Q1927.65 207.404 1929.91 206.2 L1929.91 210.228 Q1927.62 211.2 1925.21 211.709 Q1922.81 212.218 1920.33 212.218 Q1914.13 212.218 1910.49 208.607 Q1906.88 204.996 1906.88 198.839 Q1906.88 192.473 1910.31 188.746 Q1913.76 184.996 1919.59 184.996 Q1924.82 184.996 1927.85 188.376 Q1930.91 191.732 1930.91 197.519 M1926.65 196.269 Q1926.6 192.774 1924.68 190.691 Q1922.78 188.607 1919.64 188.607 Q1916.07 188.607 1913.92 190.621 Q1911.79 192.635 1911.46 196.293 L1926.65 196.269 Z" fill="#000000" fill-rule="evenodd" fill-opacity="1" /><path clip-path="url(#clip660)" d="M1952.92 189.603 Q1952.21 189.186 1951.35 189.001 Q1950.52 188.793 1949.5 188.793 Q1945.89 188.793 1943.94 191.154 Q1942.02 193.492 1942.02 197.89 L1942.02 211.547 L1937.74 211.547 L1937.74 185.621 L1942.02 185.621 L1942.02 189.649 Q1943.36 187.288 1945.52 186.154 Q1947.67 184.996 1950.75 184.996 Q1951.19 184.996 1951.72 185.066 Q1952.25 185.112 1952.9 185.228 L1952.92 189.603 Z" fill="#000000" fill-rule="evenodd" fill-opacity="1" /><path clip-path="url(#clip660)" d="M1978.11 195.899 L1978.11 211.547 L1973.85 211.547 L1973.85 196.038 Q1973.85 192.357 1972.41 190.529 Q1970.98 188.7 1968.11 188.7 Q1964.66 188.7 1962.67 190.899 Q1960.68 193.098 1960.68 196.894 L1960.68 211.547 L1956.4 211.547 L1956.4 185.621 L1960.68 185.621 L1960.68 189.649 Q1962.21 187.311 1964.27 186.154 Q1966.35 184.996 1969.06 184.996 Q1973.52 184.996 1975.82 187.774 Q1978.11 190.529 1978.11 195.899 Z" fill="#000000" fill-rule="evenodd" fill-opacity="1" /><path clip-path="url(#clip660)" d="M1996.65 188.607 Q1993.22 188.607 1991.23 191.293 Q1989.24 193.955 1989.24 198.607 Q1989.24 203.26 1991.21 205.945 Q1993.2 208.607 1996.65 208.607 Q2000.05 208.607 2002.04 205.922 Q2004.03 203.237 2004.03 198.607 Q2004.03 194.001 2002.04 191.316 Q2000.05 188.607 1996.65 188.607 M1996.65 184.996 Q2002.21 184.996 2005.38 188.607 Q2008.55 192.219 2008.55 198.607 Q2008.55 204.973 2005.38 208.607 Q2002.21 212.218 1996.65 212.218 Q1991.07 212.218 1987.9 208.607 Q1984.75 204.973 1984.75 198.607 Q1984.75 192.219 1987.9 188.607 Q1991.07 184.996 1996.65 184.996 Z" fill="#000000" fill-rule="evenodd" fill-opacity="1" /><path clip-path="url(#clip660)" d="M2030.38 192.913 Q2033.73 193.631 2035.61 195.899 Q2037.51 198.168 2037.51 201.501 Q2037.51 206.617 2033.99 209.418 Q2030.47 212.218 2023.99 212.218 Q2021.81 212.218 2019.5 211.779 Q2017.2 211.362 2014.75 210.506 L2014.75 205.992 Q2016.7 207.126 2019.01 207.705 Q2021.33 208.283 2023.85 208.283 Q2028.25 208.283 2030.54 206.547 Q2032.85 204.811 2032.85 201.501 Q2032.85 198.445 2030.7 196.732 Q2028.57 194.996 2024.75 194.996 L2020.72 194.996 L2020.72 191.154 L2024.94 191.154 Q2028.39 191.154 2030.21 189.788 Q2032.04 188.399 2032.04 185.807 Q2032.04 183.145 2030.14 181.733 Q2028.27 180.297 2024.75 180.297 Q2022.83 180.297 2020.63 180.714 Q2018.43 181.131 2015.79 182.01 L2015.79 177.844 Q2018.45 177.103 2020.77 176.733 Q2023.11 176.362 2025.17 176.362 Q2030.49 176.362 2033.59 178.793 Q2036.7 181.2 2036.7 185.32 Q2036.7 188.191 2035.05 190.182 Q2033.41 192.149 2030.38 192.913 Z" fill="#000000" fill-rule="evenodd" fill-opacity="1" /><polyline clip-path="url(#clip660)" style="stroke:#3da44d; stroke-linecap:butt; stroke-linejoin:round; stroke-width:4; stroke-opacity:1; fill:none" points="
  1667.61,246.107 1798.85,246.107 
  "/>
<line clip-path="url(#clip660)" x1="1733.23" y1="246.107" x2="1733.23" y2="220.507" style="stroke:#3da44d; stroke-width:4.9152; stroke-opacity:1"/>
<line clip-path="url(#clip660)" x1="1733.23" y1="246.107" x2="1707.63" y2="246.107" style="stroke:#3da44d; stroke-width:4.9152; stroke-opacity:1"/>
<line clip-path="url(#clip660)" x1="1733.23" y1="246.107" x2="1733.23" y2="271.707" style="stroke:#3da44d; stroke-width:4.9152; stroke-opacity:1"/>
<line clip-path="url(#clip660)" x1="1733.23" y1="246.107" x2="1758.83" y2="246.107" style="stroke:#3da44d; stroke-width:4.9152; stroke-opacity:1"/>
<path clip-path="url(#clip660)" d="M1820.72 228.827 L1825.4 228.827 L1825.4 243.434 L1840.91 228.827 L1846.93 228.827 L1829.78 244.938 L1848.15 263.387 L1842 263.387 L1825.4 246.744 L1825.4 263.387 L1820.72 263.387 L1820.72 228.827 Z" fill="#000000" fill-rule="evenodd" fill-opacity="1" /><path clip-path="url(#clip660)" d="M1871.44 249.359 L1871.44 251.443 L1851.86 251.443 Q1852.14 255.841 1854.5 258.156 Q1856.88 260.447 1861.12 260.447 Q1863.57 260.447 1865.86 259.846 Q1868.18 259.244 1870.45 258.04 L1870.45 262.068 Q1868.15 263.04 1865.75 263.549 Q1863.34 264.058 1860.86 264.058 Q1854.66 264.058 1851.03 260.447 Q1847.41 256.836 1847.41 250.679 Q1847.41 244.313 1850.84 240.586 Q1854.29 236.836 1860.12 236.836 Q1865.35 236.836 1868.39 240.216 Q1871.44 243.572 1871.44 249.359 M1867.18 248.109 Q1867.14 244.614 1865.22 242.531 Q1863.32 240.447 1860.17 240.447 Q1856.6 240.447 1854.45 242.461 Q1852.32 244.475 1852 248.133 L1867.18 248.109 Z" fill="#000000" fill-rule="evenodd" fill-opacity="1" /><path clip-path="url(#clip660)" d="M1899.98 247.739 L1899.98 263.387 L1895.72 263.387 L1895.72 247.878 Q1895.72 244.197 1894.29 242.369 Q1892.85 240.54 1889.98 240.54 Q1886.53 240.54 1884.54 242.739 Q1882.55 244.938 1882.55 248.734 L1882.55 263.387 L1878.27 263.387 L1878.27 237.461 L1882.55 237.461 L1882.55 241.489 Q1884.08 239.151 1886.14 237.994 Q1888.22 236.836 1890.93 236.836 Q1895.4 236.836 1897.69 239.614 Q1899.98 242.369 1899.98 247.739 Z" fill="#000000" fill-rule="evenodd" fill-opacity="1" /><path clip-path="url(#clip660)" d="M1934.54 231.489 L1934.54 236.42 Q1932.18 234.221 1929.5 233.133 Q1926.84 232.045 1923.83 232.045 Q1917.9 232.045 1914.75 235.679 Q1911.6 239.29 1911.6 246.142 Q1911.6 252.971 1914.75 256.605 Q1917.9 260.216 1923.83 260.216 Q1926.84 260.216 1929.5 259.128 Q1932.18 258.04 1934.54 255.841 L1934.54 260.725 Q1932.09 262.392 1929.34 263.225 Q1926.6 264.058 1923.55 264.058 Q1915.7 264.058 1911.19 259.267 Q1906.67 254.452 1906.67 246.142 Q1906.67 237.809 1911.19 233.017 Q1915.7 228.202 1923.55 228.202 Q1926.65 228.202 1929.38 229.036 Q1932.14 229.846 1934.54 231.489 Z" fill="#000000" fill-rule="evenodd" fill-opacity="1" /><path clip-path="url(#clip660)" d="M1953.36 250.355 Q1948.2 250.355 1946.21 251.535 Q1944.22 252.716 1944.22 255.563 Q1944.22 257.832 1945.7 259.174 Q1947.21 260.494 1949.77 260.494 Q1953.32 260.494 1955.45 257.994 Q1957.6 255.471 1957.6 251.304 L1957.6 250.355 L1953.36 250.355 M1961.86 248.596 L1961.86 263.387 L1957.6 263.387 L1957.6 259.452 Q1956.14 261.813 1953.96 262.947 Q1951.79 264.058 1948.64 264.058 Q1944.66 264.058 1942.3 261.836 Q1939.96 259.591 1939.96 255.841 Q1939.96 251.466 1942.88 249.244 Q1945.82 247.022 1951.63 247.022 L1957.6 247.022 L1957.6 246.605 Q1957.6 243.665 1955.65 242.068 Q1953.73 240.447 1950.24 240.447 Q1948.02 240.447 1945.91 240.98 Q1943.8 241.512 1941.86 242.577 L1941.86 238.642 Q1944.2 237.739 1946.4 237.299 Q1948.59 236.836 1950.68 236.836 Q1956.3 236.836 1959.08 239.753 Q1961.86 242.67 1961.86 248.596 Z" fill="#000000" fill-rule="evenodd" fill-opacity="1" /><path clip-path="url(#clip660)" d="M1985.65 241.443 Q1984.94 241.026 1984.08 240.841 Q1983.25 240.633 1982.23 240.633 Q1978.62 240.633 1976.67 242.994 Q1974.75 245.332 1974.75 249.73 L1974.75 263.387 L1970.47 263.387 L1970.47 237.461 L1974.75 237.461 L1974.75 241.489 Q1976.09 239.128 1978.25 237.994 Q1980.4 236.836 1983.48 236.836 Q1983.92 236.836 1984.45 236.906 Q1984.98 236.952 1985.63 237.068 L1985.65 241.443 Z" fill="#000000" fill-rule="evenodd" fill-opacity="1" /><path clip-path="url(#clip660)" d="M1994.24 259.498 L1994.24 273.248 L1989.96 273.248 L1989.96 237.461 L1994.24 237.461 L1994.24 241.397 Q1995.58 239.082 1997.62 237.971 Q1999.68 236.836 2002.53 236.836 Q2007.25 236.836 2010.19 240.586 Q2013.15 244.336 2013.15 250.447 Q2013.15 256.559 2010.19 260.308 Q2007.25 264.058 2002.53 264.058 Q1999.68 264.058 1997.62 262.947 Q1995.58 261.813 1994.24 259.498 M2008.73 250.447 Q2008.73 245.748 2006.79 243.086 Q2004.87 240.401 2001.49 240.401 Q1998.11 240.401 1996.16 243.086 Q1994.24 245.748 1994.24 250.447 Q1994.24 255.146 1996.16 257.832 Q1998.11 260.494 2001.49 260.494 Q2004.87 260.494 2006.79 257.832 Q2008.73 255.146 2008.73 250.447 Z" fill="#000000" fill-rule="evenodd" fill-opacity="1" /><path clip-path="url(#clip660)" d="M2033.66 232.901 L2021.86 251.35 L2033.66 251.35 L2033.66 232.901 M2032.44 228.827 L2038.32 228.827 L2038.32 251.35 L2043.25 251.35 L2043.25 255.239 L2038.32 255.239 L2038.32 263.387 L2033.66 263.387 L2033.66 255.239 L2018.06 255.239 L2018.06 250.725 L2032.44 228.827 Z" fill="#000000" fill-rule="evenodd" fill-opacity="1" /><polyline clip-path="url(#clip660)" style="stroke:#c271d2; stroke-linecap:butt; stroke-linejoin:round; stroke-width:4; stroke-opacity:1; fill:none" points="
  1667.61,297.947 1798.85,297.947 
  "/>
<path clip-path="url(#clip660)" d="M1733.23 272.347 L1707.63 297.947 L1733.23 323.547 L1758.83 297.947 L1733.23 272.347 Z" fill="#c271d2" fill-rule="evenodd" fill-opacity="1" stroke="#000000" stroke-opacity="1" stroke-width="4.9152"/>
<path clip-path="url(#clip660)" d="M1820.72 280.667 L1849.96 280.667 L1849.96 284.602 L1837.69 284.602 L1837.69 315.227 L1832.99 315.227 L1832.99 284.602 L1820.72 284.602 L1820.72 280.667 Z" fill="#000000" fill-rule="evenodd" fill-opacity="1" /><path clip-path="url(#clip660)" d="M1870.86 299.024 Q1872.37 299.533 1873.78 301.199 Q1875.21 302.866 1876.65 305.783 L1881.4 315.227 L1876.37 315.227 L1871.95 306.361 Q1870.24 302.889 1868.62 301.755 Q1867.02 300.621 1864.24 300.621 L1859.15 300.621 L1859.15 315.227 L1854.47 315.227 L1854.47 280.667 L1865.03 280.667 Q1870.96 280.667 1873.87 283.144 Q1876.79 285.621 1876.79 290.621 Q1876.79 293.885 1875.26 296.037 Q1873.76 298.19 1870.86 299.024 M1859.15 284.51 L1859.15 296.778 L1865.03 296.778 Q1868.41 296.778 1870.12 295.227 Q1871.86 293.653 1871.86 290.621 Q1871.86 287.588 1870.12 286.061 Q1868.41 284.51 1865.03 284.51 L1859.15 284.51 Z" fill="#000000" fill-rule="evenodd" fill-opacity="1" /><path clip-path="url(#clip660)" d="M1892.09 298.723 L1892.09 311.385 L1899.59 311.385 Q1903.36 311.385 1905.17 309.834 Q1907 308.26 1907 305.042 Q1907 301.801 1905.17 300.274 Q1903.36 298.723 1899.59 298.723 L1892.09 298.723 M1892.09 284.51 L1892.09 294.926 L1899.01 294.926 Q1902.44 294.926 1904.1 293.653 Q1905.79 292.357 1905.79 289.718 Q1905.79 287.102 1904.1 285.806 Q1902.44 284.51 1899.01 284.51 L1892.09 284.51 M1887.41 280.667 L1899.36 280.667 Q1904.71 280.667 1907.6 282.889 Q1910.49 285.112 1910.49 289.209 Q1910.49 292.38 1909.01 294.255 Q1907.53 296.13 1904.66 296.593 Q1908.11 297.334 1910.01 299.695 Q1911.93 302.033 1911.93 305.551 Q1911.93 310.181 1908.78 312.704 Q1905.63 315.227 1899.82 315.227 L1887.41 315.227 L1887.41 280.667 Z" fill="#000000" fill-rule="evenodd" fill-opacity="1" /><path clip-path="url(#clip660)" d="M1924.61 284.51 L1924.61 311.385 L1930.26 311.385 Q1937.41 311.385 1940.72 308.144 Q1944.06 304.903 1944.06 297.912 Q1944.06 290.968 1940.72 287.75 Q1937.41 284.51 1930.26 284.51 L1924.61 284.51 M1919.94 280.667 L1929.54 280.667 Q1939.59 280.667 1944.29 284.857 Q1948.99 289.024 1948.99 297.912 Q1948.99 306.848 1944.27 311.037 Q1939.54 315.227 1929.54 315.227 L1919.94 315.227 L1919.94 280.667 Z" fill="#000000" fill-rule="evenodd" fill-opacity="1" /><path clip-path="url(#clip660)" d="M1956.44 280.667 L1976.3 280.667 L1976.3 284.602 L1961.12 284.602 L1961.12 294.787 L1974.82 294.787 L1974.82 298.723 L1961.12 298.723 L1961.12 315.227 L1956.44 315.227 L1956.44 280.667 Z" fill="#000000" fill-rule="evenodd" fill-opacity="1" /><path clip-path="url(#clip660)" d="M1988.15 311.292 L2004.47 311.292 L2004.47 315.227 L1982.53 315.227 L1982.53 311.292 Q1985.19 308.537 1989.77 303.908 Q1994.38 299.255 1995.56 297.912 Q1997.81 295.389 1998.69 293.653 Q1999.59 291.894 1999.59 290.204 Q1999.59 287.45 1997.64 285.713 Q1995.72 283.977 1992.62 283.977 Q1990.42 283.977 1987.97 284.741 Q1985.54 285.505 1982.76 287.056 L1982.76 282.334 Q1985.58 281.2 1988.04 280.621 Q1990.49 280.042 1992.53 280.042 Q1997.9 280.042 2001.09 282.727 Q2004.29 285.413 2004.29 289.903 Q2004.29 292.033 2003.48 293.954 Q2002.69 295.852 2000.58 298.445 Q2000.01 299.116 1996.9 302.334 Q1993.8 305.528 1988.15 311.292 Z" fill="#000000" fill-rule="evenodd" fill-opacity="1" /><polyline clip-path="url(#clip660)" style="stroke:#ac8d18; stroke-linecap:butt; stroke-linejoin:round; stroke-width:4; stroke-opacity:1; fill:none" points="
  1667.61,349.787 1798.85,349.787 
  "/>
<path clip-path="url(#clip660)" d="M1758.83 324.187 L1707.63 324.187 L1733.23 375.387 L1758.83 324.187 Z" fill="#ac8d18" fill-rule="evenodd" fill-opacity="1" stroke="#000000" stroke-opacity="1" stroke-width="4.9152"/>
<path clip-path="url(#clip660)" d="M1820.72 332.507 L1825.4 332.507 L1825.4 347.114 L1840.91 332.507 L1846.93 332.507 L1829.78 348.618 L1848.15 367.067 L1842 367.067 L1825.4 350.424 L1825.4 367.067 L1820.72 367.067 L1820.72 332.507 Z" fill="#000000" fill-rule="evenodd" fill-opacity="1" /><path clip-path="url(#clip660)" d="M1871.44 353.039 L1871.44 355.123 L1851.86 355.123 Q1852.14 359.521 1854.5 361.836 Q1856.88 364.127 1861.12 364.127 Q1863.57 364.127 1865.86 363.526 Q1868.18 362.924 1870.45 361.72 L1870.45 365.748 Q1868.15 366.72 1865.75 367.229 Q1863.34 367.738 1860.86 367.738 Q1854.66 367.738 1851.03 364.127 Q1847.41 360.516 1847.41 354.359 Q1847.41 347.993 1850.84 344.266 Q1854.29 340.516 1860.12 340.516 Q1865.35 340.516 1868.39 343.896 Q1871.44 347.252 1871.44 353.039 M1867.18 351.789 Q1867.14 348.294 1865.22 346.211 Q1863.32 344.127 1860.17 344.127 Q1856.6 344.127 1854.45 346.141 Q1852.32 348.155 1852 351.813 L1867.18 351.789 Z" fill="#000000" fill-rule="evenodd" fill-opacity="1" /><path clip-path="url(#clip660)" d="M1899.98 351.419 L1899.98 367.067 L1895.72 367.067 L1895.72 351.558 Q1895.72 347.877 1894.29 346.049 Q1892.85 344.22 1889.98 344.22 Q1886.53 344.22 1884.54 346.419 Q1882.55 348.618 1882.55 352.414 L1882.55 367.067 L1878.27 367.067 L1878.27 341.141 L1882.55 341.141 L1882.55 345.169 Q1884.08 342.831 1886.14 341.674 Q1888.22 340.516 1890.93 340.516 Q1895.4 340.516 1897.69 343.294 Q1899.98 346.049 1899.98 351.419 Z" fill="#000000" fill-rule="evenodd" fill-opacity="1" /><path clip-path="url(#clip660)" d="M1934.54 335.169 L1934.54 340.1 Q1932.18 337.901 1929.5 336.813 Q1926.84 335.725 1923.83 335.725 Q1917.9 335.725 1914.75 339.359 Q1911.6 342.97 1911.6 349.822 Q1911.6 356.651 1914.75 360.285 Q1917.9 363.896 1923.83 363.896 Q1926.84 363.896 1929.5 362.808 Q1932.18 361.72 1934.54 359.521 L1934.54 364.405 Q1932.09 366.072 1929.34 366.905 Q1926.6 367.738 1923.55 367.738 Q1915.7 367.738 1911.19 362.947 Q1906.67 358.132 1906.67 349.822 Q1906.67 341.489 1911.19 336.697 Q1915.7 331.882 1923.55 331.882 Q1926.65 331.882 1929.38 332.716 Q1932.14 333.526 1934.54 335.169 Z" fill="#000000" fill-rule="evenodd" fill-opacity="1" /><path clip-path="url(#clip660)" d="M1953.36 354.035 Q1948.2 354.035 1946.21 355.215 Q1944.22 356.396 1944.22 359.243 Q1944.22 361.512 1945.7 362.854 Q1947.21 364.174 1949.77 364.174 Q1953.32 364.174 1955.45 361.674 Q1957.6 359.151 1957.6 354.984 L1957.6 354.035 L1953.36 354.035 M1961.86 352.276 L1961.86 367.067 L1957.6 367.067 L1957.6 363.132 Q1956.14 365.493 1953.96 366.627 Q1951.79 367.738 1948.64 367.738 Q1944.66 367.738 1942.3 365.516 Q1939.96 363.271 1939.96 359.521 Q1939.96 355.146 1942.88 352.924 Q1945.82 350.702 1951.63 350.702 L1957.6 350.702 L1957.6 350.285 Q1957.6 347.345 1955.65 345.748 Q1953.73 344.127 1950.24 344.127 Q1948.02 344.127 1945.91 344.66 Q1943.8 345.192 1941.86 346.257 L1941.86 342.322 Q1944.2 341.419 1946.4 340.979 Q1948.59 340.516 1950.68 340.516 Q1956.3 340.516 1959.08 343.433 Q1961.86 346.35 1961.86 352.276 Z" fill="#000000" fill-rule="evenodd" fill-opacity="1" /><path clip-path="url(#clip660)" d="M1985.65 345.123 Q1984.94 344.706 1984.08 344.521 Q1983.25 344.313 1982.23 344.313 Q1978.62 344.313 1976.67 346.674 Q1974.75 349.012 1974.75 353.41 L1974.75 367.067 L1970.47 367.067 L1970.47 341.141 L1974.75 341.141 L1974.75 345.169 Q1976.09 342.808 1978.25 341.674 Q1980.4 340.516 1983.48 340.516 Q1983.92 340.516 1984.45 340.586 Q1984.98 340.632 1985.63 340.748 L1985.65 345.123 Z" fill="#000000" fill-rule="evenodd" fill-opacity="1" /><path clip-path="url(#clip660)" d="M1994.24 363.178 L1994.24 376.928 L1989.96 376.928 L1989.96 341.141 L1994.24 341.141 L1994.24 345.077 Q1995.58 342.762 1997.62 341.651 Q1999.68 340.516 2002.53 340.516 Q2007.25 340.516 2010.19 344.266 Q2013.15 348.016 2013.15 354.127 Q2013.15 360.239 2010.19 363.988 Q2007.25 367.738 2002.53 367.738 Q1999.68 367.738 1997.62 366.627 Q1995.58 365.493 1994.24 363.178 M2008.73 354.127 Q2008.73 349.428 2006.79 346.766 Q2004.87 344.081 2001.49 344.081 Q1998.11 344.081 1996.16 346.766 Q1994.24 349.428 1994.24 354.127 Q1994.24 358.826 1996.16 361.512 Q1998.11 364.174 2001.49 364.174 Q2004.87 364.174 2006.79 361.512 Q2008.73 358.826 2008.73 354.127 Z" fill="#000000" fill-rule="evenodd" fill-opacity="1" /><path clip-path="url(#clip660)" d="M2034.98 348.433 Q2038.34 349.151 2040.21 351.419 Q2042.11 353.688 2042.11 357.021 Q2042.11 362.137 2038.59 364.938 Q2035.08 367.738 2028.59 367.738 Q2026.42 367.738 2024.1 367.299 Q2021.81 366.882 2019.36 366.026 L2019.36 361.512 Q2021.3 362.646 2023.62 363.225 Q2025.93 363.803 2028.45 363.803 Q2032.85 363.803 2035.14 362.067 Q2037.46 360.331 2037.46 357.021 Q2037.46 353.965 2035.31 352.252 Q2033.18 350.516 2029.36 350.516 L2025.33 350.516 L2025.33 346.674 L2029.54 346.674 Q2032.99 346.674 2034.82 345.308 Q2036.65 343.919 2036.65 341.327 Q2036.65 338.665 2034.75 337.253 Q2032.88 335.817 2029.36 335.817 Q2027.44 335.817 2025.24 336.234 Q2023.04 336.651 2020.4 337.53 L2020.4 333.364 Q2023.06 332.623 2025.38 332.253 Q2027.71 331.882 2029.77 331.882 Q2035.1 331.882 2038.2 334.313 Q2041.3 336.72 2041.3 340.84 Q2041.3 343.711 2039.66 345.702 Q2038.02 347.669 2034.98 348.433 Z" fill="#000000" fill-rule="evenodd" fill-opacity="1" /><polyline clip-path="url(#clip660)" style="stroke:#00a9ad; stroke-linecap:butt; stroke-linejoin:round; stroke-width:4; stroke-opacity:1; fill:none" points="
  1667.61,401.627 1798.85,401.627 
  "/>
<path clip-path="url(#clip660)" d="M1733.23 376.027 L1713.21 385.678 L1708.27 407.336 L1722.12 424.693 L1744.34 424.693 L1758.19 407.336 L1753.25 385.678 Z" fill="#00a9ad" fill-rule="evenodd" fill-opacity="1" stroke="#000000" stroke-opacity="1" stroke-width="4.9152"/>
<path clip-path="url(#clip660)" d="M1842.97 385.481 L1842.97 390.042 Q1840.31 388.768 1837.95 388.143 Q1835.59 387.518 1833.39 387.518 Q1829.57 387.518 1827.48 389 Q1825.42 390.481 1825.42 393.213 Q1825.42 395.505 1826.79 396.685 Q1828.18 397.842 1832.02 398.56 L1834.84 399.139 Q1840.08 400.134 1842.55 402.657 Q1845.05 405.157 1845.05 409.37 Q1845.05 414.393 1841.67 416.986 Q1838.32 419.578 1831.81 419.578 Q1829.36 419.578 1826.58 419.023 Q1823.83 418.467 1820.86 417.379 L1820.86 412.565 Q1823.71 414.162 1826.44 414.972 Q1829.17 415.782 1831.81 415.782 Q1835.82 415.782 1837.99 414.208 Q1840.17 412.634 1840.17 409.717 Q1840.17 407.171 1838.59 405.736 Q1837.04 404.301 1833.48 403.583 L1830.63 403.028 Q1825.4 401.986 1823.06 399.764 Q1820.72 397.542 1820.72 393.583 Q1820.72 389 1823.94 386.361 Q1827.18 383.722 1832.85 383.722 Q1835.28 383.722 1837.81 384.162 Q1840.33 384.602 1842.97 385.481 Z" fill="#000000" fill-rule="evenodd" fill-opacity="1" /><path clip-path="url(#clip660)" d="M1857.02 388.19 L1857.02 415.065 L1862.67 415.065 Q1869.82 415.065 1873.13 411.824 Q1876.46 408.583 1876.46 401.592 Q1876.46 394.648 1873.13 391.43 Q1869.82 388.19 1862.67 388.19 L1857.02 388.19 M1852.34 384.347 L1861.95 384.347 Q1872 384.347 1876.7 388.537 Q1881.4 392.704 1881.4 401.592 Q1881.4 410.528 1876.67 414.717 Q1871.95 418.907 1861.95 418.907 L1852.34 418.907 L1852.34 384.347 Z" fill="#000000" fill-rule="evenodd" fill-opacity="1" /><path clip-path="url(#clip660)" d="M1888.85 384.347 L1893.53 384.347 L1893.53 418.907 L1888.85 418.907 L1888.85 384.347 Z" fill="#000000" fill-rule="evenodd" fill-opacity="1" /><path clip-path="url(#clip660)" d="M1919.22 402.704 Q1920.72 403.213 1922.14 404.879 Q1923.57 406.546 1925.01 409.463 L1929.75 418.907 L1924.73 418.907 L1920.31 410.041 Q1918.59 406.569 1916.97 405.435 Q1915.38 404.301 1912.6 404.301 L1907.51 404.301 L1907.51 418.907 L1902.83 418.907 L1902.83 384.347 L1913.39 384.347 Q1919.31 384.347 1922.23 386.824 Q1925.15 389.301 1925.15 394.301 Q1925.15 397.565 1923.62 399.717 Q1922.11 401.87 1919.22 402.704 M1907.51 388.19 L1907.51 400.458 L1913.39 400.458 Q1916.77 400.458 1918.48 398.907 Q1920.21 397.333 1920.21 394.301 Q1920.21 391.268 1918.48 389.741 Q1916.77 388.19 1913.39 388.19 L1907.51 388.19 Z" fill="#000000" fill-rule="evenodd" fill-opacity="1" /><path clip-path="url(#clip660)" d="M1935.77 384.347 L1940.45 384.347 L1940.45 398.954 L1955.96 384.347 L1961.97 384.347 L1944.82 400.458 L1963.2 418.907 L1957.04 418.907 L1940.45 402.264 L1940.45 418.907 L1935.77 418.907 L1935.77 384.347 Z" fill="#000000" fill-rule="evenodd" fill-opacity="1" /><path clip-path="url(#clip660)" d="M1971.3 414.972 L1987.62 414.972 L1987.62 418.907 L1965.68 418.907 L1965.68 414.972 Q1968.34 412.217 1972.92 407.588 Q1977.53 402.935 1978.71 401.592 Q1980.96 399.069 1981.83 397.333 Q1982.74 395.574 1982.74 393.884 Q1982.74 391.13 1980.79 389.393 Q1978.87 387.657 1975.77 387.657 Q1973.57 387.657 1971.12 388.421 Q1968.69 389.185 1965.91 390.736 L1965.91 386.014 Q1968.73 384.88 1971.19 384.301 Q1973.64 383.722 1975.68 383.722 Q1981.05 383.722 1984.24 386.407 Q1987.44 389.093 1987.44 393.583 Q1987.44 395.713 1986.63 397.634 Q1985.84 399.532 1983.73 402.125 Q1983.15 402.796 1980.05 406.014 Q1976.95 409.208 1971.3 414.972 Z" fill="#000000" fill-rule="evenodd" fill-opacity="1" /><polyline clip-path="url(#clip660)" style="stroke:#ed5d92; stroke-linecap:butt; stroke-linejoin:round; stroke-width:4; stroke-opacity:1; fill:none" points="
  1667.61,453.467 1798.85,453.467 
  "/>
<path clip-path="url(#clip660)" d="M1733.23 479.067 L1711.06 466.267 L1711.06 440.667 L1733.23 427.867 L1755.4 440.667 L1755.4 466.267 Z" fill="#ed5d92" fill-rule="evenodd" fill-opacity="1" stroke="#000000" stroke-opacity="1" stroke-width="4.9152"/>
<path clip-path="url(#clip660)" d="M1835.91 448.803 Q1835.19 448.386 1834.34 448.201 Q1833.5 447.993 1832.48 447.993 Q1828.87 447.993 1826.93 450.354 Q1825.01 452.692 1825.01 457.09 L1825.01 470.747 L1820.72 470.747 L1820.72 444.821 L1825.01 444.821 L1825.01 448.849 Q1826.35 446.488 1828.5 445.354 Q1830.66 444.196 1833.73 444.196 Q1834.17 444.196 1834.71 444.266 Q1835.24 444.312 1835.89 444.428 L1835.91 448.803 Z" fill="#000000" fill-rule="evenodd" fill-opacity="1" /><path clip-path="url(#clip660)" d="M1852.16 457.715 Q1847 457.715 1845.01 458.895 Q1843.02 460.076 1843.02 462.923 Q1843.02 465.192 1844.5 466.534 Q1846 467.854 1848.57 467.854 Q1852.11 467.854 1854.24 465.354 Q1856.4 462.831 1856.4 458.664 L1856.4 457.715 L1852.16 457.715 M1860.65 455.956 L1860.65 470.747 L1856.4 470.747 L1856.4 466.812 Q1854.94 469.173 1852.76 470.307 Q1850.59 471.418 1847.44 471.418 Q1843.46 471.418 1841.09 469.196 Q1838.76 466.951 1838.76 463.201 Q1838.76 458.826 1841.67 456.604 Q1844.61 454.382 1850.42 454.382 L1856.4 454.382 L1856.4 453.965 Q1856.4 451.025 1854.45 449.428 Q1852.53 447.807 1849.03 447.807 Q1846.81 447.807 1844.71 448.34 Q1842.6 448.872 1840.65 449.937 L1840.65 446.002 Q1842.99 445.099 1845.19 444.659 Q1847.39 444.196 1849.47 444.196 Q1855.1 444.196 1857.88 447.113 Q1860.65 450.03 1860.65 455.956 Z" fill="#000000" fill-rule="evenodd" fill-opacity="1" /><path clip-path="url(#clip660)" d="M1886.49 448.757 L1886.49 434.729 L1890.75 434.729 L1890.75 470.747 L1886.49 470.747 L1886.49 466.858 Q1885.15 469.173 1883.09 470.307 Q1881.05 471.418 1878.18 471.418 Q1873.48 471.418 1870.52 467.668 Q1867.58 463.919 1867.58 457.807 Q1867.58 451.696 1870.52 447.946 Q1873.48 444.196 1878.18 444.196 Q1881.05 444.196 1883.09 445.331 Q1885.15 446.442 1886.49 448.757 M1871.97 457.807 Q1871.97 462.506 1873.9 465.192 Q1875.84 467.854 1879.22 467.854 Q1882.6 467.854 1884.54 465.192 Q1886.49 462.506 1886.49 457.807 Q1886.49 453.108 1884.54 450.446 Q1882.6 447.761 1879.22 447.761 Q1875.84 447.761 1873.9 450.446 Q1871.97 453.108 1871.97 457.807 Z" fill="#000000" fill-rule="evenodd" fill-opacity="1" /><path clip-path="url(#clip660)" d="M1911.3 457.715 Q1906.14 457.715 1904.15 458.895 Q1902.16 460.076 1902.16 462.923 Q1902.16 465.192 1903.64 466.534 Q1905.15 467.854 1907.71 467.854 Q1911.26 467.854 1913.39 465.354 Q1915.54 462.831 1915.54 458.664 L1915.54 457.715 L1911.3 457.715 M1919.8 455.956 L1919.8 470.747 L1915.54 470.747 L1915.54 466.812 Q1914.08 469.173 1911.9 470.307 Q1909.73 471.418 1906.58 471.418 Q1902.6 471.418 1900.24 469.196 Q1897.9 466.951 1897.9 463.201 Q1897.9 458.826 1900.82 456.604 Q1903.76 454.382 1909.57 454.382 L1915.54 454.382 L1915.54 453.965 Q1915.54 451.025 1913.59 449.428 Q1911.67 447.807 1908.18 447.807 Q1905.96 447.807 1903.85 448.34 Q1901.74 448.872 1899.8 449.937 L1899.8 446.002 Q1902.14 445.099 1904.34 444.659 Q1906.53 444.196 1908.62 444.196 Q1914.24 444.196 1917.02 447.113 Q1919.8 450.03 1919.8 455.956 Z" fill="#000000" fill-rule="evenodd" fill-opacity="1" /><path clip-path="url(#clip660)" d="M1928.13 460.516 L1928.13 444.821 L1932.39 444.821 L1932.39 460.354 Q1932.39 464.034 1933.83 465.886 Q1935.26 467.715 1938.13 467.715 Q1941.58 467.715 1943.57 465.516 Q1945.58 463.317 1945.58 459.52 L1945.58 444.821 L1949.84 444.821 L1949.84 470.747 L1945.58 470.747 L1945.58 466.766 Q1944.03 469.127 1941.97 470.284 Q1939.94 471.418 1937.23 471.418 Q1932.76 471.418 1930.45 468.641 Q1928.13 465.863 1928.13 460.516 M1938.85 444.196 L1938.85 444.196 Z" fill="#000000" fill-rule="evenodd" fill-opacity="1" /></svg>
