<?xml version="1.0" encoding="utf-8"?>
<svg xmlns="http://www.w3.org/2000/svg" xmlns:xlink="http://www.w3.org/1999/xlink" width="576" height="384" viewBox="0 0 2304 1536">
<defs>
  <clipPath id="clip780">
    <rect x="0" y="0" width="2304" height="1536"/>
  </clipPath>
</defs>
<path clip-path="url(#clip780)" d="
M0 1536 L2304 1536 L2304 0 L0 0  Z
  " fill="#ffffff" fill-rule="evenodd" fill-opacity="1"/>
<defs>
  <clipPath id="clip781">
    <rect x="460" y="0" width="1614" height="1536"/>
  </clipPath>
</defs>
<path clip-path="url(#clip780)" d="
M250.882 1347.54 L2256.76 1347.54 L2256.76 47.2441 L250.882 47.2441  Z
  " fill="#ffffff" fill-rule="evenodd" fill-opacity="1"/>
<defs>
  <clipPath id="clip782">
    <rect x="250" y="47" width="2007" height="1301"/>
  </clipPath>
</defs>
<polyline clip-path="url(#clip782)" style="stroke:#000000; stroke-linecap:butt; stroke-linejoin:round; stroke-width:2; stroke-opacity:0.1; fill:none" points="
  1020.59,1347.54 1020.59,47.2441 
  "/>
<polyline clip-path="url(#clip782)" style="stroke:#000000; stroke-linecap:butt; stroke-linejoin:round; stroke-width:2; stroke-opacity:0.1; fill:none" points="
  1914.34,1347.54 1914.34,47.2441 
  "/>
<polyline clip-path="url(#clip780)" style="stroke:#000000; stroke-linecap:butt; stroke-linejoin:round; stroke-width:4; stroke-opacity:1; fill:none" points="
  250.882,1347.54 2256.76,1347.54 
  "/>
<polyline clip-path="url(#clip780)" style="stroke:#000000; stroke-linecap:butt; stroke-linejoin:round; stroke-width:4; stroke-opacity:1; fill:none" points="
  1020.59,1347.54 1020.59,1328.64 
  "/>
<polyline clip-path="url(#clip780)" style="stroke:#000000; stroke-linecap:butt; stroke-linejoin:round; stroke-width:4; stroke-opacity:1; fill:none" points="
  1914.34,1347.54 1914.34,1328.64 
  "/>
<path clip-path="url(#clip780)" d="M970.609 1420.89 L978.248 1420.89 L978.248 1394.53 L969.938 1396.19 L969.938 1391.94 L978.202 1390.27 L982.878 1390.27 L982.878 1420.89 L990.517 1420.89 L990.517 1424.83 L970.609 1424.83 L970.609 1420.89 Z" fill="#000000" fill-rule="evenodd" fill-opacity="1" /><path clip-path="url(#clip780)" d="M1009.96 1393.35 Q1006.35 1393.35 1004.52 1396.91 Q1002.72 1400.45 1002.72 1407.58 Q1002.72 1414.69 1004.52 1418.25 Q1006.35 1421.8 1009.96 1421.8 Q1013.6 1421.8 1015.4 1418.25 Q1017.23 1414.69 1017.23 1407.58 Q1017.23 1400.45 1015.4 1396.91 Q1013.6 1393.35 1009.96 1393.35 M1009.96 1389.64 Q1015.77 1389.64 1018.83 1394.25 Q1021.91 1398.83 1021.91 1407.58 Q1021.91 1416.31 1018.83 1420.92 Q1015.77 1425.5 1009.96 1425.5 Q1004.15 1425.5 1001.07 1420.92 Q998.017 1416.31 998.017 1407.58 Q998.017 1398.83 1001.07 1394.25 Q1004.15 1389.64 1009.96 1389.64 Z" fill="#000000" fill-rule="evenodd" fill-opacity="1" /><path clip-path="url(#clip780)" d="M1021.91 1383.74 L1046.02 1383.74 L1046.02 1386.94 L1021.91 1386.94 L1021.91 1383.74 Z" fill="#000000" fill-rule="evenodd" fill-opacity="1" /><path clip-path="url(#clip780)" d="M1054.25 1369.34 L1069.17 1369.34 L1069.17 1372.54 L1057.73 1372.54 L1057.73 1379.42 Q1058.56 1379.14 1059.39 1379.01 Q1060.22 1378.85 1061.04 1378.85 Q1065.75 1378.85 1068.49 1381.43 Q1071.24 1384.01 1071.24 1388.41 Q1071.24 1392.94 1068.42 1395.46 Q1065.6 1397.96 1060.46 1397.96 Q1058.69 1397.96 1056.85 1397.66 Q1055.03 1397.36 1053.07 1396.76 L1053.07 1392.94 Q1054.76 1393.86 1056.57 1394.31 Q1058.37 1394.77 1060.39 1394.77 Q1063.64 1394.77 1065.54 1393.05 Q1067.44 1391.34 1067.44 1388.41 Q1067.44 1385.48 1065.54 1383.76 Q1063.64 1382.05 1060.39 1382.05 Q1058.86 1382.05 1057.34 1382.39 Q1055.83 1382.73 1054.25 1383.44 L1054.25 1369.34 Z" fill="#000000" fill-rule="evenodd" fill-opacity="1" /><path clip-path="url(#clip780)" d="M1879.32 1420.89 L1886.96 1420.89 L1886.96 1394.53 L1878.65 1396.19 L1878.65 1391.94 L1886.91 1390.27 L1891.59 1390.27 L1891.59 1420.89 L1899.23 1420.89 L1899.23 1424.83 L1879.32 1424.83 L1879.32 1420.89 Z" fill="#000000" fill-rule="evenodd" fill-opacity="1" /><path clip-path="url(#clip780)" d="M1918.67 1393.35 Q1915.06 1393.35 1913.23 1396.91 Q1911.43 1400.45 1911.43 1407.58 Q1911.43 1414.69 1913.23 1418.25 Q1915.06 1421.8 1918.67 1421.8 Q1922.31 1421.8 1924.11 1418.25 Q1925.94 1414.69 1925.94 1407.58 Q1925.94 1400.45 1924.11 1396.91 Q1922.31 1393.35 1918.67 1393.35 M1918.67 1389.64 Q1924.48 1389.64 1927.54 1394.25 Q1930.62 1398.83 1930.62 1407.58 Q1930.62 1416.31 1927.54 1420.92 Q1924.48 1425.5 1918.67 1425.5 Q1912.86 1425.5 1909.78 1420.92 Q1906.73 1416.31 1906.73 1407.58 Q1906.73 1398.83 1909.78 1394.25 Q1912.86 1389.64 1918.67 1389.64 Z" fill="#000000" fill-rule="evenodd" fill-opacity="1" /><path clip-path="url(#clip780)" d="M1940.32 1371.84 Q1937.39 1371.84 1935.9 1374.74 Q1934.44 1377.61 1934.44 1383.41 Q1934.44 1389.18 1935.9 1392.08 Q1937.39 1394.95 1940.32 1394.95 Q1943.28 1394.95 1944.74 1392.08 Q1946.23 1389.18 1946.23 1383.41 Q1946.23 1377.61 1944.74 1374.74 Q1943.28 1371.84 1940.32 1371.84 M1940.32 1368.83 Q1945.04 1368.83 1947.53 1372.57 Q1950.03 1376.3 1950.03 1383.41 Q1950.03 1390.5 1947.53 1394.24 Q1945.04 1397.96 1940.32 1397.96 Q1935.6 1397.96 1933.1 1394.24 Q1930.62 1390.5 1930.62 1383.41 Q1930.62 1376.3 1933.1 1372.57 Q1935.6 1368.83 1940.32 1368.83 Z" fill="#000000" fill-rule="evenodd" fill-opacity="1" /><path clip-path="url(#clip780)" d="M1177.57 1461.87 L1207.62 1461.87 L1207.62 1467.28 L1184 1467.28 L1184 1481.34 L1206.63 1481.34 L1206.63 1486.76 L1184 1486.76 L1184 1503.97 L1208.19 1503.97 L1208.19 1509.39 L1177.57 1509.39 L1177.57 1461.87 Z" fill="#000000" fill-rule="evenodd" fill-opacity="1" /><path clip-path="url(#clip780)" d="M1239.16 1479.21 Q1238.18 1478.64 1237 1478.38 Q1235.85 1478.1 1234.45 1478.1 Q1229.49 1478.1 1226.81 1481.34 Q1224.17 1484.56 1224.17 1490.61 L1224.17 1509.39 L1218.28 1509.39 L1218.28 1473.74 L1224.17 1473.74 L1224.17 1479.28 Q1226.02 1476.03 1228.98 1474.47 Q1231.94 1472.88 1236.17 1472.88 Q1236.77 1472.88 1237.51 1472.97 Q1238.24 1473.04 1239.13 1473.2 L1239.16 1479.21 Z" fill="#000000" fill-rule="evenodd" fill-opacity="1" /><path clip-path="url(#clip780)" d="M1264.82 1479.21 Q1263.83 1478.64 1262.65 1478.38 Q1261.51 1478.1 1260.11 1478.1 Q1255.14 1478.1 1252.47 1481.34 Q1249.82 1484.56 1249.82 1490.61 L1249.82 1509.39 L1243.94 1509.39 L1243.94 1473.74 L1249.82 1473.74 L1249.82 1479.28 Q1251.67 1476.03 1254.63 1474.47 Q1257.59 1472.88 1261.82 1472.88 Q1262.43 1472.88 1263.16 1472.97 Q1263.89 1473.04 1264.78 1473.2 L1264.82 1479.21 Z" fill="#000000" fill-rule="evenodd" fill-opacity="1" /><path clip-path="url(#clip780)" d="M1283.34 1477.84 Q1278.63 1477.84 1275.89 1481.54 Q1273.15 1485.2 1273.15 1491.59 Q1273.15 1497.99 1275.86 1501.68 Q1278.6 1505.34 1283.34 1505.34 Q1288.02 1505.34 1290.76 1501.65 Q1293.49 1497.96 1293.49 1491.59 Q1293.49 1485.26 1290.76 1481.57 Q1288.02 1477.84 1283.34 1477.84 M1283.34 1472.88 Q1290.98 1472.88 1295.34 1477.84 Q1299.7 1482.81 1299.7 1491.59 Q1299.7 1500.35 1295.34 1505.34 Q1290.98 1510.31 1283.34 1510.31 Q1275.67 1510.31 1271.31 1505.34 Q1266.98 1500.35 1266.98 1491.59 Q1266.98 1482.81 1271.31 1477.84 Q1275.67 1472.88 1283.34 1472.88 Z" fill="#000000" fill-rule="evenodd" fill-opacity="1" /><path clip-path="url(#clip780)" d="M1330.06 1479.21 Q1329.08 1478.64 1327.9 1478.38 Q1326.75 1478.1 1325.35 1478.1 Q1320.39 1478.1 1317.71 1481.34 Q1315.07 1484.56 1315.07 1490.61 L1315.07 1509.39 L1309.18 1509.39 L1309.18 1473.74 L1315.07 1473.74 L1315.07 1479.28 Q1316.92 1476.03 1319.88 1474.47 Q1322.84 1472.88 1327.07 1472.88 Q1327.68 1472.88 1328.41 1472.97 Q1329.14 1473.04 1330.03 1473.2 L1330.06 1479.21 Z" fill="#000000" fill-rule="evenodd" fill-opacity="1" /><polyline clip-path="url(#clip782)" style="stroke:#000000; stroke-linecap:butt; stroke-linejoin:round; stroke-width:2; stroke-opacity:0.1; fill:none" points="
  250.882,1291.9 2256.76,1291.9 
  "/>
<polyline clip-path="url(#clip782)" style="stroke:#000000; stroke-linecap:butt; stroke-linejoin:round; stroke-width:2; stroke-opacity:0.1; fill:none" points="
  250.882,874.691 2256.76,874.691 
  "/>
<polyline clip-path="url(#clip782)" style="stroke:#000000; stroke-linecap:butt; stroke-linejoin:round; stroke-width:2; stroke-opacity:0.1; fill:none" points="
  250.882,457.478 2256.76,457.478 
  "/>
<polyline clip-path="url(#clip780)" style="stroke:#000000; stroke-linecap:butt; stroke-linejoin:round; stroke-width:4; stroke-opacity:1; fill:none" points="
  250.882,1347.54 250.882,47.2441 
  "/>
<polyline clip-path="url(#clip780)" style="stroke:#000000; stroke-linecap:butt; stroke-linejoin:round; stroke-width:4; stroke-opacity:1; fill:none" points="
  250.882,1291.9 269.78,1291.9 
  "/>
<polyline clip-path="url(#clip780)" style="stroke:#000000; stroke-linecap:butt; stroke-linejoin:round; stroke-width:4; stroke-opacity:1; fill:none" points="
  250.882,874.691 269.78,874.691 
  "/>
<polyline clip-path="url(#clip780)" style="stroke:#000000; stroke-linecap:butt; stroke-linejoin:round; stroke-width:4; stroke-opacity:1; fill:none" points="
  250.882,457.478 269.78,457.478 
  "/>
<path clip-path="url(#clip780)" d="M115.411 1311.7 L123.05 1311.7 L123.05 1285.33 L114.74 1287 L114.74 1282.74 L123.004 1281.07 L127.68 1281.07 L127.68 1311.7 L135.319 1311.7 L135.319 1315.63 L115.411 1315.63 L115.411 1311.7 Z" fill="#000000" fill-rule="evenodd" fill-opacity="1" /><path clip-path="url(#clip780)" d="M154.763 1284.15 Q151.152 1284.15 149.323 1287.72 Q147.518 1291.26 147.518 1298.39 Q147.518 1305.49 149.323 1309.06 Q151.152 1312.6 154.763 1312.6 Q158.397 1312.6 160.203 1309.06 Q162.032 1305.49 162.032 1298.39 Q162.032 1291.26 160.203 1287.72 Q158.397 1284.15 154.763 1284.15 M154.763 1280.45 Q160.573 1280.45 163.629 1285.05 Q166.707 1289.64 166.707 1298.39 Q166.707 1307.11 163.629 1311.72 Q160.573 1316.3 154.763 1316.3 Q148.953 1316.3 145.874 1311.72 Q142.819 1307.11 142.819 1298.39 Q142.819 1289.64 145.874 1285.05 Q148.953 1280.45 154.763 1280.45 Z" fill="#000000" fill-rule="evenodd" fill-opacity="1" /><path clip-path="url(#clip780)" d="M166.707 1274.55 L190.819 1274.55 L190.819 1277.75 L166.707 1277.75 L166.707 1274.55 Z" fill="#000000" fill-rule="evenodd" fill-opacity="1" /><path clip-path="url(#clip780)" d="M210.53 1273.08 Q213.257 1273.66 214.78 1275.51 Q216.322 1277.35 216.322 1280.06 Q216.322 1284.22 213.464 1286.49 Q210.605 1288.77 205.339 1288.77 Q203.571 1288.77 201.69 1288.41 Q199.828 1288.07 197.834 1287.37 L197.834 1283.71 Q199.414 1284.63 201.295 1285.1 Q203.176 1285.57 205.226 1285.57 Q208.799 1285.57 210.661 1284.16 Q212.542 1282.75 212.542 1280.06 Q212.542 1277.58 210.793 1276.18 Q209.063 1274.77 205.959 1274.77 L202.687 1274.77 L202.687 1271.65 L206.11 1271.65 Q208.912 1271.65 210.398 1270.54 Q211.884 1269.41 211.884 1267.31 Q211.884 1265.14 210.341 1264 Q208.818 1262.83 205.959 1262.83 Q204.398 1262.83 202.612 1263.17 Q200.825 1263.51 198.681 1264.22 L198.681 1260.84 Q200.844 1260.24 202.724 1259.93 Q204.624 1259.63 206.298 1259.63 Q210.624 1259.63 213.144 1261.61 Q215.664 1263.56 215.664 1266.91 Q215.664 1269.24 214.329 1270.86 Q212.993 1272.46 210.53 1273.08 Z" fill="#000000" fill-rule="evenodd" fill-opacity="1" /><path clip-path="url(#clip780)" d="M116.183 894.484 L123.821 894.484 L123.821 868.118 L115.511 869.785 L115.511 865.525 L123.775 863.859 L128.451 863.859 L128.451 894.484 L136.09 894.484 L136.09 898.419 L116.183 898.419 L116.183 894.484 Z" fill="#000000" fill-rule="evenodd" fill-opacity="1" /><path clip-path="url(#clip780)" d="M155.534 866.937 Q151.923 866.937 150.094 870.502 Q148.289 874.044 148.289 881.173 Q148.289 888.28 150.094 891.845 Q151.923 895.386 155.534 895.386 Q159.168 895.386 160.974 891.845 Q162.803 888.28 162.803 881.173 Q162.803 874.044 160.974 870.502 Q159.168 866.937 155.534 866.937 M155.534 863.234 Q161.344 863.234 164.4 867.84 Q167.479 872.424 167.479 881.173 Q167.479 889.9 164.4 894.507 Q161.344 899.09 155.534 899.09 Q149.724 899.09 146.645 894.507 Q143.59 889.9 143.59 881.173 Q143.59 872.424 146.645 867.84 Q149.724 863.234 155.534 863.234 Z" fill="#000000" fill-rule="evenodd" fill-opacity="1" /><path clip-path="url(#clip780)" d="M167.479 857.335 L191.59 857.335 L191.59 860.532 L167.479 860.532 L167.479 857.335 Z" fill="#000000" fill-rule="evenodd" fill-opacity="1" /><path clip-path="url(#clip780)" d="M203.063 867.811 L216.322 867.811 L216.322 871.008 L198.493 871.008 L198.493 867.811 Q200.655 865.573 204.379 861.811 Q208.122 858.031 209.081 856.94 Q210.906 854.89 211.62 853.479 Q212.354 852.05 212.354 850.677 Q212.354 848.439 210.774 847.028 Q209.213 845.618 206.693 845.618 Q204.906 845.618 202.912 846.239 Q200.938 846.859 198.681 848.119 L198.681 844.282 Q200.975 843.361 202.969 842.891 Q204.962 842.421 206.618 842.421 Q210.981 842.421 213.576 844.602 Q216.172 846.784 216.172 850.433 Q216.172 852.163 215.514 853.724 Q214.874 855.266 213.163 857.373 Q212.692 857.918 210.172 860.532 Q207.652 863.128 203.063 867.811 Z" fill="#000000" fill-rule="evenodd" fill-opacity="1" /><path clip-path="url(#clip780)" d="M115.882 477.271 L123.52 477.271 L123.52 450.905 L115.21 452.572 L115.21 448.313 L123.474 446.646 L128.15 446.646 L128.15 477.271 L135.789 477.271 L135.789 481.206 L115.882 481.206 L115.882 477.271 Z" fill="#000000" fill-rule="evenodd" fill-opacity="1" /><path clip-path="url(#clip780)" d="M155.233 449.725 Q151.622 449.725 149.793 453.289 Q147.988 456.831 147.988 463.961 Q147.988 471.067 149.793 474.632 Q151.622 478.173 155.233 478.173 Q158.868 478.173 160.673 474.632 Q162.502 471.067 162.502 463.961 Q162.502 456.831 160.673 453.289 Q158.868 449.725 155.233 449.725 M155.233 446.021 Q161.043 446.021 164.099 450.627 Q167.178 455.211 167.178 463.961 Q167.178 472.687 164.099 477.294 Q161.043 481.877 155.233 481.877 Q149.423 481.877 146.344 477.294 Q143.289 472.687 143.289 463.961 Q143.289 455.211 146.344 450.627 Q149.423 446.021 155.233 446.021 Z" fill="#000000" fill-rule="evenodd" fill-opacity="1" /><path clip-path="url(#clip780)" d="M167.178 440.122 L191.289 440.122 L191.289 443.32 L167.178 443.32 L167.178 440.122 Z" fill="#000000" fill-rule="evenodd" fill-opacity="1" /><path clip-path="url(#clip780)" d="M200.148 450.598 L206.354 450.598 L206.354 429.176 L199.602 430.53 L199.602 427.07 L206.317 425.715 L210.116 425.715 L210.116 450.598 L216.322 450.598 L216.322 453.795 L200.148 453.795 L200.148 450.598 Z" fill="#000000" fill-rule="evenodd" fill-opacity="1" /><path clip-path="url(#clip780)" d="M18.4042 827.219 L18.4042 787.02 L23.815 787.02 L23.815 803.889 L65.9242 803.889 L65.9242 810.35 L23.815 810.35 L23.815 827.219 L18.4042 827.219 Z" fill="#000000" fill-rule="evenodd" fill-opacity="1" /><path clip-path="url(#clip780)" d="M30.2762 783.073 L30.2762 777.216 L65.9242 777.216 L65.9242 783.073 L30.2762 783.073 M16.399 783.073 L16.399 777.216 L23.815 777.216 L23.815 783.073 L16.399 783.073 Z" fill="#000000" fill-rule="evenodd" fill-opacity="1" /><path clip-path="url(#clip780)" d="M37.1193 737.208 Q33.1726 735.012 31.2947 731.956 Q29.4168 728.901 29.4168 724.763 Q29.4168 719.193 33.3317 716.169 Q37.2148 713.145 44.4081 713.145 L65.9242 713.145 L65.9242 719.034 L44.599 719.034 Q39.4746 719.034 36.992 720.848 Q34.5094 722.662 34.5094 726.386 Q34.5094 730.938 37.5331 733.579 Q40.5568 736.221 45.7767 736.221 L65.9242 736.221 L65.9242 742.109 L44.599 742.109 Q39.4428 742.109 36.992 743.924 Q34.5094 745.738 34.5094 749.526 Q34.5094 754.013 37.5649 756.655 Q40.5886 759.297 45.7767 759.297 L65.9242 759.297 L65.9242 765.185 L30.2762 765.185 L30.2762 759.297 L35.8144 759.297 Q32.536 757.292 30.9764 754.491 Q29.4168 751.69 29.4168 747.839 Q29.4168 743.956 31.3902 741.25 Q33.3636 738.513 37.1193 737.208 Z" fill="#000000" fill-rule="evenodd" fill-opacity="1" /><path clip-path="url(#clip780)" d="M46.6361 670.973 L49.5006 670.973 L49.5006 697.9 Q55.5481 697.518 58.7309 694.271 Q61.8819 690.993 61.8819 685.168 Q61.8819 681.794 61.0544 678.643 Q60.2269 675.461 58.5718 672.341 L64.1099 672.341 Q65.4467 675.492 66.147 678.803 Q66.8472 682.113 66.8472 685.518 Q66.8472 694.048 61.8819 699.045 Q56.9167 704.011 48.4503 704.011 Q39.6974 704.011 34.5731 699.3 Q29.4168 694.558 29.4168 686.537 Q29.4168 679.344 34.0638 675.174 Q38.6789 670.973 46.6361 670.973 M44.9173 676.829 Q40.1112 676.893 37.2466 679.535 Q34.3821 682.145 34.3821 686.473 Q34.3821 691.375 37.1512 694.335 Q39.9202 697.263 44.9492 697.709 L44.9173 676.829 Z" fill="#000000" fill-rule="evenodd" fill-opacity="1" /><path clip-path="url(#clip780)" d="M16.4626 626.572 Q23.7832 630.837 30.9446 632.906 Q38.106 634.975 45.4584 634.975 Q52.8108 634.975 60.0359 632.906 Q67.2291 630.805 74.5179 626.572 L74.5179 631.664 Q67.0382 636.439 59.8131 638.826 Q52.588 641.181 45.4584 641.181 Q38.3606 641.181 31.1674 638.826 Q23.9742 636.471 16.4626 631.664 L16.4626 626.572 Z" fill="#000000" fill-rule="evenodd" fill-opacity="1" /><path clip-path="url(#clip780)" d="M31.3265 592.484 L36.8647 592.484 Q35.5916 594.966 34.955 597.64 Q34.3184 600.313 34.3184 603.178 Q34.3184 607.538 35.6552 609.735 Q36.992 611.899 39.6656 611.899 Q41.7026 611.899 42.8803 610.339 Q44.0261 608.78 45.0765 604.069 L45.5221 602.064 Q46.8589 595.826 49.3097 593.216 Q51.7286 590.574 56.0891 590.574 Q61.0544 590.574 63.9508 594.521 Q66.8472 598.435 66.8472 605.31 Q66.8472 608.175 66.2743 611.294 Q65.7332 614.382 64.6192 617.819 L58.5718 617.819 Q60.2587 614.573 61.118 611.422 Q61.9456 608.27 61.9456 605.183 Q61.9456 601.045 60.5451 598.817 Q59.1129 596.589 56.5347 596.589 Q54.1476 596.589 52.8745 598.213 Q51.6013 599.804 50.4237 605.247 L49.9462 607.284 Q48.8004 612.726 46.4451 615.145 Q44.058 617.564 39.9202 617.564 Q34.8913 617.564 32.1541 614 Q29.4168 610.435 29.4168 603.878 Q29.4168 600.632 29.8943 597.767 Q30.3717 594.902 31.3265 592.484 Z" fill="#000000" fill-rule="evenodd" fill-opacity="1" /><path clip-path="url(#clip780)" d="M16.4626 582.171 L16.4626 577.079 Q23.9742 572.304 31.1674 569.949 Q38.3606 567.562 45.4584 567.562 Q52.588 567.562 59.8131 569.949 Q67.0382 572.304 74.5179 577.079 L74.5179 582.171 Q67.2291 577.938 60.0359 575.869 Q52.8108 573.768 45.4584 573.768 Q38.106 573.768 30.9446 575.869 Q23.7832 577.938 16.4626 582.171 Z" fill="#000000" fill-rule="evenodd" fill-opacity="1" /><polyline clip-path="url(#clip782)" style="stroke:#009af9; stroke-linecap:butt; stroke-linejoin:round; stroke-width:12; stroke-opacity:1; fill:none" points="
  1363.95,978.315 1218.7,810.307 1060.32,669.664 893.438,523.255 718.678,390.788 
  "/>
<line clip-path="url(#clip782)" x1="1363.95" y1="978.315" x2="1363.95" y2="962.315" style="stroke:#009af9; stroke-width:3.072; stroke-opacity:1"/>
<line clip-path="url(#clip782)" x1="1363.95" y1="978.315" x2="1347.95" y2="978.315" style="stroke:#009af9; stroke-width:3.072; stroke-opacity:1"/>
<line clip-path="url(#clip782)" x1="1363.95" y1="978.315" x2="1363.95" y2="994.315" style="stroke:#009af9; stroke-width:3.072; stroke-opacity:1"/>
<line clip-path="url(#clip782)" x1="1363.95" y1="978.315" x2="1379.95" y2="978.315" style="stroke:#009af9; stroke-width:3.072; stroke-opacity:1"/>
<line clip-path="url(#clip782)" x1="1218.7" y1="810.307" x2="1218.7" y2="794.307" style="stroke:#009af9; stroke-width:3.072; stroke-opacity:1"/>
<line clip-path="url(#clip782)" x1="1218.7" y1="810.307" x2="1202.7" y2="810.307" style="stroke:#009af9; stroke-width:3.072; stroke-opacity:1"/>
<line clip-path="url(#clip782)" x1="1218.7" y1="810.307" x2="1218.7" y2="826.307" style="stroke:#009af9; stroke-width:3.072; stroke-opacity:1"/>
<line clip-path="url(#clip782)" x1="1218.7" y1="810.307" x2="1234.7" y2="810.307" style="stroke:#009af9; stroke-width:3.072; stroke-opacity:1"/>
<line clip-path="url(#clip782)" x1="1060.32" y1="669.664" x2="1060.32" y2="653.664" style="stroke:#009af9; stroke-width:3.072; stroke-opacity:1"/>
<line clip-path="url(#clip782)" x1="1060.32" y1="669.664" x2="1044.32" y2="669.664" style="stroke:#009af9; stroke-width:3.072; stroke-opacity:1"/>
<line clip-path="url(#clip782)" x1="1060.32" y1="669.664" x2="1060.32" y2="685.664" style="stroke:#009af9; stroke-width:3.072; stroke-opacity:1"/>
<line clip-path="url(#clip782)" x1="1060.32" y1="669.664" x2="1076.32" y2="669.664" style="stroke:#009af9; stroke-width:3.072; stroke-opacity:1"/>
<line clip-path="url(#clip782)" x1="893.438" y1="523.255" x2="893.438" y2="507.255" style="stroke:#009af9; stroke-width:3.072; stroke-opacity:1"/>
<line clip-path="url(#clip782)" x1="893.438" y1="523.255" x2="877.438" y2="523.255" style="stroke:#009af9; stroke-width:3.072; stroke-opacity:1"/>
<line clip-path="url(#clip782)" x1="893.438" y1="523.255" x2="893.438" y2="539.255" style="stroke:#009af9; stroke-width:3.072; stroke-opacity:1"/>
<line clip-path="url(#clip782)" x1="893.438" y1="523.255" x2="909.438" y2="523.255" style="stroke:#009af9; stroke-width:3.072; stroke-opacity:1"/>
<line clip-path="url(#clip782)" x1="718.678" y1="390.788" x2="718.678" y2="374.788" style="stroke:#009af9; stroke-width:3.072; stroke-opacity:1"/>
<line clip-path="url(#clip782)" x1="718.678" y1="390.788" x2="702.678" y2="390.788" style="stroke:#009af9; stroke-width:3.072; stroke-opacity:1"/>
<line clip-path="url(#clip782)" x1="718.678" y1="390.788" x2="718.678" y2="406.788" style="stroke:#009af9; stroke-width:3.072; stroke-opacity:1"/>
<line clip-path="url(#clip782)" x1="718.678" y1="390.788" x2="734.678" y2="390.788" style="stroke:#009af9; stroke-width:3.072; stroke-opacity:1"/>
<polyline clip-path="url(#clip782)" style="stroke:#e26f46; stroke-linecap:butt; stroke-linejoin:round; stroke-width:12; stroke-opacity:1; fill:none" points="
  1800.86,1072.69 1715.97,1074.15 1665.76,1073.93 1626.09,1050.2 1538.02,1007.01 
  "/>
<circle clip-path="url(#clip782)" cx="1800.86" cy="1072.69" r="14" fill="#e26f46" fill-rule="evenodd" fill-opacity="1" stroke="#000000" stroke-opacity="1" stroke-width="3.072"/>
<circle clip-path="url(#clip782)" cx="1715.97" cy="1074.15" r="14" fill="#e26f46" fill-rule="evenodd" fill-opacity="1" stroke="#000000" stroke-opacity="1" stroke-width="3.072"/>
<circle clip-path="url(#clip782)" cx="1665.76" cy="1073.93" r="14" fill="#e26f46" fill-rule="evenodd" fill-opacity="1" stroke="#000000" stroke-opacity="1" stroke-width="3.072"/>
<circle clip-path="url(#clip782)" cx="1626.09" cy="1050.2" r="14" fill="#e26f46" fill-rule="evenodd" fill-opacity="1" stroke="#000000" stroke-opacity="1" stroke-width="3.072"/>
<circle clip-path="url(#clip782)" cx="1538.02" cy="1007.01" r="14" fill="#e26f46" fill-rule="evenodd" fill-opacity="1" stroke="#000000" stroke-opacity="1" stroke-width="3.072"/>
<polyline clip-path="url(#clip782)" style="stroke:#3da44d; stroke-linecap:butt; stroke-linejoin:round; stroke-width:12; stroke-opacity:1; fill:none" points="
  1829.53,1089.48 1758.54,1068.85 1644.94,1045.18 1485.88,1023.24 1498.33,1011.3 
  "/>
<line clip-path="url(#clip782)" x1="1829.53" y1="1089.48" x2="1829.53" y2="1073.48" style="stroke:#3da44d; stroke-width:3.072; stroke-opacity:1"/>
<line clip-path="url(#clip782)" x1="1829.53" y1="1089.48" x2="1813.53" y2="1089.48" style="stroke:#3da44d; stroke-width:3.072; stroke-opacity:1"/>
<line clip-path="url(#clip782)" x1="1829.53" y1="1089.48" x2="1829.53" y2="1105.48" style="stroke:#3da44d; stroke-width:3.072; stroke-opacity:1"/>
<line clip-path="url(#clip782)" x1="1829.53" y1="1089.48" x2="1845.53" y2="1089.48" style="stroke:#3da44d; stroke-width:3.072; stroke-opacity:1"/>
<line clip-path="url(#clip782)" x1="1758.54" y1="1068.85" x2="1758.54" y2="1052.85" style="stroke:#3da44d; stroke-width:3.072; stroke-opacity:1"/>
<line clip-path="url(#clip782)" x1="1758.54" y1="1068.85" x2="1742.54" y2="1068.85" style="stroke:#3da44d; stroke-width:3.072; stroke-opacity:1"/>
<line clip-path="url(#clip782)" x1="1758.54" y1="1068.85" x2="1758.54" y2="1084.85" style="stroke:#3da44d; stroke-width:3.072; stroke-opacity:1"/>
<line clip-path="url(#clip782)" x1="1758.54" y1="1068.85" x2="1774.54" y2="1068.85" style="stroke:#3da44d; stroke-width:3.072; stroke-opacity:1"/>
<line clip-path="url(#clip782)" x1="1644.94" y1="1045.18" x2="1644.94" y2="1029.18" style="stroke:#3da44d; stroke-width:3.072; stroke-opacity:1"/>
<line clip-path="url(#clip782)" x1="1644.94" y1="1045.18" x2="1628.94" y2="1045.18" style="stroke:#3da44d; stroke-width:3.072; stroke-opacity:1"/>
<line clip-path="url(#clip782)" x1="1644.94" y1="1045.18" x2="1644.94" y2="1061.18" style="stroke:#3da44d; stroke-width:3.072; stroke-opacity:1"/>
<line clip-path="url(#clip782)" x1="1644.94" y1="1045.18" x2="1660.94" y2="1045.18" style="stroke:#3da44d; stroke-width:3.072; stroke-opacity:1"/>
<line clip-path="url(#clip782)" x1="1485.88" y1="1023.24" x2="1485.88" y2="1007.24" style="stroke:#3da44d; stroke-width:3.072; stroke-opacity:1"/>
<line clip-path="url(#clip782)" x1="1485.88" y1="1023.24" x2="1469.88" y2="1023.24" style="stroke:#3da44d; stroke-width:3.072; stroke-opacity:1"/>
<line clip-path="url(#clip782)" x1="1485.88" y1="1023.24" x2="1485.88" y2="1039.24" style="stroke:#3da44d; stroke-width:3.072; stroke-opacity:1"/>
<line clip-path="url(#clip782)" x1="1485.88" y1="1023.24" x2="1501.88" y2="1023.24" style="stroke:#3da44d; stroke-width:3.072; stroke-opacity:1"/>
<line clip-path="url(#clip782)" x1="1498.33" y1="1011.3" x2="1498.33" y2="995.298" style="stroke:#3da44d; stroke-width:3.072; stroke-opacity:1"/>
<line clip-path="url(#clip782)" x1="1498.33" y1="1011.3" x2="1482.33" y2="1011.3" style="stroke:#3da44d; stroke-width:3.072; stroke-opacity:1"/>
<line clip-path="url(#clip782)" x1="1498.33" y1="1011.3" x2="1498.33" y2="1027.3" style="stroke:#3da44d; stroke-width:3.072; stroke-opacity:1"/>
<line clip-path="url(#clip782)" x1="1498.33" y1="1011.3" x2="1514.33" y2="1011.3" style="stroke:#3da44d; stroke-width:3.072; stroke-opacity:1"/>
<polyline clip-path="url(#clip782)" style="stroke:#c271d2; stroke-linecap:butt; stroke-linejoin:round; stroke-width:12; stroke-opacity:1; fill:none" points="
  1516.81,1109.65 1377.57,1061.49 1233.32,986.86 1072.87,955.454 909.138,894.862 
  "/>
<path clip-path="url(#clip782)" d="M1516.81 1093.65 L1500.81 1109.65 L1516.81 1125.65 L1532.81 1109.65 L1516.81 1093.65 Z" fill="#c271d2" fill-rule="evenodd" fill-opacity="1" stroke="#000000" stroke-opacity="1" stroke-width="3.072"/>
<path clip-path="url(#clip782)" d="M1377.57 1045.49 L1361.57 1061.49 L1377.57 1077.49 L1393.57 1061.49 L1377.57 1045.49 Z" fill="#c271d2" fill-rule="evenodd" fill-opacity="1" stroke="#000000" stroke-opacity="1" stroke-width="3.072"/>
<path clip-path="url(#clip782)" d="M1233.32 970.86 L1217.32 986.86 L1233.32 1002.86 L1249.32 986.86 L1233.32 970.86 Z" fill="#c271d2" fill-rule="evenodd" fill-opacity="1" stroke="#000000" stroke-opacity="1" stroke-width="3.072"/>
<path clip-path="url(#clip782)" d="M1072.87 939.454 L1056.87 955.454 L1072.87 971.454 L1088.87 955.454 L1072.87 939.454 Z" fill="#c271d2" fill-rule="evenodd" fill-opacity="1" stroke="#000000" stroke-opacity="1" stroke-width="3.072"/>
<path clip-path="url(#clip782)" d="M909.138 878.862 L893.138 894.862 L909.138 910.862 L925.138 894.862 L909.138 878.862 Z" fill="#c271d2" fill-rule="evenodd" fill-opacity="1" stroke="#000000" stroke-opacity="1" stroke-width="3.072"/>
<polyline clip-path="url(#clip782)" style="stroke:#ac8d18; stroke-linecap:butt; stroke-linejoin:round; stroke-width:12; stroke-opacity:1; fill:none" points="
  1844.89,1135.02 1817.04,1113.69 1639.31,1086.27 1370.8,1065.33 1597.26,1042.18 
  "/>
<path clip-path="url(#clip782)" d="M1860.89 1119.02 L1828.89 1119.02 L1844.89 1151.02 L1860.89 1119.02 Z" fill="#ac8d18" fill-rule="evenodd" fill-opacity="1" stroke="#000000" stroke-opacity="1" stroke-width="3.072"/>
<path clip-path="url(#clip782)" d="M1833.04 1097.69 L1801.04 1097.69 L1817.04 1129.69 L1833.04 1097.69 Z" fill="#ac8d18" fill-rule="evenodd" fill-opacity="1" stroke="#000000" stroke-opacity="1" stroke-width="3.072"/>
<path clip-path="url(#clip782)" d="M1655.31 1070.27 L1623.31 1070.27 L1639.31 1102.27 L1655.31 1070.27 Z" fill="#ac8d18" fill-rule="evenodd" fill-opacity="1" stroke="#000000" stroke-opacity="1" stroke-width="3.072"/>
<path clip-path="url(#clip782)" d="M1386.8 1049.33 L1354.8 1049.33 L1370.8 1081.33 L1386.8 1049.33 Z" fill="#ac8d18" fill-rule="evenodd" fill-opacity="1" stroke="#000000" stroke-opacity="1" stroke-width="3.072"/>
<path clip-path="url(#clip782)" d="M1613.26 1026.18 L1581.26 1026.18 L1597.26 1058.18 L1613.26 1026.18 Z" fill="#ac8d18" fill-rule="evenodd" fill-opacity="1" stroke="#000000" stroke-opacity="1" stroke-width="3.072"/>
<polyline clip-path="url(#clip782)" style="stroke:#00a9ad; stroke-linecap:butt; stroke-linejoin:round; stroke-width:12; stroke-opacity:1; fill:none" points="
  2199.99,1079.76 1792.18,1061.16 1645.68,1032.14 1703.44,1002.08 1566.58,976.141 
  "/>
<path clip-path="url(#clip782)" d="M2199.99 1063.76 L2187.47 1069.8 L2184.39 1083.33 L2193.04 1094.18 L2206.93 1094.18 L2215.59 1083.33 L2212.5 1069.8 Z" fill="#00a9ad" fill-rule="evenodd" fill-opacity="1" stroke="#000000" stroke-opacity="1" stroke-width="3.072"/>
<path clip-path="url(#clip782)" d="M1792.18 1045.16 L1779.67 1051.19 L1776.58 1064.73 L1785.23 1075.57 L1799.12 1075.57 L1807.78 1064.73 L1804.69 1051.19 Z" fill="#00a9ad" fill-rule="evenodd" fill-opacity="1" stroke="#000000" stroke-opacity="1" stroke-width="3.072"/>
<path clip-path="url(#clip782)" d="M1645.68 1016.14 L1633.17 1022.17 L1630.08 1035.71 L1638.74 1046.55 L1652.63 1046.55 L1661.28 1035.71 L1658.19 1022.17 Z" fill="#00a9ad" fill-rule="evenodd" fill-opacity="1" stroke="#000000" stroke-opacity="1" stroke-width="3.072"/>
<path clip-path="url(#clip782)" d="M1703.44 986.084 L1690.93 992.116 L1687.84 1005.65 L1696.5 1016.5 L1710.38 1016.5 L1719.04 1005.65 L1715.95 992.116 Z" fill="#00a9ad" fill-rule="evenodd" fill-opacity="1" stroke="#000000" stroke-opacity="1" stroke-width="3.072"/>
<path clip-path="url(#clip782)" d="M1566.58 960.141 L1554.07 966.173 L1550.98 979.709 L1559.64 990.557 L1573.52 990.557 L1582.18 979.709 L1579.09 966.173 Z" fill="#00a9ad" fill-rule="evenodd" fill-opacity="1" stroke="#000000" stroke-opacity="1" stroke-width="3.072"/>
<polyline clip-path="url(#clip782)" style="stroke:#ed5d92; stroke-linecap:butt; stroke-linejoin:round; stroke-width:12; stroke-opacity:1; fill:none" points="
  1138.48,329.963 868.619,158.168 715.445,184.388 508.258,199.985 639.739,84.0448 
  "/>
<path clip-path="url(#clip782)" d="M1138.48 345.963 L1124.62 337.963 L1124.62 321.963 L1138.48 313.963 L1152.33 321.963 L1152.33 337.963 Z" fill="#ed5d92" fill-rule="evenodd" fill-opacity="1" stroke="#000000" stroke-opacity="1" stroke-width="3.072"/>
<path clip-path="url(#clip782)" d="M868.619 174.168 L854.763 166.168 L854.763 150.168 L868.619 142.168 L882.475 150.168 L882.475 166.168 Z" fill="#ed5d92" fill-rule="evenodd" fill-opacity="1" stroke="#000000" stroke-opacity="1" stroke-width="3.072"/>
<path clip-path="url(#clip782)" d="M715.445 200.388 L701.589 192.388 L701.589 176.388 L715.445 168.388 L729.301 176.388 L729.301 192.388 Z" fill="#ed5d92" fill-rule="evenodd" fill-opacity="1" stroke="#000000" stroke-opacity="1" stroke-width="3.072"/>
<path clip-path="url(#clip782)" d="M508.258 215.985 L494.402 207.985 L494.402 191.985 L508.258 183.985 L522.114 191.985 L522.114 207.985 Z" fill="#ed5d92" fill-rule="evenodd" fill-opacity="1" stroke="#000000" stroke-opacity="1" stroke-width="3.072"/>
<path clip-path="url(#clip782)" d="M639.739 100.045 L625.883 92.0448 L625.883 76.0448 L639.739 68.0448 L653.595 76.0448 L653.595 92.0448 Z" fill="#ed5d92" fill-rule="evenodd" fill-opacity="1" stroke="#000000" stroke-opacity="1" stroke-width="3.072"/>
<polyline clip-path="url(#clip782)" style="stroke:#c68125; stroke-linecap:butt; stroke-linejoin:round; stroke-width:12; stroke-opacity:1; fill:none" points="
  1152.21,1251.08 970.568,1173.11 779.354,1075.45 597.871,958.623 413.03,824.721 
  "/>
<line clip-path="url(#clip782)" x1="1168.21" y1="1251.08" x2="1136.21" y2="1251.08" style="stroke:#c68125; stroke-width:3.072; stroke-opacity:1"/>
<line clip-path="url(#clip782)" x1="986.568" y1="1173.11" x2="954.568" y2="1173.11" style="stroke:#c68125; stroke-width:3.072; stroke-opacity:1"/>
<line clip-path="url(#clip782)" x1="795.354" y1="1075.45" x2="763.354" y2="1075.45" style="stroke:#c68125; stroke-width:3.072; stroke-opacity:1"/>
<line clip-path="url(#clip782)" x1="613.871" y1="958.623" x2="581.871" y2="958.623" style="stroke:#c68125; stroke-width:3.072; stroke-opacity:1"/>
<line clip-path="url(#clip782)" x1="429.03" y1="824.721" x2="397.03" y2="824.721" style="stroke:#c68125; stroke-width:3.072; stroke-opacity:1"/>
<polyline clip-path="url(#clip782)" style="stroke:#00a98d; stroke-linecap:butt; stroke-linejoin:round; stroke-width:12; stroke-opacity:1; fill:none" points="
  1107.98,1013.56 849.881,978.065 776.418,944.345 528.361,905.73 307.652,878.595 
  "/>
<path clip-path="url(#clip782)" d="M1095.18 1013.56 L1114.38 1024.76 L1114.38 1002.36 L1095.18 1013.56 Z" fill="#00a98d" fill-rule="evenodd" fill-opacity="1" stroke="#000000" stroke-opacity="1" stroke-width="3.072"/>
<path clip-path="url(#clip782)" d="M837.081 978.065 L856.281 989.265 L856.281 966.865 L837.081 978.065 Z" fill="#00a98d" fill-rule="evenodd" fill-opacity="1" stroke="#000000" stroke-opacity="1" stroke-width="3.072"/>
<path clip-path="url(#clip782)" d="M763.618 944.345 L782.818 955.545 L782.818 933.145 L763.618 944.345 Z" fill="#00a98d" fill-rule="evenodd" fill-opacity="1" stroke="#000000" stroke-opacity="1" stroke-width="3.072"/>
<path clip-path="url(#clip782)" d="M515.561 905.73 L534.761 916.93 L534.761 894.53 L515.561 905.73 Z" fill="#00a98d" fill-rule="evenodd" fill-opacity="1" stroke="#000000" stroke-opacity="1" stroke-width="3.072"/>
<path clip-path="url(#clip782)" d="M294.852 878.595 L314.052 889.795 L314.052 867.395 L294.852 878.595 Z" fill="#00a98d" fill-rule="evenodd" fill-opacity="1" stroke="#000000" stroke-opacity="1" stroke-width="3.072"/>
<polyline clip-path="url(#clip782)" style="stroke:#8e971d; stroke-linecap:butt; stroke-linejoin:round; stroke-width:12; stroke-opacity:1; fill:none" points="
  1295.33,1310.74 1079.03,1238.21 856.809,1165.58 748.1,1099.93 587.806,982.794 
  "/>
<path clip-path="url(#clip782)" d="M1295.33 1326.74 L1284.02 1322.05 L1279.33 1310.74 L1284.02 1299.42 L1295.33 1294.74 L1306.64 1299.42 L1311.33 1310.74 L1306.64 1322.05 Z" fill="#8e971d" fill-rule="evenodd" fill-opacity="1" stroke="#000000" stroke-opacity="1" stroke-width="3.072"/>
<path clip-path="url(#clip782)" d="M1079.03 1254.21 L1067.72 1249.52 L1063.03 1238.21 L1067.72 1226.9 L1079.03 1222.21 L1090.34 1226.9 L1095.03 1238.21 L1090.34 1249.52 Z" fill="#8e971d" fill-rule="evenodd" fill-opacity="1" stroke="#000000" stroke-opacity="1" stroke-width="3.072"/>
<path clip-path="url(#clip782)" d="M856.809 1181.58 L845.497 1176.89 L840.809 1165.58 L845.497 1154.27 L856.809 1149.58 L868.121 1154.27 L872.809 1165.58 L868.121 1176.89 Z" fill="#8e971d" fill-rule="evenodd" fill-opacity="1" stroke="#000000" stroke-opacity="1" stroke-width="3.072"/>
<path clip-path="url(#clip782)" d="M748.1 1115.93 L736.788 1111.24 L732.1 1099.93 L736.788 1088.61 L748.1 1083.93 L759.412 1088.61 L764.1 1099.93 L759.412 1111.24 Z" fill="#8e971d" fill-rule="evenodd" fill-opacity="1" stroke="#000000" stroke-opacity="1" stroke-width="3.072"/>
<path clip-path="url(#clip782)" d="M587.806 998.794 L576.494 994.106 L571.806 982.794 L576.494 971.482 L587.806 966.794 L599.118 971.482 L603.806 982.794 L599.118 994.106 Z" fill="#8e971d" fill-rule="evenodd" fill-opacity="1" stroke="#000000" stroke-opacity="1" stroke-width="3.072"/>
<path clip-path="url(#clip780)" d="
M1683.96 660.827 L2189.89 660.827 L2189.89 90.5872 L1683.96 90.5872  Z
  " fill="#ffffff" fill-rule="evenodd" fill-opacity="1"/>
<polyline clip-path="url(#clip780)" style="stroke:#000000; stroke-linecap:butt; stroke-linejoin:round; stroke-width:4; stroke-opacity:1; fill:none" points="
  1683.96,660.827 2189.89,660.827 2189.89,90.5872 1683.96,90.5872 1683.96,660.827 
  "/>
<polyline clip-path="url(#clip780)" style="stroke:#009af9; stroke-linecap:butt; stroke-linejoin:round; stroke-width:4; stroke-opacity:1; fill:none" points="
  1706.25,142.427 1839.98,142.427 
  "/>
<line clip-path="url(#clip780)" x1="1773.11" y1="142.427" x2="1773.11" y2="116.827" style="stroke:#009af9; stroke-width:4.9152; stroke-opacity:1"/>
<line clip-path="url(#clip780)" x1="1773.11" y1="142.427" x2="1747.51" y2="142.427" style="stroke:#009af9; stroke-width:4.9152; stroke-opacity:1"/>
<line clip-path="url(#clip780)" x1="1773.11" y1="142.427" x2="1773.11" y2="168.027" style="stroke:#009af9; stroke-width:4.9152; stroke-opacity:1"/>
<line clip-path="url(#clip780)" x1="1773.11" y1="142.427" x2="1798.71" y2="142.427" style="stroke:#009af9; stroke-width:4.9152; stroke-opacity:1"/>
<path clip-path="url(#clip780)" d="M1878.65 143.504 Q1880.16 144.013 1881.57 145.679 Q1883.01 147.346 1884.44 150.263 L1889.19 159.707 L1884.16 159.707 L1879.74 150.841 Q1878.03 147.369 1876.41 146.235 Q1874.81 145.101 1872.03 145.101 L1866.94 145.101 L1866.94 159.707 L1862.26 159.707 L1862.26 125.147 L1872.82 125.147 Q1878.75 125.147 1881.66 127.624 Q1884.58 130.101 1884.58 135.101 Q1884.58 138.365 1883.05 140.517 Q1881.55 142.67 1878.65 143.504 M1866.94 128.99 L1866.94 141.258 L1872.82 141.258 Q1876.2 141.258 1877.91 139.707 Q1879.65 138.133 1879.65 135.101 Q1879.65 132.068 1877.91 130.541 Q1876.2 128.99 1872.82 128.99 L1866.94 128.99 Z" fill="#000000" fill-rule="evenodd" fill-opacity="1" /><path clip-path="url(#clip780)" d="M1902.94 136.767 Q1899.51 136.767 1897.52 139.453 Q1895.53 142.115 1895.53 146.767 Q1895.53 151.42 1897.5 154.105 Q1899.49 156.767 1902.94 156.767 Q1906.34 156.767 1908.33 154.082 Q1910.32 151.397 1910.32 146.767 Q1910.32 142.161 1908.33 139.476 Q1906.34 136.767 1902.94 136.767 M1902.94 133.156 Q1908.49 133.156 1911.66 136.767 Q1914.83 140.379 1914.83 146.767 Q1914.83 153.133 1911.66 156.767 Q1908.49 160.378 1902.94 160.378 Q1897.36 160.378 1894.19 156.767 Q1891.04 153.133 1891.04 146.767 Q1891.04 140.379 1894.19 136.767 Q1897.36 133.156 1902.94 133.156 Z" fill="#000000" fill-rule="evenodd" fill-opacity="1" /><path clip-path="url(#clip780)" d="M1938.95 137.717 L1938.95 123.689 L1943.21 123.689 L1943.21 159.707 L1938.95 159.707 L1938.95 155.818 Q1937.61 158.133 1935.55 159.267 Q1933.51 160.378 1930.64 160.378 Q1925.94 160.378 1922.98 156.628 Q1920.04 152.879 1920.04 146.767 Q1920.04 140.656 1922.98 136.906 Q1925.94 133.156 1930.64 133.156 Q1933.51 133.156 1935.55 134.291 Q1937.61 135.402 1938.95 137.717 M1924.44 146.767 Q1924.44 151.466 1926.36 154.152 Q1928.31 156.814 1931.69 156.814 Q1935.06 156.814 1937.01 154.152 Q1938.95 151.466 1938.95 146.767 Q1938.95 142.068 1937.01 139.406 Q1935.06 136.721 1931.69 136.721 Q1928.31 136.721 1926.36 139.406 Q1924.44 142.068 1924.44 146.767 Z" fill="#000000" fill-rule="evenodd" fill-opacity="1" /><path clip-path="url(#clip780)" d="M1963.77 146.675 Q1958.61 146.675 1956.62 147.855 Q1954.63 149.036 1954.63 151.883 Q1954.63 154.152 1956.11 155.494 Q1957.61 156.814 1960.18 156.814 Q1963.72 156.814 1965.85 154.314 Q1968 151.791 1968 147.624 L1968 146.675 L1963.77 146.675 M1972.26 144.916 L1972.26 159.707 L1968 159.707 L1968 155.772 Q1966.55 158.133 1964.37 159.267 Q1962.19 160.378 1959.05 160.378 Q1955.06 160.378 1952.7 158.156 Q1950.37 155.911 1950.37 152.161 Q1950.37 147.786 1953.28 145.564 Q1956.22 143.342 1962.03 143.342 L1968 143.342 L1968 142.925 Q1968 139.985 1966.06 138.388 Q1964.14 136.767 1960.64 136.767 Q1958.42 136.767 1956.31 137.3 Q1954.21 137.832 1952.26 138.897 L1952.26 134.962 Q1954.6 134.059 1956.8 133.619 Q1959 133.156 1961.08 133.156 Q1966.71 133.156 1969.49 136.073 Q1972.26 138.99 1972.26 144.916 Z" fill="#000000" fill-rule="evenodd" fill-opacity="1" /><path clip-path="url(#clip780)" d="M1997.56 134.545 L1997.56 138.573 Q1995.76 137.647 1993.81 137.184 Q1991.87 136.721 1989.79 136.721 Q1986.62 136.721 1985.02 137.693 Q1983.44 138.666 1983.44 140.61 Q1983.44 142.092 1984.58 142.948 Q1985.71 143.781 1989.14 144.545 L1990.6 144.869 Q1995.13 145.842 1997.03 147.624 Q1998.95 149.383 1998.95 152.554 Q1998.95 156.166 1996.08 158.272 Q1993.24 160.378 1988.24 160.378 Q1986.15 160.378 1983.88 159.962 Q1981.64 159.568 1979.14 158.758 L1979.14 154.36 Q1981.5 155.587 1983.79 156.212 Q1986.08 156.814 1988.33 156.814 Q1991.34 156.814 1992.96 155.795 Q1994.58 154.754 1994.58 152.879 Q1994.58 151.142 1993.4 150.216 Q1992.24 149.291 1988.28 148.434 L1986.8 148.087 Q1982.84 147.254 1981.08 145.541 Q1979.32 143.804 1979.32 140.795 Q1979.32 137.138 1981.92 135.147 Q1984.51 133.156 1989.28 133.156 Q1991.64 133.156 1993.72 133.504 Q1995.81 133.851 1997.56 134.545 Z" fill="#000000" fill-rule="evenodd" fill-opacity="1" /><path clip-path="url(#clip780)" d="M2020.5 141.073 Q2023.86 141.791 2025.74 144.059 Q2027.63 146.328 2027.63 149.661 Q2027.63 154.777 2024.12 157.578 Q2020.6 160.378 2014.12 160.378 Q2011.94 160.378 2009.62 159.939 Q2007.33 159.522 2004.88 158.666 L2004.88 154.152 Q2006.82 155.286 2009.14 155.865 Q2011.45 156.443 2013.98 156.443 Q2018.37 156.443 2020.67 154.707 Q2022.98 152.971 2022.98 149.661 Q2022.98 146.605 2020.83 144.892 Q2018.7 143.156 2014.88 143.156 L2010.85 143.156 L2010.85 139.314 L2015.06 139.314 Q2018.51 139.314 2020.34 137.948 Q2022.17 136.559 2022.17 133.967 Q2022.17 131.305 2020.27 129.893 Q2018.4 128.457 2014.88 128.457 Q2012.96 128.457 2010.76 128.874 Q2008.56 129.291 2005.92 130.17 L2005.92 126.004 Q2008.58 125.263 2010.9 124.893 Q2013.24 124.522 2015.3 124.522 Q2020.62 124.522 2023.72 126.953 Q2026.82 129.36 2026.82 133.48 Q2026.82 136.351 2025.18 138.342 Q2023.54 140.309 2020.5 141.073 Z" fill="#000000" fill-rule="evenodd" fill-opacity="1" /><polyline clip-path="url(#clip780)" style="stroke:#e26f46; stroke-linecap:butt; stroke-linejoin:round; stroke-width:4; stroke-opacity:1; fill:none" points="
  1706.25,194.267 1839.98,194.267 
  "/>
<circle clip-path="url(#clip780)" cx="1773.11" cy="194.267" r="23" fill="#e26f46" fill-rule="evenodd" fill-opacity="1" stroke="#000000" stroke-opacity="1" stroke-width="4.9152"/>
<path clip-path="url(#clip780)" d="M1862.26 176.987 L1866.94 176.987 L1866.94 191.594 L1882.45 176.987 L1888.47 176.987 L1871.32 193.098 L1889.69 211.547 L1883.54 211.547 L1866.94 194.904 L1866.94 211.547 L1862.26 211.547 L1862.26 176.987 Z" fill="#000000" fill-rule="evenodd" fill-opacity="1" /><path clip-path="url(#clip780)" d="M1890.11 185.621 L1894.63 185.621 L1902.73 207.381 L1910.83 185.621 L1915.34 185.621 L1905.62 211.547 L1899.83 211.547 L1890.11 185.621 Z" fill="#000000" fill-rule="evenodd" fill-opacity="1" /><path clip-path="url(#clip780)" d="M1933 198.515 Q1927.84 198.515 1925.85 199.695 Q1923.86 200.876 1923.86 203.723 Q1923.86 205.992 1925.34 207.334 Q1926.85 208.654 1929.42 208.654 Q1932.96 208.654 1935.09 206.154 Q1937.24 203.631 1937.24 199.464 L1937.24 198.515 L1933 198.515 M1941.5 196.756 L1941.5 211.547 L1937.24 211.547 L1937.24 207.612 Q1935.78 209.973 1933.61 211.107 Q1931.43 212.218 1928.28 212.218 Q1924.3 212.218 1921.94 209.996 Q1919.6 207.751 1919.6 204.001 Q1919.6 199.626 1922.52 197.404 Q1925.46 195.182 1931.27 195.182 L1937.24 195.182 L1937.24 194.765 Q1937.24 191.825 1935.3 190.228 Q1933.38 188.607 1929.88 188.607 Q1927.66 188.607 1925.55 189.14 Q1923.44 189.672 1921.5 190.737 L1921.5 186.802 Q1923.84 185.899 1926.04 185.459 Q1928.24 184.996 1930.32 184.996 Q1935.94 184.996 1938.72 187.913 Q1941.5 190.83 1941.5 196.756 Z" fill="#000000" fill-rule="evenodd" fill-opacity="1" /><path clip-path="url(#clip780)" d="M1972.45 197.519 L1972.45 199.603 L1952.87 199.603 Q1953.14 204.001 1955.5 206.316 Q1957.89 208.607 1962.13 208.607 Q1964.58 208.607 1966.87 208.006 Q1969.19 207.404 1971.45 206.2 L1971.45 210.228 Q1969.16 211.2 1966.75 211.709 Q1964.35 212.218 1961.87 212.218 Q1955.67 212.218 1952.03 208.607 Q1948.42 204.996 1948.42 198.839 Q1948.42 192.473 1951.85 188.746 Q1955.3 184.996 1961.13 184.996 Q1966.36 184.996 1969.39 188.376 Q1972.45 191.732 1972.45 197.519 M1968.19 196.269 Q1968.14 192.774 1966.22 190.691 Q1964.32 188.607 1961.18 188.607 Q1957.61 188.607 1955.46 190.621 Q1953.33 192.635 1953 196.293 L1968.19 196.269 Z" fill="#000000" fill-rule="evenodd" fill-opacity="1" /><path clip-path="url(#clip780)" d="M1994.46 189.603 Q1993.75 189.186 1992.89 189.001 Q1992.06 188.793 1991.04 188.793 Q1987.43 188.793 1985.48 191.154 Q1983.56 193.492 1983.56 197.89 L1983.56 211.547 L1979.28 211.547 L1979.28 185.621 L1983.56 185.621 L1983.56 189.649 Q1984.9 187.288 1987.06 186.154 Q1989.21 184.996 1992.29 184.996 Q1992.73 184.996 1993.26 185.066 Q1993.79 185.112 1994.44 185.228 L1994.46 189.603 Z" fill="#000000" fill-rule="evenodd" fill-opacity="1" /><path clip-path="url(#clip780)" d="M2019.65 195.899 L2019.65 211.547 L2015.39 211.547 L2015.39 196.038 Q2015.39 192.357 2013.95 190.529 Q2012.52 188.7 2009.65 188.7 Q2006.2 188.7 2004.21 190.899 Q2002.22 193.098 2002.22 196.894 L2002.22 211.547 L1997.94 211.547 L1997.94 185.621 L2002.22 185.621 L2002.22 189.649 Q2003.75 187.311 2005.81 186.154 Q2007.89 184.996 2010.6 184.996 Q2015.06 184.996 2017.36 187.774 Q2019.65 190.529 2019.65 195.899 Z" fill="#000000" fill-rule="evenodd" fill-opacity="1" /><path clip-path="url(#clip780)" d="M2038.19 188.607 Q2034.76 188.607 2032.77 191.293 Q2030.78 193.955 2030.78 198.607 Q2030.78 203.26 2032.75 205.945 Q2034.74 208.607 2038.19 208.607 Q2041.59 208.607 2043.58 205.922 Q2045.57 203.237 2045.57 198.607 Q2045.57 194.001 2043.58 191.316 Q2041.59 188.607 2038.19 188.607 M2038.19 184.996 Q2043.74 184.996 2046.92 188.607 Q2050.09 192.219 2050.09 198.607 Q2050.09 204.973 2046.92 208.607 Q2043.74 212.218 2038.19 212.218 Q2032.61 212.218 2029.44 208.607 Q2026.29 204.973 2026.29 198.607 Q2026.29 192.219 2029.44 188.607 Q2032.61 184.996 2038.19 184.996 Z" fill="#000000" fill-rule="evenodd" fill-opacity="1" /><path clip-path="url(#clip780)" d="M2070.6 181.061 L2058.79 199.51 L2070.6 199.51 L2070.6 181.061 M2069.37 176.987 L2075.25 176.987 L2075.25 199.51 L2080.18 199.51 L2080.18 203.399 L2075.25 203.399 L2075.25 211.547 L2070.6 211.547 L2070.6 203.399 L2054.99 203.399 L2054.99 198.885 L2069.37 176.987 Z" fill="#000000" fill-rule="evenodd" fill-opacity="1" /><polyline clip-path="url(#clip780)" style="stroke:#3da44d; stroke-linecap:butt; stroke-linejoin:round; stroke-width:4; stroke-opacity:1; fill:none" points="
  1706.25,246.107 1839.98,246.107 
  "/>
<line clip-path="url(#clip780)" x1="1773.11" y1="246.107" x2="1773.11" y2="220.507" style="stroke:#3da44d; stroke-width:4.9152; stroke-opacity:1"/>
<line clip-path="url(#clip780)" x1="1773.11" y1="246.107" x2="1747.51" y2="246.107" style="stroke:#3da44d; stroke-width:4.9152; stroke-opacity:1"/>
<line clip-path="url(#clip780)" x1="1773.11" y1="246.107" x2="1773.11" y2="271.707" style="stroke:#3da44d; stroke-width:4.9152; stroke-opacity:1"/>
<line clip-path="url(#clip780)" x1="1773.11" y1="246.107" x2="1798.71" y2="246.107" style="stroke:#3da44d; stroke-width:4.9152; stroke-opacity:1"/>
<path clip-path="url(#clip780)" d="M1862.26 228.827 L1866.94 228.827 L1866.94 243.434 L1882.45 228.827 L1888.47 228.827 L1871.32 244.938 L1889.69 263.387 L1883.54 263.387 L1866.94 246.744 L1866.94 263.387 L1862.26 263.387 L1862.26 228.827 Z" fill="#000000" fill-rule="evenodd" fill-opacity="1" /><path clip-path="url(#clip780)" d="M1890.11 237.461 L1894.63 237.461 L1902.73 259.221 L1910.83 237.461 L1915.34 237.461 L1905.62 263.387 L1899.83 263.387 L1890.11 237.461 Z" fill="#000000" fill-rule="evenodd" fill-opacity="1" /><path clip-path="url(#clip780)" d="M1933 250.355 Q1927.84 250.355 1925.85 251.535 Q1923.86 252.716 1923.86 255.563 Q1923.86 257.832 1925.34 259.174 Q1926.85 260.494 1929.42 260.494 Q1932.96 260.494 1935.09 257.994 Q1937.24 255.471 1937.24 251.304 L1937.24 250.355 L1933 250.355 M1941.5 248.596 L1941.5 263.387 L1937.24 263.387 L1937.24 259.452 Q1935.78 261.813 1933.61 262.947 Q1931.43 264.058 1928.28 264.058 Q1924.3 264.058 1921.94 261.836 Q1919.6 259.591 1919.6 255.841 Q1919.6 251.466 1922.52 249.244 Q1925.46 247.022 1931.27 247.022 L1937.24 247.022 L1937.24 246.605 Q1937.24 243.665 1935.3 242.068 Q1933.38 240.447 1929.88 240.447 Q1927.66 240.447 1925.55 240.98 Q1923.44 241.512 1921.5 242.577 L1921.5 238.642 Q1923.84 237.739 1926.04 237.299 Q1928.24 236.836 1930.32 236.836 Q1935.94 236.836 1938.72 239.753 Q1941.5 242.67 1941.5 248.596 Z" fill="#000000" fill-rule="evenodd" fill-opacity="1" /><path clip-path="url(#clip780)" d="M1972.45 249.359 L1972.45 251.443 L1952.87 251.443 Q1953.14 255.841 1955.5 258.156 Q1957.89 260.447 1962.13 260.447 Q1964.58 260.447 1966.87 259.846 Q1969.19 259.244 1971.45 258.04 L1971.45 262.068 Q1969.16 263.04 1966.75 263.549 Q1964.35 264.058 1961.87 264.058 Q1955.67 264.058 1952.03 260.447 Q1948.42 256.836 1948.42 250.679 Q1948.42 244.313 1951.85 240.586 Q1955.3 236.836 1961.13 236.836 Q1966.36 236.836 1969.39 240.216 Q1972.45 243.572 1972.45 249.359 M1968.19 248.109 Q1968.14 244.614 1966.22 242.531 Q1964.32 240.447 1961.18 240.447 Q1957.61 240.447 1955.46 242.461 Q1953.33 244.475 1953 248.133 L1968.19 248.109 Z" fill="#000000" fill-rule="evenodd" fill-opacity="1" /><path clip-path="url(#clip780)" d="M1994.46 241.443 Q1993.75 241.026 1992.89 240.841 Q1992.06 240.633 1991.04 240.633 Q1987.43 240.633 1985.48 242.994 Q1983.56 245.332 1983.56 249.73 L1983.56 263.387 L1979.28 263.387 L1979.28 237.461 L1983.56 237.461 L1983.56 241.489 Q1984.9 239.128 1987.06 237.994 Q1989.21 236.836 1992.29 236.836 Q1992.73 236.836 1993.26 236.906 Q1993.79 236.952 1994.44 237.068 L1994.46 241.443 Z" fill="#000000" fill-rule="evenodd" fill-opacity="1" /><path clip-path="url(#clip780)" d="M2019.65 247.739 L2019.65 263.387 L2015.39 263.387 L2015.39 247.878 Q2015.39 244.197 2013.95 242.369 Q2012.52 240.54 2009.65 240.54 Q2006.2 240.54 2004.21 242.739 Q2002.22 244.938 2002.22 248.734 L2002.22 263.387 L1997.94 263.387 L1997.94 237.461 L2002.22 237.461 L2002.22 241.489 Q2003.75 239.151 2005.81 237.994 Q2007.89 236.836 2010.6 236.836 Q2015.06 236.836 2017.36 239.614 Q2019.65 242.369 2019.65 247.739 Z" fill="#000000" fill-rule="evenodd" fill-opacity="1" /><path clip-path="url(#clip780)" d="M2038.19 240.447 Q2034.76 240.447 2032.77 243.133 Q2030.78 245.795 2030.78 250.447 Q2030.78 255.1 2032.75 257.785 Q2034.74 260.447 2038.19 260.447 Q2041.59 260.447 2043.58 257.762 Q2045.57 255.077 2045.57 250.447 Q2045.57 245.841 2043.58 243.156 Q2041.59 240.447 2038.19 240.447 M2038.19 236.836 Q2043.74 236.836 2046.92 240.447 Q2050.09 244.059 2050.09 250.447 Q2050.09 256.813 2046.92 260.447 Q2043.74 264.058 2038.19 264.058 Q2032.61 264.058 2029.44 260.447 Q2026.29 256.813 2026.29 250.447 Q2026.29 244.059 2029.44 240.447 Q2032.61 236.836 2038.19 236.836 Z" fill="#000000" fill-rule="evenodd" fill-opacity="1" /><path clip-path="url(#clip780)" d="M2057.8 228.827 L2076.15 228.827 L2076.15 232.762 L2062.08 232.762 L2062.08 241.235 Q2063.1 240.887 2064.12 240.725 Q2065.13 240.54 2066.15 240.54 Q2071.94 240.54 2075.32 243.711 Q2078.7 246.883 2078.7 252.299 Q2078.7 257.878 2075.23 260.98 Q2071.75 264.058 2065.43 264.058 Q2063.26 264.058 2060.99 263.688 Q2058.74 263.318 2056.34 262.577 L2056.34 257.878 Q2058.42 259.012 2060.64 259.568 Q2062.87 260.123 2065.34 260.123 Q2069.35 260.123 2071.68 258.017 Q2074.02 255.91 2074.02 252.299 Q2074.02 248.688 2071.68 246.582 Q2069.35 244.475 2065.34 244.475 Q2063.47 244.475 2061.59 244.892 Q2059.74 245.309 2057.8 246.188 L2057.8 228.827 Z" fill="#000000" fill-rule="evenodd" fill-opacity="1" /><polyline clip-path="url(#clip780)" style="stroke:#c271d2; stroke-linecap:butt; stroke-linejoin:round; stroke-width:4; stroke-opacity:1; fill:none" points="
  1706.25,297.947 1839.98,297.947 
  "/>
<path clip-path="url(#clip780)" d="M1773.11 272.347 L1747.51 297.947 L1773.11 323.547 L1798.71 297.947 L1773.11 272.347 Z" fill="#c271d2" fill-rule="evenodd" fill-opacity="1" stroke="#000000" stroke-opacity="1" stroke-width="4.9152"/>
<path clip-path="url(#clip780)" d="M1890.13 283.329 L1890.13 288.26 Q1887.77 286.061 1885.09 284.973 Q1882.43 283.885 1879.42 283.885 Q1873.49 283.885 1870.34 287.519 Q1867.19 291.13 1867.19 297.982 Q1867.19 304.811 1870.34 308.445 Q1873.49 312.056 1879.42 312.056 Q1882.43 312.056 1885.09 310.968 Q1887.77 309.88 1890.13 307.681 L1890.13 312.565 Q1887.68 314.232 1884.93 315.065 Q1882.19 315.898 1879.14 315.898 Q1871.29 315.898 1866.78 311.107 Q1862.26 306.292 1862.26 297.982 Q1862.26 289.649 1866.78 284.857 Q1871.29 280.042 1879.14 280.042 Q1882.24 280.042 1884.97 280.876 Q1887.73 281.686 1890.13 283.329 Z" fill="#000000" fill-rule="evenodd" fill-opacity="1" /><path clip-path="url(#clip780)" d="M1906.27 315.227 L1893.07 280.667 L1897.96 280.667 L1908.91 309.764 L1919.88 280.667 L1924.74 280.667 L1911.57 315.227 L1906.27 315.227 Z" fill="#000000" fill-rule="evenodd" fill-opacity="1" /><path clip-path="url(#clip780)" d="M1942.98 283.838 Q1937.89 283.838 1934.88 287.635 Q1931.89 291.431 1931.89 297.982 Q1931.89 304.51 1934.88 308.306 Q1937.89 312.102 1942.98 312.102 Q1948.07 312.102 1951.04 308.306 Q1954.02 304.51 1954.02 297.982 Q1954.02 291.431 1951.04 287.635 Q1948.07 283.838 1942.98 283.838 M1942.98 280.042 Q1950.25 280.042 1954.6 284.926 Q1958.95 289.788 1958.95 297.982 Q1958.95 306.153 1954.6 311.037 Q1950.25 315.898 1942.98 315.898 Q1935.69 315.898 1931.32 311.037 Q1926.96 306.176 1926.96 297.982 Q1926.96 289.788 1931.32 284.926 Q1935.69 280.042 1942.98 280.042 Z" fill="#000000" fill-rule="evenodd" fill-opacity="1" /><path clip-path="url(#clip780)" d="M1970.94 284.51 L1970.94 311.385 L1976.59 311.385 Q1983.75 311.385 1987.06 308.144 Q1990.39 304.903 1990.39 297.912 Q1990.39 290.968 1987.06 287.75 Q1983.75 284.51 1976.59 284.51 L1970.94 284.51 M1966.27 280.667 L1975.87 280.667 Q1985.92 280.667 1990.62 284.857 Q1995.32 289.024 1995.32 297.912 Q1995.32 306.848 1990.6 311.037 Q1985.87 315.227 1975.87 315.227 L1966.27 315.227 L1966.27 280.667 Z" fill="#000000" fill-rule="evenodd" fill-opacity="1" /><path clip-path="url(#clip780)" d="M2002.77 280.667 L2024.62 280.667 L2024.62 284.602 L2007.45 284.602 L2007.45 294.834 L2023.91 294.834 L2023.91 298.769 L2007.45 298.769 L2007.45 311.292 L2025.04 311.292 L2025.04 315.227 L2002.77 315.227 L2002.77 280.667 Z" fill="#000000" fill-rule="evenodd" fill-opacity="1" /><path clip-path="url(#clip780)" d="M2052.24 323.098 L2052.24 326.408 L2027.61 326.408 L2027.61 323.098 L2052.24 323.098 Z" fill="#000000" fill-rule="evenodd" fill-opacity="1" /><path clip-path="url(#clip780)" d="M2061.11 298.723 L2061.11 311.385 L2068.61 311.385 Q2072.38 311.385 2074.18 309.834 Q2076.01 308.26 2076.01 305.042 Q2076.01 301.801 2074.18 300.274 Q2072.38 298.723 2068.61 298.723 L2061.11 298.723 M2061.11 284.51 L2061.11 294.926 L2068.03 294.926 Q2071.45 294.926 2073.12 293.653 Q2074.81 292.357 2074.81 289.718 Q2074.81 287.102 2073.12 285.806 Q2071.45 284.51 2068.03 284.51 L2061.11 284.51 M2056.43 280.667 L2068.37 280.667 Q2073.72 280.667 2076.62 282.889 Q2079.51 285.112 2079.51 289.209 Q2079.51 292.38 2078.03 294.255 Q2076.55 296.13 2073.68 296.593 Q2077.12 297.334 2079.02 299.695 Q2080.94 302.033 2080.94 305.551 Q2080.94 310.181 2077.8 312.704 Q2074.65 315.227 2068.84 315.227 L2056.43 315.227 L2056.43 280.667 Z" fill="#000000" fill-rule="evenodd" fill-opacity="1" /><path clip-path="url(#clip780)" d="M2093.63 284.51 L2093.63 311.385 L2099.28 311.385 Q2106.43 311.385 2109.74 308.144 Q2113.07 304.903 2113.07 297.912 Q2113.07 290.968 2109.74 287.75 Q2106.43 284.51 2099.28 284.51 L2093.63 284.51 M2088.95 280.667 L2098.56 280.667 Q2108.61 280.667 2113.3 284.857 Q2118 289.024 2118 297.912 Q2118 306.848 2113.28 311.037 Q2108.56 315.227 2098.56 315.227 L2088.95 315.227 L2088.95 280.667 Z" fill="#000000" fill-rule="evenodd" fill-opacity="1" /><path clip-path="url(#clip780)" d="M2125.46 280.667 L2145.32 280.667 L2145.32 284.602 L2130.13 284.602 L2130.13 294.787 L2143.84 294.787 L2143.84 298.723 L2130.13 298.723 L2130.13 315.227 L2125.46 315.227 L2125.46 280.667 Z" fill="#000000" fill-rule="evenodd" fill-opacity="1" /><polyline clip-path="url(#clip780)" style="stroke:#ac8d18; stroke-linecap:butt; stroke-linejoin:round; stroke-width:4; stroke-opacity:1; fill:none" points="
  1706.25,349.787 1839.98,349.787 
  "/>
<path clip-path="url(#clip780)" d="M1798.71 324.187 L1747.51 324.187 L1773.11 375.387 L1798.71 324.187 Z" fill="#ac8d18" fill-rule="evenodd" fill-opacity="1" stroke="#000000" stroke-opacity="1" stroke-width="4.9152"/>
<path clip-path="url(#clip780)" d="M1862.26 332.507 L1866.94 332.507 L1866.94 347.114 L1882.45 332.507 L1888.47 332.507 L1871.32 348.618 L1889.69 367.067 L1883.54 367.067 L1866.94 350.424 L1866.94 367.067 L1862.26 367.067 L1862.26 332.507 Z" fill="#000000" fill-rule="evenodd" fill-opacity="1" /><path clip-path="url(#clip780)" d="M1912.98 353.039 L1912.98 355.123 L1893.4 355.123 Q1893.68 359.521 1896.04 361.836 Q1898.42 364.127 1902.66 364.127 Q1905.11 364.127 1907.4 363.526 Q1909.72 362.924 1911.99 361.72 L1911.99 365.748 Q1909.69 366.72 1907.29 367.229 Q1904.88 367.738 1902.4 367.738 Q1896.2 367.738 1892.57 364.127 Q1888.95 360.516 1888.95 354.359 Q1888.95 347.993 1892.38 344.266 Q1895.83 340.516 1901.66 340.516 Q1906.89 340.516 1909.93 343.896 Q1912.98 347.252 1912.98 353.039 M1908.72 351.789 Q1908.68 348.294 1906.75 346.211 Q1904.86 344.127 1901.71 344.127 Q1898.14 344.127 1895.99 346.141 Q1893.86 348.155 1893.54 351.813 L1908.72 351.789 Z" fill="#000000" fill-rule="evenodd" fill-opacity="1" /><path clip-path="url(#clip780)" d="M1941.52 351.419 L1941.52 367.067 L1937.26 367.067 L1937.26 351.558 Q1937.26 347.877 1935.83 346.049 Q1934.39 344.22 1931.52 344.22 Q1928.07 344.22 1926.08 346.419 Q1924.09 348.618 1924.09 352.414 L1924.09 367.067 L1919.81 367.067 L1919.81 341.141 L1924.09 341.141 L1924.09 345.169 Q1925.62 342.831 1927.68 341.674 Q1929.76 340.516 1932.47 340.516 Q1936.94 340.516 1939.23 343.294 Q1941.52 346.049 1941.52 351.419 Z" fill="#000000" fill-rule="evenodd" fill-opacity="1" /><path clip-path="url(#clip780)" d="M1976.08 335.169 L1976.08 340.1 Q1973.72 337.901 1971.04 336.813 Q1968.37 335.725 1965.37 335.725 Q1959.44 335.725 1956.29 339.359 Q1953.14 342.97 1953.14 349.822 Q1953.14 356.651 1956.29 360.285 Q1959.44 363.896 1965.37 363.896 Q1968.37 363.896 1971.04 362.808 Q1973.72 361.72 1976.08 359.521 L1976.08 364.405 Q1973.63 366.072 1970.87 366.905 Q1968.14 367.738 1965.09 367.738 Q1957.24 367.738 1952.73 362.947 Q1948.21 358.132 1948.21 349.822 Q1948.21 341.489 1952.73 336.697 Q1957.24 331.882 1965.09 331.882 Q1968.19 331.882 1970.92 332.716 Q1973.68 333.526 1976.08 335.169 Z" fill="#000000" fill-rule="evenodd" fill-opacity="1" /><path clip-path="url(#clip780)" d="M1994.9 354.035 Q1989.74 354.035 1987.75 355.215 Q1985.76 356.396 1985.76 359.243 Q1985.76 361.512 1987.24 362.854 Q1988.75 364.174 1991.31 364.174 Q1994.86 364.174 1996.99 361.674 Q1999.14 359.151 1999.14 354.984 L1999.14 354.035 L1994.9 354.035 M2003.4 352.276 L2003.4 367.067 L1999.14 367.067 L1999.14 363.132 Q1997.68 365.493 1995.5 366.627 Q1993.33 367.738 1990.18 367.738 Q1986.2 367.738 1983.84 365.516 Q1981.5 363.271 1981.5 359.521 Q1981.5 355.146 1984.42 352.924 Q1987.36 350.702 1993.17 350.702 L1999.14 350.702 L1999.14 350.285 Q1999.14 347.345 1997.19 345.748 Q1995.27 344.127 1991.78 344.127 Q1989.56 344.127 1987.45 344.66 Q1985.34 345.192 1983.4 346.257 L1983.4 342.322 Q1985.74 341.419 1987.94 340.979 Q1990.13 340.516 1992.22 340.516 Q1997.84 340.516 2000.62 343.433 Q2003.4 346.35 2003.4 352.276 Z" fill="#000000" fill-rule="evenodd" fill-opacity="1" /><path clip-path="url(#clip780)" d="M2027.19 345.123 Q2026.48 344.706 2025.62 344.521 Q2024.79 344.313 2023.77 344.313 Q2020.16 344.313 2018.21 346.674 Q2016.29 349.012 2016.29 353.41 L2016.29 367.067 L2012.01 367.067 L2012.01 341.141 L2016.29 341.141 L2016.29 345.169 Q2017.63 342.808 2019.79 341.674 Q2021.94 340.516 2025.02 340.516 Q2025.46 340.516 2025.99 340.586 Q2026.52 340.632 2027.17 340.748 L2027.19 345.123 Z" fill="#000000" fill-rule="evenodd" fill-opacity="1" /><path clip-path="url(#clip780)" d="M2035.78 363.178 L2035.78 376.928 L2031.5 376.928 L2031.5 341.141 L2035.78 341.141 L2035.78 345.077 Q2037.12 342.762 2039.16 341.651 Q2041.22 340.516 2044.07 340.516 Q2048.79 340.516 2051.73 344.266 Q2054.69 348.016 2054.69 354.127 Q2054.69 360.239 2051.73 363.988 Q2048.79 367.738 2044.07 367.738 Q2041.22 367.738 2039.16 366.627 Q2037.12 365.493 2035.78 363.178 M2050.27 354.127 Q2050.27 349.428 2048.33 346.766 Q2046.41 344.081 2043.03 344.081 Q2039.65 344.081 2037.7 346.766 Q2035.78 349.428 2035.78 354.127 Q2035.78 358.826 2037.7 361.512 Q2039.65 364.174 2043.03 364.174 Q2046.41 364.174 2048.33 361.512 Q2050.27 358.826 2050.27 354.127 Z" fill="#000000" fill-rule="evenodd" fill-opacity="1" /><path clip-path="url(#clip780)" d="M2075.2 336.581 L2063.4 355.03 L2075.2 355.03 L2075.2 336.581 M2073.98 332.507 L2079.86 332.507 L2079.86 355.03 L2084.79 355.03 L2084.79 358.919 L2079.86 358.919 L2079.86 367.067 L2075.2 367.067 L2075.2 358.919 L2059.6 358.919 L2059.6 354.405 L2073.98 332.507 Z" fill="#000000" fill-rule="evenodd" fill-opacity="1" /><polyline clip-path="url(#clip780)" style="stroke:#00a9ad; stroke-linecap:butt; stroke-linejoin:round; stroke-width:4; stroke-opacity:1; fill:none" points="
  1706.25,401.627 1839.98,401.627 
  "/>
<path clip-path="url(#clip780)" d="M1773.11 376.027 L1753.1 385.678 L1748.15 407.336 L1762 424.693 L1784.22 424.693 L1798.07 407.336 L1793.13 385.678 Z" fill="#00a9ad" fill-rule="evenodd" fill-opacity="1" stroke="#000000" stroke-opacity="1" stroke-width="4.9152"/>
<path clip-path="url(#clip780)" d="M1862.26 384.347 L1866.94 384.347 L1866.94 398.954 L1882.45 384.347 L1888.47 384.347 L1871.32 400.458 L1889.69 418.907 L1883.54 418.907 L1866.94 402.264 L1866.94 418.907 L1862.26 418.907 L1862.26 384.347 Z" fill="#000000" fill-rule="evenodd" fill-opacity="1" /><path clip-path="url(#clip780)" d="M1912.98 404.879 L1912.98 406.963 L1893.4 406.963 Q1893.68 411.361 1896.04 413.676 Q1898.42 415.967 1902.66 415.967 Q1905.11 415.967 1907.4 415.366 Q1909.72 414.764 1911.99 413.56 L1911.99 417.588 Q1909.69 418.56 1907.29 419.069 Q1904.88 419.578 1902.4 419.578 Q1896.2 419.578 1892.57 415.967 Q1888.95 412.356 1888.95 406.199 Q1888.95 399.833 1892.38 396.106 Q1895.83 392.356 1901.66 392.356 Q1906.89 392.356 1909.93 395.736 Q1912.98 399.092 1912.98 404.879 M1908.72 403.629 Q1908.68 400.134 1906.75 398.051 Q1904.86 395.967 1901.71 395.967 Q1898.14 395.967 1895.99 397.981 Q1893.86 399.995 1893.54 403.653 L1908.72 403.629 Z" fill="#000000" fill-rule="evenodd" fill-opacity="1" /><path clip-path="url(#clip780)" d="M1941.52 403.259 L1941.52 418.907 L1937.26 418.907 L1937.26 403.398 Q1937.26 399.717 1935.83 397.889 Q1934.39 396.06 1931.52 396.06 Q1928.07 396.06 1926.08 398.259 Q1924.09 400.458 1924.09 404.254 L1924.09 418.907 L1919.81 418.907 L1919.81 392.981 L1924.09 392.981 L1924.09 397.009 Q1925.62 394.671 1927.68 393.514 Q1929.76 392.356 1932.47 392.356 Q1936.94 392.356 1939.23 395.134 Q1941.52 397.889 1941.52 403.259 Z" fill="#000000" fill-rule="evenodd" fill-opacity="1" /><path clip-path="url(#clip780)" d="M1976.08 387.009 L1976.08 391.94 Q1973.72 389.741 1971.04 388.653 Q1968.37 387.565 1965.37 387.565 Q1959.44 387.565 1956.29 391.199 Q1953.14 394.81 1953.14 401.662 Q1953.14 408.491 1956.29 412.125 Q1959.44 415.736 1965.37 415.736 Q1968.37 415.736 1971.04 414.648 Q1973.72 413.56 1976.08 411.361 L1976.08 416.245 Q1973.63 417.912 1970.87 418.745 Q1968.14 419.578 1965.09 419.578 Q1957.24 419.578 1952.73 414.787 Q1948.21 409.972 1948.21 401.662 Q1948.21 393.329 1952.73 388.537 Q1957.24 383.722 1965.09 383.722 Q1968.19 383.722 1970.92 384.556 Q1973.68 385.366 1976.08 387.009 Z" fill="#000000" fill-rule="evenodd" fill-opacity="1" /><path clip-path="url(#clip780)" d="M1994.9 405.875 Q1989.74 405.875 1987.75 407.055 Q1985.76 408.236 1985.76 411.083 Q1985.76 413.352 1987.24 414.694 Q1988.75 416.014 1991.31 416.014 Q1994.86 416.014 1996.99 413.514 Q1999.14 410.991 1999.14 406.824 L1999.14 405.875 L1994.9 405.875 M2003.4 404.116 L2003.4 418.907 L1999.14 418.907 L1999.14 414.972 Q1997.68 417.333 1995.5 418.467 Q1993.33 419.578 1990.18 419.578 Q1986.2 419.578 1983.84 417.356 Q1981.5 415.111 1981.5 411.361 Q1981.5 406.986 1984.42 404.764 Q1987.36 402.542 1993.17 402.542 L1999.14 402.542 L1999.14 402.125 Q1999.14 399.185 1997.19 397.588 Q1995.27 395.967 1991.78 395.967 Q1989.56 395.967 1987.45 396.5 Q1985.34 397.032 1983.4 398.097 L1983.4 394.162 Q1985.74 393.259 1987.94 392.819 Q1990.13 392.356 1992.22 392.356 Q1997.84 392.356 2000.62 395.273 Q2003.4 398.19 2003.4 404.116 Z" fill="#000000" fill-rule="evenodd" fill-opacity="1" /><path clip-path="url(#clip780)" d="M2027.19 396.963 Q2026.48 396.546 2025.62 396.361 Q2024.79 396.153 2023.77 396.153 Q2020.16 396.153 2018.21 398.514 Q2016.29 400.852 2016.29 405.25 L2016.29 418.907 L2012.01 418.907 L2012.01 392.981 L2016.29 392.981 L2016.29 397.009 Q2017.63 394.648 2019.79 393.514 Q2021.94 392.356 2025.02 392.356 Q2025.46 392.356 2025.99 392.426 Q2026.52 392.472 2027.17 392.588 L2027.19 396.963 Z" fill="#000000" fill-rule="evenodd" fill-opacity="1" /><path clip-path="url(#clip780)" d="M2035.78 415.018 L2035.78 428.768 L2031.5 428.768 L2031.5 392.981 L2035.78 392.981 L2035.78 396.917 Q2037.12 394.602 2039.16 393.491 Q2041.22 392.356 2044.07 392.356 Q2048.79 392.356 2051.73 396.106 Q2054.69 399.856 2054.69 405.967 Q2054.69 412.079 2051.73 415.828 Q2048.79 419.578 2044.07 419.578 Q2041.22 419.578 2039.16 418.467 Q2037.12 417.333 2035.78 415.018 M2050.27 405.967 Q2050.27 401.268 2048.33 398.606 Q2046.41 395.921 2043.03 395.921 Q2039.65 395.921 2037.7 398.606 Q2035.78 401.268 2035.78 405.967 Q2035.78 410.666 2037.7 413.352 Q2039.65 416.014 2043.03 416.014 Q2046.41 416.014 2048.33 413.352 Q2050.27 410.666 2050.27 405.967 Z" fill="#000000" fill-rule="evenodd" fill-opacity="1" /><path clip-path="url(#clip780)" d="M2062.4 384.347 L2080.76 384.347 L2080.76 388.282 L2066.68 388.282 L2066.68 396.755 Q2067.7 396.407 2068.72 396.245 Q2069.74 396.06 2070.76 396.06 Q2076.55 396.06 2079.93 399.231 Q2083.3 402.403 2083.3 407.819 Q2083.3 413.398 2079.83 416.5 Q2076.36 419.578 2070.04 419.578 Q2067.87 419.578 2065.6 419.208 Q2063.35 418.838 2060.94 418.097 L2060.94 413.398 Q2063.03 414.532 2065.25 415.088 Q2067.47 415.643 2069.95 415.643 Q2073.95 415.643 2076.29 413.537 Q2078.63 411.43 2078.63 407.819 Q2078.63 404.208 2076.29 402.102 Q2073.95 399.995 2069.95 399.995 Q2068.07 399.995 2066.2 400.412 Q2064.35 400.829 2062.4 401.708 L2062.4 384.347 Z" fill="#000000" fill-rule="evenodd" fill-opacity="1" /><polyline clip-path="url(#clip780)" style="stroke:#ed5d92; stroke-linecap:butt; stroke-linejoin:round; stroke-width:4; stroke-opacity:1; fill:none" points="
  1706.25,453.467 1839.98,453.467 
  "/>
<path clip-path="url(#clip780)" d="M1773.11 479.067 L1750.94 466.267 L1750.94 440.667 L1773.11 427.867 L1795.28 440.667 L1795.28 466.267 Z" fill="#ed5d92" fill-rule="evenodd" fill-opacity="1" stroke="#000000" stroke-opacity="1" stroke-width="4.9152"/>
<path clip-path="url(#clip780)" d="M1878.1 440.794 L1871.76 457.993 L1884.46 457.993 L1878.1 440.794 M1875.46 436.187 L1880.76 436.187 L1893.93 470.747 L1889.07 470.747 L1885.92 461.881 L1870.34 461.881 L1867.19 470.747 L1862.26 470.747 L1875.46 436.187 Z" fill="#000000" fill-rule="evenodd" fill-opacity="1" /><path clip-path="url(#clip780)" d="M1915.37 454.544 Q1916.87 455.053 1918.28 456.719 Q1919.72 458.386 1921.15 461.303 L1925.9 470.747 L1920.88 470.747 L1916.45 461.881 Q1914.74 458.409 1913.12 457.275 Q1911.52 456.141 1908.75 456.141 L1903.65 456.141 L1903.65 470.747 L1898.98 470.747 L1898.98 436.187 L1909.53 436.187 Q1915.46 436.187 1918.38 438.664 Q1921.29 441.141 1921.29 446.141 Q1921.29 449.405 1919.76 451.557 Q1918.26 453.71 1915.37 454.544 M1903.65 440.03 L1903.65 452.298 L1909.53 452.298 Q1912.91 452.298 1914.63 450.747 Q1916.36 449.173 1916.36 446.141 Q1916.36 443.108 1914.63 441.581 Q1912.91 440.03 1909.53 440.03 L1903.65 440.03 Z" fill="#000000" fill-rule="evenodd" fill-opacity="1" /><path clip-path="url(#clip780)" d="M1931.92 436.187 L1936.59 436.187 L1936.59 450.794 L1952.1 436.187 L1958.12 436.187 L1940.97 452.298 L1959.35 470.747 L1953.19 470.747 L1936.59 454.104 L1936.59 470.747 L1931.92 470.747 L1931.92 436.187 Z" fill="#000000" fill-rule="evenodd" fill-opacity="1" /><path clip-path="url(#clip780)" d="M1974.44 439.358 Q1969.35 439.358 1966.34 443.155 Q1963.35 446.951 1963.35 453.502 Q1963.35 460.03 1966.34 463.826 Q1969.35 467.622 1974.44 467.622 Q1979.53 467.622 1982.5 463.826 Q1985.48 460.03 1985.48 453.502 Q1985.48 446.951 1982.5 443.155 Q1979.53 439.358 1974.44 439.358 M1974.44 435.562 Q1981.71 435.562 1986.06 440.446 Q1990.41 445.308 1990.41 453.502 Q1990.41 461.673 1986.06 466.557 Q1981.71 471.418 1974.44 471.418 Q1967.15 471.418 1962.77 466.557 Q1958.42 461.696 1958.42 453.502 Q1958.42 445.308 1962.77 440.446 Q1967.15 435.562 1974.44 435.562 Z" fill="#000000" fill-rule="evenodd" fill-opacity="1" /><path clip-path="url(#clip780)" d="M2002.4 440.03 L2002.4 466.905 L2008.05 466.905 Q2015.2 466.905 2018.51 463.664 Q2021.85 460.423 2021.85 453.432 Q2021.85 446.488 2018.51 443.27 Q2015.2 440.03 2008.05 440.03 L2002.4 440.03 M1997.73 436.187 L2007.33 436.187 Q2017.38 436.187 2022.08 440.377 Q2026.78 444.544 2026.78 453.432 Q2026.78 462.368 2022.06 466.557 Q2017.33 470.747 2007.33 470.747 L1997.73 470.747 L1997.73 436.187 Z" fill="#000000" fill-rule="evenodd" fill-opacity="1" /><path clip-path="url(#clip780)" d="M2034.23 436.187 L2056.08 436.187 L2056.08 440.122 L2038.91 440.122 L2038.91 450.354 L2055.37 450.354 L2055.37 454.289 L2038.91 454.289 L2038.91 466.812 L2056.5 466.812 L2056.5 470.747 L2034.23 470.747 L2034.23 436.187 Z" fill="#000000" fill-rule="evenodd" fill-opacity="1" /><polyline clip-path="url(#clip780)" style="stroke:#c68125; stroke-linecap:butt; stroke-linejoin:round; stroke-width:4; stroke-opacity:1; fill:none" points="
  1706.25,505.307 1839.98,505.307 
  "/>
<line clip-path="url(#clip780)" x1="1798.71" y1="505.307" x2="1747.51" y2="505.307" style="stroke:#c68125; stroke-width:4.9152; stroke-opacity:1"/>
<path clip-path="url(#clip780)" d="M1878.65 506.384 Q1880.16 506.893 1881.57 508.559 Q1883.01 510.226 1884.44 513.143 L1889.19 522.587 L1884.16 522.587 L1879.74 513.721 Q1878.03 510.249 1876.41 509.115 Q1874.81 507.981 1872.03 507.981 L1866.94 507.981 L1866.94 522.587 L1862.26 522.587 L1862.26 488.027 L1872.82 488.027 Q1878.75 488.027 1881.66 490.504 Q1884.58 492.981 1884.58 497.981 Q1884.58 501.245 1883.05 503.397 Q1881.55 505.55 1878.65 506.384 M1866.94 491.87 L1866.94 504.138 L1872.82 504.138 Q1876.2 504.138 1877.91 502.587 Q1879.65 501.013 1879.65 497.981 Q1879.65 494.948 1877.91 493.421 Q1876.2 491.87 1872.82 491.87 L1866.94 491.87 Z" fill="#000000" fill-rule="evenodd" fill-opacity="1" /><path clip-path="url(#clip780)" d="M1902.94 499.647 Q1899.51 499.647 1897.52 502.333 Q1895.53 504.995 1895.53 509.647 Q1895.53 514.3 1897.5 516.985 Q1899.49 519.647 1902.94 519.647 Q1906.34 519.647 1908.33 516.962 Q1910.32 514.277 1910.32 509.647 Q1910.32 505.041 1908.33 502.356 Q1906.34 499.647 1902.94 499.647 M1902.94 496.036 Q1908.49 496.036 1911.66 499.647 Q1914.83 503.259 1914.83 509.647 Q1914.83 516.013 1911.66 519.647 Q1908.49 523.258 1902.94 523.258 Q1897.36 523.258 1894.19 519.647 Q1891.04 516.013 1891.04 509.647 Q1891.04 503.259 1894.19 499.647 Q1897.36 496.036 1902.94 496.036 Z" fill="#000000" fill-rule="evenodd" fill-opacity="1" /><path clip-path="url(#clip780)" d="M1938.95 500.597 L1938.95 486.569 L1943.21 486.569 L1943.21 522.587 L1938.95 522.587 L1938.95 518.698 Q1937.61 521.013 1935.55 522.147 Q1933.51 523.258 1930.64 523.258 Q1925.94 523.258 1922.98 519.508 Q1920.04 515.759 1920.04 509.647 Q1920.04 503.536 1922.98 499.786 Q1925.94 496.036 1930.64 496.036 Q1933.51 496.036 1935.55 497.171 Q1937.61 498.282 1938.95 500.597 M1924.44 509.647 Q1924.44 514.346 1926.36 517.032 Q1928.31 519.694 1931.69 519.694 Q1935.06 519.694 1937.01 517.032 Q1938.95 514.346 1938.95 509.647 Q1938.95 504.948 1937.01 502.286 Q1935.06 499.601 1931.69 499.601 Q1928.31 499.601 1926.36 502.286 Q1924.44 504.948 1924.44 509.647 Z" fill="#000000" fill-rule="evenodd" fill-opacity="1" /><path clip-path="url(#clip780)" d="M1963.77 509.555 Q1958.61 509.555 1956.62 510.735 Q1954.63 511.916 1954.63 514.763 Q1954.63 517.032 1956.11 518.374 Q1957.61 519.694 1960.18 519.694 Q1963.72 519.694 1965.85 517.194 Q1968 514.671 1968 510.504 L1968 509.555 L1963.77 509.555 M1972.26 507.796 L1972.26 522.587 L1968 522.587 L1968 518.652 Q1966.55 521.013 1964.37 522.147 Q1962.19 523.258 1959.05 523.258 Q1955.06 523.258 1952.7 521.036 Q1950.37 518.791 1950.37 515.041 Q1950.37 510.666 1953.28 508.444 Q1956.22 506.222 1962.03 506.222 L1968 506.222 L1968 505.805 Q1968 502.865 1966.06 501.268 Q1964.14 499.647 1960.64 499.647 Q1958.42 499.647 1956.31 500.18 Q1954.21 500.712 1952.26 501.777 L1952.26 497.842 Q1954.6 496.939 1956.8 496.499 Q1959 496.036 1961.08 496.036 Q1966.71 496.036 1969.49 498.953 Q1972.26 501.87 1972.26 507.796 Z" fill="#000000" fill-rule="evenodd" fill-opacity="1" /><path clip-path="url(#clip780)" d="M1997.56 497.425 L1997.56 501.453 Q1995.76 500.527 1993.81 500.064 Q1991.87 499.601 1989.79 499.601 Q1986.62 499.601 1985.02 500.573 Q1983.44 501.546 1983.44 503.49 Q1983.44 504.972 1984.58 505.828 Q1985.71 506.661 1989.14 507.425 L1990.6 507.749 Q1995.13 508.722 1997.03 510.504 Q1998.95 512.263 1998.95 515.434 Q1998.95 519.046 1996.08 521.152 Q1993.24 523.258 1988.24 523.258 Q1986.15 523.258 1983.88 522.842 Q1981.64 522.448 1979.14 521.638 L1979.14 517.24 Q1981.5 518.467 1983.79 519.092 Q1986.08 519.694 1988.33 519.694 Q1991.34 519.694 1992.96 518.675 Q1994.58 517.634 1994.58 515.759 Q1994.58 514.022 1993.4 513.096 Q1992.24 512.171 1988.28 511.314 L1986.8 510.967 Q1982.84 510.134 1981.08 508.421 Q1979.32 506.684 1979.32 503.675 Q1979.32 500.018 1981.92 498.027 Q1984.51 496.036 1989.28 496.036 Q1991.64 496.036 1993.72 496.384 Q1995.81 496.731 1997.56 497.425 Z" fill="#000000" fill-rule="evenodd" fill-opacity="1" /><path clip-path="url(#clip780)" d="M2019.18 492.101 L2007.38 510.55 L2019.18 510.55 L2019.18 492.101 M2017.96 488.027 L2023.84 488.027 L2023.84 510.55 L2028.77 510.55 L2028.77 514.439 L2023.84 514.439 L2023.84 522.587 L2019.18 522.587 L2019.18 514.439 L2003.58 514.439 L2003.58 509.925 L2017.96 488.027 Z" fill="#000000" fill-rule="evenodd" fill-opacity="1" /><polyline clip-path="url(#clip780)" style="stroke:#00a98d; stroke-linecap:butt; stroke-linejoin:round; stroke-width:4; stroke-opacity:1; fill:none" points="
  1706.25,557.147 1839.98,557.147 
  "/>
<path clip-path="url(#clip780)" d="M1752.63 557.147 L1783.35 575.067 L1783.35 539.227 L1752.63 557.147 Z" fill="#00a98d" fill-rule="evenodd" fill-opacity="1" stroke="#000000" stroke-opacity="1" stroke-width="4.9152"/>
<path clip-path="url(#clip780)" d="M1877.45 552.483 Q1876.73 552.066 1875.88 551.881 Q1875.04 551.673 1874.02 551.673 Q1870.41 551.673 1868.47 554.034 Q1866.55 556.372 1866.55 560.77 L1866.55 574.427 L1862.26 574.427 L1862.26 548.501 L1866.55 548.501 L1866.55 552.529 Q1867.89 550.168 1870.04 549.034 Q1872.19 547.876 1875.27 547.876 Q1875.71 547.876 1876.25 547.946 Q1876.78 547.992 1877.43 548.108 L1877.45 552.483 Z" fill="#000000" fill-rule="evenodd" fill-opacity="1" /><path clip-path="url(#clip780)" d="M1893.7 561.395 Q1888.54 561.395 1886.55 562.575 Q1884.56 563.756 1884.56 566.603 Q1884.56 568.872 1886.04 570.214 Q1887.54 571.534 1890.11 571.534 Q1893.65 571.534 1895.78 569.034 Q1897.94 566.511 1897.94 562.344 L1897.94 561.395 L1893.7 561.395 M1902.19 559.636 L1902.19 574.427 L1897.94 574.427 L1897.94 570.492 Q1896.48 572.853 1894.3 573.987 Q1892.13 575.098 1888.98 575.098 Q1885 575.098 1882.63 572.876 Q1880.3 570.631 1880.3 566.881 Q1880.3 562.506 1883.21 560.284 Q1886.15 558.062 1891.96 558.062 L1897.94 558.062 L1897.94 557.645 Q1897.94 554.705 1895.99 553.108 Q1894.07 551.487 1890.57 551.487 Q1888.35 551.487 1886.25 552.02 Q1884.14 552.552 1882.19 553.617 L1882.19 549.682 Q1884.53 548.779 1886.73 548.339 Q1888.93 547.876 1891.01 547.876 Q1896.64 547.876 1899.42 550.793 Q1902.19 553.71 1902.19 559.636 Z" fill="#000000" fill-rule="evenodd" fill-opacity="1" /><path clip-path="url(#clip780)" d="M1928.03 552.437 L1928.03 538.409 L1932.29 538.409 L1932.29 574.427 L1928.03 574.427 L1928.03 570.538 Q1926.69 572.853 1924.63 573.987 Q1922.59 575.098 1919.72 575.098 Q1915.02 575.098 1912.06 571.348 Q1909.12 567.599 1909.12 561.487 Q1909.12 555.376 1912.06 551.626 Q1915.02 547.876 1919.72 547.876 Q1922.59 547.876 1924.63 549.011 Q1926.69 550.122 1928.03 552.437 M1913.51 561.487 Q1913.51 566.186 1915.44 568.872 Q1917.38 571.534 1920.76 571.534 Q1924.14 571.534 1926.08 568.872 Q1928.03 566.186 1928.03 561.487 Q1928.03 556.788 1926.08 554.126 Q1924.14 551.441 1920.76 551.441 Q1917.38 551.441 1915.44 554.126 Q1913.51 556.788 1913.51 561.487 Z" fill="#000000" fill-rule="evenodd" fill-opacity="1" /><path clip-path="url(#clip780)" d="M1952.84 561.395 Q1947.68 561.395 1945.69 562.575 Q1943.7 563.756 1943.7 566.603 Q1943.7 568.872 1945.18 570.214 Q1946.69 571.534 1949.25 571.534 Q1952.8 571.534 1954.93 569.034 Q1957.08 566.511 1957.08 562.344 L1957.08 561.395 L1952.84 561.395 M1961.34 559.636 L1961.34 574.427 L1957.08 574.427 L1957.08 570.492 Q1955.62 572.853 1953.44 573.987 Q1951.27 575.098 1948.12 575.098 Q1944.14 575.098 1941.78 572.876 Q1939.44 570.631 1939.44 566.881 Q1939.44 562.506 1942.36 560.284 Q1945.3 558.062 1951.11 558.062 L1957.08 558.062 L1957.08 557.645 Q1957.08 554.705 1955.13 553.108 Q1953.21 551.487 1949.72 551.487 Q1947.5 551.487 1945.39 552.02 Q1943.28 552.552 1941.34 553.617 L1941.34 549.682 Q1943.68 548.779 1945.88 548.339 Q1948.07 547.876 1950.16 547.876 Q1955.78 547.876 1958.56 550.793 Q1961.34 553.71 1961.34 559.636 Z" fill="#000000" fill-rule="evenodd" fill-opacity="1" /><path clip-path="url(#clip780)" d="M1969.67 564.196 L1969.67 548.501 L1973.93 548.501 L1973.93 564.034 Q1973.93 567.714 1975.37 569.566 Q1976.8 571.395 1979.67 571.395 Q1983.12 571.395 1985.11 569.196 Q1987.12 566.997 1987.12 563.2 L1987.12 548.501 L1991.38 548.501 L1991.38 574.427 L1987.12 574.427 L1987.12 570.446 Q1985.57 572.807 1983.51 573.964 Q1981.48 575.098 1978.77 575.098 Q1974.3 575.098 1971.99 572.321 Q1969.67 569.543 1969.67 564.196 M1980.39 547.876 L1980.39 547.876 Z" fill="#000000" fill-rule="evenodd" fill-opacity="1" /><polyline clip-path="url(#clip780)" style="stroke:#8e971d; stroke-linecap:butt; stroke-linejoin:round; stroke-width:4; stroke-opacity:1; fill:none" points="
  1706.25,608.987 1839.98,608.987 
  "/>
<path clip-path="url(#clip780)" d="M1773.11 634.587 L1755.02 627.086 L1747.51 608.987 L1755.02 590.888 L1773.11 583.387 L1791.21 590.888 L1798.71 608.987 L1791.21 627.086 Z" fill="#8e971d" fill-rule="evenodd" fill-opacity="1" stroke="#000000" stroke-opacity="1" stroke-width="4.9152"/>
<path clip-path="url(#clip780)" d="M1878.65 610.064 Q1880.16 610.573 1881.57 612.239 Q1883.01 613.906 1884.44 616.823 L1889.19 626.267 L1884.16 626.267 L1879.74 617.401 Q1878.03 613.929 1876.41 612.795 Q1874.81 611.661 1872.03 611.661 L1866.94 611.661 L1866.94 626.267 L1862.26 626.267 L1862.26 591.707 L1872.82 591.707 Q1878.75 591.707 1881.66 594.184 Q1884.58 596.661 1884.58 601.661 Q1884.58 604.925 1883.05 607.077 Q1881.55 609.23 1878.65 610.064 M1866.94 595.55 L1866.94 607.818 L1872.82 607.818 Q1876.2 607.818 1877.91 606.267 Q1879.65 604.693 1879.65 601.661 Q1879.65 598.628 1877.91 597.101 Q1876.2 595.55 1872.82 595.55 L1866.94 595.55 Z" fill="#000000" fill-rule="evenodd" fill-opacity="1" /><path clip-path="url(#clip780)" d="M1902.94 603.327 Q1899.51 603.327 1897.52 606.013 Q1895.53 608.675 1895.53 613.327 Q1895.53 617.98 1897.5 620.665 Q1899.49 623.327 1902.94 623.327 Q1906.34 623.327 1908.33 620.642 Q1910.32 617.957 1910.32 613.327 Q1910.32 608.721 1908.33 606.036 Q1906.34 603.327 1902.94 603.327 M1902.94 599.716 Q1908.49 599.716 1911.66 603.327 Q1914.83 606.939 1914.83 613.327 Q1914.83 619.693 1911.66 623.327 Q1908.49 626.938 1902.94 626.938 Q1897.36 626.938 1894.19 623.327 Q1891.04 619.693 1891.04 613.327 Q1891.04 606.939 1894.19 603.327 Q1897.36 599.716 1902.94 599.716 Z" fill="#000000" fill-rule="evenodd" fill-opacity="1" /><path clip-path="url(#clip780)" d="M1938.95 604.277 L1938.95 590.249 L1943.21 590.249 L1943.21 626.267 L1938.95 626.267 L1938.95 622.378 Q1937.61 624.693 1935.55 625.827 Q1933.51 626.938 1930.64 626.938 Q1925.94 626.938 1922.98 623.188 Q1920.04 619.439 1920.04 613.327 Q1920.04 607.216 1922.98 603.466 Q1925.94 599.716 1930.64 599.716 Q1933.51 599.716 1935.55 600.851 Q1937.61 601.962 1938.95 604.277 M1924.44 613.327 Q1924.44 618.026 1926.36 620.712 Q1928.31 623.374 1931.69 623.374 Q1935.06 623.374 1937.01 620.712 Q1938.95 618.026 1938.95 613.327 Q1938.95 608.628 1937.01 605.966 Q1935.06 603.281 1931.69 603.281 Q1928.31 603.281 1926.36 605.966 Q1924.44 608.628 1924.44 613.327 Z" fill="#000000" fill-rule="evenodd" fill-opacity="1" /><path clip-path="url(#clip780)" d="M1963.77 613.235 Q1958.61 613.235 1956.62 614.415 Q1954.63 615.596 1954.63 618.443 Q1954.63 620.712 1956.11 622.054 Q1957.61 623.374 1960.18 623.374 Q1963.72 623.374 1965.85 620.874 Q1968 618.351 1968 614.184 L1968 613.235 L1963.77 613.235 M1972.26 611.476 L1972.26 626.267 L1968 626.267 L1968 622.332 Q1966.55 624.693 1964.37 625.827 Q1962.19 626.938 1959.05 626.938 Q1955.06 626.938 1952.7 624.716 Q1950.37 622.471 1950.37 618.721 Q1950.37 614.346 1953.28 612.124 Q1956.22 609.902 1962.03 609.902 L1968 609.902 L1968 609.485 Q1968 606.545 1966.06 604.948 Q1964.14 603.327 1960.64 603.327 Q1958.42 603.327 1956.31 603.86 Q1954.21 604.392 1952.26 605.457 L1952.26 601.522 Q1954.6 600.619 1956.8 600.179 Q1959 599.716 1961.08 599.716 Q1966.71 599.716 1969.49 602.633 Q1972.26 605.55 1972.26 611.476 Z" fill="#000000" fill-rule="evenodd" fill-opacity="1" /><path clip-path="url(#clip780)" d="M1997.56 601.105 L1997.56 605.133 Q1995.76 604.207 1993.81 603.744 Q1991.87 603.281 1989.79 603.281 Q1986.62 603.281 1985.02 604.253 Q1983.44 605.226 1983.44 607.17 Q1983.44 608.652 1984.58 609.508 Q1985.71 610.341 1989.14 611.105 L1990.6 611.429 Q1995.13 612.402 1997.03 614.184 Q1998.95 615.943 1998.95 619.114 Q1998.95 622.726 1996.08 624.832 Q1993.24 626.938 1988.24 626.938 Q1986.15 626.938 1983.88 626.522 Q1981.64 626.128 1979.14 625.318 L1979.14 620.92 Q1981.5 622.147 1983.79 622.772 Q1986.08 623.374 1988.33 623.374 Q1991.34 623.374 1992.96 622.355 Q1994.58 621.314 1994.58 619.439 Q1994.58 617.702 1993.4 616.776 Q1992.24 615.851 1988.28 614.994 L1986.8 614.647 Q1982.84 613.814 1981.08 612.101 Q1979.32 610.364 1979.32 607.355 Q1979.32 603.698 1981.92 601.707 Q1984.51 599.716 1989.28 599.716 Q1991.64 599.716 1993.72 600.064 Q1995.81 600.411 1997.56 601.105 Z" fill="#000000" fill-rule="evenodd" fill-opacity="1" /><path clip-path="url(#clip780)" d="M2006.38 591.707 L2024.74 591.707 L2024.74 595.642 L2010.67 595.642 L2010.67 604.115 Q2011.68 603.767 2012.7 603.605 Q2013.72 603.42 2014.74 603.42 Q2020.53 603.42 2023.91 606.591 Q2027.29 609.763 2027.29 615.179 Q2027.29 620.758 2023.81 623.86 Q2020.34 626.938 2014.02 626.938 Q2011.85 626.938 2009.58 626.568 Q2007.33 626.198 2004.93 625.457 L2004.93 620.758 Q2007.01 621.892 2009.23 622.448 Q2011.45 623.003 2013.93 623.003 Q2017.93 623.003 2020.27 620.897 Q2022.61 618.79 2022.61 615.179 Q2022.61 611.568 2020.27 609.462 Q2017.93 607.355 2013.93 607.355 Q2012.06 607.355 2010.18 607.772 Q2008.33 608.189 2006.38 609.068 L2006.38 591.707 Z" fill="#000000" fill-rule="evenodd" fill-opacity="1" /></svg>
