<?xml version="1.0" encoding="utf-8"?>
<svg xmlns="http://www.w3.org/2000/svg" xmlns:xlink="http://www.w3.org/1999/xlink" width="576" height="384" viewBox="0 0 2304 1536">
<defs>
  <clipPath id="clip860">
    <rect x="0" y="0" width="2304" height="1536"/>
  </clipPath>
</defs>
<path clip-path="url(#clip860)" d="
M0 1536 L2304 1536 L2304 0 L0 0  Z
  " fill="#ffffff" fill-rule="evenodd" fill-opacity="1"/>
<defs>
  <clipPath id="clip861">
    <rect x="460" y="0" width="1614" height="1536"/>
  </clipPath>
</defs>
<path clip-path="url(#clip860)" d="
M250.882 1347.54 L2256.76 1347.54 L2256.76 47.2441 L250.882 47.2441  Z
  " fill="#ffffff" fill-rule="evenodd" fill-opacity="1"/>
<defs>
  <clipPath id="clip862">
    <rect x="250" y="47" width="2007" height="1301"/>
  </clipPath>
</defs>
<polyline clip-path="url(#clip862)" style="stroke:#000000; stroke-linecap:butt; stroke-linejoin:round; stroke-width:2; stroke-opacity:0.1; fill:none" points="
  621.343,1347.54 621.343,47.2441 
  "/>
<polyline clip-path="url(#clip862)" style="stroke:#000000; stroke-linecap:butt; stroke-linejoin:round; stroke-width:2; stroke-opacity:0.1; fill:none" points="
  1177.91,1347.54 1177.91,47.2441 
  "/>
<polyline clip-path="url(#clip862)" style="stroke:#000000; stroke-linecap:butt; stroke-linejoin:round; stroke-width:2; stroke-opacity:0.1; fill:none" points="
  1734.48,1347.54 1734.48,47.2441 
  "/>
<polyline clip-path="url(#clip860)" style="stroke:#000000; stroke-linecap:butt; stroke-linejoin:round; stroke-width:4; stroke-opacity:1; fill:none" points="
  250.882,1347.54 2256.76,1347.54 
  "/>
<polyline clip-path="url(#clip860)" style="stroke:#000000; stroke-linecap:butt; stroke-linejoin:round; stroke-width:4; stroke-opacity:1; fill:none" points="
  621.343,1347.54 621.343,1328.64 
  "/>
<polyline clip-path="url(#clip860)" style="stroke:#000000; stroke-linecap:butt; stroke-linejoin:round; stroke-width:4; stroke-opacity:1; fill:none" points="
  1177.91,1347.54 1177.91,1328.64 
  "/>
<polyline clip-path="url(#clip860)" style="stroke:#000000; stroke-linecap:butt; stroke-linejoin:round; stroke-width:4; stroke-opacity:1; fill:none" points="
  1734.48,1347.54 1734.48,1328.64 
  "/>
<path clip-path="url(#clip860)" d="M570.998 1420.89 L578.636 1420.89 L578.636 1394.53 L570.326 1396.19 L570.326 1391.94 L578.59 1390.27 L583.266 1390.27 L583.266 1420.89 L590.905 1420.89 L590.905 1424.83 L570.998 1424.83 L570.998 1420.89 Z" fill="#000000" fill-rule="evenodd" fill-opacity="1" /><path clip-path="url(#clip860)" d="M610.349 1393.35 Q606.738 1393.35 604.909 1396.91 Q603.104 1400.45 603.104 1407.58 Q603.104 1414.69 604.909 1418.25 Q606.738 1421.8 610.349 1421.8 Q613.983 1421.8 615.789 1418.25 Q617.618 1414.69 617.618 1407.58 Q617.618 1400.45 615.789 1396.91 Q613.983 1393.35 610.349 1393.35 M610.349 1389.64 Q616.159 1389.64 619.215 1394.25 Q622.294 1398.83 622.294 1407.58 Q622.294 1416.31 619.215 1420.92 Q616.159 1425.5 610.349 1425.5 Q604.539 1425.5 601.46 1420.92 Q598.405 1416.31 598.405 1407.58 Q598.405 1398.83 601.46 1394.25 Q604.539 1389.64 610.349 1389.64 Z" fill="#000000" fill-rule="evenodd" fill-opacity="1" /><path clip-path="url(#clip860)" d="M622.294 1383.74 L646.405 1383.74 L646.405 1386.94 L622.294 1386.94 L622.294 1383.74 Z" fill="#000000" fill-rule="evenodd" fill-opacity="1" /><path clip-path="url(#clip860)" d="M662.73 1384.08 Q660.022 1384.08 658.461 1385.53 Q656.919 1386.98 656.919 1389.52 Q656.919 1392.06 658.461 1393.51 Q660.022 1394.95 662.73 1394.95 Q665.439 1394.95 667 1393.51 Q668.561 1392.04 668.561 1389.52 Q668.561 1386.98 667 1385.53 Q665.457 1384.08 662.73 1384.08 M658.931 1382.47 Q656.486 1381.86 655.113 1380.19 Q653.759 1378.52 653.759 1376.11 Q653.759 1372.74 656.148 1370.79 Q658.555 1368.83 662.73 1368.83 Q666.924 1368.83 669.313 1370.79 Q671.702 1372.74 671.702 1376.11 Q671.702 1378.52 670.329 1380.19 Q668.974 1381.86 666.548 1382.47 Q669.294 1383.11 670.818 1384.97 Q672.36 1386.83 672.36 1389.52 Q672.36 1393.6 669.858 1395.78 Q667.376 1397.96 662.73 1397.96 Q658.085 1397.96 655.583 1395.78 Q653.101 1393.6 653.101 1389.52 Q653.101 1386.83 654.643 1384.97 Q656.185 1383.11 658.931 1382.47 M657.539 1376.47 Q657.539 1378.65 658.893 1379.87 Q660.266 1381.09 662.73 1381.09 Q665.175 1381.09 666.548 1379.87 Q667.94 1378.65 667.94 1376.47 Q667.94 1374.28 666.548 1373.06 Q665.175 1371.84 662.73 1371.84 Q660.266 1371.84 658.893 1373.06 Q657.539 1374.28 657.539 1376.47 Z" fill="#000000" fill-rule="evenodd" fill-opacity="1" /><path clip-path="url(#clip860)" d="M1127.46 1420.89 L1135.1 1420.89 L1135.1 1394.53 L1126.79 1396.19 L1126.79 1391.94 L1135.06 1390.27 L1139.73 1390.27 L1139.73 1420.89 L1147.37 1420.89 L1147.37 1424.83 L1127.46 1424.83 L1127.46 1420.89 Z" fill="#000000" fill-rule="evenodd" fill-opacity="1" /><path clip-path="url(#clip860)" d="M1166.82 1393.35 Q1163.2 1393.35 1161.38 1396.91 Q1159.57 1400.45 1159.57 1407.58 Q1159.57 1414.69 1161.38 1418.25 Q1163.2 1421.8 1166.82 1421.8 Q1170.45 1421.8 1172.25 1418.25 Q1174.08 1414.69 1174.08 1407.58 Q1174.08 1400.45 1172.25 1396.91 Q1170.45 1393.35 1166.82 1393.35 M1166.82 1389.64 Q1172.63 1389.64 1175.68 1394.25 Q1178.76 1398.83 1178.76 1407.58 Q1178.76 1416.31 1175.68 1420.92 Q1172.63 1425.5 1166.82 1425.5 Q1161 1425.5 1157.93 1420.92 Q1154.87 1416.31 1154.87 1407.58 Q1154.87 1398.83 1157.93 1394.25 Q1161 1389.64 1166.82 1389.64 Z" fill="#000000" fill-rule="evenodd" fill-opacity="1" /><path clip-path="url(#clip860)" d="M1178.76 1383.74 L1202.87 1383.74 L1202.87 1386.94 L1178.76 1386.94 L1178.76 1383.74 Z" fill="#000000" fill-rule="evenodd" fill-opacity="1" /><path clip-path="url(#clip860)" d="M1219.67 1381.86 Q1217.11 1381.86 1215.6 1383.61 Q1214.12 1385.36 1214.12 1388.41 Q1214.12 1391.44 1215.6 1393.21 Q1217.11 1394.95 1219.67 1394.95 Q1222.22 1394.95 1223.71 1393.21 Q1225.21 1391.44 1225.21 1388.41 Q1225.21 1385.36 1223.71 1383.61 Q1222.22 1381.86 1219.67 1381.86 M1227.21 1369.96 L1227.21 1373.42 Q1225.78 1372.74 1224.31 1372.39 Q1222.86 1372.03 1221.43 1372.03 Q1217.67 1372.03 1215.68 1374.57 Q1213.7 1377.11 1213.42 1382.24 Q1214.53 1380.6 1216.21 1379.74 Q1217.88 1378.85 1219.89 1378.85 Q1224.12 1378.85 1226.57 1381.43 Q1229.03 1383.99 1229.03 1388.41 Q1229.03 1392.74 1226.47 1395.35 Q1223.92 1397.96 1219.67 1397.96 Q1214.8 1397.96 1212.22 1394.24 Q1209.64 1390.5 1209.64 1383.41 Q1209.64 1376.75 1212.8 1372.8 Q1215.96 1368.83 1221.28 1368.83 Q1222.71 1368.83 1224.16 1369.11 Q1225.63 1369.39 1227.21 1369.96 Z" fill="#000000" fill-rule="evenodd" fill-opacity="1" /><path clip-path="url(#clip860)" d="M1683.9 1420.89 L1691.54 1420.89 L1691.54 1394.53 L1683.23 1396.19 L1683.23 1391.94 L1691.49 1390.27 L1696.17 1390.27 L1696.17 1420.89 L1703.81 1420.89 L1703.81 1424.83 L1683.9 1424.83 L1683.9 1420.89 Z" fill="#000000" fill-rule="evenodd" fill-opacity="1" /><path clip-path="url(#clip860)" d="M1723.25 1393.35 Q1719.64 1393.35 1717.81 1396.91 Q1716.01 1400.45 1716.01 1407.58 Q1716.01 1414.69 1717.81 1418.25 Q1719.64 1421.8 1723.25 1421.8 Q1726.89 1421.8 1728.69 1418.25 Q1730.52 1414.69 1730.52 1407.58 Q1730.52 1400.45 1728.69 1396.91 Q1726.89 1393.35 1723.25 1393.35 M1723.25 1389.64 Q1729.06 1389.64 1732.12 1394.25 Q1735.2 1398.83 1735.2 1407.58 Q1735.2 1416.31 1732.12 1420.92 Q1729.06 1425.5 1723.25 1425.5 Q1717.44 1425.5 1714.36 1420.92 Q1711.31 1416.31 1711.31 1407.58 Q1711.31 1398.83 1714.36 1394.25 Q1717.44 1389.64 1723.25 1389.64 Z" fill="#000000" fill-rule="evenodd" fill-opacity="1" /><path clip-path="url(#clip860)" d="M1735.2 1383.74 L1759.31 1383.74 L1759.31 1386.94 L1735.2 1386.94 L1735.2 1383.74 Z" fill="#000000" fill-rule="evenodd" fill-opacity="1" /><path clip-path="url(#clip860)" d="M1777.95 1372.65 L1768.36 1387.64 L1777.95 1387.64 L1777.95 1372.65 M1776.95 1369.34 L1781.73 1369.34 L1781.73 1387.64 L1785.73 1387.64 L1785.73 1390.8 L1781.73 1390.8 L1781.73 1397.42 L1777.95 1397.42 L1777.95 1390.8 L1765.27 1390.8 L1765.27 1387.13 L1776.95 1369.34 Z" fill="#000000" fill-rule="evenodd" fill-opacity="1" /><path clip-path="url(#clip860)" d="M1177.57 1461.87 L1207.62 1461.87 L1207.62 1467.28 L1184 1467.28 L1184 1481.34 L1206.63 1481.34 L1206.63 1486.76 L1184 1486.76 L1184 1503.97 L1208.19 1503.97 L1208.19 1509.39 L1177.57 1509.39 L1177.57 1461.87 Z" fill="#000000" fill-rule="evenodd" fill-opacity="1" /><path clip-path="url(#clip860)" d="M1239.16 1479.21 Q1238.18 1478.64 1237 1478.38 Q1235.85 1478.1 1234.45 1478.1 Q1229.49 1478.1 1226.81 1481.34 Q1224.17 1484.56 1224.17 1490.61 L1224.17 1509.39 L1218.28 1509.39 L1218.28 1473.74 L1224.17 1473.74 L1224.17 1479.28 Q1226.02 1476.03 1228.98 1474.47 Q1231.94 1472.88 1236.17 1472.88 Q1236.77 1472.88 1237.51 1472.97 Q1238.24 1473.04 1239.13 1473.2 L1239.16 1479.21 Z" fill="#000000" fill-rule="evenodd" fill-opacity="1" /><path clip-path="url(#clip860)" d="M1264.82 1479.21 Q1263.83 1478.64 1262.65 1478.38 Q1261.51 1478.1 1260.11 1478.1 Q1255.14 1478.1 1252.47 1481.34 Q1249.82 1484.56 1249.82 1490.61 L1249.82 1509.39 L1243.94 1509.39 L1243.94 1473.74 L1249.82 1473.74 L1249.82 1479.28 Q1251.67 1476.03 1254.63 1474.47 Q1257.59 1472.88 1261.82 1472.88 Q1262.43 1472.88 1263.16 1472.97 Q1263.89 1473.04 1264.78 1473.2 L1264.82 1479.21 Z" fill="#000000" fill-rule="evenodd" fill-opacity="1" /><path clip-path="url(#clip860)" d="M1283.34 1477.84 Q1278.63 1477.84 1275.89 1481.54 Q1273.15 1485.2 1273.15 1491.59 Q1273.15 1497.99 1275.86 1501.68 Q1278.6 1505.34 1283.34 1505.34 Q1288.02 1505.34 1290.76 1501.65 Q1293.49 1497.96 1293.49 1491.59 Q1293.49 1485.26 1290.76 1481.57 Q1288.02 1477.84 1283.34 1477.84 M1283.34 1472.88 Q1290.98 1472.88 1295.34 1477.84 Q1299.7 1482.81 1299.7 1491.59 Q1299.7 1500.35 1295.34 1505.34 Q1290.98 1510.31 1283.34 1510.31 Q1275.67 1510.31 1271.31 1505.34 Q1266.98 1500.35 1266.98 1491.59 Q1266.98 1482.81 1271.31 1477.84 Q1275.67 1472.88 1283.34 1472.88 Z" fill="#000000" fill-rule="evenodd" fill-opacity="1" /><path clip-path="url(#clip860)" d="M1330.06 1479.21 Q1329.08 1478.64 1327.9 1478.38 Q1326.75 1478.1 1325.35 1478.1 Q1320.39 1478.1 1317.71 1481.34 Q1315.07 1484.56 1315.07 1490.61 L1315.07 1509.39 L1309.18 1509.39 L1309.18 1473.74 L1315.07 1473.74 L1315.07 1479.28 Q1316.92 1476.03 1319.88 1474.47 Q1322.84 1472.88 1327.07 1472.88 Q1327.68 1472.88 1328.41 1472.97 Q1329.14 1473.04 1330.03 1473.2 L1330.06 1479.21 Z" fill="#000000" fill-rule="evenodd" fill-opacity="1" /><polyline clip-path="url(#clip862)" style="stroke:#000000; stroke-linecap:butt; stroke-linejoin:round; stroke-width:2; stroke-opacity:0.1; fill:none" points="
  250.882,1284.8 2256.76,1284.8 
  "/>
<polyline clip-path="url(#clip862)" style="stroke:#000000; stroke-linecap:butt; stroke-linejoin:round; stroke-width:2; stroke-opacity:0.1; fill:none" points="
  250.882,728.572 2256.76,728.572 
  "/>
<polyline clip-path="url(#clip862)" style="stroke:#000000; stroke-linecap:butt; stroke-linejoin:round; stroke-width:2; stroke-opacity:0.1; fill:none" points="
  250.882,172.343 2256.76,172.343 
  "/>
<polyline clip-path="url(#clip860)" style="stroke:#000000; stroke-linecap:butt; stroke-linejoin:round; stroke-width:4; stroke-opacity:1; fill:none" points="
  250.882,1347.54 250.882,47.2441 
  "/>
<polyline clip-path="url(#clip860)" style="stroke:#000000; stroke-linecap:butt; stroke-linejoin:round; stroke-width:4; stroke-opacity:1; fill:none" points="
  250.882,1284.8 269.78,1284.8 
  "/>
<polyline clip-path="url(#clip860)" style="stroke:#000000; stroke-linecap:butt; stroke-linejoin:round; stroke-width:4; stroke-opacity:1; fill:none" points="
  250.882,728.572 269.78,728.572 
  "/>
<polyline clip-path="url(#clip860)" style="stroke:#000000; stroke-linecap:butt; stroke-linejoin:round; stroke-width:4; stroke-opacity:1; fill:none" points="
  250.882,172.343 269.78,172.343 
  "/>
<path clip-path="url(#clip860)" d="M115.411 1304.59 L123.05 1304.59 L123.05 1278.23 L114.74 1279.9 L114.74 1275.64 L123.004 1273.97 L127.68 1273.97 L127.68 1304.59 L135.319 1304.59 L135.319 1308.53 L115.411 1308.53 L115.411 1304.59 Z" fill="#000000" fill-rule="evenodd" fill-opacity="1" /><path clip-path="url(#clip860)" d="M154.763 1277.05 Q151.152 1277.05 149.323 1280.61 Q147.518 1284.15 147.518 1291.28 Q147.518 1298.39 149.323 1301.96 Q151.152 1305.5 154.763 1305.5 Q158.397 1305.5 160.203 1301.96 Q162.032 1298.39 162.032 1291.28 Q162.032 1284.15 160.203 1280.61 Q158.397 1277.05 154.763 1277.05 M154.763 1273.34 Q160.573 1273.34 163.629 1277.95 Q166.707 1282.53 166.707 1291.28 Q166.707 1300.01 163.629 1304.62 Q160.573 1309.2 154.763 1309.2 Q148.953 1309.2 145.874 1304.62 Q142.819 1300.01 142.819 1291.28 Q142.819 1282.53 145.874 1277.95 Q148.953 1273.34 154.763 1273.34 Z" fill="#000000" fill-rule="evenodd" fill-opacity="1" /><path clip-path="url(#clip860)" d="M166.707 1267.45 L190.819 1267.45 L190.819 1270.64 L166.707 1270.64 L166.707 1267.45 Z" fill="#000000" fill-rule="evenodd" fill-opacity="1" /><path clip-path="url(#clip860)" d="M210.53 1265.98 Q213.257 1266.56 214.78 1268.41 Q216.322 1270.25 216.322 1272.96 Q216.322 1277.11 213.464 1279.39 Q210.605 1281.66 205.339 1281.66 Q203.571 1281.66 201.69 1281.31 Q199.828 1280.97 197.834 1280.27 L197.834 1276.61 Q199.414 1277.53 201.295 1278 Q203.176 1278.47 205.226 1278.47 Q208.799 1278.47 210.661 1277.06 Q212.542 1275.65 212.542 1272.96 Q212.542 1270.47 210.793 1269.08 Q209.063 1267.67 205.959 1267.67 L202.687 1267.67 L202.687 1264.55 L206.11 1264.55 Q208.912 1264.55 210.398 1263.44 Q211.884 1262.31 211.884 1260.2 Q211.884 1258.04 210.341 1256.89 Q208.818 1255.73 205.959 1255.73 Q204.398 1255.73 202.612 1256.07 Q200.825 1256.41 198.681 1257.12 L198.681 1253.74 Q200.844 1253.13 202.724 1252.83 Q204.624 1252.53 206.298 1252.53 Q210.624 1252.53 213.144 1254.51 Q215.664 1256.46 215.664 1259.81 Q215.664 1262.14 214.329 1263.76 Q212.993 1265.36 210.53 1265.98 Z" fill="#000000" fill-rule="evenodd" fill-opacity="1" /><path clip-path="url(#clip860)" d="M116.183 748.365 L123.821 748.365 L123.821 721.999 L115.511 723.666 L115.511 719.407 L123.775 717.74 L128.451 717.74 L128.451 748.365 L136.09 748.365 L136.09 752.3 L116.183 752.3 L116.183 748.365 Z" fill="#000000" fill-rule="evenodd" fill-opacity="1" /><path clip-path="url(#clip860)" d="M155.534 720.819 Q151.923 720.819 150.094 724.383 Q148.289 727.925 148.289 735.055 Q148.289 742.161 150.094 745.726 Q151.923 749.268 155.534 749.268 Q159.168 749.268 160.974 745.726 Q162.803 742.161 162.803 735.055 Q162.803 727.925 160.974 724.383 Q159.168 720.819 155.534 720.819 M155.534 717.115 Q161.344 717.115 164.4 721.721 Q167.479 726.305 167.479 735.055 Q167.479 743.781 164.4 748.388 Q161.344 752.971 155.534 752.971 Q149.724 752.971 146.645 748.388 Q143.59 743.781 143.59 735.055 Q143.59 726.305 146.645 721.721 Q149.724 717.115 155.534 717.115 Z" fill="#000000" fill-rule="evenodd" fill-opacity="1" /><path clip-path="url(#clip860)" d="M167.479 711.216 L191.59 711.216 L191.59 714.414 L167.479 714.414 L167.479 711.216 Z" fill="#000000" fill-rule="evenodd" fill-opacity="1" /><path clip-path="url(#clip860)" d="M203.063 721.692 L216.322 721.692 L216.322 724.89 L198.493 724.89 L198.493 721.692 Q200.655 719.454 204.379 715.693 Q208.122 711.912 209.081 710.821 Q210.906 708.771 211.62 707.361 Q212.354 705.931 212.354 704.558 Q212.354 702.32 210.774 700.91 Q209.213 699.499 206.693 699.499 Q204.906 699.499 202.912 700.12 Q200.938 700.74 198.681 702 L198.681 698.164 Q200.975 697.242 202.969 696.772 Q204.962 696.302 206.618 696.302 Q210.981 696.302 213.576 698.483 Q216.172 700.665 216.172 704.314 Q216.172 706.044 215.514 707.605 Q214.874 709.147 213.163 711.254 Q212.692 711.799 210.172 714.414 Q207.652 717.009 203.063 721.692 Z" fill="#000000" fill-rule="evenodd" fill-opacity="1" /><path clip-path="url(#clip860)" d="M115.882 192.135 L123.52 192.135 L123.52 165.769 L115.21 167.436 L115.21 163.177 L123.474 161.51 L128.15 161.51 L128.15 192.135 L135.789 192.135 L135.789 196.07 L115.882 196.07 L115.882 192.135 Z" fill="#000000" fill-rule="evenodd" fill-opacity="1" /><path clip-path="url(#clip860)" d="M155.233 164.589 Q151.622 164.589 149.793 168.154 Q147.988 171.695 147.988 178.825 Q147.988 185.931 149.793 189.496 Q151.622 193.038 155.233 193.038 Q158.868 193.038 160.673 189.496 Q162.502 185.931 162.502 178.825 Q162.502 171.695 160.673 168.154 Q158.868 164.589 155.233 164.589 M155.233 160.885 Q161.043 160.885 164.099 165.492 Q167.178 170.075 167.178 178.825 Q167.178 187.552 164.099 192.158 Q161.043 196.742 155.233 196.742 Q149.423 196.742 146.344 192.158 Q143.289 187.552 143.289 178.825 Q143.289 170.075 146.344 165.492 Q149.423 160.885 155.233 160.885 Z" fill="#000000" fill-rule="evenodd" fill-opacity="1" /><path clip-path="url(#clip860)" d="M167.178 154.987 L191.289 154.987 L191.289 158.184 L167.178 158.184 L167.178 154.987 Z" fill="#000000" fill-rule="evenodd" fill-opacity="1" /><path clip-path="url(#clip860)" d="M200.148 165.463 L206.354 165.463 L206.354 144.04 L199.602 145.395 L199.602 141.934 L206.317 140.58 L210.116 140.58 L210.116 165.463 L216.322 165.463 L216.322 168.66 L200.148 168.66 L200.148 165.463 Z" fill="#000000" fill-rule="evenodd" fill-opacity="1" /><path clip-path="url(#clip860)" d="M18.4042 827.219 L18.4042 787.02 L23.815 787.02 L23.815 803.889 L65.9242 803.889 L65.9242 810.35 L23.815 810.35 L23.815 827.219 L18.4042 827.219 Z" fill="#000000" fill-rule="evenodd" fill-opacity="1" /><path clip-path="url(#clip860)" d="M30.2762 783.073 L30.2762 777.216 L65.9242 777.216 L65.9242 783.073 L30.2762 783.073 M16.399 783.073 L16.399 777.216 L23.815 777.216 L23.815 783.073 L16.399 783.073 Z" fill="#000000" fill-rule="evenodd" fill-opacity="1" /><path clip-path="url(#clip860)" d="M37.1193 737.208 Q33.1726 735.012 31.2947 731.956 Q29.4168 728.901 29.4168 724.763 Q29.4168 719.193 33.3317 716.169 Q37.2148 713.145 44.4081 713.145 L65.9242 713.145 L65.9242 719.034 L44.599 719.034 Q39.4746 719.034 36.992 720.848 Q34.5094 722.662 34.5094 726.386 Q34.5094 730.938 37.5331 733.579 Q40.5568 736.221 45.7767 736.221 L65.9242 736.221 L65.9242 742.109 L44.599 742.109 Q39.4428 742.109 36.992 743.924 Q34.5094 745.738 34.5094 749.526 Q34.5094 754.013 37.5649 756.655 Q40.5886 759.297 45.7767 759.297 L65.9242 759.297 L65.9242 765.185 L30.2762 765.185 L30.2762 759.297 L35.8144 759.297 Q32.536 757.292 30.9764 754.491 Q29.4168 751.69 29.4168 747.839 Q29.4168 743.956 31.3902 741.25 Q33.3636 738.513 37.1193 737.208 Z" fill="#000000" fill-rule="evenodd" fill-opacity="1" /><path clip-path="url(#clip860)" d="M46.6361 670.973 L49.5006 670.973 L49.5006 697.9 Q55.5481 697.518 58.7309 694.271 Q61.8819 690.993 61.8819 685.168 Q61.8819 681.794 61.0544 678.643 Q60.2269 675.461 58.5718 672.341 L64.1099 672.341 Q65.4467 675.492 66.147 678.803 Q66.8472 682.113 66.8472 685.518 Q66.8472 694.048 61.8819 699.045 Q56.9167 704.011 48.4503 704.011 Q39.6974 704.011 34.5731 699.3 Q29.4168 694.558 29.4168 686.537 Q29.4168 679.344 34.0638 675.174 Q38.6789 670.973 46.6361 670.973 M44.9173 676.829 Q40.1112 676.893 37.2466 679.535 Q34.3821 682.145 34.3821 686.473 Q34.3821 691.375 37.1512 694.335 Q39.9202 697.263 44.9492 697.709 L44.9173 676.829 Z" fill="#000000" fill-rule="evenodd" fill-opacity="1" /><path clip-path="url(#clip860)" d="M16.4626 626.572 Q23.7832 630.837 30.9446 632.906 Q38.106 634.975 45.4584 634.975 Q52.8108 634.975 60.0359 632.906 Q67.2291 630.805 74.5179 626.572 L74.5179 631.664 Q67.0382 636.439 59.8131 638.826 Q52.588 641.181 45.4584 641.181 Q38.3606 641.181 31.1674 638.826 Q23.9742 636.471 16.4626 631.664 L16.4626 626.572 Z" fill="#000000" fill-rule="evenodd" fill-opacity="1" /><path clip-path="url(#clip860)" d="M31.3265 592.484 L36.8647 592.484 Q35.5916 594.966 34.955 597.64 Q34.3184 600.313 34.3184 603.178 Q34.3184 607.538 35.6552 609.735 Q36.992 611.899 39.6656 611.899 Q41.7026 611.899 42.8803 610.339 Q44.0261 608.78 45.0765 604.069 L45.5221 602.064 Q46.8589 595.826 49.3097 593.216 Q51.7286 590.574 56.0891 590.574 Q61.0544 590.574 63.9508 594.521 Q66.8472 598.435 66.8472 605.31 Q66.8472 608.175 66.2743 611.294 Q65.7332 614.382 64.6192 617.819 L58.5718 617.819 Q60.2587 614.573 61.118 611.422 Q61.9456 608.27 61.9456 605.183 Q61.9456 601.045 60.5451 598.817 Q59.1129 596.589 56.5347 596.589 Q54.1476 596.589 52.8745 598.213 Q51.6013 599.804 50.4237 605.247 L49.9462 607.284 Q48.8004 612.726 46.4451 615.145 Q44.058 617.564 39.9202 617.564 Q34.8913 617.564 32.1541 614 Q29.4168 610.435 29.4168 603.878 Q29.4168 600.632 29.8943 597.767 Q30.3717 594.902 31.3265 592.484 Z" fill="#000000" fill-rule="evenodd" fill-opacity="1" /><path clip-path="url(#clip860)" d="M16.4626 582.171 L16.4626 577.079 Q23.9742 572.304 31.1674 569.949 Q38.3606 567.562 45.4584 567.562 Q52.588 567.562 59.8131 569.949 Q67.0382 572.304 74.5179 577.079 L74.5179 582.171 Q67.2291 577.938 60.0359 575.869 Q52.8108 573.768 45.4584 573.768 Q38.106 573.768 30.9446 575.869 Q23.7832 577.938 16.4626 582.171 Z" fill="#000000" fill-rule="evenodd" fill-opacity="1" /><polyline clip-path="url(#clip862)" style="stroke:#009af9; stroke-linecap:butt; stroke-linejoin:round; stroke-width:12; stroke-opacity:1; fill:none" points="
  1959.23,866.618 1734.32,653.617 1488.71,452.154 1229.24,272.671 956.606,84.0448 
  "/>
<line clip-path="url(#clip862)" x1="1959.23" y1="866.618" x2="1959.23" y2="850.618" style="stroke:#009af9; stroke-width:3.072; stroke-opacity:1"/>
<line clip-path="url(#clip862)" x1="1959.23" y1="866.618" x2="1943.23" y2="866.618" style="stroke:#009af9; stroke-width:3.072; stroke-opacity:1"/>
<line clip-path="url(#clip862)" x1="1959.23" y1="866.618" x2="1959.23" y2="882.618" style="stroke:#009af9; stroke-width:3.072; stroke-opacity:1"/>
<line clip-path="url(#clip862)" x1="1959.23" y1="866.618" x2="1975.23" y2="866.618" style="stroke:#009af9; stroke-width:3.072; stroke-opacity:1"/>
<line clip-path="url(#clip862)" x1="1734.32" y1="653.617" x2="1734.32" y2="637.617" style="stroke:#009af9; stroke-width:3.072; stroke-opacity:1"/>
<line clip-path="url(#clip862)" x1="1734.32" y1="653.617" x2="1718.32" y2="653.617" style="stroke:#009af9; stroke-width:3.072; stroke-opacity:1"/>
<line clip-path="url(#clip862)" x1="1734.32" y1="653.617" x2="1734.32" y2="669.617" style="stroke:#009af9; stroke-width:3.072; stroke-opacity:1"/>
<line clip-path="url(#clip862)" x1="1734.32" y1="653.617" x2="1750.32" y2="653.617" style="stroke:#009af9; stroke-width:3.072; stroke-opacity:1"/>
<line clip-path="url(#clip862)" x1="1488.71" y1="452.154" x2="1488.71" y2="436.154" style="stroke:#009af9; stroke-width:3.072; stroke-opacity:1"/>
<line clip-path="url(#clip862)" x1="1488.71" y1="452.154" x2="1472.71" y2="452.154" style="stroke:#009af9; stroke-width:3.072; stroke-opacity:1"/>
<line clip-path="url(#clip862)" x1="1488.71" y1="452.154" x2="1488.71" y2="468.154" style="stroke:#009af9; stroke-width:3.072; stroke-opacity:1"/>
<line clip-path="url(#clip862)" x1="1488.71" y1="452.154" x2="1504.71" y2="452.154" style="stroke:#009af9; stroke-width:3.072; stroke-opacity:1"/>
<line clip-path="url(#clip862)" x1="1229.24" y1="272.671" x2="1229.24" y2="256.671" style="stroke:#009af9; stroke-width:3.072; stroke-opacity:1"/>
<line clip-path="url(#clip862)" x1="1229.24" y1="272.671" x2="1213.24" y2="272.671" style="stroke:#009af9; stroke-width:3.072; stroke-opacity:1"/>
<line clip-path="url(#clip862)" x1="1229.24" y1="272.671" x2="1229.24" y2="288.671" style="stroke:#009af9; stroke-width:3.072; stroke-opacity:1"/>
<line clip-path="url(#clip862)" x1="1229.24" y1="272.671" x2="1245.24" y2="272.671" style="stroke:#009af9; stroke-width:3.072; stroke-opacity:1"/>
<line clip-path="url(#clip862)" x1="956.606" y1="84.0448" x2="956.606" y2="68.0448" style="stroke:#009af9; stroke-width:3.072; stroke-opacity:1"/>
<line clip-path="url(#clip862)" x1="956.606" y1="84.0448" x2="940.606" y2="84.0448" style="stroke:#009af9; stroke-width:3.072; stroke-opacity:1"/>
<line clip-path="url(#clip862)" x1="956.606" y1="84.0448" x2="956.606" y2="100.045" style="stroke:#009af9; stroke-width:3.072; stroke-opacity:1"/>
<line clip-path="url(#clip862)" x1="956.606" y1="84.0448" x2="972.606" y2="84.0448" style="stroke:#009af9; stroke-width:3.072; stroke-opacity:1"/>
<polyline clip-path="url(#clip862)" style="stroke:#e26f46; stroke-linecap:butt; stroke-linejoin:round; stroke-width:12; stroke-opacity:1; fill:none" points="
  1829.39,1212.2 1523.86,1113.77 1227.36,998.305 928.67,870.684 639.934,739.746 
  "/>
<circle clip-path="url(#clip862)" cx="1829.39" cy="1212.2" r="14" fill="#e26f46" fill-rule="evenodd" fill-opacity="1" stroke="#000000" stroke-opacity="1" stroke-width="3.072"/>
<circle clip-path="url(#clip862)" cx="1523.86" cy="1113.77" r="14" fill="#e26f46" fill-rule="evenodd" fill-opacity="1" stroke="#000000" stroke-opacity="1" stroke-width="3.072"/>
<circle clip-path="url(#clip862)" cx="1227.36" cy="998.305" r="14" fill="#e26f46" fill-rule="evenodd" fill-opacity="1" stroke="#000000" stroke-opacity="1" stroke-width="3.072"/>
<circle clip-path="url(#clip862)" cx="928.67" cy="870.684" r="14" fill="#e26f46" fill-rule="evenodd" fill-opacity="1" stroke="#000000" stroke-opacity="1" stroke-width="3.072"/>
<circle clip-path="url(#clip862)" cx="639.934" cy="739.746" r="14" fill="#e26f46" fill-rule="evenodd" fill-opacity="1" stroke="#000000" stroke-opacity="1" stroke-width="3.072"/>
<polyline clip-path="url(#clip862)" style="stroke:#3da44d; stroke-linecap:butt; stroke-linejoin:round; stroke-width:12; stroke-opacity:1; fill:none" points="
  2199.99,1069.5 1983.03,1004.49 1758.52,911.235 1508.74,889.142 1253.51,816.484 
  "/>
<line clip-path="url(#clip862)" x1="2199.99" y1="1069.5" x2="2199.99" y2="1053.5" style="stroke:#3da44d; stroke-width:3.072; stroke-opacity:1"/>
<line clip-path="url(#clip862)" x1="2199.99" y1="1069.5" x2="2183.99" y2="1069.5" style="stroke:#3da44d; stroke-width:3.072; stroke-opacity:1"/>
<line clip-path="url(#clip862)" x1="2199.99" y1="1069.5" x2="2199.99" y2="1085.5" style="stroke:#3da44d; stroke-width:3.072; stroke-opacity:1"/>
<line clip-path="url(#clip862)" x1="2199.99" y1="1069.5" x2="2215.99" y2="1069.5" style="stroke:#3da44d; stroke-width:3.072; stroke-opacity:1"/>
<line clip-path="url(#clip862)" x1="1983.03" y1="1004.49" x2="1983.03" y2="988.492" style="stroke:#3da44d; stroke-width:3.072; stroke-opacity:1"/>
<line clip-path="url(#clip862)" x1="1983.03" y1="1004.49" x2="1967.03" y2="1004.49" style="stroke:#3da44d; stroke-width:3.072; stroke-opacity:1"/>
<line clip-path="url(#clip862)" x1="1983.03" y1="1004.49" x2="1983.03" y2="1020.49" style="stroke:#3da44d; stroke-width:3.072; stroke-opacity:1"/>
<line clip-path="url(#clip862)" x1="1983.03" y1="1004.49" x2="1999.03" y2="1004.49" style="stroke:#3da44d; stroke-width:3.072; stroke-opacity:1"/>
<line clip-path="url(#clip862)" x1="1758.52" y1="911.235" x2="1758.52" y2="895.235" style="stroke:#3da44d; stroke-width:3.072; stroke-opacity:1"/>
<line clip-path="url(#clip862)" x1="1758.52" y1="911.235" x2="1742.52" y2="911.235" style="stroke:#3da44d; stroke-width:3.072; stroke-opacity:1"/>
<line clip-path="url(#clip862)" x1="1758.52" y1="911.235" x2="1758.52" y2="927.235" style="stroke:#3da44d; stroke-width:3.072; stroke-opacity:1"/>
<line clip-path="url(#clip862)" x1="1758.52" y1="911.235" x2="1774.52" y2="911.235" style="stroke:#3da44d; stroke-width:3.072; stroke-opacity:1"/>
<line clip-path="url(#clip862)" x1="1508.74" y1="889.142" x2="1508.74" y2="873.142" style="stroke:#3da44d; stroke-width:3.072; stroke-opacity:1"/>
<line clip-path="url(#clip862)" x1="1508.74" y1="889.142" x2="1492.74" y2="889.142" style="stroke:#3da44d; stroke-width:3.072; stroke-opacity:1"/>
<line clip-path="url(#clip862)" x1="1508.74" y1="889.142" x2="1508.74" y2="905.142" style="stroke:#3da44d; stroke-width:3.072; stroke-opacity:1"/>
<line clip-path="url(#clip862)" x1="1508.74" y1="889.142" x2="1524.74" y2="889.142" style="stroke:#3da44d; stroke-width:3.072; stroke-opacity:1"/>
<line clip-path="url(#clip862)" x1="1253.51" y1="816.484" x2="1253.51" y2="800.484" style="stroke:#3da44d; stroke-width:3.072; stroke-opacity:1"/>
<line clip-path="url(#clip862)" x1="1253.51" y1="816.484" x2="1237.51" y2="816.484" style="stroke:#3da44d; stroke-width:3.072; stroke-opacity:1"/>
<line clip-path="url(#clip862)" x1="1253.51" y1="816.484" x2="1253.51" y2="832.484" style="stroke:#3da44d; stroke-width:3.072; stroke-opacity:1"/>
<line clip-path="url(#clip862)" x1="1253.51" y1="816.484" x2="1269.51" y2="816.484" style="stroke:#3da44d; stroke-width:3.072; stroke-opacity:1"/>
<polyline clip-path="url(#clip862)" style="stroke:#c271d2; stroke-linecap:butt; stroke-linejoin:round; stroke-width:12; stroke-opacity:1; fill:none" points="
  1630.83,1224.56 1346.57,1118.32 1051.72,987.499 768.407,838.278 478.229,658.685 
  "/>
<path clip-path="url(#clip862)" d="M1630.83 1208.56 L1614.83 1224.56 L1630.83 1240.56 L1646.83 1224.56 L1630.83 1208.56 Z" fill="#c271d2" fill-rule="evenodd" fill-opacity="1" stroke="#000000" stroke-opacity="1" stroke-width="3.072"/>
<path clip-path="url(#clip862)" d="M1346.57 1102.32 L1330.57 1118.32 L1346.57 1134.32 L1362.57 1118.32 L1346.57 1102.32 Z" fill="#c271d2" fill-rule="evenodd" fill-opacity="1" stroke="#000000" stroke-opacity="1" stroke-width="3.072"/>
<path clip-path="url(#clip862)" d="M1051.72 971.499 L1035.72 987.499 L1051.72 1003.5 L1067.72 987.499 L1051.72 971.499 Z" fill="#c271d2" fill-rule="evenodd" fill-opacity="1" stroke="#000000" stroke-opacity="1" stroke-width="3.072"/>
<path clip-path="url(#clip862)" d="M768.407 822.278 L752.407 838.278 L768.407 854.278 L784.407 838.278 L768.407 822.278 Z" fill="#c271d2" fill-rule="evenodd" fill-opacity="1" stroke="#000000" stroke-opacity="1" stroke-width="3.072"/>
<path clip-path="url(#clip862)" d="M478.229 642.685 L462.229 658.685 L478.229 674.685 L494.229 658.685 L478.229 642.685 Z" fill="#c271d2" fill-rule="evenodd" fill-opacity="1" stroke="#000000" stroke-opacity="1" stroke-width="3.072"/>
<polyline clip-path="url(#clip862)" style="stroke:#ac8d18; stroke-linecap:butt; stroke-linejoin:round; stroke-width:12; stroke-opacity:1; fill:none" points="
  1701.96,936.226 1418.83,806.587 1100.17,648.88 783.071,458.83 422.172,268.27 
  "/>
<path clip-path="url(#clip862)" d="M1717.96 920.226 L1685.96 920.226 L1701.96 952.226 L1717.96 920.226 Z" fill="#ac8d18" fill-rule="evenodd" fill-opacity="1" stroke="#000000" stroke-opacity="1" stroke-width="3.072"/>
<path clip-path="url(#clip862)" d="M1434.83 790.587 L1402.83 790.587 L1418.83 822.587 L1434.83 790.587 Z" fill="#ac8d18" fill-rule="evenodd" fill-opacity="1" stroke="#000000" stroke-opacity="1" stroke-width="3.072"/>
<path clip-path="url(#clip862)" d="M1116.17 632.88 L1084.17 632.88 L1100.17 664.88 L1116.17 632.88 Z" fill="#ac8d18" fill-rule="evenodd" fill-opacity="1" stroke="#000000" stroke-opacity="1" stroke-width="3.072"/>
<path clip-path="url(#clip862)" d="M799.071 442.83 L767.071 442.83 L783.071 474.83 L799.071 442.83 Z" fill="#ac8d18" fill-rule="evenodd" fill-opacity="1" stroke="#000000" stroke-opacity="1" stroke-width="3.072"/>
<path clip-path="url(#clip862)" d="M438.172 252.27 L406.172 252.27 L422.172 284.27 L438.172 252.27 Z" fill="#ac8d18" fill-rule="evenodd" fill-opacity="1" stroke="#000000" stroke-opacity="1" stroke-width="3.072"/>
<polyline clip-path="url(#clip862)" style="stroke:#00a9ad; stroke-linecap:butt; stroke-linejoin:round; stroke-width:12; stroke-opacity:1; fill:none" points="
  1562.01,893.051 1160.19,861.531 1047.85,808.544 660.159,759.817 307.652,731.079 
  "/>
<path clip-path="url(#clip862)" d="M1562.01 877.051 L1549.5 883.083 L1546.41 896.619 L1555.07 907.467 L1568.96 907.467 L1577.61 896.619 L1574.53 883.083 Z" fill="#00a9ad" fill-rule="evenodd" fill-opacity="1" stroke="#000000" stroke-opacity="1" stroke-width="3.072"/>
<path clip-path="url(#clip862)" d="M1160.19 845.531 L1147.68 851.563 L1144.59 865.099 L1153.25 875.947 L1167.14 875.947 L1175.79 865.099 L1172.7 851.563 Z" fill="#00a9ad" fill-rule="evenodd" fill-opacity="1" stroke="#000000" stroke-opacity="1" stroke-width="3.072"/>
<path clip-path="url(#clip862)" d="M1047.85 792.544 L1035.34 798.576 L1032.25 812.112 L1040.91 822.96 L1054.79 822.96 L1063.45 812.112 L1060.36 798.576 Z" fill="#00a9ad" fill-rule="evenodd" fill-opacity="1" stroke="#000000" stroke-opacity="1" stroke-width="3.072"/>
<path clip-path="url(#clip862)" d="M660.159 743.817 L647.647 749.849 L644.559 763.385 L653.215 774.233 L667.103 774.233 L675.759 763.385 L672.671 749.849 Z" fill="#00a9ad" fill-rule="evenodd" fill-opacity="1" stroke="#000000" stroke-opacity="1" stroke-width="3.072"/>
<path clip-path="url(#clip862)" d="M307.652 715.079 L295.14 721.111 L292.052 734.647 L300.708 745.495 L314.596 745.495 L323.252 734.647 L320.164 721.111 Z" fill="#00a9ad" fill-rule="evenodd" fill-opacity="1" stroke="#000000" stroke-opacity="1" stroke-width="3.072"/>
<polyline clip-path="url(#clip862)" style="stroke:#ed5d92; stroke-linecap:butt; stroke-linejoin:round; stroke-width:12; stroke-opacity:1; fill:none" points="
  2176.99,1230.54 1929.52,1180.81 1670.45,1097.47 1441.8,1048.83 1147.85,980.184 
  "/>
<path clip-path="url(#clip862)" d="M2176.99 1246.54 L2163.13 1238.54 L2163.13 1222.54 L2176.99 1214.54 L2190.84 1222.54 L2190.84 1238.54 Z" fill="#ed5d92" fill-rule="evenodd" fill-opacity="1" stroke="#000000" stroke-opacity="1" stroke-width="3.072"/>
<path clip-path="url(#clip862)" d="M1929.52 1196.81 L1915.67 1188.81 L1915.67 1172.81 L1929.52 1164.81 L1943.38 1172.81 L1943.38 1188.81 Z" fill="#ed5d92" fill-rule="evenodd" fill-opacity="1" stroke="#000000" stroke-opacity="1" stroke-width="3.072"/>
<path clip-path="url(#clip862)" d="M1670.45 1113.47 L1656.59 1105.47 L1656.59 1089.47 L1670.45 1081.47 L1684.31 1089.47 L1684.31 1105.47 Z" fill="#ed5d92" fill-rule="evenodd" fill-opacity="1" stroke="#000000" stroke-opacity="1" stroke-width="3.072"/>
<path clip-path="url(#clip862)" d="M1441.8 1064.83 L1427.94 1056.83 L1427.94 1040.83 L1441.8 1032.83 L1455.65 1040.83 L1455.65 1056.83 Z" fill="#ed5d92" fill-rule="evenodd" fill-opacity="1" stroke="#000000" stroke-opacity="1" stroke-width="3.072"/>
<path clip-path="url(#clip862)" d="M1147.85 996.184 L1133.99 988.184 L1133.99 972.184 L1147.85 964.184 L1161.71 972.184 L1161.71 988.184 Z" fill="#ed5d92" fill-rule="evenodd" fill-opacity="1" stroke="#000000" stroke-opacity="1" stroke-width="3.072"/>
<polyline clip-path="url(#clip862)" style="stroke:#c68125; stroke-linecap:butt; stroke-linejoin:round; stroke-width:12; stroke-opacity:1; fill:none" points="
  1372.88,1103.2 1366.05,1055.85 1122.08,971.795 1076.3,910.704 852.947,831.452 
  "/>
<line clip-path="url(#clip862)" x1="1388.88" y1="1103.2" x2="1356.88" y2="1103.2" style="stroke:#c68125; stroke-width:3.072; stroke-opacity:1"/>
<line clip-path="url(#clip862)" x1="1382.05" y1="1055.85" x2="1350.05" y2="1055.85" style="stroke:#c68125; stroke-width:3.072; stroke-opacity:1"/>
<line clip-path="url(#clip862)" x1="1138.08" y1="971.795" x2="1106.08" y2="971.795" style="stroke:#c68125; stroke-width:3.072; stroke-opacity:1"/>
<line clip-path="url(#clip862)" x1="1092.3" y1="910.704" x2="1060.3" y2="910.704" style="stroke:#c68125; stroke-width:3.072; stroke-opacity:1"/>
<line clip-path="url(#clip862)" x1="868.947" y1="831.452" x2="836.947" y2="831.452" style="stroke:#c68125; stroke-width:3.072; stroke-opacity:1"/>
<polyline clip-path="url(#clip862)" style="stroke:#00a98d; stroke-linecap:butt; stroke-linejoin:round; stroke-width:12; stroke-opacity:1; fill:none" points="
  1855.29,1310.74 1518.32,1209.78 1172.36,1112.91 1003.09,1026.07 753.589,871.146 
  "/>
<path clip-path="url(#clip862)" d="M1842.49 1310.74 L1861.69 1321.94 L1861.69 1299.54 L1842.49 1310.74 Z" fill="#00a98d" fill-rule="evenodd" fill-opacity="1" stroke="#000000" stroke-opacity="1" stroke-width="3.072"/>
<path clip-path="url(#clip862)" d="M1505.52 1209.78 L1524.72 1220.98 L1524.72 1198.58 L1505.52 1209.78 Z" fill="#00a98d" fill-rule="evenodd" fill-opacity="1" stroke="#000000" stroke-opacity="1" stroke-width="3.072"/>
<path clip-path="url(#clip862)" d="M1159.56 1112.91 L1178.76 1124.11 L1178.76 1101.71 L1159.56 1112.91 Z" fill="#00a98d" fill-rule="evenodd" fill-opacity="1" stroke="#000000" stroke-opacity="1" stroke-width="3.072"/>
<path clip-path="url(#clip862)" d="M990.285 1026.07 L1009.49 1037.27 L1009.49 1014.87 L990.285 1026.07 Z" fill="#00a98d" fill-rule="evenodd" fill-opacity="1" stroke="#000000" stroke-opacity="1" stroke-width="3.072"/>
<path clip-path="url(#clip862)" d="M740.789 871.146 L759.989 882.346 L759.989 859.946 L740.789 871.146 Z" fill="#00a98d" fill-rule="evenodd" fill-opacity="1" stroke="#000000" stroke-opacity="1" stroke-width="3.072"/>
<path clip-path="url(#clip860)" d="
M1683.96 608.987 L2189.89 608.987 L2189.89 90.5872 L1683.96 90.5872  Z
  " fill="#ffffff" fill-rule="evenodd" fill-opacity="1"/>
<polyline clip-path="url(#clip860)" style="stroke:#000000; stroke-linecap:butt; stroke-linejoin:round; stroke-width:4; stroke-opacity:1; fill:none" points="
  1683.96,608.987 2189.89,608.987 2189.89,90.5872 1683.96,90.5872 1683.96,608.987 
  "/>
<polyline clip-path="url(#clip860)" style="stroke:#009af9; stroke-linecap:butt; stroke-linejoin:round; stroke-width:4; stroke-opacity:1; fill:none" points="
  1706.25,142.427 1839.98,142.427 
  "/>
<line clip-path="url(#clip860)" x1="1773.11" y1="142.427" x2="1773.11" y2="116.827" style="stroke:#009af9; stroke-width:4.9152; stroke-opacity:1"/>
<line clip-path="url(#clip860)" x1="1773.11" y1="142.427" x2="1747.51" y2="142.427" style="stroke:#009af9; stroke-width:4.9152; stroke-opacity:1"/>
<line clip-path="url(#clip860)" x1="1773.11" y1="142.427" x2="1773.11" y2="168.027" style="stroke:#009af9; stroke-width:4.9152; stroke-opacity:1"/>
<line clip-path="url(#clip860)" x1="1773.11" y1="142.427" x2="1798.71" y2="142.427" style="stroke:#009af9; stroke-width:4.9152; stroke-opacity:1"/>
<path clip-path="url(#clip860)" d="M1878.65 143.504 Q1880.16 144.013 1881.57 145.679 Q1883.01 147.346 1884.44 150.263 L1889.19 159.707 L1884.16 159.707 L1879.74 150.841 Q1878.03 147.369 1876.41 146.235 Q1874.81 145.101 1872.03 145.101 L1866.94 145.101 L1866.94 159.707 L1862.26 159.707 L1862.26 125.147 L1872.82 125.147 Q1878.75 125.147 1881.66 127.624 Q1884.58 130.101 1884.58 135.101 Q1884.58 138.365 1883.05 140.517 Q1881.55 142.67 1878.65 143.504 M1866.94 128.99 L1866.94 141.258 L1872.82 141.258 Q1876.2 141.258 1877.91 139.707 Q1879.65 138.133 1879.65 135.101 Q1879.65 132.068 1877.91 130.541 Q1876.2 128.99 1872.82 128.99 L1866.94 128.99 Z" fill="#000000" fill-rule="evenodd" fill-opacity="1" /><path clip-path="url(#clip860)" d="M1902.94 136.767 Q1899.51 136.767 1897.52 139.453 Q1895.53 142.115 1895.53 146.767 Q1895.53 151.42 1897.5 154.105 Q1899.49 156.767 1902.94 156.767 Q1906.34 156.767 1908.33 154.082 Q1910.32 151.397 1910.32 146.767 Q1910.32 142.161 1908.33 139.476 Q1906.34 136.767 1902.94 136.767 M1902.94 133.156 Q1908.49 133.156 1911.66 136.767 Q1914.83 140.379 1914.83 146.767 Q1914.83 153.133 1911.66 156.767 Q1908.49 160.378 1902.94 160.378 Q1897.36 160.378 1894.19 156.767 Q1891.04 153.133 1891.04 146.767 Q1891.04 140.379 1894.19 136.767 Q1897.36 133.156 1902.94 133.156 Z" fill="#000000" fill-rule="evenodd" fill-opacity="1" /><path clip-path="url(#clip860)" d="M1938.95 137.717 L1938.95 123.689 L1943.21 123.689 L1943.21 159.707 L1938.95 159.707 L1938.95 155.818 Q1937.61 158.133 1935.55 159.267 Q1933.51 160.378 1930.64 160.378 Q1925.94 160.378 1922.98 156.628 Q1920.04 152.879 1920.04 146.767 Q1920.04 140.656 1922.98 136.906 Q1925.94 133.156 1930.64 133.156 Q1933.51 133.156 1935.55 134.291 Q1937.61 135.402 1938.95 137.717 M1924.44 146.767 Q1924.44 151.466 1926.36 154.152 Q1928.31 156.814 1931.69 156.814 Q1935.06 156.814 1937.01 154.152 Q1938.95 151.466 1938.95 146.767 Q1938.95 142.068 1937.01 139.406 Q1935.06 136.721 1931.69 136.721 Q1928.31 136.721 1926.36 139.406 Q1924.44 142.068 1924.44 146.767 Z" fill="#000000" fill-rule="evenodd" fill-opacity="1" /><path clip-path="url(#clip860)" d="M1963.77 146.675 Q1958.61 146.675 1956.62 147.855 Q1954.63 149.036 1954.63 151.883 Q1954.63 154.152 1956.11 155.494 Q1957.61 156.814 1960.18 156.814 Q1963.72 156.814 1965.85 154.314 Q1968 151.791 1968 147.624 L1968 146.675 L1963.77 146.675 M1972.26 144.916 L1972.26 159.707 L1968 159.707 L1968 155.772 Q1966.55 158.133 1964.37 159.267 Q1962.19 160.378 1959.05 160.378 Q1955.06 160.378 1952.7 158.156 Q1950.37 155.911 1950.37 152.161 Q1950.37 147.786 1953.28 145.564 Q1956.22 143.342 1962.03 143.342 L1968 143.342 L1968 142.925 Q1968 139.985 1966.06 138.388 Q1964.14 136.767 1960.64 136.767 Q1958.42 136.767 1956.31 137.3 Q1954.21 137.832 1952.26 138.897 L1952.26 134.962 Q1954.6 134.059 1956.8 133.619 Q1959 133.156 1961.08 133.156 Q1966.71 133.156 1969.49 136.073 Q1972.26 138.99 1972.26 144.916 Z" fill="#000000" fill-rule="evenodd" fill-opacity="1" /><path clip-path="url(#clip860)" d="M1997.56 134.545 L1997.56 138.573 Q1995.76 137.647 1993.81 137.184 Q1991.87 136.721 1989.79 136.721 Q1986.62 136.721 1985.02 137.693 Q1983.44 138.666 1983.44 140.61 Q1983.44 142.092 1984.58 142.948 Q1985.71 143.781 1989.14 144.545 L1990.6 144.869 Q1995.13 145.842 1997.03 147.624 Q1998.95 149.383 1998.95 152.554 Q1998.95 156.166 1996.08 158.272 Q1993.24 160.378 1988.24 160.378 Q1986.15 160.378 1983.88 159.962 Q1981.64 159.568 1979.14 158.758 L1979.14 154.36 Q1981.5 155.587 1983.79 156.212 Q1986.08 156.814 1988.33 156.814 Q1991.34 156.814 1992.96 155.795 Q1994.58 154.754 1994.58 152.879 Q1994.58 151.142 1993.4 150.216 Q1992.24 149.291 1988.28 148.434 L1986.8 148.087 Q1982.84 147.254 1981.08 145.541 Q1979.32 143.804 1979.32 140.795 Q1979.32 137.138 1981.92 135.147 Q1984.51 133.156 1989.28 133.156 Q1991.64 133.156 1993.72 133.504 Q1995.81 133.851 1997.56 134.545 Z" fill="#000000" fill-rule="evenodd" fill-opacity="1" /><path clip-path="url(#clip860)" d="M2020.5 141.073 Q2023.86 141.791 2025.74 144.059 Q2027.63 146.328 2027.63 149.661 Q2027.63 154.777 2024.12 157.578 Q2020.6 160.378 2014.12 160.378 Q2011.94 160.378 2009.62 159.939 Q2007.33 159.522 2004.88 158.666 L2004.88 154.152 Q2006.82 155.286 2009.14 155.865 Q2011.45 156.443 2013.98 156.443 Q2018.37 156.443 2020.67 154.707 Q2022.98 152.971 2022.98 149.661 Q2022.98 146.605 2020.83 144.892 Q2018.7 143.156 2014.88 143.156 L2010.85 143.156 L2010.85 139.314 L2015.06 139.314 Q2018.51 139.314 2020.34 137.948 Q2022.17 136.559 2022.17 133.967 Q2022.17 131.305 2020.27 129.893 Q2018.4 128.457 2014.88 128.457 Q2012.96 128.457 2010.76 128.874 Q2008.56 129.291 2005.92 130.17 L2005.92 126.004 Q2008.58 125.263 2010.9 124.893 Q2013.24 124.522 2015.3 124.522 Q2020.62 124.522 2023.72 126.953 Q2026.82 129.36 2026.82 133.48 Q2026.82 136.351 2025.18 138.342 Q2023.54 140.309 2020.5 141.073 Z" fill="#000000" fill-rule="evenodd" fill-opacity="1" /><polyline clip-path="url(#clip860)" style="stroke:#e26f46; stroke-linecap:butt; stroke-linejoin:round; stroke-width:4; stroke-opacity:1; fill:none" points="
  1706.25,194.267 1839.98,194.267 
  "/>
<circle clip-path="url(#clip860)" cx="1773.11" cy="194.267" r="23" fill="#e26f46" fill-rule="evenodd" fill-opacity="1" stroke="#000000" stroke-opacity="1" stroke-width="4.9152"/>
<path clip-path="url(#clip860)" d="M1878.65 195.344 Q1880.16 195.853 1881.57 197.519 Q1883.01 199.186 1884.44 202.103 L1889.19 211.547 L1884.16 211.547 L1879.74 202.681 Q1878.03 199.209 1876.41 198.075 Q1874.81 196.941 1872.03 196.941 L1866.94 196.941 L1866.94 211.547 L1862.26 211.547 L1862.26 176.987 L1872.82 176.987 Q1878.75 176.987 1881.66 179.464 Q1884.58 181.941 1884.58 186.941 Q1884.58 190.205 1883.05 192.357 Q1881.55 194.51 1878.65 195.344 M1866.94 180.83 L1866.94 193.098 L1872.82 193.098 Q1876.2 193.098 1877.91 191.547 Q1879.65 189.973 1879.65 186.941 Q1879.65 183.908 1877.91 182.381 Q1876.2 180.83 1872.82 180.83 L1866.94 180.83 Z" fill="#000000" fill-rule="evenodd" fill-opacity="1" /><path clip-path="url(#clip860)" d="M1902.94 188.607 Q1899.51 188.607 1897.52 191.293 Q1895.53 193.955 1895.53 198.607 Q1895.53 203.26 1897.5 205.945 Q1899.49 208.607 1902.94 208.607 Q1906.34 208.607 1908.33 205.922 Q1910.32 203.237 1910.32 198.607 Q1910.32 194.001 1908.33 191.316 Q1906.34 188.607 1902.94 188.607 M1902.94 184.996 Q1908.49 184.996 1911.66 188.607 Q1914.83 192.219 1914.83 198.607 Q1914.83 204.973 1911.66 208.607 Q1908.49 212.218 1902.94 212.218 Q1897.36 212.218 1894.19 208.607 Q1891.04 204.973 1891.04 198.607 Q1891.04 192.219 1894.19 188.607 Q1897.36 184.996 1902.94 184.996 Z" fill="#000000" fill-rule="evenodd" fill-opacity="1" /><path clip-path="url(#clip860)" d="M1938.95 189.557 L1938.95 175.529 L1943.21 175.529 L1943.21 211.547 L1938.95 211.547 L1938.95 207.658 Q1937.61 209.973 1935.55 211.107 Q1933.51 212.218 1930.64 212.218 Q1925.94 212.218 1922.98 208.468 Q1920.04 204.719 1920.04 198.607 Q1920.04 192.496 1922.98 188.746 Q1925.94 184.996 1930.64 184.996 Q1933.51 184.996 1935.55 186.131 Q1937.61 187.242 1938.95 189.557 M1924.44 198.607 Q1924.44 203.306 1926.36 205.992 Q1928.31 208.654 1931.69 208.654 Q1935.06 208.654 1937.01 205.992 Q1938.95 203.306 1938.95 198.607 Q1938.95 193.908 1937.01 191.246 Q1935.06 188.561 1931.69 188.561 Q1928.31 188.561 1926.36 191.246 Q1924.44 193.908 1924.44 198.607 Z" fill="#000000" fill-rule="evenodd" fill-opacity="1" /><path clip-path="url(#clip860)" d="M1963.77 198.515 Q1958.61 198.515 1956.62 199.695 Q1954.63 200.876 1954.63 203.723 Q1954.63 205.992 1956.11 207.334 Q1957.61 208.654 1960.18 208.654 Q1963.72 208.654 1965.85 206.154 Q1968 203.631 1968 199.464 L1968 198.515 L1963.77 198.515 M1972.26 196.756 L1972.26 211.547 L1968 211.547 L1968 207.612 Q1966.55 209.973 1964.37 211.107 Q1962.19 212.218 1959.05 212.218 Q1955.06 212.218 1952.7 209.996 Q1950.37 207.751 1950.37 204.001 Q1950.37 199.626 1953.28 197.404 Q1956.22 195.182 1962.03 195.182 L1968 195.182 L1968 194.765 Q1968 191.825 1966.06 190.228 Q1964.14 188.607 1960.64 188.607 Q1958.42 188.607 1956.31 189.14 Q1954.21 189.672 1952.26 190.737 L1952.26 186.802 Q1954.6 185.899 1956.8 185.459 Q1959 184.996 1961.08 184.996 Q1966.71 184.996 1969.49 187.913 Q1972.26 190.83 1972.26 196.756 Z" fill="#000000" fill-rule="evenodd" fill-opacity="1" /><path clip-path="url(#clip860)" d="M1997.56 186.385 L1997.56 190.413 Q1995.76 189.487 1993.81 189.024 Q1991.87 188.561 1989.79 188.561 Q1986.62 188.561 1985.02 189.533 Q1983.44 190.506 1983.44 192.45 Q1983.44 193.932 1984.58 194.788 Q1985.71 195.621 1989.14 196.385 L1990.6 196.709 Q1995.13 197.682 1997.03 199.464 Q1998.95 201.223 1998.95 204.394 Q1998.95 208.006 1996.08 210.112 Q1993.24 212.218 1988.24 212.218 Q1986.15 212.218 1983.88 211.802 Q1981.64 211.408 1979.14 210.598 L1979.14 206.2 Q1981.5 207.427 1983.79 208.052 Q1986.08 208.654 1988.33 208.654 Q1991.34 208.654 1992.96 207.635 Q1994.58 206.594 1994.58 204.719 Q1994.58 202.982 1993.4 202.056 Q1992.24 201.131 1988.28 200.274 L1986.8 199.927 Q1982.84 199.094 1981.08 197.381 Q1979.32 195.644 1979.32 192.635 Q1979.32 188.978 1981.92 186.987 Q1984.51 184.996 1989.28 184.996 Q1991.64 184.996 1993.72 185.344 Q1995.81 185.691 1997.56 186.385 Z" fill="#000000" fill-rule="evenodd" fill-opacity="1" /><path clip-path="url(#clip860)" d="M2019.18 181.061 L2007.38 199.51 L2019.18 199.51 L2019.18 181.061 M2017.96 176.987 L2023.84 176.987 L2023.84 199.51 L2028.77 199.51 L2028.77 203.399 L2023.84 203.399 L2023.84 211.547 L2019.18 211.547 L2019.18 203.399 L2003.58 203.399 L2003.58 198.885 L2017.96 176.987 Z" fill="#000000" fill-rule="evenodd" fill-opacity="1" /><path clip-path="url(#clip860)" d="M2040.76 180.83 L2040.76 193.816 L2046.64 193.816 Q2049.9 193.816 2051.68 192.126 Q2053.47 190.436 2053.47 187.311 Q2053.47 184.209 2051.68 182.52 Q2049.9 180.83 2046.64 180.83 L2040.76 180.83 M2036.08 176.987 L2046.64 176.987 Q2052.45 176.987 2055.41 179.626 Q2058.4 182.242 2058.4 187.311 Q2058.4 192.427 2055.41 195.043 Q2052.45 197.658 2046.64 197.658 L2040.76 197.658 L2040.76 211.547 L2036.08 211.547 L2036.08 176.987 Z" fill="#000000" fill-rule="evenodd" fill-opacity="1" /><polyline clip-path="url(#clip860)" style="stroke:#3da44d; stroke-linecap:butt; stroke-linejoin:round; stroke-width:4; stroke-opacity:1; fill:none" points="
  1706.25,246.107 1839.98,246.107 
  "/>
<line clip-path="url(#clip860)" x1="1773.11" y1="246.107" x2="1773.11" y2="220.507" style="stroke:#3da44d; stroke-width:4.9152; stroke-opacity:1"/>
<line clip-path="url(#clip860)" x1="1773.11" y1="246.107" x2="1747.51" y2="246.107" style="stroke:#3da44d; stroke-width:4.9152; stroke-opacity:1"/>
<line clip-path="url(#clip860)" x1="1773.11" y1="246.107" x2="1773.11" y2="271.707" style="stroke:#3da44d; stroke-width:4.9152; stroke-opacity:1"/>
<line clip-path="url(#clip860)" x1="1773.11" y1="246.107" x2="1798.71" y2="246.107" style="stroke:#3da44d; stroke-width:4.9152; stroke-opacity:1"/>
<path clip-path="url(#clip860)" d="M1890.13 231.489 L1890.13 236.42 Q1887.77 234.221 1885.09 233.133 Q1882.43 232.045 1879.42 232.045 Q1873.49 232.045 1870.34 235.679 Q1867.19 239.29 1867.19 246.142 Q1867.19 252.971 1870.34 256.605 Q1873.49 260.216 1879.42 260.216 Q1882.43 260.216 1885.09 259.128 Q1887.77 258.04 1890.13 255.841 L1890.13 260.725 Q1887.68 262.392 1884.93 263.225 Q1882.19 264.058 1879.14 264.058 Q1871.29 264.058 1866.78 259.267 Q1862.26 254.452 1862.26 246.142 Q1862.26 237.809 1866.78 233.017 Q1871.29 228.202 1879.14 228.202 Q1882.24 228.202 1884.97 229.036 Q1887.73 229.846 1890.13 231.489 Z" fill="#000000" fill-rule="evenodd" fill-opacity="1" /><path clip-path="url(#clip860)" d="M1906.27 263.387 L1893.07 228.827 L1897.96 228.827 L1908.91 257.924 L1919.88 228.827 L1924.74 228.827 L1911.57 263.387 L1906.27 263.387 Z" fill="#000000" fill-rule="evenodd" fill-opacity="1" /><path clip-path="url(#clip860)" d="M1942.98 231.998 Q1937.89 231.998 1934.88 235.795 Q1931.89 239.591 1931.89 246.142 Q1931.89 252.67 1934.88 256.466 Q1937.89 260.262 1942.98 260.262 Q1948.07 260.262 1951.04 256.466 Q1954.02 252.67 1954.02 246.142 Q1954.02 239.591 1951.04 235.795 Q1948.07 231.998 1942.98 231.998 M1942.98 228.202 Q1950.25 228.202 1954.6 233.086 Q1958.95 237.948 1958.95 246.142 Q1958.95 254.313 1954.6 259.197 Q1950.25 264.058 1942.98 264.058 Q1935.69 264.058 1931.32 259.197 Q1926.96 254.336 1926.96 246.142 Q1926.96 237.948 1931.32 233.086 Q1935.69 228.202 1942.98 228.202 Z" fill="#000000" fill-rule="evenodd" fill-opacity="1" /><path clip-path="url(#clip860)" d="M1970.94 232.67 L1970.94 259.545 L1976.59 259.545 Q1983.75 259.545 1987.06 256.304 Q1990.39 253.063 1990.39 246.072 Q1990.39 239.128 1987.06 235.91 Q1983.75 232.67 1976.59 232.67 L1970.94 232.67 M1966.27 228.827 L1975.87 228.827 Q1985.92 228.827 1990.62 233.017 Q1995.32 237.184 1995.32 246.072 Q1995.32 255.008 1990.6 259.197 Q1985.87 263.387 1975.87 263.387 L1966.27 263.387 L1966.27 228.827 Z" fill="#000000" fill-rule="evenodd" fill-opacity="1" /><path clip-path="url(#clip860)" d="M2002.77 228.827 L2024.62 228.827 L2024.62 232.762 L2007.45 232.762 L2007.45 242.994 L2023.91 242.994 L2023.91 246.929 L2007.45 246.929 L2007.45 259.452 L2025.04 259.452 L2025.04 263.387 L2002.77 263.387 L2002.77 228.827 Z" fill="#000000" fill-rule="evenodd" fill-opacity="1" /><path clip-path="url(#clip860)" d="M2052.24 271.258 L2052.24 274.568 L2027.61 274.568 L2027.61 271.258 L2052.24 271.258 Z" fill="#000000" fill-rule="evenodd" fill-opacity="1" /><path clip-path="url(#clip860)" d="M2061.11 246.883 L2061.11 259.545 L2068.61 259.545 Q2072.38 259.545 2074.18 257.994 Q2076.01 256.42 2076.01 253.202 Q2076.01 249.961 2074.18 248.434 Q2072.38 246.883 2068.61 246.883 L2061.11 246.883 M2061.11 232.67 L2061.11 243.086 L2068.03 243.086 Q2071.45 243.086 2073.12 241.813 Q2074.81 240.517 2074.81 237.878 Q2074.81 235.262 2073.12 233.966 Q2071.45 232.67 2068.03 232.67 L2061.11 232.67 M2056.43 228.827 L2068.37 228.827 Q2073.72 228.827 2076.62 231.049 Q2079.51 233.272 2079.51 237.369 Q2079.51 240.54 2078.03 242.415 Q2076.55 244.29 2073.68 244.753 Q2077.12 245.494 2079.02 247.855 Q2080.94 250.193 2080.94 253.711 Q2080.94 258.341 2077.8 260.864 Q2074.65 263.387 2068.84 263.387 L2056.43 263.387 L2056.43 228.827 Z" fill="#000000" fill-rule="evenodd" fill-opacity="1" /><path clip-path="url(#clip860)" d="M2093.63 232.67 L2093.63 259.545 L2099.28 259.545 Q2106.43 259.545 2109.74 256.304 Q2113.07 253.063 2113.07 246.072 Q2113.07 239.128 2109.74 235.91 Q2106.43 232.67 2099.28 232.67 L2093.63 232.67 M2088.95 228.827 L2098.56 228.827 Q2108.61 228.827 2113.3 233.017 Q2118 237.184 2118 246.072 Q2118 255.008 2113.28 259.197 Q2108.56 263.387 2098.56 263.387 L2088.95 263.387 L2088.95 228.827 Z" fill="#000000" fill-rule="evenodd" fill-opacity="1" /><path clip-path="url(#clip860)" d="M2125.46 228.827 L2145.32 228.827 L2145.32 232.762 L2130.13 232.762 L2130.13 242.947 L2143.84 242.947 L2143.84 246.883 L2130.13 246.883 L2130.13 263.387 L2125.46 263.387 L2125.46 228.827 Z" fill="#000000" fill-rule="evenodd" fill-opacity="1" /><polyline clip-path="url(#clip860)" style="stroke:#c271d2; stroke-linecap:butt; stroke-linejoin:round; stroke-width:4; stroke-opacity:1; fill:none" points="
  1706.25,297.947 1839.98,297.947 
  "/>
<path clip-path="url(#clip860)" d="M1773.11 272.347 L1747.51 297.947 L1773.11 323.547 L1798.71 297.947 L1773.11 272.347 Z" fill="#c271d2" fill-rule="evenodd" fill-opacity="1" stroke="#000000" stroke-opacity="1" stroke-width="4.9152"/>
<path clip-path="url(#clip860)" d="M1878.65 299.024 Q1880.16 299.533 1881.57 301.199 Q1883.01 302.866 1884.44 305.783 L1889.19 315.227 L1884.16 315.227 L1879.74 306.361 Q1878.03 302.889 1876.41 301.755 Q1874.81 300.621 1872.03 300.621 L1866.94 300.621 L1866.94 315.227 L1862.26 315.227 L1862.26 280.667 L1872.82 280.667 Q1878.75 280.667 1881.66 283.144 Q1884.58 285.621 1884.58 290.621 Q1884.58 293.885 1883.05 296.037 Q1881.55 298.19 1878.65 299.024 M1866.94 284.51 L1866.94 296.778 L1872.82 296.778 Q1876.2 296.778 1877.91 295.227 Q1879.65 293.653 1879.65 290.621 Q1879.65 287.588 1877.91 286.061 Q1876.2 284.51 1872.82 284.51 L1866.94 284.51 Z" fill="#000000" fill-rule="evenodd" fill-opacity="1" /><path clip-path="url(#clip860)" d="M1902.94 292.287 Q1899.51 292.287 1897.52 294.973 Q1895.53 297.635 1895.53 302.287 Q1895.53 306.94 1897.5 309.625 Q1899.49 312.287 1902.94 312.287 Q1906.34 312.287 1908.33 309.602 Q1910.32 306.917 1910.32 302.287 Q1910.32 297.681 1908.33 294.996 Q1906.34 292.287 1902.94 292.287 M1902.94 288.676 Q1908.49 288.676 1911.66 292.287 Q1914.83 295.899 1914.83 302.287 Q1914.83 308.653 1911.66 312.287 Q1908.49 315.898 1902.94 315.898 Q1897.36 315.898 1894.19 312.287 Q1891.04 308.653 1891.04 302.287 Q1891.04 295.899 1894.19 292.287 Q1897.36 288.676 1902.94 288.676 Z" fill="#000000" fill-rule="evenodd" fill-opacity="1" /><path clip-path="url(#clip860)" d="M1938.95 293.237 L1938.95 279.209 L1943.21 279.209 L1943.21 315.227 L1938.95 315.227 L1938.95 311.338 Q1937.61 313.653 1935.55 314.787 Q1933.51 315.898 1930.64 315.898 Q1925.94 315.898 1922.98 312.148 Q1920.04 308.399 1920.04 302.287 Q1920.04 296.176 1922.98 292.426 Q1925.94 288.676 1930.64 288.676 Q1933.51 288.676 1935.55 289.811 Q1937.61 290.922 1938.95 293.237 M1924.44 302.287 Q1924.44 306.986 1926.36 309.672 Q1928.31 312.334 1931.69 312.334 Q1935.06 312.334 1937.01 309.672 Q1938.95 306.986 1938.95 302.287 Q1938.95 297.588 1937.01 294.926 Q1935.06 292.241 1931.69 292.241 Q1928.31 292.241 1926.36 294.926 Q1924.44 297.588 1924.44 302.287 Z" fill="#000000" fill-rule="evenodd" fill-opacity="1" /><path clip-path="url(#clip860)" d="M1963.77 302.195 Q1958.61 302.195 1956.62 303.375 Q1954.63 304.556 1954.63 307.403 Q1954.63 309.672 1956.11 311.014 Q1957.61 312.334 1960.18 312.334 Q1963.72 312.334 1965.85 309.834 Q1968 307.311 1968 303.144 L1968 302.195 L1963.77 302.195 M1972.26 300.436 L1972.26 315.227 L1968 315.227 L1968 311.292 Q1966.55 313.653 1964.37 314.787 Q1962.19 315.898 1959.05 315.898 Q1955.06 315.898 1952.7 313.676 Q1950.37 311.431 1950.37 307.681 Q1950.37 303.306 1953.28 301.084 Q1956.22 298.862 1962.03 298.862 L1968 298.862 L1968 298.445 Q1968 295.505 1966.06 293.908 Q1964.14 292.287 1960.64 292.287 Q1958.42 292.287 1956.31 292.82 Q1954.21 293.352 1952.26 294.417 L1952.26 290.482 Q1954.6 289.579 1956.8 289.139 Q1959 288.676 1961.08 288.676 Q1966.71 288.676 1969.49 291.593 Q1972.26 294.51 1972.26 300.436 Z" fill="#000000" fill-rule="evenodd" fill-opacity="1" /><path clip-path="url(#clip860)" d="M1997.56 290.065 L1997.56 294.093 Q1995.76 293.167 1993.81 292.704 Q1991.87 292.241 1989.79 292.241 Q1986.62 292.241 1985.02 293.213 Q1983.44 294.186 1983.44 296.13 Q1983.44 297.612 1984.58 298.468 Q1985.71 299.301 1989.14 300.065 L1990.6 300.389 Q1995.13 301.362 1997.03 303.144 Q1998.95 304.903 1998.95 308.074 Q1998.95 311.686 1996.08 313.792 Q1993.24 315.898 1988.24 315.898 Q1986.15 315.898 1983.88 315.482 Q1981.64 315.088 1979.14 314.278 L1979.14 309.88 Q1981.5 311.107 1983.79 311.732 Q1986.08 312.334 1988.33 312.334 Q1991.34 312.334 1992.96 311.315 Q1994.58 310.274 1994.58 308.399 Q1994.58 306.662 1993.4 305.736 Q1992.24 304.811 1988.28 303.954 L1986.8 303.607 Q1982.84 302.774 1981.08 301.061 Q1979.32 299.324 1979.32 296.315 Q1979.32 292.658 1981.92 290.667 Q1984.51 288.676 1989.28 288.676 Q1991.64 288.676 1993.72 289.024 Q1995.81 289.371 1997.56 290.065 Z" fill="#000000" fill-rule="evenodd" fill-opacity="1" /><path clip-path="url(#clip860)" d="M2019.18 284.741 L2007.38 303.19 L2019.18 303.19 L2019.18 284.741 M2017.96 280.667 L2023.84 280.667 L2023.84 303.19 L2028.77 303.19 L2028.77 307.079 L2023.84 307.079 L2023.84 315.227 L2019.18 315.227 L2019.18 307.079 L2003.58 307.079 L2003.58 302.565 L2017.96 280.667 Z" fill="#000000" fill-rule="evenodd" fill-opacity="1" /><polyline clip-path="url(#clip860)" style="stroke:#ac8d18; stroke-linecap:butt; stroke-linejoin:round; stroke-width:4; stroke-opacity:1; fill:none" points="
  1706.25,349.787 1839.98,349.787 
  "/>
<path clip-path="url(#clip860)" d="M1798.71 324.187 L1747.51 324.187 L1773.11 375.387 L1798.71 324.187 Z" fill="#ac8d18" fill-rule="evenodd" fill-opacity="1" stroke="#000000" stroke-opacity="1" stroke-width="4.9152"/>
<path clip-path="url(#clip860)" d="M1877.45 345.123 Q1876.73 344.706 1875.88 344.521 Q1875.04 344.313 1874.02 344.313 Q1870.41 344.313 1868.47 346.674 Q1866.55 349.012 1866.55 353.41 L1866.55 367.067 L1862.26 367.067 L1862.26 341.141 L1866.55 341.141 L1866.55 345.169 Q1867.89 342.808 1870.04 341.674 Q1872.19 340.516 1875.27 340.516 Q1875.71 340.516 1876.25 340.586 Q1876.78 340.632 1877.43 340.748 L1877.45 345.123 Z" fill="#000000" fill-rule="evenodd" fill-opacity="1" /><path clip-path="url(#clip860)" d="M1890.92 344.127 Q1887.5 344.127 1885.51 346.813 Q1883.51 349.475 1883.51 354.127 Q1883.51 358.78 1885.48 361.465 Q1887.47 364.127 1890.92 364.127 Q1894.32 364.127 1896.32 361.442 Q1898.31 358.757 1898.31 354.127 Q1898.31 349.521 1896.32 346.836 Q1894.32 344.127 1890.92 344.127 M1890.92 340.516 Q1896.48 340.516 1899.65 344.127 Q1902.82 347.739 1902.82 354.127 Q1902.82 360.493 1899.65 364.127 Q1896.48 367.738 1890.92 367.738 Q1885.34 367.738 1882.17 364.127 Q1879.02 360.493 1879.02 354.127 Q1879.02 347.739 1882.17 344.127 Q1885.34 340.516 1890.92 340.516 Z" fill="#000000" fill-rule="evenodd" fill-opacity="1" /><path clip-path="url(#clip860)" d="M1926.94 345.077 L1926.94 331.049 L1931.2 331.049 L1931.2 367.067 L1926.94 367.067 L1926.94 363.178 Q1925.6 365.493 1923.54 366.627 Q1921.5 367.738 1918.63 367.738 Q1913.93 367.738 1910.97 363.988 Q1908.03 360.239 1908.03 354.127 Q1908.03 348.016 1910.97 344.266 Q1913.93 340.516 1918.63 340.516 Q1921.5 340.516 1923.54 341.651 Q1925.6 342.762 1926.94 345.077 M1912.43 354.127 Q1912.43 358.826 1914.35 361.512 Q1916.29 364.174 1919.67 364.174 Q1923.05 364.174 1925 361.512 Q1926.94 358.826 1926.94 354.127 Q1926.94 349.428 1925 346.766 Q1923.05 344.081 1919.67 344.081 Q1916.29 344.081 1914.35 346.766 Q1912.43 349.428 1912.43 354.127 Z" fill="#000000" fill-rule="evenodd" fill-opacity="1" /><path clip-path="url(#clip860)" d="M1951.75 354.035 Q1946.59 354.035 1944.6 355.215 Q1942.61 356.396 1942.61 359.243 Q1942.61 361.512 1944.09 362.854 Q1945.6 364.174 1948.17 364.174 Q1951.71 364.174 1953.84 361.674 Q1955.99 359.151 1955.99 354.984 L1955.99 354.035 L1951.75 354.035 M1960.25 352.276 L1960.25 367.067 L1955.99 367.067 L1955.99 363.132 Q1954.53 365.493 1952.36 366.627 Q1950.18 367.738 1947.03 367.738 Q1943.05 367.738 1940.69 365.516 Q1938.35 363.271 1938.35 359.521 Q1938.35 355.146 1941.27 352.924 Q1944.21 350.702 1950.02 350.702 L1955.99 350.702 L1955.99 350.285 Q1955.99 347.345 1954.05 345.748 Q1952.13 344.127 1948.63 344.127 Q1946.41 344.127 1944.3 344.66 Q1942.19 345.192 1940.25 346.257 L1940.25 342.322 Q1942.59 341.419 1944.79 340.979 Q1946.99 340.516 1949.07 340.516 Q1954.69 340.516 1957.47 343.433 Q1960.25 346.35 1960.25 352.276 Z" fill="#000000" fill-rule="evenodd" fill-opacity="1" /><path clip-path="url(#clip860)" d="M1985.55 341.905 L1985.55 345.933 Q1983.75 345.007 1981.8 344.544 Q1979.86 344.081 1977.77 344.081 Q1974.6 344.081 1973 345.053 Q1971.43 346.026 1971.43 347.97 Q1971.43 349.452 1972.56 350.308 Q1973.7 351.141 1977.12 351.905 L1978.58 352.229 Q1983.12 353.202 1985.02 354.984 Q1986.94 356.743 1986.94 359.914 Q1986.94 363.526 1984.07 365.632 Q1981.22 367.738 1976.22 367.738 Q1974.14 367.738 1971.87 367.322 Q1969.62 366.928 1967.12 366.118 L1967.12 361.72 Q1969.49 362.947 1971.78 363.572 Q1974.07 364.174 1976.31 364.174 Q1979.32 364.174 1980.94 363.155 Q1982.56 362.114 1982.56 360.239 Q1982.56 358.502 1981.38 357.576 Q1980.23 356.651 1976.27 355.794 L1974.79 355.447 Q1970.83 354.614 1969.07 352.901 Q1967.31 351.164 1967.31 348.155 Q1967.31 344.498 1969.9 342.507 Q1972.5 340.516 1977.26 340.516 Q1979.62 340.516 1981.71 340.864 Q1983.79 341.211 1985.55 341.905 Z" fill="#000000" fill-rule="evenodd" fill-opacity="1" /><polyline clip-path="url(#clip860)" style="stroke:#00a9ad; stroke-linecap:butt; stroke-linejoin:round; stroke-width:4; stroke-opacity:1; fill:none" points="
  1706.25,401.627 1839.98,401.627 
  "/>
<path clip-path="url(#clip860)" d="M1773.11 376.027 L1753.1 385.678 L1748.15 407.336 L1762 424.693 L1784.22 424.693 L1798.07 407.336 L1793.13 385.678 Z" fill="#00a9ad" fill-rule="evenodd" fill-opacity="1" stroke="#000000" stroke-opacity="1" stroke-width="4.9152"/>
<path clip-path="url(#clip860)" d="M1877.45 396.963 Q1876.73 396.546 1875.88 396.361 Q1875.04 396.153 1874.02 396.153 Q1870.41 396.153 1868.47 398.514 Q1866.55 400.852 1866.55 405.25 L1866.55 418.907 L1862.26 418.907 L1862.26 392.981 L1866.55 392.981 L1866.55 397.009 Q1867.89 394.648 1870.04 393.514 Q1872.19 392.356 1875.27 392.356 Q1875.71 392.356 1876.25 392.426 Q1876.78 392.472 1877.43 392.588 L1877.45 396.963 Z" fill="#000000" fill-rule="evenodd" fill-opacity="1" /><path clip-path="url(#clip860)" d="M1893.7 405.875 Q1888.54 405.875 1886.55 407.055 Q1884.56 408.236 1884.56 411.083 Q1884.56 413.352 1886.04 414.694 Q1887.54 416.014 1890.11 416.014 Q1893.65 416.014 1895.78 413.514 Q1897.94 410.991 1897.94 406.824 L1897.94 405.875 L1893.7 405.875 M1902.19 404.116 L1902.19 418.907 L1897.94 418.907 L1897.94 414.972 Q1896.48 417.333 1894.3 418.467 Q1892.13 419.578 1888.98 419.578 Q1885 419.578 1882.63 417.356 Q1880.3 415.111 1880.3 411.361 Q1880.3 406.986 1883.21 404.764 Q1886.15 402.542 1891.96 402.542 L1897.94 402.542 L1897.94 402.125 Q1897.94 399.185 1895.99 397.588 Q1894.07 395.967 1890.57 395.967 Q1888.35 395.967 1886.25 396.5 Q1884.14 397.032 1882.19 398.097 L1882.19 394.162 Q1884.53 393.259 1886.73 392.819 Q1888.93 392.356 1891.01 392.356 Q1896.64 392.356 1899.42 395.273 Q1902.19 398.19 1902.19 404.116 Z" fill="#000000" fill-rule="evenodd" fill-opacity="1" /><path clip-path="url(#clip860)" d="M1928.03 396.917 L1928.03 382.889 L1932.29 382.889 L1932.29 418.907 L1928.03 418.907 L1928.03 415.018 Q1926.69 417.333 1924.63 418.467 Q1922.59 419.578 1919.72 419.578 Q1915.02 419.578 1912.06 415.828 Q1909.12 412.079 1909.12 405.967 Q1909.12 399.856 1912.06 396.106 Q1915.02 392.356 1919.72 392.356 Q1922.59 392.356 1924.63 393.491 Q1926.69 394.602 1928.03 396.917 M1913.51 405.967 Q1913.51 410.666 1915.44 413.352 Q1917.38 416.014 1920.76 416.014 Q1924.14 416.014 1926.08 413.352 Q1928.03 410.666 1928.03 405.967 Q1928.03 401.268 1926.08 398.606 Q1924.14 395.921 1920.76 395.921 Q1917.38 395.921 1915.44 398.606 Q1913.51 401.268 1913.51 405.967 Z" fill="#000000" fill-rule="evenodd" fill-opacity="1" /><path clip-path="url(#clip860)" d="M1952.84 405.875 Q1947.68 405.875 1945.69 407.055 Q1943.7 408.236 1943.7 411.083 Q1943.7 413.352 1945.18 414.694 Q1946.69 416.014 1949.25 416.014 Q1952.8 416.014 1954.93 413.514 Q1957.08 410.991 1957.08 406.824 L1957.08 405.875 L1952.84 405.875 M1961.34 404.116 L1961.34 418.907 L1957.08 418.907 L1957.08 414.972 Q1955.62 417.333 1953.44 418.467 Q1951.27 419.578 1948.12 419.578 Q1944.14 419.578 1941.78 417.356 Q1939.44 415.111 1939.44 411.361 Q1939.44 406.986 1942.36 404.764 Q1945.3 402.542 1951.11 402.542 L1957.08 402.542 L1957.08 402.125 Q1957.08 399.185 1955.13 397.588 Q1953.21 395.967 1949.72 395.967 Q1947.5 395.967 1945.39 396.5 Q1943.28 397.032 1941.34 398.097 L1941.34 394.162 Q1943.68 393.259 1945.88 392.819 Q1948.07 392.356 1950.16 392.356 Q1955.78 392.356 1958.56 395.273 Q1961.34 398.19 1961.34 404.116 Z" fill="#000000" fill-rule="evenodd" fill-opacity="1" /><path clip-path="url(#clip860)" d="M1969.67 408.676 L1969.67 392.981 L1973.93 392.981 L1973.93 408.514 Q1973.93 412.194 1975.37 414.046 Q1976.8 415.875 1979.67 415.875 Q1983.12 415.875 1985.11 413.676 Q1987.12 411.477 1987.12 407.68 L1987.12 392.981 L1991.38 392.981 L1991.38 418.907 L1987.12 418.907 L1987.12 414.926 Q1985.57 417.287 1983.51 418.444 Q1981.48 419.578 1978.77 419.578 Q1974.3 419.578 1971.99 416.801 Q1969.67 414.023 1969.67 408.676 M1980.39 392.356 L1980.39 392.356 Z" fill="#000000" fill-rule="evenodd" fill-opacity="1" /><polyline clip-path="url(#clip860)" style="stroke:#ed5d92; stroke-linecap:butt; stroke-linejoin:round; stroke-width:4; stroke-opacity:1; fill:none" points="
  1706.25,453.467 1839.98,453.467 
  "/>
<path clip-path="url(#clip860)" d="M1773.11 479.067 L1750.94 466.267 L1750.94 440.667 L1773.11 427.867 L1795.28 440.667 L1795.28 466.267 Z" fill="#ed5d92" fill-rule="evenodd" fill-opacity="1" stroke="#000000" stroke-opacity="1" stroke-width="4.9152"/>
<path clip-path="url(#clip860)" d="M1862.26 434.729 L1866.52 434.729 L1866.52 470.747 L1862.26 470.747 L1862.26 434.729 Z" fill="#000000" fill-rule="evenodd" fill-opacity="1" /><path clip-path="url(#clip860)" d="M1891.96 445.585 L1891.96 449.613 Q1890.16 448.687 1888.21 448.224 Q1886.27 447.761 1884.19 447.761 Q1881.01 447.761 1879.42 448.733 Q1877.84 449.706 1877.84 451.65 Q1877.84 453.132 1878.98 453.988 Q1880.11 454.821 1883.54 455.585 L1885 455.909 Q1889.53 456.882 1891.43 458.664 Q1893.35 460.423 1893.35 463.594 Q1893.35 467.206 1890.48 469.312 Q1887.63 471.418 1882.63 471.418 Q1880.55 471.418 1878.28 471.002 Q1876.04 470.608 1873.54 469.798 L1873.54 465.4 Q1875.9 466.627 1878.19 467.252 Q1880.48 467.854 1882.73 467.854 Q1885.74 467.854 1887.36 466.835 Q1888.98 465.794 1888.98 463.919 Q1888.98 462.182 1887.8 461.256 Q1886.64 460.331 1882.68 459.474 L1881.2 459.127 Q1877.24 458.294 1875.48 456.581 Q1873.72 454.844 1873.72 451.835 Q1873.72 448.178 1876.32 446.187 Q1878.91 444.196 1883.68 444.196 Q1886.04 444.196 1888.12 444.544 Q1890.2 444.891 1891.96 445.585 Z" fill="#000000" fill-rule="evenodd" fill-opacity="1" /><path clip-path="url(#clip860)" d="M1910.18 447.807 Q1906.75 447.807 1904.76 450.493 Q1902.77 453.155 1902.77 457.807 Q1902.77 462.46 1904.74 465.145 Q1906.73 467.807 1910.18 467.807 Q1913.58 467.807 1915.57 465.122 Q1917.57 462.437 1917.57 457.807 Q1917.57 453.201 1915.57 450.516 Q1913.58 447.807 1910.18 447.807 M1910.18 444.196 Q1915.74 444.196 1918.91 447.807 Q1922.08 451.419 1922.08 457.807 Q1922.08 464.173 1918.91 467.807 Q1915.74 471.418 1910.18 471.418 Q1904.6 471.418 1901.43 467.807 Q1898.28 464.173 1898.28 457.807 Q1898.28 451.419 1901.43 447.807 Q1904.6 444.196 1910.18 444.196 Z" fill="#000000" fill-rule="evenodd" fill-opacity="1" /><path clip-path="url(#clip860)" d="M1946.2 448.757 L1946.2 434.729 L1950.46 434.729 L1950.46 470.747 L1946.2 470.747 L1946.2 466.858 Q1944.86 469.173 1942.8 470.307 Q1940.76 471.418 1937.89 471.418 Q1933.19 471.418 1930.23 467.668 Q1927.29 463.919 1927.29 457.807 Q1927.29 451.696 1930.23 447.946 Q1933.19 444.196 1937.89 444.196 Q1940.76 444.196 1942.8 445.331 Q1944.86 446.442 1946.2 448.757 M1931.69 457.807 Q1931.69 462.506 1933.61 465.192 Q1935.55 467.854 1938.93 467.854 Q1942.31 467.854 1944.25 465.192 Q1946.2 462.506 1946.2 457.807 Q1946.2 453.108 1944.25 450.446 Q1942.31 447.761 1938.93 447.761 Q1935.55 447.761 1933.61 450.446 Q1931.69 453.108 1931.69 457.807 Z" fill="#000000" fill-rule="evenodd" fill-opacity="1" /><path clip-path="url(#clip860)" d="M1971.01 457.715 Q1965.85 457.715 1963.86 458.895 Q1961.87 460.076 1961.87 462.923 Q1961.87 465.192 1963.35 466.534 Q1964.86 467.854 1967.43 467.854 Q1970.97 467.854 1973.1 465.354 Q1975.25 462.831 1975.25 458.664 L1975.25 457.715 L1971.01 457.715 M1979.51 455.956 L1979.51 470.747 L1975.25 470.747 L1975.25 466.812 Q1973.79 469.173 1971.62 470.307 Q1969.44 471.418 1966.29 471.418 Q1962.31 471.418 1959.95 469.196 Q1957.61 466.951 1957.61 463.201 Q1957.61 458.826 1960.53 456.604 Q1963.47 454.382 1969.28 454.382 L1975.25 454.382 L1975.25 453.965 Q1975.25 451.025 1973.31 449.428 Q1971.38 447.807 1967.89 447.807 Q1965.67 447.807 1963.56 448.34 Q1961.45 448.872 1959.51 449.937 L1959.51 446.002 Q1961.85 445.099 1964.05 444.659 Q1966.25 444.196 1968.33 444.196 Q1973.95 444.196 1976.73 447.113 Q1979.51 450.03 1979.51 455.956 Z" fill="#000000" fill-rule="evenodd" fill-opacity="1" /><polyline clip-path="url(#clip860)" style="stroke:#c68125; stroke-linecap:butt; stroke-linejoin:round; stroke-width:4; stroke-opacity:1; fill:none" points="
  1706.25,505.307 1839.98,505.307 
  "/>
<line clip-path="url(#clip860)" x1="1798.71" y1="505.307" x2="1747.51" y2="505.307" style="stroke:#c68125; stroke-width:4.9152; stroke-opacity:1"/>
<path clip-path="url(#clip860)" d="M1878.65 506.384 Q1880.16 506.893 1881.57 508.559 Q1883.01 510.226 1884.44 513.143 L1889.19 522.587 L1884.16 522.587 L1879.74 513.721 Q1878.03 510.249 1876.41 509.115 Q1874.81 507.981 1872.03 507.981 L1866.94 507.981 L1866.94 522.587 L1862.26 522.587 L1862.26 488.027 L1872.82 488.027 Q1878.75 488.027 1881.66 490.504 Q1884.58 492.981 1884.58 497.981 Q1884.58 501.245 1883.05 503.397 Q1881.55 505.55 1878.65 506.384 M1866.94 491.87 L1866.94 504.138 L1872.82 504.138 Q1876.2 504.138 1877.91 502.587 Q1879.65 501.013 1879.65 497.981 Q1879.65 494.948 1877.91 493.421 Q1876.2 491.87 1872.82 491.87 L1866.94 491.87 Z" fill="#000000" fill-rule="evenodd" fill-opacity="1" /><path clip-path="url(#clip860)" d="M1905.76 509.555 Q1900.6 509.555 1898.61 510.735 Q1896.62 511.916 1896.62 514.763 Q1896.62 517.032 1898.1 518.374 Q1899.6 519.694 1902.17 519.694 Q1905.71 519.694 1907.84 517.194 Q1910 514.671 1910 510.504 L1910 509.555 L1905.76 509.555 M1914.25 507.796 L1914.25 522.587 L1910 522.587 L1910 518.652 Q1908.54 521.013 1906.36 522.147 Q1904.19 523.258 1901.04 523.258 Q1897.06 523.258 1894.69 521.036 Q1892.36 518.791 1892.36 515.041 Q1892.36 510.666 1895.27 508.444 Q1898.21 506.222 1904.02 506.222 L1910 506.222 L1910 505.805 Q1910 502.865 1908.05 501.268 Q1906.13 499.647 1902.63 499.647 Q1900.41 499.647 1898.31 500.18 Q1896.2 500.712 1894.26 501.777 L1894.26 497.842 Q1896.59 496.939 1898.79 496.499 Q1900.99 496.036 1903.07 496.036 Q1908.7 496.036 1911.48 498.953 Q1914.25 501.87 1914.25 507.796 Z" fill="#000000" fill-rule="evenodd" fill-opacity="1" /><path clip-path="url(#clip860)" d="M1940.09 500.597 L1940.09 486.569 L1944.35 486.569 L1944.35 522.587 L1940.09 522.587 L1940.09 518.698 Q1938.75 521.013 1936.69 522.147 Q1934.65 523.258 1931.78 523.258 Q1927.08 523.258 1924.12 519.508 Q1921.18 515.759 1921.18 509.647 Q1921.18 503.536 1924.12 499.786 Q1927.08 496.036 1931.78 496.036 Q1934.65 496.036 1936.69 497.171 Q1938.75 498.282 1940.09 500.597 M1925.57 509.647 Q1925.57 514.346 1927.5 517.032 Q1929.44 519.694 1932.82 519.694 Q1936.2 519.694 1938.14 517.032 Q1940.09 514.346 1940.09 509.647 Q1940.09 504.948 1938.14 502.286 Q1936.2 499.601 1932.82 499.601 Q1929.44 499.601 1927.5 502.286 Q1925.57 504.948 1925.57 509.647 Z" fill="#000000" fill-rule="evenodd" fill-opacity="1" /><path clip-path="url(#clip860)" d="M1964.9 509.555 Q1959.74 509.555 1957.75 510.735 Q1955.76 511.916 1955.76 514.763 Q1955.76 517.032 1957.24 518.374 Q1958.75 519.694 1961.31 519.694 Q1964.86 519.694 1966.99 517.194 Q1969.14 514.671 1969.14 510.504 L1969.14 509.555 L1964.9 509.555 M1973.4 507.796 L1973.4 522.587 L1969.14 522.587 L1969.14 518.652 Q1967.68 521.013 1965.5 522.147 Q1963.33 523.258 1960.18 523.258 Q1956.2 523.258 1953.84 521.036 Q1951.5 518.791 1951.5 515.041 Q1951.5 510.666 1954.42 508.444 Q1957.36 506.222 1963.17 506.222 L1969.14 506.222 L1969.14 505.805 Q1969.14 502.865 1967.19 501.268 Q1965.27 499.647 1961.78 499.647 Q1959.56 499.647 1957.45 500.18 Q1955.34 500.712 1953.4 501.777 L1953.4 497.842 Q1955.74 496.939 1957.94 496.499 Q1960.13 496.036 1962.22 496.036 Q1967.84 496.036 1970.62 498.953 Q1973.4 501.87 1973.4 507.796 Z" fill="#000000" fill-rule="evenodd" fill-opacity="1" /><path clip-path="url(#clip860)" d="M1981.73 512.356 L1981.73 496.661 L1985.99 496.661 L1985.99 512.194 Q1985.99 515.874 1987.43 517.726 Q1988.86 519.555 1991.73 519.555 Q1995.18 519.555 1997.17 517.356 Q1999.19 515.157 1999.19 511.36 L1999.19 496.661 L2003.44 496.661 L2003.44 522.587 L1999.19 522.587 L1999.19 518.606 Q1997.63 520.967 1995.57 522.124 Q1993.54 523.258 1990.83 523.258 Q1986.36 523.258 1984.05 520.481 Q1981.73 517.703 1981.73 512.356 M1992.45 496.036 L1992.45 496.036 Z" fill="#000000" fill-rule="evenodd" fill-opacity="1" /><path clip-path="url(#clip860)" d="M2012.4 488.027 L2017.08 488.027 L2017.08 522.587 L2012.4 522.587 L2012.4 488.027 Z" fill="#000000" fill-rule="evenodd" fill-opacity="1" /><path clip-path="url(#clip860)" d="M2026.38 488.027 L2031.06 488.027 L2031.06 522.587 L2026.38 522.587 L2026.38 488.027 Z" fill="#000000" fill-rule="evenodd" fill-opacity="1" /><path clip-path="url(#clip860)" d="M2051.92 492.634 L2045.57 509.833 L2058.28 509.833 L2051.92 492.634 M2049.28 488.027 L2054.58 488.027 L2067.75 522.587 L2062.89 522.587 L2059.74 513.721 L2044.16 513.721 L2041.01 522.587 L2036.08 522.587 L2049.28 488.027 Z" fill="#000000" fill-rule="evenodd" fill-opacity="1" /><path clip-path="url(#clip860)" d="M2073.26 488.027 L2091.62 488.027 L2091.62 491.962 L2077.54 491.962 L2077.54 500.435 Q2078.56 500.087 2079.58 499.925 Q2080.6 499.74 2081.62 499.74 Q2087.4 499.74 2090.78 502.911 Q2094.16 506.083 2094.16 511.499 Q2094.16 517.078 2090.69 520.18 Q2087.22 523.258 2080.9 523.258 Q2078.72 523.258 2076.45 522.888 Q2074.21 522.518 2071.8 521.777 L2071.8 517.078 Q2073.88 518.212 2076.11 518.768 Q2078.33 519.323 2080.8 519.323 Q2084.81 519.323 2087.15 517.217 Q2089.49 515.11 2089.49 511.499 Q2089.49 507.888 2087.15 505.782 Q2084.81 503.675 2080.8 503.675 Q2078.93 503.675 2077.05 504.092 Q2075.2 504.509 2073.26 505.388 L2073.26 488.027 Z" fill="#000000" fill-rule="evenodd" fill-opacity="1" /><polyline clip-path="url(#clip860)" style="stroke:#00a98d; stroke-linecap:butt; stroke-linejoin:round; stroke-width:4; stroke-opacity:1; fill:none" points="
  1706.25,557.147 1839.98,557.147 
  "/>
<path clip-path="url(#clip860)" d="M1752.63 557.147 L1783.35 575.067 L1783.35 539.227 L1752.63 557.147 Z" fill="#00a98d" fill-rule="evenodd" fill-opacity="1" stroke="#000000" stroke-opacity="1" stroke-width="4.9152"/>
<path clip-path="url(#clip860)" d="M1878.65 558.224 Q1880.16 558.733 1881.57 560.399 Q1883.01 562.066 1884.44 564.983 L1889.19 574.427 L1884.16 574.427 L1879.74 565.561 Q1878.03 562.089 1876.41 560.955 Q1874.81 559.821 1872.03 559.821 L1866.94 559.821 L1866.94 574.427 L1862.26 574.427 L1862.26 539.867 L1872.82 539.867 Q1878.75 539.867 1881.66 542.344 Q1884.58 544.821 1884.58 549.821 Q1884.58 553.085 1883.05 555.237 Q1881.55 557.39 1878.65 558.224 M1866.94 543.71 L1866.94 555.978 L1872.82 555.978 Q1876.2 555.978 1877.91 554.427 Q1879.65 552.853 1879.65 549.821 Q1879.65 546.788 1877.91 545.261 Q1876.2 543.71 1872.82 543.71 L1866.94 543.71 Z" fill="#000000" fill-rule="evenodd" fill-opacity="1" /><path clip-path="url(#clip860)" d="M1902.94 551.487 Q1899.51 551.487 1897.52 554.173 Q1895.53 556.835 1895.53 561.487 Q1895.53 566.14 1897.5 568.825 Q1899.49 571.487 1902.94 571.487 Q1906.34 571.487 1908.33 568.802 Q1910.32 566.117 1910.32 561.487 Q1910.32 556.881 1908.33 554.196 Q1906.34 551.487 1902.94 551.487 M1902.94 547.876 Q1908.49 547.876 1911.66 551.487 Q1914.83 555.099 1914.83 561.487 Q1914.83 567.853 1911.66 571.487 Q1908.49 575.098 1902.94 575.098 Q1897.36 575.098 1894.19 571.487 Q1891.04 567.853 1891.04 561.487 Q1891.04 555.099 1894.19 551.487 Q1897.36 547.876 1902.94 547.876 Z" fill="#000000" fill-rule="evenodd" fill-opacity="1" /><path clip-path="url(#clip860)" d="M1938.95 552.437 L1938.95 538.409 L1943.21 538.409 L1943.21 574.427 L1938.95 574.427 L1938.95 570.538 Q1937.61 572.853 1935.55 573.987 Q1933.51 575.098 1930.64 575.098 Q1925.94 575.098 1922.98 571.348 Q1920.04 567.599 1920.04 561.487 Q1920.04 555.376 1922.98 551.626 Q1925.94 547.876 1930.64 547.876 Q1933.51 547.876 1935.55 549.011 Q1937.61 550.122 1938.95 552.437 M1924.44 561.487 Q1924.44 566.186 1926.36 568.872 Q1928.31 571.534 1931.69 571.534 Q1935.06 571.534 1937.01 568.872 Q1938.95 566.186 1938.95 561.487 Q1938.95 556.788 1937.01 554.126 Q1935.06 551.441 1931.69 551.441 Q1928.31 551.441 1926.36 554.126 Q1924.44 556.788 1924.44 561.487 Z" fill="#000000" fill-rule="evenodd" fill-opacity="1" /><path clip-path="url(#clip860)" d="M1963.77 561.395 Q1958.61 561.395 1956.62 562.575 Q1954.63 563.756 1954.63 566.603 Q1954.63 568.872 1956.11 570.214 Q1957.61 571.534 1960.18 571.534 Q1963.72 571.534 1965.85 569.034 Q1968 566.511 1968 562.344 L1968 561.395 L1963.77 561.395 M1972.26 559.636 L1972.26 574.427 L1968 574.427 L1968 570.492 Q1966.55 572.853 1964.37 573.987 Q1962.19 575.098 1959.05 575.098 Q1955.06 575.098 1952.7 572.876 Q1950.37 570.631 1950.37 566.881 Q1950.37 562.506 1953.28 560.284 Q1956.22 558.062 1962.03 558.062 L1968 558.062 L1968 557.645 Q1968 554.705 1966.06 553.108 Q1964.14 551.487 1960.64 551.487 Q1958.42 551.487 1956.31 552.02 Q1954.21 552.552 1952.26 553.617 L1952.26 549.682 Q1954.6 548.779 1956.8 548.339 Q1959 547.876 1961.08 547.876 Q1966.71 547.876 1969.49 550.793 Q1972.26 553.71 1972.26 559.636 Z" fill="#000000" fill-rule="evenodd" fill-opacity="1" /><path clip-path="url(#clip860)" d="M1997.56 549.265 L1997.56 553.293 Q1995.76 552.367 1993.81 551.904 Q1991.87 551.441 1989.79 551.441 Q1986.62 551.441 1985.02 552.413 Q1983.44 553.386 1983.44 555.33 Q1983.44 556.812 1984.58 557.668 Q1985.71 558.501 1989.14 559.265 L1990.6 559.589 Q1995.13 560.562 1997.03 562.344 Q1998.95 564.103 1998.95 567.274 Q1998.95 570.886 1996.08 572.992 Q1993.24 575.098 1988.24 575.098 Q1986.15 575.098 1983.88 574.682 Q1981.64 574.288 1979.14 573.478 L1979.14 569.08 Q1981.5 570.307 1983.79 570.932 Q1986.08 571.534 1988.33 571.534 Q1991.34 571.534 1992.96 570.515 Q1994.58 569.474 1994.58 567.599 Q1994.58 565.862 1993.4 564.936 Q1992.24 564.011 1988.28 563.154 L1986.8 562.807 Q1982.84 561.974 1981.08 560.261 Q1979.32 558.524 1979.32 555.515 Q1979.32 551.858 1981.92 549.867 Q1984.51 547.876 1989.28 547.876 Q1991.64 547.876 1993.72 548.224 Q1995.81 548.571 1997.56 549.265 Z" fill="#000000" fill-rule="evenodd" fill-opacity="1" /><path clip-path="url(#clip860)" d="M2006.38 539.867 L2024.74 539.867 L2024.74 543.802 L2010.67 543.802 L2010.67 552.275 Q2011.68 551.927 2012.7 551.765 Q2013.72 551.58 2014.74 551.58 Q2020.53 551.58 2023.91 554.751 Q2027.29 557.923 2027.29 563.339 Q2027.29 568.918 2023.81 572.02 Q2020.34 575.098 2014.02 575.098 Q2011.85 575.098 2009.58 574.728 Q2007.33 574.358 2004.93 573.617 L2004.93 568.918 Q2007.01 570.052 2009.23 570.608 Q2011.45 571.163 2013.93 571.163 Q2017.93 571.163 2020.27 569.057 Q2022.61 566.95 2022.61 563.339 Q2022.61 559.728 2020.27 557.622 Q2017.93 555.515 2013.93 555.515 Q2012.06 555.515 2010.18 555.932 Q2008.33 556.349 2006.38 557.228 L2006.38 539.867 Z" fill="#000000" fill-rule="evenodd" fill-opacity="1" /></svg>
