<?xml version="1.0" encoding="utf-8"?>
<svg xmlns="http://www.w3.org/2000/svg" xmlns:xlink="http://www.w3.org/1999/xlink" width="576" height="384" viewBox="0 0 2304 1536">
<defs>
  <clipPath id="clip420">
    <rect x="0" y="0" width="2304" height="1536"/>
  </clipPath>
</defs>
<path clip-path="url(#clip420)" d="
M0 1536 L2304 1536 L2304 0 L0 0  Z
  " fill="#ffffff" fill-rule="evenodd" fill-opacity="1"/>
<defs>
  <clipPath id="clip421">
    <rect x="460" y="0" width="1614" height="1536"/>
  </clipPath>
</defs>
<path clip-path="url(#clip420)" d="
M250.882 1347.54 L2256.76 1347.54 L2256.76 47.2441 L250.882 47.2441  Z
  " fill="#ffffff" fill-rule="evenodd" fill-opacity="1"/>
<defs>
  <clipPath id="clip422">
    <rect x="250" y="47" width="2007" height="1301"/>
  </clipPath>
</defs>
<polyline clip-path="url(#clip422)" style="stroke:#000000; stroke-linecap:butt; stroke-linejoin:round; stroke-width:2; stroke-opacity:0.1; fill:none" points="
  528.439,1347.54 528.439,47.2441 
  "/>
<polyline clip-path="url(#clip422)" style="stroke:#000000; stroke-linecap:butt; stroke-linejoin:round; stroke-width:2; stroke-opacity:0.1; fill:none" points="
  1735.57,1347.54 1735.57,47.2441 
  "/>
<polyline clip-path="url(#clip420)" style="stroke:#000000; stroke-linecap:butt; stroke-linejoin:round; stroke-width:4; stroke-opacity:1; fill:none" points="
  250.882,1347.54 2256.76,1347.54 
  "/>
<polyline clip-path="url(#clip420)" style="stroke:#000000; stroke-linecap:butt; stroke-linejoin:round; stroke-width:4; stroke-opacity:1; fill:none" points="
  528.439,1347.54 528.439,1328.64 
  "/>
<polyline clip-path="url(#clip420)" style="stroke:#000000; stroke-linecap:butt; stroke-linejoin:round; stroke-width:4; stroke-opacity:1; fill:none" points="
  1735.57,1347.54 1735.57,1328.64 
  "/>
<path clip-path="url(#clip420)" d="M478.461 1420.89 L486.1 1420.89 L486.1 1394.53 L477.789 1396.19 L477.789 1391.94 L486.053 1390.27 L490.729 1390.27 L490.729 1420.89 L498.368 1420.89 L498.368 1424.83 L478.461 1424.83 L478.461 1420.89 Z" fill="#000000" fill-rule="evenodd" fill-opacity="1" /><path clip-path="url(#clip420)" d="M517.812 1393.35 Q514.201 1393.35 512.373 1396.91 Q510.567 1400.45 510.567 1407.58 Q510.567 1414.69 512.373 1418.25 Q514.201 1421.8 517.812 1421.8 Q521.447 1421.8 523.252 1418.25 Q525.081 1414.69 525.081 1407.58 Q525.081 1400.45 523.252 1396.91 Q521.447 1393.35 517.812 1393.35 M517.812 1389.64 Q523.622 1389.64 526.678 1394.25 Q529.757 1398.83 529.757 1407.58 Q529.757 1416.31 526.678 1420.92 Q523.622 1425.5 517.812 1425.5 Q512.002 1425.5 508.923 1420.92 Q505.868 1416.31 505.868 1407.58 Q505.868 1398.83 508.923 1394.25 Q512.002 1389.64 517.812 1389.64 Z" fill="#000000" fill-rule="evenodd" fill-opacity="1" /><path clip-path="url(#clip420)" d="M529.757 1383.74 L553.868 1383.74 L553.868 1386.94 L529.757 1386.94 L529.757 1383.74 Z" fill="#000000" fill-rule="evenodd" fill-opacity="1" /><path clip-path="url(#clip420)" d="M562.106 1369.34 L577.021 1369.34 L577.021 1372.54 L565.585 1372.54 L565.585 1379.42 Q566.413 1379.14 567.241 1379.01 Q568.068 1378.85 568.896 1378.85 Q573.598 1378.85 576.344 1381.43 Q579.089 1384.01 579.089 1388.41 Q579.089 1392.94 576.268 1395.46 Q573.447 1397.96 568.313 1397.96 Q566.545 1397.96 564.702 1397.66 Q562.877 1397.36 560.921 1396.76 L560.921 1392.94 Q562.614 1393.86 564.419 1394.31 Q566.225 1394.77 568.237 1394.77 Q571.491 1394.77 573.391 1393.05 Q575.29 1391.34 575.29 1388.41 Q575.29 1385.48 573.391 1383.76 Q571.491 1382.05 568.237 1382.05 Q566.714 1382.05 565.191 1382.39 Q563.686 1382.73 562.106 1383.44 L562.106 1369.34 Z" fill="#000000" fill-rule="evenodd" fill-opacity="1" /><path clip-path="url(#clip420)" d="M1700.55 1420.89 L1708.19 1420.89 L1708.19 1394.53 L1699.88 1396.19 L1699.88 1391.94 L1708.14 1390.27 L1712.82 1390.27 L1712.82 1420.89 L1720.46 1420.89 L1720.46 1424.83 L1700.55 1424.83 L1700.55 1420.89 Z" fill="#000000" fill-rule="evenodd" fill-opacity="1" /><path clip-path="url(#clip420)" d="M1739.9 1393.35 Q1736.29 1393.35 1734.46 1396.91 Q1732.66 1400.45 1732.66 1407.58 Q1732.66 1414.69 1734.46 1418.25 Q1736.29 1421.8 1739.9 1421.8 Q1743.54 1421.8 1745.34 1418.25 Q1747.17 1414.69 1747.17 1407.58 Q1747.17 1400.45 1745.34 1396.91 Q1743.54 1393.35 1739.9 1393.35 M1739.9 1389.64 Q1745.71 1389.64 1748.77 1394.25 Q1751.85 1398.83 1751.85 1407.58 Q1751.85 1416.31 1748.77 1420.92 Q1745.71 1425.5 1739.9 1425.5 Q1734.09 1425.5 1731.01 1420.92 Q1727.96 1416.31 1727.96 1407.58 Q1727.96 1398.83 1731.01 1394.25 Q1734.09 1389.64 1739.9 1389.64 Z" fill="#000000" fill-rule="evenodd" fill-opacity="1" /><path clip-path="url(#clip420)" d="M1761.55 1371.84 Q1758.62 1371.84 1757.13 1374.74 Q1755.66 1377.61 1755.66 1383.41 Q1755.66 1389.18 1757.13 1392.08 Q1758.62 1394.95 1761.55 1394.95 Q1764.5 1394.95 1765.97 1392.08 Q1767.46 1389.18 1767.46 1383.41 Q1767.46 1377.61 1765.97 1374.74 Q1764.5 1371.84 1761.55 1371.84 M1761.55 1368.83 Q1766.27 1368.83 1768.75 1372.57 Q1771.26 1376.3 1771.26 1383.41 Q1771.26 1390.5 1768.75 1394.24 Q1766.27 1397.96 1761.55 1397.96 Q1756.83 1397.96 1754.33 1394.24 Q1751.85 1390.5 1751.85 1383.41 Q1751.85 1376.3 1754.33 1372.57 Q1756.83 1368.83 1761.55 1368.83 Z" fill="#000000" fill-rule="evenodd" fill-opacity="1" /><path clip-path="url(#clip420)" d="M1177.57 1461.87 L1207.62 1461.87 L1207.62 1467.28 L1184 1467.28 L1184 1481.34 L1206.63 1481.34 L1206.63 1486.76 L1184 1486.76 L1184 1503.97 L1208.19 1503.97 L1208.19 1509.39 L1177.57 1509.39 L1177.57 1461.87 Z" fill="#000000" fill-rule="evenodd" fill-opacity="1" /><path clip-path="url(#clip420)" d="M1239.16 1479.21 Q1238.18 1478.64 1237 1478.38 Q1235.85 1478.1 1234.45 1478.1 Q1229.49 1478.1 1226.81 1481.34 Q1224.17 1484.56 1224.17 1490.61 L1224.17 1509.39 L1218.28 1509.39 L1218.28 1473.74 L1224.17 1473.74 L1224.17 1479.28 Q1226.02 1476.03 1228.98 1474.47 Q1231.94 1472.88 1236.17 1472.88 Q1236.77 1472.88 1237.51 1472.97 Q1238.24 1473.04 1239.13 1473.2 L1239.16 1479.21 Z" fill="#000000" fill-rule="evenodd" fill-opacity="1" /><path clip-path="url(#clip420)" d="M1264.82 1479.21 Q1263.83 1478.64 1262.65 1478.38 Q1261.51 1478.1 1260.11 1478.1 Q1255.14 1478.1 1252.47 1481.34 Q1249.82 1484.56 1249.82 1490.61 L1249.82 1509.39 L1243.94 1509.39 L1243.94 1473.74 L1249.82 1473.74 L1249.82 1479.28 Q1251.67 1476.03 1254.63 1474.47 Q1257.59 1472.88 1261.82 1472.88 Q1262.43 1472.88 1263.16 1472.97 Q1263.89 1473.04 1264.78 1473.2 L1264.82 1479.21 Z" fill="#000000" fill-rule="evenodd" fill-opacity="1" /><path clip-path="url(#clip420)" d="M1283.34 1477.84 Q1278.63 1477.84 1275.89 1481.54 Q1273.15 1485.2 1273.15 1491.59 Q1273.15 1497.99 1275.86 1501.68 Q1278.6 1505.34 1283.34 1505.34 Q1288.02 1505.34 1290.76 1501.65 Q1293.49 1497.96 1293.49 1491.59 Q1293.49 1485.26 1290.76 1481.57 Q1288.02 1477.84 1283.34 1477.84 M1283.34 1472.88 Q1290.98 1472.88 1295.34 1477.84 Q1299.7 1482.81 1299.7 1491.59 Q1299.7 1500.35 1295.34 1505.34 Q1290.98 1510.31 1283.34 1510.31 Q1275.67 1510.31 1271.31 1505.34 Q1266.98 1500.35 1266.98 1491.59 Q1266.98 1482.81 1271.31 1477.84 Q1275.67 1472.88 1283.34 1472.88 Z" fill="#000000" fill-rule="evenodd" fill-opacity="1" /><path clip-path="url(#clip420)" d="M1330.06 1479.21 Q1329.08 1478.64 1327.9 1478.38 Q1326.75 1478.1 1325.35 1478.1 Q1320.39 1478.1 1317.71 1481.34 Q1315.07 1484.56 1315.07 1490.61 L1315.07 1509.39 L1309.18 1509.39 L1309.18 1473.74 L1315.07 1473.74 L1315.07 1479.28 Q1316.92 1476.03 1319.88 1474.47 Q1322.84 1472.88 1327.07 1472.88 Q1327.68 1472.88 1328.41 1472.97 Q1329.14 1473.04 1330.03 1473.2 L1330.06 1479.21 Z" fill="#000000" fill-rule="evenodd" fill-opacity="1" /><polyline clip-path="url(#clip422)" style="stroke:#000000; stroke-linecap:butt; stroke-linejoin:round; stroke-width:2; stroke-opacity:0.1; fill:none" points="
  250.882,930.138 2256.76,930.138 
  "/>
<polyline clip-path="url(#clip422)" style="stroke:#000000; stroke-linecap:butt; stroke-linejoin:round; stroke-width:2; stroke-opacity:0.1; fill:none" points="
  250.882,499.887 2256.76,499.887 
  "/>
<polyline clip-path="url(#clip422)" style="stroke:#000000; stroke-linecap:butt; stroke-linejoin:round; stroke-width:2; stroke-opacity:0.1; fill:none" points="
  250.882,69.6356 2256.76,69.6356 
  "/>
<polyline clip-path="url(#clip420)" style="stroke:#000000; stroke-linecap:butt; stroke-linejoin:round; stroke-width:4; stroke-opacity:1; fill:none" points="
  250.882,1347.54 250.882,47.2441 
  "/>
<polyline clip-path="url(#clip420)" style="stroke:#000000; stroke-linecap:butt; stroke-linejoin:round; stroke-width:4; stroke-opacity:1; fill:none" points="
  250.882,930.138 269.78,930.138 
  "/>
<polyline clip-path="url(#clip420)" style="stroke:#000000; stroke-linecap:butt; stroke-linejoin:round; stroke-width:4; stroke-opacity:1; fill:none" points="
  250.882,499.887 269.78,499.887 
  "/>
<polyline clip-path="url(#clip420)" style="stroke:#000000; stroke-linecap:butt; stroke-linejoin:round; stroke-width:4; stroke-opacity:1; fill:none" points="
  250.882,69.6356 269.78,69.6356 
  "/>
<path clip-path="url(#clip420)" d="M115.411 949.93 L123.05 949.93 L123.05 923.564 L114.74 925.231 L114.74 920.972 L123.004 919.305 L127.68 919.305 L127.68 949.93 L135.319 949.93 L135.319 953.865 L115.411 953.865 L115.411 949.93 Z" fill="#000000" fill-rule="evenodd" fill-opacity="1" /><path clip-path="url(#clip420)" d="M154.763 922.384 Q151.152 922.384 149.323 925.949 Q147.518 929.49 147.518 936.62 Q147.518 943.726 149.323 947.291 Q151.152 950.833 154.763 950.833 Q158.397 950.833 160.203 947.291 Q162.032 943.726 162.032 936.62 Q162.032 929.49 160.203 925.949 Q158.397 922.384 154.763 922.384 M154.763 918.68 Q160.573 918.68 163.629 923.287 Q166.707 927.87 166.707 936.62 Q166.707 945.347 163.629 949.953 Q160.573 954.537 154.763 954.537 Q148.953 954.537 145.874 949.953 Q142.819 945.347 142.819 936.62 Q142.819 927.87 145.874 923.287 Q148.953 918.68 154.763 918.68 Z" fill="#000000" fill-rule="evenodd" fill-opacity="1" /><path clip-path="url(#clip420)" d="M166.707 912.782 L190.819 912.782 L190.819 915.979 L166.707 915.979 L166.707 912.782 Z" fill="#000000" fill-rule="evenodd" fill-opacity="1" /><path clip-path="url(#clip420)" d="M210.53 911.315 Q213.257 911.898 214.78 913.741 Q216.322 915.584 216.322 918.292 Q216.322 922.449 213.464 924.725 Q210.605 927 205.339 927 Q203.571 927 201.69 926.643 Q199.828 926.304 197.834 925.608 L197.834 921.941 Q199.414 922.863 201.295 923.333 Q203.176 923.803 205.226 923.803 Q208.799 923.803 210.661 922.392 Q212.542 920.982 212.542 918.292 Q212.542 915.81 210.793 914.418 Q209.063 913.007 205.959 913.007 L202.687 913.007 L202.687 909.885 L206.11 909.885 Q208.912 909.885 210.398 908.776 Q211.884 907.647 211.884 905.541 Q211.884 903.378 210.341 902.23 Q208.818 901.064 205.959 901.064 Q204.398 901.064 202.612 901.403 Q200.825 901.741 198.681 902.456 L198.681 899.071 Q200.844 898.469 202.724 898.168 Q204.624 897.867 206.298 897.867 Q210.624 897.867 213.144 899.842 Q215.664 901.798 215.664 905.146 Q215.664 907.478 214.329 909.095 Q212.993 910.694 210.53 911.315 Z" fill="#000000" fill-rule="evenodd" fill-opacity="1" /><path clip-path="url(#clip420)" d="M116.183 519.679 L123.821 519.679 L123.821 493.313 L115.511 494.98 L115.511 490.721 L123.775 489.054 L128.451 489.054 L128.451 519.679 L136.09 519.679 L136.09 523.614 L116.183 523.614 L116.183 519.679 Z" fill="#000000" fill-rule="evenodd" fill-opacity="1" /><path clip-path="url(#clip420)" d="M155.534 492.133 Q151.923 492.133 150.094 495.698 Q148.289 499.239 148.289 506.369 Q148.289 513.475 150.094 517.04 Q151.923 520.582 155.534 520.582 Q159.168 520.582 160.974 517.04 Q162.803 513.475 162.803 506.369 Q162.803 499.239 160.974 495.698 Q159.168 492.133 155.534 492.133 M155.534 488.429 Q161.344 488.429 164.4 493.036 Q167.479 497.619 167.479 506.369 Q167.479 515.096 164.4 519.702 Q161.344 524.286 155.534 524.286 Q149.724 524.286 146.645 519.702 Q143.59 515.096 143.59 506.369 Q143.59 497.619 146.645 493.036 Q149.724 488.429 155.534 488.429 Z" fill="#000000" fill-rule="evenodd" fill-opacity="1" /><path clip-path="url(#clip420)" d="M167.479 482.531 L191.59 482.531 L191.59 485.728 L167.479 485.728 L167.479 482.531 Z" fill="#000000" fill-rule="evenodd" fill-opacity="1" /><path clip-path="url(#clip420)" d="M203.063 493.007 L216.322 493.007 L216.322 496.204 L198.493 496.204 L198.493 493.007 Q200.655 490.768 204.379 487.007 Q208.122 483.226 209.081 482.136 Q210.906 480.086 211.62 478.675 Q212.354 477.246 212.354 475.873 Q212.354 473.635 210.774 472.224 Q209.213 470.813 206.693 470.813 Q204.906 470.813 202.912 471.434 Q200.938 472.055 198.681 473.315 L198.681 469.478 Q200.975 468.556 202.969 468.086 Q204.962 467.616 206.618 467.616 Q210.981 467.616 213.576 469.798 Q216.172 471.979 216.172 475.628 Q216.172 477.358 215.514 478.919 Q214.874 480.462 213.163 482.568 Q212.692 483.114 210.172 485.728 Q207.652 488.323 203.063 493.007 Z" fill="#000000" fill-rule="evenodd" fill-opacity="1" /><path clip-path="url(#clip420)" d="M115.882 89.4281 L123.52 89.4281 L123.52 63.0625 L115.21 64.7291 L115.21 60.4699 L123.474 58.8032 L128.15 58.8032 L128.15 89.4281 L135.789 89.4281 L135.789 93.3632 L115.882 93.3632 L115.882 89.4281 Z" fill="#000000" fill-rule="evenodd" fill-opacity="1" /><path clip-path="url(#clip420)" d="M155.233 61.8819 Q151.622 61.8819 149.793 65.4467 Q147.988 68.9884 147.988 76.1179 Q147.988 83.2244 149.793 86.7892 Q151.622 90.3308 155.233 90.3308 Q158.868 90.3308 160.673 86.7892 Q162.502 83.2244 162.502 76.1179 Q162.502 68.9884 160.673 65.4467 Q158.868 61.8819 155.233 61.8819 M155.233 58.1782 Q161.043 58.1782 164.099 62.7847 Q167.178 67.368 167.178 76.1179 Q167.178 84.8448 164.099 89.4512 Q161.043 94.0345 155.233 94.0345 Q149.423 94.0345 146.344 89.4512 Q143.289 84.8448 143.289 76.1179 Q143.289 67.368 146.344 62.7847 Q149.423 58.1782 155.233 58.1782 Z" fill="#000000" fill-rule="evenodd" fill-opacity="1" /><path clip-path="url(#clip420)" d="M167.178 52.2796 L191.289 52.2796 L191.289 55.4769 L167.178 55.4769 L167.178 52.2796 Z" fill="#000000" fill-rule="evenodd" fill-opacity="1" /><path clip-path="url(#clip420)" d="M200.148 62.7555 L206.354 62.7555 L206.354 41.3335 L199.602 42.6876 L199.602 39.227 L206.317 37.8728 L210.116 37.8728 L210.116 62.7555 L216.322 62.7555 L216.322 65.9528 L200.148 65.9528 L200.148 62.7555 Z" fill="#000000" fill-rule="evenodd" fill-opacity="1" /><path clip-path="url(#clip420)" d="M18.4042 827.219 L18.4042 787.02 L23.815 787.02 L23.815 803.889 L65.9242 803.889 L65.9242 810.35 L23.815 810.35 L23.815 827.219 L18.4042 827.219 Z" fill="#000000" fill-rule="evenodd" fill-opacity="1" /><path clip-path="url(#clip420)" d="M30.2762 783.073 L30.2762 777.216 L65.9242 777.216 L65.9242 783.073 L30.2762 783.073 M16.399 783.073 L16.399 777.216 L23.815 777.216 L23.815 783.073 L16.399 783.073 Z" fill="#000000" fill-rule="evenodd" fill-opacity="1" /><path clip-path="url(#clip420)" d="M37.1193 737.208 Q33.1726 735.012 31.2947 731.956 Q29.4168 728.901 29.4168 724.763 Q29.4168 719.193 33.3317 716.169 Q37.2148 713.145 44.4081 713.145 L65.9242 713.145 L65.9242 719.034 L44.599 719.034 Q39.4746 719.034 36.992 720.848 Q34.5094 722.662 34.5094 726.386 Q34.5094 730.938 37.5331 733.579 Q40.5568 736.221 45.7767 736.221 L65.9242 736.221 L65.9242 742.109 L44.599 742.109 Q39.4428 742.109 36.992 743.924 Q34.5094 745.738 34.5094 749.526 Q34.5094 754.013 37.5649 756.655 Q40.5886 759.297 45.7767 759.297 L65.9242 759.297 L65.9242 765.185 L30.2762 765.185 L30.2762 759.297 L35.8144 759.297 Q32.536 757.292 30.9764 754.491 Q29.4168 751.69 29.4168 747.839 Q29.4168 743.956 31.3902 741.25 Q33.3636 738.513 37.1193 737.208 Z" fill="#000000" fill-rule="evenodd" fill-opacity="1" /><path clip-path="url(#clip420)" d="M46.6361 670.973 L49.5006 670.973 L49.5006 697.9 Q55.5481 697.518 58.7309 694.271 Q61.8819 690.993 61.8819 685.168 Q61.8819 681.794 61.0544 678.643 Q60.2269 675.461 58.5718 672.341 L64.1099 672.341 Q65.4467 675.492 66.147 678.803 Q66.8472 682.113 66.8472 685.518 Q66.8472 694.048 61.8819 699.045 Q56.9167 704.011 48.4503 704.011 Q39.6974 704.011 34.5731 699.3 Q29.4168 694.558 29.4168 686.537 Q29.4168 679.344 34.0638 675.174 Q38.6789 670.973 46.6361 670.973 M44.9173 676.829 Q40.1112 676.893 37.2466 679.535 Q34.3821 682.145 34.3821 686.473 Q34.3821 691.375 37.1512 694.335 Q39.9202 697.263 44.9492 697.709 L44.9173 676.829 Z" fill="#000000" fill-rule="evenodd" fill-opacity="1" /><path clip-path="url(#clip420)" d="M16.4626 626.572 Q23.7832 630.837 30.9446 632.906 Q38.106 634.975 45.4584 634.975 Q52.8108 634.975 60.0359 632.906 Q67.2291 630.805 74.5179 626.572 L74.5179 631.664 Q67.0382 636.439 59.8131 638.826 Q52.588 641.181 45.4584 641.181 Q38.3606 641.181 31.1674 638.826 Q23.9742 636.471 16.4626 631.664 L16.4626 626.572 Z" fill="#000000" fill-rule="evenodd" fill-opacity="1" /><path clip-path="url(#clip420)" d="M31.3265 592.484 L36.8647 592.484 Q35.5916 594.966 34.955 597.64 Q34.3184 600.313 34.3184 603.178 Q34.3184 607.538 35.6552 609.735 Q36.992 611.899 39.6656 611.899 Q41.7026 611.899 42.8803 610.339 Q44.0261 608.78 45.0765 604.069 L45.5221 602.064 Q46.8589 595.826 49.3097 593.216 Q51.7286 590.574 56.0891 590.574 Q61.0544 590.574 63.9508 594.521 Q66.8472 598.435 66.8472 605.31 Q66.8472 608.175 66.2743 611.294 Q65.7332 614.382 64.6192 617.819 L58.5718 617.819 Q60.2587 614.573 61.118 611.422 Q61.9456 608.27 61.9456 605.183 Q61.9456 601.045 60.5451 598.817 Q59.1129 596.589 56.5347 596.589 Q54.1476 596.589 52.8745 598.213 Q51.6013 599.804 50.4237 605.247 L49.9462 607.284 Q48.8004 612.726 46.4451 615.145 Q44.058 617.564 39.9202 617.564 Q34.8913 617.564 32.1541 614 Q29.4168 610.435 29.4168 603.878 Q29.4168 600.632 29.8943 597.767 Q30.3717 594.902 31.3265 592.484 Z" fill="#000000" fill-rule="evenodd" fill-opacity="1" /><path clip-path="url(#clip420)" d="M16.4626 582.171 L16.4626 577.079 Q23.9742 572.304 31.1674 569.949 Q38.3606 567.562 45.4584 567.562 Q52.588 567.562 59.8131 569.949 Q67.0382 572.304 74.5179 577.079 L74.5179 582.171 Q67.2291 577.938 60.0359 575.869 Q52.8108 573.768 45.4584 573.768 Q38.106 573.768 30.9446 575.869 Q23.7832 577.938 16.4626 582.171 Z" fill="#000000" fill-rule="evenodd" fill-opacity="1" /><polyline clip-path="url(#clip422)" style="stroke:#009af9; stroke-linecap:butt; stroke-linejoin:round; stroke-width:12; stroke-opacity:1; fill:none" points="
  1524.18,1212.83 1467.96,1071.81 1309.6,919.341 1154.19,780.189 
  "/>
<line clip-path="url(#clip422)" x1="1524.18" y1="1212.83" x2="1524.18" y2="1196.83" style="stroke:#009af9; stroke-width:3.072; stroke-opacity:1"/>
<line clip-path="url(#clip422)" x1="1524.18" y1="1212.83" x2="1508.18" y2="1212.83" style="stroke:#009af9; stroke-width:3.072; stroke-opacity:1"/>
<line clip-path="url(#clip422)" x1="1524.18" y1="1212.83" x2="1524.18" y2="1228.83" style="stroke:#009af9; stroke-width:3.072; stroke-opacity:1"/>
<line clip-path="url(#clip422)" x1="1524.18" y1="1212.83" x2="1540.18" y2="1212.83" style="stroke:#009af9; stroke-width:3.072; stroke-opacity:1"/>
<line clip-path="url(#clip422)" x1="1467.96" y1="1071.81" x2="1467.96" y2="1055.81" style="stroke:#009af9; stroke-width:3.072; stroke-opacity:1"/>
<line clip-path="url(#clip422)" x1="1467.96" y1="1071.81" x2="1451.96" y2="1071.81" style="stroke:#009af9; stroke-width:3.072; stroke-opacity:1"/>
<line clip-path="url(#clip422)" x1="1467.96" y1="1071.81" x2="1467.96" y2="1087.81" style="stroke:#009af9; stroke-width:3.072; stroke-opacity:1"/>
<line clip-path="url(#clip422)" x1="1467.96" y1="1071.81" x2="1483.96" y2="1071.81" style="stroke:#009af9; stroke-width:3.072; stroke-opacity:1"/>
<line clip-path="url(#clip422)" x1="1309.6" y1="919.341" x2="1309.6" y2="903.341" style="stroke:#009af9; stroke-width:3.072; stroke-opacity:1"/>
<line clip-path="url(#clip422)" x1="1309.6" y1="919.341" x2="1293.6" y2="919.341" style="stroke:#009af9; stroke-width:3.072; stroke-opacity:1"/>
<line clip-path="url(#clip422)" x1="1309.6" y1="919.341" x2="1309.6" y2="935.341" style="stroke:#009af9; stroke-width:3.072; stroke-opacity:1"/>
<line clip-path="url(#clip422)" x1="1309.6" y1="919.341" x2="1325.6" y2="919.341" style="stroke:#009af9; stroke-width:3.072; stroke-opacity:1"/>
<line clip-path="url(#clip422)" x1="1154.19" y1="780.189" x2="1154.19" y2="764.189" style="stroke:#009af9; stroke-width:3.072; stroke-opacity:1"/>
<line clip-path="url(#clip422)" x1="1154.19" y1="780.189" x2="1138.19" y2="780.189" style="stroke:#009af9; stroke-width:3.072; stroke-opacity:1"/>
<line clip-path="url(#clip422)" x1="1154.19" y1="780.189" x2="1154.19" y2="796.189" style="stroke:#009af9; stroke-width:3.072; stroke-opacity:1"/>
<line clip-path="url(#clip422)" x1="1154.19" y1="780.189" x2="1170.19" y2="780.189" style="stroke:#009af9; stroke-width:3.072; stroke-opacity:1"/>
<polyline clip-path="url(#clip422)" style="stroke:#e26f46; stroke-linecap:butt; stroke-linejoin:round; stroke-width:12; stroke-opacity:1; fill:none" points="
  1765.95,928.8 1652.23,854.308 1648.87,823.577 1675.51,785.454 
  "/>
<circle clip-path="url(#clip422)" cx="1765.95" cy="928.8" r="14" fill="#e26f46" fill-rule="evenodd" fill-opacity="1" stroke="#000000" stroke-opacity="1" stroke-width="3.072"/>
<circle clip-path="url(#clip422)" cx="1652.23" cy="854.308" r="14" fill="#e26f46" fill-rule="evenodd" fill-opacity="1" stroke="#000000" stroke-opacity="1" stroke-width="3.072"/>
<circle clip-path="url(#clip422)" cx="1648.87" cy="823.577" r="14" fill="#e26f46" fill-rule="evenodd" fill-opacity="1" stroke="#000000" stroke-opacity="1" stroke-width="3.072"/>
<circle clip-path="url(#clip422)" cx="1675.51" cy="785.454" r="14" fill="#e26f46" fill-rule="evenodd" fill-opacity="1" stroke="#000000" stroke-opacity="1" stroke-width="3.072"/>
<polyline clip-path="url(#clip422)" style="stroke:#3da44d; stroke-linecap:butt; stroke-linejoin:round; stroke-width:12; stroke-opacity:1; fill:none" points="
  1648.36,857.311 1632.97,819.42 1628.5,797.329 1641.77,761.917 
  "/>
<line clip-path="url(#clip422)" x1="1648.36" y1="857.311" x2="1648.36" y2="841.311" style="stroke:#3da44d; stroke-width:3.072; stroke-opacity:1"/>
<line clip-path="url(#clip422)" x1="1648.36" y1="857.311" x2="1632.36" y2="857.311" style="stroke:#3da44d; stroke-width:3.072; stroke-opacity:1"/>
<line clip-path="url(#clip422)" x1="1648.36" y1="857.311" x2="1648.36" y2="873.311" style="stroke:#3da44d; stroke-width:3.072; stroke-opacity:1"/>
<line clip-path="url(#clip422)" x1="1648.36" y1="857.311" x2="1664.36" y2="857.311" style="stroke:#3da44d; stroke-width:3.072; stroke-opacity:1"/>
<line clip-path="url(#clip422)" x1="1632.97" y1="819.42" x2="1632.97" y2="803.42" style="stroke:#3da44d; stroke-width:3.072; stroke-opacity:1"/>
<line clip-path="url(#clip422)" x1="1632.97" y1="819.42" x2="1616.97" y2="819.42" style="stroke:#3da44d; stroke-width:3.072; stroke-opacity:1"/>
<line clip-path="url(#clip422)" x1="1632.97" y1="819.42" x2="1632.97" y2="835.42" style="stroke:#3da44d; stroke-width:3.072; stroke-opacity:1"/>
<line clip-path="url(#clip422)" x1="1632.97" y1="819.42" x2="1648.97" y2="819.42" style="stroke:#3da44d; stroke-width:3.072; stroke-opacity:1"/>
<line clip-path="url(#clip422)" x1="1628.5" y1="797.329" x2="1628.5" y2="781.329" style="stroke:#3da44d; stroke-width:3.072; stroke-opacity:1"/>
<line clip-path="url(#clip422)" x1="1628.5" y1="797.329" x2="1612.5" y2="797.329" style="stroke:#3da44d; stroke-width:3.072; stroke-opacity:1"/>
<line clip-path="url(#clip422)" x1="1628.5" y1="797.329" x2="1628.5" y2="813.329" style="stroke:#3da44d; stroke-width:3.072; stroke-opacity:1"/>
<line clip-path="url(#clip422)" x1="1628.5" y1="797.329" x2="1644.5" y2="797.329" style="stroke:#3da44d; stroke-width:3.072; stroke-opacity:1"/>
<line clip-path="url(#clip422)" x1="1641.77" y1="761.917" x2="1641.77" y2="745.917" style="stroke:#3da44d; stroke-width:3.072; stroke-opacity:1"/>
<line clip-path="url(#clip422)" x1="1641.77" y1="761.917" x2="1625.77" y2="761.917" style="stroke:#3da44d; stroke-width:3.072; stroke-opacity:1"/>
<line clip-path="url(#clip422)" x1="1641.77" y1="761.917" x2="1641.77" y2="777.917" style="stroke:#3da44d; stroke-width:3.072; stroke-opacity:1"/>
<line clip-path="url(#clip422)" x1="1641.77" y1="761.917" x2="1657.77" y2="761.917" style="stroke:#3da44d; stroke-width:3.072; stroke-opacity:1"/>
<polyline clip-path="url(#clip422)" style="stroke:#c271d2; stroke-linecap:butt; stroke-linejoin:round; stroke-width:12; stroke-opacity:1; fill:none" points="
  1793.69,1249.78 1841.34,919.006 1596.17,912.871 1840.05,863.653 
  "/>
<path clip-path="url(#clip422)" d="M1793.69 1233.78 L1777.69 1249.78 L1793.69 1265.78 L1809.69 1249.78 L1793.69 1233.78 Z" fill="#c271d2" fill-rule="evenodd" fill-opacity="1" stroke="#000000" stroke-opacity="1" stroke-width="3.072"/>
<path clip-path="url(#clip422)" d="M1841.34 903.006 L1825.34 919.006 L1841.34 935.006 L1857.34 919.006 L1841.34 903.006 Z" fill="#c271d2" fill-rule="evenodd" fill-opacity="1" stroke="#000000" stroke-opacity="1" stroke-width="3.072"/>
<path clip-path="url(#clip422)" d="M1596.17 896.871 L1580.17 912.871 L1596.17 928.871 L1612.17 912.871 L1596.17 896.871 Z" fill="#c271d2" fill-rule="evenodd" fill-opacity="1" stroke="#000000" stroke-opacity="1" stroke-width="3.072"/>
<path clip-path="url(#clip422)" d="M1840.05 847.653 L1824.05 863.653 L1840.05 879.653 L1856.05 863.653 L1840.05 847.653 Z" fill="#c271d2" fill-rule="evenodd" fill-opacity="1" stroke="#000000" stroke-opacity="1" stroke-width="3.072"/>
<polyline clip-path="url(#clip422)" style="stroke:#ac8d18; stroke-linecap:butt; stroke-linejoin:round; stroke-width:12; stroke-opacity:1; fill:none" points="
  1652.01,831.763 1451.75,858.714 1563.12,852.989 1452.58,815.937 
  "/>
<path clip-path="url(#clip422)" d="M1668.01 815.763 L1636.01 815.763 L1652.01 847.763 L1668.01 815.763 Z" fill="#ac8d18" fill-rule="evenodd" fill-opacity="1" stroke="#000000" stroke-opacity="1" stroke-width="3.072"/>
<path clip-path="url(#clip422)" d="M1467.75 842.714 L1435.75 842.714 L1451.75 874.714 L1467.75 842.714 Z" fill="#ac8d18" fill-rule="evenodd" fill-opacity="1" stroke="#000000" stroke-opacity="1" stroke-width="3.072"/>
<path clip-path="url(#clip422)" d="M1579.12 836.989 L1547.12 836.989 L1563.12 868.989 L1579.12 836.989 Z" fill="#ac8d18" fill-rule="evenodd" fill-opacity="1" stroke="#000000" stroke-opacity="1" stroke-width="3.072"/>
<path clip-path="url(#clip422)" d="M1468.58 799.937 L1436.58 799.937 L1452.58 831.937 L1468.58 799.937 Z" fill="#ac8d18" fill-rule="evenodd" fill-opacity="1" stroke="#000000" stroke-opacity="1" stroke-width="3.072"/>
<polyline clip-path="url(#clip422)" style="stroke:#00a9ad; stroke-linecap:butt; stroke-linejoin:round; stroke-width:12; stroke-opacity:1; fill:none" points="
  770.979,374.9 715.88,210.501 463.067,168.613 307.652,84.0448 
  "/>
<path clip-path="url(#clip422)" d="M770.979 358.9 L758.467 364.932 L755.379 378.468 L764.035 389.316 L777.923 389.316 L786.579 378.468 L783.491 364.932 Z" fill="#00a9ad" fill-rule="evenodd" fill-opacity="1" stroke="#000000" stroke-opacity="1" stroke-width="3.072"/>
<path clip-path="url(#clip422)" d="M715.88 194.501 L703.368 200.533 L700.28 214.069 L708.936 224.917 L722.824 224.917 L731.48 214.069 L728.392 200.533 Z" fill="#00a9ad" fill-rule="evenodd" fill-opacity="1" stroke="#000000" stroke-opacity="1" stroke-width="3.072"/>
<path clip-path="url(#clip422)" d="M463.067 152.613 L450.555 158.645 L447.467 172.181 L456.123 183.029 L470.011 183.029 L478.667 172.181 L475.579 158.645 Z" fill="#00a9ad" fill-rule="evenodd" fill-opacity="1" stroke="#000000" stroke-opacity="1" stroke-width="3.072"/>
<path clip-path="url(#clip422)" d="M307.652 68.0448 L295.14 74.0768 L292.052 87.6128 L300.708 98.4608 L314.596 98.4608 L323.252 87.6128 L320.164 74.0768 Z" fill="#00a9ad" fill-rule="evenodd" fill-opacity="1" stroke="#000000" stroke-opacity="1" stroke-width="3.072"/>
<polyline clip-path="url(#clip422)" style="stroke:#ed5d92; stroke-linecap:butt; stroke-linejoin:round; stroke-width:12; stroke-opacity:1; fill:none" points="
  2199.99,1076.6 2003.29,1210.84 1841.78,1310.74 1841,1011.01 
  "/>
<path clip-path="url(#clip422)" d="M2199.99 1092.6 L2186.13 1084.6 L2186.13 1068.6 L2199.99 1060.6 L2213.84 1068.6 L2213.84 1084.6 Z" fill="#ed5d92" fill-rule="evenodd" fill-opacity="1" stroke="#000000" stroke-opacity="1" stroke-width="3.072"/>
<path clip-path="url(#clip422)" d="M2003.29 1226.84 L1989.43 1218.84 L1989.43 1202.84 L2003.29 1194.84 L2017.14 1202.84 L2017.14 1218.84 Z" fill="#ed5d92" fill-rule="evenodd" fill-opacity="1" stroke="#000000" stroke-opacity="1" stroke-width="3.072"/>
<path clip-path="url(#clip422)" d="M1841.78 1326.74 L1827.93 1318.74 L1827.93 1302.74 L1841.78 1294.74 L1855.64 1302.74 L1855.64 1318.74 Z" fill="#ed5d92" fill-rule="evenodd" fill-opacity="1" stroke="#000000" stroke-opacity="1" stroke-width="3.072"/>
<path clip-path="url(#clip422)" d="M1841 1027.01 L1827.14 1019.01 L1827.14 1003.01 L1841 995.015 L1854.85 1003.01 L1854.85 1019.01 Z" fill="#ed5d92" fill-rule="evenodd" fill-opacity="1" stroke="#000000" stroke-opacity="1" stroke-width="3.072"/>
<polyline clip-path="url(#clip422)" style="stroke:#c68125; stroke-linecap:butt; stroke-linejoin:round; stroke-width:12; stroke-opacity:1; fill:none" points="
  1230.48,740.684 1141.7,713.627 626.202,691.43 646.471,612.853 
  "/>
<line clip-path="url(#clip422)" x1="1246.48" y1="740.684" x2="1214.48" y2="740.684" style="stroke:#c68125; stroke-width:3.072; stroke-opacity:1"/>
<line clip-path="url(#clip422)" x1="1157.7" y1="713.627" x2="1125.7" y2="713.627" style="stroke:#c68125; stroke-width:3.072; stroke-opacity:1"/>
<line clip-path="url(#clip422)" x1="642.202" y1="691.43" x2="610.202" y2="691.43" style="stroke:#c68125; stroke-width:3.072; stroke-opacity:1"/>
<line clip-path="url(#clip422)" x1="662.471" y1="612.853" x2="630.471" y2="612.853" style="stroke:#c68125; stroke-width:3.072; stroke-opacity:1"/>
<path clip-path="url(#clip420)" d="
M1640.35 557.147 L2189.89 557.147 L2189.89 90.5872 L1640.35 90.5872  Z
  " fill="#ffffff" fill-rule="evenodd" fill-opacity="1"/>
<polyline clip-path="url(#clip420)" style="stroke:#000000; stroke-linecap:butt; stroke-linejoin:round; stroke-width:4; stroke-opacity:1; fill:none" points="
  1640.35,557.147 2189.89,557.147 2189.89,90.5872 1640.35,90.5872 1640.35,557.147 
  "/>
<polyline clip-path="url(#clip420)" style="stroke:#009af9; stroke-linecap:butt; stroke-linejoin:round; stroke-width:4; stroke-opacity:1; fill:none" points="
  1662.64,142.427 1796.37,142.427 
  "/>
<line clip-path="url(#clip420)" x1="1729.5" y1="142.427" x2="1729.5" y2="116.827" style="stroke:#009af9; stroke-width:4.9152; stroke-opacity:1"/>
<line clip-path="url(#clip420)" x1="1729.5" y1="142.427" x2="1703.9" y2="142.427" style="stroke:#009af9; stroke-width:4.9152; stroke-opacity:1"/>
<line clip-path="url(#clip420)" x1="1729.5" y1="142.427" x2="1729.5" y2="168.027" style="stroke:#009af9; stroke-width:4.9152; stroke-opacity:1"/>
<line clip-path="url(#clip420)" x1="1729.5" y1="142.427" x2="1755.1" y2="142.427" style="stroke:#009af9; stroke-width:4.9152; stroke-opacity:1"/>
<path clip-path="url(#clip420)" d="M1835.04 143.504 Q1836.55 144.013 1837.96 145.679 Q1839.39 147.346 1840.83 150.263 L1845.57 159.707 L1840.55 159.707 L1836.13 150.841 Q1834.42 147.369 1832.8 146.235 Q1831.2 145.101 1828.42 145.101 L1823.33 145.101 L1823.33 159.707 L1818.65 159.707 L1818.65 125.147 L1829.21 125.147 Q1835.13 125.147 1838.05 127.624 Q1840.97 130.101 1840.97 135.101 Q1840.97 138.365 1839.44 140.517 Q1837.94 142.67 1835.04 143.504 M1823.33 128.99 L1823.33 141.258 L1829.21 141.258 Q1832.59 141.258 1834.3 139.707 Q1836.04 138.133 1836.04 135.101 Q1836.04 132.068 1834.3 130.541 Q1832.59 128.99 1829.21 128.99 L1823.33 128.99 Z" fill="#000000" fill-rule="evenodd" fill-opacity="1" /><path clip-path="url(#clip420)" d="M1859.32 136.767 Q1855.9 136.767 1853.91 139.453 Q1851.92 142.115 1851.92 146.767 Q1851.92 151.42 1853.88 154.105 Q1855.88 156.767 1859.32 156.767 Q1862.73 156.767 1864.72 154.082 Q1866.71 151.397 1866.71 146.767 Q1866.71 142.161 1864.72 139.476 Q1862.73 136.767 1859.32 136.767 M1859.32 133.156 Q1864.88 133.156 1868.05 136.767 Q1871.22 140.379 1871.22 146.767 Q1871.22 153.133 1868.05 156.767 Q1864.88 160.378 1859.32 160.378 Q1853.75 160.378 1850.57 156.767 Q1847.43 153.133 1847.43 146.767 Q1847.43 140.379 1850.57 136.767 Q1853.75 133.156 1859.32 133.156 Z" fill="#000000" fill-rule="evenodd" fill-opacity="1" /><path clip-path="url(#clip420)" d="M1894.81 134.545 L1894.81 138.573 Q1893.01 137.647 1891.06 137.184 Q1889.12 136.721 1887.03 136.721 Q1883.86 136.721 1882.26 137.693 Q1880.69 138.666 1880.69 140.61 Q1880.69 142.092 1881.82 142.948 Q1882.96 143.781 1886.38 144.545 L1887.84 144.869 Q1892.38 145.842 1894.28 147.624 Q1896.2 149.383 1896.2 152.554 Q1896.2 156.166 1893.33 158.272 Q1890.48 160.378 1885.48 160.378 Q1883.4 160.378 1881.13 159.962 Q1878.88 159.568 1876.38 158.758 L1876.38 154.36 Q1878.75 155.587 1881.04 156.212 Q1883.33 156.814 1885.57 156.814 Q1888.58 156.814 1890.2 155.795 Q1891.82 154.754 1891.82 152.879 Q1891.82 151.142 1890.64 150.216 Q1889.49 149.291 1885.53 148.434 L1884.05 148.087 Q1880.09 147.254 1878.33 145.541 Q1876.57 143.804 1876.57 140.795 Q1876.57 137.138 1879.16 135.147 Q1881.76 133.156 1886.52 133.156 Q1888.88 133.156 1890.97 133.504 Q1893.05 133.851 1894.81 134.545 Z" fill="#000000" fill-rule="evenodd" fill-opacity="1" /><path clip-path="url(#clip420)" d="M1925.16 145.679 L1925.16 147.763 L1905.57 147.763 Q1905.85 152.161 1908.21 154.476 Q1910.6 156.767 1914.83 156.767 Q1917.29 156.767 1919.58 156.166 Q1921.89 155.564 1924.16 154.36 L1924.16 158.388 Q1921.87 159.36 1919.46 159.869 Q1917.06 160.378 1914.58 160.378 Q1908.38 160.378 1904.74 156.767 Q1901.13 153.156 1901.13 146.999 Q1901.13 140.633 1904.56 136.906 Q1908 133.156 1913.84 133.156 Q1919.07 133.156 1922.1 136.536 Q1925.16 139.892 1925.16 145.679 M1920.9 144.429 Q1920.85 140.934 1918.93 138.851 Q1917.03 136.767 1913.88 136.767 Q1910.32 136.767 1908.17 138.781 Q1906.04 140.795 1905.71 144.453 L1920.9 144.429 Z" fill="#000000" fill-rule="evenodd" fill-opacity="1" /><path clip-path="url(#clip420)" d="M1953.7 144.059 L1953.7 159.707 L1949.44 159.707 L1949.44 144.198 Q1949.44 140.517 1948 138.689 Q1946.57 136.86 1943.7 136.86 Q1940.25 136.86 1938.26 139.059 Q1936.27 141.258 1936.27 145.054 L1936.27 159.707 L1931.99 159.707 L1931.99 133.781 L1936.27 133.781 L1936.27 137.809 Q1937.8 135.471 1939.86 134.314 Q1941.94 133.156 1944.65 133.156 Q1949.12 133.156 1951.41 135.934 Q1953.7 138.689 1953.7 144.059 Z" fill="#000000" fill-rule="evenodd" fill-opacity="1" /><path clip-path="url(#clip420)" d="M1980.81 146.767 Q1980.81 142.068 1978.86 139.406 Q1976.94 136.721 1973.56 136.721 Q1970.18 136.721 1968.24 139.406 Q1966.31 142.068 1966.31 146.767 Q1966.31 151.466 1968.24 154.152 Q1970.18 156.814 1973.56 156.814 Q1976.94 156.814 1978.86 154.152 Q1980.81 151.466 1980.81 146.767 M1966.31 137.717 Q1967.66 135.402 1969.69 134.291 Q1971.75 133.156 1974.6 133.156 Q1979.32 133.156 1982.26 136.906 Q1985.23 140.656 1985.23 146.767 Q1985.23 152.879 1982.26 156.628 Q1979.32 160.378 1974.6 160.378 Q1971.75 160.378 1969.69 159.267 Q1967.66 158.133 1966.31 155.818 L1966.31 159.707 L1962.03 159.707 L1962.03 123.689 L1966.31 123.689 L1966.31 137.717 Z" fill="#000000" fill-rule="evenodd" fill-opacity="1" /><path clip-path="url(#clip420)" d="M2007.31 137.763 Q2006.59 137.346 2005.74 137.161 Q2004.9 136.953 2003.88 136.953 Q2000.27 136.953 1998.33 139.314 Q1996.41 141.652 1996.41 146.05 L1996.41 159.707 L1992.12 159.707 L1992.12 133.781 L1996.41 133.781 L1996.41 137.809 Q1997.75 135.448 1999.9 134.314 Q2002.06 133.156 2005.13 133.156 Q2005.57 133.156 2006.11 133.226 Q2006.64 133.272 2007.29 133.388 L2007.31 137.763 Z" fill="#000000" fill-rule="evenodd" fill-opacity="1" /><path clip-path="url(#clip420)" d="M2020.78 136.767 Q2017.36 136.767 2015.37 139.453 Q2013.37 142.115 2013.37 146.767 Q2013.37 151.42 2015.34 154.105 Q2017.33 156.767 2020.78 156.767 Q2024.18 156.767 2026.18 154.082 Q2028.17 151.397 2028.17 146.767 Q2028.17 142.161 2026.18 139.476 Q2024.18 136.767 2020.78 136.767 M2020.78 133.156 Q2026.34 133.156 2029.51 136.767 Q2032.68 140.379 2032.68 146.767 Q2032.68 153.133 2029.51 156.767 Q2026.34 160.378 2020.78 160.378 Q2015.2 160.378 2012.03 156.767 Q2008.88 153.133 2008.88 146.767 Q2008.88 140.379 2012.03 136.767 Q2015.2 133.156 2020.78 133.156 Z" fill="#000000" fill-rule="evenodd" fill-opacity="1" /><path clip-path="url(#clip420)" d="M2058.4 134.777 L2058.4 138.758 Q2056.59 137.763 2054.76 137.277 Q2052.96 136.767 2051.11 136.767 Q2046.96 136.767 2044.67 139.406 Q2042.38 142.022 2042.38 146.767 Q2042.38 151.513 2044.67 154.152 Q2046.96 156.767 2051.11 156.767 Q2052.96 156.767 2054.76 156.281 Q2056.59 155.772 2058.4 154.777 L2058.4 158.712 Q2056.62 159.545 2054.69 159.962 Q2052.8 160.378 2050.64 160.378 Q2044.79 160.378 2041.34 156.698 Q2037.89 153.017 2037.89 146.767 Q2037.89 140.425 2041.36 136.791 Q2044.86 133.156 2050.92 133.156 Q2052.89 133.156 2054.76 133.573 Q2056.64 133.967 2058.4 134.777 Z" fill="#000000" fill-rule="evenodd" fill-opacity="1" /><path clip-path="url(#clip420)" d="M2065.64 123.689 L2069.93 123.689 L2069.93 144.962 L2082.63 133.781 L2088.07 133.781 L2074.32 145.911 L2088.65 159.707 L2083.1 159.707 L2069.93 147.045 L2069.93 159.707 L2065.64 159.707 L2065.64 123.689 Z" fill="#000000" fill-rule="evenodd" fill-opacity="1" /><path clip-path="url(#clip420)" d="M2097.89 155.772 L2114.21 155.772 L2114.21 159.707 L2092.26 159.707 L2092.26 155.772 Q2094.93 153.017 2099.51 148.388 Q2104.12 143.735 2105.3 142.392 Q2107.54 139.869 2108.42 138.133 Q2109.32 136.374 2109.32 134.684 Q2109.32 131.93 2107.38 130.193 Q2105.46 128.457 2102.36 128.457 Q2100.16 128.457 2097.7 129.221 Q2095.27 129.985 2092.49 131.536 L2092.49 126.814 Q2095.32 125.68 2097.77 125.101 Q2100.23 124.522 2102.26 124.522 Q2107.63 124.522 2110.83 127.207 Q2114.02 129.893 2114.02 134.383 Q2114.02 136.513 2113.21 138.434 Q2112.43 140.332 2110.32 142.925 Q2109.74 143.596 2106.64 146.814 Q2103.54 150.008 2097.89 155.772 Z" fill="#000000" fill-rule="evenodd" fill-opacity="1" /><path clip-path="url(#clip420)" d="M2138.19 141.073 Q2141.55 141.791 2143.42 144.059 Q2145.32 146.328 2145.32 149.661 Q2145.32 154.777 2141.8 157.578 Q2138.28 160.378 2131.8 160.378 Q2129.62 160.378 2127.31 159.939 Q2125.02 159.522 2122.56 158.666 L2122.56 154.152 Q2124.51 155.286 2126.82 155.865 Q2129.14 156.443 2131.66 156.443 Q2136.06 156.443 2138.35 154.707 Q2140.67 152.971 2140.67 149.661 Q2140.67 146.605 2138.51 144.892 Q2136.38 143.156 2132.56 143.156 L2128.54 143.156 L2128.54 139.314 L2132.75 139.314 Q2136.2 139.314 2138.03 137.948 Q2139.86 136.559 2139.86 133.967 Q2139.86 131.305 2137.96 129.893 Q2136.08 128.457 2132.56 128.457 Q2130.64 128.457 2128.44 128.874 Q2126.24 129.291 2123.61 130.17 L2123.61 126.004 Q2126.27 125.263 2128.58 124.893 Q2130.92 124.522 2132.98 124.522 Q2138.3 124.522 2141.41 126.953 Q2144.51 129.36 2144.51 133.48 Q2144.51 136.351 2142.86 138.342 Q2141.22 140.309 2138.19 141.073 Z" fill="#000000" fill-rule="evenodd" fill-opacity="1" /><polyline clip-path="url(#clip420)" style="stroke:#e26f46; stroke-linecap:butt; stroke-linejoin:round; stroke-width:4; stroke-opacity:1; fill:none" points="
  1662.64,194.267 1796.37,194.267 
  "/>
<circle clip-path="url(#clip420)" cx="1729.5" cy="194.267" r="23" fill="#e26f46" fill-rule="evenodd" fill-opacity="1" stroke="#000000" stroke-opacity="1" stroke-width="4.9152"/>
<path clip-path="url(#clip420)" d="M1818.65 176.987 L1823.33 176.987 L1823.33 191.594 L1838.84 176.987 L1844.86 176.987 L1827.7 193.098 L1846.08 211.547 L1839.93 211.547 L1823.33 194.904 L1823.33 211.547 L1818.65 211.547 L1818.65 176.987 Z" fill="#000000" fill-rule="evenodd" fill-opacity="1" /><path clip-path="url(#clip420)" d="M1846.5 185.621 L1851.01 185.621 L1859.12 207.381 L1867.22 185.621 L1871.73 185.621 L1862.01 211.547 L1856.22 211.547 L1846.5 185.621 Z" fill="#000000" fill-rule="evenodd" fill-opacity="1" /><path clip-path="url(#clip420)" d="M1889.39 198.515 Q1884.23 198.515 1882.24 199.695 Q1880.25 200.876 1880.25 203.723 Q1880.25 205.992 1881.73 207.334 Q1883.24 208.654 1885.81 208.654 Q1889.35 208.654 1891.48 206.154 Q1893.63 203.631 1893.63 199.464 L1893.63 198.515 L1889.39 198.515 M1897.89 196.756 L1897.89 211.547 L1893.63 211.547 L1893.63 207.612 Q1892.17 209.973 1890 211.107 Q1887.82 212.218 1884.67 212.218 Q1880.69 212.218 1878.33 209.996 Q1875.99 207.751 1875.99 204.001 Q1875.99 199.626 1878.91 197.404 Q1881.85 195.182 1887.66 195.182 L1893.63 195.182 L1893.63 194.765 Q1893.63 191.825 1891.69 190.228 Q1889.76 188.607 1886.27 188.607 Q1884.05 188.607 1881.94 189.14 Q1879.83 189.672 1877.89 190.737 L1877.89 186.802 Q1880.23 185.899 1882.43 185.459 Q1884.63 184.996 1886.71 184.996 Q1892.33 184.996 1895.11 187.913 Q1897.89 190.83 1897.89 196.756 Z" fill="#000000" fill-rule="evenodd" fill-opacity="1" /><path clip-path="url(#clip420)" d="M1928.84 197.519 L1928.84 199.603 L1909.25 199.603 Q1909.53 204.001 1911.89 206.316 Q1914.28 208.607 1918.51 208.607 Q1920.97 208.607 1923.26 208.006 Q1925.57 207.404 1927.84 206.2 L1927.84 210.228 Q1925.55 211.2 1923.14 211.709 Q1920.74 212.218 1918.26 212.218 Q1912.06 212.218 1908.42 208.607 Q1904.81 204.996 1904.81 198.839 Q1904.81 192.473 1908.24 188.746 Q1911.69 184.996 1917.52 184.996 Q1922.75 184.996 1925.78 188.376 Q1928.84 191.732 1928.84 197.519 M1924.58 196.269 Q1924.53 192.774 1922.61 190.691 Q1920.71 188.607 1917.57 188.607 Q1914 188.607 1911.85 190.621 Q1909.72 192.635 1909.39 196.293 L1924.58 196.269 Z" fill="#000000" fill-rule="evenodd" fill-opacity="1" /><path clip-path="url(#clip420)" d="M1950.85 189.603 Q1950.13 189.186 1949.28 189.001 Q1948.44 188.793 1947.43 188.793 Q1943.81 188.793 1941.87 191.154 Q1939.95 193.492 1939.95 197.89 L1939.95 211.547 L1935.67 211.547 L1935.67 185.621 L1939.95 185.621 L1939.95 189.649 Q1941.29 187.288 1943.44 186.154 Q1945.6 184.996 1948.68 184.996 Q1949.12 184.996 1949.65 185.066 Q1950.18 185.112 1950.83 185.228 L1950.85 189.603 Z" fill="#000000" fill-rule="evenodd" fill-opacity="1" /><path clip-path="url(#clip420)" d="M1976.04 195.899 L1976.04 211.547 L1971.78 211.547 L1971.78 196.038 Q1971.78 192.357 1970.34 190.529 Q1968.91 188.7 1966.04 188.7 Q1962.59 188.7 1960.6 190.899 Q1958.61 193.098 1958.61 196.894 L1958.61 211.547 L1954.32 211.547 L1954.32 185.621 L1958.61 185.621 L1958.61 189.649 Q1960.13 187.311 1962.19 186.154 Q1964.28 184.996 1966.99 184.996 Q1971.45 184.996 1973.75 187.774 Q1976.04 190.529 1976.04 195.899 Z" fill="#000000" fill-rule="evenodd" fill-opacity="1" /><path clip-path="url(#clip420)" d="M1994.58 188.607 Q1991.15 188.607 1989.16 191.293 Q1987.17 193.955 1987.17 198.607 Q1987.17 203.26 1989.14 205.945 Q1991.13 208.607 1994.58 208.607 Q1997.98 208.607 1999.97 205.922 Q2001.96 203.237 2001.96 198.607 Q2001.96 194.001 1999.97 191.316 Q1997.98 188.607 1994.58 188.607 M1994.58 184.996 Q2000.13 184.996 2003.31 188.607 Q2006.48 192.219 2006.48 198.607 Q2006.48 204.973 2003.31 208.607 Q2000.13 212.218 1994.58 212.218 Q1989 212.218 1985.83 208.607 Q1982.68 204.973 1982.68 198.607 Q1982.68 192.219 1985.83 188.607 Q1989 184.996 1994.58 184.996 Z" fill="#000000" fill-rule="evenodd" fill-opacity="1" /><path clip-path="url(#clip420)" d="M2028.31 192.913 Q2031.66 193.631 2033.54 195.899 Q2035.43 198.168 2035.43 201.501 Q2035.43 206.617 2031.92 209.418 Q2028.4 212.218 2021.92 212.218 Q2019.74 212.218 2017.43 211.779 Q2015.13 211.362 2012.68 210.506 L2012.68 205.992 Q2014.62 207.126 2016.94 207.705 Q2019.25 208.283 2021.78 208.283 Q2026.18 208.283 2028.47 206.547 Q2030.78 204.811 2030.78 201.501 Q2030.78 198.445 2028.63 196.732 Q2026.5 194.996 2022.68 194.996 L2018.65 194.996 L2018.65 191.154 L2022.87 191.154 Q2026.31 191.154 2028.14 189.788 Q2029.97 188.399 2029.97 185.807 Q2029.97 183.145 2028.07 181.733 Q2026.2 180.297 2022.68 180.297 Q2020.76 180.297 2018.56 180.714 Q2016.36 181.131 2013.72 182.01 L2013.72 177.844 Q2016.38 177.103 2018.7 176.733 Q2021.04 176.362 2023.1 176.362 Q2028.42 176.362 2031.52 178.793 Q2034.62 181.2 2034.62 185.32 Q2034.62 188.191 2032.98 190.182 Q2031.34 192.149 2028.31 192.913 Z" fill="#000000" fill-rule="evenodd" fill-opacity="1" /><polyline clip-path="url(#clip420)" style="stroke:#3da44d; stroke-linecap:butt; stroke-linejoin:round; stroke-width:4; stroke-opacity:1; fill:none" points="
  1662.64,246.107 1796.37,246.107 
  "/>
<line clip-path="url(#clip420)" x1="1729.5" y1="246.107" x2="1729.5" y2="220.507" style="stroke:#3da44d; stroke-width:4.9152; stroke-opacity:1"/>
<line clip-path="url(#clip420)" x1="1729.5" y1="246.107" x2="1703.9" y2="246.107" style="stroke:#3da44d; stroke-width:4.9152; stroke-opacity:1"/>
<line clip-path="url(#clip420)" x1="1729.5" y1="246.107" x2="1729.5" y2="271.707" style="stroke:#3da44d; stroke-width:4.9152; stroke-opacity:1"/>
<line clip-path="url(#clip420)" x1="1729.5" y1="246.107" x2="1755.1" y2="246.107" style="stroke:#3da44d; stroke-width:4.9152; stroke-opacity:1"/>
<path clip-path="url(#clip420)" d="M1818.65 228.827 L1823.33 228.827 L1823.33 243.434 L1838.84 228.827 L1844.86 228.827 L1827.7 244.938 L1846.08 263.387 L1839.93 263.387 L1823.33 246.744 L1823.33 263.387 L1818.65 263.387 L1818.65 228.827 Z" fill="#000000" fill-rule="evenodd" fill-opacity="1" /><path clip-path="url(#clip420)" d="M1869.37 249.359 L1869.37 251.443 L1849.79 251.443 Q1850.07 255.841 1852.43 258.156 Q1854.81 260.447 1859.05 260.447 Q1861.5 260.447 1863.79 259.846 Q1866.11 259.244 1868.38 258.04 L1868.38 262.068 Q1866.08 263.04 1863.68 263.549 Q1861.27 264.058 1858.79 264.058 Q1852.59 264.058 1848.95 260.447 Q1845.34 256.836 1845.34 250.679 Q1845.34 244.313 1848.77 240.586 Q1852.22 236.836 1858.05 236.836 Q1863.28 236.836 1866.32 240.216 Q1869.37 243.572 1869.37 249.359 M1865.11 248.109 Q1865.07 244.614 1863.14 242.531 Q1861.25 240.447 1858.1 240.447 Q1854.53 240.447 1852.38 242.461 Q1850.25 244.475 1849.93 248.133 L1865.11 248.109 Z" fill="#000000" fill-rule="evenodd" fill-opacity="1" /><path clip-path="url(#clip420)" d="M1897.91 247.739 L1897.91 263.387 L1893.65 263.387 L1893.65 247.878 Q1893.65 244.197 1892.22 242.369 Q1890.78 240.54 1887.91 240.54 Q1884.46 240.54 1882.47 242.739 Q1880.48 244.938 1880.48 248.734 L1880.48 263.387 L1876.2 263.387 L1876.2 237.461 L1880.48 237.461 L1880.48 241.489 Q1882.01 239.151 1884.07 237.994 Q1886.15 236.836 1888.86 236.836 Q1893.33 236.836 1895.62 239.614 Q1897.91 242.369 1897.91 247.739 Z" fill="#000000" fill-rule="evenodd" fill-opacity="1" /><path clip-path="url(#clip420)" d="M1932.47 231.489 L1932.47 236.42 Q1930.11 234.221 1927.43 233.133 Q1924.76 232.045 1921.75 232.045 Q1915.83 232.045 1912.68 235.679 Q1909.53 239.29 1909.53 246.142 Q1909.53 252.971 1912.68 256.605 Q1915.83 260.216 1921.75 260.216 Q1924.76 260.216 1927.43 259.128 Q1930.11 258.04 1932.47 255.841 L1932.47 260.725 Q1930.02 262.392 1927.26 263.225 Q1924.53 264.058 1921.48 264.058 Q1913.63 264.058 1909.12 259.267 Q1904.6 254.452 1904.6 246.142 Q1904.6 237.809 1909.12 233.017 Q1913.63 228.202 1921.48 228.202 Q1924.58 228.202 1927.31 229.036 Q1930.07 229.846 1932.47 231.489 Z" fill="#000000" fill-rule="evenodd" fill-opacity="1" /><path clip-path="url(#clip420)" d="M1951.29 250.355 Q1946.13 250.355 1944.14 251.535 Q1942.15 252.716 1942.15 255.563 Q1942.15 257.832 1943.63 259.174 Q1945.13 260.494 1947.7 260.494 Q1951.25 260.494 1953.38 257.994 Q1955.53 255.471 1955.53 251.304 L1955.53 250.355 L1951.29 250.355 M1959.79 248.596 L1959.79 263.387 L1955.53 263.387 L1955.53 259.452 Q1954.07 261.813 1951.89 262.947 Q1949.72 264.058 1946.57 264.058 Q1942.59 264.058 1940.23 261.836 Q1937.89 259.591 1937.89 255.841 Q1937.89 251.466 1940.81 249.244 Q1943.75 247.022 1949.56 247.022 L1955.53 247.022 L1955.53 246.605 Q1955.53 243.665 1953.58 242.068 Q1951.66 240.447 1948.17 240.447 Q1945.94 240.447 1943.84 240.98 Q1941.73 241.512 1939.79 242.577 L1939.79 238.642 Q1942.13 237.739 1944.32 237.299 Q1946.52 236.836 1948.61 236.836 Q1954.23 236.836 1957.01 239.753 Q1959.79 242.67 1959.79 248.596 Z" fill="#000000" fill-rule="evenodd" fill-opacity="1" /><path clip-path="url(#clip420)" d="M1983.58 241.443 Q1982.87 241.026 1982.01 240.841 Q1981.18 240.633 1980.16 240.633 Q1976.55 240.633 1974.6 242.994 Q1972.68 245.332 1972.68 249.73 L1972.68 263.387 L1968.4 263.387 L1968.4 237.461 L1972.68 237.461 L1972.68 241.489 Q1974.02 239.128 1976.18 237.994 Q1978.33 236.836 1981.41 236.836 Q1981.85 236.836 1982.38 236.906 Q1982.91 236.952 1983.56 237.068 L1983.58 241.443 Z" fill="#000000" fill-rule="evenodd" fill-opacity="1" /><path clip-path="url(#clip420)" d="M1992.17 259.498 L1992.17 273.248 L1987.89 273.248 L1987.89 237.461 L1992.17 237.461 L1992.17 241.397 Q1993.51 239.082 1995.55 237.971 Q1997.61 236.836 2000.46 236.836 Q2005.18 236.836 2008.12 240.586 Q2011.08 244.336 2011.08 250.447 Q2011.08 256.559 2008.12 260.308 Q2005.18 264.058 2000.46 264.058 Q1997.61 264.058 1995.55 262.947 Q1993.51 261.813 1992.17 259.498 M2006.66 250.447 Q2006.66 245.748 2004.72 243.086 Q2002.8 240.401 1999.42 240.401 Q1996.04 240.401 1994.09 243.086 Q1992.17 245.748 1992.17 250.447 Q1992.17 255.146 1994.09 257.832 Q1996.04 260.494 1999.42 260.494 Q2002.8 260.494 2004.72 257.832 Q2006.66 255.146 2006.66 250.447 Z" fill="#000000" fill-rule="evenodd" fill-opacity="1" /><path clip-path="url(#clip420)" d="M2031.59 232.901 L2019.79 251.35 L2031.59 251.35 L2031.59 232.901 M2030.37 228.827 L2036.24 228.827 L2036.24 251.35 L2041.18 251.35 L2041.18 255.239 L2036.24 255.239 L2036.24 263.387 L2031.59 263.387 L2031.59 255.239 L2015.99 255.239 L2015.99 250.725 L2030.37 228.827 Z" fill="#000000" fill-rule="evenodd" fill-opacity="1" /><polyline clip-path="url(#clip420)" style="stroke:#c271d2; stroke-linecap:butt; stroke-linejoin:round; stroke-width:4; stroke-opacity:1; fill:none" points="
  1662.64,297.947 1796.37,297.947 
  "/>
<path clip-path="url(#clip420)" d="M1729.5 272.347 L1703.9 297.947 L1729.5 323.547 L1755.1 297.947 L1729.5 272.347 Z" fill="#c271d2" fill-rule="evenodd" fill-opacity="1" stroke="#000000" stroke-opacity="1" stroke-width="4.9152"/>
<path clip-path="url(#clip420)" d="M1818.65 280.667 L1847.89 280.667 L1847.89 284.602 L1835.62 284.602 L1835.62 315.227 L1830.92 315.227 L1830.92 284.602 L1818.65 284.602 L1818.65 280.667 Z" fill="#000000" fill-rule="evenodd" fill-opacity="1" /><path clip-path="url(#clip420)" d="M1868.79 299.024 Q1870.3 299.533 1871.71 301.199 Q1873.14 302.866 1874.58 305.783 L1879.32 315.227 L1874.3 315.227 L1869.88 306.361 Q1868.17 302.889 1866.55 301.755 Q1864.95 300.621 1862.17 300.621 L1857.08 300.621 L1857.08 315.227 L1852.4 315.227 L1852.4 280.667 L1862.96 280.667 Q1868.88 280.667 1871.8 283.144 Q1874.72 285.621 1874.72 290.621 Q1874.72 293.885 1873.19 296.037 Q1871.69 298.19 1868.79 299.024 M1857.08 284.51 L1857.08 296.778 L1862.96 296.778 Q1866.34 296.778 1868.05 295.227 Q1869.79 293.653 1869.79 290.621 Q1869.79 287.588 1868.05 286.061 Q1866.34 284.51 1862.96 284.51 L1857.08 284.51 Z" fill="#000000" fill-rule="evenodd" fill-opacity="1" /><path clip-path="url(#clip420)" d="M1890.02 298.723 L1890.02 311.385 L1897.52 311.385 Q1901.29 311.385 1903.1 309.834 Q1904.93 308.26 1904.93 305.042 Q1904.93 301.801 1903.1 300.274 Q1901.29 298.723 1897.52 298.723 L1890.02 298.723 M1890.02 284.51 L1890.02 294.926 L1896.94 294.926 Q1900.37 294.926 1902.03 293.653 Q1903.72 292.357 1903.72 289.718 Q1903.72 287.102 1902.03 285.806 Q1900.37 284.51 1896.94 284.51 L1890.02 284.51 M1885.34 280.667 L1897.29 280.667 Q1902.63 280.667 1905.53 282.889 Q1908.42 285.112 1908.42 289.209 Q1908.42 292.38 1906.94 294.255 Q1905.46 296.13 1902.59 296.593 Q1906.04 297.334 1907.94 299.695 Q1909.86 302.033 1909.86 305.551 Q1909.86 310.181 1906.71 312.704 Q1903.56 315.227 1897.75 315.227 L1885.34 315.227 L1885.34 280.667 Z" fill="#000000" fill-rule="evenodd" fill-opacity="1" /><path clip-path="url(#clip420)" d="M1922.54 284.51 L1922.54 311.385 L1928.19 311.385 Q1935.34 311.385 1938.65 308.144 Q1941.99 304.903 1941.99 297.912 Q1941.99 290.968 1938.65 287.75 Q1935.34 284.51 1928.19 284.51 L1922.54 284.51 M1917.87 280.667 L1927.47 280.667 Q1937.52 280.667 1942.22 284.857 Q1946.92 289.024 1946.92 297.912 Q1946.92 306.848 1942.19 311.037 Q1937.47 315.227 1927.47 315.227 L1917.87 315.227 L1917.87 280.667 Z" fill="#000000" fill-rule="evenodd" fill-opacity="1" /><path clip-path="url(#clip420)" d="M1954.37 280.667 L1974.23 280.667 L1974.23 284.602 L1959.05 284.602 L1959.05 294.787 L1972.75 294.787 L1972.75 298.723 L1959.05 298.723 L1959.05 315.227 L1954.37 315.227 L1954.37 280.667 Z" fill="#000000" fill-rule="evenodd" fill-opacity="1" /><path clip-path="url(#clip420)" d="M1986.08 311.292 L2002.4 311.292 L2002.4 315.227 L1980.46 315.227 L1980.46 311.292 Q1983.12 308.537 1987.7 303.908 Q1992.31 299.255 1993.49 297.912 Q1995.74 295.389 1996.62 293.653 Q1997.52 291.894 1997.52 290.204 Q1997.52 287.45 1995.57 285.713 Q1993.65 283.977 1990.55 283.977 Q1988.35 283.977 1985.9 284.741 Q1983.47 285.505 1980.69 287.056 L1980.69 282.334 Q1983.51 281.2 1985.97 280.621 Q1988.42 280.042 1990.46 280.042 Q1995.83 280.042 1999.02 282.727 Q2002.22 285.413 2002.22 289.903 Q2002.22 292.033 2001.41 293.954 Q2000.62 295.852 1998.51 298.445 Q1997.94 299.116 1994.83 302.334 Q1991.73 305.528 1986.08 311.292 Z" fill="#000000" fill-rule="evenodd" fill-opacity="1" /><polyline clip-path="url(#clip420)" style="stroke:#ac8d18; stroke-linecap:butt; stroke-linejoin:round; stroke-width:4; stroke-opacity:1; fill:none" points="
  1662.64,349.787 1796.37,349.787 
  "/>
<path clip-path="url(#clip420)" d="M1755.1 324.187 L1703.9 324.187 L1729.5 375.387 L1755.1 324.187 Z" fill="#ac8d18" fill-rule="evenodd" fill-opacity="1" stroke="#000000" stroke-opacity="1" stroke-width="4.9152"/>
<path clip-path="url(#clip420)" d="M1818.65 332.507 L1823.33 332.507 L1823.33 347.114 L1838.84 332.507 L1844.86 332.507 L1827.7 348.618 L1846.08 367.067 L1839.93 367.067 L1823.33 350.424 L1823.33 367.067 L1818.65 367.067 L1818.65 332.507 Z" fill="#000000" fill-rule="evenodd" fill-opacity="1" /><path clip-path="url(#clip420)" d="M1869.37 353.039 L1869.37 355.123 L1849.79 355.123 Q1850.07 359.521 1852.43 361.836 Q1854.81 364.127 1859.05 364.127 Q1861.5 364.127 1863.79 363.526 Q1866.11 362.924 1868.38 361.72 L1868.38 365.748 Q1866.08 366.72 1863.68 367.229 Q1861.27 367.738 1858.79 367.738 Q1852.59 367.738 1848.95 364.127 Q1845.34 360.516 1845.34 354.359 Q1845.34 347.993 1848.77 344.266 Q1852.22 340.516 1858.05 340.516 Q1863.28 340.516 1866.32 343.896 Q1869.37 347.252 1869.37 353.039 M1865.11 351.789 Q1865.07 348.294 1863.14 346.211 Q1861.25 344.127 1858.1 344.127 Q1854.53 344.127 1852.38 346.141 Q1850.25 348.155 1849.93 351.813 L1865.11 351.789 Z" fill="#000000" fill-rule="evenodd" fill-opacity="1" /><path clip-path="url(#clip420)" d="M1897.91 351.419 L1897.91 367.067 L1893.65 367.067 L1893.65 351.558 Q1893.65 347.877 1892.22 346.049 Q1890.78 344.22 1887.91 344.22 Q1884.46 344.22 1882.47 346.419 Q1880.48 348.618 1880.48 352.414 L1880.48 367.067 L1876.2 367.067 L1876.2 341.141 L1880.48 341.141 L1880.48 345.169 Q1882.01 342.831 1884.07 341.674 Q1886.15 340.516 1888.86 340.516 Q1893.33 340.516 1895.62 343.294 Q1897.91 346.049 1897.91 351.419 Z" fill="#000000" fill-rule="evenodd" fill-opacity="1" /><path clip-path="url(#clip420)" d="M1932.47 335.169 L1932.47 340.1 Q1930.11 337.901 1927.43 336.813 Q1924.76 335.725 1921.75 335.725 Q1915.83 335.725 1912.68 339.359 Q1909.53 342.97 1909.53 349.822 Q1909.53 356.651 1912.68 360.285 Q1915.83 363.896 1921.75 363.896 Q1924.76 363.896 1927.43 362.808 Q1930.11 361.72 1932.47 359.521 L1932.47 364.405 Q1930.02 366.072 1927.26 366.905 Q1924.53 367.738 1921.48 367.738 Q1913.63 367.738 1909.12 362.947 Q1904.6 358.132 1904.6 349.822 Q1904.6 341.489 1909.12 336.697 Q1913.63 331.882 1921.48 331.882 Q1924.58 331.882 1927.31 332.716 Q1930.07 333.526 1932.47 335.169 Z" fill="#000000" fill-rule="evenodd" fill-opacity="1" /><path clip-path="url(#clip420)" d="M1951.29 354.035 Q1946.13 354.035 1944.14 355.215 Q1942.15 356.396 1942.15 359.243 Q1942.15 361.512 1943.63 362.854 Q1945.13 364.174 1947.7 364.174 Q1951.25 364.174 1953.38 361.674 Q1955.53 359.151 1955.53 354.984 L1955.53 354.035 L1951.29 354.035 M1959.79 352.276 L1959.79 367.067 L1955.53 367.067 L1955.53 363.132 Q1954.07 365.493 1951.89 366.627 Q1949.72 367.738 1946.57 367.738 Q1942.59 367.738 1940.23 365.516 Q1937.89 363.271 1937.89 359.521 Q1937.89 355.146 1940.81 352.924 Q1943.75 350.702 1949.56 350.702 L1955.53 350.702 L1955.53 350.285 Q1955.53 347.345 1953.58 345.748 Q1951.66 344.127 1948.17 344.127 Q1945.94 344.127 1943.84 344.66 Q1941.73 345.192 1939.79 346.257 L1939.79 342.322 Q1942.13 341.419 1944.32 340.979 Q1946.52 340.516 1948.61 340.516 Q1954.23 340.516 1957.01 343.433 Q1959.79 346.35 1959.79 352.276 Z" fill="#000000" fill-rule="evenodd" fill-opacity="1" /><path clip-path="url(#clip420)" d="M1983.58 345.123 Q1982.87 344.706 1982.01 344.521 Q1981.18 344.313 1980.16 344.313 Q1976.55 344.313 1974.6 346.674 Q1972.68 349.012 1972.68 353.41 L1972.68 367.067 L1968.4 367.067 L1968.4 341.141 L1972.68 341.141 L1972.68 345.169 Q1974.02 342.808 1976.18 341.674 Q1978.33 340.516 1981.41 340.516 Q1981.85 340.516 1982.38 340.586 Q1982.91 340.632 1983.56 340.748 L1983.58 345.123 Z" fill="#000000" fill-rule="evenodd" fill-opacity="1" /><path clip-path="url(#clip420)" d="M1992.17 363.178 L1992.17 376.928 L1987.89 376.928 L1987.89 341.141 L1992.17 341.141 L1992.17 345.077 Q1993.51 342.762 1995.55 341.651 Q1997.61 340.516 2000.46 340.516 Q2005.18 340.516 2008.12 344.266 Q2011.08 348.016 2011.08 354.127 Q2011.08 360.239 2008.12 363.988 Q2005.18 367.738 2000.46 367.738 Q1997.61 367.738 1995.55 366.627 Q1993.51 365.493 1992.17 363.178 M2006.66 354.127 Q2006.66 349.428 2004.72 346.766 Q2002.8 344.081 1999.42 344.081 Q1996.04 344.081 1994.09 346.766 Q1992.17 349.428 1992.17 354.127 Q1992.17 358.826 1994.09 361.512 Q1996.04 364.174 1999.42 364.174 Q2002.8 364.174 2004.72 361.512 Q2006.66 358.826 2006.66 354.127 Z" fill="#000000" fill-rule="evenodd" fill-opacity="1" /><path clip-path="url(#clip420)" d="M2032.91 348.433 Q2036.27 349.151 2038.14 351.419 Q2040.04 353.688 2040.04 357.021 Q2040.04 362.137 2036.52 364.938 Q2033 367.738 2026.52 367.738 Q2024.35 367.738 2022.03 367.299 Q2019.74 366.882 2017.29 366.026 L2017.29 361.512 Q2019.23 362.646 2021.55 363.225 Q2023.86 363.803 2026.38 363.803 Q2030.78 363.803 2033.07 362.067 Q2035.39 360.331 2035.39 357.021 Q2035.39 353.965 2033.24 352.252 Q2031.11 350.516 2027.29 350.516 L2023.26 350.516 L2023.26 346.674 L2027.47 346.674 Q2030.92 346.674 2032.75 345.308 Q2034.58 343.919 2034.58 341.327 Q2034.58 338.665 2032.68 337.253 Q2030.81 335.817 2027.29 335.817 Q2025.37 335.817 2023.17 336.234 Q2020.97 336.651 2018.33 337.53 L2018.33 333.364 Q2020.99 332.623 2023.31 332.253 Q2025.64 331.882 2027.7 331.882 Q2033.03 331.882 2036.13 334.313 Q2039.23 336.72 2039.23 340.84 Q2039.23 343.711 2037.59 345.702 Q2035.94 347.669 2032.91 348.433 Z" fill="#000000" fill-rule="evenodd" fill-opacity="1" /><polyline clip-path="url(#clip420)" style="stroke:#00a9ad; stroke-linecap:butt; stroke-linejoin:round; stroke-width:4; stroke-opacity:1; fill:none" points="
  1662.64,401.627 1796.37,401.627 
  "/>
<path clip-path="url(#clip420)" d="M1729.5 376.027 L1709.48 385.678 L1704.54 407.336 L1718.39 424.693 L1740.61 424.693 L1754.46 407.336 L1749.52 385.678 Z" fill="#00a9ad" fill-rule="evenodd" fill-opacity="1" stroke="#000000" stroke-opacity="1" stroke-width="4.9152"/>
<path clip-path="url(#clip420)" d="M1834.49 388.954 L1828.14 406.153 L1840.85 406.153 L1834.49 388.954 M1831.85 384.347 L1837.15 384.347 L1850.32 418.907 L1845.46 418.907 L1842.31 410.041 L1826.73 410.041 L1823.58 418.907 L1818.65 418.907 L1831.85 384.347 Z" fill="#000000" fill-rule="evenodd" fill-opacity="1" /><path clip-path="url(#clip420)" d="M1871.76 402.704 Q1873.26 403.213 1874.67 404.879 Q1876.11 406.546 1877.54 409.463 L1882.29 418.907 L1877.26 418.907 L1872.84 410.041 Q1871.13 406.569 1869.51 405.435 Q1867.91 404.301 1865.13 404.301 L1860.04 404.301 L1860.04 418.907 L1855.37 418.907 L1855.37 384.347 L1865.92 384.347 Q1871.85 384.347 1874.76 386.824 Q1877.68 389.301 1877.68 394.301 Q1877.68 397.565 1876.15 399.717 Q1874.65 401.87 1871.76 402.704 M1860.04 388.19 L1860.04 400.458 L1865.92 400.458 Q1869.3 400.458 1871.01 398.907 Q1872.75 397.333 1872.75 394.301 Q1872.75 391.268 1871.01 389.741 Q1869.3 388.19 1865.92 388.19 L1860.04 388.19 Z" fill="#000000" fill-rule="evenodd" fill-opacity="1" /><path clip-path="url(#clip420)" d="M1888.31 384.347 L1892.98 384.347 L1892.98 398.954 L1908.49 384.347 L1914.51 384.347 L1897.36 400.458 L1915.74 418.907 L1909.58 418.907 L1892.98 402.264 L1892.98 418.907 L1888.31 418.907 L1888.31 384.347 Z" fill="#000000" fill-rule="evenodd" fill-opacity="1" /><path clip-path="url(#clip420)" d="M1930.83 387.518 Q1925.74 387.518 1922.73 391.315 Q1919.74 395.111 1919.74 401.662 Q1919.74 408.19 1922.73 411.986 Q1925.74 415.782 1930.83 415.782 Q1935.92 415.782 1938.88 411.986 Q1941.87 408.19 1941.87 401.662 Q1941.87 395.111 1938.88 391.315 Q1935.92 387.518 1930.83 387.518 M1930.83 383.722 Q1938.1 383.722 1942.45 388.606 Q1946.8 393.468 1946.8 401.662 Q1946.8 409.833 1942.45 414.717 Q1938.1 419.578 1930.83 419.578 Q1923.54 419.578 1919.16 414.717 Q1914.81 409.856 1914.81 401.662 Q1914.81 393.468 1919.16 388.606 Q1923.54 383.722 1930.83 383.722 Z" fill="#000000" fill-rule="evenodd" fill-opacity="1" /><path clip-path="url(#clip420)" d="M1958.79 388.19 L1958.79 415.065 L1964.44 415.065 Q1971.59 415.065 1974.9 411.824 Q1978.24 408.583 1978.24 401.592 Q1978.24 394.648 1974.9 391.43 Q1971.59 388.19 1964.44 388.19 L1958.79 388.19 M1954.12 384.347 L1963.72 384.347 Q1973.77 384.347 1978.47 388.537 Q1983.17 392.704 1983.17 401.592 Q1983.17 410.528 1978.44 414.717 Q1973.72 418.907 1963.72 418.907 L1954.12 418.907 L1954.12 384.347 Z" fill="#000000" fill-rule="evenodd" fill-opacity="1" /><path clip-path="url(#clip420)" d="M1990.62 384.347 L2012.47 384.347 L2012.47 388.282 L1995.3 388.282 L1995.3 398.514 L2011.75 398.514 L2011.75 402.449 L1995.3 402.449 L1995.3 414.972 L2012.89 414.972 L2012.89 418.907 L1990.62 418.907 L1990.62 384.347 Z" fill="#000000" fill-rule="evenodd" fill-opacity="1" /><polyline clip-path="url(#clip420)" style="stroke:#ed5d92; stroke-linecap:butt; stroke-linejoin:round; stroke-width:4; stroke-opacity:1; fill:none" points="
  1662.64,453.467 1796.37,453.467 
  "/>
<path clip-path="url(#clip420)" d="M1729.5 479.067 L1707.33 466.267 L1707.33 440.667 L1729.5 427.867 L1751.67 440.667 L1751.67 466.267 Z" fill="#ed5d92" fill-rule="evenodd" fill-opacity="1" stroke="#000000" stroke-opacity="1" stroke-width="4.9152"/>
<path clip-path="url(#clip420)" d="M1840.9 437.321 L1840.9 441.882 Q1838.24 440.608 1835.88 439.983 Q1833.51 439.358 1831.32 439.358 Q1827.5 439.358 1825.41 440.84 Q1823.35 442.321 1823.35 445.053 Q1823.35 447.345 1824.72 448.525 Q1826.11 449.682 1829.95 450.4 L1832.77 450.979 Q1838.01 451.974 1840.48 454.497 Q1842.98 456.997 1842.98 461.21 Q1842.98 466.233 1839.6 468.826 Q1836.25 471.418 1829.74 471.418 Q1827.29 471.418 1824.51 470.863 Q1821.76 470.307 1818.79 469.219 L1818.79 464.405 Q1821.64 466.002 1824.37 466.812 Q1827.1 467.622 1829.74 467.622 Q1833.75 467.622 1835.92 466.048 Q1838.1 464.474 1838.1 461.557 Q1838.1 459.011 1836.52 457.576 Q1834.97 456.141 1831.41 455.423 L1828.56 454.868 Q1823.33 453.826 1820.99 451.604 Q1818.65 449.382 1818.65 445.423 Q1818.65 440.84 1821.87 438.201 Q1825.11 435.562 1830.78 435.562 Q1833.21 435.562 1835.74 436.002 Q1838.26 436.442 1840.9 437.321 Z" fill="#000000" fill-rule="evenodd" fill-opacity="1" /><path clip-path="url(#clip420)" d="M1854.95 440.03 L1854.95 466.905 L1860.6 466.905 Q1867.75 466.905 1871.06 463.664 Q1874.39 460.423 1874.39 453.432 Q1874.39 446.488 1871.06 443.27 Q1867.75 440.03 1860.6 440.03 L1854.95 440.03 M1850.27 436.187 L1859.88 436.187 Q1869.93 436.187 1874.63 440.377 Q1879.32 444.544 1879.32 453.432 Q1879.32 462.368 1874.6 466.557 Q1869.88 470.747 1859.88 470.747 L1850.27 470.747 L1850.27 436.187 Z" fill="#000000" fill-rule="evenodd" fill-opacity="1" /><path clip-path="url(#clip420)" d="M1886.78 436.187 L1891.45 436.187 L1891.45 470.747 L1886.78 470.747 L1886.78 436.187 Z" fill="#000000" fill-rule="evenodd" fill-opacity="1" /><path clip-path="url(#clip420)" d="M1917.15 454.544 Q1918.65 455.053 1920.07 456.719 Q1921.5 458.386 1922.94 461.303 L1927.68 470.747 L1922.66 470.747 L1918.24 461.881 Q1916.52 458.409 1914.9 457.275 Q1913.31 456.141 1910.53 456.141 L1905.44 456.141 L1905.44 470.747 L1900.76 470.747 L1900.76 436.187 L1911.32 436.187 Q1917.24 436.187 1920.16 438.664 Q1923.07 441.141 1923.07 446.141 Q1923.07 449.405 1921.55 451.557 Q1920.04 453.71 1917.15 454.544 M1905.44 440.03 L1905.44 452.298 L1911.32 452.298 Q1914.69 452.298 1916.41 450.747 Q1918.14 449.173 1918.14 446.141 Q1918.14 443.108 1916.41 441.581 Q1914.69 440.03 1911.32 440.03 L1905.44 440.03 Z" fill="#000000" fill-rule="evenodd" fill-opacity="1" /><path clip-path="url(#clip420)" d="M1933.7 436.187 L1938.38 436.187 L1938.38 450.794 L1953.88 436.187 L1959.9 436.187 L1942.75 452.298 L1961.13 470.747 L1954.97 470.747 L1938.38 454.104 L1938.38 470.747 L1933.7 470.747 L1933.7 436.187 Z" fill="#000000" fill-rule="evenodd" fill-opacity="1" /><path clip-path="url(#clip420)" d="M1969.23 466.812 L1985.55 466.812 L1985.55 470.747 L1963.61 470.747 L1963.61 466.812 Q1966.27 464.057 1970.85 459.428 Q1975.46 454.775 1976.64 453.432 Q1978.88 450.909 1979.76 449.173 Q1980.67 447.414 1980.67 445.724 Q1980.67 442.97 1978.72 441.233 Q1976.8 439.497 1973.7 439.497 Q1971.5 439.497 1969.05 440.261 Q1966.62 441.025 1963.84 442.576 L1963.84 437.854 Q1966.66 436.72 1969.12 436.141 Q1971.57 435.562 1973.61 435.562 Q1978.98 435.562 1982.17 438.247 Q1985.37 440.933 1985.37 445.423 Q1985.37 447.553 1984.56 449.474 Q1983.77 451.372 1981.66 453.965 Q1981.08 454.636 1977.98 457.854 Q1974.88 461.048 1969.23 466.812 Z" fill="#000000" fill-rule="evenodd" fill-opacity="1" /><polyline clip-path="url(#clip420)" style="stroke:#c68125; stroke-linecap:butt; stroke-linejoin:round; stroke-width:4; stroke-opacity:1; fill:none" points="
  1662.64,505.307 1796.37,505.307 
  "/>
<line clip-path="url(#clip420)" x1="1755.1" y1="505.307" x2="1703.9" y2="505.307" style="stroke:#c68125; stroke-width:4.9152; stroke-opacity:1"/>
<path clip-path="url(#clip420)" d="M1833.84 500.643 Q1833.12 500.226 1832.26 500.041 Q1831.43 499.833 1830.41 499.833 Q1826.8 499.833 1824.86 502.194 Q1822.94 504.532 1822.94 508.93 L1822.94 522.587 L1818.65 522.587 L1818.65 496.661 L1822.94 496.661 L1822.94 500.689 Q1824.28 498.328 1826.43 497.194 Q1828.58 496.036 1831.66 496.036 Q1832.1 496.036 1832.63 496.106 Q1833.17 496.152 1833.82 496.268 L1833.84 500.643 Z" fill="#000000" fill-rule="evenodd" fill-opacity="1" /><path clip-path="url(#clip420)" d="M1850.09 509.555 Q1844.93 509.555 1842.94 510.735 Q1840.95 511.916 1840.95 514.763 Q1840.95 517.032 1842.43 518.374 Q1843.93 519.694 1846.5 519.694 Q1850.04 519.694 1852.17 517.194 Q1854.32 514.671 1854.32 510.504 L1854.32 509.555 L1850.09 509.555 M1858.58 507.796 L1858.58 522.587 L1854.32 522.587 L1854.32 518.652 Q1852.87 521.013 1850.69 522.147 Q1848.51 523.258 1845.37 523.258 Q1841.38 523.258 1839.02 521.036 Q1836.69 518.791 1836.69 515.041 Q1836.69 510.666 1839.6 508.444 Q1842.54 506.222 1848.35 506.222 L1854.32 506.222 L1854.32 505.805 Q1854.32 502.865 1852.38 501.268 Q1850.46 499.647 1846.96 499.647 Q1844.74 499.647 1842.63 500.18 Q1840.53 500.712 1838.58 501.777 L1838.58 497.842 Q1840.92 496.939 1843.12 496.499 Q1845.32 496.036 1847.4 496.036 Q1853.03 496.036 1855.81 498.953 Q1858.58 501.87 1858.58 507.796 Z" fill="#000000" fill-rule="evenodd" fill-opacity="1" /><path clip-path="url(#clip420)" d="M1884.42 500.597 L1884.42 486.569 L1888.68 486.569 L1888.68 522.587 L1884.42 522.587 L1884.42 518.698 Q1883.07 521.013 1881.01 522.147 Q1878.98 523.258 1876.11 523.258 Q1871.41 523.258 1868.44 519.508 Q1865.51 515.759 1865.51 509.647 Q1865.51 503.536 1868.44 499.786 Q1871.41 496.036 1876.11 496.036 Q1878.98 496.036 1881.01 497.171 Q1883.07 498.282 1884.42 500.597 M1869.9 509.647 Q1869.9 514.346 1871.82 517.032 Q1873.77 519.694 1877.15 519.694 Q1880.53 519.694 1882.47 517.032 Q1884.42 514.346 1884.42 509.647 Q1884.42 504.948 1882.47 502.286 Q1880.53 499.601 1877.15 499.601 Q1873.77 499.601 1871.82 502.286 Q1869.9 504.948 1869.9 509.647 Z" fill="#000000" fill-rule="evenodd" fill-opacity="1" /><path clip-path="url(#clip420)" d="M1909.23 509.555 Q1904.07 509.555 1902.08 510.735 Q1900.09 511.916 1900.09 514.763 Q1900.09 517.032 1901.57 518.374 Q1903.07 519.694 1905.64 519.694 Q1909.19 519.694 1911.32 517.194 Q1913.47 514.671 1913.47 510.504 L1913.47 509.555 L1909.23 509.555 M1917.73 507.796 L1917.73 522.587 L1913.47 522.587 L1913.47 518.652 Q1912.01 521.013 1909.83 522.147 Q1907.66 523.258 1904.51 523.258 Q1900.53 523.258 1898.17 521.036 Q1895.83 518.791 1895.83 515.041 Q1895.83 510.666 1898.75 508.444 Q1901.69 506.222 1907.5 506.222 L1913.47 506.222 L1913.47 505.805 Q1913.47 502.865 1911.52 501.268 Q1909.6 499.647 1906.11 499.647 Q1903.88 499.647 1901.78 500.18 Q1899.67 500.712 1897.73 501.777 L1897.73 497.842 Q1900.07 496.939 1902.26 496.499 Q1904.46 496.036 1906.55 496.036 Q1912.17 496.036 1914.95 498.953 Q1917.73 501.87 1917.73 507.796 Z" fill="#000000" fill-rule="evenodd" fill-opacity="1" /><path clip-path="url(#clip420)" d="M1926.06 512.356 L1926.06 496.661 L1930.32 496.661 L1930.32 512.194 Q1930.32 515.874 1931.75 517.726 Q1933.19 519.555 1936.06 519.555 Q1939.51 519.555 1941.5 517.356 Q1943.51 515.157 1943.51 511.36 L1943.51 496.661 L1947.77 496.661 L1947.77 522.587 L1943.51 522.587 L1943.51 518.606 Q1941.96 520.967 1939.9 522.124 Q1937.87 523.258 1935.16 523.258 Q1930.69 523.258 1928.38 520.481 Q1926.06 517.703 1926.06 512.356 M1936.78 496.036 L1936.78 496.036 Z" fill="#000000" fill-rule="evenodd" fill-opacity="1" /></svg>
