<?xml version="1.0" encoding="utf-8"?>
<svg xmlns="http://www.w3.org/2000/svg" xmlns:xlink="http://www.w3.org/1999/xlink" width="576" height="384" viewBox="0 0 2304 1536">
<defs>
  <clipPath id="clip620">
    <rect x="0" y="0" width="2304" height="1536"/>
  </clipPath>
</defs>
<path clip-path="url(#clip620)" d="
M0 1536 L2304 1536 L2304 0 L0 0  Z
  " fill="#ffffff" fill-rule="evenodd" fill-opacity="1"/>
<defs>
  <clipPath id="clip621">
    <rect x="460" y="0" width="1614" height="1536"/>
  </clipPath>
</defs>
<path clip-path="url(#clip620)" d="
M288.159 1347.54 L2256.76 1347.54 L2256.76 47.2441 L288.159 47.2441  Z
  " fill="#ffffff" fill-rule="evenodd" fill-opacity="1"/>
<defs>
  <clipPath id="clip622">
    <rect x="288" y="47" width="1970" height="1301"/>
  </clipPath>
</defs>
<polyline clip-path="url(#clip622)" style="stroke:#000000; stroke-linecap:butt; stroke-linejoin:round; stroke-width:2; stroke-opacity:0.1; fill:none" points="
  1066.47,1347.54 1066.47,47.2441 
  "/>
<polyline clip-path="url(#clip622)" style="stroke:#000000; stroke-linecap:butt; stroke-linejoin:round; stroke-width:2; stroke-opacity:0.1; fill:none" points="
  2056.47,1347.54 2056.47,47.2441 
  "/>
<polyline clip-path="url(#clip620)" style="stroke:#000000; stroke-linecap:butt; stroke-linejoin:round; stroke-width:4; stroke-opacity:1; fill:none" points="
  288.159,1347.54 2256.76,1347.54 
  "/>
<polyline clip-path="url(#clip620)" style="stroke:#000000; stroke-linecap:butt; stroke-linejoin:round; stroke-width:4; stroke-opacity:1; fill:none" points="
  1066.47,1347.54 1066.47,1328.64 
  "/>
<polyline clip-path="url(#clip620)" style="stroke:#000000; stroke-linecap:butt; stroke-linejoin:round; stroke-width:4; stroke-opacity:1; fill:none" points="
  2056.47,1347.54 2056.47,1328.64 
  "/>
<path clip-path="url(#clip620)" d="M1016.35 1420.89 L1023.99 1420.89 L1023.99 1394.53 L1015.68 1396.19 L1015.68 1391.94 L1023.94 1390.27 L1028.62 1390.27 L1028.62 1420.89 L1036.26 1420.89 L1036.26 1424.83 L1016.35 1424.83 L1016.35 1420.89 Z" fill="#000000" fill-rule="evenodd" fill-opacity="1" /><path clip-path="url(#clip620)" d="M1055.7 1393.35 Q1052.09 1393.35 1050.26 1396.91 Q1048.46 1400.45 1048.46 1407.58 Q1048.46 1414.69 1050.26 1418.25 Q1052.09 1421.8 1055.7 1421.8 Q1059.33 1421.8 1061.14 1418.25 Q1062.97 1414.69 1062.97 1407.58 Q1062.97 1400.45 1061.14 1396.91 Q1059.33 1393.35 1055.7 1393.35 M1055.7 1389.64 Q1061.51 1389.64 1064.57 1394.25 Q1067.65 1398.83 1067.65 1407.58 Q1067.65 1416.31 1064.57 1420.92 Q1061.51 1425.5 1055.7 1425.5 Q1049.89 1425.5 1046.81 1420.92 Q1043.76 1416.31 1043.76 1407.58 Q1043.76 1398.83 1046.81 1394.25 Q1049.89 1389.64 1055.7 1389.64 Z" fill="#000000" fill-rule="evenodd" fill-opacity="1" /><path clip-path="url(#clip620)" d="M1067.65 1383.74 L1091.76 1383.74 L1091.76 1386.94 L1067.65 1386.94 L1067.65 1383.74 Z" fill="#000000" fill-rule="evenodd" fill-opacity="1" /><path clip-path="url(#clip620)" d="M1111.47 1382.28 Q1114.19 1382.86 1115.72 1384.7 Q1117.26 1386.55 1117.26 1389.26 Q1117.26 1393.41 1114.4 1395.69 Q1111.54 1397.96 1106.28 1397.96 Q1104.51 1397.96 1102.63 1397.61 Q1100.77 1397.27 1098.77 1396.57 L1098.77 1392.9 Q1100.35 1393.83 1102.23 1394.3 Q1104.11 1394.77 1106.16 1394.77 Q1109.74 1394.77 1111.6 1393.36 Q1113.48 1391.95 1113.48 1389.26 Q1113.48 1386.77 1111.73 1385.38 Q1110 1383.97 1106.9 1383.97 L1103.62 1383.97 L1103.62 1380.85 L1107.05 1380.85 Q1109.85 1380.85 1111.34 1379.74 Q1112.82 1378.61 1112.82 1376.5 Q1112.82 1374.34 1111.28 1373.19 Q1109.76 1372.03 1106.9 1372.03 Q1105.34 1372.03 1103.55 1372.37 Q1101.76 1372.7 1099.62 1373.42 L1099.62 1370.03 Q1101.78 1369.43 1103.66 1369.13 Q1105.56 1368.83 1107.24 1368.83 Q1111.56 1368.83 1114.08 1370.81 Q1116.6 1372.76 1116.6 1376.11 Q1116.6 1378.44 1115.27 1380.06 Q1113.93 1381.66 1111.47 1382.28 Z" fill="#000000" fill-rule="evenodd" fill-opacity="1" /><path clip-path="url(#clip620)" d="M2021.45 1420.89 L2029.09 1420.89 L2029.09 1394.53 L2020.78 1396.19 L2020.78 1391.94 L2029.04 1390.27 L2033.72 1390.27 L2033.72 1420.89 L2041.36 1420.89 L2041.36 1424.83 L2021.45 1424.83 L2021.45 1420.89 Z" fill="#000000" fill-rule="evenodd" fill-opacity="1" /><path clip-path="url(#clip620)" d="M2060.8 1393.35 Q2057.19 1393.35 2055.36 1396.91 Q2053.56 1400.45 2053.56 1407.58 Q2053.56 1414.69 2055.36 1418.25 Q2057.19 1421.8 2060.8 1421.8 Q2064.44 1421.8 2066.24 1418.25 Q2068.07 1414.69 2068.07 1407.58 Q2068.07 1400.45 2066.24 1396.91 Q2064.44 1393.35 2060.8 1393.35 M2060.8 1389.64 Q2066.61 1389.64 2069.67 1394.25 Q2072.75 1398.83 2072.75 1407.58 Q2072.75 1416.31 2069.67 1420.92 Q2066.61 1425.5 2060.8 1425.5 Q2054.99 1425.5 2051.91 1420.92 Q2048.86 1416.31 2048.86 1407.58 Q2048.86 1398.83 2051.91 1394.25 Q2054.99 1389.64 2060.8 1389.64 Z" fill="#000000" fill-rule="evenodd" fill-opacity="1" /><path clip-path="url(#clip620)" d="M2082.45 1371.84 Q2079.52 1371.84 2078.03 1374.74 Q2076.57 1377.61 2076.57 1383.41 Q2076.57 1389.18 2078.03 1392.08 Q2079.52 1394.95 2082.45 1394.95 Q2085.4 1394.95 2086.87 1392.08 Q2088.36 1389.18 2088.36 1383.41 Q2088.36 1377.61 2086.87 1374.74 Q2085.4 1371.84 2082.45 1371.84 M2082.45 1368.83 Q2087.17 1368.83 2089.66 1372.57 Q2092.16 1376.3 2092.16 1383.41 Q2092.16 1390.5 2089.66 1394.24 Q2087.17 1397.96 2082.45 1397.96 Q2077.73 1397.96 2075.23 1394.24 Q2072.75 1390.5 2072.75 1383.41 Q2072.75 1376.3 2075.23 1372.57 Q2077.73 1368.83 2082.45 1368.83 Z" fill="#000000" fill-rule="evenodd" fill-opacity="1" /><path clip-path="url(#clip620)" d="M1196.21 1461.87 L1226.26 1461.87 L1226.26 1467.28 L1202.64 1467.28 L1202.64 1481.34 L1225.27 1481.34 L1225.27 1486.76 L1202.64 1486.76 L1202.64 1503.97 L1226.83 1503.97 L1226.83 1509.39 L1196.21 1509.39 L1196.21 1461.87 Z" fill="#000000" fill-rule="evenodd" fill-opacity="1" /><path clip-path="url(#clip620)" d="M1257.8 1479.21 Q1256.81 1478.64 1255.64 1478.38 Q1254.49 1478.1 1253.09 1478.1 Q1248.12 1478.1 1245.45 1481.34 Q1242.81 1484.56 1242.81 1490.61 L1242.81 1509.39 L1236.92 1509.39 L1236.92 1473.74 L1242.81 1473.74 L1242.81 1479.28 Q1244.66 1476.03 1247.62 1474.47 Q1250.58 1472.88 1254.81 1472.88 Q1255.41 1472.88 1256.15 1472.97 Q1256.88 1473.04 1257.77 1473.2 L1257.8 1479.21 Z" fill="#000000" fill-rule="evenodd" fill-opacity="1" /><path clip-path="url(#clip620)" d="M1283.45 1479.21 Q1282.47 1478.64 1281.29 1478.38 Q1280.14 1478.1 1278.74 1478.1 Q1273.78 1478.1 1271.1 1481.34 Q1268.46 1484.56 1268.46 1490.61 L1268.46 1509.39 L1262.57 1509.39 L1262.57 1473.74 L1268.46 1473.74 L1268.46 1479.28 Q1270.31 1476.03 1273.27 1474.47 Q1276.23 1472.88 1280.46 1472.88 Q1281.07 1472.88 1281.8 1472.97 Q1282.53 1473.04 1283.42 1473.2 L1283.45 1479.21 Z" fill="#000000" fill-rule="evenodd" fill-opacity="1" /><path clip-path="url(#clip620)" d="M1301.98 1477.84 Q1297.27 1477.84 1294.53 1481.54 Q1291.79 1485.2 1291.79 1491.59 Q1291.79 1497.99 1294.5 1501.68 Q1297.24 1505.34 1301.98 1505.34 Q1306.66 1505.34 1309.39 1501.65 Q1312.13 1497.96 1312.13 1491.59 Q1312.13 1485.26 1309.39 1481.57 Q1306.66 1477.84 1301.98 1477.84 M1301.98 1472.88 Q1309.62 1472.88 1313.98 1477.84 Q1318.34 1482.81 1318.34 1491.59 Q1318.34 1500.35 1313.98 1505.34 Q1309.62 1510.31 1301.98 1510.31 Q1294.31 1510.31 1289.95 1505.34 Q1285.62 1500.35 1285.62 1491.59 Q1285.62 1482.81 1289.95 1477.84 Q1294.31 1472.88 1301.98 1472.88 Z" fill="#000000" fill-rule="evenodd" fill-opacity="1" /><path clip-path="url(#clip620)" d="M1348.7 1479.21 Q1347.72 1478.64 1346.54 1478.38 Q1345.39 1478.1 1343.99 1478.1 Q1339.03 1478.1 1336.35 1481.34 Q1333.71 1484.56 1333.71 1490.61 L1333.71 1509.39 L1327.82 1509.39 L1327.82 1473.74 L1333.71 1473.74 L1333.71 1479.28 Q1335.56 1476.03 1338.52 1474.47 Q1341.48 1472.88 1345.71 1472.88 Q1346.32 1472.88 1347.05 1472.97 Q1347.78 1473.04 1348.67 1473.2 L1348.7 1479.21 Z" fill="#000000" fill-rule="evenodd" fill-opacity="1" /><polyline clip-path="url(#clip622)" style="stroke:#000000; stroke-linecap:butt; stroke-linejoin:round; stroke-width:2; stroke-opacity:0.1; fill:none" points="
  288.159,1236.63 2256.76,1236.63 
  "/>
<polyline clip-path="url(#clip622)" style="stroke:#000000; stroke-linecap:butt; stroke-linejoin:round; stroke-width:2; stroke-opacity:0.1; fill:none" points="
  288.159,822.842 2256.76,822.842 
  "/>
<polyline clip-path="url(#clip622)" style="stroke:#000000; stroke-linecap:butt; stroke-linejoin:round; stroke-width:2; stroke-opacity:0.1; fill:none" points="
  288.159,409.056 2256.76,409.056 
  "/>
<polyline clip-path="url(#clip620)" style="stroke:#000000; stroke-linecap:butt; stroke-linejoin:round; stroke-width:4; stroke-opacity:1; fill:none" points="
  288.159,1347.54 288.159,47.2441 
  "/>
<polyline clip-path="url(#clip620)" style="stroke:#000000; stroke-linecap:butt; stroke-linejoin:round; stroke-width:4; stroke-opacity:1; fill:none" points="
  288.159,1236.63 307.057,1236.63 
  "/>
<polyline clip-path="url(#clip620)" style="stroke:#000000; stroke-linecap:butt; stroke-linejoin:round; stroke-width:4; stroke-opacity:1; fill:none" points="
  288.159,822.842 307.057,822.842 
  "/>
<polyline clip-path="url(#clip620)" style="stroke:#000000; stroke-linecap:butt; stroke-linejoin:round; stroke-width:4; stroke-opacity:1; fill:none" points="
  288.159,409.056 307.057,409.056 
  "/>
<path clip-path="url(#clip620)" d="M116.22 1256.42 L123.859 1256.42 L123.859 1230.05 L115.549 1231.72 L115.549 1227.46 L123.813 1225.79 L128.489 1225.79 L128.489 1256.42 L136.127 1256.42 L136.127 1260.35 L116.22 1260.35 L116.22 1256.42 Z" fill="#000000" fill-rule="evenodd" fill-opacity="1" /><path clip-path="url(#clip620)" d="M155.572 1228.87 Q151.961 1228.87 150.132 1232.44 Q148.326 1235.98 148.326 1243.11 Q148.326 1250.22 150.132 1253.78 Q151.961 1257.32 155.572 1257.32 Q159.206 1257.32 161.012 1253.78 Q162.84 1250.22 162.84 1243.11 Q162.84 1235.98 161.012 1232.44 Q159.206 1228.87 155.572 1228.87 M155.572 1225.17 Q161.382 1225.17 164.438 1229.78 Q167.516 1234.36 167.516 1243.11 Q167.516 1251.84 164.438 1256.44 Q161.382 1261.03 155.572 1261.03 Q149.762 1261.03 146.683 1256.44 Q143.627 1251.84 143.627 1243.11 Q143.627 1234.36 146.683 1229.78 Q149.762 1225.17 155.572 1225.17 Z" fill="#000000" fill-rule="evenodd" fill-opacity="1" /><path clip-path="url(#clip620)" d="M167.516 1219.27 L191.628 1219.27 L191.628 1222.47 L167.516 1222.47 L167.516 1219.27 Z" fill="#000000" fill-rule="evenodd" fill-opacity="1" /><path clip-path="url(#clip620)" d="M211.338 1217.8 Q214.065 1218.39 215.589 1220.23 Q217.131 1222.07 217.131 1224.78 Q217.131 1228.94 214.272 1231.21 Q211.414 1233.49 206.147 1233.49 Q204.379 1233.49 202.499 1233.13 Q200.637 1232.79 198.643 1232.1 L198.643 1228.43 Q200.223 1229.35 202.104 1229.82 Q203.984 1230.29 206.035 1230.29 Q209.608 1230.29 211.47 1228.88 Q213.351 1227.47 213.351 1224.78 Q213.351 1222.3 211.602 1220.91 Q209.871 1219.5 206.768 1219.5 L203.495 1219.5 L203.495 1216.37 L206.918 1216.37 Q209.721 1216.37 211.207 1215.26 Q212.692 1214.14 212.692 1212.03 Q212.692 1209.87 211.15 1208.72 Q209.627 1207.55 206.768 1207.55 Q205.207 1207.55 203.42 1207.89 Q201.633 1208.23 199.489 1208.95 L199.489 1205.56 Q201.652 1204.96 203.533 1204.66 Q205.433 1204.36 207.107 1204.36 Q211.432 1204.36 213.953 1206.33 Q216.473 1208.29 216.473 1211.63 Q216.473 1213.97 215.137 1215.58 Q213.802 1217.18 211.338 1217.8 Z" fill="#000000" fill-rule="evenodd" fill-opacity="1" /><path clip-path="url(#clip620)" d="M224.334 1228.17 L228.303 1228.17 L228.303 1232.94 L224.334 1232.94 L224.334 1228.17 Z" fill="#000000" fill-rule="evenodd" fill-opacity="1" /><path clip-path="url(#clip620)" d="M236.616 1204.86 L251.531 1204.86 L251.531 1208.06 L240.095 1208.06 L240.095 1214.95 Q240.923 1214.66 241.75 1214.53 Q242.578 1214.38 243.406 1214.38 Q248.107 1214.38 250.853 1216.96 Q253.599 1219.53 253.599 1223.94 Q253.599 1228.47 250.778 1230.99 Q247.957 1233.49 242.823 1233.49 Q241.055 1233.49 239.211 1233.19 Q237.387 1232.89 235.431 1232.29 L235.431 1228.47 Q237.124 1229.39 238.929 1229.84 Q240.735 1230.29 242.747 1230.29 Q246.001 1230.29 247.901 1228.58 Q249.8 1226.87 249.8 1223.94 Q249.8 1221 247.901 1219.29 Q246.001 1217.58 242.747 1217.58 Q241.224 1217.58 239.7 1217.92 Q238.196 1218.26 236.616 1218.97 L236.616 1204.86 Z" fill="#000000" fill-rule="evenodd" fill-opacity="1" /><path clip-path="url(#clip620)" d="M115.411 842.634 L123.05 842.634 L123.05 816.268 L114.74 817.935 L114.74 813.676 L123.004 812.009 L127.68 812.009 L127.68 842.634 L135.319 842.634 L135.319 846.569 L115.411 846.569 L115.411 842.634 Z" fill="#000000" fill-rule="evenodd" fill-opacity="1" /><path clip-path="url(#clip620)" d="M154.763 815.088 Q151.152 815.088 149.323 818.653 Q147.518 822.194 147.518 829.324 Q147.518 836.43 149.323 839.995 Q151.152 843.537 154.763 843.537 Q158.397 843.537 160.203 839.995 Q162.032 836.43 162.032 829.324 Q162.032 822.194 160.203 818.653 Q158.397 815.088 154.763 815.088 M154.763 811.384 Q160.573 811.384 163.629 815.991 Q166.707 820.574 166.707 829.324 Q166.707 838.051 163.629 842.657 Q160.573 847.24 154.763 847.24 Q148.953 847.24 145.874 842.657 Q142.819 838.051 142.819 829.324 Q142.819 820.574 145.874 815.991 Q148.953 811.384 154.763 811.384 Z" fill="#000000" fill-rule="evenodd" fill-opacity="1" /><path clip-path="url(#clip620)" d="M166.707 805.486 L190.819 805.486 L190.819 808.683 L166.707 808.683 L166.707 805.486 Z" fill="#000000" fill-rule="evenodd" fill-opacity="1" /><path clip-path="url(#clip620)" d="M210.53 804.019 Q213.257 804.602 214.78 806.445 Q216.322 808.288 216.322 810.996 Q216.322 815.153 213.464 817.428 Q210.605 819.704 205.339 819.704 Q203.571 819.704 201.69 819.347 Q199.828 819.008 197.834 818.312 L197.834 814.645 Q199.414 815.566 201.295 816.037 Q203.176 816.507 205.226 816.507 Q208.799 816.507 210.661 815.096 Q212.542 813.686 212.542 810.996 Q212.542 808.514 210.793 807.122 Q209.063 805.711 205.959 805.711 L202.687 805.711 L202.687 802.589 L206.11 802.589 Q208.912 802.589 210.398 801.479 Q211.884 800.351 211.884 798.245 Q211.884 796.082 210.341 794.934 Q208.818 793.768 205.959 793.768 Q204.398 793.768 202.612 794.107 Q200.825 794.445 198.681 795.16 L198.681 791.775 Q200.844 791.173 202.724 790.872 Q204.624 790.571 206.298 790.571 Q210.624 790.571 213.144 792.546 Q215.664 794.502 215.664 797.85 Q215.664 800.182 214.329 801.799 Q212.993 803.398 210.53 804.019 Z" fill="#000000" fill-rule="evenodd" fill-opacity="1" /><path clip-path="url(#clip620)" d="M223.526 814.382 L227.494 814.382 L227.494 819.159 L223.526 819.159 L223.526 814.382 Z" fill="#000000" fill-rule="evenodd" fill-opacity="1" /><path clip-path="url(#clip620)" d="M243.895 793.58 Q240.961 793.58 239.475 796.477 Q238.008 799.354 238.008 805.147 Q238.008 810.921 239.475 813.817 Q240.961 816.695 243.895 816.695 Q246.847 816.695 248.314 813.817 Q249.8 810.921 249.8 805.147 Q249.8 799.354 248.314 796.477 Q246.847 793.58 243.895 793.58 M243.895 790.571 Q248.615 790.571 251.098 794.314 Q253.599 798.038 253.599 805.147 Q253.599 812.237 251.098 815.98 Q248.615 819.704 243.895 819.704 Q239.174 819.704 236.672 815.98 Q234.19 812.237 234.19 805.147 Q234.19 798.038 236.672 794.314 Q239.174 790.571 243.895 790.571 Z" fill="#000000" fill-rule="evenodd" fill-opacity="1" /><path clip-path="url(#clip620)" d="M116.22 428.849 L123.859 428.849 L123.859 402.483 L115.549 404.15 L115.549 399.89 L123.813 398.224 L128.489 398.224 L128.489 428.849 L136.127 428.849 L136.127 432.784 L116.22 432.784 L116.22 428.849 Z" fill="#000000" fill-rule="evenodd" fill-opacity="1" /><path clip-path="url(#clip620)" d="M155.572 401.303 Q151.961 401.303 150.132 404.867 Q148.326 408.409 148.326 415.539 Q148.326 422.645 150.132 426.21 Q151.961 429.751 155.572 429.751 Q159.206 429.751 161.012 426.21 Q162.84 422.645 162.84 415.539 Q162.84 408.409 161.012 404.867 Q159.206 401.303 155.572 401.303 M155.572 397.599 Q161.382 397.599 164.438 402.205 Q167.516 406.789 167.516 415.539 Q167.516 424.265 164.438 428.872 Q161.382 433.455 155.572 433.455 Q149.762 433.455 146.683 428.872 Q143.627 424.265 143.627 415.539 Q143.627 406.789 146.683 402.205 Q149.762 397.599 155.572 397.599 Z" fill="#000000" fill-rule="evenodd" fill-opacity="1" /><path clip-path="url(#clip620)" d="M167.516 391.7 L191.628 391.7 L191.628 394.898 L167.516 394.898 L167.516 391.7 Z" fill="#000000" fill-rule="evenodd" fill-opacity="1" /><path clip-path="url(#clip620)" d="M203.101 402.176 L216.36 402.176 L216.36 405.373 L198.53 405.373 L198.53 402.176 Q200.693 399.938 204.417 396.176 Q208.16 392.396 209.119 391.305 Q210.943 389.255 211.658 387.845 Q212.392 386.415 212.392 385.042 Q212.392 382.804 210.812 381.394 Q209.251 379.983 206.73 379.983 Q204.944 379.983 202.95 380.604 Q200.975 381.224 198.718 382.484 L198.718 378.648 Q201.013 377.726 203.006 377.256 Q205 376.786 206.655 376.786 Q211.019 376.786 213.614 378.967 Q216.21 381.149 216.21 384.798 Q216.21 386.528 215.551 388.089 Q214.912 389.631 213.2 391.738 Q212.73 392.283 210.21 394.898 Q207.69 397.493 203.101 402.176 Z" fill="#000000" fill-rule="evenodd" fill-opacity="1" /><path clip-path="url(#clip620)" d="M224.334 400.596 L228.303 400.596 L228.303 405.373 L224.334 405.373 L224.334 400.596 Z" fill="#000000" fill-rule="evenodd" fill-opacity="1" /><path clip-path="url(#clip620)" d="M236.616 377.293 L251.531 377.293 L251.531 380.491 L240.095 380.491 L240.095 387.374 Q240.923 387.092 241.75 386.961 Q242.578 386.81 243.406 386.81 Q248.107 386.81 250.853 389.387 Q253.599 391.963 253.599 396.365 Q253.599 400.897 250.778 403.417 Q247.957 405.919 242.823 405.919 Q241.055 405.919 239.211 405.618 Q237.387 405.317 235.431 404.715 L235.431 400.897 Q237.124 401.819 238.929 402.27 Q240.735 402.722 242.747 402.722 Q246.001 402.722 247.901 401.01 Q249.8 399.299 249.8 396.365 Q249.8 393.43 247.901 391.719 Q246.001 390.007 242.747 390.007 Q241.224 390.007 239.7 390.346 Q238.196 390.685 236.616 391.399 L236.616 377.293 Z" fill="#000000" fill-rule="evenodd" fill-opacity="1" /><path clip-path="url(#clip620)" d="M18.4042 827.219 L18.4042 787.02 L23.815 787.02 L23.815 803.889 L65.9242 803.889 L65.9242 810.35 L23.815 810.35 L23.815 827.219 L18.4042 827.219 Z" fill="#000000" fill-rule="evenodd" fill-opacity="1" /><path clip-path="url(#clip620)" d="M30.2762 783.073 L30.2762 777.216 L65.9242 777.216 L65.9242 783.073 L30.2762 783.073 M16.399 783.073 L16.399 777.216 L23.815 777.216 L23.815 783.073 L16.399 783.073 Z" fill="#000000" fill-rule="evenodd" fill-opacity="1" /><path clip-path="url(#clip620)" d="M37.1193 737.208 Q33.1726 735.012 31.2947 731.956 Q29.4168 728.901 29.4168 724.763 Q29.4168 719.193 33.3317 716.169 Q37.2148 713.145 44.4081 713.145 L65.9242 713.145 L65.9242 719.034 L44.599 719.034 Q39.4746 719.034 36.992 720.848 Q34.5094 722.662 34.5094 726.386 Q34.5094 730.938 37.5331 733.579 Q40.5568 736.221 45.7767 736.221 L65.9242 736.221 L65.9242 742.109 L44.599 742.109 Q39.4428 742.109 36.992 743.924 Q34.5094 745.738 34.5094 749.526 Q34.5094 754.013 37.5649 756.655 Q40.5886 759.297 45.7767 759.297 L65.9242 759.297 L65.9242 765.185 L30.2762 765.185 L30.2762 759.297 L35.8144 759.297 Q32.536 757.292 30.9764 754.491 Q29.4168 751.69 29.4168 747.839 Q29.4168 743.956 31.3902 741.25 Q33.3636 738.513 37.1193 737.208 Z" fill="#000000" fill-rule="evenodd" fill-opacity="1" /><path clip-path="url(#clip620)" d="M46.6361 670.973 L49.5006 670.973 L49.5006 697.9 Q55.5481 697.518 58.7309 694.271 Q61.8819 690.993 61.8819 685.168 Q61.8819 681.794 61.0544 678.643 Q60.2269 675.461 58.5718 672.341 L64.1099 672.341 Q65.4467 675.492 66.147 678.803 Q66.8472 682.113 66.8472 685.518 Q66.8472 694.048 61.8819 699.045 Q56.9167 704.011 48.4503 704.011 Q39.6974 704.011 34.5731 699.3 Q29.4168 694.558 29.4168 686.537 Q29.4168 679.344 34.0638 675.174 Q38.6789 670.973 46.6361 670.973 M44.9173 676.829 Q40.1112 676.893 37.2466 679.535 Q34.3821 682.145 34.3821 686.473 Q34.3821 691.375 37.1512 694.335 Q39.9202 697.263 44.9492 697.709 L44.9173 676.829 Z" fill="#000000" fill-rule="evenodd" fill-opacity="1" /><path clip-path="url(#clip620)" d="M16.4626 626.572 Q23.7832 630.837 30.9446 632.906 Q38.106 634.975 45.4584 634.975 Q52.8108 634.975 60.0359 632.906 Q67.2291 630.805 74.5179 626.572 L74.5179 631.664 Q67.0382 636.439 59.8131 638.826 Q52.588 641.181 45.4584 641.181 Q38.3606 641.181 31.1674 638.826 Q23.9742 636.471 16.4626 631.664 L16.4626 626.572 Z" fill="#000000" fill-rule="evenodd" fill-opacity="1" /><path clip-path="url(#clip620)" d="M31.3265 592.484 L36.8647 592.484 Q35.5916 594.966 34.955 597.64 Q34.3184 600.313 34.3184 603.178 Q34.3184 607.538 35.6552 609.735 Q36.992 611.899 39.6656 611.899 Q41.7026 611.899 42.8803 610.339 Q44.0261 608.78 45.0765 604.069 L45.5221 602.064 Q46.8589 595.826 49.3097 593.216 Q51.7286 590.574 56.0891 590.574 Q61.0544 590.574 63.9508 594.521 Q66.8472 598.435 66.8472 605.31 Q66.8472 608.175 66.2743 611.294 Q65.7332 614.382 64.6192 617.819 L58.5718 617.819 Q60.2587 614.573 61.118 611.422 Q61.9456 608.27 61.9456 605.183 Q61.9456 601.045 60.5451 598.817 Q59.1129 596.589 56.5347 596.589 Q54.1476 596.589 52.8745 598.213 Q51.6013 599.804 50.4237 605.247 L49.9462 607.284 Q48.8004 612.726 46.4451 615.145 Q44.058 617.564 39.9202 617.564 Q34.8913 617.564 32.1541 614 Q29.4168 610.435 29.4168 603.878 Q29.4168 600.632 29.8943 597.767 Q30.3717 594.902 31.3265 592.484 Z" fill="#000000" fill-rule="evenodd" fill-opacity="1" /><path clip-path="url(#clip620)" d="M16.4626 582.171 L16.4626 577.079 Q23.9742 572.304 31.1674 569.949 Q38.3606 567.562 45.4584 567.562 Q52.588 567.562 59.8131 569.949 Q67.0382 572.304 74.5179 577.079 L74.5179 582.171 Q67.2291 577.938 60.0359 575.869 Q52.8108 573.768 45.4584 573.768 Q38.106 573.768 30.9446 575.869 Q23.7832 577.938 16.4626 582.171 Z" fill="#000000" fill-rule="evenodd" fill-opacity="1" /><polyline clip-path="url(#clip622)" style="stroke:#009af9; stroke-linecap:butt; stroke-linejoin:round; stroke-width:12; stroke-opacity:1; fill:none" points="
  1767.52,1270.15 1690.69,1063.64 1474.22,795.96 1261.8,539.37 
  "/>
<line clip-path="url(#clip622)" x1="1767.52" y1="1270.15" x2="1767.52" y2="1254.15" style="stroke:#009af9; stroke-width:3.072; stroke-opacity:1"/>
<line clip-path="url(#clip622)" x1="1767.52" y1="1270.15" x2="1751.52" y2="1270.15" style="stroke:#009af9; stroke-width:3.072; stroke-opacity:1"/>
<line clip-path="url(#clip622)" x1="1767.52" y1="1270.15" x2="1767.52" y2="1286.15" style="stroke:#009af9; stroke-width:3.072; stroke-opacity:1"/>
<line clip-path="url(#clip622)" x1="1767.52" y1="1270.15" x2="1783.52" y2="1270.15" style="stroke:#009af9; stroke-width:3.072; stroke-opacity:1"/>
<line clip-path="url(#clip622)" x1="1690.69" y1="1063.64" x2="1690.69" y2="1047.64" style="stroke:#009af9; stroke-width:3.072; stroke-opacity:1"/>
<line clip-path="url(#clip622)" x1="1690.69" y1="1063.64" x2="1674.69" y2="1063.64" style="stroke:#009af9; stroke-width:3.072; stroke-opacity:1"/>
<line clip-path="url(#clip622)" x1="1690.69" y1="1063.64" x2="1690.69" y2="1079.64" style="stroke:#009af9; stroke-width:3.072; stroke-opacity:1"/>
<line clip-path="url(#clip622)" x1="1690.69" y1="1063.64" x2="1706.69" y2="1063.64" style="stroke:#009af9; stroke-width:3.072; stroke-opacity:1"/>
<line clip-path="url(#clip622)" x1="1474.22" y1="795.96" x2="1474.22" y2="779.96" style="stroke:#009af9; stroke-width:3.072; stroke-opacity:1"/>
<line clip-path="url(#clip622)" x1="1474.22" y1="795.96" x2="1458.22" y2="795.96" style="stroke:#009af9; stroke-width:3.072; stroke-opacity:1"/>
<line clip-path="url(#clip622)" x1="1474.22" y1="795.96" x2="1474.22" y2="811.96" style="stroke:#009af9; stroke-width:3.072; stroke-opacity:1"/>
<line clip-path="url(#clip622)" x1="1474.22" y1="795.96" x2="1490.22" y2="795.96" style="stroke:#009af9; stroke-width:3.072; stroke-opacity:1"/>
<line clip-path="url(#clip622)" x1="1261.8" y1="539.37" x2="1261.8" y2="523.37" style="stroke:#009af9; stroke-width:3.072; stroke-opacity:1"/>
<line clip-path="url(#clip622)" x1="1261.8" y1="539.37" x2="1245.8" y2="539.37" style="stroke:#009af9; stroke-width:3.072; stroke-opacity:1"/>
<line clip-path="url(#clip622)" x1="1261.8" y1="539.37" x2="1261.8" y2="555.37" style="stroke:#009af9; stroke-width:3.072; stroke-opacity:1"/>
<line clip-path="url(#clip622)" x1="1261.8" y1="539.37" x2="1277.8" y2="539.37" style="stroke:#009af9; stroke-width:3.072; stroke-opacity:1"/>
<polyline clip-path="url(#clip622)" style="stroke:#e26f46; stroke-linecap:butt; stroke-linejoin:round; stroke-width:12; stroke-opacity:1; fill:none" points="
  1897.37,1140.7 1557.24,897.227 1268.67,572.715 1040.37,195.615 
  "/>
<circle clip-path="url(#clip622)" cx="1897.37" cy="1140.7" r="14" fill="#e26f46" fill-rule="evenodd" fill-opacity="1" stroke="#000000" stroke-opacity="1" stroke-width="3.072"/>
<circle clip-path="url(#clip622)" cx="1557.24" cy="897.227" r="14" fill="#e26f46" fill-rule="evenodd" fill-opacity="1" stroke="#000000" stroke-opacity="1" stroke-width="3.072"/>
<circle clip-path="url(#clip622)" cx="1268.67" cy="572.715" r="14" fill="#e26f46" fill-rule="evenodd" fill-opacity="1" stroke="#000000" stroke-opacity="1" stroke-width="3.072"/>
<circle clip-path="url(#clip622)" cx="1040.37" cy="195.615" r="14" fill="#e26f46" fill-rule="evenodd" fill-opacity="1" stroke="#000000" stroke-opacity="1" stroke-width="3.072"/>
<polyline clip-path="url(#clip622)" style="stroke:#3da44d; stroke-linecap:butt; stroke-linejoin:round; stroke-width:12; stroke-opacity:1; fill:none" points="
  2135.92,1310.74 2201.04,788.706 1865.93,784.511 2199.29,694.09 
  "/>
<line clip-path="url(#clip622)" x1="2135.92" y1="1310.74" x2="2135.92" y2="1294.74" style="stroke:#3da44d; stroke-width:3.072; stroke-opacity:1"/>
<line clip-path="url(#clip622)" x1="2135.92" y1="1310.74" x2="2119.92" y2="1310.74" style="stroke:#3da44d; stroke-width:3.072; stroke-opacity:1"/>
<line clip-path="url(#clip622)" x1="2135.92" y1="1310.74" x2="2135.92" y2="1326.74" style="stroke:#3da44d; stroke-width:3.072; stroke-opacity:1"/>
<line clip-path="url(#clip622)" x1="2135.92" y1="1310.74" x2="2151.92" y2="1310.74" style="stroke:#3da44d; stroke-width:3.072; stroke-opacity:1"/>
<line clip-path="url(#clip622)" x1="2201.04" y1="788.706" x2="2201.04" y2="772.706" style="stroke:#3da44d; stroke-width:3.072; stroke-opacity:1"/>
<line clip-path="url(#clip622)" x1="2201.04" y1="788.706" x2="2185.04" y2="788.706" style="stroke:#3da44d; stroke-width:3.072; stroke-opacity:1"/>
<line clip-path="url(#clip622)" x1="2201.04" y1="788.706" x2="2201.04" y2="804.706" style="stroke:#3da44d; stroke-width:3.072; stroke-opacity:1"/>
<line clip-path="url(#clip622)" x1="2201.04" y1="788.706" x2="2217.04" y2="788.706" style="stroke:#3da44d; stroke-width:3.072; stroke-opacity:1"/>
<line clip-path="url(#clip622)" x1="1865.93" y1="784.511" x2="1865.93" y2="768.511" style="stroke:#3da44d; stroke-width:3.072; stroke-opacity:1"/>
<line clip-path="url(#clip622)" x1="1865.93" y1="784.511" x2="1849.93" y2="784.511" style="stroke:#3da44d; stroke-width:3.072; stroke-opacity:1"/>
<line clip-path="url(#clip622)" x1="1865.93" y1="784.511" x2="1865.93" y2="800.511" style="stroke:#3da44d; stroke-width:3.072; stroke-opacity:1"/>
<line clip-path="url(#clip622)" x1="1865.93" y1="784.511" x2="1881.93" y2="784.511" style="stroke:#3da44d; stroke-width:3.072; stroke-opacity:1"/>
<line clip-path="url(#clip622)" x1="2199.29" y1="694.09" x2="2199.29" y2="678.09" style="stroke:#3da44d; stroke-width:3.072; stroke-opacity:1"/>
<line clip-path="url(#clip622)" x1="2199.29" y1="694.09" x2="2183.29" y2="694.09" style="stroke:#3da44d; stroke-width:3.072; stroke-opacity:1"/>
<line clip-path="url(#clip622)" x1="2199.29" y1="694.09" x2="2199.29" y2="710.09" style="stroke:#3da44d; stroke-width:3.072; stroke-opacity:1"/>
<line clip-path="url(#clip622)" x1="2199.29" y1="694.09" x2="2215.29" y2="694.09" style="stroke:#3da44d; stroke-width:3.072; stroke-opacity:1"/>
<polyline clip-path="url(#clip622)" style="stroke:#c271d2; stroke-linecap:butt; stroke-linejoin:round; stroke-width:12; stroke-opacity:1; fill:none" points="
  1889.58,771.455 1438.38,648.407 994.269,469.882 732.389,286.481 
  "/>
<path clip-path="url(#clip622)" d="M1889.58 755.455 L1873.58 771.455 L1889.58 787.455 L1905.58 771.455 L1889.58 755.455 Z" fill="#c271d2" fill-rule="evenodd" fill-opacity="1" stroke="#000000" stroke-opacity="1" stroke-width="3.072"/>
<path clip-path="url(#clip622)" d="M1438.38 632.407 L1422.38 648.407 L1438.38 664.407 L1454.38 648.407 L1438.38 632.407 Z" fill="#c271d2" fill-rule="evenodd" fill-opacity="1" stroke="#000000" stroke-opacity="1" stroke-width="3.072"/>
<path clip-path="url(#clip622)" d="M994.269 453.882 L978.269 469.882 L994.269 485.882 L1010.27 469.882 L994.269 453.882 Z" fill="#c271d2" fill-rule="evenodd" fill-opacity="1" stroke="#000000" stroke-opacity="1" stroke-width="3.072"/>
<path clip-path="url(#clip622)" d="M732.389 270.481 L716.389 286.481 L732.389 302.481 L748.389 286.481 L732.389 270.481 Z" fill="#c271d2" fill-rule="evenodd" fill-opacity="1" stroke="#000000" stroke-opacity="1" stroke-width="3.072"/>
<polyline clip-path="url(#clip622)" style="stroke:#ac8d18; stroke-linecap:butt; stroke-linejoin:round; stroke-width:12; stroke-opacity:1; fill:none" points="
  2200.81,1032.49 1756.58,1010.44 1479.92,903.178 1295.25,728.062 
  "/>
<path clip-path="url(#clip622)" d="M2216.81 1016.49 L2184.81 1016.49 L2200.81 1048.49 L2216.81 1016.49 Z" fill="#ac8d18" fill-rule="evenodd" fill-opacity="1" stroke="#000000" stroke-opacity="1" stroke-width="3.072"/>
<path clip-path="url(#clip622)" d="M1772.58 994.437 L1740.58 994.437 L1756.58 1026.44 L1772.58 994.437 Z" fill="#ac8d18" fill-rule="evenodd" fill-opacity="1" stroke="#000000" stroke-opacity="1" stroke-width="3.072"/>
<path clip-path="url(#clip622)" d="M1495.92 887.178 L1463.92 887.178 L1479.92 919.178 L1495.92 887.178 Z" fill="#ac8d18" fill-rule="evenodd" fill-opacity="1" stroke="#000000" stroke-opacity="1" stroke-width="3.072"/>
<path clip-path="url(#clip622)" d="M1311.25 712.062 L1279.25 712.062 L1295.25 744.062 L1311.25 712.062 Z" fill="#ac8d18" fill-rule="evenodd" fill-opacity="1" stroke="#000000" stroke-opacity="1" stroke-width="3.072"/>
<polyline clip-path="url(#clip622)" style="stroke:#00a9ad; stroke-linecap:butt; stroke-linejoin:round; stroke-width:12; stroke-opacity:1; fill:none" points="
  1366.07,451.688 1244.73,409.36 540.099,352.907 567.804,224.364 
  "/>
<path clip-path="url(#clip622)" d="M1366.07 435.688 L1353.56 441.72 L1350.47 455.256 L1359.13 466.104 L1373.01 466.104 L1381.67 455.256 L1378.58 441.72 Z" fill="#00a9ad" fill-rule="evenodd" fill-opacity="1" stroke="#000000" stroke-opacity="1" stroke-width="3.072"/>
<path clip-path="url(#clip622)" d="M1244.73 393.36 L1232.22 399.392 L1229.13 412.928 L1237.79 423.776 L1251.67 423.776 L1260.33 412.928 L1257.24 399.392 Z" fill="#00a9ad" fill-rule="evenodd" fill-opacity="1" stroke="#000000" stroke-opacity="1" stroke-width="3.072"/>
<path clip-path="url(#clip622)" d="M540.099 336.907 L527.587 342.939 L524.499 356.475 L533.155 367.323 L547.043 367.323 L555.699 356.475 L552.611 342.939 Z" fill="#00a9ad" fill-rule="evenodd" fill-opacity="1" stroke="#000000" stroke-opacity="1" stroke-width="3.072"/>
<path clip-path="url(#clip622)" d="M567.804 208.364 L555.292 214.396 L552.204 227.932 L560.86 238.78 L574.748 238.78 L583.404 227.932 L580.316 214.396 Z" fill="#00a9ad" fill-rule="evenodd" fill-opacity="1" stroke="#000000" stroke-opacity="1" stroke-width="3.072"/>
<polyline clip-path="url(#clip622)" style="stroke:#ed5d92; stroke-linecap:butt; stroke-linejoin:round; stroke-width:12; stroke-opacity:1; fill:none" points="
  1261.91,775.342 1053.1,721.036 714.657,653.578 343.874,531.299 
  "/>
<path clip-path="url(#clip622)" d="M1261.91 791.342 L1248.05 783.342 L1248.05 767.342 L1261.91 759.342 L1275.76 767.342 L1275.76 783.342 Z" fill="#ed5d92" fill-rule="evenodd" fill-opacity="1" stroke="#000000" stroke-opacity="1" stroke-width="3.072"/>
<path clip-path="url(#clip622)" d="M1053.1 737.036 L1039.25 729.036 L1039.25 713.036 L1053.1 705.036 L1066.96 713.036 L1066.96 729.036 Z" fill="#ed5d92" fill-rule="evenodd" fill-opacity="1" stroke="#000000" stroke-opacity="1" stroke-width="3.072"/>
<path clip-path="url(#clip622)" d="M714.657 669.578 L700.801 661.578 L700.801 645.578 L714.657 637.578 L728.513 645.578 L728.513 661.578 Z" fill="#ed5d92" fill-rule="evenodd" fill-opacity="1" stroke="#000000" stroke-opacity="1" stroke-width="3.072"/>
<path clip-path="url(#clip622)" d="M343.874 547.299 L330.018 539.299 L330.018 523.299 L343.874 515.299 L357.73 523.299 L357.73 539.299 Z" fill="#ed5d92" fill-rule="evenodd" fill-opacity="1" stroke="#000000" stroke-opacity="1" stroke-width="3.072"/>
<polyline clip-path="url(#clip622)" style="stroke:#c68125; stroke-linecap:butt; stroke-linejoin:round; stroke-width:12; stroke-opacity:1; fill:none" points="
  1783.87,854.185 1473.79,644.915 1141.41,391.557 808.694,84.0448 
  "/>
<line clip-path="url(#clip622)" x1="1799.87" y1="854.185" x2="1767.87" y2="854.185" style="stroke:#c68125; stroke-width:3.072; stroke-opacity:1"/>
<line clip-path="url(#clip622)" x1="1489.79" y1="644.915" x2="1457.79" y2="644.915" style="stroke:#c68125; stroke-width:3.072; stroke-opacity:1"/>
<line clip-path="url(#clip622)" x1="1157.41" y1="391.557" x2="1125.41" y2="391.557" style="stroke:#c68125; stroke-width:3.072; stroke-opacity:1"/>
<line clip-path="url(#clip622)" x1="824.694" y1="84.0448" x2="792.694" y2="84.0448" style="stroke:#c68125; stroke-width:3.072; stroke-opacity:1"/>
<path clip-path="url(#clip620)" d="
M1645.74 557.147 L2191.14 557.147 L2191.14 90.5872 L1645.74 90.5872  Z
  " fill="#ffffff" fill-rule="evenodd" fill-opacity="1"/>
<polyline clip-path="url(#clip620)" style="stroke:#000000; stroke-linecap:butt; stroke-linejoin:round; stroke-width:4; stroke-opacity:1; fill:none" points="
  1645.74,557.147 2191.14,557.147 2191.14,90.5872 1645.74,90.5872 1645.74,557.147 
  "/>
<polyline clip-path="url(#clip620)" style="stroke:#009af9; stroke-linecap:butt; stroke-linejoin:round; stroke-width:4; stroke-opacity:1; fill:none" points="
  1667.61,142.427 1798.85,142.427 
  "/>
<line clip-path="url(#clip620)" x1="1733.23" y1="142.427" x2="1733.23" y2="116.827" style="stroke:#009af9; stroke-width:4.9152; stroke-opacity:1"/>
<line clip-path="url(#clip620)" x1="1733.23" y1="142.427" x2="1707.63" y2="142.427" style="stroke:#009af9; stroke-width:4.9152; stroke-opacity:1"/>
<line clip-path="url(#clip620)" x1="1733.23" y1="142.427" x2="1733.23" y2="168.027" style="stroke:#009af9; stroke-width:4.9152; stroke-opacity:1"/>
<line clip-path="url(#clip620)" x1="1733.23" y1="142.427" x2="1758.83" y2="142.427" style="stroke:#009af9; stroke-width:4.9152; stroke-opacity:1"/>
<path clip-path="url(#clip620)" d="M1837.11 143.504 Q1838.62 144.013 1840.03 145.679 Q1841.47 147.346 1842.9 150.263 L1847.65 159.707 L1842.62 159.707 L1838.2 150.841 Q1836.49 147.369 1834.87 146.235 Q1833.27 145.101 1830.49 145.101 L1825.4 145.101 L1825.4 159.707 L1820.72 159.707 L1820.72 125.147 L1831.28 125.147 Q1837.21 125.147 1840.12 127.624 Q1843.04 130.101 1843.04 135.101 Q1843.04 138.365 1841.51 140.517 Q1840.01 142.67 1837.11 143.504 M1825.4 128.99 L1825.4 141.258 L1831.28 141.258 Q1834.66 141.258 1836.37 139.707 Q1838.11 138.133 1838.11 135.101 Q1838.11 132.068 1836.37 130.541 Q1834.66 128.99 1831.28 128.99 L1825.4 128.99 Z" fill="#000000" fill-rule="evenodd" fill-opacity="1" /><path clip-path="url(#clip620)" d="M1861.4 136.767 Q1857.97 136.767 1855.98 139.453 Q1853.99 142.115 1853.99 146.767 Q1853.99 151.42 1855.96 154.105 Q1857.95 156.767 1861.4 156.767 Q1864.8 156.767 1866.79 154.082 Q1868.78 151.397 1868.78 146.767 Q1868.78 142.161 1866.79 139.476 Q1864.8 136.767 1861.4 136.767 M1861.4 133.156 Q1866.95 133.156 1870.12 136.767 Q1873.29 140.379 1873.29 146.767 Q1873.29 153.133 1870.12 156.767 Q1866.95 160.378 1861.4 160.378 Q1855.82 160.378 1852.65 156.767 Q1849.5 153.133 1849.5 146.767 Q1849.5 140.379 1852.65 136.767 Q1855.82 133.156 1861.4 133.156 Z" fill="#000000" fill-rule="evenodd" fill-opacity="1" /><path clip-path="url(#clip620)" d="M1896.88 134.545 L1896.88 138.573 Q1895.08 137.647 1893.13 137.184 Q1891.19 136.721 1889.1 136.721 Q1885.93 136.721 1884.34 137.693 Q1882.76 138.666 1882.76 140.61 Q1882.76 142.092 1883.9 142.948 Q1885.03 143.781 1888.46 144.545 L1889.91 144.869 Q1894.45 145.842 1896.35 147.624 Q1898.27 149.383 1898.27 152.554 Q1898.27 156.166 1895.4 158.272 Q1892.55 160.378 1887.55 160.378 Q1885.47 160.378 1883.2 159.962 Q1880.96 159.568 1878.46 158.758 L1878.46 154.36 Q1880.82 155.587 1883.11 156.212 Q1885.4 156.814 1887.65 156.814 Q1890.65 156.814 1892.28 155.795 Q1893.9 154.754 1893.9 152.879 Q1893.9 151.142 1892.71 150.216 Q1891.56 149.291 1887.6 148.434 L1886.12 148.087 Q1882.16 147.254 1880.4 145.541 Q1878.64 143.804 1878.64 140.795 Q1878.64 137.138 1881.23 135.147 Q1883.83 133.156 1888.59 133.156 Q1890.96 133.156 1893.04 133.504 Q1895.12 133.851 1896.88 134.545 Z" fill="#000000" fill-rule="evenodd" fill-opacity="1" /><path clip-path="url(#clip620)" d="M1927.23 145.679 L1927.23 147.763 L1907.65 147.763 Q1907.92 152.161 1910.28 154.476 Q1912.67 156.767 1916.9 156.767 Q1919.36 156.767 1921.65 156.166 Q1923.96 155.564 1926.23 154.36 L1926.23 158.388 Q1923.94 159.36 1921.53 159.869 Q1919.13 160.378 1916.65 160.378 Q1910.45 160.378 1906.81 156.767 Q1903.2 153.156 1903.2 146.999 Q1903.2 140.633 1906.63 136.906 Q1910.08 133.156 1915.91 133.156 Q1921.14 133.156 1924.17 136.536 Q1927.23 139.892 1927.23 145.679 M1922.97 144.429 Q1922.92 140.934 1921 138.851 Q1919.1 136.767 1915.96 136.767 Q1912.39 136.767 1910.24 138.781 Q1908.11 140.795 1907.78 144.453 L1922.97 144.429 Z" fill="#000000" fill-rule="evenodd" fill-opacity="1" /><path clip-path="url(#clip620)" d="M1955.77 144.059 L1955.77 159.707 L1951.51 159.707 L1951.51 144.198 Q1951.51 140.517 1950.08 138.689 Q1948.64 136.86 1945.77 136.86 Q1942.32 136.86 1940.33 139.059 Q1938.34 141.258 1938.34 145.054 L1938.34 159.707 L1934.06 159.707 L1934.06 133.781 L1938.34 133.781 L1938.34 137.809 Q1939.87 135.471 1941.93 134.314 Q1944.01 133.156 1946.72 133.156 Q1951.19 133.156 1953.48 135.934 Q1955.77 138.689 1955.77 144.059 Z" fill="#000000" fill-rule="evenodd" fill-opacity="1" /><path clip-path="url(#clip620)" d="M1982.88 146.767 Q1982.88 142.068 1980.93 139.406 Q1979.01 136.721 1975.63 136.721 Q1972.25 136.721 1970.31 139.406 Q1968.39 142.068 1968.39 146.767 Q1968.39 151.466 1970.31 154.152 Q1972.25 156.814 1975.63 156.814 Q1979.01 156.814 1980.93 154.152 Q1982.88 151.466 1982.88 146.767 M1968.39 137.717 Q1969.73 135.402 1971.77 134.291 Q1973.83 133.156 1976.67 133.156 Q1981.39 133.156 1984.33 136.906 Q1987.3 140.656 1987.3 146.767 Q1987.3 152.879 1984.33 156.628 Q1981.39 160.378 1976.67 160.378 Q1973.83 160.378 1971.77 159.267 Q1969.73 158.133 1968.39 155.818 L1968.39 159.707 L1964.1 159.707 L1964.1 123.689 L1968.39 123.689 L1968.39 137.717 Z" fill="#000000" fill-rule="evenodd" fill-opacity="1" /><path clip-path="url(#clip620)" d="M2009.38 137.763 Q2008.66 137.346 2007.81 137.161 Q2006.97 136.953 2005.96 136.953 Q2002.34 136.953 2000.4 139.314 Q1998.48 141.652 1998.48 146.05 L1998.48 159.707 L1994.2 159.707 L1994.2 133.781 L1998.48 133.781 L1998.48 137.809 Q1999.82 135.448 2001.97 134.314 Q2004.13 133.156 2007.2 133.156 Q2007.64 133.156 2008.18 133.226 Q2008.71 133.272 2009.36 133.388 L2009.38 137.763 Z" fill="#000000" fill-rule="evenodd" fill-opacity="1" /><path clip-path="url(#clip620)" d="M2022.85 136.767 Q2019.43 136.767 2017.44 139.453 Q2015.45 142.115 2015.45 146.767 Q2015.45 151.42 2017.41 154.105 Q2019.4 156.767 2022.85 156.767 Q2026.26 156.767 2028.25 154.082 Q2030.24 151.397 2030.24 146.767 Q2030.24 142.161 2028.25 139.476 Q2026.26 136.767 2022.85 136.767 M2022.85 133.156 Q2028.41 133.156 2031.58 136.767 Q2034.75 140.379 2034.75 146.767 Q2034.75 153.133 2031.58 156.767 Q2028.41 160.378 2022.85 160.378 Q2017.27 160.378 2014.1 156.767 Q2010.95 153.133 2010.95 146.767 Q2010.95 140.379 2014.1 136.767 Q2017.27 133.156 2022.85 133.156 Z" fill="#000000" fill-rule="evenodd" fill-opacity="1" /><path clip-path="url(#clip620)" d="M2060.47 134.777 L2060.47 138.758 Q2058.66 137.763 2056.83 137.277 Q2055.03 136.767 2053.18 136.767 Q2049.03 136.767 2046.74 139.406 Q2044.45 142.022 2044.45 146.767 Q2044.45 151.513 2046.74 154.152 Q2049.03 156.767 2053.18 156.767 Q2055.03 156.767 2056.83 156.281 Q2058.66 155.772 2060.47 154.777 L2060.47 158.712 Q2058.69 159.545 2056.76 159.962 Q2054.87 160.378 2052.71 160.378 Q2046.86 160.378 2043.41 156.698 Q2039.96 153.017 2039.96 146.767 Q2039.96 140.425 2043.43 136.791 Q2046.93 133.156 2052.99 133.156 Q2054.96 133.156 2056.83 133.573 Q2058.71 133.967 2060.47 134.777 Z" fill="#000000" fill-rule="evenodd" fill-opacity="1" /><path clip-path="url(#clip620)" d="M2067.71 123.689 L2072 123.689 L2072 144.962 L2084.7 133.781 L2090.14 133.781 L2076.39 145.911 L2090.72 159.707 L2085.17 159.707 L2072 147.045 L2072 159.707 L2067.71 159.707 L2067.71 123.689 Z" fill="#000000" fill-rule="evenodd" fill-opacity="1" /><path clip-path="url(#clip620)" d="M2099.96 155.772 L2116.28 155.772 L2116.28 159.707 L2094.33 159.707 L2094.33 155.772 Q2097 153.017 2101.58 148.388 Q2106.19 143.735 2107.37 142.392 Q2109.61 139.869 2110.49 138.133 Q2111.39 136.374 2111.39 134.684 Q2111.39 131.93 2109.45 130.193 Q2107.53 128.457 2104.43 128.457 Q2102.23 128.457 2099.77 129.221 Q2097.34 129.985 2094.57 131.536 L2094.57 126.814 Q2097.39 125.68 2099.84 125.101 Q2102.3 124.522 2104.33 124.522 Q2109.7 124.522 2112.9 127.207 Q2116.09 129.893 2116.09 134.383 Q2116.09 136.513 2115.28 138.434 Q2114.5 140.332 2112.39 142.925 Q2111.81 143.596 2108.71 146.814 Q2105.61 150.008 2099.96 155.772 Z" fill="#000000" fill-rule="evenodd" fill-opacity="1" /><path clip-path="url(#clip620)" d="M2140.26 141.073 Q2143.62 141.791 2145.49 144.059 Q2147.39 146.328 2147.39 149.661 Q2147.39 154.777 2143.87 157.578 Q2140.35 160.378 2133.87 160.378 Q2131.7 160.378 2129.38 159.939 Q2127.09 159.522 2124.63 158.666 L2124.63 154.152 Q2126.58 155.286 2128.89 155.865 Q2131.21 156.443 2133.73 156.443 Q2138.13 156.443 2140.42 154.707 Q2142.74 152.971 2142.74 149.661 Q2142.74 146.605 2140.58 144.892 Q2138.45 143.156 2134.63 143.156 L2130.61 143.156 L2130.61 139.314 L2134.82 139.314 Q2138.27 139.314 2140.1 137.948 Q2141.93 136.559 2141.93 133.967 Q2141.93 131.305 2140.03 129.893 Q2138.15 128.457 2134.63 128.457 Q2132.71 128.457 2130.51 128.874 Q2128.32 129.291 2125.68 130.17 L2125.68 126.004 Q2128.34 125.263 2130.65 124.893 Q2132.99 124.522 2135.05 124.522 Q2140.38 124.522 2143.48 126.953 Q2146.58 129.36 2146.58 133.48 Q2146.58 136.351 2144.94 138.342 Q2143.29 140.309 2140.26 141.073 Z" fill="#000000" fill-rule="evenodd" fill-opacity="1" /><polyline clip-path="url(#clip620)" style="stroke:#e26f46; stroke-linecap:butt; stroke-linejoin:round; stroke-width:4; stroke-opacity:1; fill:none" points="
  1667.61,194.267 1798.85,194.267 
  "/>
<circle clip-path="url(#clip620)" cx="1733.23" cy="194.267" r="23" fill="#e26f46" fill-rule="evenodd" fill-opacity="1" stroke="#000000" stroke-opacity="1" stroke-width="4.9152"/>
<path clip-path="url(#clip620)" d="M1837.11 195.344 Q1838.62 195.853 1840.03 197.519 Q1841.47 199.186 1842.9 202.103 L1847.65 211.547 L1842.62 211.547 L1838.2 202.681 Q1836.49 199.209 1834.87 198.075 Q1833.27 196.941 1830.49 196.941 L1825.4 196.941 L1825.4 211.547 L1820.72 211.547 L1820.72 176.987 L1831.28 176.987 Q1837.21 176.987 1840.12 179.464 Q1843.04 181.941 1843.04 186.941 Q1843.04 190.205 1841.51 192.357 Q1840.01 194.51 1837.11 195.344 M1825.4 180.83 L1825.4 193.098 L1831.28 193.098 Q1834.66 193.098 1836.37 191.547 Q1838.11 189.973 1838.11 186.941 Q1838.11 183.908 1836.37 182.381 Q1834.66 180.83 1831.28 180.83 L1825.4 180.83 Z" fill="#000000" fill-rule="evenodd" fill-opacity="1" /><path clip-path="url(#clip620)" d="M1861.4 188.607 Q1857.97 188.607 1855.98 191.293 Q1853.99 193.955 1853.99 198.607 Q1853.99 203.26 1855.96 205.945 Q1857.95 208.607 1861.4 208.607 Q1864.8 208.607 1866.79 205.922 Q1868.78 203.237 1868.78 198.607 Q1868.78 194.001 1866.79 191.316 Q1864.8 188.607 1861.4 188.607 M1861.4 184.996 Q1866.95 184.996 1870.12 188.607 Q1873.29 192.219 1873.29 198.607 Q1873.29 204.973 1870.12 208.607 Q1866.95 212.218 1861.4 212.218 Q1855.82 212.218 1852.65 208.607 Q1849.5 204.973 1849.5 198.607 Q1849.5 192.219 1852.65 188.607 Q1855.82 184.996 1861.4 184.996 Z" fill="#000000" fill-rule="evenodd" fill-opacity="1" /><path clip-path="url(#clip620)" d="M1897.41 189.557 L1897.41 175.529 L1901.67 175.529 L1901.67 211.547 L1897.41 211.547 L1897.41 207.658 Q1896.07 209.973 1894.01 211.107 Q1891.97 212.218 1889.1 212.218 Q1884.4 212.218 1881.44 208.468 Q1878.5 204.719 1878.5 198.607 Q1878.5 192.496 1881.44 188.746 Q1884.4 184.996 1889.1 184.996 Q1891.97 184.996 1894.01 186.131 Q1896.07 187.242 1897.41 189.557 M1882.9 198.607 Q1882.9 203.306 1884.82 205.992 Q1886.77 208.654 1890.15 208.654 Q1893.53 208.654 1895.47 205.992 Q1897.41 203.306 1897.41 198.607 Q1897.41 193.908 1895.47 191.246 Q1893.53 188.561 1890.15 188.561 Q1886.77 188.561 1884.82 191.246 Q1882.9 193.908 1882.9 198.607 Z" fill="#000000" fill-rule="evenodd" fill-opacity="1" /><path clip-path="url(#clip620)" d="M1922.23 198.515 Q1917.07 198.515 1915.08 199.695 Q1913.09 200.876 1913.09 203.723 Q1913.09 205.992 1914.57 207.334 Q1916.07 208.654 1918.64 208.654 Q1922.18 208.654 1924.31 206.154 Q1926.46 203.631 1926.46 199.464 L1926.46 198.515 L1922.23 198.515 M1930.72 196.756 L1930.72 211.547 L1926.46 211.547 L1926.46 207.612 Q1925.01 209.973 1922.83 211.107 Q1920.65 212.218 1917.51 212.218 Q1913.52 212.218 1911.16 209.996 Q1908.83 207.751 1908.83 204.001 Q1908.83 199.626 1911.74 197.404 Q1914.68 195.182 1920.49 195.182 L1926.46 195.182 L1926.46 194.765 Q1926.46 191.825 1924.52 190.228 Q1922.6 188.607 1919.1 188.607 Q1916.88 188.607 1914.77 189.14 Q1912.67 189.672 1910.72 190.737 L1910.72 186.802 Q1913.06 185.899 1915.26 185.459 Q1917.46 184.996 1919.54 184.996 Q1925.17 184.996 1927.95 187.913 Q1930.72 190.83 1930.72 196.756 Z" fill="#000000" fill-rule="evenodd" fill-opacity="1" /><path clip-path="url(#clip620)" d="M1956.02 186.385 L1956.02 190.413 Q1954.22 189.487 1952.27 189.024 Q1950.33 188.561 1948.25 188.561 Q1945.08 188.561 1943.48 189.533 Q1941.9 190.506 1941.9 192.45 Q1941.9 193.932 1943.04 194.788 Q1944.17 195.621 1947.6 196.385 L1949.06 196.709 Q1953.59 197.682 1955.49 199.464 Q1957.41 201.223 1957.41 204.394 Q1957.41 208.006 1954.54 210.112 Q1951.7 212.218 1946.7 212.218 Q1944.61 212.218 1942.34 211.802 Q1940.1 211.408 1937.6 210.598 L1937.6 206.2 Q1939.96 207.427 1942.25 208.052 Q1944.54 208.654 1946.79 208.654 Q1949.8 208.654 1951.42 207.635 Q1953.04 206.594 1953.04 204.719 Q1953.04 202.982 1951.86 202.056 Q1950.7 201.131 1946.74 200.274 L1945.26 199.927 Q1941.3 199.094 1939.54 197.381 Q1937.78 195.644 1937.78 192.635 Q1937.78 188.978 1940.38 186.987 Q1942.97 184.996 1947.74 184.996 Q1950.1 184.996 1952.18 185.344 Q1954.27 185.691 1956.02 186.385 Z" fill="#000000" fill-rule="evenodd" fill-opacity="1" /><path clip-path="url(#clip620)" d="M1978.96 192.913 Q1982.32 193.631 1984.2 195.899 Q1986.09 198.168 1986.09 201.501 Q1986.09 206.617 1982.58 209.418 Q1979.06 212.218 1972.58 212.218 Q1970.4 212.218 1968.08 211.779 Q1965.79 211.362 1963.34 210.506 L1963.34 205.992 Q1965.28 207.126 1967.6 207.705 Q1969.91 208.283 1972.44 208.283 Q1976.83 208.283 1979.13 206.547 Q1981.44 204.811 1981.44 201.501 Q1981.44 198.445 1979.29 196.732 Q1977.16 194.996 1973.34 194.996 L1969.31 194.996 L1969.31 191.154 L1973.52 191.154 Q1976.97 191.154 1978.8 189.788 Q1980.63 188.399 1980.63 185.807 Q1980.63 183.145 1978.73 181.733 Q1976.86 180.297 1973.34 180.297 Q1971.42 180.297 1969.22 180.714 Q1967.02 181.131 1964.38 182.01 L1964.38 177.844 Q1967.04 177.103 1969.36 176.733 Q1971.7 176.362 1973.76 176.362 Q1979.08 176.362 1982.18 178.793 Q1985.28 181.2 1985.28 185.32 Q1985.28 188.191 1983.64 190.182 Q1982 192.149 1978.96 192.913 Z" fill="#000000" fill-rule="evenodd" fill-opacity="1" /><polyline clip-path="url(#clip620)" style="stroke:#3da44d; stroke-linecap:butt; stroke-linejoin:round; stroke-width:4; stroke-opacity:1; fill:none" points="
  1667.61,246.107 1798.85,246.107 
  "/>
<line clip-path="url(#clip620)" x1="1733.23" y1="246.107" x2="1733.23" y2="220.507" style="stroke:#3da44d; stroke-width:4.9152; stroke-opacity:1"/>
<line clip-path="url(#clip620)" x1="1733.23" y1="246.107" x2="1707.63" y2="246.107" style="stroke:#3da44d; stroke-width:4.9152; stroke-opacity:1"/>
<line clip-path="url(#clip620)" x1="1733.23" y1="246.107" x2="1733.23" y2="271.707" style="stroke:#3da44d; stroke-width:4.9152; stroke-opacity:1"/>
<line clip-path="url(#clip620)" x1="1733.23" y1="246.107" x2="1758.83" y2="246.107" style="stroke:#3da44d; stroke-width:4.9152; stroke-opacity:1"/>
<path clip-path="url(#clip620)" d="M1820.72 228.827 L1849.96 228.827 L1849.96 232.762 L1837.69 232.762 L1837.69 263.387 L1832.99 263.387 L1832.99 232.762 L1820.72 232.762 L1820.72 228.827 Z" fill="#000000" fill-rule="evenodd" fill-opacity="1" /><path clip-path="url(#clip620)" d="M1870.86 247.184 Q1872.37 247.693 1873.78 249.359 Q1875.21 251.026 1876.65 253.943 L1881.4 263.387 L1876.37 263.387 L1871.95 254.521 Q1870.24 251.049 1868.62 249.915 Q1867.02 248.781 1864.24 248.781 L1859.15 248.781 L1859.15 263.387 L1854.47 263.387 L1854.47 228.827 L1865.03 228.827 Q1870.96 228.827 1873.87 231.304 Q1876.79 233.781 1876.79 238.781 Q1876.79 242.045 1875.26 244.197 Q1873.76 246.35 1870.86 247.184 M1859.15 232.67 L1859.15 244.938 L1865.03 244.938 Q1868.41 244.938 1870.12 243.387 Q1871.86 241.813 1871.86 238.781 Q1871.86 235.748 1870.12 234.221 Q1868.41 232.67 1865.03 232.67 L1859.15 232.67 Z" fill="#000000" fill-rule="evenodd" fill-opacity="1" /><path clip-path="url(#clip620)" d="M1892.09 246.883 L1892.09 259.545 L1899.59 259.545 Q1903.36 259.545 1905.17 257.994 Q1907 256.42 1907 253.202 Q1907 249.961 1905.17 248.434 Q1903.36 246.883 1899.59 246.883 L1892.09 246.883 M1892.09 232.67 L1892.09 243.086 L1899.01 243.086 Q1902.44 243.086 1904.1 241.813 Q1905.79 240.517 1905.79 237.878 Q1905.79 235.262 1904.1 233.966 Q1902.44 232.67 1899.01 232.67 L1892.09 232.67 M1887.41 228.827 L1899.36 228.827 Q1904.71 228.827 1907.6 231.049 Q1910.49 233.272 1910.49 237.369 Q1910.49 240.54 1909.01 242.415 Q1907.53 244.29 1904.66 244.753 Q1908.11 245.494 1910.01 247.855 Q1911.93 250.193 1911.93 253.711 Q1911.93 258.341 1908.78 260.864 Q1905.63 263.387 1899.82 263.387 L1887.41 263.387 L1887.41 228.827 Z" fill="#000000" fill-rule="evenodd" fill-opacity="1" /><path clip-path="url(#clip620)" d="M1924.61 232.67 L1924.61 259.545 L1930.26 259.545 Q1937.41 259.545 1940.72 256.304 Q1944.06 253.063 1944.06 246.072 Q1944.06 239.128 1940.72 235.91 Q1937.41 232.67 1930.26 232.67 L1924.61 232.67 M1919.94 228.827 L1929.54 228.827 Q1939.59 228.827 1944.29 233.017 Q1948.99 237.184 1948.99 246.072 Q1948.99 255.008 1944.27 259.197 Q1939.54 263.387 1929.54 263.387 L1919.94 263.387 L1919.94 228.827 Z" fill="#000000" fill-rule="evenodd" fill-opacity="1" /><path clip-path="url(#clip620)" d="M1956.44 228.827 L1976.3 228.827 L1976.3 232.762 L1961.12 232.762 L1961.12 242.947 L1974.82 242.947 L1974.82 246.883 L1961.12 246.883 L1961.12 263.387 L1956.44 263.387 L1956.44 228.827 Z" fill="#000000" fill-rule="evenodd" fill-opacity="1" /><path clip-path="url(#clip620)" d="M1988.15 259.452 L2004.47 259.452 L2004.47 263.387 L1982.53 263.387 L1982.53 259.452 Q1985.19 256.697 1989.77 252.068 Q1994.38 247.415 1995.56 246.072 Q1997.81 243.549 1998.69 241.813 Q1999.59 240.054 1999.59 238.364 Q1999.59 235.61 1997.64 233.873 Q1995.72 232.137 1992.62 232.137 Q1990.42 232.137 1987.97 232.901 Q1985.54 233.665 1982.76 235.216 L1982.76 230.494 Q1985.58 229.36 1988.04 228.781 Q1990.49 228.202 1992.53 228.202 Q1997.9 228.202 2001.09 230.887 Q2004.29 233.573 2004.29 238.063 Q2004.29 240.193 2003.48 242.114 Q2002.69 244.012 2000.58 246.605 Q2000.01 247.276 1996.9 250.494 Q1993.8 253.688 1988.15 259.452 Z" fill="#000000" fill-rule="evenodd" fill-opacity="1" /><polyline clip-path="url(#clip620)" style="stroke:#c271d2; stroke-linecap:butt; stroke-linejoin:round; stroke-width:4; stroke-opacity:1; fill:none" points="
  1667.61,297.947 1798.85,297.947 
  "/>
<path clip-path="url(#clip620)" d="M1733.23 272.347 L1707.63 297.947 L1733.23 323.547 L1758.83 297.947 L1733.23 272.347 Z" fill="#c271d2" fill-rule="evenodd" fill-opacity="1" stroke="#000000" stroke-opacity="1" stroke-width="4.9152"/>
<path clip-path="url(#clip620)" d="M1835.91 293.283 Q1835.19 292.866 1834.34 292.681 Q1833.5 292.473 1832.48 292.473 Q1828.87 292.473 1826.93 294.834 Q1825.01 297.172 1825.01 301.57 L1825.01 315.227 L1820.72 315.227 L1820.72 289.301 L1825.01 289.301 L1825.01 293.329 Q1826.35 290.968 1828.5 289.834 Q1830.66 288.676 1833.73 288.676 Q1834.17 288.676 1834.71 288.746 Q1835.24 288.792 1835.89 288.908 L1835.91 293.283 Z" fill="#000000" fill-rule="evenodd" fill-opacity="1" /><path clip-path="url(#clip620)" d="M1849.38 292.287 Q1845.96 292.287 1843.97 294.973 Q1841.97 297.635 1841.97 302.287 Q1841.97 306.94 1843.94 309.625 Q1845.93 312.287 1849.38 312.287 Q1852.78 312.287 1854.78 309.602 Q1856.77 306.917 1856.77 302.287 Q1856.77 297.681 1854.78 294.996 Q1852.78 292.287 1849.38 292.287 M1849.38 288.676 Q1854.94 288.676 1858.11 292.287 Q1861.28 295.899 1861.28 302.287 Q1861.28 308.653 1858.11 312.287 Q1854.94 315.898 1849.38 315.898 Q1843.8 315.898 1840.63 312.287 Q1837.48 308.653 1837.48 302.287 Q1837.48 295.899 1840.63 292.287 Q1843.8 288.676 1849.38 288.676 Z" fill="#000000" fill-rule="evenodd" fill-opacity="1" /><path clip-path="url(#clip620)" d="M1885.4 293.237 L1885.4 279.209 L1889.66 279.209 L1889.66 315.227 L1885.4 315.227 L1885.4 311.338 Q1884.06 313.653 1882 314.787 Q1879.96 315.898 1877.09 315.898 Q1872.39 315.898 1869.43 312.148 Q1866.49 308.399 1866.49 302.287 Q1866.49 296.176 1869.43 292.426 Q1872.39 288.676 1877.09 288.676 Q1879.96 288.676 1882 289.811 Q1884.06 290.922 1885.4 293.237 M1870.89 302.287 Q1870.89 306.986 1872.81 309.672 Q1874.75 312.334 1878.13 312.334 Q1881.51 312.334 1883.46 309.672 Q1885.4 306.986 1885.4 302.287 Q1885.4 297.588 1883.46 294.926 Q1881.51 292.241 1878.13 292.241 Q1874.75 292.241 1872.81 294.926 Q1870.89 297.588 1870.89 302.287 Z" fill="#000000" fill-rule="evenodd" fill-opacity="1" /><path clip-path="url(#clip620)" d="M1910.21 302.195 Q1905.05 302.195 1903.06 303.375 Q1901.07 304.556 1901.07 307.403 Q1901.07 309.672 1902.55 311.014 Q1904.06 312.334 1906.63 312.334 Q1910.17 312.334 1912.3 309.834 Q1914.45 307.311 1914.45 303.144 L1914.45 302.195 L1910.21 302.195 M1918.71 300.436 L1918.71 315.227 L1914.45 315.227 L1914.45 311.292 Q1912.99 313.653 1910.82 314.787 Q1908.64 315.898 1905.49 315.898 Q1901.51 315.898 1899.15 313.676 Q1896.81 311.431 1896.81 307.681 Q1896.81 303.306 1899.73 301.084 Q1902.67 298.862 1908.48 298.862 L1914.45 298.862 L1914.45 298.445 Q1914.45 295.505 1912.51 293.908 Q1910.59 292.287 1907.09 292.287 Q1904.87 292.287 1902.76 292.82 Q1900.65 293.352 1898.71 294.417 L1898.71 290.482 Q1901.05 289.579 1903.25 289.139 Q1905.45 288.676 1907.53 288.676 Q1913.15 288.676 1915.93 291.593 Q1918.71 294.51 1918.71 300.436 Z" fill="#000000" fill-rule="evenodd" fill-opacity="1" /><path clip-path="url(#clip620)" d="M1944.01 290.065 L1944.01 294.093 Q1942.21 293.167 1940.26 292.704 Q1938.32 292.241 1936.23 292.241 Q1933.06 292.241 1931.46 293.213 Q1929.89 294.186 1929.89 296.13 Q1929.89 297.612 1931.02 298.468 Q1932.16 299.301 1935.59 300.065 L1937.04 300.389 Q1941.58 301.362 1943.48 303.144 Q1945.4 304.903 1945.4 308.074 Q1945.4 311.686 1942.53 313.792 Q1939.68 315.898 1934.68 315.898 Q1932.6 315.898 1930.33 315.482 Q1928.09 315.088 1925.59 314.278 L1925.59 309.88 Q1927.95 311.107 1930.24 311.732 Q1932.53 312.334 1934.77 312.334 Q1937.78 312.334 1939.4 311.315 Q1941.02 310.274 1941.02 308.399 Q1941.02 306.662 1939.84 305.736 Q1938.69 304.811 1934.73 303.954 L1933.25 303.607 Q1929.29 302.774 1927.53 301.061 Q1925.77 299.324 1925.77 296.315 Q1925.77 292.658 1928.36 290.667 Q1930.96 288.676 1935.72 288.676 Q1938.08 288.676 1940.17 289.024 Q1942.25 289.371 1944.01 290.065 Z" fill="#000000" fill-rule="evenodd" fill-opacity="1" /><polyline clip-path="url(#clip620)" style="stroke:#ac8d18; stroke-linecap:butt; stroke-linejoin:round; stroke-width:4; stroke-opacity:1; fill:none" points="
  1667.61,349.787 1798.85,349.787 
  "/>
<path clip-path="url(#clip620)" d="M1758.83 324.187 L1707.63 324.187 L1733.23 375.387 L1758.83 324.187 Z" fill="#ac8d18" fill-rule="evenodd" fill-opacity="1" stroke="#000000" stroke-opacity="1" stroke-width="4.9152"/>
<path clip-path="url(#clip620)" d="M1820.72 331.049 L1824.98 331.049 L1824.98 367.067 L1820.72 367.067 L1820.72 331.049 Z" fill="#000000" fill-rule="evenodd" fill-opacity="1" /><path clip-path="url(#clip620)" d="M1850.42 341.905 L1850.42 345.933 Q1848.62 345.007 1846.67 344.544 Q1844.73 344.081 1842.65 344.081 Q1839.47 344.081 1837.88 345.053 Q1836.3 346.026 1836.3 347.97 Q1836.3 349.452 1837.44 350.308 Q1838.57 351.141 1842 351.905 L1843.46 352.229 Q1847.99 353.202 1849.89 354.984 Q1851.81 356.743 1851.81 359.914 Q1851.81 363.526 1848.94 365.632 Q1846.09 367.738 1841.09 367.738 Q1839.01 367.738 1836.74 367.322 Q1834.5 366.928 1832 366.118 L1832 361.72 Q1834.36 362.947 1836.65 363.572 Q1838.94 364.174 1841.19 364.174 Q1844.2 364.174 1845.82 363.155 Q1847.44 362.114 1847.44 360.239 Q1847.44 358.502 1846.26 357.576 Q1845.1 356.651 1841.14 355.794 L1839.66 355.447 Q1835.7 354.614 1833.94 352.901 Q1832.18 351.164 1832.18 348.155 Q1832.18 344.498 1834.78 342.507 Q1837.37 340.516 1842.14 340.516 Q1844.5 340.516 1846.58 340.864 Q1848.66 341.211 1850.42 341.905 Z" fill="#000000" fill-rule="evenodd" fill-opacity="1" /><path clip-path="url(#clip620)" d="M1868.64 344.127 Q1865.22 344.127 1863.22 346.813 Q1861.23 349.475 1861.23 354.127 Q1861.23 358.78 1863.2 361.465 Q1865.19 364.127 1868.64 364.127 Q1872.04 364.127 1874.03 361.442 Q1876.03 358.757 1876.03 354.127 Q1876.03 349.521 1874.03 346.836 Q1872.04 344.127 1868.64 344.127 M1868.64 340.516 Q1874.2 340.516 1877.37 344.127 Q1880.54 347.739 1880.54 354.127 Q1880.54 360.493 1877.37 364.127 Q1874.2 367.738 1868.64 367.738 Q1863.06 367.738 1859.89 364.127 Q1856.74 360.493 1856.74 354.127 Q1856.74 347.739 1859.89 344.127 Q1863.06 340.516 1868.64 340.516 Z" fill="#000000" fill-rule="evenodd" fill-opacity="1" /><path clip-path="url(#clip620)" d="M1904.66 345.077 L1904.66 331.049 L1908.92 331.049 L1908.92 367.067 L1904.66 367.067 L1904.66 363.178 Q1903.32 365.493 1901.26 366.627 Q1899.22 367.738 1896.35 367.738 Q1891.65 367.738 1888.69 363.988 Q1885.75 360.239 1885.75 354.127 Q1885.75 348.016 1888.69 344.266 Q1891.65 340.516 1896.35 340.516 Q1899.22 340.516 1901.26 341.651 Q1903.32 342.762 1904.66 345.077 M1890.15 354.127 Q1890.15 358.826 1892.07 361.512 Q1894.01 364.174 1897.39 364.174 Q1900.77 364.174 1902.71 361.512 Q1904.66 358.826 1904.66 354.127 Q1904.66 349.428 1902.71 346.766 Q1900.77 344.081 1897.39 344.081 Q1894.01 344.081 1892.07 346.766 Q1890.15 349.428 1890.15 354.127 Z" fill="#000000" fill-rule="evenodd" fill-opacity="1" /><path clip-path="url(#clip620)" d="M1929.47 354.035 Q1924.31 354.035 1922.32 355.215 Q1920.33 356.396 1920.33 359.243 Q1920.33 361.512 1921.81 362.854 Q1923.32 364.174 1925.89 364.174 Q1929.43 364.174 1931.56 361.674 Q1933.71 359.151 1933.71 354.984 L1933.71 354.035 L1929.47 354.035 M1937.97 352.276 L1937.97 367.067 L1933.71 367.067 L1933.71 363.132 Q1932.25 365.493 1930.08 366.627 Q1927.9 367.738 1924.75 367.738 Q1920.77 367.738 1918.41 365.516 Q1916.07 363.271 1916.07 359.521 Q1916.07 355.146 1918.99 352.924 Q1921.93 350.702 1927.74 350.702 L1933.71 350.702 L1933.71 350.285 Q1933.71 347.345 1931.77 345.748 Q1929.84 344.127 1926.35 344.127 Q1924.13 344.127 1922.02 344.66 Q1919.91 345.192 1917.97 346.257 L1917.97 342.322 Q1920.31 341.419 1922.51 340.979 Q1924.71 340.516 1926.79 340.516 Q1932.41 340.516 1935.19 343.433 Q1937.97 346.35 1937.97 352.276 Z" fill="#000000" fill-rule="evenodd" fill-opacity="1" /><polyline clip-path="url(#clip620)" style="stroke:#00a9ad; stroke-linecap:butt; stroke-linejoin:round; stroke-width:4; stroke-opacity:1; fill:none" points="
  1667.61,401.627 1798.85,401.627 
  "/>
<path clip-path="url(#clip620)" d="M1733.23 376.027 L1713.21 385.678 L1708.27 407.336 L1722.12 424.693 L1744.34 424.693 L1758.19 407.336 L1753.25 385.678 Z" fill="#00a9ad" fill-rule="evenodd" fill-opacity="1" stroke="#000000" stroke-opacity="1" stroke-width="4.9152"/>
<path clip-path="url(#clip620)" d="M1835.91 396.963 Q1835.19 396.546 1834.34 396.361 Q1833.5 396.153 1832.48 396.153 Q1828.87 396.153 1826.93 398.514 Q1825.01 400.852 1825.01 405.25 L1825.01 418.907 L1820.72 418.907 L1820.72 392.981 L1825.01 392.981 L1825.01 397.009 Q1826.35 394.648 1828.5 393.514 Q1830.66 392.356 1833.73 392.356 Q1834.17 392.356 1834.71 392.426 Q1835.24 392.472 1835.89 392.588 L1835.91 396.963 Z" fill="#000000" fill-rule="evenodd" fill-opacity="1" /><path clip-path="url(#clip620)" d="M1852.16 405.875 Q1847 405.875 1845.01 407.055 Q1843.02 408.236 1843.02 411.083 Q1843.02 413.352 1844.5 414.694 Q1846 416.014 1848.57 416.014 Q1852.11 416.014 1854.24 413.514 Q1856.4 410.991 1856.4 406.824 L1856.4 405.875 L1852.16 405.875 M1860.65 404.116 L1860.65 418.907 L1856.4 418.907 L1856.4 414.972 Q1854.94 417.333 1852.76 418.467 Q1850.59 419.578 1847.44 419.578 Q1843.46 419.578 1841.09 417.356 Q1838.76 415.111 1838.76 411.361 Q1838.76 406.986 1841.67 404.764 Q1844.61 402.542 1850.42 402.542 L1856.4 402.542 L1856.4 402.125 Q1856.4 399.185 1854.45 397.588 Q1852.53 395.967 1849.03 395.967 Q1846.81 395.967 1844.71 396.5 Q1842.6 397.032 1840.65 398.097 L1840.65 394.162 Q1842.99 393.259 1845.19 392.819 Q1847.39 392.356 1849.47 392.356 Q1855.1 392.356 1857.88 395.273 Q1860.65 398.19 1860.65 404.116 Z" fill="#000000" fill-rule="evenodd" fill-opacity="1" /><path clip-path="url(#clip620)" d="M1886.49 396.917 L1886.49 382.889 L1890.75 382.889 L1890.75 418.907 L1886.49 418.907 L1886.49 415.018 Q1885.15 417.333 1883.09 418.467 Q1881.05 419.578 1878.18 419.578 Q1873.48 419.578 1870.52 415.828 Q1867.58 412.079 1867.58 405.967 Q1867.58 399.856 1870.52 396.106 Q1873.48 392.356 1878.18 392.356 Q1881.05 392.356 1883.09 393.491 Q1885.15 394.602 1886.49 396.917 M1871.97 405.967 Q1871.97 410.666 1873.9 413.352 Q1875.84 416.014 1879.22 416.014 Q1882.6 416.014 1884.54 413.352 Q1886.49 410.666 1886.49 405.967 Q1886.49 401.268 1884.54 398.606 Q1882.6 395.921 1879.22 395.921 Q1875.84 395.921 1873.9 398.606 Q1871.97 401.268 1871.97 405.967 Z" fill="#000000" fill-rule="evenodd" fill-opacity="1" /><path clip-path="url(#clip620)" d="M1911.3 405.875 Q1906.14 405.875 1904.15 407.055 Q1902.16 408.236 1902.16 411.083 Q1902.16 413.352 1903.64 414.694 Q1905.15 416.014 1907.71 416.014 Q1911.26 416.014 1913.39 413.514 Q1915.54 410.991 1915.54 406.824 L1915.54 405.875 L1911.3 405.875 M1919.8 404.116 L1919.8 418.907 L1915.54 418.907 L1915.54 414.972 Q1914.08 417.333 1911.9 418.467 Q1909.73 419.578 1906.58 419.578 Q1902.6 419.578 1900.24 417.356 Q1897.9 415.111 1897.9 411.361 Q1897.9 406.986 1900.82 404.764 Q1903.76 402.542 1909.57 402.542 L1915.54 402.542 L1915.54 402.125 Q1915.54 399.185 1913.59 397.588 Q1911.67 395.967 1908.18 395.967 Q1905.96 395.967 1903.85 396.5 Q1901.74 397.032 1899.8 398.097 L1899.8 394.162 Q1902.14 393.259 1904.34 392.819 Q1906.53 392.356 1908.62 392.356 Q1914.24 392.356 1917.02 395.273 Q1919.8 398.19 1919.8 404.116 Z" fill="#000000" fill-rule="evenodd" fill-opacity="1" /><path clip-path="url(#clip620)" d="M1928.13 408.676 L1928.13 392.981 L1932.39 392.981 L1932.39 408.514 Q1932.39 412.194 1933.83 414.046 Q1935.26 415.875 1938.13 415.875 Q1941.58 415.875 1943.57 413.676 Q1945.58 411.477 1945.58 407.68 L1945.58 392.981 L1949.84 392.981 L1949.84 418.907 L1945.58 418.907 L1945.58 414.926 Q1944.03 417.287 1941.97 418.444 Q1939.94 419.578 1937.23 419.578 Q1932.76 419.578 1930.45 416.801 Q1928.13 414.023 1928.13 408.676 M1938.85 392.356 L1938.85 392.356 Z" fill="#000000" fill-rule="evenodd" fill-opacity="1" /><polyline clip-path="url(#clip620)" style="stroke:#ed5d92; stroke-linecap:butt; stroke-linejoin:round; stroke-width:4; stroke-opacity:1; fill:none" points="
  1667.61,453.467 1798.85,453.467 
  "/>
<path clip-path="url(#clip620)" d="M1733.23 479.067 L1711.06 466.267 L1711.06 440.667 L1733.23 427.867 L1755.4 440.667 L1755.4 466.267 Z" fill="#ed5d92" fill-rule="evenodd" fill-opacity="1" stroke="#000000" stroke-opacity="1" stroke-width="4.9152"/>
<path clip-path="url(#clip620)" d="M1837.11 454.544 Q1838.62 455.053 1840.03 456.719 Q1841.47 458.386 1842.9 461.303 L1847.65 470.747 L1842.62 470.747 L1838.2 461.881 Q1836.49 458.409 1834.87 457.275 Q1833.27 456.141 1830.49 456.141 L1825.4 456.141 L1825.4 470.747 L1820.72 470.747 L1820.72 436.187 L1831.28 436.187 Q1837.21 436.187 1840.12 438.664 Q1843.04 441.141 1843.04 446.141 Q1843.04 449.405 1841.51 451.557 Q1840.01 453.71 1837.11 454.544 M1825.4 440.03 L1825.4 452.298 L1831.28 452.298 Q1834.66 452.298 1836.37 450.747 Q1838.11 449.173 1838.11 446.141 Q1838.11 443.108 1836.37 441.581 Q1834.66 440.03 1831.28 440.03 L1825.4 440.03 Z" fill="#000000" fill-rule="evenodd" fill-opacity="1" /><path clip-path="url(#clip620)" d="M1864.22 457.715 Q1859.06 457.715 1857.07 458.895 Q1855.08 460.076 1855.08 462.923 Q1855.08 465.192 1856.56 466.534 Q1858.06 467.854 1860.63 467.854 Q1864.17 467.854 1866.3 465.354 Q1868.46 462.831 1868.46 458.664 L1868.46 457.715 L1864.22 457.715 M1872.71 455.956 L1872.71 470.747 L1868.46 470.747 L1868.46 466.812 Q1867 469.173 1864.82 470.307 Q1862.65 471.418 1859.5 471.418 Q1855.52 471.418 1853.15 469.196 Q1850.82 466.951 1850.82 463.201 Q1850.82 458.826 1853.73 456.604 Q1856.67 454.382 1862.48 454.382 L1868.46 454.382 L1868.46 453.965 Q1868.46 451.025 1866.51 449.428 Q1864.59 447.807 1861.09 447.807 Q1858.87 447.807 1856.77 448.34 Q1854.66 448.872 1852.72 449.937 L1852.72 446.002 Q1855.05 445.099 1857.25 444.659 Q1859.45 444.196 1861.53 444.196 Q1867.16 444.196 1869.94 447.113 Q1872.71 450.03 1872.71 455.956 Z" fill="#000000" fill-rule="evenodd" fill-opacity="1" /><path clip-path="url(#clip620)" d="M1898.55 448.757 L1898.55 434.729 L1902.81 434.729 L1902.81 470.747 L1898.55 470.747 L1898.55 466.858 Q1897.21 469.173 1895.15 470.307 Q1893.11 471.418 1890.24 471.418 Q1885.54 471.418 1882.58 467.668 Q1879.64 463.919 1879.64 457.807 Q1879.64 451.696 1882.58 447.946 Q1885.54 444.196 1890.24 444.196 Q1893.11 444.196 1895.15 445.331 Q1897.21 446.442 1898.55 448.757 M1884.03 457.807 Q1884.03 462.506 1885.96 465.192 Q1887.9 467.854 1891.28 467.854 Q1894.66 467.854 1896.6 465.192 Q1898.55 462.506 1898.55 457.807 Q1898.55 453.108 1896.6 450.446 Q1894.66 447.761 1891.28 447.761 Q1887.9 447.761 1885.96 450.446 Q1884.03 453.108 1884.03 457.807 Z" fill="#000000" fill-rule="evenodd" fill-opacity="1" /><path clip-path="url(#clip620)" d="M1923.36 457.715 Q1918.2 457.715 1916.21 458.895 Q1914.22 460.076 1914.22 462.923 Q1914.22 465.192 1915.7 466.534 Q1917.21 467.854 1919.77 467.854 Q1923.32 467.854 1925.45 465.354 Q1927.6 462.831 1927.6 458.664 L1927.6 457.715 L1923.36 457.715 M1931.86 455.956 L1931.86 470.747 L1927.6 470.747 L1927.6 466.812 Q1926.14 469.173 1923.96 470.307 Q1921.79 471.418 1918.64 471.418 Q1914.66 471.418 1912.3 469.196 Q1909.96 466.951 1909.96 463.201 Q1909.96 458.826 1912.88 456.604 Q1915.82 454.382 1921.63 454.382 L1927.6 454.382 L1927.6 453.965 Q1927.6 451.025 1925.65 449.428 Q1923.73 447.807 1920.24 447.807 Q1918.02 447.807 1915.91 448.34 Q1913.8 448.872 1911.86 449.937 L1911.86 446.002 Q1914.2 445.099 1916.4 444.659 Q1918.59 444.196 1920.68 444.196 Q1926.3 444.196 1929.08 447.113 Q1931.86 450.03 1931.86 455.956 Z" fill="#000000" fill-rule="evenodd" fill-opacity="1" /><path clip-path="url(#clip620)" d="M1940.19 460.516 L1940.19 444.821 L1944.45 444.821 L1944.45 460.354 Q1944.45 464.034 1945.89 465.886 Q1947.32 467.715 1950.19 467.715 Q1953.64 467.715 1955.63 465.516 Q1957.65 463.317 1957.65 459.52 L1957.65 444.821 L1961.9 444.821 L1961.9 470.747 L1957.65 470.747 L1957.65 466.766 Q1956.09 469.127 1954.03 470.284 Q1952 471.418 1949.29 471.418 Q1944.82 471.418 1942.51 468.641 Q1940.19 465.863 1940.19 460.516 M1950.91 444.196 L1950.91 444.196 Z" fill="#000000" fill-rule="evenodd" fill-opacity="1" /><path clip-path="url(#clip620)" d="M1970.86 436.187 L1975.54 436.187 L1975.54 470.747 L1970.86 470.747 L1970.86 436.187 Z" fill="#000000" fill-rule="evenodd" fill-opacity="1" /><path clip-path="url(#clip620)" d="M1984.84 436.187 L1989.52 436.187 L1989.52 470.747 L1984.84 470.747 L1984.84 436.187 Z" fill="#000000" fill-rule="evenodd" fill-opacity="1" /><path clip-path="url(#clip620)" d="M2010.38 440.794 L2004.03 457.993 L2016.74 457.993 L2010.38 440.794 M2007.74 436.187 L2013.04 436.187 L2026.21 470.747 L2021.35 470.747 L2018.2 461.881 L2002.62 461.881 L1999.47 470.747 L1994.54 470.747 L2007.74 436.187 Z" fill="#000000" fill-rule="evenodd" fill-opacity="1" /><path clip-path="url(#clip620)" d="M2031.72 436.187 L2050.08 436.187 L2050.08 440.122 L2036 440.122 L2036 448.595 Q2037.02 448.247 2038.04 448.085 Q2039.06 447.9 2040.08 447.9 Q2045.86 447.9 2049.24 451.071 Q2052.62 454.243 2052.62 459.659 Q2052.62 465.238 2049.15 468.34 Q2045.68 471.418 2039.36 471.418 Q2037.18 471.418 2034.91 471.048 Q2032.67 470.678 2030.26 469.937 L2030.26 465.238 Q2032.34 466.372 2034.57 466.928 Q2036.79 467.483 2039.27 467.483 Q2043.27 467.483 2045.61 465.377 Q2047.95 463.27 2047.95 459.659 Q2047.95 456.048 2045.61 453.942 Q2043.27 451.835 2039.27 451.835 Q2037.39 451.835 2035.52 452.252 Q2033.66 452.669 2031.72 453.548 L2031.72 436.187 Z" fill="#000000" fill-rule="evenodd" fill-opacity="1" /><polyline clip-path="url(#clip620)" style="stroke:#c68125; stroke-linecap:butt; stroke-linejoin:round; stroke-width:4; stroke-opacity:1; fill:none" points="
  1667.61,505.307 1798.85,505.307 
  "/>
<line clip-path="url(#clip620)" x1="1758.83" y1="505.307" x2="1707.63" y2="505.307" style="stroke:#c68125; stroke-width:4.9152; stroke-opacity:1"/>
<path clip-path="url(#clip620)" d="M1837.11 506.384 Q1838.62 506.893 1840.03 508.559 Q1841.47 510.226 1842.9 513.143 L1847.65 522.587 L1842.62 522.587 L1838.2 513.721 Q1836.49 510.249 1834.87 509.115 Q1833.27 507.981 1830.49 507.981 L1825.4 507.981 L1825.4 522.587 L1820.72 522.587 L1820.72 488.027 L1831.28 488.027 Q1837.21 488.027 1840.12 490.504 Q1843.04 492.981 1843.04 497.981 Q1843.04 501.245 1841.51 503.397 Q1840.01 505.55 1837.11 506.384 M1825.4 491.87 L1825.4 504.138 L1831.28 504.138 Q1834.66 504.138 1836.37 502.587 Q1838.11 501.013 1838.11 497.981 Q1838.11 494.948 1836.37 493.421 Q1834.66 491.87 1831.28 491.87 L1825.4 491.87 Z" fill="#000000" fill-rule="evenodd" fill-opacity="1" /><path clip-path="url(#clip620)" d="M1867.69 491.198 Q1862.6 491.198 1859.59 494.995 Q1856.6 498.791 1856.6 505.342 Q1856.6 511.87 1859.59 515.666 Q1862.6 519.462 1867.69 519.462 Q1872.78 519.462 1875.75 515.666 Q1878.73 511.87 1878.73 505.342 Q1878.73 498.791 1875.75 494.995 Q1872.78 491.198 1867.69 491.198 M1867.69 487.402 Q1874.96 487.402 1879.31 492.286 Q1883.66 497.148 1883.66 505.342 Q1883.66 513.513 1879.31 518.397 Q1874.96 523.258 1867.69 523.258 Q1860.4 523.258 1856.03 518.397 Q1851.67 513.536 1851.67 505.342 Q1851.67 497.148 1856.03 492.286 Q1860.4 487.402 1867.69 487.402 Z" fill="#000000" fill-rule="evenodd" fill-opacity="1" /><path clip-path="url(#clip620)" d="M1911.7 489.161 L1911.7 493.722 Q1909.03 492.448 1906.67 491.823 Q1904.31 491.198 1902.11 491.198 Q1898.29 491.198 1896.21 492.68 Q1894.15 494.161 1894.15 496.893 Q1894.15 499.185 1895.52 500.365 Q1896.9 501.522 1900.75 502.24 L1903.57 502.819 Q1908.8 503.814 1911.28 506.337 Q1913.78 508.837 1913.78 513.05 Q1913.78 518.073 1910.4 520.666 Q1907.04 523.258 1900.54 523.258 Q1898.09 523.258 1895.31 522.703 Q1892.55 522.147 1889.59 521.059 L1889.59 516.245 Q1892.44 517.842 1895.17 518.652 Q1897.9 519.462 1900.54 519.462 Q1904.54 519.462 1906.72 517.888 Q1908.9 516.314 1908.9 513.397 Q1908.9 510.851 1907.32 509.416 Q1905.77 507.981 1902.21 507.263 L1899.36 506.708 Q1894.13 505.666 1891.79 503.444 Q1889.45 501.222 1889.45 497.263 Q1889.45 492.68 1892.67 490.041 Q1895.91 487.402 1901.58 487.402 Q1904.01 487.402 1906.53 487.842 Q1909.06 488.282 1911.7 489.161 Z" fill="#000000" fill-rule="evenodd" fill-opacity="1" /><path clip-path="url(#clip620)" d="M1935.65 503.953 Q1939.01 504.671 1940.89 506.939 Q1942.78 509.208 1942.78 512.541 Q1942.78 517.657 1939.27 520.458 Q1935.75 523.258 1929.27 523.258 Q1927.09 523.258 1924.77 522.819 Q1922.48 522.402 1920.03 521.546 L1920.03 517.032 Q1921.97 518.166 1924.29 518.745 Q1926.6 519.323 1929.13 519.323 Q1933.52 519.323 1935.82 517.587 Q1938.13 515.851 1938.13 512.541 Q1938.13 509.485 1935.98 507.772 Q1933.85 506.036 1930.03 506.036 L1926 506.036 L1926 502.194 L1930.21 502.194 Q1933.66 502.194 1935.49 500.828 Q1937.32 499.439 1937.32 496.847 Q1937.32 494.185 1935.42 492.773 Q1933.55 491.337 1930.03 491.337 Q1928.11 491.337 1925.91 491.754 Q1923.71 492.171 1921.07 493.05 L1921.07 488.884 Q1923.73 488.143 1926.05 487.773 Q1928.39 487.402 1930.45 487.402 Q1935.77 487.402 1938.87 489.833 Q1941.97 492.24 1941.97 496.36 Q1941.97 499.231 1940.33 501.222 Q1938.69 503.189 1935.65 503.953 Z" fill="#000000" fill-rule="evenodd" fill-opacity="1" /><path clip-path="url(#clip620)" d="M1964.5 492.101 L1952.69 510.55 L1964.5 510.55 L1964.5 492.101 M1963.27 488.027 L1969.15 488.027 L1969.15 510.55 L1974.08 510.55 L1974.08 514.439 L1969.15 514.439 L1969.15 522.587 L1964.5 522.587 L1964.5 514.439 L1948.9 514.439 L1948.9 509.925 L1963.27 488.027 Z" fill="#000000" fill-rule="evenodd" fill-opacity="1" /><path clip-path="url(#clip620)" d="M1986.07 491.87 L1986.07 504.856 L1991.95 504.856 Q1995.21 504.856 1997 503.166 Q1998.78 501.476 1998.78 498.351 Q1998.78 495.249 1997 493.56 Q1995.21 491.87 1991.95 491.87 L1986.07 491.87 M1981.39 488.027 L1991.95 488.027 Q1997.76 488.027 2000.72 490.666 Q2003.71 493.282 2003.71 498.351 Q2003.71 503.467 2000.72 506.083 Q1997.76 508.698 1991.95 508.698 L1986.07 508.698 L1986.07 522.587 L1981.39 522.587 L1981.39 488.027 Z" fill="#000000" fill-rule="evenodd" fill-opacity="1" /><path clip-path="url(#clip620)" d="M2006.9 488.027 L2011.63 488.027 L2018.89 517.24 L2026.14 488.027 L2031.39 488.027 L2038.66 517.24 L2045.91 488.027 L2050.65 488.027 L2041.97 522.587 L2036.09 522.587 L2028.8 492.587 L2021.44 522.587 L2015.56 522.587 L2006.9 488.027 Z" fill="#000000" fill-rule="evenodd" fill-opacity="1" /><path clip-path="url(#clip620)" d="M2058.08 518.652 L2065.72 518.652 L2065.72 492.286 L2057.41 493.953 L2057.41 489.694 L2065.68 488.027 L2070.35 488.027 L2070.35 518.652 L2077.99 518.652 L2077.99 522.587 L2058.08 522.587 L2058.08 518.652 Z" fill="#000000" fill-rule="evenodd" fill-opacity="1" /><path clip-path="url(#clip620)" d="M2098.62 509.555 Q2093.45 509.555 2091.46 510.735 Q2089.47 511.916 2089.47 514.763 Q2089.47 517.032 2090.95 518.374 Q2092.46 519.694 2095.03 519.694 Q2098.57 519.694 2100.7 517.194 Q2102.85 514.671 2102.85 510.504 L2102.85 509.555 L2098.62 509.555 M2107.11 507.796 L2107.11 522.587 L2102.85 522.587 L2102.85 518.652 Q2101.39 521.013 2099.22 522.147 Q2097.04 523.258 2093.89 523.258 Q2089.91 523.258 2087.55 521.036 Q2085.21 518.791 2085.21 515.041 Q2085.21 510.666 2088.13 508.444 Q2091.07 506.222 2096.88 506.222 L2102.85 506.222 L2102.85 505.805 Q2102.85 502.865 2100.91 501.268 Q2098.99 499.647 2095.49 499.647 Q2093.27 499.647 2091.16 500.18 Q2089.06 500.712 2087.11 501.777 L2087.11 497.842 Q2089.45 496.939 2091.65 496.499 Q2093.85 496.036 2095.93 496.036 Q2101.56 496.036 2104.33 498.953 Q2107.11 501.87 2107.11 507.796 Z" fill="#000000" fill-rule="evenodd" fill-opacity="1" /></svg>
