<?xml version="1.0" encoding="utf-8"?>
<svg xmlns="http://www.w3.org/2000/svg" xmlns:xlink="http://www.w3.org/1999/xlink" width="576" height="384" viewBox="0 0 2304 1536">
<defs>
  <clipPath id="clip020">
    <rect x="0" y="0" width="2304" height="1536"/>
  </clipPath>
</defs>
<path clip-path="url(#clip020)" d="
M0 1536 L2304 1536 L2304 0 L0 0  Z
  " fill="#ffffff" fill-rule="evenodd" fill-opacity="1"/>
<defs>
  <clipPath id="clip021">
    <rect x="460" y="0" width="1614" height="1536"/>
  </clipPath>
</defs>
<path clip-path="url(#clip020)" d="
M250.412 1347.54 L2256.76 1347.54 L2256.76 47.2441 L250.412 47.2441  Z
  " fill="#ffffff" fill-rule="evenodd" fill-opacity="1"/>
<defs>
  <clipPath id="clip022">
    <rect x="250" y="47" width="2007" height="1301"/>
  </clipPath>
</defs>
<polyline clip-path="url(#clip022)" style="stroke:#000000; stroke-linecap:butt; stroke-linejoin:round; stroke-width:2; stroke-opacity:0.1; fill:none" points="
  450.534,1347.54 450.534,47.2441 
  "/>
<polyline clip-path="url(#clip022)" style="stroke:#000000; stroke-linecap:butt; stroke-linejoin:round; stroke-width:2; stroke-opacity:0.1; fill:none" points="
  1017.48,1347.54 1017.48,47.2441 
  "/>
<polyline clip-path="url(#clip022)" style="stroke:#000000; stroke-linecap:butt; stroke-linejoin:round; stroke-width:2; stroke-opacity:0.1; fill:none" points="
  1584.43,1347.54 1584.43,47.2441 
  "/>
<polyline clip-path="url(#clip022)" style="stroke:#000000; stroke-linecap:butt; stroke-linejoin:round; stroke-width:2; stroke-opacity:0.1; fill:none" points="
  2151.38,1347.54 2151.38,47.2441 
  "/>
<polyline clip-path="url(#clip020)" style="stroke:#000000; stroke-linecap:butt; stroke-linejoin:round; stroke-width:4; stroke-opacity:1; fill:none" points="
  250.412,1347.54 2256.76,1347.54 
  "/>
<polyline clip-path="url(#clip020)" style="stroke:#000000; stroke-linecap:butt; stroke-linejoin:round; stroke-width:4; stroke-opacity:1; fill:none" points="
  450.534,1347.54 450.534,1328.64 
  "/>
<polyline clip-path="url(#clip020)" style="stroke:#000000; stroke-linecap:butt; stroke-linejoin:round; stroke-width:4; stroke-opacity:1; fill:none" points="
  1017.48,1347.54 1017.48,1328.64 
  "/>
<polyline clip-path="url(#clip020)" style="stroke:#000000; stroke-linecap:butt; stroke-linejoin:round; stroke-width:4; stroke-opacity:1; fill:none" points="
  1584.43,1347.54 1584.43,1328.64 
  "/>
<polyline clip-path="url(#clip020)" style="stroke:#000000; stroke-linecap:butt; stroke-linejoin:round; stroke-width:4; stroke-opacity:1; fill:none" points="
  2151.38,1347.54 2151.38,1328.64 
  "/>
<path clip-path="url(#clip020)" d="M400.085 1420.89 L407.724 1420.89 L407.724 1394.53 L399.414 1396.19 L399.414 1391.94 L407.678 1390.27 L412.354 1390.27 L412.354 1420.89 L419.993 1420.89 L419.993 1424.83 L400.085 1424.83 L400.085 1420.89 Z" fill="#000000" fill-rule="evenodd" fill-opacity="1" /><path clip-path="url(#clip020)" d="M439.437 1393.35 Q435.826 1393.35 433.997 1396.91 Q432.192 1400.45 432.192 1407.58 Q432.192 1414.69 433.997 1418.25 Q435.826 1421.8 439.437 1421.8 Q443.071 1421.8 444.877 1418.25 Q446.705 1414.69 446.705 1407.58 Q446.705 1400.45 444.877 1396.91 Q443.071 1393.35 439.437 1393.35 M439.437 1389.64 Q445.247 1389.64 448.303 1394.25 Q451.381 1398.83 451.381 1407.58 Q451.381 1416.31 448.303 1420.92 Q445.247 1425.5 439.437 1425.5 Q433.627 1425.5 430.548 1420.92 Q427.493 1416.31 427.493 1407.58 Q427.493 1398.83 430.548 1394.25 Q433.627 1389.64 439.437 1389.64 Z" fill="#000000" fill-rule="evenodd" fill-opacity="1" /><path clip-path="url(#clip020)" d="M451.381 1383.74 L475.493 1383.74 L475.493 1386.94 L451.381 1386.94 L451.381 1383.74 Z" fill="#000000" fill-rule="evenodd" fill-opacity="1" /><path clip-path="url(#clip020)" d="M492.288 1381.86 Q489.73 1381.86 488.226 1383.61 Q486.74 1385.36 486.74 1388.41 Q486.74 1391.44 488.226 1393.21 Q489.73 1394.95 492.288 1394.95 Q494.846 1394.95 496.332 1393.21 Q497.836 1391.44 497.836 1388.41 Q497.836 1385.36 496.332 1383.61 Q494.846 1381.86 492.288 1381.86 M499.83 1369.96 L499.83 1373.42 Q498.401 1372.74 496.934 1372.39 Q495.485 1372.03 494.056 1372.03 Q490.295 1372.03 488.301 1374.57 Q486.326 1377.11 486.044 1382.24 Q487.154 1380.6 488.828 1379.74 Q490.501 1378.85 492.514 1378.85 Q496.746 1378.85 499.191 1381.43 Q501.654 1383.99 501.654 1388.41 Q501.654 1392.74 499.097 1395.35 Q496.539 1397.96 492.288 1397.96 Q487.417 1397.96 484.84 1394.24 Q482.264 1390.5 482.264 1383.41 Q482.264 1376.75 485.423 1372.8 Q488.583 1368.83 493.906 1368.83 Q495.335 1368.83 496.783 1369.11 Q498.25 1369.39 499.83 1369.96 Z" fill="#000000" fill-rule="evenodd" fill-opacity="1" /><path clip-path="url(#clip020)" d="M967.505 1420.89 L975.144 1420.89 L975.144 1394.53 L966.833 1396.19 L966.833 1391.94 L975.097 1390.27 L979.773 1390.27 L979.773 1420.89 L987.412 1420.89 L987.412 1424.83 L967.505 1424.83 L967.505 1420.89 Z" fill="#000000" fill-rule="evenodd" fill-opacity="1" /><path clip-path="url(#clip020)" d="M1006.86 1393.35 Q1003.25 1393.35 1001.42 1396.91 Q999.611 1400.45 999.611 1407.58 Q999.611 1414.69 1001.42 1418.25 Q1003.25 1421.8 1006.86 1421.8 Q1010.49 1421.8 1012.3 1418.25 Q1014.12 1414.69 1014.12 1407.58 Q1014.12 1400.45 1012.3 1396.91 Q1010.49 1393.35 1006.86 1393.35 M1006.86 1389.64 Q1012.67 1389.64 1015.72 1394.25 Q1018.8 1398.83 1018.8 1407.58 Q1018.8 1416.31 1015.72 1420.92 Q1012.67 1425.5 1006.86 1425.5 Q1001.05 1425.5 997.968 1420.92 Q994.912 1416.31 994.912 1407.58 Q994.912 1398.83 997.968 1394.25 Q1001.05 1389.64 1006.86 1389.64 Z" fill="#000000" fill-rule="evenodd" fill-opacity="1" /><path clip-path="url(#clip020)" d="M1018.8 1383.74 L1042.91 1383.74 L1042.91 1386.94 L1018.8 1386.94 L1018.8 1383.74 Z" fill="#000000" fill-rule="evenodd" fill-opacity="1" /><path clip-path="url(#clip020)" d="M1051.15 1369.34 L1066.06 1369.34 L1066.06 1372.54 L1054.63 1372.54 L1054.63 1379.42 Q1055.46 1379.14 1056.28 1379.01 Q1057.11 1378.85 1057.94 1378.85 Q1062.64 1378.85 1065.39 1381.43 Q1068.13 1384.01 1068.13 1388.41 Q1068.13 1392.94 1065.31 1395.46 Q1062.49 1397.96 1057.36 1397.96 Q1055.59 1397.96 1053.75 1397.66 Q1051.92 1397.36 1049.97 1396.76 L1049.97 1392.94 Q1051.66 1393.86 1053.46 1394.31 Q1055.27 1394.77 1057.28 1394.77 Q1060.54 1394.77 1062.43 1393.05 Q1064.33 1391.34 1064.33 1388.41 Q1064.33 1385.48 1062.43 1383.76 Q1060.54 1382.05 1057.28 1382.05 Q1055.76 1382.05 1054.23 1382.39 Q1052.73 1382.73 1051.15 1383.44 L1051.15 1369.34 Z" fill="#000000" fill-rule="evenodd" fill-opacity="1" /><path clip-path="url(#clip020)" d="M1533.85 1420.89 L1541.49 1420.89 L1541.49 1394.53 L1533.18 1396.19 L1533.18 1391.94 L1541.44 1390.27 L1546.12 1390.27 L1546.12 1420.89 L1553.76 1420.89 L1553.76 1424.83 L1533.85 1424.83 L1533.85 1420.89 Z" fill="#000000" fill-rule="evenodd" fill-opacity="1" /><path clip-path="url(#clip020)" d="M1573.2 1393.35 Q1569.59 1393.35 1567.76 1396.91 Q1565.96 1400.45 1565.96 1407.58 Q1565.96 1414.69 1567.76 1418.25 Q1569.59 1421.8 1573.2 1421.8 Q1576.84 1421.8 1578.64 1418.25 Q1580.47 1414.69 1580.47 1407.58 Q1580.47 1400.45 1578.64 1396.91 Q1576.84 1393.35 1573.2 1393.35 M1573.2 1389.64 Q1579.01 1389.64 1582.07 1394.25 Q1585.15 1398.83 1585.15 1407.58 Q1585.15 1416.31 1582.07 1420.92 Q1579.01 1425.5 1573.2 1425.5 Q1567.39 1425.5 1564.31 1420.92 Q1561.26 1416.31 1561.26 1407.58 Q1561.26 1398.83 1564.31 1394.25 Q1567.39 1389.64 1573.2 1389.64 Z" fill="#000000" fill-rule="evenodd" fill-opacity="1" /><path clip-path="url(#clip020)" d="M1585.15 1383.74 L1609.26 1383.74 L1609.26 1386.94 L1585.15 1386.94 L1585.15 1383.74 Z" fill="#000000" fill-rule="evenodd" fill-opacity="1" /><path clip-path="url(#clip020)" d="M1627.9 1372.65 L1618.31 1387.64 L1627.9 1387.64 L1627.9 1372.65 M1626.9 1369.34 L1631.68 1369.34 L1631.68 1387.64 L1635.68 1387.64 L1635.68 1390.8 L1631.68 1390.8 L1631.68 1397.42 L1627.9 1397.42 L1627.9 1390.8 L1615.22 1390.8 L1615.22 1387.13 L1626.9 1369.34 Z" fill="#000000" fill-rule="evenodd" fill-opacity="1" /><path clip-path="url(#clip020)" d="M2101.26 1420.89 L2108.9 1420.89 L2108.9 1394.53 L2100.59 1396.19 L2100.59 1391.94 L2108.85 1390.27 L2113.53 1390.27 L2113.53 1420.89 L2121.17 1420.89 L2121.17 1424.83 L2101.26 1424.83 L2101.26 1420.89 Z" fill="#000000" fill-rule="evenodd" fill-opacity="1" /><path clip-path="url(#clip020)" d="M2140.61 1393.35 Q2137 1393.35 2135.17 1396.91 Q2133.37 1400.45 2133.37 1407.58 Q2133.37 1414.69 2135.17 1418.25 Q2137 1421.8 2140.61 1421.8 Q2144.25 1421.8 2146.05 1418.25 Q2147.88 1414.69 2147.88 1407.58 Q2147.88 1400.45 2146.05 1396.91 Q2144.25 1393.35 2140.61 1393.35 M2140.61 1389.64 Q2146.42 1389.64 2149.48 1394.25 Q2152.56 1398.83 2152.56 1407.58 Q2152.56 1416.31 2149.48 1420.92 Q2146.42 1425.5 2140.61 1425.5 Q2134.8 1425.5 2131.73 1420.92 Q2128.67 1416.31 2128.67 1407.58 Q2128.67 1398.83 2131.73 1394.25 Q2134.8 1389.64 2140.61 1389.64 Z" fill="#000000" fill-rule="evenodd" fill-opacity="1" /><path clip-path="url(#clip020)" d="M2152.56 1383.74 L2176.67 1383.74 L2176.67 1386.94 L2152.56 1386.94 L2152.56 1383.74 Z" fill="#000000" fill-rule="evenodd" fill-opacity="1" /><path clip-path="url(#clip020)" d="M2196.38 1382.28 Q2199.11 1382.86 2200.63 1384.7 Q2202.17 1386.55 2202.17 1389.26 Q2202.17 1393.41 2199.31 1395.69 Q2196.46 1397.96 2191.19 1397.96 Q2189.42 1397.96 2187.54 1397.61 Q2185.68 1397.27 2183.69 1396.57 L2183.69 1392.9 Q2185.27 1393.83 2187.15 1394.3 Q2189.03 1394.77 2191.08 1394.77 Q2194.65 1394.77 2196.51 1393.36 Q2198.39 1391.95 2198.39 1389.26 Q2198.39 1386.77 2196.64 1385.38 Q2194.91 1383.97 2191.81 1383.97 L2188.54 1383.97 L2188.54 1380.85 L2191.96 1380.85 Q2194.76 1380.85 2196.25 1379.74 Q2197.73 1378.61 2197.73 1376.5 Q2197.73 1374.34 2196.19 1373.19 Q2194.67 1372.03 2191.81 1372.03 Q2190.25 1372.03 2188.46 1372.37 Q2186.68 1372.7 2184.53 1373.42 L2184.53 1370.03 Q2186.69 1369.43 2188.58 1369.13 Q2190.47 1368.83 2192.15 1368.83 Q2196.47 1368.83 2198.99 1370.81 Q2201.51 1372.76 2201.51 1376.11 Q2201.51 1378.44 2200.18 1380.06 Q2198.84 1381.66 2196.38 1382.28 Z" fill="#000000" fill-rule="evenodd" fill-opacity="1" /><path clip-path="url(#clip020)" d="M1177.34 1461.87 L1207.38 1461.87 L1207.38 1467.28 L1183.77 1467.28 L1183.77 1481.34 L1206.4 1481.34 L1206.4 1486.76 L1183.77 1486.76 L1183.77 1503.97 L1207.96 1503.97 L1207.96 1509.39 L1177.34 1509.39 L1177.34 1461.87 Z" fill="#000000" fill-rule="evenodd" fill-opacity="1" /><path clip-path="url(#clip020)" d="M1238.93 1479.21 Q1237.94 1478.64 1236.76 1478.38 Q1235.62 1478.1 1234.22 1478.1 Q1229.25 1478.1 1226.58 1481.34 Q1223.94 1484.56 1223.94 1490.61 L1223.94 1509.39 L1218.05 1509.39 L1218.05 1473.74 L1223.94 1473.74 L1223.94 1479.28 Q1225.78 1476.03 1228.74 1474.47 Q1231.7 1472.88 1235.94 1472.88 Q1236.54 1472.88 1237.27 1472.97 Q1238 1473.04 1238.9 1473.2 L1238.93 1479.21 Z" fill="#000000" fill-rule="evenodd" fill-opacity="1" /><path clip-path="url(#clip020)" d="M1264.58 1479.21 Q1263.59 1478.64 1262.42 1478.38 Q1261.27 1478.1 1259.87 1478.1 Q1254.9 1478.1 1252.23 1481.34 Q1249.59 1484.56 1249.59 1490.61 L1249.59 1509.39 L1243.7 1509.39 L1243.7 1473.74 L1249.59 1473.74 L1249.59 1479.28 Q1251.44 1476.03 1254.4 1474.47 Q1257.36 1472.88 1261.59 1472.88 Q1262.19 1472.88 1262.93 1472.97 Q1263.66 1473.04 1264.55 1473.2 L1264.58 1479.21 Z" fill="#000000" fill-rule="evenodd" fill-opacity="1" /><path clip-path="url(#clip020)" d="M1283.11 1477.84 Q1278.39 1477.84 1275.66 1481.54 Q1272.92 1485.2 1272.92 1491.59 Q1272.92 1497.99 1275.63 1501.68 Q1278.36 1505.34 1283.11 1505.34 Q1287.78 1505.34 1290.52 1501.65 Q1293.26 1497.96 1293.26 1491.59 Q1293.26 1485.26 1290.52 1481.57 Q1287.78 1477.84 1283.11 1477.84 M1283.11 1472.88 Q1290.74 1472.88 1295.1 1477.84 Q1299.46 1482.81 1299.46 1491.59 Q1299.46 1500.35 1295.1 1505.34 Q1290.74 1510.31 1283.11 1510.31 Q1275.43 1510.31 1271.07 1505.34 Q1266.75 1500.35 1266.75 1491.59 Q1266.75 1482.81 1271.07 1477.84 Q1275.43 1472.88 1283.11 1472.88 Z" fill="#000000" fill-rule="evenodd" fill-opacity="1" /><path clip-path="url(#clip020)" d="M1329.83 1479.21 Q1328.84 1478.64 1327.66 1478.38 Q1326.52 1478.1 1325.12 1478.1 Q1320.15 1478.1 1317.48 1481.34 Q1314.84 1484.56 1314.84 1490.61 L1314.84 1509.39 L1308.95 1509.39 L1308.95 1473.74 L1314.84 1473.74 L1314.84 1479.28 Q1316.68 1476.03 1319.64 1474.47 Q1322.6 1472.88 1326.84 1472.88 Q1327.44 1472.88 1328.17 1472.97 Q1328.91 1473.04 1329.8 1473.2 L1329.83 1479.21 Z" fill="#000000" fill-rule="evenodd" fill-opacity="1" /><polyline clip-path="url(#clip022)" style="stroke:#000000; stroke-linecap:butt; stroke-linejoin:round; stroke-width:2; stroke-opacity:0.1; fill:none" points="
  250.412,935.179 2256.76,935.179 
  "/>
<polyline clip-path="url(#clip022)" style="stroke:#000000; stroke-linecap:butt; stroke-linejoin:round; stroke-width:2; stroke-opacity:0.1; fill:none" points="
  250.412,296.014 2256.76,296.014 
  "/>
<polyline clip-path="url(#clip020)" style="stroke:#000000; stroke-linecap:butt; stroke-linejoin:round; stroke-width:4; stroke-opacity:1; fill:none" points="
  250.412,1347.54 250.412,47.2441 
  "/>
<polyline clip-path="url(#clip020)" style="stroke:#000000; stroke-linecap:butt; stroke-linejoin:round; stroke-width:4; stroke-opacity:1; fill:none" points="
  250.412,935.179 269.31,935.179 
  "/>
<polyline clip-path="url(#clip020)" style="stroke:#000000; stroke-linecap:butt; stroke-linejoin:round; stroke-width:4; stroke-opacity:1; fill:none" points="
  250.412,296.014 269.31,296.014 
  "/>
<path clip-path="url(#clip020)" d="M115.712 954.971 L123.351 954.971 L123.351 928.605 L115.041 930.272 L115.041 926.013 L123.305 924.346 L127.981 924.346 L127.981 954.971 L135.62 954.971 L135.62 958.906 L115.712 958.906 L115.712 954.971 Z" fill="#000000" fill-rule="evenodd" fill-opacity="1" /><path clip-path="url(#clip020)" d="M155.064 927.425 Q151.453 927.425 149.624 930.99 Q147.819 934.531 147.819 941.661 Q147.819 948.767 149.624 952.332 Q151.453 955.874 155.064 955.874 Q158.698 955.874 160.504 952.332 Q162.332 948.767 162.332 941.661 Q162.332 934.531 160.504 930.99 Q158.698 927.425 155.064 927.425 M155.064 923.721 Q160.874 923.721 163.93 928.328 Q167.008 932.911 167.008 941.661 Q167.008 950.388 163.93 954.994 Q160.874 959.577 155.064 959.577 Q149.254 959.577 146.175 954.994 Q143.12 950.388 143.12 941.661 Q143.12 932.911 146.175 928.328 Q149.254 923.721 155.064 923.721 Z" fill="#000000" fill-rule="evenodd" fill-opacity="1" /><path clip-path="url(#clip020)" d="M167.008 917.822 L191.12 917.822 L191.12 921.02 L167.008 921.02 L167.008 917.822 Z" fill="#000000" fill-rule="evenodd" fill-opacity="1" /><path clip-path="url(#clip020)" d="M202.593 928.298 L215.852 928.298 L215.852 931.496 L198.022 931.496 L198.022 928.298 Q200.185 926.06 203.909 922.299 Q207.652 918.518 208.611 917.428 Q210.436 915.377 211.15 913.967 Q211.884 912.537 211.884 911.165 Q211.884 908.926 210.304 907.516 Q208.743 906.105 206.223 906.105 Q204.436 906.105 202.442 906.726 Q200.467 907.347 198.21 908.607 L198.21 904.77 Q200.505 903.848 202.499 903.378 Q204.492 902.908 206.147 902.908 Q210.511 902.908 213.106 905.09 Q215.702 907.271 215.702 910.92 Q215.702 912.65 215.043 914.211 Q214.404 915.754 212.692 917.86 Q212.222 918.406 209.702 921.02 Q207.182 923.615 202.593 928.298 Z" fill="#000000" fill-rule="evenodd" fill-opacity="1" /><path clip-path="url(#clip020)" d="M115.411 315.806 L123.05 315.806 L123.05 289.441 L114.74 291.107 L114.74 286.848 L123.004 285.181 L127.68 285.181 L127.68 315.806 L135.319 315.806 L135.319 319.741 L115.411 319.741 L115.411 315.806 Z" fill="#000000" fill-rule="evenodd" fill-opacity="1" /><path clip-path="url(#clip020)" d="M154.763 288.26 Q151.152 288.26 149.323 291.825 Q147.518 295.367 147.518 302.496 Q147.518 309.603 149.323 313.167 Q151.152 316.709 154.763 316.709 Q158.397 316.709 160.203 313.167 Q162.032 309.603 162.032 302.496 Q162.032 295.367 160.203 291.825 Q158.397 288.26 154.763 288.26 M154.763 284.556 Q160.573 284.556 163.629 289.163 Q166.707 293.746 166.707 302.496 Q166.707 311.223 163.629 315.829 Q160.573 320.413 154.763 320.413 Q148.953 320.413 145.874 315.829 Q142.819 311.223 142.819 302.496 Q142.819 293.746 145.874 289.163 Q148.953 284.556 154.763 284.556 Z" fill="#000000" fill-rule="evenodd" fill-opacity="1" /><path clip-path="url(#clip020)" d="M166.707 278.658 L190.819 278.658 L190.819 281.855 L166.707 281.855 L166.707 278.658 Z" fill="#000000" fill-rule="evenodd" fill-opacity="1" /><path clip-path="url(#clip020)" d="M199.677 289.134 L205.884 289.134 L205.884 267.712 L199.132 269.066 L199.132 265.605 L205.846 264.251 L209.646 264.251 L209.646 289.134 L215.852 289.134 L215.852 292.331 L199.677 292.331 L199.677 289.134 Z" fill="#000000" fill-rule="evenodd" fill-opacity="1" /><path clip-path="url(#clip020)" d="M18.4042 827.219 L18.4042 787.02 L23.815 787.02 L23.815 803.889 L65.9242 803.889 L65.9242 810.35 L23.815 810.35 L23.815 827.219 L18.4042 827.219 Z" fill="#000000" fill-rule="evenodd" fill-opacity="1" /><path clip-path="url(#clip020)" d="M30.2762 783.073 L30.2762 777.216 L65.9242 777.216 L65.9242 783.073 L30.2762 783.073 M16.399 783.073 L16.399 777.216 L23.815 777.216 L23.815 783.073 L16.399 783.073 Z" fill="#000000" fill-rule="evenodd" fill-opacity="1" /><path clip-path="url(#clip020)" d="M37.1193 737.208 Q33.1726 735.012 31.2947 731.956 Q29.4168 728.901 29.4168 724.763 Q29.4168 719.193 33.3317 716.169 Q37.2148 713.145 44.4081 713.145 L65.9242 713.145 L65.9242 719.034 L44.599 719.034 Q39.4746 719.034 36.992 720.848 Q34.5094 722.662 34.5094 726.386 Q34.5094 730.938 37.5331 733.579 Q40.5568 736.221 45.7767 736.221 L65.9242 736.221 L65.9242 742.109 L44.599 742.109 Q39.4428 742.109 36.992 743.924 Q34.5094 745.738 34.5094 749.526 Q34.5094 754.013 37.5649 756.655 Q40.5886 759.297 45.7767 759.297 L65.9242 759.297 L65.9242 765.185 L30.2762 765.185 L30.2762 759.297 L35.8144 759.297 Q32.536 757.292 30.9764 754.491 Q29.4168 751.69 29.4168 747.839 Q29.4168 743.956 31.3902 741.25 Q33.3636 738.513 37.1193 737.208 Z" fill="#000000" fill-rule="evenodd" fill-opacity="1" /><path clip-path="url(#clip020)" d="M46.6361 670.973 L49.5006 670.973 L49.5006 697.9 Q55.5481 697.518 58.7309 694.271 Q61.8819 690.993 61.8819 685.168 Q61.8819 681.794 61.0544 678.643 Q60.2269 675.461 58.5718 672.341 L64.1099 672.341 Q65.4467 675.492 66.147 678.803 Q66.8472 682.113 66.8472 685.518 Q66.8472 694.048 61.8819 699.045 Q56.9167 704.011 48.4503 704.011 Q39.6974 704.011 34.5731 699.3 Q29.4168 694.558 29.4168 686.537 Q29.4168 679.344 34.0638 675.174 Q38.6789 670.973 46.6361 670.973 M44.9173 676.829 Q40.1112 676.893 37.2466 679.535 Q34.3821 682.145 34.3821 686.473 Q34.3821 691.375 37.1512 694.335 Q39.9202 697.263 44.9492 697.709 L44.9173 676.829 Z" fill="#000000" fill-rule="evenodd" fill-opacity="1" /><path clip-path="url(#clip020)" d="M16.4626 626.572 Q23.7832 630.837 30.9446 632.906 Q38.106 634.975 45.4584 634.975 Q52.8108 634.975 60.0359 632.906 Q67.2291 630.805 74.5179 626.572 L74.5179 631.664 Q67.0382 636.439 59.8131 638.826 Q52.588 641.181 45.4584 641.181 Q38.3606 641.181 31.1674 638.826 Q23.9742 636.471 16.4626 631.664 L16.4626 626.572 Z" fill="#000000" fill-rule="evenodd" fill-opacity="1" /><path clip-path="url(#clip020)" d="M31.3265 592.484 L36.8647 592.484 Q35.5916 594.966 34.955 597.64 Q34.3184 600.313 34.3184 603.178 Q34.3184 607.538 35.6552 609.735 Q36.992 611.899 39.6656 611.899 Q41.7026 611.899 42.8803 610.339 Q44.0261 608.78 45.0765 604.069 L45.5221 602.064 Q46.8589 595.826 49.3097 593.216 Q51.7286 590.574 56.0891 590.574 Q61.0544 590.574 63.9508 594.521 Q66.8472 598.435 66.8472 605.31 Q66.8472 608.175 66.2743 611.294 Q65.7332 614.382 64.6192 617.819 L58.5718 617.819 Q60.2587 614.573 61.118 611.422 Q61.9456 608.27 61.9456 605.183 Q61.9456 601.045 60.5451 598.817 Q59.1129 596.589 56.5347 596.589 Q54.1476 596.589 52.8745 598.213 Q51.6013 599.804 50.4237 605.247 L49.9462 607.284 Q48.8004 612.726 46.4451 615.145 Q44.058 617.564 39.9202 617.564 Q34.8913 617.564 32.1541 614 Q29.4168 610.435 29.4168 603.878 Q29.4168 600.632 29.8943 597.767 Q30.3717 594.902 31.3265 592.484 Z" fill="#000000" fill-rule="evenodd" fill-opacity="1" /><path clip-path="url(#clip020)" d="M16.4626 582.171 L16.4626 577.079 Q23.9742 572.304 31.1674 569.949 Q38.3606 567.562 45.4584 567.562 Q52.588 567.562 59.8131 569.949 Q67.0382 572.304 74.5179 577.079 L74.5179 582.171 Q67.2291 577.938 60.0359 575.869 Q52.8108 573.768 45.4584 573.768 Q38.106 573.768 30.9446 575.869 Q23.7832 577.938 16.4626 582.171 Z" fill="#000000" fill-rule="evenodd" fill-opacity="1" /><polyline clip-path="url(#clip022)" style="stroke:#009af9; stroke-linecap:butt; stroke-linejoin:round; stroke-width:12; stroke-opacity:1; fill:none" points="
  2199.97,1310.74 1682.49,1244.01 1180.72,1191.78 787.986,1084.27 307.195,1019.87 
  "/>
<line clip-path="url(#clip022)" x1="2199.97" y1="1310.74" x2="2199.97" y2="1294.74" style="stroke:#009af9; stroke-width:3.072; stroke-opacity:1"/>
<line clip-path="url(#clip022)" x1="2199.97" y1="1310.74" x2="2183.97" y2="1310.74" style="stroke:#009af9; stroke-width:3.072; stroke-opacity:1"/>
<line clip-path="url(#clip022)" x1="2199.97" y1="1310.74" x2="2199.97" y2="1326.74" style="stroke:#009af9; stroke-width:3.072; stroke-opacity:1"/>
<line clip-path="url(#clip022)" x1="2199.97" y1="1310.74" x2="2215.97" y2="1310.74" style="stroke:#009af9; stroke-width:3.072; stroke-opacity:1"/>
<line clip-path="url(#clip022)" x1="1682.49" y1="1244.01" x2="1682.49" y2="1228.01" style="stroke:#009af9; stroke-width:3.072; stroke-opacity:1"/>
<line clip-path="url(#clip022)" x1="1682.49" y1="1244.01" x2="1666.49" y2="1244.01" style="stroke:#009af9; stroke-width:3.072; stroke-opacity:1"/>
<line clip-path="url(#clip022)" x1="1682.49" y1="1244.01" x2="1682.49" y2="1260.01" style="stroke:#009af9; stroke-width:3.072; stroke-opacity:1"/>
<line clip-path="url(#clip022)" x1="1682.49" y1="1244.01" x2="1698.49" y2="1244.01" style="stroke:#009af9; stroke-width:3.072; stroke-opacity:1"/>
<line clip-path="url(#clip022)" x1="1180.72" y1="1191.78" x2="1180.72" y2="1175.78" style="stroke:#009af9; stroke-width:3.072; stroke-opacity:1"/>
<line clip-path="url(#clip022)" x1="1180.72" y1="1191.78" x2="1164.72" y2="1191.78" style="stroke:#009af9; stroke-width:3.072; stroke-opacity:1"/>
<line clip-path="url(#clip022)" x1="1180.72" y1="1191.78" x2="1180.72" y2="1207.78" style="stroke:#009af9; stroke-width:3.072; stroke-opacity:1"/>
<line clip-path="url(#clip022)" x1="1180.72" y1="1191.78" x2="1196.72" y2="1191.78" style="stroke:#009af9; stroke-width:3.072; stroke-opacity:1"/>
<line clip-path="url(#clip022)" x1="787.986" y1="1084.27" x2="787.986" y2="1068.27" style="stroke:#009af9; stroke-width:3.072; stroke-opacity:1"/>
<line clip-path="url(#clip022)" x1="787.986" y1="1084.27" x2="771.986" y2="1084.27" style="stroke:#009af9; stroke-width:3.072; stroke-opacity:1"/>
<line clip-path="url(#clip022)" x1="787.986" y1="1084.27" x2="787.986" y2="1100.27" style="stroke:#009af9; stroke-width:3.072; stroke-opacity:1"/>
<line clip-path="url(#clip022)" x1="787.986" y1="1084.27" x2="803.986" y2="1084.27" style="stroke:#009af9; stroke-width:3.072; stroke-opacity:1"/>
<line clip-path="url(#clip022)" x1="307.195" y1="1019.87" x2="307.195" y2="1003.87" style="stroke:#009af9; stroke-width:3.072; stroke-opacity:1"/>
<line clip-path="url(#clip022)" x1="307.195" y1="1019.87" x2="291.195" y2="1019.87" style="stroke:#009af9; stroke-width:3.072; stroke-opacity:1"/>
<line clip-path="url(#clip022)" x1="307.195" y1="1019.87" x2="307.195" y2="1035.87" style="stroke:#009af9; stroke-width:3.072; stroke-opacity:1"/>
<line clip-path="url(#clip022)" x1="307.195" y1="1019.87" x2="323.195" y2="1019.87" style="stroke:#009af9; stroke-width:3.072; stroke-opacity:1"/>
<polyline clip-path="url(#clip022)" style="stroke:#e26f46; stroke-linecap:butt; stroke-linejoin:round; stroke-width:12; stroke-opacity:1; fill:none" points="
  2199.97,189.623 1682.49,154.091 1180.72,210.641 787.986,244.398 307.195,84.0448 
  "/>
<circle clip-path="url(#clip022)" cx="2199.97" cy="189.623" r="14" fill="#e26f46" fill-rule="evenodd" fill-opacity="1" stroke="#000000" stroke-opacity="1" stroke-width="3.072"/>
<circle clip-path="url(#clip022)" cx="1682.49" cy="154.091" r="14" fill="#e26f46" fill-rule="evenodd" fill-opacity="1" stroke="#000000" stroke-opacity="1" stroke-width="3.072"/>
<circle clip-path="url(#clip022)" cx="1180.72" cy="210.641" r="14" fill="#e26f46" fill-rule="evenodd" fill-opacity="1" stroke="#000000" stroke-opacity="1" stroke-width="3.072"/>
<circle clip-path="url(#clip022)" cx="787.986" cy="244.398" r="14" fill="#e26f46" fill-rule="evenodd" fill-opacity="1" stroke="#000000" stroke-opacity="1" stroke-width="3.072"/>
<circle clip-path="url(#clip022)" cx="307.195" cy="84.0448" r="14" fill="#e26f46" fill-rule="evenodd" fill-opacity="1" stroke="#000000" stroke-opacity="1" stroke-width="3.072"/>
<polyline clip-path="url(#clip022)" style="stroke:#3da44d; stroke-linecap:butt; stroke-linejoin:round; stroke-width:12; stroke-opacity:1; fill:none" points="
  2199.97,1159.11 1682.49,1102.22 1180.72,1063.79 787.986,998.043 307.195,825.443 
  "/>
<line clip-path="url(#clip022)" x1="2199.97" y1="1159.11" x2="2199.97" y2="1143.11" style="stroke:#3da44d; stroke-width:3.072; stroke-opacity:1"/>
<line clip-path="url(#clip022)" x1="2199.97" y1="1159.11" x2="2183.97" y2="1159.11" style="stroke:#3da44d; stroke-width:3.072; stroke-opacity:1"/>
<line clip-path="url(#clip022)" x1="2199.97" y1="1159.11" x2="2199.97" y2="1175.11" style="stroke:#3da44d; stroke-width:3.072; stroke-opacity:1"/>
<line clip-path="url(#clip022)" x1="2199.97" y1="1159.11" x2="2215.97" y2="1159.11" style="stroke:#3da44d; stroke-width:3.072; stroke-opacity:1"/>
<line clip-path="url(#clip022)" x1="1682.49" y1="1102.22" x2="1682.49" y2="1086.22" style="stroke:#3da44d; stroke-width:3.072; stroke-opacity:1"/>
<line clip-path="url(#clip022)" x1="1682.49" y1="1102.22" x2="1666.49" y2="1102.22" style="stroke:#3da44d; stroke-width:3.072; stroke-opacity:1"/>
<line clip-path="url(#clip022)" x1="1682.49" y1="1102.22" x2="1682.49" y2="1118.22" style="stroke:#3da44d; stroke-width:3.072; stroke-opacity:1"/>
<line clip-path="url(#clip022)" x1="1682.49" y1="1102.22" x2="1698.49" y2="1102.22" style="stroke:#3da44d; stroke-width:3.072; stroke-opacity:1"/>
<line clip-path="url(#clip022)" x1="1180.72" y1="1063.79" x2="1180.72" y2="1047.79" style="stroke:#3da44d; stroke-width:3.072; stroke-opacity:1"/>
<line clip-path="url(#clip022)" x1="1180.72" y1="1063.79" x2="1164.72" y2="1063.79" style="stroke:#3da44d; stroke-width:3.072; stroke-opacity:1"/>
<line clip-path="url(#clip022)" x1="1180.72" y1="1063.79" x2="1180.72" y2="1079.79" style="stroke:#3da44d; stroke-width:3.072; stroke-opacity:1"/>
<line clip-path="url(#clip022)" x1="1180.72" y1="1063.79" x2="1196.72" y2="1063.79" style="stroke:#3da44d; stroke-width:3.072; stroke-opacity:1"/>
<line clip-path="url(#clip022)" x1="787.986" y1="998.043" x2="787.986" y2="982.043" style="stroke:#3da44d; stroke-width:3.072; stroke-opacity:1"/>
<line clip-path="url(#clip022)" x1="787.986" y1="998.043" x2="771.986" y2="998.043" style="stroke:#3da44d; stroke-width:3.072; stroke-opacity:1"/>
<line clip-path="url(#clip022)" x1="787.986" y1="998.043" x2="787.986" y2="1014.04" style="stroke:#3da44d; stroke-width:3.072; stroke-opacity:1"/>
<line clip-path="url(#clip022)" x1="787.986" y1="998.043" x2="803.986" y2="998.043" style="stroke:#3da44d; stroke-width:3.072; stroke-opacity:1"/>
<line clip-path="url(#clip022)" x1="307.195" y1="825.443" x2="307.195" y2="809.443" style="stroke:#3da44d; stroke-width:3.072; stroke-opacity:1"/>
<line clip-path="url(#clip022)" x1="307.195" y1="825.443" x2="291.195" y2="825.443" style="stroke:#3da44d; stroke-width:3.072; stroke-opacity:1"/>
<line clip-path="url(#clip022)" x1="307.195" y1="825.443" x2="307.195" y2="841.443" style="stroke:#3da44d; stroke-width:3.072; stroke-opacity:1"/>
<line clip-path="url(#clip022)" x1="307.195" y1="825.443" x2="323.195" y2="825.443" style="stroke:#3da44d; stroke-width:3.072; stroke-opacity:1"/>
<path clip-path="url(#clip020)" d="
M1700.54 297.947 L2189.88 297.947 L2189.88 90.5872 L1700.54 90.5872  Z
  " fill="#ffffff" fill-rule="evenodd" fill-opacity="1"/>
<polyline clip-path="url(#clip020)" style="stroke:#000000; stroke-linecap:butt; stroke-linejoin:round; stroke-width:4; stroke-opacity:1; fill:none" points="
  1700.54,297.947 2189.88,297.947 2189.88,90.5872 1700.54,90.5872 1700.54,297.947 
  "/>
<polyline clip-path="url(#clip020)" style="stroke:#009af9; stroke-linecap:butt; stroke-linejoin:round; stroke-width:4; stroke-opacity:1; fill:none" points="
  1722.83,142.427 1856.59,142.427 
  "/>
<line clip-path="url(#clip020)" x1="1789.71" y1="142.427" x2="1789.71" y2="116.827" style="stroke:#009af9; stroke-width:4.9152; stroke-opacity:1"/>
<line clip-path="url(#clip020)" x1="1789.71" y1="142.427" x2="1764.11" y2="142.427" style="stroke:#009af9; stroke-width:4.9152; stroke-opacity:1"/>
<line clip-path="url(#clip020)" x1="1789.71" y1="142.427" x2="1789.71" y2="168.027" style="stroke:#009af9; stroke-width:4.9152; stroke-opacity:1"/>
<line clip-path="url(#clip020)" x1="1789.71" y1="142.427" x2="1815.31" y2="142.427" style="stroke:#009af9; stroke-width:4.9152; stroke-opacity:1"/>
<path clip-path="url(#clip020)" d="M1878.88 149.476 L1878.88 133.781 L1883.14 133.781 L1883.14 149.314 Q1883.14 152.994 1884.58 154.846 Q1886.01 156.675 1888.88 156.675 Q1892.33 156.675 1894.32 154.476 Q1896.34 152.277 1896.34 148.48 L1896.34 133.781 L1900.59 133.781 L1900.59 159.707 L1896.34 159.707 L1896.34 155.726 Q1894.78 158.087 1892.72 159.244 Q1890.69 160.378 1887.98 160.378 Q1883.51 160.378 1881.2 157.601 Q1878.88 154.823 1878.88 149.476 M1889.6 133.156 L1889.6 133.156 Z" fill="#000000" fill-rule="evenodd" fill-opacity="1" /><path clip-path="url(#clip020)" d="M1930.92 144.059 L1930.92 159.707 L1926.66 159.707 L1926.66 144.198 Q1926.66 140.517 1925.22 138.689 Q1923.79 136.86 1920.92 136.86 Q1917.47 136.86 1915.48 139.059 Q1913.49 141.258 1913.49 145.054 L1913.49 159.707 L1909.21 159.707 L1909.21 133.781 L1913.49 133.781 L1913.49 137.809 Q1915.02 135.471 1917.08 134.314 Q1919.16 133.156 1921.87 133.156 Q1926.34 133.156 1928.63 135.934 Q1930.92 138.689 1930.92 144.059 Z" fill="#000000" fill-rule="evenodd" fill-opacity="1" /><path clip-path="url(#clip020)" d="M1943.63 126.42 L1943.63 133.781 L1952.4 133.781 L1952.4 137.092 L1943.63 137.092 L1943.63 151.166 Q1943.63 154.337 1944.48 155.24 Q1945.36 156.142 1948.02 156.142 L1952.4 156.142 L1952.4 159.707 L1948.02 159.707 Q1943.09 159.707 1941.22 157.878 Q1939.34 156.027 1939.34 151.166 L1939.34 137.092 L1936.22 137.092 L1936.22 133.781 L1939.34 133.781 L1939.34 126.42 L1943.63 126.42 Z" fill="#000000" fill-rule="evenodd" fill-opacity="1" /><path clip-path="url(#clip020)" d="M1979.55 144.059 L1979.55 159.707 L1975.29 159.707 L1975.29 144.198 Q1975.29 140.517 1973.86 138.689 Q1972.42 136.86 1969.55 136.86 Q1966.1 136.86 1964.11 139.059 Q1962.12 141.258 1962.12 145.054 L1962.12 159.707 L1957.84 159.707 L1957.84 123.689 L1962.12 123.689 L1962.12 137.809 Q1963.65 135.471 1965.71 134.314 Q1967.79 133.156 1970.5 133.156 Q1974.97 133.156 1977.26 135.934 Q1979.55 138.689 1979.55 144.059 Z" fill="#000000" fill-rule="evenodd" fill-opacity="1" /><path clip-path="url(#clip020)" d="M2003.07 137.763 Q2002.35 137.346 2001.5 137.161 Q2000.66 136.953 1999.64 136.953 Q1996.03 136.953 1994.09 139.314 Q1992.17 141.652 1992.17 146.05 L1992.17 159.707 L1987.89 159.707 L1987.89 133.781 L1992.17 133.781 L1992.17 137.809 Q1993.51 135.448 1995.66 134.314 Q1997.82 133.156 2000.89 133.156 Q2001.33 133.156 2001.87 133.226 Q2002.4 133.272 2003.05 133.388 L2003.07 137.763 Z" fill="#000000" fill-rule="evenodd" fill-opacity="1" /><path clip-path="url(#clip020)" d="M2028.67 145.679 L2028.67 147.763 L2009.09 147.763 Q2009.37 152.161 2011.73 154.476 Q2014.11 156.767 2018.35 156.767 Q2020.8 156.767 2023.09 156.166 Q2025.41 155.564 2027.68 154.36 L2027.68 158.388 Q2025.39 159.36 2022.98 159.869 Q2020.57 160.378 2018.09 160.378 Q2011.89 160.378 2008.26 156.767 Q2004.64 153.156 2004.64 146.999 Q2004.64 140.633 2008.07 136.906 Q2011.52 133.156 2017.35 133.156 Q2022.58 133.156 2025.62 136.536 Q2028.67 139.892 2028.67 145.679 M2024.41 144.429 Q2024.37 140.934 2022.45 138.851 Q2020.55 136.767 2017.4 136.767 Q2013.83 136.767 2011.68 138.781 Q2009.55 140.795 2009.23 144.453 L2024.41 144.429 Z" fill="#000000" fill-rule="evenodd" fill-opacity="1" /><path clip-path="url(#clip020)" d="M2047.45 146.675 Q2042.28 146.675 2040.29 147.855 Q2038.3 149.036 2038.3 151.883 Q2038.3 154.152 2039.78 155.494 Q2041.29 156.814 2043.86 156.814 Q2047.4 156.814 2049.53 154.314 Q2051.68 151.791 2051.68 147.624 L2051.68 146.675 L2047.45 146.675 M2055.94 144.916 L2055.94 159.707 L2051.68 159.707 L2051.68 155.772 Q2050.22 158.133 2048.05 159.267 Q2045.87 160.378 2042.72 160.378 Q2038.74 160.378 2036.38 158.156 Q2034.04 155.911 2034.04 152.161 Q2034.04 147.786 2036.96 145.564 Q2039.9 143.342 2045.71 143.342 L2051.68 143.342 L2051.68 142.925 Q2051.68 139.985 2049.74 138.388 Q2047.82 136.767 2044.32 136.767 Q2042.1 136.767 2039.99 137.3 Q2037.89 137.832 2035.94 138.897 L2035.94 134.962 Q2038.28 134.059 2040.48 133.619 Q2042.68 133.156 2044.76 133.156 Q2050.39 133.156 2053.16 136.073 Q2055.94 138.99 2055.94 144.916 Z" fill="#000000" fill-rule="evenodd" fill-opacity="1" /><path clip-path="url(#clip020)" d="M2081.77 137.717 L2081.77 123.689 L2086.03 123.689 L2086.03 159.707 L2081.77 159.707 L2081.77 155.818 Q2080.43 158.133 2078.37 159.267 Q2076.33 160.378 2073.46 160.378 Q2068.76 160.378 2065.8 156.628 Q2062.86 152.879 2062.86 146.767 Q2062.86 140.656 2065.8 136.906 Q2068.76 133.156 2073.46 133.156 Q2076.33 133.156 2078.37 134.291 Q2080.43 135.402 2081.77 137.717 M2067.26 146.767 Q2067.26 151.466 2069.18 154.152 Q2071.13 156.814 2074.51 156.814 Q2077.89 156.814 2079.83 154.152 Q2081.77 151.466 2081.77 146.767 Q2081.77 142.068 2079.83 139.406 Q2077.89 136.721 2074.51 136.721 Q2071.13 136.721 2069.18 139.406 Q2067.26 142.068 2067.26 146.767 Z" fill="#000000" fill-rule="evenodd" fill-opacity="1" /><path clip-path="url(#clip020)" d="M2116.98 145.679 L2116.98 147.763 L2097.4 147.763 Q2097.68 152.161 2100.04 154.476 Q2102.42 156.767 2106.66 156.767 Q2109.11 156.767 2111.4 156.166 Q2113.72 155.564 2115.99 154.36 L2115.99 158.388 Q2113.7 159.36 2111.29 159.869 Q2108.88 160.378 2106.4 160.378 Q2100.2 160.378 2096.57 156.767 Q2092.95 153.156 2092.95 146.999 Q2092.95 140.633 2096.38 136.906 Q2099.83 133.156 2105.66 133.156 Q2110.89 133.156 2113.93 136.536 Q2116.98 139.892 2116.98 145.679 M2112.72 144.429 Q2112.68 140.934 2110.76 138.851 Q2108.86 136.767 2105.71 136.767 Q2102.14 136.767 2099.99 138.781 Q2097.86 140.795 2097.54 144.453 L2112.72 144.429 Z" fill="#000000" fill-rule="evenodd" fill-opacity="1" /><path clip-path="url(#clip020)" d="M2141.03 137.717 L2141.03 123.689 L2145.29 123.689 L2145.29 159.707 L2141.03 159.707 L2141.03 155.818 Q2139.69 158.133 2137.63 159.267 Q2135.59 160.378 2132.72 160.378 Q2128.02 160.378 2125.06 156.628 Q2122.12 152.879 2122.12 146.767 Q2122.12 140.656 2125.06 136.906 Q2128.02 133.156 2132.72 133.156 Q2135.59 133.156 2137.63 134.291 Q2139.69 135.402 2141.03 137.717 M2126.52 146.767 Q2126.52 151.466 2128.44 154.152 Q2130.39 156.814 2133.76 156.814 Q2137.14 156.814 2139.09 154.152 Q2141.03 151.466 2141.03 146.767 Q2141.03 142.068 2139.09 139.406 Q2137.14 136.721 2133.76 136.721 Q2130.39 136.721 2128.44 139.406 Q2126.52 142.068 2126.52 146.767 Z" fill="#000000" fill-rule="evenodd" fill-opacity="1" /><polyline clip-path="url(#clip020)" style="stroke:#e26f46; stroke-linecap:butt; stroke-linejoin:round; stroke-width:4; stroke-opacity:1; fill:none" points="
  1722.83,194.267 1856.59,194.267 
  "/>
<circle clip-path="url(#clip020)" cx="1789.71" cy="194.267" r="23" fill="#e26f46" fill-rule="evenodd" fill-opacity="1" stroke="#000000" stroke-opacity="1" stroke-width="4.9152"/>
<path clip-path="url(#clip020)" d="M1886.29 178.26 L1886.29 185.621 L1895.06 185.621 L1895.06 188.932 L1886.29 188.932 L1886.29 203.006 Q1886.29 206.177 1887.15 207.08 Q1888.03 207.982 1890.69 207.982 L1895.06 207.982 L1895.06 211.547 L1890.69 211.547 Q1885.76 211.547 1883.88 209.718 Q1882.01 207.867 1882.01 203.006 L1882.01 188.932 L1878.88 188.932 L1878.88 185.621 L1882.01 185.621 L1882.01 178.26 L1886.29 178.26 Z" fill="#000000" fill-rule="evenodd" fill-opacity="1" /><path clip-path="url(#clip020)" d="M1922.21 195.899 L1922.21 211.547 L1917.96 211.547 L1917.96 196.038 Q1917.96 192.357 1916.52 190.529 Q1915.09 188.7 1912.21 188.7 Q1908.77 188.7 1906.78 190.899 Q1904.78 193.098 1904.78 196.894 L1904.78 211.547 L1900.5 211.547 L1900.5 175.529 L1904.78 175.529 L1904.78 189.649 Q1906.31 187.311 1908.37 186.154 Q1910.46 184.996 1913.16 184.996 Q1917.63 184.996 1919.92 187.774 Q1922.21 190.529 1922.21 195.899 Z" fill="#000000" fill-rule="evenodd" fill-opacity="1" /><path clip-path="url(#clip020)" d="M1945.73 189.603 Q1945.02 189.186 1944.16 189.001 Q1943.33 188.793 1942.31 188.793 Q1938.7 188.793 1936.75 191.154 Q1934.83 193.492 1934.83 197.89 L1934.83 211.547 L1930.55 211.547 L1930.55 185.621 L1934.83 185.621 L1934.83 189.649 Q1936.17 187.288 1938.33 186.154 Q1940.48 184.996 1943.56 184.996 Q1944 184.996 1944.53 185.066 Q1945.06 185.112 1945.71 185.228 L1945.73 189.603 Z" fill="#000000" fill-rule="evenodd" fill-opacity="1" /><path clip-path="url(#clip020)" d="M1971.33 197.519 L1971.33 199.603 L1951.75 199.603 Q1952.03 204.001 1954.39 206.316 Q1956.77 208.607 1961.01 208.607 Q1963.46 208.607 1965.76 208.006 Q1968.07 207.404 1970.34 206.2 L1970.34 210.228 Q1968.05 211.2 1965.64 211.709 Q1963.23 212.218 1960.76 212.218 Q1954.55 212.218 1950.92 208.607 Q1947.31 204.996 1947.31 198.839 Q1947.31 192.473 1950.73 188.746 Q1954.18 184.996 1960.02 184.996 Q1965.25 184.996 1968.28 188.376 Q1971.33 191.732 1971.33 197.519 M1967.08 196.269 Q1967.03 192.774 1965.11 190.691 Q1963.21 188.607 1960.06 188.607 Q1956.5 188.607 1954.34 190.621 Q1952.21 192.635 1951.89 196.293 L1967.08 196.269 Z" fill="#000000" fill-rule="evenodd" fill-opacity="1" /><path clip-path="url(#clip020)" d="M1990.11 198.515 Q1984.95 198.515 1982.96 199.695 Q1980.96 200.876 1980.96 203.723 Q1980.96 205.992 1982.45 207.334 Q1983.95 208.654 1986.52 208.654 Q1990.06 208.654 1992.19 206.154 Q1994.34 203.631 1994.34 199.464 L1994.34 198.515 L1990.11 198.515 M1998.6 196.756 L1998.6 211.547 L1994.34 211.547 L1994.34 207.612 Q1992.89 209.973 1990.71 211.107 Q1988.53 212.218 1985.39 212.218 Q1981.4 212.218 1979.04 209.996 Q1976.71 207.751 1976.71 204.001 Q1976.71 199.626 1979.62 197.404 Q1982.56 195.182 1988.37 195.182 L1994.34 195.182 L1994.34 194.765 Q1994.34 191.825 1992.4 190.228 Q1990.48 188.607 1986.98 188.607 Q1984.76 188.607 1982.65 189.14 Q1980.55 189.672 1978.6 190.737 L1978.6 186.802 Q1980.94 185.899 1983.14 185.459 Q1985.34 184.996 1987.42 184.996 Q1993.05 184.996 1995.83 187.913 Q1998.6 190.83 1998.6 196.756 Z" fill="#000000" fill-rule="evenodd" fill-opacity="1" /><path clip-path="url(#clip020)" d="M2024.44 189.557 L2024.44 175.529 L2028.7 175.529 L2028.7 211.547 L2024.44 211.547 L2024.44 207.658 Q2023.09 209.973 2021.03 211.107 Q2019 212.218 2016.13 212.218 Q2011.43 212.218 2008.46 208.468 Q2005.52 204.719 2005.52 198.607 Q2005.52 192.496 2008.46 188.746 Q2011.43 184.996 2016.13 184.996 Q2019 184.996 2021.03 186.131 Q2023.09 187.242 2024.44 189.557 M2009.92 198.607 Q2009.92 203.306 2011.84 205.992 Q2013.79 208.654 2017.17 208.654 Q2020.55 208.654 2022.49 205.992 Q2024.44 203.306 2024.44 198.607 Q2024.44 193.908 2022.49 191.246 Q2020.55 188.561 2017.17 188.561 Q2013.79 188.561 2011.84 191.246 Q2009.92 193.908 2009.92 198.607 Z" fill="#000000" fill-rule="evenodd" fill-opacity="1" /><path clip-path="url(#clip020)" d="M2059.64 197.519 L2059.64 199.603 L2040.06 199.603 Q2040.34 204.001 2042.7 206.316 Q2045.08 208.607 2049.32 208.607 Q2051.77 208.607 2054.07 208.006 Q2056.38 207.404 2058.65 206.2 L2058.65 210.228 Q2056.36 211.2 2053.95 211.709 Q2051.54 212.218 2049.07 212.218 Q2042.86 212.218 2039.23 208.607 Q2035.62 204.996 2035.62 198.839 Q2035.62 192.473 2039.04 188.746 Q2042.49 184.996 2048.33 184.996 Q2053.56 184.996 2056.59 188.376 Q2059.64 191.732 2059.64 197.519 M2055.39 196.269 Q2055.34 192.774 2053.42 190.691 Q2051.52 188.607 2048.37 188.607 Q2044.81 188.607 2042.65 190.621 Q2040.52 192.635 2040.2 196.293 L2055.39 196.269 Z" fill="#000000" fill-rule="evenodd" fill-opacity="1" /><path clip-path="url(#clip020)" d="M2083.7 189.557 L2083.7 175.529 L2087.95 175.529 L2087.95 211.547 L2083.7 211.547 L2083.7 207.658 Q2082.35 209.973 2080.29 211.107 Q2078.26 212.218 2075.39 212.218 Q2070.69 212.218 2067.72 208.468 Q2064.78 204.719 2064.78 198.607 Q2064.78 192.496 2067.72 188.746 Q2070.69 184.996 2075.39 184.996 Q2078.26 184.996 2080.29 186.131 Q2082.35 187.242 2083.7 189.557 M2069.18 198.607 Q2069.18 203.306 2071.1 205.992 Q2073.05 208.654 2076.43 208.654 Q2079.81 208.654 2081.75 205.992 Q2083.7 203.306 2083.7 198.607 Q2083.7 193.908 2081.75 191.246 Q2079.81 188.561 2076.43 188.561 Q2073.05 188.561 2071.1 191.246 Q2069.18 193.908 2069.18 198.607 Z" fill="#000000" fill-rule="evenodd" fill-opacity="1" /><polyline clip-path="url(#clip020)" style="stroke:#3da44d; stroke-linecap:butt; stroke-linejoin:round; stroke-width:4; stroke-opacity:1; fill:none" points="
  1722.83,246.107 1856.59,246.107 
  "/>
<line clip-path="url(#clip020)" x1="1789.71" y1="246.107" x2="1789.71" y2="220.507" style="stroke:#3da44d; stroke-width:4.9152; stroke-opacity:1"/>
<line clip-path="url(#clip020)" x1="1789.71" y1="246.107" x2="1764.11" y2="246.107" style="stroke:#3da44d; stroke-width:4.9152; stroke-opacity:1"/>
<line clip-path="url(#clip020)" x1="1789.71" y1="246.107" x2="1789.71" y2="271.707" style="stroke:#3da44d; stroke-width:4.9152; stroke-opacity:1"/>
<line clip-path="url(#clip020)" x1="1789.71" y1="246.107" x2="1815.31" y2="246.107" style="stroke:#3da44d; stroke-width:4.9152; stroke-opacity:1"/>
<path clip-path="url(#clip020)" d="M1883.56 232.67 L1883.56 245.656 L1889.44 245.656 Q1892.7 245.656 1894.48 243.966 Q1896.27 242.276 1896.27 239.151 Q1896.27 236.049 1894.48 234.36 Q1892.7 232.67 1889.44 232.67 L1883.56 232.67 M1878.88 228.827 L1889.44 228.827 Q1895.25 228.827 1898.21 231.466 Q1901.2 234.082 1901.2 239.151 Q1901.2 244.267 1898.21 246.883 Q1895.25 249.498 1889.44 249.498 L1883.56 249.498 L1883.56 263.387 L1878.88 263.387 L1878.88 228.827 Z" fill="#000000" fill-rule="evenodd" fill-opacity="1" /><path clip-path="url(#clip020)" d="M1915.64 240.447 Q1912.21 240.447 1910.22 243.133 Q1908.23 245.795 1908.23 250.447 Q1908.23 255.1 1910.2 257.785 Q1912.19 260.447 1915.64 260.447 Q1919.04 260.447 1921.03 257.762 Q1923.03 255.077 1923.03 250.447 Q1923.03 245.841 1921.03 243.156 Q1919.04 240.447 1915.64 240.447 M1915.64 236.836 Q1921.2 236.836 1924.37 240.447 Q1927.54 244.059 1927.54 250.447 Q1927.54 256.813 1924.37 260.447 Q1921.2 264.058 1915.64 264.058 Q1910.06 264.058 1906.89 260.447 Q1903.74 256.813 1903.74 250.447 Q1903.74 244.059 1906.89 240.447 Q1910.06 236.836 1915.64 236.836 Z" fill="#000000" fill-rule="evenodd" fill-opacity="1" /><path clip-path="url(#clip020)" d="M1934.6 227.369 L1938.86 227.369 L1938.86 263.387 L1934.6 263.387 L1934.6 227.369 Z" fill="#000000" fill-rule="evenodd" fill-opacity="1" /><path clip-path="url(#clip020)" d="M1958.56 265.795 Q1956.75 270.424 1955.04 271.836 Q1953.33 273.248 1950.46 273.248 L1947.05 273.248 L1947.05 269.683 L1949.55 269.683 Q1951.31 269.683 1952.28 268.85 Q1953.26 268.017 1954.44 264.915 L1955.2 262.971 L1944.71 237.461 L1949.23 237.461 L1957.33 257.739 L1965.43 237.461 L1969.95 237.461 L1958.56 265.795 Z" fill="#000000" fill-rule="evenodd" fill-opacity="1" /><path clip-path="url(#clip020)" d="M1998 249.359 L1998 251.443 L1978.42 251.443 Q1978.7 255.841 1981.06 258.156 Q1983.44 260.447 1987.68 260.447 Q1990.13 260.447 1992.42 259.846 Q1994.74 259.244 1997.01 258.04 L1997.01 262.068 Q1994.71 263.04 1992.31 263.549 Q1989.9 264.058 1987.42 264.058 Q1981.22 264.058 1977.58 260.447 Q1973.97 256.836 1973.97 250.679 Q1973.97 244.313 1977.4 240.586 Q1980.85 236.836 1986.68 236.836 Q1991.91 236.836 1994.95 240.216 Q1998 243.572 1998 249.359 M1993.74 248.109 Q1993.7 244.614 1991.77 242.531 Q1989.88 240.447 1986.73 240.447 Q1983.16 240.447 1981.01 242.461 Q1978.88 244.475 1978.56 248.133 L1993.74 248.109 Z" fill="#000000" fill-rule="evenodd" fill-opacity="1" /><path clip-path="url(#clip020)" d="M2021.52 238.225 L2021.52 242.253 Q2019.71 241.327 2017.77 240.864 Q2015.83 240.401 2013.74 240.401 Q2010.57 240.401 2008.97 241.373 Q2007.4 242.346 2007.4 244.29 Q2007.4 245.772 2008.53 246.628 Q2009.67 247.461 2013.09 248.225 L2014.55 248.549 Q2019.09 249.522 2020.99 251.304 Q2022.91 253.063 2022.91 256.234 Q2022.91 259.846 2020.04 261.952 Q2017.19 264.058 2012.19 264.058 Q2010.11 264.058 2007.84 263.642 Q2005.59 263.248 2003.09 262.438 L2003.09 258.04 Q2005.46 259.267 2007.75 259.892 Q2010.04 260.494 2012.28 260.494 Q2015.29 260.494 2016.91 259.475 Q2018.53 258.434 2018.53 256.559 Q2018.53 254.822 2017.35 253.896 Q2016.2 252.971 2012.24 252.114 L2010.76 251.767 Q2006.8 250.934 2005.04 249.221 Q2003.28 247.484 2003.28 244.475 Q2003.28 240.818 2005.87 238.827 Q2008.46 236.836 2013.23 236.836 Q2015.59 236.836 2017.68 237.184 Q2019.76 237.531 2021.52 238.225 Z" fill="#000000" fill-rule="evenodd" fill-opacity="1" /><path clip-path="url(#clip020)" d="M2033.9 230.1 L2033.9 237.461 L2042.68 237.461 L2042.68 240.772 L2033.9 240.772 L2033.9 254.846 Q2033.9 258.017 2034.76 258.92 Q2035.64 259.822 2038.3 259.822 L2042.68 259.822 L2042.68 263.387 L2038.3 263.387 Q2033.37 263.387 2031.5 261.558 Q2029.62 259.707 2029.62 254.846 L2029.62 240.772 L2026.5 240.772 L2026.5 237.461 L2029.62 237.461 L2029.62 230.1 L2033.9 230.1 Z" fill="#000000" fill-rule="evenodd" fill-opacity="1" /><path clip-path="url(#clip020)" d="M2070.45 249.359 L2070.45 251.443 L2050.87 251.443 Q2051.15 255.841 2053.51 258.156 Q2055.89 260.447 2060.13 260.447 Q2062.58 260.447 2064.88 259.846 Q2067.19 259.244 2069.46 258.04 L2069.46 262.068 Q2067.17 263.04 2064.76 263.549 Q2062.35 264.058 2059.88 264.058 Q2053.67 264.058 2050.04 260.447 Q2046.43 256.836 2046.43 250.679 Q2046.43 244.313 2049.85 240.586 Q2053.3 236.836 2059.14 236.836 Q2064.37 236.836 2067.4 240.216 Q2070.45 243.572 2070.45 249.359 M2066.2 248.109 Q2066.15 244.614 2064.23 242.531 Q2062.33 240.447 2059.18 240.447 Q2055.62 240.447 2053.46 242.461 Q2051.33 244.475 2051.01 248.133 L2066.2 248.109 Z" fill="#000000" fill-rule="evenodd" fill-opacity="1" /><path clip-path="url(#clip020)" d="M2092.47 241.443 Q2091.75 241.026 2090.89 240.841 Q2090.06 240.633 2089.04 240.633 Q2085.43 240.633 2083.49 242.994 Q2081.57 245.332 2081.57 249.73 L2081.57 263.387 L2077.28 263.387 L2077.28 237.461 L2081.57 237.461 L2081.57 241.489 Q2082.91 239.128 2085.06 237.994 Q2087.21 236.836 2090.29 236.836 Q2090.73 236.836 2091.26 236.906 Q2091.8 236.952 2092.45 237.068 L2092.47 241.443 Z" fill="#000000" fill-rule="evenodd" fill-opacity="1" /></svg>
