<?xml version="1.0" encoding="utf-8"?>
<svg xmlns="http://www.w3.org/2000/svg" xmlns:xlink="http://www.w3.org/1999/xlink" width="576" height="384" viewBox="0 0 2304 1536">
<defs>
  <clipPath id="clip820">
    <rect x="0" y="0" width="2304" height="1536"/>
  </clipPath>
</defs>
<path clip-path="url(#clip820)" d="
M0 1536 L2304 1536 L2304 0 L0 0  Z
  " fill="#ffffff" fill-rule="evenodd" fill-opacity="1"/>
<defs>
  <clipPath id="clip821">
    <rect x="460" y="0" width="1614" height="1536"/>
  </clipPath>
</defs>
<path clip-path="url(#clip820)" d="
M250.882 1347.54 L2256.76 1347.54 L2256.76 47.2441 L250.882 47.2441  Z
  " fill="#ffffff" fill-rule="evenodd" fill-opacity="1"/>
<defs>
  <clipPath id="clip822">
    <rect x="250" y="47" width="2007" height="1301"/>
  </clipPath>
</defs>
<polyline clip-path="url(#clip822)" style="stroke:#000000; stroke-linecap:butt; stroke-linejoin:round; stroke-width:2; stroke-opacity:0.1; fill:none" points="
  584.165,1347.54 584.165,47.2441 
  "/>
<polyline clip-path="url(#clip822)" style="stroke:#000000; stroke-linecap:butt; stroke-linejoin:round; stroke-width:2; stroke-opacity:0.1; fill:none" points="
  1143.65,1347.54 1143.65,47.2441 
  "/>
<polyline clip-path="url(#clip822)" style="stroke:#000000; stroke-linecap:butt; stroke-linejoin:round; stroke-width:2; stroke-opacity:0.1; fill:none" points="
  1703.14,1347.54 1703.14,47.2441 
  "/>
<polyline clip-path="url(#clip820)" style="stroke:#000000; stroke-linecap:butt; stroke-linejoin:round; stroke-width:4; stroke-opacity:1; fill:none" points="
  250.882,1347.54 2256.76,1347.54 
  "/>
<polyline clip-path="url(#clip820)" style="stroke:#000000; stroke-linecap:butt; stroke-linejoin:round; stroke-width:4; stroke-opacity:1; fill:none" points="
  584.165,1347.54 584.165,1328.64 
  "/>
<polyline clip-path="url(#clip820)" style="stroke:#000000; stroke-linecap:butt; stroke-linejoin:round; stroke-width:4; stroke-opacity:1; fill:none" points="
  1143.65,1347.54 1143.65,1328.64 
  "/>
<polyline clip-path="url(#clip820)" style="stroke:#000000; stroke-linecap:butt; stroke-linejoin:round; stroke-width:4; stroke-opacity:1; fill:none" points="
  1703.14,1347.54 1703.14,1328.64 
  "/>
<path clip-path="url(#clip820)" d="M533.819 1420.89 L541.458 1420.89 L541.458 1394.53 L533.148 1396.19 L533.148 1391.94 L541.412 1390.27 L546.088 1390.27 L546.088 1420.89 L553.727 1420.89 L553.727 1424.83 L533.819 1424.83 L533.819 1420.89 Z" fill="#000000" fill-rule="evenodd" fill-opacity="1" /><path clip-path="url(#clip820)" d="M573.171 1393.35 Q569.56 1393.35 567.731 1396.91 Q565.926 1400.45 565.926 1407.58 Q565.926 1414.69 567.731 1418.25 Q569.56 1421.8 573.171 1421.8 Q576.805 1421.8 578.611 1418.25 Q580.439 1414.69 580.439 1407.58 Q580.439 1400.45 578.611 1396.91 Q576.805 1393.35 573.171 1393.35 M573.171 1389.64 Q578.981 1389.64 582.037 1394.25 Q585.115 1398.83 585.115 1407.58 Q585.115 1416.31 582.037 1420.92 Q578.981 1425.5 573.171 1425.5 Q567.361 1425.5 564.282 1420.92 Q561.226 1416.31 561.226 1407.58 Q561.226 1398.83 564.282 1394.25 Q567.361 1389.64 573.171 1389.64 Z" fill="#000000" fill-rule="evenodd" fill-opacity="1" /><path clip-path="url(#clip820)" d="M585.115 1383.74 L609.227 1383.74 L609.227 1386.94 L585.115 1386.94 L585.115 1383.74 Z" fill="#000000" fill-rule="evenodd" fill-opacity="1" /><path clip-path="url(#clip820)" d="M625.552 1384.08 Q622.844 1384.08 621.283 1385.53 Q619.74 1386.98 619.74 1389.52 Q619.74 1392.06 621.283 1393.51 Q622.844 1394.95 625.552 1394.95 Q628.26 1394.95 629.821 1393.51 Q631.382 1392.04 631.382 1389.52 Q631.382 1386.98 629.821 1385.53 Q628.279 1384.08 625.552 1384.08 M621.753 1382.47 Q619.308 1381.86 617.935 1380.19 Q616.581 1378.52 616.581 1376.11 Q616.581 1372.74 618.969 1370.79 Q621.377 1368.83 625.552 1368.83 Q629.746 1368.83 632.135 1370.79 Q634.523 1372.74 634.523 1376.11 Q634.523 1378.52 633.15 1380.19 Q631.796 1381.86 629.37 1382.47 Q632.116 1383.11 633.639 1384.97 Q635.182 1386.83 635.182 1389.52 Q635.182 1393.6 632.68 1395.78 Q630.197 1397.96 625.552 1397.96 Q620.906 1397.96 618.405 1395.78 Q615.922 1393.6 615.922 1389.52 Q615.922 1386.83 617.465 1384.97 Q619.007 1383.11 621.753 1382.47 M620.361 1376.47 Q620.361 1378.65 621.715 1379.87 Q623.088 1381.09 625.552 1381.09 Q627.997 1381.09 629.37 1379.87 Q630.762 1378.65 630.762 1376.47 Q630.762 1374.28 629.37 1373.06 Q627.997 1371.84 625.552 1371.84 Q623.088 1371.84 621.715 1373.06 Q620.361 1374.28 620.361 1376.47 Z" fill="#000000" fill-rule="evenodd" fill-opacity="1" /><path clip-path="url(#clip820)" d="M1093.2 1420.89 L1100.84 1420.89 L1100.84 1394.53 L1092.53 1396.19 L1092.53 1391.94 L1100.8 1390.27 L1105.47 1390.27 L1105.47 1420.89 L1113.11 1420.89 L1113.11 1424.83 L1093.2 1424.83 L1093.2 1420.89 Z" fill="#000000" fill-rule="evenodd" fill-opacity="1" /><path clip-path="url(#clip820)" d="M1132.56 1393.35 Q1128.94 1393.35 1127.12 1396.91 Q1125.31 1400.45 1125.31 1407.58 Q1125.31 1414.69 1127.12 1418.25 Q1128.94 1421.8 1132.56 1421.8 Q1136.19 1421.8 1137.99 1418.25 Q1139.82 1414.69 1139.82 1407.58 Q1139.82 1400.45 1137.99 1396.91 Q1136.19 1393.35 1132.56 1393.35 M1132.56 1389.64 Q1138.37 1389.64 1141.42 1394.25 Q1144.5 1398.83 1144.5 1407.58 Q1144.5 1416.31 1141.42 1420.92 Q1138.37 1425.5 1132.56 1425.5 Q1126.74 1425.5 1123.67 1420.92 Q1120.61 1416.31 1120.61 1407.58 Q1120.61 1398.83 1123.67 1394.25 Q1126.74 1389.64 1132.56 1389.64 Z" fill="#000000" fill-rule="evenodd" fill-opacity="1" /><path clip-path="url(#clip820)" d="M1144.5 1383.74 L1168.61 1383.74 L1168.61 1386.94 L1144.5 1386.94 L1144.5 1383.74 Z" fill="#000000" fill-rule="evenodd" fill-opacity="1" /><path clip-path="url(#clip820)" d="M1185.41 1381.86 Q1182.85 1381.86 1181.34 1383.61 Q1179.86 1385.36 1179.86 1388.41 Q1179.86 1391.44 1181.34 1393.21 Q1182.85 1394.95 1185.41 1394.95 Q1187.96 1394.95 1189.45 1393.21 Q1190.95 1391.44 1190.95 1388.41 Q1190.95 1385.36 1189.45 1383.61 Q1187.96 1381.86 1185.41 1381.86 M1192.95 1369.96 L1192.95 1373.42 Q1191.52 1372.74 1190.05 1372.39 Q1188.6 1372.03 1187.17 1372.03 Q1183.41 1372.03 1181.42 1374.57 Q1179.44 1377.11 1179.16 1382.24 Q1180.27 1380.6 1181.95 1379.74 Q1183.62 1378.85 1185.63 1378.85 Q1189.86 1378.85 1192.31 1381.43 Q1194.77 1383.99 1194.77 1388.41 Q1194.77 1392.74 1192.21 1395.35 Q1189.66 1397.96 1185.41 1397.96 Q1180.54 1397.96 1177.96 1394.24 Q1175.38 1390.5 1175.38 1383.41 Q1175.38 1376.75 1178.54 1372.8 Q1181.7 1368.83 1187.02 1368.83 Q1188.45 1368.83 1189.9 1369.11 Q1191.37 1369.39 1192.95 1369.96 Z" fill="#000000" fill-rule="evenodd" fill-opacity="1" /><path clip-path="url(#clip820)" d="M1652.56 1420.89 L1660.2 1420.89 L1660.2 1394.53 L1651.89 1396.19 L1651.89 1391.94 L1660.15 1390.27 L1664.83 1390.27 L1664.83 1420.89 L1672.47 1420.89 L1672.47 1424.83 L1652.56 1424.83 L1652.56 1420.89 Z" fill="#000000" fill-rule="evenodd" fill-opacity="1" /><path clip-path="url(#clip820)" d="M1691.91 1393.35 Q1688.3 1393.35 1686.47 1396.91 Q1684.67 1400.45 1684.67 1407.58 Q1684.67 1414.69 1686.47 1418.25 Q1688.3 1421.8 1691.91 1421.8 Q1695.55 1421.8 1697.35 1418.25 Q1699.18 1414.69 1699.18 1407.58 Q1699.18 1400.45 1697.35 1396.91 Q1695.55 1393.35 1691.91 1393.35 M1691.91 1389.64 Q1697.72 1389.64 1700.78 1394.25 Q1703.86 1398.83 1703.86 1407.58 Q1703.86 1416.31 1700.78 1420.92 Q1697.72 1425.5 1691.91 1425.5 Q1686.1 1425.5 1683.02 1420.92 Q1679.97 1416.31 1679.97 1407.58 Q1679.97 1398.83 1683.02 1394.25 Q1686.1 1389.64 1691.91 1389.64 Z" fill="#000000" fill-rule="evenodd" fill-opacity="1" /><path clip-path="url(#clip820)" d="M1703.86 1383.74 L1727.97 1383.74 L1727.97 1386.94 L1703.86 1386.94 L1703.86 1383.74 Z" fill="#000000" fill-rule="evenodd" fill-opacity="1" /><path clip-path="url(#clip820)" d="M1746.61 1372.65 L1737.01 1387.64 L1746.61 1387.64 L1746.61 1372.65 M1745.61 1369.34 L1750.39 1369.34 L1750.39 1387.64 L1754.39 1387.64 L1754.39 1390.8 L1750.39 1390.8 L1750.39 1397.42 L1746.61 1397.42 L1746.61 1390.8 L1733.93 1390.8 L1733.93 1387.13 L1745.61 1369.34 Z" fill="#000000" fill-rule="evenodd" fill-opacity="1" /><path clip-path="url(#clip820)" d="M1177.57 1461.87 L1207.62 1461.87 L1207.62 1467.28 L1184 1467.28 L1184 1481.34 L1206.63 1481.34 L1206.63 1486.76 L1184 1486.76 L1184 1503.97 L1208.19 1503.97 L1208.19 1509.39 L1177.57 1509.39 L1177.57 1461.87 Z" fill="#000000" fill-rule="evenodd" fill-opacity="1" /><path clip-path="url(#clip820)" d="M1239.16 1479.21 Q1238.18 1478.64 1237 1478.38 Q1235.85 1478.1 1234.45 1478.1 Q1229.49 1478.1 1226.81 1481.34 Q1224.17 1484.56 1224.17 1490.61 L1224.17 1509.39 L1218.28 1509.39 L1218.28 1473.74 L1224.17 1473.74 L1224.17 1479.28 Q1226.02 1476.03 1228.98 1474.47 Q1231.94 1472.88 1236.17 1472.88 Q1236.77 1472.88 1237.51 1472.97 Q1238.24 1473.04 1239.13 1473.2 L1239.16 1479.21 Z" fill="#000000" fill-rule="evenodd" fill-opacity="1" /><path clip-path="url(#clip820)" d="M1264.82 1479.21 Q1263.83 1478.64 1262.65 1478.38 Q1261.51 1478.1 1260.11 1478.1 Q1255.14 1478.1 1252.47 1481.34 Q1249.82 1484.56 1249.82 1490.61 L1249.82 1509.39 L1243.94 1509.39 L1243.94 1473.74 L1249.82 1473.74 L1249.82 1479.28 Q1251.67 1476.03 1254.63 1474.47 Q1257.59 1472.88 1261.82 1472.88 Q1262.43 1472.88 1263.16 1472.97 Q1263.89 1473.04 1264.78 1473.2 L1264.82 1479.21 Z" fill="#000000" fill-rule="evenodd" fill-opacity="1" /><path clip-path="url(#clip820)" d="M1283.34 1477.84 Q1278.63 1477.84 1275.89 1481.54 Q1273.15 1485.2 1273.15 1491.59 Q1273.15 1497.99 1275.86 1501.68 Q1278.6 1505.34 1283.34 1505.34 Q1288.02 1505.34 1290.76 1501.65 Q1293.49 1497.96 1293.49 1491.59 Q1293.49 1485.26 1290.76 1481.57 Q1288.02 1477.84 1283.34 1477.84 M1283.34 1472.88 Q1290.98 1472.88 1295.34 1477.84 Q1299.7 1482.81 1299.7 1491.59 Q1299.7 1500.35 1295.34 1505.34 Q1290.98 1510.31 1283.34 1510.31 Q1275.67 1510.31 1271.31 1505.34 Q1266.98 1500.35 1266.98 1491.59 Q1266.98 1482.81 1271.31 1477.84 Q1275.67 1472.88 1283.34 1472.88 Z" fill="#000000" fill-rule="evenodd" fill-opacity="1" /><path clip-path="url(#clip820)" d="M1330.06 1479.21 Q1329.08 1478.64 1327.9 1478.38 Q1326.75 1478.1 1325.35 1478.1 Q1320.39 1478.1 1317.71 1481.34 Q1315.07 1484.56 1315.07 1490.61 L1315.07 1509.39 L1309.18 1509.39 L1309.18 1473.74 L1315.07 1473.74 L1315.07 1479.28 Q1316.92 1476.03 1319.88 1474.47 Q1322.84 1472.88 1327.07 1472.88 Q1327.68 1472.88 1328.41 1472.97 Q1329.14 1473.04 1330.03 1473.2 L1330.06 1479.21 Z" fill="#000000" fill-rule="evenodd" fill-opacity="1" /><polyline clip-path="url(#clip822)" style="stroke:#000000; stroke-linecap:butt; stroke-linejoin:round; stroke-width:2; stroke-opacity:0.1; fill:none" points="
  250.882,1282.11 2256.76,1282.11 
  "/>
<polyline clip-path="url(#clip822)" style="stroke:#000000; stroke-linecap:butt; stroke-linejoin:round; stroke-width:2; stroke-opacity:0.1; fill:none" points="
  250.882,726.789 2256.76,726.789 
  "/>
<polyline clip-path="url(#clip822)" style="stroke:#000000; stroke-linecap:butt; stroke-linejoin:round; stroke-width:2; stroke-opacity:0.1; fill:none" points="
  250.882,171.468 2256.76,171.468 
  "/>
<polyline clip-path="url(#clip820)" style="stroke:#000000; stroke-linecap:butt; stroke-linejoin:round; stroke-width:4; stroke-opacity:1; fill:none" points="
  250.882,1347.54 250.882,47.2441 
  "/>
<polyline clip-path="url(#clip820)" style="stroke:#000000; stroke-linecap:butt; stroke-linejoin:round; stroke-width:4; stroke-opacity:1; fill:none" points="
  250.882,1282.11 269.78,1282.11 
  "/>
<polyline clip-path="url(#clip820)" style="stroke:#000000; stroke-linecap:butt; stroke-linejoin:round; stroke-width:4; stroke-opacity:1; fill:none" points="
  250.882,726.789 269.78,726.789 
  "/>
<polyline clip-path="url(#clip820)" style="stroke:#000000; stroke-linecap:butt; stroke-linejoin:round; stroke-width:4; stroke-opacity:1; fill:none" points="
  250.882,171.468 269.78,171.468 
  "/>
<path clip-path="url(#clip820)" d="M115.411 1301.9 L123.05 1301.9 L123.05 1275.54 L114.74 1277.2 L114.74 1272.94 L123.004 1271.28 L127.68 1271.28 L127.68 1301.9 L135.319 1301.9 L135.319 1305.84 L115.411 1305.84 L115.411 1301.9 Z" fill="#000000" fill-rule="evenodd" fill-opacity="1" /><path clip-path="url(#clip820)" d="M154.763 1274.36 Q151.152 1274.36 149.323 1277.92 Q147.518 1281.46 147.518 1288.59 Q147.518 1295.7 149.323 1299.26 Q151.152 1302.8 154.763 1302.8 Q158.397 1302.8 160.203 1299.26 Q162.032 1295.7 162.032 1288.59 Q162.032 1281.46 160.203 1277.92 Q158.397 1274.36 154.763 1274.36 M154.763 1270.65 Q160.573 1270.65 163.629 1275.26 Q166.707 1279.84 166.707 1288.59 Q166.707 1297.32 163.629 1301.92 Q160.573 1306.51 154.763 1306.51 Q148.953 1306.51 145.874 1301.92 Q142.819 1297.32 142.819 1288.59 Q142.819 1279.84 145.874 1275.26 Q148.953 1270.65 154.763 1270.65 Z" fill="#000000" fill-rule="evenodd" fill-opacity="1" /><path clip-path="url(#clip820)" d="M166.707 1264.75 L190.819 1264.75 L190.819 1267.95 L166.707 1267.95 L166.707 1264.75 Z" fill="#000000" fill-rule="evenodd" fill-opacity="1" /><path clip-path="url(#clip820)" d="M210.53 1263.29 Q213.257 1263.87 214.78 1265.71 Q216.322 1267.56 216.322 1270.26 Q216.322 1274.42 213.464 1276.7 Q210.605 1278.97 205.339 1278.97 Q203.571 1278.97 201.69 1278.61 Q199.828 1278.28 197.834 1277.58 L197.834 1273.91 Q199.414 1274.83 201.295 1275.3 Q203.176 1275.77 205.226 1275.77 Q208.799 1275.77 210.661 1274.36 Q212.542 1272.95 212.542 1270.26 Q212.542 1267.78 210.793 1266.39 Q209.063 1264.98 205.959 1264.98 L202.687 1264.98 L202.687 1261.86 L206.11 1261.86 Q208.912 1261.86 210.398 1260.75 Q211.884 1259.62 211.884 1257.51 Q211.884 1255.35 210.341 1254.2 Q208.818 1253.04 205.959 1253.04 Q204.398 1253.04 202.612 1253.37 Q200.825 1253.71 198.681 1254.43 L198.681 1251.04 Q200.844 1250.44 202.724 1250.14 Q204.624 1249.84 206.298 1249.84 Q210.624 1249.84 213.144 1251.81 Q215.664 1253.77 215.664 1257.12 Q215.664 1259.45 214.329 1261.07 Q212.993 1262.67 210.53 1263.29 Z" fill="#000000" fill-rule="evenodd" fill-opacity="1" /><path clip-path="url(#clip820)" d="M116.183 746.581 L123.821 746.581 L123.821 720.216 L115.511 721.882 L115.511 717.623 L123.775 715.956 L128.451 715.956 L128.451 746.581 L136.09 746.581 L136.09 750.516 L116.183 750.516 L116.183 746.581 Z" fill="#000000" fill-rule="evenodd" fill-opacity="1" /><path clip-path="url(#clip820)" d="M155.534 719.035 Q151.923 719.035 150.094 722.6 Q148.289 726.141 148.289 733.271 Q148.289 740.377 150.094 743.942 Q151.923 747.484 155.534 747.484 Q159.168 747.484 160.974 743.942 Q162.803 740.377 162.803 733.271 Q162.803 726.141 160.974 722.6 Q159.168 719.035 155.534 719.035 M155.534 715.331 Q161.344 715.331 164.4 719.938 Q167.479 724.521 167.479 733.271 Q167.479 741.998 164.4 746.604 Q161.344 751.188 155.534 751.188 Q149.724 751.188 146.645 746.604 Q143.59 741.998 143.59 733.271 Q143.59 724.521 146.645 719.938 Q149.724 715.331 155.534 715.331 Z" fill="#000000" fill-rule="evenodd" fill-opacity="1" /><path clip-path="url(#clip820)" d="M167.479 709.433 L191.59 709.433 L191.59 712.63 L167.479 712.63 L167.479 709.433 Z" fill="#000000" fill-rule="evenodd" fill-opacity="1" /><path clip-path="url(#clip820)" d="M203.063 719.909 L216.322 719.909 L216.322 723.106 L198.493 723.106 L198.493 719.909 Q200.655 717.67 204.379 713.909 Q208.122 710.129 209.081 709.038 Q210.906 706.988 211.62 705.577 Q212.354 704.148 212.354 702.775 Q212.354 700.537 210.774 699.126 Q209.213 697.715 206.693 697.715 Q204.906 697.715 202.912 698.336 Q200.938 698.957 198.681 700.217 L198.681 696.38 Q200.975 695.459 202.969 694.988 Q204.962 694.518 206.618 694.518 Q210.981 694.518 213.576 696.7 Q216.172 698.882 216.172 702.53 Q216.172 704.261 215.514 705.822 Q214.874 707.364 213.163 709.47 Q212.692 710.016 210.172 712.63 Q207.652 715.225 203.063 719.909 Z" fill="#000000" fill-rule="evenodd" fill-opacity="1" /><path clip-path="url(#clip820)" d="M115.882 191.261 L123.52 191.261 L123.52 164.895 L115.21 166.562 L115.21 162.303 L123.474 160.636 L128.15 160.636 L128.15 191.261 L135.789 191.261 L135.789 195.196 L115.882 195.196 L115.882 191.261 Z" fill="#000000" fill-rule="evenodd" fill-opacity="1" /><path clip-path="url(#clip820)" d="M155.233 163.715 Q151.622 163.715 149.793 167.28 Q147.988 170.821 147.988 177.951 Q147.988 185.057 149.793 188.622 Q151.622 192.164 155.233 192.164 Q158.868 192.164 160.673 188.622 Q162.502 185.057 162.502 177.951 Q162.502 170.821 160.673 167.28 Q158.868 163.715 155.233 163.715 M155.233 160.011 Q161.043 160.011 164.099 164.618 Q167.178 169.201 167.178 177.951 Q167.178 186.678 164.099 191.284 Q161.043 195.867 155.233 195.867 Q149.423 195.867 146.344 191.284 Q143.289 186.678 143.289 177.951 Q143.289 169.201 146.344 164.618 Q149.423 160.011 155.233 160.011 Z" fill="#000000" fill-rule="evenodd" fill-opacity="1" /><path clip-path="url(#clip820)" d="M167.178 154.112 L191.289 154.112 L191.289 157.31 L167.178 157.31 L167.178 154.112 Z" fill="#000000" fill-rule="evenodd" fill-opacity="1" /><path clip-path="url(#clip820)" d="M200.148 164.588 L206.354 164.588 L206.354 143.166 L199.602 144.52 L199.602 141.06 L206.317 139.706 L210.116 139.706 L210.116 164.588 L216.322 164.588 L216.322 167.786 L200.148 167.786 L200.148 164.588 Z" fill="#000000" fill-rule="evenodd" fill-opacity="1" /><path clip-path="url(#clip820)" d="M18.4042 827.219 L18.4042 787.02 L23.815 787.02 L23.815 803.889 L65.9242 803.889 L65.9242 810.35 L23.815 810.35 L23.815 827.219 L18.4042 827.219 Z" fill="#000000" fill-rule="evenodd" fill-opacity="1" /><path clip-path="url(#clip820)" d="M30.2762 783.073 L30.2762 777.216 L65.9242 777.216 L65.9242 783.073 L30.2762 783.073 M16.399 783.073 L16.399 777.216 L23.815 777.216 L23.815 783.073 L16.399 783.073 Z" fill="#000000" fill-rule="evenodd" fill-opacity="1" /><path clip-path="url(#clip820)" d="M37.1193 737.208 Q33.1726 735.012 31.2947 731.956 Q29.4168 728.901 29.4168 724.763 Q29.4168 719.193 33.3317 716.169 Q37.2148 713.145 44.4081 713.145 L65.9242 713.145 L65.9242 719.034 L44.599 719.034 Q39.4746 719.034 36.992 720.848 Q34.5094 722.662 34.5094 726.386 Q34.5094 730.938 37.5331 733.579 Q40.5568 736.221 45.7767 736.221 L65.9242 736.221 L65.9242 742.109 L44.599 742.109 Q39.4428 742.109 36.992 743.924 Q34.5094 745.738 34.5094 749.526 Q34.5094 754.013 37.5649 756.655 Q40.5886 759.297 45.7767 759.297 L65.9242 759.297 L65.9242 765.185 L30.2762 765.185 L30.2762 759.297 L35.8144 759.297 Q32.536 757.292 30.9764 754.491 Q29.4168 751.69 29.4168 747.839 Q29.4168 743.956 31.3902 741.25 Q33.3636 738.513 37.1193 737.208 Z" fill="#000000" fill-rule="evenodd" fill-opacity="1" /><path clip-path="url(#clip820)" d="M46.6361 670.973 L49.5006 670.973 L49.5006 697.9 Q55.5481 697.518 58.7309 694.271 Q61.8819 690.993 61.8819 685.168 Q61.8819 681.794 61.0544 678.643 Q60.2269 675.461 58.5718 672.341 L64.1099 672.341 Q65.4467 675.492 66.147 678.803 Q66.8472 682.113 66.8472 685.518 Q66.8472 694.048 61.8819 699.045 Q56.9167 704.011 48.4503 704.011 Q39.6974 704.011 34.5731 699.3 Q29.4168 694.558 29.4168 686.537 Q29.4168 679.344 34.0638 675.174 Q38.6789 670.973 46.6361 670.973 M44.9173 676.829 Q40.1112 676.893 37.2466 679.535 Q34.3821 682.145 34.3821 686.473 Q34.3821 691.375 37.1512 694.335 Q39.9202 697.263 44.9492 697.709 L44.9173 676.829 Z" fill="#000000" fill-rule="evenodd" fill-opacity="1" /><path clip-path="url(#clip820)" d="M16.4626 626.572 Q23.7832 630.837 30.9446 632.906 Q38.106 634.975 45.4584 634.975 Q52.8108 634.975 60.0359 632.906 Q67.2291 630.805 74.5179 626.572 L74.5179 631.664 Q67.0382 636.439 59.8131 638.826 Q52.588 641.181 45.4584 641.181 Q38.3606 641.181 31.1674 638.826 Q23.9742 636.471 16.4626 631.664 L16.4626 626.572 Z" fill="#000000" fill-rule="evenodd" fill-opacity="1" /><path clip-path="url(#clip820)" d="M31.3265 592.484 L36.8647 592.484 Q35.5916 594.966 34.955 597.64 Q34.3184 600.313 34.3184 603.178 Q34.3184 607.538 35.6552 609.735 Q36.992 611.899 39.6656 611.899 Q41.7026 611.899 42.8803 610.339 Q44.0261 608.78 45.0765 604.069 L45.5221 602.064 Q46.8589 595.826 49.3097 593.216 Q51.7286 590.574 56.0891 590.574 Q61.0544 590.574 63.9508 594.521 Q66.8472 598.435 66.8472 605.31 Q66.8472 608.175 66.2743 611.294 Q65.7332 614.382 64.6192 617.819 L58.5718 617.819 Q60.2587 614.573 61.118 611.422 Q61.9456 608.27 61.9456 605.183 Q61.9456 601.045 60.5451 598.817 Q59.1129 596.589 56.5347 596.589 Q54.1476 596.589 52.8745 598.213 Q51.6013 599.804 50.4237 605.247 L49.9462 607.284 Q48.8004 612.726 46.4451 615.145 Q44.058 617.564 39.9202 617.564 Q34.8913 617.564 32.1541 614 Q29.4168 610.435 29.4168 603.878 Q29.4168 600.632 29.8943 597.767 Q30.3717 594.902 31.3265 592.484 Z" fill="#000000" fill-rule="evenodd" fill-opacity="1" /><path clip-path="url(#clip820)" d="M16.4626 582.171 L16.4626 577.079 Q23.9742 572.304 31.1674 569.949 Q38.3606 567.562 45.4584 567.562 Q52.588 567.562 59.8131 569.949 Q67.0382 572.304 74.5179 577.079 L74.5179 582.171 Q67.2291 577.938 60.0359 575.869 Q52.8108 573.768 45.4584 573.768 Q38.106 573.768 30.9446 575.869 Q23.7832 577.938 16.4626 582.171 Z" fill="#000000" fill-rule="evenodd" fill-opacity="1" /><polyline clip-path="url(#clip822)" style="stroke:#009af9; stroke-linecap:butt; stroke-linejoin:round; stroke-width:12; stroke-opacity:1; fill:none" points="
  1960.76,874.053 1733.44,655.775 1485.58,456.251 1224.41,278.026 950.907,84.0448 
  "/>
<line clip-path="url(#clip822)" x1="1960.76" y1="874.053" x2="1960.76" y2="858.053" style="stroke:#009af9; stroke-width:3.072; stroke-opacity:1"/>
<line clip-path="url(#clip822)" x1="1960.76" y1="874.053" x2="1944.76" y2="874.053" style="stroke:#009af9; stroke-width:3.072; stroke-opacity:1"/>
<line clip-path="url(#clip822)" x1="1960.76" y1="874.053" x2="1960.76" y2="890.053" style="stroke:#009af9; stroke-width:3.072; stroke-opacity:1"/>
<line clip-path="url(#clip822)" x1="1960.76" y1="874.053" x2="1976.76" y2="874.053" style="stroke:#009af9; stroke-width:3.072; stroke-opacity:1"/>
<line clip-path="url(#clip822)" x1="1733.44" y1="655.775" x2="1733.44" y2="639.775" style="stroke:#009af9; stroke-width:3.072; stroke-opacity:1"/>
<line clip-path="url(#clip822)" x1="1733.44" y1="655.775" x2="1717.44" y2="655.775" style="stroke:#009af9; stroke-width:3.072; stroke-opacity:1"/>
<line clip-path="url(#clip822)" x1="1733.44" y1="655.775" x2="1733.44" y2="671.775" style="stroke:#009af9; stroke-width:3.072; stroke-opacity:1"/>
<line clip-path="url(#clip822)" x1="1733.44" y1="655.775" x2="1749.44" y2="655.775" style="stroke:#009af9; stroke-width:3.072; stroke-opacity:1"/>
<line clip-path="url(#clip822)" x1="1485.58" y1="456.251" x2="1485.58" y2="440.251" style="stroke:#009af9; stroke-width:3.072; stroke-opacity:1"/>
<line clip-path="url(#clip822)" x1="1485.58" y1="456.251" x2="1469.58" y2="456.251" style="stroke:#009af9; stroke-width:3.072; stroke-opacity:1"/>
<line clip-path="url(#clip822)" x1="1485.58" y1="456.251" x2="1485.58" y2="472.251" style="stroke:#009af9; stroke-width:3.072; stroke-opacity:1"/>
<line clip-path="url(#clip822)" x1="1485.58" y1="456.251" x2="1501.58" y2="456.251" style="stroke:#009af9; stroke-width:3.072; stroke-opacity:1"/>
<line clip-path="url(#clip822)" x1="1224.41" y1="278.026" x2="1224.41" y2="262.026" style="stroke:#009af9; stroke-width:3.072; stroke-opacity:1"/>
<line clip-path="url(#clip822)" x1="1224.41" y1="278.026" x2="1208.41" y2="278.026" style="stroke:#009af9; stroke-width:3.072; stroke-opacity:1"/>
<line clip-path="url(#clip822)" x1="1224.41" y1="278.026" x2="1224.41" y2="294.026" style="stroke:#009af9; stroke-width:3.072; stroke-opacity:1"/>
<line clip-path="url(#clip822)" x1="1224.41" y1="278.026" x2="1240.41" y2="278.026" style="stroke:#009af9; stroke-width:3.072; stroke-opacity:1"/>
<line clip-path="url(#clip822)" x1="950.907" y1="84.0448" x2="950.907" y2="68.0448" style="stroke:#009af9; stroke-width:3.072; stroke-opacity:1"/>
<line clip-path="url(#clip822)" x1="950.907" y1="84.0448" x2="934.907" y2="84.0448" style="stroke:#009af9; stroke-width:3.072; stroke-opacity:1"/>
<line clip-path="url(#clip822)" x1="950.907" y1="84.0448" x2="950.907" y2="100.045" style="stroke:#009af9; stroke-width:3.072; stroke-opacity:1"/>
<line clip-path="url(#clip822)" x1="950.907" y1="84.0448" x2="966.907" y2="84.0448" style="stroke:#009af9; stroke-width:3.072; stroke-opacity:1"/>
<polyline clip-path="url(#clip822)" style="stroke:#e26f46; stroke-linecap:butt; stroke-linejoin:round; stroke-width:12; stroke-opacity:1; fill:none" points="
  2199.99,989.854 1982.07,943.329 1756.33,862.634 1505.22,842.415 1248.98,777.492 
  "/>
<circle clip-path="url(#clip822)" cx="2199.99" cy="989.854" r="14" fill="#e26f46" fill-rule="evenodd" fill-opacity="1" stroke="#000000" stroke-opacity="1" stroke-width="3.072"/>
<circle clip-path="url(#clip822)" cx="1982.07" cy="943.329" r="14" fill="#e26f46" fill-rule="evenodd" fill-opacity="1" stroke="#000000" stroke-opacity="1" stroke-width="3.072"/>
<circle clip-path="url(#clip822)" cx="1756.33" cy="862.634" r="14" fill="#e26f46" fill-rule="evenodd" fill-opacity="1" stroke="#000000" stroke-opacity="1" stroke-width="3.072"/>
<circle clip-path="url(#clip822)" cx="1505.22" cy="842.415" r="14" fill="#e26f46" fill-rule="evenodd" fill-opacity="1" stroke="#000000" stroke-opacity="1" stroke-width="3.072"/>
<circle clip-path="url(#clip822)" cx="1248.98" cy="777.492" r="14" fill="#e26f46" fill-rule="evenodd" fill-opacity="1" stroke="#000000" stroke-opacity="1" stroke-width="3.072"/>
<polyline clip-path="url(#clip822)" style="stroke:#3da44d; stroke-linecap:butt; stroke-linejoin:round; stroke-width:12; stroke-opacity:1; fill:none" points="
  1629.39,1222.73 1345.12,1115.75 1045.87,985.652 761.844,836.372 472.568,656.401 
  "/>
<line clip-path="url(#clip822)" x1="1629.39" y1="1222.73" x2="1629.39" y2="1206.73" style="stroke:#3da44d; stroke-width:3.072; stroke-opacity:1"/>
<line clip-path="url(#clip822)" x1="1629.39" y1="1222.73" x2="1613.39" y2="1222.73" style="stroke:#3da44d; stroke-width:3.072; stroke-opacity:1"/>
<line clip-path="url(#clip822)" x1="1629.39" y1="1222.73" x2="1629.39" y2="1238.73" style="stroke:#3da44d; stroke-width:3.072; stroke-opacity:1"/>
<line clip-path="url(#clip822)" x1="1629.39" y1="1222.73" x2="1645.39" y2="1222.73" style="stroke:#3da44d; stroke-width:3.072; stroke-opacity:1"/>
<line clip-path="url(#clip822)" x1="1345.12" y1="1115.75" x2="1345.12" y2="1099.75" style="stroke:#3da44d; stroke-width:3.072; stroke-opacity:1"/>
<line clip-path="url(#clip822)" x1="1345.12" y1="1115.75" x2="1329.12" y2="1115.75" style="stroke:#3da44d; stroke-width:3.072; stroke-opacity:1"/>
<line clip-path="url(#clip822)" x1="1345.12" y1="1115.75" x2="1345.12" y2="1131.75" style="stroke:#3da44d; stroke-width:3.072; stroke-opacity:1"/>
<line clip-path="url(#clip822)" x1="1345.12" y1="1115.75" x2="1361.12" y2="1115.75" style="stroke:#3da44d; stroke-width:3.072; stroke-opacity:1"/>
<line clip-path="url(#clip822)" x1="1045.87" y1="985.652" x2="1045.87" y2="969.652" style="stroke:#3da44d; stroke-width:3.072; stroke-opacity:1"/>
<line clip-path="url(#clip822)" x1="1045.87" y1="985.652" x2="1029.87" y2="985.652" style="stroke:#3da44d; stroke-width:3.072; stroke-opacity:1"/>
<line clip-path="url(#clip822)" x1="1045.87" y1="985.652" x2="1045.87" y2="1001.65" style="stroke:#3da44d; stroke-width:3.072; stroke-opacity:1"/>
<line clip-path="url(#clip822)" x1="1045.87" y1="985.652" x2="1061.87" y2="985.652" style="stroke:#3da44d; stroke-width:3.072; stroke-opacity:1"/>
<line clip-path="url(#clip822)" x1="761.844" y1="836.372" x2="761.844" y2="820.372" style="stroke:#3da44d; stroke-width:3.072; stroke-opacity:1"/>
<line clip-path="url(#clip822)" x1="761.844" y1="836.372" x2="745.844" y2="836.372" style="stroke:#3da44d; stroke-width:3.072; stroke-opacity:1"/>
<line clip-path="url(#clip822)" x1="761.844" y1="836.372" x2="761.844" y2="852.372" style="stroke:#3da44d; stroke-width:3.072; stroke-opacity:1"/>
<line clip-path="url(#clip822)" x1="761.844" y1="836.372" x2="777.844" y2="836.372" style="stroke:#3da44d; stroke-width:3.072; stroke-opacity:1"/>
<line clip-path="url(#clip822)" x1="472.568" y1="656.401" x2="472.568" y2="640.401" style="stroke:#3da44d; stroke-width:3.072; stroke-opacity:1"/>
<line clip-path="url(#clip822)" x1="472.568" y1="656.401" x2="456.568" y2="656.401" style="stroke:#3da44d; stroke-width:3.072; stroke-opacity:1"/>
<line clip-path="url(#clip822)" x1="472.568" y1="656.401" x2="472.568" y2="672.401" style="stroke:#3da44d; stroke-width:3.072; stroke-opacity:1"/>
<line clip-path="url(#clip822)" x1="472.568" y1="656.401" x2="488.568" y2="656.401" style="stroke:#3da44d; stroke-width:3.072; stroke-opacity:1"/>
<polyline clip-path="url(#clip822)" style="stroke:#c271d2; stroke-linecap:butt; stroke-linejoin:round; stroke-width:12; stroke-opacity:1; fill:none" points="
  1560.16,889.23 1156.24,863.966 1041.27,817.222 653.061,764.399 307.652,737.968 
  "/>
<path clip-path="url(#clip822)" d="M1560.16 873.23 L1544.16 889.23 L1560.16 905.23 L1576.16 889.23 L1560.16 873.23 Z" fill="#c271d2" fill-rule="evenodd" fill-opacity="1" stroke="#000000" stroke-opacity="1" stroke-width="3.072"/>
<path clip-path="url(#clip822)" d="M1156.24 847.966 L1140.24 863.966 L1156.24 879.966 L1172.24 863.966 L1156.24 847.966 Z" fill="#c271d2" fill-rule="evenodd" fill-opacity="1" stroke="#000000" stroke-opacity="1" stroke-width="3.072"/>
<path clip-path="url(#clip822)" d="M1041.27 801.222 L1025.27 817.222 L1041.27 833.222 L1057.27 817.222 L1041.27 801.222 Z" fill="#c271d2" fill-rule="evenodd" fill-opacity="1" stroke="#000000" stroke-opacity="1" stroke-width="3.072"/>
<path clip-path="url(#clip822)" d="M653.061 748.399 L637.061 764.399 L653.061 780.399 L669.061 764.399 L653.061 748.399 Z" fill="#c271d2" fill-rule="evenodd" fill-opacity="1" stroke="#000000" stroke-opacity="1" stroke-width="3.072"/>
<path clip-path="url(#clip822)" d="M307.652 721.968 L291.652 737.968 L307.652 753.968 L323.652 737.968 L307.652 721.968 Z" fill="#c271d2" fill-rule="evenodd" fill-opacity="1" stroke="#000000" stroke-opacity="1" stroke-width="3.072"/>
<polyline clip-path="url(#clip822)" style="stroke:#ac8d18; stroke-linecap:butt; stroke-linejoin:round; stroke-width:12; stroke-opacity:1; fill:none" points="
  1853.37,1310.74 1514.85,1213.23 1167.08,1116.94 996.952,1029.7 746.093,867.959 
  "/>
<path clip-path="url(#clip822)" d="M1869.37 1294.74 L1837.37 1294.74 L1853.37 1326.74 L1869.37 1294.74 Z" fill="#ac8d18" fill-rule="evenodd" fill-opacity="1" stroke="#000000" stroke-opacity="1" stroke-width="3.072"/>
<path clip-path="url(#clip822)" d="M1530.85 1197.23 L1498.85 1197.23 L1514.85 1229.23 L1530.85 1197.23 Z" fill="#ac8d18" fill-rule="evenodd" fill-opacity="1" stroke="#000000" stroke-opacity="1" stroke-width="3.072"/>
<path clip-path="url(#clip822)" d="M1183.08 1100.94 L1151.08 1100.94 L1167.08 1132.94 L1183.08 1100.94 Z" fill="#ac8d18" fill-rule="evenodd" fill-opacity="1" stroke="#000000" stroke-opacity="1" stroke-width="3.072"/>
<path clip-path="url(#clip822)" d="M1012.95 1013.7 L980.952 1013.7 L996.952 1045.7 L1012.95 1013.7 Z" fill="#ac8d18" fill-rule="evenodd" fill-opacity="1" stroke="#000000" stroke-opacity="1" stroke-width="3.072"/>
<path clip-path="url(#clip822)" d="M762.093 851.959 L730.093 851.959 L746.093 883.959 L762.093 851.959 Z" fill="#ac8d18" fill-rule="evenodd" fill-opacity="1" stroke="#000000" stroke-opacity="1" stroke-width="3.072"/>
<path clip-path="url(#clip820)" d="
M1683.96 401.627 L2189.89 401.627 L2189.89 90.5872 L1683.96 90.5872  Z
  " fill="#ffffff" fill-rule="evenodd" fill-opacity="1"/>
<polyline clip-path="url(#clip820)" style="stroke:#000000; stroke-linecap:butt; stroke-linejoin:round; stroke-width:4; stroke-opacity:1; fill:none" points="
  1683.96,401.627 2189.89,401.627 2189.89,90.5872 1683.96,90.5872 1683.96,401.627 
  "/>
<polyline clip-path="url(#clip820)" style="stroke:#009af9; stroke-linecap:butt; stroke-linejoin:round; stroke-width:4; stroke-opacity:1; fill:none" points="
  1706.25,142.427 1839.98,142.427 
  "/>
<line clip-path="url(#clip820)" x1="1773.11" y1="142.427" x2="1773.11" y2="116.827" style="stroke:#009af9; stroke-width:4.9152; stroke-opacity:1"/>
<line clip-path="url(#clip820)" x1="1773.11" y1="142.427" x2="1747.51" y2="142.427" style="stroke:#009af9; stroke-width:4.9152; stroke-opacity:1"/>
<line clip-path="url(#clip820)" x1="1773.11" y1="142.427" x2="1773.11" y2="168.027" style="stroke:#009af9; stroke-width:4.9152; stroke-opacity:1"/>
<line clip-path="url(#clip820)" x1="1773.11" y1="142.427" x2="1798.71" y2="142.427" style="stroke:#009af9; stroke-width:4.9152; stroke-opacity:1"/>
<path clip-path="url(#clip820)" d="M1878.65 143.504 Q1880.16 144.013 1881.57 145.679 Q1883.01 147.346 1884.44 150.263 L1889.19 159.707 L1884.16 159.707 L1879.74 150.841 Q1878.03 147.369 1876.41 146.235 Q1874.81 145.101 1872.03 145.101 L1866.94 145.101 L1866.94 159.707 L1862.26 159.707 L1862.26 125.147 L1872.82 125.147 Q1878.75 125.147 1881.66 127.624 Q1884.58 130.101 1884.58 135.101 Q1884.58 138.365 1883.05 140.517 Q1881.55 142.67 1878.65 143.504 M1866.94 128.99 L1866.94 141.258 L1872.82 141.258 Q1876.2 141.258 1877.91 139.707 Q1879.65 138.133 1879.65 135.101 Q1879.65 132.068 1877.91 130.541 Q1876.2 128.99 1872.82 128.99 L1866.94 128.99 Z" fill="#000000" fill-rule="evenodd" fill-opacity="1" /><path clip-path="url(#clip820)" d="M1902.94 136.767 Q1899.51 136.767 1897.52 139.453 Q1895.53 142.115 1895.53 146.767 Q1895.53 151.42 1897.5 154.105 Q1899.49 156.767 1902.94 156.767 Q1906.34 156.767 1908.33 154.082 Q1910.32 151.397 1910.32 146.767 Q1910.32 142.161 1908.33 139.476 Q1906.34 136.767 1902.94 136.767 M1902.94 133.156 Q1908.49 133.156 1911.66 136.767 Q1914.83 140.379 1914.83 146.767 Q1914.83 153.133 1911.66 156.767 Q1908.49 160.378 1902.94 160.378 Q1897.36 160.378 1894.19 156.767 Q1891.04 153.133 1891.04 146.767 Q1891.04 140.379 1894.19 136.767 Q1897.36 133.156 1902.94 133.156 Z" fill="#000000" fill-rule="evenodd" fill-opacity="1" /><path clip-path="url(#clip820)" d="M1938.95 137.717 L1938.95 123.689 L1943.21 123.689 L1943.21 159.707 L1938.95 159.707 L1938.95 155.818 Q1937.61 158.133 1935.55 159.267 Q1933.51 160.378 1930.64 160.378 Q1925.94 160.378 1922.98 156.628 Q1920.04 152.879 1920.04 146.767 Q1920.04 140.656 1922.98 136.906 Q1925.94 133.156 1930.64 133.156 Q1933.51 133.156 1935.55 134.291 Q1937.61 135.402 1938.95 137.717 M1924.44 146.767 Q1924.44 151.466 1926.36 154.152 Q1928.31 156.814 1931.69 156.814 Q1935.06 156.814 1937.01 154.152 Q1938.95 151.466 1938.95 146.767 Q1938.95 142.068 1937.01 139.406 Q1935.06 136.721 1931.69 136.721 Q1928.31 136.721 1926.36 139.406 Q1924.44 142.068 1924.44 146.767 Z" fill="#000000" fill-rule="evenodd" fill-opacity="1" /><path clip-path="url(#clip820)" d="M1963.77 146.675 Q1958.61 146.675 1956.62 147.855 Q1954.63 149.036 1954.63 151.883 Q1954.63 154.152 1956.11 155.494 Q1957.61 156.814 1960.18 156.814 Q1963.72 156.814 1965.85 154.314 Q1968 151.791 1968 147.624 L1968 146.675 L1963.77 146.675 M1972.26 144.916 L1972.26 159.707 L1968 159.707 L1968 155.772 Q1966.55 158.133 1964.37 159.267 Q1962.19 160.378 1959.05 160.378 Q1955.06 160.378 1952.7 158.156 Q1950.37 155.911 1950.37 152.161 Q1950.37 147.786 1953.28 145.564 Q1956.22 143.342 1962.03 143.342 L1968 143.342 L1968 142.925 Q1968 139.985 1966.06 138.388 Q1964.14 136.767 1960.64 136.767 Q1958.42 136.767 1956.31 137.3 Q1954.21 137.832 1952.26 138.897 L1952.26 134.962 Q1954.6 134.059 1956.8 133.619 Q1959 133.156 1961.08 133.156 Q1966.71 133.156 1969.49 136.073 Q1972.26 138.99 1972.26 144.916 Z" fill="#000000" fill-rule="evenodd" fill-opacity="1" /><path clip-path="url(#clip820)" d="M1997.56 134.545 L1997.56 138.573 Q1995.76 137.647 1993.81 137.184 Q1991.87 136.721 1989.79 136.721 Q1986.62 136.721 1985.02 137.693 Q1983.44 138.666 1983.44 140.61 Q1983.44 142.092 1984.58 142.948 Q1985.71 143.781 1989.14 144.545 L1990.6 144.869 Q1995.13 145.842 1997.03 147.624 Q1998.95 149.383 1998.95 152.554 Q1998.95 156.166 1996.08 158.272 Q1993.24 160.378 1988.24 160.378 Q1986.15 160.378 1983.88 159.962 Q1981.64 159.568 1979.14 158.758 L1979.14 154.36 Q1981.5 155.587 1983.79 156.212 Q1986.08 156.814 1988.33 156.814 Q1991.34 156.814 1992.96 155.795 Q1994.58 154.754 1994.58 152.879 Q1994.58 151.142 1993.4 150.216 Q1992.24 149.291 1988.28 148.434 L1986.8 148.087 Q1982.84 147.254 1981.08 145.541 Q1979.32 143.804 1979.32 140.795 Q1979.32 137.138 1981.92 135.147 Q1984.51 133.156 1989.28 133.156 Q1991.64 133.156 1993.72 133.504 Q1995.81 133.851 1997.56 134.545 Z" fill="#000000" fill-rule="evenodd" fill-opacity="1" /><path clip-path="url(#clip820)" d="M2020.5 141.073 Q2023.86 141.791 2025.74 144.059 Q2027.63 146.328 2027.63 149.661 Q2027.63 154.777 2024.12 157.578 Q2020.6 160.378 2014.12 160.378 Q2011.94 160.378 2009.62 159.939 Q2007.33 159.522 2004.88 158.666 L2004.88 154.152 Q2006.82 155.286 2009.14 155.865 Q2011.45 156.443 2013.98 156.443 Q2018.37 156.443 2020.67 154.707 Q2022.98 152.971 2022.98 149.661 Q2022.98 146.605 2020.83 144.892 Q2018.7 143.156 2014.88 143.156 L2010.85 143.156 L2010.85 139.314 L2015.06 139.314 Q2018.51 139.314 2020.34 137.948 Q2022.17 136.559 2022.17 133.967 Q2022.17 131.305 2020.27 129.893 Q2018.4 128.457 2014.88 128.457 Q2012.96 128.457 2010.76 128.874 Q2008.56 129.291 2005.92 130.17 L2005.92 126.004 Q2008.58 125.263 2010.9 124.893 Q2013.24 124.522 2015.3 124.522 Q2020.62 124.522 2023.72 126.953 Q2026.82 129.36 2026.82 133.48 Q2026.82 136.351 2025.18 138.342 Q2023.54 140.309 2020.5 141.073 Z" fill="#000000" fill-rule="evenodd" fill-opacity="1" /><polyline clip-path="url(#clip820)" style="stroke:#e26f46; stroke-linecap:butt; stroke-linejoin:round; stroke-width:4; stroke-opacity:1; fill:none" points="
  1706.25,194.267 1839.98,194.267 
  "/>
<circle clip-path="url(#clip820)" cx="1773.11" cy="194.267" r="23" fill="#e26f46" fill-rule="evenodd" fill-opacity="1" stroke="#000000" stroke-opacity="1" stroke-width="4.9152"/>
<path clip-path="url(#clip820)" d="M1890.13 179.649 L1890.13 184.58 Q1887.77 182.381 1885.09 181.293 Q1882.43 180.205 1879.42 180.205 Q1873.49 180.205 1870.34 183.839 Q1867.19 187.45 1867.19 194.302 Q1867.19 201.131 1870.34 204.765 Q1873.49 208.376 1879.42 208.376 Q1882.43 208.376 1885.09 207.288 Q1887.77 206.2 1890.13 204.001 L1890.13 208.885 Q1887.68 210.552 1884.93 211.385 Q1882.19 212.218 1879.14 212.218 Q1871.29 212.218 1866.78 207.427 Q1862.26 202.612 1862.26 194.302 Q1862.26 185.969 1866.78 181.177 Q1871.29 176.362 1879.14 176.362 Q1882.24 176.362 1884.97 177.196 Q1887.73 178.006 1890.13 179.649 Z" fill="#000000" fill-rule="evenodd" fill-opacity="1" /><path clip-path="url(#clip820)" d="M1906.27 211.547 L1893.07 176.987 L1897.96 176.987 L1908.91 206.084 L1919.88 176.987 L1924.74 176.987 L1911.57 211.547 L1906.27 211.547 Z" fill="#000000" fill-rule="evenodd" fill-opacity="1" /><path clip-path="url(#clip820)" d="M1942.98 180.158 Q1937.89 180.158 1934.88 183.955 Q1931.89 187.751 1931.89 194.302 Q1931.89 200.83 1934.88 204.626 Q1937.89 208.422 1942.98 208.422 Q1948.07 208.422 1951.04 204.626 Q1954.02 200.83 1954.02 194.302 Q1954.02 187.751 1951.04 183.955 Q1948.07 180.158 1942.98 180.158 M1942.98 176.362 Q1950.25 176.362 1954.6 181.246 Q1958.95 186.108 1958.95 194.302 Q1958.95 202.473 1954.6 207.357 Q1950.25 212.218 1942.98 212.218 Q1935.69 212.218 1931.32 207.357 Q1926.96 202.496 1926.96 194.302 Q1926.96 186.108 1931.32 181.246 Q1935.69 176.362 1942.98 176.362 Z" fill="#000000" fill-rule="evenodd" fill-opacity="1" /><path clip-path="url(#clip820)" d="M1970.94 180.83 L1970.94 207.705 L1976.59 207.705 Q1983.75 207.705 1987.06 204.464 Q1990.39 201.223 1990.39 194.232 Q1990.39 187.288 1987.06 184.07 Q1983.75 180.83 1976.59 180.83 L1970.94 180.83 M1966.27 176.987 L1975.87 176.987 Q1985.92 176.987 1990.62 181.177 Q1995.32 185.344 1995.32 194.232 Q1995.32 203.168 1990.6 207.357 Q1985.87 211.547 1975.87 211.547 L1966.27 211.547 L1966.27 176.987 Z" fill="#000000" fill-rule="evenodd" fill-opacity="1" /><path clip-path="url(#clip820)" d="M2002.77 176.987 L2024.62 176.987 L2024.62 180.922 L2007.45 180.922 L2007.45 191.154 L2023.91 191.154 L2023.91 195.089 L2007.45 195.089 L2007.45 207.612 L2025.04 207.612 L2025.04 211.547 L2002.77 211.547 L2002.77 176.987 Z" fill="#000000" fill-rule="evenodd" fill-opacity="1" /><path clip-path="url(#clip820)" d="M2052.24 219.418 L2052.24 222.728 L2027.61 222.728 L2027.61 219.418 L2052.24 219.418 Z" fill="#000000" fill-rule="evenodd" fill-opacity="1" /><path clip-path="url(#clip820)" d="M2061.11 195.043 L2061.11 207.705 L2068.61 207.705 Q2072.38 207.705 2074.18 206.154 Q2076.01 204.58 2076.01 201.362 Q2076.01 198.121 2074.18 196.594 Q2072.38 195.043 2068.61 195.043 L2061.11 195.043 M2061.11 180.83 L2061.11 191.246 L2068.03 191.246 Q2071.45 191.246 2073.12 189.973 Q2074.81 188.677 2074.81 186.038 Q2074.81 183.422 2073.12 182.126 Q2071.45 180.83 2068.03 180.83 L2061.11 180.83 M2056.43 176.987 L2068.37 176.987 Q2073.72 176.987 2076.62 179.209 Q2079.51 181.432 2079.51 185.529 Q2079.51 188.7 2078.03 190.575 Q2076.55 192.45 2073.68 192.913 Q2077.12 193.654 2079.02 196.015 Q2080.94 198.353 2080.94 201.871 Q2080.94 206.501 2077.8 209.024 Q2074.65 211.547 2068.84 211.547 L2056.43 211.547 L2056.43 176.987 Z" fill="#000000" fill-rule="evenodd" fill-opacity="1" /><path clip-path="url(#clip820)" d="M2093.63 180.83 L2093.63 207.705 L2099.28 207.705 Q2106.43 207.705 2109.74 204.464 Q2113.07 201.223 2113.07 194.232 Q2113.07 187.288 2109.74 184.07 Q2106.43 180.83 2099.28 180.83 L2093.63 180.83 M2088.95 176.987 L2098.56 176.987 Q2108.61 176.987 2113.3 181.177 Q2118 185.344 2118 194.232 Q2118 203.168 2113.28 207.357 Q2108.56 211.547 2098.56 211.547 L2088.95 211.547 L2088.95 176.987 Z" fill="#000000" fill-rule="evenodd" fill-opacity="1" /><path clip-path="url(#clip820)" d="M2125.46 176.987 L2145.32 176.987 L2145.32 180.922 L2130.13 180.922 L2130.13 191.107 L2143.84 191.107 L2143.84 195.043 L2130.13 195.043 L2130.13 211.547 L2125.46 211.547 L2125.46 176.987 Z" fill="#000000" fill-rule="evenodd" fill-opacity="1" /><polyline clip-path="url(#clip820)" style="stroke:#3da44d; stroke-linecap:butt; stroke-linejoin:round; stroke-width:4; stroke-opacity:1; fill:none" points="
  1706.25,246.107 1839.98,246.107 
  "/>
<line clip-path="url(#clip820)" x1="1773.11" y1="246.107" x2="1773.11" y2="220.507" style="stroke:#3da44d; stroke-width:4.9152; stroke-opacity:1"/>
<line clip-path="url(#clip820)" x1="1773.11" y1="246.107" x2="1747.51" y2="246.107" style="stroke:#3da44d; stroke-width:4.9152; stroke-opacity:1"/>
<line clip-path="url(#clip820)" x1="1773.11" y1="246.107" x2="1773.11" y2="271.707" style="stroke:#3da44d; stroke-width:4.9152; stroke-opacity:1"/>
<line clip-path="url(#clip820)" x1="1773.11" y1="246.107" x2="1798.71" y2="246.107" style="stroke:#3da44d; stroke-width:4.9152; stroke-opacity:1"/>
<path clip-path="url(#clip820)" d="M1878.65 247.184 Q1880.16 247.693 1881.57 249.359 Q1883.01 251.026 1884.44 253.943 L1889.19 263.387 L1884.16 263.387 L1879.74 254.521 Q1878.03 251.049 1876.41 249.915 Q1874.81 248.781 1872.03 248.781 L1866.94 248.781 L1866.94 263.387 L1862.26 263.387 L1862.26 228.827 L1872.82 228.827 Q1878.75 228.827 1881.66 231.304 Q1884.58 233.781 1884.58 238.781 Q1884.58 242.045 1883.05 244.197 Q1881.55 246.35 1878.65 247.184 M1866.94 232.67 L1866.94 244.938 L1872.82 244.938 Q1876.2 244.938 1877.91 243.387 Q1879.65 241.813 1879.65 238.781 Q1879.65 235.748 1877.91 234.221 Q1876.2 232.67 1872.82 232.67 L1866.94 232.67 Z" fill="#000000" fill-rule="evenodd" fill-opacity="1" /><path clip-path="url(#clip820)" d="M1902.94 240.447 Q1899.51 240.447 1897.52 243.133 Q1895.53 245.795 1895.53 250.447 Q1895.53 255.1 1897.5 257.785 Q1899.49 260.447 1902.94 260.447 Q1906.34 260.447 1908.33 257.762 Q1910.32 255.077 1910.32 250.447 Q1910.32 245.841 1908.33 243.156 Q1906.34 240.447 1902.94 240.447 M1902.94 236.836 Q1908.49 236.836 1911.66 240.447 Q1914.83 244.059 1914.83 250.447 Q1914.83 256.813 1911.66 260.447 Q1908.49 264.058 1902.94 264.058 Q1897.36 264.058 1894.19 260.447 Q1891.04 256.813 1891.04 250.447 Q1891.04 244.059 1894.19 240.447 Q1897.36 236.836 1902.94 236.836 Z" fill="#000000" fill-rule="evenodd" fill-opacity="1" /><path clip-path="url(#clip820)" d="M1938.95 241.397 L1938.95 227.369 L1943.21 227.369 L1943.21 263.387 L1938.95 263.387 L1938.95 259.498 Q1937.61 261.813 1935.55 262.947 Q1933.51 264.058 1930.64 264.058 Q1925.94 264.058 1922.98 260.308 Q1920.04 256.559 1920.04 250.447 Q1920.04 244.336 1922.98 240.586 Q1925.94 236.836 1930.64 236.836 Q1933.51 236.836 1935.55 237.971 Q1937.61 239.082 1938.95 241.397 M1924.44 250.447 Q1924.44 255.146 1926.36 257.832 Q1928.31 260.494 1931.69 260.494 Q1935.06 260.494 1937.01 257.832 Q1938.95 255.146 1938.95 250.447 Q1938.95 245.748 1937.01 243.086 Q1935.06 240.401 1931.69 240.401 Q1928.31 240.401 1926.36 243.086 Q1924.44 245.748 1924.44 250.447 Z" fill="#000000" fill-rule="evenodd" fill-opacity="1" /><path clip-path="url(#clip820)" d="M1963.77 250.355 Q1958.61 250.355 1956.62 251.535 Q1954.63 252.716 1954.63 255.563 Q1954.63 257.832 1956.11 259.174 Q1957.61 260.494 1960.18 260.494 Q1963.72 260.494 1965.85 257.994 Q1968 255.471 1968 251.304 L1968 250.355 L1963.77 250.355 M1972.26 248.596 L1972.26 263.387 L1968 263.387 L1968 259.452 Q1966.55 261.813 1964.37 262.947 Q1962.19 264.058 1959.05 264.058 Q1955.06 264.058 1952.7 261.836 Q1950.37 259.591 1950.37 255.841 Q1950.37 251.466 1953.28 249.244 Q1956.22 247.022 1962.03 247.022 L1968 247.022 L1968 246.605 Q1968 243.665 1966.06 242.068 Q1964.14 240.447 1960.64 240.447 Q1958.42 240.447 1956.31 240.98 Q1954.21 241.512 1952.26 242.577 L1952.26 238.642 Q1954.6 237.739 1956.8 237.299 Q1959 236.836 1961.08 236.836 Q1966.71 236.836 1969.49 239.753 Q1972.26 242.67 1972.26 248.596 Z" fill="#000000" fill-rule="evenodd" fill-opacity="1" /><path clip-path="url(#clip820)" d="M1997.56 238.225 L1997.56 242.253 Q1995.76 241.327 1993.81 240.864 Q1991.87 240.401 1989.79 240.401 Q1986.62 240.401 1985.02 241.373 Q1983.44 242.346 1983.44 244.29 Q1983.44 245.772 1984.58 246.628 Q1985.71 247.461 1989.14 248.225 L1990.6 248.549 Q1995.13 249.522 1997.03 251.304 Q1998.95 253.063 1998.95 256.234 Q1998.95 259.846 1996.08 261.952 Q1993.24 264.058 1988.24 264.058 Q1986.15 264.058 1983.88 263.642 Q1981.64 263.248 1979.14 262.438 L1979.14 258.04 Q1981.5 259.267 1983.79 259.892 Q1986.08 260.494 1988.33 260.494 Q1991.34 260.494 1992.96 259.475 Q1994.58 258.434 1994.58 256.559 Q1994.58 254.822 1993.4 253.896 Q1992.24 252.971 1988.28 252.114 L1986.8 251.767 Q1982.84 250.934 1981.08 249.221 Q1979.32 247.484 1979.32 244.475 Q1979.32 240.818 1981.92 238.827 Q1984.51 236.836 1989.28 236.836 Q1991.64 236.836 1993.72 237.184 Q1995.81 237.531 1997.56 238.225 Z" fill="#000000" fill-rule="evenodd" fill-opacity="1" /><path clip-path="url(#clip820)" d="M2019.18 232.901 L2007.38 251.35 L2019.18 251.35 L2019.18 232.901 M2017.96 228.827 L2023.84 228.827 L2023.84 251.35 L2028.77 251.35 L2028.77 255.239 L2023.84 255.239 L2023.84 263.387 L2019.18 263.387 L2019.18 255.239 L2003.58 255.239 L2003.58 250.725 L2017.96 228.827 Z" fill="#000000" fill-rule="evenodd" fill-opacity="1" /><polyline clip-path="url(#clip820)" style="stroke:#c271d2; stroke-linecap:butt; stroke-linejoin:round; stroke-width:4; stroke-opacity:1; fill:none" points="
  1706.25,297.947 1839.98,297.947 
  "/>
<path clip-path="url(#clip820)" d="M1773.11 272.347 L1747.51 297.947 L1773.11 323.547 L1798.71 297.947 L1773.11 272.347 Z" fill="#c271d2" fill-rule="evenodd" fill-opacity="1" stroke="#000000" stroke-opacity="1" stroke-width="4.9152"/>
<path clip-path="url(#clip820)" d="M1877.45 293.283 Q1876.73 292.866 1875.88 292.681 Q1875.04 292.473 1874.02 292.473 Q1870.41 292.473 1868.47 294.834 Q1866.55 297.172 1866.55 301.57 L1866.55 315.227 L1862.26 315.227 L1862.26 289.301 L1866.55 289.301 L1866.55 293.329 Q1867.89 290.968 1870.04 289.834 Q1872.19 288.676 1875.27 288.676 Q1875.71 288.676 1876.25 288.746 Q1876.78 288.792 1877.43 288.908 L1877.45 293.283 Z" fill="#000000" fill-rule="evenodd" fill-opacity="1" /><path clip-path="url(#clip820)" d="M1893.7 302.195 Q1888.54 302.195 1886.55 303.375 Q1884.56 304.556 1884.56 307.403 Q1884.56 309.672 1886.04 311.014 Q1887.54 312.334 1890.11 312.334 Q1893.65 312.334 1895.78 309.834 Q1897.94 307.311 1897.94 303.144 L1897.94 302.195 L1893.7 302.195 M1902.19 300.436 L1902.19 315.227 L1897.94 315.227 L1897.94 311.292 Q1896.48 313.653 1894.3 314.787 Q1892.13 315.898 1888.98 315.898 Q1885 315.898 1882.63 313.676 Q1880.3 311.431 1880.3 307.681 Q1880.3 303.306 1883.21 301.084 Q1886.15 298.862 1891.96 298.862 L1897.94 298.862 L1897.94 298.445 Q1897.94 295.505 1895.99 293.908 Q1894.07 292.287 1890.57 292.287 Q1888.35 292.287 1886.25 292.82 Q1884.14 293.352 1882.19 294.417 L1882.19 290.482 Q1884.53 289.579 1886.73 289.139 Q1888.93 288.676 1891.01 288.676 Q1896.64 288.676 1899.42 291.593 Q1902.19 294.51 1902.19 300.436 Z" fill="#000000" fill-rule="evenodd" fill-opacity="1" /><path clip-path="url(#clip820)" d="M1928.03 293.237 L1928.03 279.209 L1932.29 279.209 L1932.29 315.227 L1928.03 315.227 L1928.03 311.338 Q1926.69 313.653 1924.63 314.787 Q1922.59 315.898 1919.72 315.898 Q1915.02 315.898 1912.06 312.148 Q1909.12 308.399 1909.12 302.287 Q1909.12 296.176 1912.06 292.426 Q1915.02 288.676 1919.72 288.676 Q1922.59 288.676 1924.63 289.811 Q1926.69 290.922 1928.03 293.237 M1913.51 302.287 Q1913.51 306.986 1915.44 309.672 Q1917.38 312.334 1920.76 312.334 Q1924.14 312.334 1926.08 309.672 Q1928.03 306.986 1928.03 302.287 Q1928.03 297.588 1926.08 294.926 Q1924.14 292.241 1920.76 292.241 Q1917.38 292.241 1915.44 294.926 Q1913.51 297.588 1913.51 302.287 Z" fill="#000000" fill-rule="evenodd" fill-opacity="1" /><path clip-path="url(#clip820)" d="M1952.84 302.195 Q1947.68 302.195 1945.69 303.375 Q1943.7 304.556 1943.7 307.403 Q1943.7 309.672 1945.18 311.014 Q1946.69 312.334 1949.25 312.334 Q1952.8 312.334 1954.93 309.834 Q1957.08 307.311 1957.08 303.144 L1957.08 302.195 L1952.84 302.195 M1961.34 300.436 L1961.34 315.227 L1957.08 315.227 L1957.08 311.292 Q1955.62 313.653 1953.44 314.787 Q1951.27 315.898 1948.12 315.898 Q1944.14 315.898 1941.78 313.676 Q1939.44 311.431 1939.44 307.681 Q1939.44 303.306 1942.36 301.084 Q1945.3 298.862 1951.11 298.862 L1957.08 298.862 L1957.08 298.445 Q1957.08 295.505 1955.13 293.908 Q1953.21 292.287 1949.72 292.287 Q1947.5 292.287 1945.39 292.82 Q1943.28 293.352 1941.34 294.417 L1941.34 290.482 Q1943.68 289.579 1945.88 289.139 Q1948.07 288.676 1950.16 288.676 Q1955.78 288.676 1958.56 291.593 Q1961.34 294.51 1961.34 300.436 Z" fill="#000000" fill-rule="evenodd" fill-opacity="1" /><path clip-path="url(#clip820)" d="M1969.67 304.996 L1969.67 289.301 L1973.93 289.301 L1973.93 304.834 Q1973.93 308.514 1975.37 310.366 Q1976.8 312.195 1979.67 312.195 Q1983.12 312.195 1985.11 309.996 Q1987.12 307.797 1987.12 304 L1987.12 289.301 L1991.38 289.301 L1991.38 315.227 L1987.12 315.227 L1987.12 311.246 Q1985.57 313.607 1983.51 314.764 Q1981.48 315.898 1978.77 315.898 Q1974.3 315.898 1971.99 313.121 Q1969.67 310.343 1969.67 304.996 M1980.39 288.676 L1980.39 288.676 Z" fill="#000000" fill-rule="evenodd" fill-opacity="1" /><polyline clip-path="url(#clip820)" style="stroke:#ac8d18; stroke-linecap:butt; stroke-linejoin:round; stroke-width:4; stroke-opacity:1; fill:none" points="
  1706.25,349.787 1839.98,349.787 
  "/>
<path clip-path="url(#clip820)" d="M1798.71 324.187 L1747.51 324.187 L1773.11 375.387 L1798.71 324.187 Z" fill="#ac8d18" fill-rule="evenodd" fill-opacity="1" stroke="#000000" stroke-opacity="1" stroke-width="4.9152"/>
<path clip-path="url(#clip820)" d="M1878.65 350.864 Q1880.16 351.373 1881.57 353.039 Q1883.01 354.706 1884.44 357.623 L1889.19 367.067 L1884.16 367.067 L1879.74 358.201 Q1878.03 354.729 1876.41 353.595 Q1874.81 352.461 1872.03 352.461 L1866.94 352.461 L1866.94 367.067 L1862.26 367.067 L1862.26 332.507 L1872.82 332.507 Q1878.75 332.507 1881.66 334.984 Q1884.58 337.461 1884.58 342.461 Q1884.58 345.725 1883.05 347.877 Q1881.55 350.03 1878.65 350.864 M1866.94 336.35 L1866.94 348.618 L1872.82 348.618 Q1876.2 348.618 1877.91 347.067 Q1879.65 345.493 1879.65 342.461 Q1879.65 339.428 1877.91 337.901 Q1876.2 336.35 1872.82 336.35 L1866.94 336.35 Z" fill="#000000" fill-rule="evenodd" fill-opacity="1" /><path clip-path="url(#clip820)" d="M1902.94 344.127 Q1899.51 344.127 1897.52 346.813 Q1895.53 349.475 1895.53 354.127 Q1895.53 358.78 1897.5 361.465 Q1899.49 364.127 1902.94 364.127 Q1906.34 364.127 1908.33 361.442 Q1910.32 358.757 1910.32 354.127 Q1910.32 349.521 1908.33 346.836 Q1906.34 344.127 1902.94 344.127 M1902.94 340.516 Q1908.49 340.516 1911.66 344.127 Q1914.83 347.739 1914.83 354.127 Q1914.83 360.493 1911.66 364.127 Q1908.49 367.738 1902.94 367.738 Q1897.36 367.738 1894.19 364.127 Q1891.04 360.493 1891.04 354.127 Q1891.04 347.739 1894.19 344.127 Q1897.36 340.516 1902.94 340.516 Z" fill="#000000" fill-rule="evenodd" fill-opacity="1" /><path clip-path="url(#clip820)" d="M1938.95 345.077 L1938.95 331.049 L1943.21 331.049 L1943.21 367.067 L1938.95 367.067 L1938.95 363.178 Q1937.61 365.493 1935.55 366.627 Q1933.51 367.738 1930.64 367.738 Q1925.94 367.738 1922.98 363.988 Q1920.04 360.239 1920.04 354.127 Q1920.04 348.016 1922.98 344.266 Q1925.94 340.516 1930.64 340.516 Q1933.51 340.516 1935.55 341.651 Q1937.61 342.762 1938.95 345.077 M1924.44 354.127 Q1924.44 358.826 1926.36 361.512 Q1928.31 364.174 1931.69 364.174 Q1935.06 364.174 1937.01 361.512 Q1938.95 358.826 1938.95 354.127 Q1938.95 349.428 1937.01 346.766 Q1935.06 344.081 1931.69 344.081 Q1928.31 344.081 1926.36 346.766 Q1924.44 349.428 1924.44 354.127 Z" fill="#000000" fill-rule="evenodd" fill-opacity="1" /><path clip-path="url(#clip820)" d="M1963.77 354.035 Q1958.61 354.035 1956.62 355.215 Q1954.63 356.396 1954.63 359.243 Q1954.63 361.512 1956.11 362.854 Q1957.61 364.174 1960.18 364.174 Q1963.72 364.174 1965.85 361.674 Q1968 359.151 1968 354.984 L1968 354.035 L1963.77 354.035 M1972.26 352.276 L1972.26 367.067 L1968 367.067 L1968 363.132 Q1966.55 365.493 1964.37 366.627 Q1962.19 367.738 1959.05 367.738 Q1955.06 367.738 1952.7 365.516 Q1950.37 363.271 1950.37 359.521 Q1950.37 355.146 1953.28 352.924 Q1956.22 350.702 1962.03 350.702 L1968 350.702 L1968 350.285 Q1968 347.345 1966.06 345.748 Q1964.14 344.127 1960.64 344.127 Q1958.42 344.127 1956.31 344.66 Q1954.21 345.192 1952.26 346.257 L1952.26 342.322 Q1954.6 341.419 1956.8 340.979 Q1959 340.516 1961.08 340.516 Q1966.71 340.516 1969.49 343.433 Q1972.26 346.35 1972.26 352.276 Z" fill="#000000" fill-rule="evenodd" fill-opacity="1" /><path clip-path="url(#clip820)" d="M1997.56 341.905 L1997.56 345.933 Q1995.76 345.007 1993.81 344.544 Q1991.87 344.081 1989.79 344.081 Q1986.62 344.081 1985.02 345.053 Q1983.44 346.026 1983.44 347.97 Q1983.44 349.452 1984.58 350.308 Q1985.71 351.141 1989.14 351.905 L1990.6 352.229 Q1995.13 353.202 1997.03 354.984 Q1998.95 356.743 1998.95 359.914 Q1998.95 363.526 1996.08 365.632 Q1993.24 367.738 1988.24 367.738 Q1986.15 367.738 1983.88 367.322 Q1981.64 366.928 1979.14 366.118 L1979.14 361.72 Q1981.5 362.947 1983.79 363.572 Q1986.08 364.174 1988.33 364.174 Q1991.34 364.174 1992.96 363.155 Q1994.58 362.114 1994.58 360.239 Q1994.58 358.502 1993.4 357.576 Q1992.24 356.651 1988.28 355.794 L1986.8 355.447 Q1982.84 354.614 1981.08 352.901 Q1979.32 351.164 1979.32 348.155 Q1979.32 344.498 1981.92 342.507 Q1984.51 340.516 1989.28 340.516 Q1991.64 340.516 1993.72 340.864 Q1995.81 341.211 1997.56 341.905 Z" fill="#000000" fill-rule="evenodd" fill-opacity="1" /><path clip-path="url(#clip820)" d="M2006.38 332.507 L2024.74 332.507 L2024.74 336.442 L2010.67 336.442 L2010.67 344.915 Q2011.68 344.567 2012.7 344.405 Q2013.72 344.22 2014.74 344.22 Q2020.53 344.22 2023.91 347.391 Q2027.29 350.563 2027.29 355.979 Q2027.29 361.558 2023.81 364.66 Q2020.34 367.738 2014.02 367.738 Q2011.85 367.738 2009.58 367.368 Q2007.33 366.998 2004.93 366.257 L2004.93 361.558 Q2007.01 362.692 2009.23 363.248 Q2011.45 363.803 2013.93 363.803 Q2017.93 363.803 2020.27 361.697 Q2022.61 359.59 2022.61 355.979 Q2022.61 352.368 2020.27 350.262 Q2017.93 348.155 2013.93 348.155 Q2012.06 348.155 2010.18 348.572 Q2008.33 348.989 2006.38 349.868 L2006.38 332.507 Z" fill="#000000" fill-rule="evenodd" fill-opacity="1" /></svg>
