<?xml version="1.0" encoding="utf-8"?>
<svg xmlns="http://www.w3.org/2000/svg" xmlns:xlink="http://www.w3.org/1999/xlink" width="576" height="384" viewBox="0 0 2304 1536">
<defs>
  <clipPath id="clip840">
    <rect x="0" y="0" width="2304" height="1536"/>
  </clipPath>
</defs>
<path clip-path="url(#clip840)" d="
M0 1536 L2304 1536 L2304 0 L0 0  Z
  " fill="#ffffff" fill-rule="evenodd" fill-opacity="1"/>
<defs>
  <clipPath id="clip841">
    <rect x="460" y="0" width="1614" height="1536"/>
  </clipPath>
</defs>
<path clip-path="url(#clip840)" d="
M251.804 1347.54 L2256.76 1347.54 L2256.76 47.2441 L251.804 47.2441  Z
  " fill="#ffffff" fill-rule="evenodd" fill-opacity="1"/>
<defs>
  <clipPath id="clip842">
    <rect x="251" y="47" width="2006" height="1301"/>
  </clipPath>
</defs>
<polyline clip-path="url(#clip842)" style="stroke:#000000; stroke-linecap:butt; stroke-linejoin:round; stroke-width:2; stroke-opacity:0.1; fill:none" points="
  536.065,1347.54 536.065,47.2441 
  "/>
<polyline clip-path="url(#clip842)" style="stroke:#000000; stroke-linecap:butt; stroke-linejoin:round; stroke-width:2; stroke-opacity:0.1; fill:none" points="
  1065.21,1347.54 1065.21,47.2441 
  "/>
<polyline clip-path="url(#clip842)" style="stroke:#000000; stroke-linecap:butt; stroke-linejoin:round; stroke-width:2; stroke-opacity:0.1; fill:none" points="
  1594.36,1347.54 1594.36,47.2441 
  "/>
<polyline clip-path="url(#clip842)" style="stroke:#000000; stroke-linecap:butt; stroke-linejoin:round; stroke-width:2; stroke-opacity:0.1; fill:none" points="
  2123.51,1347.54 2123.51,47.2441 
  "/>
<polyline clip-path="url(#clip840)" style="stroke:#000000; stroke-linecap:butt; stroke-linejoin:round; stroke-width:4; stroke-opacity:1; fill:none" points="
  251.804,1347.54 2256.76,1347.54 
  "/>
<polyline clip-path="url(#clip840)" style="stroke:#000000; stroke-linecap:butt; stroke-linejoin:round; stroke-width:4; stroke-opacity:1; fill:none" points="
  536.065,1347.54 536.065,1328.64 
  "/>
<polyline clip-path="url(#clip840)" style="stroke:#000000; stroke-linecap:butt; stroke-linejoin:round; stroke-width:4; stroke-opacity:1; fill:none" points="
  1065.21,1347.54 1065.21,1328.64 
  "/>
<polyline clip-path="url(#clip840)" style="stroke:#000000; stroke-linecap:butt; stroke-linejoin:round; stroke-width:4; stroke-opacity:1; fill:none" points="
  1594.36,1347.54 1594.36,1328.64 
  "/>
<polyline clip-path="url(#clip840)" style="stroke:#000000; stroke-linecap:butt; stroke-linejoin:round; stroke-width:4; stroke-opacity:1; fill:none" points="
  2123.51,1347.54 2123.51,1328.64 
  "/>
<path clip-path="url(#clip840)" d="M485.616 1420.89 L493.255 1420.89 L493.255 1394.53 L484.944 1396.19 L484.944 1391.94 L493.208 1390.27 L497.884 1390.27 L497.884 1420.89 L505.523 1420.89 L505.523 1424.83 L485.616 1424.83 L485.616 1420.89 Z" fill="#000000" fill-rule="evenodd" fill-opacity="1" /><path clip-path="url(#clip840)" d="M524.967 1393.35 Q521.356 1393.35 519.528 1396.91 Q517.722 1400.45 517.722 1407.58 Q517.722 1414.69 519.528 1418.25 Q521.356 1421.8 524.967 1421.8 Q528.602 1421.8 530.407 1418.25 Q532.236 1414.69 532.236 1407.58 Q532.236 1400.45 530.407 1396.91 Q528.602 1393.35 524.967 1393.35 M524.967 1389.64 Q530.777 1389.64 533.833 1394.25 Q536.912 1398.83 536.912 1407.58 Q536.912 1416.31 533.833 1420.92 Q530.777 1425.5 524.967 1425.5 Q519.157 1425.5 516.078 1420.92 Q513.023 1416.31 513.023 1407.58 Q513.023 1398.83 516.078 1394.25 Q519.157 1389.64 524.967 1389.64 Z" fill="#000000" fill-rule="evenodd" fill-opacity="1" /><path clip-path="url(#clip840)" d="M536.912 1383.74 L561.023 1383.74 L561.023 1386.94 L536.912 1386.94 L536.912 1383.74 Z" fill="#000000" fill-rule="evenodd" fill-opacity="1" /><path clip-path="url(#clip840)" d="M577.819 1381.86 Q575.261 1381.86 573.756 1383.61 Q572.27 1385.36 572.27 1388.41 Q572.27 1391.44 573.756 1393.21 Q575.261 1394.95 577.819 1394.95 Q580.376 1394.95 581.862 1393.21 Q583.367 1391.44 583.367 1388.41 Q583.367 1385.36 581.862 1383.61 Q580.376 1381.86 577.819 1381.86 M585.361 1369.96 L585.361 1373.42 Q583.931 1372.74 582.464 1372.39 Q581.016 1372.03 579.587 1372.03 Q575.825 1372.03 573.831 1374.57 Q571.857 1377.11 571.574 1382.24 Q572.684 1380.6 574.358 1379.74 Q576.032 1378.85 578.044 1378.85 Q582.276 1378.85 584.721 1381.43 Q587.185 1383.99 587.185 1388.41 Q587.185 1392.74 584.627 1395.35 Q582.069 1397.96 577.819 1397.96 Q572.947 1397.96 570.371 1394.24 Q567.794 1390.5 567.794 1383.41 Q567.794 1376.75 570.954 1372.8 Q574.113 1368.83 579.436 1368.83 Q580.865 1368.83 582.314 1369.11 Q583.781 1369.39 585.361 1369.96 Z" fill="#000000" fill-rule="evenodd" fill-opacity="1" /><path clip-path="url(#clip840)" d="M1015.24 1420.89 L1022.87 1420.89 L1022.87 1394.53 L1014.56 1396.19 L1014.56 1391.94 L1022.83 1390.27 L1027.5 1390.27 L1027.5 1420.89 L1035.14 1420.89 L1035.14 1424.83 L1015.24 1424.83 L1015.24 1420.89 Z" fill="#000000" fill-rule="evenodd" fill-opacity="1" /><path clip-path="url(#clip840)" d="M1054.59 1393.35 Q1050.98 1393.35 1049.15 1396.91 Q1047.34 1400.45 1047.34 1407.58 Q1047.34 1414.69 1049.15 1418.25 Q1050.98 1421.8 1054.59 1421.8 Q1058.22 1421.8 1060.03 1418.25 Q1061.86 1414.69 1061.86 1407.58 Q1061.86 1400.45 1060.03 1396.91 Q1058.22 1393.35 1054.59 1393.35 M1054.59 1389.64 Q1060.4 1389.64 1063.45 1394.25 Q1066.53 1398.83 1066.53 1407.58 Q1066.53 1416.31 1063.45 1420.92 Q1060.4 1425.5 1054.59 1425.5 Q1048.78 1425.5 1045.7 1420.92 Q1042.64 1416.31 1042.64 1407.58 Q1042.64 1398.83 1045.7 1394.25 Q1048.78 1389.64 1054.59 1389.64 Z" fill="#000000" fill-rule="evenodd" fill-opacity="1" /><path clip-path="url(#clip840)" d="M1066.53 1383.74 L1090.64 1383.74 L1090.64 1386.94 L1066.53 1386.94 L1066.53 1383.74 Z" fill="#000000" fill-rule="evenodd" fill-opacity="1" /><path clip-path="url(#clip840)" d="M1098.88 1369.34 L1113.8 1369.34 L1113.8 1372.54 L1102.36 1372.54 L1102.36 1379.42 Q1103.19 1379.14 1104.02 1379.01 Q1104.84 1378.85 1105.67 1378.85 Q1110.37 1378.85 1113.12 1381.43 Q1115.86 1384.01 1115.86 1388.41 Q1115.86 1392.94 1113.04 1395.46 Q1110.22 1397.96 1105.09 1397.96 Q1103.32 1397.96 1101.48 1397.66 Q1099.65 1397.36 1097.7 1396.76 L1097.7 1392.94 Q1099.39 1393.86 1101.19 1394.31 Q1103 1394.77 1105.01 1394.77 Q1108.27 1394.77 1110.17 1393.05 Q1112.07 1391.34 1112.07 1388.41 Q1112.07 1385.48 1110.17 1383.76 Q1108.27 1382.05 1105.01 1382.05 Q1103.49 1382.05 1101.97 1382.39 Q1100.46 1382.73 1098.88 1383.44 L1098.88 1369.34 Z" fill="#000000" fill-rule="evenodd" fill-opacity="1" /><path clip-path="url(#clip840)" d="M1543.78 1420.89 L1551.42 1420.89 L1551.42 1394.53 L1543.11 1396.19 L1543.11 1391.94 L1551.38 1390.27 L1556.05 1390.27 L1556.05 1420.89 L1563.69 1420.89 L1563.69 1424.83 L1543.78 1424.83 L1543.78 1420.89 Z" fill="#000000" fill-rule="evenodd" fill-opacity="1" /><path clip-path="url(#clip840)" d="M1583.13 1393.35 Q1579.52 1393.35 1577.7 1396.91 Q1575.89 1400.45 1575.89 1407.58 Q1575.89 1414.69 1577.7 1418.25 Q1579.52 1421.8 1583.13 1421.8 Q1586.77 1421.8 1588.57 1418.25 Q1590.4 1414.69 1590.4 1407.58 Q1590.4 1400.45 1588.57 1396.91 Q1586.77 1393.35 1583.13 1393.35 M1583.13 1389.64 Q1588.95 1389.64 1592 1394.25 Q1595.08 1398.83 1595.08 1407.58 Q1595.08 1416.31 1592 1420.92 Q1588.95 1425.5 1583.13 1425.5 Q1577.32 1425.5 1574.25 1420.92 Q1571.19 1416.31 1571.19 1407.58 Q1571.19 1398.83 1574.25 1394.25 Q1577.32 1389.64 1583.13 1389.64 Z" fill="#000000" fill-rule="evenodd" fill-opacity="1" /><path clip-path="url(#clip840)" d="M1595.08 1383.74 L1619.19 1383.74 L1619.19 1386.94 L1595.08 1386.94 L1595.08 1383.74 Z" fill="#000000" fill-rule="evenodd" fill-opacity="1" /><path clip-path="url(#clip840)" d="M1637.83 1372.65 L1628.24 1387.64 L1637.83 1387.64 L1637.83 1372.65 M1636.83 1369.34 L1641.61 1369.34 L1641.61 1387.64 L1645.62 1387.64 L1645.62 1390.8 L1641.61 1390.8 L1641.61 1397.42 L1637.83 1397.42 L1637.83 1390.8 L1625.15 1390.8 L1625.15 1387.13 L1636.83 1369.34 Z" fill="#000000" fill-rule="evenodd" fill-opacity="1" /><path clip-path="url(#clip840)" d="M2073.39 1420.89 L2081.03 1420.89 L2081.03 1394.53 L2072.72 1396.19 L2072.72 1391.94 L2080.99 1390.27 L2085.66 1390.27 L2085.66 1420.89 L2093.3 1420.89 L2093.3 1424.83 L2073.39 1424.83 L2073.39 1420.89 Z" fill="#000000" fill-rule="evenodd" fill-opacity="1" /><path clip-path="url(#clip840)" d="M2112.75 1393.35 Q2109.13 1393.35 2107.31 1396.91 Q2105.5 1400.45 2105.5 1407.58 Q2105.5 1414.69 2107.31 1418.25 Q2109.13 1421.8 2112.75 1421.8 Q2116.38 1421.8 2118.19 1418.25 Q2120.01 1414.69 2120.01 1407.58 Q2120.01 1400.45 2118.19 1396.91 Q2116.38 1393.35 2112.75 1393.35 M2112.75 1389.64 Q2118.56 1389.64 2121.61 1394.25 Q2124.69 1398.83 2124.69 1407.58 Q2124.69 1416.31 2121.61 1420.92 Q2118.56 1425.5 2112.75 1425.5 Q2106.94 1425.5 2103.86 1420.92 Q2100.8 1416.31 2100.8 1407.58 Q2100.8 1398.83 2103.86 1394.25 Q2106.94 1389.64 2112.75 1389.64 Z" fill="#000000" fill-rule="evenodd" fill-opacity="1" /><path clip-path="url(#clip840)" d="M2124.69 1383.74 L2148.8 1383.74 L2148.8 1386.94 L2124.69 1386.94 L2124.69 1383.74 Z" fill="#000000" fill-rule="evenodd" fill-opacity="1" /><path clip-path="url(#clip840)" d="M2168.51 1382.28 Q2171.24 1382.86 2172.76 1384.7 Q2174.3 1386.55 2174.3 1389.26 Q2174.3 1393.41 2171.45 1395.69 Q2168.59 1397.96 2163.32 1397.96 Q2161.55 1397.96 2159.67 1397.61 Q2157.81 1397.27 2155.82 1396.57 L2155.82 1392.9 Q2157.4 1393.83 2159.28 1394.3 Q2161.16 1394.77 2163.21 1394.77 Q2166.78 1394.77 2168.64 1393.36 Q2170.52 1391.95 2170.52 1389.26 Q2170.52 1386.77 2168.78 1385.38 Q2167.04 1383.97 2163.94 1383.97 L2160.67 1383.97 L2160.67 1380.85 L2164.09 1380.85 Q2166.89 1380.85 2168.38 1379.74 Q2169.87 1378.61 2169.87 1376.5 Q2169.87 1374.34 2168.32 1373.19 Q2166.8 1372.03 2163.94 1372.03 Q2162.38 1372.03 2160.59 1372.37 Q2158.81 1372.7 2156.66 1373.42 L2156.66 1370.03 Q2158.83 1369.43 2160.71 1369.13 Q2162.61 1368.83 2164.28 1368.83 Q2168.61 1368.83 2171.13 1370.81 Q2173.65 1372.76 2173.65 1376.11 Q2173.65 1378.44 2172.31 1380.06 Q2170.98 1381.66 2168.51 1382.28 Z" fill="#000000" fill-rule="evenodd" fill-opacity="1" /><path clip-path="url(#clip840)" d="M1178.03 1461.87 L1208.08 1461.87 L1208.08 1467.28 L1184.46 1467.28 L1184.46 1481.34 L1207.09 1481.34 L1207.09 1486.76 L1184.46 1486.76 L1184.46 1503.97 L1208.65 1503.97 L1208.65 1509.39 L1178.03 1509.39 L1178.03 1461.87 Z" fill="#000000" fill-rule="evenodd" fill-opacity="1" /><path clip-path="url(#clip840)" d="M1239.62 1479.21 Q1238.64 1478.64 1237.46 1478.38 Q1236.31 1478.1 1234.91 1478.1 Q1229.95 1478.1 1227.27 1481.34 Q1224.63 1484.56 1224.63 1490.61 L1224.63 1509.39 L1218.74 1509.39 L1218.74 1473.74 L1224.63 1473.74 L1224.63 1479.28 Q1226.48 1476.03 1229.44 1474.47 Q1232.4 1472.88 1236.63 1472.88 Q1237.24 1472.88 1237.97 1472.97 Q1238.7 1473.04 1239.59 1473.2 L1239.62 1479.21 Z" fill="#000000" fill-rule="evenodd" fill-opacity="1" /><path clip-path="url(#clip840)" d="M1265.28 1479.21 Q1264.29 1478.64 1263.11 1478.38 Q1261.97 1478.1 1260.57 1478.1 Q1255.6 1478.1 1252.93 1481.34 Q1250.29 1484.56 1250.29 1490.61 L1250.29 1509.39 L1244.4 1509.39 L1244.4 1473.74 L1250.29 1473.74 L1250.29 1479.28 Q1252.13 1476.03 1255.09 1474.47 Q1258.05 1472.88 1262.28 1472.88 Q1262.89 1472.88 1263.62 1472.97 Q1264.35 1473.04 1265.24 1473.2 L1265.28 1479.21 Z" fill="#000000" fill-rule="evenodd" fill-opacity="1" /><path clip-path="url(#clip840)" d="M1283.8 1477.84 Q1279.09 1477.84 1276.35 1481.54 Q1273.62 1485.2 1273.62 1491.59 Q1273.62 1497.99 1276.32 1501.68 Q1279.06 1505.34 1283.8 1505.34 Q1288.48 1505.34 1291.22 1501.65 Q1293.95 1497.96 1293.95 1491.59 Q1293.95 1485.26 1291.22 1481.57 Q1288.48 1477.84 1283.8 1477.84 M1283.8 1472.88 Q1291.44 1472.88 1295.8 1477.84 Q1300.16 1482.81 1300.16 1491.59 Q1300.16 1500.35 1295.8 1505.34 Q1291.44 1510.31 1283.8 1510.31 Q1276.13 1510.31 1271.77 1505.34 Q1267.44 1500.35 1267.44 1491.59 Q1267.44 1482.81 1271.77 1477.84 Q1276.13 1472.88 1283.8 1472.88 Z" fill="#000000" fill-rule="evenodd" fill-opacity="1" /><path clip-path="url(#clip840)" d="M1330.53 1479.21 Q1329.54 1478.64 1328.36 1478.38 Q1327.22 1478.1 1325.81 1478.1 Q1320.85 1478.1 1318.18 1481.34 Q1315.53 1484.56 1315.53 1490.61 L1315.53 1509.39 L1309.65 1509.39 L1309.65 1473.74 L1315.53 1473.74 L1315.53 1479.28 Q1317.38 1476.03 1320.34 1474.47 Q1323.3 1472.88 1327.53 1472.88 Q1328.14 1472.88 1328.87 1472.97 Q1329.6 1473.04 1330.49 1473.2 L1330.53 1479.21 Z" fill="#000000" fill-rule="evenodd" fill-opacity="1" /><polyline clip-path="url(#clip842)" style="stroke:#000000; stroke-linecap:butt; stroke-linejoin:round; stroke-width:2; stroke-opacity:0.1; fill:none" points="
  251.804,834.015 2256.76,834.015 
  "/>
<polyline clip-path="url(#clip842)" style="stroke:#000000; stroke-linecap:butt; stroke-linejoin:round; stroke-width:2; stroke-opacity:0.1; fill:none" points="
  251.804,74.0234 2256.76,74.0234 
  "/>
<polyline clip-path="url(#clip840)" style="stroke:#000000; stroke-linecap:butt; stroke-linejoin:round; stroke-width:4; stroke-opacity:1; fill:none" points="
  251.804,1347.54 251.804,47.2441 
  "/>
<polyline clip-path="url(#clip840)" style="stroke:#000000; stroke-linecap:butt; stroke-linejoin:round; stroke-width:4; stroke-opacity:1; fill:none" points="
  251.804,834.015 270.702,834.015 
  "/>
<polyline clip-path="url(#clip840)" style="stroke:#000000; stroke-linecap:butt; stroke-linejoin:round; stroke-width:4; stroke-opacity:1; fill:none" points="
  251.804,74.0234 270.702,74.0234 
  "/>
<path clip-path="url(#clip840)" d="M115.411 853.807 L123.05 853.807 L123.05 827.441 L114.74 829.108 L114.74 824.849 L123.004 823.182 L127.68 823.182 L127.68 853.807 L135.319 853.807 L135.319 857.742 L115.411 857.742 L115.411 853.807 Z" fill="#000000" fill-rule="evenodd" fill-opacity="1" /><path clip-path="url(#clip840)" d="M154.763 826.261 Q151.152 826.261 149.323 829.826 Q147.518 833.367 147.518 840.497 Q147.518 847.603 149.323 851.168 Q151.152 854.71 154.763 854.71 Q158.397 854.71 160.203 851.168 Q162.032 847.603 162.032 840.497 Q162.032 833.367 160.203 829.826 Q158.397 826.261 154.763 826.261 M154.763 822.557 Q160.573 822.557 163.629 827.164 Q166.707 831.747 166.707 840.497 Q166.707 849.224 163.629 853.83 Q160.573 858.414 154.763 858.414 Q148.953 858.414 145.874 853.83 Q142.819 849.224 142.819 840.497 Q142.819 831.747 145.874 827.164 Q148.953 822.557 154.763 822.557 Z" fill="#000000" fill-rule="evenodd" fill-opacity="1" /><path clip-path="url(#clip840)" d="M166.707 816.659 L190.819 816.659 L190.819 819.856 L166.707 819.856 L166.707 816.659 Z" fill="#000000" fill-rule="evenodd" fill-opacity="1" /><path clip-path="url(#clip840)" d="M209.458 805.562 L199.866 820.552 L209.458 820.552 L209.458 805.562 M208.461 802.252 L213.238 802.252 L213.238 820.552 L217.244 820.552 L217.244 823.712 L213.238 823.712 L213.238 830.332 L209.458 830.332 L209.458 823.712 L196.781 823.712 L196.781 820.044 L208.461 802.252 Z" fill="#000000" fill-rule="evenodd" fill-opacity="1" /><path clip-path="url(#clip840)" d="M116.333 93.8159 L123.972 93.8159 L123.972 67.4503 L115.662 69.1169 L115.662 64.8577 L123.926 63.191 L128.601 63.191 L128.601 93.8159 L136.24 93.8159 L136.24 97.751 L116.333 97.751 L116.333 93.8159 Z" fill="#000000" fill-rule="evenodd" fill-opacity="1" /><path clip-path="url(#clip840)" d="M155.685 66.2697 Q152.074 66.2697 150.245 69.8345 Q148.439 73.3762 148.439 80.5058 Q148.439 87.6122 150.245 91.177 Q152.074 94.7187 155.685 94.7187 Q159.319 94.7187 161.124 91.177 Q162.953 87.6122 162.953 80.5058 Q162.953 73.3762 161.124 69.8345 Q159.319 66.2697 155.685 66.2697 M155.685 62.566 Q161.495 62.566 164.55 67.1725 Q167.629 71.7558 167.629 80.5058 Q167.629 89.2326 164.55 93.839 Q161.495 98.4223 155.685 98.4223 Q149.875 98.4223 146.796 93.839 Q143.74 89.2326 143.74 80.5058 Q143.74 71.7558 146.796 67.1725 Q149.875 62.566 155.685 62.566 Z" fill="#000000" fill-rule="evenodd" fill-opacity="1" /><path clip-path="url(#clip840)" d="M167.629 56.6674 L191.741 56.6674 L191.741 59.8647 L167.629 59.8647 L167.629 56.6674 Z" fill="#000000" fill-rule="evenodd" fill-opacity="1" /><path clip-path="url(#clip840)" d="M211.451 55.2004 Q214.178 55.7834 215.702 57.6266 Q217.244 59.4698 217.244 62.1781 Q217.244 66.3346 214.385 68.6103 Q211.526 70.8861 206.26 70.8861 Q204.492 70.8861 202.612 70.5287 Q200.75 70.1902 198.756 69.4943 L198.756 65.8268 Q200.336 66.7484 202.217 67.2186 Q204.097 67.6887 206.147 67.6887 Q209.721 67.6887 211.583 66.2782 Q213.464 64.8676 213.464 62.1781 Q213.464 59.6954 211.714 58.3037 Q209.984 56.8931 206.881 56.8931 L203.608 56.8931 L203.608 53.771 L207.031 53.771 Q209.834 53.771 211.32 52.6613 Q212.805 51.5329 212.805 49.4264 Q212.805 47.2635 211.263 46.1162 Q209.74 44.9502 206.881 44.9502 Q205.32 44.9502 203.533 45.2887 Q201.746 45.6272 199.602 46.3419 L199.602 42.9565 Q201.765 42.3547 203.646 42.0538 Q205.546 41.7528 207.219 41.7528 Q211.545 41.7528 214.065 43.7277 Q216.586 45.6837 216.586 49.0314 Q216.586 51.3636 215.25 52.9811 Q213.915 54.5797 211.451 55.2004 Z" fill="#000000" fill-rule="evenodd" fill-opacity="1" /><path clip-path="url(#clip840)" d="M18.4042 827.219 L18.4042 787.02 L23.815 787.02 L23.815 803.889 L65.9242 803.889 L65.9242 810.35 L23.815 810.35 L23.815 827.219 L18.4042 827.219 Z" fill="#000000" fill-rule="evenodd" fill-opacity="1" /><path clip-path="url(#clip840)" d="M30.2762 783.073 L30.2762 777.216 L65.9242 777.216 L65.9242 783.073 L30.2762 783.073 M16.399 783.073 L16.399 777.216 L23.815 777.216 L23.815 783.073 L16.399 783.073 Z" fill="#000000" fill-rule="evenodd" fill-opacity="1" /><path clip-path="url(#clip840)" d="M37.1193 737.208 Q33.1726 735.012 31.2947 731.956 Q29.4168 728.901 29.4168 724.763 Q29.4168 719.193 33.3317 716.169 Q37.2148 713.145 44.4081 713.145 L65.9242 713.145 L65.9242 719.034 L44.599 719.034 Q39.4746 719.034 36.992 720.848 Q34.5094 722.662 34.5094 726.386 Q34.5094 730.938 37.5331 733.579 Q40.5568 736.221 45.7767 736.221 L65.9242 736.221 L65.9242 742.109 L44.599 742.109 Q39.4428 742.109 36.992 743.924 Q34.5094 745.738 34.5094 749.526 Q34.5094 754.013 37.5649 756.655 Q40.5886 759.297 45.7767 759.297 L65.9242 759.297 L65.9242 765.185 L30.2762 765.185 L30.2762 759.297 L35.8144 759.297 Q32.536 757.292 30.9764 754.491 Q29.4168 751.69 29.4168 747.839 Q29.4168 743.956 31.3902 741.25 Q33.3636 738.513 37.1193 737.208 Z" fill="#000000" fill-rule="evenodd" fill-opacity="1" /><path clip-path="url(#clip840)" d="M46.6361 670.973 L49.5006 670.973 L49.5006 697.9 Q55.5481 697.518 58.7309 694.271 Q61.8819 690.993 61.8819 685.168 Q61.8819 681.794 61.0544 678.643 Q60.2269 675.461 58.5718 672.341 L64.1099 672.341 Q65.4467 675.492 66.147 678.803 Q66.8472 682.113 66.8472 685.518 Q66.8472 694.048 61.8819 699.045 Q56.9167 704.011 48.4503 704.011 Q39.6974 704.011 34.5731 699.3 Q29.4168 694.558 29.4168 686.537 Q29.4168 679.344 34.0638 675.174 Q38.6789 670.973 46.6361 670.973 M44.9173 676.829 Q40.1112 676.893 37.2466 679.535 Q34.3821 682.145 34.3821 686.473 Q34.3821 691.375 37.1512 694.335 Q39.9202 697.263 44.9492 697.709 L44.9173 676.829 Z" fill="#000000" fill-rule="evenodd" fill-opacity="1" /><path clip-path="url(#clip840)" d="M16.4626 626.572 Q23.7832 630.837 30.9446 632.906 Q38.106 634.975 45.4584 634.975 Q52.8108 634.975 60.0359 632.906 Q67.2291 630.805 74.5179 626.572 L74.5179 631.664 Q67.0382 636.439 59.8131 638.826 Q52.588 641.181 45.4584 641.181 Q38.3606 641.181 31.1674 638.826 Q23.9742 636.471 16.4626 631.664 L16.4626 626.572 Z" fill="#000000" fill-rule="evenodd" fill-opacity="1" /><path clip-path="url(#clip840)" d="M31.3265 592.484 L36.8647 592.484 Q35.5916 594.966 34.955 597.64 Q34.3184 600.313 34.3184 603.178 Q34.3184 607.538 35.6552 609.735 Q36.992 611.899 39.6656 611.899 Q41.7026 611.899 42.8803 610.339 Q44.0261 608.78 45.0765 604.069 L45.5221 602.064 Q46.8589 595.826 49.3097 593.216 Q51.7286 590.574 56.0891 590.574 Q61.0544 590.574 63.9508 594.521 Q66.8472 598.435 66.8472 605.31 Q66.8472 608.175 66.2743 611.294 Q65.7332 614.382 64.6192 617.819 L58.5718 617.819 Q60.2587 614.573 61.118 611.422 Q61.9456 608.27 61.9456 605.183 Q61.9456 601.045 60.5451 598.817 Q59.1129 596.589 56.5347 596.589 Q54.1476 596.589 52.8745 598.213 Q51.6013 599.804 50.4237 605.247 L49.9462 607.284 Q48.8004 612.726 46.4451 615.145 Q44.058 617.564 39.9202 617.564 Q34.8913 617.564 32.1541 614 Q29.4168 610.435 29.4168 603.878 Q29.4168 600.632 29.8943 597.767 Q30.3717 594.902 31.3265 592.484 Z" fill="#000000" fill-rule="evenodd" fill-opacity="1" /><path clip-path="url(#clip840)" d="M16.4626 582.171 L16.4626 577.079 Q23.9742 572.304 31.1674 569.949 Q38.3606 567.562 45.4584 567.562 Q52.588 567.562 59.8131 569.949 Q67.0382 572.304 74.5179 577.079 L74.5179 582.171 Q67.2291 577.938 60.0359 575.869 Q52.8108 573.768 45.4584 573.768 Q38.106 573.768 30.9446 575.869 Q23.7832 577.938 16.4626 582.171 Z" fill="#000000" fill-rule="evenodd" fill-opacity="1" /><polyline clip-path="url(#clip842)" style="stroke:#009af9; stroke-linecap:butt; stroke-linejoin:round; stroke-width:12; stroke-opacity:1; fill:none" points="
  2077.99,1310.74 1782.84,1210.82 1461.73,1074.7 1113.04,879.832 
  "/>
<line clip-path="url(#clip842)" x1="2077.99" y1="1310.74" x2="2077.99" y2="1294.74" style="stroke:#009af9; stroke-width:3.072; stroke-opacity:1"/>
<line clip-path="url(#clip842)" x1="2077.99" y1="1310.74" x2="2061.99" y2="1310.74" style="stroke:#009af9; stroke-width:3.072; stroke-opacity:1"/>
<line clip-path="url(#clip842)" x1="2077.99" y1="1310.74" x2="2077.99" y2="1326.74" style="stroke:#009af9; stroke-width:3.072; stroke-opacity:1"/>
<line clip-path="url(#clip842)" x1="2077.99" y1="1310.74" x2="2093.99" y2="1310.74" style="stroke:#009af9; stroke-width:3.072; stroke-opacity:1"/>
<line clip-path="url(#clip842)" x1="1782.84" y1="1210.82" x2="1782.84" y2="1194.82" style="stroke:#009af9; stroke-width:3.072; stroke-opacity:1"/>
<line clip-path="url(#clip842)" x1="1782.84" y1="1210.82" x2="1766.84" y2="1210.82" style="stroke:#009af9; stroke-width:3.072; stroke-opacity:1"/>
<line clip-path="url(#clip842)" x1="1782.84" y1="1210.82" x2="1782.84" y2="1226.82" style="stroke:#009af9; stroke-width:3.072; stroke-opacity:1"/>
<line clip-path="url(#clip842)" x1="1782.84" y1="1210.82" x2="1798.84" y2="1210.82" style="stroke:#009af9; stroke-width:3.072; stroke-opacity:1"/>
<line clip-path="url(#clip842)" x1="1461.73" y1="1074.7" x2="1461.73" y2="1058.7" style="stroke:#009af9; stroke-width:3.072; stroke-opacity:1"/>
<line clip-path="url(#clip842)" x1="1461.73" y1="1074.7" x2="1445.73" y2="1074.7" style="stroke:#009af9; stroke-width:3.072; stroke-opacity:1"/>
<line clip-path="url(#clip842)" x1="1461.73" y1="1074.7" x2="1461.73" y2="1090.7" style="stroke:#009af9; stroke-width:3.072; stroke-opacity:1"/>
<line clip-path="url(#clip842)" x1="1461.73" y1="1074.7" x2="1477.73" y2="1074.7" style="stroke:#009af9; stroke-width:3.072; stroke-opacity:1"/>
<line clip-path="url(#clip842)" x1="1113.04" y1="879.832" x2="1113.04" y2="863.832" style="stroke:#009af9; stroke-width:3.072; stroke-opacity:1"/>
<line clip-path="url(#clip842)" x1="1113.04" y1="879.832" x2="1097.04" y2="879.832" style="stroke:#009af9; stroke-width:3.072; stroke-opacity:1"/>
<line clip-path="url(#clip842)" x1="1113.04" y1="879.832" x2="1113.04" y2="895.832" style="stroke:#009af9; stroke-width:3.072; stroke-opacity:1"/>
<line clip-path="url(#clip842)" x1="1113.04" y1="879.832" x2="1129.04" y2="879.832" style="stroke:#009af9; stroke-width:3.072; stroke-opacity:1"/>
<polyline clip-path="url(#clip842)" style="stroke:#e26f46; stroke-linecap:butt; stroke-linejoin:round; stroke-width:12; stroke-opacity:1; fill:none" points="
  2074.66,664.796 1609.77,467.986 1312.32,294.956 1092.65,84.0448 
  "/>
<circle clip-path="url(#clip842)" cx="2074.66" cy="664.796" r="14" fill="#e26f46" fill-rule="evenodd" fill-opacity="1" stroke="#000000" stroke-opacity="1" stroke-width="3.072"/>
<circle clip-path="url(#clip842)" cx="1609.77" cy="467.986" r="14" fill="#e26f46" fill-rule="evenodd" fill-opacity="1" stroke="#000000" stroke-opacity="1" stroke-width="3.072"/>
<circle clip-path="url(#clip842)" cx="1312.32" cy="294.956" r="14" fill="#e26f46" fill-rule="evenodd" fill-opacity="1" stroke="#000000" stroke-opacity="1" stroke-width="3.072"/>
<circle clip-path="url(#clip842)" cx="1092.65" cy="84.0448" r="14" fill="#e26f46" fill-rule="evenodd" fill-opacity="1" stroke="#000000" stroke-opacity="1" stroke-width="3.072"/>
<polyline clip-path="url(#clip842)" style="stroke:#3da44d; stroke-linecap:butt; stroke-linejoin:round; stroke-width:12; stroke-opacity:1; fill:none" points="
  1441.8,829.075 1484.22,724.997 713.679,637.022 308.548,529.601 
  "/>
<line clip-path="url(#clip842)" x1="1441.8" y1="829.075" x2="1441.8" y2="813.075" style="stroke:#3da44d; stroke-width:3.072; stroke-opacity:1"/>
<line clip-path="url(#clip842)" x1="1441.8" y1="829.075" x2="1425.8" y2="829.075" style="stroke:#3da44d; stroke-width:3.072; stroke-opacity:1"/>
<line clip-path="url(#clip842)" x1="1441.8" y1="829.075" x2="1441.8" y2="845.075" style="stroke:#3da44d; stroke-width:3.072; stroke-opacity:1"/>
<line clip-path="url(#clip842)" x1="1441.8" y1="829.075" x2="1457.8" y2="829.075" style="stroke:#3da44d; stroke-width:3.072; stroke-opacity:1"/>
<line clip-path="url(#clip842)" x1="1484.22" y1="724.997" x2="1484.22" y2="708.997" style="stroke:#3da44d; stroke-width:3.072; stroke-opacity:1"/>
<line clip-path="url(#clip842)" x1="1484.22" y1="724.997" x2="1468.22" y2="724.997" style="stroke:#3da44d; stroke-width:3.072; stroke-opacity:1"/>
<line clip-path="url(#clip842)" x1="1484.22" y1="724.997" x2="1484.22" y2="740.997" style="stroke:#3da44d; stroke-width:3.072; stroke-opacity:1"/>
<line clip-path="url(#clip842)" x1="1484.22" y1="724.997" x2="1500.22" y2="724.997" style="stroke:#3da44d; stroke-width:3.072; stroke-opacity:1"/>
<line clip-path="url(#clip842)" x1="713.679" y1="637.022" x2="713.679" y2="621.022" style="stroke:#3da44d; stroke-width:3.072; stroke-opacity:1"/>
<line clip-path="url(#clip842)" x1="713.679" y1="637.022" x2="697.679" y2="637.022" style="stroke:#3da44d; stroke-width:3.072; stroke-opacity:1"/>
<line clip-path="url(#clip842)" x1="713.679" y1="637.022" x2="713.679" y2="653.022" style="stroke:#3da44d; stroke-width:3.072; stroke-opacity:1"/>
<line clip-path="url(#clip842)" x1="713.679" y1="637.022" x2="729.679" y2="637.022" style="stroke:#3da44d; stroke-width:3.072; stroke-opacity:1"/>
<line clip-path="url(#clip842)" x1="308.548" y1="529.601" x2="308.548" y2="513.601" style="stroke:#3da44d; stroke-width:3.072; stroke-opacity:1"/>
<line clip-path="url(#clip842)" x1="308.548" y1="529.601" x2="292.548" y2="529.601" style="stroke:#3da44d; stroke-width:3.072; stroke-opacity:1"/>
<line clip-path="url(#clip842)" x1="308.548" y1="529.601" x2="308.548" y2="545.601" style="stroke:#3da44d; stroke-width:3.072; stroke-opacity:1"/>
<line clip-path="url(#clip842)" x1="308.548" y1="529.601" x2="324.548" y2="529.601" style="stroke:#3da44d; stroke-width:3.072; stroke-opacity:1"/>
<polyline clip-path="url(#clip842)" style="stroke:#c271d2; stroke-linecap:butt; stroke-linejoin:round; stroke-width:12; stroke-opacity:1; fill:none" points="
  2200.01,834.351 1786.77,644.26 1601.63,532.938 1338.82,290.779 
  "/>
<path clip-path="url(#clip842)" d="M2200.01 818.351 L2184.01 834.351 L2200.01 850.351 L2216.01 834.351 L2200.01 818.351 Z" fill="#c271d2" fill-rule="evenodd" fill-opacity="1" stroke="#000000" stroke-opacity="1" stroke-width="3.072"/>
<path clip-path="url(#clip842)" d="M1786.77 628.26 L1770.77 644.26 L1786.77 660.26 L1802.77 644.26 L1786.77 628.26 Z" fill="#c271d2" fill-rule="evenodd" fill-opacity="1" stroke="#000000" stroke-opacity="1" stroke-width="3.072"/>
<path clip-path="url(#clip842)" d="M1601.63 516.938 L1585.63 532.938 L1601.63 548.938 L1617.63 532.938 L1601.63 516.938 Z" fill="#c271d2" fill-rule="evenodd" fill-opacity="1" stroke="#000000" stroke-opacity="1" stroke-width="3.072"/>
<path clip-path="url(#clip842)" d="M1338.82 274.779 L1322.82 290.779 L1338.82 306.779 L1354.82 290.779 L1338.82 274.779 Z" fill="#c271d2" fill-rule="evenodd" fill-opacity="1" stroke="#000000" stroke-opacity="1" stroke-width="3.072"/>
<polyline clip-path="url(#clip842)" style="stroke:#ac8d18; stroke-linecap:butt; stroke-linejoin:round; stroke-width:12; stroke-opacity:1; fill:none" points="
  1970.14,828.811 1690.84,694.976 1072.23,527.665 808.207,366.143 
  "/>
<path clip-path="url(#clip842)" d="M1986.14 812.811 L1954.14 812.811 L1970.14 844.811 L1986.14 812.811 Z" fill="#ac8d18" fill-rule="evenodd" fill-opacity="1" stroke="#000000" stroke-opacity="1" stroke-width="3.072"/>
<path clip-path="url(#clip842)" d="M1706.84 678.976 L1674.84 678.976 L1690.84 710.976 L1706.84 678.976 Z" fill="#ac8d18" fill-rule="evenodd" fill-opacity="1" stroke="#000000" stroke-opacity="1" stroke-width="3.072"/>
<path clip-path="url(#clip842)" d="M1088.23 511.665 L1056.23 511.665 L1072.23 543.665 L1088.23 511.665 Z" fill="#ac8d18" fill-rule="evenodd" fill-opacity="1" stroke="#000000" stroke-opacity="1" stroke-width="3.072"/>
<path clip-path="url(#clip842)" d="M824.207 350.143 L792.207 350.143 L808.207 382.143 L824.207 350.143 Z" fill="#ac8d18" fill-rule="evenodd" fill-opacity="1" stroke="#000000" stroke-opacity="1" stroke-width="3.072"/>
<polyline clip-path="url(#clip842)" style="stroke:#00a9ad; stroke-linecap:butt; stroke-linejoin:round; stroke-width:12; stroke-opacity:1; fill:none" points="
  1703.21,542.733 899.288,549.926 1172.92,525.96 778.33,456.179 
  "/>
<path clip-path="url(#clip842)" d="M1703.21 526.733 L1690.7 532.765 L1687.61 546.301 L1696.27 557.149 L1710.16 557.149 L1718.81 546.301 L1715.73 532.765 Z" fill="#00a9ad" fill-rule="evenodd" fill-opacity="1" stroke="#000000" stroke-opacity="1" stroke-width="3.072"/>
<path clip-path="url(#clip842)" d="M899.288 533.926 L886.776 539.958 L883.688 553.494 L892.344 564.342 L906.232 564.342 L914.888 553.494 L911.8 539.958 Z" fill="#00a9ad" fill-rule="evenodd" fill-opacity="1" stroke="#000000" stroke-opacity="1" stroke-width="3.072"/>
<path clip-path="url(#clip842)" d="M1172.92 509.96 L1160.41 515.992 L1157.32 529.528 L1165.98 540.376 L1179.86 540.376 L1188.52 529.528 L1185.43 515.992 Z" fill="#00a9ad" fill-rule="evenodd" fill-opacity="1" stroke="#000000" stroke-opacity="1" stroke-width="3.072"/>
<path clip-path="url(#clip842)" d="M778.33 440.179 L765.818 446.211 L762.73 459.747 L771.386 470.595 L785.274 470.595 L793.93 459.747 L790.842 446.211 Z" fill="#00a9ad" fill-rule="evenodd" fill-opacity="1" stroke="#000000" stroke-opacity="1" stroke-width="3.072"/>
<path clip-path="url(#clip840)" d="
M1640.49 453.467 L2189.92 453.467 L2189.92 90.5872 L1640.49 90.5872  Z
  " fill="#ffffff" fill-rule="evenodd" fill-opacity="1"/>
<polyline clip-path="url(#clip840)" style="stroke:#000000; stroke-linecap:butt; stroke-linejoin:round; stroke-width:4; stroke-opacity:1; fill:none" points="
  1640.49,453.467 2189.92,453.467 2189.92,90.5872 1640.49,90.5872 1640.49,453.467 
  "/>
<polyline clip-path="url(#clip840)" style="stroke:#009af9; stroke-linecap:butt; stroke-linejoin:round; stroke-width:4; stroke-opacity:1; fill:none" points="
  1662.76,142.427 1796.43,142.427 
  "/>
<line clip-path="url(#clip840)" x1="1729.6" y1="142.427" x2="1729.6" y2="116.827" style="stroke:#009af9; stroke-width:4.9152; stroke-opacity:1"/>
<line clip-path="url(#clip840)" x1="1729.6" y1="142.427" x2="1704" y2="142.427" style="stroke:#009af9; stroke-width:4.9152; stroke-opacity:1"/>
<line clip-path="url(#clip840)" x1="1729.6" y1="142.427" x2="1729.6" y2="168.027" style="stroke:#009af9; stroke-width:4.9152; stroke-opacity:1"/>
<line clip-path="url(#clip840)" x1="1729.6" y1="142.427" x2="1755.2" y2="142.427" style="stroke:#009af9; stroke-width:4.9152; stroke-opacity:1"/>
<path clip-path="url(#clip840)" d="M1835.09 143.504 Q1836.6 144.013 1838.01 145.679 Q1839.45 147.346 1840.88 150.263 L1845.63 159.707 L1840.6 159.707 L1836.18 150.841 Q1834.47 147.369 1832.85 146.235 Q1831.25 145.101 1828.47 145.101 L1823.38 145.101 L1823.38 159.707 L1818.7 159.707 L1818.7 125.147 L1829.26 125.147 Q1835.19 125.147 1838.1 127.624 Q1841.02 130.101 1841.02 135.101 Q1841.02 138.365 1839.49 140.517 Q1837.99 142.67 1835.09 143.504 M1823.38 128.99 L1823.38 141.258 L1829.26 141.258 Q1832.64 141.258 1834.35 139.707 Q1836.09 138.133 1836.09 135.101 Q1836.09 132.068 1834.35 130.541 Q1832.64 128.99 1829.26 128.99 L1823.38 128.99 Z" fill="#000000" fill-rule="evenodd" fill-opacity="1" /><path clip-path="url(#clip840)" d="M1859.38 136.767 Q1855.95 136.767 1853.96 139.453 Q1851.97 142.115 1851.97 146.767 Q1851.97 151.42 1853.94 154.105 Q1855.93 156.767 1859.38 156.767 Q1862.78 156.767 1864.77 154.082 Q1866.76 151.397 1866.76 146.767 Q1866.76 142.161 1864.77 139.476 Q1862.78 136.767 1859.38 136.767 M1859.38 133.156 Q1864.93 133.156 1868.1 136.767 Q1871.27 140.379 1871.27 146.767 Q1871.27 153.133 1868.1 156.767 Q1864.93 160.378 1859.38 160.378 Q1853.8 160.378 1850.63 156.767 Q1847.48 153.133 1847.48 146.767 Q1847.48 140.379 1850.63 136.767 Q1853.8 133.156 1859.38 133.156 Z" fill="#000000" fill-rule="evenodd" fill-opacity="1" /><path clip-path="url(#clip840)" d="M1894.86 134.545 L1894.86 138.573 Q1893.06 137.647 1891.11 137.184 Q1889.17 136.721 1887.08 136.721 Q1883.91 136.721 1882.32 137.693 Q1880.74 138.666 1880.74 140.61 Q1880.74 142.092 1881.88 142.948 Q1883.01 143.781 1886.44 144.545 L1887.89 144.869 Q1892.43 145.842 1894.33 147.624 Q1896.25 149.383 1896.25 152.554 Q1896.25 156.166 1893.38 158.272 Q1890.53 160.378 1885.53 160.378 Q1883.45 160.378 1881.18 159.962 Q1878.94 159.568 1876.44 158.758 L1876.44 154.36 Q1878.8 155.587 1881.09 156.212 Q1883.38 156.814 1885.63 156.814 Q1888.63 156.814 1890.26 155.795 Q1891.88 154.754 1891.88 152.879 Q1891.88 151.142 1890.7 150.216 Q1889.54 149.291 1885.58 148.434 L1884.1 148.087 Q1880.14 147.254 1878.38 145.541 Q1876.62 143.804 1876.62 140.795 Q1876.62 137.138 1879.21 135.147 Q1881.81 133.156 1886.57 133.156 Q1888.94 133.156 1891.02 133.504 Q1893.1 133.851 1894.86 134.545 Z" fill="#000000" fill-rule="evenodd" fill-opacity="1" /><path clip-path="url(#clip840)" d="M1925.21 145.679 L1925.21 147.763 L1905.63 147.763 Q1905.9 152.161 1908.26 154.476 Q1910.65 156.767 1914.88 156.767 Q1917.34 156.767 1919.63 156.166 Q1921.94 155.564 1924.21 154.36 L1924.21 158.388 Q1921.92 159.36 1919.51 159.869 Q1917.11 160.378 1914.63 160.378 Q1908.43 160.378 1904.79 156.767 Q1901.18 153.156 1901.18 146.999 Q1901.18 140.633 1904.61 136.906 Q1908.06 133.156 1913.89 133.156 Q1919.12 133.156 1922.15 136.536 Q1925.21 139.892 1925.21 145.679 M1920.95 144.429 Q1920.9 140.934 1918.98 138.851 Q1917.08 136.767 1913.94 136.767 Q1910.37 136.767 1908.22 138.781 Q1906.09 140.795 1905.76 144.453 L1920.95 144.429 Z" fill="#000000" fill-rule="evenodd" fill-opacity="1" /><path clip-path="url(#clip840)" d="M1953.75 144.059 L1953.75 159.707 L1949.49 159.707 L1949.49 144.198 Q1949.49 140.517 1948.06 138.689 Q1946.62 136.86 1943.75 136.86 Q1940.3 136.86 1938.31 139.059 Q1936.32 141.258 1936.32 145.054 L1936.32 159.707 L1932.04 159.707 L1932.04 133.781 L1936.32 133.781 L1936.32 137.809 Q1937.85 135.471 1939.91 134.314 Q1941.99 133.156 1944.7 133.156 Q1949.17 133.156 1951.46 135.934 Q1953.75 138.689 1953.75 144.059 Z" fill="#000000" fill-rule="evenodd" fill-opacity="1" /><path clip-path="url(#clip840)" d="M1980.86 146.767 Q1980.86 142.068 1978.91 139.406 Q1976.99 136.721 1973.61 136.721 Q1970.23 136.721 1968.29 139.406 Q1966.37 142.068 1966.37 146.767 Q1966.37 151.466 1968.29 154.152 Q1970.23 156.814 1973.61 156.814 Q1976.99 156.814 1978.91 154.152 Q1980.86 151.466 1980.86 146.767 M1966.37 137.717 Q1967.71 135.402 1969.75 134.291 Q1971.81 133.156 1974.65 133.156 Q1979.38 133.156 1982.32 136.906 Q1985.28 140.656 1985.28 146.767 Q1985.28 152.879 1982.32 156.628 Q1979.38 160.378 1974.65 160.378 Q1971.81 160.378 1969.75 159.267 Q1967.71 158.133 1966.37 155.818 L1966.37 159.707 L1962.08 159.707 L1962.08 123.689 L1966.37 123.689 L1966.37 137.717 Z" fill="#000000" fill-rule="evenodd" fill-opacity="1" /><path clip-path="url(#clip840)" d="M2007.36 137.763 Q2006.64 137.346 2005.79 137.161 Q2004.95 136.953 2003.94 136.953 Q2000.32 136.953 1998.38 139.314 Q1996.46 141.652 1996.46 146.05 L1996.46 159.707 L1992.18 159.707 L1992.18 133.781 L1996.46 133.781 L1996.46 137.809 Q1997.8 135.448 1999.95 134.314 Q2002.11 133.156 2005.19 133.156 Q2005.63 133.156 2006.16 133.226 Q2006.69 133.272 2007.34 133.388 L2007.36 137.763 Z" fill="#000000" fill-rule="evenodd" fill-opacity="1" /><path clip-path="url(#clip840)" d="M2020.83 136.767 Q2017.41 136.767 2015.42 139.453 Q2013.43 142.115 2013.43 146.767 Q2013.43 151.42 2015.39 154.105 Q2017.38 156.767 2020.83 156.767 Q2024.24 156.767 2026.23 154.082 Q2028.22 151.397 2028.22 146.767 Q2028.22 142.161 2026.23 139.476 Q2024.24 136.767 2020.83 136.767 M2020.83 133.156 Q2026.39 133.156 2029.56 136.767 Q2032.73 140.379 2032.73 146.767 Q2032.73 153.133 2029.56 156.767 Q2026.39 160.378 2020.83 160.378 Q2015.25 160.378 2012.08 156.767 Q2008.94 153.133 2008.94 146.767 Q2008.94 140.379 2012.08 136.767 Q2015.25 133.156 2020.83 133.156 Z" fill="#000000" fill-rule="evenodd" fill-opacity="1" /><path clip-path="url(#clip840)" d="M2058.45 134.777 L2058.45 138.758 Q2056.64 137.763 2054.81 137.277 Q2053.01 136.767 2051.16 136.767 Q2047.01 136.767 2044.72 139.406 Q2042.43 142.022 2042.43 146.767 Q2042.43 151.513 2044.72 154.152 Q2047.01 156.767 2051.16 156.767 Q2053.01 156.767 2054.81 156.281 Q2056.64 155.772 2058.45 154.777 L2058.45 158.712 Q2056.67 159.545 2054.75 159.962 Q2052.85 160.378 2050.69 160.378 Q2044.84 160.378 2041.39 156.698 Q2037.94 153.017 2037.94 146.767 Q2037.94 140.425 2041.41 136.791 Q2044.91 133.156 2050.97 133.156 Q2052.94 133.156 2054.81 133.573 Q2056.69 133.967 2058.45 134.777 Z" fill="#000000" fill-rule="evenodd" fill-opacity="1" /><path clip-path="url(#clip840)" d="M2065.69 123.689 L2069.98 123.689 L2069.98 144.962 L2082.68 133.781 L2088.12 133.781 L2074.37 145.911 L2088.7 159.707 L2083.15 159.707 L2069.98 147.045 L2069.98 159.707 L2065.69 159.707 L2065.69 123.689 Z" fill="#000000" fill-rule="evenodd" fill-opacity="1" /><path clip-path="url(#clip840)" d="M2097.94 155.772 L2114.26 155.772 L2114.26 159.707 L2092.31 159.707 L2092.31 155.772 Q2094.98 153.017 2099.56 148.388 Q2104.17 143.735 2105.35 142.392 Q2107.59 139.869 2108.47 138.133 Q2109.37 136.374 2109.37 134.684 Q2109.37 131.93 2107.43 130.193 Q2105.51 128.457 2102.41 128.457 Q2100.21 128.457 2097.75 129.221 Q2095.32 129.985 2092.55 131.536 L2092.55 126.814 Q2095.37 125.68 2097.82 125.101 Q2100.28 124.522 2102.31 124.522 Q2107.68 124.522 2110.88 127.207 Q2114.07 129.893 2114.07 134.383 Q2114.07 136.513 2113.26 138.434 Q2112.48 140.332 2110.37 142.925 Q2109.79 143.596 2106.69 146.814 Q2103.59 150.008 2097.94 155.772 Z" fill="#000000" fill-rule="evenodd" fill-opacity="1" /><path clip-path="url(#clip840)" d="M2138.24 141.073 Q2141.6 141.791 2143.47 144.059 Q2145.37 146.328 2145.37 149.661 Q2145.37 154.777 2141.85 157.578 Q2138.33 160.378 2131.85 160.378 Q2129.68 160.378 2127.36 159.939 Q2125.07 159.522 2122.62 158.666 L2122.62 154.152 Q2124.56 155.286 2126.87 155.865 Q2129.19 156.443 2131.71 156.443 Q2136.11 156.443 2138.4 154.707 Q2140.72 152.971 2140.72 149.661 Q2140.72 146.605 2138.56 144.892 Q2136.43 143.156 2132.62 143.156 L2128.59 143.156 L2128.59 139.314 L2132.8 139.314 Q2136.25 139.314 2138.08 137.948 Q2139.91 136.559 2139.91 133.967 Q2139.91 131.305 2138.01 129.893 Q2136.13 128.457 2132.62 128.457 Q2130.69 128.457 2128.49 128.874 Q2126.3 129.291 2123.66 130.17 L2123.66 126.004 Q2126.32 125.263 2128.63 124.893 Q2130.97 124.522 2133.03 124.522 Q2138.36 124.522 2141.46 126.953 Q2144.56 129.36 2144.56 133.48 Q2144.56 136.351 2142.92 138.342 Q2141.27 140.309 2138.24 141.073 Z" fill="#000000" fill-rule="evenodd" fill-opacity="1" /><polyline clip-path="url(#clip840)" style="stroke:#e26f46; stroke-linecap:butt; stroke-linejoin:round; stroke-width:4; stroke-opacity:1; fill:none" points="
  1662.76,194.267 1796.43,194.267 
  "/>
<circle clip-path="url(#clip840)" cx="1729.6" cy="194.267" r="23" fill="#e26f46" fill-rule="evenodd" fill-opacity="1" stroke="#000000" stroke-opacity="1" stroke-width="4.9152"/>
<path clip-path="url(#clip840)" d="M1818.7 176.987 L1823.38 176.987 L1823.38 191.594 L1838.89 176.987 L1844.91 176.987 L1827.76 193.098 L1846.14 211.547 L1839.98 211.547 L1823.38 194.904 L1823.38 211.547 L1818.7 211.547 L1818.7 176.987 Z" fill="#000000" fill-rule="evenodd" fill-opacity="1" /><path clip-path="url(#clip840)" d="M1846.55 185.621 L1851.07 185.621 L1859.17 207.381 L1867.27 185.621 L1871.78 185.621 L1862.06 211.547 L1856.27 211.547 L1846.55 185.621 Z" fill="#000000" fill-rule="evenodd" fill-opacity="1" /><path clip-path="url(#clip840)" d="M1889.45 198.515 Q1884.28 198.515 1882.29 199.695 Q1880.3 200.876 1880.3 203.723 Q1880.3 205.992 1881.78 207.334 Q1883.29 208.654 1885.86 208.654 Q1889.4 208.654 1891.53 206.154 Q1893.68 203.631 1893.68 199.464 L1893.68 198.515 L1889.45 198.515 M1897.94 196.756 L1897.94 211.547 L1893.68 211.547 L1893.68 207.612 Q1892.22 209.973 1890.05 211.107 Q1887.87 212.218 1884.72 212.218 Q1880.74 212.218 1878.38 209.996 Q1876.04 207.751 1876.04 204.001 Q1876.04 199.626 1878.96 197.404 Q1881.9 195.182 1887.71 195.182 L1893.68 195.182 L1893.68 194.765 Q1893.68 191.825 1891.74 190.228 Q1889.82 188.607 1886.32 188.607 Q1884.1 188.607 1881.99 189.14 Q1879.88 189.672 1877.94 190.737 L1877.94 186.802 Q1880.28 185.899 1882.48 185.459 Q1884.68 184.996 1886.76 184.996 Q1892.38 184.996 1895.16 187.913 Q1897.94 190.83 1897.94 196.756 Z" fill="#000000" fill-rule="evenodd" fill-opacity="1" /><path clip-path="url(#clip840)" d="M1928.89 197.519 L1928.89 199.603 L1909.31 199.603 Q1909.58 204.001 1911.95 206.316 Q1914.33 208.607 1918.57 208.607 Q1921.02 208.607 1923.31 208.006 Q1925.63 207.404 1927.89 206.2 L1927.89 210.228 Q1925.6 211.2 1923.19 211.709 Q1920.79 212.218 1918.31 212.218 Q1912.11 212.218 1908.47 208.607 Q1904.86 204.996 1904.86 198.839 Q1904.86 192.473 1908.29 188.746 Q1911.74 184.996 1917.57 184.996 Q1922.8 184.996 1925.83 188.376 Q1928.89 191.732 1928.89 197.519 M1924.63 196.269 Q1924.58 192.774 1922.66 190.691 Q1920.76 188.607 1917.62 188.607 Q1914.05 188.607 1911.9 190.621 Q1909.77 192.635 1909.45 196.293 L1924.63 196.269 Z" fill="#000000" fill-rule="evenodd" fill-opacity="1" /><path clip-path="url(#clip840)" d="M1950.9 189.603 Q1950.19 189.186 1949.33 189.001 Q1948.5 188.793 1947.48 188.793 Q1943.87 188.793 1941.92 191.154 Q1940 193.492 1940 197.89 L1940 211.547 L1935.72 211.547 L1935.72 185.621 L1940 185.621 L1940 189.649 Q1941.34 187.288 1943.5 186.154 Q1945.65 184.996 1948.73 184.996 Q1949.17 184.996 1949.7 185.066 Q1950.23 185.112 1950.88 185.228 L1950.9 189.603 Z" fill="#000000" fill-rule="evenodd" fill-opacity="1" /><path clip-path="url(#clip840)" d="M1976.09 195.899 L1976.09 211.547 L1971.83 211.547 L1971.83 196.038 Q1971.83 192.357 1970.39 190.529 Q1968.96 188.7 1966.09 188.7 Q1962.64 188.7 1960.65 190.899 Q1958.66 193.098 1958.66 196.894 L1958.66 211.547 L1954.38 211.547 L1954.38 185.621 L1958.66 185.621 L1958.66 189.649 Q1960.19 187.311 1962.25 186.154 Q1964.33 184.996 1967.04 184.996 Q1971.5 184.996 1973.8 187.774 Q1976.09 190.529 1976.09 195.899 Z" fill="#000000" fill-rule="evenodd" fill-opacity="1" /><path clip-path="url(#clip840)" d="M1994.63 188.607 Q1991.2 188.607 1989.21 191.293 Q1987.22 193.955 1987.22 198.607 Q1987.22 203.26 1989.19 205.945 Q1991.18 208.607 1994.63 208.607 Q1998.03 208.607 2000.02 205.922 Q2002.01 203.237 2002.01 198.607 Q2002.01 194.001 2000.02 191.316 Q1998.03 188.607 1994.63 188.607 M1994.63 184.996 Q2000.19 184.996 2003.36 188.607 Q2006.53 192.219 2006.53 198.607 Q2006.53 204.973 2003.36 208.607 Q2000.19 212.218 1994.63 212.218 Q1989.05 212.218 1985.88 208.607 Q1982.73 204.973 1982.73 198.607 Q1982.73 192.219 1985.88 188.607 Q1989.05 184.996 1994.63 184.996 Z" fill="#000000" fill-rule="evenodd" fill-opacity="1" /><path clip-path="url(#clip840)" d="M2028.36 192.913 Q2031.71 193.631 2033.59 195.899 Q2035.49 198.168 2035.49 201.501 Q2035.49 206.617 2031.97 209.418 Q2028.45 212.218 2021.97 212.218 Q2019.79 212.218 2017.48 211.779 Q2015.19 211.362 2012.73 210.506 L2012.73 205.992 Q2014.68 207.126 2016.99 207.705 Q2019.31 208.283 2021.83 208.283 Q2026.23 208.283 2028.52 206.547 Q2030.83 204.811 2030.83 201.501 Q2030.83 198.445 2028.68 196.732 Q2026.55 194.996 2022.73 194.996 L2018.7 194.996 L2018.7 191.154 L2022.92 191.154 Q2026.37 191.154 2028.19 189.788 Q2030.02 188.399 2030.02 185.807 Q2030.02 183.145 2028.12 181.733 Q2026.25 180.297 2022.73 180.297 Q2020.81 180.297 2018.61 180.714 Q2016.41 181.131 2013.77 182.01 L2013.77 177.844 Q2016.44 177.103 2018.75 176.733 Q2021.09 176.362 2023.15 176.362 Q2028.47 176.362 2031.57 178.793 Q2034.68 181.2 2034.68 185.32 Q2034.68 188.191 2033.03 190.182 Q2031.39 192.149 2028.36 192.913 Z" fill="#000000" fill-rule="evenodd" fill-opacity="1" /><polyline clip-path="url(#clip840)" style="stroke:#3da44d; stroke-linecap:butt; stroke-linejoin:round; stroke-width:4; stroke-opacity:1; fill:none" points="
  1662.76,246.107 1796.43,246.107 
  "/>
<line clip-path="url(#clip840)" x1="1729.6" y1="246.107" x2="1729.6" y2="220.507" style="stroke:#3da44d; stroke-width:4.9152; stroke-opacity:1"/>
<line clip-path="url(#clip840)" x1="1729.6" y1="246.107" x2="1704" y2="246.107" style="stroke:#3da44d; stroke-width:4.9152; stroke-opacity:1"/>
<line clip-path="url(#clip840)" x1="1729.6" y1="246.107" x2="1729.6" y2="271.707" style="stroke:#3da44d; stroke-width:4.9152; stroke-opacity:1"/>
<line clip-path="url(#clip840)" x1="1729.6" y1="246.107" x2="1755.2" y2="246.107" style="stroke:#3da44d; stroke-width:4.9152; stroke-opacity:1"/>
<path clip-path="url(#clip840)" d="M1818.7 228.827 L1823.38 228.827 L1823.38 243.434 L1838.89 228.827 L1844.91 228.827 L1827.76 244.938 L1846.14 263.387 L1839.98 263.387 L1823.38 246.744 L1823.38 263.387 L1818.7 263.387 L1818.7 228.827 Z" fill="#000000" fill-rule="evenodd" fill-opacity="1" /><path clip-path="url(#clip840)" d="M1869.42 249.359 L1869.42 251.443 L1849.84 251.443 Q1850.12 255.841 1852.48 258.156 Q1854.86 260.447 1859.1 260.447 Q1861.55 260.447 1863.84 259.846 Q1866.16 259.244 1868.43 258.04 L1868.43 262.068 Q1866.14 263.04 1863.73 263.549 Q1861.32 264.058 1858.84 264.058 Q1852.64 264.058 1849.01 260.447 Q1845.39 256.836 1845.39 250.679 Q1845.39 244.313 1848.82 240.586 Q1852.27 236.836 1858.1 236.836 Q1863.33 236.836 1866.37 240.216 Q1869.42 243.572 1869.42 249.359 M1865.16 248.109 Q1865.12 244.614 1863.2 242.531 Q1861.3 240.447 1858.15 240.447 Q1854.58 240.447 1852.43 242.461 Q1850.3 244.475 1849.98 248.133 L1865.16 248.109 Z" fill="#000000" fill-rule="evenodd" fill-opacity="1" /><path clip-path="url(#clip840)" d="M1897.96 247.739 L1897.96 263.387 L1893.7 263.387 L1893.7 247.878 Q1893.7 244.197 1892.27 242.369 Q1890.83 240.54 1887.96 240.54 Q1884.51 240.54 1882.52 242.739 Q1880.53 244.938 1880.53 248.734 L1880.53 263.387 L1876.25 263.387 L1876.25 237.461 L1880.53 237.461 L1880.53 241.489 Q1882.06 239.151 1884.12 237.994 Q1886.2 236.836 1888.91 236.836 Q1893.38 236.836 1895.67 239.614 Q1897.96 242.369 1897.96 247.739 Z" fill="#000000" fill-rule="evenodd" fill-opacity="1" /><path clip-path="url(#clip840)" d="M1932.52 231.489 L1932.52 236.42 Q1930.16 234.221 1927.48 233.133 Q1924.82 232.045 1921.81 232.045 Q1915.88 232.045 1912.73 235.679 Q1909.58 239.29 1909.58 246.142 Q1909.58 252.971 1912.73 256.605 Q1915.88 260.216 1921.81 260.216 Q1924.82 260.216 1927.48 259.128 Q1930.16 258.04 1932.52 255.841 L1932.52 260.725 Q1930.07 262.392 1927.32 263.225 Q1924.58 264.058 1921.53 264.058 Q1913.68 264.058 1909.17 259.267 Q1904.65 254.452 1904.65 246.142 Q1904.65 237.809 1909.17 233.017 Q1913.68 228.202 1921.53 228.202 Q1924.63 228.202 1927.36 229.036 Q1930.12 229.846 1932.52 231.489 Z" fill="#000000" fill-rule="evenodd" fill-opacity="1" /><path clip-path="url(#clip840)" d="M1951.34 250.355 Q1946.18 250.355 1944.19 251.535 Q1942.2 252.716 1942.2 255.563 Q1942.2 257.832 1943.68 259.174 Q1945.19 260.494 1947.76 260.494 Q1951.3 260.494 1953.43 257.994 Q1955.58 255.471 1955.58 251.304 L1955.58 250.355 L1951.34 250.355 M1959.84 248.596 L1959.84 263.387 L1955.58 263.387 L1955.58 259.452 Q1954.12 261.813 1951.94 262.947 Q1949.77 264.058 1946.62 264.058 Q1942.64 264.058 1940.28 261.836 Q1937.94 259.591 1937.94 255.841 Q1937.94 251.466 1940.86 249.244 Q1943.8 247.022 1949.61 247.022 L1955.58 247.022 L1955.58 246.605 Q1955.58 243.665 1953.63 242.068 Q1951.71 240.447 1948.22 240.447 Q1946 240.447 1943.89 240.98 Q1941.78 241.512 1939.84 242.577 L1939.84 238.642 Q1942.18 237.739 1944.38 237.299 Q1946.57 236.836 1948.66 236.836 Q1954.28 236.836 1957.06 239.753 Q1959.84 242.67 1959.84 248.596 Z" fill="#000000" fill-rule="evenodd" fill-opacity="1" /><path clip-path="url(#clip840)" d="M1983.63 241.443 Q1982.92 241.026 1982.06 240.841 Q1981.23 240.633 1980.21 240.633 Q1976.6 240.633 1974.65 242.994 Q1972.73 245.332 1972.73 249.73 L1972.73 263.387 L1968.45 263.387 L1968.45 237.461 L1972.73 237.461 L1972.73 241.489 Q1974.07 239.128 1976.23 237.994 Q1978.38 236.836 1981.46 236.836 Q1981.9 236.836 1982.43 236.906 Q1982.96 236.952 1983.61 237.068 L1983.63 241.443 Z" fill="#000000" fill-rule="evenodd" fill-opacity="1" /><path clip-path="url(#clip840)" d="M1992.22 259.498 L1992.22 273.248 L1987.94 273.248 L1987.94 237.461 L1992.22 237.461 L1992.22 241.397 Q1993.56 239.082 1995.6 237.971 Q1997.66 236.836 2000.51 236.836 Q2005.23 236.836 2008.17 240.586 Q2011.13 244.336 2011.13 250.447 Q2011.13 256.559 2008.17 260.308 Q2005.23 264.058 2000.51 264.058 Q1997.66 264.058 1995.6 262.947 Q1993.56 261.813 1992.22 259.498 M2006.71 250.447 Q2006.71 245.748 2004.77 243.086 Q2002.85 240.401 1999.47 240.401 Q1996.09 240.401 1994.14 243.086 Q1992.22 245.748 1992.22 250.447 Q1992.22 255.146 1994.14 257.832 Q1996.09 260.494 1999.47 260.494 Q2002.85 260.494 2004.77 257.832 Q2006.71 255.146 2006.71 250.447 Z" fill="#000000" fill-rule="evenodd" fill-opacity="1" /><path clip-path="url(#clip840)" d="M2031.64 232.901 L2019.84 251.35 L2031.64 251.35 L2031.64 232.901 M2030.42 228.827 L2036.3 228.827 L2036.3 251.35 L2041.23 251.35 L2041.23 255.239 L2036.3 255.239 L2036.3 263.387 L2031.64 263.387 L2031.64 255.239 L2016.04 255.239 L2016.04 250.725 L2030.42 228.827 Z" fill="#000000" fill-rule="evenodd" fill-opacity="1" /><polyline clip-path="url(#clip840)" style="stroke:#c271d2; stroke-linecap:butt; stroke-linejoin:round; stroke-width:4; stroke-opacity:1; fill:none" points="
  1662.76,297.947 1796.43,297.947 
  "/>
<path clip-path="url(#clip840)" d="M1729.6 272.347 L1704 297.947 L1729.6 323.547 L1755.2 297.947 L1729.6 272.347 Z" fill="#c271d2" fill-rule="evenodd" fill-opacity="1" stroke="#000000" stroke-opacity="1" stroke-width="4.9152"/>
<path clip-path="url(#clip840)" d="M1818.7 280.667 L1847.94 280.667 L1847.94 284.602 L1835.67 284.602 L1835.67 315.227 L1830.97 315.227 L1830.97 284.602 L1818.7 284.602 L1818.7 280.667 Z" fill="#000000" fill-rule="evenodd" fill-opacity="1" /><path clip-path="url(#clip840)" d="M1868.84 299.024 Q1870.35 299.533 1871.76 301.199 Q1873.2 302.866 1874.63 305.783 L1879.38 315.227 L1874.35 315.227 L1869.93 306.361 Q1868.22 302.889 1866.6 301.755 Q1865 300.621 1862.22 300.621 L1857.13 300.621 L1857.13 315.227 L1852.45 315.227 L1852.45 280.667 L1863.01 280.667 Q1868.94 280.667 1871.85 283.144 Q1874.77 285.621 1874.77 290.621 Q1874.77 293.885 1873.24 296.037 Q1871.74 298.19 1868.84 299.024 M1857.13 284.51 L1857.13 296.778 L1863.01 296.778 Q1866.39 296.778 1868.1 295.227 Q1869.84 293.653 1869.84 290.621 Q1869.84 287.588 1868.1 286.061 Q1866.39 284.51 1863.01 284.51 L1857.13 284.51 Z" fill="#000000" fill-rule="evenodd" fill-opacity="1" /><path clip-path="url(#clip840)" d="M1890.07 298.723 L1890.07 311.385 L1897.57 311.385 Q1901.34 311.385 1903.15 309.834 Q1904.98 308.26 1904.98 305.042 Q1904.98 301.801 1903.15 300.274 Q1901.34 298.723 1897.57 298.723 L1890.07 298.723 M1890.07 284.51 L1890.07 294.926 L1896.99 294.926 Q1900.42 294.926 1902.08 293.653 Q1903.77 292.357 1903.77 289.718 Q1903.77 287.102 1902.08 285.806 Q1900.42 284.51 1896.99 284.51 L1890.07 284.51 M1885.39 280.667 L1897.34 280.667 Q1902.69 280.667 1905.58 282.889 Q1908.47 285.112 1908.47 289.209 Q1908.47 292.38 1906.99 294.255 Q1905.51 296.13 1902.64 296.593 Q1906.09 297.334 1907.99 299.695 Q1909.91 302.033 1909.91 305.551 Q1909.91 310.181 1906.76 312.704 Q1903.61 315.227 1897.8 315.227 L1885.39 315.227 L1885.39 280.667 Z" fill="#000000" fill-rule="evenodd" fill-opacity="1" /><path clip-path="url(#clip840)" d="M1922.59 284.51 L1922.59 311.385 L1928.24 311.385 Q1935.39 311.385 1938.7 308.144 Q1942.04 304.903 1942.04 297.912 Q1942.04 290.968 1938.7 287.75 Q1935.39 284.51 1928.24 284.51 L1922.59 284.51 M1917.92 280.667 L1927.52 280.667 Q1937.57 280.667 1942.27 284.857 Q1946.97 289.024 1946.97 297.912 Q1946.97 306.848 1942.25 311.037 Q1937.52 315.227 1927.52 315.227 L1917.92 315.227 L1917.92 280.667 Z" fill="#000000" fill-rule="evenodd" fill-opacity="1" /><path clip-path="url(#clip840)" d="M1954.42 280.667 L1974.28 280.667 L1974.28 284.602 L1959.1 284.602 L1959.1 294.787 L1972.8 294.787 L1972.8 298.723 L1959.1 298.723 L1959.1 315.227 L1954.42 315.227 L1954.42 280.667 Z" fill="#000000" fill-rule="evenodd" fill-opacity="1" /><path clip-path="url(#clip840)" d="M1986.13 311.292 L2002.45 311.292 L2002.45 315.227 L1980.51 315.227 L1980.51 311.292 Q1983.17 308.537 1987.75 303.908 Q1992.36 299.255 1993.54 297.912 Q1995.79 295.389 1996.67 293.653 Q1997.57 291.894 1997.57 290.204 Q1997.57 287.45 1995.63 285.713 Q1993.7 283.977 1990.6 283.977 Q1988.4 283.977 1985.95 284.741 Q1983.52 285.505 1980.74 287.056 L1980.74 282.334 Q1983.56 281.2 1986.02 280.621 Q1988.47 280.042 1990.51 280.042 Q1995.88 280.042 1999.07 282.727 Q2002.27 285.413 2002.27 289.903 Q2002.27 292.033 2001.46 293.954 Q2000.67 295.852 1998.56 298.445 Q1997.99 299.116 1994.88 302.334 Q1991.78 305.528 1986.13 311.292 Z" fill="#000000" fill-rule="evenodd" fill-opacity="1" /><polyline clip-path="url(#clip840)" style="stroke:#ac8d18; stroke-linecap:butt; stroke-linejoin:round; stroke-width:4; stroke-opacity:1; fill:none" points="
  1662.76,349.787 1796.43,349.787 
  "/>
<path clip-path="url(#clip840)" d="M1755.2 324.187 L1704 324.187 L1729.6 375.387 L1755.2 324.187 Z" fill="#ac8d18" fill-rule="evenodd" fill-opacity="1" stroke="#000000" stroke-opacity="1" stroke-width="4.9152"/>
<path clip-path="url(#clip840)" d="M1818.7 332.507 L1823.38 332.507 L1823.38 347.114 L1838.89 332.507 L1844.91 332.507 L1827.76 348.618 L1846.14 367.067 L1839.98 367.067 L1823.38 350.424 L1823.38 367.067 L1818.7 367.067 L1818.7 332.507 Z" fill="#000000" fill-rule="evenodd" fill-opacity="1" /><path clip-path="url(#clip840)" d="M1869.42 353.039 L1869.42 355.123 L1849.84 355.123 Q1850.12 359.521 1852.48 361.836 Q1854.86 364.127 1859.1 364.127 Q1861.55 364.127 1863.84 363.526 Q1866.16 362.924 1868.43 361.72 L1868.43 365.748 Q1866.14 366.72 1863.73 367.229 Q1861.32 367.738 1858.84 367.738 Q1852.64 367.738 1849.01 364.127 Q1845.39 360.516 1845.39 354.359 Q1845.39 347.993 1848.82 344.266 Q1852.27 340.516 1858.1 340.516 Q1863.33 340.516 1866.37 343.896 Q1869.42 347.252 1869.42 353.039 M1865.16 351.789 Q1865.12 348.294 1863.2 346.211 Q1861.3 344.127 1858.15 344.127 Q1854.58 344.127 1852.43 346.141 Q1850.3 348.155 1849.98 351.813 L1865.16 351.789 Z" fill="#000000" fill-rule="evenodd" fill-opacity="1" /><path clip-path="url(#clip840)" d="M1897.96 351.419 L1897.96 367.067 L1893.7 367.067 L1893.7 351.558 Q1893.7 347.877 1892.27 346.049 Q1890.83 344.22 1887.96 344.22 Q1884.51 344.22 1882.52 346.419 Q1880.53 348.618 1880.53 352.414 L1880.53 367.067 L1876.25 367.067 L1876.25 341.141 L1880.53 341.141 L1880.53 345.169 Q1882.06 342.831 1884.12 341.674 Q1886.2 340.516 1888.91 340.516 Q1893.38 340.516 1895.67 343.294 Q1897.96 346.049 1897.96 351.419 Z" fill="#000000" fill-rule="evenodd" fill-opacity="1" /><path clip-path="url(#clip840)" d="M1932.52 335.169 L1932.52 340.1 Q1930.16 337.901 1927.48 336.813 Q1924.82 335.725 1921.81 335.725 Q1915.88 335.725 1912.73 339.359 Q1909.58 342.97 1909.58 349.822 Q1909.58 356.651 1912.73 360.285 Q1915.88 363.896 1921.81 363.896 Q1924.82 363.896 1927.48 362.808 Q1930.16 361.72 1932.52 359.521 L1932.52 364.405 Q1930.07 366.072 1927.32 366.905 Q1924.58 367.738 1921.53 367.738 Q1913.68 367.738 1909.17 362.947 Q1904.65 358.132 1904.65 349.822 Q1904.65 341.489 1909.17 336.697 Q1913.68 331.882 1921.53 331.882 Q1924.63 331.882 1927.36 332.716 Q1930.12 333.526 1932.52 335.169 Z" fill="#000000" fill-rule="evenodd" fill-opacity="1" /><path clip-path="url(#clip840)" d="M1951.34 354.035 Q1946.18 354.035 1944.19 355.215 Q1942.2 356.396 1942.2 359.243 Q1942.2 361.512 1943.68 362.854 Q1945.19 364.174 1947.76 364.174 Q1951.3 364.174 1953.43 361.674 Q1955.58 359.151 1955.58 354.984 L1955.58 354.035 L1951.34 354.035 M1959.84 352.276 L1959.84 367.067 L1955.58 367.067 L1955.58 363.132 Q1954.12 365.493 1951.94 366.627 Q1949.77 367.738 1946.62 367.738 Q1942.64 367.738 1940.28 365.516 Q1937.94 363.271 1937.94 359.521 Q1937.94 355.146 1940.86 352.924 Q1943.8 350.702 1949.61 350.702 L1955.58 350.702 L1955.58 350.285 Q1955.58 347.345 1953.63 345.748 Q1951.71 344.127 1948.22 344.127 Q1946 344.127 1943.89 344.66 Q1941.78 345.192 1939.84 346.257 L1939.84 342.322 Q1942.18 341.419 1944.38 340.979 Q1946.57 340.516 1948.66 340.516 Q1954.28 340.516 1957.06 343.433 Q1959.84 346.35 1959.84 352.276 Z" fill="#000000" fill-rule="evenodd" fill-opacity="1" /><path clip-path="url(#clip840)" d="M1983.63 345.123 Q1982.92 344.706 1982.06 344.521 Q1981.23 344.313 1980.21 344.313 Q1976.6 344.313 1974.65 346.674 Q1972.73 349.012 1972.73 353.41 L1972.73 367.067 L1968.45 367.067 L1968.45 341.141 L1972.73 341.141 L1972.73 345.169 Q1974.07 342.808 1976.23 341.674 Q1978.38 340.516 1981.46 340.516 Q1981.9 340.516 1982.43 340.586 Q1982.96 340.632 1983.61 340.748 L1983.63 345.123 Z" fill="#000000" fill-rule="evenodd" fill-opacity="1" /><path clip-path="url(#clip840)" d="M1992.22 363.178 L1992.22 376.928 L1987.94 376.928 L1987.94 341.141 L1992.22 341.141 L1992.22 345.077 Q1993.56 342.762 1995.6 341.651 Q1997.66 340.516 2000.51 340.516 Q2005.23 340.516 2008.17 344.266 Q2011.13 348.016 2011.13 354.127 Q2011.13 360.239 2008.17 363.988 Q2005.23 367.738 2000.51 367.738 Q1997.66 367.738 1995.6 366.627 Q1993.56 365.493 1992.22 363.178 M2006.71 354.127 Q2006.71 349.428 2004.77 346.766 Q2002.85 344.081 1999.47 344.081 Q1996.09 344.081 1994.14 346.766 Q1992.22 349.428 1992.22 354.127 Q1992.22 358.826 1994.14 361.512 Q1996.09 364.174 1999.47 364.174 Q2002.85 364.174 2004.77 361.512 Q2006.71 358.826 2006.71 354.127 Z" fill="#000000" fill-rule="evenodd" fill-opacity="1" /><path clip-path="url(#clip840)" d="M2032.96 348.433 Q2036.32 349.151 2038.19 351.419 Q2040.09 353.688 2040.09 357.021 Q2040.09 362.137 2036.57 364.938 Q2033.06 367.738 2026.57 367.738 Q2024.4 367.738 2022.08 367.299 Q2019.79 366.882 2017.34 366.026 L2017.34 361.512 Q2019.28 362.646 2021.6 363.225 Q2023.91 363.803 2026.44 363.803 Q2030.83 363.803 2033.12 362.067 Q2035.44 360.331 2035.44 357.021 Q2035.44 353.965 2033.29 352.252 Q2031.16 350.516 2027.34 350.516 L2023.31 350.516 L2023.31 346.674 L2027.52 346.674 Q2030.97 346.674 2032.8 345.308 Q2034.63 343.919 2034.63 341.327 Q2034.63 338.665 2032.73 337.253 Q2030.86 335.817 2027.34 335.817 Q2025.42 335.817 2023.22 336.234 Q2021.02 336.651 2018.38 337.53 L2018.38 333.364 Q2021.04 332.623 2023.36 332.253 Q2025.69 331.882 2027.75 331.882 Q2033.08 331.882 2036.18 334.313 Q2039.28 336.72 2039.28 340.84 Q2039.28 343.711 2037.64 345.702 Q2036 347.669 2032.96 348.433 Z" fill="#000000" fill-rule="evenodd" fill-opacity="1" /><polyline clip-path="url(#clip840)" style="stroke:#00a9ad; stroke-linecap:butt; stroke-linejoin:round; stroke-width:4; stroke-opacity:1; fill:none" points="
  1662.76,401.627 1796.43,401.627 
  "/>
<path clip-path="url(#clip840)" d="M1729.6 376.027 L1709.58 385.678 L1704.64 407.336 L1718.49 424.693 L1740.71 424.693 L1754.56 407.336 L1749.61 385.678 Z" fill="#00a9ad" fill-rule="evenodd" fill-opacity="1" stroke="#000000" stroke-opacity="1" stroke-width="4.9152"/>
<path clip-path="url(#clip840)" d="M1833.89 396.963 Q1833.17 396.546 1832.32 396.361 Q1831.48 396.153 1830.46 396.153 Q1826.85 396.153 1824.91 398.514 Q1822.99 400.852 1822.99 405.25 L1822.99 418.907 L1818.7 418.907 L1818.7 392.981 L1822.99 392.981 L1822.99 397.009 Q1824.33 394.648 1826.48 393.514 Q1828.64 392.356 1831.71 392.356 Q1832.15 392.356 1832.69 392.426 Q1833.22 392.472 1833.87 392.588 L1833.89 396.963 Z" fill="#000000" fill-rule="evenodd" fill-opacity="1" /><path clip-path="url(#clip840)" d="M1850.14 405.875 Q1844.98 405.875 1842.99 407.055 Q1841 408.236 1841 411.083 Q1841 413.352 1842.48 414.694 Q1843.98 416.014 1846.55 416.014 Q1850.09 416.014 1852.22 413.514 Q1854.38 410.991 1854.38 406.824 L1854.38 405.875 L1850.14 405.875 M1858.64 404.116 L1858.64 418.907 L1854.38 418.907 L1854.38 414.972 Q1852.92 417.333 1850.74 418.467 Q1848.57 419.578 1845.42 419.578 Q1841.44 419.578 1839.08 417.356 Q1836.74 415.111 1836.74 411.361 Q1836.74 406.986 1839.65 404.764 Q1842.59 402.542 1848.4 402.542 L1854.38 402.542 L1854.38 402.125 Q1854.38 399.185 1852.43 397.588 Q1850.51 395.967 1847.01 395.967 Q1844.79 395.967 1842.69 396.5 Q1840.58 397.032 1838.64 398.097 L1838.64 394.162 Q1840.97 393.259 1843.17 392.819 Q1845.37 392.356 1847.45 392.356 Q1853.08 392.356 1855.86 395.273 Q1858.64 398.19 1858.64 404.116 Z" fill="#000000" fill-rule="evenodd" fill-opacity="1" /><path clip-path="url(#clip840)" d="M1884.47 396.917 L1884.47 382.889 L1888.73 382.889 L1888.73 418.907 L1884.47 418.907 L1884.47 415.018 Q1883.13 417.333 1881.07 418.467 Q1879.03 419.578 1876.16 419.578 Q1871.46 419.578 1868.5 415.828 Q1865.56 412.079 1865.56 405.967 Q1865.56 399.856 1868.5 396.106 Q1871.46 392.356 1876.16 392.356 Q1879.03 392.356 1881.07 393.491 Q1883.13 394.602 1884.47 396.917 M1869.95 405.967 Q1869.95 410.666 1871.88 413.352 Q1873.82 416.014 1877.2 416.014 Q1880.58 416.014 1882.52 413.352 Q1884.47 410.666 1884.47 405.967 Q1884.47 401.268 1882.52 398.606 Q1880.58 395.921 1877.2 395.921 Q1873.82 395.921 1871.88 398.606 Q1869.95 401.268 1869.95 405.967 Z" fill="#000000" fill-rule="evenodd" fill-opacity="1" /><path clip-path="url(#clip840)" d="M1909.28 405.875 Q1904.12 405.875 1902.13 407.055 Q1900.14 408.236 1900.14 411.083 Q1900.14 413.352 1901.62 414.694 Q1903.13 416.014 1905.7 416.014 Q1909.24 416.014 1911.37 413.514 Q1913.52 410.991 1913.52 406.824 L1913.52 405.875 L1909.28 405.875 M1917.78 404.116 L1917.78 418.907 L1913.52 418.907 L1913.52 414.972 Q1912.06 417.333 1909.88 418.467 Q1907.71 419.578 1904.56 419.578 Q1900.58 419.578 1898.22 417.356 Q1895.88 415.111 1895.88 411.361 Q1895.88 406.986 1898.8 404.764 Q1901.74 402.542 1907.55 402.542 L1913.52 402.542 L1913.52 402.125 Q1913.52 399.185 1911.57 397.588 Q1909.65 395.967 1906.16 395.967 Q1903.94 395.967 1901.83 396.5 Q1899.72 397.032 1897.78 398.097 L1897.78 394.162 Q1900.12 393.259 1902.32 392.819 Q1904.51 392.356 1906.6 392.356 Q1912.22 392.356 1915 395.273 Q1917.78 398.19 1917.78 404.116 Z" fill="#000000" fill-rule="evenodd" fill-opacity="1" /><path clip-path="url(#clip840)" d="M1926.11 408.676 L1926.11 392.981 L1930.37 392.981 L1930.37 408.514 Q1930.37 412.194 1931.81 414.046 Q1933.24 415.875 1936.11 415.875 Q1939.56 415.875 1941.55 413.676 Q1943.57 411.477 1943.57 407.68 L1943.57 392.981 L1947.82 392.981 L1947.82 418.907 L1943.57 418.907 L1943.57 414.926 Q1942.01 417.287 1939.95 418.444 Q1937.92 419.578 1935.21 419.578 Q1930.74 419.578 1928.43 416.801 Q1926.11 414.023 1926.11 408.676 M1936.83 392.356 L1936.83 392.356 Z" fill="#000000" fill-rule="evenodd" fill-opacity="1" /></svg>
