<?xml version="1.0" encoding="utf-8"?>
<svg xmlns="http://www.w3.org/2000/svg" xmlns:xlink="http://www.w3.org/1999/xlink" width="576" height="384" viewBox="0 0 2304 1536">
<defs>
  <clipPath id="clip640">
    <rect x="0" y="0" width="2304" height="1536"/>
  </clipPath>
</defs>
<path clip-path="url(#clip640)" d="
M0 1536 L2304 1536 L2304 0 L0 0  Z
  " fill="#ffffff" fill-rule="evenodd" fill-opacity="1"/>
<defs>
  <clipPath id="clip641">
    <rect x="460" y="0" width="1614" height="1536"/>
  </clipPath>
</defs>
<path clip-path="url(#clip640)" d="
M251.804 1347.54 L2256.76 1347.54 L2256.76 47.2441 L251.804 47.2441  Z
  " fill="#ffffff" fill-rule="evenodd" fill-opacity="1"/>
<defs>
  <clipPath id="clip642">
    <rect x="251" y="47" width="2006" height="1301"/>
  </clipPath>
</defs>
<polyline clip-path="url(#clip642)" style="stroke:#000000; stroke-linecap:butt; stroke-linejoin:round; stroke-width:2; stroke-opacity:0.1; fill:none" points="
  916.319,1347.54 916.319,47.2441 
  "/>
<polyline clip-path="url(#clip642)" style="stroke:#000000; stroke-linecap:butt; stroke-linejoin:round; stroke-width:2; stroke-opacity:0.1; fill:none" points="
  1684.46,1347.54 1684.46,47.2441 
  "/>
<polyline clip-path="url(#clip640)" style="stroke:#000000; stroke-linecap:butt; stroke-linejoin:round; stroke-width:4; stroke-opacity:1; fill:none" points="
  251.804,1347.54 2256.76,1347.54 
  "/>
<polyline clip-path="url(#clip640)" style="stroke:#000000; stroke-linecap:butt; stroke-linejoin:round; stroke-width:4; stroke-opacity:1; fill:none" points="
  916.319,1347.54 916.319,1328.64 
  "/>
<polyline clip-path="url(#clip640)" style="stroke:#000000; stroke-linecap:butt; stroke-linejoin:round; stroke-width:4; stroke-opacity:1; fill:none" points="
  1684.46,1347.54 1684.46,1328.64 
  "/>
<path clip-path="url(#clip640)" d="M865.87 1420.89 L873.509 1420.89 L873.509 1394.53 L865.199 1396.19 L865.199 1391.94 L873.462 1390.27 L878.138 1390.27 L878.138 1420.89 L885.777 1420.89 L885.777 1424.83 L865.87 1424.83 L865.87 1420.89 Z" fill="#000000" fill-rule="evenodd" fill-opacity="1" /><path clip-path="url(#clip640)" d="M905.221 1393.35 Q901.61 1393.35 899.782 1396.91 Q897.976 1400.45 897.976 1407.58 Q897.976 1414.69 899.782 1418.25 Q901.61 1421.8 905.221 1421.8 Q908.856 1421.8 910.661 1418.25 Q912.49 1414.69 912.49 1407.58 Q912.49 1400.45 910.661 1396.91 Q908.856 1393.35 905.221 1393.35 M905.221 1389.64 Q911.032 1389.64 914.087 1394.25 Q917.166 1398.83 917.166 1407.58 Q917.166 1416.31 914.087 1420.92 Q911.032 1425.5 905.221 1425.5 Q899.411 1425.5 896.333 1420.92 Q893.277 1416.31 893.277 1407.58 Q893.277 1398.83 896.333 1394.25 Q899.411 1389.64 905.221 1389.64 Z" fill="#000000" fill-rule="evenodd" fill-opacity="1" /><path clip-path="url(#clip640)" d="M917.166 1383.74 L941.277 1383.74 L941.277 1386.94 L917.166 1386.94 L917.166 1383.74 Z" fill="#000000" fill-rule="evenodd" fill-opacity="1" /><path clip-path="url(#clip640)" d="M958.073 1381.86 Q955.515 1381.86 954.01 1383.61 Q952.524 1385.36 952.524 1388.41 Q952.524 1391.44 954.01 1393.21 Q955.515 1394.95 958.073 1394.95 Q960.631 1394.95 962.116 1393.21 Q963.621 1391.44 963.621 1388.41 Q963.621 1385.36 962.116 1383.61 Q960.631 1381.86 958.073 1381.86 M965.615 1369.96 L965.615 1373.42 Q964.185 1372.74 962.718 1372.39 Q961.27 1372.03 959.841 1372.03 Q956.079 1372.03 954.085 1374.57 Q952.111 1377.11 951.829 1382.24 Q952.938 1380.6 954.612 1379.74 Q956.286 1378.85 958.298 1378.85 Q962.53 1378.85 964.975 1381.43 Q967.439 1383.99 967.439 1388.41 Q967.439 1392.74 964.881 1395.35 Q962.323 1397.96 958.073 1397.96 Q953.202 1397.96 950.625 1394.24 Q948.048 1390.5 948.048 1383.41 Q948.048 1376.75 951.208 1372.8 Q954.368 1368.83 959.69 1368.83 Q961.12 1368.83 962.568 1369.11 Q964.035 1369.39 965.615 1369.96 Z" fill="#000000" fill-rule="evenodd" fill-opacity="1" /><path clip-path="url(#clip640)" d="M1633.88 1420.89 L1641.52 1420.89 L1641.52 1394.53 L1633.21 1396.19 L1633.21 1391.94 L1641.47 1390.27 L1646.15 1390.27 L1646.15 1420.89 L1653.79 1420.89 L1653.79 1424.83 L1633.88 1424.83 L1633.88 1420.89 Z" fill="#000000" fill-rule="evenodd" fill-opacity="1" /><path clip-path="url(#clip640)" d="M1673.23 1393.35 Q1669.62 1393.35 1667.79 1396.91 Q1665.99 1400.45 1665.99 1407.58 Q1665.99 1414.69 1667.79 1418.25 Q1669.62 1421.8 1673.23 1421.8 Q1676.87 1421.8 1678.67 1418.25 Q1680.5 1414.69 1680.5 1407.58 Q1680.5 1400.45 1678.67 1396.91 Q1676.87 1393.35 1673.23 1393.35 M1673.23 1389.64 Q1679.04 1389.64 1682.1 1394.25 Q1685.18 1398.83 1685.18 1407.58 Q1685.18 1416.31 1682.1 1420.92 Q1679.04 1425.5 1673.23 1425.5 Q1667.42 1425.5 1664.35 1420.92 Q1661.29 1416.31 1661.29 1407.58 Q1661.29 1398.83 1664.35 1394.25 Q1667.42 1389.64 1673.23 1389.64 Z" fill="#000000" fill-rule="evenodd" fill-opacity="1" /><path clip-path="url(#clip640)" d="M1685.18 1383.74 L1709.29 1383.74 L1709.29 1386.94 L1685.18 1386.94 L1685.18 1383.74 Z" fill="#000000" fill-rule="evenodd" fill-opacity="1" /><path clip-path="url(#clip640)" d="M1727.93 1372.65 L1718.34 1387.64 L1727.93 1387.64 L1727.93 1372.65 M1726.93 1369.34 L1731.71 1369.34 L1731.71 1387.64 L1735.71 1387.64 L1735.71 1390.8 L1731.71 1390.8 L1731.71 1397.42 L1727.93 1397.42 L1727.93 1390.8 L1715.25 1390.8 L1715.25 1387.13 L1726.93 1369.34 Z" fill="#000000" fill-rule="evenodd" fill-opacity="1" /><path clip-path="url(#clip640)" d="M1178.03 1461.87 L1208.08 1461.87 L1208.08 1467.28 L1184.46 1467.28 L1184.46 1481.34 L1207.09 1481.34 L1207.09 1486.76 L1184.46 1486.76 L1184.46 1503.97 L1208.65 1503.97 L1208.65 1509.39 L1178.03 1509.39 L1178.03 1461.87 Z" fill="#000000" fill-rule="evenodd" fill-opacity="1" /><path clip-path="url(#clip640)" d="M1239.62 1479.21 Q1238.64 1478.64 1237.46 1478.38 Q1236.31 1478.1 1234.91 1478.1 Q1229.95 1478.1 1227.27 1481.34 Q1224.63 1484.56 1224.63 1490.61 L1224.63 1509.39 L1218.74 1509.39 L1218.74 1473.74 L1224.63 1473.74 L1224.63 1479.28 Q1226.48 1476.03 1229.44 1474.47 Q1232.4 1472.88 1236.63 1472.88 Q1237.24 1472.88 1237.97 1472.97 Q1238.7 1473.04 1239.59 1473.2 L1239.62 1479.21 Z" fill="#000000" fill-rule="evenodd" fill-opacity="1" /><path clip-path="url(#clip640)" d="M1265.28 1479.21 Q1264.29 1478.64 1263.11 1478.38 Q1261.97 1478.1 1260.57 1478.1 Q1255.6 1478.1 1252.93 1481.34 Q1250.29 1484.56 1250.29 1490.61 L1250.29 1509.39 L1244.4 1509.39 L1244.4 1473.74 L1250.29 1473.74 L1250.29 1479.28 Q1252.13 1476.03 1255.09 1474.47 Q1258.05 1472.88 1262.28 1472.88 Q1262.89 1472.88 1263.62 1472.97 Q1264.35 1473.04 1265.24 1473.2 L1265.28 1479.21 Z" fill="#000000" fill-rule="evenodd" fill-opacity="1" /><path clip-path="url(#clip640)" d="M1283.8 1477.84 Q1279.09 1477.84 1276.35 1481.54 Q1273.62 1485.2 1273.62 1491.59 Q1273.62 1497.99 1276.32 1501.68 Q1279.06 1505.34 1283.8 1505.34 Q1288.48 1505.34 1291.22 1501.65 Q1293.95 1497.96 1293.95 1491.59 Q1293.95 1485.26 1291.22 1481.57 Q1288.48 1477.84 1283.8 1477.84 M1283.8 1472.88 Q1291.44 1472.88 1295.8 1477.84 Q1300.16 1482.81 1300.16 1491.59 Q1300.16 1500.35 1295.8 1505.34 Q1291.44 1510.31 1283.8 1510.31 Q1276.13 1510.31 1271.77 1505.34 Q1267.44 1500.35 1267.44 1491.59 Q1267.44 1482.81 1271.77 1477.84 Q1276.13 1472.88 1283.8 1472.88 Z" fill="#000000" fill-rule="evenodd" fill-opacity="1" /><path clip-path="url(#clip640)" d="M1330.53 1479.21 Q1329.54 1478.64 1328.36 1478.38 Q1327.22 1478.1 1325.81 1478.1 Q1320.85 1478.1 1318.18 1481.34 Q1315.53 1484.56 1315.53 1490.61 L1315.53 1509.39 L1309.65 1509.39 L1309.65 1473.74 L1315.53 1473.74 L1315.53 1479.28 Q1317.38 1476.03 1320.34 1474.47 Q1323.3 1472.88 1327.53 1472.88 Q1328.14 1472.88 1328.87 1472.97 Q1329.6 1473.04 1330.49 1473.2 L1330.53 1479.21 Z" fill="#000000" fill-rule="evenodd" fill-opacity="1" /><polyline clip-path="url(#clip642)" style="stroke:#000000; stroke-linecap:butt; stroke-linejoin:round; stroke-width:2; stroke-opacity:0.1; fill:none" points="
  251.804,821.849 2256.76,821.849 
  "/>
<polyline clip-path="url(#clip642)" style="stroke:#000000; stroke-linecap:butt; stroke-linejoin:round; stroke-width:2; stroke-opacity:0.1; fill:none" points="
  251.804,65.3812 2256.76,65.3812 
  "/>
<polyline clip-path="url(#clip640)" style="stroke:#000000; stroke-linecap:butt; stroke-linejoin:round; stroke-width:4; stroke-opacity:1; fill:none" points="
  251.804,1347.54 251.804,47.2441 
  "/>
<polyline clip-path="url(#clip640)" style="stroke:#000000; stroke-linecap:butt; stroke-linejoin:round; stroke-width:4; stroke-opacity:1; fill:none" points="
  251.804,821.849 270.702,821.849 
  "/>
<polyline clip-path="url(#clip640)" style="stroke:#000000; stroke-linecap:butt; stroke-linejoin:round; stroke-width:4; stroke-opacity:1; fill:none" points="
  251.804,65.3812 270.702,65.3812 
  "/>
<path clip-path="url(#clip640)" d="M115.411 841.641 L123.05 841.641 L123.05 815.276 L114.74 816.942 L114.74 812.683 L123.004 811.017 L127.68 811.017 L127.68 841.641 L135.319 841.641 L135.319 845.577 L115.411 845.577 L115.411 841.641 Z" fill="#000000" fill-rule="evenodd" fill-opacity="1" /><path clip-path="url(#clip640)" d="M154.763 814.095 Q151.152 814.095 149.323 817.66 Q147.518 821.202 147.518 828.331 Q147.518 835.438 149.323 839.002 Q151.152 842.544 154.763 842.544 Q158.397 842.544 160.203 839.002 Q162.032 835.438 162.032 828.331 Q162.032 821.202 160.203 817.66 Q158.397 814.095 154.763 814.095 M154.763 810.392 Q160.573 810.392 163.629 814.998 Q166.707 819.581 166.707 828.331 Q166.707 837.058 163.629 841.665 Q160.573 846.248 154.763 846.248 Q148.953 846.248 145.874 841.665 Q142.819 837.058 142.819 828.331 Q142.819 819.581 145.874 814.998 Q148.953 810.392 154.763 810.392 Z" fill="#000000" fill-rule="evenodd" fill-opacity="1" /><path clip-path="url(#clip640)" d="M166.707 804.493 L190.819 804.493 L190.819 807.69 L166.707 807.69 L166.707 804.493 Z" fill="#000000" fill-rule="evenodd" fill-opacity="1" /><path clip-path="url(#clip640)" d="M209.458 793.396 L199.866 808.386 L209.458 808.386 L209.458 793.396 M208.461 790.086 L213.238 790.086 L213.238 808.386 L217.244 808.386 L217.244 811.546 L213.238 811.546 L213.238 818.166 L209.458 818.166 L209.458 811.546 L196.781 811.546 L196.781 807.878 L208.461 790.086 Z" fill="#000000" fill-rule="evenodd" fill-opacity="1" /><path clip-path="url(#clip640)" d="M116.333 85.1736 L123.972 85.1736 L123.972 58.808 L115.662 60.4747 L115.662 56.2155 L123.926 54.5488 L128.601 54.5488 L128.601 85.1736 L136.24 85.1736 L136.24 89.1088 L116.333 89.1088 L116.333 85.1736 Z" fill="#000000" fill-rule="evenodd" fill-opacity="1" /><path clip-path="url(#clip640)" d="M155.685 57.6275 Q152.074 57.6275 150.245 61.1923 Q148.439 64.7339 148.439 71.8635 Q148.439 78.97 150.245 82.5348 Q152.074 86.0764 155.685 86.0764 Q159.319 86.0764 161.124 82.5348 Q162.953 78.97 162.953 71.8635 Q162.953 64.7339 161.124 61.1923 Q159.319 57.6275 155.685 57.6275 M155.685 53.9238 Q161.495 53.9238 164.55 58.5303 Q167.629 63.1136 167.629 71.8635 Q167.629 80.5903 164.55 85.1968 Q161.495 89.7801 155.685 89.7801 Q149.875 89.7801 146.796 85.1968 Q143.74 80.5903 143.74 71.8635 Q143.74 63.1136 146.796 58.5303 Q149.875 53.9238 155.685 53.9238 Z" fill="#000000" fill-rule="evenodd" fill-opacity="1" /><path clip-path="url(#clip640)" d="M167.629 48.0252 L191.741 48.0252 L191.741 51.2225 L167.629 51.2225 L167.629 48.0252 Z" fill="#000000" fill-rule="evenodd" fill-opacity="1" /><path clip-path="url(#clip640)" d="M211.451 46.5582 Q214.178 47.1412 215.702 48.9844 Q217.244 50.8275 217.244 53.5358 Q217.244 57.6923 214.385 59.9681 Q211.526 62.2438 206.26 62.2438 Q204.492 62.2438 202.612 61.8865 Q200.75 61.5479 198.756 60.8521 L198.756 57.1845 Q200.336 58.1061 202.217 58.5763 Q204.097 59.0465 206.147 59.0465 Q209.721 59.0465 211.583 57.6359 Q213.464 56.2253 213.464 53.5358 Q213.464 51.0532 211.714 49.6614 Q209.984 48.2508 206.881 48.2508 L203.608 48.2508 L203.608 45.1288 L207.031 45.1288 Q209.834 45.1288 211.32 44.0191 Q212.805 42.8906 212.805 40.7842 Q212.805 38.6213 211.263 37.474 Q209.74 36.3079 206.881 36.3079 Q205.32 36.3079 203.533 36.6465 Q201.746 36.985 199.602 37.6997 L199.602 34.3143 Q201.765 33.7124 203.646 33.4115 Q205.546 33.1106 207.219 33.1106 Q211.545 33.1106 214.065 35.0854 Q216.586 37.0414 216.586 40.3892 Q216.586 42.7214 215.25 44.3388 Q213.915 45.9375 211.451 46.5582 Z" fill="#000000" fill-rule="evenodd" fill-opacity="1" /><path clip-path="url(#clip640)" d="M18.4042 827.219 L18.4042 787.02 L23.815 787.02 L23.815 803.889 L65.9242 803.889 L65.9242 810.35 L23.815 810.35 L23.815 827.219 L18.4042 827.219 Z" fill="#000000" fill-rule="evenodd" fill-opacity="1" /><path clip-path="url(#clip640)" d="M30.2762 783.073 L30.2762 777.216 L65.9242 777.216 L65.9242 783.073 L30.2762 783.073 M16.399 783.073 L16.399 777.216 L23.815 777.216 L23.815 783.073 L16.399 783.073 Z" fill="#000000" fill-rule="evenodd" fill-opacity="1" /><path clip-path="url(#clip640)" d="M37.1193 737.208 Q33.1726 735.012 31.2947 731.956 Q29.4168 728.901 29.4168 724.763 Q29.4168 719.193 33.3317 716.169 Q37.2148 713.145 44.4081 713.145 L65.9242 713.145 L65.9242 719.034 L44.599 719.034 Q39.4746 719.034 36.992 720.848 Q34.5094 722.662 34.5094 726.386 Q34.5094 730.938 37.5331 733.579 Q40.5568 736.221 45.7767 736.221 L65.9242 736.221 L65.9242 742.109 L44.599 742.109 Q39.4428 742.109 36.992 743.924 Q34.5094 745.738 34.5094 749.526 Q34.5094 754.013 37.5649 756.655 Q40.5886 759.297 45.7767 759.297 L65.9242 759.297 L65.9242 765.185 L30.2762 765.185 L30.2762 759.297 L35.8144 759.297 Q32.536 757.292 30.9764 754.491 Q29.4168 751.69 29.4168 747.839 Q29.4168 743.956 31.3902 741.25 Q33.3636 738.513 37.1193 737.208 Z" fill="#000000" fill-rule="evenodd" fill-opacity="1" /><path clip-path="url(#clip640)" d="M46.6361 670.973 L49.5006 670.973 L49.5006 697.9 Q55.5481 697.518 58.7309 694.271 Q61.8819 690.993 61.8819 685.168 Q61.8819 681.794 61.0544 678.643 Q60.2269 675.461 58.5718 672.341 L64.1099 672.341 Q65.4467 675.492 66.147 678.803 Q66.8472 682.113 66.8472 685.518 Q66.8472 694.048 61.8819 699.045 Q56.9167 704.011 48.4503 704.011 Q39.6974 704.011 34.5731 699.3 Q29.4168 694.558 29.4168 686.537 Q29.4168 679.344 34.0638 675.174 Q38.6789 670.973 46.6361 670.973 M44.9173 676.829 Q40.1112 676.893 37.2466 679.535 Q34.3821 682.145 34.3821 686.473 Q34.3821 691.375 37.1512 694.335 Q39.9202 697.263 44.9492 697.709 L44.9173 676.829 Z" fill="#000000" fill-rule="evenodd" fill-opacity="1" /><path clip-path="url(#clip640)" d="M16.4626 626.572 Q23.7832 630.837 30.9446 632.906 Q38.106 634.975 45.4584 634.975 Q52.8108 634.975 60.0359 632.906 Q67.2291 630.805 74.5179 626.572 L74.5179 631.664 Q67.0382 636.439 59.8131 638.826 Q52.588 641.181 45.4584 641.181 Q38.3606 641.181 31.1674 638.826 Q23.9742 636.471 16.4626 631.664 L16.4626 626.572 Z" fill="#000000" fill-rule="evenodd" fill-opacity="1" /><path clip-path="url(#clip640)" d="M31.3265 592.484 L36.8647 592.484 Q35.5916 594.966 34.955 597.64 Q34.3184 600.313 34.3184 603.178 Q34.3184 607.538 35.6552 609.735 Q36.992 611.899 39.6656 611.899 Q41.7026 611.899 42.8803 610.339 Q44.0261 608.78 45.0765 604.069 L45.5221 602.064 Q46.8589 595.826 49.3097 593.216 Q51.7286 590.574 56.0891 590.574 Q61.0544 590.574 63.9508 594.521 Q66.8472 598.435 66.8472 605.31 Q66.8472 608.175 66.2743 611.294 Q65.7332 614.382 64.6192 617.819 L58.5718 617.819 Q60.2587 614.573 61.118 611.422 Q61.9456 608.27 61.9456 605.183 Q61.9456 601.045 60.5451 598.817 Q59.1129 596.589 56.5347 596.589 Q54.1476 596.589 52.8745 598.213 Q51.6013 599.804 50.4237 605.247 L49.9462 607.284 Q48.8004 612.726 46.4451 615.145 Q44.058 617.564 39.9202 617.564 Q34.8913 617.564 32.1541 614 Q29.4168 610.435 29.4168 603.878 Q29.4168 600.632 29.8943 597.767 Q30.3717 594.902 31.3265 592.484 Z" fill="#000000" fill-rule="evenodd" fill-opacity="1" /><path clip-path="url(#clip640)" d="M16.4626 582.171 L16.4626 577.079 Q23.9742 572.304 31.1674 569.949 Q38.3606 567.562 45.4584 567.562 Q52.588 567.562 59.8131 569.949 Q67.0382 572.304 74.5179 577.079 L74.5179 582.171 Q67.2291 577.938 60.0359 575.869 Q52.8108 573.768 45.4584 573.768 Q38.106 573.768 30.9446 575.869 Q23.7832 577.938 16.4626 582.171 Z" fill="#000000" fill-rule="evenodd" fill-opacity="1" /><polyline clip-path="url(#clip642)" style="stroke:#009af9; stroke-linecap:butt; stroke-linejoin:round; stroke-width:12; stroke-opacity:1; fill:none" points="
  1820.05,1310.74 1648.45,1211.86 1459.14,1079.12 1235.28,888.379 
  "/>
<line clip-path="url(#clip642)" x1="1820.05" y1="1310.74" x2="1820.05" y2="1294.74" style="stroke:#009af9; stroke-width:3.072; stroke-opacity:1"/>
<line clip-path="url(#clip642)" x1="1820.05" y1="1310.74" x2="1804.05" y2="1310.74" style="stroke:#009af9; stroke-width:3.072; stroke-opacity:1"/>
<line clip-path="url(#clip642)" x1="1820.05" y1="1310.74" x2="1820.05" y2="1326.74" style="stroke:#009af9; stroke-width:3.072; stroke-opacity:1"/>
<line clip-path="url(#clip642)" x1="1820.05" y1="1310.74" x2="1836.05" y2="1310.74" style="stroke:#009af9; stroke-width:3.072; stroke-opacity:1"/>
<line clip-path="url(#clip642)" x1="1648.45" y1="1211.86" x2="1648.45" y2="1195.86" style="stroke:#009af9; stroke-width:3.072; stroke-opacity:1"/>
<line clip-path="url(#clip642)" x1="1648.45" y1="1211.86" x2="1632.45" y2="1211.86" style="stroke:#009af9; stroke-width:3.072; stroke-opacity:1"/>
<line clip-path="url(#clip642)" x1="1648.45" y1="1211.86" x2="1648.45" y2="1227.86" style="stroke:#009af9; stroke-width:3.072; stroke-opacity:1"/>
<line clip-path="url(#clip642)" x1="1648.45" y1="1211.86" x2="1664.45" y2="1211.86" style="stroke:#009af9; stroke-width:3.072; stroke-opacity:1"/>
<line clip-path="url(#clip642)" x1="1459.14" y1="1079.12" x2="1459.14" y2="1063.12" style="stroke:#009af9; stroke-width:3.072; stroke-opacity:1"/>
<line clip-path="url(#clip642)" x1="1459.14" y1="1079.12" x2="1443.14" y2="1079.12" style="stroke:#009af9; stroke-width:3.072; stroke-opacity:1"/>
<line clip-path="url(#clip642)" x1="1459.14" y1="1079.12" x2="1459.14" y2="1095.12" style="stroke:#009af9; stroke-width:3.072; stroke-opacity:1"/>
<line clip-path="url(#clip642)" x1="1459.14" y1="1079.12" x2="1475.14" y2="1079.12" style="stroke:#009af9; stroke-width:3.072; stroke-opacity:1"/>
<line clip-path="url(#clip642)" x1="1235.28" y1="888.379" x2="1235.28" y2="872.379" style="stroke:#009af9; stroke-width:3.072; stroke-opacity:1"/>
<line clip-path="url(#clip642)" x1="1235.28" y1="888.379" x2="1219.28" y2="888.379" style="stroke:#009af9; stroke-width:3.072; stroke-opacity:1"/>
<line clip-path="url(#clip642)" x1="1235.28" y1="888.379" x2="1235.28" y2="904.379" style="stroke:#009af9; stroke-width:3.072; stroke-opacity:1"/>
<line clip-path="url(#clip642)" x1="1235.28" y1="888.379" x2="1251.28" y2="888.379" style="stroke:#009af9; stroke-width:3.072; stroke-opacity:1"/>
<polyline clip-path="url(#clip642)" style="stroke:#e26f46; stroke-linecap:butt; stroke-linejoin:round; stroke-width:12; stroke-opacity:1; fill:none" points="
  1337.7,656.699 1362.3,466.873 1200.5,296.023 768.422,84.0448 
  "/>
<circle clip-path="url(#clip642)" cx="1337.7" cy="656.699" r="14" fill="#e26f46" fill-rule="evenodd" fill-opacity="1" stroke="#000000" stroke-opacity="1" stroke-width="3.072"/>
<circle clip-path="url(#clip642)" cx="1362.3" cy="466.873" r="14" fill="#e26f46" fill-rule="evenodd" fill-opacity="1" stroke="#000000" stroke-opacity="1" stroke-width="3.072"/>
<circle clip-path="url(#clip642)" cx="1200.5" cy="296.023" r="14" fill="#e26f46" fill-rule="evenodd" fill-opacity="1" stroke="#000000" stroke-opacity="1" stroke-width="3.072"/>
<circle clip-path="url(#clip642)" cx="768.422" cy="84.0448" r="14" fill="#e26f46" fill-rule="evenodd" fill-opacity="1" stroke="#000000" stroke-opacity="1" stroke-width="3.072"/>
<polyline clip-path="url(#clip642)" style="stroke:#3da44d; stroke-linecap:butt; stroke-linejoin:round; stroke-width:12; stroke-opacity:1; fill:none" points="
  766.178,794.415 918.942,692.036 632.478,605.278 309.577,498.144 
  "/>
<line clip-path="url(#clip642)" x1="766.178" y1="794.415" x2="766.178" y2="778.415" style="stroke:#3da44d; stroke-width:3.072; stroke-opacity:1"/>
<line clip-path="url(#clip642)" x1="766.178" y1="794.415" x2="750.178" y2="794.415" style="stroke:#3da44d; stroke-width:3.072; stroke-opacity:1"/>
<line clip-path="url(#clip642)" x1="766.178" y1="794.415" x2="766.178" y2="810.415" style="stroke:#3da44d; stroke-width:3.072; stroke-opacity:1"/>
<line clip-path="url(#clip642)" x1="766.178" y1="794.415" x2="782.178" y2="794.415" style="stroke:#3da44d; stroke-width:3.072; stroke-opacity:1"/>
<line clip-path="url(#clip642)" x1="918.942" y1="692.036" x2="918.942" y2="676.036" style="stroke:#3da44d; stroke-width:3.072; stroke-opacity:1"/>
<line clip-path="url(#clip642)" x1="918.942" y1="692.036" x2="902.942" y2="692.036" style="stroke:#3da44d; stroke-width:3.072; stroke-opacity:1"/>
<line clip-path="url(#clip642)" x1="918.942" y1="692.036" x2="918.942" y2="708.036" style="stroke:#3da44d; stroke-width:3.072; stroke-opacity:1"/>
<line clip-path="url(#clip642)" x1="918.942" y1="692.036" x2="934.942" y2="692.036" style="stroke:#3da44d; stroke-width:3.072; stroke-opacity:1"/>
<line clip-path="url(#clip642)" x1="632.478" y1="605.278" x2="632.478" y2="589.278" style="stroke:#3da44d; stroke-width:3.072; stroke-opacity:1"/>
<line clip-path="url(#clip642)" x1="632.478" y1="605.278" x2="616.478" y2="605.278" style="stroke:#3da44d; stroke-width:3.072; stroke-opacity:1"/>
<line clip-path="url(#clip642)" x1="632.478" y1="605.278" x2="632.478" y2="621.278" style="stroke:#3da44d; stroke-width:3.072; stroke-opacity:1"/>
<line clip-path="url(#clip642)" x1="632.478" y1="605.278" x2="648.478" y2="605.278" style="stroke:#3da44d; stroke-width:3.072; stroke-opacity:1"/>
<line clip-path="url(#clip642)" x1="309.577" y1="498.144" x2="309.577" y2="482.144" style="stroke:#3da44d; stroke-width:3.072; stroke-opacity:1"/>
<line clip-path="url(#clip642)" x1="309.577" y1="498.144" x2="293.577" y2="498.144" style="stroke:#3da44d; stroke-width:3.072; stroke-opacity:1"/>
<line clip-path="url(#clip642)" x1="309.577" y1="498.144" x2="309.577" y2="514.144" style="stroke:#3da44d; stroke-width:3.072; stroke-opacity:1"/>
<line clip-path="url(#clip642)" x1="309.577" y1="498.144" x2="325.577" y2="498.144" style="stroke:#3da44d; stroke-width:3.072; stroke-opacity:1"/>
<polyline clip-path="url(#clip642)" style="stroke:#c271d2; stroke-linecap:butt; stroke-linejoin:round; stroke-width:12; stroke-opacity:1; fill:none" points="
  1452.95,810.17 1173.27,626.947 928.574,511.28 485.013,271.69 
  "/>
<path clip-path="url(#clip642)" d="M1452.95 794.17 L1436.95 810.17 L1452.95 826.17 L1468.95 810.17 L1452.95 794.17 Z" fill="#c271d2" fill-rule="evenodd" fill-opacity="1" stroke="#000000" stroke-opacity="1" stroke-width="3.072"/>
<path clip-path="url(#clip642)" d="M1173.27 610.947 L1157.27 626.947 L1173.27 642.947 L1189.27 626.947 L1173.27 610.947 Z" fill="#c271d2" fill-rule="evenodd" fill-opacity="1" stroke="#000000" stroke-opacity="1" stroke-width="3.072"/>
<path clip-path="url(#clip642)" d="M928.574 495.28 L912.574 511.28 L928.574 527.28 L944.574 511.28 L928.574 495.28 Z" fill="#c271d2" fill-rule="evenodd" fill-opacity="1" stroke="#000000" stroke-opacity="1" stroke-width="3.072"/>
<path clip-path="url(#clip642)" d="M485.013 255.69 L469.013 271.69 L485.013 287.69 L501.013 271.69 L485.013 255.69 Z" fill="#c271d2" fill-rule="evenodd" fill-opacity="1" stroke="#000000" stroke-opacity="1" stroke-width="3.072"/>
<polyline clip-path="url(#clip642)" style="stroke:#ac8d18; stroke-linecap:butt; stroke-linejoin:round; stroke-width:12; stroke-opacity:1; fill:none" points="
  1360.46,806.986 1141.16,672.765 804.524,505.097 765.148,341.261 
  "/>
<path clip-path="url(#clip642)" d="M1376.46 790.986 L1344.46 790.986 L1360.46 822.986 L1376.46 790.986 Z" fill="#ac8d18" fill-rule="evenodd" fill-opacity="1" stroke="#000000" stroke-opacity="1" stroke-width="3.072"/>
<path clip-path="url(#clip642)" d="M1157.16 656.765 L1125.16 656.765 L1141.16 688.765 L1157.16 656.765 Z" fill="#ac8d18" fill-rule="evenodd" fill-opacity="1" stroke="#000000" stroke-opacity="1" stroke-width="3.072"/>
<path clip-path="url(#clip642)" d="M820.524 489.097 L788.524 489.097 L804.524 521.097 L820.524 489.097 Z" fill="#ac8d18" fill-rule="evenodd" fill-opacity="1" stroke="#000000" stroke-opacity="1" stroke-width="3.072"/>
<path clip-path="url(#clip642)" d="M781.148 325.261 L749.148 325.261 L765.148 357.261 L781.148 325.261 Z" fill="#ac8d18" fill-rule="evenodd" fill-opacity="1" stroke="#000000" stroke-opacity="1" stroke-width="3.072"/>
<polyline clip-path="url(#clip642)" style="stroke:#00a9ad; stroke-linecap:butt; stroke-linejoin:round; stroke-width:12; stroke-opacity:1; fill:none" points="
  2200.01,1223.02 1703.81,1034.61 1467.27,950.445 1107.97,829.063 
  "/>
<path clip-path="url(#clip642)" d="M2200.01 1207.02 L2187.5 1213.05 L2184.41 1226.59 L2193.07 1237.44 L2206.96 1237.44 L2215.61 1226.59 L2212.52 1213.05 Z" fill="#00a9ad" fill-rule="evenodd" fill-opacity="1" stroke="#000000" stroke-opacity="1" stroke-width="3.072"/>
<path clip-path="url(#clip642)" d="M1703.81 1018.61 L1691.3 1024.64 L1688.21 1038.18 L1696.87 1049.03 L1710.76 1049.03 L1719.41 1038.18 L1716.32 1024.64 Z" fill="#00a9ad" fill-rule="evenodd" fill-opacity="1" stroke="#000000" stroke-opacity="1" stroke-width="3.072"/>
<path clip-path="url(#clip642)" d="M1467.27 934.445 L1454.76 940.477 L1451.67 954.013 L1460.33 964.861 L1474.22 964.861 L1482.87 954.013 L1479.78 940.477 Z" fill="#00a9ad" fill-rule="evenodd" fill-opacity="1" stroke="#000000" stroke-opacity="1" stroke-width="3.072"/>
<path clip-path="url(#clip642)" d="M1107.97 813.063 L1095.46 819.095 L1092.37 832.631 L1101.02 843.479 L1114.91 843.479 L1123.57 832.631 L1120.48 819.095 Z" fill="#00a9ad" fill-rule="evenodd" fill-opacity="1" stroke="#000000" stroke-opacity="1" stroke-width="3.072"/>
<polyline clip-path="url(#clip642)" style="stroke:#ed5d92; stroke-linecap:butt; stroke-linejoin:round; stroke-width:12; stroke-opacity:1; fill:none" points="
  1036.67,494.279 1064.26,501.72 308.548,486.34 327.574,416.452 
  "/>
<path clip-path="url(#clip642)" d="M1036.67 510.279 L1022.81 502.279 L1022.81 486.279 L1036.67 478.279 L1050.53 486.279 L1050.53 502.279 Z" fill="#ed5d92" fill-rule="evenodd" fill-opacity="1" stroke="#000000" stroke-opacity="1" stroke-width="3.072"/>
<path clip-path="url(#clip642)" d="M1064.26 517.72 L1050.41 509.72 L1050.41 493.72 L1064.26 485.72 L1078.12 493.72 L1078.12 509.72 Z" fill="#ed5d92" fill-rule="evenodd" fill-opacity="1" stroke="#000000" stroke-opacity="1" stroke-width="3.072"/>
<path clip-path="url(#clip642)" d="M308.548 502.34 L294.692 494.34 L294.692 478.34 L308.548 470.34 L322.404 478.34 L322.404 494.34 Z" fill="#ed5d92" fill-rule="evenodd" fill-opacity="1" stroke="#000000" stroke-opacity="1" stroke-width="3.072"/>
<path clip-path="url(#clip642)" d="M327.574 432.452 L313.718 424.452 L313.718 408.452 L327.574 400.452 L341.43 408.452 L341.43 424.452 Z" fill="#ed5d92" fill-rule="evenodd" fill-opacity="1" stroke="#000000" stroke-opacity="1" stroke-width="3.072"/>
<path clip-path="url(#clip640)" d="
M1640.49 505.307 L2189.92 505.307 L2189.92 90.5872 L1640.49 90.5872  Z
  " fill="#ffffff" fill-rule="evenodd" fill-opacity="1"/>
<polyline clip-path="url(#clip640)" style="stroke:#000000; stroke-linecap:butt; stroke-linejoin:round; stroke-width:4; stroke-opacity:1; fill:none" points="
  1640.49,505.307 2189.92,505.307 2189.92,90.5872 1640.49,90.5872 1640.49,505.307 
  "/>
<polyline clip-path="url(#clip640)" style="stroke:#009af9; stroke-linecap:butt; stroke-linejoin:round; stroke-width:4; stroke-opacity:1; fill:none" points="
  1662.76,142.427 1796.43,142.427 
  "/>
<line clip-path="url(#clip640)" x1="1729.6" y1="142.427" x2="1729.6" y2="116.827" style="stroke:#009af9; stroke-width:4.9152; stroke-opacity:1"/>
<line clip-path="url(#clip640)" x1="1729.6" y1="142.427" x2="1704" y2="142.427" style="stroke:#009af9; stroke-width:4.9152; stroke-opacity:1"/>
<line clip-path="url(#clip640)" x1="1729.6" y1="142.427" x2="1729.6" y2="168.027" style="stroke:#009af9; stroke-width:4.9152; stroke-opacity:1"/>
<line clip-path="url(#clip640)" x1="1729.6" y1="142.427" x2="1755.2" y2="142.427" style="stroke:#009af9; stroke-width:4.9152; stroke-opacity:1"/>
<path clip-path="url(#clip640)" d="M1835.09 143.504 Q1836.6 144.013 1838.01 145.679 Q1839.45 147.346 1840.88 150.263 L1845.63 159.707 L1840.6 159.707 L1836.18 150.841 Q1834.47 147.369 1832.85 146.235 Q1831.25 145.101 1828.47 145.101 L1823.38 145.101 L1823.38 159.707 L1818.7 159.707 L1818.7 125.147 L1829.26 125.147 Q1835.19 125.147 1838.1 127.624 Q1841.02 130.101 1841.02 135.101 Q1841.02 138.365 1839.49 140.517 Q1837.99 142.67 1835.09 143.504 M1823.38 128.99 L1823.38 141.258 L1829.26 141.258 Q1832.64 141.258 1834.35 139.707 Q1836.09 138.133 1836.09 135.101 Q1836.09 132.068 1834.35 130.541 Q1832.64 128.99 1829.26 128.99 L1823.38 128.99 Z" fill="#000000" fill-rule="evenodd" fill-opacity="1" /><path clip-path="url(#clip640)" d="M1859.38 136.767 Q1855.95 136.767 1853.96 139.453 Q1851.97 142.115 1851.97 146.767 Q1851.97 151.42 1853.94 154.105 Q1855.93 156.767 1859.38 156.767 Q1862.78 156.767 1864.77 154.082 Q1866.76 151.397 1866.76 146.767 Q1866.76 142.161 1864.77 139.476 Q1862.78 136.767 1859.38 136.767 M1859.38 133.156 Q1864.93 133.156 1868.1 136.767 Q1871.27 140.379 1871.27 146.767 Q1871.27 153.133 1868.1 156.767 Q1864.93 160.378 1859.38 160.378 Q1853.8 160.378 1850.63 156.767 Q1847.48 153.133 1847.48 146.767 Q1847.48 140.379 1850.63 136.767 Q1853.8 133.156 1859.38 133.156 Z" fill="#000000" fill-rule="evenodd" fill-opacity="1" /><path clip-path="url(#clip640)" d="M1894.86 134.545 L1894.86 138.573 Q1893.06 137.647 1891.11 137.184 Q1889.17 136.721 1887.08 136.721 Q1883.91 136.721 1882.32 137.693 Q1880.74 138.666 1880.74 140.61 Q1880.74 142.092 1881.88 142.948 Q1883.01 143.781 1886.44 144.545 L1887.89 144.869 Q1892.43 145.842 1894.33 147.624 Q1896.25 149.383 1896.25 152.554 Q1896.25 156.166 1893.38 158.272 Q1890.53 160.378 1885.53 160.378 Q1883.45 160.378 1881.18 159.962 Q1878.94 159.568 1876.44 158.758 L1876.44 154.36 Q1878.8 155.587 1881.09 156.212 Q1883.38 156.814 1885.63 156.814 Q1888.63 156.814 1890.26 155.795 Q1891.88 154.754 1891.88 152.879 Q1891.88 151.142 1890.7 150.216 Q1889.54 149.291 1885.58 148.434 L1884.1 148.087 Q1880.14 147.254 1878.38 145.541 Q1876.62 143.804 1876.62 140.795 Q1876.62 137.138 1879.21 135.147 Q1881.81 133.156 1886.57 133.156 Q1888.94 133.156 1891.02 133.504 Q1893.1 133.851 1894.86 134.545 Z" fill="#000000" fill-rule="evenodd" fill-opacity="1" /><path clip-path="url(#clip640)" d="M1925.21 145.679 L1925.21 147.763 L1905.63 147.763 Q1905.9 152.161 1908.26 154.476 Q1910.65 156.767 1914.88 156.767 Q1917.34 156.767 1919.63 156.166 Q1921.94 155.564 1924.21 154.36 L1924.21 158.388 Q1921.92 159.36 1919.51 159.869 Q1917.11 160.378 1914.63 160.378 Q1908.43 160.378 1904.79 156.767 Q1901.18 153.156 1901.18 146.999 Q1901.18 140.633 1904.61 136.906 Q1908.06 133.156 1913.89 133.156 Q1919.12 133.156 1922.15 136.536 Q1925.21 139.892 1925.21 145.679 M1920.95 144.429 Q1920.9 140.934 1918.98 138.851 Q1917.08 136.767 1913.94 136.767 Q1910.37 136.767 1908.22 138.781 Q1906.09 140.795 1905.76 144.453 L1920.95 144.429 Z" fill="#000000" fill-rule="evenodd" fill-opacity="1" /><path clip-path="url(#clip640)" d="M1953.75 144.059 L1953.75 159.707 L1949.49 159.707 L1949.49 144.198 Q1949.49 140.517 1948.06 138.689 Q1946.62 136.86 1943.75 136.86 Q1940.3 136.86 1938.31 139.059 Q1936.32 141.258 1936.32 145.054 L1936.32 159.707 L1932.04 159.707 L1932.04 133.781 L1936.32 133.781 L1936.32 137.809 Q1937.85 135.471 1939.91 134.314 Q1941.99 133.156 1944.7 133.156 Q1949.17 133.156 1951.46 135.934 Q1953.75 138.689 1953.75 144.059 Z" fill="#000000" fill-rule="evenodd" fill-opacity="1" /><path clip-path="url(#clip640)" d="M1980.86 146.767 Q1980.86 142.068 1978.91 139.406 Q1976.99 136.721 1973.61 136.721 Q1970.23 136.721 1968.29 139.406 Q1966.37 142.068 1966.37 146.767 Q1966.37 151.466 1968.29 154.152 Q1970.23 156.814 1973.61 156.814 Q1976.99 156.814 1978.91 154.152 Q1980.86 151.466 1980.86 146.767 M1966.37 137.717 Q1967.71 135.402 1969.75 134.291 Q1971.81 133.156 1974.65 133.156 Q1979.38 133.156 1982.32 136.906 Q1985.28 140.656 1985.28 146.767 Q1985.28 152.879 1982.32 156.628 Q1979.38 160.378 1974.65 160.378 Q1971.81 160.378 1969.75 159.267 Q1967.71 158.133 1966.37 155.818 L1966.37 159.707 L1962.08 159.707 L1962.08 123.689 L1966.37 123.689 L1966.37 137.717 Z" fill="#000000" fill-rule="evenodd" fill-opacity="1" /><path clip-path="url(#clip640)" d="M2007.36 137.763 Q2006.64 137.346 2005.79 137.161 Q2004.95 136.953 2003.94 136.953 Q2000.32 136.953 1998.38 139.314 Q1996.46 141.652 1996.46 146.05 L1996.46 159.707 L1992.18 159.707 L1992.18 133.781 L1996.46 133.781 L1996.46 137.809 Q1997.8 135.448 1999.95 134.314 Q2002.11 133.156 2005.19 133.156 Q2005.63 133.156 2006.16 133.226 Q2006.69 133.272 2007.34 133.388 L2007.36 137.763 Z" fill="#000000" fill-rule="evenodd" fill-opacity="1" /><path clip-path="url(#clip640)" d="M2020.83 136.767 Q2017.41 136.767 2015.42 139.453 Q2013.43 142.115 2013.43 146.767 Q2013.43 151.42 2015.39 154.105 Q2017.38 156.767 2020.83 156.767 Q2024.24 156.767 2026.23 154.082 Q2028.22 151.397 2028.22 146.767 Q2028.22 142.161 2026.23 139.476 Q2024.24 136.767 2020.83 136.767 M2020.83 133.156 Q2026.39 133.156 2029.56 136.767 Q2032.73 140.379 2032.73 146.767 Q2032.73 153.133 2029.56 156.767 Q2026.39 160.378 2020.83 160.378 Q2015.25 160.378 2012.08 156.767 Q2008.94 153.133 2008.94 146.767 Q2008.94 140.379 2012.08 136.767 Q2015.25 133.156 2020.83 133.156 Z" fill="#000000" fill-rule="evenodd" fill-opacity="1" /><path clip-path="url(#clip640)" d="M2058.45 134.777 L2058.45 138.758 Q2056.64 137.763 2054.81 137.277 Q2053.01 136.767 2051.16 136.767 Q2047.01 136.767 2044.72 139.406 Q2042.43 142.022 2042.43 146.767 Q2042.43 151.513 2044.72 154.152 Q2047.01 156.767 2051.16 156.767 Q2053.01 156.767 2054.81 156.281 Q2056.64 155.772 2058.45 154.777 L2058.45 158.712 Q2056.67 159.545 2054.75 159.962 Q2052.85 160.378 2050.69 160.378 Q2044.84 160.378 2041.39 156.698 Q2037.94 153.017 2037.94 146.767 Q2037.94 140.425 2041.41 136.791 Q2044.91 133.156 2050.97 133.156 Q2052.94 133.156 2054.81 133.573 Q2056.69 133.967 2058.45 134.777 Z" fill="#000000" fill-rule="evenodd" fill-opacity="1" /><path clip-path="url(#clip640)" d="M2065.69 123.689 L2069.98 123.689 L2069.98 144.962 L2082.68 133.781 L2088.12 133.781 L2074.37 145.911 L2088.7 159.707 L2083.15 159.707 L2069.98 147.045 L2069.98 159.707 L2065.69 159.707 L2065.69 123.689 Z" fill="#000000" fill-rule="evenodd" fill-opacity="1" /><path clip-path="url(#clip640)" d="M2097.94 155.772 L2114.26 155.772 L2114.26 159.707 L2092.31 159.707 L2092.31 155.772 Q2094.98 153.017 2099.56 148.388 Q2104.17 143.735 2105.35 142.392 Q2107.59 139.869 2108.47 138.133 Q2109.37 136.374 2109.37 134.684 Q2109.37 131.93 2107.43 130.193 Q2105.51 128.457 2102.41 128.457 Q2100.21 128.457 2097.75 129.221 Q2095.32 129.985 2092.55 131.536 L2092.55 126.814 Q2095.37 125.68 2097.82 125.101 Q2100.28 124.522 2102.31 124.522 Q2107.68 124.522 2110.88 127.207 Q2114.07 129.893 2114.07 134.383 Q2114.07 136.513 2113.26 138.434 Q2112.48 140.332 2110.37 142.925 Q2109.79 143.596 2106.69 146.814 Q2103.59 150.008 2097.94 155.772 Z" fill="#000000" fill-rule="evenodd" fill-opacity="1" /><path clip-path="url(#clip640)" d="M2138.24 141.073 Q2141.6 141.791 2143.47 144.059 Q2145.37 146.328 2145.37 149.661 Q2145.37 154.777 2141.85 157.578 Q2138.33 160.378 2131.85 160.378 Q2129.68 160.378 2127.36 159.939 Q2125.07 159.522 2122.62 158.666 L2122.62 154.152 Q2124.56 155.286 2126.87 155.865 Q2129.19 156.443 2131.71 156.443 Q2136.11 156.443 2138.4 154.707 Q2140.72 152.971 2140.72 149.661 Q2140.72 146.605 2138.56 144.892 Q2136.43 143.156 2132.62 143.156 L2128.59 143.156 L2128.59 139.314 L2132.8 139.314 Q2136.25 139.314 2138.08 137.948 Q2139.91 136.559 2139.91 133.967 Q2139.91 131.305 2138.01 129.893 Q2136.13 128.457 2132.62 128.457 Q2130.69 128.457 2128.49 128.874 Q2126.3 129.291 2123.66 130.17 L2123.66 126.004 Q2126.32 125.263 2128.63 124.893 Q2130.97 124.522 2133.03 124.522 Q2138.36 124.522 2141.46 126.953 Q2144.56 129.36 2144.56 133.48 Q2144.56 136.351 2142.92 138.342 Q2141.27 140.309 2138.24 141.073 Z" fill="#000000" fill-rule="evenodd" fill-opacity="1" /><polyline clip-path="url(#clip640)" style="stroke:#e26f46; stroke-linecap:butt; stroke-linejoin:round; stroke-width:4; stroke-opacity:1; fill:none" points="
  1662.76,194.267 1796.43,194.267 
  "/>
<circle clip-path="url(#clip640)" cx="1729.6" cy="194.267" r="23" fill="#e26f46" fill-rule="evenodd" fill-opacity="1" stroke="#000000" stroke-opacity="1" stroke-width="4.9152"/>
<path clip-path="url(#clip640)" d="M1818.7 176.987 L1823.38 176.987 L1823.38 191.594 L1838.89 176.987 L1844.91 176.987 L1827.76 193.098 L1846.14 211.547 L1839.98 211.547 L1823.38 194.904 L1823.38 211.547 L1818.7 211.547 L1818.7 176.987 Z" fill="#000000" fill-rule="evenodd" fill-opacity="1" /><path clip-path="url(#clip640)" d="M1846.55 185.621 L1851.07 185.621 L1859.17 207.381 L1867.27 185.621 L1871.78 185.621 L1862.06 211.547 L1856.27 211.547 L1846.55 185.621 Z" fill="#000000" fill-rule="evenodd" fill-opacity="1" /><path clip-path="url(#clip640)" d="M1889.45 198.515 Q1884.28 198.515 1882.29 199.695 Q1880.3 200.876 1880.3 203.723 Q1880.3 205.992 1881.78 207.334 Q1883.29 208.654 1885.86 208.654 Q1889.4 208.654 1891.53 206.154 Q1893.68 203.631 1893.68 199.464 L1893.68 198.515 L1889.45 198.515 M1897.94 196.756 L1897.94 211.547 L1893.68 211.547 L1893.68 207.612 Q1892.22 209.973 1890.05 211.107 Q1887.87 212.218 1884.72 212.218 Q1880.74 212.218 1878.38 209.996 Q1876.04 207.751 1876.04 204.001 Q1876.04 199.626 1878.96 197.404 Q1881.9 195.182 1887.71 195.182 L1893.68 195.182 L1893.68 194.765 Q1893.68 191.825 1891.74 190.228 Q1889.82 188.607 1886.32 188.607 Q1884.1 188.607 1881.99 189.14 Q1879.88 189.672 1877.94 190.737 L1877.94 186.802 Q1880.28 185.899 1882.48 185.459 Q1884.68 184.996 1886.76 184.996 Q1892.38 184.996 1895.16 187.913 Q1897.94 190.83 1897.94 196.756 Z" fill="#000000" fill-rule="evenodd" fill-opacity="1" /><path clip-path="url(#clip640)" d="M1928.89 197.519 L1928.89 199.603 L1909.31 199.603 Q1909.58 204.001 1911.95 206.316 Q1914.33 208.607 1918.57 208.607 Q1921.02 208.607 1923.31 208.006 Q1925.63 207.404 1927.89 206.2 L1927.89 210.228 Q1925.6 211.2 1923.19 211.709 Q1920.79 212.218 1918.31 212.218 Q1912.11 212.218 1908.47 208.607 Q1904.86 204.996 1904.86 198.839 Q1904.86 192.473 1908.29 188.746 Q1911.74 184.996 1917.57 184.996 Q1922.8 184.996 1925.83 188.376 Q1928.89 191.732 1928.89 197.519 M1924.63 196.269 Q1924.58 192.774 1922.66 190.691 Q1920.76 188.607 1917.62 188.607 Q1914.05 188.607 1911.9 190.621 Q1909.77 192.635 1909.45 196.293 L1924.63 196.269 Z" fill="#000000" fill-rule="evenodd" fill-opacity="1" /><path clip-path="url(#clip640)" d="M1950.9 189.603 Q1950.19 189.186 1949.33 189.001 Q1948.5 188.793 1947.48 188.793 Q1943.87 188.793 1941.92 191.154 Q1940 193.492 1940 197.89 L1940 211.547 L1935.72 211.547 L1935.72 185.621 L1940 185.621 L1940 189.649 Q1941.34 187.288 1943.5 186.154 Q1945.65 184.996 1948.73 184.996 Q1949.17 184.996 1949.7 185.066 Q1950.23 185.112 1950.88 185.228 L1950.9 189.603 Z" fill="#000000" fill-rule="evenodd" fill-opacity="1" /><path clip-path="url(#clip640)" d="M1976.09 195.899 L1976.09 211.547 L1971.83 211.547 L1971.83 196.038 Q1971.83 192.357 1970.39 190.529 Q1968.96 188.7 1966.09 188.7 Q1962.64 188.7 1960.65 190.899 Q1958.66 193.098 1958.66 196.894 L1958.66 211.547 L1954.38 211.547 L1954.38 185.621 L1958.66 185.621 L1958.66 189.649 Q1960.19 187.311 1962.25 186.154 Q1964.33 184.996 1967.04 184.996 Q1971.5 184.996 1973.8 187.774 Q1976.09 190.529 1976.09 195.899 Z" fill="#000000" fill-rule="evenodd" fill-opacity="1" /><path clip-path="url(#clip640)" d="M1994.63 188.607 Q1991.2 188.607 1989.21 191.293 Q1987.22 193.955 1987.22 198.607 Q1987.22 203.26 1989.19 205.945 Q1991.18 208.607 1994.63 208.607 Q1998.03 208.607 2000.02 205.922 Q2002.01 203.237 2002.01 198.607 Q2002.01 194.001 2000.02 191.316 Q1998.03 188.607 1994.63 188.607 M1994.63 184.996 Q2000.19 184.996 2003.36 188.607 Q2006.53 192.219 2006.53 198.607 Q2006.53 204.973 2003.36 208.607 Q2000.19 212.218 1994.63 212.218 Q1989.05 212.218 1985.88 208.607 Q1982.73 204.973 1982.73 198.607 Q1982.73 192.219 1985.88 188.607 Q1989.05 184.996 1994.63 184.996 Z" fill="#000000" fill-rule="evenodd" fill-opacity="1" /><path clip-path="url(#clip640)" d="M2028.36 192.913 Q2031.71 193.631 2033.59 195.899 Q2035.49 198.168 2035.49 201.501 Q2035.49 206.617 2031.97 209.418 Q2028.45 212.218 2021.97 212.218 Q2019.79 212.218 2017.48 211.779 Q2015.19 211.362 2012.73 210.506 L2012.73 205.992 Q2014.68 207.126 2016.99 207.705 Q2019.31 208.283 2021.83 208.283 Q2026.23 208.283 2028.52 206.547 Q2030.83 204.811 2030.83 201.501 Q2030.83 198.445 2028.68 196.732 Q2026.55 194.996 2022.73 194.996 L2018.7 194.996 L2018.7 191.154 L2022.92 191.154 Q2026.37 191.154 2028.19 189.788 Q2030.02 188.399 2030.02 185.807 Q2030.02 183.145 2028.12 181.733 Q2026.25 180.297 2022.73 180.297 Q2020.81 180.297 2018.61 180.714 Q2016.41 181.131 2013.77 182.01 L2013.77 177.844 Q2016.44 177.103 2018.75 176.733 Q2021.09 176.362 2023.15 176.362 Q2028.47 176.362 2031.57 178.793 Q2034.68 181.2 2034.68 185.32 Q2034.68 188.191 2033.03 190.182 Q2031.39 192.149 2028.36 192.913 Z" fill="#000000" fill-rule="evenodd" fill-opacity="1" /><polyline clip-path="url(#clip640)" style="stroke:#3da44d; stroke-linecap:butt; stroke-linejoin:round; stroke-width:4; stroke-opacity:1; fill:none" points="
  1662.76,246.107 1796.43,246.107 
  "/>
<line clip-path="url(#clip640)" x1="1729.6" y1="246.107" x2="1729.6" y2="220.507" style="stroke:#3da44d; stroke-width:4.9152; stroke-opacity:1"/>
<line clip-path="url(#clip640)" x1="1729.6" y1="246.107" x2="1704" y2="246.107" style="stroke:#3da44d; stroke-width:4.9152; stroke-opacity:1"/>
<line clip-path="url(#clip640)" x1="1729.6" y1="246.107" x2="1729.6" y2="271.707" style="stroke:#3da44d; stroke-width:4.9152; stroke-opacity:1"/>
<line clip-path="url(#clip640)" x1="1729.6" y1="246.107" x2="1755.2" y2="246.107" style="stroke:#3da44d; stroke-width:4.9152; stroke-opacity:1"/>
<path clip-path="url(#clip640)" d="M1818.7 228.827 L1823.38 228.827 L1823.38 243.434 L1838.89 228.827 L1844.91 228.827 L1827.76 244.938 L1846.14 263.387 L1839.98 263.387 L1823.38 246.744 L1823.38 263.387 L1818.7 263.387 L1818.7 228.827 Z" fill="#000000" fill-rule="evenodd" fill-opacity="1" /><path clip-path="url(#clip640)" d="M1869.42 249.359 L1869.42 251.443 L1849.84 251.443 Q1850.12 255.841 1852.48 258.156 Q1854.86 260.447 1859.1 260.447 Q1861.55 260.447 1863.84 259.846 Q1866.16 259.244 1868.43 258.04 L1868.43 262.068 Q1866.14 263.04 1863.73 263.549 Q1861.32 264.058 1858.84 264.058 Q1852.64 264.058 1849.01 260.447 Q1845.39 256.836 1845.39 250.679 Q1845.39 244.313 1848.82 240.586 Q1852.27 236.836 1858.1 236.836 Q1863.33 236.836 1866.37 240.216 Q1869.42 243.572 1869.42 249.359 M1865.16 248.109 Q1865.12 244.614 1863.2 242.531 Q1861.3 240.447 1858.15 240.447 Q1854.58 240.447 1852.43 242.461 Q1850.3 244.475 1849.98 248.133 L1865.16 248.109 Z" fill="#000000" fill-rule="evenodd" fill-opacity="1" /><path clip-path="url(#clip640)" d="M1897.96 247.739 L1897.96 263.387 L1893.7 263.387 L1893.7 247.878 Q1893.7 244.197 1892.27 242.369 Q1890.83 240.54 1887.96 240.54 Q1884.51 240.54 1882.52 242.739 Q1880.53 244.938 1880.53 248.734 L1880.53 263.387 L1876.25 263.387 L1876.25 237.461 L1880.53 237.461 L1880.53 241.489 Q1882.06 239.151 1884.12 237.994 Q1886.2 236.836 1888.91 236.836 Q1893.38 236.836 1895.67 239.614 Q1897.96 242.369 1897.96 247.739 Z" fill="#000000" fill-rule="evenodd" fill-opacity="1" /><path clip-path="url(#clip640)" d="M1932.52 231.489 L1932.52 236.42 Q1930.16 234.221 1927.48 233.133 Q1924.82 232.045 1921.81 232.045 Q1915.88 232.045 1912.73 235.679 Q1909.58 239.29 1909.58 246.142 Q1909.58 252.971 1912.73 256.605 Q1915.88 260.216 1921.81 260.216 Q1924.82 260.216 1927.48 259.128 Q1930.16 258.04 1932.52 255.841 L1932.52 260.725 Q1930.07 262.392 1927.32 263.225 Q1924.58 264.058 1921.53 264.058 Q1913.68 264.058 1909.17 259.267 Q1904.65 254.452 1904.65 246.142 Q1904.65 237.809 1909.17 233.017 Q1913.68 228.202 1921.53 228.202 Q1924.63 228.202 1927.36 229.036 Q1930.12 229.846 1932.52 231.489 Z" fill="#000000" fill-rule="evenodd" fill-opacity="1" /><path clip-path="url(#clip640)" d="M1951.34 250.355 Q1946.18 250.355 1944.19 251.535 Q1942.2 252.716 1942.2 255.563 Q1942.2 257.832 1943.68 259.174 Q1945.19 260.494 1947.76 260.494 Q1951.3 260.494 1953.43 257.994 Q1955.58 255.471 1955.58 251.304 L1955.58 250.355 L1951.34 250.355 M1959.84 248.596 L1959.84 263.387 L1955.58 263.387 L1955.58 259.452 Q1954.12 261.813 1951.94 262.947 Q1949.77 264.058 1946.62 264.058 Q1942.64 264.058 1940.28 261.836 Q1937.94 259.591 1937.94 255.841 Q1937.94 251.466 1940.86 249.244 Q1943.8 247.022 1949.61 247.022 L1955.58 247.022 L1955.58 246.605 Q1955.58 243.665 1953.63 242.068 Q1951.71 240.447 1948.22 240.447 Q1946 240.447 1943.89 240.98 Q1941.78 241.512 1939.84 242.577 L1939.84 238.642 Q1942.18 237.739 1944.38 237.299 Q1946.57 236.836 1948.66 236.836 Q1954.28 236.836 1957.06 239.753 Q1959.84 242.67 1959.84 248.596 Z" fill="#000000" fill-rule="evenodd" fill-opacity="1" /><path clip-path="url(#clip640)" d="M1983.63 241.443 Q1982.92 241.026 1982.06 240.841 Q1981.23 240.633 1980.21 240.633 Q1976.6 240.633 1974.65 242.994 Q1972.73 245.332 1972.73 249.73 L1972.73 263.387 L1968.45 263.387 L1968.45 237.461 L1972.73 237.461 L1972.73 241.489 Q1974.07 239.128 1976.23 237.994 Q1978.38 236.836 1981.46 236.836 Q1981.9 236.836 1982.43 236.906 Q1982.96 236.952 1983.61 237.068 L1983.63 241.443 Z" fill="#000000" fill-rule="evenodd" fill-opacity="1" /><path clip-path="url(#clip640)" d="M1992.22 259.498 L1992.22 273.248 L1987.94 273.248 L1987.94 237.461 L1992.22 237.461 L1992.22 241.397 Q1993.56 239.082 1995.6 237.971 Q1997.66 236.836 2000.51 236.836 Q2005.23 236.836 2008.17 240.586 Q2011.13 244.336 2011.13 250.447 Q2011.13 256.559 2008.17 260.308 Q2005.23 264.058 2000.51 264.058 Q1997.66 264.058 1995.6 262.947 Q1993.56 261.813 1992.22 259.498 M2006.71 250.447 Q2006.71 245.748 2004.77 243.086 Q2002.85 240.401 1999.47 240.401 Q1996.09 240.401 1994.14 243.086 Q1992.22 245.748 1992.22 250.447 Q1992.22 255.146 1994.14 257.832 Q1996.09 260.494 1999.47 260.494 Q2002.85 260.494 2004.77 257.832 Q2006.71 255.146 2006.71 250.447 Z" fill="#000000" fill-rule="evenodd" fill-opacity="1" /><path clip-path="url(#clip640)" d="M2031.64 232.901 L2019.84 251.35 L2031.64 251.35 L2031.64 232.901 M2030.42 228.827 L2036.3 228.827 L2036.3 251.35 L2041.23 251.35 L2041.23 255.239 L2036.3 255.239 L2036.3 263.387 L2031.64 263.387 L2031.64 255.239 L2016.04 255.239 L2016.04 250.725 L2030.42 228.827 Z" fill="#000000" fill-rule="evenodd" fill-opacity="1" /><polyline clip-path="url(#clip640)" style="stroke:#c271d2; stroke-linecap:butt; stroke-linejoin:round; stroke-width:4; stroke-opacity:1; fill:none" points="
  1662.76,297.947 1796.43,297.947 
  "/>
<path clip-path="url(#clip640)" d="M1729.6 272.347 L1704 297.947 L1729.6 323.547 L1755.2 297.947 L1729.6 272.347 Z" fill="#c271d2" fill-rule="evenodd" fill-opacity="1" stroke="#000000" stroke-opacity="1" stroke-width="4.9152"/>
<path clip-path="url(#clip640)" d="M1818.7 280.667 L1847.94 280.667 L1847.94 284.602 L1835.67 284.602 L1835.67 315.227 L1830.97 315.227 L1830.97 284.602 L1818.7 284.602 L1818.7 280.667 Z" fill="#000000" fill-rule="evenodd" fill-opacity="1" /><path clip-path="url(#clip640)" d="M1868.84 299.024 Q1870.35 299.533 1871.76 301.199 Q1873.2 302.866 1874.63 305.783 L1879.38 315.227 L1874.35 315.227 L1869.93 306.361 Q1868.22 302.889 1866.6 301.755 Q1865 300.621 1862.22 300.621 L1857.13 300.621 L1857.13 315.227 L1852.45 315.227 L1852.45 280.667 L1863.01 280.667 Q1868.94 280.667 1871.85 283.144 Q1874.77 285.621 1874.77 290.621 Q1874.77 293.885 1873.24 296.037 Q1871.74 298.19 1868.84 299.024 M1857.13 284.51 L1857.13 296.778 L1863.01 296.778 Q1866.39 296.778 1868.1 295.227 Q1869.84 293.653 1869.84 290.621 Q1869.84 287.588 1868.1 286.061 Q1866.39 284.51 1863.01 284.51 L1857.13 284.51 Z" fill="#000000" fill-rule="evenodd" fill-opacity="1" /><path clip-path="url(#clip640)" d="M1890.07 298.723 L1890.07 311.385 L1897.57 311.385 Q1901.34 311.385 1903.15 309.834 Q1904.98 308.26 1904.98 305.042 Q1904.98 301.801 1903.15 300.274 Q1901.34 298.723 1897.57 298.723 L1890.07 298.723 M1890.07 284.51 L1890.07 294.926 L1896.99 294.926 Q1900.42 294.926 1902.08 293.653 Q1903.77 292.357 1903.77 289.718 Q1903.77 287.102 1902.08 285.806 Q1900.42 284.51 1896.99 284.51 L1890.07 284.51 M1885.39 280.667 L1897.34 280.667 Q1902.69 280.667 1905.58 282.889 Q1908.47 285.112 1908.47 289.209 Q1908.47 292.38 1906.99 294.255 Q1905.51 296.13 1902.64 296.593 Q1906.09 297.334 1907.99 299.695 Q1909.91 302.033 1909.91 305.551 Q1909.91 310.181 1906.76 312.704 Q1903.61 315.227 1897.8 315.227 L1885.39 315.227 L1885.39 280.667 Z" fill="#000000" fill-rule="evenodd" fill-opacity="1" /><path clip-path="url(#clip640)" d="M1922.59 284.51 L1922.59 311.385 L1928.24 311.385 Q1935.39 311.385 1938.7 308.144 Q1942.04 304.903 1942.04 297.912 Q1942.04 290.968 1938.7 287.75 Q1935.39 284.51 1928.24 284.51 L1922.59 284.51 M1917.92 280.667 L1927.52 280.667 Q1937.57 280.667 1942.27 284.857 Q1946.97 289.024 1946.97 297.912 Q1946.97 306.848 1942.25 311.037 Q1937.52 315.227 1927.52 315.227 L1917.92 315.227 L1917.92 280.667 Z" fill="#000000" fill-rule="evenodd" fill-opacity="1" /><path clip-path="url(#clip640)" d="M1954.42 280.667 L1974.28 280.667 L1974.28 284.602 L1959.1 284.602 L1959.1 294.787 L1972.8 294.787 L1972.8 298.723 L1959.1 298.723 L1959.1 315.227 L1954.42 315.227 L1954.42 280.667 Z" fill="#000000" fill-rule="evenodd" fill-opacity="1" /><path clip-path="url(#clip640)" d="M1986.13 311.292 L2002.45 311.292 L2002.45 315.227 L1980.51 315.227 L1980.51 311.292 Q1983.17 308.537 1987.75 303.908 Q1992.36 299.255 1993.54 297.912 Q1995.79 295.389 1996.67 293.653 Q1997.57 291.894 1997.57 290.204 Q1997.57 287.45 1995.63 285.713 Q1993.7 283.977 1990.6 283.977 Q1988.4 283.977 1985.95 284.741 Q1983.52 285.505 1980.74 287.056 L1980.74 282.334 Q1983.56 281.2 1986.02 280.621 Q1988.47 280.042 1990.51 280.042 Q1995.88 280.042 1999.07 282.727 Q2002.27 285.413 2002.27 289.903 Q2002.27 292.033 2001.46 293.954 Q2000.67 295.852 1998.56 298.445 Q1997.99 299.116 1994.88 302.334 Q1991.78 305.528 1986.13 311.292 Z" fill="#000000" fill-rule="evenodd" fill-opacity="1" /><polyline clip-path="url(#clip640)" style="stroke:#ac8d18; stroke-linecap:butt; stroke-linejoin:round; stroke-width:4; stroke-opacity:1; fill:none" points="
  1662.76,349.787 1796.43,349.787 
  "/>
<path clip-path="url(#clip640)" d="M1755.2 324.187 L1704 324.187 L1729.6 375.387 L1755.2 324.187 Z" fill="#ac8d18" fill-rule="evenodd" fill-opacity="1" stroke="#000000" stroke-opacity="1" stroke-width="4.9152"/>
<path clip-path="url(#clip640)" d="M1818.7 332.507 L1823.38 332.507 L1823.38 347.114 L1838.89 332.507 L1844.91 332.507 L1827.76 348.618 L1846.14 367.067 L1839.98 367.067 L1823.38 350.424 L1823.38 367.067 L1818.7 367.067 L1818.7 332.507 Z" fill="#000000" fill-rule="evenodd" fill-opacity="1" /><path clip-path="url(#clip640)" d="M1869.42 353.039 L1869.42 355.123 L1849.84 355.123 Q1850.12 359.521 1852.48 361.836 Q1854.86 364.127 1859.1 364.127 Q1861.55 364.127 1863.84 363.526 Q1866.16 362.924 1868.43 361.72 L1868.43 365.748 Q1866.14 366.72 1863.73 367.229 Q1861.32 367.738 1858.84 367.738 Q1852.64 367.738 1849.01 364.127 Q1845.39 360.516 1845.39 354.359 Q1845.39 347.993 1848.82 344.266 Q1852.27 340.516 1858.1 340.516 Q1863.33 340.516 1866.37 343.896 Q1869.42 347.252 1869.42 353.039 M1865.16 351.789 Q1865.12 348.294 1863.2 346.211 Q1861.3 344.127 1858.15 344.127 Q1854.58 344.127 1852.43 346.141 Q1850.3 348.155 1849.98 351.813 L1865.16 351.789 Z" fill="#000000" fill-rule="evenodd" fill-opacity="1" /><path clip-path="url(#clip640)" d="M1897.96 351.419 L1897.96 367.067 L1893.7 367.067 L1893.7 351.558 Q1893.7 347.877 1892.27 346.049 Q1890.83 344.22 1887.96 344.22 Q1884.51 344.22 1882.52 346.419 Q1880.53 348.618 1880.53 352.414 L1880.53 367.067 L1876.25 367.067 L1876.25 341.141 L1880.53 341.141 L1880.53 345.169 Q1882.06 342.831 1884.12 341.674 Q1886.2 340.516 1888.91 340.516 Q1893.38 340.516 1895.67 343.294 Q1897.96 346.049 1897.96 351.419 Z" fill="#000000" fill-rule="evenodd" fill-opacity="1" /><path clip-path="url(#clip640)" d="M1932.52 335.169 L1932.52 340.1 Q1930.16 337.901 1927.48 336.813 Q1924.82 335.725 1921.81 335.725 Q1915.88 335.725 1912.73 339.359 Q1909.58 342.97 1909.58 349.822 Q1909.58 356.651 1912.73 360.285 Q1915.88 363.896 1921.81 363.896 Q1924.82 363.896 1927.48 362.808 Q1930.16 361.72 1932.52 359.521 L1932.52 364.405 Q1930.07 366.072 1927.32 366.905 Q1924.58 367.738 1921.53 367.738 Q1913.68 367.738 1909.17 362.947 Q1904.65 358.132 1904.65 349.822 Q1904.65 341.489 1909.17 336.697 Q1913.68 331.882 1921.53 331.882 Q1924.63 331.882 1927.36 332.716 Q1930.12 333.526 1932.52 335.169 Z" fill="#000000" fill-rule="evenodd" fill-opacity="1" /><path clip-path="url(#clip640)" d="M1951.34 354.035 Q1946.18 354.035 1944.19 355.215 Q1942.2 356.396 1942.2 359.243 Q1942.2 361.512 1943.68 362.854 Q1945.19 364.174 1947.76 364.174 Q1951.3 364.174 1953.43 361.674 Q1955.58 359.151 1955.58 354.984 L1955.58 354.035 L1951.34 354.035 M1959.84 352.276 L1959.84 367.067 L1955.58 367.067 L1955.58 363.132 Q1954.12 365.493 1951.94 366.627 Q1949.77 367.738 1946.62 367.738 Q1942.64 367.738 1940.28 365.516 Q1937.94 363.271 1937.94 359.521 Q1937.94 355.146 1940.86 352.924 Q1943.8 350.702 1949.61 350.702 L1955.58 350.702 L1955.58 350.285 Q1955.58 347.345 1953.63 345.748 Q1951.71 344.127 1948.22 344.127 Q1946 344.127 1943.89 344.66 Q1941.78 345.192 1939.84 346.257 L1939.84 342.322 Q1942.18 341.419 1944.38 340.979 Q1946.57 340.516 1948.66 340.516 Q1954.28 340.516 1957.06 343.433 Q1959.84 346.35 1959.84 352.276 Z" fill="#000000" fill-rule="evenodd" fill-opacity="1" /><path clip-path="url(#clip640)" d="M1983.63 345.123 Q1982.92 344.706 1982.06 344.521 Q1981.23 344.313 1980.21 344.313 Q1976.6 344.313 1974.65 346.674 Q1972.73 349.012 1972.73 353.41 L1972.73 367.067 L1968.45 367.067 L1968.45 341.141 L1972.73 341.141 L1972.73 345.169 Q1974.07 342.808 1976.23 341.674 Q1978.38 340.516 1981.46 340.516 Q1981.9 340.516 1982.43 340.586 Q1982.96 340.632 1983.61 340.748 L1983.63 345.123 Z" fill="#000000" fill-rule="evenodd" fill-opacity="1" /><path clip-path="url(#clip640)" d="M1992.22 363.178 L1992.22 376.928 L1987.94 376.928 L1987.94 341.141 L1992.22 341.141 L1992.22 345.077 Q1993.56 342.762 1995.6 341.651 Q1997.66 340.516 2000.51 340.516 Q2005.23 340.516 2008.17 344.266 Q2011.13 348.016 2011.13 354.127 Q2011.13 360.239 2008.17 363.988 Q2005.23 367.738 2000.51 367.738 Q1997.66 367.738 1995.6 366.627 Q1993.56 365.493 1992.22 363.178 M2006.71 354.127 Q2006.71 349.428 2004.77 346.766 Q2002.85 344.081 1999.47 344.081 Q1996.09 344.081 1994.14 346.766 Q1992.22 349.428 1992.22 354.127 Q1992.22 358.826 1994.14 361.512 Q1996.09 364.174 1999.47 364.174 Q2002.85 364.174 2004.77 361.512 Q2006.71 358.826 2006.71 354.127 Z" fill="#000000" fill-rule="evenodd" fill-opacity="1" /><path clip-path="url(#clip640)" d="M2032.96 348.433 Q2036.32 349.151 2038.19 351.419 Q2040.09 353.688 2040.09 357.021 Q2040.09 362.137 2036.57 364.938 Q2033.06 367.738 2026.57 367.738 Q2024.4 367.738 2022.08 367.299 Q2019.79 366.882 2017.34 366.026 L2017.34 361.512 Q2019.28 362.646 2021.6 363.225 Q2023.91 363.803 2026.44 363.803 Q2030.83 363.803 2033.12 362.067 Q2035.44 360.331 2035.44 357.021 Q2035.44 353.965 2033.29 352.252 Q2031.16 350.516 2027.34 350.516 L2023.31 350.516 L2023.31 346.674 L2027.52 346.674 Q2030.97 346.674 2032.8 345.308 Q2034.63 343.919 2034.63 341.327 Q2034.63 338.665 2032.73 337.253 Q2030.86 335.817 2027.34 335.817 Q2025.42 335.817 2023.22 336.234 Q2021.02 336.651 2018.38 337.53 L2018.38 333.364 Q2021.04 332.623 2023.36 332.253 Q2025.69 331.882 2027.75 331.882 Q2033.08 331.882 2036.18 334.313 Q2039.28 336.72 2039.28 340.84 Q2039.28 343.711 2037.64 345.702 Q2036 347.669 2032.96 348.433 Z" fill="#000000" fill-rule="evenodd" fill-opacity="1" /><polyline clip-path="url(#clip640)" style="stroke:#00a9ad; stroke-linecap:butt; stroke-linejoin:round; stroke-width:4; stroke-opacity:1; fill:none" points="
  1662.76,401.627 1796.43,401.627 
  "/>
<path clip-path="url(#clip640)" d="M1729.6 376.027 L1709.58 385.678 L1704.64 407.336 L1718.49 424.693 L1740.71 424.693 L1754.56 407.336 L1749.61 385.678 Z" fill="#00a9ad" fill-rule="evenodd" fill-opacity="1" stroke="#000000" stroke-opacity="1" stroke-width="4.9152"/>
<path clip-path="url(#clip640)" d="M1818.7 382.889 L1822.96 382.889 L1822.96 418.907 L1818.7 418.907 L1818.7 382.889 Z" fill="#000000" fill-rule="evenodd" fill-opacity="1" /><path clip-path="url(#clip640)" d="M1848.4 393.745 L1848.4 397.773 Q1846.6 396.847 1844.65 396.384 Q1842.71 395.921 1840.63 395.921 Q1837.45 395.921 1835.86 396.893 Q1834.28 397.866 1834.28 399.81 Q1834.28 401.292 1835.42 402.148 Q1836.55 402.981 1839.98 403.745 L1841.44 404.069 Q1845.97 405.042 1847.87 406.824 Q1849.79 408.583 1849.79 411.754 Q1849.79 415.366 1846.92 417.472 Q1844.08 419.578 1839.08 419.578 Q1836.99 419.578 1834.72 419.162 Q1832.48 418.768 1829.98 417.958 L1829.98 413.56 Q1832.34 414.787 1834.63 415.412 Q1836.92 416.014 1839.17 416.014 Q1842.18 416.014 1843.8 414.995 Q1845.42 413.954 1845.42 412.079 Q1845.42 410.342 1844.24 409.416 Q1843.08 408.491 1839.12 407.634 L1837.64 407.287 Q1833.68 406.454 1831.92 404.741 Q1830.16 403.004 1830.16 399.995 Q1830.16 396.338 1832.76 394.347 Q1835.35 392.356 1840.12 392.356 Q1842.48 392.356 1844.56 392.704 Q1846.64 393.051 1848.4 393.745 Z" fill="#000000" fill-rule="evenodd" fill-opacity="1" /><path clip-path="url(#clip640)" d="M1866.62 395.967 Q1863.2 395.967 1861.2 398.653 Q1859.21 401.315 1859.21 405.967 Q1859.21 410.62 1861.18 413.305 Q1863.17 415.967 1866.62 415.967 Q1870.02 415.967 1872.01 413.282 Q1874.01 410.597 1874.01 405.967 Q1874.01 401.361 1872.01 398.676 Q1870.02 395.967 1866.62 395.967 M1866.62 392.356 Q1872.18 392.356 1875.35 395.967 Q1878.52 399.579 1878.52 405.967 Q1878.52 412.333 1875.35 415.967 Q1872.18 419.578 1866.62 419.578 Q1861.04 419.578 1857.87 415.967 Q1854.72 412.333 1854.72 405.967 Q1854.72 399.579 1857.87 395.967 Q1861.04 392.356 1866.62 392.356 Z" fill="#000000" fill-rule="evenodd" fill-opacity="1" /><path clip-path="url(#clip640)" d="M1902.64 396.917 L1902.64 382.889 L1906.9 382.889 L1906.9 418.907 L1902.64 418.907 L1902.64 415.018 Q1901.3 417.333 1899.24 418.467 Q1897.2 419.578 1894.33 419.578 Q1889.63 419.578 1886.67 415.828 Q1883.73 412.079 1883.73 405.967 Q1883.73 399.856 1886.67 396.106 Q1889.63 392.356 1894.33 392.356 Q1897.2 392.356 1899.24 393.491 Q1901.3 394.602 1902.64 396.917 M1888.13 405.967 Q1888.13 410.666 1890.05 413.352 Q1891.99 416.014 1895.37 416.014 Q1898.75 416.014 1900.7 413.352 Q1902.64 410.666 1902.64 405.967 Q1902.64 401.268 1900.7 398.606 Q1898.75 395.921 1895.37 395.921 Q1891.99 395.921 1890.05 398.606 Q1888.13 401.268 1888.13 405.967 Z" fill="#000000" fill-rule="evenodd" fill-opacity="1" /><path clip-path="url(#clip640)" d="M1927.45 405.875 Q1922.29 405.875 1920.3 407.055 Q1918.31 408.236 1918.31 411.083 Q1918.31 413.352 1919.79 414.694 Q1921.3 416.014 1923.87 416.014 Q1927.41 416.014 1929.54 413.514 Q1931.69 410.991 1931.69 406.824 L1931.69 405.875 L1927.45 405.875 M1935.95 404.116 L1935.95 418.907 L1931.69 418.907 L1931.69 414.972 Q1930.23 417.333 1928.06 418.467 Q1925.88 419.578 1922.73 419.578 Q1918.75 419.578 1916.39 417.356 Q1914.05 415.111 1914.05 411.361 Q1914.05 406.986 1916.97 404.764 Q1919.91 402.542 1925.72 402.542 L1931.69 402.542 L1931.69 402.125 Q1931.69 399.185 1929.75 397.588 Q1927.82 395.967 1924.33 395.967 Q1922.11 395.967 1920 396.5 Q1917.89 397.032 1915.95 398.097 L1915.95 394.162 Q1918.29 393.259 1920.49 392.819 Q1922.69 392.356 1924.77 392.356 Q1930.39 392.356 1933.17 395.273 Q1935.95 398.19 1935.95 404.116 Z" fill="#000000" fill-rule="evenodd" fill-opacity="1" /><polyline clip-path="url(#clip640)" style="stroke:#ed5d92; stroke-linecap:butt; stroke-linejoin:round; stroke-width:4; stroke-opacity:1; fill:none" points="
  1662.76,453.467 1796.43,453.467 
  "/>
<path clip-path="url(#clip640)" d="M1729.6 479.067 L1707.43 466.267 L1707.43 440.667 L1729.6 427.867 L1751.77 440.667 L1751.77 466.267 Z" fill="#ed5d92" fill-rule="evenodd" fill-opacity="1" stroke="#000000" stroke-opacity="1" stroke-width="4.9152"/>
<path clip-path="url(#clip640)" d="M1833.89 448.803 Q1833.17 448.386 1832.32 448.201 Q1831.48 447.993 1830.46 447.993 Q1826.85 447.993 1824.91 450.354 Q1822.99 452.692 1822.99 457.09 L1822.99 470.747 L1818.7 470.747 L1818.7 444.821 L1822.99 444.821 L1822.99 448.849 Q1824.33 446.488 1826.48 445.354 Q1828.64 444.196 1831.71 444.196 Q1832.15 444.196 1832.69 444.266 Q1833.22 444.312 1833.87 444.428 L1833.89 448.803 Z" fill="#000000" fill-rule="evenodd" fill-opacity="1" /><path clip-path="url(#clip640)" d="M1850.14 457.715 Q1844.98 457.715 1842.99 458.895 Q1841 460.076 1841 462.923 Q1841 465.192 1842.48 466.534 Q1843.98 467.854 1846.55 467.854 Q1850.09 467.854 1852.22 465.354 Q1854.38 462.831 1854.38 458.664 L1854.38 457.715 L1850.14 457.715 M1858.64 455.956 L1858.64 470.747 L1854.38 470.747 L1854.38 466.812 Q1852.92 469.173 1850.74 470.307 Q1848.57 471.418 1845.42 471.418 Q1841.44 471.418 1839.08 469.196 Q1836.74 466.951 1836.74 463.201 Q1836.74 458.826 1839.65 456.604 Q1842.59 454.382 1848.4 454.382 L1854.38 454.382 L1854.38 453.965 Q1854.38 451.025 1852.43 449.428 Q1850.51 447.807 1847.01 447.807 Q1844.79 447.807 1842.69 448.34 Q1840.58 448.872 1838.64 449.937 L1838.64 446.002 Q1840.97 445.099 1843.17 444.659 Q1845.37 444.196 1847.45 444.196 Q1853.08 444.196 1855.86 447.113 Q1858.64 450.03 1858.64 455.956 Z" fill="#000000" fill-rule="evenodd" fill-opacity="1" /><path clip-path="url(#clip640)" d="M1884.47 448.757 L1884.47 434.729 L1888.73 434.729 L1888.73 470.747 L1884.47 470.747 L1884.47 466.858 Q1883.13 469.173 1881.07 470.307 Q1879.03 471.418 1876.16 471.418 Q1871.46 471.418 1868.5 467.668 Q1865.56 463.919 1865.56 457.807 Q1865.56 451.696 1868.5 447.946 Q1871.46 444.196 1876.16 444.196 Q1879.03 444.196 1881.07 445.331 Q1883.13 446.442 1884.47 448.757 M1869.95 457.807 Q1869.95 462.506 1871.88 465.192 Q1873.82 467.854 1877.2 467.854 Q1880.58 467.854 1882.52 465.192 Q1884.47 462.506 1884.47 457.807 Q1884.47 453.108 1882.52 450.446 Q1880.58 447.761 1877.2 447.761 Q1873.82 447.761 1871.88 450.446 Q1869.95 453.108 1869.95 457.807 Z" fill="#000000" fill-rule="evenodd" fill-opacity="1" /><path clip-path="url(#clip640)" d="M1909.28 457.715 Q1904.12 457.715 1902.13 458.895 Q1900.14 460.076 1900.14 462.923 Q1900.14 465.192 1901.62 466.534 Q1903.13 467.854 1905.7 467.854 Q1909.24 467.854 1911.37 465.354 Q1913.52 462.831 1913.52 458.664 L1913.52 457.715 L1909.28 457.715 M1917.78 455.956 L1917.78 470.747 L1913.52 470.747 L1913.52 466.812 Q1912.06 469.173 1909.88 470.307 Q1907.71 471.418 1904.56 471.418 Q1900.58 471.418 1898.22 469.196 Q1895.88 466.951 1895.88 463.201 Q1895.88 458.826 1898.8 456.604 Q1901.74 454.382 1907.55 454.382 L1913.52 454.382 L1913.52 453.965 Q1913.52 451.025 1911.57 449.428 Q1909.65 447.807 1906.16 447.807 Q1903.94 447.807 1901.83 448.34 Q1899.72 448.872 1897.78 449.937 L1897.78 446.002 Q1900.12 445.099 1902.32 444.659 Q1904.51 444.196 1906.6 444.196 Q1912.22 444.196 1915 447.113 Q1917.78 450.03 1917.78 455.956 Z" fill="#000000" fill-rule="evenodd" fill-opacity="1" /><path clip-path="url(#clip640)" d="M1926.11 460.516 L1926.11 444.821 L1930.37 444.821 L1930.37 460.354 Q1930.37 464.034 1931.81 465.886 Q1933.24 467.715 1936.11 467.715 Q1939.56 467.715 1941.55 465.516 Q1943.57 463.317 1943.57 459.52 L1943.57 444.821 L1947.82 444.821 L1947.82 470.747 L1943.57 470.747 L1943.57 466.766 Q1942.01 469.127 1939.95 470.284 Q1937.92 471.418 1935.21 471.418 Q1930.74 471.418 1928.43 468.641 Q1926.11 465.863 1926.11 460.516 M1936.83 444.196 L1936.83 444.196 Z" fill="#000000" fill-rule="evenodd" fill-opacity="1" /></svg>
