<?xml version="1.0" encoding="utf-8"?>
<svg xmlns="http://www.w3.org/2000/svg" xmlns:xlink="http://www.w3.org/1999/xlink" width="576" height="384" viewBox="0 0 2304 1536">
<defs>
  <clipPath id="clip600">
    <rect x="0" y="0" width="2304" height="1536"/>
  </clipPath>
</defs>
<path clip-path="url(#clip600)" d="
M0 1536 L2304 1536 L2304 0 L0 0  Z
  " fill="#ffffff" fill-rule="evenodd" fill-opacity="1"/>
<defs>
  <clipPath id="clip601">
    <rect x="460" y="0" width="1614" height="1536"/>
  </clipPath>
</defs>
<path clip-path="url(#clip600)" d="
M288.159 1347.54 L2256.76 1347.54 L2256.76 47.2441 L288.159 47.2441  Z
  " fill="#ffffff" fill-rule="evenodd" fill-opacity="1"/>
<defs>
  <clipPath id="clip602">
    <rect x="288" y="47" width="1970" height="1301"/>
  </clipPath>
</defs>
<polyline clip-path="url(#clip602)" style="stroke:#000000; stroke-linecap:butt; stroke-linejoin:round; stroke-width:2; stroke-opacity:0.1; fill:none" points="
  941.944,1347.54 941.944,47.2441 
  "/>
<polyline clip-path="url(#clip602)" style="stroke:#000000; stroke-linecap:butt; stroke-linejoin:round; stroke-width:2; stroke-opacity:0.1; fill:none" points="
  1695.37,1347.54 1695.37,47.2441 
  "/>
<polyline clip-path="url(#clip600)" style="stroke:#000000; stroke-linecap:butt; stroke-linejoin:round; stroke-width:4; stroke-opacity:1; fill:none" points="
  288.159,1347.54 2256.76,1347.54 
  "/>
<polyline clip-path="url(#clip600)" style="stroke:#000000; stroke-linecap:butt; stroke-linejoin:round; stroke-width:4; stroke-opacity:1; fill:none" points="
  941.944,1347.54 941.944,1328.64 
  "/>
<polyline clip-path="url(#clip600)" style="stroke:#000000; stroke-linecap:butt; stroke-linejoin:round; stroke-width:4; stroke-opacity:1; fill:none" points="
  1695.37,1347.54 1695.37,1328.64 
  "/>
<path clip-path="url(#clip600)" d="M891.495 1420.89 L899.134 1420.89 L899.134 1394.53 L890.824 1396.19 L890.824 1391.94 L899.088 1390.27 L903.764 1390.27 L903.764 1420.89 L911.402 1420.89 L911.402 1424.83 L891.495 1424.83 L891.495 1420.89 Z" fill="#000000" fill-rule="evenodd" fill-opacity="1" /><path clip-path="url(#clip600)" d="M930.847 1393.35 Q927.236 1393.35 925.407 1396.91 Q923.601 1400.45 923.601 1407.58 Q923.601 1414.69 925.407 1418.25 Q927.236 1421.8 930.847 1421.8 Q934.481 1421.8 936.286 1418.25 Q938.115 1414.69 938.115 1407.58 Q938.115 1400.45 936.286 1396.91 Q934.481 1393.35 930.847 1393.35 M930.847 1389.64 Q936.657 1389.64 939.712 1394.25 Q942.791 1398.83 942.791 1407.58 Q942.791 1416.31 939.712 1420.92 Q936.657 1425.5 930.847 1425.5 Q925.037 1425.5 921.958 1420.92 Q918.902 1416.31 918.902 1407.58 Q918.902 1398.83 921.958 1394.25 Q925.037 1389.64 930.847 1389.64 Z" fill="#000000" fill-rule="evenodd" fill-opacity="1" /><path clip-path="url(#clip600)" d="M942.791 1383.74 L966.903 1383.74 L966.903 1386.94 L942.791 1386.94 L942.791 1383.74 Z" fill="#000000" fill-rule="evenodd" fill-opacity="1" /><path clip-path="url(#clip600)" d="M983.698 1381.86 Q981.14 1381.86 979.636 1383.61 Q978.15 1385.36 978.15 1388.41 Q978.15 1391.44 979.636 1393.21 Q981.14 1394.95 983.698 1394.95 Q986.256 1394.95 987.742 1393.21 Q989.246 1391.44 989.246 1388.41 Q989.246 1385.36 987.742 1383.61 Q986.256 1381.86 983.698 1381.86 M991.24 1369.96 L991.24 1373.42 Q989.811 1372.74 988.343 1372.39 Q986.895 1372.03 985.466 1372.03 Q981.704 1372.03 979.711 1374.57 Q977.736 1377.11 977.454 1382.24 Q978.563 1380.6 980.237 1379.74 Q981.911 1378.85 983.924 1378.85 Q988.155 1378.85 990.6 1381.43 Q993.064 1383.99 993.064 1388.41 Q993.064 1392.74 990.506 1395.35 Q987.949 1397.96 983.698 1397.96 Q978.827 1397.96 976.25 1394.24 Q973.673 1390.5 973.673 1383.41 Q973.673 1376.75 976.833 1372.8 Q979.993 1368.83 985.315 1368.83 Q986.745 1368.83 988.193 1369.11 Q989.66 1369.39 991.24 1369.96 Z" fill="#000000" fill-rule="evenodd" fill-opacity="1" /><path clip-path="url(#clip600)" d="M1644.79 1420.89 L1652.43 1420.89 L1652.43 1394.53 L1644.12 1396.19 L1644.12 1391.94 L1652.38 1390.27 L1657.06 1390.27 L1657.06 1420.89 L1664.7 1420.89 L1664.7 1424.83 L1644.79 1424.83 L1644.79 1420.89 Z" fill="#000000" fill-rule="evenodd" fill-opacity="1" /><path clip-path="url(#clip600)" d="M1684.14 1393.35 Q1680.53 1393.35 1678.7 1396.91 Q1676.9 1400.45 1676.9 1407.58 Q1676.9 1414.69 1678.7 1418.25 Q1680.53 1421.8 1684.14 1421.8 Q1687.78 1421.8 1689.58 1418.25 Q1691.41 1414.69 1691.41 1407.58 Q1691.41 1400.45 1689.58 1396.91 Q1687.78 1393.35 1684.14 1393.35 M1684.14 1389.64 Q1689.95 1389.64 1693.01 1394.25 Q1696.09 1398.83 1696.09 1407.58 Q1696.09 1416.31 1693.01 1420.92 Q1689.95 1425.5 1684.14 1425.5 Q1678.33 1425.5 1675.25 1420.92 Q1672.2 1416.31 1672.2 1407.58 Q1672.2 1398.83 1675.25 1394.25 Q1678.33 1389.64 1684.14 1389.64 Z" fill="#000000" fill-rule="evenodd" fill-opacity="1" /><path clip-path="url(#clip600)" d="M1696.09 1383.74 L1720.2 1383.74 L1720.2 1386.94 L1696.09 1386.94 L1696.09 1383.74 Z" fill="#000000" fill-rule="evenodd" fill-opacity="1" /><path clip-path="url(#clip600)" d="M1738.84 1372.65 L1729.24 1387.64 L1738.84 1387.64 L1738.84 1372.65 M1737.84 1369.34 L1742.62 1369.34 L1742.62 1387.64 L1746.62 1387.64 L1746.62 1390.8 L1742.62 1390.8 L1742.62 1397.42 L1738.84 1397.42 L1738.84 1390.8 L1726.16 1390.8 L1726.16 1387.13 L1737.84 1369.34 Z" fill="#000000" fill-rule="evenodd" fill-opacity="1" /><path clip-path="url(#clip600)" d="M1196.21 1461.87 L1226.26 1461.87 L1226.26 1467.28 L1202.64 1467.28 L1202.64 1481.34 L1225.27 1481.34 L1225.27 1486.76 L1202.64 1486.76 L1202.64 1503.97 L1226.83 1503.97 L1226.83 1509.39 L1196.21 1509.39 L1196.21 1461.87 Z" fill="#000000" fill-rule="evenodd" fill-opacity="1" /><path clip-path="url(#clip600)" d="M1257.8 1479.21 Q1256.81 1478.64 1255.64 1478.38 Q1254.49 1478.1 1253.09 1478.1 Q1248.12 1478.1 1245.45 1481.34 Q1242.81 1484.56 1242.81 1490.61 L1242.81 1509.39 L1236.92 1509.39 L1236.92 1473.74 L1242.81 1473.74 L1242.81 1479.28 Q1244.66 1476.03 1247.62 1474.47 Q1250.58 1472.88 1254.81 1472.88 Q1255.41 1472.88 1256.15 1472.97 Q1256.88 1473.04 1257.77 1473.2 L1257.8 1479.21 Z" fill="#000000" fill-rule="evenodd" fill-opacity="1" /><path clip-path="url(#clip600)" d="M1283.45 1479.21 Q1282.47 1478.64 1281.29 1478.38 Q1280.14 1478.1 1278.74 1478.1 Q1273.78 1478.1 1271.1 1481.34 Q1268.46 1484.56 1268.46 1490.61 L1268.46 1509.39 L1262.57 1509.39 L1262.57 1473.74 L1268.46 1473.74 L1268.46 1479.28 Q1270.31 1476.03 1273.27 1474.47 Q1276.23 1472.88 1280.46 1472.88 Q1281.07 1472.88 1281.8 1472.97 Q1282.53 1473.04 1283.42 1473.2 L1283.45 1479.21 Z" fill="#000000" fill-rule="evenodd" fill-opacity="1" /><path clip-path="url(#clip600)" d="M1301.98 1477.84 Q1297.27 1477.84 1294.53 1481.54 Q1291.79 1485.2 1291.79 1491.59 Q1291.79 1497.99 1294.5 1501.68 Q1297.24 1505.34 1301.98 1505.34 Q1306.66 1505.34 1309.39 1501.65 Q1312.13 1497.96 1312.13 1491.59 Q1312.13 1485.26 1309.39 1481.57 Q1306.66 1477.84 1301.98 1477.84 M1301.98 1472.88 Q1309.62 1472.88 1313.98 1477.84 Q1318.34 1482.81 1318.34 1491.59 Q1318.34 1500.35 1313.98 1505.34 Q1309.62 1510.31 1301.98 1510.31 Q1294.31 1510.31 1289.95 1505.34 Q1285.62 1500.35 1285.62 1491.59 Q1285.62 1482.81 1289.95 1477.84 Q1294.31 1472.88 1301.98 1472.88 Z" fill="#000000" fill-rule="evenodd" fill-opacity="1" /><path clip-path="url(#clip600)" d="M1348.7 1479.21 Q1347.72 1478.64 1346.54 1478.38 Q1345.39 1478.1 1343.99 1478.1 Q1339.03 1478.1 1336.35 1481.34 Q1333.71 1484.56 1333.71 1490.61 L1333.71 1509.39 L1327.82 1509.39 L1327.82 1473.74 L1333.71 1473.74 L1333.71 1479.28 Q1335.56 1476.03 1338.52 1474.47 Q1341.48 1472.88 1345.71 1472.88 Q1346.32 1472.88 1347.05 1472.97 Q1347.78 1473.04 1348.67 1473.2 L1348.7 1479.21 Z" fill="#000000" fill-rule="evenodd" fill-opacity="1" /><polyline clip-path="url(#clip602)" style="stroke:#000000; stroke-linecap:butt; stroke-linejoin:round; stroke-width:2; stroke-opacity:0.1; fill:none" points="
  288.159,1185.46 2256.76,1185.46 
  "/>
<polyline clip-path="url(#clip602)" style="stroke:#000000; stroke-linecap:butt; stroke-linejoin:round; stroke-width:2; stroke-opacity:0.1; fill:none" points="
  288.159,795.315 2256.76,795.315 
  "/>
<polyline clip-path="url(#clip602)" style="stroke:#000000; stroke-linecap:butt; stroke-linejoin:round; stroke-width:2; stroke-opacity:0.1; fill:none" points="
  288.159,405.17 2256.76,405.17 
  "/>
<polyline clip-path="url(#clip600)" style="stroke:#000000; stroke-linecap:butt; stroke-linejoin:round; stroke-width:4; stroke-opacity:1; fill:none" points="
  288.159,1347.54 288.159,47.2441 
  "/>
<polyline clip-path="url(#clip600)" style="stroke:#000000; stroke-linecap:butt; stroke-linejoin:round; stroke-width:4; stroke-opacity:1; fill:none" points="
  288.159,1185.46 307.057,1185.46 
  "/>
<polyline clip-path="url(#clip600)" style="stroke:#000000; stroke-linecap:butt; stroke-linejoin:round; stroke-width:4; stroke-opacity:1; fill:none" points="
  288.159,795.315 307.057,795.315 
  "/>
<polyline clip-path="url(#clip600)" style="stroke:#000000; stroke-linecap:butt; stroke-linejoin:round; stroke-width:4; stroke-opacity:1; fill:none" points="
  288.159,405.17 307.057,405.17 
  "/>
<path clip-path="url(#clip600)" d="M116.22 1205.25 L123.859 1205.25 L123.859 1178.89 L115.549 1180.55 L115.549 1176.3 L123.813 1174.63 L128.489 1174.63 L128.489 1205.25 L136.127 1205.25 L136.127 1209.19 L116.22 1209.19 L116.22 1205.25 Z" fill="#000000" fill-rule="evenodd" fill-opacity="1" /><path clip-path="url(#clip600)" d="M155.572 1177.71 Q151.961 1177.71 150.132 1181.27 Q148.326 1184.81 148.326 1191.94 Q148.326 1199.05 150.132 1202.61 Q151.961 1206.16 155.572 1206.16 Q159.206 1206.16 161.012 1202.61 Q162.84 1199.05 162.84 1191.94 Q162.84 1184.81 161.012 1181.27 Q159.206 1177.71 155.572 1177.71 M155.572 1174 Q161.382 1174 164.438 1178.61 Q167.516 1183.19 167.516 1191.94 Q167.516 1200.67 164.438 1205.28 Q161.382 1209.86 155.572 1209.86 Q149.762 1209.86 146.683 1205.28 Q143.627 1200.67 143.627 1191.94 Q143.627 1183.19 146.683 1178.61 Q149.762 1174 155.572 1174 Z" fill="#000000" fill-rule="evenodd" fill-opacity="1" /><path clip-path="url(#clip600)" d="M167.516 1168.11 L191.628 1168.11 L191.628 1171.3 L167.516 1171.3 L167.516 1168.11 Z" fill="#000000" fill-rule="evenodd" fill-opacity="1" /><path clip-path="url(#clip600)" d="M210.266 1157.01 L200.674 1172 L210.266 1172 L210.266 1157.01 M209.269 1153.7 L214.047 1153.7 L214.047 1172 L218.053 1172 L218.053 1175.16 L214.047 1175.16 L214.047 1181.78 L210.266 1181.78 L210.266 1175.16 L197.59 1175.16 L197.59 1171.49 L209.269 1153.7 Z" fill="#000000" fill-rule="evenodd" fill-opacity="1" /><path clip-path="url(#clip600)" d="M224.334 1177 L228.303 1177 L228.303 1181.78 L224.334 1181.78 L224.334 1177 Z" fill="#000000" fill-rule="evenodd" fill-opacity="1" /><path clip-path="url(#clip600)" d="M236.616 1153.7 L251.531 1153.7 L251.531 1156.9 L240.095 1156.9 L240.095 1163.78 Q240.923 1163.5 241.75 1163.37 Q242.578 1163.22 243.406 1163.22 Q248.107 1163.22 250.853 1165.79 Q253.599 1168.37 253.599 1172.77 Q253.599 1177.3 250.778 1179.82 Q247.957 1182.32 242.823 1182.32 Q241.055 1182.32 239.211 1182.02 Q237.387 1181.72 235.431 1181.12 L235.431 1177.3 Q237.124 1178.22 238.929 1178.68 Q240.735 1179.13 242.747 1179.13 Q246.001 1179.13 247.901 1177.42 Q249.8 1175.7 249.8 1172.77 Q249.8 1169.84 247.901 1168.12 Q246.001 1166.41 242.747 1166.41 Q241.224 1166.41 239.7 1166.75 Q238.196 1167.09 236.616 1167.8 L236.616 1153.7 Z" fill="#000000" fill-rule="evenodd" fill-opacity="1" /><path clip-path="url(#clip600)" d="M115.411 815.108 L123.05 815.108 L123.05 788.742 L114.74 790.409 L114.74 786.15 L123.004 784.483 L127.68 784.483 L127.68 815.108 L135.319 815.108 L135.319 819.043 L115.411 819.043 L115.411 815.108 Z" fill="#000000" fill-rule="evenodd" fill-opacity="1" /><path clip-path="url(#clip600)" d="M154.763 787.562 Q151.152 787.562 149.323 791.127 Q147.518 794.668 147.518 801.798 Q147.518 808.904 149.323 812.469 Q151.152 816.011 154.763 816.011 Q158.397 816.011 160.203 812.469 Q162.032 808.904 162.032 801.798 Q162.032 794.668 160.203 791.127 Q158.397 787.562 154.763 787.562 M154.763 783.858 Q160.573 783.858 163.629 788.465 Q166.707 793.048 166.707 801.798 Q166.707 810.525 163.629 815.131 Q160.573 819.714 154.763 819.714 Q148.953 819.714 145.874 815.131 Q142.819 810.525 142.819 801.798 Q142.819 793.048 145.874 788.465 Q148.953 783.858 154.763 783.858 Z" fill="#000000" fill-rule="evenodd" fill-opacity="1" /><path clip-path="url(#clip600)" d="M166.707 777.959 L190.819 777.959 L190.819 781.157 L166.707 781.157 L166.707 777.959 Z" fill="#000000" fill-rule="evenodd" fill-opacity="1" /><path clip-path="url(#clip600)" d="M209.458 766.863 L199.866 781.853 L209.458 781.853 L209.458 766.863 M208.461 763.553 L213.238 763.553 L213.238 781.853 L217.244 781.853 L217.244 785.012 L213.238 785.012 L213.238 791.633 L209.458 791.633 L209.458 785.012 L196.781 785.012 L196.781 781.345 L208.461 763.553 Z" fill="#000000" fill-rule="evenodd" fill-opacity="1" /><path clip-path="url(#clip600)" d="M223.526 786.856 L227.494 786.856 L227.494 791.633 L223.526 791.633 L223.526 786.856 Z" fill="#000000" fill-rule="evenodd" fill-opacity="1" /><path clip-path="url(#clip600)" d="M243.895 766.054 Q240.961 766.054 239.475 768.951 Q238.008 771.828 238.008 777.621 Q238.008 783.395 239.475 786.291 Q240.961 789.169 243.895 789.169 Q246.847 789.169 248.314 786.291 Q249.8 783.395 249.8 777.621 Q249.8 771.828 248.314 768.951 Q246.847 766.054 243.895 766.054 M243.895 763.045 Q248.615 763.045 251.098 766.788 Q253.599 770.512 253.599 777.621 Q253.599 784.711 251.098 788.454 Q248.615 792.178 243.895 792.178 Q239.174 792.178 236.672 788.454 Q234.19 784.711 234.19 777.621 Q234.19 770.512 236.672 766.788 Q239.174 763.045 243.895 763.045 Z" fill="#000000" fill-rule="evenodd" fill-opacity="1" /><path clip-path="url(#clip600)" d="M116.22 424.962 L123.859 424.962 L123.859 398.597 L115.549 400.263 L115.549 396.004 L123.813 394.337 L128.489 394.337 L128.489 424.962 L136.127 424.962 L136.127 428.897 L116.22 428.897 L116.22 424.962 Z" fill="#000000" fill-rule="evenodd" fill-opacity="1" /><path clip-path="url(#clip600)" d="M155.572 397.416 Q151.961 397.416 150.132 400.981 Q148.326 404.522 148.326 411.652 Q148.326 418.759 150.132 422.323 Q151.961 425.865 155.572 425.865 Q159.206 425.865 161.012 422.323 Q162.84 418.759 162.84 411.652 Q162.84 404.522 161.012 400.981 Q159.206 397.416 155.572 397.416 M155.572 393.712 Q161.382 393.712 164.438 398.319 Q167.516 402.902 167.516 411.652 Q167.516 420.379 164.438 424.985 Q161.382 429.569 155.572 429.569 Q149.762 429.569 146.683 424.985 Q143.627 420.379 143.627 411.652 Q143.627 402.902 146.683 398.319 Q149.762 393.712 155.572 393.712 Z" fill="#000000" fill-rule="evenodd" fill-opacity="1" /><path clip-path="url(#clip600)" d="M167.516 387.814 L191.628 387.814 L191.628 391.011 L167.516 391.011 L167.516 387.814 Z" fill="#000000" fill-rule="evenodd" fill-opacity="1" /><path clip-path="url(#clip600)" d="M211.338 386.347 Q214.065 386.93 215.589 388.773 Q217.131 390.616 217.131 393.324 Q217.131 397.481 214.272 399.757 Q211.414 402.032 206.147 402.032 Q204.379 402.032 202.499 401.675 Q200.637 401.336 198.643 400.641 L198.643 396.973 Q200.223 397.895 202.104 398.365 Q203.984 398.835 206.035 398.835 Q209.608 398.835 211.47 397.424 Q213.351 396.014 213.351 393.324 Q213.351 390.842 211.602 389.45 Q209.871 388.039 206.768 388.039 L203.495 388.039 L203.495 384.917 L206.918 384.917 Q209.721 384.917 211.207 383.808 Q212.692 382.679 212.692 380.573 Q212.692 378.41 211.15 377.263 Q209.627 376.096 206.768 376.096 Q205.207 376.096 203.42 376.435 Q201.633 376.774 199.489 377.488 L199.489 374.103 Q201.652 373.501 203.533 373.2 Q205.433 372.899 207.107 372.899 Q211.432 372.899 213.953 374.874 Q216.473 376.83 216.473 380.178 Q216.473 382.51 215.137 384.127 Q213.802 385.726 211.338 386.347 Z" fill="#000000" fill-rule="evenodd" fill-opacity="1" /><path clip-path="url(#clip600)" d="M224.334 396.71 L228.303 396.71 L228.303 401.487 L224.334 401.487 L224.334 396.71 Z" fill="#000000" fill-rule="evenodd" fill-opacity="1" /><path clip-path="url(#clip600)" d="M236.616 373.407 L251.531 373.407 L251.531 376.604 L240.095 376.604 L240.095 383.488 Q240.923 383.206 241.75 383.074 Q242.578 382.924 243.406 382.924 Q248.107 382.924 250.853 385.5 Q253.599 388.077 253.599 392.478 Q253.599 397.011 250.778 399.531 Q247.957 402.032 242.823 402.032 Q241.055 402.032 239.211 401.731 Q237.387 401.431 235.431 400.829 L235.431 397.011 Q237.124 397.932 238.929 398.384 Q240.735 398.835 242.747 398.835 Q246.001 398.835 247.901 397.124 Q249.8 395.412 249.8 392.478 Q249.8 389.544 247.901 387.833 Q246.001 386.121 242.747 386.121 Q241.224 386.121 239.7 386.46 Q238.196 386.798 236.616 387.513 L236.616 373.407 Z" fill="#000000" fill-rule="evenodd" fill-opacity="1" /><path clip-path="url(#clip600)" d="M18.4042 827.219 L18.4042 787.02 L23.815 787.02 L23.815 803.889 L65.9242 803.889 L65.9242 810.35 L23.815 810.35 L23.815 827.219 L18.4042 827.219 Z" fill="#000000" fill-rule="evenodd" fill-opacity="1" /><path clip-path="url(#clip600)" d="M30.2762 783.073 L30.2762 777.216 L65.9242 777.216 L65.9242 783.073 L30.2762 783.073 M16.399 783.073 L16.399 777.216 L23.815 777.216 L23.815 783.073 L16.399 783.073 Z" fill="#000000" fill-rule="evenodd" fill-opacity="1" /><path clip-path="url(#clip600)" d="M37.1193 737.208 Q33.1726 735.012 31.2947 731.956 Q29.4168 728.901 29.4168 724.763 Q29.4168 719.193 33.3317 716.169 Q37.2148 713.145 44.4081 713.145 L65.9242 713.145 L65.9242 719.034 L44.599 719.034 Q39.4746 719.034 36.992 720.848 Q34.5094 722.662 34.5094 726.386 Q34.5094 730.938 37.5331 733.579 Q40.5568 736.221 45.7767 736.221 L65.9242 736.221 L65.9242 742.109 L44.599 742.109 Q39.4428 742.109 36.992 743.924 Q34.5094 745.738 34.5094 749.526 Q34.5094 754.013 37.5649 756.655 Q40.5886 759.297 45.7767 759.297 L65.9242 759.297 L65.9242 765.185 L30.2762 765.185 L30.2762 759.297 L35.8144 759.297 Q32.536 757.292 30.9764 754.491 Q29.4168 751.69 29.4168 747.839 Q29.4168 743.956 31.3902 741.25 Q33.3636 738.513 37.1193 737.208 Z" fill="#000000" fill-rule="evenodd" fill-opacity="1" /><path clip-path="url(#clip600)" d="M46.6361 670.973 L49.5006 670.973 L49.5006 697.9 Q55.5481 697.518 58.7309 694.271 Q61.8819 690.993 61.8819 685.168 Q61.8819 681.794 61.0544 678.643 Q60.2269 675.461 58.5718 672.341 L64.1099 672.341 Q65.4467 675.492 66.147 678.803 Q66.8472 682.113 66.8472 685.518 Q66.8472 694.048 61.8819 699.045 Q56.9167 704.011 48.4503 704.011 Q39.6974 704.011 34.5731 699.3 Q29.4168 694.558 29.4168 686.537 Q29.4168 679.344 34.0638 675.174 Q38.6789 670.973 46.6361 670.973 M44.9173 676.829 Q40.1112 676.893 37.2466 679.535 Q34.3821 682.145 34.3821 686.473 Q34.3821 691.375 37.1512 694.335 Q39.9202 697.263 44.9492 697.709 L44.9173 676.829 Z" fill="#000000" fill-rule="evenodd" fill-opacity="1" /><path clip-path="url(#clip600)" d="M16.4626 626.572 Q23.7832 630.837 30.9446 632.906 Q38.106 634.975 45.4584 634.975 Q52.8108 634.975 60.0359 632.906 Q67.2291 630.805 74.5179 626.572 L74.5179 631.664 Q67.0382 636.439 59.8131 638.826 Q52.588 641.181 45.4584 641.181 Q38.3606 641.181 31.1674 638.826 Q23.9742 636.471 16.4626 631.664 L16.4626 626.572 Z" fill="#000000" fill-rule="evenodd" fill-opacity="1" /><path clip-path="url(#clip600)" d="M31.3265 592.484 L36.8647 592.484 Q35.5916 594.966 34.955 597.64 Q34.3184 600.313 34.3184 603.178 Q34.3184 607.538 35.6552 609.735 Q36.992 611.899 39.6656 611.899 Q41.7026 611.899 42.8803 610.339 Q44.0261 608.78 45.0765 604.069 L45.5221 602.064 Q46.8589 595.826 49.3097 593.216 Q51.7286 590.574 56.0891 590.574 Q61.0544 590.574 63.9508 594.521 Q66.8472 598.435 66.8472 605.31 Q66.8472 608.175 66.2743 611.294 Q65.7332 614.382 64.6192 617.819 L58.5718 617.819 Q60.2587 614.573 61.118 611.422 Q61.9456 608.27 61.9456 605.183 Q61.9456 601.045 60.5451 598.817 Q59.1129 596.589 56.5347 596.589 Q54.1476 596.589 52.8745 598.213 Q51.6013 599.804 50.4237 605.247 L49.9462 607.284 Q48.8004 612.726 46.4451 615.145 Q44.058 617.564 39.9202 617.564 Q34.8913 617.564 32.1541 614 Q29.4168 610.435 29.4168 603.878 Q29.4168 600.632 29.8943 597.767 Q30.3717 594.902 31.3265 592.484 Z" fill="#000000" fill-rule="evenodd" fill-opacity="1" /><path clip-path="url(#clip600)" d="M16.4626 582.171 L16.4626 577.079 Q23.9742 572.304 31.1674 569.949 Q38.3606 567.562 45.4584 567.562 Q52.588 567.562 59.8131 569.949 Q67.0382 572.304 74.5179 577.079 L74.5179 582.171 Q67.2291 577.938 60.0359 575.869 Q52.8108 573.768 45.4584 573.768 Q38.106 573.768 30.9446 575.869 Q23.7832 577.938 16.4626 582.171 Z" fill="#000000" fill-rule="evenodd" fill-opacity="1" /><polyline clip-path="url(#clip602)" style="stroke:#009af9; stroke-linecap:butt; stroke-linejoin:round; stroke-width:12; stroke-opacity:1; fill:none" points="
  1828.36,1310.74 1660.05,1201.29 1474.36,1062.1 1254.79,873.233 
  "/>
<line clip-path="url(#clip602)" x1="1828.36" y1="1310.74" x2="1828.36" y2="1294.74" style="stroke:#009af9; stroke-width:3.072; stroke-opacity:1"/>
<line clip-path="url(#clip602)" x1="1828.36" y1="1310.74" x2="1812.36" y2="1310.74" style="stroke:#009af9; stroke-width:3.072; stroke-opacity:1"/>
<line clip-path="url(#clip602)" x1="1828.36" y1="1310.74" x2="1828.36" y2="1326.74" style="stroke:#009af9; stroke-width:3.072; stroke-opacity:1"/>
<line clip-path="url(#clip602)" x1="1828.36" y1="1310.74" x2="1844.36" y2="1310.74" style="stroke:#009af9; stroke-width:3.072; stroke-opacity:1"/>
<line clip-path="url(#clip602)" x1="1660.05" y1="1201.29" x2="1660.05" y2="1185.29" style="stroke:#009af9; stroke-width:3.072; stroke-opacity:1"/>
<line clip-path="url(#clip602)" x1="1660.05" y1="1201.29" x2="1644.05" y2="1201.29" style="stroke:#009af9; stroke-width:3.072; stroke-opacity:1"/>
<line clip-path="url(#clip602)" x1="1660.05" y1="1201.29" x2="1660.05" y2="1217.29" style="stroke:#009af9; stroke-width:3.072; stroke-opacity:1"/>
<line clip-path="url(#clip602)" x1="1660.05" y1="1201.29" x2="1676.05" y2="1201.29" style="stroke:#009af9; stroke-width:3.072; stroke-opacity:1"/>
<line clip-path="url(#clip602)" x1="1474.36" y1="1062.1" x2="1474.36" y2="1046.1" style="stroke:#009af9; stroke-width:3.072; stroke-opacity:1"/>
<line clip-path="url(#clip602)" x1="1474.36" y1="1062.1" x2="1458.36" y2="1062.1" style="stroke:#009af9; stroke-width:3.072; stroke-opacity:1"/>
<line clip-path="url(#clip602)" x1="1474.36" y1="1062.1" x2="1474.36" y2="1078.1" style="stroke:#009af9; stroke-width:3.072; stroke-opacity:1"/>
<line clip-path="url(#clip602)" x1="1474.36" y1="1062.1" x2="1490.36" y2="1062.1" style="stroke:#009af9; stroke-width:3.072; stroke-opacity:1"/>
<line clip-path="url(#clip602)" x1="1254.79" y1="873.233" x2="1254.79" y2="857.233" style="stroke:#009af9; stroke-width:3.072; stroke-opacity:1"/>
<line clip-path="url(#clip602)" x1="1254.79" y1="873.233" x2="1238.79" y2="873.233" style="stroke:#009af9; stroke-width:3.072; stroke-opacity:1"/>
<line clip-path="url(#clip602)" x1="1254.79" y1="873.233" x2="1254.79" y2="889.233" style="stroke:#009af9; stroke-width:3.072; stroke-opacity:1"/>
<line clip-path="url(#clip602)" x1="1254.79" y1="873.233" x2="1270.79" y2="873.233" style="stroke:#009af9; stroke-width:3.072; stroke-opacity:1"/>
<polyline clip-path="url(#clip602)" style="stroke:#e26f46; stroke-linecap:butt; stroke-linejoin:round; stroke-width:12; stroke-opacity:1; fill:none" points="
  2184.62,758.981 1647.2,544.833 974.834,301.473 1186.35,84.0448 
  "/>
<circle clip-path="url(#clip602)" cx="2184.62" cy="758.981" r="14" fill="#e26f46" fill-rule="evenodd" fill-opacity="1" stroke="#000000" stroke-opacity="1" stroke-width="3.072"/>
<circle clip-path="url(#clip602)" cx="1647.2" cy="544.833" r="14" fill="#e26f46" fill-rule="evenodd" fill-opacity="1" stroke="#000000" stroke-opacity="1" stroke-width="3.072"/>
<circle clip-path="url(#clip602)" cx="974.834" cy="301.473" r="14" fill="#e26f46" fill-rule="evenodd" fill-opacity="1" stroke="#000000" stroke-opacity="1" stroke-width="3.072"/>
<circle clip-path="url(#clip602)" cx="1186.35" cy="84.0448" r="14" fill="#e26f46" fill-rule="evenodd" fill-opacity="1" stroke="#000000" stroke-opacity="1" stroke-width="3.072"/>
<polyline clip-path="url(#clip602)" style="stroke:#3da44d; stroke-linecap:butt; stroke-linejoin:round; stroke-width:12; stroke-opacity:1; fill:none" points="
  1879.93,858.34 1780.25,743.277 1475.83,637.79 1304.77,516.711 
  "/>
<line clip-path="url(#clip602)" x1="1879.93" y1="858.34" x2="1879.93" y2="842.34" style="stroke:#3da44d; stroke-width:3.072; stroke-opacity:1"/>
<line clip-path="url(#clip602)" x1="1879.93" y1="858.34" x2="1863.93" y2="858.34" style="stroke:#3da44d; stroke-width:3.072; stroke-opacity:1"/>
<line clip-path="url(#clip602)" x1="1879.93" y1="858.34" x2="1879.93" y2="874.34" style="stroke:#3da44d; stroke-width:3.072; stroke-opacity:1"/>
<line clip-path="url(#clip602)" x1="1879.93" y1="858.34" x2="1895.93" y2="858.34" style="stroke:#3da44d; stroke-width:3.072; stroke-opacity:1"/>
<line clip-path="url(#clip602)" x1="1780.25" y1="743.277" x2="1780.25" y2="727.277" style="stroke:#3da44d; stroke-width:3.072; stroke-opacity:1"/>
<line clip-path="url(#clip602)" x1="1780.25" y1="743.277" x2="1764.25" y2="743.277" style="stroke:#3da44d; stroke-width:3.072; stroke-opacity:1"/>
<line clip-path="url(#clip602)" x1="1780.25" y1="743.277" x2="1780.25" y2="759.277" style="stroke:#3da44d; stroke-width:3.072; stroke-opacity:1"/>
<line clip-path="url(#clip602)" x1="1780.25" y1="743.277" x2="1796.25" y2="743.277" style="stroke:#3da44d; stroke-width:3.072; stroke-opacity:1"/>
<line clip-path="url(#clip602)" x1="1475.83" y1="637.79" x2="1475.83" y2="621.79" style="stroke:#3da44d; stroke-width:3.072; stroke-opacity:1"/>
<line clip-path="url(#clip602)" x1="1475.83" y1="637.79" x2="1459.83" y2="637.79" style="stroke:#3da44d; stroke-width:3.072; stroke-opacity:1"/>
<line clip-path="url(#clip602)" x1="1475.83" y1="637.79" x2="1475.83" y2="653.79" style="stroke:#3da44d; stroke-width:3.072; stroke-opacity:1"/>
<line clip-path="url(#clip602)" x1="1475.83" y1="637.79" x2="1491.83" y2="637.79" style="stroke:#3da44d; stroke-width:3.072; stroke-opacity:1"/>
<line clip-path="url(#clip602)" x1="1304.77" y1="516.711" x2="1304.77" y2="500.711" style="stroke:#3da44d; stroke-width:3.072; stroke-opacity:1"/>
<line clip-path="url(#clip602)" x1="1304.77" y1="516.711" x2="1288.77" y2="516.711" style="stroke:#3da44d; stroke-width:3.072; stroke-opacity:1"/>
<line clip-path="url(#clip602)" x1="1304.77" y1="516.711" x2="1304.77" y2="532.711" style="stroke:#3da44d; stroke-width:3.072; stroke-opacity:1"/>
<line clip-path="url(#clip602)" x1="1304.77" y1="516.711" x2="1320.77" y2="516.711" style="stroke:#3da44d; stroke-width:3.072; stroke-opacity:1"/>
<polyline clip-path="url(#clip602)" style="stroke:#c271d2; stroke-linecap:butt; stroke-linejoin:round; stroke-width:12; stroke-opacity:1; fill:none" points="
  1468.29,802.099 1193.97,616.52 953.964,498.194 518.903,251.967 
  "/>
<path clip-path="url(#clip602)" d="M1468.29 786.099 L1452.29 802.099 L1468.29 818.099 L1484.29 802.099 L1468.29 786.099 Z" fill="#c271d2" fill-rule="evenodd" fill-opacity="1" stroke="#000000" stroke-opacity="1" stroke-width="3.072"/>
<path clip-path="url(#clip602)" d="M1193.97 600.52 L1177.97 616.52 L1193.97 632.52 L1209.97 616.52 L1193.97 600.52 Z" fill="#c271d2" fill-rule="evenodd" fill-opacity="1" stroke="#000000" stroke-opacity="1" stroke-width="3.072"/>
<path clip-path="url(#clip602)" d="M953.964 482.194 L937.964 498.194 L953.964 514.194 L969.964 498.194 L953.964 482.194 Z" fill="#c271d2" fill-rule="evenodd" fill-opacity="1" stroke="#000000" stroke-opacity="1" stroke-width="3.072"/>
<path clip-path="url(#clip602)" d="M518.903 235.967 L502.903 251.967 L518.903 267.967 L534.903 251.967 L518.903 235.967 Z" fill="#c271d2" fill-rule="evenodd" fill-opacity="1" stroke="#000000" stroke-opacity="1" stroke-width="3.072"/>
<polyline clip-path="url(#clip602)" style="stroke:#ac8d18; stroke-linecap:butt; stroke-linejoin:round; stroke-width:12; stroke-opacity:1; fill:none" points="
  1874.96,677.878 1704.27,602.577 588.789,499.225 343.874,377.299 
  "/>
<path clip-path="url(#clip602)" d="M1890.96 661.878 L1858.96 661.878 L1874.96 693.878 L1890.96 661.878 Z" fill="#ac8d18" fill-rule="evenodd" fill-opacity="1" stroke="#000000" stroke-opacity="1" stroke-width="3.072"/>
<path clip-path="url(#clip602)" d="M1720.27 586.577 L1688.27 586.577 L1704.27 618.577 L1720.27 586.577 Z" fill="#ac8d18" fill-rule="evenodd" fill-opacity="1" stroke="#000000" stroke-opacity="1" stroke-width="3.072"/>
<path clip-path="url(#clip602)" d="M604.789 483.225 L572.789 483.225 L588.789 515.225 L604.789 483.225 Z" fill="#ac8d18" fill-rule="evenodd" fill-opacity="1" stroke="#000000" stroke-opacity="1" stroke-width="3.072"/>
<path clip-path="url(#clip602)" d="M359.874 361.299 L327.874 361.299 L343.874 393.299 L359.874 361.299 Z" fill="#ac8d18" fill-rule="evenodd" fill-opacity="1" stroke="#000000" stroke-opacity="1" stroke-width="3.072"/>
<polyline clip-path="url(#clip602)" style="stroke:#00a9ad; stroke-linecap:butt; stroke-linejoin:round; stroke-width:12; stroke-opacity:1; fill:none" points="
  2201.04,1197.39 1714.35,1010.34 1482.34,920.476 1129.92,797.392 
  "/>
<path clip-path="url(#clip602)" d="M2201.04 1181.39 L2188.53 1187.42 L2185.44 1200.96 L2194.1 1211.81 L2207.98 1211.81 L2216.64 1200.96 L2213.55 1187.42 Z" fill="#00a9ad" fill-rule="evenodd" fill-opacity="1" stroke="#000000" stroke-opacity="1" stroke-width="3.072"/>
<path clip-path="url(#clip602)" d="M1714.35 994.339 L1701.84 1000.37 L1698.75 1013.91 L1707.4 1024.76 L1721.29 1024.76 L1729.95 1013.91 L1726.86 1000.37 Z" fill="#00a9ad" fill-rule="evenodd" fill-opacity="1" stroke="#000000" stroke-opacity="1" stroke-width="3.072"/>
<path clip-path="url(#clip602)" d="M1482.34 904.476 L1469.83 910.508 L1466.74 924.044 L1475.4 934.892 L1489.28 934.892 L1497.94 924.044 L1494.85 910.508 Z" fill="#00a9ad" fill-rule="evenodd" fill-opacity="1" stroke="#000000" stroke-opacity="1" stroke-width="3.072"/>
<path clip-path="url(#clip602)" d="M1129.92 781.392 L1117.41 787.424 L1114.32 800.96 L1122.98 811.808 L1136.86 811.808 L1145.52 800.96 L1142.43 787.424 Z" fill="#00a9ad" fill-rule="evenodd" fill-opacity="1" stroke="#000000" stroke-opacity="1" stroke-width="3.072"/>
<polyline clip-path="url(#clip602)" style="stroke:#ed5d92; stroke-linecap:butt; stroke-linejoin:round; stroke-width:12; stroke-opacity:1; fill:none" points="
  1059.99,502.094 1087.05,513.496 345.818,489.727 364.48,416.605 
  "/>
<path clip-path="url(#clip602)" d="M1059.99 518.094 L1046.13 510.094 L1046.13 494.094 L1059.99 486.094 L1073.85 494.094 L1073.85 510.094 Z" fill="#ed5d92" fill-rule="evenodd" fill-opacity="1" stroke="#000000" stroke-opacity="1" stroke-width="3.072"/>
<path clip-path="url(#clip602)" d="M1087.05 529.496 L1073.2 521.496 L1073.2 505.496 L1087.05 497.496 L1100.91 505.496 L1100.91 521.496 Z" fill="#ed5d92" fill-rule="evenodd" fill-opacity="1" stroke="#000000" stroke-opacity="1" stroke-width="3.072"/>
<path clip-path="url(#clip602)" d="M345.818 505.727 L331.962 497.727 L331.962 481.727 L345.818 473.727 L359.674 481.727 L359.674 497.727 Z" fill="#ed5d92" fill-rule="evenodd" fill-opacity="1" stroke="#000000" stroke-opacity="1" stroke-width="3.072"/>
<path clip-path="url(#clip602)" d="M364.48 432.605 L350.624 424.605 L350.624 408.605 L364.48 400.605 L378.336 408.605 L378.336 424.605 Z" fill="#ed5d92" fill-rule="evenodd" fill-opacity="1" stroke="#000000" stroke-opacity="1" stroke-width="3.072"/>
<polyline clip-path="url(#clip602)" style="stroke:#c68125; stroke-linecap:butt; stroke-linejoin:round; stroke-width:12; stroke-opacity:1; fill:none" points="
  794.553,769.775 581.609,767.27 631.364,719.026 464.904,632.884 
  "/>
<line clip-path="url(#clip602)" x1="810.553" y1="769.775" x2="778.553" y2="769.775" style="stroke:#c68125; stroke-width:3.072; stroke-opacity:1"/>
<line clip-path="url(#clip602)" x1="597.609" y1="767.27" x2="565.609" y2="767.27" style="stroke:#c68125; stroke-width:3.072; stroke-opacity:1"/>
<line clip-path="url(#clip602)" x1="647.364" y1="719.026" x2="615.364" y2="719.026" style="stroke:#c68125; stroke-width:3.072; stroke-opacity:1"/>
<line clip-path="url(#clip602)" x1="480.904" y1="632.884" x2="448.904" y2="632.884" style="stroke:#c68125; stroke-width:3.072; stroke-opacity:1"/>
<polyline clip-path="url(#clip602)" style="stroke:#00a98d; stroke-linecap:butt; stroke-linejoin:round; stroke-width:12; stroke-opacity:1; fill:none" points="
  1487.93,881.478 1202.11,743.016 884.687,566.309 541.1,316.782 
  "/>
<path clip-path="url(#clip602)" d="M1475.13 881.478 L1494.33 892.678 L1494.33 870.278 L1475.13 881.478 Z" fill="#00a98d" fill-rule="evenodd" fill-opacity="1" stroke="#000000" stroke-opacity="1" stroke-width="3.072"/>
<path clip-path="url(#clip602)" d="M1189.31 743.016 L1208.51 754.216 L1208.51 731.816 L1189.31 743.016 Z" fill="#00a98d" fill-rule="evenodd" fill-opacity="1" stroke="#000000" stroke-opacity="1" stroke-width="3.072"/>
<path clip-path="url(#clip602)" d="M871.887 566.309 L891.087 577.509 L891.087 555.109 L871.887 566.309 Z" fill="#00a98d" fill-rule="evenodd" fill-opacity="1" stroke="#000000" stroke-opacity="1" stroke-width="3.072"/>
<path clip-path="url(#clip602)" d="M528.3 316.782 L547.5 327.982 L547.5 305.582 L528.3 316.782 Z" fill="#00a98d" fill-rule="evenodd" fill-opacity="1" stroke="#000000" stroke-opacity="1" stroke-width="3.072"/>
<path clip-path="url(#clip600)" d="
M1645.74 608.987 L2191.14 608.987 L2191.14 90.5872 L1645.74 90.5872  Z
  " fill="#ffffff" fill-rule="evenodd" fill-opacity="1"/>
<polyline clip-path="url(#clip600)" style="stroke:#000000; stroke-linecap:butt; stroke-linejoin:round; stroke-width:4; stroke-opacity:1; fill:none" points="
  1645.74,608.987 2191.14,608.987 2191.14,90.5872 1645.74,90.5872 1645.74,608.987 
  "/>
<polyline clip-path="url(#clip600)" style="stroke:#009af9; stroke-linecap:butt; stroke-linejoin:round; stroke-width:4; stroke-opacity:1; fill:none" points="
  1667.61,142.427 1798.85,142.427 
  "/>
<line clip-path="url(#clip600)" x1="1733.23" y1="142.427" x2="1733.23" y2="116.827" style="stroke:#009af9; stroke-width:4.9152; stroke-opacity:1"/>
<line clip-path="url(#clip600)" x1="1733.23" y1="142.427" x2="1707.63" y2="142.427" style="stroke:#009af9; stroke-width:4.9152; stroke-opacity:1"/>
<line clip-path="url(#clip600)" x1="1733.23" y1="142.427" x2="1733.23" y2="168.027" style="stroke:#009af9; stroke-width:4.9152; stroke-opacity:1"/>
<line clip-path="url(#clip600)" x1="1733.23" y1="142.427" x2="1758.83" y2="142.427" style="stroke:#009af9; stroke-width:4.9152; stroke-opacity:1"/>
<path clip-path="url(#clip600)" d="M1837.11 143.504 Q1838.62 144.013 1840.03 145.679 Q1841.47 147.346 1842.9 150.263 L1847.65 159.707 L1842.62 159.707 L1838.2 150.841 Q1836.49 147.369 1834.87 146.235 Q1833.27 145.101 1830.49 145.101 L1825.4 145.101 L1825.4 159.707 L1820.72 159.707 L1820.72 125.147 L1831.28 125.147 Q1837.21 125.147 1840.12 127.624 Q1843.04 130.101 1843.04 135.101 Q1843.04 138.365 1841.51 140.517 Q1840.01 142.67 1837.11 143.504 M1825.4 128.99 L1825.4 141.258 L1831.28 141.258 Q1834.66 141.258 1836.37 139.707 Q1838.11 138.133 1838.11 135.101 Q1838.11 132.068 1836.37 130.541 Q1834.66 128.99 1831.28 128.99 L1825.4 128.99 Z" fill="#000000" fill-rule="evenodd" fill-opacity="1" /><path clip-path="url(#clip600)" d="M1861.4 136.767 Q1857.97 136.767 1855.98 139.453 Q1853.99 142.115 1853.99 146.767 Q1853.99 151.42 1855.96 154.105 Q1857.95 156.767 1861.4 156.767 Q1864.8 156.767 1866.79 154.082 Q1868.78 151.397 1868.78 146.767 Q1868.78 142.161 1866.79 139.476 Q1864.8 136.767 1861.4 136.767 M1861.4 133.156 Q1866.95 133.156 1870.12 136.767 Q1873.29 140.379 1873.29 146.767 Q1873.29 153.133 1870.12 156.767 Q1866.95 160.378 1861.4 160.378 Q1855.82 160.378 1852.65 156.767 Q1849.5 153.133 1849.5 146.767 Q1849.5 140.379 1852.65 136.767 Q1855.82 133.156 1861.4 133.156 Z" fill="#000000" fill-rule="evenodd" fill-opacity="1" /><path clip-path="url(#clip600)" d="M1896.88 134.545 L1896.88 138.573 Q1895.08 137.647 1893.13 137.184 Q1891.19 136.721 1889.1 136.721 Q1885.93 136.721 1884.34 137.693 Q1882.76 138.666 1882.76 140.61 Q1882.76 142.092 1883.9 142.948 Q1885.03 143.781 1888.46 144.545 L1889.91 144.869 Q1894.45 145.842 1896.35 147.624 Q1898.27 149.383 1898.27 152.554 Q1898.27 156.166 1895.4 158.272 Q1892.55 160.378 1887.55 160.378 Q1885.47 160.378 1883.2 159.962 Q1880.96 159.568 1878.46 158.758 L1878.46 154.36 Q1880.82 155.587 1883.11 156.212 Q1885.4 156.814 1887.65 156.814 Q1890.65 156.814 1892.28 155.795 Q1893.9 154.754 1893.9 152.879 Q1893.9 151.142 1892.71 150.216 Q1891.56 149.291 1887.6 148.434 L1886.12 148.087 Q1882.16 147.254 1880.4 145.541 Q1878.64 143.804 1878.64 140.795 Q1878.64 137.138 1881.23 135.147 Q1883.83 133.156 1888.59 133.156 Q1890.96 133.156 1893.04 133.504 Q1895.12 133.851 1896.88 134.545 Z" fill="#000000" fill-rule="evenodd" fill-opacity="1" /><path clip-path="url(#clip600)" d="M1927.23 145.679 L1927.23 147.763 L1907.65 147.763 Q1907.92 152.161 1910.28 154.476 Q1912.67 156.767 1916.9 156.767 Q1919.36 156.767 1921.65 156.166 Q1923.96 155.564 1926.23 154.36 L1926.23 158.388 Q1923.94 159.36 1921.53 159.869 Q1919.13 160.378 1916.65 160.378 Q1910.45 160.378 1906.81 156.767 Q1903.2 153.156 1903.2 146.999 Q1903.2 140.633 1906.63 136.906 Q1910.08 133.156 1915.91 133.156 Q1921.14 133.156 1924.17 136.536 Q1927.23 139.892 1927.23 145.679 M1922.97 144.429 Q1922.92 140.934 1921 138.851 Q1919.1 136.767 1915.96 136.767 Q1912.39 136.767 1910.24 138.781 Q1908.11 140.795 1907.78 144.453 L1922.97 144.429 Z" fill="#000000" fill-rule="evenodd" fill-opacity="1" /><path clip-path="url(#clip600)" d="M1955.77 144.059 L1955.77 159.707 L1951.51 159.707 L1951.51 144.198 Q1951.51 140.517 1950.08 138.689 Q1948.64 136.86 1945.77 136.86 Q1942.32 136.86 1940.33 139.059 Q1938.34 141.258 1938.34 145.054 L1938.34 159.707 L1934.06 159.707 L1934.06 133.781 L1938.34 133.781 L1938.34 137.809 Q1939.87 135.471 1941.93 134.314 Q1944.01 133.156 1946.72 133.156 Q1951.19 133.156 1953.48 135.934 Q1955.77 138.689 1955.77 144.059 Z" fill="#000000" fill-rule="evenodd" fill-opacity="1" /><path clip-path="url(#clip600)" d="M1982.88 146.767 Q1982.88 142.068 1980.93 139.406 Q1979.01 136.721 1975.63 136.721 Q1972.25 136.721 1970.31 139.406 Q1968.39 142.068 1968.39 146.767 Q1968.39 151.466 1970.31 154.152 Q1972.25 156.814 1975.63 156.814 Q1979.01 156.814 1980.93 154.152 Q1982.88 151.466 1982.88 146.767 M1968.39 137.717 Q1969.73 135.402 1971.77 134.291 Q1973.83 133.156 1976.67 133.156 Q1981.39 133.156 1984.33 136.906 Q1987.3 140.656 1987.3 146.767 Q1987.3 152.879 1984.33 156.628 Q1981.39 160.378 1976.67 160.378 Q1973.83 160.378 1971.77 159.267 Q1969.73 158.133 1968.39 155.818 L1968.39 159.707 L1964.1 159.707 L1964.1 123.689 L1968.39 123.689 L1968.39 137.717 Z" fill="#000000" fill-rule="evenodd" fill-opacity="1" /><path clip-path="url(#clip600)" d="M2009.38 137.763 Q2008.66 137.346 2007.81 137.161 Q2006.97 136.953 2005.96 136.953 Q2002.34 136.953 2000.4 139.314 Q1998.48 141.652 1998.48 146.05 L1998.48 159.707 L1994.2 159.707 L1994.2 133.781 L1998.48 133.781 L1998.48 137.809 Q1999.82 135.448 2001.97 134.314 Q2004.13 133.156 2007.2 133.156 Q2007.64 133.156 2008.18 133.226 Q2008.71 133.272 2009.36 133.388 L2009.38 137.763 Z" fill="#000000" fill-rule="evenodd" fill-opacity="1" /><path clip-path="url(#clip600)" d="M2022.85 136.767 Q2019.43 136.767 2017.44 139.453 Q2015.45 142.115 2015.45 146.767 Q2015.45 151.42 2017.41 154.105 Q2019.4 156.767 2022.85 156.767 Q2026.26 156.767 2028.25 154.082 Q2030.24 151.397 2030.24 146.767 Q2030.24 142.161 2028.25 139.476 Q2026.26 136.767 2022.85 136.767 M2022.85 133.156 Q2028.41 133.156 2031.58 136.767 Q2034.75 140.379 2034.75 146.767 Q2034.75 153.133 2031.58 156.767 Q2028.41 160.378 2022.85 160.378 Q2017.27 160.378 2014.1 156.767 Q2010.95 153.133 2010.95 146.767 Q2010.95 140.379 2014.1 136.767 Q2017.27 133.156 2022.85 133.156 Z" fill="#000000" fill-rule="evenodd" fill-opacity="1" /><path clip-path="url(#clip600)" d="M2060.47 134.777 L2060.47 138.758 Q2058.66 137.763 2056.83 137.277 Q2055.03 136.767 2053.18 136.767 Q2049.03 136.767 2046.74 139.406 Q2044.45 142.022 2044.45 146.767 Q2044.45 151.513 2046.74 154.152 Q2049.03 156.767 2053.18 156.767 Q2055.03 156.767 2056.83 156.281 Q2058.66 155.772 2060.47 154.777 L2060.47 158.712 Q2058.69 159.545 2056.76 159.962 Q2054.87 160.378 2052.71 160.378 Q2046.86 160.378 2043.41 156.698 Q2039.96 153.017 2039.96 146.767 Q2039.96 140.425 2043.43 136.791 Q2046.93 133.156 2052.99 133.156 Q2054.96 133.156 2056.83 133.573 Q2058.71 133.967 2060.47 134.777 Z" fill="#000000" fill-rule="evenodd" fill-opacity="1" /><path clip-path="url(#clip600)" d="M2067.71 123.689 L2072 123.689 L2072 144.962 L2084.7 133.781 L2090.14 133.781 L2076.39 145.911 L2090.72 159.707 L2085.17 159.707 L2072 147.045 L2072 159.707 L2067.71 159.707 L2067.71 123.689 Z" fill="#000000" fill-rule="evenodd" fill-opacity="1" /><path clip-path="url(#clip600)" d="M2099.96 155.772 L2116.28 155.772 L2116.28 159.707 L2094.33 159.707 L2094.33 155.772 Q2097 153.017 2101.58 148.388 Q2106.19 143.735 2107.37 142.392 Q2109.61 139.869 2110.49 138.133 Q2111.39 136.374 2111.39 134.684 Q2111.39 131.93 2109.45 130.193 Q2107.53 128.457 2104.43 128.457 Q2102.23 128.457 2099.77 129.221 Q2097.34 129.985 2094.57 131.536 L2094.57 126.814 Q2097.39 125.68 2099.84 125.101 Q2102.3 124.522 2104.33 124.522 Q2109.7 124.522 2112.9 127.207 Q2116.09 129.893 2116.09 134.383 Q2116.09 136.513 2115.28 138.434 Q2114.5 140.332 2112.39 142.925 Q2111.81 143.596 2108.71 146.814 Q2105.61 150.008 2099.96 155.772 Z" fill="#000000" fill-rule="evenodd" fill-opacity="1" /><path clip-path="url(#clip600)" d="M2140.26 141.073 Q2143.62 141.791 2145.49 144.059 Q2147.39 146.328 2147.39 149.661 Q2147.39 154.777 2143.87 157.578 Q2140.35 160.378 2133.87 160.378 Q2131.7 160.378 2129.38 159.939 Q2127.09 159.522 2124.63 158.666 L2124.63 154.152 Q2126.58 155.286 2128.89 155.865 Q2131.21 156.443 2133.73 156.443 Q2138.13 156.443 2140.42 154.707 Q2142.74 152.971 2142.74 149.661 Q2142.74 146.605 2140.58 144.892 Q2138.45 143.156 2134.63 143.156 L2130.61 143.156 L2130.61 139.314 L2134.82 139.314 Q2138.27 139.314 2140.1 137.948 Q2141.93 136.559 2141.93 133.967 Q2141.93 131.305 2140.03 129.893 Q2138.15 128.457 2134.63 128.457 Q2132.71 128.457 2130.51 128.874 Q2128.32 129.291 2125.68 130.17 L2125.68 126.004 Q2128.34 125.263 2130.65 124.893 Q2132.99 124.522 2135.05 124.522 Q2140.38 124.522 2143.48 126.953 Q2146.58 129.36 2146.58 133.48 Q2146.58 136.351 2144.94 138.342 Q2143.29 140.309 2140.26 141.073 Z" fill="#000000" fill-rule="evenodd" fill-opacity="1" /><polyline clip-path="url(#clip600)" style="stroke:#e26f46; stroke-linecap:butt; stroke-linejoin:round; stroke-width:4; stroke-opacity:1; fill:none" points="
  1667.61,194.267 1798.85,194.267 
  "/>
<circle clip-path="url(#clip600)" cx="1733.23" cy="194.267" r="23" fill="#e26f46" fill-rule="evenodd" fill-opacity="1" stroke="#000000" stroke-opacity="1" stroke-width="4.9152"/>
<path clip-path="url(#clip600)" d="M1820.72 176.987 L1840.59 176.987 L1840.59 180.922 L1825.4 180.922 L1825.4 191.107 L1839.1 191.107 L1839.1 195.043 L1825.4 195.043 L1825.4 211.547 L1820.72 211.547 L1820.72 176.987 Z" fill="#000000" fill-rule="evenodd" fill-opacity="1" /><path clip-path="url(#clip600)" d="M1852.67 195.043 L1852.67 207.705 L1860.17 207.705 Q1863.94 207.705 1865.75 206.154 Q1867.58 204.58 1867.58 201.362 Q1867.58 198.121 1865.75 196.594 Q1863.94 195.043 1860.17 195.043 L1852.67 195.043 M1852.67 180.83 L1852.67 191.246 L1859.59 191.246 Q1863.02 191.246 1864.68 189.973 Q1866.37 188.677 1866.37 186.038 Q1866.37 183.422 1864.68 182.126 Q1863.02 180.83 1859.59 180.83 L1852.67 180.83 M1847.99 176.987 L1859.94 176.987 Q1865.28 176.987 1868.18 179.209 Q1871.07 181.432 1871.07 185.529 Q1871.07 188.7 1869.59 190.575 Q1868.11 192.45 1865.24 192.913 Q1868.69 193.654 1870.59 196.015 Q1872.51 198.353 1872.51 201.871 Q1872.51 206.501 1869.36 209.024 Q1866.21 211.547 1860.4 211.547 L1847.99 211.547 L1847.99 176.987 Z" fill="#000000" fill-rule="evenodd" fill-opacity="1" /><path clip-path="url(#clip600)" d="M1885.19 180.83 L1885.19 207.705 L1890.84 207.705 Q1897.99 207.705 1901.3 204.464 Q1904.64 201.223 1904.64 194.232 Q1904.64 187.288 1901.3 184.07 Q1897.99 180.83 1890.84 180.83 L1885.19 180.83 M1880.52 176.987 L1890.12 176.987 Q1900.17 176.987 1904.87 181.177 Q1909.57 185.344 1909.57 194.232 Q1909.57 203.168 1904.84 207.357 Q1900.12 211.547 1890.12 211.547 L1880.52 211.547 L1880.52 176.987 Z" fill="#000000" fill-rule="evenodd" fill-opacity="1" /><path clip-path="url(#clip600)" d="M1917.02 176.987 L1936.88 176.987 L1936.88 180.922 L1921.7 180.922 L1921.7 191.107 L1935.4 191.107 L1935.4 195.043 L1921.7 195.043 L1921.7 211.547 L1917.02 211.547 L1917.02 176.987 Z" fill="#000000" fill-rule="evenodd" fill-opacity="1" /><polyline clip-path="url(#clip600)" style="stroke:#3da44d; stroke-linecap:butt; stroke-linejoin:round; stroke-width:4; stroke-opacity:1; fill:none" points="
  1667.61,246.107 1798.85,246.107 
  "/>
<line clip-path="url(#clip600)" x1="1733.23" y1="246.107" x2="1733.23" y2="220.507" style="stroke:#3da44d; stroke-width:4.9152; stroke-opacity:1"/>
<line clip-path="url(#clip600)" x1="1733.23" y1="246.107" x2="1707.63" y2="246.107" style="stroke:#3da44d; stroke-width:4.9152; stroke-opacity:1"/>
<line clip-path="url(#clip600)" x1="1733.23" y1="246.107" x2="1733.23" y2="271.707" style="stroke:#3da44d; stroke-width:4.9152; stroke-opacity:1"/>
<line clip-path="url(#clip600)" x1="1733.23" y1="246.107" x2="1758.83" y2="246.107" style="stroke:#3da44d; stroke-width:4.9152; stroke-opacity:1"/>
<path clip-path="url(#clip600)" d="M1836.74 231.998 Q1831.65 231.998 1828.64 235.795 Q1825.66 239.591 1825.66 246.142 Q1825.66 252.67 1828.64 256.466 Q1831.65 260.262 1836.74 260.262 Q1841.84 260.262 1844.8 256.466 Q1847.78 252.67 1847.78 246.142 Q1847.78 239.591 1844.8 235.795 Q1841.84 231.998 1836.74 231.998 M1843.29 262.762 L1849.45 269.498 L1843.8 269.498 L1838.69 263.966 Q1837.92 264.012 1837.51 264.035 Q1837.11 264.058 1836.74 264.058 Q1829.45 264.058 1825.08 259.197 Q1820.72 254.313 1820.72 246.142 Q1820.72 237.948 1825.08 233.086 Q1829.45 228.202 1836.74 228.202 Q1844.01 228.202 1848.36 233.086 Q1852.72 237.948 1852.72 246.142 Q1852.72 252.16 1850.28 256.443 Q1847.88 260.725 1843.29 262.762 Z" fill="#000000" fill-rule="evenodd" fill-opacity="1" /><path clip-path="url(#clip600)" d="M1860.03 228.827 L1866.33 228.827 L1881.65 257.739 L1881.65 228.827 L1886.19 228.827 L1886.19 263.387 L1879.89 263.387 L1864.57 234.475 L1864.57 263.387 L1860.03 263.387 L1860.03 228.827 Z" fill="#000000" fill-rule="evenodd" fill-opacity="1" /><path clip-path="url(#clip600)" d="M1900.17 232.67 L1900.17 259.545 L1905.82 259.545 Q1912.97 259.545 1916.28 256.304 Q1919.61 253.063 1919.61 246.072 Q1919.61 239.128 1916.28 235.91 Q1912.97 232.67 1905.82 232.67 L1900.17 232.67 M1895.49 228.827 L1905.1 228.827 Q1915.15 228.827 1919.84 233.017 Q1924.54 237.184 1924.54 246.072 Q1924.54 255.008 1919.82 259.197 Q1915.1 263.387 1905.1 263.387 L1895.49 263.387 L1895.49 228.827 Z" fill="#000000" fill-rule="evenodd" fill-opacity="1" /><path clip-path="url(#clip600)" d="M1932 228.827 L1951.86 228.827 L1951.86 232.762 L1936.67 232.762 L1936.67 242.947 L1950.38 242.947 L1950.38 246.883 L1936.67 246.883 L1936.67 263.387 L1932 263.387 L1932 228.827 Z" fill="#000000" fill-rule="evenodd" fill-opacity="1" /><polyline clip-path="url(#clip600)" style="stroke:#c271d2; stroke-linecap:butt; stroke-linejoin:round; stroke-width:4; stroke-opacity:1; fill:none" points="
  1667.61,297.947 1798.85,297.947 
  "/>
<path clip-path="url(#clip600)" d="M1733.23 272.347 L1707.63 297.947 L1733.23 323.547 L1758.83 297.947 L1733.23 272.347 Z" fill="#c271d2" fill-rule="evenodd" fill-opacity="1" stroke="#000000" stroke-opacity="1" stroke-width="4.9152"/>
<path clip-path="url(#clip600)" d="M1820.72 280.667 L1849.96 280.667 L1849.96 284.602 L1837.69 284.602 L1837.69 315.227 L1832.99 315.227 L1832.99 284.602 L1820.72 284.602 L1820.72 280.667 Z" fill="#000000" fill-rule="evenodd" fill-opacity="1" /><path clip-path="url(#clip600)" d="M1870.86 299.024 Q1872.37 299.533 1873.78 301.199 Q1875.21 302.866 1876.65 305.783 L1881.4 315.227 L1876.37 315.227 L1871.95 306.361 Q1870.24 302.889 1868.62 301.755 Q1867.02 300.621 1864.24 300.621 L1859.15 300.621 L1859.15 315.227 L1854.47 315.227 L1854.47 280.667 L1865.03 280.667 Q1870.96 280.667 1873.87 283.144 Q1876.79 285.621 1876.79 290.621 Q1876.79 293.885 1875.26 296.037 Q1873.76 298.19 1870.86 299.024 M1859.15 284.51 L1859.15 296.778 L1865.03 296.778 Q1868.41 296.778 1870.12 295.227 Q1871.86 293.653 1871.86 290.621 Q1871.86 287.588 1870.12 286.061 Q1868.41 284.51 1865.03 284.51 L1859.15 284.51 Z" fill="#000000" fill-rule="evenodd" fill-opacity="1" /><path clip-path="url(#clip600)" d="M1892.09 298.723 L1892.09 311.385 L1899.59 311.385 Q1903.36 311.385 1905.17 309.834 Q1907 308.26 1907 305.042 Q1907 301.801 1905.17 300.274 Q1903.36 298.723 1899.59 298.723 L1892.09 298.723 M1892.09 284.51 L1892.09 294.926 L1899.01 294.926 Q1902.44 294.926 1904.1 293.653 Q1905.79 292.357 1905.79 289.718 Q1905.79 287.102 1904.1 285.806 Q1902.44 284.51 1899.01 284.51 L1892.09 284.51 M1887.41 280.667 L1899.36 280.667 Q1904.71 280.667 1907.6 282.889 Q1910.49 285.112 1910.49 289.209 Q1910.49 292.38 1909.01 294.255 Q1907.53 296.13 1904.66 296.593 Q1908.11 297.334 1910.01 299.695 Q1911.93 302.033 1911.93 305.551 Q1911.93 310.181 1908.78 312.704 Q1905.63 315.227 1899.82 315.227 L1887.41 315.227 L1887.41 280.667 Z" fill="#000000" fill-rule="evenodd" fill-opacity="1" /><path clip-path="url(#clip600)" d="M1924.61 284.51 L1924.61 311.385 L1930.26 311.385 Q1937.41 311.385 1940.72 308.144 Q1944.06 304.903 1944.06 297.912 Q1944.06 290.968 1940.72 287.75 Q1937.41 284.51 1930.26 284.51 L1924.61 284.51 M1919.94 280.667 L1929.54 280.667 Q1939.59 280.667 1944.29 284.857 Q1948.99 289.024 1948.99 297.912 Q1948.99 306.848 1944.27 311.037 Q1939.54 315.227 1929.54 315.227 L1919.94 315.227 L1919.94 280.667 Z" fill="#000000" fill-rule="evenodd" fill-opacity="1" /><path clip-path="url(#clip600)" d="M1956.44 280.667 L1976.3 280.667 L1976.3 284.602 L1961.12 284.602 L1961.12 294.787 L1974.82 294.787 L1974.82 298.723 L1961.12 298.723 L1961.12 315.227 L1956.44 315.227 L1956.44 280.667 Z" fill="#000000" fill-rule="evenodd" fill-opacity="1" /><path clip-path="url(#clip600)" d="M1988.15 311.292 L2004.47 311.292 L2004.47 315.227 L1982.53 315.227 L1982.53 311.292 Q1985.19 308.537 1989.77 303.908 Q1994.38 299.255 1995.56 297.912 Q1997.81 295.389 1998.69 293.653 Q1999.59 291.894 1999.59 290.204 Q1999.59 287.45 1997.64 285.713 Q1995.72 283.977 1992.62 283.977 Q1990.42 283.977 1987.97 284.741 Q1985.54 285.505 1982.76 287.056 L1982.76 282.334 Q1985.58 281.2 1988.04 280.621 Q1990.49 280.042 1992.53 280.042 Q1997.9 280.042 2001.09 282.727 Q2004.29 285.413 2004.29 289.903 Q2004.29 292.033 2003.48 293.954 Q2002.69 295.852 2000.58 298.445 Q2000.01 299.116 1996.9 302.334 Q1993.8 305.528 1988.15 311.292 Z" fill="#000000" fill-rule="evenodd" fill-opacity="1" /><polyline clip-path="url(#clip600)" style="stroke:#ac8d18; stroke-linecap:butt; stroke-linejoin:round; stroke-width:4; stroke-opacity:1; fill:none" points="
  1667.61,349.787 1798.85,349.787 
  "/>
<path clip-path="url(#clip600)" d="M1758.83 324.187 L1707.63 324.187 L1733.23 375.387 L1758.83 324.187 Z" fill="#ac8d18" fill-rule="evenodd" fill-opacity="1" stroke="#000000" stroke-opacity="1" stroke-width="4.9152"/>
<path clip-path="url(#clip600)" d="M1835.91 345.123 Q1835.19 344.706 1834.34 344.521 Q1833.5 344.313 1832.48 344.313 Q1828.87 344.313 1826.93 346.674 Q1825.01 349.012 1825.01 353.41 L1825.01 367.067 L1820.72 367.067 L1820.72 341.141 L1825.01 341.141 L1825.01 345.169 Q1826.35 342.808 1828.5 341.674 Q1830.66 340.516 1833.73 340.516 Q1834.17 340.516 1834.71 340.586 Q1835.24 340.632 1835.89 340.748 L1835.91 345.123 Z" fill="#000000" fill-rule="evenodd" fill-opacity="1" /><path clip-path="url(#clip600)" d="M1849.38 344.127 Q1845.96 344.127 1843.97 346.813 Q1841.97 349.475 1841.97 354.127 Q1841.97 358.78 1843.94 361.465 Q1845.93 364.127 1849.38 364.127 Q1852.78 364.127 1854.78 361.442 Q1856.77 358.757 1856.77 354.127 Q1856.77 349.521 1854.78 346.836 Q1852.78 344.127 1849.38 344.127 M1849.38 340.516 Q1854.94 340.516 1858.11 344.127 Q1861.28 347.739 1861.28 354.127 Q1861.28 360.493 1858.11 364.127 Q1854.94 367.738 1849.38 367.738 Q1843.8 367.738 1840.63 364.127 Q1837.48 360.493 1837.48 354.127 Q1837.48 347.739 1840.63 344.127 Q1843.8 340.516 1849.38 340.516 Z" fill="#000000" fill-rule="evenodd" fill-opacity="1" /><path clip-path="url(#clip600)" d="M1885.4 345.077 L1885.4 331.049 L1889.66 331.049 L1889.66 367.067 L1885.4 367.067 L1885.4 363.178 Q1884.06 365.493 1882 366.627 Q1879.96 367.738 1877.09 367.738 Q1872.39 367.738 1869.43 363.988 Q1866.49 360.239 1866.49 354.127 Q1866.49 348.016 1869.43 344.266 Q1872.39 340.516 1877.09 340.516 Q1879.96 340.516 1882 341.651 Q1884.06 342.762 1885.4 345.077 M1870.89 354.127 Q1870.89 358.826 1872.81 361.512 Q1874.75 364.174 1878.13 364.174 Q1881.51 364.174 1883.46 361.512 Q1885.4 358.826 1885.4 354.127 Q1885.4 349.428 1883.46 346.766 Q1881.51 344.081 1878.13 344.081 Q1874.75 344.081 1872.81 346.766 Q1870.89 349.428 1870.89 354.127 Z" fill="#000000" fill-rule="evenodd" fill-opacity="1" /><path clip-path="url(#clip600)" d="M1910.21 354.035 Q1905.05 354.035 1903.06 355.215 Q1901.07 356.396 1901.07 359.243 Q1901.07 361.512 1902.55 362.854 Q1904.06 364.174 1906.63 364.174 Q1910.17 364.174 1912.3 361.674 Q1914.45 359.151 1914.45 354.984 L1914.45 354.035 L1910.21 354.035 M1918.71 352.276 L1918.71 367.067 L1914.45 367.067 L1914.45 363.132 Q1912.99 365.493 1910.82 366.627 Q1908.64 367.738 1905.49 367.738 Q1901.51 367.738 1899.15 365.516 Q1896.81 363.271 1896.81 359.521 Q1896.81 355.146 1899.73 352.924 Q1902.67 350.702 1908.48 350.702 L1914.45 350.702 L1914.45 350.285 Q1914.45 347.345 1912.51 345.748 Q1910.59 344.127 1907.09 344.127 Q1904.87 344.127 1902.76 344.66 Q1900.65 345.192 1898.71 346.257 L1898.71 342.322 Q1901.05 341.419 1903.25 340.979 Q1905.45 340.516 1907.53 340.516 Q1913.15 340.516 1915.93 343.433 Q1918.71 346.35 1918.71 352.276 Z" fill="#000000" fill-rule="evenodd" fill-opacity="1" /><path clip-path="url(#clip600)" d="M1944.01 341.905 L1944.01 345.933 Q1942.21 345.007 1940.26 344.544 Q1938.32 344.081 1936.23 344.081 Q1933.06 344.081 1931.46 345.053 Q1929.89 346.026 1929.89 347.97 Q1929.89 349.452 1931.02 350.308 Q1932.16 351.141 1935.59 351.905 L1937.04 352.229 Q1941.58 353.202 1943.48 354.984 Q1945.4 356.743 1945.4 359.914 Q1945.4 363.526 1942.53 365.632 Q1939.68 367.738 1934.68 367.738 Q1932.6 367.738 1930.33 367.322 Q1928.09 366.928 1925.59 366.118 L1925.59 361.72 Q1927.95 362.947 1930.24 363.572 Q1932.53 364.174 1934.77 364.174 Q1937.78 364.174 1939.4 363.155 Q1941.02 362.114 1941.02 360.239 Q1941.02 358.502 1939.84 357.576 Q1938.69 356.651 1934.73 355.794 L1933.25 355.447 Q1929.29 354.614 1927.53 352.901 Q1925.77 351.164 1925.77 348.155 Q1925.77 344.498 1928.36 342.507 Q1930.96 340.516 1935.72 340.516 Q1938.08 340.516 1940.17 340.864 Q1942.25 341.211 1944.01 341.905 Z" fill="#000000" fill-rule="evenodd" fill-opacity="1" /><polyline clip-path="url(#clip600)" style="stroke:#00a9ad; stroke-linecap:butt; stroke-linejoin:round; stroke-width:4; stroke-opacity:1; fill:none" points="
  1667.61,401.627 1798.85,401.627 
  "/>
<path clip-path="url(#clip600)" d="M1733.23 376.027 L1713.21 385.678 L1708.27 407.336 L1722.12 424.693 L1744.34 424.693 L1758.19 407.336 L1753.25 385.678 Z" fill="#00a9ad" fill-rule="evenodd" fill-opacity="1" stroke="#000000" stroke-opacity="1" stroke-width="4.9152"/>
<path clip-path="url(#clip600)" d="M1820.72 382.889 L1824.98 382.889 L1824.98 418.907 L1820.72 418.907 L1820.72 382.889 Z" fill="#000000" fill-rule="evenodd" fill-opacity="1" /><path clip-path="url(#clip600)" d="M1850.42 393.745 L1850.42 397.773 Q1848.62 396.847 1846.67 396.384 Q1844.73 395.921 1842.65 395.921 Q1839.47 395.921 1837.88 396.893 Q1836.3 397.866 1836.3 399.81 Q1836.3 401.292 1837.44 402.148 Q1838.57 402.981 1842 403.745 L1843.46 404.069 Q1847.99 405.042 1849.89 406.824 Q1851.81 408.583 1851.81 411.754 Q1851.81 415.366 1848.94 417.472 Q1846.09 419.578 1841.09 419.578 Q1839.01 419.578 1836.74 419.162 Q1834.5 418.768 1832 417.958 L1832 413.56 Q1834.36 414.787 1836.65 415.412 Q1838.94 416.014 1841.19 416.014 Q1844.2 416.014 1845.82 414.995 Q1847.44 413.954 1847.44 412.079 Q1847.44 410.342 1846.26 409.416 Q1845.1 408.491 1841.14 407.634 L1839.66 407.287 Q1835.7 406.454 1833.94 404.741 Q1832.18 403.004 1832.18 399.995 Q1832.18 396.338 1834.78 394.347 Q1837.37 392.356 1842.14 392.356 Q1844.5 392.356 1846.58 392.704 Q1848.66 393.051 1850.42 393.745 Z" fill="#000000" fill-rule="evenodd" fill-opacity="1" /><path clip-path="url(#clip600)" d="M1868.64 395.967 Q1865.22 395.967 1863.22 398.653 Q1861.23 401.315 1861.23 405.967 Q1861.23 410.62 1863.2 413.305 Q1865.19 415.967 1868.64 415.967 Q1872.04 415.967 1874.03 413.282 Q1876.03 410.597 1876.03 405.967 Q1876.03 401.361 1874.03 398.676 Q1872.04 395.967 1868.64 395.967 M1868.64 392.356 Q1874.2 392.356 1877.37 395.967 Q1880.54 399.579 1880.54 405.967 Q1880.54 412.333 1877.37 415.967 Q1874.2 419.578 1868.64 419.578 Q1863.06 419.578 1859.89 415.967 Q1856.74 412.333 1856.74 405.967 Q1856.74 399.579 1859.89 395.967 Q1863.06 392.356 1868.64 392.356 Z" fill="#000000" fill-rule="evenodd" fill-opacity="1" /><path clip-path="url(#clip600)" d="M1904.66 396.917 L1904.66 382.889 L1908.92 382.889 L1908.92 418.907 L1904.66 418.907 L1904.66 415.018 Q1903.32 417.333 1901.26 418.467 Q1899.22 419.578 1896.35 419.578 Q1891.65 419.578 1888.69 415.828 Q1885.75 412.079 1885.75 405.967 Q1885.75 399.856 1888.69 396.106 Q1891.65 392.356 1896.35 392.356 Q1899.22 392.356 1901.26 393.491 Q1903.32 394.602 1904.66 396.917 M1890.15 405.967 Q1890.15 410.666 1892.07 413.352 Q1894.01 416.014 1897.39 416.014 Q1900.77 416.014 1902.71 413.352 Q1904.66 410.666 1904.66 405.967 Q1904.66 401.268 1902.71 398.606 Q1900.77 395.921 1897.39 395.921 Q1894.01 395.921 1892.07 398.606 Q1890.15 401.268 1890.15 405.967 Z" fill="#000000" fill-rule="evenodd" fill-opacity="1" /><path clip-path="url(#clip600)" d="M1929.47 405.875 Q1924.31 405.875 1922.32 407.055 Q1920.33 408.236 1920.33 411.083 Q1920.33 413.352 1921.81 414.694 Q1923.32 416.014 1925.89 416.014 Q1929.43 416.014 1931.56 413.514 Q1933.71 410.991 1933.71 406.824 L1933.71 405.875 L1929.47 405.875 M1937.97 404.116 L1937.97 418.907 L1933.71 418.907 L1933.71 414.972 Q1932.25 417.333 1930.08 418.467 Q1927.9 419.578 1924.75 419.578 Q1920.77 419.578 1918.41 417.356 Q1916.07 415.111 1916.07 411.361 Q1916.07 406.986 1918.99 404.764 Q1921.93 402.542 1927.74 402.542 L1933.71 402.542 L1933.71 402.125 Q1933.71 399.185 1931.77 397.588 Q1929.84 395.967 1926.35 395.967 Q1924.13 395.967 1922.02 396.5 Q1919.91 397.032 1917.97 398.097 L1917.97 394.162 Q1920.31 393.259 1922.51 392.819 Q1924.71 392.356 1926.79 392.356 Q1932.41 392.356 1935.19 395.273 Q1937.97 398.19 1937.97 404.116 Z" fill="#000000" fill-rule="evenodd" fill-opacity="1" /><polyline clip-path="url(#clip600)" style="stroke:#ed5d92; stroke-linecap:butt; stroke-linejoin:round; stroke-width:4; stroke-opacity:1; fill:none" points="
  1667.61,453.467 1798.85,453.467 
  "/>
<path clip-path="url(#clip600)" d="M1733.23 479.067 L1711.06 466.267 L1711.06 440.667 L1733.23 427.867 L1755.4 440.667 L1755.4 466.267 Z" fill="#ed5d92" fill-rule="evenodd" fill-opacity="1" stroke="#000000" stroke-opacity="1" stroke-width="4.9152"/>
<path clip-path="url(#clip600)" d="M1835.91 448.803 Q1835.19 448.386 1834.34 448.201 Q1833.5 447.993 1832.48 447.993 Q1828.87 447.993 1826.93 450.354 Q1825.01 452.692 1825.01 457.09 L1825.01 470.747 L1820.72 470.747 L1820.72 444.821 L1825.01 444.821 L1825.01 448.849 Q1826.35 446.488 1828.5 445.354 Q1830.66 444.196 1833.73 444.196 Q1834.17 444.196 1834.71 444.266 Q1835.24 444.312 1835.89 444.428 L1835.91 448.803 Z" fill="#000000" fill-rule="evenodd" fill-opacity="1" /><path clip-path="url(#clip600)" d="M1852.16 457.715 Q1847 457.715 1845.01 458.895 Q1843.02 460.076 1843.02 462.923 Q1843.02 465.192 1844.5 466.534 Q1846 467.854 1848.57 467.854 Q1852.11 467.854 1854.24 465.354 Q1856.4 462.831 1856.4 458.664 L1856.4 457.715 L1852.16 457.715 M1860.65 455.956 L1860.65 470.747 L1856.4 470.747 L1856.4 466.812 Q1854.94 469.173 1852.76 470.307 Q1850.59 471.418 1847.44 471.418 Q1843.46 471.418 1841.09 469.196 Q1838.76 466.951 1838.76 463.201 Q1838.76 458.826 1841.67 456.604 Q1844.61 454.382 1850.42 454.382 L1856.4 454.382 L1856.4 453.965 Q1856.4 451.025 1854.45 449.428 Q1852.53 447.807 1849.03 447.807 Q1846.81 447.807 1844.71 448.34 Q1842.6 448.872 1840.65 449.937 L1840.65 446.002 Q1842.99 445.099 1845.19 444.659 Q1847.39 444.196 1849.47 444.196 Q1855.1 444.196 1857.88 447.113 Q1860.65 450.03 1860.65 455.956 Z" fill="#000000" fill-rule="evenodd" fill-opacity="1" /><path clip-path="url(#clip600)" d="M1886.49 448.757 L1886.49 434.729 L1890.75 434.729 L1890.75 470.747 L1886.49 470.747 L1886.49 466.858 Q1885.15 469.173 1883.09 470.307 Q1881.05 471.418 1878.18 471.418 Q1873.48 471.418 1870.52 467.668 Q1867.58 463.919 1867.58 457.807 Q1867.58 451.696 1870.52 447.946 Q1873.48 444.196 1878.18 444.196 Q1881.05 444.196 1883.09 445.331 Q1885.15 446.442 1886.49 448.757 M1871.97 457.807 Q1871.97 462.506 1873.9 465.192 Q1875.84 467.854 1879.22 467.854 Q1882.6 467.854 1884.54 465.192 Q1886.49 462.506 1886.49 457.807 Q1886.49 453.108 1884.54 450.446 Q1882.6 447.761 1879.22 447.761 Q1875.84 447.761 1873.9 450.446 Q1871.97 453.108 1871.97 457.807 Z" fill="#000000" fill-rule="evenodd" fill-opacity="1" /><path clip-path="url(#clip600)" d="M1911.3 457.715 Q1906.14 457.715 1904.15 458.895 Q1902.16 460.076 1902.16 462.923 Q1902.16 465.192 1903.64 466.534 Q1905.15 467.854 1907.71 467.854 Q1911.26 467.854 1913.39 465.354 Q1915.54 462.831 1915.54 458.664 L1915.54 457.715 L1911.3 457.715 M1919.8 455.956 L1919.8 470.747 L1915.54 470.747 L1915.54 466.812 Q1914.08 469.173 1911.9 470.307 Q1909.73 471.418 1906.58 471.418 Q1902.6 471.418 1900.24 469.196 Q1897.9 466.951 1897.9 463.201 Q1897.9 458.826 1900.82 456.604 Q1903.76 454.382 1909.57 454.382 L1915.54 454.382 L1915.54 453.965 Q1915.54 451.025 1913.59 449.428 Q1911.67 447.807 1908.18 447.807 Q1905.96 447.807 1903.85 448.34 Q1901.74 448.872 1899.8 449.937 L1899.8 446.002 Q1902.14 445.099 1904.34 444.659 Q1906.53 444.196 1908.62 444.196 Q1914.24 444.196 1917.02 447.113 Q1919.8 450.03 1919.8 455.956 Z" fill="#000000" fill-rule="evenodd" fill-opacity="1" /><path clip-path="url(#clip600)" d="M1928.13 460.516 L1928.13 444.821 L1932.39 444.821 L1932.39 460.354 Q1932.39 464.034 1933.83 465.886 Q1935.26 467.715 1938.13 467.715 Q1941.58 467.715 1943.57 465.516 Q1945.58 463.317 1945.58 459.52 L1945.58 444.821 L1949.84 444.821 L1949.84 470.747 L1945.58 470.747 L1945.58 466.766 Q1944.03 469.127 1941.97 470.284 Q1939.94 471.418 1937.23 471.418 Q1932.76 471.418 1930.45 468.641 Q1928.13 465.863 1928.13 460.516 M1938.85 444.196 L1938.85 444.196 Z" fill="#000000" fill-rule="evenodd" fill-opacity="1" /><polyline clip-path="url(#clip600)" style="stroke:#c68125; stroke-linecap:butt; stroke-linejoin:round; stroke-width:4; stroke-opacity:1; fill:none" points="
  1667.61,505.307 1798.85,505.307 
  "/>
<line clip-path="url(#clip600)" x1="1758.83" y1="505.307" x2="1707.63" y2="505.307" style="stroke:#c68125; stroke-width:4.9152; stroke-opacity:1"/>
<path clip-path="url(#clip600)" d="M1837.11 506.384 Q1838.62 506.893 1840.03 508.559 Q1841.47 510.226 1842.9 513.143 L1847.65 522.587 L1842.62 522.587 L1838.2 513.721 Q1836.49 510.249 1834.87 509.115 Q1833.27 507.981 1830.49 507.981 L1825.4 507.981 L1825.4 522.587 L1820.72 522.587 L1820.72 488.027 L1831.28 488.027 Q1837.21 488.027 1840.12 490.504 Q1843.04 492.981 1843.04 497.981 Q1843.04 501.245 1841.51 503.397 Q1840.01 505.55 1837.11 506.384 M1825.4 491.87 L1825.4 504.138 L1831.28 504.138 Q1834.66 504.138 1836.37 502.587 Q1838.11 501.013 1838.11 497.981 Q1838.11 494.948 1836.37 493.421 Q1834.66 491.87 1831.28 491.87 L1825.4 491.87 Z" fill="#000000" fill-rule="evenodd" fill-opacity="1" /><path clip-path="url(#clip600)" d="M1864.22 509.555 Q1859.06 509.555 1857.07 510.735 Q1855.08 511.916 1855.08 514.763 Q1855.08 517.032 1856.56 518.374 Q1858.06 519.694 1860.63 519.694 Q1864.17 519.694 1866.3 517.194 Q1868.46 514.671 1868.46 510.504 L1868.46 509.555 L1864.22 509.555 M1872.71 507.796 L1872.71 522.587 L1868.46 522.587 L1868.46 518.652 Q1867 521.013 1864.82 522.147 Q1862.65 523.258 1859.5 523.258 Q1855.52 523.258 1853.15 521.036 Q1850.82 518.791 1850.82 515.041 Q1850.82 510.666 1853.73 508.444 Q1856.67 506.222 1862.48 506.222 L1868.46 506.222 L1868.46 505.805 Q1868.46 502.865 1866.51 501.268 Q1864.59 499.647 1861.09 499.647 Q1858.87 499.647 1856.77 500.18 Q1854.66 500.712 1852.72 501.777 L1852.72 497.842 Q1855.05 496.939 1857.25 496.499 Q1859.45 496.036 1861.53 496.036 Q1867.16 496.036 1869.94 498.953 Q1872.71 501.87 1872.71 507.796 Z" fill="#000000" fill-rule="evenodd" fill-opacity="1" /><path clip-path="url(#clip600)" d="M1898.55 500.597 L1898.55 486.569 L1902.81 486.569 L1902.81 522.587 L1898.55 522.587 L1898.55 518.698 Q1897.21 521.013 1895.15 522.147 Q1893.11 523.258 1890.24 523.258 Q1885.54 523.258 1882.58 519.508 Q1879.64 515.759 1879.64 509.647 Q1879.64 503.536 1882.58 499.786 Q1885.54 496.036 1890.24 496.036 Q1893.11 496.036 1895.15 497.171 Q1897.21 498.282 1898.55 500.597 M1884.03 509.647 Q1884.03 514.346 1885.96 517.032 Q1887.9 519.694 1891.28 519.694 Q1894.66 519.694 1896.6 517.032 Q1898.55 514.346 1898.55 509.647 Q1898.55 504.948 1896.6 502.286 Q1894.66 499.601 1891.28 499.601 Q1887.9 499.601 1885.96 502.286 Q1884.03 504.948 1884.03 509.647 Z" fill="#000000" fill-rule="evenodd" fill-opacity="1" /><path clip-path="url(#clip600)" d="M1923.36 509.555 Q1918.2 509.555 1916.21 510.735 Q1914.22 511.916 1914.22 514.763 Q1914.22 517.032 1915.7 518.374 Q1917.21 519.694 1919.77 519.694 Q1923.32 519.694 1925.45 517.194 Q1927.6 514.671 1927.6 510.504 L1927.6 509.555 L1923.36 509.555 M1931.86 507.796 L1931.86 522.587 L1927.6 522.587 L1927.6 518.652 Q1926.14 521.013 1923.96 522.147 Q1921.79 523.258 1918.64 523.258 Q1914.66 523.258 1912.3 521.036 Q1909.96 518.791 1909.96 515.041 Q1909.96 510.666 1912.88 508.444 Q1915.82 506.222 1921.63 506.222 L1927.6 506.222 L1927.6 505.805 Q1927.6 502.865 1925.65 501.268 Q1923.73 499.647 1920.24 499.647 Q1918.02 499.647 1915.91 500.18 Q1913.8 500.712 1911.86 501.777 L1911.86 497.842 Q1914.2 496.939 1916.4 496.499 Q1918.59 496.036 1920.68 496.036 Q1926.3 496.036 1929.08 498.953 Q1931.86 501.87 1931.86 507.796 Z" fill="#000000" fill-rule="evenodd" fill-opacity="1" /><path clip-path="url(#clip600)" d="M1940.19 512.356 L1940.19 496.661 L1944.45 496.661 L1944.45 512.194 Q1944.45 515.874 1945.89 517.726 Q1947.32 519.555 1950.19 519.555 Q1953.64 519.555 1955.63 517.356 Q1957.65 515.157 1957.65 511.36 L1957.65 496.661 L1961.9 496.661 L1961.9 522.587 L1957.65 522.587 L1957.65 518.606 Q1956.09 520.967 1954.03 522.124 Q1952 523.258 1949.29 523.258 Q1944.82 523.258 1942.51 520.481 Q1940.19 517.703 1940.19 512.356 M1950.91 496.036 L1950.91 496.036 Z" fill="#000000" fill-rule="evenodd" fill-opacity="1" /><path clip-path="url(#clip600)" d="M1970.86 488.027 L1975.54 488.027 L1975.54 522.587 L1970.86 522.587 L1970.86 488.027 Z" fill="#000000" fill-rule="evenodd" fill-opacity="1" /><path clip-path="url(#clip600)" d="M1984.84 488.027 L1989.52 488.027 L1989.52 522.587 L1984.84 522.587 L1984.84 488.027 Z" fill="#000000" fill-rule="evenodd" fill-opacity="1" /><path clip-path="url(#clip600)" d="M2010.38 492.634 L2004.03 509.833 L2016.74 509.833 L2010.38 492.634 M2007.74 488.027 L2013.04 488.027 L2026.21 522.587 L2021.35 522.587 L2018.2 513.721 L2002.62 513.721 L1999.47 522.587 L1994.54 522.587 L2007.74 488.027 Z" fill="#000000" fill-rule="evenodd" fill-opacity="1" /><path clip-path="url(#clip600)" d="M2031.72 488.027 L2050.08 488.027 L2050.08 491.962 L2036 491.962 L2036 500.435 Q2037.02 500.087 2038.04 499.925 Q2039.06 499.74 2040.08 499.74 Q2045.86 499.74 2049.24 502.911 Q2052.62 506.083 2052.62 511.499 Q2052.62 517.078 2049.15 520.18 Q2045.68 523.258 2039.36 523.258 Q2037.18 523.258 2034.91 522.888 Q2032.67 522.518 2030.26 521.777 L2030.26 517.078 Q2032.34 518.212 2034.57 518.768 Q2036.79 519.323 2039.27 519.323 Q2043.27 519.323 2045.61 517.217 Q2047.95 515.11 2047.95 511.499 Q2047.95 507.888 2045.61 505.782 Q2043.27 503.675 2039.27 503.675 Q2037.39 503.675 2035.52 504.092 Q2033.66 504.509 2031.72 505.388 L2031.72 488.027 Z" fill="#000000" fill-rule="evenodd" fill-opacity="1" /><polyline clip-path="url(#clip600)" style="stroke:#00a98d; stroke-linecap:butt; stroke-linejoin:round; stroke-width:4; stroke-opacity:1; fill:none" points="
  1667.61,557.147 1798.85,557.147 
  "/>
<path clip-path="url(#clip600)" d="M1712.75 557.147 L1743.47 575.067 L1743.47 539.227 L1712.75 557.147 Z" fill="#00a98d" fill-rule="evenodd" fill-opacity="1" stroke="#000000" stroke-opacity="1" stroke-width="4.9152"/>
<path clip-path="url(#clip600)" d="M1837.11 558.224 Q1838.62 558.733 1840.03 560.399 Q1841.47 562.066 1842.9 564.983 L1847.65 574.427 L1842.62 574.427 L1838.2 565.561 Q1836.49 562.089 1834.87 560.955 Q1833.27 559.821 1830.49 559.821 L1825.4 559.821 L1825.4 574.427 L1820.72 574.427 L1820.72 539.867 L1831.28 539.867 Q1837.21 539.867 1840.12 542.344 Q1843.04 544.821 1843.04 549.821 Q1843.04 553.085 1841.51 555.237 Q1840.01 557.39 1837.11 558.224 M1825.4 543.71 L1825.4 555.978 L1831.28 555.978 Q1834.66 555.978 1836.37 554.427 Q1838.11 552.853 1838.11 549.821 Q1838.11 546.788 1836.37 545.261 Q1834.66 543.71 1831.28 543.71 L1825.4 543.71 Z" fill="#000000" fill-rule="evenodd" fill-opacity="1" /><path clip-path="url(#clip600)" d="M1867.69 543.038 Q1862.6 543.038 1859.59 546.835 Q1856.6 550.631 1856.6 557.182 Q1856.6 563.71 1859.59 567.506 Q1862.6 571.302 1867.69 571.302 Q1872.78 571.302 1875.75 567.506 Q1878.73 563.71 1878.73 557.182 Q1878.73 550.631 1875.75 546.835 Q1872.78 543.038 1867.69 543.038 M1867.69 539.242 Q1874.96 539.242 1879.31 544.126 Q1883.66 548.988 1883.66 557.182 Q1883.66 565.353 1879.31 570.237 Q1874.96 575.098 1867.69 575.098 Q1860.4 575.098 1856.03 570.237 Q1851.67 565.376 1851.67 557.182 Q1851.67 548.988 1856.03 544.126 Q1860.4 539.242 1867.69 539.242 Z" fill="#000000" fill-rule="evenodd" fill-opacity="1" /><path clip-path="url(#clip600)" d="M1911.7 541.001 L1911.7 545.562 Q1909.03 544.288 1906.67 543.663 Q1904.31 543.038 1902.11 543.038 Q1898.29 543.038 1896.21 544.52 Q1894.15 546.001 1894.15 548.733 Q1894.15 551.025 1895.52 552.205 Q1896.9 553.362 1900.75 554.08 L1903.57 554.659 Q1908.8 555.654 1911.28 558.177 Q1913.78 560.677 1913.78 564.89 Q1913.78 569.913 1910.4 572.506 Q1907.04 575.098 1900.54 575.098 Q1898.09 575.098 1895.31 574.543 Q1892.55 573.987 1889.59 572.899 L1889.59 568.085 Q1892.44 569.682 1895.17 570.492 Q1897.9 571.302 1900.54 571.302 Q1904.54 571.302 1906.72 569.728 Q1908.9 568.154 1908.9 565.237 Q1908.9 562.691 1907.32 561.256 Q1905.77 559.821 1902.21 559.103 L1899.36 558.548 Q1894.13 557.506 1891.79 555.284 Q1889.45 553.062 1889.45 549.103 Q1889.45 544.52 1892.67 541.881 Q1895.91 539.242 1901.58 539.242 Q1904.01 539.242 1906.53 539.682 Q1909.06 540.122 1911.7 541.001 Z" fill="#000000" fill-rule="evenodd" fill-opacity="1" /><path clip-path="url(#clip600)" d="M1935.65 555.793 Q1939.01 556.511 1940.89 558.779 Q1942.78 561.048 1942.78 564.381 Q1942.78 569.497 1939.27 572.298 Q1935.75 575.098 1929.27 575.098 Q1927.09 575.098 1924.77 574.659 Q1922.48 574.242 1920.03 573.386 L1920.03 568.872 Q1921.97 570.006 1924.29 570.585 Q1926.6 571.163 1929.13 571.163 Q1933.52 571.163 1935.82 569.427 Q1938.13 567.691 1938.13 564.381 Q1938.13 561.325 1935.98 559.612 Q1933.85 557.876 1930.03 557.876 L1926 557.876 L1926 554.034 L1930.21 554.034 Q1933.66 554.034 1935.49 552.668 Q1937.32 551.279 1937.32 548.687 Q1937.32 546.025 1935.42 544.613 Q1933.55 543.177 1930.03 543.177 Q1928.11 543.177 1925.91 543.594 Q1923.71 544.011 1921.07 544.89 L1921.07 540.724 Q1923.73 539.983 1926.05 539.613 Q1928.39 539.242 1930.45 539.242 Q1935.77 539.242 1938.87 541.673 Q1941.97 544.08 1941.97 548.2 Q1941.97 551.071 1940.33 553.062 Q1938.69 555.029 1935.65 555.793 Z" fill="#000000" fill-rule="evenodd" fill-opacity="1" /><path clip-path="url(#clip600)" d="M1964.5 543.941 L1952.69 562.39 L1964.5 562.39 L1964.5 543.941 M1963.27 539.867 L1969.15 539.867 L1969.15 562.39 L1974.08 562.39 L1974.08 566.279 L1969.15 566.279 L1969.15 574.427 L1964.5 574.427 L1964.5 566.279 L1948.9 566.279 L1948.9 561.765 L1963.27 539.867 Z" fill="#000000" fill-rule="evenodd" fill-opacity="1" /><path clip-path="url(#clip600)" d="M1986.07 543.71 L1986.07 556.696 L1991.95 556.696 Q1995.21 556.696 1997 555.006 Q1998.78 553.316 1998.78 550.191 Q1998.78 547.089 1997 545.4 Q1995.21 543.71 1991.95 543.71 L1986.07 543.71 M1981.39 539.867 L1991.95 539.867 Q1997.76 539.867 2000.72 542.506 Q2003.71 545.122 2003.71 550.191 Q2003.71 555.307 2000.72 557.923 Q1997.76 560.538 1991.95 560.538 L1986.07 560.538 L1986.07 574.427 L1981.39 574.427 L1981.39 539.867 Z" fill="#000000" fill-rule="evenodd" fill-opacity="1" /><path clip-path="url(#clip600)" d="M2006.9 539.867 L2011.63 539.867 L2018.89 569.08 L2026.14 539.867 L2031.39 539.867 L2038.66 569.08 L2045.91 539.867 L2050.65 539.867 L2041.97 574.427 L2036.09 574.427 L2028.8 544.427 L2021.44 574.427 L2015.56 574.427 L2006.9 539.867 Z" fill="#000000" fill-rule="evenodd" fill-opacity="1" /><path clip-path="url(#clip600)" d="M2058.08 570.492 L2065.72 570.492 L2065.72 544.126 L2057.41 545.793 L2057.41 541.534 L2065.68 539.867 L2070.35 539.867 L2070.35 570.492 L2077.99 570.492 L2077.99 574.427 L2058.08 574.427 L2058.08 570.492 Z" fill="#000000" fill-rule="evenodd" fill-opacity="1" /><path clip-path="url(#clip600)" d="M2098.62 561.395 Q2093.45 561.395 2091.46 562.575 Q2089.47 563.756 2089.47 566.603 Q2089.47 568.872 2090.95 570.214 Q2092.46 571.534 2095.03 571.534 Q2098.57 571.534 2100.7 569.034 Q2102.85 566.511 2102.85 562.344 L2102.85 561.395 L2098.62 561.395 M2107.11 559.636 L2107.11 574.427 L2102.85 574.427 L2102.85 570.492 Q2101.39 572.853 2099.22 573.987 Q2097.04 575.098 2093.89 575.098 Q2089.91 575.098 2087.55 572.876 Q2085.21 570.631 2085.21 566.881 Q2085.21 562.506 2088.13 560.284 Q2091.07 558.062 2096.88 558.062 L2102.85 558.062 L2102.85 557.645 Q2102.85 554.705 2100.91 553.108 Q2098.99 551.487 2095.49 551.487 Q2093.27 551.487 2091.16 552.02 Q2089.06 552.552 2087.11 553.617 L2087.11 549.682 Q2089.45 548.779 2091.65 548.339 Q2093.85 547.876 2095.93 547.876 Q2101.56 547.876 2104.33 550.793 Q2107.11 553.71 2107.11 559.636 Z" fill="#000000" fill-rule="evenodd" fill-opacity="1" /></svg>
