<?xml version="1.0" encoding="utf-8"?>
<svg xmlns="http://www.w3.org/2000/svg" xmlns:xlink="http://www.w3.org/1999/xlink" width="576" height="384" viewBox="0 0 2304 1536">
<defs>
  <clipPath id="clip920">
    <rect x="0" y="0" width="2304" height="1536"/>
  </clipPath>
</defs>
<path clip-path="url(#clip920)" d="
M0 1536 L2304 1536 L2304 0 L0 0  Z
  " fill="#ffffff" fill-rule="evenodd" fill-opacity="1"/>
<defs>
  <clipPath id="clip921">
    <rect x="460" y="0" width="1614" height="1536"/>
  </clipPath>
</defs>
<path clip-path="url(#clip920)" d="
M251.804 1347.54 L2256.76 1347.54 L2256.76 47.2441 L251.804 47.2441  Z
  " fill="#ffffff" fill-rule="evenodd" fill-opacity="1"/>
<defs>
  <clipPath id="clip922">
    <rect x="251" y="47" width="2006" height="1301"/>
  </clipPath>
</defs>
<polyline clip-path="url(#clip922)" style="stroke:#000000; stroke-linecap:butt; stroke-linejoin:round; stroke-width:2; stroke-opacity:0.1; fill:none" points="
  933.824,1347.54 933.824,47.2441 
  "/>
<polyline clip-path="url(#clip922)" style="stroke:#000000; stroke-linecap:butt; stroke-linejoin:round; stroke-width:2; stroke-opacity:0.1; fill:none" points="
  2222.6,1347.54 2222.6,47.2441 
  "/>
<polyline clip-path="url(#clip920)" style="stroke:#000000; stroke-linecap:butt; stroke-linejoin:round; stroke-width:4; stroke-opacity:1; fill:none" points="
  251.804,1347.54 2256.76,1347.54 
  "/>
<polyline clip-path="url(#clip920)" style="stroke:#000000; stroke-linecap:butt; stroke-linejoin:round; stroke-width:4; stroke-opacity:1; fill:none" points="
  933.824,1347.54 933.824,1328.64 
  "/>
<polyline clip-path="url(#clip920)" style="stroke:#000000; stroke-linecap:butt; stroke-linejoin:round; stroke-width:4; stroke-opacity:1; fill:none" points="
  2222.6,1347.54 2222.6,1328.64 
  "/>
<path clip-path="url(#clip920)" d="M871.188 1420.89 L878.826 1420.89 L878.826 1394.53 L870.516 1396.19 L870.516 1391.94 L878.78 1390.27 L883.456 1390.27 L883.456 1420.89 L891.095 1420.89 L891.095 1424.83 L871.188 1424.83 L871.188 1420.89 Z" fill="#000000" fill-rule="evenodd" fill-opacity="1" /><path clip-path="url(#clip920)" d="M910.539 1393.35 Q906.928 1393.35 905.099 1396.91 Q903.294 1400.45 903.294 1407.58 Q903.294 1414.69 905.099 1418.25 Q906.928 1421.8 910.539 1421.8 Q914.173 1421.8 915.979 1418.25 Q917.808 1414.69 917.808 1407.58 Q917.808 1400.45 915.979 1396.91 Q914.173 1393.35 910.539 1393.35 M910.539 1389.64 Q916.349 1389.64 919.405 1394.25 Q922.484 1398.83 922.484 1407.58 Q922.484 1416.31 919.405 1420.92 Q916.349 1425.5 910.539 1425.5 Q904.729 1425.5 901.65 1420.92 Q898.595 1416.31 898.595 1407.58 Q898.595 1398.83 901.65 1394.25 Q904.729 1389.64 910.539 1389.64 Z" fill="#000000" fill-rule="evenodd" fill-opacity="1" /><path clip-path="url(#clip920)" d="M922.484 1383.74 L946.595 1383.74 L946.595 1386.94 L922.484 1386.94 L922.484 1383.74 Z" fill="#000000" fill-rule="evenodd" fill-opacity="1" /><path clip-path="url(#clip920)" d="M955.454 1394.22 L961.66 1394.22 L961.66 1372.8 L954.908 1374.15 L954.908 1370.69 L961.623 1369.34 L965.422 1369.34 L965.422 1394.22 L971.628 1394.22 L971.628 1397.42 L955.454 1397.42 L955.454 1394.22 Z" fill="#000000" fill-rule="evenodd" fill-opacity="1" /><path clip-path="url(#clip920)" d="M987.427 1371.84 Q984.493 1371.84 983.007 1374.74 Q981.54 1377.61 981.54 1383.41 Q981.54 1389.18 983.007 1392.08 Q984.493 1394.95 987.427 1394.95 Q990.38 1394.95 991.847 1392.08 Q993.332 1389.18 993.332 1383.41 Q993.332 1377.61 991.847 1374.74 Q990.38 1371.84 987.427 1371.84 M987.427 1368.83 Q992.148 1368.83 994.63 1372.57 Q997.132 1376.3 997.132 1383.41 Q997.132 1390.5 994.63 1394.24 Q992.148 1397.96 987.427 1397.96 Q982.706 1397.96 980.205 1394.24 Q977.722 1390.5 977.722 1383.41 Q977.722 1376.3 980.205 1372.57 Q982.706 1368.83 987.427 1368.83 Z" fill="#000000" fill-rule="evenodd" fill-opacity="1" /><path clip-path="url(#clip920)" d="M2172.62 1420.89 L2180.26 1420.89 L2180.26 1394.53 L2171.95 1396.19 L2171.95 1391.94 L2180.21 1390.27 L2184.89 1390.27 L2184.89 1420.89 L2192.53 1420.89 L2192.53 1424.83 L2172.62 1424.83 L2172.62 1420.89 Z" fill="#000000" fill-rule="evenodd" fill-opacity="1" /><path clip-path="url(#clip920)" d="M2211.97 1393.35 Q2208.36 1393.35 2206.53 1396.91 Q2204.73 1400.45 2204.73 1407.58 Q2204.73 1414.69 2206.53 1418.25 Q2208.36 1421.8 2211.97 1421.8 Q2215.6 1421.8 2217.41 1418.25 Q2219.24 1414.69 2219.24 1407.58 Q2219.24 1400.45 2217.41 1396.91 Q2215.6 1393.35 2211.97 1393.35 M2211.97 1389.64 Q2217.78 1389.64 2220.84 1394.25 Q2223.91 1398.83 2223.91 1407.58 Q2223.91 1416.31 2220.84 1420.92 Q2217.78 1425.5 2211.97 1425.5 Q2206.16 1425.5 2203.08 1420.92 Q2200.03 1416.31 2200.03 1407.58 Q2200.03 1398.83 2203.08 1394.25 Q2206.16 1389.64 2211.97 1389.64 Z" fill="#000000" fill-rule="evenodd" fill-opacity="1" /><path clip-path="url(#clip920)" d="M2223.91 1383.74 L2248.03 1383.74 L2248.03 1386.94 L2223.91 1386.94 L2223.91 1383.74 Z" fill="#000000" fill-rule="evenodd" fill-opacity="1" /><path clip-path="url(#clip920)" d="M2256.26 1369.34 L2271.18 1369.34 L2271.18 1372.54 L2259.74 1372.54 L2259.74 1379.42 Q2260.57 1379.14 2261.4 1379.01 Q2262.23 1378.85 2263.05 1378.85 Q2267.76 1378.85 2270.5 1381.43 Q2273.25 1384.01 2273.25 1388.41 Q2273.25 1392.94 2270.43 1395.46 Q2267.61 1397.96 2262.47 1397.96 Q2260.7 1397.96 2258.86 1397.66 Q2257.04 1397.36 2255.08 1396.76 L2255.08 1392.94 Q2256.77 1393.86 2258.58 1394.31 Q2260.38 1394.77 2262.4 1394.77 Q2265.65 1394.77 2267.55 1393.05 Q2269.45 1391.34 2269.45 1388.41 Q2269.45 1385.48 2267.55 1383.76 Q2265.65 1382.05 2262.4 1382.05 Q2260.87 1382.05 2259.35 1382.39 Q2257.84 1382.73 2256.26 1383.44 L2256.26 1369.34 Z" fill="#000000" fill-rule="evenodd" fill-opacity="1" /><path clip-path="url(#clip920)" d="M1178.03 1461.87 L1208.08 1461.87 L1208.08 1467.28 L1184.46 1467.28 L1184.46 1481.34 L1207.09 1481.34 L1207.09 1486.76 L1184.46 1486.76 L1184.46 1503.97 L1208.65 1503.97 L1208.65 1509.39 L1178.03 1509.39 L1178.03 1461.87 Z" fill="#000000" fill-rule="evenodd" fill-opacity="1" /><path clip-path="url(#clip920)" d="M1239.62 1479.21 Q1238.64 1478.64 1237.46 1478.38 Q1236.31 1478.1 1234.91 1478.1 Q1229.95 1478.1 1227.27 1481.34 Q1224.63 1484.56 1224.63 1490.61 L1224.63 1509.39 L1218.74 1509.39 L1218.74 1473.74 L1224.63 1473.74 L1224.63 1479.28 Q1226.48 1476.03 1229.44 1474.47 Q1232.4 1472.88 1236.63 1472.88 Q1237.24 1472.88 1237.97 1472.97 Q1238.7 1473.04 1239.59 1473.2 L1239.62 1479.21 Z" fill="#000000" fill-rule="evenodd" fill-opacity="1" /><path clip-path="url(#clip920)" d="M1265.28 1479.21 Q1264.29 1478.64 1263.11 1478.38 Q1261.97 1478.1 1260.57 1478.1 Q1255.6 1478.1 1252.93 1481.34 Q1250.29 1484.56 1250.29 1490.61 L1250.29 1509.39 L1244.4 1509.39 L1244.4 1473.74 L1250.29 1473.74 L1250.29 1479.28 Q1252.13 1476.03 1255.09 1474.47 Q1258.05 1472.88 1262.28 1472.88 Q1262.89 1472.88 1263.62 1472.97 Q1264.35 1473.04 1265.24 1473.2 L1265.28 1479.21 Z" fill="#000000" fill-rule="evenodd" fill-opacity="1" /><path clip-path="url(#clip920)" d="M1283.8 1477.84 Q1279.09 1477.84 1276.35 1481.54 Q1273.62 1485.2 1273.62 1491.59 Q1273.62 1497.99 1276.32 1501.68 Q1279.06 1505.34 1283.8 1505.34 Q1288.48 1505.34 1291.22 1501.65 Q1293.95 1497.96 1293.95 1491.59 Q1293.95 1485.26 1291.22 1481.57 Q1288.48 1477.84 1283.8 1477.84 M1283.8 1472.88 Q1291.44 1472.88 1295.8 1477.84 Q1300.16 1482.81 1300.16 1491.59 Q1300.16 1500.35 1295.8 1505.34 Q1291.44 1510.31 1283.8 1510.31 Q1276.13 1510.31 1271.77 1505.34 Q1267.44 1500.35 1267.44 1491.59 Q1267.44 1482.81 1271.77 1477.84 Q1276.13 1472.88 1283.8 1472.88 Z" fill="#000000" fill-rule="evenodd" fill-opacity="1" /><path clip-path="url(#clip920)" d="M1330.53 1479.21 Q1329.54 1478.64 1328.36 1478.38 Q1327.22 1478.1 1325.81 1478.1 Q1320.85 1478.1 1318.18 1481.34 Q1315.53 1484.56 1315.53 1490.61 L1315.53 1509.39 L1309.65 1509.39 L1309.65 1473.74 L1315.53 1473.74 L1315.53 1479.28 Q1317.38 1476.03 1320.34 1474.47 Q1323.3 1472.88 1327.53 1472.88 Q1328.14 1472.88 1328.87 1472.97 Q1329.6 1473.04 1330.49 1473.2 L1330.53 1479.21 Z" fill="#000000" fill-rule="evenodd" fill-opacity="1" /><polyline clip-path="url(#clip922)" style="stroke:#000000; stroke-linecap:butt; stroke-linejoin:round; stroke-width:2; stroke-opacity:0.1; fill:none" points="
  251.804,1273.21 2256.76,1273.21 
  "/>
<polyline clip-path="url(#clip922)" style="stroke:#000000; stroke-linecap:butt; stroke-linejoin:round; stroke-width:2; stroke-opacity:0.1; fill:none" points="
  251.804,599.17 2256.76,599.17 
  "/>
<polyline clip-path="url(#clip920)" style="stroke:#000000; stroke-linecap:butt; stroke-linejoin:round; stroke-width:4; stroke-opacity:1; fill:none" points="
  251.804,1347.54 251.804,47.2441 
  "/>
<polyline clip-path="url(#clip920)" style="stroke:#000000; stroke-linecap:butt; stroke-linejoin:round; stroke-width:4; stroke-opacity:1; fill:none" points="
  251.804,1273.21 270.702,1273.21 
  "/>
<polyline clip-path="url(#clip920)" style="stroke:#000000; stroke-linecap:butt; stroke-linejoin:round; stroke-width:4; stroke-opacity:1; fill:none" points="
  251.804,599.17 270.702,599.17 
  "/>
<path clip-path="url(#clip920)" d="M115.411 1293 L123.05 1293 L123.05 1266.64 L114.74 1268.31 L114.74 1264.05 L123.004 1262.38 L127.68 1262.38 L127.68 1293 L135.319 1293 L135.319 1296.94 L115.411 1296.94 L115.411 1293 Z" fill="#000000" fill-rule="evenodd" fill-opacity="1" /><path clip-path="url(#clip920)" d="M154.763 1265.46 Q151.152 1265.46 149.323 1269.02 Q147.518 1272.56 147.518 1279.69 Q147.518 1286.8 149.323 1290.37 Q151.152 1293.91 154.763 1293.91 Q158.397 1293.91 160.203 1290.37 Q162.032 1286.8 162.032 1279.69 Q162.032 1272.56 160.203 1269.02 Q158.397 1265.46 154.763 1265.46 M154.763 1261.75 Q160.573 1261.75 163.629 1266.36 Q166.707 1270.94 166.707 1279.69 Q166.707 1288.42 163.629 1293.03 Q160.573 1297.61 154.763 1297.61 Q148.953 1297.61 145.874 1293.03 Q142.819 1288.42 142.819 1279.69 Q142.819 1270.94 145.874 1266.36 Q148.953 1261.75 154.763 1261.75 Z" fill="#000000" fill-rule="evenodd" fill-opacity="1" /><path clip-path="url(#clip920)" d="M166.707 1255.86 L190.819 1255.86 L190.819 1259.05 L166.707 1259.05 L166.707 1255.86 Z" fill="#000000" fill-rule="evenodd" fill-opacity="1" /><path clip-path="url(#clip920)" d="M209.458 1244.76 L199.866 1259.75 L209.458 1259.75 L209.458 1244.76 M208.461 1241.45 L213.238 1241.45 L213.238 1259.75 L217.244 1259.75 L217.244 1262.91 L213.238 1262.91 L213.238 1269.53 L209.458 1269.53 L209.458 1262.91 L196.781 1262.91 L196.781 1259.24 L208.461 1241.45 Z" fill="#000000" fill-rule="evenodd" fill-opacity="1" /><path clip-path="url(#clip920)" d="M116.333 618.963 L123.972 618.963 L123.972 592.597 L115.662 594.264 L115.662 590.005 L123.926 588.338 L128.601 588.338 L128.601 618.963 L136.24 618.963 L136.24 622.898 L116.333 622.898 L116.333 618.963 Z" fill="#000000" fill-rule="evenodd" fill-opacity="1" /><path clip-path="url(#clip920)" d="M155.685 591.417 Q152.074 591.417 150.245 594.981 Q148.439 598.523 148.439 605.653 Q148.439 612.759 150.245 616.324 Q152.074 619.865 155.685 619.865 Q159.319 619.865 161.124 616.324 Q162.953 612.759 162.953 605.653 Q162.953 598.523 161.124 594.981 Q159.319 591.417 155.685 591.417 M155.685 587.713 Q161.495 587.713 164.55 592.319 Q167.629 596.903 167.629 605.653 Q167.629 614.379 164.55 618.986 Q161.495 623.569 155.685 623.569 Q149.875 623.569 146.796 618.986 Q143.74 614.379 143.74 605.653 Q143.74 596.903 146.796 592.319 Q149.875 587.713 155.685 587.713 Z" fill="#000000" fill-rule="evenodd" fill-opacity="1" /><path clip-path="url(#clip920)" d="M167.629 581.814 L191.741 581.814 L191.741 585.012 L167.629 585.012 L167.629 581.814 Z" fill="#000000" fill-rule="evenodd" fill-opacity="1" /><path clip-path="url(#clip920)" d="M211.451 580.347 Q214.178 580.93 215.702 582.773 Q217.244 584.617 217.244 587.325 Q217.244 591.481 214.385 593.757 Q211.526 596.033 206.26 596.033 Q204.492 596.033 202.612 595.676 Q200.75 595.337 198.756 594.641 L198.756 590.974 Q200.336 591.895 202.217 592.365 Q204.097 592.836 206.147 592.836 Q209.721 592.836 211.583 591.425 Q213.464 590.014 213.464 587.325 Q213.464 584.842 211.714 583.45 Q209.984 582.04 206.881 582.04 L203.608 582.04 L203.608 578.918 L207.031 578.918 Q209.834 578.918 211.32 577.808 Q212.805 576.68 212.805 574.573 Q212.805 572.41 211.263 571.263 Q209.74 570.097 206.881 570.097 Q205.32 570.097 203.533 570.436 Q201.746 570.774 199.602 571.489 L199.602 568.103 Q201.765 567.502 203.646 567.201 Q205.546 566.9 207.219 566.9 Q211.545 566.9 214.065 568.874 Q216.586 570.83 216.586 574.178 Q216.586 576.51 215.25 578.128 Q213.915 579.727 211.451 580.347 Z" fill="#000000" fill-rule="evenodd" fill-opacity="1" /><path clip-path="url(#clip920)" d="M18.4042 827.219 L18.4042 787.02 L23.815 787.02 L23.815 803.889 L65.9242 803.889 L65.9242 810.35 L23.815 810.35 L23.815 827.219 L18.4042 827.219 Z" fill="#000000" fill-rule="evenodd" fill-opacity="1" /><path clip-path="url(#clip920)" d="M30.2762 783.073 L30.2762 777.216 L65.9242 777.216 L65.9242 783.073 L30.2762 783.073 M16.399 783.073 L16.399 777.216 L23.815 777.216 L23.815 783.073 L16.399 783.073 Z" fill="#000000" fill-rule="evenodd" fill-opacity="1" /><path clip-path="url(#clip920)" d="M37.1193 737.208 Q33.1726 735.012 31.2947 731.956 Q29.4168 728.901 29.4168 724.763 Q29.4168 719.193 33.3317 716.169 Q37.2148 713.145 44.4081 713.145 L65.9242 713.145 L65.9242 719.034 L44.599 719.034 Q39.4746 719.034 36.992 720.848 Q34.5094 722.662 34.5094 726.386 Q34.5094 730.938 37.5331 733.579 Q40.5568 736.221 45.7767 736.221 L65.9242 736.221 L65.9242 742.109 L44.599 742.109 Q39.4428 742.109 36.992 743.924 Q34.5094 745.738 34.5094 749.526 Q34.5094 754.013 37.5649 756.655 Q40.5886 759.297 45.7767 759.297 L65.9242 759.297 L65.9242 765.185 L30.2762 765.185 L30.2762 759.297 L35.8144 759.297 Q32.536 757.292 30.9764 754.491 Q29.4168 751.69 29.4168 747.839 Q29.4168 743.956 31.3902 741.25 Q33.3636 738.513 37.1193 737.208 Z" fill="#000000" fill-rule="evenodd" fill-opacity="1" /><path clip-path="url(#clip920)" d="M46.6361 670.973 L49.5006 670.973 L49.5006 697.9 Q55.5481 697.518 58.7309 694.271 Q61.8819 690.993 61.8819 685.168 Q61.8819 681.794 61.0544 678.643 Q60.2269 675.461 58.5718 672.341 L64.1099 672.341 Q65.4467 675.492 66.147 678.803 Q66.8472 682.113 66.8472 685.518 Q66.8472 694.048 61.8819 699.045 Q56.9167 704.011 48.4503 704.011 Q39.6974 704.011 34.5731 699.3 Q29.4168 694.558 29.4168 686.537 Q29.4168 679.344 34.0638 675.174 Q38.6789 670.973 46.6361 670.973 M44.9173 676.829 Q40.1112 676.893 37.2466 679.535 Q34.3821 682.145 34.3821 686.473 Q34.3821 691.375 37.1512 694.335 Q39.9202 697.263 44.9492 697.709 L44.9173 676.829 Z" fill="#000000" fill-rule="evenodd" fill-opacity="1" /><path clip-path="url(#clip920)" d="M16.4626 626.572 Q23.7832 630.837 30.9446 632.906 Q38.106 634.975 45.4584 634.975 Q52.8108 634.975 60.0359 632.906 Q67.2291 630.805 74.5179 626.572 L74.5179 631.664 Q67.0382 636.439 59.8131 638.826 Q52.588 641.181 45.4584 641.181 Q38.3606 641.181 31.1674 638.826 Q23.9742 636.471 16.4626 631.664 L16.4626 626.572 Z" fill="#000000" fill-rule="evenodd" fill-opacity="1" /><path clip-path="url(#clip920)" d="M31.3265 592.484 L36.8647 592.484 Q35.5916 594.966 34.955 597.64 Q34.3184 600.313 34.3184 603.178 Q34.3184 607.538 35.6552 609.735 Q36.992 611.899 39.6656 611.899 Q41.7026 611.899 42.8803 610.339 Q44.0261 608.78 45.0765 604.069 L45.5221 602.064 Q46.8589 595.826 49.3097 593.216 Q51.7286 590.574 56.0891 590.574 Q61.0544 590.574 63.9508 594.521 Q66.8472 598.435 66.8472 605.31 Q66.8472 608.175 66.2743 611.294 Q65.7332 614.382 64.6192 617.819 L58.5718 617.819 Q60.2587 614.573 61.118 611.422 Q61.9456 608.27 61.9456 605.183 Q61.9456 601.045 60.5451 598.817 Q59.1129 596.589 56.5347 596.589 Q54.1476 596.589 52.8745 598.213 Q51.6013 599.804 50.4237 605.247 L49.9462 607.284 Q48.8004 612.726 46.4451 615.145 Q44.058 617.564 39.9202 617.564 Q34.8913 617.564 32.1541 614 Q29.4168 610.435 29.4168 603.878 Q29.4168 600.632 29.8943 597.767 Q30.3717 594.902 31.3265 592.484 Z" fill="#000000" fill-rule="evenodd" fill-opacity="1" /><path clip-path="url(#clip920)" d="M16.4626 582.171 L16.4626 577.079 Q23.9742 572.304 31.1674 569.949 Q38.3606 567.562 45.4584 567.562 Q52.588 567.562 59.8131 569.949 Q67.0382 572.304 74.5179 577.079 L74.5179 582.171 Q67.2291 577.938 60.0359 575.869 Q52.8108 573.768 45.4584 573.768 Q38.106 573.768 30.9446 575.869 Q23.7832 577.938 16.4626 582.171 Z" fill="#000000" fill-rule="evenodd" fill-opacity="1" /><polyline clip-path="url(#clip922)" style="stroke:#009af9; stroke-linecap:butt; stroke-linejoin:round; stroke-width:12; stroke-opacity:1; fill:none" points="
  2133.11,722.291 1872.05,617.381 1614.12,505.964 1370.07,341.5 1025.73,200.965 878.34,84.0448 
  "/>
<line clip-path="url(#clip922)" x1="2133.11" y1="722.291" x2="2133.11" y2="706.291" style="stroke:#009af9; stroke-width:3.072; stroke-opacity:1"/>
<line clip-path="url(#clip922)" x1="2133.11" y1="722.291" x2="2117.11" y2="722.291" style="stroke:#009af9; stroke-width:3.072; stroke-opacity:1"/>
<line clip-path="url(#clip922)" x1="2133.11" y1="722.291" x2="2133.11" y2="738.291" style="stroke:#009af9; stroke-width:3.072; stroke-opacity:1"/>
<line clip-path="url(#clip922)" x1="2133.11" y1="722.291" x2="2149.11" y2="722.291" style="stroke:#009af9; stroke-width:3.072; stroke-opacity:1"/>
<line clip-path="url(#clip922)" x1="1872.05" y1="617.381" x2="1872.05" y2="601.381" style="stroke:#009af9; stroke-width:3.072; stroke-opacity:1"/>
<line clip-path="url(#clip922)" x1="1872.05" y1="617.381" x2="1856.05" y2="617.381" style="stroke:#009af9; stroke-width:3.072; stroke-opacity:1"/>
<line clip-path="url(#clip922)" x1="1872.05" y1="617.381" x2="1872.05" y2="633.381" style="stroke:#009af9; stroke-width:3.072; stroke-opacity:1"/>
<line clip-path="url(#clip922)" x1="1872.05" y1="617.381" x2="1888.05" y2="617.381" style="stroke:#009af9; stroke-width:3.072; stroke-opacity:1"/>
<line clip-path="url(#clip922)" x1="1614.12" y1="505.964" x2="1614.12" y2="489.964" style="stroke:#009af9; stroke-width:3.072; stroke-opacity:1"/>
<line clip-path="url(#clip922)" x1="1614.12" y1="505.964" x2="1598.12" y2="505.964" style="stroke:#009af9; stroke-width:3.072; stroke-opacity:1"/>
<line clip-path="url(#clip922)" x1="1614.12" y1="505.964" x2="1614.12" y2="521.964" style="stroke:#009af9; stroke-width:3.072; stroke-opacity:1"/>
<line clip-path="url(#clip922)" x1="1614.12" y1="505.964" x2="1630.12" y2="505.964" style="stroke:#009af9; stroke-width:3.072; stroke-opacity:1"/>
<line clip-path="url(#clip922)" x1="1370.07" y1="341.5" x2="1370.07" y2="325.5" style="stroke:#009af9; stroke-width:3.072; stroke-opacity:1"/>
<line clip-path="url(#clip922)" x1="1370.07" y1="341.5" x2="1354.07" y2="341.5" style="stroke:#009af9; stroke-width:3.072; stroke-opacity:1"/>
<line clip-path="url(#clip922)" x1="1370.07" y1="341.5" x2="1370.07" y2="357.5" style="stroke:#009af9; stroke-width:3.072; stroke-opacity:1"/>
<line clip-path="url(#clip922)" x1="1370.07" y1="341.5" x2="1386.07" y2="341.5" style="stroke:#009af9; stroke-width:3.072; stroke-opacity:1"/>
<line clip-path="url(#clip922)" x1="1025.73" y1="200.965" x2="1025.73" y2="184.965" style="stroke:#009af9; stroke-width:3.072; stroke-opacity:1"/>
<line clip-path="url(#clip922)" x1="1025.73" y1="200.965" x2="1009.73" y2="200.965" style="stroke:#009af9; stroke-width:3.072; stroke-opacity:1"/>
<line clip-path="url(#clip922)" x1="1025.73" y1="200.965" x2="1025.73" y2="216.965" style="stroke:#009af9; stroke-width:3.072; stroke-opacity:1"/>
<line clip-path="url(#clip922)" x1="1025.73" y1="200.965" x2="1041.73" y2="200.965" style="stroke:#009af9; stroke-width:3.072; stroke-opacity:1"/>
<line clip-path="url(#clip922)" x1="878.34" y1="84.0448" x2="878.34" y2="68.0448" style="stroke:#009af9; stroke-width:3.072; stroke-opacity:1"/>
<line clip-path="url(#clip922)" x1="878.34" y1="84.0448" x2="862.34" y2="84.0448" style="stroke:#009af9; stroke-width:3.072; stroke-opacity:1"/>
<line clip-path="url(#clip922)" x1="878.34" y1="84.0448" x2="878.34" y2="100.045" style="stroke:#009af9; stroke-width:3.072; stroke-opacity:1"/>
<line clip-path="url(#clip922)" x1="878.34" y1="84.0448" x2="894.34" y2="84.0448" style="stroke:#009af9; stroke-width:3.072; stroke-opacity:1"/>
<polyline clip-path="url(#clip922)" style="stroke:#e26f46; stroke-linecap:butt; stroke-linejoin:round; stroke-width:12; stroke-opacity:1; fill:none" points="
  2175.65,1011.54 1955.28,912.91 1786.32,795.809 1480.67,726.34 1286.87,636.479 1078.47,542.927 
  "/>
<circle clip-path="url(#clip922)" cx="2175.65" cy="1011.54" r="14" fill="#e26f46" fill-rule="evenodd" fill-opacity="1" stroke="#000000" stroke-opacity="1" stroke-width="3.072"/>
<circle clip-path="url(#clip922)" cx="1955.28" cy="912.91" r="14" fill="#e26f46" fill-rule="evenodd" fill-opacity="1" stroke="#000000" stroke-opacity="1" stroke-width="3.072"/>
<circle clip-path="url(#clip922)" cx="1786.32" cy="795.809" r="14" fill="#e26f46" fill-rule="evenodd" fill-opacity="1" stroke="#000000" stroke-opacity="1" stroke-width="3.072"/>
<circle clip-path="url(#clip922)" cx="1480.67" cy="726.34" r="14" fill="#e26f46" fill-rule="evenodd" fill-opacity="1" stroke="#000000" stroke-opacity="1" stroke-width="3.072"/>
<circle clip-path="url(#clip922)" cx="1286.87" cy="636.479" r="14" fill="#e26f46" fill-rule="evenodd" fill-opacity="1" stroke="#000000" stroke-opacity="1" stroke-width="3.072"/>
<circle clip-path="url(#clip922)" cx="1078.47" cy="542.927" r="14" fill="#e26f46" fill-rule="evenodd" fill-opacity="1" stroke="#000000" stroke-opacity="1" stroke-width="3.072"/>
<polyline clip-path="url(#clip922)" style="stroke:#3da44d; stroke-linecap:butt; stroke-linejoin:round; stroke-width:12; stroke-opacity:1; fill:none" points="
  2200.01,1001.76 1818.89,816.691 1816.68,749.501 1051.49,661.718 1247.16,620.277 1053.5,552.51 
  "/>
<line clip-path="url(#clip922)" x1="2200.01" y1="1001.76" x2="2200.01" y2="985.763" style="stroke:#3da44d; stroke-width:3.072; stroke-opacity:1"/>
<line clip-path="url(#clip922)" x1="2200.01" y1="1001.76" x2="2184.01" y2="1001.76" style="stroke:#3da44d; stroke-width:3.072; stroke-opacity:1"/>
<line clip-path="url(#clip922)" x1="2200.01" y1="1001.76" x2="2200.01" y2="1017.76" style="stroke:#3da44d; stroke-width:3.072; stroke-opacity:1"/>
<line clip-path="url(#clip922)" x1="2200.01" y1="1001.76" x2="2216.01" y2="1001.76" style="stroke:#3da44d; stroke-width:3.072; stroke-opacity:1"/>
<line clip-path="url(#clip922)" x1="1818.89" y1="816.691" x2="1818.89" y2="800.691" style="stroke:#3da44d; stroke-width:3.072; stroke-opacity:1"/>
<line clip-path="url(#clip922)" x1="1818.89" y1="816.691" x2="1802.89" y2="816.691" style="stroke:#3da44d; stroke-width:3.072; stroke-opacity:1"/>
<line clip-path="url(#clip922)" x1="1818.89" y1="816.691" x2="1818.89" y2="832.691" style="stroke:#3da44d; stroke-width:3.072; stroke-opacity:1"/>
<line clip-path="url(#clip922)" x1="1818.89" y1="816.691" x2="1834.89" y2="816.691" style="stroke:#3da44d; stroke-width:3.072; stroke-opacity:1"/>
<line clip-path="url(#clip922)" x1="1816.68" y1="749.501" x2="1816.68" y2="733.501" style="stroke:#3da44d; stroke-width:3.072; stroke-opacity:1"/>
<line clip-path="url(#clip922)" x1="1816.68" y1="749.501" x2="1800.68" y2="749.501" style="stroke:#3da44d; stroke-width:3.072; stroke-opacity:1"/>
<line clip-path="url(#clip922)" x1="1816.68" y1="749.501" x2="1816.68" y2="765.501" style="stroke:#3da44d; stroke-width:3.072; stroke-opacity:1"/>
<line clip-path="url(#clip922)" x1="1816.68" y1="749.501" x2="1832.68" y2="749.501" style="stroke:#3da44d; stroke-width:3.072; stroke-opacity:1"/>
<line clip-path="url(#clip922)" x1="1051.49" y1="661.718" x2="1051.49" y2="645.718" style="stroke:#3da44d; stroke-width:3.072; stroke-opacity:1"/>
<line clip-path="url(#clip922)" x1="1051.49" y1="661.718" x2="1035.49" y2="661.718" style="stroke:#3da44d; stroke-width:3.072; stroke-opacity:1"/>
<line clip-path="url(#clip922)" x1="1051.49" y1="661.718" x2="1051.49" y2="677.718" style="stroke:#3da44d; stroke-width:3.072; stroke-opacity:1"/>
<line clip-path="url(#clip922)" x1="1051.49" y1="661.718" x2="1067.49" y2="661.718" style="stroke:#3da44d; stroke-width:3.072; stroke-opacity:1"/>
<line clip-path="url(#clip922)" x1="1247.16" y1="620.277" x2="1247.16" y2="604.277" style="stroke:#3da44d; stroke-width:3.072; stroke-opacity:1"/>
<line clip-path="url(#clip922)" x1="1247.16" y1="620.277" x2="1231.16" y2="620.277" style="stroke:#3da44d; stroke-width:3.072; stroke-opacity:1"/>
<line clip-path="url(#clip922)" x1="1247.16" y1="620.277" x2="1247.16" y2="636.277" style="stroke:#3da44d; stroke-width:3.072; stroke-opacity:1"/>
<line clip-path="url(#clip922)" x1="1247.16" y1="620.277" x2="1263.16" y2="620.277" style="stroke:#3da44d; stroke-width:3.072; stroke-opacity:1"/>
<line clip-path="url(#clip922)" x1="1053.5" y1="552.51" x2="1053.5" y2="536.51" style="stroke:#3da44d; stroke-width:3.072; stroke-opacity:1"/>
<line clip-path="url(#clip922)" x1="1053.5" y1="552.51" x2="1037.5" y2="552.51" style="stroke:#3da44d; stroke-width:3.072; stroke-opacity:1"/>
<line clip-path="url(#clip922)" x1="1053.5" y1="552.51" x2="1053.5" y2="568.51" style="stroke:#3da44d; stroke-width:3.072; stroke-opacity:1"/>
<line clip-path="url(#clip922)" x1="1053.5" y1="552.51" x2="1069.5" y2="552.51" style="stroke:#3da44d; stroke-width:3.072; stroke-opacity:1"/>
<polyline clip-path="url(#clip922)" style="stroke:#c271d2; stroke-linecap:butt; stroke-linejoin:round; stroke-width:12; stroke-opacity:1; fill:none" points="
  2137,932.085 1768.37,815.119 1574.71,673.877 1449.01,576.18 1200.71,492.142 1018.24,393.958 
  "/>
<path clip-path="url(#clip922)" d="M2137 916.085 L2121 932.085 L2137 948.085 L2153 932.085 L2137 916.085 Z" fill="#c271d2" fill-rule="evenodd" fill-opacity="1" stroke="#000000" stroke-opacity="1" stroke-width="3.072"/>
<path clip-path="url(#clip922)" d="M1768.37 799.119 L1752.37 815.119 L1768.37 831.119 L1784.37 815.119 L1768.37 799.119 Z" fill="#c271d2" fill-rule="evenodd" fill-opacity="1" stroke="#000000" stroke-opacity="1" stroke-width="3.072"/>
<path clip-path="url(#clip922)" d="M1574.71 657.877 L1558.71 673.877 L1574.71 689.877 L1590.71 673.877 L1574.71 657.877 Z" fill="#c271d2" fill-rule="evenodd" fill-opacity="1" stroke="#000000" stroke-opacity="1" stroke-width="3.072"/>
<path clip-path="url(#clip922)" d="M1449.01 560.18 L1433.01 576.18 L1449.01 592.18 L1465.01 576.18 L1449.01 560.18 Z" fill="#c271d2" fill-rule="evenodd" fill-opacity="1" stroke="#000000" stroke-opacity="1" stroke-width="3.072"/>
<path clip-path="url(#clip922)" d="M1200.71 476.142 L1184.71 492.142 L1200.71 508.142 L1216.71 492.142 L1200.71 476.142 Z" fill="#c271d2" fill-rule="evenodd" fill-opacity="1" stroke="#000000" stroke-opacity="1" stroke-width="3.072"/>
<path clip-path="url(#clip922)" d="M1018.24 377.958 L1002.24 393.958 L1018.24 409.958 L1034.24 393.958 L1018.24 377.958 Z" fill="#c271d2" fill-rule="evenodd" fill-opacity="1" stroke="#000000" stroke-opacity="1" stroke-width="3.072"/>
<polyline clip-path="url(#clip922)" style="stroke:#ac8d18; stroke-linecap:butt; stroke-linejoin:round; stroke-width:12; stroke-opacity:1; fill:none" points="
  1268.1,1310.74 883.061,1199.31 774.182,1071.47 620.765,929.685 433.198,780.53 308.548,614.993 
  "/>
<path clip-path="url(#clip922)" d="M1284.1 1294.74 L1252.1 1294.74 L1268.1 1326.74 L1284.1 1294.74 Z" fill="#ac8d18" fill-rule="evenodd" fill-opacity="1" stroke="#000000" stroke-opacity="1" stroke-width="3.072"/>
<path clip-path="url(#clip922)" d="M899.061 1183.31 L867.061 1183.31 L883.061 1215.31 L899.061 1183.31 Z" fill="#ac8d18" fill-rule="evenodd" fill-opacity="1" stroke="#000000" stroke-opacity="1" stroke-width="3.072"/>
<path clip-path="url(#clip922)" d="M790.182 1055.47 L758.182 1055.47 L774.182 1087.47 L790.182 1055.47 Z" fill="#ac8d18" fill-rule="evenodd" fill-opacity="1" stroke="#000000" stroke-opacity="1" stroke-width="3.072"/>
<path clip-path="url(#clip922)" d="M636.765 913.685 L604.765 913.685 L620.765 945.685 L636.765 913.685 Z" fill="#ac8d18" fill-rule="evenodd" fill-opacity="1" stroke="#000000" stroke-opacity="1" stroke-width="3.072"/>
<path clip-path="url(#clip922)" d="M449.198 764.53 L417.198 764.53 L433.198 796.53 L449.198 764.53 Z" fill="#ac8d18" fill-rule="evenodd" fill-opacity="1" stroke="#000000" stroke-opacity="1" stroke-width="3.072"/>
<path clip-path="url(#clip922)" d="M324.548 598.993 L292.548 598.993 L308.548 630.993 L324.548 598.993 Z" fill="#ac8d18" fill-rule="evenodd" fill-opacity="1" stroke="#000000" stroke-opacity="1" stroke-width="3.072"/>
<polyline clip-path="url(#clip922)" style="stroke:#00a9ad; stroke-linecap:butt; stroke-linejoin:round; stroke-width:12; stroke-opacity:1; fill:none" points="
  1553.76,971.479 1216.2,855.859 790.181,693.277 730.916,545.017 530.795,392.614 355.782,231.978 
  "/>
<path clip-path="url(#clip922)" d="M1553.76 955.479 L1541.25 961.511 L1538.16 975.047 L1546.82 985.895 L1560.7 985.895 L1569.36 975.047 L1566.27 961.511 Z" fill="#00a9ad" fill-rule="evenodd" fill-opacity="1" stroke="#000000" stroke-opacity="1" stroke-width="3.072"/>
<path clip-path="url(#clip922)" d="M1216.2 839.859 L1203.69 845.891 L1200.6 859.427 L1209.26 870.275 L1223.14 870.275 L1231.8 859.427 L1228.71 845.891 Z" fill="#00a9ad" fill-rule="evenodd" fill-opacity="1" stroke="#000000" stroke-opacity="1" stroke-width="3.072"/>
<path clip-path="url(#clip922)" d="M790.181 677.277 L777.669 683.309 L774.581 696.845 L783.237 707.693 L797.125 707.693 L805.781 696.845 L802.693 683.309 Z" fill="#00a9ad" fill-rule="evenodd" fill-opacity="1" stroke="#000000" stroke-opacity="1" stroke-width="3.072"/>
<path clip-path="url(#clip922)" d="M730.916 529.017 L718.404 535.049 L715.316 548.585 L723.972 559.433 L737.86 559.433 L746.516 548.585 L743.428 535.049 Z" fill="#00a9ad" fill-rule="evenodd" fill-opacity="1" stroke="#000000" stroke-opacity="1" stroke-width="3.072"/>
<path clip-path="url(#clip922)" d="M530.795 376.614 L518.283 382.646 L515.195 396.182 L523.851 407.03 L537.739 407.03 L546.395 396.182 L543.307 382.646 Z" fill="#00a9ad" fill-rule="evenodd" fill-opacity="1" stroke="#000000" stroke-opacity="1" stroke-width="3.072"/>
<path clip-path="url(#clip922)" d="M355.782 215.978 L343.27 222.01 L340.182 235.546 L348.838 246.394 L362.726 246.394 L371.382 235.546 L368.294 222.01 Z" fill="#00a9ad" fill-rule="evenodd" fill-opacity="1" stroke="#000000" stroke-opacity="1" stroke-width="3.072"/>
<polyline clip-path="url(#clip922)" style="stroke:#ed5d92; stroke-linecap:butt; stroke-linejoin:round; stroke-width:12; stroke-opacity:1; fill:none" points="
  2096.94,1310.64 1858.77,1144.21 1554.05,1027.6 1412.65,925.069 1168.77,860.032 970.919,736.157 
  "/>
<path clip-path="url(#clip922)" d="M2096.94 1326.64 L2083.09 1318.64 L2083.09 1302.64 L2096.94 1294.64 L2110.8 1302.64 L2110.8 1318.64 Z" fill="#ed5d92" fill-rule="evenodd" fill-opacity="1" stroke="#000000" stroke-opacity="1" stroke-width="3.072"/>
<path clip-path="url(#clip922)" d="M1858.77 1160.21 L1844.92 1152.21 L1844.92 1136.21 L1858.77 1128.21 L1872.63 1136.21 L1872.63 1152.21 Z" fill="#ed5d92" fill-rule="evenodd" fill-opacity="1" stroke="#000000" stroke-opacity="1" stroke-width="3.072"/>
<path clip-path="url(#clip922)" d="M1554.05 1043.6 L1540.19 1035.6 L1540.19 1019.6 L1554.05 1011.6 L1567.9 1019.6 L1567.9 1035.6 Z" fill="#ed5d92" fill-rule="evenodd" fill-opacity="1" stroke="#000000" stroke-opacity="1" stroke-width="3.072"/>
<path clip-path="url(#clip922)" d="M1412.65 941.069 L1398.79 933.069 L1398.79 917.069 L1412.65 909.069 L1426.5 917.069 L1426.5 933.069 Z" fill="#ed5d92" fill-rule="evenodd" fill-opacity="1" stroke="#000000" stroke-opacity="1" stroke-width="3.072"/>
<path clip-path="url(#clip922)" d="M1168.77 876.032 L1154.91 868.032 L1154.91 852.032 L1168.77 844.032 L1182.62 852.032 L1182.62 868.032 Z" fill="#ed5d92" fill-rule="evenodd" fill-opacity="1" stroke="#000000" stroke-opacity="1" stroke-width="3.072"/>
<path clip-path="url(#clip922)" d="M970.919 752.157 L957.063 744.157 L957.063 728.157 L970.919 720.157 L984.775 728.157 L984.775 744.157 Z" fill="#ed5d92" fill-rule="evenodd" fill-opacity="1" stroke="#000000" stroke-opacity="1" stroke-width="3.072"/>
<polyline clip-path="url(#clip922)" style="stroke:#c68125; stroke-linecap:butt; stroke-linejoin:round; stroke-width:12; stroke-opacity:1; fill:none" points="
  1564.4,947.692 1373.39,878.744 1153.81,791.176 1030.48,763.376 782.515,708.167 526.09,654.55 
  "/>
<line clip-path="url(#clip922)" x1="1580.4" y1="947.692" x2="1548.4" y2="947.692" style="stroke:#c68125; stroke-width:3.072; stroke-opacity:1"/>
<line clip-path="url(#clip922)" x1="1389.39" y1="878.744" x2="1357.39" y2="878.744" style="stroke:#c68125; stroke-width:3.072; stroke-opacity:1"/>
<line clip-path="url(#clip922)" x1="1169.81" y1="791.176" x2="1137.81" y2="791.176" style="stroke:#c68125; stroke-width:3.072; stroke-opacity:1"/>
<line clip-path="url(#clip922)" x1="1046.48" y1="763.376" x2="1014.48" y2="763.376" style="stroke:#c68125; stroke-width:3.072; stroke-opacity:1"/>
<line clip-path="url(#clip922)" x1="798.515" y1="708.167" x2="766.515" y2="708.167" style="stroke:#c68125; stroke-width:3.072; stroke-opacity:1"/>
<line clip-path="url(#clip922)" x1="542.09" y1="654.55" x2="510.09" y2="654.55" style="stroke:#c68125; stroke-width:3.072; stroke-opacity:1"/>
<polyline clip-path="url(#clip922)" style="stroke:#00a98d; stroke-linecap:butt; stroke-linejoin:round; stroke-width:12; stroke-opacity:1; fill:none" points="
  1630.91,1153.86 1487.55,1088.73 1415.8,1011.7 1391.77,922.955 1049.5,831.742 1070.83,764.414 
  "/>
<path clip-path="url(#clip922)" d="M1618.11 1153.86 L1637.31 1165.06 L1637.31 1142.66 L1618.11 1153.86 Z" fill="#00a98d" fill-rule="evenodd" fill-opacity="1" stroke="#000000" stroke-opacity="1" stroke-width="3.072"/>
<path clip-path="url(#clip922)" d="M1474.75 1088.73 L1493.95 1099.93 L1493.95 1077.53 L1474.75 1088.73 Z" fill="#00a98d" fill-rule="evenodd" fill-opacity="1" stroke="#000000" stroke-opacity="1" stroke-width="3.072"/>
<path clip-path="url(#clip922)" d="M1403 1011.7 L1422.2 1022.9 L1422.2 1000.5 L1403 1011.7 Z" fill="#00a98d" fill-rule="evenodd" fill-opacity="1" stroke="#000000" stroke-opacity="1" stroke-width="3.072"/>
<path clip-path="url(#clip922)" d="M1378.97 922.955 L1398.17 934.155 L1398.17 911.755 L1378.97 922.955 Z" fill="#00a98d" fill-rule="evenodd" fill-opacity="1" stroke="#000000" stroke-opacity="1" stroke-width="3.072"/>
<path clip-path="url(#clip922)" d="M1036.7 831.742 L1055.9 842.942 L1055.9 820.542 L1036.7 831.742 Z" fill="#00a98d" fill-rule="evenodd" fill-opacity="1" stroke="#000000" stroke-opacity="1" stroke-width="3.072"/>
<path clip-path="url(#clip922)" d="M1058.03 764.414 L1077.23 775.614 L1077.23 753.214 L1058.03 764.414 Z" fill="#00a98d" fill-rule="evenodd" fill-opacity="1" stroke="#000000" stroke-opacity="1" stroke-width="3.072"/>
<path clip-path="url(#clip920)" d="
M1684.1 608.987 L2189.92 608.987 L2189.92 90.5872 L1684.1 90.5872  Z
  " fill="#ffffff" fill-rule="evenodd" fill-opacity="1"/>
<polyline clip-path="url(#clip920)" style="stroke:#000000; stroke-linecap:butt; stroke-linejoin:round; stroke-width:4; stroke-opacity:1; fill:none" points="
  1684.1,608.987 2189.92,608.987 2189.92,90.5872 1684.1,90.5872 1684.1,608.987 
  "/>
<polyline clip-path="url(#clip920)" style="stroke:#009af9; stroke-linecap:butt; stroke-linejoin:round; stroke-width:4; stroke-opacity:1; fill:none" points="
  1706.37,142.427 1840.04,142.427 
  "/>
<line clip-path="url(#clip920)" x1="1773.21" y1="142.427" x2="1773.21" y2="116.827" style="stroke:#009af9; stroke-width:4.9152; stroke-opacity:1"/>
<line clip-path="url(#clip920)" x1="1773.21" y1="142.427" x2="1747.61" y2="142.427" style="stroke:#009af9; stroke-width:4.9152; stroke-opacity:1"/>
<line clip-path="url(#clip920)" x1="1773.21" y1="142.427" x2="1773.21" y2="168.027" style="stroke:#009af9; stroke-width:4.9152; stroke-opacity:1"/>
<line clip-path="url(#clip920)" x1="1773.21" y1="142.427" x2="1798.81" y2="142.427" style="stroke:#009af9; stroke-width:4.9152; stroke-opacity:1"/>
<path clip-path="url(#clip920)" d="M1862.32 125.147 L1882.18 125.147 L1882.18 129.082 L1866.99 129.082 L1866.99 139.267 L1880.7 139.267 L1880.7 143.203 L1866.99 143.203 L1866.99 159.707 L1862.32 159.707 L1862.32 125.147 Z" fill="#000000" fill-rule="evenodd" fill-opacity="1" /><path clip-path="url(#clip920)" d="M1894.26 143.203 L1894.26 155.865 L1901.76 155.865 Q1905.53 155.865 1907.34 154.314 Q1909.17 152.74 1909.17 149.522 Q1909.17 146.281 1907.34 144.754 Q1905.53 143.203 1901.76 143.203 L1894.26 143.203 M1894.26 128.99 L1894.26 139.406 L1901.18 139.406 Q1904.61 139.406 1906.27 138.133 Q1907.96 136.837 1907.96 134.198 Q1907.96 131.582 1906.27 130.286 Q1904.61 128.99 1901.18 128.99 L1894.26 128.99 M1889.58 125.147 L1901.53 125.147 Q1906.88 125.147 1909.77 127.369 Q1912.66 129.592 1912.66 133.689 Q1912.66 136.86 1911.18 138.735 Q1909.7 140.61 1906.83 141.073 Q1910.28 141.814 1912.18 144.175 Q1914.1 146.513 1914.1 150.031 Q1914.1 154.661 1910.95 157.184 Q1907.8 159.707 1901.99 159.707 L1889.58 159.707 L1889.58 125.147 Z" fill="#000000" fill-rule="evenodd" fill-opacity="1" /><path clip-path="url(#clip920)" d="M1926.78 128.99 L1926.78 155.865 L1932.43 155.865 Q1939.58 155.865 1942.89 152.624 Q1946.23 149.383 1946.23 142.392 Q1946.23 135.448 1942.89 132.23 Q1939.58 128.99 1932.43 128.99 L1926.78 128.99 M1922.11 125.147 L1931.71 125.147 Q1941.76 125.147 1946.46 129.337 Q1951.16 133.504 1951.16 142.392 Q1951.16 151.328 1946.44 155.517 Q1941.71 159.707 1931.71 159.707 L1922.11 159.707 L1922.11 125.147 Z" fill="#000000" fill-rule="evenodd" fill-opacity="1" /><path clip-path="url(#clip920)" d="M1958.61 125.147 L1978.47 125.147 L1978.47 129.082 L1963.29 129.082 L1963.29 139.267 L1976.99 139.267 L1976.99 143.203 L1963.29 143.203 L1963.29 159.707 L1958.61 159.707 L1958.61 125.147 Z" fill="#000000" fill-rule="evenodd" fill-opacity="1" /><polyline clip-path="url(#clip920)" style="stroke:#e26f46; stroke-linecap:butt; stroke-linejoin:round; stroke-width:4; stroke-opacity:1; fill:none" points="
  1706.37,194.267 1840.04,194.267 
  "/>
<circle clip-path="url(#clip920)" cx="1773.21" cy="194.267" r="23" fill="#e26f46" fill-rule="evenodd" fill-opacity="1" stroke="#000000" stroke-opacity="1" stroke-width="4.9152"/>
<path clip-path="url(#clip920)" d="M1878.33 180.158 Q1873.24 180.158 1870.23 183.955 Q1867.25 187.751 1867.25 194.302 Q1867.25 200.83 1870.23 204.626 Q1873.24 208.422 1878.33 208.422 Q1883.43 208.422 1886.39 204.626 Q1889.38 200.83 1889.38 194.302 Q1889.38 187.751 1886.39 183.955 Q1883.43 180.158 1878.33 180.158 M1884.88 210.922 L1891.04 217.658 L1885.39 217.658 L1880.28 212.126 Q1879.51 212.172 1879.1 212.195 Q1878.7 212.218 1878.33 212.218 Q1871.04 212.218 1866.67 207.357 Q1862.32 202.473 1862.32 194.302 Q1862.32 186.108 1866.67 181.246 Q1871.04 176.362 1878.33 176.362 Q1885.6 176.362 1889.95 181.246 Q1894.31 186.108 1894.31 194.302 Q1894.31 200.32 1891.88 204.603 Q1889.47 208.885 1884.88 210.922 Z" fill="#000000" fill-rule="evenodd" fill-opacity="1" /><path clip-path="url(#clip920)" d="M1901.62 176.987 L1907.92 176.987 L1923.24 205.899 L1923.24 176.987 L1927.78 176.987 L1927.78 211.547 L1921.48 211.547 L1906.16 182.635 L1906.16 211.547 L1901.62 211.547 L1901.62 176.987 Z" fill="#000000" fill-rule="evenodd" fill-opacity="1" /><path clip-path="url(#clip920)" d="M1941.76 180.83 L1941.76 207.705 L1947.41 207.705 Q1954.56 207.705 1957.87 204.464 Q1961.2 201.223 1961.2 194.232 Q1961.2 187.288 1957.87 184.07 Q1954.56 180.83 1947.41 180.83 L1941.76 180.83 M1937.08 176.987 L1946.69 176.987 Q1956.74 176.987 1961.44 181.177 Q1966.13 185.344 1966.13 194.232 Q1966.13 203.168 1961.41 207.357 Q1956.69 211.547 1946.69 211.547 L1937.08 211.547 L1937.08 176.987 Z" fill="#000000" fill-rule="evenodd" fill-opacity="1" /><path clip-path="url(#clip920)" d="M1973.59 176.987 L1993.45 176.987 L1993.45 180.922 L1978.26 180.922 L1978.26 191.107 L1991.97 191.107 L1991.97 195.043 L1978.26 195.043 L1978.26 211.547 L1973.59 211.547 L1973.59 176.987 Z" fill="#000000" fill-rule="evenodd" fill-opacity="1" /><polyline clip-path="url(#clip920)" style="stroke:#3da44d; stroke-linecap:butt; stroke-linejoin:round; stroke-width:4; stroke-opacity:1; fill:none" points="
  1706.37,246.107 1840.04,246.107 
  "/>
<line clip-path="url(#clip920)" x1="1773.21" y1="246.107" x2="1773.21" y2="220.507" style="stroke:#3da44d; stroke-width:4.9152; stroke-opacity:1"/>
<line clip-path="url(#clip920)" x1="1773.21" y1="246.107" x2="1747.61" y2="246.107" style="stroke:#3da44d; stroke-width:4.9152; stroke-opacity:1"/>
<line clip-path="url(#clip920)" x1="1773.21" y1="246.107" x2="1773.21" y2="271.707" style="stroke:#3da44d; stroke-width:4.9152; stroke-opacity:1"/>
<line clip-path="url(#clip920)" x1="1773.21" y1="246.107" x2="1798.81" y2="246.107" style="stroke:#3da44d; stroke-width:4.9152; stroke-opacity:1"/>
<path clip-path="url(#clip920)" d="M1890.19 231.489 L1890.19 236.42 Q1887.82 234.221 1885.14 233.133 Q1882.48 232.045 1879.47 232.045 Q1873.54 232.045 1870.39 235.679 Q1867.25 239.29 1867.25 246.142 Q1867.25 252.971 1870.39 256.605 Q1873.54 260.216 1879.47 260.216 Q1882.48 260.216 1885.14 259.128 Q1887.82 258.04 1890.19 255.841 L1890.19 260.725 Q1887.73 262.392 1884.98 263.225 Q1882.25 264.058 1879.19 264.058 Q1871.34 264.058 1866.83 259.267 Q1862.32 254.452 1862.32 246.142 Q1862.32 237.809 1866.83 233.017 Q1871.34 228.202 1879.19 228.202 Q1882.29 228.202 1885.02 229.036 Q1887.78 229.846 1890.19 231.489 Z" fill="#000000" fill-rule="evenodd" fill-opacity="1" /><path clip-path="url(#clip920)" d="M1906.32 263.387 L1893.13 228.827 L1898.01 228.827 L1908.96 257.924 L1919.93 228.827 L1924.79 228.827 L1911.62 263.387 L1906.32 263.387 Z" fill="#000000" fill-rule="evenodd" fill-opacity="1" /><path clip-path="url(#clip920)" d="M1943.03 231.998 Q1937.94 231.998 1934.93 235.795 Q1931.94 239.591 1931.94 246.142 Q1931.94 252.67 1934.93 256.466 Q1937.94 260.262 1943.03 260.262 Q1948.13 260.262 1951.09 256.466 Q1954.07 252.67 1954.07 246.142 Q1954.07 239.591 1951.09 235.795 Q1948.13 231.998 1943.03 231.998 M1943.03 228.202 Q1950.3 228.202 1954.65 233.086 Q1959 237.948 1959 246.142 Q1959 254.313 1954.65 259.197 Q1950.3 264.058 1943.03 264.058 Q1935.74 264.058 1931.37 259.197 Q1927.01 254.336 1927.01 246.142 Q1927.01 237.948 1931.37 233.086 Q1935.74 228.202 1943.03 228.202 Z" fill="#000000" fill-rule="evenodd" fill-opacity="1" /><path clip-path="url(#clip920)" d="M1971 232.67 L1971 259.545 L1976.64 259.545 Q1983.8 259.545 1987.11 256.304 Q1990.44 253.063 1990.44 246.072 Q1990.44 239.128 1987.11 235.91 Q1983.8 232.67 1976.64 232.67 L1971 232.67 M1966.32 228.827 L1975.93 228.827 Q1985.97 228.827 1990.67 233.017 Q1995.37 237.184 1995.37 246.072 Q1995.37 255.008 1990.65 259.197 Q1985.93 263.387 1975.93 263.387 L1966.32 263.387 L1966.32 228.827 Z" fill="#000000" fill-rule="evenodd" fill-opacity="1" /><path clip-path="url(#clip920)" d="M2002.82 228.827 L2024.68 228.827 L2024.68 232.762 L2007.5 232.762 L2007.5 242.994 L2023.96 242.994 L2023.96 246.929 L2007.5 246.929 L2007.5 259.452 L2025.09 259.452 L2025.09 263.387 L2002.82 263.387 L2002.82 228.827 Z" fill="#000000" fill-rule="evenodd" fill-opacity="1" /><path clip-path="url(#clip920)" d="M2052.29 271.258 L2052.29 274.568 L2027.66 274.568 L2027.66 271.258 L2052.29 271.258 Z" fill="#000000" fill-rule="evenodd" fill-opacity="1" /><path clip-path="url(#clip920)" d="M2061.16 246.883 L2061.16 259.545 L2068.66 259.545 Q2072.43 259.545 2074.24 257.994 Q2076.06 256.42 2076.06 253.202 Q2076.06 249.961 2074.24 248.434 Q2072.43 246.883 2068.66 246.883 L2061.16 246.883 M2061.16 232.67 L2061.16 243.086 L2068.08 243.086 Q2071.5 243.086 2073.17 241.813 Q2074.86 240.517 2074.86 237.878 Q2074.86 235.262 2073.17 233.966 Q2071.5 232.67 2068.08 232.67 L2061.16 232.67 M2056.48 228.827 L2068.43 228.827 Q2073.77 228.827 2076.67 231.049 Q2079.56 233.272 2079.56 237.369 Q2079.56 240.54 2078.08 242.415 Q2076.6 244.29 2073.73 244.753 Q2077.18 245.494 2079.07 247.855 Q2081 250.193 2081 253.711 Q2081 258.341 2077.85 260.864 Q2074.7 263.387 2068.89 263.387 L2056.48 263.387 L2056.48 228.827 Z" fill="#000000" fill-rule="evenodd" fill-opacity="1" /><path clip-path="url(#clip920)" d="M2093.68 232.67 L2093.68 259.545 L2099.33 259.545 Q2106.48 259.545 2109.79 256.304 Q2113.12 253.063 2113.12 246.072 Q2113.12 239.128 2109.79 235.91 Q2106.48 232.67 2099.33 232.67 L2093.68 232.67 M2089 228.827 L2098.61 228.827 Q2108.66 228.827 2113.36 233.017 Q2118.06 237.184 2118.06 246.072 Q2118.06 255.008 2113.33 259.197 Q2108.61 263.387 2098.61 263.387 L2089 263.387 L2089 228.827 Z" fill="#000000" fill-rule="evenodd" fill-opacity="1" /><path clip-path="url(#clip920)" d="M2125.51 228.827 L2145.37 228.827 L2145.37 232.762 L2130.18 232.762 L2130.18 242.947 L2143.89 242.947 L2143.89 246.883 L2130.18 246.883 L2130.18 263.387 L2125.51 263.387 L2125.51 228.827 Z" fill="#000000" fill-rule="evenodd" fill-opacity="1" /><polyline clip-path="url(#clip920)" style="stroke:#c271d2; stroke-linecap:butt; stroke-linejoin:round; stroke-width:4; stroke-opacity:1; fill:none" points="
  1706.37,297.947 1840.04,297.947 
  "/>
<path clip-path="url(#clip920)" d="M1773.21 272.347 L1747.61 297.947 L1773.21 323.547 L1798.81 297.947 L1773.21 272.347 Z" fill="#c271d2" fill-rule="evenodd" fill-opacity="1" stroke="#000000" stroke-opacity="1" stroke-width="4.9152"/>
<path clip-path="url(#clip920)" d="M1881.23 293.237 L1881.23 279.209 L1885.49 279.209 L1885.49 315.227 L1881.23 315.227 L1881.23 311.338 Q1879.88 313.653 1877.82 314.787 Q1875.79 315.898 1872.92 315.898 Q1868.22 315.898 1865.26 312.148 Q1862.32 308.399 1862.32 302.287 Q1862.32 296.176 1865.26 292.426 Q1868.22 288.676 1872.92 288.676 Q1875.79 288.676 1877.82 289.811 Q1879.88 290.922 1881.23 293.237 M1866.71 302.287 Q1866.71 306.986 1868.64 309.672 Q1870.58 312.334 1873.96 312.334 Q1877.34 312.334 1879.28 309.672 Q1881.23 306.986 1881.23 302.287 Q1881.23 297.588 1879.28 294.926 Q1877.34 292.241 1873.96 292.241 Q1870.58 292.241 1868.64 294.926 Q1866.71 297.588 1866.71 302.287 Z" fill="#000000" fill-rule="evenodd" fill-opacity="1" /><path clip-path="url(#clip920)" d="M1911.32 293.237 L1911.32 279.209 L1915.58 279.209 L1915.58 315.227 L1911.32 315.227 L1911.32 311.338 Q1909.98 313.653 1907.92 314.787 Q1905.88 315.898 1903.01 315.898 Q1898.31 315.898 1895.35 312.148 Q1892.41 308.399 1892.41 302.287 Q1892.41 296.176 1895.35 292.426 Q1898.31 288.676 1903.01 288.676 Q1905.88 288.676 1907.92 289.811 Q1909.98 290.922 1911.32 293.237 M1896.81 302.287 Q1896.81 306.986 1898.73 309.672 Q1900.67 312.334 1904.05 312.334 Q1907.43 312.334 1909.38 309.672 Q1911.32 306.986 1911.32 302.287 Q1911.32 297.588 1909.38 294.926 Q1907.43 292.241 1904.05 292.241 Q1900.67 292.241 1898.73 294.926 Q1896.81 297.588 1896.81 302.287 Z" fill="#000000" fill-rule="evenodd" fill-opacity="1" /><path clip-path="url(#clip920)" d="M1946.53 301.199 L1946.53 303.283 L1926.94 303.283 Q1927.22 307.681 1929.58 309.996 Q1931.97 312.287 1936.2 312.287 Q1938.66 312.287 1940.95 311.686 Q1943.26 311.084 1945.53 309.88 L1945.53 313.908 Q1943.24 314.88 1940.83 315.389 Q1938.43 315.898 1935.95 315.898 Q1929.75 315.898 1926.11 312.287 Q1922.5 308.676 1922.5 302.519 Q1922.5 296.153 1925.93 292.426 Q1929.38 288.676 1935.21 288.676 Q1940.44 288.676 1943.47 292.056 Q1946.53 295.412 1946.53 301.199 M1942.27 299.949 Q1942.22 296.454 1940.3 294.371 Q1938.4 292.287 1935.26 292.287 Q1931.69 292.287 1929.54 294.301 Q1927.41 296.315 1927.08 299.973 L1942.27 299.949 Z" fill="#000000" fill-rule="evenodd" fill-opacity="1" /><path clip-path="url(#clip920)" d="M1972.13 302.287 Q1972.13 297.588 1970.19 294.926 Q1968.26 292.241 1964.88 292.241 Q1961.5 292.241 1959.56 294.926 Q1957.64 297.588 1957.64 302.287 Q1957.64 306.986 1959.56 309.672 Q1961.5 312.334 1964.88 312.334 Q1968.26 312.334 1970.19 309.672 Q1972.13 306.986 1972.13 302.287 M1957.64 293.237 Q1958.98 290.922 1961.02 289.811 Q1963.08 288.676 1965.93 288.676 Q1970.65 288.676 1973.59 292.426 Q1976.55 296.176 1976.55 302.287 Q1976.55 308.399 1973.59 312.148 Q1970.65 315.898 1965.93 315.898 Q1963.08 315.898 1961.02 314.787 Q1958.98 313.653 1957.64 311.338 L1957.64 315.227 L1953.36 315.227 L1953.36 279.209 L1957.64 279.209 L1957.64 293.237 Z" fill="#000000" fill-rule="evenodd" fill-opacity="1" /><path clip-path="url(#clip920)" d="M2000.67 293.237 L2000.67 279.209 L2004.93 279.209 L2004.93 315.227 L2000.67 315.227 L2000.67 311.338 Q1999.33 313.653 1997.27 314.787 Q1995.23 315.898 1992.36 315.898 Q1987.66 315.898 1984.7 312.148 Q1981.76 308.399 1981.76 302.287 Q1981.76 296.176 1984.7 292.426 Q1987.66 288.676 1992.36 288.676 Q1995.23 288.676 1997.27 289.811 Q1999.33 290.922 2000.67 293.237 M1986.16 302.287 Q1986.16 306.986 1988.08 309.672 Q1990.02 312.334 1993.4 312.334 Q1996.78 312.334 1998.73 309.672 Q2000.67 306.986 2000.67 302.287 Q2000.67 297.588 1998.73 294.926 Q1996.78 292.241 1993.4 292.241 Q1990.02 292.241 1988.08 294.926 Q1986.16 297.588 1986.16 302.287 Z" fill="#000000" fill-rule="evenodd" fill-opacity="1" /><path clip-path="url(#clip920)" d="M2026.83 279.209 L2026.83 282.751 L2022.75 282.751 Q2020.46 282.751 2019.56 283.676 Q2018.68 284.602 2018.68 287.01 L2018.68 289.301 L2025.69 289.301 L2025.69 292.612 L2018.68 292.612 L2018.68 315.227 L2014.4 315.227 L2014.4 292.612 L2010.32 292.612 L2010.32 289.301 L2014.4 289.301 L2014.4 287.496 Q2014.4 283.167 2016.41 281.2 Q2018.43 279.209 2022.8 279.209 L2026.83 279.209 Z" fill="#000000" fill-rule="evenodd" fill-opacity="1" /><polyline clip-path="url(#clip920)" style="stroke:#ac8d18; stroke-linecap:butt; stroke-linejoin:round; stroke-width:4; stroke-opacity:1; fill:none" points="
  1706.37,349.787 1840.04,349.787 
  "/>
<path clip-path="url(#clip920)" d="M1798.81 324.187 L1747.61 324.187 L1773.21 375.387 L1798.81 324.187 Z" fill="#ac8d18" fill-rule="evenodd" fill-opacity="1" stroke="#000000" stroke-opacity="1" stroke-width="4.9152"/>
<path clip-path="url(#clip920)" d="M1878.7 350.864 Q1880.21 351.373 1881.62 353.039 Q1883.06 354.706 1884.49 357.623 L1889.24 367.067 L1884.21 367.067 L1879.79 358.201 Q1878.08 354.729 1876.46 353.595 Q1874.86 352.461 1872.08 352.461 L1866.99 352.461 L1866.99 367.067 L1862.32 367.067 L1862.32 332.507 L1872.87 332.507 Q1878.8 332.507 1881.71 334.984 Q1884.63 337.461 1884.63 342.461 Q1884.63 345.725 1883.1 347.877 Q1881.6 350.03 1878.7 350.864 M1866.99 336.35 L1866.99 348.618 L1872.87 348.618 Q1876.25 348.618 1877.96 347.067 Q1879.7 345.493 1879.7 342.461 Q1879.7 339.428 1877.96 337.901 Q1876.25 336.35 1872.87 336.35 L1866.99 336.35 Z" fill="#000000" fill-rule="evenodd" fill-opacity="1" /><path clip-path="url(#clip920)" d="M1902.99 344.127 Q1899.56 344.127 1897.57 346.813 Q1895.58 349.475 1895.58 354.127 Q1895.58 358.78 1897.55 361.465 Q1899.54 364.127 1902.99 364.127 Q1906.39 364.127 1908.38 361.442 Q1910.37 358.757 1910.37 354.127 Q1910.37 349.521 1908.38 346.836 Q1906.39 344.127 1902.99 344.127 M1902.99 340.516 Q1908.54 340.516 1911.71 344.127 Q1914.88 347.739 1914.88 354.127 Q1914.88 360.493 1911.71 364.127 Q1908.54 367.738 1902.99 367.738 Q1897.41 367.738 1894.24 364.127 Q1891.09 360.493 1891.09 354.127 Q1891.09 347.739 1894.24 344.127 Q1897.41 340.516 1902.99 340.516 Z" fill="#000000" fill-rule="evenodd" fill-opacity="1" /><path clip-path="url(#clip920)" d="M1939.01 345.077 L1939.01 331.049 L1943.26 331.049 L1943.26 367.067 L1939.01 367.067 L1939.01 363.178 Q1937.66 365.493 1935.6 366.627 Q1933.57 367.738 1930.69 367.738 Q1926 367.738 1923.03 363.988 Q1920.09 360.239 1920.09 354.127 Q1920.09 348.016 1923.03 344.266 Q1926 340.516 1930.69 340.516 Q1933.57 340.516 1935.6 341.651 Q1937.66 342.762 1939.01 345.077 M1924.49 354.127 Q1924.49 358.826 1926.41 361.512 Q1928.36 364.174 1931.74 364.174 Q1935.12 364.174 1937.06 361.512 Q1939.01 358.826 1939.01 354.127 Q1939.01 349.428 1937.06 346.766 Q1935.12 344.081 1931.74 344.081 Q1928.36 344.081 1926.41 346.766 Q1924.49 349.428 1924.49 354.127 Z" fill="#000000" fill-rule="evenodd" fill-opacity="1" /><path clip-path="url(#clip920)" d="M1963.82 354.035 Q1958.66 354.035 1956.67 355.215 Q1954.68 356.396 1954.68 359.243 Q1954.68 361.512 1956.16 362.854 Q1957.66 364.174 1960.23 364.174 Q1963.77 364.174 1965.9 361.674 Q1968.06 359.151 1968.06 354.984 L1968.06 354.035 L1963.82 354.035 M1972.32 352.276 L1972.32 367.067 L1968.06 367.067 L1968.06 363.132 Q1966.6 365.493 1964.42 366.627 Q1962.25 367.738 1959.1 367.738 Q1955.12 367.738 1952.75 365.516 Q1950.42 363.271 1950.42 359.521 Q1950.42 355.146 1953.33 352.924 Q1956.27 350.702 1962.08 350.702 L1968.06 350.702 L1968.06 350.285 Q1968.06 347.345 1966.11 345.748 Q1964.19 344.127 1960.69 344.127 Q1958.47 344.127 1956.37 344.66 Q1954.26 345.192 1952.32 346.257 L1952.32 342.322 Q1954.65 341.419 1956.85 340.979 Q1959.05 340.516 1961.13 340.516 Q1966.76 340.516 1969.54 343.433 Q1972.32 346.35 1972.32 352.276 Z" fill="#000000" fill-rule="evenodd" fill-opacity="1" /><path clip-path="url(#clip920)" d="M1997.62 341.905 L1997.62 345.933 Q1995.81 345.007 1993.87 344.544 Q1991.92 344.081 1989.84 344.081 Q1986.67 344.081 1985.07 345.053 Q1983.5 346.026 1983.5 347.97 Q1983.5 349.452 1984.63 350.308 Q1985.76 351.141 1989.19 351.905 L1990.65 352.229 Q1995.19 353.202 1997.08 354.984 Q1999 356.743 1999 359.914 Q1999 363.526 1996.13 365.632 Q1993.29 367.738 1988.29 367.738 Q1986.2 367.738 1983.94 367.322 Q1981.69 366.928 1979.19 366.118 L1979.19 361.72 Q1981.55 362.947 1983.84 363.572 Q1986.13 364.174 1988.38 364.174 Q1991.39 364.174 1993.01 363.155 Q1994.63 362.114 1994.63 360.239 Q1994.63 358.502 1993.45 357.576 Q1992.29 356.651 1988.33 355.794 L1986.85 355.447 Q1982.89 354.614 1981.13 352.901 Q1979.38 351.164 1979.38 348.155 Q1979.38 344.498 1981.97 342.507 Q1984.56 340.516 1989.33 340.516 Q1991.69 340.516 1993.77 340.864 Q1995.86 341.211 1997.62 341.905 Z" fill="#000000" fill-rule="evenodd" fill-opacity="1" /><path clip-path="url(#clip920)" d="M2019.24 336.581 L2007.43 355.03 L2019.24 355.03 L2019.24 336.581 M2018.01 332.507 L2023.89 332.507 L2023.89 355.03 L2028.82 355.03 L2028.82 358.919 L2023.89 358.919 L2023.89 367.067 L2019.24 367.067 L2019.24 358.919 L2003.63 358.919 L2003.63 354.405 L2018.01 332.507 Z" fill="#000000" fill-rule="evenodd" fill-opacity="1" /><polyline clip-path="url(#clip920)" style="stroke:#00a9ad; stroke-linecap:butt; stroke-linejoin:round; stroke-width:4; stroke-opacity:1; fill:none" points="
  1706.37,401.627 1840.04,401.627 
  "/>
<path clip-path="url(#clip920)" d="M1773.21 376.027 L1753.19 385.678 L1748.25 407.336 L1762.1 424.693 L1784.32 424.693 L1798.17 407.336 L1793.23 385.678 Z" fill="#00a9ad" fill-rule="evenodd" fill-opacity="1" stroke="#000000" stroke-opacity="1" stroke-width="4.9152"/>
<path clip-path="url(#clip920)" d="M1877.5 396.963 Q1876.78 396.546 1875.93 396.361 Q1875.09 396.153 1874.07 396.153 Q1870.46 396.153 1868.52 398.514 Q1866.6 400.852 1866.6 405.25 L1866.6 418.907 L1862.32 418.907 L1862.32 392.981 L1866.6 392.981 L1866.6 397.009 Q1867.94 394.648 1870.09 393.514 Q1872.25 392.356 1875.32 392.356 Q1875.76 392.356 1876.3 392.426 Q1876.83 392.472 1877.48 392.588 L1877.5 396.963 Z" fill="#000000" fill-rule="evenodd" fill-opacity="1" /><path clip-path="url(#clip920)" d="M1890.97 395.967 Q1887.55 395.967 1885.56 398.653 Q1883.57 401.315 1883.57 405.967 Q1883.57 410.62 1885.53 413.305 Q1887.52 415.967 1890.97 415.967 Q1894.38 415.967 1896.37 413.282 Q1898.36 410.597 1898.36 405.967 Q1898.36 401.361 1896.37 398.676 Q1894.38 395.967 1890.97 395.967 M1890.97 392.356 Q1896.53 392.356 1899.7 395.967 Q1902.87 399.579 1902.87 405.967 Q1902.87 412.333 1899.7 415.967 Q1896.53 419.578 1890.97 419.578 Q1885.39 419.578 1882.22 415.967 Q1879.07 412.333 1879.07 405.967 Q1879.07 399.579 1882.22 395.967 Q1885.39 392.356 1890.97 392.356 Z" fill="#000000" fill-rule="evenodd" fill-opacity="1" /><path clip-path="url(#clip920)" d="M1926.99 396.917 L1926.99 382.889 L1931.25 382.889 L1931.25 418.907 L1926.99 418.907 L1926.99 415.018 Q1925.65 417.333 1923.59 418.467 Q1921.55 419.578 1918.68 419.578 Q1913.98 419.578 1911.02 415.828 Q1908.08 412.079 1908.08 405.967 Q1908.08 399.856 1911.02 396.106 Q1913.98 392.356 1918.68 392.356 Q1921.55 392.356 1923.59 393.491 Q1925.65 394.602 1926.99 396.917 M1912.48 405.967 Q1912.48 410.666 1914.4 413.352 Q1916.34 416.014 1919.72 416.014 Q1923.1 416.014 1925.05 413.352 Q1926.99 410.666 1926.99 405.967 Q1926.99 401.268 1925.05 398.606 Q1923.1 395.921 1919.72 395.921 Q1916.34 395.921 1914.4 398.606 Q1912.48 401.268 1912.48 405.967 Z" fill="#000000" fill-rule="evenodd" fill-opacity="1" /><path clip-path="url(#clip920)" d="M1951.81 405.875 Q1946.64 405.875 1944.65 407.055 Q1942.66 408.236 1942.66 411.083 Q1942.66 413.352 1944.14 414.694 Q1945.65 416.014 1948.22 416.014 Q1951.76 416.014 1953.89 413.514 Q1956.04 410.991 1956.04 406.824 L1956.04 405.875 L1951.81 405.875 M1960.3 404.116 L1960.3 418.907 L1956.04 418.907 L1956.04 414.972 Q1954.58 417.333 1952.41 418.467 Q1950.23 419.578 1947.08 419.578 Q1943.1 419.578 1940.74 417.356 Q1938.4 415.111 1938.4 411.361 Q1938.4 406.986 1941.32 404.764 Q1944.26 402.542 1950.07 402.542 L1956.04 402.542 L1956.04 402.125 Q1956.04 399.185 1954.1 397.588 Q1952.18 395.967 1948.68 395.967 Q1946.46 395.967 1944.35 396.5 Q1942.25 397.032 1940.3 398.097 L1940.3 394.162 Q1942.64 393.259 1944.84 392.819 Q1947.04 392.356 1949.12 392.356 Q1954.75 392.356 1957.52 395.273 Q1960.3 398.19 1960.3 404.116 Z" fill="#000000" fill-rule="evenodd" fill-opacity="1" /><path clip-path="url(#clip920)" d="M1985.6 393.745 L1985.6 397.773 Q1983.8 396.847 1981.85 396.384 Q1979.91 395.921 1977.82 395.921 Q1974.65 395.921 1973.06 396.893 Q1971.48 397.866 1971.48 399.81 Q1971.48 401.292 1972.62 402.148 Q1973.75 402.981 1977.18 403.745 L1978.63 404.069 Q1983.17 405.042 1985.07 406.824 Q1986.99 408.583 1986.99 411.754 Q1986.99 415.366 1984.12 417.472 Q1981.27 419.578 1976.27 419.578 Q1974.19 419.578 1971.92 419.162 Q1969.68 418.768 1967.18 417.958 L1967.18 413.56 Q1969.54 414.787 1971.83 415.412 Q1974.12 416.014 1976.37 416.014 Q1979.38 416.014 1981 414.995 Q1982.62 413.954 1982.62 412.079 Q1982.62 410.342 1981.44 409.416 Q1980.28 408.491 1976.32 407.634 L1974.84 407.287 Q1970.88 406.454 1969.12 404.741 Q1967.36 403.004 1967.36 399.995 Q1967.36 396.338 1969.95 394.347 Q1972.55 392.356 1977.32 392.356 Q1979.68 392.356 1981.76 392.704 Q1983.84 393.051 1985.6 393.745 Z" fill="#000000" fill-rule="evenodd" fill-opacity="1" /><polyline clip-path="url(#clip920)" style="stroke:#ed5d92; stroke-linecap:butt; stroke-linejoin:round; stroke-width:4; stroke-opacity:1; fill:none" points="
  1706.37,453.467 1840.04,453.467 
  "/>
<path clip-path="url(#clip920)" d="M1773.21 479.067 L1751.04 466.267 L1751.04 440.667 L1773.21 427.867 L1795.38 440.667 L1795.38 466.267 Z" fill="#ed5d92" fill-rule="evenodd" fill-opacity="1" stroke="#000000" stroke-opacity="1" stroke-width="4.9152"/>
<path clip-path="url(#clip920)" d="M1862.32 434.729 L1866.57 434.729 L1866.57 470.747 L1862.32 470.747 L1862.32 434.729 Z" fill="#000000" fill-rule="evenodd" fill-opacity="1" /><path clip-path="url(#clip920)" d="M1892.01 445.585 L1892.01 449.613 Q1890.21 448.687 1888.26 448.224 Q1886.32 447.761 1884.24 447.761 Q1881.07 447.761 1879.47 448.733 Q1877.89 449.706 1877.89 451.65 Q1877.89 453.132 1879.03 453.988 Q1880.16 454.821 1883.59 455.585 L1885.05 455.909 Q1889.58 456.882 1891.48 458.664 Q1893.4 460.423 1893.4 463.594 Q1893.4 467.206 1890.53 469.312 Q1887.69 471.418 1882.69 471.418 Q1880.6 471.418 1878.33 471.002 Q1876.09 470.608 1873.59 469.798 L1873.59 465.4 Q1875.95 466.627 1878.24 467.252 Q1880.53 467.854 1882.78 467.854 Q1885.79 467.854 1887.41 466.835 Q1889.03 465.794 1889.03 463.919 Q1889.03 462.182 1887.85 461.256 Q1886.69 460.331 1882.73 459.474 L1881.25 459.127 Q1877.29 458.294 1875.53 456.581 Q1873.77 454.844 1873.77 451.835 Q1873.77 448.178 1876.37 446.187 Q1878.96 444.196 1883.73 444.196 Q1886.09 444.196 1888.17 444.544 Q1890.26 444.891 1892.01 445.585 Z" fill="#000000" fill-rule="evenodd" fill-opacity="1" /><path clip-path="url(#clip920)" d="M1910.23 447.807 Q1906.81 447.807 1904.82 450.493 Q1902.82 453.155 1902.82 457.807 Q1902.82 462.46 1904.79 465.145 Q1906.78 467.807 1910.23 467.807 Q1913.63 467.807 1915.63 465.122 Q1917.62 462.437 1917.62 457.807 Q1917.62 453.201 1915.63 450.516 Q1913.63 447.807 1910.23 447.807 M1910.23 444.196 Q1915.79 444.196 1918.96 447.807 Q1922.13 451.419 1922.13 457.807 Q1922.13 464.173 1918.96 467.807 Q1915.79 471.418 1910.23 471.418 Q1904.65 471.418 1901.48 467.807 Q1898.33 464.173 1898.33 457.807 Q1898.33 451.419 1901.48 447.807 Q1904.65 444.196 1910.23 444.196 Z" fill="#000000" fill-rule="evenodd" fill-opacity="1" /><path clip-path="url(#clip920)" d="M1946.25 448.757 L1946.25 434.729 L1950.51 434.729 L1950.51 470.747 L1946.25 470.747 L1946.25 466.858 Q1944.91 469.173 1942.85 470.307 Q1940.81 471.418 1937.94 471.418 Q1933.24 471.418 1930.28 467.668 Q1927.34 463.919 1927.34 457.807 Q1927.34 451.696 1930.28 447.946 Q1933.24 444.196 1937.94 444.196 Q1940.81 444.196 1942.85 445.331 Q1944.91 446.442 1946.25 448.757 M1931.74 457.807 Q1931.74 462.506 1933.66 465.192 Q1935.6 467.854 1938.98 467.854 Q1942.36 467.854 1944.31 465.192 Q1946.25 462.506 1946.25 457.807 Q1946.25 453.108 1944.31 450.446 Q1942.36 447.761 1938.98 447.761 Q1935.6 447.761 1933.66 450.446 Q1931.74 453.108 1931.74 457.807 Z" fill="#000000" fill-rule="evenodd" fill-opacity="1" /><path clip-path="url(#clip920)" d="M1971.07 457.715 Q1965.9 457.715 1963.91 458.895 Q1961.92 460.076 1961.92 462.923 Q1961.92 465.192 1963.4 466.534 Q1964.91 467.854 1967.48 467.854 Q1971.02 467.854 1973.15 465.354 Q1975.3 462.831 1975.3 458.664 L1975.3 457.715 L1971.07 457.715 M1979.56 455.956 L1979.56 470.747 L1975.3 470.747 L1975.3 466.812 Q1973.84 469.173 1971.67 470.307 Q1969.49 471.418 1966.34 471.418 Q1962.36 471.418 1960 469.196 Q1957.66 466.951 1957.66 463.201 Q1957.66 458.826 1960.58 456.604 Q1963.52 454.382 1969.33 454.382 L1975.3 454.382 L1975.3 453.965 Q1975.3 451.025 1973.36 449.428 Q1971.44 447.807 1967.94 447.807 Q1965.72 447.807 1963.61 448.34 Q1961.5 448.872 1959.56 449.937 L1959.56 446.002 Q1961.9 445.099 1964.1 444.659 Q1966.3 444.196 1968.38 444.196 Q1974 444.196 1976.78 447.113 Q1979.56 450.03 1979.56 455.956 Z" fill="#000000" fill-rule="evenodd" fill-opacity="1" /><polyline clip-path="url(#clip920)" style="stroke:#c68125; stroke-linecap:butt; stroke-linejoin:round; stroke-width:4; stroke-opacity:1; fill:none" points="
  1706.37,505.307 1840.04,505.307 
  "/>
<line clip-path="url(#clip920)" x1="1798.81" y1="505.307" x2="1747.61" y2="505.307" style="stroke:#c68125; stroke-width:4.9152; stroke-opacity:1"/>
<path clip-path="url(#clip920)" d="M1877.5 500.643 Q1876.78 500.226 1875.93 500.041 Q1875.09 499.833 1874.07 499.833 Q1870.46 499.833 1868.52 502.194 Q1866.6 504.532 1866.6 508.93 L1866.6 522.587 L1862.32 522.587 L1862.32 496.661 L1866.6 496.661 L1866.6 500.689 Q1867.94 498.328 1870.09 497.194 Q1872.25 496.036 1875.32 496.036 Q1875.76 496.036 1876.3 496.106 Q1876.83 496.152 1877.48 496.268 L1877.5 500.643 Z" fill="#000000" fill-rule="evenodd" fill-opacity="1" /><path clip-path="url(#clip920)" d="M1893.75 509.555 Q1888.59 509.555 1886.6 510.735 Q1884.61 511.916 1884.61 514.763 Q1884.61 517.032 1886.09 518.374 Q1887.59 519.694 1890.16 519.694 Q1893.7 519.694 1895.83 517.194 Q1897.99 514.671 1897.99 510.504 L1897.99 509.555 L1893.75 509.555 M1902.25 507.796 L1902.25 522.587 L1897.99 522.587 L1897.99 518.652 Q1896.53 521.013 1894.35 522.147 Q1892.18 523.258 1889.03 523.258 Q1885.05 523.258 1882.69 521.036 Q1880.35 518.791 1880.35 515.041 Q1880.35 510.666 1883.26 508.444 Q1886.2 506.222 1892.01 506.222 L1897.99 506.222 L1897.99 505.805 Q1897.99 502.865 1896.04 501.268 Q1894.12 499.647 1890.63 499.647 Q1888.4 499.647 1886.3 500.18 Q1884.19 500.712 1882.25 501.777 L1882.25 497.842 Q1884.58 496.939 1886.78 496.499 Q1888.98 496.036 1891.07 496.036 Q1896.69 496.036 1899.47 498.953 Q1902.25 501.87 1902.25 507.796 Z" fill="#000000" fill-rule="evenodd" fill-opacity="1" /><path clip-path="url(#clip920)" d="M1928.08 500.597 L1928.08 486.569 L1932.34 486.569 L1932.34 522.587 L1928.08 522.587 L1928.08 518.698 Q1926.74 521.013 1924.68 522.147 Q1922.64 523.258 1919.77 523.258 Q1915.07 523.258 1912.11 519.508 Q1909.17 515.759 1909.17 509.647 Q1909.17 503.536 1912.11 499.786 Q1915.07 496.036 1919.77 496.036 Q1922.64 496.036 1924.68 497.171 Q1926.74 498.282 1928.08 500.597 M1913.57 509.647 Q1913.57 514.346 1915.49 517.032 Q1917.43 519.694 1920.81 519.694 Q1924.19 519.694 1926.13 517.032 Q1928.08 514.346 1928.08 509.647 Q1928.08 504.948 1926.13 502.286 Q1924.19 499.601 1920.81 499.601 Q1917.43 499.601 1915.49 502.286 Q1913.57 504.948 1913.57 509.647 Z" fill="#000000" fill-rule="evenodd" fill-opacity="1" /><path clip-path="url(#clip920)" d="M1952.89 509.555 Q1947.73 509.555 1945.74 510.735 Q1943.75 511.916 1943.75 514.763 Q1943.75 517.032 1945.23 518.374 Q1946.74 519.694 1949.31 519.694 Q1952.85 519.694 1954.98 517.194 Q1957.13 514.671 1957.13 510.504 L1957.13 509.555 L1952.89 509.555 M1961.39 507.796 L1961.39 522.587 L1957.13 522.587 L1957.13 518.652 Q1955.67 521.013 1953.5 522.147 Q1951.32 523.258 1948.17 523.258 Q1944.19 523.258 1941.83 521.036 Q1939.49 518.791 1939.49 515.041 Q1939.49 510.666 1942.41 508.444 Q1945.35 506.222 1951.16 506.222 L1957.13 506.222 L1957.13 505.805 Q1957.13 502.865 1955.19 501.268 Q1953.26 499.647 1949.77 499.647 Q1947.55 499.647 1945.44 500.18 Q1943.33 500.712 1941.39 501.777 L1941.39 497.842 Q1943.73 496.939 1945.93 496.499 Q1948.13 496.036 1950.21 496.036 Q1955.83 496.036 1958.61 498.953 Q1961.39 501.87 1961.39 507.796 Z" fill="#000000" fill-rule="evenodd" fill-opacity="1" /><path clip-path="url(#clip920)" d="M1969.72 512.356 L1969.72 496.661 L1973.98 496.661 L1973.98 512.194 Q1973.98 515.874 1975.42 517.726 Q1976.85 519.555 1979.72 519.555 Q1983.17 519.555 1985.16 517.356 Q1987.18 515.157 1987.18 511.36 L1987.18 496.661 L1991.44 496.661 L1991.44 522.587 L1987.18 522.587 L1987.18 518.606 Q1985.63 520.967 1983.56 522.124 Q1981.53 523.258 1978.82 523.258 Q1974.35 523.258 1972.04 520.481 Q1969.72 517.703 1969.72 512.356 M1980.44 496.036 L1980.44 496.036 Z" fill="#000000" fill-rule="evenodd" fill-opacity="1" /><polyline clip-path="url(#clip920)" style="stroke:#00a98d; stroke-linecap:butt; stroke-linejoin:round; stroke-width:4; stroke-opacity:1; fill:none" points="
  1706.37,557.147 1840.04,557.147 
  "/>
<path clip-path="url(#clip920)" d="M1752.73 557.147 L1783.45 575.067 L1783.45 539.227 L1752.73 557.147 Z" fill="#00a98d" fill-rule="evenodd" fill-opacity="1" stroke="#000000" stroke-opacity="1" stroke-width="4.9152"/>
<path clip-path="url(#clip920)" d="M1878.7 558.224 Q1880.21 558.733 1881.62 560.399 Q1883.06 562.066 1884.49 564.983 L1889.24 574.427 L1884.21 574.427 L1879.79 565.561 Q1878.08 562.089 1876.46 560.955 Q1874.86 559.821 1872.08 559.821 L1866.99 559.821 L1866.99 574.427 L1862.32 574.427 L1862.32 539.867 L1872.87 539.867 Q1878.8 539.867 1881.71 542.344 Q1884.63 544.821 1884.63 549.821 Q1884.63 553.085 1883.1 555.237 Q1881.6 557.39 1878.7 558.224 M1866.99 543.71 L1866.99 555.978 L1872.87 555.978 Q1876.25 555.978 1877.96 554.427 Q1879.7 552.853 1879.7 549.821 Q1879.7 546.788 1877.96 545.261 Q1876.25 543.71 1872.87 543.71 L1866.99 543.71 Z" fill="#000000" fill-rule="evenodd" fill-opacity="1" /><path clip-path="url(#clip920)" d="M1905.81 561.395 Q1900.65 561.395 1898.66 562.575 Q1896.67 563.756 1896.67 566.603 Q1896.67 568.872 1898.15 570.214 Q1899.65 571.534 1902.22 571.534 Q1905.76 571.534 1907.89 569.034 Q1910.05 566.511 1910.05 562.344 L1910.05 561.395 L1905.81 561.395 M1914.31 559.636 L1914.31 574.427 L1910.05 574.427 L1910.05 570.492 Q1908.59 572.853 1906.41 573.987 Q1904.24 575.098 1901.09 575.098 Q1897.11 575.098 1894.75 572.876 Q1892.41 570.631 1892.41 566.881 Q1892.41 562.506 1895.32 560.284 Q1898.26 558.062 1904.07 558.062 L1910.05 558.062 L1910.05 557.645 Q1910.05 554.705 1908.1 553.108 Q1906.18 551.487 1902.69 551.487 Q1900.46 551.487 1898.36 552.02 Q1896.25 552.552 1894.31 553.617 L1894.31 549.682 Q1896.64 548.779 1898.84 548.339 Q1901.04 547.876 1903.13 547.876 Q1908.75 547.876 1911.53 550.793 Q1914.31 553.71 1914.31 559.636 Z" fill="#000000" fill-rule="evenodd" fill-opacity="1" /><path clip-path="url(#clip920)" d="M1940.14 552.437 L1940.14 538.409 L1944.4 538.409 L1944.4 574.427 L1940.14 574.427 L1940.14 570.538 Q1938.8 572.853 1936.74 573.987 Q1934.7 575.098 1931.83 575.098 Q1927.13 575.098 1924.17 571.348 Q1921.23 567.599 1921.23 561.487 Q1921.23 555.376 1924.17 551.626 Q1927.13 547.876 1931.83 547.876 Q1934.7 547.876 1936.74 549.011 Q1938.8 550.122 1940.14 552.437 M1925.63 561.487 Q1925.63 566.186 1927.55 568.872 Q1929.49 571.534 1932.87 571.534 Q1936.25 571.534 1938.19 568.872 Q1940.14 566.186 1940.14 561.487 Q1940.14 556.788 1938.19 554.126 Q1936.25 551.441 1932.87 551.441 Q1929.49 551.441 1927.55 554.126 Q1925.63 556.788 1925.63 561.487 Z" fill="#000000" fill-rule="evenodd" fill-opacity="1" /><path clip-path="url(#clip920)" d="M1964.95 561.395 Q1959.79 561.395 1957.8 562.575 Q1955.81 563.756 1955.81 566.603 Q1955.81 568.872 1957.29 570.214 Q1958.8 571.534 1961.37 571.534 Q1964.91 571.534 1967.04 569.034 Q1969.19 566.511 1969.19 562.344 L1969.19 561.395 L1964.95 561.395 M1973.45 559.636 L1973.45 574.427 L1969.19 574.427 L1969.19 570.492 Q1967.73 572.853 1965.56 573.987 Q1963.38 575.098 1960.23 575.098 Q1956.25 575.098 1953.89 572.876 Q1951.55 570.631 1951.55 566.881 Q1951.55 562.506 1954.47 560.284 Q1957.41 558.062 1963.22 558.062 L1969.19 558.062 L1969.19 557.645 Q1969.19 554.705 1967.25 553.108 Q1965.32 551.487 1961.83 551.487 Q1959.61 551.487 1957.5 552.02 Q1955.39 552.552 1953.45 553.617 L1953.45 549.682 Q1955.79 548.779 1957.99 548.339 Q1960.19 547.876 1962.27 547.876 Q1967.89 547.876 1970.67 550.793 Q1973.45 553.71 1973.45 559.636 Z" fill="#000000" fill-rule="evenodd" fill-opacity="1" /><path clip-path="url(#clip920)" d="M1981.78 564.196 L1981.78 548.501 L1986.04 548.501 L1986.04 564.034 Q1986.04 567.714 1987.48 569.566 Q1988.91 571.395 1991.78 571.395 Q1995.23 571.395 1997.22 569.196 Q1999.24 566.997 1999.24 563.2 L1999.24 548.501 L2003.5 548.501 L2003.5 574.427 L1999.24 574.427 L1999.24 570.446 Q1997.69 572.807 1995.63 573.964 Q1993.59 575.098 1990.88 575.098 Q1986.41 575.098 1984.1 572.321 Q1981.78 569.543 1981.78 564.196 M1992.5 547.876 L1992.5 547.876 Z" fill="#000000" fill-rule="evenodd" fill-opacity="1" /><path clip-path="url(#clip920)" d="M2012.45 539.867 L2017.13 539.867 L2017.13 574.427 L2012.45 574.427 L2012.45 539.867 Z" fill="#000000" fill-rule="evenodd" fill-opacity="1" /><path clip-path="url(#clip920)" d="M2026.44 539.867 L2031.11 539.867 L2031.11 574.427 L2026.44 574.427 L2026.44 539.867 Z" fill="#000000" fill-rule="evenodd" fill-opacity="1" /><path clip-path="url(#clip920)" d="M2051.97 544.474 L2045.62 561.673 L2058.33 561.673 L2051.97 544.474 M2049.33 539.867 L2054.63 539.867 L2067.8 574.427 L2062.94 574.427 L2059.79 565.561 L2044.21 565.561 L2041.06 574.427 L2036.13 574.427 L2049.33 539.867 Z" fill="#000000" fill-rule="evenodd" fill-opacity="1" /><path clip-path="url(#clip920)" d="M2073.31 539.867 L2091.67 539.867 L2091.67 543.802 L2077.59 543.802 L2077.59 552.275 Q2078.61 551.927 2079.63 551.765 Q2080.65 551.58 2081.67 551.58 Q2087.45 551.58 2090.83 554.751 Q2094.21 557.923 2094.21 563.339 Q2094.21 568.918 2090.74 572.02 Q2087.27 575.098 2080.95 575.098 Q2078.77 575.098 2076.5 574.728 Q2074.26 574.358 2071.85 573.617 L2071.85 568.918 Q2073.93 570.052 2076.16 570.608 Q2078.38 571.163 2080.86 571.163 Q2084.86 571.163 2087.2 569.057 Q2089.54 566.95 2089.54 563.339 Q2089.54 559.728 2087.2 557.622 Q2084.86 555.515 2080.86 555.515 Q2078.98 555.515 2077.11 555.932 Q2075.25 556.349 2073.31 557.228 L2073.31 539.867 Z" fill="#000000" fill-rule="evenodd" fill-opacity="1" /></svg>
