<?xml version="1.0" encoding="utf-8"?>
<svg xmlns="http://www.w3.org/2000/svg" xmlns:xlink="http://www.w3.org/1999/xlink" width="576" height="384" viewBox="0 0 2304 1536">
<defs>
  <clipPath id="clip040">
    <rect x="0" y="0" width="2304" height="1536"/>
  </clipPath>
</defs>
<path clip-path="url(#clip040)" d="
M0 1536 L2304 1536 L2304 0 L0 0  Z
  " fill="#ffffff" fill-rule="evenodd" fill-opacity="1"/>
<defs>
  <clipPath id="clip041">
    <rect x="460" y="0" width="1614" height="1536"/>
  </clipPath>
</defs>
<path clip-path="url(#clip040)" d="
M312.666 1347.54 L2256.76 1347.54 L2256.76 47.2441 L312.666 47.2441  Z
  " fill="#ffffff" fill-rule="evenodd" fill-opacity="1"/>
<defs>
  <clipPath id="clip042">
    <rect x="312" y="47" width="1945" height="1301"/>
  </clipPath>
</defs>
<polyline clip-path="url(#clip042)" style="stroke:#000000; stroke-linecap:butt; stroke-linejoin:round; stroke-width:2; stroke-opacity:0.1; fill:none" points="
  786.611,1347.54 786.611,47.2441 
  "/>
<polyline clip-path="url(#clip042)" style="stroke:#000000; stroke-linecap:butt; stroke-linejoin:round; stroke-width:2; stroke-opacity:0.1; fill:none" points="
  1561.68,1347.54 1561.68,47.2441 
  "/>
<polyline clip-path="url(#clip040)" style="stroke:#000000; stroke-linecap:butt; stroke-linejoin:round; stroke-width:4; stroke-opacity:1; fill:none" points="
  312.666,1347.54 2256.76,1347.54 
  "/>
<polyline clip-path="url(#clip040)" style="stroke:#000000; stroke-linecap:butt; stroke-linejoin:round; stroke-width:4; stroke-opacity:1; fill:none" points="
  786.611,1347.54 786.611,1328.64 
  "/>
<polyline clip-path="url(#clip040)" style="stroke:#000000; stroke-linecap:butt; stroke-linejoin:round; stroke-width:4; stroke-opacity:1; fill:none" points="
  1561.68,1347.54 1561.68,1328.64 
  "/>
<path clip-path="url(#clip040)" d="M724.623 1420.89 L732.262 1420.89 L732.262 1394.53 L723.952 1396.19 L723.952 1391.94 L732.216 1390.27 L736.892 1390.27 L736.892 1420.89 L744.53 1420.89 L744.53 1424.83 L724.623 1424.83 L724.623 1420.89 Z" fill="#000000" fill-rule="evenodd" fill-opacity="1" /><path clip-path="url(#clip040)" d="M763.975 1393.35 Q760.364 1393.35 758.535 1396.91 Q756.729 1400.45 756.729 1407.58 Q756.729 1414.69 758.535 1418.25 Q760.364 1421.8 763.975 1421.8 Q767.609 1421.8 769.415 1418.25 Q771.243 1414.69 771.243 1407.58 Q771.243 1400.45 769.415 1396.91 Q767.609 1393.35 763.975 1393.35 M763.975 1389.64 Q769.785 1389.64 772.84 1394.25 Q775.919 1398.83 775.919 1407.58 Q775.919 1416.31 772.84 1420.92 Q769.785 1425.5 763.975 1425.5 Q758.165 1425.5 755.086 1420.92 Q752.03 1416.31 752.03 1407.58 Q752.03 1398.83 755.086 1394.25 Q758.165 1389.64 763.975 1389.64 Z" fill="#000000" fill-rule="evenodd" fill-opacity="1" /><path clip-path="url(#clip040)" d="M775.919 1383.74 L800.031 1383.74 L800.031 1386.94 L775.919 1386.94 L775.919 1383.74 Z" fill="#000000" fill-rule="evenodd" fill-opacity="1" /><path clip-path="url(#clip040)" d="M808.889 1394.22 L815.096 1394.22 L815.096 1372.8 L808.344 1374.15 L808.344 1370.69 L815.058 1369.34 L818.857 1369.34 L818.857 1394.22 L825.064 1394.22 L825.064 1397.42 L808.889 1397.42 L808.889 1394.22 Z" fill="#000000" fill-rule="evenodd" fill-opacity="1" /><path clip-path="url(#clip040)" d="M836.01 1394.22 L849.269 1394.22 L849.269 1397.42 L831.44 1397.42 L831.44 1394.22 Q833.603 1391.98 837.326 1388.22 Q841.069 1384.44 842.028 1383.35 Q843.853 1381.3 844.567 1379.89 Q845.301 1378.46 845.301 1377.09 Q845.301 1374.85 843.721 1373.44 Q842.16 1372.03 839.64 1372.03 Q837.853 1372.03 835.859 1372.65 Q833.885 1373.27 831.628 1374.53 L831.628 1370.69 Q833.922 1369.77 835.916 1369.3 Q837.91 1368.83 839.565 1368.83 Q843.928 1368.83 846.523 1371.01 Q849.119 1373.19 849.119 1376.84 Q849.119 1378.57 848.461 1380.13 Q847.821 1381.68 846.11 1383.78 Q845.64 1384.33 843.119 1386.94 Q840.599 1389.54 836.01 1394.22 Z" fill="#000000" fill-rule="evenodd" fill-opacity="1" /><path clip-path="url(#clip040)" d="M1499.05 1420.89 L1506.69 1420.89 L1506.69 1394.53 L1498.38 1396.19 L1498.38 1391.94 L1506.64 1390.27 L1511.32 1390.27 L1511.32 1420.89 L1518.96 1420.89 L1518.96 1424.83 L1499.05 1424.83 L1499.05 1420.89 Z" fill="#000000" fill-rule="evenodd" fill-opacity="1" /><path clip-path="url(#clip040)" d="M1538.4 1393.35 Q1534.79 1393.35 1532.96 1396.91 Q1531.15 1400.45 1531.15 1407.58 Q1531.15 1414.69 1532.96 1418.25 Q1534.79 1421.8 1538.4 1421.8 Q1542.03 1421.8 1543.84 1418.25 Q1545.67 1414.69 1545.67 1407.58 Q1545.67 1400.45 1543.84 1396.91 Q1542.03 1393.35 1538.4 1393.35 M1538.4 1389.64 Q1544.21 1389.64 1547.27 1394.25 Q1550.34 1398.83 1550.34 1407.58 Q1550.34 1416.31 1547.27 1420.92 Q1544.21 1425.5 1538.4 1425.5 Q1532.59 1425.5 1529.51 1420.92 Q1526.46 1416.31 1526.46 1407.58 Q1526.46 1398.83 1529.51 1394.25 Q1532.59 1389.64 1538.4 1389.64 Z" fill="#000000" fill-rule="evenodd" fill-opacity="1" /><path clip-path="url(#clip040)" d="M1550.34 1383.74 L1574.46 1383.74 L1574.46 1386.94 L1550.34 1386.94 L1550.34 1383.74 Z" fill="#000000" fill-rule="evenodd" fill-opacity="1" /><path clip-path="url(#clip040)" d="M1583.31 1394.22 L1589.52 1394.22 L1589.52 1372.8 L1582.77 1374.15 L1582.77 1370.69 L1589.48 1369.34 L1593.28 1369.34 L1593.28 1394.22 L1599.49 1394.22 L1599.49 1397.42 L1583.31 1397.42 L1583.31 1394.22 Z" fill="#000000" fill-rule="evenodd" fill-opacity="1" /><path clip-path="url(#clip040)" d="M1615.29 1371.84 Q1612.35 1371.84 1610.87 1374.74 Q1609.4 1377.61 1609.4 1383.41 Q1609.4 1389.18 1610.87 1392.08 Q1612.35 1394.95 1615.29 1394.95 Q1618.24 1394.95 1619.71 1392.08 Q1621.19 1389.18 1621.19 1383.41 Q1621.19 1377.61 1619.71 1374.74 Q1618.24 1371.84 1615.29 1371.84 M1615.29 1368.83 Q1620.01 1368.83 1622.49 1372.57 Q1624.99 1376.3 1624.99 1383.41 Q1624.99 1390.5 1622.49 1394.24 Q1620.01 1397.96 1615.29 1397.96 Q1610.57 1397.96 1608.06 1394.24 Q1605.58 1390.5 1605.58 1383.41 Q1605.58 1376.3 1608.06 1372.57 Q1610.57 1368.83 1615.29 1368.83 Z" fill="#000000" fill-rule="evenodd" fill-opacity="1" /><path clip-path="url(#clip040)" d="M1208.47 1461.87 L1238.51 1461.87 L1238.51 1467.28 L1214.9 1467.28 L1214.9 1481.34 L1237.53 1481.34 L1237.53 1486.76 L1214.9 1486.76 L1214.9 1503.97 L1239.08 1503.97 L1239.08 1509.39 L1208.47 1509.39 L1208.47 1461.87 Z" fill="#000000" fill-rule="evenodd" fill-opacity="1" /><path clip-path="url(#clip040)" d="M1270.05 1479.21 Q1269.07 1478.64 1267.89 1478.38 Q1266.74 1478.1 1265.34 1478.1 Q1260.38 1478.1 1257.7 1481.34 Q1255.06 1484.56 1255.06 1490.61 L1255.06 1509.39 L1249.17 1509.39 L1249.17 1473.74 L1255.06 1473.74 L1255.06 1479.28 Q1256.91 1476.03 1259.87 1474.47 Q1262.83 1472.88 1267.06 1472.88 Q1267.67 1472.88 1268.4 1472.97 Q1269.13 1473.04 1270.02 1473.2 L1270.05 1479.21 Z" fill="#000000" fill-rule="evenodd" fill-opacity="1" /><path clip-path="url(#clip040)" d="M1295.71 1479.21 Q1294.72 1478.64 1293.54 1478.38 Q1292.4 1478.1 1291 1478.1 Q1286.03 1478.1 1283.36 1481.34 Q1280.72 1484.56 1280.72 1490.61 L1280.72 1509.39 L1274.83 1509.39 L1274.83 1473.74 L1280.72 1473.74 L1280.72 1479.28 Q1282.56 1476.03 1285.52 1474.47 Q1288.48 1472.88 1292.72 1472.88 Q1293.32 1472.88 1294.05 1472.97 Q1294.78 1473.04 1295.68 1473.2 L1295.71 1479.21 Z" fill="#000000" fill-rule="evenodd" fill-opacity="1" /><path clip-path="url(#clip040)" d="M1314.23 1477.84 Q1309.52 1477.84 1306.78 1481.54 Q1304.05 1485.2 1304.05 1491.59 Q1304.05 1497.99 1306.75 1501.68 Q1309.49 1505.34 1314.23 1505.34 Q1318.91 1505.34 1321.65 1501.65 Q1324.39 1497.96 1324.39 1491.59 Q1324.39 1485.26 1321.65 1481.57 Q1318.91 1477.84 1314.23 1477.84 M1314.23 1472.88 Q1321.87 1472.88 1326.23 1477.84 Q1330.59 1482.81 1330.59 1491.59 Q1330.59 1500.35 1326.23 1505.34 Q1321.87 1510.31 1314.23 1510.31 Q1306.56 1510.31 1302.2 1505.34 Q1297.87 1500.35 1297.87 1491.59 Q1297.87 1482.81 1302.2 1477.84 Q1306.56 1472.88 1314.23 1472.88 Z" fill="#000000" fill-rule="evenodd" fill-opacity="1" /><path clip-path="url(#clip040)" d="M1360.96 1479.21 Q1359.97 1478.64 1358.79 1478.38 Q1357.65 1478.1 1356.25 1478.1 Q1351.28 1478.1 1348.61 1481.34 Q1345.96 1484.56 1345.96 1490.61 L1345.96 1509.39 L1340.08 1509.39 L1340.08 1473.74 L1345.96 1473.74 L1345.96 1479.28 Q1347.81 1476.03 1350.77 1474.47 Q1353.73 1472.88 1357.96 1472.88 Q1358.57 1472.88 1359.3 1472.97 Q1360.03 1473.04 1360.92 1473.2 L1360.96 1479.21 Z" fill="#000000" fill-rule="evenodd" fill-opacity="1" /><polyline clip-path="url(#clip042)" style="stroke:#000000; stroke-linecap:butt; stroke-linejoin:round; stroke-width:2; stroke-opacity:0.1; fill:none" points="
  312.666,1030.92 2256.76,1030.92 
  "/>
<polyline clip-path="url(#clip042)" style="stroke:#000000; stroke-linecap:butt; stroke-linejoin:round; stroke-width:2; stroke-opacity:0.1; fill:none" points="
  312.666,675.787 2256.76,675.787 
  "/>
<polyline clip-path="url(#clip042)" style="stroke:#000000; stroke-linecap:butt; stroke-linejoin:round; stroke-width:2; stroke-opacity:0.1; fill:none" points="
  312.666,320.658 2256.76,320.658 
  "/>
<polyline clip-path="url(#clip040)" style="stroke:#000000; stroke-linecap:butt; stroke-linejoin:round; stroke-width:4; stroke-opacity:1; fill:none" points="
  312.666,1347.54 312.666,47.2441 
  "/>
<polyline clip-path="url(#clip040)" style="stroke:#000000; stroke-linecap:butt; stroke-linejoin:round; stroke-width:4; stroke-opacity:1; fill:none" points="
  312.666,1030.92 331.564,1030.92 
  "/>
<polyline clip-path="url(#clip040)" style="stroke:#000000; stroke-linecap:butt; stroke-linejoin:round; stroke-width:4; stroke-opacity:1; fill:none" points="
  312.666,675.787 331.564,675.787 
  "/>
<polyline clip-path="url(#clip040)" style="stroke:#000000; stroke-linecap:butt; stroke-linejoin:round; stroke-width:4; stroke-opacity:1; fill:none" points="
  312.666,320.658 331.564,320.658 
  "/>
<path clip-path="url(#clip040)" d="M115.411 1050.71 L123.05 1050.71 L123.05 1024.34 L114.74 1026.01 L114.74 1021.75 L123.004 1020.08 L127.68 1020.08 L127.68 1050.71 L135.319 1050.71 L135.319 1054.64 L115.411 1054.64 L115.411 1050.71 Z" fill="#000000" fill-rule="evenodd" fill-opacity="1" /><path clip-path="url(#clip040)" d="M154.763 1023.16 Q151.152 1023.16 149.323 1026.73 Q147.518 1030.27 147.518 1037.4 Q147.518 1044.51 149.323 1048.07 Q151.152 1051.61 154.763 1051.61 Q158.397 1051.61 160.203 1048.07 Q162.032 1044.51 162.032 1037.4 Q162.032 1030.27 160.203 1026.73 Q158.397 1023.16 154.763 1023.16 M154.763 1019.46 Q160.573 1019.46 163.629 1024.07 Q166.707 1028.65 166.707 1037.4 Q166.707 1046.13 163.629 1050.73 Q160.573 1055.32 154.763 1055.32 Q148.953 1055.32 145.874 1050.73 Q142.819 1046.13 142.819 1037.4 Q142.819 1028.65 145.874 1024.07 Q148.953 1019.46 154.763 1019.46 Z" fill="#000000" fill-rule="evenodd" fill-opacity="1" /><path clip-path="url(#clip040)" d="M166.707 1013.56 L190.819 1013.56 L190.819 1016.76 L166.707 1016.76 L166.707 1013.56 Z" fill="#000000" fill-rule="evenodd" fill-opacity="1" /><path clip-path="url(#clip040)" d="M210.53 1012.09 Q213.257 1012.68 214.78 1014.52 Q216.322 1016.36 216.322 1019.07 Q216.322 1023.23 213.464 1025.5 Q210.605 1027.78 205.339 1027.78 Q203.571 1027.78 201.69 1027.42 Q199.828 1027.08 197.834 1026.39 L197.834 1022.72 Q199.414 1023.64 201.295 1024.11 Q203.176 1024.58 205.226 1024.58 Q208.799 1024.58 210.661 1023.17 Q212.542 1021.76 212.542 1019.07 Q212.542 1016.59 210.793 1015.2 Q209.063 1013.79 205.959 1013.79 L202.687 1013.79 L202.687 1010.66 L206.11 1010.66 Q208.912 1010.66 210.398 1009.56 Q211.884 1008.43 211.884 1006.32 Q211.884 1004.16 210.341 1003.01 Q208.818 1001.84 205.959 1001.84 Q204.398 1001.84 202.612 1002.18 Q200.825 1002.52 198.681 1003.24 L198.681 999.85 Q200.844 999.249 202.724 998.948 Q204.624 998.647 206.298 998.647 Q210.624 998.647 213.144 1000.62 Q215.664 1002.58 215.664 1005.93 Q215.664 1008.26 214.329 1009.87 Q212.993 1011.47 210.53 1012.09 Z" fill="#000000" fill-rule="evenodd" fill-opacity="1" /><path clip-path="url(#clip040)" d="M223.526 1022.46 L227.494 1022.46 L227.494 1027.23 L223.526 1027.23 L223.526 1022.46 Z" fill="#000000" fill-rule="evenodd" fill-opacity="1" /><path clip-path="url(#clip040)" d="M235.807 999.154 L250.722 999.154 L250.722 1002.35 L239.287 1002.35 L239.287 1009.24 Q240.114 1008.95 240.942 1008.82 Q241.769 1008.67 242.597 1008.67 Q247.299 1008.67 250.045 1011.25 Q252.791 1013.82 252.791 1018.23 Q252.791 1022.76 249.969 1025.28 Q247.148 1027.78 242.014 1027.78 Q240.246 1027.78 238.403 1027.48 Q236.578 1027.18 234.622 1026.58 L234.622 1022.76 Q236.315 1023.68 238.121 1024.13 Q239.926 1024.58 241.939 1024.58 Q245.192 1024.58 247.092 1022.87 Q248.991 1021.16 248.991 1018.23 Q248.991 1015.29 247.092 1013.58 Q245.192 1011.87 241.939 1011.87 Q240.415 1011.87 238.892 1012.21 Q237.387 1012.55 235.807 1013.26 L235.807 999.154 Z" fill="#000000" fill-rule="evenodd" fill-opacity="1" /><path clip-path="url(#clip040)" d="M268.401 1001.66 Q265.467 1001.66 263.981 1004.55 Q262.514 1007.43 262.514 1013.22 Q262.514 1019 263.981 1021.89 Q265.467 1024.77 268.401 1024.77 Q271.354 1024.77 272.821 1021.89 Q274.307 1019 274.307 1013.22 Q274.307 1007.43 272.821 1004.55 Q271.354 1001.66 268.401 1001.66 M268.401 998.647 Q273.122 998.647 275.604 1002.39 Q278.106 1006.11 278.106 1013.22 Q278.106 1020.31 275.604 1024.06 Q273.122 1027.78 268.401 1027.78 Q263.68 1027.78 261.179 1024.06 Q258.696 1020.31 258.696 1013.22 Q258.696 1006.11 261.179 1002.39 Q263.68 998.647 268.401 998.647 Z" fill="#000000" fill-rule="evenodd" fill-opacity="1" /><path clip-path="url(#clip040)" d="M116.22 695.58 L123.859 695.58 L123.859 669.214 L115.549 670.881 L115.549 666.622 L123.813 664.955 L128.489 664.955 L128.489 695.58 L136.127 695.58 L136.127 699.515 L116.22 699.515 L116.22 695.58 Z" fill="#000000" fill-rule="evenodd" fill-opacity="1" /><path clip-path="url(#clip040)" d="M155.572 668.034 Q151.961 668.034 150.132 671.599 Q148.326 675.14 148.326 682.27 Q148.326 689.376 150.132 692.941 Q151.961 696.483 155.572 696.483 Q159.206 696.483 161.012 692.941 Q162.84 689.376 162.84 682.27 Q162.84 675.14 161.012 671.599 Q159.206 668.034 155.572 668.034 M155.572 664.33 Q161.382 664.33 164.438 668.936 Q167.516 673.52 167.516 682.27 Q167.516 690.997 164.438 695.603 Q161.382 700.186 155.572 700.186 Q149.762 700.186 146.683 695.603 Q143.627 690.997 143.627 682.27 Q143.627 673.52 146.683 668.936 Q149.762 664.33 155.572 664.33 Z" fill="#000000" fill-rule="evenodd" fill-opacity="1" /><path clip-path="url(#clip040)" d="M167.516 658.431 L191.628 658.431 L191.628 661.629 L167.516 661.629 L167.516 658.431 Z" fill="#000000" fill-rule="evenodd" fill-opacity="1" /><path clip-path="url(#clip040)" d="M211.338 656.964 Q214.065 657.547 215.589 659.391 Q217.131 661.234 217.131 663.942 Q217.131 668.099 214.272 670.374 Q211.414 672.65 206.147 672.65 Q204.379 672.65 202.499 672.293 Q200.637 671.954 198.643 671.258 L198.643 667.591 Q200.223 668.512 202.104 668.983 Q203.984 669.453 206.035 669.453 Q209.608 669.453 211.47 668.042 Q213.351 666.632 213.351 663.942 Q213.351 661.459 211.602 660.068 Q209.871 658.657 206.768 658.657 L203.495 658.657 L203.495 655.535 L206.918 655.535 Q209.721 655.535 211.207 654.425 Q212.692 653.297 212.692 651.19 Q212.692 649.027 211.15 647.88 Q209.627 646.714 206.768 646.714 Q205.207 646.714 203.42 647.053 Q201.633 647.391 199.489 648.106 L199.489 644.721 Q201.652 644.119 203.533 643.818 Q205.433 643.517 207.107 643.517 Q211.432 643.517 213.953 645.492 Q216.473 647.448 216.473 650.795 Q216.473 653.128 215.137 654.745 Q213.802 656.344 211.338 656.964 Z" fill="#000000" fill-rule="evenodd" fill-opacity="1" /><path clip-path="url(#clip040)" d="M224.334 667.327 L228.303 667.327 L228.303 672.105 L224.334 672.105 L224.334 667.327 Z" fill="#000000" fill-rule="evenodd" fill-opacity="1" /><path clip-path="url(#clip040)" d="M239.851 668.907 L253.11 668.907 L253.11 672.105 L235.281 672.105 L235.281 668.907 Q237.443 666.669 241.167 662.908 Q244.91 659.127 245.869 658.036 Q247.694 655.986 248.408 654.576 Q249.142 653.146 249.142 651.773 Q249.142 649.535 247.562 648.125 Q246.001 646.714 243.481 646.714 Q241.694 646.714 239.7 647.335 Q237.726 647.955 235.469 649.216 L235.469 645.379 Q237.763 644.457 239.757 643.987 Q241.75 643.517 243.406 643.517 Q247.769 643.517 250.364 645.699 Q252.96 647.88 252.96 651.529 Q252.96 653.259 252.302 654.82 Q251.662 656.363 249.951 658.469 Q249.48 659.014 246.96 661.629 Q244.44 664.224 239.851 668.907 Z" fill="#000000" fill-rule="evenodd" fill-opacity="1" /><path clip-path="url(#clip040)" d="M261.122 644.025 L276.037 644.025 L276.037 647.222 L264.602 647.222 L264.602 654.106 Q265.429 653.823 266.257 653.692 Q267.085 653.541 267.912 653.541 Q272.614 653.541 275.36 656.118 Q278.106 658.695 278.106 663.096 Q278.106 667.628 275.285 670.149 Q272.464 672.65 267.329 672.65 Q265.561 672.65 263.718 672.349 Q261.894 672.048 259.938 671.446 L259.938 667.628 Q261.63 668.55 263.436 669.001 Q265.241 669.453 267.254 669.453 Q270.508 669.453 272.407 667.741 Q274.307 666.03 274.307 663.096 Q274.307 660.162 272.407 658.45 Q270.508 656.739 267.254 656.739 Q265.73 656.739 264.207 657.077 Q262.702 657.416 261.122 658.13 L261.122 644.025 Z" fill="#000000" fill-rule="evenodd" fill-opacity="1" /><path clip-path="url(#clip040)" d="M115.411 340.45 L123.05 340.45 L123.05 314.084 L114.74 315.751 L114.74 311.492 L123.004 309.825 L127.68 309.825 L127.68 340.45 L135.319 340.45 L135.319 344.385 L115.411 344.385 L115.411 340.45 Z" fill="#000000" fill-rule="evenodd" fill-opacity="1" /><path clip-path="url(#clip040)" d="M154.763 312.904 Q151.152 312.904 149.323 316.469 Q147.518 320.01 147.518 327.14 Q147.518 334.246 149.323 337.811 Q151.152 341.353 154.763 341.353 Q158.397 341.353 160.203 337.811 Q162.032 334.246 162.032 327.14 Q162.032 320.01 160.203 316.469 Q158.397 312.904 154.763 312.904 M154.763 309.2 Q160.573 309.2 163.629 313.807 Q166.707 318.39 166.707 327.14 Q166.707 335.867 163.629 340.473 Q160.573 345.056 154.763 345.056 Q148.953 345.056 145.874 340.473 Q142.819 335.867 142.819 327.14 Q142.819 318.39 145.874 313.807 Q148.953 309.2 154.763 309.2 Z" fill="#000000" fill-rule="evenodd" fill-opacity="1" /><path clip-path="url(#clip040)" d="M166.707 303.302 L190.819 303.302 L190.819 306.499 L166.707 306.499 L166.707 303.302 Z" fill="#000000" fill-rule="evenodd" fill-opacity="1" /><path clip-path="url(#clip040)" d="M210.53 301.835 Q213.257 302.418 214.78 304.261 Q216.322 306.104 216.322 308.812 Q216.322 312.969 213.464 315.244 Q210.605 317.52 205.339 317.52 Q203.571 317.52 201.69 317.163 Q199.828 316.824 197.834 316.128 L197.834 312.461 Q199.414 313.382 201.295 313.853 Q203.176 314.323 205.226 314.323 Q208.799 314.323 210.661 312.912 Q212.542 311.502 212.542 308.812 Q212.542 306.33 210.793 304.938 Q209.063 303.527 205.959 303.527 L202.687 303.527 L202.687 300.405 L206.11 300.405 Q208.912 300.405 210.398 299.295 Q211.884 298.167 211.884 296.061 Q211.884 293.898 210.341 292.75 Q208.818 291.584 205.959 291.584 Q204.398 291.584 202.612 291.923 Q200.825 292.261 198.681 292.976 L198.681 289.591 Q200.844 288.989 202.724 288.688 Q204.624 288.387 206.298 288.387 Q210.624 288.387 213.144 290.362 Q215.664 292.318 215.664 295.666 Q215.664 297.998 214.329 299.615 Q212.993 301.214 210.53 301.835 Z" fill="#000000" fill-rule="evenodd" fill-opacity="1" /><path clip-path="url(#clip040)" d="M223.526 312.198 L227.494 312.198 L227.494 316.975 L223.526 316.975 L223.526 312.198 Z" fill="#000000" fill-rule="evenodd" fill-opacity="1" /><path clip-path="url(#clip040)" d="M243.895 291.396 Q240.961 291.396 239.475 294.293 Q238.008 297.17 238.008 302.963 Q238.008 308.737 239.475 311.633 Q240.961 314.511 243.895 314.511 Q246.847 314.511 248.314 311.633 Q249.8 308.737 249.8 302.963 Q249.8 297.17 248.314 294.293 Q246.847 291.396 243.895 291.396 M243.895 288.387 Q248.615 288.387 251.098 292.13 Q253.599 295.854 253.599 302.963 Q253.599 310.053 251.098 313.796 Q248.615 317.52 243.895 317.52 Q239.174 317.52 236.672 313.796 Q234.19 310.053 234.19 302.963 Q234.19 295.854 236.672 292.13 Q239.174 288.387 243.895 288.387 Z" fill="#000000" fill-rule="evenodd" fill-opacity="1" /><path clip-path="url(#clip040)" d="M268.401 291.396 Q265.467 291.396 263.981 294.293 Q262.514 297.17 262.514 302.963 Q262.514 308.737 263.981 311.633 Q265.467 314.511 268.401 314.511 Q271.354 314.511 272.821 311.633 Q274.307 308.737 274.307 302.963 Q274.307 297.17 272.821 294.293 Q271.354 291.396 268.401 291.396 M268.401 288.387 Q273.122 288.387 275.604 292.13 Q278.106 295.854 278.106 302.963 Q278.106 310.053 275.604 313.796 Q273.122 317.52 268.401 317.52 Q263.68 317.52 261.179 313.796 Q258.696 310.053 258.696 302.963 Q258.696 295.854 261.179 292.13 Q263.68 288.387 268.401 288.387 Z" fill="#000000" fill-rule="evenodd" fill-opacity="1" /><path clip-path="url(#clip040)" d="M18.4042 827.219 L18.4042 787.02 L23.815 787.02 L23.815 803.889 L65.9242 803.889 L65.9242 810.35 L23.815 810.35 L23.815 827.219 L18.4042 827.219 Z" fill="#000000" fill-rule="evenodd" fill-opacity="1" /><path clip-path="url(#clip040)" d="M30.2762 783.073 L30.2762 777.216 L65.9242 777.216 L65.9242 783.073 L30.2762 783.073 M16.399 783.073 L16.399 777.216 L23.815 777.216 L23.815 783.073 L16.399 783.073 Z" fill="#000000" fill-rule="evenodd" fill-opacity="1" /><path clip-path="url(#clip040)" d="M37.1193 737.208 Q33.1726 735.012 31.2947 731.956 Q29.4168 728.901 29.4168 724.763 Q29.4168 719.193 33.3317 716.169 Q37.2148 713.145 44.4081 713.145 L65.9242 713.145 L65.9242 719.034 L44.599 719.034 Q39.4746 719.034 36.992 720.848 Q34.5094 722.662 34.5094 726.386 Q34.5094 730.938 37.5331 733.579 Q40.5568 736.221 45.7767 736.221 L65.9242 736.221 L65.9242 742.109 L44.599 742.109 Q39.4428 742.109 36.992 743.924 Q34.5094 745.738 34.5094 749.526 Q34.5094 754.013 37.5649 756.655 Q40.5886 759.297 45.7767 759.297 L65.9242 759.297 L65.9242 765.185 L30.2762 765.185 L30.2762 759.297 L35.8144 759.297 Q32.536 757.292 30.9764 754.491 Q29.4168 751.69 29.4168 747.839 Q29.4168 743.956 31.3902 741.25 Q33.3636 738.513 37.1193 737.208 Z" fill="#000000" fill-rule="evenodd" fill-opacity="1" /><path clip-path="url(#clip040)" d="M46.6361 670.973 L49.5006 670.973 L49.5006 697.9 Q55.5481 697.518 58.7309 694.271 Q61.8819 690.993 61.8819 685.168 Q61.8819 681.794 61.0544 678.643 Q60.2269 675.461 58.5718 672.341 L64.1099 672.341 Q65.4467 675.492 66.147 678.803 Q66.8472 682.113 66.8472 685.518 Q66.8472 694.048 61.8819 699.045 Q56.9167 704.011 48.4503 704.011 Q39.6974 704.011 34.5731 699.3 Q29.4168 694.558 29.4168 686.537 Q29.4168 679.344 34.0638 675.174 Q38.6789 670.973 46.6361 670.973 M44.9173 676.829 Q40.1112 676.893 37.2466 679.535 Q34.3821 682.145 34.3821 686.473 Q34.3821 691.375 37.1512 694.335 Q39.9202 697.263 44.9492 697.709 L44.9173 676.829 Z" fill="#000000" fill-rule="evenodd" fill-opacity="1" /><path clip-path="url(#clip040)" d="M16.4626 626.572 Q23.7832 630.837 30.9446 632.906 Q38.106 634.975 45.4584 634.975 Q52.8108 634.975 60.0359 632.906 Q67.2291 630.805 74.5179 626.572 L74.5179 631.664 Q67.0382 636.439 59.8131 638.826 Q52.588 641.181 45.4584 641.181 Q38.3606 641.181 31.1674 638.826 Q23.9742 636.471 16.4626 631.664 L16.4626 626.572 Z" fill="#000000" fill-rule="evenodd" fill-opacity="1" /><path clip-path="url(#clip040)" d="M31.3265 592.484 L36.8647 592.484 Q35.5916 594.966 34.955 597.64 Q34.3184 600.313 34.3184 603.178 Q34.3184 607.538 35.6552 609.735 Q36.992 611.899 39.6656 611.899 Q41.7026 611.899 42.8803 610.339 Q44.0261 608.78 45.0765 604.069 L45.5221 602.064 Q46.8589 595.826 49.3097 593.216 Q51.7286 590.574 56.0891 590.574 Q61.0544 590.574 63.9508 594.521 Q66.8472 598.435 66.8472 605.31 Q66.8472 608.175 66.2743 611.294 Q65.7332 614.382 64.6192 617.819 L58.5718 617.819 Q60.2587 614.573 61.118 611.422 Q61.9456 608.27 61.9456 605.183 Q61.9456 601.045 60.5451 598.817 Q59.1129 596.589 56.5347 596.589 Q54.1476 596.589 52.8745 598.213 Q51.6013 599.804 50.4237 605.247 L49.9462 607.284 Q48.8004 612.726 46.4451 615.145 Q44.058 617.564 39.9202 617.564 Q34.8913 617.564 32.1541 614 Q29.4168 610.435 29.4168 603.878 Q29.4168 600.632 29.8943 597.767 Q30.3717 594.902 31.3265 592.484 Z" fill="#000000" fill-rule="evenodd" fill-opacity="1" /><path clip-path="url(#clip040)" d="M16.4626 582.171 L16.4626 577.079 Q23.9742 572.304 31.1674 569.949 Q38.3606 567.562 45.4584 567.562 Q52.588 567.562 59.8131 569.949 Q67.0382 572.304 74.5179 577.079 L74.5179 582.171 Q67.2291 577.938 60.0359 575.869 Q52.8108 573.768 45.4584 573.768 Q38.106 573.768 30.9446 575.869 Q23.7832 577.938 16.4626 582.171 Z" fill="#000000" fill-rule="evenodd" fill-opacity="1" /><polyline clip-path="url(#clip042)" style="stroke:#009af9; stroke-linecap:butt; stroke-linejoin:round; stroke-width:12; stroke-opacity:1; fill:none" points="
  2201.73,1310.74 1688.85,1146.25 1216.77,1005.9 
  "/>
<line clip-path="url(#clip042)" x1="2201.73" y1="1310.74" x2="2201.73" y2="1294.74" style="stroke:#009af9; stroke-width:3.072; stroke-opacity:1"/>
<line clip-path="url(#clip042)" x1="2201.73" y1="1310.74" x2="2185.73" y2="1310.74" style="stroke:#009af9; stroke-width:3.072; stroke-opacity:1"/>
<line clip-path="url(#clip042)" x1="2201.73" y1="1310.74" x2="2201.73" y2="1326.74" style="stroke:#009af9; stroke-width:3.072; stroke-opacity:1"/>
<line clip-path="url(#clip042)" x1="2201.73" y1="1310.74" x2="2217.73" y2="1310.74" style="stroke:#009af9; stroke-width:3.072; stroke-opacity:1"/>
<line clip-path="url(#clip042)" x1="1688.85" y1="1146.25" x2="1688.85" y2="1130.25" style="stroke:#009af9; stroke-width:3.072; stroke-opacity:1"/>
<line clip-path="url(#clip042)" x1="1688.85" y1="1146.25" x2="1672.85" y2="1146.25" style="stroke:#009af9; stroke-width:3.072; stroke-opacity:1"/>
<line clip-path="url(#clip042)" x1="1688.85" y1="1146.25" x2="1688.85" y2="1162.25" style="stroke:#009af9; stroke-width:3.072; stroke-opacity:1"/>
<line clip-path="url(#clip042)" x1="1688.85" y1="1146.25" x2="1704.85" y2="1146.25" style="stroke:#009af9; stroke-width:3.072; stroke-opacity:1"/>
<line clip-path="url(#clip042)" x1="1216.77" y1="1005.9" x2="1216.77" y2="989.902" style="stroke:#009af9; stroke-width:3.072; stroke-opacity:1"/>
<line clip-path="url(#clip042)" x1="1216.77" y1="1005.9" x2="1200.77" y2="1005.9" style="stroke:#009af9; stroke-width:3.072; stroke-opacity:1"/>
<line clip-path="url(#clip042)" x1="1216.77" y1="1005.9" x2="1216.77" y2="1021.9" style="stroke:#009af9; stroke-width:3.072; stroke-opacity:1"/>
<line clip-path="url(#clip042)" x1="1216.77" y1="1005.9" x2="1232.77" y2="1005.9" style="stroke:#009af9; stroke-width:3.072; stroke-opacity:1"/>
<polyline clip-path="url(#clip042)" style="stroke:#e26f46; stroke-linecap:butt; stroke-linejoin:round; stroke-width:12; stroke-opacity:1; fill:none" points="
  1779.36,1074.01 1516.17,421.14 1149.48,84.0448 
  "/>
<circle clip-path="url(#clip042)" cx="1779.36" cy="1074.01" r="14" fill="#e26f46" fill-rule="evenodd" fill-opacity="1" stroke="#000000" stroke-opacity="1" stroke-width="3.072"/>
<circle clip-path="url(#clip042)" cx="1516.17" cy="421.14" r="14" fill="#e26f46" fill-rule="evenodd" fill-opacity="1" stroke="#000000" stroke-opacity="1" stroke-width="3.072"/>
<circle clip-path="url(#clip042)" cx="1149.48" cy="84.0448" r="14" fill="#e26f46" fill-rule="evenodd" fill-opacity="1" stroke="#000000" stroke-opacity="1" stroke-width="3.072"/>
<polyline clip-path="url(#clip042)" style="stroke:#3da44d; stroke-linecap:butt; stroke-linejoin:round; stroke-width:12; stroke-opacity:1; fill:none" points="
  1629.46,1198.65 829.401,995.055 367.687,847.925 
  "/>
<line clip-path="url(#clip042)" x1="1629.46" y1="1198.65" x2="1629.46" y2="1182.65" style="stroke:#3da44d; stroke-width:3.072; stroke-opacity:1"/>
<line clip-path="url(#clip042)" x1="1629.46" y1="1198.65" x2="1613.46" y2="1198.65" style="stroke:#3da44d; stroke-width:3.072; stroke-opacity:1"/>
<line clip-path="url(#clip042)" x1="1629.46" y1="1198.65" x2="1629.46" y2="1214.65" style="stroke:#3da44d; stroke-width:3.072; stroke-opacity:1"/>
<line clip-path="url(#clip042)" x1="1629.46" y1="1198.65" x2="1645.46" y2="1198.65" style="stroke:#3da44d; stroke-width:3.072; stroke-opacity:1"/>
<line clip-path="url(#clip042)" x1="829.401" y1="995.055" x2="829.401" y2="979.055" style="stroke:#3da44d; stroke-width:3.072; stroke-opacity:1"/>
<line clip-path="url(#clip042)" x1="829.401" y1="995.055" x2="813.401" y2="995.055" style="stroke:#3da44d; stroke-width:3.072; stroke-opacity:1"/>
<line clip-path="url(#clip042)" x1="829.401" y1="995.055" x2="829.401" y2="1011.06" style="stroke:#3da44d; stroke-width:3.072; stroke-opacity:1"/>
<line clip-path="url(#clip042)" x1="829.401" y1="995.055" x2="845.401" y2="995.055" style="stroke:#3da44d; stroke-width:3.072; stroke-opacity:1"/>
<line clip-path="url(#clip042)" x1="367.687" y1="847.925" x2="367.687" y2="831.925" style="stroke:#3da44d; stroke-width:3.072; stroke-opacity:1"/>
<line clip-path="url(#clip042)" x1="367.687" y1="847.925" x2="351.687" y2="847.925" style="stroke:#3da44d; stroke-width:3.072; stroke-opacity:1"/>
<line clip-path="url(#clip042)" x1="367.687" y1="847.925" x2="367.687" y2="863.925" style="stroke:#3da44d; stroke-width:3.072; stroke-opacity:1"/>
<line clip-path="url(#clip042)" x1="367.687" y1="847.925" x2="383.687" y2="847.925" style="stroke:#3da44d; stroke-width:3.072; stroke-opacity:1"/>
<path clip-path="url(#clip040)" d="
M1099.4 297.947 L2191.95 297.947 L2191.95 90.5872 L1099.4 90.5872  Z
  " fill="#ffffff" fill-rule="evenodd" fill-opacity="1"/>
<polyline clip-path="url(#clip040)" style="stroke:#000000; stroke-linecap:butt; stroke-linejoin:round; stroke-width:4; stroke-opacity:1; fill:none" points="
  1099.4,297.947 2191.95,297.947 2191.95,90.5872 1099.4,90.5872 1099.4,297.947 
  "/>
<polyline clip-path="url(#clip040)" style="stroke:#009af9; stroke-linecap:butt; stroke-linejoin:round; stroke-width:4; stroke-opacity:1; fill:none" points="
  1121,142.427 1250.6,142.427 
  "/>
<line clip-path="url(#clip040)" x1="1185.8" y1="142.427" x2="1185.8" y2="116.827" style="stroke:#009af9; stroke-width:4.9152; stroke-opacity:1"/>
<line clip-path="url(#clip040)" x1="1185.8" y1="142.427" x2="1160.2" y2="142.427" style="stroke:#009af9; stroke-width:4.9152; stroke-opacity:1"/>
<line clip-path="url(#clip040)" x1="1185.8" y1="142.427" x2="1185.8" y2="168.027" style="stroke:#009af9; stroke-width:4.9152; stroke-opacity:1"/>
<line clip-path="url(#clip040)" x1="1185.8" y1="142.427" x2="1211.4" y2="142.427" style="stroke:#009af9; stroke-width:4.9152; stroke-opacity:1"/>
<path clip-path="url(#clip040)" d="M1272.2 125.147 L1276.88 125.147 L1276.88 159.707 L1272.2 159.707 L1272.2 125.147 Z" fill="#000000" fill-rule="evenodd" fill-opacity="1" /><path clip-path="url(#clip040)" d="M1306.19 138.758 Q1307.78 135.888 1310.01 134.522 Q1312.23 133.156 1315.24 133.156 Q1319.29 133.156 1321.49 136.004 Q1323.69 138.828 1323.69 144.059 L1323.69 159.707 L1319.4 159.707 L1319.4 144.198 Q1319.4 140.471 1318.08 138.666 Q1316.76 136.86 1314.06 136.86 Q1310.75 136.86 1308.82 139.059 Q1306.9 141.258 1306.9 145.054 L1306.9 159.707 L1302.62 159.707 L1302.62 144.198 Q1302.62 140.448 1301.3 138.666 Q1299.98 136.86 1297.23 136.86 Q1293.96 136.86 1292.04 139.082 Q1290.12 141.281 1290.12 145.054 L1290.12 159.707 L1285.84 159.707 L1285.84 133.781 L1290.12 133.781 L1290.12 137.809 Q1291.58 135.425 1293.62 134.291 Q1295.65 133.156 1298.45 133.156 Q1301.28 133.156 1303.25 134.592 Q1305.24 136.027 1306.19 138.758 Z" fill="#000000" fill-rule="evenodd" fill-opacity="1" /><path clip-path="url(#clip040)" d="M1336.3 155.818 L1336.3 169.568 L1332.02 169.568 L1332.02 133.781 L1336.3 133.781 L1336.3 137.717 Q1337.64 135.402 1339.68 134.291 Q1341.74 133.156 1344.59 133.156 Q1349.31 133.156 1352.25 136.906 Q1355.21 140.656 1355.21 146.767 Q1355.21 152.879 1352.25 156.628 Q1349.31 160.378 1344.59 160.378 Q1341.74 160.378 1339.68 159.267 Q1337.64 158.133 1336.3 155.818 M1350.79 146.767 Q1350.79 142.068 1348.85 139.406 Q1346.93 136.721 1343.55 136.721 Q1340.17 136.721 1338.22 139.406 Q1336.3 142.068 1336.3 146.767 Q1336.3 151.466 1338.22 154.152 Q1340.17 156.814 1343.55 156.814 Q1346.93 156.814 1348.85 154.152 Q1350.79 151.466 1350.79 146.767 Z" fill="#000000" fill-rule="evenodd" fill-opacity="1" /><path clip-path="url(#clip040)" d="M1362.27 123.689 L1366.53 123.689 L1366.53 159.707 L1362.27 159.707 L1362.27 123.689 Z" fill="#000000" fill-rule="evenodd" fill-opacity="1" /><path clip-path="url(#clip040)" d="M1375.44 133.781 L1379.7 133.781 L1379.7 159.707 L1375.44 159.707 L1375.44 133.781 M1375.44 123.689 L1379.7 123.689 L1379.7 129.082 L1375.44 129.082 L1375.44 123.689 Z" fill="#000000" fill-rule="evenodd" fill-opacity="1" /><path clip-path="url(#clip040)" d="M1407.27 134.777 L1407.27 138.758 Q1405.47 137.763 1403.64 137.277 Q1401.83 136.767 1399.98 136.767 Q1395.84 136.767 1393.55 139.406 Q1391.25 142.022 1391.25 146.767 Q1391.25 151.513 1393.55 154.152 Q1395.84 156.767 1399.98 156.767 Q1401.83 156.767 1403.64 156.281 Q1405.47 155.772 1407.27 154.777 L1407.27 158.712 Q1405.49 159.545 1403.57 159.962 Q1401.67 160.378 1399.52 160.378 Q1393.66 160.378 1390.21 156.698 Q1386.76 153.017 1386.76 146.767 Q1386.76 140.425 1390.24 136.791 Q1393.73 133.156 1399.8 133.156 Q1401.76 133.156 1403.64 133.573 Q1405.51 133.967 1407.27 134.777 Z" fill="#000000" fill-rule="evenodd" fill-opacity="1" /><path clip-path="url(#clip040)" d="M1414.68 133.781 L1418.94 133.781 L1418.94 159.707 L1414.68 159.707 L1414.68 133.781 M1414.68 123.689 L1418.94 123.689 L1418.94 129.082 L1414.68 129.082 L1414.68 123.689 Z" fill="#000000" fill-rule="evenodd" fill-opacity="1" /><path clip-path="url(#clip040)" d="M1432.06 126.42 L1432.06 133.781 L1440.84 133.781 L1440.84 137.092 L1432.06 137.092 L1432.06 151.166 Q1432.06 154.337 1432.92 155.24 Q1433.8 156.142 1436.46 156.142 L1440.84 156.142 L1440.84 159.707 L1436.46 159.707 Q1431.53 159.707 1429.66 157.878 Q1427.78 156.027 1427.78 151.166 L1427.78 137.092 L1424.66 137.092 L1424.66 133.781 L1427.78 133.781 L1427.78 126.42 L1432.06 126.42 Z" fill="#000000" fill-rule="evenodd" fill-opacity="1" /><path clip-path="url(#clip040)" d="M1446.63 125.147 L1468.48 125.147 L1468.48 129.082 L1451.3 129.082 L1451.3 139.314 L1467.76 139.314 L1467.76 143.249 L1451.3 143.249 L1451.3 155.772 L1468.89 155.772 L1468.89 159.707 L1446.63 159.707 L1446.63 125.147 Z" fill="#000000" fill-rule="evenodd" fill-opacity="1" /><path clip-path="url(#clip040)" d="M1475.95 149.476 L1475.95 133.781 L1480.21 133.781 L1480.21 149.314 Q1480.21 152.994 1481.65 154.846 Q1483.08 156.675 1485.95 156.675 Q1489.4 156.675 1491.39 154.476 Q1493.41 152.277 1493.41 148.48 L1493.41 133.781 L1497.67 133.781 L1497.67 159.707 L1493.41 159.707 L1493.41 155.726 Q1491.86 158.087 1489.8 159.244 Q1487.76 160.378 1485.05 160.378 Q1480.58 160.378 1478.27 157.601 Q1475.95 154.823 1475.95 149.476 M1486.67 133.156 L1486.67 133.156 Z" fill="#000000" fill-rule="evenodd" fill-opacity="1" /><path clip-path="url(#clip040)" d="M1506.44 123.689 L1510.7 123.689 L1510.7 159.707 L1506.44 159.707 L1506.44 123.689 Z" fill="#000000" fill-rule="evenodd" fill-opacity="1" /><path clip-path="url(#clip040)" d="M1541.79 145.679 L1541.79 147.763 L1522.2 147.763 Q1522.48 152.161 1524.84 154.476 Q1527.23 156.767 1531.46 156.767 Q1533.92 156.767 1536.21 156.166 Q1538.52 155.564 1540.79 154.36 L1540.79 158.388 Q1538.5 159.36 1536.09 159.869 Q1533.68 160.378 1531.21 160.378 Q1525 160.378 1521.37 156.767 Q1517.76 153.156 1517.76 146.999 Q1517.76 140.633 1521.18 136.906 Q1524.63 133.156 1530.47 133.156 Q1535.7 133.156 1538.73 136.536 Q1541.79 139.892 1541.79 145.679 M1537.53 144.429 Q1537.48 140.934 1535.56 138.851 Q1533.66 136.767 1530.51 136.767 Q1526.95 136.767 1524.8 138.781 Q1522.67 140.795 1522.34 144.453 L1537.53 144.429 Z" fill="#000000" fill-rule="evenodd" fill-opacity="1" /><path clip-path="url(#clip040)" d="M1563.8 137.763 Q1563.08 137.346 1562.23 137.161 Q1561.39 136.953 1560.37 136.953 Q1556.76 136.953 1554.82 139.314 Q1552.9 141.652 1552.9 146.05 L1552.9 159.707 L1548.62 159.707 L1548.62 133.781 L1552.9 133.781 L1552.9 137.809 Q1554.24 135.448 1556.39 134.314 Q1558.55 133.156 1561.62 133.156 Q1562.06 133.156 1562.6 133.226 Q1563.13 133.272 1563.78 133.388 L1563.8 137.763 Z" fill="#000000" fill-rule="evenodd" fill-opacity="1" /><path clip-path="url(#clip040)" d="M1568.45 125.147 L1590.3 125.147 L1590.3 129.082 L1573.13 129.082 L1573.13 139.314 L1589.59 139.314 L1589.59 143.249 L1573.13 143.249 L1573.13 155.772 L1590.72 155.772 L1590.72 159.707 L1568.45 159.707 L1568.45 125.147 Z" fill="#000000" fill-rule="evenodd" fill-opacity="1" /><path clip-path="url(#clip040)" d="M1619.77 133.781 L1610.4 146.397 L1620.26 159.707 L1615.24 159.707 L1607.69 149.522 L1600.14 159.707 L1595.12 159.707 L1605.19 146.142 L1595.98 133.781 L1601 133.781 L1607.87 143.017 L1614.75 133.781 L1619.77 133.781 Z" fill="#000000" fill-rule="evenodd" fill-opacity="1" /><path clip-path="url(#clip040)" d="M1630.49 126.42 L1630.49 133.781 L1639.26 133.781 L1639.26 137.092 L1630.49 137.092 L1630.49 151.166 Q1630.49 154.337 1631.35 155.24 Q1632.23 156.142 1634.89 156.142 L1639.26 156.142 L1639.26 159.707 L1634.89 159.707 Q1629.96 159.707 1628.08 157.878 Q1626.21 156.027 1626.21 151.166 L1626.21 137.092 L1623.08 137.092 L1623.08 133.781 L1626.21 133.781 L1626.21 126.42 L1630.49 126.42 Z" fill="#000000" fill-rule="evenodd" fill-opacity="1" /><path clip-path="url(#clip040)" d="M1659.89 137.763 Q1659.17 137.346 1658.31 137.161 Q1657.48 136.953 1656.46 136.953 Q1652.85 136.953 1650.91 139.314 Q1648.99 141.652 1648.99 146.05 L1648.99 159.707 L1644.7 159.707 L1644.7 133.781 L1648.99 133.781 L1648.99 137.809 Q1650.33 135.448 1652.48 134.314 Q1654.63 133.156 1657.71 133.156 Q1658.15 133.156 1658.68 133.226 Q1659.22 133.272 1659.86 133.388 L1659.89 137.763 Z" fill="#000000" fill-rule="evenodd" fill-opacity="1" /><path clip-path="url(#clip040)" d="M1676.14 146.675 Q1670.98 146.675 1668.98 147.855 Q1666.99 149.036 1666.99 151.883 Q1666.99 154.152 1668.48 155.494 Q1669.98 156.814 1672.55 156.814 Q1676.09 156.814 1678.22 154.314 Q1680.37 151.791 1680.37 147.624 L1680.37 146.675 L1676.14 146.675 M1684.63 144.916 L1684.63 159.707 L1680.37 159.707 L1680.37 155.772 Q1678.92 158.133 1676.74 159.267 Q1674.56 160.378 1671.42 160.378 Q1667.43 160.378 1665.07 158.156 Q1662.73 155.911 1662.73 152.161 Q1662.73 147.786 1665.65 145.564 Q1668.59 143.342 1674.4 143.342 L1680.37 143.342 L1680.37 142.925 Q1680.37 139.985 1678.43 138.388 Q1676.51 136.767 1673.01 136.767 Q1670.79 136.767 1668.68 137.3 Q1666.58 137.832 1664.63 138.897 L1664.63 134.962 Q1666.97 134.059 1669.17 133.619 Q1671.37 133.156 1673.45 133.156 Q1679.08 133.156 1681.86 136.073 Q1684.63 138.99 1684.63 144.916 Z" fill="#000000" fill-rule="evenodd" fill-opacity="1" /><path clip-path="url(#clip040)" d="M1697.53 155.818 L1697.53 169.568 L1693.24 169.568 L1693.24 133.781 L1697.53 133.781 L1697.53 137.717 Q1698.87 135.402 1700.91 134.291 Q1702.97 133.156 1705.81 133.156 Q1710.54 133.156 1713.48 136.906 Q1716.44 140.656 1716.44 146.767 Q1716.44 152.879 1713.48 156.628 Q1710.54 160.378 1705.81 160.378 Q1702.97 160.378 1700.91 159.267 Q1698.87 158.133 1697.53 155.818 M1712.02 146.767 Q1712.02 142.068 1710.07 139.406 Q1708.15 136.721 1704.77 136.721 Q1701.39 136.721 1699.45 139.406 Q1697.53 142.068 1697.53 146.767 Q1697.53 151.466 1699.45 154.152 Q1701.39 156.814 1704.77 156.814 Q1708.15 156.814 1710.07 154.152 Q1712.02 151.466 1712.02 146.767 Z" fill="#000000" fill-rule="evenodd" fill-opacity="1" /><path clip-path="url(#clip040)" d="M1733.54 136.767 Q1730.12 136.767 1728.13 139.453 Q1726.14 142.115 1726.14 146.767 Q1726.14 151.42 1728.11 154.105 Q1730.1 156.767 1733.54 156.767 Q1736.95 156.767 1738.94 154.082 Q1740.93 151.397 1740.93 146.767 Q1740.93 142.161 1738.94 139.476 Q1736.95 136.767 1733.54 136.767 M1733.54 133.156 Q1739.1 133.156 1742.27 136.767 Q1745.44 140.379 1745.44 146.767 Q1745.44 153.133 1742.27 156.767 Q1739.1 160.378 1733.54 160.378 Q1727.97 160.378 1724.79 156.767 Q1721.65 153.133 1721.65 146.767 Q1721.65 140.379 1724.79 136.767 Q1727.97 133.156 1733.54 133.156 Z" fill="#000000" fill-rule="evenodd" fill-opacity="1" /><path clip-path="url(#clip040)" d="M1752.5 123.689 L1756.76 123.689 L1756.76 159.707 L1752.5 159.707 L1752.5 123.689 Z" fill="#000000" fill-rule="evenodd" fill-opacity="1" /><path clip-path="url(#clip040)" d="M1777.46 146.675 Q1772.29 146.675 1770.3 147.855 Q1768.31 149.036 1768.31 151.883 Q1768.31 154.152 1769.79 155.494 Q1771.3 156.814 1773.87 156.814 Q1777.41 156.814 1779.54 154.314 Q1781.69 151.791 1781.69 147.624 L1781.69 146.675 L1777.46 146.675 M1785.95 144.916 L1785.95 159.707 L1781.69 159.707 L1781.69 155.772 Q1780.23 158.133 1778.06 159.267 Q1775.88 160.378 1772.73 160.378 Q1768.75 160.378 1766.39 158.156 Q1764.05 155.911 1764.05 152.161 Q1764.05 147.786 1766.97 145.564 Q1769.91 143.342 1775.72 143.342 L1781.69 143.342 L1781.69 142.925 Q1781.69 139.985 1779.75 138.388 Q1777.83 136.767 1774.33 136.767 Q1772.11 136.767 1770 137.3 Q1767.9 137.832 1765.95 138.897 L1765.95 134.962 Q1768.29 134.059 1770.49 133.619 Q1772.69 133.156 1774.77 133.156 Q1780.4 133.156 1783.17 136.073 Q1785.95 138.99 1785.95 144.916 Z" fill="#000000" fill-rule="evenodd" fill-opacity="1" /><path clip-path="url(#clip040)" d="M1798.94 126.42 L1798.94 133.781 L1807.71 133.781 L1807.71 137.092 L1798.94 137.092 L1798.94 151.166 Q1798.94 154.337 1799.79 155.24 Q1800.67 156.142 1803.34 156.142 L1807.71 156.142 L1807.71 159.707 L1803.34 159.707 Q1798.41 159.707 1796.53 157.878 Q1794.66 156.027 1794.66 151.166 L1794.66 137.092 L1791.53 137.092 L1791.53 133.781 L1794.66 133.781 L1794.66 126.42 L1798.94 126.42 Z" fill="#000000" fill-rule="evenodd" fill-opacity="1" /><path clip-path="url(#clip040)" d="M1813.31 133.781 L1817.57 133.781 L1817.57 159.707 L1813.31 159.707 L1813.31 133.781 M1813.31 123.689 L1817.57 123.689 L1817.57 129.082 L1813.31 129.082 L1813.31 123.689 Z" fill="#000000" fill-rule="evenodd" fill-opacity="1" /><path clip-path="url(#clip040)" d="M1836.53 136.767 Q1833.1 136.767 1831.11 139.453 Q1829.12 142.115 1829.12 146.767 Q1829.12 151.42 1831.09 154.105 Q1833.08 156.767 1836.53 156.767 Q1839.93 156.767 1841.92 154.082 Q1843.91 151.397 1843.91 146.767 Q1843.91 142.161 1841.92 139.476 Q1839.93 136.767 1836.53 136.767 M1836.53 133.156 Q1842.09 133.156 1845.26 136.767 Q1848.43 140.379 1848.43 146.767 Q1848.43 153.133 1845.26 156.767 Q1842.09 160.378 1836.53 160.378 Q1830.95 160.378 1827.78 156.767 Q1824.63 153.133 1824.63 146.767 Q1824.63 140.379 1827.78 136.767 Q1830.95 133.156 1836.53 133.156 Z" fill="#000000" fill-rule="evenodd" fill-opacity="1" /><path clip-path="url(#clip040)" d="M1877.04 144.059 L1877.04 159.707 L1872.78 159.707 L1872.78 144.198 Q1872.78 140.517 1871.34 138.689 Q1869.91 136.86 1867.04 136.86 Q1863.59 136.86 1861.6 139.059 Q1859.61 141.258 1859.61 145.054 L1859.61 159.707 L1855.33 159.707 L1855.33 133.781 L1859.61 133.781 L1859.61 137.809 Q1861.14 135.471 1863.2 134.314 Q1865.28 133.156 1867.99 133.156 Q1872.46 133.156 1874.75 135.934 Q1877.04 138.689 1877.04 144.059 Z" fill="#000000" fill-rule="evenodd" fill-opacity="1" /><polyline clip-path="url(#clip040)" style="stroke:#e26f46; stroke-linecap:butt; stroke-linejoin:round; stroke-width:4; stroke-opacity:1; fill:none" points="
  1121,194.267 1250.6,194.267 
  "/>
<circle clip-path="url(#clip040)" cx="1185.8" cy="194.267" r="23" fill="#e26f46" fill-rule="evenodd" fill-opacity="1" stroke="#000000" stroke-opacity="1" stroke-width="4.9152"/>
<path clip-path="url(#clip040)" d="M1272.2 176.987 L1276.88 176.987 L1276.88 211.547 L1272.2 211.547 L1272.2 176.987 Z" fill="#000000" fill-rule="evenodd" fill-opacity="1" /><path clip-path="url(#clip040)" d="M1306.19 190.598 Q1307.78 187.728 1310.01 186.362 Q1312.23 184.996 1315.24 184.996 Q1319.29 184.996 1321.49 187.844 Q1323.69 190.668 1323.69 195.899 L1323.69 211.547 L1319.4 211.547 L1319.4 196.038 Q1319.4 192.311 1318.08 190.506 Q1316.76 188.7 1314.06 188.7 Q1310.75 188.7 1308.82 190.899 Q1306.9 193.098 1306.9 196.894 L1306.9 211.547 L1302.62 211.547 L1302.62 196.038 Q1302.62 192.288 1301.3 190.506 Q1299.98 188.7 1297.23 188.7 Q1293.96 188.7 1292.04 190.922 Q1290.12 193.121 1290.12 196.894 L1290.12 211.547 L1285.84 211.547 L1285.84 185.621 L1290.12 185.621 L1290.12 189.649 Q1291.58 187.265 1293.62 186.131 Q1295.65 184.996 1298.45 184.996 Q1301.28 184.996 1303.25 186.432 Q1305.24 187.867 1306.19 190.598 Z" fill="#000000" fill-rule="evenodd" fill-opacity="1" /><path clip-path="url(#clip040)" d="M1336.3 207.658 L1336.3 221.408 L1332.02 221.408 L1332.02 185.621 L1336.3 185.621 L1336.3 189.557 Q1337.64 187.242 1339.68 186.131 Q1341.74 184.996 1344.59 184.996 Q1349.31 184.996 1352.25 188.746 Q1355.21 192.496 1355.21 198.607 Q1355.21 204.719 1352.25 208.468 Q1349.31 212.218 1344.59 212.218 Q1341.74 212.218 1339.68 211.107 Q1337.64 209.973 1336.3 207.658 M1350.79 198.607 Q1350.79 193.908 1348.85 191.246 Q1346.93 188.561 1343.55 188.561 Q1340.17 188.561 1338.22 191.246 Q1336.3 193.908 1336.3 198.607 Q1336.3 203.306 1338.22 205.992 Q1340.17 208.654 1343.55 208.654 Q1346.93 208.654 1348.85 205.992 Q1350.79 203.306 1350.79 198.607 Z" fill="#000000" fill-rule="evenodd" fill-opacity="1" /><path clip-path="url(#clip040)" d="M1362.27 175.529 L1366.53 175.529 L1366.53 211.547 L1362.27 211.547 L1362.27 175.529 Z" fill="#000000" fill-rule="evenodd" fill-opacity="1" /><path clip-path="url(#clip040)" d="M1375.44 185.621 L1379.7 185.621 L1379.7 211.547 L1375.44 211.547 L1375.44 185.621 M1375.44 175.529 L1379.7 175.529 L1379.7 180.922 L1375.44 180.922 L1375.44 175.529 Z" fill="#000000" fill-rule="evenodd" fill-opacity="1" /><path clip-path="url(#clip040)" d="M1407.27 186.617 L1407.27 190.598 Q1405.47 189.603 1403.64 189.117 Q1401.83 188.607 1399.98 188.607 Q1395.84 188.607 1393.55 191.246 Q1391.25 193.862 1391.25 198.607 Q1391.25 203.353 1393.55 205.992 Q1395.84 208.607 1399.98 208.607 Q1401.83 208.607 1403.64 208.121 Q1405.47 207.612 1407.27 206.617 L1407.27 210.552 Q1405.49 211.385 1403.57 211.802 Q1401.67 212.218 1399.52 212.218 Q1393.66 212.218 1390.21 208.538 Q1386.76 204.857 1386.76 198.607 Q1386.76 192.265 1390.24 188.631 Q1393.73 184.996 1399.8 184.996 Q1401.76 184.996 1403.64 185.413 Q1405.51 185.807 1407.27 186.617 Z" fill="#000000" fill-rule="evenodd" fill-opacity="1" /><path clip-path="url(#clip040)" d="M1414.68 185.621 L1418.94 185.621 L1418.94 211.547 L1414.68 211.547 L1414.68 185.621 M1414.68 175.529 L1418.94 175.529 L1418.94 180.922 L1414.68 180.922 L1414.68 175.529 Z" fill="#000000" fill-rule="evenodd" fill-opacity="1" /><path clip-path="url(#clip040)" d="M1432.06 178.26 L1432.06 185.621 L1440.84 185.621 L1440.84 188.932 L1432.06 188.932 L1432.06 203.006 Q1432.06 206.177 1432.92 207.08 Q1433.8 207.982 1436.46 207.982 L1440.84 207.982 L1440.84 211.547 L1436.46 211.547 Q1431.53 211.547 1429.66 209.718 Q1427.78 207.867 1427.78 203.006 L1427.78 188.932 L1424.66 188.932 L1424.66 185.621 L1427.78 185.621 L1427.78 178.26 L1432.06 178.26 Z" fill="#000000" fill-rule="evenodd" fill-opacity="1" /><path clip-path="url(#clip040)" d="M1446.63 176.987 L1468.48 176.987 L1468.48 180.922 L1451.3 180.922 L1451.3 191.154 L1467.76 191.154 L1467.76 195.089 L1451.3 195.089 L1451.3 207.612 L1468.89 207.612 L1468.89 211.547 L1446.63 211.547 L1446.63 176.987 Z" fill="#000000" fill-rule="evenodd" fill-opacity="1" /><path clip-path="url(#clip040)" d="M1475.95 201.316 L1475.95 185.621 L1480.21 185.621 L1480.21 201.154 Q1480.21 204.834 1481.65 206.686 Q1483.08 208.515 1485.95 208.515 Q1489.4 208.515 1491.39 206.316 Q1493.41 204.117 1493.41 200.32 L1493.41 185.621 L1497.67 185.621 L1497.67 211.547 L1493.41 211.547 L1493.41 207.566 Q1491.86 209.927 1489.8 211.084 Q1487.76 212.218 1485.05 212.218 Q1480.58 212.218 1478.27 209.441 Q1475.95 206.663 1475.95 201.316 M1486.67 184.996 L1486.67 184.996 Z" fill="#000000" fill-rule="evenodd" fill-opacity="1" /><path clip-path="url(#clip040)" d="M1506.44 175.529 L1510.7 175.529 L1510.7 211.547 L1506.44 211.547 L1506.44 175.529 Z" fill="#000000" fill-rule="evenodd" fill-opacity="1" /><path clip-path="url(#clip040)" d="M1541.79 197.519 L1541.79 199.603 L1522.2 199.603 Q1522.48 204.001 1524.84 206.316 Q1527.23 208.607 1531.46 208.607 Q1533.92 208.607 1536.21 208.006 Q1538.52 207.404 1540.79 206.2 L1540.79 210.228 Q1538.5 211.2 1536.09 211.709 Q1533.68 212.218 1531.21 212.218 Q1525 212.218 1521.37 208.607 Q1517.76 204.996 1517.76 198.839 Q1517.76 192.473 1521.18 188.746 Q1524.63 184.996 1530.47 184.996 Q1535.7 184.996 1538.73 188.376 Q1541.79 191.732 1541.79 197.519 M1537.53 196.269 Q1537.48 192.774 1535.56 190.691 Q1533.66 188.607 1530.51 188.607 Q1526.95 188.607 1524.8 190.621 Q1522.67 192.635 1522.34 196.293 L1537.53 196.269 Z" fill="#000000" fill-rule="evenodd" fill-opacity="1" /><path clip-path="url(#clip040)" d="M1563.8 189.603 Q1563.08 189.186 1562.23 189.001 Q1561.39 188.793 1560.37 188.793 Q1556.76 188.793 1554.82 191.154 Q1552.9 193.492 1552.9 197.89 L1552.9 211.547 L1548.62 211.547 L1548.62 185.621 L1552.9 185.621 L1552.9 189.649 Q1554.24 187.288 1556.39 186.154 Q1558.55 184.996 1561.62 184.996 Q1562.06 184.996 1562.6 185.066 Q1563.13 185.112 1563.78 185.228 L1563.8 189.603 Z" fill="#000000" fill-rule="evenodd" fill-opacity="1" /><path clip-path="url(#clip040)" d="M1573.13 195.043 L1573.13 207.705 L1580.63 207.705 Q1584.4 207.705 1586.21 206.154 Q1588.04 204.58 1588.04 201.362 Q1588.04 198.121 1586.21 196.594 Q1584.4 195.043 1580.63 195.043 L1573.13 195.043 M1573.13 180.83 L1573.13 191.246 L1580.05 191.246 Q1583.48 191.246 1585.14 189.973 Q1586.83 188.677 1586.83 186.038 Q1586.83 183.422 1585.14 182.126 Q1583.48 180.83 1580.05 180.83 L1573.13 180.83 M1568.45 176.987 L1580.4 176.987 Q1585.74 176.987 1588.64 179.209 Q1591.53 181.432 1591.53 185.529 Q1591.53 188.7 1590.05 190.575 Q1588.57 192.45 1585.7 192.913 Q1589.15 193.654 1591.05 196.015 Q1592.97 198.353 1592.97 201.871 Q1592.97 206.501 1589.82 209.024 Q1586.67 211.547 1580.86 211.547 L1568.45 211.547 L1568.45 176.987 Z" fill="#000000" fill-rule="evenodd" fill-opacity="1" /><path clip-path="url(#clip040)" d="M1612.57 198.515 Q1607.41 198.515 1605.42 199.695 Q1603.43 200.876 1603.43 203.723 Q1603.43 205.992 1604.91 207.334 Q1606.42 208.654 1608.99 208.654 Q1612.53 208.654 1614.66 206.154 Q1616.81 203.631 1616.81 199.464 L1616.81 198.515 L1612.57 198.515 M1621.07 196.756 L1621.07 211.547 L1616.81 211.547 L1616.81 207.612 Q1615.35 209.973 1613.18 211.107 Q1611 212.218 1607.85 212.218 Q1603.87 212.218 1601.51 209.996 Q1599.17 207.751 1599.17 204.001 Q1599.17 199.626 1602.09 197.404 Q1605.03 195.182 1610.84 195.182 L1616.81 195.182 L1616.81 194.765 Q1616.81 191.825 1614.86 190.228 Q1612.94 188.607 1609.45 188.607 Q1607.23 188.607 1605.12 189.14 Q1603.01 189.672 1601.07 190.737 L1601.07 186.802 Q1603.41 185.899 1605.61 185.459 Q1607.8 184.996 1609.89 184.996 Q1615.51 184.996 1618.29 187.913 Q1621.07 190.83 1621.07 196.756 Z" fill="#000000" fill-rule="evenodd" fill-opacity="1" /><path clip-path="url(#clip040)" d="M1644.86 189.603 Q1644.15 189.186 1643.29 189.001 Q1642.46 188.793 1641.44 188.793 Q1637.83 188.793 1635.88 191.154 Q1633.96 193.492 1633.96 197.89 L1633.96 211.547 L1629.68 211.547 L1629.68 185.621 L1633.96 185.621 L1633.96 189.649 Q1635.3 187.288 1637.46 186.154 Q1639.61 184.996 1642.69 184.996 Q1643.13 184.996 1643.66 185.066 Q1644.19 185.112 1644.84 185.228 L1644.86 189.603 Z" fill="#000000" fill-rule="evenodd" fill-opacity="1" /><path clip-path="url(#clip040)" d="M1660.12 213.955 Q1658.31 218.584 1656.6 219.996 Q1654.89 221.408 1652.02 221.408 L1648.61 221.408 L1648.61 217.843 L1651.11 217.843 Q1652.87 217.843 1653.85 217.01 Q1654.82 216.177 1656 213.075 L1656.76 211.131 L1646.28 185.621 L1650.79 185.621 L1658.89 205.899 L1666.99 185.621 L1671.51 185.621 L1660.12 213.955 Z" fill="#000000" fill-rule="evenodd" fill-opacity="1" /><path clip-path="url(#clip040)" d="M1696.04 186.617 L1696.04 190.598 Q1694.24 189.603 1692.41 189.117 Q1690.61 188.607 1688.75 188.607 Q1684.61 188.607 1682.32 191.246 Q1680.03 193.862 1680.03 198.607 Q1680.03 203.353 1682.32 205.992 Q1684.61 208.607 1688.75 208.607 Q1690.61 208.607 1692.41 208.121 Q1694.24 207.612 1696.04 206.617 L1696.04 210.552 Q1694.26 211.385 1692.34 211.802 Q1690.44 212.218 1688.29 212.218 Q1682.43 212.218 1678.98 208.538 Q1675.54 204.857 1675.54 198.607 Q1675.54 192.265 1679.01 188.631 Q1682.5 184.996 1688.57 184.996 Q1690.54 184.996 1692.41 185.413 Q1694.29 185.807 1696.04 186.617 Z" fill="#000000" fill-rule="evenodd" fill-opacity="1" /><path clip-path="url(#clip040)" d="M1725.63 197.519 L1725.63 199.603 L1706.04 199.603 Q1706.32 204.001 1708.68 206.316 Q1711.07 208.607 1715.3 208.607 Q1717.76 208.607 1720.05 208.006 Q1722.36 207.404 1724.63 206.2 L1724.63 210.228 Q1722.34 211.2 1719.93 211.709 Q1717.53 212.218 1715.05 212.218 Q1708.85 212.218 1705.21 208.607 Q1701.6 204.996 1701.6 198.839 Q1701.6 192.473 1705.03 188.746 Q1708.48 184.996 1714.31 184.996 Q1719.54 184.996 1722.57 188.376 Q1725.63 191.732 1725.63 197.519 M1721.37 196.269 Q1721.32 192.774 1719.4 190.691 Q1717.5 188.607 1714.36 188.607 Q1710.79 188.607 1708.64 190.621 Q1706.51 192.635 1706.18 196.293 L1721.37 196.269 Z" fill="#000000" fill-rule="evenodd" fill-opacity="1" /><path clip-path="url(#clip040)" d="M1754.17 195.899 L1754.17 211.547 L1749.91 211.547 L1749.91 196.038 Q1749.91 192.357 1748.48 190.529 Q1747.04 188.7 1744.17 188.7 Q1740.72 188.7 1738.73 190.899 Q1736.74 193.098 1736.74 196.894 L1736.74 211.547 L1732.46 211.547 L1732.46 185.621 L1736.74 185.621 L1736.74 189.649 Q1738.27 187.311 1740.33 186.154 Q1742.41 184.996 1745.12 184.996 Q1749.59 184.996 1751.88 187.774 Q1754.17 190.529 1754.17 195.899 Z" fill="#000000" fill-rule="evenodd" fill-opacity="1" /><path clip-path="url(#clip040)" d="M1766.88 178.26 L1766.88 185.621 L1775.65 185.621 L1775.65 188.932 L1766.88 188.932 L1766.88 203.006 Q1766.88 206.177 1767.73 207.08 Q1768.61 207.982 1771.28 207.982 L1775.65 207.982 L1775.65 211.547 L1771.28 211.547 Q1766.35 211.547 1764.47 209.718 Q1762.6 207.867 1762.6 203.006 L1762.6 188.932 L1759.47 188.932 L1759.47 185.621 L1762.6 185.621 L1762.6 178.26 L1766.88 178.26 Z" fill="#000000" fill-rule="evenodd" fill-opacity="1" /><path clip-path="url(#clip040)" d="M1796.28 189.603 Q1795.56 189.186 1794.7 189.001 Q1793.87 188.793 1792.85 188.793 Q1789.24 188.793 1787.29 191.154 Q1785.37 193.492 1785.37 197.89 L1785.37 211.547 L1781.09 211.547 L1781.09 185.621 L1785.37 185.621 L1785.37 189.649 Q1786.72 187.288 1788.87 186.154 Q1791.02 184.996 1794.1 184.996 Q1794.54 184.996 1795.07 185.066 Q1795.6 185.112 1796.25 185.228 L1796.28 189.603 Z" fill="#000000" fill-rule="evenodd" fill-opacity="1" /><path clip-path="url(#clip040)" d="M1800.74 185.621 L1805 185.621 L1805 211.547 L1800.74 211.547 L1800.74 185.621 M1800.74 175.529 L1805 175.529 L1805 180.922 L1800.74 180.922 L1800.74 175.529 Z" fill="#000000" fill-rule="evenodd" fill-opacity="1" /><path clip-path="url(#clip040)" d="M1832.57 186.617 L1832.57 190.598 Q1830.77 189.603 1828.94 189.117 Q1827.13 188.607 1825.28 188.607 Q1821.14 188.607 1818.85 191.246 Q1816.55 193.862 1816.55 198.607 Q1816.55 203.353 1818.85 205.992 Q1821.14 208.607 1825.28 208.607 Q1827.13 208.607 1828.94 208.121 Q1830.77 207.612 1832.57 206.617 L1832.57 210.552 Q1830.79 211.385 1828.87 211.802 Q1826.97 212.218 1824.82 212.218 Q1818.96 212.218 1815.51 208.538 Q1812.06 204.857 1812.06 198.607 Q1812.06 192.265 1815.54 188.631 Q1819.03 184.996 1825.1 184.996 Q1827.06 184.996 1828.94 185.413 Q1830.81 185.807 1832.57 186.617 Z" fill="#000000" fill-rule="evenodd" fill-opacity="1" /><path clip-path="url(#clip040)" d="M1840.16 176.987 L1862.02 176.987 L1862.02 180.922 L1844.84 180.922 L1844.84 191.154 L1861.3 191.154 L1861.3 195.089 L1844.84 195.089 L1844.84 207.612 L1862.43 207.612 L1862.43 211.547 L1840.16 211.547 L1840.16 176.987 Z" fill="#000000" fill-rule="evenodd" fill-opacity="1" /><path clip-path="url(#clip040)" d="M1891.48 185.621 L1882.11 198.237 L1891.97 211.547 L1886.95 211.547 L1879.4 201.362 L1871.85 211.547 L1866.83 211.547 L1876.9 197.982 L1867.69 185.621 L1872.71 185.621 L1879.59 194.857 L1886.46 185.621 L1891.48 185.621 Z" fill="#000000" fill-rule="evenodd" fill-opacity="1" /><path clip-path="url(#clip040)" d="M1902.2 178.26 L1902.2 185.621 L1910.97 185.621 L1910.97 188.932 L1902.2 188.932 L1902.2 203.006 Q1902.2 206.177 1903.06 207.08 Q1903.94 207.982 1906.6 207.982 L1910.97 207.982 L1910.97 211.547 L1906.6 211.547 Q1901.67 211.547 1899.79 209.718 Q1897.92 207.867 1897.92 203.006 L1897.92 188.932 L1894.79 188.932 L1894.79 185.621 L1897.92 185.621 L1897.92 178.26 L1902.2 178.26 Z" fill="#000000" fill-rule="evenodd" fill-opacity="1" /><path clip-path="url(#clip040)" d="M1931.6 189.603 Q1930.88 189.186 1930.03 189.001 Q1929.19 188.793 1928.17 188.793 Q1924.56 188.793 1922.62 191.154 Q1920.7 193.492 1920.7 197.89 L1920.7 211.547 L1916.41 211.547 L1916.41 185.621 L1920.7 185.621 L1920.7 189.649 Q1922.04 187.288 1924.19 186.154 Q1926.34 184.996 1929.42 184.996 Q1929.86 184.996 1930.4 185.066 Q1930.93 185.112 1931.58 185.228 L1931.6 189.603 Z" fill="#000000" fill-rule="evenodd" fill-opacity="1" /><path clip-path="url(#clip040)" d="M1947.85 198.515 Q1942.69 198.515 1940.7 199.695 Q1938.71 200.876 1938.71 203.723 Q1938.71 205.992 1940.19 207.334 Q1941.69 208.654 1944.26 208.654 Q1947.8 208.654 1949.93 206.154 Q1952.09 203.631 1952.09 199.464 L1952.09 198.515 L1947.85 198.515 M1956.34 196.756 L1956.34 211.547 L1952.09 211.547 L1952.09 207.612 Q1950.63 209.973 1948.45 211.107 Q1946.28 212.218 1943.13 212.218 Q1939.15 212.218 1936.78 209.996 Q1934.45 207.751 1934.45 204.001 Q1934.45 199.626 1937.36 197.404 Q1940.3 195.182 1946.11 195.182 L1952.09 195.182 L1952.09 194.765 Q1952.09 191.825 1950.14 190.228 Q1948.22 188.607 1944.72 188.607 Q1942.5 188.607 1940.4 189.14 Q1938.29 189.672 1936.34 190.737 L1936.34 186.802 Q1938.68 185.899 1940.88 185.459 Q1943.08 184.996 1945.16 184.996 Q1950.79 184.996 1953.57 187.913 Q1956.34 190.83 1956.34 196.756 Z" fill="#000000" fill-rule="evenodd" fill-opacity="1" /><path clip-path="url(#clip040)" d="M1969.24 207.658 L1969.24 221.408 L1964.96 221.408 L1964.96 185.621 L1969.24 185.621 L1969.24 189.557 Q1970.58 187.242 1972.62 186.131 Q1974.68 184.996 1977.52 184.996 Q1982.25 184.996 1985.19 188.746 Q1988.15 192.496 1988.15 198.607 Q1988.15 204.719 1985.19 208.468 Q1982.25 212.218 1977.52 212.218 Q1974.68 212.218 1972.62 211.107 Q1970.58 209.973 1969.24 207.658 M1983.73 198.607 Q1983.73 193.908 1981.78 191.246 Q1979.86 188.561 1976.48 188.561 Q1973.1 188.561 1971.16 191.246 Q1969.24 193.908 1969.24 198.607 Q1969.24 203.306 1971.16 205.992 Q1973.1 208.654 1976.48 208.654 Q1979.86 208.654 1981.78 205.992 Q1983.73 203.306 1983.73 198.607 Z" fill="#000000" fill-rule="evenodd" fill-opacity="1" /><path clip-path="url(#clip040)" d="M2005.26 188.607 Q2001.83 188.607 1999.84 191.293 Q1997.85 193.955 1997.85 198.607 Q1997.85 203.26 1999.82 205.945 Q2001.81 208.607 2005.26 208.607 Q2008.66 208.607 2010.65 205.922 Q2012.64 203.237 2012.64 198.607 Q2012.64 194.001 2010.65 191.316 Q2008.66 188.607 2005.26 188.607 M2005.26 184.996 Q2010.81 184.996 2013.98 188.607 Q2017.15 192.219 2017.15 198.607 Q2017.15 204.973 2013.98 208.607 Q2010.81 212.218 2005.26 212.218 Q1999.68 212.218 1996.51 208.607 Q1993.36 204.973 1993.36 198.607 Q1993.36 192.219 1996.51 188.607 Q1999.68 184.996 2005.26 184.996 Z" fill="#000000" fill-rule="evenodd" fill-opacity="1" /><path clip-path="url(#clip040)" d="M2024.21 175.529 L2028.47 175.529 L2028.47 211.547 L2024.21 211.547 L2024.21 175.529 Z" fill="#000000" fill-rule="evenodd" fill-opacity="1" /><path clip-path="url(#clip040)" d="M2049.17 198.515 Q2044.01 198.515 2042.02 199.695 Q2040.02 200.876 2040.02 203.723 Q2040.02 205.992 2041.51 207.334 Q2043.01 208.654 2045.58 208.654 Q2049.12 208.654 2051.25 206.154 Q2053.4 203.631 2053.4 199.464 L2053.4 198.515 L2049.17 198.515 M2057.66 196.756 L2057.66 211.547 L2053.4 211.547 L2053.4 207.612 Q2051.95 209.973 2049.77 211.107 Q2047.59 212.218 2044.45 212.218 Q2040.46 212.218 2038.1 209.996 Q2035.77 207.751 2035.77 204.001 Q2035.77 199.626 2038.68 197.404 Q2041.62 195.182 2047.43 195.182 L2053.4 195.182 L2053.4 194.765 Q2053.4 191.825 2051.46 190.228 Q2049.54 188.607 2046.04 188.607 Q2043.82 188.607 2041.71 189.14 Q2039.61 189.672 2037.66 190.737 L2037.66 186.802 Q2040 185.899 2042.2 185.459 Q2044.4 184.996 2046.48 184.996 Q2052.11 184.996 2054.89 187.913 Q2057.66 190.83 2057.66 196.756 Z" fill="#000000" fill-rule="evenodd" fill-opacity="1" /><path clip-path="url(#clip040)" d="M2070.65 178.26 L2070.65 185.621 L2079.42 185.621 L2079.42 188.932 L2070.65 188.932 L2070.65 203.006 Q2070.65 206.177 2071.51 207.08 Q2072.39 207.982 2075.05 207.982 L2079.42 207.982 L2079.42 211.547 L2075.05 211.547 Q2070.12 211.547 2068.24 209.718 Q2066.37 207.867 2066.37 203.006 L2066.37 188.932 L2063.24 188.932 L2063.24 185.621 L2066.37 185.621 L2066.37 178.26 L2070.65 178.26 Z" fill="#000000" fill-rule="evenodd" fill-opacity="1" /><path clip-path="url(#clip040)" d="M2085.02 185.621 L2089.28 185.621 L2089.28 211.547 L2085.02 211.547 L2085.02 185.621 M2085.02 175.529 L2089.28 175.529 L2089.28 180.922 L2085.02 180.922 L2085.02 175.529 Z" fill="#000000" fill-rule="evenodd" fill-opacity="1" /><path clip-path="url(#clip040)" d="M2108.24 188.607 Q2104.82 188.607 2102.83 191.293 Q2100.83 193.955 2100.83 198.607 Q2100.83 203.26 2102.8 205.945 Q2104.79 208.607 2108.24 208.607 Q2111.64 208.607 2113.64 205.922 Q2115.63 203.237 2115.63 198.607 Q2115.63 194.001 2113.64 191.316 Q2111.64 188.607 2108.24 188.607 M2108.24 184.996 Q2113.8 184.996 2116.97 188.607 Q2120.14 192.219 2120.14 198.607 Q2120.14 204.973 2116.97 208.607 Q2113.8 212.218 2108.24 212.218 Q2102.66 212.218 2099.49 208.607 Q2096.34 204.973 2096.34 198.607 Q2096.34 192.219 2099.49 188.607 Q2102.66 184.996 2108.24 184.996 Z" fill="#000000" fill-rule="evenodd" fill-opacity="1" /><path clip-path="url(#clip040)" d="M2148.75 195.899 L2148.75 211.547 L2144.49 211.547 L2144.49 196.038 Q2144.49 192.357 2143.06 190.529 Q2141.62 188.7 2138.75 188.7 Q2135.3 188.7 2133.31 190.899 Q2131.32 193.098 2131.32 196.894 L2131.32 211.547 L2127.04 211.547 L2127.04 185.621 L2131.32 185.621 L2131.32 189.649 Q2132.85 187.311 2134.91 186.154 Q2136.99 184.996 2139.7 184.996 Q2144.17 184.996 2146.46 187.774 Q2148.75 190.529 2148.75 195.899 Z" fill="#000000" fill-rule="evenodd" fill-opacity="1" /><polyline clip-path="url(#clip040)" style="stroke:#3da44d; stroke-linecap:butt; stroke-linejoin:round; stroke-width:4; stroke-opacity:1; fill:none" points="
  1121,246.107 1250.6,246.107 
  "/>
<line clip-path="url(#clip040)" x1="1185.8" y1="246.107" x2="1185.8" y2="220.507" style="stroke:#3da44d; stroke-width:4.9152; stroke-opacity:1"/>
<line clip-path="url(#clip040)" x1="1185.8" y1="246.107" x2="1160.2" y2="246.107" style="stroke:#3da44d; stroke-width:4.9152; stroke-opacity:1"/>
<line clip-path="url(#clip040)" x1="1185.8" y1="246.107" x2="1185.8" y2="271.707" style="stroke:#3da44d; stroke-width:4.9152; stroke-opacity:1"/>
<line clip-path="url(#clip040)" x1="1185.8" y1="246.107" x2="1211.4" y2="246.107" style="stroke:#3da44d; stroke-width:4.9152; stroke-opacity:1"/>
<path clip-path="url(#clip040)" d="M1272.2 228.827 L1276.88 228.827 L1276.88 263.387 L1272.2 263.387 L1272.2 228.827 Z" fill="#000000" fill-rule="evenodd" fill-opacity="1" /><path clip-path="url(#clip040)" d="M1306.19 242.438 Q1307.78 239.568 1310.01 238.202 Q1312.23 236.836 1315.24 236.836 Q1319.29 236.836 1321.49 239.684 Q1323.69 242.508 1323.69 247.739 L1323.69 263.387 L1319.4 263.387 L1319.4 247.878 Q1319.4 244.151 1318.08 242.346 Q1316.76 240.54 1314.06 240.54 Q1310.75 240.54 1308.82 242.739 Q1306.9 244.938 1306.9 248.734 L1306.9 263.387 L1302.62 263.387 L1302.62 247.878 Q1302.62 244.128 1301.3 242.346 Q1299.98 240.54 1297.23 240.54 Q1293.96 240.54 1292.04 242.762 Q1290.12 244.961 1290.12 248.734 L1290.12 263.387 L1285.84 263.387 L1285.84 237.461 L1290.12 237.461 L1290.12 241.489 Q1291.58 239.105 1293.62 237.971 Q1295.65 236.836 1298.45 236.836 Q1301.28 236.836 1303.25 238.272 Q1305.24 239.707 1306.19 242.438 Z" fill="#000000" fill-rule="evenodd" fill-opacity="1" /><path clip-path="url(#clip040)" d="M1336.3 259.498 L1336.3 273.248 L1332.02 273.248 L1332.02 237.461 L1336.3 237.461 L1336.3 241.397 Q1337.64 239.082 1339.68 237.971 Q1341.74 236.836 1344.59 236.836 Q1349.31 236.836 1352.25 240.586 Q1355.21 244.336 1355.21 250.447 Q1355.21 256.559 1352.25 260.308 Q1349.31 264.058 1344.59 264.058 Q1341.74 264.058 1339.68 262.947 Q1337.64 261.813 1336.3 259.498 M1350.79 250.447 Q1350.79 245.748 1348.85 243.086 Q1346.93 240.401 1343.55 240.401 Q1340.17 240.401 1338.22 243.086 Q1336.3 245.748 1336.3 250.447 Q1336.3 255.146 1338.22 257.832 Q1340.17 260.494 1343.55 260.494 Q1346.93 260.494 1348.85 257.832 Q1350.79 255.146 1350.79 250.447 Z" fill="#000000" fill-rule="evenodd" fill-opacity="1" /><path clip-path="url(#clip040)" d="M1362.27 227.369 L1366.53 227.369 L1366.53 263.387 L1362.27 263.387 L1362.27 227.369 Z" fill="#000000" fill-rule="evenodd" fill-opacity="1" /><path clip-path="url(#clip040)" d="M1375.44 237.461 L1379.7 237.461 L1379.7 263.387 L1375.44 263.387 L1375.44 237.461 M1375.44 227.369 L1379.7 227.369 L1379.7 232.762 L1375.44 232.762 L1375.44 227.369 Z" fill="#000000" fill-rule="evenodd" fill-opacity="1" /><path clip-path="url(#clip040)" d="M1407.27 238.457 L1407.27 242.438 Q1405.47 241.443 1403.64 240.957 Q1401.83 240.447 1399.98 240.447 Q1395.84 240.447 1393.55 243.086 Q1391.25 245.702 1391.25 250.447 Q1391.25 255.193 1393.55 257.832 Q1395.84 260.447 1399.98 260.447 Q1401.83 260.447 1403.64 259.961 Q1405.47 259.452 1407.27 258.457 L1407.27 262.392 Q1405.49 263.225 1403.57 263.642 Q1401.67 264.058 1399.52 264.058 Q1393.66 264.058 1390.21 260.378 Q1386.76 256.697 1386.76 250.447 Q1386.76 244.105 1390.24 240.471 Q1393.73 236.836 1399.8 236.836 Q1401.76 236.836 1403.64 237.253 Q1405.51 237.647 1407.27 238.457 Z" fill="#000000" fill-rule="evenodd" fill-opacity="1" /><path clip-path="url(#clip040)" d="M1414.68 237.461 L1418.94 237.461 L1418.94 263.387 L1414.68 263.387 L1414.68 237.461 M1414.68 227.369 L1418.94 227.369 L1418.94 232.762 L1414.68 232.762 L1414.68 227.369 Z" fill="#000000" fill-rule="evenodd" fill-opacity="1" /><path clip-path="url(#clip040)" d="M1432.06 230.1 L1432.06 237.461 L1440.84 237.461 L1440.84 240.772 L1432.06 240.772 L1432.06 254.846 Q1432.06 258.017 1432.92 258.92 Q1433.8 259.822 1436.46 259.822 L1440.84 259.822 L1440.84 263.387 L1436.46 263.387 Q1431.53 263.387 1429.66 261.558 Q1427.78 259.707 1427.78 254.846 L1427.78 240.772 L1424.66 240.772 L1424.66 237.461 L1427.78 237.461 L1427.78 230.1 L1432.06 230.1 Z" fill="#000000" fill-rule="evenodd" fill-opacity="1" /><path clip-path="url(#clip040)" d="M1446.63 228.827 L1451.3 228.827 L1451.3 242.994 L1468.29 242.994 L1468.29 228.827 L1472.97 228.827 L1472.97 263.387 L1468.29 263.387 L1468.29 246.929 L1451.3 246.929 L1451.3 263.387 L1446.63 263.387 L1446.63 228.827 Z" fill="#000000" fill-rule="evenodd" fill-opacity="1" /><path clip-path="url(#clip040)" d="M1493.87 250.355 Q1488.71 250.355 1486.72 251.535 Q1484.73 252.716 1484.73 255.563 Q1484.73 257.832 1486.21 259.174 Q1487.71 260.494 1490.28 260.494 Q1493.82 260.494 1495.95 257.994 Q1498.11 255.471 1498.11 251.304 L1498.11 250.355 L1493.87 250.355 M1502.37 248.596 L1502.37 263.387 L1498.11 263.387 L1498.11 259.452 Q1496.65 261.813 1494.47 262.947 Q1492.3 264.058 1489.15 264.058 Q1485.17 264.058 1482.81 261.836 Q1480.47 259.591 1480.47 255.841 Q1480.47 251.466 1483.38 249.244 Q1486.32 247.022 1492.13 247.022 L1498.11 247.022 L1498.11 246.605 Q1498.11 243.665 1496.16 242.068 Q1494.24 240.447 1490.75 240.447 Q1488.52 240.447 1486.42 240.98 Q1484.31 241.512 1482.37 242.577 L1482.37 238.642 Q1484.7 237.739 1486.9 237.299 Q1489.1 236.836 1491.18 236.836 Q1496.81 236.836 1499.59 239.753 Q1502.37 242.67 1502.37 248.596 Z" fill="#000000" fill-rule="evenodd" fill-opacity="1" /><path clip-path="url(#clip040)" d="M1511.14 237.461 L1515.4 237.461 L1515.4 263.387 L1511.14 263.387 L1511.14 237.461 M1511.14 227.369 L1515.4 227.369 L1515.4 232.762 L1511.14 232.762 L1511.14 227.369 Z" fill="#000000" fill-rule="evenodd" fill-opacity="1" /><path clip-path="url(#clip040)" d="M1539.33 241.443 Q1538.62 241.026 1537.76 240.841 Q1536.93 240.633 1535.91 240.633 Q1532.3 240.633 1530.35 242.994 Q1528.43 245.332 1528.43 249.73 L1528.43 263.387 L1524.15 263.387 L1524.15 237.461 L1528.43 237.461 L1528.43 241.489 Q1529.77 239.128 1531.93 237.994 Q1534.08 236.836 1537.16 236.836 Q1537.6 236.836 1538.13 236.906 Q1538.66 236.952 1539.31 237.068 L1539.33 241.443 Z" fill="#000000" fill-rule="evenodd" fill-opacity="1" /><path clip-path="url(#clip040)" d="M1564.93 249.359 L1564.93 251.443 L1545.35 251.443 Q1545.63 255.841 1547.99 258.156 Q1550.37 260.447 1554.61 260.447 Q1557.06 260.447 1559.36 259.846 Q1561.67 259.244 1563.94 258.04 L1563.94 262.068 Q1561.65 263.04 1559.24 263.549 Q1556.83 264.058 1554.36 264.058 Q1548.15 264.058 1544.52 260.447 Q1540.91 256.836 1540.91 250.679 Q1540.91 244.313 1544.33 240.586 Q1547.78 236.836 1553.62 236.836 Q1558.85 236.836 1561.88 240.216 Q1564.93 243.572 1564.93 249.359 M1560.68 248.109 Q1560.63 244.614 1558.71 242.531 Q1556.81 240.447 1553.66 240.447 Q1550.1 240.447 1547.94 242.461 Q1545.81 244.475 1545.49 248.133 L1560.68 248.109 Z" fill="#000000" fill-rule="evenodd" fill-opacity="1" /><path clip-path="url(#clip040)" d="M1586.95 241.443 Q1586.23 241.026 1585.37 240.841 Q1584.54 240.633 1583.52 240.633 Q1579.91 240.633 1577.97 242.994 Q1576.05 245.332 1576.05 249.73 L1576.05 263.387 L1571.76 263.387 L1571.76 237.461 L1576.05 237.461 L1576.05 241.489 Q1577.39 239.128 1579.54 237.994 Q1581.69 236.836 1584.77 236.836 Q1585.21 236.836 1585.74 236.906 Q1586.28 236.952 1586.93 237.068 L1586.95 241.443 Z" fill="#000000" fill-rule="evenodd" fill-opacity="1" /><path clip-path="url(#clip040)" d="M1588.52 228.827 L1593.24 228.827 L1600.51 258.04 L1607.76 228.827 L1613.01 228.827 L1620.28 258.04 L1627.53 228.827 L1632.27 228.827 L1623.59 263.387 L1617.71 263.387 L1610.42 233.387 L1603.06 263.387 L1597.18 263.387 L1588.52 228.827 Z" fill="#000000" fill-rule="evenodd" fill-opacity="1" /><path clip-path="url(#clip040)" d="M1647.04 250.355 Q1641.88 250.355 1639.89 251.535 Q1637.9 252.716 1637.9 255.563 Q1637.9 257.832 1639.38 259.174 Q1640.88 260.494 1643.45 260.494 Q1646.99 260.494 1649.12 257.994 Q1651.28 255.471 1651.28 251.304 L1651.28 250.355 L1647.04 250.355 M1655.54 248.596 L1655.54 263.387 L1651.28 263.387 L1651.28 259.452 Q1649.82 261.813 1647.64 262.947 Q1645.47 264.058 1642.32 264.058 Q1638.34 264.058 1635.98 261.836 Q1633.64 259.591 1633.64 255.841 Q1633.64 251.466 1636.55 249.244 Q1639.49 247.022 1645.3 247.022 L1651.28 247.022 L1651.28 246.605 Q1651.28 243.665 1649.33 242.068 Q1647.41 240.447 1643.92 240.447 Q1641.69 240.447 1639.59 240.98 Q1637.48 241.512 1635.54 242.577 L1635.54 238.642 Q1637.87 237.739 1640.07 237.299 Q1642.27 236.836 1644.36 236.836 Q1649.98 236.836 1652.76 239.753 Q1655.54 242.67 1655.54 248.596 Z" fill="#000000" fill-rule="evenodd" fill-opacity="1" /><path clip-path="url(#clip040)" d="M1685.86 247.739 L1685.86 263.387 L1681.6 263.387 L1681.6 247.878 Q1681.6 244.197 1680.17 242.369 Q1678.73 240.54 1675.86 240.54 Q1672.41 240.54 1670.42 242.739 Q1668.43 244.938 1668.43 248.734 L1668.43 263.387 L1664.15 263.387 L1664.15 237.461 L1668.43 237.461 L1668.43 241.489 Q1669.96 239.151 1672.02 237.994 Q1674.1 236.836 1676.81 236.836 Q1681.28 236.836 1683.57 239.614 Q1685.86 242.369 1685.86 247.739 Z" fill="#000000" fill-rule="evenodd" fill-opacity="1" /><path clip-path="url(#clip040)" d="M1715.91 247.739 L1715.91 263.387 L1711.65 263.387 L1711.65 247.878 Q1711.65 244.197 1710.21 242.369 Q1708.78 240.54 1705.91 240.54 Q1702.46 240.54 1700.47 242.739 Q1698.48 244.938 1698.48 248.734 L1698.48 263.387 L1694.19 263.387 L1694.19 237.461 L1698.48 237.461 L1698.48 241.489 Q1700 239.151 1702.06 237.994 Q1704.15 236.836 1706.86 236.836 Q1711.32 236.836 1713.61 239.614 Q1715.91 242.369 1715.91 247.739 Z" fill="#000000" fill-rule="evenodd" fill-opacity="1" /><path clip-path="url(#clip040)" d="M1746.58 249.359 L1746.58 251.443 L1726.99 251.443 Q1727.27 255.841 1729.63 258.156 Q1732.02 260.447 1736.25 260.447 Q1738.71 260.447 1741 259.846 Q1743.31 259.244 1745.58 258.04 L1745.58 262.068 Q1743.29 263.04 1740.88 263.549 Q1738.48 264.058 1736 264.058 Q1729.79 264.058 1726.16 260.447 Q1722.55 256.836 1722.55 250.679 Q1722.55 244.313 1725.98 240.586 Q1729.42 236.836 1735.26 236.836 Q1740.49 236.836 1743.52 240.216 Q1746.58 243.572 1746.58 249.359 M1742.32 248.109 Q1742.27 244.614 1740.35 242.531 Q1738.45 240.447 1735.3 240.447 Q1731.74 240.447 1729.59 242.461 Q1727.46 244.475 1727.13 248.133 L1742.32 248.109 Z" fill="#000000" fill-rule="evenodd" fill-opacity="1" /><path clip-path="url(#clip040)" d="M1768.59 241.443 Q1767.87 241.026 1767.02 240.841 Q1766.18 240.633 1765.16 240.633 Q1761.55 240.633 1759.61 242.994 Q1757.69 245.332 1757.69 249.73 L1757.69 263.387 L1753.41 263.387 L1753.41 237.461 L1757.69 237.461 L1757.69 241.489 Q1759.03 239.128 1761.18 237.994 Q1763.34 236.836 1766.41 236.836 Q1766.85 236.836 1767.39 236.906 Q1767.92 236.952 1768.57 237.068 L1768.59 241.443 Z" fill="#000000" fill-rule="evenodd" fill-opacity="1" /><path clip-path="url(#clip040)" d="M1773.24 228.827 L1795.1 228.827 L1795.1 232.762 L1777.92 232.762 L1777.92 242.994 L1794.38 242.994 L1794.38 246.929 L1777.92 246.929 L1777.92 259.452 L1795.51 259.452 L1795.51 263.387 L1773.24 263.387 L1773.24 228.827 Z" fill="#000000" fill-rule="evenodd" fill-opacity="1" /><path clip-path="url(#clip040)" d="M1824.56 237.461 L1815.19 250.077 L1825.05 263.387 L1820.03 263.387 L1812.48 253.202 L1804.93 263.387 L1799.91 263.387 L1809.98 249.822 L1800.77 237.461 L1805.79 237.461 L1812.66 246.697 L1819.54 237.461 L1824.56 237.461 Z" fill="#000000" fill-rule="evenodd" fill-opacity="1" /><path clip-path="url(#clip040)" d="M1835.28 230.1 L1835.28 237.461 L1844.05 237.461 L1844.05 240.772 L1835.28 240.772 L1835.28 254.846 Q1835.28 258.017 1836.14 258.92 Q1837.02 259.822 1839.68 259.822 L1844.05 259.822 L1844.05 263.387 L1839.68 263.387 Q1834.75 263.387 1832.87 261.558 Q1831 259.707 1831 254.846 L1831 240.772 L1827.87 240.772 L1827.87 237.461 L1831 237.461 L1831 230.1 L1835.28 230.1 Z" fill="#000000" fill-rule="evenodd" fill-opacity="1" /><path clip-path="url(#clip040)" d="M1864.68 241.443 Q1863.96 241.026 1863.1 240.841 Q1862.27 240.633 1861.25 240.633 Q1857.64 240.633 1855.7 242.994 Q1853.78 245.332 1853.78 249.73 L1853.78 263.387 L1849.49 263.387 L1849.49 237.461 L1853.78 237.461 L1853.78 241.489 Q1855.12 239.128 1857.27 237.994 Q1859.42 236.836 1862.5 236.836 Q1862.94 236.836 1863.47 236.906 Q1864.01 236.952 1864.66 237.068 L1864.68 241.443 Z" fill="#000000" fill-rule="evenodd" fill-opacity="1" /><path clip-path="url(#clip040)" d="M1880.93 250.355 Q1875.77 250.355 1873.78 251.535 Q1871.78 252.716 1871.78 255.563 Q1871.78 257.832 1873.27 259.174 Q1874.77 260.494 1877.34 260.494 Q1880.88 260.494 1883.01 257.994 Q1885.16 255.471 1885.16 251.304 L1885.16 250.355 L1880.93 250.355 M1889.42 248.596 L1889.42 263.387 L1885.16 263.387 L1885.16 259.452 Q1883.71 261.813 1881.53 262.947 Q1879.35 264.058 1876.21 264.058 Q1872.22 264.058 1869.86 261.836 Q1867.53 259.591 1867.53 255.841 Q1867.53 251.466 1870.44 249.244 Q1873.38 247.022 1879.19 247.022 L1885.16 247.022 L1885.16 246.605 Q1885.16 243.665 1883.22 242.068 Q1881.3 240.447 1877.8 240.447 Q1875.58 240.447 1873.47 240.98 Q1871.37 241.512 1869.42 242.577 L1869.42 238.642 Q1871.76 237.739 1873.96 237.299 Q1876.16 236.836 1878.24 236.836 Q1883.87 236.836 1886.65 239.753 Q1889.42 242.67 1889.42 248.596 Z" fill="#000000" fill-rule="evenodd" fill-opacity="1" /><path clip-path="url(#clip040)" d="M1902.32 259.498 L1902.32 273.248 L1898.03 273.248 L1898.03 237.461 L1902.32 237.461 L1902.32 241.397 Q1903.66 239.082 1905.7 237.971 Q1907.76 236.836 1910.6 236.836 Q1915.33 236.836 1918.27 240.586 Q1921.23 244.336 1921.23 250.447 Q1921.23 256.559 1918.27 260.308 Q1915.33 264.058 1910.6 264.058 Q1907.76 264.058 1905.7 262.947 Q1903.66 261.813 1902.32 259.498 M1916.81 250.447 Q1916.81 245.748 1914.86 243.086 Q1912.94 240.401 1909.56 240.401 Q1906.18 240.401 1904.24 243.086 Q1902.32 245.748 1902.32 250.447 Q1902.32 255.146 1904.24 257.832 Q1906.18 260.494 1909.56 260.494 Q1912.94 260.494 1914.86 257.832 Q1916.81 255.146 1916.81 250.447 Z" fill="#000000" fill-rule="evenodd" fill-opacity="1" /><path clip-path="url(#clip040)" d="M1938.34 240.447 Q1934.91 240.447 1932.92 243.133 Q1930.93 245.795 1930.93 250.447 Q1930.93 255.1 1932.9 257.785 Q1934.89 260.447 1938.34 260.447 Q1941.74 260.447 1943.73 257.762 Q1945.72 255.077 1945.72 250.447 Q1945.72 245.841 1943.73 243.156 Q1941.74 240.447 1938.34 240.447 M1938.34 236.836 Q1943.89 236.836 1947.06 240.447 Q1950.23 244.059 1950.23 250.447 Q1950.23 256.813 1947.06 260.447 Q1943.89 264.058 1938.34 264.058 Q1932.76 264.058 1929.59 260.447 Q1926.44 256.813 1926.44 250.447 Q1926.44 244.059 1929.59 240.447 Q1932.76 236.836 1938.34 236.836 Z" fill="#000000" fill-rule="evenodd" fill-opacity="1" /><path clip-path="url(#clip040)" d="M1957.29 227.369 L1961.55 227.369 L1961.55 263.387 L1957.29 263.387 L1957.29 227.369 Z" fill="#000000" fill-rule="evenodd" fill-opacity="1" /><path clip-path="url(#clip040)" d="M1982.25 250.355 Q1977.09 250.355 1975.09 251.535 Q1973.1 252.716 1973.1 255.563 Q1973.1 257.832 1974.59 259.174 Q1976.09 260.494 1978.66 260.494 Q1982.2 260.494 1984.33 257.994 Q1986.48 255.471 1986.48 251.304 L1986.48 250.355 L1982.25 250.355 M1990.74 248.596 L1990.74 263.387 L1986.48 263.387 L1986.48 259.452 Q1985.02 261.813 1982.85 262.947 Q1980.67 264.058 1977.52 264.058 Q1973.54 264.058 1971.18 261.836 Q1968.84 259.591 1968.84 255.841 Q1968.84 251.466 1971.76 249.244 Q1974.7 247.022 1980.51 247.022 L1986.48 247.022 L1986.48 246.605 Q1986.48 243.665 1984.54 242.068 Q1982.62 240.447 1979.12 240.447 Q1976.9 240.447 1974.79 240.98 Q1972.69 241.512 1970.74 242.577 L1970.74 238.642 Q1973.08 237.739 1975.28 237.299 Q1977.48 236.836 1979.56 236.836 Q1985.19 236.836 1987.96 239.753 Q1990.74 242.67 1990.74 248.596 Z" fill="#000000" fill-rule="evenodd" fill-opacity="1" /><path clip-path="url(#clip040)" d="M2003.73 230.1 L2003.73 237.461 L2012.5 237.461 L2012.5 240.772 L2003.73 240.772 L2003.73 254.846 Q2003.73 258.017 2004.59 258.92 Q2005.46 259.822 2008.13 259.822 L2012.5 259.822 L2012.5 263.387 L2008.13 263.387 Q2003.2 263.387 2001.32 261.558 Q1999.45 259.707 1999.45 254.846 L1999.45 240.772 L1996.32 240.772 L1996.32 237.461 L1999.45 237.461 L1999.45 230.1 L2003.73 230.1 Z" fill="#000000" fill-rule="evenodd" fill-opacity="1" /><path clip-path="url(#clip040)" d="M2018.1 237.461 L2022.36 237.461 L2022.36 263.387 L2018.1 263.387 L2018.1 237.461 M2018.1 227.369 L2022.36 227.369 L2022.36 232.762 L2018.1 232.762 L2018.1 227.369 Z" fill="#000000" fill-rule="evenodd" fill-opacity="1" /><path clip-path="url(#clip040)" d="M2041.32 240.447 Q2037.9 240.447 2035.9 243.133 Q2033.91 245.795 2033.91 250.447 Q2033.91 255.1 2035.88 257.785 Q2037.87 260.447 2041.32 260.447 Q2044.72 260.447 2046.71 257.762 Q2048.71 255.077 2048.71 250.447 Q2048.71 245.841 2046.71 243.156 Q2044.72 240.447 2041.32 240.447 M2041.32 236.836 Q2046.88 236.836 2050.05 240.447 Q2053.22 244.059 2053.22 250.447 Q2053.22 256.813 2050.05 260.447 Q2046.88 264.058 2041.32 264.058 Q2035.74 264.058 2032.57 260.447 Q2029.42 256.813 2029.42 250.447 Q2029.42 244.059 2032.57 240.447 Q2035.74 236.836 2041.32 236.836 Z" fill="#000000" fill-rule="evenodd" fill-opacity="1" /><path clip-path="url(#clip040)" d="M2081.83 247.739 L2081.83 263.387 L2077.57 263.387 L2077.57 247.878 Q2077.57 244.197 2076.14 242.369 Q2074.7 240.54 2071.83 240.54 Q2068.38 240.54 2066.39 242.739 Q2064.4 244.938 2064.4 248.734 L2064.4 263.387 L2060.12 263.387 L2060.12 237.461 L2064.4 237.461 L2064.4 241.489 Q2065.93 239.151 2067.99 237.994 Q2070.07 236.836 2072.78 236.836 Q2077.25 236.836 2079.54 239.614 Q2081.83 242.369 2081.83 247.739 Z" fill="#000000" fill-rule="evenodd" fill-opacity="1" /></svg>
