<?xml version="1.0" encoding="utf-8"?>
<svg xmlns="http://www.w3.org/2000/svg" xmlns:xlink="http://www.w3.org/1999/xlink" width="576" height="384" viewBox="0 0 2304 1536">
<defs>
  <clipPath id="clip680">
    <rect x="0" y="0" width="2304" height="1536"/>
  </clipPath>
</defs>
<path clip-path="url(#clip680)" d="
M0 1536 L2304 1536 L2304 0 L0 0  Z
  " fill="#ffffff" fill-rule="evenodd" fill-opacity="1"/>
<defs>
  <clipPath id="clip681">
    <rect x="460" y="0" width="1614" height="1536"/>
  </clipPath>
</defs>
<path clip-path="url(#clip680)" d="
M251.804 1347.54 L2256.76 1347.54 L2256.76 47.2441 L251.804 47.2441  Z
  " fill="#ffffff" fill-rule="evenodd" fill-opacity="1"/>
<defs>
  <clipPath id="clip682">
    <rect x="251" y="47" width="2006" height="1301"/>
  </clipPath>
</defs>
<polyline clip-path="url(#clip682)" style="stroke:#000000; stroke-linecap:butt; stroke-linejoin:round; stroke-width:2; stroke-opacity:0.1; fill:none" points="
  918.561,1347.54 918.561,47.2441 
  "/>
<polyline clip-path="url(#clip682)" style="stroke:#000000; stroke-linecap:butt; stroke-linejoin:round; stroke-width:2; stroke-opacity:0.1; fill:none" points="
  1636.73,1347.54 1636.73,47.2441 
  "/>
<polyline clip-path="url(#clip680)" style="stroke:#000000; stroke-linecap:butt; stroke-linejoin:round; stroke-width:4; stroke-opacity:1; fill:none" points="
  251.804,1347.54 2256.76,1347.54 
  "/>
<polyline clip-path="url(#clip680)" style="stroke:#000000; stroke-linecap:butt; stroke-linejoin:round; stroke-width:4; stroke-opacity:1; fill:none" points="
  918.561,1347.54 918.561,1328.64 
  "/>
<polyline clip-path="url(#clip680)" style="stroke:#000000; stroke-linecap:butt; stroke-linejoin:round; stroke-width:4; stroke-opacity:1; fill:none" points="
  1636.73,1347.54 1636.73,1328.64 
  "/>
<path clip-path="url(#clip680)" d="M868.253 1420.89 L875.892 1420.89 L875.892 1394.53 L867.582 1396.19 L867.582 1391.94 L875.845 1390.27 L880.521 1390.27 L880.521 1420.89 L888.16 1420.89 L888.16 1424.83 L868.253 1424.83 L868.253 1420.89 Z" fill="#000000" fill-rule="evenodd" fill-opacity="1" /><path clip-path="url(#clip680)" d="M907.605 1393.35 Q903.993 1393.35 902.165 1396.91 Q900.359 1400.45 900.359 1407.58 Q900.359 1414.69 902.165 1418.25 Q903.993 1421.8 907.605 1421.8 Q911.239 1421.8 913.044 1418.25 Q914.873 1414.69 914.873 1407.58 Q914.873 1400.45 913.044 1396.91 Q911.239 1393.35 907.605 1393.35 M907.605 1389.64 Q913.415 1389.64 916.47 1394.25 Q919.549 1398.83 919.549 1407.58 Q919.549 1416.31 916.47 1420.92 Q913.415 1425.5 907.605 1425.5 Q901.794 1425.5 898.716 1420.92 Q895.66 1416.31 895.66 1407.58 Q895.66 1398.83 898.716 1394.25 Q901.794 1389.64 907.605 1389.64 Z" fill="#000000" fill-rule="evenodd" fill-opacity="1" /><path clip-path="url(#clip680)" d="M919.549 1383.74 L943.66 1383.74 L943.66 1386.94 L919.549 1386.94 L919.549 1383.74 Z" fill="#000000" fill-rule="evenodd" fill-opacity="1" /><path clip-path="url(#clip680)" d="M951.973 1396.84 L951.973 1393.37 Q953.403 1394.05 954.87 1394.41 Q956.337 1394.77 957.747 1394.77 Q961.509 1394.77 963.484 1392.25 Q965.477 1389.71 965.76 1384.55 Q964.669 1386.17 962.995 1387.04 Q961.321 1387.9 959.29 1387.9 Q955.077 1387.9 952.613 1385.36 Q950.168 1382.8 950.168 1378.38 Q950.168 1374.06 952.726 1371.44 Q955.284 1368.83 959.534 1368.83 Q964.405 1368.83 966.963 1372.57 Q969.54 1376.3 969.54 1383.41 Q969.54 1390.05 966.38 1394.01 Q963.239 1397.96 957.917 1397.96 Q956.487 1397.96 955.02 1397.68 Q953.553 1397.4 951.973 1396.84 M959.534 1384.93 Q962.092 1384.93 963.578 1383.18 Q965.082 1381.43 965.082 1378.38 Q965.082 1375.36 963.578 1373.61 Q962.092 1371.84 959.534 1371.84 Q956.976 1371.84 955.472 1373.61 Q953.986 1375.36 953.986 1378.38 Q953.986 1381.43 955.472 1383.18 Q956.976 1384.93 959.534 1384.93 Z" fill="#000000" fill-rule="evenodd" fill-opacity="1" /><path clip-path="url(#clip680)" d="M1586.28 1420.89 L1593.92 1420.89 L1593.92 1394.53 L1585.61 1396.19 L1585.61 1391.94 L1593.87 1390.27 L1598.55 1390.27 L1598.55 1420.89 L1606.18 1420.89 L1606.18 1424.83 L1586.28 1424.83 L1586.28 1420.89 Z" fill="#000000" fill-rule="evenodd" fill-opacity="1" /><path clip-path="url(#clip680)" d="M1625.63 1393.35 Q1622.02 1393.35 1620.19 1396.91 Q1618.38 1400.45 1618.38 1407.58 Q1618.38 1414.69 1620.19 1418.25 Q1622.02 1421.8 1625.63 1421.8 Q1629.26 1421.8 1631.07 1418.25 Q1632.9 1414.69 1632.9 1407.58 Q1632.9 1400.45 1631.07 1396.91 Q1629.26 1393.35 1625.63 1393.35 M1625.63 1389.64 Q1631.44 1389.64 1634.49 1394.25 Q1637.57 1398.83 1637.57 1407.58 Q1637.57 1416.31 1634.49 1420.92 Q1631.44 1425.5 1625.63 1425.5 Q1619.82 1425.5 1616.74 1420.92 Q1613.68 1416.31 1613.68 1407.58 Q1613.68 1398.83 1616.74 1394.25 Q1619.82 1389.64 1625.63 1389.64 Z" fill="#000000" fill-rule="evenodd" fill-opacity="1" /><path clip-path="url(#clip680)" d="M1637.57 1383.74 L1661.68 1383.74 L1661.68 1386.94 L1637.57 1386.94 L1637.57 1383.74 Z" fill="#000000" fill-rule="evenodd" fill-opacity="1" /><path clip-path="url(#clip680)" d="M1678.48 1381.86 Q1675.92 1381.86 1674.42 1383.61 Q1672.93 1385.36 1672.93 1388.41 Q1672.93 1391.44 1674.42 1393.21 Q1675.92 1394.95 1678.48 1394.95 Q1681.04 1394.95 1682.52 1393.21 Q1684.03 1391.44 1684.03 1388.41 Q1684.03 1385.36 1682.52 1383.61 Q1681.04 1381.86 1678.48 1381.86 M1686.02 1369.96 L1686.02 1373.42 Q1684.59 1372.74 1683.13 1372.39 Q1681.68 1372.03 1680.25 1372.03 Q1676.49 1372.03 1674.49 1374.57 Q1672.52 1377.11 1672.24 1382.24 Q1673.35 1380.6 1675.02 1379.74 Q1676.69 1378.85 1678.71 1378.85 Q1682.94 1378.85 1685.38 1381.43 Q1687.85 1383.99 1687.85 1388.41 Q1687.85 1392.74 1685.29 1395.35 Q1682.73 1397.96 1678.48 1397.96 Q1673.61 1397.96 1671.03 1394.24 Q1668.46 1390.5 1668.46 1383.41 Q1668.46 1376.75 1671.62 1372.8 Q1674.78 1368.83 1680.1 1368.83 Q1681.53 1368.83 1682.98 1369.11 Q1684.44 1369.39 1686.02 1369.96 Z" fill="#000000" fill-rule="evenodd" fill-opacity="1" /><path clip-path="url(#clip680)" d="M1178.03 1461.87 L1208.08 1461.87 L1208.08 1467.28 L1184.46 1467.28 L1184.46 1481.34 L1207.09 1481.34 L1207.09 1486.76 L1184.46 1486.76 L1184.46 1503.97 L1208.65 1503.97 L1208.65 1509.39 L1178.03 1509.39 L1178.03 1461.87 Z" fill="#000000" fill-rule="evenodd" fill-opacity="1" /><path clip-path="url(#clip680)" d="M1239.62 1479.21 Q1238.64 1478.64 1237.46 1478.38 Q1236.31 1478.1 1234.91 1478.1 Q1229.95 1478.1 1227.27 1481.34 Q1224.63 1484.56 1224.63 1490.61 L1224.63 1509.39 L1218.74 1509.39 L1218.74 1473.74 L1224.63 1473.74 L1224.63 1479.28 Q1226.48 1476.03 1229.44 1474.47 Q1232.4 1472.88 1236.63 1472.88 Q1237.24 1472.88 1237.97 1472.97 Q1238.7 1473.04 1239.59 1473.2 L1239.62 1479.21 Z" fill="#000000" fill-rule="evenodd" fill-opacity="1" /><path clip-path="url(#clip680)" d="M1265.28 1479.21 Q1264.29 1478.64 1263.11 1478.38 Q1261.97 1478.1 1260.57 1478.1 Q1255.6 1478.1 1252.93 1481.34 Q1250.29 1484.56 1250.29 1490.61 L1250.29 1509.39 L1244.4 1509.39 L1244.4 1473.74 L1250.29 1473.74 L1250.29 1479.28 Q1252.13 1476.03 1255.09 1474.47 Q1258.05 1472.88 1262.28 1472.88 Q1262.89 1472.88 1263.62 1472.97 Q1264.35 1473.04 1265.24 1473.2 L1265.28 1479.21 Z" fill="#000000" fill-rule="evenodd" fill-opacity="1" /><path clip-path="url(#clip680)" d="M1283.8 1477.84 Q1279.09 1477.84 1276.35 1481.54 Q1273.62 1485.2 1273.62 1491.59 Q1273.62 1497.99 1276.32 1501.68 Q1279.06 1505.34 1283.8 1505.34 Q1288.48 1505.34 1291.22 1501.65 Q1293.95 1497.96 1293.95 1491.59 Q1293.95 1485.26 1291.22 1481.57 Q1288.48 1477.84 1283.8 1477.84 M1283.8 1472.88 Q1291.44 1472.88 1295.8 1477.84 Q1300.16 1482.81 1300.16 1491.59 Q1300.16 1500.35 1295.8 1505.34 Q1291.44 1510.31 1283.8 1510.31 Q1276.13 1510.31 1271.77 1505.34 Q1267.44 1500.35 1267.44 1491.59 Q1267.44 1482.81 1271.77 1477.84 Q1276.13 1472.88 1283.8 1472.88 Z" fill="#000000" fill-rule="evenodd" fill-opacity="1" /><path clip-path="url(#clip680)" d="M1330.53 1479.21 Q1329.54 1478.64 1328.36 1478.38 Q1327.22 1478.1 1325.81 1478.1 Q1320.85 1478.1 1318.18 1481.34 Q1315.53 1484.56 1315.53 1490.61 L1315.53 1509.39 L1309.65 1509.39 L1309.65 1473.74 L1315.53 1473.74 L1315.53 1479.28 Q1317.38 1476.03 1320.34 1474.47 Q1323.3 1472.88 1327.53 1472.88 Q1328.14 1472.88 1328.87 1472.97 Q1329.6 1473.04 1330.49 1473.2 L1330.53 1479.21 Z" fill="#000000" fill-rule="evenodd" fill-opacity="1" /><polyline clip-path="url(#clip682)" style="stroke:#000000; stroke-linecap:butt; stroke-linejoin:round; stroke-width:2; stroke-opacity:0.1; fill:none" points="
  251.804,1079.22 2256.76,1079.22 
  "/>
<polyline clip-path="url(#clip682)" style="stroke:#000000; stroke-linecap:butt; stroke-linejoin:round; stroke-width:2; stroke-opacity:0.1; fill:none" points="
  251.804,711.236 2256.76,711.236 
  "/>
<polyline clip-path="url(#clip682)" style="stroke:#000000; stroke-linecap:butt; stroke-linejoin:round; stroke-width:2; stroke-opacity:0.1; fill:none" points="
  251.804,343.25 2256.76,343.25 
  "/>
<polyline clip-path="url(#clip680)" style="stroke:#000000; stroke-linecap:butt; stroke-linejoin:round; stroke-width:4; stroke-opacity:1; fill:none" points="
  251.804,1347.54 251.804,47.2441 
  "/>
<polyline clip-path="url(#clip680)" style="stroke:#000000; stroke-linecap:butt; stroke-linejoin:round; stroke-width:4; stroke-opacity:1; fill:none" points="
  251.804,1079.22 270.702,1079.22 
  "/>
<polyline clip-path="url(#clip680)" style="stroke:#000000; stroke-linecap:butt; stroke-linejoin:round; stroke-width:4; stroke-opacity:1; fill:none" points="
  251.804,711.236 270.702,711.236 
  "/>
<polyline clip-path="url(#clip680)" style="stroke:#000000; stroke-linecap:butt; stroke-linejoin:round; stroke-width:4; stroke-opacity:1; fill:none" points="
  251.804,343.25 270.702,343.25 
  "/>
<path clip-path="url(#clip680)" d="M115.411 1099.02 L123.05 1099.02 L123.05 1072.65 L114.74 1074.32 L114.74 1070.06 L123.004 1068.39 L127.68 1068.39 L127.68 1099.02 L135.319 1099.02 L135.319 1102.95 L115.411 1102.95 L115.411 1099.02 Z" fill="#000000" fill-rule="evenodd" fill-opacity="1" /><path clip-path="url(#clip680)" d="M154.763 1071.47 Q151.152 1071.47 149.323 1075.03 Q147.518 1078.58 147.518 1085.7 Q147.518 1092.81 149.323 1096.38 Q151.152 1099.92 154.763 1099.92 Q158.397 1099.92 160.203 1096.38 Q162.032 1092.81 162.032 1085.7 Q162.032 1078.58 160.203 1075.03 Q158.397 1071.47 154.763 1071.47 M154.763 1067.77 Q160.573 1067.77 163.629 1072.37 Q166.707 1076.96 166.707 1085.7 Q166.707 1094.43 163.629 1099.04 Q160.573 1103.62 154.763 1103.62 Q148.953 1103.62 145.874 1099.04 Q142.819 1094.43 142.819 1085.7 Q142.819 1076.96 145.874 1072.37 Q148.953 1067.77 154.763 1067.77 Z" fill="#000000" fill-rule="evenodd" fill-opacity="1" /><path clip-path="url(#clip680)" d="M166.707 1061.87 L190.819 1061.87 L190.819 1065.06 L166.707 1065.06 L166.707 1061.87 Z" fill="#000000" fill-rule="evenodd" fill-opacity="1" /><path clip-path="url(#clip680)" d="M209.458 1050.77 L199.866 1065.76 L209.458 1065.76 L209.458 1050.77 M208.461 1047.46 L213.238 1047.46 L213.238 1065.76 L217.244 1065.76 L217.244 1068.92 L213.238 1068.92 L213.238 1075.54 L209.458 1075.54 L209.458 1068.92 L196.781 1068.92 L196.781 1065.25 L208.461 1047.46 Z" fill="#000000" fill-rule="evenodd" fill-opacity="1" /><path clip-path="url(#clip680)" d="M116.333 731.029 L123.972 731.029 L123.972 704.663 L115.662 706.33 L115.662 702.071 L123.926 700.404 L128.601 700.404 L128.601 731.029 L136.24 731.029 L136.24 734.964 L116.333 734.964 L116.333 731.029 Z" fill="#000000" fill-rule="evenodd" fill-opacity="1" /><path clip-path="url(#clip680)" d="M155.685 703.483 Q152.074 703.483 150.245 707.047 Q148.439 710.589 148.439 717.719 Q148.439 724.825 150.245 728.39 Q152.074 731.932 155.685 731.932 Q159.319 731.932 161.124 728.39 Q162.953 724.825 162.953 717.719 Q162.953 710.589 161.124 707.047 Q159.319 703.483 155.685 703.483 M155.685 699.779 Q161.495 699.779 164.55 704.385 Q167.629 708.969 167.629 717.719 Q167.629 726.445 164.55 731.052 Q161.495 735.635 155.685 735.635 Q149.875 735.635 146.796 731.052 Q143.74 726.445 143.74 717.719 Q143.74 708.969 146.796 704.385 Q149.875 699.779 155.685 699.779 Z" fill="#000000" fill-rule="evenodd" fill-opacity="1" /><path clip-path="url(#clip680)" d="M167.629 693.88 L191.741 693.88 L191.741 697.078 L167.629 697.078 L167.629 693.88 Z" fill="#000000" fill-rule="evenodd" fill-opacity="1" /><path clip-path="url(#clip680)" d="M211.451 692.413 Q214.178 692.996 215.702 694.839 Q217.244 696.683 217.244 699.391 Q217.244 703.547 214.385 705.823 Q211.526 708.099 206.26 708.099 Q204.492 708.099 202.612 707.742 Q200.75 707.403 198.756 706.707 L198.756 703.04 Q200.336 703.961 202.217 704.431 Q204.097 704.902 206.147 704.902 Q209.721 704.902 211.583 703.491 Q213.464 702.08 213.464 699.391 Q213.464 696.908 211.714 695.517 Q209.984 694.106 206.881 694.106 L203.608 694.106 L203.608 690.984 L207.031 690.984 Q209.834 690.984 211.32 689.874 Q212.805 688.746 212.805 686.639 Q212.805 684.476 211.263 683.329 Q209.74 682.163 206.881 682.163 Q205.32 682.163 203.533 682.502 Q201.746 682.84 199.602 683.555 L199.602 680.169 Q201.765 679.568 203.646 679.267 Q205.546 678.966 207.219 678.966 Q211.545 678.966 214.065 680.941 Q216.586 682.897 216.586 686.244 Q216.586 688.576 215.25 690.194 Q213.915 691.793 211.451 692.413 Z" fill="#000000" fill-rule="evenodd" fill-opacity="1" /><path clip-path="url(#clip680)" d="M117.104 363.042 L124.743 363.042 L124.743 336.677 L116.433 338.343 L116.433 334.084 L124.697 332.418 L129.373 332.418 L129.373 363.042 L137.011 363.042 L137.011 366.978 L117.104 366.978 L117.104 363.042 Z" fill="#000000" fill-rule="evenodd" fill-opacity="1" /><path clip-path="url(#clip680)" d="M156.456 335.496 Q152.845 335.496 151.016 339.061 Q149.21 342.603 149.21 349.732 Q149.21 356.839 151.016 360.404 Q152.845 363.945 156.456 363.945 Q160.09 363.945 161.896 360.404 Q163.724 356.839 163.724 349.732 Q163.724 342.603 161.896 339.061 Q160.09 335.496 156.456 335.496 M156.456 331.793 Q162.266 331.793 165.321 336.399 Q168.4 340.982 168.4 349.732 Q168.4 358.459 165.321 363.066 Q162.266 367.649 156.456 367.649 Q150.646 367.649 147.567 363.066 Q144.511 358.459 144.511 349.732 Q144.511 340.982 147.567 336.399 Q150.646 331.793 156.456 331.793 Z" fill="#000000" fill-rule="evenodd" fill-opacity="1" /><path clip-path="url(#clip680)" d="M168.4 325.894 L192.512 325.894 L192.512 329.091 L168.4 329.091 L168.4 325.894 Z" fill="#000000" fill-rule="evenodd" fill-opacity="1" /><path clip-path="url(#clip680)" d="M203.984 336.37 L217.244 336.37 L217.244 339.567 L199.414 339.567 L199.414 336.37 Q201.577 334.132 205.301 330.37 Q209.044 326.59 210.003 325.499 Q211.827 323.449 212.542 322.038 Q213.276 320.609 213.276 319.236 Q213.276 316.998 211.696 315.587 Q210.135 314.177 207.614 314.177 Q205.828 314.177 203.834 314.797 Q201.859 315.418 199.602 316.678 L199.602 312.841 Q201.897 311.92 203.89 311.45 Q205.884 310.979 207.539 310.979 Q211.903 310.979 214.498 313.161 Q217.093 315.343 217.093 318.991 Q217.093 320.722 216.435 322.283 Q215.796 323.825 214.084 325.932 Q213.614 326.477 211.094 329.091 Q208.574 331.687 203.984 336.37 Z" fill="#000000" fill-rule="evenodd" fill-opacity="1" /><path clip-path="url(#clip680)" d="M18.4042 827.219 L18.4042 787.02 L23.815 787.02 L23.815 803.889 L65.9242 803.889 L65.9242 810.35 L23.815 810.35 L23.815 827.219 L18.4042 827.219 Z" fill="#000000" fill-rule="evenodd" fill-opacity="1" /><path clip-path="url(#clip680)" d="M30.2762 783.073 L30.2762 777.216 L65.9242 777.216 L65.9242 783.073 L30.2762 783.073 M16.399 783.073 L16.399 777.216 L23.815 777.216 L23.815 783.073 L16.399 783.073 Z" fill="#000000" fill-rule="evenodd" fill-opacity="1" /><path clip-path="url(#clip680)" d="M37.1193 737.208 Q33.1726 735.012 31.2947 731.956 Q29.4168 728.901 29.4168 724.763 Q29.4168 719.193 33.3317 716.169 Q37.2148 713.145 44.4081 713.145 L65.9242 713.145 L65.9242 719.034 L44.599 719.034 Q39.4746 719.034 36.992 720.848 Q34.5094 722.662 34.5094 726.386 Q34.5094 730.938 37.5331 733.579 Q40.5568 736.221 45.7767 736.221 L65.9242 736.221 L65.9242 742.109 L44.599 742.109 Q39.4428 742.109 36.992 743.924 Q34.5094 745.738 34.5094 749.526 Q34.5094 754.013 37.5649 756.655 Q40.5886 759.297 45.7767 759.297 L65.9242 759.297 L65.9242 765.185 L30.2762 765.185 L30.2762 759.297 L35.8144 759.297 Q32.536 757.292 30.9764 754.491 Q29.4168 751.69 29.4168 747.839 Q29.4168 743.956 31.3902 741.25 Q33.3636 738.513 37.1193 737.208 Z" fill="#000000" fill-rule="evenodd" fill-opacity="1" /><path clip-path="url(#clip680)" d="M46.6361 670.973 L49.5006 670.973 L49.5006 697.9 Q55.5481 697.518 58.7309 694.271 Q61.8819 690.993 61.8819 685.168 Q61.8819 681.794 61.0544 678.643 Q60.2269 675.461 58.5718 672.341 L64.1099 672.341 Q65.4467 675.492 66.147 678.803 Q66.8472 682.113 66.8472 685.518 Q66.8472 694.048 61.8819 699.045 Q56.9167 704.011 48.4503 704.011 Q39.6974 704.011 34.5731 699.3 Q29.4168 694.558 29.4168 686.537 Q29.4168 679.344 34.0638 675.174 Q38.6789 670.973 46.6361 670.973 M44.9173 676.829 Q40.1112 676.893 37.2466 679.535 Q34.3821 682.145 34.3821 686.473 Q34.3821 691.375 37.1512 694.335 Q39.9202 697.263 44.9492 697.709 L44.9173 676.829 Z" fill="#000000" fill-rule="evenodd" fill-opacity="1" /><path clip-path="url(#clip680)" d="M16.4626 626.572 Q23.7832 630.837 30.9446 632.906 Q38.106 634.975 45.4584 634.975 Q52.8108 634.975 60.0359 632.906 Q67.2291 630.805 74.5179 626.572 L74.5179 631.664 Q67.0382 636.439 59.8131 638.826 Q52.588 641.181 45.4584 641.181 Q38.3606 641.181 31.1674 638.826 Q23.9742 636.471 16.4626 631.664 L16.4626 626.572 Z" fill="#000000" fill-rule="evenodd" fill-opacity="1" /><path clip-path="url(#clip680)" d="M31.3265 592.484 L36.8647 592.484 Q35.5916 594.966 34.955 597.64 Q34.3184 600.313 34.3184 603.178 Q34.3184 607.538 35.6552 609.735 Q36.992 611.899 39.6656 611.899 Q41.7026 611.899 42.8803 610.339 Q44.0261 608.78 45.0765 604.069 L45.5221 602.064 Q46.8589 595.826 49.3097 593.216 Q51.7286 590.574 56.0891 590.574 Q61.0544 590.574 63.9508 594.521 Q66.8472 598.435 66.8472 605.31 Q66.8472 608.175 66.2743 611.294 Q65.7332 614.382 64.6192 617.819 L58.5718 617.819 Q60.2587 614.573 61.118 611.422 Q61.9456 608.27 61.9456 605.183 Q61.9456 601.045 60.5451 598.817 Q59.1129 596.589 56.5347 596.589 Q54.1476 596.589 52.8745 598.213 Q51.6013 599.804 50.4237 605.247 L49.9462 607.284 Q48.8004 612.726 46.4451 615.145 Q44.058 617.564 39.9202 617.564 Q34.8913 617.564 32.1541 614 Q29.4168 610.435 29.4168 603.878 Q29.4168 600.632 29.8943 597.767 Q30.3717 594.902 31.3265 592.484 Z" fill="#000000" fill-rule="evenodd" fill-opacity="1" /><path clip-path="url(#clip680)" d="M16.4626 582.171 L16.4626 577.079 Q23.9742 572.304 31.1674 569.949 Q38.3606 567.562 45.4584 567.562 Q52.588 567.562 59.8131 569.949 Q67.0382 572.304 74.5179 577.079 L74.5179 582.171 Q67.2291 577.938 60.0359 575.869 Q52.8108 573.768 45.4584 573.768 Q38.106 573.768 30.9446 575.869 Q23.7832 577.938 16.4626 582.171 Z" fill="#000000" fill-rule="evenodd" fill-opacity="1" /><polyline clip-path="url(#clip682)" style="stroke:#009af9; stroke-linecap:butt; stroke-linejoin:round; stroke-width:12; stroke-opacity:1; fill:none" points="
  2200.01,1310.74 2093.06,1260.52 1975.06,1194.01 1835.53,1102.86 
  "/>
<line clip-path="url(#clip682)" x1="2200.01" y1="1310.74" x2="2200.01" y2="1294.74" style="stroke:#009af9; stroke-width:3.072; stroke-opacity:1"/>
<line clip-path="url(#clip682)" x1="2200.01" y1="1310.74" x2="2184.01" y2="1310.74" style="stroke:#009af9; stroke-width:3.072; stroke-opacity:1"/>
<line clip-path="url(#clip682)" x1="2200.01" y1="1310.74" x2="2200.01" y2="1326.74" style="stroke:#009af9; stroke-width:3.072; stroke-opacity:1"/>
<line clip-path="url(#clip682)" x1="2200.01" y1="1310.74" x2="2216.01" y2="1310.74" style="stroke:#009af9; stroke-width:3.072; stroke-opacity:1"/>
<line clip-path="url(#clip682)" x1="2093.06" y1="1260.52" x2="2093.06" y2="1244.52" style="stroke:#009af9; stroke-width:3.072; stroke-opacity:1"/>
<line clip-path="url(#clip682)" x1="2093.06" y1="1260.52" x2="2077.06" y2="1260.52" style="stroke:#009af9; stroke-width:3.072; stroke-opacity:1"/>
<line clip-path="url(#clip682)" x1="2093.06" y1="1260.52" x2="2093.06" y2="1276.52" style="stroke:#009af9; stroke-width:3.072; stroke-opacity:1"/>
<line clip-path="url(#clip682)" x1="2093.06" y1="1260.52" x2="2109.06" y2="1260.52" style="stroke:#009af9; stroke-width:3.072; stroke-opacity:1"/>
<line clip-path="url(#clip682)" x1="1975.06" y1="1194.01" x2="1975.06" y2="1178.01" style="stroke:#009af9; stroke-width:3.072; stroke-opacity:1"/>
<line clip-path="url(#clip682)" x1="1975.06" y1="1194.01" x2="1959.06" y2="1194.01" style="stroke:#009af9; stroke-width:3.072; stroke-opacity:1"/>
<line clip-path="url(#clip682)" x1="1975.06" y1="1194.01" x2="1975.06" y2="1210.01" style="stroke:#009af9; stroke-width:3.072; stroke-opacity:1"/>
<line clip-path="url(#clip682)" x1="1975.06" y1="1194.01" x2="1991.06" y2="1194.01" style="stroke:#009af9; stroke-width:3.072; stroke-opacity:1"/>
<line clip-path="url(#clip682)" x1="1835.53" y1="1102.86" x2="1835.53" y2="1086.86" style="stroke:#009af9; stroke-width:3.072; stroke-opacity:1"/>
<line clip-path="url(#clip682)" x1="1835.53" y1="1102.86" x2="1819.53" y2="1102.86" style="stroke:#009af9; stroke-width:3.072; stroke-opacity:1"/>
<line clip-path="url(#clip682)" x1="1835.53" y1="1102.86" x2="1835.53" y2="1118.86" style="stroke:#009af9; stroke-width:3.072; stroke-opacity:1"/>
<line clip-path="url(#clip682)" x1="1835.53" y1="1102.86" x2="1851.53" y2="1102.86" style="stroke:#009af9; stroke-width:3.072; stroke-opacity:1"/>
<polyline clip-path="url(#clip682)" style="stroke:#e26f46; stroke-linecap:butt; stroke-linejoin:round; stroke-width:12; stroke-opacity:1; fill:none" points="
  1823.26,1000.34 1695.47,943.947 1623.3,908.19 1314.75,845.317 
  "/>
<circle clip-path="url(#clip682)" cx="1823.26" cy="1000.34" r="14" fill="#e26f46" fill-rule="evenodd" fill-opacity="1" stroke="#000000" stroke-opacity="1" stroke-width="3.072"/>
<circle clip-path="url(#clip682)" cx="1695.47" cy="943.947" r="14" fill="#e26f46" fill-rule="evenodd" fill-opacity="1" stroke="#000000" stroke-opacity="1" stroke-width="3.072"/>
<circle clip-path="url(#clip682)" cx="1623.3" cy="908.19" r="14" fill="#e26f46" fill-rule="evenodd" fill-opacity="1" stroke="#000000" stroke-opacity="1" stroke-width="3.072"/>
<circle clip-path="url(#clip682)" cx="1314.75" cy="845.317" r="14" fill="#e26f46" fill-rule="evenodd" fill-opacity="1" stroke="#000000" stroke-opacity="1" stroke-width="3.072"/>
<polyline clip-path="url(#clip682)" style="stroke:#3da44d; stroke-linecap:butt; stroke-linejoin:round; stroke-width:12; stroke-opacity:1; fill:none" points="
  1543.14,1074.69 1638.36,1025.01 1459.81,982.106 1258.55,932.023 
  "/>
<line clip-path="url(#clip682)" x1="1543.14" y1="1074.69" x2="1543.14" y2="1058.69" style="stroke:#3da44d; stroke-width:3.072; stroke-opacity:1"/>
<line clip-path="url(#clip682)" x1="1543.14" y1="1074.69" x2="1527.14" y2="1074.69" style="stroke:#3da44d; stroke-width:3.072; stroke-opacity:1"/>
<line clip-path="url(#clip682)" x1="1543.14" y1="1074.69" x2="1543.14" y2="1090.69" style="stroke:#3da44d; stroke-width:3.072; stroke-opacity:1"/>
<line clip-path="url(#clip682)" x1="1543.14" y1="1074.69" x2="1559.14" y2="1074.69" style="stroke:#3da44d; stroke-width:3.072; stroke-opacity:1"/>
<line clip-path="url(#clip682)" x1="1638.36" y1="1025.01" x2="1638.36" y2="1009.01" style="stroke:#3da44d; stroke-width:3.072; stroke-opacity:1"/>
<line clip-path="url(#clip682)" x1="1638.36" y1="1025.01" x2="1622.36" y2="1025.01" style="stroke:#3da44d; stroke-width:3.072; stroke-opacity:1"/>
<line clip-path="url(#clip682)" x1="1638.36" y1="1025.01" x2="1638.36" y2="1041.01" style="stroke:#3da44d; stroke-width:3.072; stroke-opacity:1"/>
<line clip-path="url(#clip682)" x1="1638.36" y1="1025.01" x2="1654.36" y2="1025.01" style="stroke:#3da44d; stroke-width:3.072; stroke-opacity:1"/>
<line clip-path="url(#clip682)" x1="1459.81" y1="982.106" x2="1459.81" y2="966.106" style="stroke:#3da44d; stroke-width:3.072; stroke-opacity:1"/>
<line clip-path="url(#clip682)" x1="1459.81" y1="982.106" x2="1443.81" y2="982.106" style="stroke:#3da44d; stroke-width:3.072; stroke-opacity:1"/>
<line clip-path="url(#clip682)" x1="1459.81" y1="982.106" x2="1459.81" y2="998.106" style="stroke:#3da44d; stroke-width:3.072; stroke-opacity:1"/>
<line clip-path="url(#clip682)" x1="1459.81" y1="982.106" x2="1475.81" y2="982.106" style="stroke:#3da44d; stroke-width:3.072; stroke-opacity:1"/>
<line clip-path="url(#clip682)" x1="1258.55" y1="932.023" x2="1258.55" y2="916.023" style="stroke:#3da44d; stroke-width:3.072; stroke-opacity:1"/>
<line clip-path="url(#clip682)" x1="1258.55" y1="932.023" x2="1242.55" y2="932.023" style="stroke:#3da44d; stroke-width:3.072; stroke-opacity:1"/>
<line clip-path="url(#clip682)" x1="1258.55" y1="932.023" x2="1258.55" y2="948.023" style="stroke:#3da44d; stroke-width:3.072; stroke-opacity:1"/>
<line clip-path="url(#clip682)" x1="1258.55" y1="932.023" x2="1274.55" y2="932.023" style="stroke:#3da44d; stroke-width:3.072; stroke-opacity:1"/>
<polyline clip-path="url(#clip682)" style="stroke:#c271d2; stroke-linecap:butt; stroke-linejoin:round; stroke-width:12; stroke-opacity:1; fill:none" points="
  1913.56,1081.64 1776.87,1013.7 1567.05,934.182 1542.5,855.06 
  "/>
<path clip-path="url(#clip682)" d="M1913.56 1065.64 L1897.56 1081.64 L1913.56 1097.64 L1929.56 1081.64 L1913.56 1065.64 Z" fill="#c271d2" fill-rule="evenodd" fill-opacity="1" stroke="#000000" stroke-opacity="1" stroke-width="3.072"/>
<path clip-path="url(#clip682)" d="M1776.87 997.703 L1760.87 1013.7 L1776.87 1029.7 L1792.87 1013.7 L1776.87 997.703 Z" fill="#c271d2" fill-rule="evenodd" fill-opacity="1" stroke="#000000" stroke-opacity="1" stroke-width="3.072"/>
<path clip-path="url(#clip682)" d="M1567.05 918.182 L1551.05 934.182 L1567.05 950.182 L1583.05 934.182 L1567.05 918.182 Z" fill="#c271d2" fill-rule="evenodd" fill-opacity="1" stroke="#000000" stroke-opacity="1" stroke-width="3.072"/>
<path clip-path="url(#clip682)" d="M1542.5 839.06 L1526.5 855.06 L1542.5 871.06 L1558.5 855.06 L1542.5 839.06 Z" fill="#c271d2" fill-rule="evenodd" fill-opacity="1" stroke="#000000" stroke-opacity="1" stroke-width="3.072"/>
<polyline clip-path="url(#clip682)" style="stroke:#ac8d18; stroke-linecap:butt; stroke-linejoin:round; stroke-width:12; stroke-opacity:1; fill:none" points="
  1538.46,431.741 1338.71,321.516 963.52,216.386 683.818,84.0448 
  "/>
<path clip-path="url(#clip682)" d="M1554.46 415.741 L1522.46 415.741 L1538.46 447.741 L1554.46 415.741 Z" fill="#ac8d18" fill-rule="evenodd" fill-opacity="1" stroke="#000000" stroke-opacity="1" stroke-width="3.072"/>
<path clip-path="url(#clip682)" d="M1354.71 305.516 L1322.71 305.516 L1338.71 337.516 L1354.71 305.516 Z" fill="#ac8d18" fill-rule="evenodd" fill-opacity="1" stroke="#000000" stroke-opacity="1" stroke-width="3.072"/>
<path clip-path="url(#clip682)" d="M979.52 200.386 L947.52 200.386 L963.52 232.386 L979.52 200.386 Z" fill="#ac8d18" fill-rule="evenodd" fill-opacity="1" stroke="#000000" stroke-opacity="1" stroke-width="3.072"/>
<path clip-path="url(#clip682)" d="M699.818 68.0448 L667.818 68.0448 L683.818 100.045 L699.818 68.0448 Z" fill="#ac8d18" fill-rule="evenodd" fill-opacity="1" stroke="#000000" stroke-opacity="1" stroke-width="3.072"/>
<polyline clip-path="url(#clip682)" style="stroke:#00a9ad; stroke-linecap:butt; stroke-linejoin:round; stroke-width:12; stroke-opacity:1; fill:none" points="
  1132.9,522.195 971.928,467.826 967.07,365.431 308.548,232.383 
  "/>
<path clip-path="url(#clip682)" d="M1132.9 506.195 L1120.39 512.227 L1117.3 525.763 L1125.96 536.611 L1139.84 536.611 L1148.5 525.763 L1145.41 512.227 Z" fill="#00a9ad" fill-rule="evenodd" fill-opacity="1" stroke="#000000" stroke-opacity="1" stroke-width="3.072"/>
<path clip-path="url(#clip682)" d="M971.928 451.826 L959.416 457.858 L956.328 471.394 L964.984 482.242 L978.872 482.242 L987.528 471.394 L984.44 457.858 Z" fill="#00a9ad" fill-rule="evenodd" fill-opacity="1" stroke="#000000" stroke-opacity="1" stroke-width="3.072"/>
<path clip-path="url(#clip682)" d="M967.07 349.431 L954.558 355.463 L951.47 368.999 L960.126 379.847 L974.014 379.847 L982.67 368.999 L979.582 355.463 Z" fill="#00a9ad" fill-rule="evenodd" fill-opacity="1" stroke="#000000" stroke-opacity="1" stroke-width="3.072"/>
<path clip-path="url(#clip682)" d="M308.548 216.383 L296.036 222.415 L292.948 235.951 L301.604 246.799 L315.492 246.799 L324.148 235.951 L321.06 222.415 Z" fill="#00a9ad" fill-rule="evenodd" fill-opacity="1" stroke="#000000" stroke-opacity="1" stroke-width="3.072"/>
<polyline clip-path="url(#clip682)" style="stroke:#ed5d92; stroke-linecap:butt; stroke-linejoin:round; stroke-width:12; stroke-opacity:1; fill:none" points="
  1789.83,634.792 1616.38,542.307 1338.36,454.84 1303.44,333.556 
  "/>
<path clip-path="url(#clip682)" d="M1789.83 650.792 L1775.98 642.792 L1775.98 626.792 L1789.83 618.792 L1803.69 626.792 L1803.69 642.792 Z" fill="#ed5d92" fill-rule="evenodd" fill-opacity="1" stroke="#000000" stroke-opacity="1" stroke-width="3.072"/>
<path clip-path="url(#clip682)" d="M1616.38 558.307 L1602.52 550.307 L1602.52 534.307 L1616.38 526.307 L1630.23 534.307 L1630.23 550.307 Z" fill="#ed5d92" fill-rule="evenodd" fill-opacity="1" stroke="#000000" stroke-opacity="1" stroke-width="3.072"/>
<path clip-path="url(#clip682)" d="M1338.36 470.84 L1324.5 462.84 L1324.5 446.84 L1338.36 438.84 L1352.22 446.84 L1352.22 462.84 Z" fill="#ed5d92" fill-rule="evenodd" fill-opacity="1" stroke="#000000" stroke-opacity="1" stroke-width="3.072"/>
<path clip-path="url(#clip682)" d="M1303.44 349.556 L1289.59 341.556 L1289.59 325.556 L1303.44 317.556 L1317.3 325.556 L1317.3 341.556 Z" fill="#ed5d92" fill-rule="evenodd" fill-opacity="1" stroke="#000000" stroke-opacity="1" stroke-width="3.072"/>
<path clip-path="url(#clip680)" d="
M1640.49 505.307 L2189.92 505.307 L2189.92 90.5872 L1640.49 90.5872  Z
  " fill="#ffffff" fill-rule="evenodd" fill-opacity="1"/>
<polyline clip-path="url(#clip680)" style="stroke:#000000; stroke-linecap:butt; stroke-linejoin:round; stroke-width:4; stroke-opacity:1; fill:none" points="
  1640.49,505.307 2189.92,505.307 2189.92,90.5872 1640.49,90.5872 1640.49,505.307 
  "/>
<polyline clip-path="url(#clip680)" style="stroke:#009af9; stroke-linecap:butt; stroke-linejoin:round; stroke-width:4; stroke-opacity:1; fill:none" points="
  1662.76,142.427 1796.43,142.427 
  "/>
<line clip-path="url(#clip680)" x1="1729.6" y1="142.427" x2="1729.6" y2="116.827" style="stroke:#009af9; stroke-width:4.9152; stroke-opacity:1"/>
<line clip-path="url(#clip680)" x1="1729.6" y1="142.427" x2="1704" y2="142.427" style="stroke:#009af9; stroke-width:4.9152; stroke-opacity:1"/>
<line clip-path="url(#clip680)" x1="1729.6" y1="142.427" x2="1729.6" y2="168.027" style="stroke:#009af9; stroke-width:4.9152; stroke-opacity:1"/>
<line clip-path="url(#clip680)" x1="1729.6" y1="142.427" x2="1755.2" y2="142.427" style="stroke:#009af9; stroke-width:4.9152; stroke-opacity:1"/>
<path clip-path="url(#clip680)" d="M1835.09 143.504 Q1836.6 144.013 1838.01 145.679 Q1839.45 147.346 1840.88 150.263 L1845.63 159.707 L1840.6 159.707 L1836.18 150.841 Q1834.47 147.369 1832.85 146.235 Q1831.25 145.101 1828.47 145.101 L1823.38 145.101 L1823.38 159.707 L1818.7 159.707 L1818.7 125.147 L1829.26 125.147 Q1835.19 125.147 1838.1 127.624 Q1841.02 130.101 1841.02 135.101 Q1841.02 138.365 1839.49 140.517 Q1837.99 142.67 1835.09 143.504 M1823.38 128.99 L1823.38 141.258 L1829.26 141.258 Q1832.64 141.258 1834.35 139.707 Q1836.09 138.133 1836.09 135.101 Q1836.09 132.068 1834.35 130.541 Q1832.64 128.99 1829.26 128.99 L1823.38 128.99 Z" fill="#000000" fill-rule="evenodd" fill-opacity="1" /><path clip-path="url(#clip680)" d="M1859.38 136.767 Q1855.95 136.767 1853.96 139.453 Q1851.97 142.115 1851.97 146.767 Q1851.97 151.42 1853.94 154.105 Q1855.93 156.767 1859.38 156.767 Q1862.78 156.767 1864.77 154.082 Q1866.76 151.397 1866.76 146.767 Q1866.76 142.161 1864.77 139.476 Q1862.78 136.767 1859.38 136.767 M1859.38 133.156 Q1864.93 133.156 1868.1 136.767 Q1871.27 140.379 1871.27 146.767 Q1871.27 153.133 1868.1 156.767 Q1864.93 160.378 1859.38 160.378 Q1853.8 160.378 1850.63 156.767 Q1847.48 153.133 1847.48 146.767 Q1847.48 140.379 1850.63 136.767 Q1853.8 133.156 1859.38 133.156 Z" fill="#000000" fill-rule="evenodd" fill-opacity="1" /><path clip-path="url(#clip680)" d="M1894.86 134.545 L1894.86 138.573 Q1893.06 137.647 1891.11 137.184 Q1889.17 136.721 1887.08 136.721 Q1883.91 136.721 1882.32 137.693 Q1880.74 138.666 1880.74 140.61 Q1880.74 142.092 1881.88 142.948 Q1883.01 143.781 1886.44 144.545 L1887.89 144.869 Q1892.43 145.842 1894.33 147.624 Q1896.25 149.383 1896.25 152.554 Q1896.25 156.166 1893.38 158.272 Q1890.53 160.378 1885.53 160.378 Q1883.45 160.378 1881.18 159.962 Q1878.94 159.568 1876.44 158.758 L1876.44 154.36 Q1878.8 155.587 1881.09 156.212 Q1883.38 156.814 1885.63 156.814 Q1888.63 156.814 1890.26 155.795 Q1891.88 154.754 1891.88 152.879 Q1891.88 151.142 1890.7 150.216 Q1889.54 149.291 1885.58 148.434 L1884.1 148.087 Q1880.14 147.254 1878.38 145.541 Q1876.62 143.804 1876.62 140.795 Q1876.62 137.138 1879.21 135.147 Q1881.81 133.156 1886.57 133.156 Q1888.94 133.156 1891.02 133.504 Q1893.1 133.851 1894.86 134.545 Z" fill="#000000" fill-rule="evenodd" fill-opacity="1" /><path clip-path="url(#clip680)" d="M1925.21 145.679 L1925.21 147.763 L1905.63 147.763 Q1905.9 152.161 1908.26 154.476 Q1910.65 156.767 1914.88 156.767 Q1917.34 156.767 1919.63 156.166 Q1921.94 155.564 1924.21 154.36 L1924.21 158.388 Q1921.92 159.36 1919.51 159.869 Q1917.11 160.378 1914.63 160.378 Q1908.43 160.378 1904.79 156.767 Q1901.18 153.156 1901.18 146.999 Q1901.18 140.633 1904.61 136.906 Q1908.06 133.156 1913.89 133.156 Q1919.12 133.156 1922.15 136.536 Q1925.21 139.892 1925.21 145.679 M1920.95 144.429 Q1920.9 140.934 1918.98 138.851 Q1917.08 136.767 1913.94 136.767 Q1910.37 136.767 1908.22 138.781 Q1906.09 140.795 1905.76 144.453 L1920.95 144.429 Z" fill="#000000" fill-rule="evenodd" fill-opacity="1" /><path clip-path="url(#clip680)" d="M1953.75 144.059 L1953.75 159.707 L1949.49 159.707 L1949.49 144.198 Q1949.49 140.517 1948.06 138.689 Q1946.62 136.86 1943.75 136.86 Q1940.3 136.86 1938.31 139.059 Q1936.32 141.258 1936.32 145.054 L1936.32 159.707 L1932.04 159.707 L1932.04 133.781 L1936.32 133.781 L1936.32 137.809 Q1937.85 135.471 1939.91 134.314 Q1941.99 133.156 1944.7 133.156 Q1949.17 133.156 1951.46 135.934 Q1953.75 138.689 1953.75 144.059 Z" fill="#000000" fill-rule="evenodd" fill-opacity="1" /><path clip-path="url(#clip680)" d="M1980.86 146.767 Q1980.86 142.068 1978.91 139.406 Q1976.99 136.721 1973.61 136.721 Q1970.23 136.721 1968.29 139.406 Q1966.37 142.068 1966.37 146.767 Q1966.37 151.466 1968.29 154.152 Q1970.23 156.814 1973.61 156.814 Q1976.99 156.814 1978.91 154.152 Q1980.86 151.466 1980.86 146.767 M1966.37 137.717 Q1967.71 135.402 1969.75 134.291 Q1971.81 133.156 1974.65 133.156 Q1979.38 133.156 1982.32 136.906 Q1985.28 140.656 1985.28 146.767 Q1985.28 152.879 1982.32 156.628 Q1979.38 160.378 1974.65 160.378 Q1971.81 160.378 1969.75 159.267 Q1967.71 158.133 1966.37 155.818 L1966.37 159.707 L1962.08 159.707 L1962.08 123.689 L1966.37 123.689 L1966.37 137.717 Z" fill="#000000" fill-rule="evenodd" fill-opacity="1" /><path clip-path="url(#clip680)" d="M2007.36 137.763 Q2006.64 137.346 2005.79 137.161 Q2004.95 136.953 2003.94 136.953 Q2000.32 136.953 1998.38 139.314 Q1996.46 141.652 1996.46 146.05 L1996.46 159.707 L1992.18 159.707 L1992.18 133.781 L1996.46 133.781 L1996.46 137.809 Q1997.8 135.448 1999.95 134.314 Q2002.11 133.156 2005.19 133.156 Q2005.63 133.156 2006.16 133.226 Q2006.69 133.272 2007.34 133.388 L2007.36 137.763 Z" fill="#000000" fill-rule="evenodd" fill-opacity="1" /><path clip-path="url(#clip680)" d="M2020.83 136.767 Q2017.41 136.767 2015.42 139.453 Q2013.43 142.115 2013.43 146.767 Q2013.43 151.42 2015.39 154.105 Q2017.38 156.767 2020.83 156.767 Q2024.24 156.767 2026.23 154.082 Q2028.22 151.397 2028.22 146.767 Q2028.22 142.161 2026.23 139.476 Q2024.24 136.767 2020.83 136.767 M2020.83 133.156 Q2026.39 133.156 2029.56 136.767 Q2032.73 140.379 2032.73 146.767 Q2032.73 153.133 2029.56 156.767 Q2026.39 160.378 2020.83 160.378 Q2015.25 160.378 2012.08 156.767 Q2008.94 153.133 2008.94 146.767 Q2008.94 140.379 2012.08 136.767 Q2015.25 133.156 2020.83 133.156 Z" fill="#000000" fill-rule="evenodd" fill-opacity="1" /><path clip-path="url(#clip680)" d="M2058.45 134.777 L2058.45 138.758 Q2056.64 137.763 2054.81 137.277 Q2053.01 136.767 2051.16 136.767 Q2047.01 136.767 2044.72 139.406 Q2042.43 142.022 2042.43 146.767 Q2042.43 151.513 2044.72 154.152 Q2047.01 156.767 2051.16 156.767 Q2053.01 156.767 2054.81 156.281 Q2056.64 155.772 2058.45 154.777 L2058.45 158.712 Q2056.67 159.545 2054.75 159.962 Q2052.85 160.378 2050.69 160.378 Q2044.84 160.378 2041.39 156.698 Q2037.94 153.017 2037.94 146.767 Q2037.94 140.425 2041.41 136.791 Q2044.91 133.156 2050.97 133.156 Q2052.94 133.156 2054.81 133.573 Q2056.69 133.967 2058.45 134.777 Z" fill="#000000" fill-rule="evenodd" fill-opacity="1" /><path clip-path="url(#clip680)" d="M2065.69 123.689 L2069.98 123.689 L2069.98 144.962 L2082.68 133.781 L2088.12 133.781 L2074.37 145.911 L2088.7 159.707 L2083.15 159.707 L2069.98 147.045 L2069.98 159.707 L2065.69 159.707 L2065.69 123.689 Z" fill="#000000" fill-rule="evenodd" fill-opacity="1" /><path clip-path="url(#clip680)" d="M2097.94 155.772 L2114.26 155.772 L2114.26 159.707 L2092.31 159.707 L2092.31 155.772 Q2094.98 153.017 2099.56 148.388 Q2104.17 143.735 2105.35 142.392 Q2107.59 139.869 2108.47 138.133 Q2109.37 136.374 2109.37 134.684 Q2109.37 131.93 2107.43 130.193 Q2105.51 128.457 2102.41 128.457 Q2100.21 128.457 2097.75 129.221 Q2095.32 129.985 2092.55 131.536 L2092.55 126.814 Q2095.37 125.68 2097.82 125.101 Q2100.28 124.522 2102.31 124.522 Q2107.68 124.522 2110.88 127.207 Q2114.07 129.893 2114.07 134.383 Q2114.07 136.513 2113.26 138.434 Q2112.48 140.332 2110.37 142.925 Q2109.79 143.596 2106.69 146.814 Q2103.59 150.008 2097.94 155.772 Z" fill="#000000" fill-rule="evenodd" fill-opacity="1" /><path clip-path="url(#clip680)" d="M2138.24 141.073 Q2141.6 141.791 2143.47 144.059 Q2145.37 146.328 2145.37 149.661 Q2145.37 154.777 2141.85 157.578 Q2138.33 160.378 2131.85 160.378 Q2129.68 160.378 2127.36 159.939 Q2125.07 159.522 2122.62 158.666 L2122.62 154.152 Q2124.56 155.286 2126.87 155.865 Q2129.19 156.443 2131.71 156.443 Q2136.11 156.443 2138.4 154.707 Q2140.72 152.971 2140.72 149.661 Q2140.72 146.605 2138.56 144.892 Q2136.43 143.156 2132.62 143.156 L2128.59 143.156 L2128.59 139.314 L2132.8 139.314 Q2136.25 139.314 2138.08 137.948 Q2139.91 136.559 2139.91 133.967 Q2139.91 131.305 2138.01 129.893 Q2136.13 128.457 2132.62 128.457 Q2130.69 128.457 2128.49 128.874 Q2126.3 129.291 2123.66 130.17 L2123.66 126.004 Q2126.32 125.263 2128.63 124.893 Q2130.97 124.522 2133.03 124.522 Q2138.36 124.522 2141.46 126.953 Q2144.56 129.36 2144.56 133.48 Q2144.56 136.351 2142.92 138.342 Q2141.27 140.309 2138.24 141.073 Z" fill="#000000" fill-rule="evenodd" fill-opacity="1" /><polyline clip-path="url(#clip680)" style="stroke:#e26f46; stroke-linecap:butt; stroke-linejoin:round; stroke-width:4; stroke-opacity:1; fill:none" points="
  1662.76,194.267 1796.43,194.267 
  "/>
<circle clip-path="url(#clip680)" cx="1729.6" cy="194.267" r="23" fill="#e26f46" fill-rule="evenodd" fill-opacity="1" stroke="#000000" stroke-opacity="1" stroke-width="4.9152"/>
<path clip-path="url(#clip680)" d="M1818.7 176.987 L1823.38 176.987 L1823.38 191.594 L1838.89 176.987 L1844.91 176.987 L1827.76 193.098 L1846.14 211.547 L1839.98 211.547 L1823.38 194.904 L1823.38 211.547 L1818.7 211.547 L1818.7 176.987 Z" fill="#000000" fill-rule="evenodd" fill-opacity="1" /><path clip-path="url(#clip680)" d="M1869.42 197.519 L1869.42 199.603 L1849.84 199.603 Q1850.12 204.001 1852.48 206.316 Q1854.86 208.607 1859.1 208.607 Q1861.55 208.607 1863.84 208.006 Q1866.16 207.404 1868.43 206.2 L1868.43 210.228 Q1866.14 211.2 1863.73 211.709 Q1861.32 212.218 1858.84 212.218 Q1852.64 212.218 1849.01 208.607 Q1845.39 204.996 1845.39 198.839 Q1845.39 192.473 1848.82 188.746 Q1852.27 184.996 1858.1 184.996 Q1863.33 184.996 1866.37 188.376 Q1869.42 191.732 1869.42 197.519 M1865.16 196.269 Q1865.12 192.774 1863.2 190.691 Q1861.3 188.607 1858.15 188.607 Q1854.58 188.607 1852.43 190.621 Q1850.3 192.635 1849.98 196.293 L1865.16 196.269 Z" fill="#000000" fill-rule="evenodd" fill-opacity="1" /><path clip-path="url(#clip680)" d="M1897.96 195.899 L1897.96 211.547 L1893.7 211.547 L1893.7 196.038 Q1893.7 192.357 1892.27 190.529 Q1890.83 188.7 1887.96 188.7 Q1884.51 188.7 1882.52 190.899 Q1880.53 193.098 1880.53 196.894 L1880.53 211.547 L1876.25 211.547 L1876.25 185.621 L1880.53 185.621 L1880.53 189.649 Q1882.06 187.311 1884.12 186.154 Q1886.2 184.996 1888.91 184.996 Q1893.38 184.996 1895.67 187.774 Q1897.96 190.529 1897.96 195.899 Z" fill="#000000" fill-rule="evenodd" fill-opacity="1" /><path clip-path="url(#clip680)" d="M1932.52 179.649 L1932.52 184.58 Q1930.16 182.381 1927.48 181.293 Q1924.82 180.205 1921.81 180.205 Q1915.88 180.205 1912.73 183.839 Q1909.58 187.45 1909.58 194.302 Q1909.58 201.131 1912.73 204.765 Q1915.88 208.376 1921.81 208.376 Q1924.82 208.376 1927.48 207.288 Q1930.16 206.2 1932.52 204.001 L1932.52 208.885 Q1930.07 210.552 1927.32 211.385 Q1924.58 212.218 1921.53 212.218 Q1913.68 212.218 1909.17 207.427 Q1904.65 202.612 1904.65 194.302 Q1904.65 185.969 1909.17 181.177 Q1913.68 176.362 1921.53 176.362 Q1924.63 176.362 1927.36 177.196 Q1930.12 178.006 1932.52 179.649 Z" fill="#000000" fill-rule="evenodd" fill-opacity="1" /><path clip-path="url(#clip680)" d="M1951.34 198.515 Q1946.18 198.515 1944.19 199.695 Q1942.2 200.876 1942.2 203.723 Q1942.2 205.992 1943.68 207.334 Q1945.19 208.654 1947.76 208.654 Q1951.3 208.654 1953.43 206.154 Q1955.58 203.631 1955.58 199.464 L1955.58 198.515 L1951.34 198.515 M1959.84 196.756 L1959.84 211.547 L1955.58 211.547 L1955.58 207.612 Q1954.12 209.973 1951.94 211.107 Q1949.77 212.218 1946.62 212.218 Q1942.64 212.218 1940.28 209.996 Q1937.94 207.751 1937.94 204.001 Q1937.94 199.626 1940.86 197.404 Q1943.8 195.182 1949.61 195.182 L1955.58 195.182 L1955.58 194.765 Q1955.58 191.825 1953.63 190.228 Q1951.71 188.607 1948.22 188.607 Q1946 188.607 1943.89 189.14 Q1941.78 189.672 1939.84 190.737 L1939.84 186.802 Q1942.18 185.899 1944.38 185.459 Q1946.57 184.996 1948.66 184.996 Q1954.28 184.996 1957.06 187.913 Q1959.84 190.83 1959.84 196.756 Z" fill="#000000" fill-rule="evenodd" fill-opacity="1" /><path clip-path="url(#clip680)" d="M1983.63 189.603 Q1982.92 189.186 1982.06 189.001 Q1981.23 188.793 1980.21 188.793 Q1976.6 188.793 1974.65 191.154 Q1972.73 193.492 1972.73 197.89 L1972.73 211.547 L1968.45 211.547 L1968.45 185.621 L1972.73 185.621 L1972.73 189.649 Q1974.07 187.288 1976.23 186.154 Q1978.38 184.996 1981.46 184.996 Q1981.9 184.996 1982.43 185.066 Q1982.96 185.112 1983.61 185.228 L1983.63 189.603 Z" fill="#000000" fill-rule="evenodd" fill-opacity="1" /><path clip-path="url(#clip680)" d="M1992.22 207.658 L1992.22 221.408 L1987.94 221.408 L1987.94 185.621 L1992.22 185.621 L1992.22 189.557 Q1993.56 187.242 1995.6 186.131 Q1997.66 184.996 2000.51 184.996 Q2005.23 184.996 2008.17 188.746 Q2011.13 192.496 2011.13 198.607 Q2011.13 204.719 2008.17 208.468 Q2005.23 212.218 2000.51 212.218 Q1997.66 212.218 1995.6 211.107 Q1993.56 209.973 1992.22 207.658 M2006.71 198.607 Q2006.71 193.908 2004.77 191.246 Q2002.85 188.561 1999.47 188.561 Q1996.09 188.561 1994.14 191.246 Q1992.22 193.908 1992.22 198.607 Q1992.22 203.306 1994.14 205.992 Q1996.09 208.654 1999.47 208.654 Q2002.85 208.654 2004.77 205.992 Q2006.71 203.306 2006.71 198.607 Z" fill="#000000" fill-rule="evenodd" fill-opacity="1" /><path clip-path="url(#clip680)" d="M2018.84 176.987 L2037.2 176.987 L2037.2 180.922 L2023.12 180.922 L2023.12 189.395 Q2024.14 189.047 2025.16 188.885 Q2026.18 188.7 2027.2 188.7 Q2032.99 188.7 2036.37 191.871 Q2039.75 195.043 2039.75 200.459 Q2039.75 206.038 2036.27 209.14 Q2032.8 212.218 2026.48 212.218 Q2024.31 212.218 2022.04 211.848 Q2019.79 211.478 2017.38 210.737 L2017.38 206.038 Q2019.47 207.172 2021.69 207.728 Q2023.91 208.283 2026.39 208.283 Q2030.39 208.283 2032.73 206.177 Q2035.07 204.07 2035.07 200.459 Q2035.07 196.848 2032.73 194.742 Q2030.39 192.635 2026.39 192.635 Q2024.51 192.635 2022.64 193.052 Q2020.79 193.469 2018.84 194.348 L2018.84 176.987 Z" fill="#000000" fill-rule="evenodd" fill-opacity="1" /><polyline clip-path="url(#clip680)" style="stroke:#3da44d; stroke-linecap:butt; stroke-linejoin:round; stroke-width:4; stroke-opacity:1; fill:none" points="
  1662.76,246.107 1796.43,246.107 
  "/>
<line clip-path="url(#clip680)" x1="1729.6" y1="246.107" x2="1729.6" y2="220.507" style="stroke:#3da44d; stroke-width:4.9152; stroke-opacity:1"/>
<line clip-path="url(#clip680)" x1="1729.6" y1="246.107" x2="1704" y2="246.107" style="stroke:#3da44d; stroke-width:4.9152; stroke-opacity:1"/>
<line clip-path="url(#clip680)" x1="1729.6" y1="246.107" x2="1729.6" y2="271.707" style="stroke:#3da44d; stroke-width:4.9152; stroke-opacity:1"/>
<line clip-path="url(#clip680)" x1="1729.6" y1="246.107" x2="1755.2" y2="246.107" style="stroke:#3da44d; stroke-width:4.9152; stroke-opacity:1"/>
<path clip-path="url(#clip680)" d="M1818.7 228.827 L1823.38 228.827 L1823.38 243.434 L1838.89 228.827 L1844.91 228.827 L1827.76 244.938 L1846.14 263.387 L1839.98 263.387 L1823.38 246.744 L1823.38 263.387 L1818.7 263.387 L1818.7 228.827 Z" fill="#000000" fill-rule="evenodd" fill-opacity="1" /><path clip-path="url(#clip680)" d="M1869.42 249.359 L1869.42 251.443 L1849.84 251.443 Q1850.12 255.841 1852.48 258.156 Q1854.86 260.447 1859.1 260.447 Q1861.55 260.447 1863.84 259.846 Q1866.16 259.244 1868.43 258.04 L1868.43 262.068 Q1866.14 263.04 1863.73 263.549 Q1861.32 264.058 1858.84 264.058 Q1852.64 264.058 1849.01 260.447 Q1845.39 256.836 1845.39 250.679 Q1845.39 244.313 1848.82 240.586 Q1852.27 236.836 1858.1 236.836 Q1863.33 236.836 1866.37 240.216 Q1869.42 243.572 1869.42 249.359 M1865.16 248.109 Q1865.12 244.614 1863.2 242.531 Q1861.3 240.447 1858.15 240.447 Q1854.58 240.447 1852.43 242.461 Q1850.3 244.475 1849.98 248.133 L1865.16 248.109 Z" fill="#000000" fill-rule="evenodd" fill-opacity="1" /><path clip-path="url(#clip680)" d="M1897.96 247.739 L1897.96 263.387 L1893.7 263.387 L1893.7 247.878 Q1893.7 244.197 1892.27 242.369 Q1890.83 240.54 1887.96 240.54 Q1884.51 240.54 1882.52 242.739 Q1880.53 244.938 1880.53 248.734 L1880.53 263.387 L1876.25 263.387 L1876.25 237.461 L1880.53 237.461 L1880.53 241.489 Q1882.06 239.151 1884.12 237.994 Q1886.2 236.836 1888.91 236.836 Q1893.38 236.836 1895.67 239.614 Q1897.96 242.369 1897.96 247.739 Z" fill="#000000" fill-rule="evenodd" fill-opacity="1" /><path clip-path="url(#clip680)" d="M1932.52 231.489 L1932.52 236.42 Q1930.16 234.221 1927.48 233.133 Q1924.82 232.045 1921.81 232.045 Q1915.88 232.045 1912.73 235.679 Q1909.58 239.29 1909.58 246.142 Q1909.58 252.971 1912.73 256.605 Q1915.88 260.216 1921.81 260.216 Q1924.82 260.216 1927.48 259.128 Q1930.16 258.04 1932.52 255.841 L1932.52 260.725 Q1930.07 262.392 1927.32 263.225 Q1924.58 264.058 1921.53 264.058 Q1913.68 264.058 1909.17 259.267 Q1904.65 254.452 1904.65 246.142 Q1904.65 237.809 1909.17 233.017 Q1913.68 228.202 1921.53 228.202 Q1924.63 228.202 1927.36 229.036 Q1930.12 229.846 1932.52 231.489 Z" fill="#000000" fill-rule="evenodd" fill-opacity="1" /><path clip-path="url(#clip680)" d="M1951.34 250.355 Q1946.18 250.355 1944.19 251.535 Q1942.2 252.716 1942.2 255.563 Q1942.2 257.832 1943.68 259.174 Q1945.19 260.494 1947.76 260.494 Q1951.3 260.494 1953.43 257.994 Q1955.58 255.471 1955.58 251.304 L1955.58 250.355 L1951.34 250.355 M1959.84 248.596 L1959.84 263.387 L1955.58 263.387 L1955.58 259.452 Q1954.12 261.813 1951.94 262.947 Q1949.77 264.058 1946.62 264.058 Q1942.64 264.058 1940.28 261.836 Q1937.94 259.591 1937.94 255.841 Q1937.94 251.466 1940.86 249.244 Q1943.8 247.022 1949.61 247.022 L1955.58 247.022 L1955.58 246.605 Q1955.58 243.665 1953.63 242.068 Q1951.71 240.447 1948.22 240.447 Q1946 240.447 1943.89 240.98 Q1941.78 241.512 1939.84 242.577 L1939.84 238.642 Q1942.18 237.739 1944.38 237.299 Q1946.57 236.836 1948.66 236.836 Q1954.28 236.836 1957.06 239.753 Q1959.84 242.67 1959.84 248.596 Z" fill="#000000" fill-rule="evenodd" fill-opacity="1" /><path clip-path="url(#clip680)" d="M1983.63 241.443 Q1982.92 241.026 1982.06 240.841 Q1981.23 240.633 1980.21 240.633 Q1976.6 240.633 1974.65 242.994 Q1972.73 245.332 1972.73 249.73 L1972.73 263.387 L1968.45 263.387 L1968.45 237.461 L1972.73 237.461 L1972.73 241.489 Q1974.07 239.128 1976.23 237.994 Q1978.38 236.836 1981.46 236.836 Q1981.9 236.836 1982.43 236.906 Q1982.96 236.952 1983.61 237.068 L1983.63 241.443 Z" fill="#000000" fill-rule="evenodd" fill-opacity="1" /><path clip-path="url(#clip680)" d="M1992.22 259.498 L1992.22 273.248 L1987.94 273.248 L1987.94 237.461 L1992.22 237.461 L1992.22 241.397 Q1993.56 239.082 1995.6 237.971 Q1997.66 236.836 2000.51 236.836 Q2005.23 236.836 2008.17 240.586 Q2011.13 244.336 2011.13 250.447 Q2011.13 256.559 2008.17 260.308 Q2005.23 264.058 2000.51 264.058 Q1997.66 264.058 1995.6 262.947 Q1993.56 261.813 1992.22 259.498 M2006.71 250.447 Q2006.71 245.748 2004.77 243.086 Q2002.85 240.401 1999.47 240.401 Q1996.09 240.401 1994.14 243.086 Q1992.22 245.748 1992.22 250.447 Q1992.22 255.146 1994.14 257.832 Q1996.09 260.494 1999.47 260.494 Q2002.85 260.494 2004.77 257.832 Q2006.71 255.146 2006.71 250.447 Z" fill="#000000" fill-rule="evenodd" fill-opacity="1" /><path clip-path="url(#clip680)" d="M2031.64 232.901 L2019.84 251.35 L2031.64 251.35 L2031.64 232.901 M2030.42 228.827 L2036.3 228.827 L2036.3 251.35 L2041.23 251.35 L2041.23 255.239 L2036.3 255.239 L2036.3 263.387 L2031.64 263.387 L2031.64 255.239 L2016.04 255.239 L2016.04 250.725 L2030.42 228.827 Z" fill="#000000" fill-rule="evenodd" fill-opacity="1" /><polyline clip-path="url(#clip680)" style="stroke:#c271d2; stroke-linecap:butt; stroke-linejoin:round; stroke-width:4; stroke-opacity:1; fill:none" points="
  1662.76,297.947 1796.43,297.947 
  "/>
<path clip-path="url(#clip680)" d="M1729.6 272.347 L1704 297.947 L1729.6 323.547 L1755.2 297.947 L1729.6 272.347 Z" fill="#c271d2" fill-rule="evenodd" fill-opacity="1" stroke="#000000" stroke-opacity="1" stroke-width="4.9152"/>
<path clip-path="url(#clip680)" d="M1818.7 280.667 L1823.38 280.667 L1823.38 295.274 L1838.89 280.667 L1844.91 280.667 L1827.76 296.778 L1846.14 315.227 L1839.98 315.227 L1823.38 298.584 L1823.38 315.227 L1818.7 315.227 L1818.7 280.667 Z" fill="#000000" fill-rule="evenodd" fill-opacity="1" /><path clip-path="url(#clip680)" d="M1869.42 301.199 L1869.42 303.283 L1849.84 303.283 Q1850.12 307.681 1852.48 309.996 Q1854.86 312.287 1859.1 312.287 Q1861.55 312.287 1863.84 311.686 Q1866.16 311.084 1868.43 309.88 L1868.43 313.908 Q1866.14 314.88 1863.73 315.389 Q1861.32 315.898 1858.84 315.898 Q1852.64 315.898 1849.01 312.287 Q1845.39 308.676 1845.39 302.519 Q1845.39 296.153 1848.82 292.426 Q1852.27 288.676 1858.1 288.676 Q1863.33 288.676 1866.37 292.056 Q1869.42 295.412 1869.42 301.199 M1865.16 299.949 Q1865.12 296.454 1863.2 294.371 Q1861.3 292.287 1858.15 292.287 Q1854.58 292.287 1852.43 294.301 Q1850.3 296.315 1849.98 299.973 L1865.16 299.949 Z" fill="#000000" fill-rule="evenodd" fill-opacity="1" /><path clip-path="url(#clip680)" d="M1897.96 299.579 L1897.96 315.227 L1893.7 315.227 L1893.7 299.718 Q1893.7 296.037 1892.27 294.209 Q1890.83 292.38 1887.96 292.38 Q1884.51 292.38 1882.52 294.579 Q1880.53 296.778 1880.53 300.574 L1880.53 315.227 L1876.25 315.227 L1876.25 289.301 L1880.53 289.301 L1880.53 293.329 Q1882.06 290.991 1884.12 289.834 Q1886.2 288.676 1888.91 288.676 Q1893.38 288.676 1895.67 291.454 Q1897.96 294.209 1897.96 299.579 Z" fill="#000000" fill-rule="evenodd" fill-opacity="1" /><path clip-path="url(#clip680)" d="M1932.52 283.329 L1932.52 288.26 Q1930.16 286.061 1927.48 284.973 Q1924.82 283.885 1921.81 283.885 Q1915.88 283.885 1912.73 287.519 Q1909.58 291.13 1909.58 297.982 Q1909.58 304.811 1912.73 308.445 Q1915.88 312.056 1921.81 312.056 Q1924.82 312.056 1927.48 310.968 Q1930.16 309.88 1932.52 307.681 L1932.52 312.565 Q1930.07 314.232 1927.32 315.065 Q1924.58 315.898 1921.53 315.898 Q1913.68 315.898 1909.17 311.107 Q1904.65 306.292 1904.65 297.982 Q1904.65 289.649 1909.17 284.857 Q1913.68 280.042 1921.53 280.042 Q1924.63 280.042 1927.36 280.876 Q1930.12 281.686 1932.52 283.329 Z" fill="#000000" fill-rule="evenodd" fill-opacity="1" /><path clip-path="url(#clip680)" d="M1951.34 302.195 Q1946.18 302.195 1944.19 303.375 Q1942.2 304.556 1942.2 307.403 Q1942.2 309.672 1943.68 311.014 Q1945.19 312.334 1947.76 312.334 Q1951.3 312.334 1953.43 309.834 Q1955.58 307.311 1955.58 303.144 L1955.58 302.195 L1951.34 302.195 M1959.84 300.436 L1959.84 315.227 L1955.58 315.227 L1955.58 311.292 Q1954.12 313.653 1951.94 314.787 Q1949.77 315.898 1946.62 315.898 Q1942.64 315.898 1940.28 313.676 Q1937.94 311.431 1937.94 307.681 Q1937.94 303.306 1940.86 301.084 Q1943.8 298.862 1949.61 298.862 L1955.58 298.862 L1955.58 298.445 Q1955.58 295.505 1953.63 293.908 Q1951.71 292.287 1948.22 292.287 Q1946 292.287 1943.89 292.82 Q1941.78 293.352 1939.84 294.417 L1939.84 290.482 Q1942.18 289.579 1944.38 289.139 Q1946.57 288.676 1948.66 288.676 Q1954.28 288.676 1957.06 291.593 Q1959.84 294.51 1959.84 300.436 Z" fill="#000000" fill-rule="evenodd" fill-opacity="1" /><path clip-path="url(#clip680)" d="M1983.63 293.283 Q1982.92 292.866 1982.06 292.681 Q1981.23 292.473 1980.21 292.473 Q1976.6 292.473 1974.65 294.834 Q1972.73 297.172 1972.73 301.57 L1972.73 315.227 L1968.45 315.227 L1968.45 289.301 L1972.73 289.301 L1972.73 293.329 Q1974.07 290.968 1976.23 289.834 Q1978.38 288.676 1981.46 288.676 Q1981.9 288.676 1982.43 288.746 Q1982.96 288.792 1983.61 288.908 L1983.63 293.283 Z" fill="#000000" fill-rule="evenodd" fill-opacity="1" /><path clip-path="url(#clip680)" d="M1992.22 311.338 L1992.22 325.088 L1987.94 325.088 L1987.94 289.301 L1992.22 289.301 L1992.22 293.237 Q1993.56 290.922 1995.6 289.811 Q1997.66 288.676 2000.51 288.676 Q2005.23 288.676 2008.17 292.426 Q2011.13 296.176 2011.13 302.287 Q2011.13 308.399 2008.17 312.148 Q2005.23 315.898 2000.51 315.898 Q1997.66 315.898 1995.6 314.787 Q1993.56 313.653 1992.22 311.338 M2006.71 302.287 Q2006.71 297.588 2004.77 294.926 Q2002.85 292.241 1999.47 292.241 Q1996.09 292.241 1994.14 294.926 Q1992.22 297.588 1992.22 302.287 Q1992.22 306.986 1994.14 309.672 Q1996.09 312.334 1999.47 312.334 Q2002.85 312.334 2004.77 309.672 Q2006.71 306.986 2006.71 302.287 Z" fill="#000000" fill-rule="evenodd" fill-opacity="1" /><path clip-path="url(#clip680)" d="M2032.96 296.593 Q2036.32 297.311 2038.19 299.579 Q2040.09 301.848 2040.09 305.181 Q2040.09 310.297 2036.57 313.098 Q2033.06 315.898 2026.57 315.898 Q2024.4 315.898 2022.08 315.459 Q2019.79 315.042 2017.34 314.186 L2017.34 309.672 Q2019.28 310.806 2021.6 311.385 Q2023.91 311.963 2026.44 311.963 Q2030.83 311.963 2033.12 310.227 Q2035.44 308.491 2035.44 305.181 Q2035.44 302.125 2033.29 300.412 Q2031.16 298.676 2027.34 298.676 L2023.31 298.676 L2023.31 294.834 L2027.52 294.834 Q2030.97 294.834 2032.8 293.468 Q2034.63 292.079 2034.63 289.487 Q2034.63 286.825 2032.73 285.413 Q2030.86 283.977 2027.34 283.977 Q2025.42 283.977 2023.22 284.394 Q2021.02 284.811 2018.38 285.69 L2018.38 281.524 Q2021.04 280.783 2023.36 280.413 Q2025.69 280.042 2027.75 280.042 Q2033.08 280.042 2036.18 282.473 Q2039.28 284.88 2039.28 289 Q2039.28 291.871 2037.64 293.862 Q2036 295.829 2032.96 296.593 Z" fill="#000000" fill-rule="evenodd" fill-opacity="1" /><polyline clip-path="url(#clip680)" style="stroke:#ac8d18; stroke-linecap:butt; stroke-linejoin:round; stroke-width:4; stroke-opacity:1; fill:none" points="
  1662.76,349.787 1796.43,349.787 
  "/>
<path clip-path="url(#clip680)" d="M1755.2 324.187 L1704 324.187 L1729.6 375.387 L1755.2 324.187 Z" fill="#ac8d18" fill-rule="evenodd" fill-opacity="1" stroke="#000000" stroke-opacity="1" stroke-width="4.9152"/>
<path clip-path="url(#clip680)" d="M1834.54 337.114 L1828.2 354.313 L1840.9 354.313 L1834.54 337.114 M1831.9 332.507 L1837.2 332.507 L1850.37 367.067 L1845.51 367.067 L1842.36 358.201 L1826.78 358.201 L1823.64 367.067 L1818.7 367.067 L1831.9 332.507 Z" fill="#000000" fill-rule="evenodd" fill-opacity="1" /><path clip-path="url(#clip680)" d="M1871.81 350.864 Q1873.31 351.373 1874.72 353.039 Q1876.16 354.706 1877.59 357.623 L1882.34 367.067 L1877.32 367.067 L1872.89 358.201 Q1871.18 354.729 1869.56 353.595 Q1867.96 352.461 1865.19 352.461 L1860.09 352.461 L1860.09 367.067 L1855.42 367.067 L1855.42 332.507 L1865.97 332.507 Q1871.9 332.507 1874.82 334.984 Q1877.73 337.461 1877.73 342.461 Q1877.73 345.725 1876.2 347.877 Q1874.7 350.03 1871.81 350.864 M1860.09 336.35 L1860.09 348.618 L1865.97 348.618 Q1869.35 348.618 1871.07 347.067 Q1872.8 345.493 1872.8 342.461 Q1872.8 339.428 1871.07 337.901 Q1869.35 336.35 1865.97 336.35 L1860.09 336.35 Z" fill="#000000" fill-rule="evenodd" fill-opacity="1" /><path clip-path="url(#clip680)" d="M1888.36 332.507 L1893.03 332.507 L1893.03 347.114 L1908.54 332.507 L1914.56 332.507 L1897.41 348.618 L1915.79 367.067 L1909.63 367.067 L1893.03 350.424 L1893.03 367.067 L1888.36 367.067 L1888.36 332.507 Z" fill="#000000" fill-rule="evenodd" fill-opacity="1" /><path clip-path="url(#clip680)" d="M1930.88 335.678 Q1925.79 335.678 1922.78 339.475 Q1919.79 343.271 1919.79 349.822 Q1919.79 356.35 1922.78 360.146 Q1925.79 363.942 1930.88 363.942 Q1935.97 363.942 1938.94 360.146 Q1941.92 356.35 1941.92 349.822 Q1941.92 343.271 1938.94 339.475 Q1935.97 335.678 1930.88 335.678 M1930.88 331.882 Q1938.15 331.882 1942.5 336.766 Q1946.85 341.628 1946.85 349.822 Q1946.85 357.993 1942.5 362.877 Q1938.15 367.738 1930.88 367.738 Q1923.59 367.738 1919.21 362.877 Q1914.86 358.016 1914.86 349.822 Q1914.86 341.628 1919.21 336.766 Q1923.59 331.882 1930.88 331.882 Z" fill="#000000" fill-rule="evenodd" fill-opacity="1" /><path clip-path="url(#clip680)" d="M1958.84 336.35 L1958.84 363.225 L1964.49 363.225 Q1971.64 363.225 1974.95 359.984 Q1978.29 356.743 1978.29 349.752 Q1978.29 342.808 1974.95 339.59 Q1971.64 336.35 1964.49 336.35 L1958.84 336.35 M1954.17 332.507 L1963.77 332.507 Q1973.82 332.507 1978.52 336.697 Q1983.22 340.864 1983.22 349.752 Q1983.22 358.688 1978.5 362.877 Q1973.77 367.067 1963.77 367.067 L1954.17 367.067 L1954.17 332.507 Z" fill="#000000" fill-rule="evenodd" fill-opacity="1" /><path clip-path="url(#clip680)" d="M1990.67 332.507 L2012.52 332.507 L2012.52 336.442 L1995.35 336.442 L1995.35 346.674 L2011.81 346.674 L2011.81 350.609 L1995.35 350.609 L1995.35 363.132 L2012.94 363.132 L2012.94 367.067 L1990.67 367.067 L1990.67 332.507 Z" fill="#000000" fill-rule="evenodd" fill-opacity="1" /><path clip-path="url(#clip680)" d="M2021.09 332.507 L2039.44 332.507 L2039.44 336.442 L2025.37 336.442 L2025.37 344.915 Q2026.39 344.567 2027.41 344.405 Q2028.43 344.22 2029.44 344.22 Q2035.23 344.22 2038.61 347.391 Q2041.99 350.563 2041.99 355.979 Q2041.99 361.558 2038.52 364.66 Q2035.05 367.738 2028.73 367.738 Q2026.55 367.738 2024.28 367.368 Q2022.04 366.998 2019.63 366.257 L2019.63 361.558 Q2021.71 362.692 2023.94 363.248 Q2026.16 363.803 2028.63 363.803 Q2032.64 363.803 2034.98 361.697 Q2037.31 359.59 2037.31 355.979 Q2037.31 352.368 2034.98 350.262 Q2032.64 348.155 2028.63 348.155 Q2026.76 348.155 2024.88 348.572 Q2023.03 348.989 2021.09 349.868 L2021.09 332.507 Z" fill="#000000" fill-rule="evenodd" fill-opacity="1" /><polyline clip-path="url(#clip680)" style="stroke:#00a9ad; stroke-linecap:butt; stroke-linejoin:round; stroke-width:4; stroke-opacity:1; fill:none" points="
  1662.76,401.627 1796.43,401.627 
  "/>
<path clip-path="url(#clip680)" d="M1729.6 376.027 L1709.58 385.678 L1704.64 407.336 L1718.49 424.693 L1740.71 424.693 L1754.56 407.336 L1749.61 385.678 Z" fill="#00a9ad" fill-rule="evenodd" fill-opacity="1" stroke="#000000" stroke-opacity="1" stroke-width="4.9152"/>
<path clip-path="url(#clip680)" d="M1834.54 388.954 L1828.2 406.153 L1840.9 406.153 L1834.54 388.954 M1831.9 384.347 L1837.2 384.347 L1850.37 418.907 L1845.51 418.907 L1842.36 410.041 L1826.78 410.041 L1823.64 418.907 L1818.7 418.907 L1831.9 384.347 Z" fill="#000000" fill-rule="evenodd" fill-opacity="1" /><path clip-path="url(#clip680)" d="M1871.81 402.704 Q1873.31 403.213 1874.72 404.879 Q1876.16 406.546 1877.59 409.463 L1882.34 418.907 L1877.32 418.907 L1872.89 410.041 Q1871.18 406.569 1869.56 405.435 Q1867.96 404.301 1865.19 404.301 L1860.09 404.301 L1860.09 418.907 L1855.42 418.907 L1855.42 384.347 L1865.97 384.347 Q1871.9 384.347 1874.82 386.824 Q1877.73 389.301 1877.73 394.301 Q1877.73 397.565 1876.2 399.717 Q1874.7 401.87 1871.81 402.704 M1860.09 388.19 L1860.09 400.458 L1865.97 400.458 Q1869.35 400.458 1871.07 398.907 Q1872.8 397.333 1872.8 394.301 Q1872.8 391.268 1871.07 389.741 Q1869.35 388.19 1865.97 388.19 L1860.09 388.19 Z" fill="#000000" fill-rule="evenodd" fill-opacity="1" /><path clip-path="url(#clip680)" d="M1888.36 384.347 L1893.03 384.347 L1893.03 398.954 L1908.54 384.347 L1914.56 384.347 L1897.41 400.458 L1915.79 418.907 L1909.63 418.907 L1893.03 402.264 L1893.03 418.907 L1888.36 418.907 L1888.36 384.347 Z" fill="#000000" fill-rule="evenodd" fill-opacity="1" /><path clip-path="url(#clip680)" d="M1930.88 387.518 Q1925.79 387.518 1922.78 391.315 Q1919.79 395.111 1919.79 401.662 Q1919.79 408.19 1922.78 411.986 Q1925.79 415.782 1930.88 415.782 Q1935.97 415.782 1938.94 411.986 Q1941.92 408.19 1941.92 401.662 Q1941.92 395.111 1938.94 391.315 Q1935.97 387.518 1930.88 387.518 M1930.88 383.722 Q1938.15 383.722 1942.5 388.606 Q1946.85 393.468 1946.85 401.662 Q1946.85 409.833 1942.5 414.717 Q1938.15 419.578 1930.88 419.578 Q1923.59 419.578 1919.21 414.717 Q1914.86 409.856 1914.86 401.662 Q1914.86 393.468 1919.21 388.606 Q1923.59 383.722 1930.88 383.722 Z" fill="#000000" fill-rule="evenodd" fill-opacity="1" /><path clip-path="url(#clip680)" d="M1958.84 388.19 L1958.84 415.065 L1964.49 415.065 Q1971.64 415.065 1974.95 411.824 Q1978.29 408.583 1978.29 401.592 Q1978.29 394.648 1974.95 391.43 Q1971.64 388.19 1964.49 388.19 L1958.84 388.19 M1954.17 384.347 L1963.77 384.347 Q1973.82 384.347 1978.52 388.537 Q1983.22 392.704 1983.22 401.592 Q1983.22 410.528 1978.5 414.717 Q1973.77 418.907 1963.77 418.907 L1954.17 418.907 L1954.17 384.347 Z" fill="#000000" fill-rule="evenodd" fill-opacity="1" /><path clip-path="url(#clip680)" d="M1990.67 384.347 L2012.52 384.347 L2012.52 388.282 L1995.35 388.282 L1995.35 398.514 L2011.81 398.514 L2011.81 402.449 L1995.35 402.449 L1995.35 414.972 L2012.94 414.972 L2012.94 418.907 L1990.67 418.907 L1990.67 384.347 Z" fill="#000000" fill-rule="evenodd" fill-opacity="1" /><path clip-path="url(#clip680)" d="M2033.89 388.421 L2022.08 406.87 L2033.89 406.87 L2033.89 388.421 M2032.66 384.347 L2038.54 384.347 L2038.54 406.87 L2043.47 406.87 L2043.47 410.759 L2038.54 410.759 L2038.54 418.907 L2033.89 418.907 L2033.89 410.759 L2018.29 410.759 L2018.29 406.245 L2032.66 384.347 Z" fill="#000000" fill-rule="evenodd" fill-opacity="1" /><polyline clip-path="url(#clip680)" style="stroke:#ed5d92; stroke-linecap:butt; stroke-linejoin:round; stroke-width:4; stroke-opacity:1; fill:none" points="
  1662.76,453.467 1796.43,453.467 
  "/>
<path clip-path="url(#clip680)" d="M1729.6 479.067 L1707.43 466.267 L1707.43 440.667 L1729.6 427.867 L1751.77 440.667 L1751.77 466.267 Z" fill="#ed5d92" fill-rule="evenodd" fill-opacity="1" stroke="#000000" stroke-opacity="1" stroke-width="4.9152"/>
<path clip-path="url(#clip680)" d="M1834.54 440.794 L1828.2 457.993 L1840.9 457.993 L1834.54 440.794 M1831.9 436.187 L1837.2 436.187 L1850.37 470.747 L1845.51 470.747 L1842.36 461.881 L1826.78 461.881 L1823.64 470.747 L1818.7 470.747 L1831.9 436.187 Z" fill="#000000" fill-rule="evenodd" fill-opacity="1" /><path clip-path="url(#clip680)" d="M1871.81 454.544 Q1873.31 455.053 1874.72 456.719 Q1876.16 458.386 1877.59 461.303 L1882.34 470.747 L1877.32 470.747 L1872.89 461.881 Q1871.18 458.409 1869.56 457.275 Q1867.96 456.141 1865.19 456.141 L1860.09 456.141 L1860.09 470.747 L1855.42 470.747 L1855.42 436.187 L1865.97 436.187 Q1871.9 436.187 1874.82 438.664 Q1877.73 441.141 1877.73 446.141 Q1877.73 449.405 1876.2 451.557 Q1874.7 453.71 1871.81 454.544 M1860.09 440.03 L1860.09 452.298 L1865.97 452.298 Q1869.35 452.298 1871.07 450.747 Q1872.8 449.173 1872.8 446.141 Q1872.8 443.108 1871.07 441.581 Q1869.35 440.03 1865.97 440.03 L1860.09 440.03 Z" fill="#000000" fill-rule="evenodd" fill-opacity="1" /><path clip-path="url(#clip680)" d="M1888.36 436.187 L1893.03 436.187 L1893.03 450.794 L1908.54 436.187 L1914.56 436.187 L1897.41 452.298 L1915.79 470.747 L1909.63 470.747 L1893.03 454.104 L1893.03 470.747 L1888.36 470.747 L1888.36 436.187 Z" fill="#000000" fill-rule="evenodd" fill-opacity="1" /><path clip-path="url(#clip680)" d="M1930.88 439.358 Q1925.79 439.358 1922.78 443.155 Q1919.79 446.951 1919.79 453.502 Q1919.79 460.03 1922.78 463.826 Q1925.79 467.622 1930.88 467.622 Q1935.97 467.622 1938.94 463.826 Q1941.92 460.03 1941.92 453.502 Q1941.92 446.951 1938.94 443.155 Q1935.97 439.358 1930.88 439.358 M1930.88 435.562 Q1938.15 435.562 1942.5 440.446 Q1946.85 445.308 1946.85 453.502 Q1946.85 461.673 1942.5 466.557 Q1938.15 471.418 1930.88 471.418 Q1923.59 471.418 1919.21 466.557 Q1914.86 461.696 1914.86 453.502 Q1914.86 445.308 1919.21 440.446 Q1923.59 435.562 1930.88 435.562 Z" fill="#000000" fill-rule="evenodd" fill-opacity="1" /><path clip-path="url(#clip680)" d="M1958.84 440.03 L1958.84 466.905 L1964.49 466.905 Q1971.64 466.905 1974.95 463.664 Q1978.29 460.423 1978.29 453.432 Q1978.29 446.488 1974.95 443.27 Q1971.64 440.03 1964.49 440.03 L1958.84 440.03 M1954.17 436.187 L1963.77 436.187 Q1973.82 436.187 1978.52 440.377 Q1983.22 444.544 1983.22 453.432 Q1983.22 462.368 1978.5 466.557 Q1973.77 470.747 1963.77 470.747 L1954.17 470.747 L1954.17 436.187 Z" fill="#000000" fill-rule="evenodd" fill-opacity="1" /><path clip-path="url(#clip680)" d="M1990.67 436.187 L2012.52 436.187 L2012.52 440.122 L1995.35 440.122 L1995.35 450.354 L2011.81 450.354 L2011.81 454.289 L1995.35 454.289 L1995.35 466.812 L2012.94 466.812 L2012.94 470.747 L1990.67 470.747 L1990.67 436.187 Z" fill="#000000" fill-rule="evenodd" fill-opacity="1" /><path clip-path="url(#clip680)" d="M2035.21 452.113 Q2038.56 452.831 2040.44 455.099 Q2042.34 457.368 2042.34 460.701 Q2042.34 465.817 2038.82 468.618 Q2035.3 471.418 2028.82 471.418 Q2026.64 471.418 2024.33 470.979 Q2022.04 470.562 2019.58 469.706 L2019.58 465.192 Q2021.53 466.326 2023.84 466.905 Q2026.16 467.483 2028.68 467.483 Q2033.08 467.483 2035.37 465.747 Q2037.69 464.011 2037.69 460.701 Q2037.69 457.645 2035.53 455.932 Q2033.4 454.196 2029.58 454.196 L2025.56 454.196 L2025.56 450.354 L2029.77 450.354 Q2033.22 450.354 2035.05 448.988 Q2036.87 447.599 2036.87 445.007 Q2036.87 442.345 2034.98 440.933 Q2033.1 439.497 2029.58 439.497 Q2027.66 439.497 2025.46 439.914 Q2023.26 440.331 2020.62 441.21 L2020.62 437.044 Q2023.29 436.303 2025.6 435.933 Q2027.94 435.562 2030 435.562 Q2035.32 435.562 2038.43 437.993 Q2041.53 440.4 2041.53 444.52 Q2041.53 447.391 2039.88 449.382 Q2038.24 451.349 2035.21 452.113 Z" fill="#000000" fill-rule="evenodd" fill-opacity="1" /></svg>
