<?xml version="1.0" encoding="utf-8"?>
<svg xmlns="http://www.w3.org/2000/svg" xmlns:xlink="http://www.w3.org/1999/xlink" width="576" height="384" viewBox="0 0 2304 1536">
<defs>
  <clipPath id="clip000">
    <rect x="0" y="0" width="2304" height="1536"/>
  </clipPath>
</defs>
<path clip-path="url(#clip000)" d="
M0 1536 L2304 1536 L2304 0 L0 0  Z
  " fill="#ffffff" fill-rule="evenodd" fill-opacity="1"/>
<defs>
  <clipPath id="clip001">
    <rect x="460" y="0" width="1614" height="1536"/>
  </clipPath>
</defs>
<path clip-path="url(#clip000)" d="
M312.666 1347.54 L2256.76 1347.54 L2256.76 47.2441 L312.666 47.2441  Z
  " fill="#ffffff" fill-rule="evenodd" fill-opacity="1"/>
<defs>
  <clipPath id="clip002">
    <rect x="312" y="47" width="1945" height="1301"/>
  </clipPath>
</defs>
<polyline clip-path="url(#clip002)" style="stroke:#000000; stroke-linecap:butt; stroke-linejoin:round; stroke-width:2; stroke-opacity:0.1; fill:none" points="
  663.263,1347.54 663.263,47.2441 
  "/>
<polyline clip-path="url(#clip002)" style="stroke:#000000; stroke-linecap:butt; stroke-linejoin:round; stroke-width:2; stroke-opacity:0.1; fill:none" points="
  1357.33,1347.54 1357.33,47.2441 
  "/>
<polyline clip-path="url(#clip002)" style="stroke:#000000; stroke-linecap:butt; stroke-linejoin:round; stroke-width:2; stroke-opacity:0.1; fill:none" points="
  2051.41,1347.54 2051.41,47.2441 
  "/>
<polyline clip-path="url(#clip000)" style="stroke:#000000; stroke-linecap:butt; stroke-linejoin:round; stroke-width:4; stroke-opacity:1; fill:none" points="
  312.666,1347.54 2256.76,1347.54 
  "/>
<polyline clip-path="url(#clip000)" style="stroke:#000000; stroke-linecap:butt; stroke-linejoin:round; stroke-width:4; stroke-opacity:1; fill:none" points="
  663.263,1347.54 663.263,1328.64 
  "/>
<polyline clip-path="url(#clip000)" style="stroke:#000000; stroke-linecap:butt; stroke-linejoin:round; stroke-width:4; stroke-opacity:1; fill:none" points="
  1357.33,1347.54 1357.33,1328.64 
  "/>
<polyline clip-path="url(#clip000)" style="stroke:#000000; stroke-linecap:butt; stroke-linejoin:round; stroke-width:4; stroke-opacity:1; fill:none" points="
  2051.41,1347.54 2051.41,1328.64 
  "/>
<path clip-path="url(#clip000)" d="M601.275 1420.89 L608.914 1420.89 L608.914 1394.53 L600.604 1396.19 L600.604 1391.94 L608.868 1390.27 L613.544 1390.27 L613.544 1420.89 L621.182 1420.89 L621.182 1424.83 L601.275 1424.83 L601.275 1420.89 Z" fill="#000000" fill-rule="evenodd" fill-opacity="1" /><path clip-path="url(#clip000)" d="M640.627 1393.35 Q637.016 1393.35 635.187 1396.91 Q633.381 1400.45 633.381 1407.58 Q633.381 1414.69 635.187 1418.25 Q637.016 1421.8 640.627 1421.8 Q644.261 1421.8 646.066 1418.25 Q647.895 1414.69 647.895 1407.58 Q647.895 1400.45 646.066 1396.91 Q644.261 1393.35 640.627 1393.35 M640.627 1389.64 Q646.437 1389.64 649.492 1394.25 Q652.571 1398.83 652.571 1407.58 Q652.571 1416.31 649.492 1420.92 Q646.437 1425.5 640.627 1425.5 Q634.817 1425.5 631.738 1420.92 Q628.682 1416.31 628.682 1407.58 Q628.682 1398.83 631.738 1394.25 Q634.817 1389.64 640.627 1389.64 Z" fill="#000000" fill-rule="evenodd" fill-opacity="1" /><path clip-path="url(#clip000)" d="M652.571 1383.74 L676.683 1383.74 L676.683 1386.94 L652.571 1386.94 L652.571 1383.74 Z" fill="#000000" fill-rule="evenodd" fill-opacity="1" /><path clip-path="url(#clip000)" d="M685.541 1394.22 L691.748 1394.22 L691.748 1372.8 L684.996 1374.15 L684.996 1370.69 L691.71 1369.34 L695.509 1369.34 L695.509 1394.22 L701.716 1394.22 L701.716 1397.42 L685.541 1397.42 L685.541 1394.22 Z" fill="#000000" fill-rule="evenodd" fill-opacity="1" /><path clip-path="url(#clip000)" d="M712.662 1394.22 L725.921 1394.22 L725.921 1397.42 L708.092 1397.42 L708.092 1394.22 Q710.255 1391.98 713.978 1388.22 Q717.721 1384.44 718.68 1383.35 Q720.505 1381.3 721.219 1379.89 Q721.953 1378.46 721.953 1377.09 Q721.953 1374.85 720.373 1373.44 Q718.812 1372.03 716.292 1372.03 Q714.505 1372.03 712.511 1372.65 Q710.537 1373.27 708.28 1374.53 L708.28 1370.69 Q710.574 1369.77 712.568 1369.3 Q714.561 1368.83 716.217 1368.83 Q720.58 1368.83 723.175 1371.01 Q725.771 1373.19 725.771 1376.84 Q725.771 1378.57 725.113 1380.13 Q724.473 1381.68 722.762 1383.78 Q722.291 1384.33 719.771 1386.94 Q717.251 1389.54 712.662 1394.22 Z" fill="#000000" fill-rule="evenodd" fill-opacity="1" /><path clip-path="url(#clip000)" d="M1295.2 1420.89 L1302.84 1420.89 L1302.84 1394.53 L1294.53 1396.19 L1294.53 1391.94 L1302.79 1390.27 L1307.46 1390.27 L1307.46 1420.89 L1315.1 1420.89 L1315.1 1424.83 L1295.2 1424.83 L1295.2 1420.89 Z" fill="#000000" fill-rule="evenodd" fill-opacity="1" /><path clip-path="url(#clip000)" d="M1334.55 1393.35 Q1330.94 1393.35 1329.11 1396.91 Q1327.3 1400.45 1327.3 1407.58 Q1327.3 1414.69 1329.11 1418.25 Q1330.94 1421.8 1334.55 1421.8 Q1338.18 1421.8 1339.99 1418.25 Q1341.82 1414.69 1341.82 1407.58 Q1341.82 1400.45 1339.99 1396.91 Q1338.18 1393.35 1334.55 1393.35 M1334.55 1389.64 Q1340.36 1389.64 1343.41 1394.25 Q1346.49 1398.83 1346.49 1407.58 Q1346.49 1416.31 1343.41 1420.92 Q1340.36 1425.5 1334.55 1425.5 Q1328.74 1425.5 1325.66 1420.92 Q1322.6 1416.31 1322.6 1407.58 Q1322.6 1398.83 1325.66 1394.25 Q1328.74 1389.64 1334.55 1389.64 Z" fill="#000000" fill-rule="evenodd" fill-opacity="1" /><path clip-path="url(#clip000)" d="M1346.49 1383.74 L1370.6 1383.74 L1370.6 1386.94 L1346.49 1386.94 L1346.49 1383.74 Z" fill="#000000" fill-rule="evenodd" fill-opacity="1" /><path clip-path="url(#clip000)" d="M1379.46 1394.22 L1385.67 1394.22 L1385.67 1372.8 L1378.92 1374.15 L1378.92 1370.69 L1385.63 1369.34 L1389.43 1369.34 L1389.43 1394.22 L1395.64 1394.22 L1395.64 1397.42 L1379.46 1397.42 L1379.46 1394.22 Z" fill="#000000" fill-rule="evenodd" fill-opacity="1" /><path clip-path="url(#clip000)" d="M1403.97 1394.22 L1410.18 1394.22 L1410.18 1372.8 L1403.42 1374.15 L1403.42 1370.69 L1410.14 1369.34 L1413.94 1369.34 L1413.94 1394.22 L1420.14 1394.22 L1420.14 1397.42 L1403.97 1397.42 L1403.97 1394.22 Z" fill="#000000" fill-rule="evenodd" fill-opacity="1" /><path clip-path="url(#clip000)" d="M1988.77 1420.89 L1996.41 1420.89 L1996.41 1394.53 L1988.1 1396.19 L1988.1 1391.94 L1996.36 1390.27 L2001.04 1390.27 L2001.04 1420.89 L2008.68 1420.89 L2008.68 1424.83 L1988.77 1424.83 L1988.77 1420.89 Z" fill="#000000" fill-rule="evenodd" fill-opacity="1" /><path clip-path="url(#clip000)" d="M2028.12 1393.35 Q2024.51 1393.35 2022.68 1396.91 Q2020.88 1400.45 2020.88 1407.58 Q2020.88 1414.69 2022.68 1418.25 Q2024.51 1421.8 2028.12 1421.8 Q2031.76 1421.8 2033.56 1418.25 Q2035.39 1414.69 2035.39 1407.58 Q2035.39 1400.45 2033.56 1396.91 Q2031.76 1393.35 2028.12 1393.35 M2028.12 1389.64 Q2033.93 1389.64 2036.99 1394.25 Q2040.07 1398.83 2040.07 1407.58 Q2040.07 1416.31 2036.99 1420.92 Q2033.93 1425.5 2028.12 1425.5 Q2022.31 1425.5 2019.23 1420.92 Q2016.18 1416.31 2016.18 1407.58 Q2016.18 1398.83 2019.23 1394.25 Q2022.31 1389.64 2028.12 1389.64 Z" fill="#000000" fill-rule="evenodd" fill-opacity="1" /><path clip-path="url(#clip000)" d="M2040.07 1383.74 L2064.18 1383.74 L2064.18 1386.94 L2040.07 1386.94 L2040.07 1383.74 Z" fill="#000000" fill-rule="evenodd" fill-opacity="1" /><path clip-path="url(#clip000)" d="M2073.04 1394.22 L2079.24 1394.22 L2079.24 1372.8 L2072.49 1374.15 L2072.49 1370.69 L2079.2 1369.34 L2083 1369.34 L2083 1394.22 L2089.21 1394.22 L2089.21 1397.42 L2073.04 1397.42 L2073.04 1394.22 Z" fill="#000000" fill-rule="evenodd" fill-opacity="1" /><path clip-path="url(#clip000)" d="M2105.01 1371.84 Q2102.07 1371.84 2100.59 1374.74 Q2099.12 1377.61 2099.12 1383.41 Q2099.12 1389.18 2100.59 1392.08 Q2102.07 1394.95 2105.01 1394.95 Q2107.96 1394.95 2109.43 1392.08 Q2110.91 1389.18 2110.91 1383.41 Q2110.91 1377.61 2109.43 1374.74 Q2107.96 1371.84 2105.01 1371.84 M2105.01 1368.83 Q2109.73 1368.83 2112.21 1372.57 Q2114.71 1376.3 2114.71 1383.41 Q2114.71 1390.5 2112.21 1394.24 Q2109.73 1397.96 2105.01 1397.96 Q2100.29 1397.96 2097.79 1394.24 Q2095.3 1390.5 2095.3 1383.41 Q2095.3 1376.3 2097.79 1372.57 Q2100.29 1368.83 2105.01 1368.83 Z" fill="#000000" fill-rule="evenodd" fill-opacity="1" /><path clip-path="url(#clip000)" d="M1208.47 1461.87 L1238.51 1461.87 L1238.51 1467.28 L1214.9 1467.28 L1214.9 1481.34 L1237.53 1481.34 L1237.53 1486.76 L1214.9 1486.76 L1214.9 1503.97 L1239.08 1503.97 L1239.08 1509.39 L1208.47 1509.39 L1208.47 1461.87 Z" fill="#000000" fill-rule="evenodd" fill-opacity="1" /><path clip-path="url(#clip000)" d="M1270.05 1479.21 Q1269.07 1478.64 1267.89 1478.38 Q1266.74 1478.1 1265.34 1478.1 Q1260.38 1478.1 1257.7 1481.34 Q1255.06 1484.56 1255.06 1490.61 L1255.06 1509.39 L1249.17 1509.39 L1249.17 1473.74 L1255.06 1473.74 L1255.06 1479.28 Q1256.91 1476.03 1259.87 1474.47 Q1262.83 1472.88 1267.06 1472.88 Q1267.67 1472.88 1268.4 1472.97 Q1269.13 1473.04 1270.02 1473.2 L1270.05 1479.21 Z" fill="#000000" fill-rule="evenodd" fill-opacity="1" /><path clip-path="url(#clip000)" d="M1295.71 1479.21 Q1294.72 1478.64 1293.54 1478.38 Q1292.4 1478.1 1291 1478.1 Q1286.03 1478.1 1283.36 1481.34 Q1280.72 1484.56 1280.72 1490.61 L1280.72 1509.39 L1274.83 1509.39 L1274.83 1473.74 L1280.72 1473.74 L1280.72 1479.28 Q1282.56 1476.03 1285.52 1474.47 Q1288.48 1472.88 1292.72 1472.88 Q1293.32 1472.88 1294.05 1472.97 Q1294.78 1473.04 1295.68 1473.2 L1295.71 1479.21 Z" fill="#000000" fill-rule="evenodd" fill-opacity="1" /><path clip-path="url(#clip000)" d="M1314.23 1477.84 Q1309.52 1477.84 1306.78 1481.54 Q1304.05 1485.2 1304.05 1491.59 Q1304.05 1497.99 1306.75 1501.68 Q1309.49 1505.34 1314.23 1505.34 Q1318.91 1505.34 1321.65 1501.65 Q1324.39 1497.96 1324.39 1491.59 Q1324.39 1485.26 1321.65 1481.57 Q1318.91 1477.84 1314.23 1477.84 M1314.23 1472.88 Q1321.87 1472.88 1326.23 1477.84 Q1330.59 1482.81 1330.59 1491.59 Q1330.59 1500.35 1326.23 1505.34 Q1321.87 1510.31 1314.23 1510.31 Q1306.56 1510.31 1302.2 1505.34 Q1297.87 1500.35 1297.87 1491.59 Q1297.87 1482.81 1302.2 1477.84 Q1306.56 1472.88 1314.23 1472.88 Z" fill="#000000" fill-rule="evenodd" fill-opacity="1" /><path clip-path="url(#clip000)" d="M1360.96 1479.21 Q1359.97 1478.64 1358.79 1478.38 Q1357.65 1478.1 1356.25 1478.1 Q1351.28 1478.1 1348.61 1481.34 Q1345.96 1484.56 1345.96 1490.61 L1345.96 1509.39 L1340.08 1509.39 L1340.08 1473.74 L1345.96 1473.74 L1345.96 1479.28 Q1347.81 1476.03 1350.77 1474.47 Q1353.73 1472.88 1357.96 1472.88 Q1358.57 1472.88 1359.3 1472.97 Q1360.03 1473.04 1360.92 1473.2 L1360.96 1479.21 Z" fill="#000000" fill-rule="evenodd" fill-opacity="1" /><polyline clip-path="url(#clip002)" style="stroke:#000000; stroke-linecap:butt; stroke-linejoin:round; stroke-width:2; stroke-opacity:0.1; fill:none" points="
  312.666,939.313 2256.76,939.313 
  "/>
<polyline clip-path="url(#clip002)" style="stroke:#000000; stroke-linecap:butt; stroke-linejoin:round; stroke-width:2; stroke-opacity:0.1; fill:none" points="
  312.666,502.475 2256.76,502.475 
  "/>
<polyline clip-path="url(#clip002)" style="stroke:#000000; stroke-linecap:butt; stroke-linejoin:round; stroke-width:2; stroke-opacity:0.1; fill:none" points="
  312.666,65.6364 2256.76,65.6364 
  "/>
<polyline clip-path="url(#clip000)" style="stroke:#000000; stroke-linecap:butt; stroke-linejoin:round; stroke-width:4; stroke-opacity:1; fill:none" points="
  312.666,1347.54 312.666,47.2441 
  "/>
<polyline clip-path="url(#clip000)" style="stroke:#000000; stroke-linecap:butt; stroke-linejoin:round; stroke-width:4; stroke-opacity:1; fill:none" points="
  312.666,939.313 331.564,939.313 
  "/>
<polyline clip-path="url(#clip000)" style="stroke:#000000; stroke-linecap:butt; stroke-linejoin:round; stroke-width:4; stroke-opacity:1; fill:none" points="
  312.666,502.475 331.564,502.475 
  "/>
<polyline clip-path="url(#clip000)" style="stroke:#000000; stroke-linecap:butt; stroke-linejoin:round; stroke-width:4; stroke-opacity:1; fill:none" points="
  312.666,65.6364 331.564,65.6364 
  "/>
<path clip-path="url(#clip000)" d="M115.411 959.105 L123.05 959.105 L123.05 932.74 L114.74 934.406 L114.74 930.147 L123.004 928.48 L127.68 928.48 L127.68 959.105 L135.319 959.105 L135.319 963.04 L115.411 963.04 L115.411 959.105 Z" fill="#000000" fill-rule="evenodd" fill-opacity="1" /><path clip-path="url(#clip000)" d="M154.763 931.559 Q151.152 931.559 149.323 935.124 Q147.518 938.666 147.518 945.795 Q147.518 952.902 149.323 956.466 Q151.152 960.008 154.763 960.008 Q158.397 960.008 160.203 956.466 Q162.032 952.902 162.032 945.795 Q162.032 938.666 160.203 935.124 Q158.397 931.559 154.763 931.559 M154.763 927.855 Q160.573 927.855 163.629 932.462 Q166.707 937.045 166.707 945.795 Q166.707 954.522 163.629 959.128 Q160.573 963.712 154.763 963.712 Q148.953 963.712 145.874 959.128 Q142.819 954.522 142.819 945.795 Q142.819 937.045 145.874 932.462 Q148.953 927.855 154.763 927.855 Z" fill="#000000" fill-rule="evenodd" fill-opacity="1" /><path clip-path="url(#clip000)" d="M166.707 921.957 L190.819 921.957 L190.819 925.154 L166.707 925.154 L166.707 921.957 Z" fill="#000000" fill-rule="evenodd" fill-opacity="1" /><path clip-path="url(#clip000)" d="M210.53 920.49 Q213.257 921.073 214.78 922.916 Q216.322 924.759 216.322 927.467 Q216.322 931.624 213.464 933.9 Q210.605 936.175 205.339 936.175 Q203.571 936.175 201.69 935.818 Q199.828 935.48 197.834 934.784 L197.834 931.116 Q199.414 932.038 201.295 932.508 Q203.176 932.978 205.226 932.978 Q208.799 932.978 210.661 931.568 Q212.542 930.157 212.542 927.467 Q212.542 924.985 210.793 923.593 Q209.063 922.182 205.959 922.182 L202.687 922.182 L202.687 919.06 L206.11 919.06 Q208.912 919.06 210.398 917.951 Q211.884 916.822 211.884 914.716 Q211.884 912.553 210.341 911.406 Q208.818 910.24 205.959 910.24 Q204.398 910.24 202.612 910.578 Q200.825 910.917 198.681 911.631 L198.681 908.246 Q200.844 907.644 202.724 907.343 Q204.624 907.042 206.298 907.042 Q210.624 907.042 213.144 909.017 Q215.664 910.973 215.664 914.321 Q215.664 916.653 214.329 918.27 Q212.993 919.869 210.53 920.49 Z" fill="#000000" fill-rule="evenodd" fill-opacity="1" /><path clip-path="url(#clip000)" d="M223.526 930.853 L227.494 930.853 L227.494 935.63 L223.526 935.63 L223.526 930.853 Z" fill="#000000" fill-rule="evenodd" fill-opacity="1" /><path clip-path="url(#clip000)" d="M235.807 907.55 L250.722 907.55 L250.722 910.747 L239.287 910.747 L239.287 917.631 Q240.114 917.349 240.942 917.217 Q241.769 917.067 242.597 917.067 Q247.299 917.067 250.045 919.643 Q252.791 922.22 252.791 926.621 Q252.791 931.154 249.969 933.674 Q247.148 936.175 242.014 936.175 Q240.246 936.175 238.403 935.874 Q236.578 935.574 234.622 934.972 L234.622 931.154 Q236.315 932.075 238.121 932.527 Q239.926 932.978 241.939 932.978 Q245.192 932.978 247.092 931.267 Q248.991 929.555 248.991 926.621 Q248.991 923.687 247.092 921.976 Q245.192 920.264 241.939 920.264 Q240.415 920.264 238.892 920.603 Q237.387 920.941 235.807 921.656 L235.807 907.55 Z" fill="#000000" fill-rule="evenodd" fill-opacity="1" /><path clip-path="url(#clip000)" d="M268.401 910.051 Q265.467 910.051 263.981 912.948 Q262.514 915.825 262.514 921.618 Q262.514 927.392 263.981 930.289 Q265.467 933.166 268.401 933.166 Q271.354 933.166 272.821 930.289 Q274.307 927.392 274.307 921.618 Q274.307 915.825 272.821 912.948 Q271.354 910.051 268.401 910.051 M268.401 907.042 Q273.122 907.042 275.604 910.785 Q278.106 914.509 278.106 921.618 Q278.106 928.709 275.604 932.451 Q273.122 936.175 268.401 936.175 Q263.68 936.175 261.179 932.451 Q258.696 928.709 258.696 921.618 Q258.696 914.509 261.179 910.785 Q263.68 907.042 268.401 907.042 Z" fill="#000000" fill-rule="evenodd" fill-opacity="1" /><path clip-path="url(#clip000)" d="M116.22 522.267 L123.859 522.267 L123.859 495.901 L115.549 497.568 L115.549 493.309 L123.813 491.642 L128.489 491.642 L128.489 522.267 L136.127 522.267 L136.127 526.202 L116.22 526.202 L116.22 522.267 Z" fill="#000000" fill-rule="evenodd" fill-opacity="1" /><path clip-path="url(#clip000)" d="M155.572 494.721 Q151.961 494.721 150.132 498.286 Q148.326 501.827 148.326 508.957 Q148.326 516.063 150.132 519.628 Q151.961 523.17 155.572 523.17 Q159.206 523.17 161.012 519.628 Q162.84 516.063 162.84 508.957 Q162.84 501.827 161.012 498.286 Q159.206 494.721 155.572 494.721 M155.572 491.017 Q161.382 491.017 164.438 495.624 Q167.516 500.207 167.516 508.957 Q167.516 517.684 164.438 522.29 Q161.382 526.873 155.572 526.873 Q149.762 526.873 146.683 522.29 Q143.627 517.684 143.627 508.957 Q143.627 500.207 146.683 495.624 Q149.762 491.017 155.572 491.017 Z" fill="#000000" fill-rule="evenodd" fill-opacity="1" /><path clip-path="url(#clip000)" d="M167.516 485.119 L191.628 485.119 L191.628 488.316 L167.516 488.316 L167.516 485.119 Z" fill="#000000" fill-rule="evenodd" fill-opacity="1" /><path clip-path="url(#clip000)" d="M211.338 483.652 Q214.065 484.235 215.589 486.078 Q217.131 487.921 217.131 490.629 Q217.131 494.786 214.272 497.061 Q211.414 499.337 206.147 499.337 Q204.379 499.337 202.499 498.98 Q200.637 498.641 198.643 497.945 L198.643 494.278 Q200.223 495.199 202.104 495.67 Q203.984 496.14 206.035 496.14 Q209.608 496.14 211.47 494.729 Q213.351 493.319 213.351 490.629 Q213.351 488.147 211.602 486.755 Q209.871 485.344 206.768 485.344 L203.495 485.344 L203.495 482.222 L206.918 482.222 Q209.721 482.222 211.207 481.112 Q212.692 479.984 212.692 477.878 Q212.692 475.715 211.15 474.567 Q209.627 473.401 206.768 473.401 Q205.207 473.401 203.42 473.74 Q201.633 474.078 199.489 474.793 L199.489 471.408 Q201.652 470.806 203.533 470.505 Q205.433 470.204 207.107 470.204 Q211.432 470.204 213.953 472.179 Q216.473 474.135 216.473 477.483 Q216.473 479.815 215.137 481.432 Q213.802 483.031 211.338 483.652 Z" fill="#000000" fill-rule="evenodd" fill-opacity="1" /><path clip-path="url(#clip000)" d="M224.334 494.015 L228.303 494.015 L228.303 498.792 L224.334 498.792 L224.334 494.015 Z" fill="#000000" fill-rule="evenodd" fill-opacity="1" /><path clip-path="url(#clip000)" d="M239.851 495.594 L253.11 495.594 L253.11 498.792 L235.281 498.792 L235.281 495.594 Q237.443 493.356 241.167 489.595 Q244.91 485.814 245.869 484.724 Q247.694 482.674 248.408 481.263 Q249.142 479.834 249.142 478.461 Q249.142 476.222 247.562 474.812 Q246.001 473.401 243.481 473.401 Q241.694 473.401 239.7 474.022 Q237.726 474.643 235.469 475.903 L235.469 472.066 Q237.763 471.144 239.757 470.674 Q241.75 470.204 243.406 470.204 Q247.769 470.204 250.364 472.386 Q252.96 474.567 252.96 478.216 Q252.96 479.946 252.302 481.507 Q251.662 483.05 249.951 485.156 Q249.48 485.702 246.96 488.316 Q244.44 490.911 239.851 495.594 Z" fill="#000000" fill-rule="evenodd" fill-opacity="1" /><path clip-path="url(#clip000)" d="M261.122 470.712 L276.037 470.712 L276.037 473.909 L264.602 473.909 L264.602 480.793 Q265.429 480.511 266.257 480.379 Q267.085 480.229 267.912 480.229 Q272.614 480.229 275.36 482.805 Q278.106 485.382 278.106 489.783 Q278.106 494.316 275.285 496.836 Q272.464 499.337 267.329 499.337 Q265.561 499.337 263.718 499.036 Q261.894 498.735 259.938 498.134 L259.938 494.316 Q261.63 495.237 263.436 495.688 Q265.241 496.14 267.254 496.14 Q270.508 496.14 272.407 494.428 Q274.307 492.717 274.307 489.783 Q274.307 486.849 272.407 485.137 Q270.508 483.426 267.254 483.426 Q265.73 483.426 264.207 483.764 Q262.702 484.103 261.122 484.818 L261.122 470.712 Z" fill="#000000" fill-rule="evenodd" fill-opacity="1" /><path clip-path="url(#clip000)" d="M115.411 85.4288 L123.05 85.4288 L123.05 59.0632 L114.74 60.7299 L114.74 56.4706 L123.004 54.804 L127.68 54.804 L127.68 85.4288 L135.319 85.4288 L135.319 89.364 L115.411 89.364 L115.411 85.4288 Z" fill="#000000" fill-rule="evenodd" fill-opacity="1" /><path clip-path="url(#clip000)" d="M154.763 57.8827 Q151.152 57.8827 149.323 61.4475 Q147.518 64.9891 147.518 72.1187 Q147.518 79.2251 149.323 82.7899 Q151.152 86.3316 154.763 86.3316 Q158.397 86.3316 160.203 82.7899 Q162.032 79.2251 162.032 72.1187 Q162.032 64.9891 160.203 61.4475 Q158.397 57.8827 154.763 57.8827 M154.763 54.179 Q160.573 54.179 163.629 58.7854 Q166.707 63.3687 166.707 72.1187 Q166.707 80.8455 163.629 85.452 Q160.573 90.0353 154.763 90.0353 Q148.953 90.0353 145.874 85.452 Q142.819 80.8455 142.819 72.1187 Q142.819 63.3687 145.874 58.7854 Q148.953 54.179 154.763 54.179 Z" fill="#000000" fill-rule="evenodd" fill-opacity="1" /><path clip-path="url(#clip000)" d="M166.707 48.2803 L190.819 48.2803 L190.819 51.4776 L166.707 51.4776 L166.707 48.2803 Z" fill="#000000" fill-rule="evenodd" fill-opacity="1" /><path clip-path="url(#clip000)" d="M210.53 46.8133 Q213.257 47.3964 214.78 49.2395 Q216.322 51.0827 216.322 53.791 Q216.322 57.9475 213.464 60.2233 Q210.605 62.499 205.339 62.499 Q203.571 62.499 201.69 62.1416 Q199.828 61.8031 197.834 61.1072 L197.834 57.4397 Q199.414 58.3613 201.295 58.8315 Q203.176 59.3017 205.226 59.3017 Q208.799 59.3017 210.661 57.8911 Q212.542 56.4805 212.542 53.791 Q212.542 51.3084 210.793 49.9166 Q209.063 48.506 205.959 48.506 L202.687 48.506 L202.687 45.3839 L206.11 45.3839 Q208.912 45.3839 210.398 44.2743 Q211.884 43.1458 211.884 41.0393 Q211.884 38.8764 210.341 37.7292 Q208.818 36.5631 205.959 36.5631 Q204.398 36.5631 202.612 36.9016 Q200.825 37.2402 198.681 37.9549 L198.681 34.5695 Q200.844 33.9676 202.724 33.6667 Q204.624 33.3658 206.298 33.3658 Q210.624 33.3658 213.144 35.3406 Q215.664 37.2966 215.664 40.6444 Q215.664 42.9765 214.329 44.594 Q212.993 46.1927 210.53 46.8133 Z" fill="#000000" fill-rule="evenodd" fill-opacity="1" /><path clip-path="url(#clip000)" d="M223.526 57.1764 L227.494 57.1764 L227.494 61.9536 L223.526 61.9536 L223.526 57.1764 Z" fill="#000000" fill-rule="evenodd" fill-opacity="1" /><path clip-path="url(#clip000)" d="M243.895 36.375 Q240.961 36.375 239.475 39.2714 Q238.008 42.149 238.008 47.9418 Q238.008 53.7158 239.475 56.6122 Q240.961 59.4898 243.895 59.4898 Q246.847 59.4898 248.314 56.6122 Q249.8 53.7158 249.8 47.9418 Q249.8 42.149 248.314 39.2714 Q246.847 36.375 243.895 36.375 M243.895 33.3658 Q248.615 33.3658 251.098 37.1085 Q253.599 40.8324 253.599 47.9418 Q253.599 55.0323 251.098 58.7751 Q248.615 62.499 243.895 62.499 Q239.174 62.499 236.672 58.7751 Q234.19 55.0323 234.19 47.9418 Q234.19 40.8324 236.672 37.1085 Q239.174 33.3658 243.895 33.3658 Z" fill="#000000" fill-rule="evenodd" fill-opacity="1" /><path clip-path="url(#clip000)" d="M268.401 36.375 Q265.467 36.375 263.981 39.2714 Q262.514 42.149 262.514 47.9418 Q262.514 53.7158 263.981 56.6122 Q265.467 59.4898 268.401 59.4898 Q271.354 59.4898 272.821 56.6122 Q274.307 53.7158 274.307 47.9418 Q274.307 42.149 272.821 39.2714 Q271.354 36.375 268.401 36.375 M268.401 33.3658 Q273.122 33.3658 275.604 37.1085 Q278.106 40.8324 278.106 47.9418 Q278.106 55.0323 275.604 58.7751 Q273.122 62.499 268.401 62.499 Q263.68 62.499 261.179 58.7751 Q258.696 55.0323 258.696 47.9418 Q258.696 40.8324 261.179 37.1085 Q263.68 33.3658 268.401 33.3658 Z" fill="#000000" fill-rule="evenodd" fill-opacity="1" /><path clip-path="url(#clip000)" d="M18.4042 827.219 L18.4042 787.02 L23.815 787.02 L23.815 803.889 L65.9242 803.889 L65.9242 810.35 L23.815 810.35 L23.815 827.219 L18.4042 827.219 Z" fill="#000000" fill-rule="evenodd" fill-opacity="1" /><path clip-path="url(#clip000)" d="M30.2762 783.073 L30.2762 777.216 L65.9242 777.216 L65.9242 783.073 L30.2762 783.073 M16.399 783.073 L16.399 777.216 L23.815 777.216 L23.815 783.073 L16.399 783.073 Z" fill="#000000" fill-rule="evenodd" fill-opacity="1" /><path clip-path="url(#clip000)" d="M37.1193 737.208 Q33.1726 735.012 31.2947 731.956 Q29.4168 728.901 29.4168 724.763 Q29.4168 719.193 33.3317 716.169 Q37.2148 713.145 44.4081 713.145 L65.9242 713.145 L65.9242 719.034 L44.599 719.034 Q39.4746 719.034 36.992 720.848 Q34.5094 722.662 34.5094 726.386 Q34.5094 730.938 37.5331 733.579 Q40.5568 736.221 45.7767 736.221 L65.9242 736.221 L65.9242 742.109 L44.599 742.109 Q39.4428 742.109 36.992 743.924 Q34.5094 745.738 34.5094 749.526 Q34.5094 754.013 37.5649 756.655 Q40.5886 759.297 45.7767 759.297 L65.9242 759.297 L65.9242 765.185 L30.2762 765.185 L30.2762 759.297 L35.8144 759.297 Q32.536 757.292 30.9764 754.491 Q29.4168 751.69 29.4168 747.839 Q29.4168 743.956 31.3902 741.25 Q33.3636 738.513 37.1193 737.208 Z" fill="#000000" fill-rule="evenodd" fill-opacity="1" /><path clip-path="url(#clip000)" d="M46.6361 670.973 L49.5006 670.973 L49.5006 697.9 Q55.5481 697.518 58.7309 694.271 Q61.8819 690.993 61.8819 685.168 Q61.8819 681.794 61.0544 678.643 Q60.2269 675.461 58.5718 672.341 L64.1099 672.341 Q65.4467 675.492 66.147 678.803 Q66.8472 682.113 66.8472 685.518 Q66.8472 694.048 61.8819 699.045 Q56.9167 704.011 48.4503 704.011 Q39.6974 704.011 34.5731 699.3 Q29.4168 694.558 29.4168 686.537 Q29.4168 679.344 34.0638 675.174 Q38.6789 670.973 46.6361 670.973 M44.9173 676.829 Q40.1112 676.893 37.2466 679.535 Q34.3821 682.145 34.3821 686.473 Q34.3821 691.375 37.1512 694.335 Q39.9202 697.263 44.9492 697.709 L44.9173 676.829 Z" fill="#000000" fill-rule="evenodd" fill-opacity="1" /><path clip-path="url(#clip000)" d="M16.4626 626.572 Q23.7832 630.837 30.9446 632.906 Q38.106 634.975 45.4584 634.975 Q52.8108 634.975 60.0359 632.906 Q67.2291 630.805 74.5179 626.572 L74.5179 631.664 Q67.0382 636.439 59.8131 638.826 Q52.588 641.181 45.4584 641.181 Q38.3606 641.181 31.1674 638.826 Q23.9742 636.471 16.4626 631.664 L16.4626 626.572 Z" fill="#000000" fill-rule="evenodd" fill-opacity="1" /><path clip-path="url(#clip000)" d="M31.3265 592.484 L36.8647 592.484 Q35.5916 594.966 34.955 597.64 Q34.3184 600.313 34.3184 603.178 Q34.3184 607.538 35.6552 609.735 Q36.992 611.899 39.6656 611.899 Q41.7026 611.899 42.8803 610.339 Q44.0261 608.78 45.0765 604.069 L45.5221 602.064 Q46.8589 595.826 49.3097 593.216 Q51.7286 590.574 56.0891 590.574 Q61.0544 590.574 63.9508 594.521 Q66.8472 598.435 66.8472 605.31 Q66.8472 608.175 66.2743 611.294 Q65.7332 614.382 64.6192 617.819 L58.5718 617.819 Q60.2587 614.573 61.118 611.422 Q61.9456 608.27 61.9456 605.183 Q61.9456 601.045 60.5451 598.817 Q59.1129 596.589 56.5347 596.589 Q54.1476 596.589 52.8745 598.213 Q51.6013 599.804 50.4237 605.247 L49.9462 607.284 Q48.8004 612.726 46.4451 615.145 Q44.058 617.564 39.9202 617.564 Q34.8913 617.564 32.1541 614 Q29.4168 610.435 29.4168 603.878 Q29.4168 600.632 29.8943 597.767 Q30.3717 594.902 31.3265 592.484 Z" fill="#000000" fill-rule="evenodd" fill-opacity="1" /><path clip-path="url(#clip000)" d="M16.4626 582.171 L16.4626 577.079 Q23.9742 572.304 31.1674 569.949 Q38.3606 567.562 45.4584 567.562 Q52.588 567.562 59.8131 569.949 Q67.0382 572.304 74.5179 577.079 L74.5179 582.171 Q67.2291 577.938 60.0359 575.869 Q52.8108 573.768 45.4584 573.768 Q38.106 573.768 30.9446 575.869 Q23.7832 577.938 16.4626 582.171 Z" fill="#000000" fill-rule="evenodd" fill-opacity="1" /><polyline clip-path="url(#clip002)" style="stroke:#009af9; stroke-linecap:butt; stroke-linejoin:round; stroke-width:12; stroke-opacity:1; fill:none" points="
  1208.41,899.38 703.339,513.54 367.687,84.0448 
  "/>
<line clip-path="url(#clip002)" x1="1208.41" y1="899.38" x2="1208.41" y2="883.38" style="stroke:#009af9; stroke-width:3.072; stroke-opacity:1"/>
<line clip-path="url(#clip002)" x1="1208.41" y1="899.38" x2="1192.41" y2="899.38" style="stroke:#009af9; stroke-width:3.072; stroke-opacity:1"/>
<line clip-path="url(#clip002)" x1="1208.41" y1="899.38" x2="1208.41" y2="915.38" style="stroke:#009af9; stroke-width:3.072; stroke-opacity:1"/>
<line clip-path="url(#clip002)" x1="1208.41" y1="899.38" x2="1224.41" y2="899.38" style="stroke:#009af9; stroke-width:3.072; stroke-opacity:1"/>
<line clip-path="url(#clip002)" x1="703.339" y1="513.54" x2="703.339" y2="497.54" style="stroke:#009af9; stroke-width:3.072; stroke-opacity:1"/>
<line clip-path="url(#clip002)" x1="703.339" y1="513.54" x2="687.339" y2="513.54" style="stroke:#009af9; stroke-width:3.072; stroke-opacity:1"/>
<line clip-path="url(#clip002)" x1="703.339" y1="513.54" x2="703.339" y2="529.54" style="stroke:#009af9; stroke-width:3.072; stroke-opacity:1"/>
<line clip-path="url(#clip002)" x1="703.339" y1="513.54" x2="719.339" y2="513.54" style="stroke:#009af9; stroke-width:3.072; stroke-opacity:1"/>
<line clip-path="url(#clip002)" x1="367.687" y1="84.0448" x2="367.687" y2="68.0448" style="stroke:#009af9; stroke-width:3.072; stroke-opacity:1"/>
<line clip-path="url(#clip002)" x1="367.687" y1="84.0448" x2="351.687" y2="84.0448" style="stroke:#009af9; stroke-width:3.072; stroke-opacity:1"/>
<line clip-path="url(#clip002)" x1="367.687" y1="84.0448" x2="367.687" y2="100.045" style="stroke:#009af9; stroke-width:3.072; stroke-opacity:1"/>
<line clip-path="url(#clip002)" x1="367.687" y1="84.0448" x2="383.687" y2="84.0448" style="stroke:#009af9; stroke-width:3.072; stroke-opacity:1"/>
<polyline clip-path="url(#clip002)" style="stroke:#e26f46; stroke-linecap:butt; stroke-linejoin:round; stroke-width:12; stroke-opacity:1; fill:none" points="
  2201.73,1310.74 1630.6,1037.95 1002.15,666.315 
  "/>
<circle clip-path="url(#clip002)" cx="2201.73" cy="1310.74" r="14" fill="#e26f46" fill-rule="evenodd" fill-opacity="1" stroke="#000000" stroke-opacity="1" stroke-width="3.072"/>
<circle clip-path="url(#clip002)" cx="1630.6" cy="1037.95" r="14" fill="#e26f46" fill-rule="evenodd" fill-opacity="1" stroke="#000000" stroke-opacity="1" stroke-width="3.072"/>
<circle clip-path="url(#clip002)" cx="1002.15" cy="666.315" r="14" fill="#e26f46" fill-rule="evenodd" fill-opacity="1" stroke="#000000" stroke-opacity="1" stroke-width="3.072"/>
<path clip-path="url(#clip000)" d="
M1809.44 246.107 L2191.95 246.107 L2191.95 90.5872 L1809.44 90.5872  Z
  " fill="#ffffff" fill-rule="evenodd" fill-opacity="1"/>
<polyline clip-path="url(#clip000)" style="stroke:#000000; stroke-linecap:butt; stroke-linejoin:round; stroke-width:4; stroke-opacity:1; fill:none" points="
  1809.44,246.107 2191.95,246.107 2191.95,90.5872 1809.44,90.5872 1809.44,246.107 
  "/>
<polyline clip-path="url(#clip000)" style="stroke:#009af9; stroke-linecap:butt; stroke-linejoin:round; stroke-width:4; stroke-opacity:1; fill:none" points="
  1831.04,142.427 1960.65,142.427 
  "/>
<line clip-path="url(#clip000)" x1="1895.84" y1="142.427" x2="1895.84" y2="116.827" style="stroke:#009af9; stroke-width:4.9152; stroke-opacity:1"/>
<line clip-path="url(#clip000)" x1="1895.84" y1="142.427" x2="1870.24" y2="142.427" style="stroke:#009af9; stroke-width:4.9152; stroke-opacity:1"/>
<line clip-path="url(#clip000)" x1="1895.84" y1="142.427" x2="1895.84" y2="168.027" style="stroke:#009af9; stroke-width:4.9152; stroke-opacity:1"/>
<line clip-path="url(#clip000)" x1="1895.84" y1="142.427" x2="1921.44" y2="142.427" style="stroke:#009af9; stroke-width:4.9152; stroke-opacity:1"/>
<path clip-path="url(#clip000)" d="M1998.64 143.504 Q2000.14 144.013 2001.55 145.679 Q2002.99 147.346 2004.42 150.263 L2009.17 159.707 L2004.15 159.707 L1999.72 150.841 Q1998.01 147.369 1996.39 146.235 Q1994.79 145.101 1992.02 145.101 L1986.92 145.101 L1986.92 159.707 L1982.25 159.707 L1982.25 125.147 L1992.8 125.147 Q1998.73 125.147 2001.65 127.624 Q2004.56 130.101 2004.56 135.101 Q2004.56 138.365 2003.03 140.517 Q2001.53 142.67 1998.64 143.504 M1986.92 128.99 L1986.92 141.258 L1992.8 141.258 Q1996.18 141.258 1997.9 139.707 Q1999.63 138.133 1999.63 135.101 Q1999.63 132.068 1997.9 130.541 Q1996.18 128.99 1992.8 128.99 L1986.92 128.99 Z" fill="#000000" fill-rule="evenodd" fill-opacity="1" /><path clip-path="url(#clip000)" d="M2022.92 136.767 Q2019.49 136.767 2017.5 139.453 Q2015.51 142.115 2015.51 146.767 Q2015.51 151.42 2017.48 154.105 Q2019.47 156.767 2022.92 156.767 Q2026.32 156.767 2028.31 154.082 Q2030.3 151.397 2030.3 146.767 Q2030.3 142.161 2028.31 139.476 Q2026.32 136.767 2022.92 136.767 M2022.92 133.156 Q2028.47 133.156 2031.65 136.767 Q2034.82 140.379 2034.82 146.767 Q2034.82 153.133 2031.65 156.767 Q2028.47 160.378 2022.92 160.378 Q2017.34 160.378 2014.17 156.767 Q2011.02 153.133 2011.02 146.767 Q2011.02 140.379 2014.17 136.767 Q2017.34 133.156 2022.92 133.156 Z" fill="#000000" fill-rule="evenodd" fill-opacity="1" /><path clip-path="url(#clip000)" d="M2058.94 137.717 L2058.94 123.689 L2063.2 123.689 L2063.2 159.707 L2058.94 159.707 L2058.94 155.818 Q2057.59 158.133 2055.53 159.267 Q2053.5 160.378 2050.63 160.378 Q2045.93 160.378 2042.96 156.628 Q2040.02 152.879 2040.02 146.767 Q2040.02 140.656 2042.96 136.906 Q2045.93 133.156 2050.63 133.156 Q2053.5 133.156 2055.53 134.291 Q2057.59 135.402 2058.94 137.717 M2044.42 146.767 Q2044.42 151.466 2046.34 154.152 Q2048.29 156.814 2051.67 156.814 Q2055.05 156.814 2056.99 154.152 Q2058.94 151.466 2058.94 146.767 Q2058.94 142.068 2056.99 139.406 Q2055.05 136.721 2051.67 136.721 Q2048.29 136.721 2046.34 139.406 Q2044.42 142.068 2044.42 146.767 Z" fill="#000000" fill-rule="evenodd" fill-opacity="1" /><path clip-path="url(#clip000)" d="M2083.75 146.675 Q2078.59 146.675 2076.6 147.855 Q2074.61 149.036 2074.61 151.883 Q2074.61 154.152 2076.09 155.494 Q2077.59 156.814 2080.16 156.814 Q2083.7 156.814 2085.83 154.314 Q2087.99 151.791 2087.99 147.624 L2087.99 146.675 L2083.75 146.675 M2092.25 144.916 L2092.25 159.707 L2087.99 159.707 L2087.99 155.772 Q2086.53 158.133 2084.35 159.267 Q2082.18 160.378 2079.03 160.378 Q2075.05 160.378 2072.69 158.156 Q2070.35 155.911 2070.35 152.161 Q2070.35 147.786 2073.27 145.564 Q2076.2 143.342 2082.02 143.342 L2087.99 143.342 L2087.99 142.925 Q2087.99 139.985 2086.04 138.388 Q2084.12 136.767 2080.63 136.767 Q2078.4 136.767 2076.3 137.3 Q2074.19 137.832 2072.25 138.897 L2072.25 134.962 Q2074.58 134.059 2076.78 133.619 Q2078.98 133.156 2081.07 133.156 Q2086.69 133.156 2089.47 136.073 Q2092.25 138.99 2092.25 144.916 Z" fill="#000000" fill-rule="evenodd" fill-opacity="1" /><path clip-path="url(#clip000)" d="M2117.55 134.545 L2117.55 138.573 Q2115.74 137.647 2113.8 137.184 Q2111.85 136.721 2109.77 136.721 Q2106.6 136.721 2105 137.693 Q2103.43 138.666 2103.43 140.61 Q2103.43 142.092 2104.56 142.948 Q2105.7 143.781 2109.12 144.545 L2110.58 144.869 Q2115.12 145.842 2117.01 147.624 Q2118.94 149.383 2118.94 152.554 Q2118.94 156.166 2116.07 158.272 Q2113.22 160.378 2108.22 160.378 Q2106.14 160.378 2103.87 159.962 Q2101.62 159.568 2099.12 158.758 L2099.12 154.36 Q2101.48 155.587 2103.77 156.212 Q2106.07 156.814 2108.31 156.814 Q2111.32 156.814 2112.94 155.795 Q2114.56 154.754 2114.56 152.879 Q2114.56 151.142 2113.38 150.216 Q2112.22 149.291 2108.27 148.434 L2106.78 148.087 Q2102.83 147.254 2101.07 145.541 Q2099.31 143.804 2099.31 140.795 Q2099.31 137.138 2101.9 135.147 Q2104.49 133.156 2109.26 133.156 Q2111.62 133.156 2113.7 133.504 Q2115.79 133.851 2117.55 134.545 Z" fill="#000000" fill-rule="evenodd" fill-opacity="1" /><path clip-path="url(#clip000)" d="M2139.17 129.221 L2127.36 147.67 L2139.17 147.67 L2139.17 129.221 M2137.94 125.147 L2143.82 125.147 L2143.82 147.67 L2148.75 147.67 L2148.75 151.559 L2143.82 151.559 L2143.82 159.707 L2139.17 159.707 L2139.17 151.559 L2123.57 151.559 L2123.57 147.045 L2137.94 125.147 Z" fill="#000000" fill-rule="evenodd" fill-opacity="1" /><polyline clip-path="url(#clip000)" style="stroke:#e26f46; stroke-linecap:butt; stroke-linejoin:round; stroke-width:4; stroke-opacity:1; fill:none" points="
  1831.04,194.267 1960.65,194.267 
  "/>
<circle clip-path="url(#clip000)" cx="1895.84" cy="194.267" r="23" fill="#e26f46" fill-rule="evenodd" fill-opacity="1" stroke="#000000" stroke-opacity="1" stroke-width="4.9152"/>
<path clip-path="url(#clip000)" d="M1998.64 195.344 Q2000.14 195.853 2001.55 197.519 Q2002.99 199.186 2004.42 202.103 L2009.17 211.547 L2004.15 211.547 L1999.72 202.681 Q1998.01 199.209 1996.39 198.075 Q1994.79 196.941 1992.02 196.941 L1986.92 196.941 L1986.92 211.547 L1982.25 211.547 L1982.25 176.987 L1992.8 176.987 Q1998.73 176.987 2001.65 179.464 Q2004.56 181.941 2004.56 186.941 Q2004.56 190.205 2003.03 192.357 Q2001.53 194.51 1998.64 195.344 M1986.92 180.83 L1986.92 193.098 L1992.8 193.098 Q1996.18 193.098 1997.9 191.547 Q1999.63 189.973 1999.63 186.941 Q1999.63 183.908 1997.9 182.381 Q1996.18 180.83 1992.8 180.83 L1986.92 180.83 Z" fill="#000000" fill-rule="evenodd" fill-opacity="1" /><path clip-path="url(#clip000)" d="M2022.92 188.607 Q2019.49 188.607 2017.5 191.293 Q2015.51 193.955 2015.51 198.607 Q2015.51 203.26 2017.48 205.945 Q2019.47 208.607 2022.92 208.607 Q2026.32 208.607 2028.31 205.922 Q2030.3 203.237 2030.3 198.607 Q2030.3 194.001 2028.31 191.316 Q2026.32 188.607 2022.92 188.607 M2022.92 184.996 Q2028.47 184.996 2031.65 188.607 Q2034.82 192.219 2034.82 198.607 Q2034.82 204.973 2031.65 208.607 Q2028.47 212.218 2022.92 212.218 Q2017.34 212.218 2014.17 208.607 Q2011.02 204.973 2011.02 198.607 Q2011.02 192.219 2014.17 188.607 Q2017.34 184.996 2022.92 184.996 Z" fill="#000000" fill-rule="evenodd" fill-opacity="1" /><path clip-path="url(#clip000)" d="M2058.94 189.557 L2058.94 175.529 L2063.2 175.529 L2063.2 211.547 L2058.94 211.547 L2058.94 207.658 Q2057.59 209.973 2055.53 211.107 Q2053.5 212.218 2050.63 212.218 Q2045.93 212.218 2042.96 208.468 Q2040.02 204.719 2040.02 198.607 Q2040.02 192.496 2042.96 188.746 Q2045.93 184.996 2050.63 184.996 Q2053.5 184.996 2055.53 186.131 Q2057.59 187.242 2058.94 189.557 M2044.42 198.607 Q2044.42 203.306 2046.34 205.992 Q2048.29 208.654 2051.67 208.654 Q2055.05 208.654 2056.99 205.992 Q2058.94 203.306 2058.94 198.607 Q2058.94 193.908 2056.99 191.246 Q2055.05 188.561 2051.67 188.561 Q2048.29 188.561 2046.34 191.246 Q2044.42 193.908 2044.42 198.607 Z" fill="#000000" fill-rule="evenodd" fill-opacity="1" /><path clip-path="url(#clip000)" d="M2083.75 198.515 Q2078.59 198.515 2076.6 199.695 Q2074.61 200.876 2074.61 203.723 Q2074.61 205.992 2076.09 207.334 Q2077.59 208.654 2080.16 208.654 Q2083.7 208.654 2085.83 206.154 Q2087.99 203.631 2087.99 199.464 L2087.99 198.515 L2083.75 198.515 M2092.25 196.756 L2092.25 211.547 L2087.99 211.547 L2087.99 207.612 Q2086.53 209.973 2084.35 211.107 Q2082.18 212.218 2079.03 212.218 Q2075.05 212.218 2072.69 209.996 Q2070.35 207.751 2070.35 204.001 Q2070.35 199.626 2073.27 197.404 Q2076.2 195.182 2082.02 195.182 L2087.99 195.182 L2087.99 194.765 Q2087.99 191.825 2086.04 190.228 Q2084.12 188.607 2080.63 188.607 Q2078.4 188.607 2076.3 189.14 Q2074.19 189.672 2072.25 190.737 L2072.25 186.802 Q2074.58 185.899 2076.78 185.459 Q2078.98 184.996 2081.07 184.996 Q2086.69 184.996 2089.47 187.913 Q2092.25 190.83 2092.25 196.756 Z" fill="#000000" fill-rule="evenodd" fill-opacity="1" /><path clip-path="url(#clip000)" d="M2117.55 186.385 L2117.55 190.413 Q2115.74 189.487 2113.8 189.024 Q2111.85 188.561 2109.77 188.561 Q2106.6 188.561 2105 189.533 Q2103.43 190.506 2103.43 192.45 Q2103.43 193.932 2104.56 194.788 Q2105.7 195.621 2109.12 196.385 L2110.58 196.709 Q2115.12 197.682 2117.01 199.464 Q2118.94 201.223 2118.94 204.394 Q2118.94 208.006 2116.07 210.112 Q2113.22 212.218 2108.22 212.218 Q2106.14 212.218 2103.87 211.802 Q2101.62 211.408 2099.12 210.598 L2099.12 206.2 Q2101.48 207.427 2103.77 208.052 Q2106.07 208.654 2108.31 208.654 Q2111.32 208.654 2112.94 207.635 Q2114.56 206.594 2114.56 204.719 Q2114.56 202.982 2113.38 202.056 Q2112.22 201.131 2108.27 200.274 L2106.78 199.927 Q2102.83 199.094 2101.07 197.381 Q2099.31 195.644 2099.31 192.635 Q2099.31 188.978 2101.9 186.987 Q2104.49 184.996 2109.26 184.996 Q2111.62 184.996 2113.7 185.344 Q2115.79 185.691 2117.55 186.385 Z" fill="#000000" fill-rule="evenodd" fill-opacity="1" /><path clip-path="url(#clip000)" d="M2126.37 176.987 L2144.72 176.987 L2144.72 180.922 L2130.65 180.922 L2130.65 189.395 Q2131.67 189.047 2132.69 188.885 Q2133.7 188.7 2134.72 188.7 Q2140.51 188.7 2143.89 191.871 Q2147.27 195.043 2147.27 200.459 Q2147.27 206.038 2143.8 209.14 Q2140.33 212.218 2134.01 212.218 Q2131.83 212.218 2129.56 211.848 Q2127.32 211.478 2124.91 210.737 L2124.91 206.038 Q2126.99 207.172 2129.21 207.728 Q2131.44 208.283 2133.91 208.283 Q2137.92 208.283 2140.26 206.177 Q2142.59 204.07 2142.59 200.459 Q2142.59 196.848 2140.26 194.742 Q2137.92 192.635 2133.91 192.635 Q2132.04 192.635 2130.16 193.052 Q2128.31 193.469 2126.37 194.348 L2126.37 176.987 Z" fill="#000000" fill-rule="evenodd" fill-opacity="1" /></svg>
