<?xml version="1.0" encoding="utf-8"?>
<svg xmlns="http://www.w3.org/2000/svg" xmlns:xlink="http://www.w3.org/1999/xlink" width="576" height="384" viewBox="0 0 2304 1536">
<defs>
  <clipPath id="clip080">
    <rect x="0" y="0" width="2304" height="1536"/>
  </clipPath>
</defs>
<path clip-path="url(#clip080)" d="
M0 1536 L2304 1536 L2304 0 L0 0  Z
  " fill="#ffffff" fill-rule="evenodd" fill-opacity="1"/>
<defs>
  <clipPath id="clip081">
    <rect x="460" y="0" width="1614" height="1536"/>
  </clipPath>
</defs>
<path clip-path="url(#clip080)" d="
M250.882 1347.54 L2256.76 1347.54 L2256.76 47.2441 L250.882 47.2441  Z
  " fill="#ffffff" fill-rule="evenodd" fill-opacity="1"/>
<defs>
  <clipPath id="clip082">
    <rect x="250" y="47" width="2007" height="1301"/>
  </clipPath>
</defs>
<polyline clip-path="url(#clip082)" style="stroke:#000000; stroke-linecap:butt; stroke-linejoin:round; stroke-width:2; stroke-opacity:0.1; fill:none" points="
  935.93,1347.54 935.93,47.2441 
  "/>
<polyline clip-path="url(#clip082)" style="stroke:#000000; stroke-linecap:butt; stroke-linejoin:round; stroke-width:2; stroke-opacity:0.1; fill:none" points="
  2098.34,1347.54 2098.34,47.2441 
  "/>
<polyline clip-path="url(#clip080)" style="stroke:#000000; stroke-linecap:butt; stroke-linejoin:round; stroke-width:4; stroke-opacity:1; fill:none" points="
  250.882,1347.54 2256.76,1347.54 
  "/>
<polyline clip-path="url(#clip080)" style="stroke:#000000; stroke-linecap:butt; stroke-linejoin:round; stroke-width:4; stroke-opacity:1; fill:none" points="
  935.93,1347.54 935.93,1328.64 
  "/>
<polyline clip-path="url(#clip080)" style="stroke:#000000; stroke-linecap:butt; stroke-linejoin:round; stroke-width:4; stroke-opacity:1; fill:none" points="
  2098.34,1347.54 2098.34,1328.64 
  "/>
<path clip-path="url(#clip080)" d="M873.942 1420.89 L881.581 1420.89 L881.581 1394.53 L873.271 1396.19 L873.271 1391.94 L881.535 1390.27 L886.211 1390.27 L886.211 1420.89 L893.85 1420.89 L893.85 1424.83 L873.942 1424.83 L873.942 1420.89 Z" fill="#000000" fill-rule="evenodd" fill-opacity="1" /><path clip-path="url(#clip080)" d="M913.294 1393.35 Q909.683 1393.35 907.854 1396.91 Q906.049 1400.45 906.049 1407.58 Q906.049 1414.69 907.854 1418.25 Q909.683 1421.8 913.294 1421.8 Q916.928 1421.8 918.734 1418.25 Q920.562 1414.69 920.562 1407.58 Q920.562 1400.45 918.734 1396.91 Q916.928 1393.35 913.294 1393.35 M913.294 1389.64 Q919.104 1389.64 922.16 1394.25 Q925.238 1398.83 925.238 1407.58 Q925.238 1416.31 922.16 1420.92 Q919.104 1425.5 913.294 1425.5 Q907.484 1425.5 904.405 1420.92 Q901.349 1416.31 901.349 1407.58 Q901.349 1398.83 904.405 1394.25 Q907.484 1389.64 913.294 1389.64 Z" fill="#000000" fill-rule="evenodd" fill-opacity="1" /><path clip-path="url(#clip080)" d="M925.238 1383.74 L949.35 1383.74 L949.35 1386.94 L925.238 1386.94 L925.238 1383.74 Z" fill="#000000" fill-rule="evenodd" fill-opacity="1" /><path clip-path="url(#clip080)" d="M958.208 1394.22 L964.415 1394.22 L964.415 1372.8 L957.663 1374.15 L957.663 1370.69 L964.377 1369.34 L968.176 1369.34 L968.176 1394.22 L974.383 1394.22 L974.383 1397.42 L958.208 1397.42 L958.208 1394.22 Z" fill="#000000" fill-rule="evenodd" fill-opacity="1" /><path clip-path="url(#clip080)" d="M985.329 1394.22 L998.589 1394.22 L998.589 1397.42 L980.759 1397.42 L980.759 1394.22 Q982.922 1391.98 986.646 1388.22 Q990.388 1384.44 991.348 1383.35 Q993.172 1381.3 993.887 1379.89 Q994.62 1378.46 994.62 1377.09 Q994.62 1374.85 993.04 1373.44 Q991.479 1372.03 988.959 1372.03 Q987.172 1372.03 985.179 1372.65 Q983.204 1373.27 980.947 1374.53 L980.947 1370.69 Q983.241 1369.77 985.235 1369.3 Q987.229 1368.83 988.884 1368.83 Q993.247 1368.83 995.843 1371.01 Q998.438 1373.19 998.438 1376.84 Q998.438 1378.57 997.78 1380.13 Q997.14 1381.68 995.429 1383.78 Q994.959 1384.33 992.438 1386.94 Q989.918 1389.54 985.329 1394.22 Z" fill="#000000" fill-rule="evenodd" fill-opacity="1" /><path clip-path="url(#clip080)" d="M2035.7 1420.89 L2043.34 1420.89 L2043.34 1394.53 L2035.03 1396.19 L2035.03 1391.94 L2043.3 1390.27 L2047.97 1390.27 L2047.97 1420.89 L2055.61 1420.89 L2055.61 1424.83 L2035.7 1424.83 L2035.7 1420.89 Z" fill="#000000" fill-rule="evenodd" fill-opacity="1" /><path clip-path="url(#clip080)" d="M2075.06 1393.35 Q2071.45 1393.35 2069.62 1396.91 Q2067.81 1400.45 2067.81 1407.58 Q2067.81 1414.69 2069.62 1418.25 Q2071.45 1421.8 2075.06 1421.8 Q2078.69 1421.8 2080.5 1418.25 Q2082.32 1414.69 2082.32 1407.58 Q2082.32 1400.45 2080.5 1396.91 Q2078.69 1393.35 2075.06 1393.35 M2075.06 1389.64 Q2080.87 1389.64 2083.92 1394.25 Q2087 1398.83 2087 1407.58 Q2087 1416.31 2083.92 1420.92 Q2080.87 1425.5 2075.06 1425.5 Q2069.25 1425.5 2066.17 1420.92 Q2063.11 1416.31 2063.11 1407.58 Q2063.11 1398.83 2066.17 1394.25 Q2069.25 1389.64 2075.06 1389.64 Z" fill="#000000" fill-rule="evenodd" fill-opacity="1" /><path clip-path="url(#clip080)" d="M2087 1383.74 L2111.11 1383.74 L2111.11 1386.94 L2087 1386.94 L2087 1383.74 Z" fill="#000000" fill-rule="evenodd" fill-opacity="1" /><path clip-path="url(#clip080)" d="M2119.97 1394.22 L2126.18 1394.22 L2126.18 1372.8 L2119.43 1374.15 L2119.43 1370.69 L2126.14 1369.34 L2129.94 1369.34 L2129.94 1394.22 L2136.15 1394.22 L2136.15 1397.42 L2119.97 1397.42 L2119.97 1394.22 Z" fill="#000000" fill-rule="evenodd" fill-opacity="1" /><path clip-path="url(#clip080)" d="M2151.94 1371.84 Q2149.01 1371.84 2147.52 1374.74 Q2146.06 1377.61 2146.06 1383.41 Q2146.06 1389.18 2147.52 1392.08 Q2149.01 1394.95 2151.94 1394.95 Q2154.9 1394.95 2156.36 1392.08 Q2157.85 1389.18 2157.85 1383.41 Q2157.85 1377.61 2156.36 1374.74 Q2154.9 1371.84 2151.94 1371.84 M2151.94 1368.83 Q2156.66 1368.83 2159.15 1372.57 Q2161.65 1376.3 2161.65 1383.41 Q2161.65 1390.5 2159.15 1394.24 Q2156.66 1397.96 2151.94 1397.96 Q2147.22 1397.96 2144.72 1394.24 Q2142.24 1390.5 2142.24 1383.41 Q2142.24 1376.3 2144.72 1372.57 Q2147.22 1368.83 2151.94 1368.83 Z" fill="#000000" fill-rule="evenodd" fill-opacity="1" /><path clip-path="url(#clip080)" d="M1177.57 1461.87 L1207.62 1461.87 L1207.62 1467.28 L1184 1467.28 L1184 1481.34 L1206.63 1481.34 L1206.63 1486.76 L1184 1486.76 L1184 1503.97 L1208.19 1503.97 L1208.19 1509.39 L1177.57 1509.39 L1177.57 1461.87 Z" fill="#000000" fill-rule="evenodd" fill-opacity="1" /><path clip-path="url(#clip080)" d="M1239.16 1479.21 Q1238.18 1478.64 1237 1478.38 Q1235.85 1478.1 1234.45 1478.1 Q1229.49 1478.1 1226.81 1481.34 Q1224.17 1484.56 1224.17 1490.61 L1224.17 1509.39 L1218.28 1509.39 L1218.28 1473.74 L1224.17 1473.74 L1224.17 1479.28 Q1226.02 1476.03 1228.98 1474.47 Q1231.94 1472.88 1236.17 1472.88 Q1236.77 1472.88 1237.51 1472.97 Q1238.24 1473.04 1239.13 1473.2 L1239.16 1479.21 Z" fill="#000000" fill-rule="evenodd" fill-opacity="1" /><path clip-path="url(#clip080)" d="M1264.82 1479.21 Q1263.83 1478.64 1262.65 1478.38 Q1261.51 1478.1 1260.11 1478.1 Q1255.14 1478.1 1252.47 1481.34 Q1249.82 1484.56 1249.82 1490.61 L1249.82 1509.39 L1243.94 1509.39 L1243.94 1473.74 L1249.82 1473.74 L1249.82 1479.28 Q1251.67 1476.03 1254.63 1474.47 Q1257.59 1472.88 1261.82 1472.88 Q1262.43 1472.88 1263.16 1472.97 Q1263.89 1473.04 1264.78 1473.2 L1264.82 1479.21 Z" fill="#000000" fill-rule="evenodd" fill-opacity="1" /><path clip-path="url(#clip080)" d="M1283.34 1477.84 Q1278.63 1477.84 1275.89 1481.54 Q1273.15 1485.2 1273.15 1491.59 Q1273.15 1497.99 1275.86 1501.68 Q1278.6 1505.34 1283.34 1505.34 Q1288.02 1505.34 1290.76 1501.65 Q1293.49 1497.96 1293.49 1491.59 Q1293.49 1485.26 1290.76 1481.57 Q1288.02 1477.84 1283.34 1477.84 M1283.34 1472.88 Q1290.98 1472.88 1295.34 1477.84 Q1299.7 1482.81 1299.7 1491.59 Q1299.7 1500.35 1295.34 1505.34 Q1290.98 1510.31 1283.34 1510.31 Q1275.67 1510.31 1271.31 1505.34 Q1266.98 1500.35 1266.98 1491.59 Q1266.98 1482.81 1271.31 1477.84 Q1275.67 1472.88 1283.34 1472.88 Z" fill="#000000" fill-rule="evenodd" fill-opacity="1" /><path clip-path="url(#clip080)" d="M1330.06 1479.21 Q1329.08 1478.64 1327.9 1478.38 Q1326.75 1478.1 1325.35 1478.1 Q1320.39 1478.1 1317.71 1481.34 Q1315.07 1484.56 1315.07 1490.61 L1315.07 1509.39 L1309.18 1509.39 L1309.18 1473.74 L1315.07 1473.74 L1315.07 1479.28 Q1316.92 1476.03 1319.88 1474.47 Q1322.84 1472.88 1327.07 1472.88 Q1327.68 1472.88 1328.41 1472.97 Q1329.14 1473.04 1330.03 1473.2 L1330.06 1479.21 Z" fill="#000000" fill-rule="evenodd" fill-opacity="1" /><polyline clip-path="url(#clip082)" style="stroke:#000000; stroke-linecap:butt; stroke-linejoin:round; stroke-width:2; stroke-opacity:0.1; fill:none" points="
  250.882,845.371 2256.76,845.371 
  "/>
<polyline clip-path="url(#clip082)" style="stroke:#000000; stroke-linecap:butt; stroke-linejoin:round; stroke-width:2; stroke-opacity:0.1; fill:none" points="
  250.882,98.059 2256.76,98.059 
  "/>
<polyline clip-path="url(#clip080)" style="stroke:#000000; stroke-linecap:butt; stroke-linejoin:round; stroke-width:4; stroke-opacity:1; fill:none" points="
  250.882,1347.54 250.882,47.2441 
  "/>
<polyline clip-path="url(#clip080)" style="stroke:#000000; stroke-linecap:butt; stroke-linejoin:round; stroke-width:4; stroke-opacity:1; fill:none" points="
  250.882,845.371 269.78,845.371 
  "/>
<polyline clip-path="url(#clip080)" style="stroke:#000000; stroke-linecap:butt; stroke-linejoin:round; stroke-width:4; stroke-opacity:1; fill:none" points="
  250.882,98.059 269.78,98.059 
  "/>
<path clip-path="url(#clip080)" d="M115.411 865.163 L123.05 865.163 L123.05 838.797 L114.74 840.464 L114.74 836.205 L123.004 834.538 L127.68 834.538 L127.68 865.163 L135.319 865.163 L135.319 869.098 L115.411 869.098 L115.411 865.163 Z" fill="#000000" fill-rule="evenodd" fill-opacity="1" /><path clip-path="url(#clip080)" d="M154.763 837.617 Q151.152 837.617 149.323 841.182 Q147.518 844.723 147.518 851.853 Q147.518 858.959 149.323 862.524 Q151.152 866.066 154.763 866.066 Q158.397 866.066 160.203 862.524 Q162.032 858.959 162.032 851.853 Q162.032 844.723 160.203 841.182 Q158.397 837.617 154.763 837.617 M154.763 833.913 Q160.573 833.913 163.629 838.52 Q166.707 843.103 166.707 851.853 Q166.707 860.58 163.629 865.186 Q160.573 869.769 154.763 869.769 Q148.953 869.769 145.874 865.186 Q142.819 860.58 142.819 851.853 Q142.819 843.103 145.874 838.52 Q148.953 833.913 154.763 833.913 Z" fill="#000000" fill-rule="evenodd" fill-opacity="1" /><path clip-path="url(#clip080)" d="M166.707 828.015 L190.819 828.015 L190.819 831.212 L166.707 831.212 L166.707 828.015 Z" fill="#000000" fill-rule="evenodd" fill-opacity="1" /><path clip-path="url(#clip080)" d="M210.53 826.548 Q213.257 827.131 214.78 828.974 Q216.322 830.817 216.322 833.525 Q216.322 837.682 213.464 839.957 Q210.605 842.233 205.339 842.233 Q203.571 842.233 201.69 841.876 Q199.828 841.537 197.834 840.841 L197.834 837.174 Q199.414 838.096 201.295 838.566 Q203.176 839.036 205.226 839.036 Q208.799 839.036 210.661 837.625 Q212.542 836.215 212.542 833.525 Q212.542 831.043 210.793 829.651 Q209.063 828.24 205.959 828.24 L202.687 828.24 L202.687 825.118 L206.11 825.118 Q208.912 825.118 210.398 824.009 Q211.884 822.88 211.884 820.774 Q211.884 818.611 210.341 817.463 Q208.818 816.297 205.959 816.297 Q204.398 816.297 202.612 816.636 Q200.825 816.974 198.681 817.689 L198.681 814.304 Q200.844 813.702 202.724 813.401 Q204.624 813.1 206.298 813.1 Q210.624 813.1 213.144 815.075 Q215.664 817.031 215.664 820.379 Q215.664 822.711 214.329 824.328 Q212.993 825.927 210.53 826.548 Z" fill="#000000" fill-rule="evenodd" fill-opacity="1" /><path clip-path="url(#clip080)" d="M116.183 117.851 L123.821 117.851 L123.821 91.4859 L115.511 93.1525 L115.511 88.8933 L123.775 87.2266 L128.451 87.2266 L128.451 117.851 L136.09 117.851 L136.09 121.787 L116.183 121.787 L116.183 117.851 Z" fill="#000000" fill-rule="evenodd" fill-opacity="1" /><path clip-path="url(#clip080)" d="M155.534 90.3053 Q151.923 90.3053 150.094 93.8701 Q148.289 97.4118 148.289 104.541 Q148.289 111.648 150.094 115.213 Q151.923 118.754 155.534 118.754 Q159.168 118.754 160.974 115.213 Q162.803 111.648 162.803 104.541 Q162.803 97.4118 160.974 93.8701 Q159.168 90.3053 155.534 90.3053 M155.534 86.6016 Q161.344 86.6016 164.4 91.2081 Q167.479 95.7914 167.479 104.541 Q167.479 113.268 164.4 117.875 Q161.344 122.458 155.534 122.458 Q149.724 122.458 146.645 117.875 Q143.59 113.268 143.59 104.541 Q143.59 95.7914 146.645 91.2081 Q149.724 86.6016 155.534 86.6016 Z" fill="#000000" fill-rule="evenodd" fill-opacity="1" /><path clip-path="url(#clip080)" d="M167.479 80.703 L191.59 80.703 L191.59 83.9003 L167.479 83.9003 L167.479 80.703 Z" fill="#000000" fill-rule="evenodd" fill-opacity="1" /><path clip-path="url(#clip080)" d="M203.063 91.1789 L216.322 91.1789 L216.322 94.3762 L198.493 94.3762 L198.493 91.1789 Q200.655 88.9408 204.379 85.1792 Q208.122 81.3989 209.081 80.308 Q210.906 78.258 211.62 76.8474 Q212.354 75.418 212.354 74.045 Q212.354 71.8069 210.774 70.3963 Q209.213 68.9857 206.693 68.9857 Q204.906 68.9857 202.912 69.6064 Q200.938 70.2271 198.681 71.4872 L198.681 67.6504 Q200.975 66.7288 202.969 66.2586 Q204.962 65.7884 206.618 65.7884 Q210.981 65.7884 213.576 67.9701 Q216.172 70.1518 216.172 73.8005 Q216.172 75.5308 215.514 77.0919 Q214.874 78.6341 213.163 80.7406 Q212.692 81.286 210.172 83.9003 Q207.652 86.4958 203.063 91.1789 Z" fill="#000000" fill-rule="evenodd" fill-opacity="1" /><path clip-path="url(#clip080)" d="M18.4042 827.219 L18.4042 787.02 L23.815 787.02 L23.815 803.889 L65.9242 803.889 L65.9242 810.35 L23.815 810.35 L23.815 827.219 L18.4042 827.219 Z" fill="#000000" fill-rule="evenodd" fill-opacity="1" /><path clip-path="url(#clip080)" d="M30.2762 783.073 L30.2762 777.216 L65.9242 777.216 L65.9242 783.073 L30.2762 783.073 M16.399 783.073 L16.399 777.216 L23.815 777.216 L23.815 783.073 L16.399 783.073 Z" fill="#000000" fill-rule="evenodd" fill-opacity="1" /><path clip-path="url(#clip080)" d="M37.1193 737.208 Q33.1726 735.012 31.2947 731.956 Q29.4168 728.901 29.4168 724.763 Q29.4168 719.193 33.3317 716.169 Q37.2148 713.145 44.4081 713.145 L65.9242 713.145 L65.9242 719.034 L44.599 719.034 Q39.4746 719.034 36.992 720.848 Q34.5094 722.662 34.5094 726.386 Q34.5094 730.938 37.5331 733.579 Q40.5568 736.221 45.7767 736.221 L65.9242 736.221 L65.9242 742.109 L44.599 742.109 Q39.4428 742.109 36.992 743.924 Q34.5094 745.738 34.5094 749.526 Q34.5094 754.013 37.5649 756.655 Q40.5886 759.297 45.7767 759.297 L65.9242 759.297 L65.9242 765.185 L30.2762 765.185 L30.2762 759.297 L35.8144 759.297 Q32.536 757.292 30.9764 754.491 Q29.4168 751.69 29.4168 747.839 Q29.4168 743.956 31.3902 741.25 Q33.3636 738.513 37.1193 737.208 Z" fill="#000000" fill-rule="evenodd" fill-opacity="1" /><path clip-path="url(#clip080)" d="M46.6361 670.973 L49.5006 670.973 L49.5006 697.9 Q55.5481 697.518 58.7309 694.271 Q61.8819 690.993 61.8819 685.168 Q61.8819 681.794 61.0544 678.643 Q60.2269 675.461 58.5718 672.341 L64.1099 672.341 Q65.4467 675.492 66.147 678.803 Q66.8472 682.113 66.8472 685.518 Q66.8472 694.048 61.8819 699.045 Q56.9167 704.011 48.4503 704.011 Q39.6974 704.011 34.5731 699.3 Q29.4168 694.558 29.4168 686.537 Q29.4168 679.344 34.0638 675.174 Q38.6789 670.973 46.6361 670.973 M44.9173 676.829 Q40.1112 676.893 37.2466 679.535 Q34.3821 682.145 34.3821 686.473 Q34.3821 691.375 37.1512 694.335 Q39.9202 697.263 44.9492 697.709 L44.9173 676.829 Z" fill="#000000" fill-rule="evenodd" fill-opacity="1" /><path clip-path="url(#clip080)" d="M16.4626 626.572 Q23.7832 630.837 30.9446 632.906 Q38.106 634.975 45.4584 634.975 Q52.8108 634.975 60.0359 632.906 Q67.2291 630.805 74.5179 626.572 L74.5179 631.664 Q67.0382 636.439 59.8131 638.826 Q52.588 641.181 45.4584 641.181 Q38.3606 641.181 31.1674 638.826 Q23.9742 636.471 16.4626 631.664 L16.4626 626.572 Z" fill="#000000" fill-rule="evenodd" fill-opacity="1" /><path clip-path="url(#clip080)" d="M31.3265 592.484 L36.8647 592.484 Q35.5916 594.966 34.955 597.64 Q34.3184 600.313 34.3184 603.178 Q34.3184 607.538 35.6552 609.735 Q36.992 611.899 39.6656 611.899 Q41.7026 611.899 42.8803 610.339 Q44.0261 608.78 45.0765 604.069 L45.5221 602.064 Q46.8589 595.826 49.3097 593.216 Q51.7286 590.574 56.0891 590.574 Q61.0544 590.574 63.9508 594.521 Q66.8472 598.435 66.8472 605.31 Q66.8472 608.175 66.2743 611.294 Q65.7332 614.382 64.6192 617.819 L58.5718 617.819 Q60.2587 614.573 61.118 611.422 Q61.9456 608.27 61.9456 605.183 Q61.9456 601.045 60.5451 598.817 Q59.1129 596.589 56.5347 596.589 Q54.1476 596.589 52.8745 598.213 Q51.6013 599.804 50.4237 605.247 L49.9462 607.284 Q48.8004 612.726 46.4451 615.145 Q44.058 617.564 39.9202 617.564 Q34.8913 617.564 32.1541 614 Q29.4168 610.435 29.4168 603.878 Q29.4168 600.632 29.8943 597.767 Q30.3717 594.902 31.3265 592.484 Z" fill="#000000" fill-rule="evenodd" fill-opacity="1" /><path clip-path="url(#clip080)" d="M16.4626 582.171 L16.4626 577.079 Q23.9742 572.304 31.1674 569.949 Q38.3606 567.562 45.4584 567.562 Q52.588 567.562 59.8131 569.949 Q67.0382 572.304 74.5179 577.079 L74.5179 582.171 Q67.2291 577.938 60.0359 575.869 Q52.8108 573.768 45.4584 573.768 Q38.106 573.768 30.9446 575.869 Q23.7832 577.938 16.4626 582.171 Z" fill="#000000" fill-rule="evenodd" fill-opacity="1" /><polyline clip-path="url(#clip082)" style="stroke:#009af9; stroke-linecap:butt; stroke-linejoin:round; stroke-width:12; stroke-opacity:1; fill:none" points="
  2199.99,1310.74 1000.1,1198.14 307.652,1122.12 
  "/>
<line clip-path="url(#clip082)" x1="2199.99" y1="1310.74" x2="2199.99" y2="1294.74" style="stroke:#009af9; stroke-width:3.072; stroke-opacity:1"/>
<line clip-path="url(#clip082)" x1="2199.99" y1="1310.74" x2="2183.99" y2="1310.74" style="stroke:#009af9; stroke-width:3.072; stroke-opacity:1"/>
<line clip-path="url(#clip082)" x1="2199.99" y1="1310.74" x2="2199.99" y2="1326.74" style="stroke:#009af9; stroke-width:3.072; stroke-opacity:1"/>
<line clip-path="url(#clip082)" x1="2199.99" y1="1310.74" x2="2215.99" y2="1310.74" style="stroke:#009af9; stroke-width:3.072; stroke-opacity:1"/>
<line clip-path="url(#clip082)" x1="1000.1" y1="1198.14" x2="1000.1" y2="1182.14" style="stroke:#009af9; stroke-width:3.072; stroke-opacity:1"/>
<line clip-path="url(#clip082)" x1="1000.1" y1="1198.14" x2="984.104" y2="1198.14" style="stroke:#009af9; stroke-width:3.072; stroke-opacity:1"/>
<line clip-path="url(#clip082)" x1="1000.1" y1="1198.14" x2="1000.1" y2="1214.14" style="stroke:#009af9; stroke-width:3.072; stroke-opacity:1"/>
<line clip-path="url(#clip082)" x1="1000.1" y1="1198.14" x2="1016.1" y2="1198.14" style="stroke:#009af9; stroke-width:3.072; stroke-opacity:1"/>
<line clip-path="url(#clip082)" x1="307.652" y1="1122.12" x2="307.652" y2="1106.12" style="stroke:#009af9; stroke-width:3.072; stroke-opacity:1"/>
<line clip-path="url(#clip082)" x1="307.652" y1="1122.12" x2="291.652" y2="1122.12" style="stroke:#009af9; stroke-width:3.072; stroke-opacity:1"/>
<line clip-path="url(#clip082)" x1="307.652" y1="1122.12" x2="307.652" y2="1138.12" style="stroke:#009af9; stroke-width:3.072; stroke-opacity:1"/>
<line clip-path="url(#clip082)" x1="307.652" y1="1122.12" x2="323.652" y2="1122.12" style="stroke:#009af9; stroke-width:3.072; stroke-opacity:1"/>
<polyline clip-path="url(#clip082)" style="stroke:#e26f46; stroke-linecap:butt; stroke-linejoin:round; stroke-width:12; stroke-opacity:1; fill:none" points="
  2199.99,356.867 1000.1,141.638 307.652,84.0448 
  "/>
<circle clip-path="url(#clip082)" cx="2199.99" cy="356.867" r="14" fill="#e26f46" fill-rule="evenodd" fill-opacity="1" stroke="#000000" stroke-opacity="1" stroke-width="3.072"/>
<circle clip-path="url(#clip082)" cx="1000.1" cy="141.638" r="14" fill="#e26f46" fill-rule="evenodd" fill-opacity="1" stroke="#000000" stroke-opacity="1" stroke-width="3.072"/>
<circle clip-path="url(#clip082)" cx="307.652" cy="84.0448" r="14" fill="#e26f46" fill-rule="evenodd" fill-opacity="1" stroke="#000000" stroke-opacity="1" stroke-width="3.072"/>
<polyline clip-path="url(#clip082)" style="stroke:#3da44d; stroke-linecap:butt; stroke-linejoin:round; stroke-width:12; stroke-opacity:1; fill:none" points="
  2199.99,1172.29 1000.1,1064.94 307.652,987.282 
  "/>
<line clip-path="url(#clip082)" x1="2199.99" y1="1172.29" x2="2199.99" y2="1156.29" style="stroke:#3da44d; stroke-width:3.072; stroke-opacity:1"/>
<line clip-path="url(#clip082)" x1="2199.99" y1="1172.29" x2="2183.99" y2="1172.29" style="stroke:#3da44d; stroke-width:3.072; stroke-opacity:1"/>
<line clip-path="url(#clip082)" x1="2199.99" y1="1172.29" x2="2199.99" y2="1188.29" style="stroke:#3da44d; stroke-width:3.072; stroke-opacity:1"/>
<line clip-path="url(#clip082)" x1="2199.99" y1="1172.29" x2="2215.99" y2="1172.29" style="stroke:#3da44d; stroke-width:3.072; stroke-opacity:1"/>
<line clip-path="url(#clip082)" x1="1000.1" y1="1064.94" x2="1000.1" y2="1048.94" style="stroke:#3da44d; stroke-width:3.072; stroke-opacity:1"/>
<line clip-path="url(#clip082)" x1="1000.1" y1="1064.94" x2="984.104" y2="1064.94" style="stroke:#3da44d; stroke-width:3.072; stroke-opacity:1"/>
<line clip-path="url(#clip082)" x1="1000.1" y1="1064.94" x2="1000.1" y2="1080.94" style="stroke:#3da44d; stroke-width:3.072; stroke-opacity:1"/>
<line clip-path="url(#clip082)" x1="1000.1" y1="1064.94" x2="1016.1" y2="1064.94" style="stroke:#3da44d; stroke-width:3.072; stroke-opacity:1"/>
<line clip-path="url(#clip082)" x1="307.652" y1="987.282" x2="307.652" y2="971.282" style="stroke:#3da44d; stroke-width:3.072; stroke-opacity:1"/>
<line clip-path="url(#clip082)" x1="307.652" y1="987.282" x2="291.652" y2="987.282" style="stroke:#3da44d; stroke-width:3.072; stroke-opacity:1"/>
<line clip-path="url(#clip082)" x1="307.652" y1="987.282" x2="307.652" y2="1003.28" style="stroke:#3da44d; stroke-width:3.072; stroke-opacity:1"/>
<line clip-path="url(#clip082)" x1="307.652" y1="987.282" x2="323.652" y2="987.282" style="stroke:#3da44d; stroke-width:3.072; stroke-opacity:1"/>
<path clip-path="url(#clip080)" d="
M1700.61 297.947 L2189.89 297.947 L2189.89 90.5872 L1700.61 90.5872  Z
  " fill="#ffffff" fill-rule="evenodd" fill-opacity="1"/>
<polyline clip-path="url(#clip080)" style="stroke:#000000; stroke-linecap:butt; stroke-linejoin:round; stroke-width:4; stroke-opacity:1; fill:none" points="
  1700.61,297.947 2189.89,297.947 2189.89,90.5872 1700.61,90.5872 1700.61,297.947 
  "/>
<polyline clip-path="url(#clip080)" style="stroke:#009af9; stroke-linecap:butt; stroke-linejoin:round; stroke-width:4; stroke-opacity:1; fill:none" points="
  1722.9,142.427 1856.62,142.427 
  "/>
<line clip-path="url(#clip080)" x1="1789.76" y1="142.427" x2="1789.76" y2="116.827" style="stroke:#009af9; stroke-width:4.9152; stroke-opacity:1"/>
<line clip-path="url(#clip080)" x1="1789.76" y1="142.427" x2="1764.16" y2="142.427" style="stroke:#009af9; stroke-width:4.9152; stroke-opacity:1"/>
<line clip-path="url(#clip080)" x1="1789.76" y1="142.427" x2="1789.76" y2="168.027" style="stroke:#009af9; stroke-width:4.9152; stroke-opacity:1"/>
<line clip-path="url(#clip080)" x1="1789.76" y1="142.427" x2="1815.36" y2="142.427" style="stroke:#009af9; stroke-width:4.9152; stroke-opacity:1"/>
<path clip-path="url(#clip080)" d="M1878.91 149.476 L1878.91 133.781 L1883.17 133.781 L1883.17 149.314 Q1883.17 152.994 1884.6 154.846 Q1886.04 156.675 1888.91 156.675 Q1892.36 156.675 1894.35 154.476 Q1896.36 152.277 1896.36 148.48 L1896.36 133.781 L1900.62 133.781 L1900.62 159.707 L1896.36 159.707 L1896.36 155.726 Q1894.81 158.087 1892.75 159.244 Q1890.71 160.378 1888.01 160.378 Q1883.54 160.378 1881.22 157.601 Q1878.91 154.823 1878.91 149.476 M1889.63 133.156 L1889.63 133.156 Z" fill="#000000" fill-rule="evenodd" fill-opacity="1" /><path clip-path="url(#clip080)" d="M1930.94 144.059 L1930.94 159.707 L1926.69 159.707 L1926.69 144.198 Q1926.69 140.517 1925.25 138.689 Q1923.82 136.86 1920.94 136.86 Q1917.5 136.86 1915.5 139.059 Q1913.51 141.258 1913.51 145.054 L1913.51 159.707 L1909.23 159.707 L1909.23 133.781 L1913.51 133.781 L1913.51 137.809 Q1915.04 135.471 1917.1 134.314 Q1919.19 133.156 1921.89 133.156 Q1926.36 133.156 1928.65 135.934 Q1930.94 138.689 1930.94 144.059 Z" fill="#000000" fill-rule="evenodd" fill-opacity="1" /><path clip-path="url(#clip080)" d="M1943.65 126.42 L1943.65 133.781 L1952.43 133.781 L1952.43 137.092 L1943.65 137.092 L1943.65 151.166 Q1943.65 154.337 1944.51 155.24 Q1945.39 156.142 1948.05 156.142 L1952.43 156.142 L1952.43 159.707 L1948.05 159.707 Q1943.12 159.707 1941.25 157.878 Q1939.37 156.027 1939.37 151.166 L1939.37 137.092 L1936.25 137.092 L1936.25 133.781 L1939.37 133.781 L1939.37 126.42 L1943.65 126.42 Z" fill="#000000" fill-rule="evenodd" fill-opacity="1" /><path clip-path="url(#clip080)" d="M1979.58 144.059 L1979.58 159.707 L1975.32 159.707 L1975.32 144.198 Q1975.32 140.517 1973.88 138.689 Q1972.45 136.86 1969.58 136.86 Q1966.13 136.86 1964.14 139.059 Q1962.15 141.258 1962.15 145.054 L1962.15 159.707 L1957.87 159.707 L1957.87 123.689 L1962.15 123.689 L1962.15 137.809 Q1963.68 135.471 1965.74 134.314 Q1967.82 133.156 1970.53 133.156 Q1975 133.156 1977.29 135.934 Q1979.58 138.689 1979.58 144.059 Z" fill="#000000" fill-rule="evenodd" fill-opacity="1" /><path clip-path="url(#clip080)" d="M2003.1 137.763 Q2002.38 137.346 2001.52 137.161 Q2000.69 136.953 1999.67 136.953 Q1996.06 136.953 1994.12 139.314 Q1992.19 141.652 1992.19 146.05 L1992.19 159.707 L1987.91 159.707 L1987.91 133.781 L1992.19 133.781 L1992.19 137.809 Q1993.54 135.448 1995.69 134.314 Q1997.84 133.156 2000.92 133.156 Q2001.36 133.156 2001.89 133.226 Q2002.43 133.272 2003.07 133.388 L2003.1 137.763 Z" fill="#000000" fill-rule="evenodd" fill-opacity="1" /><path clip-path="url(#clip080)" d="M2028.7 145.679 L2028.7 147.763 L2009.12 147.763 Q2009.39 152.161 2011.75 154.476 Q2014.14 156.767 2018.37 156.767 Q2020.83 156.767 2023.12 156.166 Q2025.43 155.564 2027.7 154.36 L2027.7 158.388 Q2025.41 159.36 2023 159.869 Q2020.6 160.378 2018.12 160.378 Q2011.92 160.378 2008.28 156.767 Q2004.67 153.156 2004.67 146.999 Q2004.67 140.633 2008.1 136.906 Q2011.55 133.156 2017.38 133.156 Q2022.61 133.156 2025.64 136.536 Q2028.7 139.892 2028.7 145.679 M2024.44 144.429 Q2024.39 140.934 2022.47 138.851 Q2020.57 136.767 2017.43 136.767 Q2013.86 136.767 2011.71 138.781 Q2009.58 140.795 2009.25 144.453 L2024.44 144.429 Z" fill="#000000" fill-rule="evenodd" fill-opacity="1" /><path clip-path="url(#clip080)" d="M2047.47 146.675 Q2042.31 146.675 2040.32 147.855 Q2038.33 149.036 2038.33 151.883 Q2038.33 154.152 2039.81 155.494 Q2041.31 156.814 2043.88 156.814 Q2047.43 156.814 2049.56 154.314 Q2051.71 151.791 2051.71 147.624 L2051.71 146.675 L2047.47 146.675 M2055.97 144.916 L2055.97 159.707 L2051.71 159.707 L2051.71 155.772 Q2050.25 158.133 2048.07 159.267 Q2045.9 160.378 2042.75 160.378 Q2038.77 160.378 2036.41 158.156 Q2034.07 155.911 2034.07 152.161 Q2034.07 147.786 2036.99 145.564 Q2039.93 143.342 2045.74 143.342 L2051.71 143.342 L2051.71 142.925 Q2051.71 139.985 2049.76 138.388 Q2047.84 136.767 2044.35 136.767 Q2042.12 136.767 2040.02 137.3 Q2037.91 137.832 2035.97 138.897 L2035.97 134.962 Q2038.31 134.059 2040.5 133.619 Q2042.7 133.156 2044.79 133.156 Q2050.41 133.156 2053.19 136.073 Q2055.97 138.99 2055.97 144.916 Z" fill="#000000" fill-rule="evenodd" fill-opacity="1" /><path clip-path="url(#clip080)" d="M2081.8 137.717 L2081.8 123.689 L2086.06 123.689 L2086.06 159.707 L2081.8 159.707 L2081.8 155.818 Q2080.46 158.133 2078.4 159.267 Q2076.36 160.378 2073.49 160.378 Q2068.79 160.378 2065.83 156.628 Q2062.89 152.879 2062.89 146.767 Q2062.89 140.656 2065.83 136.906 Q2068.79 133.156 2073.49 133.156 Q2076.36 133.156 2078.4 134.291 Q2080.46 135.402 2081.8 137.717 M2067.29 146.767 Q2067.29 151.466 2069.21 154.152 Q2071.15 156.814 2074.53 156.814 Q2077.91 156.814 2079.86 154.152 Q2081.8 151.466 2081.8 146.767 Q2081.8 142.068 2079.86 139.406 Q2077.91 136.721 2074.53 136.721 Q2071.15 136.721 2069.21 139.406 Q2067.29 142.068 2067.29 146.767 Z" fill="#000000" fill-rule="evenodd" fill-opacity="1" /><path clip-path="url(#clip080)" d="M2117.01 145.679 L2117.01 147.763 L2097.43 147.763 Q2097.7 152.161 2100.06 154.476 Q2102.45 156.767 2106.68 156.767 Q2109.14 156.767 2111.43 156.166 Q2113.74 155.564 2116.01 154.36 L2116.01 158.388 Q2113.72 159.36 2111.31 159.869 Q2108.91 160.378 2106.43 160.378 Q2100.23 160.378 2096.59 156.767 Q2092.98 153.156 2092.98 146.999 Q2092.98 140.633 2096.41 136.906 Q2099.86 133.156 2105.69 133.156 Q2110.92 133.156 2113.95 136.536 Q2117.01 139.892 2117.01 145.679 M2112.75 144.429 Q2112.7 140.934 2110.78 138.851 Q2108.88 136.767 2105.74 136.767 Q2102.17 136.767 2100.02 138.781 Q2097.89 140.795 2097.56 144.453 L2112.75 144.429 Z" fill="#000000" fill-rule="evenodd" fill-opacity="1" /><path clip-path="url(#clip080)" d="M2141.06 137.717 L2141.06 123.689 L2145.32 123.689 L2145.32 159.707 L2141.06 159.707 L2141.06 155.818 Q2139.72 158.133 2137.66 159.267 Q2135.62 160.378 2132.75 160.378 Q2128.05 160.378 2125.09 156.628 Q2122.15 152.879 2122.15 146.767 Q2122.15 140.656 2125.09 136.906 Q2128.05 133.156 2132.75 133.156 Q2135.62 133.156 2137.66 134.291 Q2139.72 135.402 2141.06 137.717 M2126.55 146.767 Q2126.55 151.466 2128.47 154.152 Q2130.41 156.814 2133.79 156.814 Q2137.17 156.814 2139.11 154.152 Q2141.06 151.466 2141.06 146.767 Q2141.06 142.068 2139.11 139.406 Q2137.17 136.721 2133.79 136.721 Q2130.41 136.721 2128.47 139.406 Q2126.55 142.068 2126.55 146.767 Z" fill="#000000" fill-rule="evenodd" fill-opacity="1" /><polyline clip-path="url(#clip080)" style="stroke:#e26f46; stroke-linecap:butt; stroke-linejoin:round; stroke-width:4; stroke-opacity:1; fill:none" points="
  1722.9,194.267 1856.62,194.267 
  "/>
<circle clip-path="url(#clip080)" cx="1789.76" cy="194.267" r="23" fill="#e26f46" fill-rule="evenodd" fill-opacity="1" stroke="#000000" stroke-opacity="1" stroke-width="4.9152"/>
<path clip-path="url(#clip080)" d="M1886.32 178.26 L1886.32 185.621 L1895.09 185.621 L1895.09 188.932 L1886.32 188.932 L1886.32 203.006 Q1886.32 206.177 1887.17 207.08 Q1888.05 207.982 1890.71 207.982 L1895.09 207.982 L1895.09 211.547 L1890.71 211.547 Q1885.78 211.547 1883.91 209.718 Q1882.03 207.867 1882.03 203.006 L1882.03 188.932 L1878.91 188.932 L1878.91 185.621 L1882.03 185.621 L1882.03 178.26 L1886.32 178.26 Z" fill="#000000" fill-rule="evenodd" fill-opacity="1" /><path clip-path="url(#clip080)" d="M1922.24 195.899 L1922.24 211.547 L1917.98 211.547 L1917.98 196.038 Q1917.98 192.357 1916.55 190.529 Q1915.11 188.7 1912.24 188.7 Q1908.79 188.7 1906.8 190.899 Q1904.81 193.098 1904.81 196.894 L1904.81 211.547 L1900.53 211.547 L1900.53 175.529 L1904.81 175.529 L1904.81 189.649 Q1906.34 187.311 1908.4 186.154 Q1910.48 184.996 1913.19 184.996 Q1917.66 184.996 1919.95 187.774 Q1922.24 190.529 1922.24 195.899 Z" fill="#000000" fill-rule="evenodd" fill-opacity="1" /><path clip-path="url(#clip080)" d="M1945.76 189.603 Q1945.04 189.186 1944.19 189.001 Q1943.35 188.793 1942.33 188.793 Q1938.72 188.793 1936.78 191.154 Q1934.86 193.492 1934.86 197.89 L1934.86 211.547 L1930.57 211.547 L1930.57 185.621 L1934.86 185.621 L1934.86 189.649 Q1936.2 187.288 1938.35 186.154 Q1940.5 184.996 1943.58 184.996 Q1944.02 184.996 1944.56 185.066 Q1945.09 185.112 1945.74 185.228 L1945.76 189.603 Z" fill="#000000" fill-rule="evenodd" fill-opacity="1" /><path clip-path="url(#clip080)" d="M1971.36 197.519 L1971.36 199.603 L1951.78 199.603 Q1952.06 204.001 1954.42 206.316 Q1956.8 208.607 1961.04 208.607 Q1963.49 208.607 1965.78 208.006 Q1968.1 207.404 1970.37 206.2 L1970.37 210.228 Q1968.07 211.2 1965.67 211.709 Q1963.26 212.218 1960.78 212.218 Q1954.58 212.218 1950.94 208.607 Q1947.33 204.996 1947.33 198.839 Q1947.33 192.473 1950.76 188.746 Q1954.21 184.996 1960.04 184.996 Q1965.27 184.996 1968.31 188.376 Q1971.36 191.732 1971.36 197.519 M1967.1 196.269 Q1967.06 192.774 1965.13 190.691 Q1963.24 188.607 1960.09 188.607 Q1956.52 188.607 1954.37 190.621 Q1952.24 192.635 1951.92 196.293 L1967.1 196.269 Z" fill="#000000" fill-rule="evenodd" fill-opacity="1" /><path clip-path="url(#clip080)" d="M1990.13 198.515 Q1984.97 198.515 1982.98 199.695 Q1980.99 200.876 1980.99 203.723 Q1980.99 205.992 1982.47 207.334 Q1983.98 208.654 1986.55 208.654 Q1990.09 208.654 1992.22 206.154 Q1994.37 203.631 1994.37 199.464 L1994.37 198.515 L1990.13 198.515 M1998.63 196.756 L1998.63 211.547 L1994.37 211.547 L1994.37 207.612 Q1992.91 209.973 1990.74 211.107 Q1988.56 212.218 1985.41 212.218 Q1981.43 212.218 1979.07 209.996 Q1976.73 207.751 1976.73 204.001 Q1976.73 199.626 1979.65 197.404 Q1982.59 195.182 1988.4 195.182 L1994.37 195.182 L1994.37 194.765 Q1994.37 191.825 1992.43 190.228 Q1990.5 188.607 1987.01 188.607 Q1984.79 188.607 1982.68 189.14 Q1980.57 189.672 1978.63 190.737 L1978.63 186.802 Q1980.97 185.899 1983.17 185.459 Q1985.37 184.996 1987.45 184.996 Q1993.07 184.996 1995.85 187.913 Q1998.63 190.83 1998.63 196.756 Z" fill="#000000" fill-rule="evenodd" fill-opacity="1" /><path clip-path="url(#clip080)" d="M2024.46 189.557 L2024.46 175.529 L2028.72 175.529 L2028.72 211.547 L2024.46 211.547 L2024.46 207.658 Q2023.12 209.973 2021.06 211.107 Q2019.02 212.218 2016.15 212.218 Q2011.45 212.218 2008.49 208.468 Q2005.55 204.719 2005.55 198.607 Q2005.55 192.496 2008.49 188.746 Q2011.45 184.996 2016.15 184.996 Q2019.02 184.996 2021.06 186.131 Q2023.12 187.242 2024.46 189.557 M2009.95 198.607 Q2009.95 203.306 2011.87 205.992 Q2013.81 208.654 2017.19 208.654 Q2020.57 208.654 2022.52 205.992 Q2024.46 203.306 2024.46 198.607 Q2024.46 193.908 2022.52 191.246 Q2020.57 188.561 2017.19 188.561 Q2013.81 188.561 2011.87 191.246 Q2009.95 193.908 2009.95 198.607 Z" fill="#000000" fill-rule="evenodd" fill-opacity="1" /><path clip-path="url(#clip080)" d="M2059.67 197.519 L2059.67 199.603 L2040.09 199.603 Q2040.37 204.001 2042.73 206.316 Q2045.11 208.607 2049.35 208.607 Q2051.8 208.607 2054.09 208.006 Q2056.41 207.404 2058.68 206.2 L2058.68 210.228 Q2056.38 211.2 2053.98 211.709 Q2051.57 212.218 2049.09 212.218 Q2042.89 212.218 2039.25 208.607 Q2035.64 204.996 2035.64 198.839 Q2035.64 192.473 2039.07 188.746 Q2042.52 184.996 2048.35 184.996 Q2053.58 184.996 2056.62 188.376 Q2059.67 191.732 2059.67 197.519 M2055.41 196.269 Q2055.37 192.774 2053.44 190.691 Q2051.55 188.607 2048.4 188.607 Q2044.83 188.607 2042.68 190.621 Q2040.55 192.635 2040.23 196.293 L2055.41 196.269 Z" fill="#000000" fill-rule="evenodd" fill-opacity="1" /><path clip-path="url(#clip080)" d="M2083.72 189.557 L2083.72 175.529 L2087.98 175.529 L2087.98 211.547 L2083.72 211.547 L2083.72 207.658 Q2082.38 209.973 2080.32 211.107 Q2078.28 212.218 2075.41 212.218 Q2070.71 212.218 2067.75 208.468 Q2064.81 204.719 2064.81 198.607 Q2064.81 192.496 2067.75 188.746 Q2070.71 184.996 2075.41 184.996 Q2078.28 184.996 2080.32 186.131 Q2082.38 187.242 2083.72 189.557 M2069.21 198.607 Q2069.21 203.306 2071.13 205.992 Q2073.07 208.654 2076.45 208.654 Q2079.83 208.654 2081.78 205.992 Q2083.72 203.306 2083.72 198.607 Q2083.72 193.908 2081.78 191.246 Q2079.83 188.561 2076.45 188.561 Q2073.07 188.561 2071.13 191.246 Q2069.21 193.908 2069.21 198.607 Z" fill="#000000" fill-rule="evenodd" fill-opacity="1" /><polyline clip-path="url(#clip080)" style="stroke:#3da44d; stroke-linecap:butt; stroke-linejoin:round; stroke-width:4; stroke-opacity:1; fill:none" points="
  1722.9,246.107 1856.62,246.107 
  "/>
<line clip-path="url(#clip080)" x1="1789.76" y1="246.107" x2="1789.76" y2="220.507" style="stroke:#3da44d; stroke-width:4.9152; stroke-opacity:1"/>
<line clip-path="url(#clip080)" x1="1789.76" y1="246.107" x2="1764.16" y2="246.107" style="stroke:#3da44d; stroke-width:4.9152; stroke-opacity:1"/>
<line clip-path="url(#clip080)" x1="1789.76" y1="246.107" x2="1789.76" y2="271.707" style="stroke:#3da44d; stroke-width:4.9152; stroke-opacity:1"/>
<line clip-path="url(#clip080)" x1="1789.76" y1="246.107" x2="1815.36" y2="246.107" style="stroke:#3da44d; stroke-width:4.9152; stroke-opacity:1"/>
<path clip-path="url(#clip080)" d="M1883.58 232.67 L1883.58 245.656 L1889.46 245.656 Q1892.73 245.656 1894.51 243.966 Q1896.29 242.276 1896.29 239.151 Q1896.29 236.049 1894.51 234.36 Q1892.73 232.67 1889.46 232.67 L1883.58 232.67 M1878.91 228.827 L1889.46 228.827 Q1895.27 228.827 1898.24 231.466 Q1901.22 234.082 1901.22 239.151 Q1901.22 244.267 1898.24 246.883 Q1895.27 249.498 1889.46 249.498 L1883.58 249.498 L1883.58 263.387 L1878.91 263.387 L1878.91 228.827 Z" fill="#000000" fill-rule="evenodd" fill-opacity="1" /><path clip-path="url(#clip080)" d="M1915.67 240.447 Q1912.24 240.447 1910.25 243.133 Q1908.26 245.795 1908.26 250.447 Q1908.26 255.1 1910.23 257.785 Q1912.22 260.447 1915.67 260.447 Q1919.07 260.447 1921.06 257.762 Q1923.05 255.077 1923.05 250.447 Q1923.05 245.841 1921.06 243.156 Q1919.07 240.447 1915.67 240.447 M1915.67 236.836 Q1921.22 236.836 1924.39 240.447 Q1927.57 244.059 1927.57 250.447 Q1927.57 256.813 1924.39 260.447 Q1921.22 264.058 1915.67 264.058 Q1910.09 264.058 1906.92 260.447 Q1903.77 256.813 1903.77 250.447 Q1903.77 244.059 1906.92 240.447 Q1910.09 236.836 1915.67 236.836 Z" fill="#000000" fill-rule="evenodd" fill-opacity="1" /><path clip-path="url(#clip080)" d="M1934.63 227.369 L1938.88 227.369 L1938.88 263.387 L1934.63 263.387 L1934.63 227.369 Z" fill="#000000" fill-rule="evenodd" fill-opacity="1" /><path clip-path="url(#clip080)" d="M1958.58 265.795 Q1956.78 270.424 1955.06 271.836 Q1953.35 273.248 1950.48 273.248 L1947.08 273.248 L1947.08 269.683 L1949.58 269.683 Q1951.34 269.683 1952.31 268.85 Q1953.28 268.017 1954.46 264.915 L1955.23 262.971 L1944.74 237.461 L1949.25 237.461 L1957.36 257.739 L1965.46 237.461 L1969.97 237.461 L1958.58 265.795 Z" fill="#000000" fill-rule="evenodd" fill-opacity="1" /><path clip-path="url(#clip080)" d="M1998.03 249.359 L1998.03 251.443 L1978.44 251.443 Q1978.72 255.841 1981.08 258.156 Q1983.47 260.447 1987.7 260.447 Q1990.16 260.447 1992.45 259.846 Q1994.76 259.244 1997.03 258.04 L1997.03 262.068 Q1994.74 263.04 1992.33 263.549 Q1989.93 264.058 1987.45 264.058 Q1981.25 264.058 1977.61 260.447 Q1974 256.836 1974 250.679 Q1974 244.313 1977.43 240.586 Q1980.87 236.836 1986.71 236.836 Q1991.94 236.836 1994.97 240.216 Q1998.03 243.572 1998.03 249.359 M1993.77 248.109 Q1993.72 244.614 1991.8 242.531 Q1989.9 240.447 1986.75 240.447 Q1983.19 240.447 1981.04 242.461 Q1978.91 244.475 1978.58 248.133 L1993.77 248.109 Z" fill="#000000" fill-rule="evenodd" fill-opacity="1" /><path clip-path="url(#clip080)" d="M2021.55 238.225 L2021.55 242.253 Q2019.74 241.327 2017.8 240.864 Q2015.85 240.401 2013.77 240.401 Q2010.6 240.401 2009 241.373 Q2007.43 242.346 2007.43 244.29 Q2007.43 245.772 2008.56 246.628 Q2009.69 247.461 2013.12 248.225 L2014.58 248.549 Q2019.12 249.522 2021.01 251.304 Q2022.93 253.063 2022.93 256.234 Q2022.93 259.846 2020.06 261.952 Q2017.22 264.058 2012.22 264.058 Q2010.13 264.058 2007.87 263.642 Q2005.62 263.248 2003.12 262.438 L2003.12 258.04 Q2005.48 259.267 2007.77 259.892 Q2010.06 260.494 2012.31 260.494 Q2015.32 260.494 2016.94 259.475 Q2018.56 258.434 2018.56 256.559 Q2018.56 254.822 2017.38 253.896 Q2016.22 252.971 2012.26 252.114 L2010.78 251.767 Q2006.82 250.934 2005.06 249.221 Q2003.31 247.484 2003.31 244.475 Q2003.31 240.818 2005.9 238.827 Q2008.49 236.836 2013.26 236.836 Q2015.62 236.836 2017.7 237.184 Q2019.79 237.531 2021.55 238.225 Z" fill="#000000" fill-rule="evenodd" fill-opacity="1" /><path clip-path="url(#clip080)" d="M2033.93 230.1 L2033.93 237.461 L2042.7 237.461 L2042.7 240.772 L2033.93 240.772 L2033.93 254.846 Q2033.93 258.017 2034.79 258.92 Q2035.67 259.822 2038.33 259.822 L2042.7 259.822 L2042.7 263.387 L2038.33 263.387 Q2033.4 263.387 2031.52 261.558 Q2029.65 259.707 2029.65 254.846 L2029.65 240.772 L2026.52 240.772 L2026.52 237.461 L2029.65 237.461 L2029.65 230.1 L2033.93 230.1 Z" fill="#000000" fill-rule="evenodd" fill-opacity="1" /><path clip-path="url(#clip080)" d="M2070.48 249.359 L2070.48 251.443 L2050.9 251.443 Q2051.18 255.841 2053.54 258.156 Q2055.92 260.447 2060.16 260.447 Q2062.61 260.447 2064.9 259.846 Q2067.22 259.244 2069.49 258.04 L2069.49 262.068 Q2067.19 263.04 2064.79 263.549 Q2062.38 264.058 2059.9 264.058 Q2053.7 264.058 2050.06 260.447 Q2046.45 256.836 2046.45 250.679 Q2046.45 244.313 2049.88 240.586 Q2053.33 236.836 2059.16 236.836 Q2064.39 236.836 2067.43 240.216 Q2070.48 243.572 2070.48 249.359 M2066.22 248.109 Q2066.18 244.614 2064.25 242.531 Q2062.36 240.447 2059.21 240.447 Q2055.64 240.447 2053.49 242.461 Q2051.36 244.475 2051.04 248.133 L2066.22 248.109 Z" fill="#000000" fill-rule="evenodd" fill-opacity="1" /><path clip-path="url(#clip080)" d="M2092.49 241.443 Q2091.78 241.026 2090.92 240.841 Q2090.09 240.633 2089.07 240.633 Q2085.46 240.633 2083.51 242.994 Q2081.59 245.332 2081.59 249.73 L2081.59 263.387 L2077.31 263.387 L2077.31 237.461 L2081.59 237.461 L2081.59 241.489 Q2082.93 239.128 2085.09 237.994 Q2087.24 236.836 2090.32 236.836 Q2090.76 236.836 2091.29 236.906 Q2091.82 236.952 2092.47 237.068 L2092.49 241.443 Z" fill="#000000" fill-rule="evenodd" fill-opacity="1" /></svg>
