<?xml version="1.0" encoding="utf-8"?>
<svg xmlns="http://www.w3.org/2000/svg" xmlns:xlink="http://www.w3.org/1999/xlink" width="576" height="384" viewBox="0 0 2304 1536">
<defs>
  <clipPath id="clip930">
    <rect x="0" y="0" width="2304" height="1536"/>
  </clipPath>
</defs>
<path clip-path="url(#clip930)" d="
M0 1536 L2304 1536 L2304 0 L0 0  Z
  " fill="#ffffff" fill-rule="evenodd" fill-opacity="1"/>
<defs>
  <clipPath id="clip931">
    <rect x="460" y="0" width="1614" height="1536"/>
  </clipPath>
</defs>
<path clip-path="url(#clip930)" d="
M251.804 1347.54 L2256.76 1347.54 L2256.76 47.2441 L251.804 47.2441  Z
  " fill="#ffffff" fill-rule="evenodd" fill-opacity="1"/>
<defs>
  <clipPath id="clip932">
    <rect x="251" y="47" width="2006" height="1301"/>
  </clipPath>
</defs>
<polyline clip-path="url(#clip932)" style="stroke:#000000; stroke-linecap:butt; stroke-linejoin:round; stroke-width:2; stroke-opacity:0.1; fill:none" points="
  280.504,1347.54 280.504,47.2441 
  "/>
<polyline clip-path="url(#clip932)" style="stroke:#000000; stroke-linecap:butt; stroke-linejoin:round; stroke-width:2; stroke-opacity:0.1; fill:none" points="
  703.928,1347.54 703.928,47.2441 
  "/>
<polyline clip-path="url(#clip932)" style="stroke:#000000; stroke-linecap:butt; stroke-linejoin:round; stroke-width:2; stroke-opacity:0.1; fill:none" points="
  1127.35,1347.54 1127.35,47.2441 
  "/>
<polyline clip-path="url(#clip932)" style="stroke:#000000; stroke-linecap:butt; stroke-linejoin:round; stroke-width:2; stroke-opacity:0.1; fill:none" points="
  1550.78,1347.54 1550.78,47.2441 
  "/>
<polyline clip-path="url(#clip932)" style="stroke:#000000; stroke-linecap:butt; stroke-linejoin:round; stroke-width:2; stroke-opacity:0.1; fill:none" points="
  1974.2,1347.54 1974.2,47.2441 
  "/>
<polyline clip-path="url(#clip930)" style="stroke:#000000; stroke-linecap:butt; stroke-linejoin:round; stroke-width:4; stroke-opacity:1; fill:none" points="
  251.804,1347.54 2256.76,1347.54 
  "/>
<polyline clip-path="url(#clip930)" style="stroke:#000000; stroke-linecap:butt; stroke-linejoin:round; stroke-width:4; stroke-opacity:1; fill:none" points="
  280.504,1347.54 280.504,1328.64 
  "/>
<polyline clip-path="url(#clip930)" style="stroke:#000000; stroke-linecap:butt; stroke-linejoin:round; stroke-width:4; stroke-opacity:1; fill:none" points="
  703.928,1347.54 703.928,1328.64 
  "/>
<polyline clip-path="url(#clip930)" style="stroke:#000000; stroke-linecap:butt; stroke-linejoin:round; stroke-width:4; stroke-opacity:1; fill:none" points="
  1127.35,1347.54 1127.35,1328.64 
  "/>
<polyline clip-path="url(#clip930)" style="stroke:#000000; stroke-linecap:butt; stroke-linejoin:round; stroke-width:4; stroke-opacity:1; fill:none" points="
  1550.78,1347.54 1550.78,1328.64 
  "/>
<polyline clip-path="url(#clip930)" style="stroke:#000000; stroke-linecap:butt; stroke-linejoin:round; stroke-width:4; stroke-opacity:1; fill:none" points="
  1974.2,1347.54 1974.2,1328.64 
  "/>
<path clip-path="url(#clip930)" d="M230.159 1420.89 L237.798 1420.89 L237.798 1394.53 L229.488 1396.19 L229.488 1391.94 L237.752 1390.27 L242.427 1390.27 L242.427 1420.89 L250.066 1420.89 L250.066 1424.83 L230.159 1424.83 L230.159 1420.89 Z" fill="#000000" fill-rule="evenodd" fill-opacity="1" /><path clip-path="url(#clip930)" d="M269.511 1393.35 Q265.9 1393.35 264.071 1396.91 Q262.265 1400.45 262.265 1407.58 Q262.265 1414.69 264.071 1418.25 Q265.9 1421.8 269.511 1421.8 Q273.145 1421.8 274.95 1418.25 Q276.779 1414.69 276.779 1407.58 Q276.779 1400.45 274.95 1396.91 Q273.145 1393.35 269.511 1393.35 M269.511 1389.64 Q275.321 1389.64 278.376 1394.25 Q281.455 1398.83 281.455 1407.58 Q281.455 1416.31 278.376 1420.92 Q275.321 1425.5 269.511 1425.5 Q263.7 1425.5 260.622 1420.92 Q257.566 1416.31 257.566 1407.58 Q257.566 1398.83 260.622 1394.25 Q263.7 1389.64 269.511 1389.64 Z" fill="#000000" fill-rule="evenodd" fill-opacity="1" /><path clip-path="url(#clip930)" d="M281.455 1383.74 L305.567 1383.74 L305.567 1386.94 L281.455 1386.94 L281.455 1383.74 Z" fill="#000000" fill-rule="evenodd" fill-opacity="1" /><path clip-path="url(#clip930)" d="M321.892 1384.08 Q319.183 1384.08 317.622 1385.53 Q316.08 1386.98 316.08 1389.52 Q316.08 1392.06 317.622 1393.51 Q319.183 1394.95 321.892 1394.95 Q324.6 1394.95 326.161 1393.51 Q327.722 1392.04 327.722 1389.52 Q327.722 1386.98 326.161 1385.53 Q324.619 1384.08 321.892 1384.08 M318.093 1382.47 Q315.648 1381.86 314.275 1380.19 Q312.92 1378.52 312.92 1376.11 Q312.92 1372.74 315.309 1370.79 Q317.716 1368.83 321.892 1368.83 Q326.086 1368.83 328.474 1370.79 Q330.863 1372.74 330.863 1376.11 Q330.863 1378.52 329.49 1380.19 Q328.136 1381.86 325.71 1382.47 Q328.456 1383.11 329.979 1384.97 Q331.521 1386.83 331.521 1389.52 Q331.521 1393.6 329.02 1395.78 Q326.537 1397.96 321.892 1397.96 Q317.246 1397.96 314.745 1395.78 Q312.262 1393.6 312.262 1389.52 Q312.262 1386.83 313.804 1384.97 Q315.347 1383.11 318.093 1382.47 M316.701 1376.47 Q316.701 1378.65 318.055 1379.87 Q319.428 1381.09 321.892 1381.09 Q324.337 1381.09 325.71 1379.87 Q327.101 1378.65 327.101 1376.47 Q327.101 1374.28 325.71 1373.06 Q324.337 1371.84 321.892 1371.84 Q319.428 1371.84 318.055 1373.06 Q316.701 1374.28 316.701 1376.47 Z" fill="#000000" fill-rule="evenodd" fill-opacity="1" /><path clip-path="url(#clip930)" d="M653.912 1420.89 L661.551 1420.89 L661.551 1394.53 L653.241 1396.19 L653.241 1391.94 L661.504 1390.27 L666.18 1390.27 L666.18 1420.89 L673.819 1420.89 L673.819 1424.83 L653.912 1424.83 L653.912 1420.89 Z" fill="#000000" fill-rule="evenodd" fill-opacity="1" /><path clip-path="url(#clip930)" d="M693.264 1393.35 Q689.652 1393.35 687.824 1396.91 Q686.018 1400.45 686.018 1407.58 Q686.018 1414.69 687.824 1418.25 Q689.652 1421.8 693.264 1421.8 Q696.898 1421.8 698.703 1418.25 Q700.532 1414.69 700.532 1407.58 Q700.532 1400.45 698.703 1396.91 Q696.898 1393.35 693.264 1393.35 M693.264 1389.64 Q699.074 1389.64 702.129 1394.25 Q705.208 1398.83 705.208 1407.58 Q705.208 1416.31 702.129 1420.92 Q699.074 1425.5 693.264 1425.5 Q687.453 1425.5 684.375 1420.92 Q681.319 1416.31 681.319 1407.58 Q681.319 1398.83 684.375 1394.25 Q687.453 1389.64 693.264 1389.64 Z" fill="#000000" fill-rule="evenodd" fill-opacity="1" /><path clip-path="url(#clip930)" d="M705.208 1383.74 L729.319 1383.74 L729.319 1386.94 L705.208 1386.94 L705.208 1383.74 Z" fill="#000000" fill-rule="evenodd" fill-opacity="1" /><path clip-path="url(#clip930)" d="M736.56 1369.34 L754.616 1369.34 L754.616 1370.96 L744.422 1397.42 L740.454 1397.42 L750.046 1372.54 L736.56 1372.54 L736.56 1369.34 Z" fill="#000000" fill-rule="evenodd" fill-opacity="1" /><path clip-path="url(#clip930)" d="M1076.9 1420.89 L1084.54 1420.89 L1084.54 1394.53 L1076.23 1396.19 L1076.23 1391.94 L1084.5 1390.27 L1089.17 1390.27 L1089.17 1420.89 L1096.81 1420.89 L1096.81 1424.83 L1076.9 1424.83 L1076.9 1420.89 Z" fill="#000000" fill-rule="evenodd" fill-opacity="1" /><path clip-path="url(#clip930)" d="M1116.25 1393.35 Q1112.64 1393.35 1110.81 1396.91 Q1109.01 1400.45 1109.01 1407.58 Q1109.01 1414.69 1110.81 1418.25 Q1112.64 1421.8 1116.25 1421.8 Q1119.89 1421.8 1121.69 1418.25 Q1123.52 1414.69 1123.52 1407.58 Q1123.52 1400.45 1121.69 1396.91 Q1119.89 1393.35 1116.25 1393.35 M1116.25 1389.64 Q1122.06 1389.64 1125.12 1394.25 Q1128.2 1398.83 1128.2 1407.58 Q1128.2 1416.31 1125.12 1420.92 Q1122.06 1425.5 1116.25 1425.5 Q1110.44 1425.5 1107.37 1420.92 Q1104.31 1416.31 1104.31 1407.58 Q1104.31 1398.83 1107.37 1394.25 Q1110.44 1389.64 1116.25 1389.64 Z" fill="#000000" fill-rule="evenodd" fill-opacity="1" /><path clip-path="url(#clip930)" d="M1128.2 1383.74 L1152.31 1383.74 L1152.31 1386.94 L1128.2 1386.94 L1128.2 1383.74 Z" fill="#000000" fill-rule="evenodd" fill-opacity="1" /><path clip-path="url(#clip930)" d="M1169.11 1381.86 Q1166.55 1381.86 1165.04 1383.61 Q1163.56 1385.36 1163.56 1388.41 Q1163.56 1391.44 1165.04 1393.21 Q1166.55 1394.95 1169.11 1394.95 Q1171.66 1394.95 1173.15 1393.21 Q1174.65 1391.44 1174.65 1388.41 Q1174.65 1385.36 1173.15 1383.61 Q1171.66 1381.86 1169.11 1381.86 M1176.65 1369.96 L1176.65 1373.42 Q1175.22 1372.74 1173.75 1372.39 Q1172.3 1372.03 1170.87 1372.03 Q1167.11 1372.03 1165.12 1374.57 Q1163.14 1377.11 1162.86 1382.24 Q1163.97 1380.6 1165.65 1379.74 Q1167.32 1378.85 1169.33 1378.85 Q1173.56 1378.85 1176.01 1381.43 Q1178.47 1383.99 1178.47 1388.41 Q1178.47 1392.74 1175.91 1395.35 Q1173.36 1397.96 1169.11 1397.96 Q1164.23 1397.96 1161.66 1394.24 Q1159.08 1390.5 1159.08 1383.41 Q1159.08 1376.75 1162.24 1372.8 Q1165.4 1368.83 1170.72 1368.83 Q1172.15 1368.83 1173.6 1369.11 Q1175.07 1369.39 1176.65 1369.96 Z" fill="#000000" fill-rule="evenodd" fill-opacity="1" /><path clip-path="url(#clip930)" d="M1500.8 1420.89 L1508.44 1420.89 L1508.44 1394.53 L1500.13 1396.19 L1500.13 1391.94 L1508.39 1390.27 L1513.07 1390.27 L1513.07 1420.89 L1520.7 1420.89 L1520.7 1424.83 L1500.8 1424.83 L1500.8 1420.89 Z" fill="#000000" fill-rule="evenodd" fill-opacity="1" /><path clip-path="url(#clip930)" d="M1540.15 1393.35 Q1536.54 1393.35 1534.71 1396.91 Q1532.9 1400.45 1532.9 1407.58 Q1532.9 1414.69 1534.71 1418.25 Q1536.54 1421.8 1540.15 1421.8 Q1543.78 1421.8 1545.59 1418.25 Q1547.42 1414.69 1547.42 1407.58 Q1547.42 1400.45 1545.59 1396.91 Q1543.78 1393.35 1540.15 1393.35 M1540.15 1389.64 Q1545.96 1389.64 1549.01 1394.25 Q1552.09 1398.83 1552.09 1407.58 Q1552.09 1416.31 1549.01 1420.92 Q1545.96 1425.5 1540.15 1425.5 Q1534.34 1425.5 1531.26 1420.92 Q1528.2 1416.31 1528.2 1407.58 Q1528.2 1398.83 1531.26 1394.25 Q1534.34 1389.64 1540.15 1389.64 Z" fill="#000000" fill-rule="evenodd" fill-opacity="1" /><path clip-path="url(#clip930)" d="M1552.09 1383.74 L1576.2 1383.74 L1576.2 1386.94 L1552.09 1386.94 L1552.09 1383.74 Z" fill="#000000" fill-rule="evenodd" fill-opacity="1" /><path clip-path="url(#clip930)" d="M1584.44 1369.34 L1599.36 1369.34 L1599.36 1372.54 L1587.92 1372.54 L1587.92 1379.42 Q1588.75 1379.14 1589.58 1379.01 Q1590.4 1378.85 1591.23 1378.85 Q1595.93 1378.85 1598.68 1381.43 Q1601.43 1384.01 1601.43 1388.41 Q1601.43 1392.94 1598.6 1395.46 Q1595.78 1397.96 1590.65 1397.96 Q1588.88 1397.96 1587.04 1397.66 Q1585.21 1397.36 1583.26 1396.76 L1583.26 1392.94 Q1584.95 1393.86 1586.76 1394.31 Q1588.56 1394.77 1590.57 1394.77 Q1593.83 1394.77 1595.73 1393.05 Q1597.63 1391.34 1597.63 1388.41 Q1597.63 1385.48 1595.73 1383.76 Q1593.83 1382.05 1590.57 1382.05 Q1589.05 1382.05 1587.53 1382.39 Q1586.02 1382.73 1584.44 1383.44 L1584.44 1369.34 Z" fill="#000000" fill-rule="evenodd" fill-opacity="1" /><path clip-path="url(#clip930)" d="M1923.62 1420.89 L1931.26 1420.89 L1931.26 1394.53 L1922.95 1396.19 L1922.95 1391.94 L1931.21 1390.27 L1935.89 1390.27 L1935.89 1420.89 L1943.53 1420.89 L1943.53 1424.83 L1923.62 1424.83 L1923.62 1420.89 Z" fill="#000000" fill-rule="evenodd" fill-opacity="1" /><path clip-path="url(#clip930)" d="M1962.97 1393.35 Q1959.36 1393.35 1957.53 1396.91 Q1955.73 1400.45 1955.73 1407.58 Q1955.73 1414.69 1957.53 1418.25 Q1959.36 1421.8 1962.97 1421.8 Q1966.6 1421.8 1968.41 1418.25 Q1970.24 1414.69 1970.24 1407.58 Q1970.24 1400.45 1968.41 1396.91 Q1966.6 1393.35 1962.97 1393.35 M1962.97 1389.64 Q1968.78 1389.64 1971.84 1394.25 Q1974.91 1398.83 1974.91 1407.58 Q1974.91 1416.31 1971.84 1420.92 Q1968.78 1425.5 1962.97 1425.5 Q1957.16 1425.5 1954.08 1420.92 Q1951.03 1416.31 1951.03 1407.58 Q1951.03 1398.83 1954.08 1394.25 Q1957.16 1389.64 1962.97 1389.64 Z" fill="#000000" fill-rule="evenodd" fill-opacity="1" /><path clip-path="url(#clip930)" d="M1974.91 1383.74 L1999.03 1383.74 L1999.03 1386.94 L1974.91 1386.94 L1974.91 1383.74 Z" fill="#000000" fill-rule="evenodd" fill-opacity="1" /><path clip-path="url(#clip930)" d="M2017.66 1372.65 L2008.07 1387.64 L2017.66 1387.64 L2017.66 1372.65 M2016.67 1369.34 L2021.45 1369.34 L2021.45 1387.64 L2025.45 1387.64 L2025.45 1390.8 L2021.45 1390.8 L2021.45 1397.42 L2017.66 1397.42 L2017.66 1390.8 L2004.99 1390.8 L2004.99 1387.13 L2016.67 1369.34 Z" fill="#000000" fill-rule="evenodd" fill-opacity="1" /><path clip-path="url(#clip930)" d="M1178.03 1461.87 L1208.08 1461.87 L1208.08 1467.28 L1184.46 1467.28 L1184.46 1481.34 L1207.09 1481.34 L1207.09 1486.76 L1184.46 1486.76 L1184.46 1503.97 L1208.65 1503.97 L1208.65 1509.39 L1178.03 1509.39 L1178.03 1461.87 Z" fill="#000000" fill-rule="evenodd" fill-opacity="1" /><path clip-path="url(#clip930)" d="M1239.62 1479.21 Q1238.64 1478.64 1237.46 1478.38 Q1236.31 1478.1 1234.91 1478.1 Q1229.95 1478.1 1227.27 1481.34 Q1224.63 1484.56 1224.63 1490.61 L1224.63 1509.39 L1218.74 1509.39 L1218.74 1473.74 L1224.63 1473.74 L1224.63 1479.28 Q1226.48 1476.03 1229.44 1474.47 Q1232.4 1472.88 1236.63 1472.88 Q1237.24 1472.88 1237.97 1472.97 Q1238.7 1473.04 1239.59 1473.2 L1239.62 1479.21 Z" fill="#000000" fill-rule="evenodd" fill-opacity="1" /><path clip-path="url(#clip930)" d="M1265.28 1479.21 Q1264.29 1478.64 1263.11 1478.38 Q1261.97 1478.1 1260.57 1478.1 Q1255.6 1478.1 1252.93 1481.34 Q1250.29 1484.56 1250.29 1490.61 L1250.29 1509.39 L1244.4 1509.39 L1244.4 1473.74 L1250.29 1473.74 L1250.29 1479.28 Q1252.13 1476.03 1255.09 1474.47 Q1258.05 1472.88 1262.28 1472.88 Q1262.89 1472.88 1263.62 1472.97 Q1264.35 1473.04 1265.24 1473.2 L1265.28 1479.21 Z" fill="#000000" fill-rule="evenodd" fill-opacity="1" /><path clip-path="url(#clip930)" d="M1283.8 1477.84 Q1279.09 1477.84 1276.35 1481.54 Q1273.62 1485.2 1273.62 1491.59 Q1273.62 1497.99 1276.32 1501.68 Q1279.06 1505.34 1283.8 1505.34 Q1288.48 1505.34 1291.22 1501.65 Q1293.95 1497.96 1293.95 1491.59 Q1293.95 1485.26 1291.22 1481.57 Q1288.48 1477.84 1283.8 1477.84 M1283.8 1472.88 Q1291.44 1472.88 1295.8 1477.84 Q1300.16 1482.81 1300.16 1491.59 Q1300.16 1500.35 1295.8 1505.34 Q1291.44 1510.31 1283.8 1510.31 Q1276.13 1510.31 1271.77 1505.34 Q1267.44 1500.35 1267.44 1491.59 Q1267.44 1482.81 1271.77 1477.84 Q1276.13 1472.88 1283.8 1472.88 Z" fill="#000000" fill-rule="evenodd" fill-opacity="1" /><path clip-path="url(#clip930)" d="M1330.53 1479.21 Q1329.54 1478.64 1328.36 1478.38 Q1327.22 1478.1 1325.81 1478.1 Q1320.85 1478.1 1318.18 1481.34 Q1315.53 1484.56 1315.53 1490.61 L1315.53 1509.39 L1309.65 1509.39 L1309.65 1473.74 L1315.53 1473.74 L1315.53 1479.28 Q1317.38 1476.03 1320.34 1474.47 Q1323.3 1472.88 1327.53 1472.88 Q1328.14 1472.88 1328.87 1472.97 Q1329.6 1473.04 1330.49 1473.2 L1330.53 1479.21 Z" fill="#000000" fill-rule="evenodd" fill-opacity="1" /><polyline clip-path="url(#clip932)" style="stroke:#000000; stroke-linecap:butt; stroke-linejoin:round; stroke-width:2; stroke-opacity:0.1; fill:none" points="
  251.804,1115.95 2256.76,1115.95 
  "/>
<polyline clip-path="url(#clip932)" style="stroke:#000000; stroke-linecap:butt; stroke-linejoin:round; stroke-width:2; stroke-opacity:0.1; fill:none" points="
  251.804,556.789 2256.76,556.789 
  "/>
<polyline clip-path="url(#clip930)" style="stroke:#000000; stroke-linecap:butt; stroke-linejoin:round; stroke-width:4; stroke-opacity:1; fill:none" points="
  251.804,1347.54 251.804,47.2441 
  "/>
<polyline clip-path="url(#clip930)" style="stroke:#000000; stroke-linecap:butt; stroke-linejoin:round; stroke-width:4; stroke-opacity:1; fill:none" points="
  251.804,1115.95 270.702,1115.95 
  "/>
<polyline clip-path="url(#clip930)" style="stroke:#000000; stroke-linecap:butt; stroke-linejoin:round; stroke-width:4; stroke-opacity:1; fill:none" points="
  251.804,556.789 270.702,556.789 
  "/>
<path clip-path="url(#clip930)" d="M115.411 1135.75 L123.05 1135.75 L123.05 1109.38 L114.74 1111.05 L114.74 1106.79 L123.004 1105.12 L127.68 1105.12 L127.68 1135.75 L135.319 1135.75 L135.319 1139.68 L115.411 1139.68 L115.411 1135.75 Z" fill="#000000" fill-rule="evenodd" fill-opacity="1" /><path clip-path="url(#clip930)" d="M154.763 1108.2 Q151.152 1108.2 149.323 1111.77 Q147.518 1115.31 147.518 1122.44 Q147.518 1129.54 149.323 1133.11 Q151.152 1136.65 154.763 1136.65 Q158.397 1136.65 160.203 1133.11 Q162.032 1129.54 162.032 1122.44 Q162.032 1115.31 160.203 1111.77 Q158.397 1108.2 154.763 1108.2 M154.763 1104.5 Q160.573 1104.5 163.629 1109.1 Q166.707 1113.69 166.707 1122.44 Q166.707 1131.16 163.629 1135.77 Q160.573 1140.35 154.763 1140.35 Q148.953 1140.35 145.874 1135.77 Q142.819 1131.16 142.819 1122.44 Q142.819 1113.69 145.874 1109.1 Q148.953 1104.5 154.763 1104.5 Z" fill="#000000" fill-rule="evenodd" fill-opacity="1" /><path clip-path="url(#clip930)" d="M166.707 1098.6 L190.819 1098.6 L190.819 1101.8 L166.707 1101.8 L166.707 1098.6 Z" fill="#000000" fill-rule="evenodd" fill-opacity="1" /><path clip-path="url(#clip930)" d="M209.458 1087.5 L199.866 1102.49 L209.458 1102.49 L209.458 1087.5 M208.461 1084.19 L213.238 1084.19 L213.238 1102.49 L217.244 1102.49 L217.244 1105.65 L213.238 1105.65 L213.238 1112.27 L209.458 1112.27 L209.458 1105.65 L196.781 1105.65 L196.781 1101.98 L208.461 1084.19 Z" fill="#000000" fill-rule="evenodd" fill-opacity="1" /><path clip-path="url(#clip930)" d="M116.333 576.582 L123.972 576.582 L123.972 550.216 L115.662 551.883 L115.662 547.624 L123.926 545.957 L128.601 545.957 L128.601 576.582 L136.24 576.582 L136.24 580.517 L116.333 580.517 L116.333 576.582 Z" fill="#000000" fill-rule="evenodd" fill-opacity="1" /><path clip-path="url(#clip930)" d="M155.685 549.036 Q152.074 549.036 150.245 552.6 Q148.439 556.142 148.439 563.272 Q148.439 570.378 150.245 573.943 Q152.074 577.485 155.685 577.485 Q159.319 577.485 161.124 573.943 Q162.953 570.378 162.953 563.272 Q162.953 556.142 161.124 552.6 Q159.319 549.036 155.685 549.036 M155.685 545.332 Q161.495 545.332 164.55 549.938 Q167.629 554.522 167.629 563.272 Q167.629 571.998 164.55 576.605 Q161.495 581.188 155.685 581.188 Q149.875 581.188 146.796 576.605 Q143.74 571.998 143.74 563.272 Q143.74 554.522 146.796 549.938 Q149.875 545.332 155.685 545.332 Z" fill="#000000" fill-rule="evenodd" fill-opacity="1" /><path clip-path="url(#clip930)" d="M167.629 539.433 L191.741 539.433 L191.741 542.631 L167.629 542.631 L167.629 539.433 Z" fill="#000000" fill-rule="evenodd" fill-opacity="1" /><path clip-path="url(#clip930)" d="M211.451 537.966 Q214.178 538.549 215.702 540.392 Q217.244 542.236 217.244 544.944 Q217.244 549.1 214.385 551.376 Q211.526 553.652 206.26 553.652 Q204.492 553.652 202.612 553.295 Q200.75 552.956 198.756 552.26 L198.756 548.593 Q200.336 549.514 202.217 549.984 Q204.097 550.455 206.147 550.455 Q209.721 550.455 211.583 549.044 Q213.464 547.633 213.464 544.944 Q213.464 542.461 211.714 541.07 Q209.984 539.659 206.881 539.659 L203.608 539.659 L203.608 536.537 L207.031 536.537 Q209.834 536.537 211.32 535.427 Q212.805 534.299 212.805 532.192 Q212.805 530.029 211.263 528.882 Q209.74 527.716 206.881 527.716 Q205.32 527.716 203.533 528.055 Q201.746 528.393 199.602 529.108 L199.602 525.722 Q201.765 525.121 203.646 524.82 Q205.546 524.519 207.219 524.519 Q211.545 524.519 214.065 526.494 Q216.586 528.45 216.586 531.797 Q216.586 534.129 215.25 535.747 Q213.915 537.346 211.451 537.966 Z" fill="#000000" fill-rule="evenodd" fill-opacity="1" /><path clip-path="url(#clip930)" d="M18.4042 827.219 L18.4042 787.02 L23.815 787.02 L23.815 803.889 L65.9242 803.889 L65.9242 810.35 L23.815 810.35 L23.815 827.219 L18.4042 827.219 Z" fill="#000000" fill-rule="evenodd" fill-opacity="1" /><path clip-path="url(#clip930)" d="M30.2762 783.073 L30.2762 777.216 L65.9242 777.216 L65.9242 783.073 L30.2762 783.073 M16.399 783.073 L16.399 777.216 L23.815 777.216 L23.815 783.073 L16.399 783.073 Z" fill="#000000" fill-rule="evenodd" fill-opacity="1" /><path clip-path="url(#clip930)" d="M37.1193 737.208 Q33.1726 735.012 31.2947 731.956 Q29.4168 728.901 29.4168 724.763 Q29.4168 719.193 33.3317 716.169 Q37.2148 713.145 44.4081 713.145 L65.9242 713.145 L65.9242 719.034 L44.599 719.034 Q39.4746 719.034 36.992 720.848 Q34.5094 722.662 34.5094 726.386 Q34.5094 730.938 37.5331 733.579 Q40.5568 736.221 45.7767 736.221 L65.9242 736.221 L65.9242 742.109 L44.599 742.109 Q39.4428 742.109 36.992 743.924 Q34.5094 745.738 34.5094 749.526 Q34.5094 754.013 37.5649 756.655 Q40.5886 759.297 45.7767 759.297 L65.9242 759.297 L65.9242 765.185 L30.2762 765.185 L30.2762 759.297 L35.8144 759.297 Q32.536 757.292 30.9764 754.491 Q29.4168 751.69 29.4168 747.839 Q29.4168 743.956 31.3902 741.25 Q33.3636 738.513 37.1193 737.208 Z" fill="#000000" fill-rule="evenodd" fill-opacity="1" /><path clip-path="url(#clip930)" d="M46.6361 670.973 L49.5006 670.973 L49.5006 697.9 Q55.5481 697.518 58.7309 694.271 Q61.8819 690.993 61.8819 685.168 Q61.8819 681.794 61.0544 678.643 Q60.2269 675.461 58.5718 672.341 L64.1099 672.341 Q65.4467 675.492 66.147 678.803 Q66.8472 682.113 66.8472 685.518 Q66.8472 694.048 61.8819 699.045 Q56.9167 704.011 48.4503 704.011 Q39.6974 704.011 34.5731 699.3 Q29.4168 694.558 29.4168 686.537 Q29.4168 679.344 34.0638 675.174 Q38.6789 670.973 46.6361 670.973 M44.9173 676.829 Q40.1112 676.893 37.2466 679.535 Q34.3821 682.145 34.3821 686.473 Q34.3821 691.375 37.1512 694.335 Q39.9202 697.263 44.9492 697.709 L44.9173 676.829 Z" fill="#000000" fill-rule="evenodd" fill-opacity="1" /><path clip-path="url(#clip930)" d="M16.4626 626.572 Q23.7832 630.837 30.9446 632.906 Q38.106 634.975 45.4584 634.975 Q52.8108 634.975 60.0359 632.906 Q67.2291 630.805 74.5179 626.572 L74.5179 631.664 Q67.0382 636.439 59.8131 638.826 Q52.588 641.181 45.4584 641.181 Q38.3606 641.181 31.1674 638.826 Q23.9742 636.471 16.4626 631.664 L16.4626 626.572 Z" fill="#000000" fill-rule="evenodd" fill-opacity="1" /><path clip-path="url(#clip930)" d="M31.3265 592.484 L36.8647 592.484 Q35.5916 594.966 34.955 597.64 Q34.3184 600.313 34.3184 603.178 Q34.3184 607.538 35.6552 609.735 Q36.992 611.899 39.6656 611.899 Q41.7026 611.899 42.8803 610.339 Q44.0261 608.78 45.0765 604.069 L45.5221 602.064 Q46.8589 595.826 49.3097 593.216 Q51.7286 590.574 56.0891 590.574 Q61.0544 590.574 63.9508 594.521 Q66.8472 598.435 66.8472 605.31 Q66.8472 608.175 66.2743 611.294 Q65.7332 614.382 64.6192 617.819 L58.5718 617.819 Q60.2587 614.573 61.118 611.422 Q61.9456 608.27 61.9456 605.183 Q61.9456 601.045 60.5451 598.817 Q59.1129 596.589 56.5347 596.589 Q54.1476 596.589 52.8745 598.213 Q51.6013 599.804 50.4237 605.247 L49.9462 607.284 Q48.8004 612.726 46.4451 615.145 Q44.058 617.564 39.9202 617.564 Q34.8913 617.564 32.1541 614 Q29.4168 610.435 29.4168 603.878 Q29.4168 600.632 29.8943 597.767 Q30.3717 594.902 31.3265 592.484 Z" fill="#000000" fill-rule="evenodd" fill-opacity="1" /><path clip-path="url(#clip930)" d="M16.4626 582.171 L16.4626 577.079 Q23.9742 572.304 31.1674 569.949 Q38.3606 567.562 45.4584 567.562 Q52.588 567.562 59.8131 569.949 Q67.0382 572.304 74.5179 577.079 L74.5179 582.171 Q67.2291 577.938 60.0359 575.869 Q52.8108 573.768 45.4584 573.768 Q38.106 573.768 30.9446 575.869 Q23.7832 577.938 16.4626 582.171 Z" fill="#000000" fill-rule="evenodd" fill-opacity="1" /><polyline clip-path="url(#clip932)" style="stroke:#009af9; stroke-linecap:butt; stroke-linejoin:round; stroke-width:12; stroke-opacity:1; fill:none" points="
  2200.01,1310.74 1699.7,1162.35 1276.83,994.555 917.837,809.442 
  "/>
<line clip-path="url(#clip932)" x1="2200.01" y1="1310.74" x2="2200.01" y2="1294.74" style="stroke:#009af9; stroke-width:3.072; stroke-opacity:1"/>
<line clip-path="url(#clip932)" x1="2200.01" y1="1310.74" x2="2184.01" y2="1310.74" style="stroke:#009af9; stroke-width:3.072; stroke-opacity:1"/>
<line clip-path="url(#clip932)" x1="2200.01" y1="1310.74" x2="2200.01" y2="1326.74" style="stroke:#009af9; stroke-width:3.072; stroke-opacity:1"/>
<line clip-path="url(#clip932)" x1="2200.01" y1="1310.74" x2="2216.01" y2="1310.74" style="stroke:#009af9; stroke-width:3.072; stroke-opacity:1"/>
<line clip-path="url(#clip932)" x1="1699.7" y1="1162.35" x2="1699.7" y2="1146.35" style="stroke:#009af9; stroke-width:3.072; stroke-opacity:1"/>
<line clip-path="url(#clip932)" x1="1699.7" y1="1162.35" x2="1683.7" y2="1162.35" style="stroke:#009af9; stroke-width:3.072; stroke-opacity:1"/>
<line clip-path="url(#clip932)" x1="1699.7" y1="1162.35" x2="1699.7" y2="1178.35" style="stroke:#009af9; stroke-width:3.072; stroke-opacity:1"/>
<line clip-path="url(#clip932)" x1="1699.7" y1="1162.35" x2="1715.7" y2="1162.35" style="stroke:#009af9; stroke-width:3.072; stroke-opacity:1"/>
<line clip-path="url(#clip932)" x1="1276.83" y1="994.555" x2="1276.83" y2="978.555" style="stroke:#009af9; stroke-width:3.072; stroke-opacity:1"/>
<line clip-path="url(#clip932)" x1="1276.83" y1="994.555" x2="1260.83" y2="994.555" style="stroke:#009af9; stroke-width:3.072; stroke-opacity:1"/>
<line clip-path="url(#clip932)" x1="1276.83" y1="994.555" x2="1276.83" y2="1010.56" style="stroke:#009af9; stroke-width:3.072; stroke-opacity:1"/>
<line clip-path="url(#clip932)" x1="1276.83" y1="994.555" x2="1292.83" y2="994.555" style="stroke:#009af9; stroke-width:3.072; stroke-opacity:1"/>
<line clip-path="url(#clip932)" x1="917.837" y1="809.442" x2="917.837" y2="793.442" style="stroke:#009af9; stroke-width:3.072; stroke-opacity:1"/>
<line clip-path="url(#clip932)" x1="917.837" y1="809.442" x2="901.837" y2="809.442" style="stroke:#009af9; stroke-width:3.072; stroke-opacity:1"/>
<line clip-path="url(#clip932)" x1="917.837" y1="809.442" x2="917.837" y2="825.442" style="stroke:#009af9; stroke-width:3.072; stroke-opacity:1"/>
<line clip-path="url(#clip932)" x1="917.837" y1="809.442" x2="933.837" y2="809.442" style="stroke:#009af9; stroke-width:3.072; stroke-opacity:1"/>
<polyline clip-path="url(#clip932)" style="stroke:#e26f46; stroke-linecap:butt; stroke-linejoin:round; stroke-width:12; stroke-opacity:1; fill:none" points="
  1415.93,889.073 800.732,803.575 622.649,784.368 627.297,719.397 
  "/>
<circle clip-path="url(#clip932)" cx="1415.93" cy="889.073" r="14" fill="#e26f46" fill-rule="evenodd" fill-opacity="1" stroke="#000000" stroke-opacity="1" stroke-width="3.072"/>
<circle clip-path="url(#clip932)" cx="800.732" cy="803.575" r="14" fill="#e26f46" fill-rule="evenodd" fill-opacity="1" stroke="#000000" stroke-opacity="1" stroke-width="3.072"/>
<circle clip-path="url(#clip932)" cx="622.649" cy="784.368" r="14" fill="#e26f46" fill-rule="evenodd" fill-opacity="1" stroke="#000000" stroke-opacity="1" stroke-width="3.072"/>
<circle clip-path="url(#clip932)" cx="627.297" cy="719.397" r="14" fill="#e26f46" fill-rule="evenodd" fill-opacity="1" stroke="#000000" stroke-opacity="1" stroke-width="3.072"/>
<polyline clip-path="url(#clip932)" style="stroke:#3da44d; stroke-linecap:butt; stroke-linejoin:round; stroke-width:12; stroke-opacity:1; fill:none" points="
  1561.75,968.053 1259.83,894.691 700.073,854.042 886.295,802.464 
  "/>
<line clip-path="url(#clip932)" x1="1561.75" y1="968.053" x2="1561.75" y2="952.053" style="stroke:#3da44d; stroke-width:3.072; stroke-opacity:1"/>
<line clip-path="url(#clip932)" x1="1561.75" y1="968.053" x2="1545.75" y2="968.053" style="stroke:#3da44d; stroke-width:3.072; stroke-opacity:1"/>
<line clip-path="url(#clip932)" x1="1561.75" y1="968.053" x2="1561.75" y2="984.053" style="stroke:#3da44d; stroke-width:3.072; stroke-opacity:1"/>
<line clip-path="url(#clip932)" x1="1561.75" y1="968.053" x2="1577.75" y2="968.053" style="stroke:#3da44d; stroke-width:3.072; stroke-opacity:1"/>
<line clip-path="url(#clip932)" x1="1259.83" y1="894.691" x2="1259.83" y2="878.691" style="stroke:#3da44d; stroke-width:3.072; stroke-opacity:1"/>
<line clip-path="url(#clip932)" x1="1259.83" y1="894.691" x2="1243.83" y2="894.691" style="stroke:#3da44d; stroke-width:3.072; stroke-opacity:1"/>
<line clip-path="url(#clip932)" x1="1259.83" y1="894.691" x2="1259.83" y2="910.691" style="stroke:#3da44d; stroke-width:3.072; stroke-opacity:1"/>
<line clip-path="url(#clip932)" x1="1259.83" y1="894.691" x2="1275.83" y2="894.691" style="stroke:#3da44d; stroke-width:3.072; stroke-opacity:1"/>
<line clip-path="url(#clip932)" x1="700.073" y1="854.042" x2="700.073" y2="838.042" style="stroke:#3da44d; stroke-width:3.072; stroke-opacity:1"/>
<line clip-path="url(#clip932)" x1="700.073" y1="854.042" x2="684.073" y2="854.042" style="stroke:#3da44d; stroke-width:3.072; stroke-opacity:1"/>
<line clip-path="url(#clip932)" x1="700.073" y1="854.042" x2="700.073" y2="870.042" style="stroke:#3da44d; stroke-width:3.072; stroke-opacity:1"/>
<line clip-path="url(#clip932)" x1="700.073" y1="854.042" x2="716.073" y2="854.042" style="stroke:#3da44d; stroke-width:3.072; stroke-opacity:1"/>
<line clip-path="url(#clip932)" x1="886.295" y1="802.464" x2="886.295" y2="786.464" style="stroke:#3da44d; stroke-width:3.072; stroke-opacity:1"/>
<line clip-path="url(#clip932)" x1="886.295" y1="802.464" x2="870.295" y2="802.464" style="stroke:#3da44d; stroke-width:3.072; stroke-opacity:1"/>
<line clip-path="url(#clip932)" x1="886.295" y1="802.464" x2="886.295" y2="818.464" style="stroke:#3da44d; stroke-width:3.072; stroke-opacity:1"/>
<line clip-path="url(#clip932)" x1="886.295" y1="802.464" x2="902.295" y2="802.464" style="stroke:#3da44d; stroke-width:3.072; stroke-opacity:1"/>
<polyline clip-path="url(#clip932)" style="stroke:#c271d2; stroke-linecap:butt; stroke-linejoin:round; stroke-width:12; stroke-opacity:1; fill:none" points="
  1913.69,1025.24 1854.47,995.944 1474.2,920.86 1107.1,811.02 
  "/>
<path clip-path="url(#clip932)" d="M1913.69 1009.24 L1897.69 1025.24 L1913.69 1041.24 L1929.69 1025.24 L1913.69 1009.24 Z" fill="#c271d2" fill-rule="evenodd" fill-opacity="1" stroke="#000000" stroke-opacity="1" stroke-width="3.072"/>
<path clip-path="url(#clip932)" d="M1854.47 979.944 L1838.47 995.944 L1854.47 1011.94 L1870.47 995.944 L1854.47 979.944 Z" fill="#c271d2" fill-rule="evenodd" fill-opacity="1" stroke="#000000" stroke-opacity="1" stroke-width="3.072"/>
<path clip-path="url(#clip932)" d="M1474.2 904.86 L1458.2 920.86 L1474.2 936.86 L1490.2 920.86 L1474.2 904.86 Z" fill="#c271d2" fill-rule="evenodd" fill-opacity="1" stroke="#000000" stroke-opacity="1" stroke-width="3.072"/>
<path clip-path="url(#clip932)" d="M1107.1 795.02 L1091.1 811.02 L1107.1 827.02 L1123.1 811.02 L1107.1 795.02 Z" fill="#c271d2" fill-rule="evenodd" fill-opacity="1" stroke="#000000" stroke-opacity="1" stroke-width="3.072"/>
<polyline clip-path="url(#clip932)" style="stroke:#ac8d18; stroke-linecap:butt; stroke-linejoin:round; stroke-width:12; stroke-opacity:1; fill:none" points="
  1712.94,420.032 1559.02,372.113 1178.48,296.226 450.923,229.937 
  "/>
<path clip-path="url(#clip932)" d="M1728.94 404.032 L1696.94 404.032 L1712.94 436.032 L1728.94 404.032 Z" fill="#ac8d18" fill-rule="evenodd" fill-opacity="1" stroke="#000000" stroke-opacity="1" stroke-width="3.072"/>
<path clip-path="url(#clip932)" d="M1575.02 356.113 L1543.02 356.113 L1559.02 388.113 L1575.02 356.113 Z" fill="#ac8d18" fill-rule="evenodd" fill-opacity="1" stroke="#000000" stroke-opacity="1" stroke-width="3.072"/>
<path clip-path="url(#clip932)" d="M1194.48 280.226 L1162.48 280.226 L1178.48 312.226 L1194.48 280.226 Z" fill="#ac8d18" fill-rule="evenodd" fill-opacity="1" stroke="#000000" stroke-opacity="1" stroke-width="3.072"/>
<path clip-path="url(#clip932)" d="M466.923 213.937 L434.923 213.937 L450.923 245.937 L466.923 213.937 Z" fill="#ac8d18" fill-rule="evenodd" fill-opacity="1" stroke="#000000" stroke-opacity="1" stroke-width="3.072"/>
<polyline clip-path="url(#clip932)" style="stroke:#00a9ad; stroke-linecap:butt; stroke-linejoin:round; stroke-width:12; stroke-opacity:1; fill:none" points="
  1659.82,375.724 1181.03,322.355 768.257,211.26 365.496,84.0448 
  "/>
<path clip-path="url(#clip932)" d="M1659.82 359.724 L1647.31 365.756 L1644.22 379.292 L1652.88 390.14 L1666.77 390.14 L1675.42 379.292 L1672.33 365.756 Z" fill="#00a9ad" fill-rule="evenodd" fill-opacity="1" stroke="#000000" stroke-opacity="1" stroke-width="3.072"/>
<path clip-path="url(#clip932)" d="M1181.03 306.355 L1168.52 312.387 L1165.43 325.923 L1174.08 336.771 L1187.97 336.771 L1196.63 325.923 L1193.54 312.387 Z" fill="#00a9ad" fill-rule="evenodd" fill-opacity="1" stroke="#000000" stroke-opacity="1" stroke-width="3.072"/>
<path clip-path="url(#clip932)" d="M768.257 195.26 L755.745 201.292 L752.657 214.828 L761.313 225.676 L775.201 225.676 L783.857 214.828 L780.769 201.292 Z" fill="#00a9ad" fill-rule="evenodd" fill-opacity="1" stroke="#000000" stroke-opacity="1" stroke-width="3.072"/>
<path clip-path="url(#clip932)" d="M365.496 68.0448 L352.984 74.0768 L349.896 87.6128 L358.552 98.4608 L372.44 98.4608 L381.096 87.6128 L378.008 74.0768 Z" fill="#00a9ad" fill-rule="evenodd" fill-opacity="1" stroke="#000000" stroke-opacity="1" stroke-width="3.072"/>
<polyline clip-path="url(#clip932)" style="stroke:#ed5d92; stroke-linecap:butt; stroke-linejoin:round; stroke-width:12; stroke-opacity:1; fill:none" points="
  2065.92,622.771 1518.86,585.169 891.07,584.452 308.548,455.762 
  "/>
<path clip-path="url(#clip932)" d="M2065.92 638.771 L2052.07 630.771 L2052.07 614.771 L2065.92 606.771 L2079.78 614.771 L2079.78 630.771 Z" fill="#ed5d92" fill-rule="evenodd" fill-opacity="1" stroke="#000000" stroke-opacity="1" stroke-width="3.072"/>
<path clip-path="url(#clip932)" d="M1518.86 601.169 L1505 593.169 L1505 577.169 L1518.86 569.169 L1532.72 577.169 L1532.72 593.169 Z" fill="#ed5d92" fill-rule="evenodd" fill-opacity="1" stroke="#000000" stroke-opacity="1" stroke-width="3.072"/>
<path clip-path="url(#clip932)" d="M891.07 600.452 L877.214 592.452 L877.214 576.452 L891.07 568.452 L904.926 576.452 L904.926 592.452 Z" fill="#ed5d92" fill-rule="evenodd" fill-opacity="1" stroke="#000000" stroke-opacity="1" stroke-width="3.072"/>
<path clip-path="url(#clip932)" d="M308.548 471.762 L294.692 463.762 L294.692 447.762 L308.548 439.762 L322.404 447.762 L322.404 463.762 Z" fill="#ed5d92" fill-rule="evenodd" fill-opacity="1" stroke="#000000" stroke-opacity="1" stroke-width="3.072"/>
<path clip-path="url(#clip930)" d="
M1640.49 505.307 L2189.92 505.307 L2189.92 90.5872 L1640.49 90.5872  Z
  " fill="#ffffff" fill-rule="evenodd" fill-opacity="1"/>
<polyline clip-path="url(#clip930)" style="stroke:#000000; stroke-linecap:butt; stroke-linejoin:round; stroke-width:4; stroke-opacity:1; fill:none" points="
  1640.49,505.307 2189.92,505.307 2189.92,90.5872 1640.49,90.5872 1640.49,505.307 
  "/>
<polyline clip-path="url(#clip930)" style="stroke:#009af9; stroke-linecap:butt; stroke-linejoin:round; stroke-width:4; stroke-opacity:1; fill:none" points="
  1662.76,142.427 1796.43,142.427 
  "/>
<line clip-path="url(#clip930)" x1="1729.6" y1="142.427" x2="1729.6" y2="116.827" style="stroke:#009af9; stroke-width:4.9152; stroke-opacity:1"/>
<line clip-path="url(#clip930)" x1="1729.6" y1="142.427" x2="1704" y2="142.427" style="stroke:#009af9; stroke-width:4.9152; stroke-opacity:1"/>
<line clip-path="url(#clip930)" x1="1729.6" y1="142.427" x2="1729.6" y2="168.027" style="stroke:#009af9; stroke-width:4.9152; stroke-opacity:1"/>
<line clip-path="url(#clip930)" x1="1729.6" y1="142.427" x2="1755.2" y2="142.427" style="stroke:#009af9; stroke-width:4.9152; stroke-opacity:1"/>
<path clip-path="url(#clip930)" d="M1835.09 143.504 Q1836.6 144.013 1838.01 145.679 Q1839.45 147.346 1840.88 150.263 L1845.63 159.707 L1840.6 159.707 L1836.18 150.841 Q1834.47 147.369 1832.85 146.235 Q1831.25 145.101 1828.47 145.101 L1823.38 145.101 L1823.38 159.707 L1818.7 159.707 L1818.7 125.147 L1829.26 125.147 Q1835.19 125.147 1838.1 127.624 Q1841.02 130.101 1841.02 135.101 Q1841.02 138.365 1839.49 140.517 Q1837.99 142.67 1835.09 143.504 M1823.38 128.99 L1823.38 141.258 L1829.26 141.258 Q1832.64 141.258 1834.35 139.707 Q1836.09 138.133 1836.09 135.101 Q1836.09 132.068 1834.35 130.541 Q1832.64 128.99 1829.26 128.99 L1823.38 128.99 Z" fill="#000000" fill-rule="evenodd" fill-opacity="1" /><path clip-path="url(#clip930)" d="M1859.38 136.767 Q1855.95 136.767 1853.96 139.453 Q1851.97 142.115 1851.97 146.767 Q1851.97 151.42 1853.94 154.105 Q1855.93 156.767 1859.38 156.767 Q1862.78 156.767 1864.77 154.082 Q1866.76 151.397 1866.76 146.767 Q1866.76 142.161 1864.77 139.476 Q1862.78 136.767 1859.38 136.767 M1859.38 133.156 Q1864.93 133.156 1868.1 136.767 Q1871.27 140.379 1871.27 146.767 Q1871.27 153.133 1868.1 156.767 Q1864.93 160.378 1859.38 160.378 Q1853.8 160.378 1850.63 156.767 Q1847.48 153.133 1847.48 146.767 Q1847.48 140.379 1850.63 136.767 Q1853.8 133.156 1859.38 133.156 Z" fill="#000000" fill-rule="evenodd" fill-opacity="1" /><path clip-path="url(#clip930)" d="M1894.86 134.545 L1894.86 138.573 Q1893.06 137.647 1891.11 137.184 Q1889.17 136.721 1887.08 136.721 Q1883.91 136.721 1882.32 137.693 Q1880.74 138.666 1880.74 140.61 Q1880.74 142.092 1881.88 142.948 Q1883.01 143.781 1886.44 144.545 L1887.89 144.869 Q1892.43 145.842 1894.33 147.624 Q1896.25 149.383 1896.25 152.554 Q1896.25 156.166 1893.38 158.272 Q1890.53 160.378 1885.53 160.378 Q1883.45 160.378 1881.18 159.962 Q1878.94 159.568 1876.44 158.758 L1876.44 154.36 Q1878.8 155.587 1881.09 156.212 Q1883.38 156.814 1885.63 156.814 Q1888.63 156.814 1890.26 155.795 Q1891.88 154.754 1891.88 152.879 Q1891.88 151.142 1890.7 150.216 Q1889.54 149.291 1885.58 148.434 L1884.1 148.087 Q1880.14 147.254 1878.38 145.541 Q1876.62 143.804 1876.62 140.795 Q1876.62 137.138 1879.21 135.147 Q1881.81 133.156 1886.57 133.156 Q1888.94 133.156 1891.02 133.504 Q1893.1 133.851 1894.86 134.545 Z" fill="#000000" fill-rule="evenodd" fill-opacity="1" /><path clip-path="url(#clip930)" d="M1925.21 145.679 L1925.21 147.763 L1905.63 147.763 Q1905.9 152.161 1908.26 154.476 Q1910.65 156.767 1914.88 156.767 Q1917.34 156.767 1919.63 156.166 Q1921.94 155.564 1924.21 154.36 L1924.21 158.388 Q1921.92 159.36 1919.51 159.869 Q1917.11 160.378 1914.63 160.378 Q1908.43 160.378 1904.79 156.767 Q1901.18 153.156 1901.18 146.999 Q1901.18 140.633 1904.61 136.906 Q1908.06 133.156 1913.89 133.156 Q1919.12 133.156 1922.15 136.536 Q1925.21 139.892 1925.21 145.679 M1920.95 144.429 Q1920.9 140.934 1918.98 138.851 Q1917.08 136.767 1913.94 136.767 Q1910.37 136.767 1908.22 138.781 Q1906.09 140.795 1905.76 144.453 L1920.95 144.429 Z" fill="#000000" fill-rule="evenodd" fill-opacity="1" /><path clip-path="url(#clip930)" d="M1953.75 144.059 L1953.75 159.707 L1949.49 159.707 L1949.49 144.198 Q1949.49 140.517 1948.06 138.689 Q1946.62 136.86 1943.75 136.86 Q1940.3 136.86 1938.31 139.059 Q1936.32 141.258 1936.32 145.054 L1936.32 159.707 L1932.04 159.707 L1932.04 133.781 L1936.32 133.781 L1936.32 137.809 Q1937.85 135.471 1939.91 134.314 Q1941.99 133.156 1944.7 133.156 Q1949.17 133.156 1951.46 135.934 Q1953.75 138.689 1953.75 144.059 Z" fill="#000000" fill-rule="evenodd" fill-opacity="1" /><path clip-path="url(#clip930)" d="M1980.86 146.767 Q1980.86 142.068 1978.91 139.406 Q1976.99 136.721 1973.61 136.721 Q1970.23 136.721 1968.29 139.406 Q1966.37 142.068 1966.37 146.767 Q1966.37 151.466 1968.29 154.152 Q1970.23 156.814 1973.61 156.814 Q1976.99 156.814 1978.91 154.152 Q1980.86 151.466 1980.86 146.767 M1966.37 137.717 Q1967.71 135.402 1969.75 134.291 Q1971.81 133.156 1974.65 133.156 Q1979.38 133.156 1982.32 136.906 Q1985.28 140.656 1985.28 146.767 Q1985.28 152.879 1982.32 156.628 Q1979.38 160.378 1974.65 160.378 Q1971.81 160.378 1969.75 159.267 Q1967.71 158.133 1966.37 155.818 L1966.37 159.707 L1962.08 159.707 L1962.08 123.689 L1966.37 123.689 L1966.37 137.717 Z" fill="#000000" fill-rule="evenodd" fill-opacity="1" /><path clip-path="url(#clip930)" d="M2007.36 137.763 Q2006.64 137.346 2005.79 137.161 Q2004.95 136.953 2003.94 136.953 Q2000.32 136.953 1998.38 139.314 Q1996.46 141.652 1996.46 146.05 L1996.46 159.707 L1992.18 159.707 L1992.18 133.781 L1996.46 133.781 L1996.46 137.809 Q1997.8 135.448 1999.95 134.314 Q2002.11 133.156 2005.19 133.156 Q2005.63 133.156 2006.16 133.226 Q2006.69 133.272 2007.34 133.388 L2007.36 137.763 Z" fill="#000000" fill-rule="evenodd" fill-opacity="1" /><path clip-path="url(#clip930)" d="M2020.83 136.767 Q2017.41 136.767 2015.42 139.453 Q2013.43 142.115 2013.43 146.767 Q2013.43 151.42 2015.39 154.105 Q2017.38 156.767 2020.83 156.767 Q2024.24 156.767 2026.23 154.082 Q2028.22 151.397 2028.22 146.767 Q2028.22 142.161 2026.23 139.476 Q2024.24 136.767 2020.83 136.767 M2020.83 133.156 Q2026.39 133.156 2029.56 136.767 Q2032.73 140.379 2032.73 146.767 Q2032.73 153.133 2029.56 156.767 Q2026.39 160.378 2020.83 160.378 Q2015.25 160.378 2012.08 156.767 Q2008.94 153.133 2008.94 146.767 Q2008.94 140.379 2012.08 136.767 Q2015.25 133.156 2020.83 133.156 Z" fill="#000000" fill-rule="evenodd" fill-opacity="1" /><path clip-path="url(#clip930)" d="M2058.45 134.777 L2058.45 138.758 Q2056.64 137.763 2054.81 137.277 Q2053.01 136.767 2051.16 136.767 Q2047.01 136.767 2044.72 139.406 Q2042.43 142.022 2042.43 146.767 Q2042.43 151.513 2044.72 154.152 Q2047.01 156.767 2051.16 156.767 Q2053.01 156.767 2054.81 156.281 Q2056.64 155.772 2058.45 154.777 L2058.45 158.712 Q2056.67 159.545 2054.75 159.962 Q2052.85 160.378 2050.69 160.378 Q2044.84 160.378 2041.39 156.698 Q2037.94 153.017 2037.94 146.767 Q2037.94 140.425 2041.41 136.791 Q2044.91 133.156 2050.97 133.156 Q2052.94 133.156 2054.81 133.573 Q2056.69 133.967 2058.45 134.777 Z" fill="#000000" fill-rule="evenodd" fill-opacity="1" /><path clip-path="url(#clip930)" d="M2065.69 123.689 L2069.98 123.689 L2069.98 144.962 L2082.68 133.781 L2088.12 133.781 L2074.37 145.911 L2088.7 159.707 L2083.15 159.707 L2069.98 147.045 L2069.98 159.707 L2065.69 159.707 L2065.69 123.689 Z" fill="#000000" fill-rule="evenodd" fill-opacity="1" /><path clip-path="url(#clip930)" d="M2097.94 155.772 L2114.26 155.772 L2114.26 159.707 L2092.31 159.707 L2092.31 155.772 Q2094.98 153.017 2099.56 148.388 Q2104.17 143.735 2105.35 142.392 Q2107.59 139.869 2108.47 138.133 Q2109.37 136.374 2109.37 134.684 Q2109.37 131.93 2107.43 130.193 Q2105.51 128.457 2102.41 128.457 Q2100.21 128.457 2097.75 129.221 Q2095.32 129.985 2092.55 131.536 L2092.55 126.814 Q2095.37 125.68 2097.82 125.101 Q2100.28 124.522 2102.31 124.522 Q2107.68 124.522 2110.88 127.207 Q2114.07 129.893 2114.07 134.383 Q2114.07 136.513 2113.26 138.434 Q2112.48 140.332 2110.37 142.925 Q2109.79 143.596 2106.69 146.814 Q2103.59 150.008 2097.94 155.772 Z" fill="#000000" fill-rule="evenodd" fill-opacity="1" /><path clip-path="url(#clip930)" d="M2138.24 141.073 Q2141.6 141.791 2143.47 144.059 Q2145.37 146.328 2145.37 149.661 Q2145.37 154.777 2141.85 157.578 Q2138.33 160.378 2131.85 160.378 Q2129.68 160.378 2127.36 159.939 Q2125.07 159.522 2122.62 158.666 L2122.62 154.152 Q2124.56 155.286 2126.87 155.865 Q2129.19 156.443 2131.71 156.443 Q2136.11 156.443 2138.4 154.707 Q2140.72 152.971 2140.72 149.661 Q2140.72 146.605 2138.56 144.892 Q2136.43 143.156 2132.62 143.156 L2128.59 143.156 L2128.59 139.314 L2132.8 139.314 Q2136.25 139.314 2138.08 137.948 Q2139.91 136.559 2139.91 133.967 Q2139.91 131.305 2138.01 129.893 Q2136.13 128.457 2132.62 128.457 Q2130.69 128.457 2128.49 128.874 Q2126.3 129.291 2123.66 130.17 L2123.66 126.004 Q2126.32 125.263 2128.63 124.893 Q2130.97 124.522 2133.03 124.522 Q2138.36 124.522 2141.46 126.953 Q2144.56 129.36 2144.56 133.48 Q2144.56 136.351 2142.92 138.342 Q2141.27 140.309 2138.24 141.073 Z" fill="#000000" fill-rule="evenodd" fill-opacity="1" /><polyline clip-path="url(#clip930)" style="stroke:#e26f46; stroke-linecap:butt; stroke-linejoin:round; stroke-width:4; stroke-opacity:1; fill:none" points="
  1662.76,194.267 1796.43,194.267 
  "/>
<circle clip-path="url(#clip930)" cx="1729.6" cy="194.267" r="23" fill="#e26f46" fill-rule="evenodd" fill-opacity="1" stroke="#000000" stroke-opacity="1" stroke-width="4.9152"/>
<path clip-path="url(#clip930)" d="M1818.7 176.987 L1823.38 176.987 L1823.38 191.594 L1838.89 176.987 L1844.91 176.987 L1827.76 193.098 L1846.14 211.547 L1839.98 211.547 L1823.38 194.904 L1823.38 211.547 L1818.7 211.547 L1818.7 176.987 Z" fill="#000000" fill-rule="evenodd" fill-opacity="1" /><path clip-path="url(#clip930)" d="M1869.42 197.519 L1869.42 199.603 L1849.84 199.603 Q1850.12 204.001 1852.48 206.316 Q1854.86 208.607 1859.1 208.607 Q1861.55 208.607 1863.84 208.006 Q1866.16 207.404 1868.43 206.2 L1868.43 210.228 Q1866.14 211.2 1863.73 211.709 Q1861.32 212.218 1858.84 212.218 Q1852.64 212.218 1849.01 208.607 Q1845.39 204.996 1845.39 198.839 Q1845.39 192.473 1848.82 188.746 Q1852.27 184.996 1858.1 184.996 Q1863.33 184.996 1866.37 188.376 Q1869.42 191.732 1869.42 197.519 M1865.16 196.269 Q1865.12 192.774 1863.2 190.691 Q1861.3 188.607 1858.15 188.607 Q1854.58 188.607 1852.43 190.621 Q1850.3 192.635 1849.98 196.293 L1865.16 196.269 Z" fill="#000000" fill-rule="evenodd" fill-opacity="1" /><path clip-path="url(#clip930)" d="M1897.96 195.899 L1897.96 211.547 L1893.7 211.547 L1893.7 196.038 Q1893.7 192.357 1892.27 190.529 Q1890.83 188.7 1887.96 188.7 Q1884.51 188.7 1882.52 190.899 Q1880.53 193.098 1880.53 196.894 L1880.53 211.547 L1876.25 211.547 L1876.25 185.621 L1880.53 185.621 L1880.53 189.649 Q1882.06 187.311 1884.12 186.154 Q1886.2 184.996 1888.91 184.996 Q1893.38 184.996 1895.67 187.774 Q1897.96 190.529 1897.96 195.899 Z" fill="#000000" fill-rule="evenodd" fill-opacity="1" /><path clip-path="url(#clip930)" d="M1932.52 179.649 L1932.52 184.58 Q1930.16 182.381 1927.48 181.293 Q1924.82 180.205 1921.81 180.205 Q1915.88 180.205 1912.73 183.839 Q1909.58 187.45 1909.58 194.302 Q1909.58 201.131 1912.73 204.765 Q1915.88 208.376 1921.81 208.376 Q1924.82 208.376 1927.48 207.288 Q1930.16 206.2 1932.52 204.001 L1932.52 208.885 Q1930.07 210.552 1927.32 211.385 Q1924.58 212.218 1921.53 212.218 Q1913.68 212.218 1909.17 207.427 Q1904.65 202.612 1904.65 194.302 Q1904.65 185.969 1909.17 181.177 Q1913.68 176.362 1921.53 176.362 Q1924.63 176.362 1927.36 177.196 Q1930.12 178.006 1932.52 179.649 Z" fill="#000000" fill-rule="evenodd" fill-opacity="1" /><path clip-path="url(#clip930)" d="M1951.34 198.515 Q1946.18 198.515 1944.19 199.695 Q1942.2 200.876 1942.2 203.723 Q1942.2 205.992 1943.68 207.334 Q1945.19 208.654 1947.76 208.654 Q1951.3 208.654 1953.43 206.154 Q1955.58 203.631 1955.58 199.464 L1955.58 198.515 L1951.34 198.515 M1959.84 196.756 L1959.84 211.547 L1955.58 211.547 L1955.58 207.612 Q1954.12 209.973 1951.94 211.107 Q1949.77 212.218 1946.62 212.218 Q1942.64 212.218 1940.28 209.996 Q1937.94 207.751 1937.94 204.001 Q1937.94 199.626 1940.86 197.404 Q1943.8 195.182 1949.61 195.182 L1955.58 195.182 L1955.58 194.765 Q1955.58 191.825 1953.63 190.228 Q1951.71 188.607 1948.22 188.607 Q1946 188.607 1943.89 189.14 Q1941.78 189.672 1939.84 190.737 L1939.84 186.802 Q1942.18 185.899 1944.38 185.459 Q1946.57 184.996 1948.66 184.996 Q1954.28 184.996 1957.06 187.913 Q1959.84 190.83 1959.84 196.756 Z" fill="#000000" fill-rule="evenodd" fill-opacity="1" /><path clip-path="url(#clip930)" d="M1983.63 189.603 Q1982.92 189.186 1982.06 189.001 Q1981.23 188.793 1980.21 188.793 Q1976.6 188.793 1974.65 191.154 Q1972.73 193.492 1972.73 197.89 L1972.73 211.547 L1968.45 211.547 L1968.45 185.621 L1972.73 185.621 L1972.73 189.649 Q1974.07 187.288 1976.23 186.154 Q1978.38 184.996 1981.46 184.996 Q1981.9 184.996 1982.43 185.066 Q1982.96 185.112 1983.61 185.228 L1983.63 189.603 Z" fill="#000000" fill-rule="evenodd" fill-opacity="1" /><path clip-path="url(#clip930)" d="M1992.22 207.658 L1992.22 221.408 L1987.94 221.408 L1987.94 185.621 L1992.22 185.621 L1992.22 189.557 Q1993.56 187.242 1995.6 186.131 Q1997.66 184.996 2000.51 184.996 Q2005.23 184.996 2008.17 188.746 Q2011.13 192.496 2011.13 198.607 Q2011.13 204.719 2008.17 208.468 Q2005.23 212.218 2000.51 212.218 Q1997.66 212.218 1995.6 211.107 Q1993.56 209.973 1992.22 207.658 M2006.71 198.607 Q2006.71 193.908 2004.77 191.246 Q2002.85 188.561 1999.47 188.561 Q1996.09 188.561 1994.14 191.246 Q1992.22 193.908 1992.22 198.607 Q1992.22 203.306 1994.14 205.992 Q1996.09 208.654 1999.47 208.654 Q2002.85 208.654 2004.77 205.992 Q2006.71 203.306 2006.71 198.607 Z" fill="#000000" fill-rule="evenodd" fill-opacity="1" /><path clip-path="url(#clip930)" d="M2018.84 176.987 L2037.2 176.987 L2037.2 180.922 L2023.12 180.922 L2023.12 189.395 Q2024.14 189.047 2025.16 188.885 Q2026.18 188.7 2027.2 188.7 Q2032.99 188.7 2036.37 191.871 Q2039.75 195.043 2039.75 200.459 Q2039.75 206.038 2036.27 209.14 Q2032.8 212.218 2026.48 212.218 Q2024.31 212.218 2022.04 211.848 Q2019.79 211.478 2017.38 210.737 L2017.38 206.038 Q2019.47 207.172 2021.69 207.728 Q2023.91 208.283 2026.39 208.283 Q2030.39 208.283 2032.73 206.177 Q2035.07 204.07 2035.07 200.459 Q2035.07 196.848 2032.73 194.742 Q2030.39 192.635 2026.39 192.635 Q2024.51 192.635 2022.64 193.052 Q2020.79 193.469 2018.84 194.348 L2018.84 176.987 Z" fill="#000000" fill-rule="evenodd" fill-opacity="1" /><polyline clip-path="url(#clip930)" style="stroke:#3da44d; stroke-linecap:butt; stroke-linejoin:round; stroke-width:4; stroke-opacity:1; fill:none" points="
  1662.76,246.107 1796.43,246.107 
  "/>
<line clip-path="url(#clip930)" x1="1729.6" y1="246.107" x2="1729.6" y2="220.507" style="stroke:#3da44d; stroke-width:4.9152; stroke-opacity:1"/>
<line clip-path="url(#clip930)" x1="1729.6" y1="246.107" x2="1704" y2="246.107" style="stroke:#3da44d; stroke-width:4.9152; stroke-opacity:1"/>
<line clip-path="url(#clip930)" x1="1729.6" y1="246.107" x2="1729.6" y2="271.707" style="stroke:#3da44d; stroke-width:4.9152; stroke-opacity:1"/>
<line clip-path="url(#clip930)" x1="1729.6" y1="246.107" x2="1755.2" y2="246.107" style="stroke:#3da44d; stroke-width:4.9152; stroke-opacity:1"/>
<path clip-path="url(#clip930)" d="M1818.7 228.827 L1823.38 228.827 L1823.38 243.434 L1838.89 228.827 L1844.91 228.827 L1827.76 244.938 L1846.14 263.387 L1839.98 263.387 L1823.38 246.744 L1823.38 263.387 L1818.7 263.387 L1818.7 228.827 Z" fill="#000000" fill-rule="evenodd" fill-opacity="1" /><path clip-path="url(#clip930)" d="M1869.42 249.359 L1869.42 251.443 L1849.84 251.443 Q1850.12 255.841 1852.48 258.156 Q1854.86 260.447 1859.1 260.447 Q1861.55 260.447 1863.84 259.846 Q1866.16 259.244 1868.43 258.04 L1868.43 262.068 Q1866.14 263.04 1863.73 263.549 Q1861.32 264.058 1858.84 264.058 Q1852.64 264.058 1849.01 260.447 Q1845.39 256.836 1845.39 250.679 Q1845.39 244.313 1848.82 240.586 Q1852.27 236.836 1858.1 236.836 Q1863.33 236.836 1866.37 240.216 Q1869.42 243.572 1869.42 249.359 M1865.16 248.109 Q1865.12 244.614 1863.2 242.531 Q1861.3 240.447 1858.15 240.447 Q1854.58 240.447 1852.43 242.461 Q1850.3 244.475 1849.98 248.133 L1865.16 248.109 Z" fill="#000000" fill-rule="evenodd" fill-opacity="1" /><path clip-path="url(#clip930)" d="M1897.96 247.739 L1897.96 263.387 L1893.7 263.387 L1893.7 247.878 Q1893.7 244.197 1892.27 242.369 Q1890.83 240.54 1887.96 240.54 Q1884.51 240.54 1882.52 242.739 Q1880.53 244.938 1880.53 248.734 L1880.53 263.387 L1876.25 263.387 L1876.25 237.461 L1880.53 237.461 L1880.53 241.489 Q1882.06 239.151 1884.12 237.994 Q1886.2 236.836 1888.91 236.836 Q1893.38 236.836 1895.67 239.614 Q1897.96 242.369 1897.96 247.739 Z" fill="#000000" fill-rule="evenodd" fill-opacity="1" /><path clip-path="url(#clip930)" d="M1932.52 231.489 L1932.52 236.42 Q1930.16 234.221 1927.48 233.133 Q1924.82 232.045 1921.81 232.045 Q1915.88 232.045 1912.73 235.679 Q1909.58 239.29 1909.58 246.142 Q1909.58 252.971 1912.73 256.605 Q1915.88 260.216 1921.81 260.216 Q1924.82 260.216 1927.48 259.128 Q1930.16 258.04 1932.52 255.841 L1932.52 260.725 Q1930.07 262.392 1927.32 263.225 Q1924.58 264.058 1921.53 264.058 Q1913.68 264.058 1909.17 259.267 Q1904.65 254.452 1904.65 246.142 Q1904.65 237.809 1909.17 233.017 Q1913.68 228.202 1921.53 228.202 Q1924.63 228.202 1927.36 229.036 Q1930.12 229.846 1932.52 231.489 Z" fill="#000000" fill-rule="evenodd" fill-opacity="1" /><path clip-path="url(#clip930)" d="M1951.34 250.355 Q1946.18 250.355 1944.19 251.535 Q1942.2 252.716 1942.2 255.563 Q1942.2 257.832 1943.68 259.174 Q1945.19 260.494 1947.76 260.494 Q1951.3 260.494 1953.43 257.994 Q1955.58 255.471 1955.58 251.304 L1955.58 250.355 L1951.34 250.355 M1959.84 248.596 L1959.84 263.387 L1955.58 263.387 L1955.58 259.452 Q1954.12 261.813 1951.94 262.947 Q1949.77 264.058 1946.62 264.058 Q1942.64 264.058 1940.28 261.836 Q1937.94 259.591 1937.94 255.841 Q1937.94 251.466 1940.86 249.244 Q1943.8 247.022 1949.61 247.022 L1955.58 247.022 L1955.58 246.605 Q1955.58 243.665 1953.63 242.068 Q1951.71 240.447 1948.22 240.447 Q1946 240.447 1943.89 240.98 Q1941.78 241.512 1939.84 242.577 L1939.84 238.642 Q1942.18 237.739 1944.38 237.299 Q1946.57 236.836 1948.66 236.836 Q1954.28 236.836 1957.06 239.753 Q1959.84 242.67 1959.84 248.596 Z" fill="#000000" fill-rule="evenodd" fill-opacity="1" /><path clip-path="url(#clip930)" d="M1983.63 241.443 Q1982.92 241.026 1982.06 240.841 Q1981.23 240.633 1980.21 240.633 Q1976.6 240.633 1974.65 242.994 Q1972.73 245.332 1972.73 249.73 L1972.73 263.387 L1968.45 263.387 L1968.45 237.461 L1972.73 237.461 L1972.73 241.489 Q1974.07 239.128 1976.23 237.994 Q1978.38 236.836 1981.46 236.836 Q1981.9 236.836 1982.43 236.906 Q1982.96 236.952 1983.61 237.068 L1983.63 241.443 Z" fill="#000000" fill-rule="evenodd" fill-opacity="1" /><path clip-path="url(#clip930)" d="M1992.22 259.498 L1992.22 273.248 L1987.94 273.248 L1987.94 237.461 L1992.22 237.461 L1992.22 241.397 Q1993.56 239.082 1995.6 237.971 Q1997.66 236.836 2000.51 236.836 Q2005.23 236.836 2008.17 240.586 Q2011.13 244.336 2011.13 250.447 Q2011.13 256.559 2008.17 260.308 Q2005.23 264.058 2000.51 264.058 Q1997.66 264.058 1995.6 262.947 Q1993.56 261.813 1992.22 259.498 M2006.71 250.447 Q2006.71 245.748 2004.77 243.086 Q2002.85 240.401 1999.47 240.401 Q1996.09 240.401 1994.14 243.086 Q1992.22 245.748 1992.22 250.447 Q1992.22 255.146 1994.14 257.832 Q1996.09 260.494 1999.47 260.494 Q2002.85 260.494 2004.77 257.832 Q2006.71 255.146 2006.71 250.447 Z" fill="#000000" fill-rule="evenodd" fill-opacity="1" /><path clip-path="url(#clip930)" d="M2031.64 232.901 L2019.84 251.35 L2031.64 251.35 L2031.64 232.901 M2030.42 228.827 L2036.3 228.827 L2036.3 251.35 L2041.23 251.35 L2041.23 255.239 L2036.3 255.239 L2036.3 263.387 L2031.64 263.387 L2031.64 255.239 L2016.04 255.239 L2016.04 250.725 L2030.42 228.827 Z" fill="#000000" fill-rule="evenodd" fill-opacity="1" /><polyline clip-path="url(#clip930)" style="stroke:#c271d2; stroke-linecap:butt; stroke-linejoin:round; stroke-width:4; stroke-opacity:1; fill:none" points="
  1662.76,297.947 1796.43,297.947 
  "/>
<path clip-path="url(#clip930)" d="M1729.6 272.347 L1704 297.947 L1729.6 323.547 L1755.2 297.947 L1729.6 272.347 Z" fill="#c271d2" fill-rule="evenodd" fill-opacity="1" stroke="#000000" stroke-opacity="1" stroke-width="4.9152"/>
<path clip-path="url(#clip930)" d="M1818.7 280.667 L1823.38 280.667 L1823.38 295.274 L1838.89 280.667 L1844.91 280.667 L1827.76 296.778 L1846.14 315.227 L1839.98 315.227 L1823.38 298.584 L1823.38 315.227 L1818.7 315.227 L1818.7 280.667 Z" fill="#000000" fill-rule="evenodd" fill-opacity="1" /><path clip-path="url(#clip930)" d="M1869.42 301.199 L1869.42 303.283 L1849.84 303.283 Q1850.12 307.681 1852.48 309.996 Q1854.86 312.287 1859.1 312.287 Q1861.55 312.287 1863.84 311.686 Q1866.16 311.084 1868.43 309.88 L1868.43 313.908 Q1866.14 314.88 1863.73 315.389 Q1861.32 315.898 1858.84 315.898 Q1852.64 315.898 1849.01 312.287 Q1845.39 308.676 1845.39 302.519 Q1845.39 296.153 1848.82 292.426 Q1852.27 288.676 1858.1 288.676 Q1863.33 288.676 1866.37 292.056 Q1869.42 295.412 1869.42 301.199 M1865.16 299.949 Q1865.12 296.454 1863.2 294.371 Q1861.3 292.287 1858.15 292.287 Q1854.58 292.287 1852.43 294.301 Q1850.3 296.315 1849.98 299.973 L1865.16 299.949 Z" fill="#000000" fill-rule="evenodd" fill-opacity="1" /><path clip-path="url(#clip930)" d="M1897.96 299.579 L1897.96 315.227 L1893.7 315.227 L1893.7 299.718 Q1893.7 296.037 1892.27 294.209 Q1890.83 292.38 1887.96 292.38 Q1884.51 292.38 1882.52 294.579 Q1880.53 296.778 1880.53 300.574 L1880.53 315.227 L1876.25 315.227 L1876.25 289.301 L1880.53 289.301 L1880.53 293.329 Q1882.06 290.991 1884.12 289.834 Q1886.2 288.676 1888.91 288.676 Q1893.38 288.676 1895.67 291.454 Q1897.96 294.209 1897.96 299.579 Z" fill="#000000" fill-rule="evenodd" fill-opacity="1" /><path clip-path="url(#clip930)" d="M1932.52 283.329 L1932.52 288.26 Q1930.16 286.061 1927.48 284.973 Q1924.82 283.885 1921.81 283.885 Q1915.88 283.885 1912.73 287.519 Q1909.58 291.13 1909.58 297.982 Q1909.58 304.811 1912.73 308.445 Q1915.88 312.056 1921.81 312.056 Q1924.82 312.056 1927.48 310.968 Q1930.16 309.88 1932.52 307.681 L1932.52 312.565 Q1930.07 314.232 1927.32 315.065 Q1924.58 315.898 1921.53 315.898 Q1913.68 315.898 1909.17 311.107 Q1904.65 306.292 1904.65 297.982 Q1904.65 289.649 1909.17 284.857 Q1913.68 280.042 1921.53 280.042 Q1924.63 280.042 1927.36 280.876 Q1930.12 281.686 1932.52 283.329 Z" fill="#000000" fill-rule="evenodd" fill-opacity="1" /><path clip-path="url(#clip930)" d="M1951.34 302.195 Q1946.18 302.195 1944.19 303.375 Q1942.2 304.556 1942.2 307.403 Q1942.2 309.672 1943.68 311.014 Q1945.19 312.334 1947.76 312.334 Q1951.3 312.334 1953.43 309.834 Q1955.58 307.311 1955.58 303.144 L1955.58 302.195 L1951.34 302.195 M1959.84 300.436 L1959.84 315.227 L1955.58 315.227 L1955.58 311.292 Q1954.12 313.653 1951.94 314.787 Q1949.77 315.898 1946.62 315.898 Q1942.64 315.898 1940.28 313.676 Q1937.94 311.431 1937.94 307.681 Q1937.94 303.306 1940.86 301.084 Q1943.8 298.862 1949.61 298.862 L1955.58 298.862 L1955.58 298.445 Q1955.58 295.505 1953.63 293.908 Q1951.71 292.287 1948.22 292.287 Q1946 292.287 1943.89 292.82 Q1941.78 293.352 1939.84 294.417 L1939.84 290.482 Q1942.18 289.579 1944.38 289.139 Q1946.57 288.676 1948.66 288.676 Q1954.28 288.676 1957.06 291.593 Q1959.84 294.51 1959.84 300.436 Z" fill="#000000" fill-rule="evenodd" fill-opacity="1" /><path clip-path="url(#clip930)" d="M1983.63 293.283 Q1982.92 292.866 1982.06 292.681 Q1981.23 292.473 1980.21 292.473 Q1976.6 292.473 1974.65 294.834 Q1972.73 297.172 1972.73 301.57 L1972.73 315.227 L1968.45 315.227 L1968.45 289.301 L1972.73 289.301 L1972.73 293.329 Q1974.07 290.968 1976.23 289.834 Q1978.38 288.676 1981.46 288.676 Q1981.9 288.676 1982.43 288.746 Q1982.96 288.792 1983.61 288.908 L1983.63 293.283 Z" fill="#000000" fill-rule="evenodd" fill-opacity="1" /><path clip-path="url(#clip930)" d="M1992.22 311.338 L1992.22 325.088 L1987.94 325.088 L1987.94 289.301 L1992.22 289.301 L1992.22 293.237 Q1993.56 290.922 1995.6 289.811 Q1997.66 288.676 2000.51 288.676 Q2005.23 288.676 2008.17 292.426 Q2011.13 296.176 2011.13 302.287 Q2011.13 308.399 2008.17 312.148 Q2005.23 315.898 2000.51 315.898 Q1997.66 315.898 1995.6 314.787 Q1993.56 313.653 1992.22 311.338 M2006.71 302.287 Q2006.71 297.588 2004.77 294.926 Q2002.85 292.241 1999.47 292.241 Q1996.09 292.241 1994.14 294.926 Q1992.22 297.588 1992.22 302.287 Q1992.22 306.986 1994.14 309.672 Q1996.09 312.334 1999.47 312.334 Q2002.85 312.334 2004.77 309.672 Q2006.71 306.986 2006.71 302.287 Z" fill="#000000" fill-rule="evenodd" fill-opacity="1" /><path clip-path="url(#clip930)" d="M2032.96 296.593 Q2036.32 297.311 2038.19 299.579 Q2040.09 301.848 2040.09 305.181 Q2040.09 310.297 2036.57 313.098 Q2033.06 315.898 2026.57 315.898 Q2024.4 315.898 2022.08 315.459 Q2019.79 315.042 2017.34 314.186 L2017.34 309.672 Q2019.28 310.806 2021.6 311.385 Q2023.91 311.963 2026.44 311.963 Q2030.83 311.963 2033.12 310.227 Q2035.44 308.491 2035.44 305.181 Q2035.44 302.125 2033.29 300.412 Q2031.16 298.676 2027.34 298.676 L2023.31 298.676 L2023.31 294.834 L2027.52 294.834 Q2030.97 294.834 2032.8 293.468 Q2034.63 292.079 2034.63 289.487 Q2034.63 286.825 2032.73 285.413 Q2030.86 283.977 2027.34 283.977 Q2025.42 283.977 2023.22 284.394 Q2021.02 284.811 2018.38 285.69 L2018.38 281.524 Q2021.04 280.783 2023.36 280.413 Q2025.69 280.042 2027.75 280.042 Q2033.08 280.042 2036.18 282.473 Q2039.28 284.88 2039.28 289 Q2039.28 291.871 2037.64 293.862 Q2036 295.829 2032.96 296.593 Z" fill="#000000" fill-rule="evenodd" fill-opacity="1" /><polyline clip-path="url(#clip930)" style="stroke:#ac8d18; stroke-linecap:butt; stroke-linejoin:round; stroke-width:4; stroke-opacity:1; fill:none" points="
  1662.76,349.787 1796.43,349.787 
  "/>
<path clip-path="url(#clip930)" d="M1755.2 324.187 L1704 324.187 L1729.6 375.387 L1755.2 324.187 Z" fill="#ac8d18" fill-rule="evenodd" fill-opacity="1" stroke="#000000" stroke-opacity="1" stroke-width="4.9152"/>
<path clip-path="url(#clip930)" d="M1834.54 337.114 L1828.2 354.313 L1840.9 354.313 L1834.54 337.114 M1831.9 332.507 L1837.2 332.507 L1850.37 367.067 L1845.51 367.067 L1842.36 358.201 L1826.78 358.201 L1823.64 367.067 L1818.7 367.067 L1831.9 332.507 Z" fill="#000000" fill-rule="evenodd" fill-opacity="1" /><path clip-path="url(#clip930)" d="M1871.81 350.864 Q1873.31 351.373 1874.72 353.039 Q1876.16 354.706 1877.59 357.623 L1882.34 367.067 L1877.32 367.067 L1872.89 358.201 Q1871.18 354.729 1869.56 353.595 Q1867.96 352.461 1865.19 352.461 L1860.09 352.461 L1860.09 367.067 L1855.42 367.067 L1855.42 332.507 L1865.97 332.507 Q1871.9 332.507 1874.82 334.984 Q1877.73 337.461 1877.73 342.461 Q1877.73 345.725 1876.2 347.877 Q1874.7 350.03 1871.81 350.864 M1860.09 336.35 L1860.09 348.618 L1865.97 348.618 Q1869.35 348.618 1871.07 347.067 Q1872.8 345.493 1872.8 342.461 Q1872.8 339.428 1871.07 337.901 Q1869.35 336.35 1865.97 336.35 L1860.09 336.35 Z" fill="#000000" fill-rule="evenodd" fill-opacity="1" /><path clip-path="url(#clip930)" d="M1888.36 332.507 L1893.03 332.507 L1893.03 347.114 L1908.54 332.507 L1914.56 332.507 L1897.41 348.618 L1915.79 367.067 L1909.63 367.067 L1893.03 350.424 L1893.03 367.067 L1888.36 367.067 L1888.36 332.507 Z" fill="#000000" fill-rule="evenodd" fill-opacity="1" /><path clip-path="url(#clip930)" d="M1930.88 335.678 Q1925.79 335.678 1922.78 339.475 Q1919.79 343.271 1919.79 349.822 Q1919.79 356.35 1922.78 360.146 Q1925.79 363.942 1930.88 363.942 Q1935.97 363.942 1938.94 360.146 Q1941.92 356.35 1941.92 349.822 Q1941.92 343.271 1938.94 339.475 Q1935.97 335.678 1930.88 335.678 M1930.88 331.882 Q1938.15 331.882 1942.5 336.766 Q1946.85 341.628 1946.85 349.822 Q1946.85 357.993 1942.5 362.877 Q1938.15 367.738 1930.88 367.738 Q1923.59 367.738 1919.21 362.877 Q1914.86 358.016 1914.86 349.822 Q1914.86 341.628 1919.21 336.766 Q1923.59 331.882 1930.88 331.882 Z" fill="#000000" fill-rule="evenodd" fill-opacity="1" /><path clip-path="url(#clip930)" d="M1958.84 336.35 L1958.84 363.225 L1964.49 363.225 Q1971.64 363.225 1974.95 359.984 Q1978.29 356.743 1978.29 349.752 Q1978.29 342.808 1974.95 339.59 Q1971.64 336.35 1964.49 336.35 L1958.84 336.35 M1954.17 332.507 L1963.77 332.507 Q1973.82 332.507 1978.52 336.697 Q1983.22 340.864 1983.22 349.752 Q1983.22 358.688 1978.5 362.877 Q1973.77 367.067 1963.77 367.067 L1954.17 367.067 L1954.17 332.507 Z" fill="#000000" fill-rule="evenodd" fill-opacity="1" /><path clip-path="url(#clip930)" d="M1990.67 332.507 L2012.52 332.507 L2012.52 336.442 L1995.35 336.442 L1995.35 346.674 L2011.81 346.674 L2011.81 350.609 L1995.35 350.609 L1995.35 363.132 L2012.94 363.132 L2012.94 367.067 L1990.67 367.067 L1990.67 332.507 Z" fill="#000000" fill-rule="evenodd" fill-opacity="1" /><path clip-path="url(#clip930)" d="M2021.09 332.507 L2039.44 332.507 L2039.44 336.442 L2025.37 336.442 L2025.37 344.915 Q2026.39 344.567 2027.41 344.405 Q2028.43 344.22 2029.44 344.22 Q2035.23 344.22 2038.61 347.391 Q2041.99 350.563 2041.99 355.979 Q2041.99 361.558 2038.52 364.66 Q2035.05 367.738 2028.73 367.738 Q2026.55 367.738 2024.28 367.368 Q2022.04 366.998 2019.63 366.257 L2019.63 361.558 Q2021.71 362.692 2023.94 363.248 Q2026.16 363.803 2028.63 363.803 Q2032.64 363.803 2034.98 361.697 Q2037.31 359.59 2037.31 355.979 Q2037.31 352.368 2034.98 350.262 Q2032.64 348.155 2028.63 348.155 Q2026.76 348.155 2024.88 348.572 Q2023.03 348.989 2021.09 349.868 L2021.09 332.507 Z" fill="#000000" fill-rule="evenodd" fill-opacity="1" /><polyline clip-path="url(#clip930)" style="stroke:#00a9ad; stroke-linecap:butt; stroke-linejoin:round; stroke-width:4; stroke-opacity:1; fill:none" points="
  1662.76,401.627 1796.43,401.627 
  "/>
<path clip-path="url(#clip930)" d="M1729.6 376.027 L1709.58 385.678 L1704.64 407.336 L1718.49 424.693 L1740.71 424.693 L1754.56 407.336 L1749.61 385.678 Z" fill="#00a9ad" fill-rule="evenodd" fill-opacity="1" stroke="#000000" stroke-opacity="1" stroke-width="4.9152"/>
<path clip-path="url(#clip930)" d="M1834.54 388.954 L1828.2 406.153 L1840.9 406.153 L1834.54 388.954 M1831.9 384.347 L1837.2 384.347 L1850.37 418.907 L1845.51 418.907 L1842.36 410.041 L1826.78 410.041 L1823.64 418.907 L1818.7 418.907 L1831.9 384.347 Z" fill="#000000" fill-rule="evenodd" fill-opacity="1" /><path clip-path="url(#clip930)" d="M1871.81 402.704 Q1873.31 403.213 1874.72 404.879 Q1876.16 406.546 1877.59 409.463 L1882.34 418.907 L1877.32 418.907 L1872.89 410.041 Q1871.18 406.569 1869.56 405.435 Q1867.96 404.301 1865.19 404.301 L1860.09 404.301 L1860.09 418.907 L1855.42 418.907 L1855.42 384.347 L1865.97 384.347 Q1871.9 384.347 1874.82 386.824 Q1877.73 389.301 1877.73 394.301 Q1877.73 397.565 1876.2 399.717 Q1874.7 401.87 1871.81 402.704 M1860.09 388.19 L1860.09 400.458 L1865.97 400.458 Q1869.35 400.458 1871.07 398.907 Q1872.8 397.333 1872.8 394.301 Q1872.8 391.268 1871.07 389.741 Q1869.35 388.19 1865.97 388.19 L1860.09 388.19 Z" fill="#000000" fill-rule="evenodd" fill-opacity="1" /><path clip-path="url(#clip930)" d="M1888.36 384.347 L1893.03 384.347 L1893.03 398.954 L1908.54 384.347 L1914.56 384.347 L1897.41 400.458 L1915.79 418.907 L1909.63 418.907 L1893.03 402.264 L1893.03 418.907 L1888.36 418.907 L1888.36 384.347 Z" fill="#000000" fill-rule="evenodd" fill-opacity="1" /><path clip-path="url(#clip930)" d="M1930.88 387.518 Q1925.79 387.518 1922.78 391.315 Q1919.79 395.111 1919.79 401.662 Q1919.79 408.19 1922.78 411.986 Q1925.79 415.782 1930.88 415.782 Q1935.97 415.782 1938.94 411.986 Q1941.92 408.19 1941.92 401.662 Q1941.92 395.111 1938.94 391.315 Q1935.97 387.518 1930.88 387.518 M1930.88 383.722 Q1938.15 383.722 1942.5 388.606 Q1946.85 393.468 1946.85 401.662 Q1946.85 409.833 1942.5 414.717 Q1938.15 419.578 1930.88 419.578 Q1923.59 419.578 1919.21 414.717 Q1914.86 409.856 1914.86 401.662 Q1914.86 393.468 1919.21 388.606 Q1923.59 383.722 1930.88 383.722 Z" fill="#000000" fill-rule="evenodd" fill-opacity="1" /><path clip-path="url(#clip930)" d="M1958.84 388.19 L1958.84 415.065 L1964.49 415.065 Q1971.64 415.065 1974.95 411.824 Q1978.29 408.583 1978.29 401.592 Q1978.29 394.648 1974.95 391.43 Q1971.64 388.19 1964.49 388.19 L1958.84 388.19 M1954.17 384.347 L1963.77 384.347 Q1973.82 384.347 1978.52 388.537 Q1983.22 392.704 1983.22 401.592 Q1983.22 410.528 1978.5 414.717 Q1973.77 418.907 1963.77 418.907 L1954.17 418.907 L1954.17 384.347 Z" fill="#000000" fill-rule="evenodd" fill-opacity="1" /><path clip-path="url(#clip930)" d="M1990.67 384.347 L2012.52 384.347 L2012.52 388.282 L1995.35 388.282 L1995.35 398.514 L2011.81 398.514 L2011.81 402.449 L1995.35 402.449 L1995.35 414.972 L2012.94 414.972 L2012.94 418.907 L1990.67 418.907 L1990.67 384.347 Z" fill="#000000" fill-rule="evenodd" fill-opacity="1" /><path clip-path="url(#clip930)" d="M2033.89 388.421 L2022.08 406.87 L2033.89 406.87 L2033.89 388.421 M2032.66 384.347 L2038.54 384.347 L2038.54 406.87 L2043.47 406.87 L2043.47 410.759 L2038.54 410.759 L2038.54 418.907 L2033.89 418.907 L2033.89 410.759 L2018.29 410.759 L2018.29 406.245 L2032.66 384.347 Z" fill="#000000" fill-rule="evenodd" fill-opacity="1" /><polyline clip-path="url(#clip930)" style="stroke:#ed5d92; stroke-linecap:butt; stroke-linejoin:round; stroke-width:4; stroke-opacity:1; fill:none" points="
  1662.76,453.467 1796.43,453.467 
  "/>
<path clip-path="url(#clip930)" d="M1729.6 479.067 L1707.43 466.267 L1707.43 440.667 L1729.6 427.867 L1751.77 440.667 L1751.77 466.267 Z" fill="#ed5d92" fill-rule="evenodd" fill-opacity="1" stroke="#000000" stroke-opacity="1" stroke-width="4.9152"/>
<path clip-path="url(#clip930)" d="M1834.54 440.794 L1828.2 457.993 L1840.9 457.993 L1834.54 440.794 M1831.9 436.187 L1837.2 436.187 L1850.37 470.747 L1845.51 470.747 L1842.36 461.881 L1826.78 461.881 L1823.64 470.747 L1818.7 470.747 L1831.9 436.187 Z" fill="#000000" fill-rule="evenodd" fill-opacity="1" /><path clip-path="url(#clip930)" d="M1871.81 454.544 Q1873.31 455.053 1874.72 456.719 Q1876.16 458.386 1877.59 461.303 L1882.34 470.747 L1877.32 470.747 L1872.89 461.881 Q1871.18 458.409 1869.56 457.275 Q1867.96 456.141 1865.19 456.141 L1860.09 456.141 L1860.09 470.747 L1855.42 470.747 L1855.42 436.187 L1865.97 436.187 Q1871.9 436.187 1874.82 438.664 Q1877.73 441.141 1877.73 446.141 Q1877.73 449.405 1876.2 451.557 Q1874.7 453.71 1871.81 454.544 M1860.09 440.03 L1860.09 452.298 L1865.97 452.298 Q1869.35 452.298 1871.07 450.747 Q1872.8 449.173 1872.8 446.141 Q1872.8 443.108 1871.07 441.581 Q1869.35 440.03 1865.97 440.03 L1860.09 440.03 Z" fill="#000000" fill-rule="evenodd" fill-opacity="1" /><path clip-path="url(#clip930)" d="M1888.36 436.187 L1893.03 436.187 L1893.03 450.794 L1908.54 436.187 L1914.56 436.187 L1897.41 452.298 L1915.79 470.747 L1909.63 470.747 L1893.03 454.104 L1893.03 470.747 L1888.36 470.747 L1888.36 436.187 Z" fill="#000000" fill-rule="evenodd" fill-opacity="1" /><path clip-path="url(#clip930)" d="M1930.88 439.358 Q1925.79 439.358 1922.78 443.155 Q1919.79 446.951 1919.79 453.502 Q1919.79 460.03 1922.78 463.826 Q1925.79 467.622 1930.88 467.622 Q1935.97 467.622 1938.94 463.826 Q1941.92 460.03 1941.92 453.502 Q1941.92 446.951 1938.94 443.155 Q1935.97 439.358 1930.88 439.358 M1930.88 435.562 Q1938.15 435.562 1942.5 440.446 Q1946.85 445.308 1946.85 453.502 Q1946.85 461.673 1942.5 466.557 Q1938.15 471.418 1930.88 471.418 Q1923.59 471.418 1919.21 466.557 Q1914.86 461.696 1914.86 453.502 Q1914.86 445.308 1919.21 440.446 Q1923.59 435.562 1930.88 435.562 Z" fill="#000000" fill-rule="evenodd" fill-opacity="1" /><path clip-path="url(#clip930)" d="M1958.84 440.03 L1958.84 466.905 L1964.49 466.905 Q1971.64 466.905 1974.95 463.664 Q1978.29 460.423 1978.29 453.432 Q1978.29 446.488 1974.95 443.27 Q1971.64 440.03 1964.49 440.03 L1958.84 440.03 M1954.17 436.187 L1963.77 436.187 Q1973.82 436.187 1978.52 440.377 Q1983.22 444.544 1983.22 453.432 Q1983.22 462.368 1978.5 466.557 Q1973.77 470.747 1963.77 470.747 L1954.17 470.747 L1954.17 436.187 Z" fill="#000000" fill-rule="evenodd" fill-opacity="1" /><path clip-path="url(#clip930)" d="M1990.67 436.187 L2012.52 436.187 L2012.52 440.122 L1995.35 440.122 L1995.35 450.354 L2011.81 450.354 L2011.81 454.289 L1995.35 454.289 L1995.35 466.812 L2012.94 466.812 L2012.94 470.747 L1990.67 470.747 L1990.67 436.187 Z" fill="#000000" fill-rule="evenodd" fill-opacity="1" /><path clip-path="url(#clip930)" d="M2035.21 452.113 Q2038.56 452.831 2040.44 455.099 Q2042.34 457.368 2042.34 460.701 Q2042.34 465.817 2038.82 468.618 Q2035.3 471.418 2028.82 471.418 Q2026.64 471.418 2024.33 470.979 Q2022.04 470.562 2019.58 469.706 L2019.58 465.192 Q2021.53 466.326 2023.84 466.905 Q2026.16 467.483 2028.68 467.483 Q2033.08 467.483 2035.37 465.747 Q2037.69 464.011 2037.69 460.701 Q2037.69 457.645 2035.53 455.932 Q2033.4 454.196 2029.58 454.196 L2025.56 454.196 L2025.56 450.354 L2029.77 450.354 Q2033.22 450.354 2035.05 448.988 Q2036.87 447.599 2036.87 445.007 Q2036.87 442.345 2034.98 440.933 Q2033.1 439.497 2029.58 439.497 Q2027.66 439.497 2025.46 439.914 Q2023.26 440.331 2020.62 441.21 L2020.62 437.044 Q2023.29 436.303 2025.6 435.933 Q2027.94 435.562 2030 435.562 Q2035.32 435.562 2038.43 437.993 Q2041.53 440.4 2041.53 444.52 Q2041.53 447.391 2039.88 449.382 Q2038.24 451.349 2035.21 452.113 Z" fill="#000000" fill-rule="evenodd" fill-opacity="1" /></svg>
