<?xml version="1.0" encoding="utf-8"?>
<svg xmlns="http://www.w3.org/2000/svg" xmlns:xlink="http://www.w3.org/1999/xlink" width="576" height="384" viewBox="0 0 2304 1536">
<defs>
  <clipPath id="clip370">
    <rect x="0" y="0" width="2304" height="1536"/>
  </clipPath>
</defs>
<path clip-path="url(#clip370)" d="
M0 1536 L2304 1536 L2304 0 L0 0  Z
  " fill="#ffffff" fill-rule="evenodd" fill-opacity="1"/>
<defs>
  <clipPath id="clip371">
    <rect x="460" y="0" width="1614" height="1536"/>
  </clipPath>
</defs>
<path clip-path="url(#clip370)" d="
M250.882 1347.54 L2256.76 1347.54 L2256.76 47.2441 L250.882 47.2441  Z
  " fill="#ffffff" fill-rule="evenodd" fill-opacity="1"/>
<defs>
  <clipPath id="clip372">
    <rect x="250" y="47" width="2007" height="1301"/>
  </clipPath>
</defs>
<polyline clip-path="url(#clip372)" style="stroke:#000000; stroke-linecap:butt; stroke-linejoin:round; stroke-width:2; stroke-opacity:0.1; fill:none" points="
  1045.76,1347.54 1045.76,47.2441 
  "/>
<polyline clip-path="url(#clip372)" style="stroke:#000000; stroke-linecap:butt; stroke-linejoin:round; stroke-width:2; stroke-opacity:0.1; fill:none" points="
  2106.89,1347.54 2106.89,47.2441 
  "/>
<polyline clip-path="url(#clip370)" style="stroke:#000000; stroke-linecap:butt; stroke-linejoin:round; stroke-width:4; stroke-opacity:1; fill:none" points="
  250.882,1347.54 2256.76,1347.54 
  "/>
<polyline clip-path="url(#clip370)" style="stroke:#000000; stroke-linecap:butt; stroke-linejoin:round; stroke-width:4; stroke-opacity:1; fill:none" points="
  1045.76,1347.54 1045.76,1328.64 
  "/>
<polyline clip-path="url(#clip370)" style="stroke:#000000; stroke-linecap:butt; stroke-linejoin:round; stroke-width:4; stroke-opacity:1; fill:none" points="
  2106.89,1347.54 2106.89,1328.64 
  "/>
<path clip-path="url(#clip370)" d="M983.121 1420.89 L990.76 1420.89 L990.76 1394.53 L982.45 1396.19 L982.45 1391.94 L990.713 1390.27 L995.389 1390.27 L995.389 1420.89 L1003.03 1420.89 L1003.03 1424.83 L983.121 1424.83 L983.121 1420.89 Z" fill="#000000" fill-rule="evenodd" fill-opacity="1" /><path clip-path="url(#clip370)" d="M1022.47 1393.35 Q1018.86 1393.35 1017.03 1396.91 Q1015.23 1400.45 1015.23 1407.58 Q1015.23 1414.69 1017.03 1418.25 Q1018.86 1421.8 1022.47 1421.8 Q1026.11 1421.8 1027.91 1418.25 Q1029.74 1414.69 1029.74 1407.58 Q1029.74 1400.45 1027.91 1396.91 Q1026.11 1393.35 1022.47 1393.35 M1022.47 1389.64 Q1028.28 1389.64 1031.34 1394.25 Q1034.42 1398.83 1034.42 1407.58 Q1034.42 1416.31 1031.34 1420.92 Q1028.28 1425.5 1022.47 1425.5 Q1016.66 1425.5 1013.58 1420.92 Q1010.53 1416.31 1010.53 1407.58 Q1010.53 1398.83 1013.58 1394.25 Q1016.66 1389.64 1022.47 1389.64 Z" fill="#000000" fill-rule="evenodd" fill-opacity="1" /><path clip-path="url(#clip370)" d="M1034.42 1383.74 L1058.53 1383.74 L1058.53 1386.94 L1034.42 1386.94 L1034.42 1383.74 Z" fill="#000000" fill-rule="evenodd" fill-opacity="1" /><path clip-path="url(#clip370)" d="M1067.39 1394.22 L1073.59 1394.22 L1073.59 1372.8 L1066.84 1374.15 L1066.84 1370.69 L1073.56 1369.34 L1077.36 1369.34 L1077.36 1394.22 L1083.56 1394.22 L1083.56 1397.42 L1067.39 1397.42 L1067.39 1394.22 Z" fill="#000000" fill-rule="evenodd" fill-opacity="1" /><path clip-path="url(#clip370)" d="M1099.36 1371.84 Q1096.43 1371.84 1094.94 1374.74 Q1093.47 1377.61 1093.47 1383.41 Q1093.47 1389.18 1094.94 1392.08 Q1096.43 1394.95 1099.36 1394.95 Q1102.31 1394.95 1103.78 1392.08 Q1105.27 1389.18 1105.27 1383.41 Q1105.27 1377.61 1103.78 1374.74 Q1102.31 1371.84 1099.36 1371.84 M1099.36 1368.83 Q1104.08 1368.83 1106.56 1372.57 Q1109.06 1376.3 1109.06 1383.41 Q1109.06 1390.5 1106.56 1394.24 Q1104.08 1397.96 1099.36 1397.96 Q1094.64 1397.96 1092.14 1394.24 Q1089.66 1390.5 1089.66 1383.41 Q1089.66 1376.3 1092.14 1372.57 Q1094.64 1368.83 1099.36 1368.83 Z" fill="#000000" fill-rule="evenodd" fill-opacity="1" /><path clip-path="url(#clip370)" d="M2056.91 1420.89 L2064.55 1420.89 L2064.55 1394.53 L2056.24 1396.19 L2056.24 1391.94 L2064.5 1390.27 L2069.18 1390.27 L2069.18 1420.89 L2076.82 1420.89 L2076.82 1424.83 L2056.91 1424.83 L2056.91 1420.89 Z" fill="#000000" fill-rule="evenodd" fill-opacity="1" /><path clip-path="url(#clip370)" d="M2096.26 1393.35 Q2092.65 1393.35 2090.82 1396.91 Q2089.01 1400.45 2089.01 1407.58 Q2089.01 1414.69 2090.82 1418.25 Q2092.65 1421.8 2096.26 1421.8 Q2099.89 1421.8 2101.7 1418.25 Q2103.53 1414.69 2103.53 1407.58 Q2103.53 1400.45 2101.7 1396.91 Q2099.89 1393.35 2096.26 1393.35 M2096.26 1389.64 Q2102.07 1389.64 2105.13 1394.25 Q2108.2 1398.83 2108.2 1407.58 Q2108.2 1416.31 2105.13 1420.92 Q2102.07 1425.5 2096.26 1425.5 Q2090.45 1425.5 2087.37 1420.92 Q2084.32 1416.31 2084.32 1407.58 Q2084.32 1398.83 2087.37 1394.25 Q2090.45 1389.64 2096.26 1389.64 Z" fill="#000000" fill-rule="evenodd" fill-opacity="1" /><path clip-path="url(#clip370)" d="M2108.2 1383.74 L2132.32 1383.74 L2132.32 1386.94 L2108.2 1386.94 L2108.2 1383.74 Z" fill="#000000" fill-rule="evenodd" fill-opacity="1" /><path clip-path="url(#clip370)" d="M2140.55 1369.34 L2155.47 1369.34 L2155.47 1372.54 L2144.03 1372.54 L2144.03 1379.42 Q2144.86 1379.14 2145.69 1379.01 Q2146.52 1378.85 2147.34 1378.85 Q2152.04 1378.85 2154.79 1381.43 Q2157.54 1384.01 2157.54 1388.41 Q2157.54 1392.94 2154.72 1395.46 Q2151.89 1397.96 2146.76 1397.96 Q2144.99 1397.96 2143.15 1397.66 Q2141.32 1397.36 2139.37 1396.76 L2139.37 1392.94 Q2141.06 1393.86 2142.87 1394.31 Q2144.67 1394.77 2146.68 1394.77 Q2149.94 1394.77 2151.84 1393.05 Q2153.74 1391.34 2153.74 1388.41 Q2153.74 1385.48 2151.84 1383.76 Q2149.94 1382.05 2146.68 1382.05 Q2145.16 1382.05 2143.64 1382.39 Q2142.13 1382.73 2140.55 1383.44 L2140.55 1369.34 Z" fill="#000000" fill-rule="evenodd" fill-opacity="1" /><path clip-path="url(#clip370)" d="M1177.57 1461.87 L1207.62 1461.87 L1207.62 1467.28 L1184 1467.28 L1184 1481.34 L1206.63 1481.34 L1206.63 1486.76 L1184 1486.76 L1184 1503.97 L1208.19 1503.97 L1208.19 1509.39 L1177.57 1509.39 L1177.57 1461.87 Z" fill="#000000" fill-rule="evenodd" fill-opacity="1" /><path clip-path="url(#clip370)" d="M1239.16 1479.21 Q1238.18 1478.64 1237 1478.38 Q1235.85 1478.1 1234.45 1478.1 Q1229.49 1478.1 1226.81 1481.34 Q1224.17 1484.56 1224.17 1490.61 L1224.17 1509.39 L1218.28 1509.39 L1218.28 1473.74 L1224.17 1473.74 L1224.17 1479.28 Q1226.02 1476.03 1228.98 1474.47 Q1231.94 1472.88 1236.17 1472.88 Q1236.77 1472.88 1237.51 1472.97 Q1238.24 1473.04 1239.13 1473.2 L1239.16 1479.21 Z" fill="#000000" fill-rule="evenodd" fill-opacity="1" /><path clip-path="url(#clip370)" d="M1264.82 1479.21 Q1263.83 1478.64 1262.65 1478.38 Q1261.51 1478.1 1260.11 1478.1 Q1255.14 1478.1 1252.47 1481.34 Q1249.82 1484.56 1249.82 1490.61 L1249.82 1509.39 L1243.94 1509.39 L1243.94 1473.74 L1249.82 1473.74 L1249.82 1479.28 Q1251.67 1476.03 1254.63 1474.47 Q1257.59 1472.88 1261.82 1472.88 Q1262.43 1472.88 1263.16 1472.97 Q1263.89 1473.04 1264.78 1473.2 L1264.82 1479.21 Z" fill="#000000" fill-rule="evenodd" fill-opacity="1" /><path clip-path="url(#clip370)" d="M1283.34 1477.84 Q1278.63 1477.84 1275.89 1481.54 Q1273.15 1485.2 1273.15 1491.59 Q1273.15 1497.99 1275.86 1501.68 Q1278.6 1505.34 1283.34 1505.34 Q1288.02 1505.34 1290.76 1501.65 Q1293.49 1497.96 1293.49 1491.59 Q1293.49 1485.26 1290.76 1481.57 Q1288.02 1477.84 1283.34 1477.84 M1283.34 1472.88 Q1290.98 1472.88 1295.34 1477.84 Q1299.7 1482.81 1299.7 1491.59 Q1299.7 1500.35 1295.34 1505.34 Q1290.98 1510.31 1283.34 1510.31 Q1275.67 1510.31 1271.31 1505.34 Q1266.98 1500.35 1266.98 1491.59 Q1266.98 1482.81 1271.31 1477.84 Q1275.67 1472.88 1283.34 1472.88 Z" fill="#000000" fill-rule="evenodd" fill-opacity="1" /><path clip-path="url(#clip370)" d="M1330.06 1479.21 Q1329.08 1478.64 1327.9 1478.38 Q1326.75 1478.1 1325.35 1478.1 Q1320.39 1478.1 1317.71 1481.34 Q1315.07 1484.56 1315.07 1490.61 L1315.07 1509.39 L1309.18 1509.39 L1309.18 1473.74 L1315.07 1473.74 L1315.07 1479.28 Q1316.92 1476.03 1319.88 1474.47 Q1322.84 1472.88 1327.07 1472.88 Q1327.68 1472.88 1328.41 1472.97 Q1329.14 1473.04 1330.03 1473.2 L1330.06 1479.21 Z" fill="#000000" fill-rule="evenodd" fill-opacity="1" /><polyline clip-path="url(#clip372)" style="stroke:#000000; stroke-linecap:butt; stroke-linejoin:round; stroke-width:2; stroke-opacity:0.1; fill:none" points="
  250.882,955.118 2256.76,955.118 
  "/>
<polyline clip-path="url(#clip372)" style="stroke:#000000; stroke-linecap:butt; stroke-linejoin:round; stroke-width:2; stroke-opacity:0.1; fill:none" points="
  250.882,506.942 2256.76,506.942 
  "/>
<polyline clip-path="url(#clip372)" style="stroke:#000000; stroke-linecap:butt; stroke-linejoin:round; stroke-width:2; stroke-opacity:0.1; fill:none" points="
  250.882,58.7666 2256.76,58.7666 
  "/>
<polyline clip-path="url(#clip370)" style="stroke:#000000; stroke-linecap:butt; stroke-linejoin:round; stroke-width:4; stroke-opacity:1; fill:none" points="
  250.882,1347.54 250.882,47.2441 
  "/>
<polyline clip-path="url(#clip370)" style="stroke:#000000; stroke-linecap:butt; stroke-linejoin:round; stroke-width:4; stroke-opacity:1; fill:none" points="
  250.882,955.118 269.78,955.118 
  "/>
<polyline clip-path="url(#clip370)" style="stroke:#000000; stroke-linecap:butt; stroke-linejoin:round; stroke-width:4; stroke-opacity:1; fill:none" points="
  250.882,506.942 269.78,506.942 
  "/>
<polyline clip-path="url(#clip370)" style="stroke:#000000; stroke-linecap:butt; stroke-linejoin:round; stroke-width:4; stroke-opacity:1; fill:none" points="
  250.882,58.7666 269.78,58.7666 
  "/>
<path clip-path="url(#clip370)" d="M115.411 974.91 L123.05 974.91 L123.05 948.545 L114.74 950.211 L114.74 945.952 L123.004 944.286 L127.68 944.286 L127.68 974.91 L135.319 974.91 L135.319 978.846 L115.411 978.846 L115.411 974.91 Z" fill="#000000" fill-rule="evenodd" fill-opacity="1" /><path clip-path="url(#clip370)" d="M154.763 947.364 Q151.152 947.364 149.323 950.929 Q147.518 954.471 147.518 961.6 Q147.518 968.707 149.323 972.271 Q151.152 975.813 154.763 975.813 Q158.397 975.813 160.203 972.271 Q162.032 968.707 162.032 961.6 Q162.032 954.471 160.203 950.929 Q158.397 947.364 154.763 947.364 M154.763 943.661 Q160.573 943.661 163.629 948.267 Q166.707 952.85 166.707 961.6 Q166.707 970.327 163.629 974.933 Q160.573 979.517 154.763 979.517 Q148.953 979.517 145.874 974.933 Q142.819 970.327 142.819 961.6 Q142.819 952.85 145.874 948.267 Q148.953 943.661 154.763 943.661 Z" fill="#000000" fill-rule="evenodd" fill-opacity="1" /><path clip-path="url(#clip370)" d="M166.707 937.762 L190.819 937.762 L190.819 940.959 L166.707 940.959 L166.707 937.762 Z" fill="#000000" fill-rule="evenodd" fill-opacity="1" /><path clip-path="url(#clip370)" d="M210.53 936.295 Q213.257 936.878 214.78 938.721 Q216.322 940.564 216.322 943.273 Q216.322 947.429 213.464 949.705 Q210.605 951.981 205.339 951.981 Q203.571 951.981 201.69 951.623 Q199.828 951.285 197.834 950.589 L197.834 946.921 Q199.414 947.843 201.295 948.313 Q203.176 948.783 205.226 948.783 Q208.799 948.783 210.661 947.373 Q212.542 945.962 212.542 943.273 Q212.542 940.79 210.793 939.398 Q209.063 937.988 205.959 937.988 L202.687 937.988 L202.687 934.865 L206.11 934.865 Q208.912 934.865 210.398 933.756 Q211.884 932.627 211.884 930.521 Q211.884 928.358 210.341 927.211 Q208.818 926.045 205.959 926.045 Q204.398 926.045 202.612 926.383 Q200.825 926.722 198.681 927.436 L198.681 924.051 Q200.844 923.449 202.724 923.148 Q204.624 922.847 206.298 922.847 Q210.624 922.847 213.144 924.822 Q215.664 926.778 215.664 930.126 Q215.664 932.458 214.329 934.076 Q212.993 935.674 210.53 936.295 Z" fill="#000000" fill-rule="evenodd" fill-opacity="1" /><path clip-path="url(#clip370)" d="M116.183 526.735 L123.821 526.735 L123.821 500.369 L115.511 502.036 L115.511 497.776 L123.775 496.11 L128.451 496.11 L128.451 526.735 L136.09 526.735 L136.09 530.67 L116.183 530.67 L116.183 526.735 Z" fill="#000000" fill-rule="evenodd" fill-opacity="1" /><path clip-path="url(#clip370)" d="M155.534 499.189 Q151.923 499.189 150.094 502.753 Q148.289 506.295 148.289 513.425 Q148.289 520.531 150.094 524.096 Q151.923 527.637 155.534 527.637 Q159.168 527.637 160.974 524.096 Q162.803 520.531 162.803 513.425 Q162.803 506.295 160.974 502.753 Q159.168 499.189 155.534 499.189 M155.534 495.485 Q161.344 495.485 164.4 500.091 Q167.479 504.675 167.479 513.425 Q167.479 522.151 164.4 526.758 Q161.344 531.341 155.534 531.341 Q149.724 531.341 146.645 526.758 Q143.59 522.151 143.59 513.425 Q143.59 504.675 146.645 500.091 Q149.724 495.485 155.534 495.485 Z" fill="#000000" fill-rule="evenodd" fill-opacity="1" /><path clip-path="url(#clip370)" d="M167.479 489.586 L191.59 489.586 L191.59 492.784 L167.479 492.784 L167.479 489.586 Z" fill="#000000" fill-rule="evenodd" fill-opacity="1" /><path clip-path="url(#clip370)" d="M203.063 500.062 L216.322 500.062 L216.322 503.259 L198.493 503.259 L198.493 500.062 Q200.655 497.824 204.379 494.062 Q208.122 490.282 209.081 489.191 Q210.906 487.141 211.62 485.731 Q212.354 484.301 212.354 482.928 Q212.354 480.69 210.774 479.28 Q209.213 477.869 206.693 477.869 Q204.906 477.869 202.912 478.49 Q200.938 479.11 198.681 480.37 L198.681 476.534 Q200.975 475.612 202.969 475.142 Q204.962 474.672 206.618 474.672 Q210.981 474.672 213.576 476.853 Q216.172 479.035 216.172 482.684 Q216.172 484.414 215.514 485.975 Q214.874 487.517 213.163 489.624 Q212.692 490.169 210.172 492.784 Q207.652 495.379 203.063 500.062 Z" fill="#000000" fill-rule="evenodd" fill-opacity="1" /><path clip-path="url(#clip370)" d="M115.882 78.559 L123.52 78.559 L123.52 52.1934 L115.21 53.8601 L115.21 49.6008 L123.474 47.9342 L128.15 47.9342 L128.15 78.559 L135.789 78.559 L135.789 82.4942 L115.882 82.4942 L115.882 78.559 Z" fill="#000000" fill-rule="evenodd" fill-opacity="1" /><path clip-path="url(#clip370)" d="M155.233 51.0129 Q151.622 51.0129 149.793 54.5777 Q147.988 58.1193 147.988 65.2489 Q147.988 72.3553 149.793 75.9201 Q151.622 79.4618 155.233 79.4618 Q158.868 79.4618 160.673 75.9201 Q162.502 72.3553 162.502 65.2489 Q162.502 58.1193 160.673 54.5777 Q158.868 51.0129 155.233 51.0129 M155.233 47.3092 Q161.043 47.3092 164.099 51.9156 Q167.178 56.4989 167.178 65.2489 Q167.178 73.9757 164.099 78.5822 Q161.043 83.1655 155.233 83.1655 Q149.423 83.1655 146.344 78.5822 Q143.289 73.9757 143.289 65.2489 Q143.289 56.4989 146.344 51.9156 Q149.423 47.3092 155.233 47.3092 Z" fill="#000000" fill-rule="evenodd" fill-opacity="1" /><path clip-path="url(#clip370)" d="M167.178 41.4105 L191.289 41.4105 L191.289 44.6078 L167.178 44.6078 L167.178 41.4105 Z" fill="#000000" fill-rule="evenodd" fill-opacity="1" /><path clip-path="url(#clip370)" d="M200.148 51.8865 L206.354 51.8865 L206.354 30.4644 L199.602 31.8186 L199.602 28.3579 L206.317 27.0038 L210.116 27.0038 L210.116 51.8865 L216.322 51.8865 L216.322 55.0838 L200.148 55.0838 L200.148 51.8865 Z" fill="#000000" fill-rule="evenodd" fill-opacity="1" /><path clip-path="url(#clip370)" d="M18.4042 827.219 L18.4042 787.02 L23.815 787.02 L23.815 803.889 L65.9242 803.889 L65.9242 810.35 L23.815 810.35 L23.815 827.219 L18.4042 827.219 Z" fill="#000000" fill-rule="evenodd" fill-opacity="1" /><path clip-path="url(#clip370)" d="M30.2762 783.073 L30.2762 777.216 L65.9242 777.216 L65.9242 783.073 L30.2762 783.073 M16.399 783.073 L16.399 777.216 L23.815 777.216 L23.815 783.073 L16.399 783.073 Z" fill="#000000" fill-rule="evenodd" fill-opacity="1" /><path clip-path="url(#clip370)" d="M37.1193 737.208 Q33.1726 735.012 31.2947 731.956 Q29.4168 728.901 29.4168 724.763 Q29.4168 719.193 33.3317 716.169 Q37.2148 713.145 44.4081 713.145 L65.9242 713.145 L65.9242 719.034 L44.599 719.034 Q39.4746 719.034 36.992 720.848 Q34.5094 722.662 34.5094 726.386 Q34.5094 730.938 37.5331 733.579 Q40.5568 736.221 45.7767 736.221 L65.9242 736.221 L65.9242 742.109 L44.599 742.109 Q39.4428 742.109 36.992 743.924 Q34.5094 745.738 34.5094 749.526 Q34.5094 754.013 37.5649 756.655 Q40.5886 759.297 45.7767 759.297 L65.9242 759.297 L65.9242 765.185 L30.2762 765.185 L30.2762 759.297 L35.8144 759.297 Q32.536 757.292 30.9764 754.491 Q29.4168 751.69 29.4168 747.839 Q29.4168 743.956 31.3902 741.25 Q33.3636 738.513 37.1193 737.208 Z" fill="#000000" fill-rule="evenodd" fill-opacity="1" /><path clip-path="url(#clip370)" d="M46.6361 670.973 L49.5006 670.973 L49.5006 697.9 Q55.5481 697.518 58.7309 694.271 Q61.8819 690.993 61.8819 685.168 Q61.8819 681.794 61.0544 678.643 Q60.2269 675.461 58.5718 672.341 L64.1099 672.341 Q65.4467 675.492 66.147 678.803 Q66.8472 682.113 66.8472 685.518 Q66.8472 694.048 61.8819 699.045 Q56.9167 704.011 48.4503 704.011 Q39.6974 704.011 34.5731 699.3 Q29.4168 694.558 29.4168 686.537 Q29.4168 679.344 34.0638 675.174 Q38.6789 670.973 46.6361 670.973 M44.9173 676.829 Q40.1112 676.893 37.2466 679.535 Q34.3821 682.145 34.3821 686.473 Q34.3821 691.375 37.1512 694.335 Q39.9202 697.263 44.9492 697.709 L44.9173 676.829 Z" fill="#000000" fill-rule="evenodd" fill-opacity="1" /><path clip-path="url(#clip370)" d="M16.4626 626.572 Q23.7832 630.837 30.9446 632.906 Q38.106 634.975 45.4584 634.975 Q52.8108 634.975 60.0359 632.906 Q67.2291 630.805 74.5179 626.572 L74.5179 631.664 Q67.0382 636.439 59.8131 638.826 Q52.588 641.181 45.4584 641.181 Q38.3606 641.181 31.1674 638.826 Q23.9742 636.471 16.4626 631.664 L16.4626 626.572 Z" fill="#000000" fill-rule="evenodd" fill-opacity="1" /><path clip-path="url(#clip370)" d="M31.3265 592.484 L36.8647 592.484 Q35.5916 594.966 34.955 597.64 Q34.3184 600.313 34.3184 603.178 Q34.3184 607.538 35.6552 609.735 Q36.992 611.899 39.6656 611.899 Q41.7026 611.899 42.8803 610.339 Q44.0261 608.78 45.0765 604.069 L45.5221 602.064 Q46.8589 595.826 49.3097 593.216 Q51.7286 590.574 56.0891 590.574 Q61.0544 590.574 63.9508 594.521 Q66.8472 598.435 66.8472 605.31 Q66.8472 608.175 66.2743 611.294 Q65.7332 614.382 64.6192 617.819 L58.5718 617.819 Q60.2587 614.573 61.118 611.422 Q61.9456 608.27 61.9456 605.183 Q61.9456 601.045 60.5451 598.817 Q59.1129 596.589 56.5347 596.589 Q54.1476 596.589 52.8745 598.213 Q51.6013 599.804 50.4237 605.247 L49.9462 607.284 Q48.8004 612.726 46.4451 615.145 Q44.058 617.564 39.9202 617.564 Q34.8913 617.564 32.1541 614 Q29.4168 610.435 29.4168 603.878 Q29.4168 600.632 29.8943 597.767 Q30.3717 594.902 31.3265 592.484 Z" fill="#000000" fill-rule="evenodd" fill-opacity="1" /><path clip-path="url(#clip370)" d="M16.4626 582.171 L16.4626 577.079 Q23.9742 572.304 31.1674 569.949 Q38.3606 567.562 45.4584 567.562 Q52.588 567.562 59.8131 569.949 Q67.0382 572.304 74.5179 577.079 L74.5179 582.171 Q67.2291 577.938 60.0359 575.869 Q52.8108 573.768 45.4584 573.768 Q38.106 573.768 30.9446 575.869 Q23.7832 577.938 16.4626 582.171 Z" fill="#000000" fill-rule="evenodd" fill-opacity="1" /><polyline clip-path="url(#clip372)" style="stroke:#009af9; stroke-linecap:butt; stroke-linejoin:round; stroke-width:12; stroke-opacity:1; fill:none" points="
  1709.51,1310.74 1416.29,1241.72 1163.6,1153.84 938.225,1063.4 820.585,942.199 513.903,773.22 307.652,617.759 
  "/>
<line clip-path="url(#clip372)" x1="1709.51" y1="1310.74" x2="1709.51" y2="1294.74" style="stroke:#009af9; stroke-width:3.072; stroke-opacity:1"/>
<line clip-path="url(#clip372)" x1="1709.51" y1="1310.74" x2="1693.51" y2="1310.74" style="stroke:#009af9; stroke-width:3.072; stroke-opacity:1"/>
<line clip-path="url(#clip372)" x1="1709.51" y1="1310.74" x2="1709.51" y2="1326.74" style="stroke:#009af9; stroke-width:3.072; stroke-opacity:1"/>
<line clip-path="url(#clip372)" x1="1709.51" y1="1310.74" x2="1725.51" y2="1310.74" style="stroke:#009af9; stroke-width:3.072; stroke-opacity:1"/>
<line clip-path="url(#clip372)" x1="1416.29" y1="1241.72" x2="1416.29" y2="1225.72" style="stroke:#009af9; stroke-width:3.072; stroke-opacity:1"/>
<line clip-path="url(#clip372)" x1="1416.29" y1="1241.72" x2="1400.29" y2="1241.72" style="stroke:#009af9; stroke-width:3.072; stroke-opacity:1"/>
<line clip-path="url(#clip372)" x1="1416.29" y1="1241.72" x2="1416.29" y2="1257.72" style="stroke:#009af9; stroke-width:3.072; stroke-opacity:1"/>
<line clip-path="url(#clip372)" x1="1416.29" y1="1241.72" x2="1432.29" y2="1241.72" style="stroke:#009af9; stroke-width:3.072; stroke-opacity:1"/>
<line clip-path="url(#clip372)" x1="1163.6" y1="1153.84" x2="1163.6" y2="1137.84" style="stroke:#009af9; stroke-width:3.072; stroke-opacity:1"/>
<line clip-path="url(#clip372)" x1="1163.6" y1="1153.84" x2="1147.6" y2="1153.84" style="stroke:#009af9; stroke-width:3.072; stroke-opacity:1"/>
<line clip-path="url(#clip372)" x1="1163.6" y1="1153.84" x2="1163.6" y2="1169.84" style="stroke:#009af9; stroke-width:3.072; stroke-opacity:1"/>
<line clip-path="url(#clip372)" x1="1163.6" y1="1153.84" x2="1179.6" y2="1153.84" style="stroke:#009af9; stroke-width:3.072; stroke-opacity:1"/>
<line clip-path="url(#clip372)" x1="938.225" y1="1063.4" x2="938.225" y2="1047.4" style="stroke:#009af9; stroke-width:3.072; stroke-opacity:1"/>
<line clip-path="url(#clip372)" x1="938.225" y1="1063.4" x2="922.225" y2="1063.4" style="stroke:#009af9; stroke-width:3.072; stroke-opacity:1"/>
<line clip-path="url(#clip372)" x1="938.225" y1="1063.4" x2="938.225" y2="1079.4" style="stroke:#009af9; stroke-width:3.072; stroke-opacity:1"/>
<line clip-path="url(#clip372)" x1="938.225" y1="1063.4" x2="954.225" y2="1063.4" style="stroke:#009af9; stroke-width:3.072; stroke-opacity:1"/>
<line clip-path="url(#clip372)" x1="820.585" y1="942.199" x2="820.585" y2="926.199" style="stroke:#009af9; stroke-width:3.072; stroke-opacity:1"/>
<line clip-path="url(#clip372)" x1="820.585" y1="942.199" x2="804.585" y2="942.199" style="stroke:#009af9; stroke-width:3.072; stroke-opacity:1"/>
<line clip-path="url(#clip372)" x1="820.585" y1="942.199" x2="820.585" y2="958.199" style="stroke:#009af9; stroke-width:3.072; stroke-opacity:1"/>
<line clip-path="url(#clip372)" x1="820.585" y1="942.199" x2="836.585" y2="942.199" style="stroke:#009af9; stroke-width:3.072; stroke-opacity:1"/>
<line clip-path="url(#clip372)" x1="513.903" y1="773.22" x2="513.903" y2="757.22" style="stroke:#009af9; stroke-width:3.072; stroke-opacity:1"/>
<line clip-path="url(#clip372)" x1="513.903" y1="773.22" x2="497.903" y2="773.22" style="stroke:#009af9; stroke-width:3.072; stroke-opacity:1"/>
<line clip-path="url(#clip372)" x1="513.903" y1="773.22" x2="513.903" y2="789.22" style="stroke:#009af9; stroke-width:3.072; stroke-opacity:1"/>
<line clip-path="url(#clip372)" x1="513.903" y1="773.22" x2="529.903" y2="773.22" style="stroke:#009af9; stroke-width:3.072; stroke-opacity:1"/>
<line clip-path="url(#clip372)" x1="307.652" y1="617.759" x2="307.652" y2="601.759" style="stroke:#009af9; stroke-width:3.072; stroke-opacity:1"/>
<line clip-path="url(#clip372)" x1="307.652" y1="617.759" x2="291.652" y2="617.759" style="stroke:#009af9; stroke-width:3.072; stroke-opacity:1"/>
<line clip-path="url(#clip372)" x1="307.652" y1="617.759" x2="307.652" y2="633.759" style="stroke:#009af9; stroke-width:3.072; stroke-opacity:1"/>
<line clip-path="url(#clip372)" x1="307.652" y1="617.759" x2="323.652" y2="617.759" style="stroke:#009af9; stroke-width:3.072; stroke-opacity:1"/>
<polyline clip-path="url(#clip372)" style="stroke:#e26f46; stroke-linecap:butt; stroke-linejoin:round; stroke-width:12; stroke-opacity:1; fill:none" points="
  1834.56,1107.55 1748.59,1063.73 1642.9,1012.15 1512.78,941.139 1401.6,858.719 1258.9,784.21 1125.26,698.315 
  "/>
<circle clip-path="url(#clip372)" cx="1834.56" cy="1107.55" r="14" fill="#e26f46" fill-rule="evenodd" fill-opacity="1" stroke="#000000" stroke-opacity="1" stroke-width="3.072"/>
<circle clip-path="url(#clip372)" cx="1748.59" cy="1063.73" r="14" fill="#e26f46" fill-rule="evenodd" fill-opacity="1" stroke="#000000" stroke-opacity="1" stroke-width="3.072"/>
<circle clip-path="url(#clip372)" cx="1642.9" cy="1012.15" r="14" fill="#e26f46" fill-rule="evenodd" fill-opacity="1" stroke="#000000" stroke-opacity="1" stroke-width="3.072"/>
<circle clip-path="url(#clip372)" cx="1512.78" cy="941.139" r="14" fill="#e26f46" fill-rule="evenodd" fill-opacity="1" stroke="#000000" stroke-opacity="1" stroke-width="3.072"/>
<circle clip-path="url(#clip372)" cx="1401.6" cy="858.719" r="14" fill="#e26f46" fill-rule="evenodd" fill-opacity="1" stroke="#000000" stroke-opacity="1" stroke-width="3.072"/>
<circle clip-path="url(#clip372)" cx="1258.9" cy="784.21" r="14" fill="#e26f46" fill-rule="evenodd" fill-opacity="1" stroke="#000000" stroke-opacity="1" stroke-width="3.072"/>
<circle clip-path="url(#clip372)" cx="1125.26" cy="698.315" r="14" fill="#e26f46" fill-rule="evenodd" fill-opacity="1" stroke="#000000" stroke-opacity="1" stroke-width="3.072"/>
<polyline clip-path="url(#clip372)" style="stroke:#3da44d; stroke-linecap:butt; stroke-linejoin:round; stroke-width:12; stroke-opacity:1; fill:none" points="
  1982.94,1168.41 1867.5,1118.23 1738.6,1035.3 1598.97,951.349 1450.45,863.31 1292.66,778.716 1128.26,684.563 
  "/>
<line clip-path="url(#clip372)" x1="1982.94" y1="1168.41" x2="1982.94" y2="1152.41" style="stroke:#3da44d; stroke-width:3.072; stroke-opacity:1"/>
<line clip-path="url(#clip372)" x1="1982.94" y1="1168.41" x2="1966.94" y2="1168.41" style="stroke:#3da44d; stroke-width:3.072; stroke-opacity:1"/>
<line clip-path="url(#clip372)" x1="1982.94" y1="1168.41" x2="1982.94" y2="1184.41" style="stroke:#3da44d; stroke-width:3.072; stroke-opacity:1"/>
<line clip-path="url(#clip372)" x1="1982.94" y1="1168.41" x2="1998.94" y2="1168.41" style="stroke:#3da44d; stroke-width:3.072; stroke-opacity:1"/>
<line clip-path="url(#clip372)" x1="1867.5" y1="1118.23" x2="1867.5" y2="1102.23" style="stroke:#3da44d; stroke-width:3.072; stroke-opacity:1"/>
<line clip-path="url(#clip372)" x1="1867.5" y1="1118.23" x2="1851.5" y2="1118.23" style="stroke:#3da44d; stroke-width:3.072; stroke-opacity:1"/>
<line clip-path="url(#clip372)" x1="1867.5" y1="1118.23" x2="1867.5" y2="1134.23" style="stroke:#3da44d; stroke-width:3.072; stroke-opacity:1"/>
<line clip-path="url(#clip372)" x1="1867.5" y1="1118.23" x2="1883.5" y2="1118.23" style="stroke:#3da44d; stroke-width:3.072; stroke-opacity:1"/>
<line clip-path="url(#clip372)" x1="1738.6" y1="1035.3" x2="1738.6" y2="1019.3" style="stroke:#3da44d; stroke-width:3.072; stroke-opacity:1"/>
<line clip-path="url(#clip372)" x1="1738.6" y1="1035.3" x2="1722.6" y2="1035.3" style="stroke:#3da44d; stroke-width:3.072; stroke-opacity:1"/>
<line clip-path="url(#clip372)" x1="1738.6" y1="1035.3" x2="1738.6" y2="1051.3" style="stroke:#3da44d; stroke-width:3.072; stroke-opacity:1"/>
<line clip-path="url(#clip372)" x1="1738.6" y1="1035.3" x2="1754.6" y2="1035.3" style="stroke:#3da44d; stroke-width:3.072; stroke-opacity:1"/>
<line clip-path="url(#clip372)" x1="1598.97" y1="951.349" x2="1598.97" y2="935.349" style="stroke:#3da44d; stroke-width:3.072; stroke-opacity:1"/>
<line clip-path="url(#clip372)" x1="1598.97" y1="951.349" x2="1582.97" y2="951.349" style="stroke:#3da44d; stroke-width:3.072; stroke-opacity:1"/>
<line clip-path="url(#clip372)" x1="1598.97" y1="951.349" x2="1598.97" y2="967.349" style="stroke:#3da44d; stroke-width:3.072; stroke-opacity:1"/>
<line clip-path="url(#clip372)" x1="1598.97" y1="951.349" x2="1614.97" y2="951.349" style="stroke:#3da44d; stroke-width:3.072; stroke-opacity:1"/>
<line clip-path="url(#clip372)" x1="1450.45" y1="863.31" x2="1450.45" y2="847.31" style="stroke:#3da44d; stroke-width:3.072; stroke-opacity:1"/>
<line clip-path="url(#clip372)" x1="1450.45" y1="863.31" x2="1434.45" y2="863.31" style="stroke:#3da44d; stroke-width:3.072; stroke-opacity:1"/>
<line clip-path="url(#clip372)" x1="1450.45" y1="863.31" x2="1450.45" y2="879.31" style="stroke:#3da44d; stroke-width:3.072; stroke-opacity:1"/>
<line clip-path="url(#clip372)" x1="1450.45" y1="863.31" x2="1466.45" y2="863.31" style="stroke:#3da44d; stroke-width:3.072; stroke-opacity:1"/>
<line clip-path="url(#clip372)" x1="1292.66" y1="778.716" x2="1292.66" y2="762.716" style="stroke:#3da44d; stroke-width:3.072; stroke-opacity:1"/>
<line clip-path="url(#clip372)" x1="1292.66" y1="778.716" x2="1276.66" y2="778.716" style="stroke:#3da44d; stroke-width:3.072; stroke-opacity:1"/>
<line clip-path="url(#clip372)" x1="1292.66" y1="778.716" x2="1292.66" y2="794.716" style="stroke:#3da44d; stroke-width:3.072; stroke-opacity:1"/>
<line clip-path="url(#clip372)" x1="1292.66" y1="778.716" x2="1308.66" y2="778.716" style="stroke:#3da44d; stroke-width:3.072; stroke-opacity:1"/>
<line clip-path="url(#clip372)" x1="1128.26" y1="684.563" x2="1128.26" y2="668.563" style="stroke:#3da44d; stroke-width:3.072; stroke-opacity:1"/>
<line clip-path="url(#clip372)" x1="1128.26" y1="684.563" x2="1112.26" y2="684.563" style="stroke:#3da44d; stroke-width:3.072; stroke-opacity:1"/>
<line clip-path="url(#clip372)" x1="1128.26" y1="684.563" x2="1128.26" y2="700.563" style="stroke:#3da44d; stroke-width:3.072; stroke-opacity:1"/>
<line clip-path="url(#clip372)" x1="1128.26" y1="684.563" x2="1144.26" y2="684.563" style="stroke:#3da44d; stroke-width:3.072; stroke-opacity:1"/>
<polyline clip-path="url(#clip372)" style="stroke:#c271d2; stroke-linecap:butt; stroke-linejoin:round; stroke-width:12; stroke-opacity:1; fill:none" points="
  2199.99,1185.68 2082.54,1094.14 1946.77,1005.33 1804.78,906.811 1652.91,801.619 1499.14,696.539 1341.22,593.027 
  "/>
<path clip-path="url(#clip372)" d="M2199.99 1169.68 L2183.99 1185.68 L2199.99 1201.68 L2215.99 1185.68 L2199.99 1169.68 Z" fill="#c271d2" fill-rule="evenodd" fill-opacity="1" stroke="#000000" stroke-opacity="1" stroke-width="3.072"/>
<path clip-path="url(#clip372)" d="M2082.54 1078.14 L2066.54 1094.14 L2082.54 1110.14 L2098.54 1094.14 L2082.54 1078.14 Z" fill="#c271d2" fill-rule="evenodd" fill-opacity="1" stroke="#000000" stroke-opacity="1" stroke-width="3.072"/>
<path clip-path="url(#clip372)" d="M1946.77 989.332 L1930.77 1005.33 L1946.77 1021.33 L1962.77 1005.33 L1946.77 989.332 Z" fill="#c271d2" fill-rule="evenodd" fill-opacity="1" stroke="#000000" stroke-opacity="1" stroke-width="3.072"/>
<path clip-path="url(#clip372)" d="M1804.78 890.811 L1788.78 906.811 L1804.78 922.811 L1820.78 906.811 L1804.78 890.811 Z" fill="#c271d2" fill-rule="evenodd" fill-opacity="1" stroke="#000000" stroke-opacity="1" stroke-width="3.072"/>
<path clip-path="url(#clip372)" d="M1652.91 785.619 L1636.91 801.619 L1652.91 817.619 L1668.91 801.619 L1652.91 785.619 Z" fill="#c271d2" fill-rule="evenodd" fill-opacity="1" stroke="#000000" stroke-opacity="1" stroke-width="3.072"/>
<path clip-path="url(#clip372)" d="M1499.14 680.539 L1483.14 696.539 L1499.14 712.539 L1515.14 696.539 L1499.14 680.539 Z" fill="#c271d2" fill-rule="evenodd" fill-opacity="1" stroke="#000000" stroke-opacity="1" stroke-width="3.072"/>
<path clip-path="url(#clip372)" d="M1341.22 577.027 L1325.22 593.027 L1341.22 609.027 L1357.22 593.027 L1341.22 577.027 Z" fill="#c271d2" fill-rule="evenodd" fill-opacity="1" stroke="#000000" stroke-opacity="1" stroke-width="3.072"/>
<polyline clip-path="url(#clip372)" style="stroke:#ac8d18; stroke-linecap:butt; stroke-linejoin:round; stroke-width:12; stroke-opacity:1; fill:none" points="
  1824.15,736.412 1613.9,671.24 1405.43,613.307 1739.39,538.41 1020.19,467.659 805.566,408.554 612.082,298.684 
  "/>
<path clip-path="url(#clip372)" d="M1840.15 720.412 L1808.15 720.412 L1824.15 752.412 L1840.15 720.412 Z" fill="#ac8d18" fill-rule="evenodd" fill-opacity="1" stroke="#000000" stroke-opacity="1" stroke-width="3.072"/>
<path clip-path="url(#clip372)" d="M1629.9 655.24 L1597.9 655.24 L1613.9 687.24 L1629.9 655.24 Z" fill="#ac8d18" fill-rule="evenodd" fill-opacity="1" stroke="#000000" stroke-opacity="1" stroke-width="3.072"/>
<path clip-path="url(#clip372)" d="M1421.43 597.307 L1389.43 597.307 L1405.43 629.307 L1421.43 597.307 Z" fill="#ac8d18" fill-rule="evenodd" fill-opacity="1" stroke="#000000" stroke-opacity="1" stroke-width="3.072"/>
<path clip-path="url(#clip372)" d="M1755.39 522.41 L1723.39 522.41 L1739.39 554.41 L1755.39 522.41 Z" fill="#ac8d18" fill-rule="evenodd" fill-opacity="1" stroke="#000000" stroke-opacity="1" stroke-width="3.072"/>
<path clip-path="url(#clip372)" d="M1036.19 451.659 L1004.19 451.659 L1020.19 483.659 L1036.19 451.659 Z" fill="#ac8d18" fill-rule="evenodd" fill-opacity="1" stroke="#000000" stroke-opacity="1" stroke-width="3.072"/>
<path clip-path="url(#clip372)" d="M821.566 392.554 L789.566 392.554 L805.566 424.554 L821.566 392.554 Z" fill="#ac8d18" fill-rule="evenodd" fill-opacity="1" stroke="#000000" stroke-opacity="1" stroke-width="3.072"/>
<path clip-path="url(#clip372)" d="M628.082 282.684 L596.082 282.684 L612.082 314.684 L628.082 282.684 Z" fill="#ac8d18" fill-rule="evenodd" fill-opacity="1" stroke="#000000" stroke-opacity="1" stroke-width="3.072"/>
<polyline clip-path="url(#clip372)" style="stroke:#00a9ad; stroke-linecap:butt; stroke-linejoin:round; stroke-width:12; stroke-opacity:1; fill:none" points="
  1939.34,605.939 1789.11,552.46 1508.62,484.269 1708.91,392.33 1587.86,301.661 581.298,187.341 354.652,84.0448 
  "/>
<path clip-path="url(#clip372)" d="M1939.34 589.939 L1926.83 595.971 L1923.74 609.507 L1932.4 620.355 L1946.28 620.355 L1954.94 609.507 L1951.85 595.971 Z" fill="#00a9ad" fill-rule="evenodd" fill-opacity="1" stroke="#000000" stroke-opacity="1" stroke-width="3.072"/>
<path clip-path="url(#clip372)" d="M1789.11 536.46 L1776.6 542.492 L1773.51 556.028 L1782.17 566.876 L1796.06 566.876 L1804.71 556.028 L1801.63 542.492 Z" fill="#00a9ad" fill-rule="evenodd" fill-opacity="1" stroke="#000000" stroke-opacity="1" stroke-width="3.072"/>
<path clip-path="url(#clip372)" d="M1508.62 468.269 L1496.11 474.301 L1493.02 487.837 L1501.68 498.685 L1515.56 498.685 L1524.22 487.837 L1521.13 474.301 Z" fill="#00a9ad" fill-rule="evenodd" fill-opacity="1" stroke="#000000" stroke-opacity="1" stroke-width="3.072"/>
<path clip-path="url(#clip372)" d="M1708.91 376.33 L1696.4 382.362 L1693.31 395.898 L1701.97 406.746 L1715.85 406.746 L1724.51 395.898 L1721.42 382.362 Z" fill="#00a9ad" fill-rule="evenodd" fill-opacity="1" stroke="#000000" stroke-opacity="1" stroke-width="3.072"/>
<path clip-path="url(#clip372)" d="M1587.86 285.661 L1575.34 291.693 L1572.26 305.229 L1580.91 316.077 L1594.8 316.077 L1603.46 305.229 L1600.37 291.693 Z" fill="#00a9ad" fill-rule="evenodd" fill-opacity="1" stroke="#000000" stroke-opacity="1" stroke-width="3.072"/>
<path clip-path="url(#clip372)" d="M581.298 171.341 L568.786 177.373 L565.698 190.909 L574.354 201.757 L588.242 201.757 L596.898 190.909 L593.81 177.373 Z" fill="#00a9ad" fill-rule="evenodd" fill-opacity="1" stroke="#000000" stroke-opacity="1" stroke-width="3.072"/>
<path clip-path="url(#clip372)" d="M354.652 68.0448 L342.14 74.0768 L339.052 87.6128 L347.708 98.4608 L361.596 98.4608 L370.252 87.6128 L367.164 74.0768 Z" fill="#00a9ad" fill-rule="evenodd" fill-opacity="1" stroke="#000000" stroke-opacity="1" stroke-width="3.072"/>
<polyline clip-path="url(#clip372)" style="stroke:#ed5d92; stroke-linecap:butt; stroke-linejoin:round; stroke-width:12; stroke-opacity:1; fill:none" points="
  1963.37,880.013 1789.01,811.416 1593.27,703.964 1386.48,601.231 1179.38,488.502 967.749,346.865 761.199,217.747 
  "/>
<path clip-path="url(#clip372)" d="M1963.37 896.013 L1949.51 888.013 L1949.51 872.013 L1963.37 864.013 L1977.22 872.013 L1977.22 888.013 Z" fill="#ed5d92" fill-rule="evenodd" fill-opacity="1" stroke="#000000" stroke-opacity="1" stroke-width="3.072"/>
<path clip-path="url(#clip372)" d="M1789.01 827.416 L1775.16 819.416 L1775.16 803.416 L1789.01 795.416 L1802.87 803.416 L1802.87 819.416 Z" fill="#ed5d92" fill-rule="evenodd" fill-opacity="1" stroke="#000000" stroke-opacity="1" stroke-width="3.072"/>
<path clip-path="url(#clip372)" d="M1593.27 719.964 L1579.42 711.964 L1579.42 695.964 L1593.27 687.964 L1607.13 695.964 L1607.13 711.964 Z" fill="#ed5d92" fill-rule="evenodd" fill-opacity="1" stroke="#000000" stroke-opacity="1" stroke-width="3.072"/>
<path clip-path="url(#clip372)" d="M1386.48 617.231 L1372.62 609.231 L1372.62 593.231 L1386.48 585.231 L1400.33 593.231 L1400.33 609.231 Z" fill="#ed5d92" fill-rule="evenodd" fill-opacity="1" stroke="#000000" stroke-opacity="1" stroke-width="3.072"/>
<path clip-path="url(#clip372)" d="M1179.38 504.502 L1165.52 496.502 L1165.52 480.502 L1179.38 472.502 L1193.23 480.502 L1193.23 496.502 Z" fill="#ed5d92" fill-rule="evenodd" fill-opacity="1" stroke="#000000" stroke-opacity="1" stroke-width="3.072"/>
<path clip-path="url(#clip372)" d="M967.749 362.865 L953.893 354.865 L953.893 338.865 L967.749 330.865 L981.605 338.865 L981.605 354.865 Z" fill="#ed5d92" fill-rule="evenodd" fill-opacity="1" stroke="#000000" stroke-opacity="1" stroke-width="3.072"/>
<path clip-path="url(#clip372)" d="M761.199 233.747 L747.343 225.747 L747.343 209.747 L761.199 201.747 L775.055 209.747 L775.055 225.747 Z" fill="#ed5d92" fill-rule="evenodd" fill-opacity="1" stroke="#000000" stroke-opacity="1" stroke-width="3.072"/>
<path clip-path="url(#clip370)" d="
M1744.5 505.307 L2189.89 505.307 L2189.89 90.5872 L1744.5 90.5872  Z
  " fill="#ffffff" fill-rule="evenodd" fill-opacity="1"/>
<polyline clip-path="url(#clip370)" style="stroke:#000000; stroke-linecap:butt; stroke-linejoin:round; stroke-width:4; stroke-opacity:1; fill:none" points="
  1744.5,505.307 2189.89,505.307 2189.89,90.5872 1744.5,90.5872 1744.5,505.307 
  "/>
<polyline clip-path="url(#clip370)" style="stroke:#009af9; stroke-linecap:butt; stroke-linejoin:round; stroke-width:4; stroke-opacity:1; fill:none" points="
  1766.78,142.427 1900.51,142.427 
  "/>
<line clip-path="url(#clip370)" x1="1833.65" y1="142.427" x2="1833.65" y2="116.827" style="stroke:#009af9; stroke-width:4.9152; stroke-opacity:1"/>
<line clip-path="url(#clip370)" x1="1833.65" y1="142.427" x2="1808.05" y2="142.427" style="stroke:#009af9; stroke-width:4.9152; stroke-opacity:1"/>
<line clip-path="url(#clip370)" x1="1833.65" y1="142.427" x2="1833.65" y2="168.027" style="stroke:#009af9; stroke-width:4.9152; stroke-opacity:1"/>
<line clip-path="url(#clip370)" x1="1833.65" y1="142.427" x2="1859.25" y2="142.427" style="stroke:#009af9; stroke-width:4.9152; stroke-opacity:1"/>
<path clip-path="url(#clip370)" d="M1939.19 143.504 Q1940.69 144.013 1942.1 145.679 Q1943.54 147.346 1944.97 150.263 L1949.72 159.707 L1944.69 159.707 L1940.27 150.841 Q1938.56 147.369 1936.94 146.235 Q1935.34 145.101 1932.56 145.101 L1927.47 145.101 L1927.47 159.707 L1922.8 159.707 L1922.8 125.147 L1933.35 125.147 Q1939.28 125.147 1942.19 127.624 Q1945.11 130.101 1945.11 135.101 Q1945.11 138.365 1943.58 140.517 Q1942.08 142.67 1939.19 143.504 M1927.47 128.99 L1927.47 141.258 L1933.35 141.258 Q1936.73 141.258 1938.44 139.707 Q1940.18 138.133 1940.18 135.101 Q1940.18 132.068 1938.44 130.541 Q1936.73 128.99 1933.35 128.99 L1927.47 128.99 Z" fill="#000000" fill-rule="evenodd" fill-opacity="1" /><path clip-path="url(#clip370)" d="M1963.47 136.767 Q1960.04 136.767 1958.05 139.453 Q1956.06 142.115 1956.06 146.767 Q1956.06 151.42 1958.03 154.105 Q1960.02 156.767 1963.47 156.767 Q1966.87 156.767 1968.86 154.082 Q1970.85 151.397 1970.85 146.767 Q1970.85 142.161 1968.86 139.476 Q1966.87 136.767 1963.47 136.767 M1963.47 133.156 Q1969.02 133.156 1972.19 136.767 Q1975.37 140.379 1975.37 146.767 Q1975.37 153.133 1972.19 156.767 Q1969.02 160.378 1963.47 160.378 Q1957.89 160.378 1954.72 156.767 Q1951.57 153.133 1951.57 146.767 Q1951.57 140.379 1954.72 136.767 Q1957.89 133.156 1963.47 133.156 Z" fill="#000000" fill-rule="evenodd" fill-opacity="1" /><path clip-path="url(#clip370)" d="M1999.49 137.717 L1999.49 123.689 L2003.75 123.689 L2003.75 159.707 L1999.49 159.707 L1999.49 155.818 Q1998.14 158.133 1996.08 159.267 Q1994.05 160.378 1991.18 160.378 Q1986.48 160.378 1983.51 156.628 Q1980.57 152.879 1980.57 146.767 Q1980.57 140.656 1983.51 136.906 Q1986.48 133.156 1991.18 133.156 Q1994.05 133.156 1996.08 134.291 Q1998.14 135.402 1999.49 137.717 M1984.97 146.767 Q1984.97 151.466 1986.89 154.152 Q1988.84 156.814 1992.22 156.814 Q1995.6 156.814 1997.54 154.152 Q1999.49 151.466 1999.49 146.767 Q1999.49 142.068 1997.54 139.406 Q1995.6 136.721 1992.22 136.721 Q1988.84 136.721 1986.89 139.406 Q1984.97 142.068 1984.97 146.767 Z" fill="#000000" fill-rule="evenodd" fill-opacity="1" /><path clip-path="url(#clip370)" d="M2024.3 146.675 Q2019.14 146.675 2017.15 147.855 Q2015.16 149.036 2015.16 151.883 Q2015.16 154.152 2016.64 155.494 Q2018.14 156.814 2020.71 156.814 Q2024.25 156.814 2026.38 154.314 Q2028.54 151.791 2028.54 147.624 L2028.54 146.675 L2024.3 146.675 M2032.8 144.916 L2032.8 159.707 L2028.54 159.707 L2028.54 155.772 Q2027.08 158.133 2024.9 159.267 Q2022.73 160.378 2019.58 160.378 Q2015.6 160.378 2013.24 158.156 Q2010.9 155.911 2010.9 152.161 Q2010.9 147.786 2013.81 145.564 Q2016.75 143.342 2022.56 143.342 L2028.54 143.342 L2028.54 142.925 Q2028.54 139.985 2026.59 138.388 Q2024.67 136.767 2021.18 136.767 Q2018.95 136.767 2016.85 137.3 Q2014.74 137.832 2012.8 138.897 L2012.8 134.962 Q2015.13 134.059 2017.33 133.619 Q2019.53 133.156 2021.62 133.156 Q2027.24 133.156 2030.02 136.073 Q2032.8 138.99 2032.8 144.916 Z" fill="#000000" fill-rule="evenodd" fill-opacity="1" /><path clip-path="url(#clip370)" d="M2058.1 134.545 L2058.1 138.573 Q2056.29 137.647 2054.35 137.184 Q2052.4 136.721 2050.32 136.721 Q2047.15 136.721 2045.55 137.693 Q2043.98 138.666 2043.98 140.61 Q2043.98 142.092 2045.11 142.948 Q2046.24 143.781 2049.67 144.545 L2051.13 144.869 Q2055.67 145.842 2057.56 147.624 Q2059.49 149.383 2059.49 152.554 Q2059.49 156.166 2056.62 158.272 Q2053.77 160.378 2048.77 160.378 Q2046.68 160.378 2044.42 159.962 Q2042.17 159.568 2039.67 158.758 L2039.67 154.36 Q2042.03 155.587 2044.32 156.212 Q2046.62 156.814 2048.86 156.814 Q2051.87 156.814 2053.49 155.795 Q2055.11 154.754 2055.11 152.879 Q2055.11 151.142 2053.93 150.216 Q2052.77 149.291 2048.81 148.434 L2047.33 148.087 Q2043.37 147.254 2041.62 145.541 Q2039.86 143.804 2039.86 140.795 Q2039.86 137.138 2042.45 135.147 Q2045.04 133.156 2049.81 133.156 Q2052.17 133.156 2054.25 133.504 Q2056.34 133.851 2058.1 134.545 Z" fill="#000000" fill-rule="evenodd" fill-opacity="1" /><path clip-path="url(#clip370)" d="M2066.92 125.147 L2085.27 125.147 L2085.27 129.082 L2071.2 129.082 L2071.2 137.555 Q2072.22 137.207 2073.24 137.045 Q2074.25 136.86 2075.27 136.86 Q2081.06 136.86 2084.44 140.031 Q2087.82 143.203 2087.82 148.619 Q2087.82 154.198 2084.35 157.3 Q2080.87 160.378 2074.55 160.378 Q2072.38 160.378 2070.11 160.008 Q2067.87 159.638 2065.46 158.897 L2065.46 154.198 Q2067.54 155.332 2069.76 155.888 Q2071.99 156.443 2074.46 156.443 Q2078.47 156.443 2080.8 154.337 Q2083.14 152.23 2083.14 148.619 Q2083.14 145.008 2080.8 142.902 Q2078.47 140.795 2074.46 140.795 Q2072.59 140.795 2070.71 141.212 Q2068.86 141.629 2066.92 142.508 L2066.92 125.147 Z" fill="#000000" fill-rule="evenodd" fill-opacity="1" /><polyline clip-path="url(#clip370)" style="stroke:#e26f46; stroke-linecap:butt; stroke-linejoin:round; stroke-width:4; stroke-opacity:1; fill:none" points="
  1766.78,194.267 1900.51,194.267 
  "/>
<circle clip-path="url(#clip370)" cx="1833.65" cy="194.267" r="23" fill="#e26f46" fill-rule="evenodd" fill-opacity="1" stroke="#000000" stroke-opacity="1" stroke-width="4.9152"/>
<path clip-path="url(#clip370)" d="M1922.8 176.987 L1927.47 176.987 L1927.47 191.594 L1942.98 176.987 L1949 176.987 L1931.85 193.098 L1950.23 211.547 L1944.07 211.547 L1927.47 194.904 L1927.47 211.547 L1922.8 211.547 L1922.8 176.987 Z" fill="#000000" fill-rule="evenodd" fill-opacity="1" /><path clip-path="url(#clip370)" d="M1973.51 197.519 L1973.51 199.603 L1953.93 199.603 Q1954.21 204.001 1956.57 206.316 Q1958.95 208.607 1963.19 208.607 Q1965.64 208.607 1967.94 208.006 Q1970.25 207.404 1972.52 206.2 L1972.52 210.228 Q1970.23 211.2 1967.82 211.709 Q1965.41 212.218 1962.94 212.218 Q1956.73 212.218 1953.1 208.607 Q1949.49 204.996 1949.49 198.839 Q1949.49 192.473 1952.91 188.746 Q1956.36 184.996 1962.19 184.996 Q1967.43 184.996 1970.46 188.376 Q1973.51 191.732 1973.51 197.519 M1969.25 196.269 Q1969.21 192.774 1967.29 190.691 Q1965.39 188.607 1962.24 188.607 Q1958.68 188.607 1956.52 190.621 Q1954.39 192.635 1954.07 196.293 L1969.25 196.269 Z" fill="#000000" fill-rule="evenodd" fill-opacity="1" /><path clip-path="url(#clip370)" d="M2002.06 195.899 L2002.06 211.547 L1997.8 211.547 L1997.8 196.038 Q1997.8 192.357 1996.36 190.529 Q1994.93 188.7 1992.06 188.7 Q1988.61 188.7 1986.62 190.899 Q1984.62 193.098 1984.62 196.894 L1984.62 211.547 L1980.34 211.547 L1980.34 185.621 L1984.62 185.621 L1984.62 189.649 Q1986.15 187.311 1988.21 186.154 Q1990.3 184.996 1993 184.996 Q1997.47 184.996 1999.76 187.774 Q2002.06 190.529 2002.06 195.899 Z" fill="#000000" fill-rule="evenodd" fill-opacity="1" /><path clip-path="url(#clip370)" d="M2036.62 179.649 L2036.62 184.58 Q2034.25 182.381 2031.57 181.293 Q2028.91 180.205 2025.9 180.205 Q2019.97 180.205 2016.82 183.839 Q2013.68 187.45 2013.68 194.302 Q2013.68 201.131 2016.82 204.765 Q2019.97 208.376 2025.9 208.376 Q2028.91 208.376 2031.57 207.288 Q2034.25 206.2 2036.62 204.001 L2036.62 208.885 Q2034.16 210.552 2031.41 211.385 Q2028.68 212.218 2025.62 212.218 Q2017.77 212.218 2013.26 207.427 Q2008.75 202.612 2008.75 194.302 Q2008.75 185.969 2013.26 181.177 Q2017.77 176.362 2025.62 176.362 Q2028.72 176.362 2031.45 177.196 Q2034.21 178.006 2036.62 179.649 Z" fill="#000000" fill-rule="evenodd" fill-opacity="1" /><path clip-path="url(#clip370)" d="M2055.43 198.515 Q2050.27 198.515 2048.28 199.695 Q2046.29 200.876 2046.29 203.723 Q2046.29 205.992 2047.77 207.334 Q2049.28 208.654 2051.85 208.654 Q2055.39 208.654 2057.52 206.154 Q2059.67 203.631 2059.67 199.464 L2059.67 198.515 L2055.43 198.515 M2063.93 196.756 L2063.93 211.547 L2059.67 211.547 L2059.67 207.612 Q2058.21 209.973 2056.04 211.107 Q2053.86 212.218 2050.71 212.218 Q2046.73 212.218 2044.37 209.996 Q2042.03 207.751 2042.03 204.001 Q2042.03 199.626 2044.95 197.404 Q2047.89 195.182 2053.7 195.182 L2059.67 195.182 L2059.67 194.765 Q2059.67 191.825 2057.73 190.228 Q2055.81 188.607 2052.31 188.607 Q2050.09 188.607 2047.98 189.14 Q2045.87 189.672 2043.93 190.737 L2043.93 186.802 Q2046.27 185.899 2048.47 185.459 Q2050.67 184.996 2052.75 184.996 Q2058.37 184.996 2061.15 187.913 Q2063.93 190.83 2063.93 196.756 Z" fill="#000000" fill-rule="evenodd" fill-opacity="1" /><path clip-path="url(#clip370)" d="M2087.73 189.603 Q2087.01 189.186 2086.15 189.001 Q2085.32 188.793 2084.3 188.793 Q2080.69 188.793 2078.74 191.154 Q2076.82 193.492 2076.82 197.89 L2076.82 211.547 L2072.54 211.547 L2072.54 185.621 L2076.82 185.621 L2076.82 189.649 Q2078.17 187.288 2080.32 186.154 Q2082.47 184.996 2085.55 184.996 Q2085.99 184.996 2086.52 185.066 Q2087.05 185.112 2087.7 185.228 L2087.73 189.603 Z" fill="#000000" fill-rule="evenodd" fill-opacity="1" /><path clip-path="url(#clip370)" d="M2096.31 207.658 L2096.31 221.408 L2092.03 221.408 L2092.03 185.621 L2096.31 185.621 L2096.31 189.557 Q2097.66 187.242 2099.69 186.131 Q2101.75 184.996 2104.6 184.996 Q2109.32 184.996 2112.26 188.746 Q2115.23 192.496 2115.23 198.607 Q2115.23 204.719 2112.26 208.468 Q2109.32 212.218 2104.6 212.218 Q2101.75 212.218 2099.69 211.107 Q2097.66 209.973 2096.31 207.658 M2110.8 198.607 Q2110.8 193.908 2108.86 191.246 Q2106.94 188.561 2103.56 188.561 Q2100.18 188.561 2098.24 191.246 Q2096.31 193.908 2096.31 198.607 Q2096.31 203.306 2098.24 205.992 Q2100.18 208.654 2103.56 208.654 Q2106.94 208.654 2108.86 205.992 Q2110.8 203.306 2110.8 198.607 Z" fill="#000000" fill-rule="evenodd" fill-opacity="1" /><path clip-path="url(#clip370)" d="M2122.93 176.987 L2141.29 176.987 L2141.29 180.922 L2127.22 180.922 L2127.22 189.395 Q2128.24 189.047 2129.25 188.885 Q2130.27 188.7 2131.29 188.7 Q2137.08 188.7 2140.46 191.871 Q2143.84 195.043 2143.84 200.459 Q2143.84 206.038 2140.36 209.14 Q2136.89 212.218 2130.57 212.218 Q2128.4 212.218 2126.13 211.848 Q2123.88 211.478 2121.48 210.737 L2121.48 206.038 Q2123.56 207.172 2125.78 207.728 Q2128 208.283 2130.48 208.283 Q2134.49 208.283 2136.82 206.177 Q2139.16 204.07 2139.16 200.459 Q2139.16 196.848 2136.82 194.742 Q2134.49 192.635 2130.48 192.635 Q2128.61 192.635 2126.73 193.052 Q2124.88 193.469 2122.93 194.348 L2122.93 176.987 Z" fill="#000000" fill-rule="evenodd" fill-opacity="1" /><polyline clip-path="url(#clip370)" style="stroke:#3da44d; stroke-linecap:butt; stroke-linejoin:round; stroke-width:4; stroke-opacity:1; fill:none" points="
  1766.78,246.107 1900.51,246.107 
  "/>
<line clip-path="url(#clip370)" x1="1833.65" y1="246.107" x2="1833.65" y2="220.507" style="stroke:#3da44d; stroke-width:4.9152; stroke-opacity:1"/>
<line clip-path="url(#clip370)" x1="1833.65" y1="246.107" x2="1808.05" y2="246.107" style="stroke:#3da44d; stroke-width:4.9152; stroke-opacity:1"/>
<line clip-path="url(#clip370)" x1="1833.65" y1="246.107" x2="1833.65" y2="271.707" style="stroke:#3da44d; stroke-width:4.9152; stroke-opacity:1"/>
<line clip-path="url(#clip370)" x1="1833.65" y1="246.107" x2="1859.25" y2="246.107" style="stroke:#3da44d; stroke-width:4.9152; stroke-opacity:1"/>
<path clip-path="url(#clip370)" d="M1922.8 228.827 L1927.47 228.827 L1927.47 243.434 L1942.98 228.827 L1949 228.827 L1931.85 244.938 L1950.23 263.387 L1944.07 263.387 L1927.47 246.744 L1927.47 263.387 L1922.8 263.387 L1922.8 228.827 Z" fill="#000000" fill-rule="evenodd" fill-opacity="1" /><path clip-path="url(#clip370)" d="M1973.51 249.359 L1973.51 251.443 L1953.93 251.443 Q1954.21 255.841 1956.57 258.156 Q1958.95 260.447 1963.19 260.447 Q1965.64 260.447 1967.94 259.846 Q1970.25 259.244 1972.52 258.04 L1972.52 262.068 Q1970.23 263.04 1967.82 263.549 Q1965.41 264.058 1962.94 264.058 Q1956.73 264.058 1953.1 260.447 Q1949.49 256.836 1949.49 250.679 Q1949.49 244.313 1952.91 240.586 Q1956.36 236.836 1962.19 236.836 Q1967.43 236.836 1970.46 240.216 Q1973.51 243.572 1973.51 249.359 M1969.25 248.109 Q1969.21 244.614 1967.29 242.531 Q1965.39 240.447 1962.24 240.447 Q1958.68 240.447 1956.52 242.461 Q1954.39 244.475 1954.07 248.133 L1969.25 248.109 Z" fill="#000000" fill-rule="evenodd" fill-opacity="1" /><path clip-path="url(#clip370)" d="M2002.06 247.739 L2002.06 263.387 L1997.8 263.387 L1997.8 247.878 Q1997.8 244.197 1996.36 242.369 Q1994.93 240.54 1992.06 240.54 Q1988.61 240.54 1986.62 242.739 Q1984.62 244.938 1984.62 248.734 L1984.62 263.387 L1980.34 263.387 L1980.34 237.461 L1984.62 237.461 L1984.62 241.489 Q1986.15 239.151 1988.21 237.994 Q1990.3 236.836 1993 236.836 Q1997.47 236.836 1999.76 239.614 Q2002.06 242.369 2002.06 247.739 Z" fill="#000000" fill-rule="evenodd" fill-opacity="1" /><path clip-path="url(#clip370)" d="M2036.62 231.489 L2036.62 236.42 Q2034.25 234.221 2031.57 233.133 Q2028.91 232.045 2025.9 232.045 Q2019.97 232.045 2016.82 235.679 Q2013.68 239.29 2013.68 246.142 Q2013.68 252.971 2016.82 256.605 Q2019.97 260.216 2025.9 260.216 Q2028.91 260.216 2031.57 259.128 Q2034.25 258.04 2036.62 255.841 L2036.62 260.725 Q2034.16 262.392 2031.41 263.225 Q2028.68 264.058 2025.62 264.058 Q2017.77 264.058 2013.26 259.267 Q2008.75 254.452 2008.75 246.142 Q2008.75 237.809 2013.26 233.017 Q2017.77 228.202 2025.62 228.202 Q2028.72 228.202 2031.45 229.036 Q2034.21 229.846 2036.62 231.489 Z" fill="#000000" fill-rule="evenodd" fill-opacity="1" /><path clip-path="url(#clip370)" d="M2055.43 250.355 Q2050.27 250.355 2048.28 251.535 Q2046.29 252.716 2046.29 255.563 Q2046.29 257.832 2047.77 259.174 Q2049.28 260.494 2051.85 260.494 Q2055.39 260.494 2057.52 257.994 Q2059.67 255.471 2059.67 251.304 L2059.67 250.355 L2055.43 250.355 M2063.93 248.596 L2063.93 263.387 L2059.67 263.387 L2059.67 259.452 Q2058.21 261.813 2056.04 262.947 Q2053.86 264.058 2050.71 264.058 Q2046.73 264.058 2044.37 261.836 Q2042.03 259.591 2042.03 255.841 Q2042.03 251.466 2044.95 249.244 Q2047.89 247.022 2053.7 247.022 L2059.67 247.022 L2059.67 246.605 Q2059.67 243.665 2057.73 242.068 Q2055.81 240.447 2052.31 240.447 Q2050.09 240.447 2047.98 240.98 Q2045.87 241.512 2043.93 242.577 L2043.93 238.642 Q2046.27 237.739 2048.47 237.299 Q2050.67 236.836 2052.75 236.836 Q2058.37 236.836 2061.15 239.753 Q2063.93 242.67 2063.93 248.596 Z" fill="#000000" fill-rule="evenodd" fill-opacity="1" /><path clip-path="url(#clip370)" d="M2087.73 241.443 Q2087.01 241.026 2086.15 240.841 Q2085.32 240.633 2084.3 240.633 Q2080.69 240.633 2078.74 242.994 Q2076.82 245.332 2076.82 249.73 L2076.82 263.387 L2072.54 263.387 L2072.54 237.461 L2076.82 237.461 L2076.82 241.489 Q2078.17 239.128 2080.32 237.994 Q2082.47 236.836 2085.55 236.836 Q2085.99 236.836 2086.52 236.906 Q2087.05 236.952 2087.7 237.068 L2087.73 241.443 Z" fill="#000000" fill-rule="evenodd" fill-opacity="1" /><path clip-path="url(#clip370)" d="M2096.31 259.498 L2096.31 273.248 L2092.03 273.248 L2092.03 237.461 L2096.31 237.461 L2096.31 241.397 Q2097.66 239.082 2099.69 237.971 Q2101.75 236.836 2104.6 236.836 Q2109.32 236.836 2112.26 240.586 Q2115.23 244.336 2115.23 250.447 Q2115.23 256.559 2112.26 260.308 Q2109.32 264.058 2104.6 264.058 Q2101.75 264.058 2099.69 262.947 Q2097.66 261.813 2096.31 259.498 M2110.8 250.447 Q2110.8 245.748 2108.86 243.086 Q2106.94 240.401 2103.56 240.401 Q2100.18 240.401 2098.24 243.086 Q2096.31 245.748 2096.31 250.447 Q2096.31 255.146 2098.24 257.832 Q2100.18 260.494 2103.56 260.494 Q2106.94 260.494 2108.86 257.832 Q2110.8 255.146 2110.8 250.447 Z" fill="#000000" fill-rule="evenodd" fill-opacity="1" /><path clip-path="url(#clip370)" d="M2135.74 232.901 L2123.93 251.35 L2135.74 251.35 L2135.74 232.901 M2134.51 228.827 L2140.39 228.827 L2140.39 251.35 L2145.32 251.35 L2145.32 255.239 L2140.39 255.239 L2140.39 263.387 L2135.74 263.387 L2135.74 255.239 L2120.13 255.239 L2120.13 250.725 L2134.51 228.827 Z" fill="#000000" fill-rule="evenodd" fill-opacity="1" /><polyline clip-path="url(#clip370)" style="stroke:#c271d2; stroke-linecap:butt; stroke-linejoin:round; stroke-width:4; stroke-opacity:1; fill:none" points="
  1766.78,297.947 1900.51,297.947 
  "/>
<path clip-path="url(#clip370)" d="M1833.65 272.347 L1808.05 297.947 L1833.65 323.547 L1859.25 297.947 L1833.65 272.347 Z" fill="#c271d2" fill-rule="evenodd" fill-opacity="1" stroke="#000000" stroke-opacity="1" stroke-width="4.9152"/>
<path clip-path="url(#clip370)" d="M1922.8 280.667 L1927.47 280.667 L1927.47 295.274 L1942.98 280.667 L1949 280.667 L1931.85 296.778 L1950.23 315.227 L1944.07 315.227 L1927.47 298.584 L1927.47 315.227 L1922.8 315.227 L1922.8 280.667 Z" fill="#000000" fill-rule="evenodd" fill-opacity="1" /><path clip-path="url(#clip370)" d="M1973.51 301.199 L1973.51 303.283 L1953.93 303.283 Q1954.21 307.681 1956.57 309.996 Q1958.95 312.287 1963.19 312.287 Q1965.64 312.287 1967.94 311.686 Q1970.25 311.084 1972.52 309.88 L1972.52 313.908 Q1970.23 314.88 1967.82 315.389 Q1965.41 315.898 1962.94 315.898 Q1956.73 315.898 1953.1 312.287 Q1949.49 308.676 1949.49 302.519 Q1949.49 296.153 1952.91 292.426 Q1956.36 288.676 1962.19 288.676 Q1967.43 288.676 1970.46 292.056 Q1973.51 295.412 1973.51 301.199 M1969.25 299.949 Q1969.21 296.454 1967.29 294.371 Q1965.39 292.287 1962.24 292.287 Q1958.68 292.287 1956.52 294.301 Q1954.39 296.315 1954.07 299.973 L1969.25 299.949 Z" fill="#000000" fill-rule="evenodd" fill-opacity="1" /><path clip-path="url(#clip370)" d="M2002.06 299.579 L2002.06 315.227 L1997.8 315.227 L1997.8 299.718 Q1997.8 296.037 1996.36 294.209 Q1994.93 292.38 1992.06 292.38 Q1988.61 292.38 1986.62 294.579 Q1984.62 296.778 1984.62 300.574 L1984.62 315.227 L1980.34 315.227 L1980.34 289.301 L1984.62 289.301 L1984.62 293.329 Q1986.15 290.991 1988.21 289.834 Q1990.3 288.676 1993 288.676 Q1997.47 288.676 1999.76 291.454 Q2002.06 294.209 2002.06 299.579 Z" fill="#000000" fill-rule="evenodd" fill-opacity="1" /><path clip-path="url(#clip370)" d="M2036.62 283.329 L2036.62 288.26 Q2034.25 286.061 2031.57 284.973 Q2028.91 283.885 2025.9 283.885 Q2019.97 283.885 2016.82 287.519 Q2013.68 291.13 2013.68 297.982 Q2013.68 304.811 2016.82 308.445 Q2019.97 312.056 2025.9 312.056 Q2028.91 312.056 2031.57 310.968 Q2034.25 309.88 2036.62 307.681 L2036.62 312.565 Q2034.16 314.232 2031.41 315.065 Q2028.68 315.898 2025.62 315.898 Q2017.77 315.898 2013.26 311.107 Q2008.75 306.292 2008.75 297.982 Q2008.75 289.649 2013.26 284.857 Q2017.77 280.042 2025.62 280.042 Q2028.72 280.042 2031.45 280.876 Q2034.21 281.686 2036.62 283.329 Z" fill="#000000" fill-rule="evenodd" fill-opacity="1" /><path clip-path="url(#clip370)" d="M2055.43 302.195 Q2050.27 302.195 2048.28 303.375 Q2046.29 304.556 2046.29 307.403 Q2046.29 309.672 2047.77 311.014 Q2049.28 312.334 2051.85 312.334 Q2055.39 312.334 2057.52 309.834 Q2059.67 307.311 2059.67 303.144 L2059.67 302.195 L2055.43 302.195 M2063.93 300.436 L2063.93 315.227 L2059.67 315.227 L2059.67 311.292 Q2058.21 313.653 2056.04 314.787 Q2053.86 315.898 2050.71 315.898 Q2046.73 315.898 2044.37 313.676 Q2042.03 311.431 2042.03 307.681 Q2042.03 303.306 2044.95 301.084 Q2047.89 298.862 2053.7 298.862 L2059.67 298.862 L2059.67 298.445 Q2059.67 295.505 2057.73 293.908 Q2055.81 292.287 2052.31 292.287 Q2050.09 292.287 2047.98 292.82 Q2045.87 293.352 2043.93 294.417 L2043.93 290.482 Q2046.27 289.579 2048.47 289.139 Q2050.67 288.676 2052.75 288.676 Q2058.37 288.676 2061.15 291.593 Q2063.93 294.51 2063.93 300.436 Z" fill="#000000" fill-rule="evenodd" fill-opacity="1" /><path clip-path="url(#clip370)" d="M2087.73 293.283 Q2087.01 292.866 2086.15 292.681 Q2085.32 292.473 2084.3 292.473 Q2080.69 292.473 2078.74 294.834 Q2076.82 297.172 2076.82 301.57 L2076.82 315.227 L2072.54 315.227 L2072.54 289.301 L2076.82 289.301 L2076.82 293.329 Q2078.17 290.968 2080.32 289.834 Q2082.47 288.676 2085.55 288.676 Q2085.99 288.676 2086.52 288.746 Q2087.05 288.792 2087.7 288.908 L2087.73 293.283 Z" fill="#000000" fill-rule="evenodd" fill-opacity="1" /><path clip-path="url(#clip370)" d="M2096.31 311.338 L2096.31 325.088 L2092.03 325.088 L2092.03 289.301 L2096.31 289.301 L2096.31 293.237 Q2097.66 290.922 2099.69 289.811 Q2101.75 288.676 2104.6 288.676 Q2109.32 288.676 2112.26 292.426 Q2115.23 296.176 2115.23 302.287 Q2115.23 308.399 2112.26 312.148 Q2109.32 315.898 2104.6 315.898 Q2101.75 315.898 2099.69 314.787 Q2097.66 313.653 2096.31 311.338 M2110.8 302.287 Q2110.8 297.588 2108.86 294.926 Q2106.94 292.241 2103.56 292.241 Q2100.18 292.241 2098.24 294.926 Q2096.31 297.588 2096.31 302.287 Q2096.31 306.986 2098.24 309.672 Q2100.18 312.334 2103.56 312.334 Q2106.94 312.334 2108.86 309.672 Q2110.8 306.986 2110.8 302.287 Z" fill="#000000" fill-rule="evenodd" fill-opacity="1" /><path clip-path="url(#clip370)" d="M2137.05 296.593 Q2140.41 297.311 2142.29 299.579 Q2144.18 301.848 2144.18 305.181 Q2144.18 310.297 2140.67 313.098 Q2137.15 315.898 2130.67 315.898 Q2128.49 315.898 2126.18 315.459 Q2123.88 315.042 2121.43 314.186 L2121.43 309.672 Q2123.37 310.806 2125.69 311.385 Q2128 311.963 2130.53 311.963 Q2134.93 311.963 2137.22 310.227 Q2139.53 308.491 2139.53 305.181 Q2139.53 302.125 2137.38 300.412 Q2135.25 298.676 2131.43 298.676 L2127.4 298.676 L2127.4 294.834 L2131.61 294.834 Q2135.06 294.834 2136.89 293.468 Q2138.72 292.079 2138.72 289.487 Q2138.72 286.825 2136.82 285.413 Q2134.95 283.977 2131.43 283.977 Q2129.51 283.977 2127.31 284.394 Q2125.11 284.811 2122.47 285.69 L2122.47 281.524 Q2125.13 280.783 2127.45 280.413 Q2129.79 280.042 2131.85 280.042 Q2137.17 280.042 2140.27 282.473 Q2143.37 284.88 2143.37 289 Q2143.37 291.871 2141.73 293.862 Q2140.09 295.829 2137.05 296.593 Z" fill="#000000" fill-rule="evenodd" fill-opacity="1" /><polyline clip-path="url(#clip370)" style="stroke:#ac8d18; stroke-linecap:butt; stroke-linejoin:round; stroke-width:4; stroke-opacity:1; fill:none" points="
  1766.78,349.787 1900.51,349.787 
  "/>
<path clip-path="url(#clip370)" d="M1859.25 324.187 L1808.05 324.187 L1833.65 375.387 L1859.25 324.187 Z" fill="#ac8d18" fill-rule="evenodd" fill-opacity="1" stroke="#000000" stroke-opacity="1" stroke-width="4.9152"/>
<path clip-path="url(#clip370)" d="M1938.63 337.114 L1932.29 354.313 L1945 354.313 L1938.63 337.114 M1935.99 332.507 L1941.29 332.507 L1954.46 367.067 L1949.6 367.067 L1946.45 358.201 L1930.88 358.201 L1927.73 367.067 L1922.8 367.067 L1935.99 332.507 Z" fill="#000000" fill-rule="evenodd" fill-opacity="1" /><path clip-path="url(#clip370)" d="M1975.9 350.864 Q1977.4 351.373 1978.81 353.039 Q1980.25 354.706 1981.69 357.623 L1986.43 367.067 L1981.41 367.067 L1976.99 358.201 Q1975.27 354.729 1973.65 353.595 Q1972.06 352.461 1969.28 352.461 L1964.19 352.461 L1964.19 367.067 L1959.51 367.067 L1959.51 332.507 L1970.06 332.507 Q1975.99 332.507 1978.91 334.984 Q1981.82 337.461 1981.82 342.461 Q1981.82 345.725 1980.3 347.877 Q1978.79 350.03 1975.9 350.864 M1964.19 336.35 L1964.19 348.618 L1970.06 348.618 Q1973.44 348.618 1975.16 347.067 Q1976.89 345.493 1976.89 342.461 Q1976.89 339.428 1975.16 337.901 Q1973.44 336.35 1970.06 336.35 L1964.19 336.35 Z" fill="#000000" fill-rule="evenodd" fill-opacity="1" /><path clip-path="url(#clip370)" d="M1992.45 332.507 L1997.12 332.507 L1997.12 347.114 L2012.63 332.507 L2018.65 332.507 L2001.5 348.618 L2019.88 367.067 L2013.72 367.067 L1997.12 350.424 L1997.12 367.067 L1992.45 367.067 L1992.45 332.507 Z" fill="#000000" fill-rule="evenodd" fill-opacity="1" /><path clip-path="url(#clip370)" d="M2034.97 335.678 Q2029.88 335.678 2026.87 339.475 Q2023.88 343.271 2023.88 349.822 Q2023.88 356.35 2026.87 360.146 Q2029.88 363.942 2034.97 363.942 Q2040.06 363.942 2043.03 360.146 Q2046.01 356.35 2046.01 349.822 Q2046.01 343.271 2043.03 339.475 Q2040.06 335.678 2034.97 335.678 M2034.97 331.882 Q2042.24 331.882 2046.59 336.766 Q2050.94 341.628 2050.94 349.822 Q2050.94 357.993 2046.59 362.877 Q2042.24 367.738 2034.97 367.738 Q2027.68 367.738 2023.31 362.877 Q2018.95 358.016 2018.95 349.822 Q2018.95 341.628 2023.31 336.766 Q2027.68 331.882 2034.97 331.882 Z" fill="#000000" fill-rule="evenodd" fill-opacity="1" /><path clip-path="url(#clip370)" d="M2062.93 336.35 L2062.93 363.225 L2068.58 363.225 Q2075.74 363.225 2079.05 359.984 Q2082.38 356.743 2082.38 349.752 Q2082.38 342.808 2079.05 339.59 Q2075.74 336.35 2068.58 336.35 L2062.93 336.35 M2058.26 332.507 L2067.87 332.507 Q2077.91 332.507 2082.61 336.697 Q2087.31 340.864 2087.31 349.752 Q2087.31 358.688 2082.59 362.877 Q2077.87 367.067 2067.87 367.067 L2058.26 367.067 L2058.26 332.507 Z" fill="#000000" fill-rule="evenodd" fill-opacity="1" /><path clip-path="url(#clip370)" d="M2094.76 332.507 L2116.61 332.507 L2116.61 336.442 L2099.44 336.442 L2099.44 346.674 L2115.9 346.674 L2115.9 350.609 L2099.44 350.609 L2099.44 363.132 L2117.03 363.132 L2117.03 367.067 L2094.76 367.067 L2094.76 332.507 Z" fill="#000000" fill-rule="evenodd" fill-opacity="1" /><polyline clip-path="url(#clip370)" style="stroke:#00a9ad; stroke-linecap:butt; stroke-linejoin:round; stroke-width:4; stroke-opacity:1; fill:none" points="
  1766.78,401.627 1900.51,401.627 
  "/>
<path clip-path="url(#clip370)" d="M1833.65 376.027 L1813.63 385.678 L1808.69 407.336 L1822.54 424.693 L1844.76 424.693 L1858.61 407.336 L1853.67 385.678 Z" fill="#00a9ad" fill-rule="evenodd" fill-opacity="1" stroke="#000000" stroke-opacity="1" stroke-width="4.9152"/>
<path clip-path="url(#clip370)" d="M1938.63 388.954 L1932.29 406.153 L1945 406.153 L1938.63 388.954 M1935.99 384.347 L1941.29 384.347 L1954.46 418.907 L1949.6 418.907 L1946.45 410.041 L1930.88 410.041 L1927.73 418.907 L1922.8 418.907 L1935.99 384.347 Z" fill="#000000" fill-rule="evenodd" fill-opacity="1" /><path clip-path="url(#clip370)" d="M1975.9 402.704 Q1977.4 403.213 1978.81 404.879 Q1980.25 406.546 1981.69 409.463 L1986.43 418.907 L1981.41 418.907 L1976.99 410.041 Q1975.27 406.569 1973.65 405.435 Q1972.06 404.301 1969.28 404.301 L1964.19 404.301 L1964.19 418.907 L1959.51 418.907 L1959.51 384.347 L1970.06 384.347 Q1975.99 384.347 1978.91 386.824 Q1981.82 389.301 1981.82 394.301 Q1981.82 397.565 1980.3 399.717 Q1978.79 401.87 1975.9 402.704 M1964.19 388.19 L1964.19 400.458 L1970.06 400.458 Q1973.44 400.458 1975.16 398.907 Q1976.89 397.333 1976.89 394.301 Q1976.89 391.268 1975.16 389.741 Q1973.44 388.19 1970.06 388.19 L1964.19 388.19 Z" fill="#000000" fill-rule="evenodd" fill-opacity="1" /><path clip-path="url(#clip370)" d="M1992.45 384.347 L1997.12 384.347 L1997.12 398.954 L2012.63 384.347 L2018.65 384.347 L2001.5 400.458 L2019.88 418.907 L2013.72 418.907 L1997.12 402.264 L1997.12 418.907 L1992.45 418.907 L1992.45 384.347 Z" fill="#000000" fill-rule="evenodd" fill-opacity="1" /><path clip-path="url(#clip370)" d="M2034.97 387.518 Q2029.88 387.518 2026.87 391.315 Q2023.88 395.111 2023.88 401.662 Q2023.88 408.19 2026.87 411.986 Q2029.88 415.782 2034.97 415.782 Q2040.06 415.782 2043.03 411.986 Q2046.01 408.19 2046.01 401.662 Q2046.01 395.111 2043.03 391.315 Q2040.06 387.518 2034.97 387.518 M2034.97 383.722 Q2042.24 383.722 2046.59 388.606 Q2050.94 393.468 2050.94 401.662 Q2050.94 409.833 2046.59 414.717 Q2042.24 419.578 2034.97 419.578 Q2027.68 419.578 2023.31 414.717 Q2018.95 409.856 2018.95 401.662 Q2018.95 393.468 2023.31 388.606 Q2027.68 383.722 2034.97 383.722 Z" fill="#000000" fill-rule="evenodd" fill-opacity="1" /><path clip-path="url(#clip370)" d="M2062.93 388.19 L2062.93 415.065 L2068.58 415.065 Q2075.74 415.065 2079.05 411.824 Q2082.38 408.583 2082.38 401.592 Q2082.38 394.648 2079.05 391.43 Q2075.74 388.19 2068.58 388.19 L2062.93 388.19 M2058.26 384.347 L2067.87 384.347 Q2077.91 384.347 2082.61 388.537 Q2087.31 392.704 2087.31 401.592 Q2087.31 410.528 2082.59 414.717 Q2077.87 418.907 2067.87 418.907 L2058.26 418.907 L2058.26 384.347 Z" fill="#000000" fill-rule="evenodd" fill-opacity="1" /><path clip-path="url(#clip370)" d="M2094.76 384.347 L2116.61 384.347 L2116.61 388.282 L2099.44 388.282 L2099.44 398.514 L2115.9 398.514 L2115.9 402.449 L2099.44 402.449 L2099.44 414.972 L2117.03 414.972 L2117.03 418.907 L2094.76 418.907 L2094.76 384.347 Z" fill="#000000" fill-rule="evenodd" fill-opacity="1" /><polyline clip-path="url(#clip370)" style="stroke:#ed5d92; stroke-linecap:butt; stroke-linejoin:round; stroke-width:4; stroke-opacity:1; fill:none" points="
  1766.78,453.467 1900.51,453.467 
  "/>
<path clip-path="url(#clip370)" d="M1833.65 479.067 L1811.48 466.267 L1811.48 440.667 L1833.65 427.867 L1855.82 440.667 L1855.82 466.267 Z" fill="#ed5d92" fill-rule="evenodd" fill-opacity="1" stroke="#000000" stroke-opacity="1" stroke-width="4.9152"/>
<path clip-path="url(#clip370)" d="M1938.63 440.794 L1932.29 457.993 L1945 457.993 L1938.63 440.794 M1935.99 436.187 L1941.29 436.187 L1954.46 470.747 L1949.6 470.747 L1946.45 461.881 L1930.88 461.881 L1927.73 470.747 L1922.8 470.747 L1935.99 436.187 Z" fill="#000000" fill-rule="evenodd" fill-opacity="1" /><path clip-path="url(#clip370)" d="M1975.9 454.544 Q1977.4 455.053 1978.81 456.719 Q1980.25 458.386 1981.69 461.303 L1986.43 470.747 L1981.41 470.747 L1976.99 461.881 Q1975.27 458.409 1973.65 457.275 Q1972.06 456.141 1969.28 456.141 L1964.19 456.141 L1964.19 470.747 L1959.51 470.747 L1959.51 436.187 L1970.06 436.187 Q1975.99 436.187 1978.91 438.664 Q1981.82 441.141 1981.82 446.141 Q1981.82 449.405 1980.3 451.557 Q1978.79 453.71 1975.9 454.544 M1964.19 440.03 L1964.19 452.298 L1970.06 452.298 Q1973.44 452.298 1975.16 450.747 Q1976.89 449.173 1976.89 446.141 Q1976.89 443.108 1975.16 441.581 Q1973.44 440.03 1970.06 440.03 L1964.19 440.03 Z" fill="#000000" fill-rule="evenodd" fill-opacity="1" /><path clip-path="url(#clip370)" d="M1992.45 436.187 L1997.12 436.187 L1997.12 450.794 L2012.63 436.187 L2018.65 436.187 L2001.5 452.298 L2019.88 470.747 L2013.72 470.747 L1997.12 454.104 L1997.12 470.747 L1992.45 470.747 L1992.45 436.187 Z" fill="#000000" fill-rule="evenodd" fill-opacity="1" /><path clip-path="url(#clip370)" d="M2034.97 439.358 Q2029.88 439.358 2026.87 443.155 Q2023.88 446.951 2023.88 453.502 Q2023.88 460.03 2026.87 463.826 Q2029.88 467.622 2034.97 467.622 Q2040.06 467.622 2043.03 463.826 Q2046.01 460.03 2046.01 453.502 Q2046.01 446.951 2043.03 443.155 Q2040.06 439.358 2034.97 439.358 M2034.97 435.562 Q2042.24 435.562 2046.59 440.446 Q2050.94 445.308 2050.94 453.502 Q2050.94 461.673 2046.59 466.557 Q2042.24 471.418 2034.97 471.418 Q2027.68 471.418 2023.31 466.557 Q2018.95 461.696 2018.95 453.502 Q2018.95 445.308 2023.31 440.446 Q2027.68 435.562 2034.97 435.562 Z" fill="#000000" fill-rule="evenodd" fill-opacity="1" /><path clip-path="url(#clip370)" d="M2062.93 440.03 L2062.93 466.905 L2068.58 466.905 Q2075.74 466.905 2079.05 463.664 Q2082.38 460.423 2082.38 453.432 Q2082.38 446.488 2079.05 443.27 Q2075.74 440.03 2068.58 440.03 L2062.93 440.03 M2058.26 436.187 L2067.87 436.187 Q2077.91 436.187 2082.61 440.377 Q2087.31 444.544 2087.31 453.432 Q2087.31 462.368 2082.59 466.557 Q2077.87 470.747 2067.87 470.747 L2058.26 470.747 L2058.26 436.187 Z" fill="#000000" fill-rule="evenodd" fill-opacity="1" /><path clip-path="url(#clip370)" d="M2094.76 436.187 L2116.61 436.187 L2116.61 440.122 L2099.44 440.122 L2099.44 450.354 L2115.9 450.354 L2115.9 454.289 L2099.44 454.289 L2099.44 466.812 L2117.03 466.812 L2117.03 470.747 L2094.76 470.747 L2094.76 436.187 Z" fill="#000000" fill-rule="evenodd" fill-opacity="1" /></svg>
