<?xml version="1.0" encoding="utf-8"?>
<svg xmlns="http://www.w3.org/2000/svg" xmlns:xlink="http://www.w3.org/1999/xlink" width="576" height="384" viewBox="0 0 2304 1536">
<defs>
  <clipPath id="clip890">
    <rect x="0" y="0" width="2304" height="1536"/>
  </clipPath>
</defs>
<path clip-path="url(#clip890)" d="
M0 1536 L2304 1536 L2304 0 L0 0  Z
  " fill="#ffffff" fill-rule="evenodd" fill-opacity="1"/>
<defs>
  <clipPath id="clip891">
    <rect x="460" y="0" width="1614" height="1536"/>
  </clipPath>
</defs>
<path clip-path="url(#clip890)" d="
M288.159 1347.54 L2256.76 1347.54 L2256.76 47.2441 L288.159 47.2441  Z
  " fill="#ffffff" fill-rule="evenodd" fill-opacity="1"/>
<defs>
  <clipPath id="clip892">
    <rect x="288" y="47" width="1970" height="1301"/>
  </clipPath>
</defs>
<polyline clip-path="url(#clip892)" style="stroke:#000000; stroke-linecap:butt; stroke-linejoin:round; stroke-width:2; stroke-opacity:0.1; fill:none" points="
  452.134,1347.54 452.134,47.2441 
  "/>
<polyline clip-path="url(#clip892)" style="stroke:#000000; stroke-linecap:butt; stroke-linejoin:round; stroke-width:2; stroke-opacity:0.1; fill:none" points="
  1073.15,1347.54 1073.15,47.2441 
  "/>
<polyline clip-path="url(#clip892)" style="stroke:#000000; stroke-linecap:butt; stroke-linejoin:round; stroke-width:2; stroke-opacity:0.1; fill:none" points="
  1694.17,1347.54 1694.17,47.2441 
  "/>
<polyline clip-path="url(#clip890)" style="stroke:#000000; stroke-linecap:butt; stroke-linejoin:round; stroke-width:4; stroke-opacity:1; fill:none" points="
  288.159,1347.54 2256.76,1347.54 
  "/>
<polyline clip-path="url(#clip890)" style="stroke:#000000; stroke-linecap:butt; stroke-linejoin:round; stroke-width:4; stroke-opacity:1; fill:none" points="
  452.134,1347.54 452.134,1328.64 
  "/>
<polyline clip-path="url(#clip890)" style="stroke:#000000; stroke-linecap:butt; stroke-linejoin:round; stroke-width:4; stroke-opacity:1; fill:none" points="
  1073.15,1347.54 1073.15,1328.64 
  "/>
<polyline clip-path="url(#clip890)" style="stroke:#000000; stroke-linecap:butt; stroke-linejoin:round; stroke-width:4; stroke-opacity:1; fill:none" points="
  1694.17,1347.54 1694.17,1328.64 
  "/>
<path clip-path="url(#clip890)" d="M401.685 1420.89 L409.324 1420.89 L409.324 1394.53 L401.014 1396.19 L401.014 1391.94 L409.278 1390.27 L413.954 1390.27 L413.954 1420.89 L421.593 1420.89 L421.593 1424.83 L401.685 1424.83 L401.685 1420.89 Z" fill="#000000" fill-rule="evenodd" fill-opacity="1" /><path clip-path="url(#clip890)" d="M441.037 1393.35 Q437.426 1393.35 435.597 1396.91 Q433.792 1400.45 433.792 1407.58 Q433.792 1414.69 435.597 1418.25 Q437.426 1421.8 441.037 1421.8 Q444.671 1421.8 446.477 1418.25 Q448.305 1414.69 448.305 1407.58 Q448.305 1400.45 446.477 1396.91 Q444.671 1393.35 441.037 1393.35 M441.037 1389.64 Q446.847 1389.64 449.903 1394.25 Q452.981 1398.83 452.981 1407.58 Q452.981 1416.31 449.903 1420.92 Q446.847 1425.5 441.037 1425.5 Q435.227 1425.5 432.148 1420.92 Q429.093 1416.31 429.093 1407.58 Q429.093 1398.83 432.148 1394.25 Q435.227 1389.64 441.037 1389.64 Z" fill="#000000" fill-rule="evenodd" fill-opacity="1" /><path clip-path="url(#clip890)" d="M452.981 1383.74 L477.093 1383.74 L477.093 1386.94 L452.981 1386.94 L452.981 1383.74 Z" fill="#000000" fill-rule="evenodd" fill-opacity="1" /><path clip-path="url(#clip890)" d="M493.888 1381.86 Q491.33 1381.86 489.826 1383.61 Q488.34 1385.36 488.34 1388.41 Q488.34 1391.44 489.826 1393.21 Q491.33 1394.95 493.888 1394.95 Q496.446 1394.95 497.932 1393.21 Q499.437 1391.44 499.437 1388.41 Q499.437 1385.36 497.932 1383.61 Q496.446 1381.86 493.888 1381.86 M501.43 1369.96 L501.43 1373.42 Q500.001 1372.74 498.534 1372.39 Q497.086 1372.03 495.656 1372.03 Q491.895 1372.03 489.901 1374.57 Q487.926 1377.11 487.644 1382.24 Q488.754 1380.6 490.428 1379.74 Q492.102 1378.85 494.114 1378.85 Q498.346 1378.85 500.791 1381.43 Q503.255 1383.99 503.255 1388.41 Q503.255 1392.74 500.697 1395.35 Q498.139 1397.96 493.888 1397.96 Q489.017 1397.96 486.44 1394.24 Q483.864 1390.5 483.864 1383.41 Q483.864 1376.75 487.023 1372.8 Q490.183 1368.83 495.506 1368.83 Q496.935 1368.83 498.383 1369.11 Q499.85 1369.39 501.43 1369.96 Z" fill="#000000" fill-rule="evenodd" fill-opacity="1" /><path clip-path="url(#clip890)" d="M1023.17 1420.89 L1030.81 1420.89 L1030.81 1394.53 L1022.5 1396.19 L1022.5 1391.94 L1030.76 1390.27 L1035.44 1390.27 L1035.44 1420.89 L1043.08 1420.89 L1043.08 1424.83 L1023.17 1424.83 L1023.17 1420.89 Z" fill="#000000" fill-rule="evenodd" fill-opacity="1" /><path clip-path="url(#clip890)" d="M1062.52 1393.35 Q1058.91 1393.35 1057.08 1396.91 Q1055.28 1400.45 1055.28 1407.58 Q1055.28 1414.69 1057.08 1418.25 Q1058.91 1421.8 1062.52 1421.8 Q1066.16 1421.8 1067.96 1418.25 Q1069.79 1414.69 1069.79 1407.58 Q1069.79 1400.45 1067.96 1396.91 Q1066.16 1393.35 1062.52 1393.35 M1062.52 1389.64 Q1068.33 1389.64 1071.39 1394.25 Q1074.47 1398.83 1074.47 1407.58 Q1074.47 1416.31 1071.39 1420.92 Q1068.33 1425.5 1062.52 1425.5 Q1056.71 1425.5 1053.63 1420.92 Q1050.58 1416.31 1050.58 1407.58 Q1050.58 1398.83 1053.63 1394.25 Q1056.71 1389.64 1062.52 1389.64 Z" fill="#000000" fill-rule="evenodd" fill-opacity="1" /><path clip-path="url(#clip890)" d="M1074.47 1383.74 L1098.58 1383.74 L1098.58 1386.94 L1074.47 1386.94 L1074.47 1383.74 Z" fill="#000000" fill-rule="evenodd" fill-opacity="1" /><path clip-path="url(#clip890)" d="M1106.82 1369.34 L1121.73 1369.34 L1121.73 1372.54 L1110.3 1372.54 L1110.3 1379.42 Q1111.12 1379.14 1111.95 1379.01 Q1112.78 1378.85 1113.61 1378.85 Q1118.31 1378.85 1121.05 1381.43 Q1123.8 1384.01 1123.8 1388.41 Q1123.8 1392.94 1120.98 1395.46 Q1118.16 1397.96 1113.02 1397.96 Q1111.26 1397.96 1109.41 1397.66 Q1107.59 1397.36 1105.63 1396.76 L1105.63 1392.94 Q1107.32 1393.86 1109.13 1394.31 Q1110.94 1394.77 1112.95 1394.77 Q1116.2 1394.77 1118.1 1393.05 Q1120 1391.34 1120 1388.41 Q1120 1385.48 1118.1 1383.76 Q1116.2 1382.05 1112.95 1382.05 Q1111.42 1382.05 1109.9 1382.39 Q1108.4 1382.73 1106.82 1383.44 L1106.82 1369.34 Z" fill="#000000" fill-rule="evenodd" fill-opacity="1" /><path clip-path="url(#clip890)" d="M1643.59 1420.89 L1651.22 1420.89 L1651.22 1394.53 L1642.91 1396.19 L1642.91 1391.94 L1651.18 1390.27 L1655.85 1390.27 L1655.85 1420.89 L1663.49 1420.89 L1663.49 1424.83 L1643.59 1424.83 L1643.59 1420.89 Z" fill="#000000" fill-rule="evenodd" fill-opacity="1" /><path clip-path="url(#clip890)" d="M1682.94 1393.35 Q1679.33 1393.35 1677.5 1396.91 Q1675.69 1400.45 1675.69 1407.58 Q1675.69 1414.69 1677.5 1418.25 Q1679.33 1421.8 1682.94 1421.8 Q1686.57 1421.8 1688.38 1418.25 Q1690.21 1414.69 1690.21 1407.58 Q1690.21 1400.45 1688.38 1396.91 Q1686.57 1393.35 1682.94 1393.35 M1682.94 1389.64 Q1688.75 1389.64 1691.8 1394.25 Q1694.88 1398.83 1694.88 1407.58 Q1694.88 1416.31 1691.8 1420.92 Q1688.75 1425.5 1682.94 1425.5 Q1677.13 1425.5 1674.05 1420.92 Q1670.99 1416.31 1670.99 1407.58 Q1670.99 1398.83 1674.05 1394.25 Q1677.13 1389.64 1682.94 1389.64 Z" fill="#000000" fill-rule="evenodd" fill-opacity="1" /><path clip-path="url(#clip890)" d="M1694.88 1383.74 L1718.99 1383.74 L1718.99 1386.94 L1694.88 1386.94 L1694.88 1383.74 Z" fill="#000000" fill-rule="evenodd" fill-opacity="1" /><path clip-path="url(#clip890)" d="M1737.63 1372.65 L1728.04 1387.64 L1737.63 1387.64 L1737.63 1372.65 M1736.63 1369.34 L1741.41 1369.34 L1741.41 1387.64 L1745.42 1387.64 L1745.42 1390.8 L1741.41 1390.8 L1741.41 1397.42 L1737.63 1397.42 L1737.63 1390.8 L1724.95 1390.8 L1724.95 1387.13 L1736.63 1369.34 Z" fill="#000000" fill-rule="evenodd" fill-opacity="1" /><path clip-path="url(#clip890)" d="M1196.21 1461.87 L1226.26 1461.87 L1226.26 1467.28 L1202.64 1467.28 L1202.64 1481.34 L1225.27 1481.34 L1225.27 1486.76 L1202.64 1486.76 L1202.64 1503.97 L1226.83 1503.97 L1226.83 1509.39 L1196.21 1509.39 L1196.21 1461.87 Z" fill="#000000" fill-rule="evenodd" fill-opacity="1" /><path clip-path="url(#clip890)" d="M1257.8 1479.21 Q1256.81 1478.64 1255.64 1478.38 Q1254.49 1478.1 1253.09 1478.1 Q1248.12 1478.1 1245.45 1481.34 Q1242.81 1484.56 1242.81 1490.61 L1242.81 1509.39 L1236.92 1509.39 L1236.92 1473.74 L1242.81 1473.74 L1242.81 1479.28 Q1244.66 1476.03 1247.62 1474.47 Q1250.58 1472.88 1254.81 1472.88 Q1255.41 1472.88 1256.15 1472.97 Q1256.88 1473.04 1257.77 1473.2 L1257.8 1479.21 Z" fill="#000000" fill-rule="evenodd" fill-opacity="1" /><path clip-path="url(#clip890)" d="M1283.45 1479.21 Q1282.47 1478.64 1281.29 1478.38 Q1280.14 1478.1 1278.74 1478.1 Q1273.78 1478.1 1271.1 1481.34 Q1268.46 1484.56 1268.46 1490.61 L1268.46 1509.39 L1262.57 1509.39 L1262.57 1473.74 L1268.46 1473.74 L1268.46 1479.28 Q1270.31 1476.03 1273.27 1474.47 Q1276.23 1472.88 1280.46 1472.88 Q1281.07 1472.88 1281.8 1472.97 Q1282.53 1473.04 1283.42 1473.2 L1283.45 1479.21 Z" fill="#000000" fill-rule="evenodd" fill-opacity="1" /><path clip-path="url(#clip890)" d="M1301.98 1477.84 Q1297.27 1477.84 1294.53 1481.54 Q1291.79 1485.2 1291.79 1491.59 Q1291.79 1497.99 1294.5 1501.68 Q1297.24 1505.34 1301.98 1505.34 Q1306.66 1505.34 1309.39 1501.65 Q1312.13 1497.96 1312.13 1491.59 Q1312.13 1485.26 1309.39 1481.57 Q1306.66 1477.84 1301.98 1477.84 M1301.98 1472.88 Q1309.62 1472.88 1313.98 1477.84 Q1318.34 1482.81 1318.34 1491.59 Q1318.34 1500.35 1313.98 1505.34 Q1309.62 1510.31 1301.98 1510.31 Q1294.31 1510.31 1289.95 1505.34 Q1285.62 1500.35 1285.62 1491.59 Q1285.62 1482.81 1289.95 1477.84 Q1294.31 1472.88 1301.98 1472.88 Z" fill="#000000" fill-rule="evenodd" fill-opacity="1" /><path clip-path="url(#clip890)" d="M1348.7 1479.21 Q1347.72 1478.64 1346.54 1478.38 Q1345.39 1478.1 1343.99 1478.1 Q1339.03 1478.1 1336.35 1481.34 Q1333.71 1484.56 1333.71 1490.61 L1333.71 1509.39 L1327.82 1509.39 L1327.82 1473.74 L1333.71 1473.74 L1333.71 1479.28 Q1335.56 1476.03 1338.52 1474.47 Q1341.48 1472.88 1345.71 1472.88 Q1346.32 1472.88 1347.05 1472.97 Q1347.78 1473.04 1348.67 1473.2 L1348.7 1479.21 Z" fill="#000000" fill-rule="evenodd" fill-opacity="1" /><polyline clip-path="url(#clip892)" style="stroke:#000000; stroke-linecap:butt; stroke-linejoin:round; stroke-width:2; stroke-opacity:0.1; fill:none" points="
  288.159,990.056 2256.76,990.056 
  "/>
<polyline clip-path="url(#clip892)" style="stroke:#000000; stroke-linecap:butt; stroke-linejoin:round; stroke-width:2; stroke-opacity:0.1; fill:none" points="
  288.159,521.354 2256.76,521.354 
  "/>
<polyline clip-path="url(#clip892)" style="stroke:#000000; stroke-linecap:butt; stroke-linejoin:round; stroke-width:2; stroke-opacity:0.1; fill:none" points="
  288.159,52.6513 2256.76,52.6513 
  "/>
<polyline clip-path="url(#clip890)" style="stroke:#000000; stroke-linecap:butt; stroke-linejoin:round; stroke-width:4; stroke-opacity:1; fill:none" points="
  288.159,1347.54 288.159,47.2441 
  "/>
<polyline clip-path="url(#clip890)" style="stroke:#000000; stroke-linecap:butt; stroke-linejoin:round; stroke-width:4; stroke-opacity:1; fill:none" points="
  288.159,990.056 307.057,990.056 
  "/>
<polyline clip-path="url(#clip890)" style="stroke:#000000; stroke-linecap:butt; stroke-linejoin:round; stroke-width:4; stroke-opacity:1; fill:none" points="
  288.159,521.354 307.057,521.354 
  "/>
<polyline clip-path="url(#clip890)" style="stroke:#000000; stroke-linecap:butt; stroke-linejoin:round; stroke-width:4; stroke-opacity:1; fill:none" points="
  288.159,52.6513 307.057,52.6513 
  "/>
<path clip-path="url(#clip890)" d="M115.411 1009.85 L123.05 1009.85 L123.05 983.483 L114.74 985.149 L114.74 980.89 L123.004 979.223 L127.68 979.223 L127.68 1009.85 L135.319 1009.85 L135.319 1013.78 L115.411 1013.78 L115.411 1009.85 Z" fill="#000000" fill-rule="evenodd" fill-opacity="1" /><path clip-path="url(#clip890)" d="M154.763 982.302 Q151.152 982.302 149.323 985.867 Q147.518 989.409 147.518 996.538 Q147.518 1003.64 149.323 1007.21 Q151.152 1010.75 154.763 1010.75 Q158.397 1010.75 160.203 1007.21 Q162.032 1003.64 162.032 996.538 Q162.032 989.409 160.203 985.867 Q158.397 982.302 154.763 982.302 M154.763 978.598 Q160.573 978.598 163.629 983.205 Q166.707 987.788 166.707 996.538 Q166.707 1005.26 163.629 1009.87 Q160.573 1014.45 154.763 1014.45 Q148.953 1014.45 145.874 1009.87 Q142.819 1005.26 142.819 996.538 Q142.819 987.788 145.874 983.205 Q148.953 978.598 154.763 978.598 Z" fill="#000000" fill-rule="evenodd" fill-opacity="1" /><path clip-path="url(#clip890)" d="M166.707 972.7 L190.819 972.7 L190.819 975.897 L166.707 975.897 L166.707 972.7 Z" fill="#000000" fill-rule="evenodd" fill-opacity="1" /><path clip-path="url(#clip890)" d="M209.458 961.603 L199.866 976.593 L209.458 976.593 L209.458 961.603 M208.461 958.293 L213.238 958.293 L213.238 976.593 L217.244 976.593 L217.244 979.753 L213.238 979.753 L213.238 986.373 L209.458 986.373 L209.458 979.753 L196.781 979.753 L196.781 976.085 L208.461 958.293 Z" fill="#000000" fill-rule="evenodd" fill-opacity="1" /><path clip-path="url(#clip890)" d="M223.526 981.596 L227.494 981.596 L227.494 986.373 L223.526 986.373 L223.526 981.596 Z" fill="#000000" fill-rule="evenodd" fill-opacity="1" /><path clip-path="url(#clip890)" d="M243.895 960.794 Q240.961 960.794 239.475 963.691 Q238.008 966.568 238.008 972.361 Q238.008 978.135 239.475 981.032 Q240.961 983.909 243.895 983.909 Q246.847 983.909 248.314 981.032 Q249.8 978.135 249.8 972.361 Q249.8 966.568 248.314 963.691 Q246.847 960.794 243.895 960.794 M243.895 957.785 Q248.615 957.785 251.098 961.528 Q253.599 965.252 253.599 972.361 Q253.599 979.452 251.098 983.194 Q248.615 986.918 243.895 986.918 Q239.174 986.918 236.672 983.194 Q234.19 979.452 234.19 972.361 Q234.19 965.252 236.672 961.528 Q239.174 957.785 243.895 957.785 Z" fill="#000000" fill-rule="evenodd" fill-opacity="1" /><path clip-path="url(#clip890)" d="M116.22 541.146 L123.859 541.146 L123.859 514.78 L115.549 516.447 L115.549 512.188 L123.813 510.521 L128.489 510.521 L128.489 541.146 L136.127 541.146 L136.127 545.081 L116.22 545.081 L116.22 541.146 Z" fill="#000000" fill-rule="evenodd" fill-opacity="1" /><path clip-path="url(#clip890)" d="M155.572 513.6 Q151.961 513.6 150.132 517.165 Q148.326 520.706 148.326 527.836 Q148.326 534.942 150.132 538.507 Q151.961 542.049 155.572 542.049 Q159.206 542.049 161.012 538.507 Q162.84 534.942 162.84 527.836 Q162.84 520.706 161.012 517.165 Q159.206 513.6 155.572 513.6 M155.572 509.896 Q161.382 509.896 164.438 514.503 Q167.516 519.086 167.516 527.836 Q167.516 536.563 164.438 541.169 Q161.382 545.752 155.572 545.752 Q149.762 545.752 146.683 541.169 Q143.627 536.563 143.627 527.836 Q143.627 519.086 146.683 514.503 Q149.762 509.896 155.572 509.896 Z" fill="#000000" fill-rule="evenodd" fill-opacity="1" /><path clip-path="url(#clip890)" d="M167.516 503.997 L191.628 503.997 L191.628 507.195 L167.516 507.195 L167.516 503.997 Z" fill="#000000" fill-rule="evenodd" fill-opacity="1" /><path clip-path="url(#clip890)" d="M211.338 502.53 Q214.065 503.114 215.589 504.957 Q217.131 506.8 217.131 509.508 Q217.131 513.665 214.272 515.94 Q211.414 518.216 206.147 518.216 Q204.379 518.216 202.499 517.859 Q200.637 517.52 198.643 516.824 L198.643 513.157 Q200.223 514.078 202.104 514.549 Q203.984 515.019 206.035 515.019 Q209.608 515.019 211.47 513.608 Q213.351 512.198 213.351 509.508 Q213.351 507.026 211.602 505.634 Q209.871 504.223 206.768 504.223 L203.495 504.223 L203.495 501.101 L206.918 501.101 Q209.721 501.101 211.207 499.991 Q212.692 498.863 212.692 496.757 Q212.692 494.594 211.15 493.446 Q209.627 492.28 206.768 492.28 Q205.207 492.28 203.42 492.619 Q201.633 492.957 199.489 493.672 L199.489 490.287 Q201.652 489.685 203.533 489.384 Q205.433 489.083 207.107 489.083 Q211.432 489.083 213.953 491.058 Q216.473 493.014 216.473 496.362 Q216.473 498.694 215.137 500.311 Q213.802 501.91 211.338 502.53 Z" fill="#000000" fill-rule="evenodd" fill-opacity="1" /><path clip-path="url(#clip890)" d="M224.334 512.894 L228.303 512.894 L228.303 517.671 L224.334 517.671 L224.334 512.894 Z" fill="#000000" fill-rule="evenodd" fill-opacity="1" /><path clip-path="url(#clip890)" d="M236.616 489.591 L251.531 489.591 L251.531 492.788 L240.095 492.788 L240.095 499.672 Q240.923 499.39 241.75 499.258 Q242.578 499.107 243.406 499.107 Q248.107 499.107 250.853 501.684 Q253.599 504.261 253.599 508.662 Q253.599 513.194 250.778 515.715 Q247.957 518.216 242.823 518.216 Q241.055 518.216 239.211 517.915 Q237.387 517.614 235.431 517.012 L235.431 513.194 Q237.124 514.116 238.929 514.567 Q240.735 515.019 242.747 515.019 Q246.001 515.019 247.901 513.307 Q249.8 511.596 249.8 508.662 Q249.8 505.728 247.901 504.016 Q246.001 502.305 242.747 502.305 Q241.224 502.305 239.7 502.643 Q238.196 502.982 236.616 503.697 L236.616 489.591 Z" fill="#000000" fill-rule="evenodd" fill-opacity="1" /><path clip-path="url(#clip890)" d="M115.411 72.4437 L123.05 72.4437 L123.05 46.0781 L114.74 47.7448 L114.74 43.4855 L123.004 41.8189 L127.68 41.8189 L127.68 72.4437 L135.319 72.4437 L135.319 76.3789 L115.411 76.3789 L115.411 72.4437 Z" fill="#000000" fill-rule="evenodd" fill-opacity="1" /><path clip-path="url(#clip890)" d="M154.763 44.8976 Q151.152 44.8976 149.323 48.4624 Q147.518 52.004 147.518 59.1336 Q147.518 66.24 149.323 69.8048 Q151.152 73.3465 154.763 73.3465 Q158.397 73.3465 160.203 69.8048 Q162.032 66.24 162.032 59.1336 Q162.032 52.004 160.203 48.4624 Q158.397 44.8976 154.763 44.8976 M154.763 41.1939 Q160.573 41.1939 163.629 45.8003 Q166.707 50.3836 166.707 59.1336 Q166.707 67.8604 163.629 72.4669 Q160.573 77.0502 154.763 77.0502 Q148.953 77.0502 145.874 72.4669 Q142.819 67.8604 142.819 59.1336 Q142.819 50.3836 145.874 45.8003 Q148.953 41.1939 154.763 41.1939 Z" fill="#000000" fill-rule="evenodd" fill-opacity="1" /><path clip-path="url(#clip890)" d="M166.707 35.2952 L190.819 35.2952 L190.819 38.4926 L166.707 38.4926 L166.707 35.2952 Z" fill="#000000" fill-rule="evenodd" fill-opacity="1" /><path clip-path="url(#clip890)" d="M210.53 33.8282 Q213.257 34.4113 214.78 36.2544 Q216.322 38.0976 216.322 40.8059 Q216.322 44.9624 213.464 47.2382 Q210.605 49.5139 205.339 49.5139 Q203.571 49.5139 201.69 49.1566 Q199.828 48.818 197.834 48.1221 L197.834 44.4546 Q199.414 45.3762 201.295 45.8464 Q203.176 46.3166 205.226 46.3166 Q208.799 46.3166 210.661 44.906 Q212.542 43.4954 212.542 40.8059 Q212.542 38.3233 210.793 36.9315 Q209.063 35.5209 205.959 35.5209 L202.687 35.5209 L202.687 32.3988 L206.11 32.3988 Q208.912 32.3988 210.398 31.2892 Q211.884 30.1607 211.884 28.0542 Q211.884 25.8913 210.341 24.7441 Q208.818 23.578 205.959 23.578 Q204.398 23.578 202.612 23.9165 Q200.825 24.2551 198.681 24.9698 L198.681 21.5844 Q200.844 20.9825 202.724 20.6816 Q204.624 20.3807 206.298 20.3807 Q210.624 20.3807 213.144 22.3555 Q215.664 24.3115 215.664 27.6593 Q215.664 29.9914 214.329 31.6089 Q212.993 33.2076 210.53 33.8282 Z" fill="#000000" fill-rule="evenodd" fill-opacity="1" /><path clip-path="url(#clip890)" d="M223.526 44.1913 L227.494 44.1913 L227.494 48.9685 L223.526 48.9685 L223.526 44.1913 Z" fill="#000000" fill-rule="evenodd" fill-opacity="1" /><path clip-path="url(#clip890)" d="M243.895 23.3899 Q240.961 23.3899 239.475 26.2863 Q238.008 29.1639 238.008 34.9567 Q238.008 40.7307 239.475 43.6271 Q240.961 46.5047 243.895 46.5047 Q246.847 46.5047 248.314 43.6271 Q249.8 40.7307 249.8 34.9567 Q249.8 29.1639 248.314 26.2863 Q246.847 23.3899 243.895 23.3899 M243.895 20.3807 Q248.615 20.3807 251.098 24.1234 Q253.599 27.8474 253.599 34.9567 Q253.599 42.0472 251.098 45.79 Q248.615 49.5139 243.895 49.5139 Q239.174 49.5139 236.672 45.79 Q234.19 42.0472 234.19 34.9567 Q234.19 27.8474 236.672 24.1234 Q239.174 20.3807 243.895 20.3807 Z" fill="#000000" fill-rule="evenodd" fill-opacity="1" /><path clip-path="url(#clip890)" d="M18.4042 827.219 L18.4042 787.02 L23.815 787.02 L23.815 803.889 L65.9242 803.889 L65.9242 810.35 L23.815 810.35 L23.815 827.219 L18.4042 827.219 Z" fill="#000000" fill-rule="evenodd" fill-opacity="1" /><path clip-path="url(#clip890)" d="M30.2762 783.073 L30.2762 777.216 L65.9242 777.216 L65.9242 783.073 L30.2762 783.073 M16.399 783.073 L16.399 777.216 L23.815 777.216 L23.815 783.073 L16.399 783.073 Z" fill="#000000" fill-rule="evenodd" fill-opacity="1" /><path clip-path="url(#clip890)" d="M37.1193 737.208 Q33.1726 735.012 31.2947 731.956 Q29.4168 728.901 29.4168 724.763 Q29.4168 719.193 33.3317 716.169 Q37.2148 713.145 44.4081 713.145 L65.9242 713.145 L65.9242 719.034 L44.599 719.034 Q39.4746 719.034 36.992 720.848 Q34.5094 722.662 34.5094 726.386 Q34.5094 730.938 37.5331 733.579 Q40.5568 736.221 45.7767 736.221 L65.9242 736.221 L65.9242 742.109 L44.599 742.109 Q39.4428 742.109 36.992 743.924 Q34.5094 745.738 34.5094 749.526 Q34.5094 754.013 37.5649 756.655 Q40.5886 759.297 45.7767 759.297 L65.9242 759.297 L65.9242 765.185 L30.2762 765.185 L30.2762 759.297 L35.8144 759.297 Q32.536 757.292 30.9764 754.491 Q29.4168 751.69 29.4168 747.839 Q29.4168 743.956 31.3902 741.25 Q33.3636 738.513 37.1193 737.208 Z" fill="#000000" fill-rule="evenodd" fill-opacity="1" /><path clip-path="url(#clip890)" d="M46.6361 670.973 L49.5006 670.973 L49.5006 697.9 Q55.5481 697.518 58.7309 694.271 Q61.8819 690.993 61.8819 685.168 Q61.8819 681.794 61.0544 678.643 Q60.2269 675.461 58.5718 672.341 L64.1099 672.341 Q65.4467 675.492 66.147 678.803 Q66.8472 682.113 66.8472 685.518 Q66.8472 694.048 61.8819 699.045 Q56.9167 704.011 48.4503 704.011 Q39.6974 704.011 34.5731 699.3 Q29.4168 694.558 29.4168 686.537 Q29.4168 679.344 34.0638 675.174 Q38.6789 670.973 46.6361 670.973 M44.9173 676.829 Q40.1112 676.893 37.2466 679.535 Q34.3821 682.145 34.3821 686.473 Q34.3821 691.375 37.1512 694.335 Q39.9202 697.263 44.9492 697.709 L44.9173 676.829 Z" fill="#000000" fill-rule="evenodd" fill-opacity="1" /><path clip-path="url(#clip890)" d="M16.4626 626.572 Q23.7832 630.837 30.9446 632.906 Q38.106 634.975 45.4584 634.975 Q52.8108 634.975 60.0359 632.906 Q67.2291 630.805 74.5179 626.572 L74.5179 631.664 Q67.0382 636.439 59.8131 638.826 Q52.588 641.181 45.4584 641.181 Q38.3606 641.181 31.1674 638.826 Q23.9742 636.471 16.4626 631.664 L16.4626 626.572 Z" fill="#000000" fill-rule="evenodd" fill-opacity="1" /><path clip-path="url(#clip890)" d="M31.3265 592.484 L36.8647 592.484 Q35.5916 594.966 34.955 597.64 Q34.3184 600.313 34.3184 603.178 Q34.3184 607.538 35.6552 609.735 Q36.992 611.899 39.6656 611.899 Q41.7026 611.899 42.8803 610.339 Q44.0261 608.78 45.0765 604.069 L45.5221 602.064 Q46.8589 595.826 49.3097 593.216 Q51.7286 590.574 56.0891 590.574 Q61.0544 590.574 63.9508 594.521 Q66.8472 598.435 66.8472 605.31 Q66.8472 608.175 66.2743 611.294 Q65.7332 614.382 64.6192 617.819 L58.5718 617.819 Q60.2587 614.573 61.118 611.422 Q61.9456 608.27 61.9456 605.183 Q61.9456 601.045 60.5451 598.817 Q59.1129 596.589 56.5347 596.589 Q54.1476 596.589 52.8745 598.213 Q51.6013 599.804 50.4237 605.247 L49.9462 607.284 Q48.8004 612.726 46.4451 615.145 Q44.058 617.564 39.9202 617.564 Q34.8913 617.564 32.1541 614 Q29.4168 610.435 29.4168 603.878 Q29.4168 600.632 29.8943 597.767 Q30.3717 594.902 31.3265 592.484 Z" fill="#000000" fill-rule="evenodd" fill-opacity="1" /><path clip-path="url(#clip890)" d="M16.4626 582.171 L16.4626 577.079 Q23.9742 572.304 31.1674 569.949 Q38.3606 567.562 45.4584 567.562 Q52.588 567.562 59.8131 569.949 Q67.0382 572.304 74.5179 577.079 L74.5179 582.171 Q67.2291 577.938 60.0359 575.869 Q52.8108 573.768 45.4584 573.768 Q38.106 573.768 30.9446 575.869 Q23.7832 577.938 16.4626 582.171 Z" fill="#000000" fill-rule="evenodd" fill-opacity="1" /><polyline clip-path="url(#clip892)" style="stroke:#009af9; stroke-linecap:butt; stroke-linejoin:round; stroke-width:12; stroke-opacity:1; fill:none" points="
  1979.82,1310.74 1445.52,1037.09 1059.08,754.313 653.116,445.34 
  "/>
<line clip-path="url(#clip892)" x1="1979.82" y1="1310.74" x2="1979.82" y2="1294.74" style="stroke:#009af9; stroke-width:3.072; stroke-opacity:1"/>
<line clip-path="url(#clip892)" x1="1979.82" y1="1310.74" x2="1963.82" y2="1310.74" style="stroke:#009af9; stroke-width:3.072; stroke-opacity:1"/>
<line clip-path="url(#clip892)" x1="1979.82" y1="1310.74" x2="1979.82" y2="1326.74" style="stroke:#009af9; stroke-width:3.072; stroke-opacity:1"/>
<line clip-path="url(#clip892)" x1="1979.82" y1="1310.74" x2="1995.82" y2="1310.74" style="stroke:#009af9; stroke-width:3.072; stroke-opacity:1"/>
<line clip-path="url(#clip892)" x1="1445.52" y1="1037.09" x2="1445.52" y2="1021.09" style="stroke:#009af9; stroke-width:3.072; stroke-opacity:1"/>
<line clip-path="url(#clip892)" x1="1445.52" y1="1037.09" x2="1429.52" y2="1037.09" style="stroke:#009af9; stroke-width:3.072; stroke-opacity:1"/>
<line clip-path="url(#clip892)" x1="1445.52" y1="1037.09" x2="1445.52" y2="1053.09" style="stroke:#009af9; stroke-width:3.072; stroke-opacity:1"/>
<line clip-path="url(#clip892)" x1="1445.52" y1="1037.09" x2="1461.52" y2="1037.09" style="stroke:#009af9; stroke-width:3.072; stroke-opacity:1"/>
<line clip-path="url(#clip892)" x1="1059.08" y1="754.313" x2="1059.08" y2="738.313" style="stroke:#009af9; stroke-width:3.072; stroke-opacity:1"/>
<line clip-path="url(#clip892)" x1="1059.08" y1="754.313" x2="1043.08" y2="754.313" style="stroke:#009af9; stroke-width:3.072; stroke-opacity:1"/>
<line clip-path="url(#clip892)" x1="1059.08" y1="754.313" x2="1059.08" y2="770.313" style="stroke:#009af9; stroke-width:3.072; stroke-opacity:1"/>
<line clip-path="url(#clip892)" x1="1059.08" y1="754.313" x2="1075.08" y2="754.313" style="stroke:#009af9; stroke-width:3.072; stroke-opacity:1"/>
<line clip-path="url(#clip892)" x1="653.116" y1="445.34" x2="653.116" y2="429.34" style="stroke:#009af9; stroke-width:3.072; stroke-opacity:1"/>
<line clip-path="url(#clip892)" x1="653.116" y1="445.34" x2="637.116" y2="445.34" style="stroke:#009af9; stroke-width:3.072; stroke-opacity:1"/>
<line clip-path="url(#clip892)" x1="653.116" y1="445.34" x2="653.116" y2="461.34" style="stroke:#009af9; stroke-width:3.072; stroke-opacity:1"/>
<line clip-path="url(#clip892)" x1="653.116" y1="445.34" x2="669.116" y2="445.34" style="stroke:#009af9; stroke-width:3.072; stroke-opacity:1"/>
<polyline clip-path="url(#clip892)" style="stroke:#e26f46; stroke-linecap:butt; stroke-linejoin:round; stroke-width:12; stroke-opacity:1; fill:none" points="
  1623.91,751.38 1224.64,638.978 813.96,474.551 409.172,280.611 
  "/>
<circle clip-path="url(#clip892)" cx="1623.91" cy="751.38" r="14" fill="#e26f46" fill-rule="evenodd" fill-opacity="1" stroke="#000000" stroke-opacity="1" stroke-width="3.072"/>
<circle clip-path="url(#clip892)" cx="1224.64" cy="638.978" r="14" fill="#e26f46" fill-rule="evenodd" fill-opacity="1" stroke="#000000" stroke-opacity="1" stroke-width="3.072"/>
<circle clip-path="url(#clip892)" cx="813.96" cy="474.551" r="14" fill="#e26f46" fill-rule="evenodd" fill-opacity="1" stroke="#000000" stroke-opacity="1" stroke-width="3.072"/>
<circle clip-path="url(#clip892)" cx="409.172" cy="280.611" r="14" fill="#e26f46" fill-rule="evenodd" fill-opacity="1" stroke="#000000" stroke-opacity="1" stroke-width="3.072"/>
<polyline clip-path="url(#clip892)" style="stroke:#3da44d; stroke-linecap:butt; stroke-linejoin:round; stroke-width:12; stroke-opacity:1; fill:none" points="
  2201.04,589.122 1705.77,563.318 1205.39,358.823 524.705,326.129 
  "/>
<line clip-path="url(#clip892)" x1="2201.04" y1="589.122" x2="2201.04" y2="573.122" style="stroke:#3da44d; stroke-width:3.072; stroke-opacity:1"/>
<line clip-path="url(#clip892)" x1="2201.04" y1="589.122" x2="2185.04" y2="589.122" style="stroke:#3da44d; stroke-width:3.072; stroke-opacity:1"/>
<line clip-path="url(#clip892)" x1="2201.04" y1="589.122" x2="2201.04" y2="605.122" style="stroke:#3da44d; stroke-width:3.072; stroke-opacity:1"/>
<line clip-path="url(#clip892)" x1="2201.04" y1="589.122" x2="2217.04" y2="589.122" style="stroke:#3da44d; stroke-width:3.072; stroke-opacity:1"/>
<line clip-path="url(#clip892)" x1="1705.77" y1="563.318" x2="1705.77" y2="547.318" style="stroke:#3da44d; stroke-width:3.072; stroke-opacity:1"/>
<line clip-path="url(#clip892)" x1="1705.77" y1="563.318" x2="1689.77" y2="563.318" style="stroke:#3da44d; stroke-width:3.072; stroke-opacity:1"/>
<line clip-path="url(#clip892)" x1="1705.77" y1="563.318" x2="1705.77" y2="579.318" style="stroke:#3da44d; stroke-width:3.072; stroke-opacity:1"/>
<line clip-path="url(#clip892)" x1="1705.77" y1="563.318" x2="1721.77" y2="563.318" style="stroke:#3da44d; stroke-width:3.072; stroke-opacity:1"/>
<line clip-path="url(#clip892)" x1="1205.39" y1="358.823" x2="1205.39" y2="342.823" style="stroke:#3da44d; stroke-width:3.072; stroke-opacity:1"/>
<line clip-path="url(#clip892)" x1="1205.39" y1="358.823" x2="1189.39" y2="358.823" style="stroke:#3da44d; stroke-width:3.072; stroke-opacity:1"/>
<line clip-path="url(#clip892)" x1="1205.39" y1="358.823" x2="1205.39" y2="374.823" style="stroke:#3da44d; stroke-width:3.072; stroke-opacity:1"/>
<line clip-path="url(#clip892)" x1="1205.39" y1="358.823" x2="1221.39" y2="358.823" style="stroke:#3da44d; stroke-width:3.072; stroke-opacity:1"/>
<line clip-path="url(#clip892)" x1="524.705" y1="326.129" x2="524.705" y2="310.129" style="stroke:#3da44d; stroke-width:3.072; stroke-opacity:1"/>
<line clip-path="url(#clip892)" x1="524.705" y1="326.129" x2="508.705" y2="326.129" style="stroke:#3da44d; stroke-width:3.072; stroke-opacity:1"/>
<line clip-path="url(#clip892)" x1="524.705" y1="326.129" x2="524.705" y2="342.129" style="stroke:#3da44d; stroke-width:3.072; stroke-opacity:1"/>
<line clip-path="url(#clip892)" x1="524.705" y1="326.129" x2="540.705" y2="326.129" style="stroke:#3da44d; stroke-width:3.072; stroke-opacity:1"/>
<polyline clip-path="url(#clip892)" style="stroke:#c271d2; stroke-linecap:butt; stroke-linejoin:round; stroke-width:12; stroke-opacity:1; fill:none" points="
  1442.9,738.999 933.045,613.271 561.621,548.148 343.874,459.291 
  "/>
<path clip-path="url(#clip892)" d="M1442.9 722.999 L1426.9 738.999 L1442.9 754.999 L1458.9 738.999 L1442.9 722.999 Z" fill="#c271d2" fill-rule="evenodd" fill-opacity="1" stroke="#000000" stroke-opacity="1" stroke-width="3.072"/>
<path clip-path="url(#clip892)" d="M933.045 597.271 L917.045 613.271 L933.045 629.271 L949.045 613.271 L933.045 597.271 Z" fill="#c271d2" fill-rule="evenodd" fill-opacity="1" stroke="#000000" stroke-opacity="1" stroke-width="3.072"/>
<path clip-path="url(#clip892)" d="M561.621 532.148 L545.621 548.148 L561.621 564.148 L577.621 548.148 L561.621 532.148 Z" fill="#c271d2" fill-rule="evenodd" fill-opacity="1" stroke="#000000" stroke-opacity="1" stroke-width="3.072"/>
<path clip-path="url(#clip892)" d="M343.874 443.291 L327.874 459.291 L343.874 475.291 L359.874 459.291 L343.874 443.291 Z" fill="#c271d2" fill-rule="evenodd" fill-opacity="1" stroke="#000000" stroke-opacity="1" stroke-width="3.072"/>
<polyline clip-path="url(#clip892)" style="stroke:#ac8d18; stroke-linecap:butt; stroke-linejoin:round; stroke-width:12; stroke-opacity:1; fill:none" points="
  1935.08,901.865 1714.86,791.13 1491.78,658.246 1269.18,484.331 
  "/>
<path clip-path="url(#clip892)" d="M1951.08 885.865 L1919.08 885.865 L1935.08 917.865 L1951.08 885.865 Z" fill="#ac8d18" fill-rule="evenodd" fill-opacity="1" stroke="#000000" stroke-opacity="1" stroke-width="3.072"/>
<path clip-path="url(#clip892)" d="M1730.86 775.13 L1698.86 775.13 L1714.86 807.13 L1730.86 775.13 Z" fill="#ac8d18" fill-rule="evenodd" fill-opacity="1" stroke="#000000" stroke-opacity="1" stroke-width="3.072"/>
<path clip-path="url(#clip892)" d="M1507.78 642.246 L1475.78 642.246 L1491.78 674.246 L1507.78 642.246 Z" fill="#ac8d18" fill-rule="evenodd" fill-opacity="1" stroke="#000000" stroke-opacity="1" stroke-width="3.072"/>
<path clip-path="url(#clip892)" d="M1285.18 468.331 L1253.18 468.331 L1269.18 500.331 L1285.18 468.331 Z" fill="#ac8d18" fill-rule="evenodd" fill-opacity="1" stroke="#000000" stroke-opacity="1" stroke-width="3.072"/>
<polyline clip-path="url(#clip892)" style="stroke:#00a9ad; stroke-linecap:butt; stroke-linejoin:round; stroke-width:12; stroke-opacity:1; fill:none" points="
  1637.65,827.743 1491.81,783.365 1151.52,655.57 796.937,473.726 
  "/>
<path clip-path="url(#clip892)" d="M1637.65 811.743 L1625.14 817.775 L1622.05 831.311 L1630.7 842.159 L1644.59 842.159 L1653.25 831.311 L1650.16 817.775 Z" fill="#00a9ad" fill-rule="evenodd" fill-opacity="1" stroke="#000000" stroke-opacity="1" stroke-width="3.072"/>
<path clip-path="url(#clip892)" d="M1491.81 767.365 L1479.3 773.397 L1476.21 786.933 L1484.87 797.781 L1498.76 797.781 L1507.41 786.933 L1504.32 773.397 Z" fill="#00a9ad" fill-rule="evenodd" fill-opacity="1" stroke="#000000" stroke-opacity="1" stroke-width="3.072"/>
<path clip-path="url(#clip892)" d="M1151.52 639.57 L1139.01 645.602 L1135.92 659.138 L1144.58 669.986 L1158.47 669.986 L1167.12 659.138 L1164.04 645.602 Z" fill="#00a9ad" fill-rule="evenodd" fill-opacity="1" stroke="#000000" stroke-opacity="1" stroke-width="3.072"/>
<path clip-path="url(#clip892)" d="M796.937 457.726 L784.425 463.758 L781.337 477.294 L789.993 488.142 L803.881 488.142 L812.537 477.294 L809.449 463.758 Z" fill="#00a9ad" fill-rule="evenodd" fill-opacity="1" stroke="#000000" stroke-opacity="1" stroke-width="3.072"/>
<polyline clip-path="url(#clip892)" style="stroke:#ed5d92; stroke-linecap:butt; stroke-linejoin:round; stroke-width:12; stroke-opacity:1; fill:none" points="
  2161.85,436.622 1760.63,382.854 1892.16,301.768 2182.64,84.0448 
  "/>
<path clip-path="url(#clip892)" d="M2161.85 452.622 L2148 444.622 L2148 428.622 L2161.85 420.622 L2175.71 428.622 L2175.71 444.622 Z" fill="#ed5d92" fill-rule="evenodd" fill-opacity="1" stroke="#000000" stroke-opacity="1" stroke-width="3.072"/>
<path clip-path="url(#clip892)" d="M1760.63 398.854 L1746.78 390.854 L1746.78 374.854 L1760.63 366.854 L1774.49 374.854 L1774.49 390.854 Z" fill="#ed5d92" fill-rule="evenodd" fill-opacity="1" stroke="#000000" stroke-opacity="1" stroke-width="3.072"/>
<path clip-path="url(#clip892)" d="M1892.16 317.768 L1878.3 309.768 L1878.3 293.768 L1892.16 285.768 L1906.01 293.768 L1906.01 309.768 Z" fill="#ed5d92" fill-rule="evenodd" fill-opacity="1" stroke="#000000" stroke-opacity="1" stroke-width="3.072"/>
<path clip-path="url(#clip892)" d="M2182.64 100.045 L2168.79 92.0448 L2168.79 76.0448 L2182.64 68.0448 L2196.5 76.0448 L2196.5 92.0448 Z" fill="#ed5d92" fill-rule="evenodd" fill-opacity="1" stroke="#000000" stroke-opacity="1" stroke-width="3.072"/>
<path clip-path="url(#clip890)" d="
M1645.74 505.307 L2191.14 505.307 L2191.14 90.5872 L1645.74 90.5872  Z
  " fill="#ffffff" fill-rule="evenodd" fill-opacity="1"/>
<polyline clip-path="url(#clip890)" style="stroke:#000000; stroke-linecap:butt; stroke-linejoin:round; stroke-width:4; stroke-opacity:1; fill:none" points="
  1645.74,505.307 2191.14,505.307 2191.14,90.5872 1645.74,90.5872 1645.74,505.307 
  "/>
<polyline clip-path="url(#clip890)" style="stroke:#009af9; stroke-linecap:butt; stroke-linejoin:round; stroke-width:4; stroke-opacity:1; fill:none" points="
  1667.61,142.427 1798.85,142.427 
  "/>
<line clip-path="url(#clip890)" x1="1733.23" y1="142.427" x2="1733.23" y2="116.827" style="stroke:#009af9; stroke-width:4.9152; stroke-opacity:1"/>
<line clip-path="url(#clip890)" x1="1733.23" y1="142.427" x2="1707.63" y2="142.427" style="stroke:#009af9; stroke-width:4.9152; stroke-opacity:1"/>
<line clip-path="url(#clip890)" x1="1733.23" y1="142.427" x2="1733.23" y2="168.027" style="stroke:#009af9; stroke-width:4.9152; stroke-opacity:1"/>
<line clip-path="url(#clip890)" x1="1733.23" y1="142.427" x2="1758.83" y2="142.427" style="stroke:#009af9; stroke-width:4.9152; stroke-opacity:1"/>
<path clip-path="url(#clip890)" d="M1837.11 143.504 Q1838.62 144.013 1840.03 145.679 Q1841.47 147.346 1842.9 150.263 L1847.65 159.707 L1842.62 159.707 L1838.2 150.841 Q1836.49 147.369 1834.87 146.235 Q1833.27 145.101 1830.49 145.101 L1825.4 145.101 L1825.4 159.707 L1820.72 159.707 L1820.72 125.147 L1831.28 125.147 Q1837.21 125.147 1840.12 127.624 Q1843.04 130.101 1843.04 135.101 Q1843.04 138.365 1841.51 140.517 Q1840.01 142.67 1837.11 143.504 M1825.4 128.99 L1825.4 141.258 L1831.28 141.258 Q1834.66 141.258 1836.37 139.707 Q1838.11 138.133 1838.11 135.101 Q1838.11 132.068 1836.37 130.541 Q1834.66 128.99 1831.28 128.99 L1825.4 128.99 Z" fill="#000000" fill-rule="evenodd" fill-opacity="1" /><path clip-path="url(#clip890)" d="M1861.4 136.767 Q1857.97 136.767 1855.98 139.453 Q1853.99 142.115 1853.99 146.767 Q1853.99 151.42 1855.96 154.105 Q1857.95 156.767 1861.4 156.767 Q1864.8 156.767 1866.79 154.082 Q1868.78 151.397 1868.78 146.767 Q1868.78 142.161 1866.79 139.476 Q1864.8 136.767 1861.4 136.767 M1861.4 133.156 Q1866.95 133.156 1870.12 136.767 Q1873.29 140.379 1873.29 146.767 Q1873.29 153.133 1870.12 156.767 Q1866.95 160.378 1861.4 160.378 Q1855.82 160.378 1852.65 156.767 Q1849.5 153.133 1849.5 146.767 Q1849.5 140.379 1852.65 136.767 Q1855.82 133.156 1861.4 133.156 Z" fill="#000000" fill-rule="evenodd" fill-opacity="1" /><path clip-path="url(#clip890)" d="M1896.88 134.545 L1896.88 138.573 Q1895.08 137.647 1893.13 137.184 Q1891.19 136.721 1889.1 136.721 Q1885.93 136.721 1884.34 137.693 Q1882.76 138.666 1882.76 140.61 Q1882.76 142.092 1883.9 142.948 Q1885.03 143.781 1888.46 144.545 L1889.91 144.869 Q1894.45 145.842 1896.35 147.624 Q1898.27 149.383 1898.27 152.554 Q1898.27 156.166 1895.4 158.272 Q1892.55 160.378 1887.55 160.378 Q1885.47 160.378 1883.2 159.962 Q1880.96 159.568 1878.46 158.758 L1878.46 154.36 Q1880.82 155.587 1883.11 156.212 Q1885.4 156.814 1887.65 156.814 Q1890.65 156.814 1892.28 155.795 Q1893.9 154.754 1893.9 152.879 Q1893.9 151.142 1892.71 150.216 Q1891.56 149.291 1887.6 148.434 L1886.12 148.087 Q1882.16 147.254 1880.4 145.541 Q1878.64 143.804 1878.64 140.795 Q1878.64 137.138 1881.23 135.147 Q1883.83 133.156 1888.59 133.156 Q1890.96 133.156 1893.04 133.504 Q1895.12 133.851 1896.88 134.545 Z" fill="#000000" fill-rule="evenodd" fill-opacity="1" /><path clip-path="url(#clip890)" d="M1927.23 145.679 L1927.23 147.763 L1907.65 147.763 Q1907.92 152.161 1910.28 154.476 Q1912.67 156.767 1916.9 156.767 Q1919.36 156.767 1921.65 156.166 Q1923.96 155.564 1926.23 154.36 L1926.23 158.388 Q1923.94 159.36 1921.53 159.869 Q1919.13 160.378 1916.65 160.378 Q1910.45 160.378 1906.81 156.767 Q1903.2 153.156 1903.2 146.999 Q1903.2 140.633 1906.63 136.906 Q1910.08 133.156 1915.91 133.156 Q1921.14 133.156 1924.17 136.536 Q1927.23 139.892 1927.23 145.679 M1922.97 144.429 Q1922.92 140.934 1921 138.851 Q1919.1 136.767 1915.96 136.767 Q1912.39 136.767 1910.24 138.781 Q1908.11 140.795 1907.78 144.453 L1922.97 144.429 Z" fill="#000000" fill-rule="evenodd" fill-opacity="1" /><path clip-path="url(#clip890)" d="M1955.77 144.059 L1955.77 159.707 L1951.51 159.707 L1951.51 144.198 Q1951.51 140.517 1950.08 138.689 Q1948.64 136.86 1945.77 136.86 Q1942.32 136.86 1940.33 139.059 Q1938.34 141.258 1938.34 145.054 L1938.34 159.707 L1934.06 159.707 L1934.06 133.781 L1938.34 133.781 L1938.34 137.809 Q1939.87 135.471 1941.93 134.314 Q1944.01 133.156 1946.72 133.156 Q1951.19 133.156 1953.48 135.934 Q1955.77 138.689 1955.77 144.059 Z" fill="#000000" fill-rule="evenodd" fill-opacity="1" /><path clip-path="url(#clip890)" d="M1982.88 146.767 Q1982.88 142.068 1980.93 139.406 Q1979.01 136.721 1975.63 136.721 Q1972.25 136.721 1970.31 139.406 Q1968.39 142.068 1968.39 146.767 Q1968.39 151.466 1970.31 154.152 Q1972.25 156.814 1975.63 156.814 Q1979.01 156.814 1980.93 154.152 Q1982.88 151.466 1982.88 146.767 M1968.39 137.717 Q1969.73 135.402 1971.77 134.291 Q1973.83 133.156 1976.67 133.156 Q1981.39 133.156 1984.33 136.906 Q1987.3 140.656 1987.3 146.767 Q1987.3 152.879 1984.33 156.628 Q1981.39 160.378 1976.67 160.378 Q1973.83 160.378 1971.77 159.267 Q1969.73 158.133 1968.39 155.818 L1968.39 159.707 L1964.1 159.707 L1964.1 123.689 L1968.39 123.689 L1968.39 137.717 Z" fill="#000000" fill-rule="evenodd" fill-opacity="1" /><path clip-path="url(#clip890)" d="M2009.38 137.763 Q2008.66 137.346 2007.81 137.161 Q2006.97 136.953 2005.96 136.953 Q2002.34 136.953 2000.4 139.314 Q1998.48 141.652 1998.48 146.05 L1998.48 159.707 L1994.2 159.707 L1994.2 133.781 L1998.48 133.781 L1998.48 137.809 Q1999.82 135.448 2001.97 134.314 Q2004.13 133.156 2007.2 133.156 Q2007.64 133.156 2008.18 133.226 Q2008.71 133.272 2009.36 133.388 L2009.38 137.763 Z" fill="#000000" fill-rule="evenodd" fill-opacity="1" /><path clip-path="url(#clip890)" d="M2022.85 136.767 Q2019.43 136.767 2017.44 139.453 Q2015.45 142.115 2015.45 146.767 Q2015.45 151.42 2017.41 154.105 Q2019.4 156.767 2022.85 156.767 Q2026.26 156.767 2028.25 154.082 Q2030.24 151.397 2030.24 146.767 Q2030.24 142.161 2028.25 139.476 Q2026.26 136.767 2022.85 136.767 M2022.85 133.156 Q2028.41 133.156 2031.58 136.767 Q2034.75 140.379 2034.75 146.767 Q2034.75 153.133 2031.58 156.767 Q2028.41 160.378 2022.85 160.378 Q2017.27 160.378 2014.1 156.767 Q2010.95 153.133 2010.95 146.767 Q2010.95 140.379 2014.1 136.767 Q2017.27 133.156 2022.85 133.156 Z" fill="#000000" fill-rule="evenodd" fill-opacity="1" /><path clip-path="url(#clip890)" d="M2060.47 134.777 L2060.47 138.758 Q2058.66 137.763 2056.83 137.277 Q2055.03 136.767 2053.18 136.767 Q2049.03 136.767 2046.74 139.406 Q2044.45 142.022 2044.45 146.767 Q2044.45 151.513 2046.74 154.152 Q2049.03 156.767 2053.18 156.767 Q2055.03 156.767 2056.83 156.281 Q2058.66 155.772 2060.47 154.777 L2060.47 158.712 Q2058.69 159.545 2056.76 159.962 Q2054.87 160.378 2052.71 160.378 Q2046.86 160.378 2043.41 156.698 Q2039.96 153.017 2039.96 146.767 Q2039.96 140.425 2043.43 136.791 Q2046.93 133.156 2052.99 133.156 Q2054.96 133.156 2056.83 133.573 Q2058.71 133.967 2060.47 134.777 Z" fill="#000000" fill-rule="evenodd" fill-opacity="1" /><path clip-path="url(#clip890)" d="M2067.71 123.689 L2072 123.689 L2072 144.962 L2084.7 133.781 L2090.14 133.781 L2076.39 145.911 L2090.72 159.707 L2085.17 159.707 L2072 147.045 L2072 159.707 L2067.71 159.707 L2067.71 123.689 Z" fill="#000000" fill-rule="evenodd" fill-opacity="1" /><path clip-path="url(#clip890)" d="M2099.96 155.772 L2116.28 155.772 L2116.28 159.707 L2094.33 159.707 L2094.33 155.772 Q2097 153.017 2101.58 148.388 Q2106.19 143.735 2107.37 142.392 Q2109.61 139.869 2110.49 138.133 Q2111.39 136.374 2111.39 134.684 Q2111.39 131.93 2109.45 130.193 Q2107.53 128.457 2104.43 128.457 Q2102.23 128.457 2099.77 129.221 Q2097.34 129.985 2094.57 131.536 L2094.57 126.814 Q2097.39 125.68 2099.84 125.101 Q2102.3 124.522 2104.33 124.522 Q2109.7 124.522 2112.9 127.207 Q2116.09 129.893 2116.09 134.383 Q2116.09 136.513 2115.28 138.434 Q2114.5 140.332 2112.39 142.925 Q2111.81 143.596 2108.71 146.814 Q2105.61 150.008 2099.96 155.772 Z" fill="#000000" fill-rule="evenodd" fill-opacity="1" /><path clip-path="url(#clip890)" d="M2140.26 141.073 Q2143.62 141.791 2145.49 144.059 Q2147.39 146.328 2147.39 149.661 Q2147.39 154.777 2143.87 157.578 Q2140.35 160.378 2133.87 160.378 Q2131.7 160.378 2129.38 159.939 Q2127.09 159.522 2124.63 158.666 L2124.63 154.152 Q2126.58 155.286 2128.89 155.865 Q2131.21 156.443 2133.73 156.443 Q2138.13 156.443 2140.42 154.707 Q2142.74 152.971 2142.74 149.661 Q2142.74 146.605 2140.58 144.892 Q2138.45 143.156 2134.63 143.156 L2130.61 143.156 L2130.61 139.314 L2134.82 139.314 Q2138.27 139.314 2140.1 137.948 Q2141.93 136.559 2141.93 133.967 Q2141.93 131.305 2140.03 129.893 Q2138.15 128.457 2134.63 128.457 Q2132.71 128.457 2130.51 128.874 Q2128.32 129.291 2125.68 130.17 L2125.68 126.004 Q2128.34 125.263 2130.65 124.893 Q2132.99 124.522 2135.05 124.522 Q2140.38 124.522 2143.48 126.953 Q2146.58 129.36 2146.58 133.48 Q2146.58 136.351 2144.94 138.342 Q2143.29 140.309 2140.26 141.073 Z" fill="#000000" fill-rule="evenodd" fill-opacity="1" /><polyline clip-path="url(#clip890)" style="stroke:#e26f46; stroke-linecap:butt; stroke-linejoin:round; stroke-width:4; stroke-opacity:1; fill:none" points="
  1667.61,194.267 1798.85,194.267 
  "/>
<circle clip-path="url(#clip890)" cx="1733.23" cy="194.267" r="23" fill="#e26f46" fill-rule="evenodd" fill-opacity="1" stroke="#000000" stroke-opacity="1" stroke-width="4.9152"/>
<path clip-path="url(#clip890)" d="M1820.72 176.987 L1825.4 176.987 L1825.4 191.594 L1840.91 176.987 L1846.93 176.987 L1829.78 193.098 L1848.15 211.547 L1842 211.547 L1825.4 194.904 L1825.4 211.547 L1820.72 211.547 L1820.72 176.987 Z" fill="#000000" fill-rule="evenodd" fill-opacity="1" /><path clip-path="url(#clip890)" d="M1848.57 185.621 L1853.09 185.621 L1861.19 207.381 L1869.29 185.621 L1873.8 185.621 L1864.08 211.547 L1858.29 211.547 L1848.57 185.621 Z" fill="#000000" fill-rule="evenodd" fill-opacity="1" /><path clip-path="url(#clip890)" d="M1891.46 198.515 Q1886.3 198.515 1884.31 199.695 Q1882.32 200.876 1882.32 203.723 Q1882.32 205.992 1883.8 207.334 Q1885.31 208.654 1887.88 208.654 Q1891.42 208.654 1893.55 206.154 Q1895.7 203.631 1895.7 199.464 L1895.7 198.515 L1891.46 198.515 M1899.96 196.756 L1899.96 211.547 L1895.7 211.547 L1895.7 207.612 Q1894.24 209.973 1892.07 211.107 Q1889.89 212.218 1886.74 212.218 Q1882.76 212.218 1880.4 209.996 Q1878.06 207.751 1878.06 204.001 Q1878.06 199.626 1880.98 197.404 Q1883.92 195.182 1889.73 195.182 L1895.7 195.182 L1895.7 194.765 Q1895.7 191.825 1893.76 190.228 Q1891.84 188.607 1888.34 188.607 Q1886.12 188.607 1884.01 189.14 Q1881.9 189.672 1879.96 190.737 L1879.96 186.802 Q1882.3 185.899 1884.5 185.459 Q1886.7 184.996 1888.78 184.996 Q1894.4 184.996 1897.18 187.913 Q1899.96 190.83 1899.96 196.756 Z" fill="#000000" fill-rule="evenodd" fill-opacity="1" /><path clip-path="url(#clip890)" d="M1930.91 197.519 L1930.91 199.603 L1911.33 199.603 Q1911.6 204.001 1913.96 206.316 Q1916.35 208.607 1920.59 208.607 Q1923.04 208.607 1925.33 208.006 Q1927.65 207.404 1929.91 206.2 L1929.91 210.228 Q1927.62 211.2 1925.21 211.709 Q1922.81 212.218 1920.33 212.218 Q1914.13 212.218 1910.49 208.607 Q1906.88 204.996 1906.88 198.839 Q1906.88 192.473 1910.31 188.746 Q1913.76 184.996 1919.59 184.996 Q1924.82 184.996 1927.85 188.376 Q1930.91 191.732 1930.91 197.519 M1926.65 196.269 Q1926.6 192.774 1924.68 190.691 Q1922.78 188.607 1919.64 188.607 Q1916.07 188.607 1913.92 190.621 Q1911.79 192.635 1911.46 196.293 L1926.65 196.269 Z" fill="#000000" fill-rule="evenodd" fill-opacity="1" /><path clip-path="url(#clip890)" d="M1952.92 189.603 Q1952.21 189.186 1951.35 189.001 Q1950.52 188.793 1949.5 188.793 Q1945.89 188.793 1943.94 191.154 Q1942.02 193.492 1942.02 197.89 L1942.02 211.547 L1937.74 211.547 L1937.74 185.621 L1942.02 185.621 L1942.02 189.649 Q1943.36 187.288 1945.52 186.154 Q1947.67 184.996 1950.75 184.996 Q1951.19 184.996 1951.72 185.066 Q1952.25 185.112 1952.9 185.228 L1952.92 189.603 Z" fill="#000000" fill-rule="evenodd" fill-opacity="1" /><path clip-path="url(#clip890)" d="M1978.11 195.899 L1978.11 211.547 L1973.85 211.547 L1973.85 196.038 Q1973.85 192.357 1972.41 190.529 Q1970.98 188.7 1968.11 188.7 Q1964.66 188.7 1962.67 190.899 Q1960.68 193.098 1960.68 196.894 L1960.68 211.547 L1956.4 211.547 L1956.4 185.621 L1960.68 185.621 L1960.68 189.649 Q1962.21 187.311 1964.27 186.154 Q1966.35 184.996 1969.06 184.996 Q1973.52 184.996 1975.82 187.774 Q1978.11 190.529 1978.11 195.899 Z" fill="#000000" fill-rule="evenodd" fill-opacity="1" /><path clip-path="url(#clip890)" d="M1996.65 188.607 Q1993.22 188.607 1991.23 191.293 Q1989.24 193.955 1989.24 198.607 Q1989.24 203.26 1991.21 205.945 Q1993.2 208.607 1996.65 208.607 Q2000.05 208.607 2002.04 205.922 Q2004.03 203.237 2004.03 198.607 Q2004.03 194.001 2002.04 191.316 Q2000.05 188.607 1996.65 188.607 M1996.65 184.996 Q2002.21 184.996 2005.38 188.607 Q2008.55 192.219 2008.55 198.607 Q2008.55 204.973 2005.38 208.607 Q2002.21 212.218 1996.65 212.218 Q1991.07 212.218 1987.9 208.607 Q1984.75 204.973 1984.75 198.607 Q1984.75 192.219 1987.9 188.607 Q1991.07 184.996 1996.65 184.996 Z" fill="#000000" fill-rule="evenodd" fill-opacity="1" /><path clip-path="url(#clip890)" d="M2030.38 192.913 Q2033.73 193.631 2035.61 195.899 Q2037.51 198.168 2037.51 201.501 Q2037.51 206.617 2033.99 209.418 Q2030.47 212.218 2023.99 212.218 Q2021.81 212.218 2019.5 211.779 Q2017.2 211.362 2014.75 210.506 L2014.75 205.992 Q2016.7 207.126 2019.01 207.705 Q2021.33 208.283 2023.85 208.283 Q2028.25 208.283 2030.54 206.547 Q2032.85 204.811 2032.85 201.501 Q2032.85 198.445 2030.7 196.732 Q2028.57 194.996 2024.75 194.996 L2020.72 194.996 L2020.72 191.154 L2024.94 191.154 Q2028.39 191.154 2030.21 189.788 Q2032.04 188.399 2032.04 185.807 Q2032.04 183.145 2030.14 181.733 Q2028.27 180.297 2024.75 180.297 Q2022.83 180.297 2020.63 180.714 Q2018.43 181.131 2015.79 182.01 L2015.79 177.844 Q2018.45 177.103 2020.77 176.733 Q2023.11 176.362 2025.17 176.362 Q2030.49 176.362 2033.59 178.793 Q2036.7 181.2 2036.7 185.32 Q2036.7 188.191 2035.05 190.182 Q2033.41 192.149 2030.38 192.913 Z" fill="#000000" fill-rule="evenodd" fill-opacity="1" /><polyline clip-path="url(#clip890)" style="stroke:#3da44d; stroke-linecap:butt; stroke-linejoin:round; stroke-width:4; stroke-opacity:1; fill:none" points="
  1667.61,246.107 1798.85,246.107 
  "/>
<line clip-path="url(#clip890)" x1="1733.23" y1="246.107" x2="1733.23" y2="220.507" style="stroke:#3da44d; stroke-width:4.9152; stroke-opacity:1"/>
<line clip-path="url(#clip890)" x1="1733.23" y1="246.107" x2="1707.63" y2="246.107" style="stroke:#3da44d; stroke-width:4.9152; stroke-opacity:1"/>
<line clip-path="url(#clip890)" x1="1733.23" y1="246.107" x2="1733.23" y2="271.707" style="stroke:#3da44d; stroke-width:4.9152; stroke-opacity:1"/>
<line clip-path="url(#clip890)" x1="1733.23" y1="246.107" x2="1758.83" y2="246.107" style="stroke:#3da44d; stroke-width:4.9152; stroke-opacity:1"/>
<path clip-path="url(#clip890)" d="M1848.59 231.489 L1848.59 236.42 Q1846.23 234.221 1843.55 233.133 Q1840.89 232.045 1837.88 232.045 Q1831.95 232.045 1828.8 235.679 Q1825.66 239.29 1825.66 246.142 Q1825.66 252.971 1828.8 256.605 Q1831.95 260.216 1837.88 260.216 Q1840.89 260.216 1843.55 259.128 Q1846.23 258.04 1848.59 255.841 L1848.59 260.725 Q1846.14 262.392 1843.39 263.225 Q1840.65 264.058 1837.6 264.058 Q1829.75 264.058 1825.24 259.267 Q1820.72 254.452 1820.72 246.142 Q1820.72 237.809 1825.24 233.017 Q1829.75 228.202 1837.6 228.202 Q1840.7 228.202 1843.43 229.036 Q1846.19 229.846 1848.59 231.489 Z" fill="#000000" fill-rule="evenodd" fill-opacity="1" /><path clip-path="url(#clip890)" d="M1864.73 263.387 L1851.53 228.827 L1856.42 228.827 L1867.37 257.924 L1878.34 228.827 L1883.2 228.827 L1870.03 263.387 L1864.73 263.387 Z" fill="#000000" fill-rule="evenodd" fill-opacity="1" /><path clip-path="url(#clip890)" d="M1901.44 231.998 Q1896.35 231.998 1893.34 235.795 Q1890.35 239.591 1890.35 246.142 Q1890.35 252.67 1893.34 256.466 Q1896.35 260.262 1901.44 260.262 Q1906.53 260.262 1909.5 256.466 Q1912.48 252.67 1912.48 246.142 Q1912.48 239.591 1909.5 235.795 Q1906.53 231.998 1901.44 231.998 M1901.44 228.202 Q1908.71 228.202 1913.06 233.086 Q1917.41 237.948 1917.41 246.142 Q1917.41 254.313 1913.06 259.197 Q1908.71 264.058 1901.44 264.058 Q1894.15 264.058 1889.78 259.197 Q1885.42 254.336 1885.42 246.142 Q1885.42 237.948 1889.78 233.086 Q1894.15 228.202 1901.44 228.202 Z" fill="#000000" fill-rule="evenodd" fill-opacity="1" /><path clip-path="url(#clip890)" d="M1929.4 232.67 L1929.4 259.545 L1935.05 259.545 Q1942.21 259.545 1945.52 256.304 Q1948.85 253.063 1948.85 246.072 Q1948.85 239.128 1945.52 235.91 Q1942.21 232.67 1935.05 232.67 L1929.4 232.67 M1924.73 228.827 L1934.34 228.827 Q1944.38 228.827 1949.08 233.017 Q1953.78 237.184 1953.78 246.072 Q1953.78 255.008 1949.06 259.197 Q1944.33 263.387 1934.34 263.387 L1924.73 263.387 L1924.73 228.827 Z" fill="#000000" fill-rule="evenodd" fill-opacity="1" /><path clip-path="url(#clip890)" d="M1961.23 228.827 L1983.08 228.827 L1983.08 232.762 L1965.91 232.762 L1965.91 242.994 L1982.37 242.994 L1982.37 246.929 L1965.91 246.929 L1965.91 259.452 L1983.5 259.452 L1983.5 263.387 L1961.23 263.387 L1961.23 228.827 Z" fill="#000000" fill-rule="evenodd" fill-opacity="1" /><path clip-path="url(#clip890)" d="M2010.7 271.258 L2010.7 274.568 L1986.07 274.568 L1986.07 271.258 L2010.7 271.258 Z" fill="#000000" fill-rule="evenodd" fill-opacity="1" /><path clip-path="url(#clip890)" d="M2019.57 246.883 L2019.57 259.545 L2027.07 259.545 Q2030.84 259.545 2032.64 257.994 Q2034.47 256.42 2034.47 253.202 Q2034.47 249.961 2032.64 248.434 Q2030.84 246.883 2027.07 246.883 L2019.57 246.883 M2019.57 232.67 L2019.57 243.086 L2026.49 243.086 Q2029.91 243.086 2031.58 241.813 Q2033.27 240.517 2033.27 237.878 Q2033.27 235.262 2031.58 233.966 Q2029.91 232.67 2026.49 232.67 L2019.57 232.67 M2014.89 228.827 L2026.83 228.827 Q2032.18 228.827 2035.08 231.049 Q2037.97 233.272 2037.97 237.369 Q2037.97 240.54 2036.49 242.415 Q2035.01 244.29 2032.14 244.753 Q2035.58 245.494 2037.48 247.855 Q2039.4 250.193 2039.4 253.711 Q2039.4 258.341 2036.26 260.864 Q2033.11 263.387 2027.3 263.387 L2014.89 263.387 L2014.89 228.827 Z" fill="#000000" fill-rule="evenodd" fill-opacity="1" /><path clip-path="url(#clip890)" d="M2052.09 232.67 L2052.09 259.545 L2057.74 259.545 Q2064.89 259.545 2068.2 256.304 Q2071.53 253.063 2071.53 246.072 Q2071.53 239.128 2068.2 235.91 Q2064.89 232.67 2057.74 232.67 L2052.09 232.67 M2047.41 228.827 L2057.02 228.827 Q2067.07 228.827 2071.76 233.017 Q2076.46 237.184 2076.46 246.072 Q2076.46 255.008 2071.74 259.197 Q2067.02 263.387 2057.02 263.387 L2047.41 263.387 L2047.41 228.827 Z" fill="#000000" fill-rule="evenodd" fill-opacity="1" /><path clip-path="url(#clip890)" d="M2083.92 228.827 L2103.78 228.827 L2103.78 232.762 L2088.59 232.762 L2088.59 242.947 L2102.3 242.947 L2102.3 246.883 L2088.59 246.883 L2088.59 263.387 L2083.92 263.387 L2083.92 228.827 Z" fill="#000000" fill-rule="evenodd" fill-opacity="1" /><polyline clip-path="url(#clip890)" style="stroke:#c271d2; stroke-linecap:butt; stroke-linejoin:round; stroke-width:4; stroke-opacity:1; fill:none" points="
  1667.61,297.947 1798.85,297.947 
  "/>
<path clip-path="url(#clip890)" d="M1733.23 272.347 L1707.63 297.947 L1733.23 323.547 L1758.83 297.947 L1733.23 272.347 Z" fill="#c271d2" fill-rule="evenodd" fill-opacity="1" stroke="#000000" stroke-opacity="1" stroke-width="4.9152"/>
<path clip-path="url(#clip890)" d="M1820.72 280.667 L1825.4 280.667 L1825.4 295.274 L1840.91 280.667 L1846.93 280.667 L1829.78 296.778 L1848.15 315.227 L1842 315.227 L1825.4 298.584 L1825.4 315.227 L1820.72 315.227 L1820.72 280.667 Z" fill="#000000" fill-rule="evenodd" fill-opacity="1" /><path clip-path="url(#clip890)" d="M1871.44 301.199 L1871.44 303.283 L1851.86 303.283 Q1852.14 307.681 1854.5 309.996 Q1856.88 312.287 1861.12 312.287 Q1863.57 312.287 1865.86 311.686 Q1868.18 311.084 1870.45 309.88 L1870.45 313.908 Q1868.15 314.88 1865.75 315.389 Q1863.34 315.898 1860.86 315.898 Q1854.66 315.898 1851.03 312.287 Q1847.41 308.676 1847.41 302.519 Q1847.41 296.153 1850.84 292.426 Q1854.29 288.676 1860.12 288.676 Q1865.35 288.676 1868.39 292.056 Q1871.44 295.412 1871.44 301.199 M1867.18 299.949 Q1867.14 296.454 1865.22 294.371 Q1863.32 292.287 1860.17 292.287 Q1856.6 292.287 1854.45 294.301 Q1852.32 296.315 1852 299.973 L1867.18 299.949 Z" fill="#000000" fill-rule="evenodd" fill-opacity="1" /><path clip-path="url(#clip890)" d="M1899.98 299.579 L1899.98 315.227 L1895.72 315.227 L1895.72 299.718 Q1895.72 296.037 1894.29 294.209 Q1892.85 292.38 1889.98 292.38 Q1886.53 292.38 1884.54 294.579 Q1882.55 296.778 1882.55 300.574 L1882.55 315.227 L1878.27 315.227 L1878.27 289.301 L1882.55 289.301 L1882.55 293.329 Q1884.08 290.991 1886.14 289.834 Q1888.22 288.676 1890.93 288.676 Q1895.4 288.676 1897.69 291.454 Q1899.98 294.209 1899.98 299.579 Z" fill="#000000" fill-rule="evenodd" fill-opacity="1" /><path clip-path="url(#clip890)" d="M1934.54 283.329 L1934.54 288.26 Q1932.18 286.061 1929.5 284.973 Q1926.84 283.885 1923.83 283.885 Q1917.9 283.885 1914.75 287.519 Q1911.6 291.13 1911.6 297.982 Q1911.6 304.811 1914.75 308.445 Q1917.9 312.056 1923.83 312.056 Q1926.84 312.056 1929.5 310.968 Q1932.18 309.88 1934.54 307.681 L1934.54 312.565 Q1932.09 314.232 1929.34 315.065 Q1926.6 315.898 1923.55 315.898 Q1915.7 315.898 1911.19 311.107 Q1906.67 306.292 1906.67 297.982 Q1906.67 289.649 1911.19 284.857 Q1915.7 280.042 1923.55 280.042 Q1926.65 280.042 1929.38 280.876 Q1932.14 281.686 1934.54 283.329 Z" fill="#000000" fill-rule="evenodd" fill-opacity="1" /><path clip-path="url(#clip890)" d="M1953.36 302.195 Q1948.2 302.195 1946.21 303.375 Q1944.22 304.556 1944.22 307.403 Q1944.22 309.672 1945.7 311.014 Q1947.21 312.334 1949.77 312.334 Q1953.32 312.334 1955.45 309.834 Q1957.6 307.311 1957.6 303.144 L1957.6 302.195 L1953.36 302.195 M1961.86 300.436 L1961.86 315.227 L1957.6 315.227 L1957.6 311.292 Q1956.14 313.653 1953.96 314.787 Q1951.79 315.898 1948.64 315.898 Q1944.66 315.898 1942.3 313.676 Q1939.96 311.431 1939.96 307.681 Q1939.96 303.306 1942.88 301.084 Q1945.82 298.862 1951.63 298.862 L1957.6 298.862 L1957.6 298.445 Q1957.6 295.505 1955.65 293.908 Q1953.73 292.287 1950.24 292.287 Q1948.02 292.287 1945.91 292.82 Q1943.8 293.352 1941.86 294.417 L1941.86 290.482 Q1944.2 289.579 1946.4 289.139 Q1948.59 288.676 1950.68 288.676 Q1956.3 288.676 1959.08 291.593 Q1961.86 294.51 1961.86 300.436 Z" fill="#000000" fill-rule="evenodd" fill-opacity="1" /><path clip-path="url(#clip890)" d="M1985.65 293.283 Q1984.94 292.866 1984.08 292.681 Q1983.25 292.473 1982.23 292.473 Q1978.62 292.473 1976.67 294.834 Q1974.75 297.172 1974.75 301.57 L1974.75 315.227 L1970.47 315.227 L1970.47 289.301 L1974.75 289.301 L1974.75 293.329 Q1976.09 290.968 1978.25 289.834 Q1980.4 288.676 1983.48 288.676 Q1983.92 288.676 1984.45 288.746 Q1984.98 288.792 1985.63 288.908 L1985.65 293.283 Z" fill="#000000" fill-rule="evenodd" fill-opacity="1" /><path clip-path="url(#clip890)" d="M1994.24 311.338 L1994.24 325.088 L1989.96 325.088 L1989.96 289.301 L1994.24 289.301 L1994.24 293.237 Q1995.58 290.922 1997.62 289.811 Q1999.68 288.676 2002.53 288.676 Q2007.25 288.676 2010.19 292.426 Q2013.15 296.176 2013.15 302.287 Q2013.15 308.399 2010.19 312.148 Q2007.25 315.898 2002.53 315.898 Q1999.68 315.898 1997.62 314.787 Q1995.58 313.653 1994.24 311.338 M2008.73 302.287 Q2008.73 297.588 2006.79 294.926 Q2004.87 292.241 2001.49 292.241 Q1998.11 292.241 1996.16 294.926 Q1994.24 297.588 1994.24 302.287 Q1994.24 306.986 1996.16 309.672 Q1998.11 312.334 2001.49 312.334 Q2004.87 312.334 2006.79 309.672 Q2008.73 306.986 2008.73 302.287 Z" fill="#000000" fill-rule="evenodd" fill-opacity="1" /><path clip-path="url(#clip890)" d="M2033.66 284.741 L2021.86 303.19 L2033.66 303.19 L2033.66 284.741 M2032.44 280.667 L2038.32 280.667 L2038.32 303.19 L2043.25 303.19 L2043.25 307.079 L2038.32 307.079 L2038.32 315.227 L2033.66 315.227 L2033.66 307.079 L2018.06 307.079 L2018.06 302.565 L2032.44 280.667 Z" fill="#000000" fill-rule="evenodd" fill-opacity="1" /><polyline clip-path="url(#clip890)" style="stroke:#ac8d18; stroke-linecap:butt; stroke-linejoin:round; stroke-width:4; stroke-opacity:1; fill:none" points="
  1667.61,349.787 1798.85,349.787 
  "/>
<path clip-path="url(#clip890)" d="M1758.83 324.187 L1707.63 324.187 L1733.23 375.387 L1758.83 324.187 Z" fill="#ac8d18" fill-rule="evenodd" fill-opacity="1" stroke="#000000" stroke-opacity="1" stroke-width="4.9152"/>
<path clip-path="url(#clip890)" d="M1820.72 332.507 L1849.96 332.507 L1849.96 336.442 L1837.69 336.442 L1837.69 367.067 L1832.99 367.067 L1832.99 336.442 L1820.72 336.442 L1820.72 332.507 Z" fill="#000000" fill-rule="evenodd" fill-opacity="1" /><path clip-path="url(#clip890)" d="M1870.86 350.864 Q1872.37 351.373 1873.78 353.039 Q1875.21 354.706 1876.65 357.623 L1881.4 367.067 L1876.37 367.067 L1871.95 358.201 Q1870.24 354.729 1868.62 353.595 Q1867.02 352.461 1864.24 352.461 L1859.15 352.461 L1859.15 367.067 L1854.47 367.067 L1854.47 332.507 L1865.03 332.507 Q1870.96 332.507 1873.87 334.984 Q1876.79 337.461 1876.79 342.461 Q1876.79 345.725 1875.26 347.877 Q1873.76 350.03 1870.86 350.864 M1859.15 336.35 L1859.15 348.618 L1865.03 348.618 Q1868.41 348.618 1870.12 347.067 Q1871.86 345.493 1871.86 342.461 Q1871.86 339.428 1870.12 337.901 Q1868.41 336.35 1865.03 336.35 L1859.15 336.35 Z" fill="#000000" fill-rule="evenodd" fill-opacity="1" /><path clip-path="url(#clip890)" d="M1892.09 350.563 L1892.09 363.225 L1899.59 363.225 Q1903.36 363.225 1905.17 361.674 Q1907 360.1 1907 356.882 Q1907 353.641 1905.17 352.114 Q1903.36 350.563 1899.59 350.563 L1892.09 350.563 M1892.09 336.35 L1892.09 346.766 L1899.01 346.766 Q1902.44 346.766 1904.1 345.493 Q1905.79 344.197 1905.79 341.558 Q1905.79 338.942 1904.1 337.646 Q1902.44 336.35 1899.01 336.35 L1892.09 336.35 M1887.41 332.507 L1899.36 332.507 Q1904.71 332.507 1907.6 334.729 Q1910.49 336.952 1910.49 341.049 Q1910.49 344.22 1909.01 346.095 Q1907.53 347.97 1904.66 348.433 Q1908.11 349.174 1910.01 351.535 Q1911.93 353.873 1911.93 357.391 Q1911.93 362.021 1908.78 364.544 Q1905.63 367.067 1899.82 367.067 L1887.41 367.067 L1887.41 332.507 Z" fill="#000000" fill-rule="evenodd" fill-opacity="1" /><path clip-path="url(#clip890)" d="M1924.61 336.35 L1924.61 363.225 L1930.26 363.225 Q1937.41 363.225 1940.72 359.984 Q1944.06 356.743 1944.06 349.752 Q1944.06 342.808 1940.72 339.59 Q1937.41 336.35 1930.26 336.35 L1924.61 336.35 M1919.94 332.507 L1929.54 332.507 Q1939.59 332.507 1944.29 336.697 Q1948.99 340.864 1948.99 349.752 Q1948.99 358.688 1944.27 362.877 Q1939.54 367.067 1929.54 367.067 L1919.94 367.067 L1919.94 332.507 Z" fill="#000000" fill-rule="evenodd" fill-opacity="1" /><path clip-path="url(#clip890)" d="M1956.44 332.507 L1976.3 332.507 L1976.3 336.442 L1961.12 336.442 L1961.12 346.627 L1974.82 346.627 L1974.82 350.563 L1961.12 350.563 L1961.12 367.067 L1956.44 367.067 L1956.44 332.507 Z" fill="#000000" fill-rule="evenodd" fill-opacity="1" /><path clip-path="url(#clip890)" d="M1988.15 363.132 L2004.47 363.132 L2004.47 367.067 L1982.53 367.067 L1982.53 363.132 Q1985.19 360.377 1989.77 355.748 Q1994.38 351.095 1995.56 349.752 Q1997.81 347.229 1998.69 345.493 Q1999.59 343.734 1999.59 342.044 Q1999.59 339.29 1997.64 337.553 Q1995.72 335.817 1992.62 335.817 Q1990.42 335.817 1987.97 336.581 Q1985.54 337.345 1982.76 338.896 L1982.76 334.174 Q1985.58 333.04 1988.04 332.461 Q1990.49 331.882 1992.53 331.882 Q1997.9 331.882 2001.09 334.567 Q2004.29 337.253 2004.29 341.743 Q2004.29 343.873 2003.48 345.794 Q2002.69 347.692 2000.58 350.285 Q2000.01 350.956 1996.9 354.174 Q1993.8 357.368 1988.15 363.132 Z" fill="#000000" fill-rule="evenodd" fill-opacity="1" /><polyline clip-path="url(#clip890)" style="stroke:#00a9ad; stroke-linecap:butt; stroke-linejoin:round; stroke-width:4; stroke-opacity:1; fill:none" points="
  1667.61,401.627 1798.85,401.627 
  "/>
<path clip-path="url(#clip890)" d="M1733.23 376.027 L1713.21 385.678 L1708.27 407.336 L1722.12 424.693 L1744.34 424.693 L1758.19 407.336 L1753.25 385.678 Z" fill="#00a9ad" fill-rule="evenodd" fill-opacity="1" stroke="#000000" stroke-opacity="1" stroke-width="4.9152"/>
<path clip-path="url(#clip890)" d="M1820.72 384.347 L1825.4 384.347 L1825.4 398.954 L1840.91 384.347 L1846.93 384.347 L1829.78 400.458 L1848.15 418.907 L1842 418.907 L1825.4 402.264 L1825.4 418.907 L1820.72 418.907 L1820.72 384.347 Z" fill="#000000" fill-rule="evenodd" fill-opacity="1" /><path clip-path="url(#clip890)" d="M1871.44 404.879 L1871.44 406.963 L1851.86 406.963 Q1852.14 411.361 1854.5 413.676 Q1856.88 415.967 1861.12 415.967 Q1863.57 415.967 1865.86 415.366 Q1868.18 414.764 1870.45 413.56 L1870.45 417.588 Q1868.15 418.56 1865.75 419.069 Q1863.34 419.578 1860.86 419.578 Q1854.66 419.578 1851.03 415.967 Q1847.41 412.356 1847.41 406.199 Q1847.41 399.833 1850.84 396.106 Q1854.29 392.356 1860.12 392.356 Q1865.35 392.356 1868.39 395.736 Q1871.44 399.092 1871.44 404.879 M1867.18 403.629 Q1867.14 400.134 1865.22 398.051 Q1863.32 395.967 1860.17 395.967 Q1856.6 395.967 1854.45 397.981 Q1852.32 399.995 1852 403.653 L1867.18 403.629 Z" fill="#000000" fill-rule="evenodd" fill-opacity="1" /><path clip-path="url(#clip890)" d="M1899.98 403.259 L1899.98 418.907 L1895.72 418.907 L1895.72 403.398 Q1895.72 399.717 1894.29 397.889 Q1892.85 396.06 1889.98 396.06 Q1886.53 396.06 1884.54 398.259 Q1882.55 400.458 1882.55 404.254 L1882.55 418.907 L1878.27 418.907 L1878.27 392.981 L1882.55 392.981 L1882.55 397.009 Q1884.08 394.671 1886.14 393.514 Q1888.22 392.356 1890.93 392.356 Q1895.4 392.356 1897.69 395.134 Q1899.98 397.889 1899.98 403.259 Z" fill="#000000" fill-rule="evenodd" fill-opacity="1" /><path clip-path="url(#clip890)" d="M1934.54 387.009 L1934.54 391.94 Q1932.18 389.741 1929.5 388.653 Q1926.84 387.565 1923.83 387.565 Q1917.9 387.565 1914.75 391.199 Q1911.6 394.81 1911.6 401.662 Q1911.6 408.491 1914.75 412.125 Q1917.9 415.736 1923.83 415.736 Q1926.84 415.736 1929.5 414.648 Q1932.18 413.56 1934.54 411.361 L1934.54 416.245 Q1932.09 417.912 1929.34 418.745 Q1926.6 419.578 1923.55 419.578 Q1915.7 419.578 1911.19 414.787 Q1906.67 409.972 1906.67 401.662 Q1906.67 393.329 1911.19 388.537 Q1915.7 383.722 1923.55 383.722 Q1926.65 383.722 1929.38 384.556 Q1932.14 385.366 1934.54 387.009 Z" fill="#000000" fill-rule="evenodd" fill-opacity="1" /><path clip-path="url(#clip890)" d="M1953.36 405.875 Q1948.2 405.875 1946.21 407.055 Q1944.22 408.236 1944.22 411.083 Q1944.22 413.352 1945.7 414.694 Q1947.21 416.014 1949.77 416.014 Q1953.32 416.014 1955.45 413.514 Q1957.6 410.991 1957.6 406.824 L1957.6 405.875 L1953.36 405.875 M1961.86 404.116 L1961.86 418.907 L1957.6 418.907 L1957.6 414.972 Q1956.14 417.333 1953.96 418.467 Q1951.79 419.578 1948.64 419.578 Q1944.66 419.578 1942.3 417.356 Q1939.96 415.111 1939.96 411.361 Q1939.96 406.986 1942.88 404.764 Q1945.82 402.542 1951.63 402.542 L1957.6 402.542 L1957.6 402.125 Q1957.6 399.185 1955.65 397.588 Q1953.73 395.967 1950.24 395.967 Q1948.02 395.967 1945.91 396.5 Q1943.8 397.032 1941.86 398.097 L1941.86 394.162 Q1944.2 393.259 1946.4 392.819 Q1948.59 392.356 1950.68 392.356 Q1956.3 392.356 1959.08 395.273 Q1961.86 398.19 1961.86 404.116 Z" fill="#000000" fill-rule="evenodd" fill-opacity="1" /><path clip-path="url(#clip890)" d="M1985.65 396.963 Q1984.94 396.546 1984.08 396.361 Q1983.25 396.153 1982.23 396.153 Q1978.62 396.153 1976.67 398.514 Q1974.75 400.852 1974.75 405.25 L1974.75 418.907 L1970.47 418.907 L1970.47 392.981 L1974.75 392.981 L1974.75 397.009 Q1976.09 394.648 1978.25 393.514 Q1980.4 392.356 1983.48 392.356 Q1983.92 392.356 1984.45 392.426 Q1984.98 392.472 1985.63 392.588 L1985.65 396.963 Z" fill="#000000" fill-rule="evenodd" fill-opacity="1" /><path clip-path="url(#clip890)" d="M1994.24 415.018 L1994.24 428.768 L1989.96 428.768 L1989.96 392.981 L1994.24 392.981 L1994.24 396.917 Q1995.58 394.602 1997.62 393.491 Q1999.68 392.356 2002.53 392.356 Q2007.25 392.356 2010.19 396.106 Q2013.15 399.856 2013.15 405.967 Q2013.15 412.079 2010.19 415.828 Q2007.25 419.578 2002.53 419.578 Q1999.68 419.578 1997.62 418.467 Q1995.58 417.333 1994.24 415.018 M2008.73 405.967 Q2008.73 401.268 2006.79 398.606 Q2004.87 395.921 2001.49 395.921 Q1998.11 395.921 1996.16 398.606 Q1994.24 401.268 1994.24 405.967 Q1994.24 410.666 1996.16 413.352 Q1998.11 416.014 2001.49 416.014 Q2004.87 416.014 2006.79 413.352 Q2008.73 410.666 2008.73 405.967 Z" fill="#000000" fill-rule="evenodd" fill-opacity="1" /><path clip-path="url(#clip890)" d="M2034.98 400.273 Q2038.34 400.991 2040.21 403.259 Q2042.11 405.528 2042.11 408.861 Q2042.11 413.977 2038.59 416.778 Q2035.08 419.578 2028.59 419.578 Q2026.42 419.578 2024.1 419.139 Q2021.81 418.722 2019.36 417.866 L2019.36 413.352 Q2021.3 414.486 2023.62 415.065 Q2025.93 415.643 2028.45 415.643 Q2032.85 415.643 2035.14 413.907 Q2037.46 412.171 2037.46 408.861 Q2037.46 405.805 2035.31 404.092 Q2033.18 402.356 2029.36 402.356 L2025.33 402.356 L2025.33 398.514 L2029.54 398.514 Q2032.99 398.514 2034.82 397.148 Q2036.65 395.759 2036.65 393.167 Q2036.65 390.505 2034.75 389.093 Q2032.88 387.657 2029.36 387.657 Q2027.44 387.657 2025.24 388.074 Q2023.04 388.491 2020.4 389.37 L2020.4 385.204 Q2023.06 384.463 2025.38 384.093 Q2027.71 383.722 2029.77 383.722 Q2035.1 383.722 2038.2 386.153 Q2041.3 388.56 2041.3 392.68 Q2041.3 395.551 2039.66 397.542 Q2038.02 399.509 2034.98 400.273 Z" fill="#000000" fill-rule="evenodd" fill-opacity="1" /><polyline clip-path="url(#clip890)" style="stroke:#ed5d92; stroke-linecap:butt; stroke-linejoin:round; stroke-width:4; stroke-opacity:1; fill:none" points="
  1667.61,453.467 1798.85,453.467 
  "/>
<path clip-path="url(#clip890)" d="M1733.23 479.067 L1711.06 466.267 L1711.06 440.667 L1733.23 427.867 L1755.4 440.667 L1755.4 466.267 Z" fill="#ed5d92" fill-rule="evenodd" fill-opacity="1" stroke="#000000" stroke-opacity="1" stroke-width="4.9152"/>
<path clip-path="url(#clip890)" d="M1835.91 448.803 Q1835.19 448.386 1834.34 448.201 Q1833.5 447.993 1832.48 447.993 Q1828.87 447.993 1826.93 450.354 Q1825.01 452.692 1825.01 457.09 L1825.01 470.747 L1820.72 470.747 L1820.72 444.821 L1825.01 444.821 L1825.01 448.849 Q1826.35 446.488 1828.5 445.354 Q1830.66 444.196 1833.73 444.196 Q1834.17 444.196 1834.71 444.266 Q1835.24 444.312 1835.89 444.428 L1835.91 448.803 Z" fill="#000000" fill-rule="evenodd" fill-opacity="1" /><path clip-path="url(#clip890)" d="M1852.16 457.715 Q1847 457.715 1845.01 458.895 Q1843.02 460.076 1843.02 462.923 Q1843.02 465.192 1844.5 466.534 Q1846 467.854 1848.57 467.854 Q1852.11 467.854 1854.24 465.354 Q1856.4 462.831 1856.4 458.664 L1856.4 457.715 L1852.16 457.715 M1860.65 455.956 L1860.65 470.747 L1856.4 470.747 L1856.4 466.812 Q1854.94 469.173 1852.76 470.307 Q1850.59 471.418 1847.44 471.418 Q1843.46 471.418 1841.09 469.196 Q1838.76 466.951 1838.76 463.201 Q1838.76 458.826 1841.67 456.604 Q1844.61 454.382 1850.42 454.382 L1856.4 454.382 L1856.4 453.965 Q1856.4 451.025 1854.45 449.428 Q1852.53 447.807 1849.03 447.807 Q1846.81 447.807 1844.71 448.34 Q1842.6 448.872 1840.65 449.937 L1840.65 446.002 Q1842.99 445.099 1845.19 444.659 Q1847.39 444.196 1849.47 444.196 Q1855.1 444.196 1857.88 447.113 Q1860.65 450.03 1860.65 455.956 Z" fill="#000000" fill-rule="evenodd" fill-opacity="1" /><path clip-path="url(#clip890)" d="M1886.49 448.757 L1886.49 434.729 L1890.75 434.729 L1890.75 470.747 L1886.49 470.747 L1886.49 466.858 Q1885.15 469.173 1883.09 470.307 Q1881.05 471.418 1878.18 471.418 Q1873.48 471.418 1870.52 467.668 Q1867.58 463.919 1867.58 457.807 Q1867.58 451.696 1870.52 447.946 Q1873.48 444.196 1878.18 444.196 Q1881.05 444.196 1883.09 445.331 Q1885.15 446.442 1886.49 448.757 M1871.97 457.807 Q1871.97 462.506 1873.9 465.192 Q1875.84 467.854 1879.22 467.854 Q1882.6 467.854 1884.54 465.192 Q1886.49 462.506 1886.49 457.807 Q1886.49 453.108 1884.54 450.446 Q1882.6 447.761 1879.22 447.761 Q1875.84 447.761 1873.9 450.446 Q1871.97 453.108 1871.97 457.807 Z" fill="#000000" fill-rule="evenodd" fill-opacity="1" /><path clip-path="url(#clip890)" d="M1911.3 457.715 Q1906.14 457.715 1904.15 458.895 Q1902.16 460.076 1902.16 462.923 Q1902.16 465.192 1903.64 466.534 Q1905.15 467.854 1907.71 467.854 Q1911.26 467.854 1913.39 465.354 Q1915.54 462.831 1915.54 458.664 L1915.54 457.715 L1911.3 457.715 M1919.8 455.956 L1919.8 470.747 L1915.54 470.747 L1915.54 466.812 Q1914.08 469.173 1911.9 470.307 Q1909.73 471.418 1906.58 471.418 Q1902.6 471.418 1900.24 469.196 Q1897.9 466.951 1897.9 463.201 Q1897.9 458.826 1900.82 456.604 Q1903.76 454.382 1909.57 454.382 L1915.54 454.382 L1915.54 453.965 Q1915.54 451.025 1913.59 449.428 Q1911.67 447.807 1908.18 447.807 Q1905.96 447.807 1903.85 448.34 Q1901.74 448.872 1899.8 449.937 L1899.8 446.002 Q1902.14 445.099 1904.34 444.659 Q1906.53 444.196 1908.62 444.196 Q1914.24 444.196 1917.02 447.113 Q1919.8 450.03 1919.8 455.956 Z" fill="#000000" fill-rule="evenodd" fill-opacity="1" /><path clip-path="url(#clip890)" d="M1928.13 460.516 L1928.13 444.821 L1932.39 444.821 L1932.39 460.354 Q1932.39 464.034 1933.83 465.886 Q1935.26 467.715 1938.13 467.715 Q1941.58 467.715 1943.57 465.516 Q1945.58 463.317 1945.58 459.52 L1945.58 444.821 L1949.84 444.821 L1949.84 470.747 L1945.58 470.747 L1945.58 466.766 Q1944.03 469.127 1941.97 470.284 Q1939.94 471.418 1937.23 471.418 Q1932.76 471.418 1930.45 468.641 Q1928.13 465.863 1928.13 460.516 M1938.85 444.196 L1938.85 444.196 Z" fill="#000000" fill-rule="evenodd" fill-opacity="1" /></svg>
