<?xml version="1.0" encoding="utf-8"?>
<svg xmlns="http://www.w3.org/2000/svg" xmlns:xlink="http://www.w3.org/1999/xlink" width="576" height="384" viewBox="0 0 2304 1536">
<defs>
  <clipPath id="clip090">
    <rect x="0" y="0" width="2304" height="1536"/>
  </clipPath>
</defs>
<path clip-path="url(#clip090)" d="
M0 1536 L2304 1536 L2304 0 L0 0  Z
  " fill="#ffffff" fill-rule="evenodd" fill-opacity="1"/>
<defs>
  <clipPath id="clip091">
    <rect x="460" y="0" width="1614" height="1536"/>
  </clipPath>
</defs>
<path clip-path="url(#clip090)" d="
M250.882 1347.54 L2256.76 1347.54 L2256.76 47.2441 L250.882 47.2441  Z
  " fill="#ffffff" fill-rule="evenodd" fill-opacity="1"/>
<defs>
  <clipPath id="clip092">
    <rect x="250" y="47" width="2007" height="1301"/>
  </clipPath>
</defs>
<polyline clip-path="url(#clip092)" style="stroke:#000000; stroke-linecap:butt; stroke-linejoin:round; stroke-width:2; stroke-opacity:0.1; fill:none" points="
  261.687,1347.54 261.687,47.2441 
  "/>
<polyline clip-path="url(#clip092)" style="stroke:#000000; stroke-linecap:butt; stroke-linejoin:round; stroke-width:2; stroke-opacity:0.1; fill:none" points="
  1265.71,1347.54 1265.71,47.2441 
  "/>
<polyline clip-path="url(#clip090)" style="stroke:#000000; stroke-linecap:butt; stroke-linejoin:round; stroke-width:4; stroke-opacity:1; fill:none" points="
  250.882,1347.54 2256.76,1347.54 
  "/>
<polyline clip-path="url(#clip090)" style="stroke:#000000; stroke-linecap:butt; stroke-linejoin:round; stroke-width:4; stroke-opacity:1; fill:none" points="
  261.687,1347.54 261.687,1328.64 
  "/>
<polyline clip-path="url(#clip090)" style="stroke:#000000; stroke-linecap:butt; stroke-linejoin:round; stroke-width:4; stroke-opacity:1; fill:none" points="
  1265.71,1347.54 1265.71,1328.64 
  "/>
<path clip-path="url(#clip090)" d="M199.455 1420.89 L207.094 1420.89 L207.094 1394.53 L198.784 1396.19 L198.784 1391.94 L207.048 1390.27 L211.724 1390.27 L211.724 1420.89 L219.363 1420.89 L219.363 1424.83 L199.455 1424.83 L199.455 1420.89 Z" fill="#000000" fill-rule="evenodd" fill-opacity="1" /><path clip-path="url(#clip090)" d="M238.807 1393.35 Q235.196 1393.35 233.367 1396.91 Q231.562 1400.45 231.562 1407.58 Q231.562 1414.69 233.367 1418.25 Q235.196 1421.8 238.807 1421.8 Q242.441 1421.8 244.247 1418.25 Q246.076 1414.69 246.076 1407.58 Q246.076 1400.45 244.247 1396.91 Q242.441 1393.35 238.807 1393.35 M238.807 1389.64 Q244.617 1389.64 247.673 1394.25 Q250.751 1398.83 250.751 1407.58 Q250.751 1416.31 247.673 1420.92 Q244.617 1425.5 238.807 1425.5 Q232.997 1425.5 229.918 1420.92 Q226.863 1416.31 226.863 1407.58 Q226.863 1398.83 229.918 1394.25 Q232.997 1389.64 238.807 1389.64 Z" fill="#000000" fill-rule="evenodd" fill-opacity="1" /><path clip-path="url(#clip090)" d="M250.751 1383.74 L274.863 1383.74 L274.863 1386.94 L250.751 1386.94 L250.751 1383.74 Z" fill="#000000" fill-rule="evenodd" fill-opacity="1" /><path clip-path="url(#clip090)" d="M283.721 1394.22 L289.928 1394.22 L289.928 1372.8 L283.176 1374.15 L283.176 1370.69 L289.89 1369.34 L293.69 1369.34 L293.69 1394.22 L299.896 1394.22 L299.896 1397.42 L283.721 1397.42 L283.721 1394.22 Z" fill="#000000" fill-rule="evenodd" fill-opacity="1" /><path clip-path="url(#clip090)" d="M307.607 1369.34 L322.522 1369.34 L322.522 1372.54 L311.087 1372.54 L311.087 1379.42 Q311.914 1379.14 312.742 1379.01 Q313.569 1378.85 314.397 1378.85 Q319.099 1378.85 321.845 1381.43 Q324.591 1384.01 324.591 1388.41 Q324.591 1392.94 321.77 1395.46 Q318.948 1397.96 313.814 1397.96 Q312.046 1397.96 310.203 1397.66 Q308.378 1397.36 306.422 1396.76 L306.422 1392.94 Q308.115 1393.86 309.921 1394.31 Q311.726 1394.77 313.739 1394.77 Q316.992 1394.77 318.892 1393.05 Q320.792 1391.34 320.792 1388.41 Q320.792 1385.48 318.892 1383.76 Q316.992 1382.05 313.739 1382.05 Q312.215 1382.05 310.692 1382.39 Q309.187 1382.73 307.607 1383.44 L307.607 1369.34 Z" fill="#000000" fill-rule="evenodd" fill-opacity="1" /><path clip-path="url(#clip090)" d="M1203.07 1420.89 L1210.71 1420.89 L1210.71 1394.53 L1202.4 1396.19 L1202.4 1391.94 L1210.66 1390.27 L1215.34 1390.27 L1215.34 1420.89 L1222.98 1420.89 L1222.98 1424.83 L1203.07 1424.83 L1203.07 1420.89 Z" fill="#000000" fill-rule="evenodd" fill-opacity="1" /><path clip-path="url(#clip090)" d="M1242.42 1393.35 Q1238.81 1393.35 1236.98 1396.91 Q1235.18 1400.45 1235.18 1407.58 Q1235.18 1414.69 1236.98 1418.25 Q1238.81 1421.8 1242.42 1421.8 Q1246.05 1421.8 1247.86 1418.25 Q1249.69 1414.69 1249.69 1407.58 Q1249.69 1400.45 1247.86 1396.91 Q1246.05 1393.35 1242.42 1393.35 M1242.42 1389.64 Q1248.23 1389.64 1251.29 1394.25 Q1254.36 1398.83 1254.36 1407.58 Q1254.36 1416.31 1251.29 1420.92 Q1248.23 1425.5 1242.42 1425.5 Q1236.61 1425.5 1233.53 1420.92 Q1230.48 1416.31 1230.48 1407.58 Q1230.48 1398.83 1233.53 1394.25 Q1236.61 1389.64 1242.42 1389.64 Z" fill="#000000" fill-rule="evenodd" fill-opacity="1" /><path clip-path="url(#clip090)" d="M1254.36 1383.74 L1278.48 1383.74 L1278.48 1386.94 L1254.36 1386.94 L1254.36 1383.74 Z" fill="#000000" fill-rule="evenodd" fill-opacity="1" /><path clip-path="url(#clip090)" d="M1287.33 1394.22 L1293.54 1394.22 L1293.54 1372.8 L1286.79 1374.15 L1286.79 1370.69 L1293.5 1369.34 L1297.3 1369.34 L1297.3 1394.22 L1303.51 1394.22 L1303.51 1397.42 L1287.33 1397.42 L1287.33 1394.22 Z" fill="#000000" fill-rule="evenodd" fill-opacity="1" /><path clip-path="url(#clip090)" d="M1319.31 1371.84 Q1316.37 1371.84 1314.89 1374.74 Q1313.42 1377.61 1313.42 1383.41 Q1313.42 1389.18 1314.89 1392.08 Q1316.37 1394.95 1319.31 1394.95 Q1322.26 1394.95 1323.73 1392.08 Q1325.21 1389.18 1325.21 1383.41 Q1325.21 1377.61 1323.73 1374.74 Q1322.26 1371.84 1319.31 1371.84 M1319.31 1368.83 Q1324.03 1368.83 1326.51 1372.57 Q1329.01 1376.3 1329.01 1383.41 Q1329.01 1390.5 1326.51 1394.24 Q1324.03 1397.96 1319.31 1397.96 Q1314.59 1397.96 1312.09 1394.24 Q1309.6 1390.5 1309.6 1383.41 Q1309.6 1376.3 1312.09 1372.57 Q1314.59 1368.83 1319.31 1368.83 Z" fill="#000000" fill-rule="evenodd" fill-opacity="1" /><path clip-path="url(#clip090)" d="M1177.57 1461.87 L1207.62 1461.87 L1207.62 1467.28 L1184 1467.28 L1184 1481.34 L1206.63 1481.34 L1206.63 1486.76 L1184 1486.76 L1184 1503.97 L1208.19 1503.97 L1208.19 1509.39 L1177.57 1509.39 L1177.57 1461.87 Z" fill="#000000" fill-rule="evenodd" fill-opacity="1" /><path clip-path="url(#clip090)" d="M1239.16 1479.21 Q1238.18 1478.64 1237 1478.38 Q1235.85 1478.1 1234.45 1478.1 Q1229.49 1478.1 1226.81 1481.34 Q1224.17 1484.56 1224.17 1490.61 L1224.17 1509.39 L1218.28 1509.39 L1218.28 1473.74 L1224.17 1473.74 L1224.17 1479.28 Q1226.02 1476.03 1228.98 1474.47 Q1231.94 1472.88 1236.17 1472.88 Q1236.77 1472.88 1237.51 1472.97 Q1238.24 1473.04 1239.13 1473.2 L1239.16 1479.21 Z" fill="#000000" fill-rule="evenodd" fill-opacity="1" /><path clip-path="url(#clip090)" d="M1264.82 1479.21 Q1263.83 1478.64 1262.65 1478.38 Q1261.51 1478.1 1260.11 1478.1 Q1255.14 1478.1 1252.47 1481.34 Q1249.82 1484.56 1249.82 1490.61 L1249.82 1509.39 L1243.94 1509.39 L1243.94 1473.74 L1249.82 1473.74 L1249.82 1479.28 Q1251.67 1476.03 1254.63 1474.47 Q1257.59 1472.88 1261.82 1472.88 Q1262.43 1472.88 1263.16 1472.97 Q1263.89 1473.04 1264.78 1473.2 L1264.82 1479.21 Z" fill="#000000" fill-rule="evenodd" fill-opacity="1" /><path clip-path="url(#clip090)" d="M1283.34 1477.84 Q1278.63 1477.84 1275.89 1481.54 Q1273.15 1485.2 1273.15 1491.59 Q1273.15 1497.99 1275.86 1501.68 Q1278.6 1505.34 1283.34 1505.34 Q1288.02 1505.34 1290.76 1501.65 Q1293.49 1497.96 1293.49 1491.59 Q1293.49 1485.26 1290.76 1481.57 Q1288.02 1477.84 1283.34 1477.84 M1283.34 1472.88 Q1290.98 1472.88 1295.34 1477.84 Q1299.7 1482.81 1299.7 1491.59 Q1299.7 1500.35 1295.34 1505.34 Q1290.98 1510.31 1283.34 1510.31 Q1275.67 1510.31 1271.31 1505.34 Q1266.98 1500.35 1266.98 1491.59 Q1266.98 1482.81 1271.31 1477.84 Q1275.67 1472.88 1283.34 1472.88 Z" fill="#000000" fill-rule="evenodd" fill-opacity="1" /><path clip-path="url(#clip090)" d="M1330.06 1479.21 Q1329.08 1478.64 1327.9 1478.38 Q1326.75 1478.1 1325.35 1478.1 Q1320.39 1478.1 1317.71 1481.34 Q1315.07 1484.56 1315.07 1490.61 L1315.07 1509.39 L1309.18 1509.39 L1309.18 1473.74 L1315.07 1473.74 L1315.07 1479.28 Q1316.92 1476.03 1319.88 1474.47 Q1322.84 1472.88 1327.07 1472.88 Q1327.68 1472.88 1328.41 1472.97 Q1329.14 1473.04 1330.03 1473.2 L1330.06 1479.21 Z" fill="#000000" fill-rule="evenodd" fill-opacity="1" /><polyline clip-path="url(#clip092)" style="stroke:#000000; stroke-linecap:butt; stroke-linejoin:round; stroke-width:2; stroke-opacity:0.1; fill:none" points="
  250.882,910.487 2256.76,910.487 
  "/>
<polyline clip-path="url(#clip092)" style="stroke:#000000; stroke-linecap:butt; stroke-linejoin:round; stroke-width:2; stroke-opacity:0.1; fill:none" points="
  250.882,406.029 2256.76,406.029 
  "/>
<polyline clip-path="url(#clip090)" style="stroke:#000000; stroke-linecap:butt; stroke-linejoin:round; stroke-width:4; stroke-opacity:1; fill:none" points="
  250.882,1347.54 250.882,47.2441 
  "/>
<polyline clip-path="url(#clip090)" style="stroke:#000000; stroke-linecap:butt; stroke-linejoin:round; stroke-width:4; stroke-opacity:1; fill:none" points="
  250.882,910.487 269.78,910.487 
  "/>
<polyline clip-path="url(#clip090)" style="stroke:#000000; stroke-linecap:butt; stroke-linejoin:round; stroke-width:4; stroke-opacity:1; fill:none" points="
  250.882,406.029 269.78,406.029 
  "/>
<path clip-path="url(#clip090)" d="M115.411 930.279 L123.05 930.279 L123.05 903.913 L114.74 905.58 L114.74 901.321 L123.004 899.654 L127.68 899.654 L127.68 930.279 L135.319 930.279 L135.319 934.214 L115.411 934.214 L115.411 930.279 Z" fill="#000000" fill-rule="evenodd" fill-opacity="1" /><path clip-path="url(#clip090)" d="M154.763 902.733 Q151.152 902.733 149.323 906.298 Q147.518 909.839 147.518 916.969 Q147.518 924.075 149.323 927.64 Q151.152 931.182 154.763 931.182 Q158.397 931.182 160.203 927.64 Q162.032 924.075 162.032 916.969 Q162.032 909.839 160.203 906.298 Q158.397 902.733 154.763 902.733 M154.763 899.029 Q160.573 899.029 163.629 903.636 Q166.707 908.219 166.707 916.969 Q166.707 925.696 163.629 930.302 Q160.573 934.885 154.763 934.885 Q148.953 934.885 145.874 930.302 Q142.819 925.696 142.819 916.969 Q142.819 908.219 145.874 903.636 Q148.953 899.029 154.763 899.029 Z" fill="#000000" fill-rule="evenodd" fill-opacity="1" /><path clip-path="url(#clip090)" d="M166.707 893.13 L190.819 893.13 L190.819 896.328 L166.707 896.328 L166.707 893.13 Z" fill="#000000" fill-rule="evenodd" fill-opacity="1" /><path clip-path="url(#clip090)" d="M210.53 891.663 Q213.257 892.246 214.78 894.09 Q216.322 895.933 216.322 898.641 Q216.322 902.798 213.464 905.073 Q210.605 907.349 205.339 907.349 Q203.571 907.349 201.69 906.992 Q199.828 906.653 197.834 905.957 L197.834 902.29 Q199.414 903.211 201.295 903.682 Q203.176 904.152 205.226 904.152 Q208.799 904.152 210.661 902.741 Q212.542 901.331 212.542 898.641 Q212.542 896.159 210.793 894.767 Q209.063 893.356 205.959 893.356 L202.687 893.356 L202.687 890.234 L206.11 890.234 Q208.912 890.234 210.398 889.124 Q211.884 887.996 211.884 885.889 Q211.884 883.727 210.341 882.579 Q208.818 881.413 205.959 881.413 Q204.398 881.413 202.612 881.752 Q200.825 882.09 198.681 882.805 L198.681 879.42 Q200.844 878.818 202.724 878.517 Q204.624 878.216 206.298 878.216 Q210.624 878.216 213.144 880.191 Q215.664 882.147 215.664 885.495 Q215.664 887.827 214.329 889.444 Q212.993 891.043 210.53 891.663 Z" fill="#000000" fill-rule="evenodd" fill-opacity="1" /><path clip-path="url(#clip090)" d="M116.183 425.821 L123.821 425.821 L123.821 399.456 L115.511 401.122 L115.511 396.863 L123.775 395.196 L128.451 395.196 L128.451 425.821 L136.09 425.821 L136.09 429.756 L116.183 429.756 L116.183 425.821 Z" fill="#000000" fill-rule="evenodd" fill-opacity="1" /><path clip-path="url(#clip090)" d="M155.534 398.275 Q151.923 398.275 150.094 401.84 Q148.289 405.382 148.289 412.511 Q148.289 419.618 150.094 423.182 Q151.923 426.724 155.534 426.724 Q159.168 426.724 160.974 423.182 Q162.803 419.618 162.803 412.511 Q162.803 405.382 160.974 401.84 Q159.168 398.275 155.534 398.275 M155.534 394.571 Q161.344 394.571 164.4 399.178 Q167.479 403.761 167.479 412.511 Q167.479 421.238 164.4 425.844 Q161.344 430.428 155.534 430.428 Q149.724 430.428 146.645 425.844 Q143.59 421.238 143.59 412.511 Q143.59 403.761 146.645 399.178 Q149.724 394.571 155.534 394.571 Z" fill="#000000" fill-rule="evenodd" fill-opacity="1" /><path clip-path="url(#clip090)" d="M167.479 388.673 L191.59 388.673 L191.59 391.87 L167.479 391.87 L167.479 388.673 Z" fill="#000000" fill-rule="evenodd" fill-opacity="1" /><path clip-path="url(#clip090)" d="M203.063 399.149 L216.322 399.149 L216.322 402.346 L198.493 402.346 L198.493 399.149 Q200.655 396.911 204.379 393.149 Q208.122 389.369 209.081 388.278 Q210.906 386.228 211.62 384.817 Q212.354 383.388 212.354 382.015 Q212.354 379.777 210.774 378.366 Q209.213 376.955 206.693 376.955 Q204.906 376.955 202.912 377.576 Q200.938 378.197 198.681 379.457 L198.681 375.62 Q200.975 374.699 202.969 374.228 Q204.962 373.758 206.618 373.758 Q210.981 373.758 213.576 375.94 Q216.172 378.122 216.172 381.77 Q216.172 383.501 215.514 385.062 Q214.874 386.604 213.163 388.71 Q212.692 389.256 210.172 391.87 Q207.652 394.466 203.063 399.149 Z" fill="#000000" fill-rule="evenodd" fill-opacity="1" /><path clip-path="url(#clip090)" d="M18.4042 827.219 L18.4042 787.02 L23.815 787.02 L23.815 803.889 L65.9242 803.889 L65.9242 810.35 L23.815 810.35 L23.815 827.219 L18.4042 827.219 Z" fill="#000000" fill-rule="evenodd" fill-opacity="1" /><path clip-path="url(#clip090)" d="M30.2762 783.073 L30.2762 777.216 L65.9242 777.216 L65.9242 783.073 L30.2762 783.073 M16.399 783.073 L16.399 777.216 L23.815 777.216 L23.815 783.073 L16.399 783.073 Z" fill="#000000" fill-rule="evenodd" fill-opacity="1" /><path clip-path="url(#clip090)" d="M37.1193 737.208 Q33.1726 735.012 31.2947 731.956 Q29.4168 728.901 29.4168 724.763 Q29.4168 719.193 33.3317 716.169 Q37.2148 713.145 44.4081 713.145 L65.9242 713.145 L65.9242 719.034 L44.599 719.034 Q39.4746 719.034 36.992 720.848 Q34.5094 722.662 34.5094 726.386 Q34.5094 730.938 37.5331 733.579 Q40.5568 736.221 45.7767 736.221 L65.9242 736.221 L65.9242 742.109 L44.599 742.109 Q39.4428 742.109 36.992 743.924 Q34.5094 745.738 34.5094 749.526 Q34.5094 754.013 37.5649 756.655 Q40.5886 759.297 45.7767 759.297 L65.9242 759.297 L65.9242 765.185 L30.2762 765.185 L30.2762 759.297 L35.8144 759.297 Q32.536 757.292 30.9764 754.491 Q29.4168 751.69 29.4168 747.839 Q29.4168 743.956 31.3902 741.25 Q33.3636 738.513 37.1193 737.208 Z" fill="#000000" fill-rule="evenodd" fill-opacity="1" /><path clip-path="url(#clip090)" d="M46.6361 670.973 L49.5006 670.973 L49.5006 697.9 Q55.5481 697.518 58.7309 694.271 Q61.8819 690.993 61.8819 685.168 Q61.8819 681.794 61.0544 678.643 Q60.2269 675.461 58.5718 672.341 L64.1099 672.341 Q65.4467 675.492 66.147 678.803 Q66.8472 682.113 66.8472 685.518 Q66.8472 694.048 61.8819 699.045 Q56.9167 704.011 48.4503 704.011 Q39.6974 704.011 34.5731 699.3 Q29.4168 694.558 29.4168 686.537 Q29.4168 679.344 34.0638 675.174 Q38.6789 670.973 46.6361 670.973 M44.9173 676.829 Q40.1112 676.893 37.2466 679.535 Q34.3821 682.145 34.3821 686.473 Q34.3821 691.375 37.1512 694.335 Q39.9202 697.263 44.9492 697.709 L44.9173 676.829 Z" fill="#000000" fill-rule="evenodd" fill-opacity="1" /><path clip-path="url(#clip090)" d="M16.4626 626.572 Q23.7832 630.837 30.9446 632.906 Q38.106 634.975 45.4584 634.975 Q52.8108 634.975 60.0359 632.906 Q67.2291 630.805 74.5179 626.572 L74.5179 631.664 Q67.0382 636.439 59.8131 638.826 Q52.588 641.181 45.4584 641.181 Q38.3606 641.181 31.1674 638.826 Q23.9742 636.471 16.4626 631.664 L16.4626 626.572 Z" fill="#000000" fill-rule="evenodd" fill-opacity="1" /><path clip-path="url(#clip090)" d="M31.3265 592.484 L36.8647 592.484 Q35.5916 594.966 34.955 597.64 Q34.3184 600.313 34.3184 603.178 Q34.3184 607.538 35.6552 609.735 Q36.992 611.899 39.6656 611.899 Q41.7026 611.899 42.8803 610.339 Q44.0261 608.78 45.0765 604.069 L45.5221 602.064 Q46.8589 595.826 49.3097 593.216 Q51.7286 590.574 56.0891 590.574 Q61.0544 590.574 63.9508 594.521 Q66.8472 598.435 66.8472 605.31 Q66.8472 608.175 66.2743 611.294 Q65.7332 614.382 64.6192 617.819 L58.5718 617.819 Q60.2587 614.573 61.118 611.422 Q61.9456 608.27 61.9456 605.183 Q61.9456 601.045 60.5451 598.817 Q59.1129 596.589 56.5347 596.589 Q54.1476 596.589 52.8745 598.213 Q51.6013 599.804 50.4237 605.247 L49.9462 607.284 Q48.8004 612.726 46.4451 615.145 Q44.058 617.564 39.9202 617.564 Q34.8913 617.564 32.1541 614 Q29.4168 610.435 29.4168 603.878 Q29.4168 600.632 29.8943 597.767 Q30.3717 594.902 31.3265 592.484 Z" fill="#000000" fill-rule="evenodd" fill-opacity="1" /><path clip-path="url(#clip090)" d="M16.4626 582.171 L16.4626 577.079 Q23.9742 572.304 31.1674 569.949 Q38.3606 567.562 45.4584 567.562 Q52.588 567.562 59.8131 569.949 Q67.0382 572.304 74.5179 577.079 L74.5179 582.171 Q67.2291 577.938 60.0359 575.869 Q52.8108 573.768 45.4584 573.768 Q38.106 573.768 30.9446 575.869 Q23.7832 577.938 16.4626 582.171 Z" fill="#000000" fill-rule="evenodd" fill-opacity="1" /><polyline clip-path="url(#clip092)" style="stroke:#009af9; stroke-linecap:butt; stroke-linejoin:round; stroke-width:12; stroke-opacity:1; fill:none" points="
  2157.06,980.051 1937.91,901.523 1751.43,812.58 1695.42,686.294 1415.84,598.171 1325.3,571.111 1117.61,473.926 
  "/>
<line clip-path="url(#clip092)" x1="2157.06" y1="980.051" x2="2157.06" y2="964.051" style="stroke:#009af9; stroke-width:3.072; stroke-opacity:1"/>
<line clip-path="url(#clip092)" x1="2157.06" y1="980.051" x2="2141.06" y2="980.051" style="stroke:#009af9; stroke-width:3.072; stroke-opacity:1"/>
<line clip-path="url(#clip092)" x1="2157.06" y1="980.051" x2="2157.06" y2="996.051" style="stroke:#009af9; stroke-width:3.072; stroke-opacity:1"/>
<line clip-path="url(#clip092)" x1="2157.06" y1="980.051" x2="2173.06" y2="980.051" style="stroke:#009af9; stroke-width:3.072; stroke-opacity:1"/>
<line clip-path="url(#clip092)" x1="1937.91" y1="901.523" x2="1937.91" y2="885.523" style="stroke:#009af9; stroke-width:3.072; stroke-opacity:1"/>
<line clip-path="url(#clip092)" x1="1937.91" y1="901.523" x2="1921.91" y2="901.523" style="stroke:#009af9; stroke-width:3.072; stroke-opacity:1"/>
<line clip-path="url(#clip092)" x1="1937.91" y1="901.523" x2="1937.91" y2="917.523" style="stroke:#009af9; stroke-width:3.072; stroke-opacity:1"/>
<line clip-path="url(#clip092)" x1="1937.91" y1="901.523" x2="1953.91" y2="901.523" style="stroke:#009af9; stroke-width:3.072; stroke-opacity:1"/>
<line clip-path="url(#clip092)" x1="1751.43" y1="812.58" x2="1751.43" y2="796.58" style="stroke:#009af9; stroke-width:3.072; stroke-opacity:1"/>
<line clip-path="url(#clip092)" x1="1751.43" y1="812.58" x2="1735.43" y2="812.58" style="stroke:#009af9; stroke-width:3.072; stroke-opacity:1"/>
<line clip-path="url(#clip092)" x1="1751.43" y1="812.58" x2="1751.43" y2="828.58" style="stroke:#009af9; stroke-width:3.072; stroke-opacity:1"/>
<line clip-path="url(#clip092)" x1="1751.43" y1="812.58" x2="1767.43" y2="812.58" style="stroke:#009af9; stroke-width:3.072; stroke-opacity:1"/>
<line clip-path="url(#clip092)" x1="1695.42" y1="686.294" x2="1695.42" y2="670.294" style="stroke:#009af9; stroke-width:3.072; stroke-opacity:1"/>
<line clip-path="url(#clip092)" x1="1695.42" y1="686.294" x2="1679.42" y2="686.294" style="stroke:#009af9; stroke-width:3.072; stroke-opacity:1"/>
<line clip-path="url(#clip092)" x1="1695.42" y1="686.294" x2="1695.42" y2="702.294" style="stroke:#009af9; stroke-width:3.072; stroke-opacity:1"/>
<line clip-path="url(#clip092)" x1="1695.42" y1="686.294" x2="1711.42" y2="686.294" style="stroke:#009af9; stroke-width:3.072; stroke-opacity:1"/>
<line clip-path="url(#clip092)" x1="1415.84" y1="598.171" x2="1415.84" y2="582.171" style="stroke:#009af9; stroke-width:3.072; stroke-opacity:1"/>
<line clip-path="url(#clip092)" x1="1415.84" y1="598.171" x2="1399.84" y2="598.171" style="stroke:#009af9; stroke-width:3.072; stroke-opacity:1"/>
<line clip-path="url(#clip092)" x1="1415.84" y1="598.171" x2="1415.84" y2="614.171" style="stroke:#009af9; stroke-width:3.072; stroke-opacity:1"/>
<line clip-path="url(#clip092)" x1="1415.84" y1="598.171" x2="1431.84" y2="598.171" style="stroke:#009af9; stroke-width:3.072; stroke-opacity:1"/>
<line clip-path="url(#clip092)" x1="1325.3" y1="571.111" x2="1325.3" y2="555.111" style="stroke:#009af9; stroke-width:3.072; stroke-opacity:1"/>
<line clip-path="url(#clip092)" x1="1325.3" y1="571.111" x2="1309.3" y2="571.111" style="stroke:#009af9; stroke-width:3.072; stroke-opacity:1"/>
<line clip-path="url(#clip092)" x1="1325.3" y1="571.111" x2="1325.3" y2="587.111" style="stroke:#009af9; stroke-width:3.072; stroke-opacity:1"/>
<line clip-path="url(#clip092)" x1="1325.3" y1="571.111" x2="1341.3" y2="571.111" style="stroke:#009af9; stroke-width:3.072; stroke-opacity:1"/>
<line clip-path="url(#clip092)" x1="1117.61" y1="473.926" x2="1117.61" y2="457.926" style="stroke:#009af9; stroke-width:3.072; stroke-opacity:1"/>
<line clip-path="url(#clip092)" x1="1117.61" y1="473.926" x2="1101.61" y2="473.926" style="stroke:#009af9; stroke-width:3.072; stroke-opacity:1"/>
<line clip-path="url(#clip092)" x1="1117.61" y1="473.926" x2="1117.61" y2="489.926" style="stroke:#009af9; stroke-width:3.072; stroke-opacity:1"/>
<line clip-path="url(#clip092)" x1="1117.61" y1="473.926" x2="1133.61" y2="473.926" style="stroke:#009af9; stroke-width:3.072; stroke-opacity:1"/>
<polyline clip-path="url(#clip092)" style="stroke:#e26f46; stroke-linecap:butt; stroke-linejoin:round; stroke-width:12; stroke-opacity:1; fill:none" points="
  2199.99,1128.27 2044.55,1056.44 1832.54,999.879 1664.38,926.623 1458.16,878.161 1300.3,810.029 1126.58,752.772 
  "/>
<circle clip-path="url(#clip092)" cx="2199.99" cy="1128.27" r="14" fill="#e26f46" fill-rule="evenodd" fill-opacity="1" stroke="#000000" stroke-opacity="1" stroke-width="3.072"/>
<circle clip-path="url(#clip092)" cx="2044.55" cy="1056.44" r="14" fill="#e26f46" fill-rule="evenodd" fill-opacity="1" stroke="#000000" stroke-opacity="1" stroke-width="3.072"/>
<circle clip-path="url(#clip092)" cx="1832.54" cy="999.879" r="14" fill="#e26f46" fill-rule="evenodd" fill-opacity="1" stroke="#000000" stroke-opacity="1" stroke-width="3.072"/>
<circle clip-path="url(#clip092)" cx="1664.38" cy="926.623" r="14" fill="#e26f46" fill-rule="evenodd" fill-opacity="1" stroke="#000000" stroke-opacity="1" stroke-width="3.072"/>
<circle clip-path="url(#clip092)" cx="1458.16" cy="878.161" r="14" fill="#e26f46" fill-rule="evenodd" fill-opacity="1" stroke="#000000" stroke-opacity="1" stroke-width="3.072"/>
<circle clip-path="url(#clip092)" cx="1300.3" cy="810.029" r="14" fill="#e26f46" fill-rule="evenodd" fill-opacity="1" stroke="#000000" stroke-opacity="1" stroke-width="3.072"/>
<circle clip-path="url(#clip092)" cx="1126.58" cy="752.772" r="14" fill="#e26f46" fill-rule="evenodd" fill-opacity="1" stroke="#000000" stroke-opacity="1" stroke-width="3.072"/>
<polyline clip-path="url(#clip092)" style="stroke:#3da44d; stroke-linecap:butt; stroke-linejoin:round; stroke-width:12; stroke-opacity:1; fill:none" points="
  1774.51,1282.04 1625.74,1163.09 1436.56,1035.51 1214.43,886.397 939.179,721.781 498.898,551.738 320.712,364.144 
  "/>
<line clip-path="url(#clip092)" x1="1774.51" y1="1282.04" x2="1774.51" y2="1266.04" style="stroke:#3da44d; stroke-width:3.072; stroke-opacity:1"/>
<line clip-path="url(#clip092)" x1="1774.51" y1="1282.04" x2="1758.51" y2="1282.04" style="stroke:#3da44d; stroke-width:3.072; stroke-opacity:1"/>
<line clip-path="url(#clip092)" x1="1774.51" y1="1282.04" x2="1774.51" y2="1298.04" style="stroke:#3da44d; stroke-width:3.072; stroke-opacity:1"/>
<line clip-path="url(#clip092)" x1="1774.51" y1="1282.04" x2="1790.51" y2="1282.04" style="stroke:#3da44d; stroke-width:3.072; stroke-opacity:1"/>
<line clip-path="url(#clip092)" x1="1625.74" y1="1163.09" x2="1625.74" y2="1147.09" style="stroke:#3da44d; stroke-width:3.072; stroke-opacity:1"/>
<line clip-path="url(#clip092)" x1="1625.74" y1="1163.09" x2="1609.74" y2="1163.09" style="stroke:#3da44d; stroke-width:3.072; stroke-opacity:1"/>
<line clip-path="url(#clip092)" x1="1625.74" y1="1163.09" x2="1625.74" y2="1179.09" style="stroke:#3da44d; stroke-width:3.072; stroke-opacity:1"/>
<line clip-path="url(#clip092)" x1="1625.74" y1="1163.09" x2="1641.74" y2="1163.09" style="stroke:#3da44d; stroke-width:3.072; stroke-opacity:1"/>
<line clip-path="url(#clip092)" x1="1436.56" y1="1035.51" x2="1436.56" y2="1019.51" style="stroke:#3da44d; stroke-width:3.072; stroke-opacity:1"/>
<line clip-path="url(#clip092)" x1="1436.56" y1="1035.51" x2="1420.56" y2="1035.51" style="stroke:#3da44d; stroke-width:3.072; stroke-opacity:1"/>
<line clip-path="url(#clip092)" x1="1436.56" y1="1035.51" x2="1436.56" y2="1051.51" style="stroke:#3da44d; stroke-width:3.072; stroke-opacity:1"/>
<line clip-path="url(#clip092)" x1="1436.56" y1="1035.51" x2="1452.56" y2="1035.51" style="stroke:#3da44d; stroke-width:3.072; stroke-opacity:1"/>
<line clip-path="url(#clip092)" x1="1214.43" y1="886.397" x2="1214.43" y2="870.397" style="stroke:#3da44d; stroke-width:3.072; stroke-opacity:1"/>
<line clip-path="url(#clip092)" x1="1214.43" y1="886.397" x2="1198.43" y2="886.397" style="stroke:#3da44d; stroke-width:3.072; stroke-opacity:1"/>
<line clip-path="url(#clip092)" x1="1214.43" y1="886.397" x2="1214.43" y2="902.397" style="stroke:#3da44d; stroke-width:3.072; stroke-opacity:1"/>
<line clip-path="url(#clip092)" x1="1214.43" y1="886.397" x2="1230.43" y2="886.397" style="stroke:#3da44d; stroke-width:3.072; stroke-opacity:1"/>
<line clip-path="url(#clip092)" x1="939.179" y1="721.781" x2="939.179" y2="705.781" style="stroke:#3da44d; stroke-width:3.072; stroke-opacity:1"/>
<line clip-path="url(#clip092)" x1="939.179" y1="721.781" x2="923.179" y2="721.781" style="stroke:#3da44d; stroke-width:3.072; stroke-opacity:1"/>
<line clip-path="url(#clip092)" x1="939.179" y1="721.781" x2="939.179" y2="737.781" style="stroke:#3da44d; stroke-width:3.072; stroke-opacity:1"/>
<line clip-path="url(#clip092)" x1="939.179" y1="721.781" x2="955.179" y2="721.781" style="stroke:#3da44d; stroke-width:3.072; stroke-opacity:1"/>
<line clip-path="url(#clip092)" x1="498.898" y1="551.738" x2="498.898" y2="535.738" style="stroke:#3da44d; stroke-width:3.072; stroke-opacity:1"/>
<line clip-path="url(#clip092)" x1="498.898" y1="551.738" x2="482.898" y2="551.738" style="stroke:#3da44d; stroke-width:3.072; stroke-opacity:1"/>
<line clip-path="url(#clip092)" x1="498.898" y1="551.738" x2="498.898" y2="567.738" style="stroke:#3da44d; stroke-width:3.072; stroke-opacity:1"/>
<line clip-path="url(#clip092)" x1="498.898" y1="551.738" x2="514.898" y2="551.738" style="stroke:#3da44d; stroke-width:3.072; stroke-opacity:1"/>
<line clip-path="url(#clip092)" x1="320.712" y1="364.144" x2="320.712" y2="348.144" style="stroke:#3da44d; stroke-width:3.072; stroke-opacity:1"/>
<line clip-path="url(#clip092)" x1="320.712" y1="364.144" x2="304.712" y2="364.144" style="stroke:#3da44d; stroke-width:3.072; stroke-opacity:1"/>
<line clip-path="url(#clip092)" x1="320.712" y1="364.144" x2="320.712" y2="380.144" style="stroke:#3da44d; stroke-width:3.072; stroke-opacity:1"/>
<line clip-path="url(#clip092)" x1="320.712" y1="364.144" x2="336.712" y2="364.144" style="stroke:#3da44d; stroke-width:3.072; stroke-opacity:1"/>
<polyline clip-path="url(#clip092)" style="stroke:#c271d2; stroke-linecap:butt; stroke-linejoin:round; stroke-width:12; stroke-opacity:1; fill:none" points="
  2060.32,1121.58 2036.14,1040.78 1850.78,1007.18 1667.52,973.379 1496.89,931.024 1340.25,895.083 1137.1,830.646 
  "/>
<path clip-path="url(#clip092)" d="M2060.32 1105.58 L2044.32 1121.58 L2060.32 1137.58 L2076.32 1121.58 L2060.32 1105.58 Z" fill="#c271d2" fill-rule="evenodd" fill-opacity="1" stroke="#000000" stroke-opacity="1" stroke-width="3.072"/>
<path clip-path="url(#clip092)" d="M2036.14 1024.78 L2020.14 1040.78 L2036.14 1056.78 L2052.14 1040.78 L2036.14 1024.78 Z" fill="#c271d2" fill-rule="evenodd" fill-opacity="1" stroke="#000000" stroke-opacity="1" stroke-width="3.072"/>
<path clip-path="url(#clip092)" d="M1850.78 991.182 L1834.78 1007.18 L1850.78 1023.18 L1866.78 1007.18 L1850.78 991.182 Z" fill="#c271d2" fill-rule="evenodd" fill-opacity="1" stroke="#000000" stroke-opacity="1" stroke-width="3.072"/>
<path clip-path="url(#clip092)" d="M1667.52 957.379 L1651.52 973.379 L1667.52 989.379 L1683.52 973.379 L1667.52 957.379 Z" fill="#c271d2" fill-rule="evenodd" fill-opacity="1" stroke="#000000" stroke-opacity="1" stroke-width="3.072"/>
<path clip-path="url(#clip092)" d="M1496.89 915.024 L1480.89 931.024 L1496.89 947.024 L1512.89 931.024 L1496.89 915.024 Z" fill="#c271d2" fill-rule="evenodd" fill-opacity="1" stroke="#000000" stroke-opacity="1" stroke-width="3.072"/>
<path clip-path="url(#clip092)" d="M1340.25 879.083 L1324.25 895.083 L1340.25 911.083 L1356.25 895.083 L1340.25 879.083 Z" fill="#c271d2" fill-rule="evenodd" fill-opacity="1" stroke="#000000" stroke-opacity="1" stroke-width="3.072"/>
<path clip-path="url(#clip092)" d="M1137.1 814.646 L1121.1 830.646 L1137.1 846.646 L1153.1 830.646 L1137.1 814.646 Z" fill="#c271d2" fill-rule="evenodd" fill-opacity="1" stroke="#000000" stroke-opacity="1" stroke-width="3.072"/>
<polyline clip-path="url(#clip092)" style="stroke:#ac8d18; stroke-linecap:butt; stroke-linejoin:round; stroke-width:12; stroke-opacity:1; fill:none" points="
  2173.04,1061.77 2056.13,972.424 1846.32,916.633 1678.55,841.311 1454.75,798.433 1280.28,728.662 1081.65,671.234 
  "/>
<path clip-path="url(#clip092)" d="M2189.04 1045.77 L2157.04 1045.77 L2173.04 1077.77 L2189.04 1045.77 Z" fill="#ac8d18" fill-rule="evenodd" fill-opacity="1" stroke="#000000" stroke-opacity="1" stroke-width="3.072"/>
<path clip-path="url(#clip092)" d="M2072.13 956.424 L2040.13 956.424 L2056.13 988.424 L2072.13 956.424 Z" fill="#ac8d18" fill-rule="evenodd" fill-opacity="1" stroke="#000000" stroke-opacity="1" stroke-width="3.072"/>
<path clip-path="url(#clip092)" d="M1862.32 900.633 L1830.32 900.633 L1846.32 932.633 L1862.32 900.633 Z" fill="#ac8d18" fill-rule="evenodd" fill-opacity="1" stroke="#000000" stroke-opacity="1" stroke-width="3.072"/>
<path clip-path="url(#clip092)" d="M1694.55 825.311 L1662.55 825.311 L1678.55 857.311 L1694.55 825.311 Z" fill="#ac8d18" fill-rule="evenodd" fill-opacity="1" stroke="#000000" stroke-opacity="1" stroke-width="3.072"/>
<path clip-path="url(#clip092)" d="M1470.75 782.433 L1438.75 782.433 L1454.75 814.433 L1470.75 782.433 Z" fill="#ac8d18" fill-rule="evenodd" fill-opacity="1" stroke="#000000" stroke-opacity="1" stroke-width="3.072"/>
<path clip-path="url(#clip092)" d="M1296.28 712.662 L1264.28 712.662 L1280.28 744.662 L1296.28 712.662 Z" fill="#ac8d18" fill-rule="evenodd" fill-opacity="1" stroke="#000000" stroke-opacity="1" stroke-width="3.072"/>
<path clip-path="url(#clip092)" d="M1097.65 655.234 L1065.65 655.234 L1081.65 687.234 L1097.65 655.234 Z" fill="#ac8d18" fill-rule="evenodd" fill-opacity="1" stroke="#000000" stroke-opacity="1" stroke-width="3.072"/>
<polyline clip-path="url(#clip092)" style="stroke:#00a9ad; stroke-linecap:butt; stroke-linejoin:round; stroke-width:12; stroke-opacity:1; fill:none" points="
  1889.23,1310.74 1606.03,1233.83 1270.93,1135.32 1139.33,1029.01 999.065,895.706 722.465,707.113 481.643,529.074 
  "/>
<path clip-path="url(#clip092)" d="M1889.23 1294.74 L1876.72 1300.77 L1873.63 1314.3 L1882.29 1325.15 L1896.17 1325.15 L1904.83 1314.3 L1901.74 1300.77 Z" fill="#00a9ad" fill-rule="evenodd" fill-opacity="1" stroke="#000000" stroke-opacity="1" stroke-width="3.072"/>
<path clip-path="url(#clip092)" d="M1606.03 1217.83 L1593.51 1223.86 L1590.43 1237.4 L1599.08 1248.24 L1612.97 1248.24 L1621.63 1237.4 L1618.54 1223.86 Z" fill="#00a9ad" fill-rule="evenodd" fill-opacity="1" stroke="#000000" stroke-opacity="1" stroke-width="3.072"/>
<path clip-path="url(#clip092)" d="M1270.93 1119.32 L1258.42 1125.35 L1255.33 1138.89 L1263.99 1149.73 L1277.88 1149.73 L1286.53 1138.89 L1283.45 1125.35 Z" fill="#00a9ad" fill-rule="evenodd" fill-opacity="1" stroke="#000000" stroke-opacity="1" stroke-width="3.072"/>
<path clip-path="url(#clip092)" d="M1139.33 1013.01 L1126.81 1019.04 L1123.73 1032.58 L1132.38 1043.43 L1146.27 1043.43 L1154.93 1032.58 L1151.84 1019.04 Z" fill="#00a9ad" fill-rule="evenodd" fill-opacity="1" stroke="#000000" stroke-opacity="1" stroke-width="3.072"/>
<path clip-path="url(#clip092)" d="M999.065 879.706 L986.553 885.738 L983.465 899.274 L992.121 910.122 L1006.01 910.122 L1014.67 899.274 L1011.58 885.738 Z" fill="#00a9ad" fill-rule="evenodd" fill-opacity="1" stroke="#000000" stroke-opacity="1" stroke-width="3.072"/>
<path clip-path="url(#clip092)" d="M722.465 691.113 L709.953 697.145 L706.865 710.681 L715.521 721.529 L729.409 721.529 L738.065 710.681 L734.977 697.145 Z" fill="#00a9ad" fill-rule="evenodd" fill-opacity="1" stroke="#000000" stroke-opacity="1" stroke-width="3.072"/>
<path clip-path="url(#clip092)" d="M481.643 513.074 L469.131 519.106 L466.043 532.642 L474.699 543.49 L488.587 543.49 L497.243 532.642 L494.155 519.106 Z" fill="#00a9ad" fill-rule="evenodd" fill-opacity="1" stroke="#000000" stroke-opacity="1" stroke-width="3.072"/>
<polyline clip-path="url(#clip092)" style="stroke:#ed5d92; stroke-linecap:butt; stroke-linejoin:round; stroke-width:12; stroke-opacity:1; fill:none" points="
  1799.66,1057.75 1650.49,940.852 1452.74,797.127 1229.88,630.741 969.407,449.281 571.009,267.261 307.652,84.0448 
  "/>
<path clip-path="url(#clip092)" d="M1799.66 1073.75 L1785.8 1065.75 L1785.8 1049.75 L1799.66 1041.75 L1813.51 1049.75 L1813.51 1065.75 Z" fill="#ed5d92" fill-rule="evenodd" fill-opacity="1" stroke="#000000" stroke-opacity="1" stroke-width="3.072"/>
<path clip-path="url(#clip092)" d="M1650.49 956.852 L1636.64 948.852 L1636.64 932.852 L1650.49 924.852 L1664.35 932.852 L1664.35 948.852 Z" fill="#ed5d92" fill-rule="evenodd" fill-opacity="1" stroke="#000000" stroke-opacity="1" stroke-width="3.072"/>
<path clip-path="url(#clip092)" d="M1452.74 813.127 L1438.89 805.127 L1438.89 789.127 L1452.74 781.127 L1466.6 789.127 L1466.6 805.127 Z" fill="#ed5d92" fill-rule="evenodd" fill-opacity="1" stroke="#000000" stroke-opacity="1" stroke-width="3.072"/>
<path clip-path="url(#clip092)" d="M1229.88 646.741 L1216.03 638.741 L1216.03 622.741 L1229.88 614.741 L1243.74 622.741 L1243.74 638.741 Z" fill="#ed5d92" fill-rule="evenodd" fill-opacity="1" stroke="#000000" stroke-opacity="1" stroke-width="3.072"/>
<path clip-path="url(#clip092)" d="M969.407 465.281 L955.551 457.281 L955.551 441.281 L969.407 433.281 L983.263 441.281 L983.263 457.281 Z" fill="#ed5d92" fill-rule="evenodd" fill-opacity="1" stroke="#000000" stroke-opacity="1" stroke-width="3.072"/>
<path clip-path="url(#clip092)" d="M571.009 283.261 L557.153 275.261 L557.153 259.261 L571.009 251.261 L584.865 259.261 L584.865 275.261 Z" fill="#ed5d92" fill-rule="evenodd" fill-opacity="1" stroke="#000000" stroke-opacity="1" stroke-width="3.072"/>
<path clip-path="url(#clip092)" d="M307.652 100.045 L293.796 92.0448 L293.796 76.0448 L307.652 68.0448 L321.508 76.0448 L321.508 92.0448 Z" fill="#ed5d92" fill-rule="evenodd" fill-opacity="1" stroke="#000000" stroke-opacity="1" stroke-width="3.072"/>
<polyline clip-path="url(#clip092)" style="stroke:#c68125; stroke-linecap:butt; stroke-linejoin:round; stroke-width:12; stroke-opacity:1; fill:none" points="
  1726.44,958.017 1587.5,925.625 1132.69,890.924 1390.67,836.279 1294.35,794.752 888.738,769.653 927.146,726.209 
  "/>
<line clip-path="url(#clip092)" x1="1742.44" y1="958.017" x2="1710.44" y2="958.017" style="stroke:#c68125; stroke-width:3.072; stroke-opacity:1"/>
<line clip-path="url(#clip092)" x1="1603.5" y1="925.625" x2="1571.5" y2="925.625" style="stroke:#c68125; stroke-width:3.072; stroke-opacity:1"/>
<line clip-path="url(#clip092)" x1="1148.69" y1="890.924" x2="1116.69" y2="890.924" style="stroke:#c68125; stroke-width:3.072; stroke-opacity:1"/>
<line clip-path="url(#clip092)" x1="1406.67" y1="836.279" x2="1374.67" y2="836.279" style="stroke:#c68125; stroke-width:3.072; stroke-opacity:1"/>
<line clip-path="url(#clip092)" x1="1310.35" y1="794.752" x2="1278.35" y2="794.752" style="stroke:#c68125; stroke-width:3.072; stroke-opacity:1"/>
<line clip-path="url(#clip092)" x1="904.738" y1="769.653" x2="872.738" y2="769.653" style="stroke:#c68125; stroke-width:3.072; stroke-opacity:1"/>
<line clip-path="url(#clip092)" x1="943.146" y1="726.209" x2="911.146" y2="726.209" style="stroke:#c68125; stroke-width:3.072; stroke-opacity:1"/>
<polyline clip-path="url(#clip092)" style="stroke:#00a98d; stroke-linecap:butt; stroke-linejoin:round; stroke-width:12; stroke-opacity:1; fill:none" points="
  2127.75,1249.36 1911.62,1165.68 1746.74,1121.1 1559.69,1061.3 1413.91,965.405 1188.11,921.638 1018,862.761 
  "/>
<path clip-path="url(#clip092)" d="M2114.95 1249.36 L2134.15 1260.56 L2134.15 1238.16 L2114.95 1249.36 Z" fill="#00a98d" fill-rule="evenodd" fill-opacity="1" stroke="#000000" stroke-opacity="1" stroke-width="3.072"/>
<path clip-path="url(#clip092)" d="M1898.82 1165.68 L1918.02 1176.88 L1918.02 1154.48 L1898.82 1165.68 Z" fill="#00a98d" fill-rule="evenodd" fill-opacity="1" stroke="#000000" stroke-opacity="1" stroke-width="3.072"/>
<path clip-path="url(#clip092)" d="M1733.94 1121.1 L1753.14 1132.3 L1753.14 1109.9 L1733.94 1121.1 Z" fill="#00a98d" fill-rule="evenodd" fill-opacity="1" stroke="#000000" stroke-opacity="1" stroke-width="3.072"/>
<path clip-path="url(#clip092)" d="M1546.89 1061.3 L1566.09 1072.5 L1566.09 1050.1 L1546.89 1061.3 Z" fill="#00a98d" fill-rule="evenodd" fill-opacity="1" stroke="#000000" stroke-opacity="1" stroke-width="3.072"/>
<path clip-path="url(#clip092)" d="M1401.11 965.405 L1420.31 976.605 L1420.31 954.205 L1401.11 965.405 Z" fill="#00a98d" fill-rule="evenodd" fill-opacity="1" stroke="#000000" stroke-opacity="1" stroke-width="3.072"/>
<path clip-path="url(#clip092)" d="M1175.31 921.638 L1194.51 932.838 L1194.51 910.438 L1175.31 921.638 Z" fill="#00a98d" fill-rule="evenodd" fill-opacity="1" stroke="#000000" stroke-opacity="1" stroke-width="3.072"/>
<path clip-path="url(#clip092)" d="M1005.2 862.761 L1024.4 873.961 L1024.4 851.561 L1005.2 862.761 Z" fill="#00a98d" fill-rule="evenodd" fill-opacity="1" stroke="#000000" stroke-opacity="1" stroke-width="3.072"/>
<polyline clip-path="url(#clip092)" style="stroke:#8e971d; stroke-linecap:butt; stroke-linejoin:round; stroke-width:12; stroke-opacity:1; fill:none" points="
  1826.58,1219.62 1750.75,1165.32 1605.16,1122.84 1503.73,1019.04 1350.03,988.939 1158.52,920.14 900.914,849.583 
  "/>
<path clip-path="url(#clip092)" d="M1826.58 1235.62 L1815.27 1230.94 L1810.58 1219.62 L1815.27 1208.31 L1826.58 1203.62 L1837.89 1208.31 L1842.58 1219.62 L1837.89 1230.94 Z" fill="#8e971d" fill-rule="evenodd" fill-opacity="1" stroke="#000000" stroke-opacity="1" stroke-width="3.072"/>
<path clip-path="url(#clip092)" d="M1750.75 1181.32 L1739.44 1176.63 L1734.75 1165.32 L1739.44 1154 L1750.75 1149.32 L1762.06 1154 L1766.75 1165.32 L1762.06 1176.63 Z" fill="#8e971d" fill-rule="evenodd" fill-opacity="1" stroke="#000000" stroke-opacity="1" stroke-width="3.072"/>
<path clip-path="url(#clip092)" d="M1605.16 1138.84 L1593.85 1134.15 L1589.16 1122.84 L1593.85 1111.53 L1605.16 1106.84 L1616.47 1111.53 L1621.16 1122.84 L1616.47 1134.15 Z" fill="#8e971d" fill-rule="evenodd" fill-opacity="1" stroke="#000000" stroke-opacity="1" stroke-width="3.072"/>
<path clip-path="url(#clip092)" d="M1503.73 1035.04 L1492.42 1030.35 L1487.73 1019.04 L1492.42 1007.73 L1503.73 1003.04 L1515.04 1007.73 L1519.73 1019.04 L1515.04 1030.35 Z" fill="#8e971d" fill-rule="evenodd" fill-opacity="1" stroke="#000000" stroke-opacity="1" stroke-width="3.072"/>
<path clip-path="url(#clip092)" d="M1350.03 1004.94 L1338.71 1000.25 L1334.03 988.939 L1338.71 977.627 L1350.03 972.939 L1361.34 977.627 L1366.03 988.939 L1361.34 1000.25 Z" fill="#8e971d" fill-rule="evenodd" fill-opacity="1" stroke="#000000" stroke-opacity="1" stroke-width="3.072"/>
<path clip-path="url(#clip092)" d="M1158.52 936.14 L1147.2 931.452 L1142.52 920.14 L1147.2 908.828 L1158.52 904.14 L1169.83 908.828 L1174.52 920.14 L1169.83 931.452 Z" fill="#8e971d" fill-rule="evenodd" fill-opacity="1" stroke="#000000" stroke-opacity="1" stroke-width="3.072"/>
<path clip-path="url(#clip092)" d="M900.914 865.583 L889.602 860.895 L884.914 849.583 L889.602 838.271 L900.914 833.583 L912.226 838.271 L916.914 849.583 L912.226 860.895 Z" fill="#8e971d" fill-rule="evenodd" fill-opacity="1" stroke="#000000" stroke-opacity="1" stroke-width="3.072"/>
<path clip-path="url(#clip090)" d="
M1683.96 660.827 L2189.89 660.827 L2189.89 90.5872 L1683.96 90.5872  Z
  " fill="#ffffff" fill-rule="evenodd" fill-opacity="1"/>
<polyline clip-path="url(#clip090)" style="stroke:#000000; stroke-linecap:butt; stroke-linejoin:round; stroke-width:4; stroke-opacity:1; fill:none" points="
  1683.96,660.827 2189.89,660.827 2189.89,90.5872 1683.96,90.5872 1683.96,660.827 
  "/>
<polyline clip-path="url(#clip090)" style="stroke:#009af9; stroke-linecap:butt; stroke-linejoin:round; stroke-width:4; stroke-opacity:1; fill:none" points="
  1706.25,142.427 1839.98,142.427 
  "/>
<line clip-path="url(#clip090)" x1="1773.11" y1="142.427" x2="1773.11" y2="116.827" style="stroke:#009af9; stroke-width:4.9152; stroke-opacity:1"/>
<line clip-path="url(#clip090)" x1="1773.11" y1="142.427" x2="1747.51" y2="142.427" style="stroke:#009af9; stroke-width:4.9152; stroke-opacity:1"/>
<line clip-path="url(#clip090)" x1="1773.11" y1="142.427" x2="1773.11" y2="168.027" style="stroke:#009af9; stroke-width:4.9152; stroke-opacity:1"/>
<line clip-path="url(#clip090)" x1="1773.11" y1="142.427" x2="1798.71" y2="142.427" style="stroke:#009af9; stroke-width:4.9152; stroke-opacity:1"/>
<path clip-path="url(#clip090)" d="M1862.26 125.147 L1882.13 125.147 L1882.13 129.082 L1866.94 129.082 L1866.94 139.267 L1880.64 139.267 L1880.64 143.203 L1866.94 143.203 L1866.94 159.707 L1862.26 159.707 L1862.26 125.147 Z" fill="#000000" fill-rule="evenodd" fill-opacity="1" /><path clip-path="url(#clip090)" d="M1894.21 143.203 L1894.21 155.865 L1901.71 155.865 Q1905.48 155.865 1907.29 154.314 Q1909.12 152.74 1909.12 149.522 Q1909.12 146.281 1907.29 144.754 Q1905.48 143.203 1901.71 143.203 L1894.21 143.203 M1894.21 128.99 L1894.21 139.406 L1901.13 139.406 Q1904.56 139.406 1906.22 138.133 Q1907.91 136.837 1907.91 134.198 Q1907.91 131.582 1906.22 130.286 Q1904.56 128.99 1901.13 128.99 L1894.21 128.99 M1889.53 125.147 L1901.48 125.147 Q1906.82 125.147 1909.72 127.369 Q1912.61 129.592 1912.61 133.689 Q1912.61 136.86 1911.13 138.735 Q1909.65 140.61 1906.78 141.073 Q1910.23 141.814 1912.13 144.175 Q1914.05 146.513 1914.05 150.031 Q1914.05 154.661 1910.9 157.184 Q1907.75 159.707 1901.94 159.707 L1889.53 159.707 L1889.53 125.147 Z" fill="#000000" fill-rule="evenodd" fill-opacity="1" /><path clip-path="url(#clip090)" d="M1926.73 128.99 L1926.73 155.865 L1932.38 155.865 Q1939.53 155.865 1942.84 152.624 Q1946.18 149.383 1946.18 142.392 Q1946.18 135.448 1942.84 132.23 Q1939.53 128.99 1932.38 128.99 L1926.73 128.99 M1922.06 125.147 L1931.66 125.147 Q1941.71 125.147 1946.41 129.337 Q1951.11 133.504 1951.11 142.392 Q1951.11 151.328 1946.38 155.517 Q1941.66 159.707 1931.66 159.707 L1922.06 159.707 L1922.06 125.147 Z" fill="#000000" fill-rule="evenodd" fill-opacity="1" /><path clip-path="url(#clip090)" d="M1958.56 125.147 L1978.42 125.147 L1978.42 129.082 L1963.24 129.082 L1963.24 139.267 L1976.94 139.267 L1976.94 143.203 L1963.24 143.203 L1963.24 159.707 L1958.56 159.707 L1958.56 125.147 Z" fill="#000000" fill-rule="evenodd" fill-opacity="1" /><polyline clip-path="url(#clip090)" style="stroke:#e26f46; stroke-linecap:butt; stroke-linejoin:round; stroke-width:4; stroke-opacity:1; fill:none" points="
  1706.25,194.267 1839.98,194.267 
  "/>
<circle clip-path="url(#clip090)" cx="1773.11" cy="194.267" r="23" fill="#e26f46" fill-rule="evenodd" fill-opacity="1" stroke="#000000" stroke-opacity="1" stroke-width="4.9152"/>
<path clip-path="url(#clip090)" d="M1878.28 180.158 Q1873.19 180.158 1870.18 183.955 Q1867.19 187.751 1867.19 194.302 Q1867.19 200.83 1870.18 204.626 Q1873.19 208.422 1878.28 208.422 Q1883.38 208.422 1886.34 204.626 Q1889.32 200.83 1889.32 194.302 Q1889.32 187.751 1886.34 183.955 Q1883.38 180.158 1878.28 180.158 M1884.83 210.922 L1890.99 217.658 L1885.34 217.658 L1880.23 212.126 Q1879.46 212.172 1879.05 212.195 Q1878.65 212.218 1878.28 212.218 Q1870.99 212.218 1866.62 207.357 Q1862.26 202.473 1862.26 194.302 Q1862.26 186.108 1866.62 181.246 Q1870.99 176.362 1878.28 176.362 Q1885.55 176.362 1889.9 181.246 Q1894.26 186.108 1894.26 194.302 Q1894.26 200.32 1891.82 204.603 Q1889.42 208.885 1884.83 210.922 Z" fill="#000000" fill-rule="evenodd" fill-opacity="1" /><path clip-path="url(#clip090)" d="M1901.57 176.987 L1907.87 176.987 L1923.19 205.899 L1923.19 176.987 L1927.73 176.987 L1927.73 211.547 L1921.43 211.547 L1906.11 182.635 L1906.11 211.547 L1901.57 211.547 L1901.57 176.987 Z" fill="#000000" fill-rule="evenodd" fill-opacity="1" /><path clip-path="url(#clip090)" d="M1941.71 180.83 L1941.71 207.705 L1947.36 207.705 Q1954.51 207.705 1957.82 204.464 Q1961.15 201.223 1961.15 194.232 Q1961.15 187.288 1957.82 184.07 Q1954.51 180.83 1947.36 180.83 L1941.71 180.83 M1937.03 176.987 L1946.64 176.987 Q1956.69 176.987 1961.38 181.177 Q1966.08 185.344 1966.08 194.232 Q1966.08 203.168 1961.36 207.357 Q1956.64 211.547 1946.64 211.547 L1937.03 211.547 L1937.03 176.987 Z" fill="#000000" fill-rule="evenodd" fill-opacity="1" /><path clip-path="url(#clip090)" d="M1973.54 176.987 L1993.4 176.987 L1993.4 180.922 L1978.21 180.922 L1978.21 191.107 L1991.92 191.107 L1991.92 195.043 L1978.21 195.043 L1978.21 211.547 L1973.54 211.547 L1973.54 176.987 Z" fill="#000000" fill-rule="evenodd" fill-opacity="1" /><polyline clip-path="url(#clip090)" style="stroke:#3da44d; stroke-linecap:butt; stroke-linejoin:round; stroke-width:4; stroke-opacity:1; fill:none" points="
  1706.25,246.107 1839.98,246.107 
  "/>
<line clip-path="url(#clip090)" x1="1773.11" y1="246.107" x2="1773.11" y2="220.507" style="stroke:#3da44d; stroke-width:4.9152; stroke-opacity:1"/>
<line clip-path="url(#clip090)" x1="1773.11" y1="246.107" x2="1747.51" y2="246.107" style="stroke:#3da44d; stroke-width:4.9152; stroke-opacity:1"/>
<line clip-path="url(#clip090)" x1="1773.11" y1="246.107" x2="1773.11" y2="271.707" style="stroke:#3da44d; stroke-width:4.9152; stroke-opacity:1"/>
<line clip-path="url(#clip090)" x1="1773.11" y1="246.107" x2="1798.71" y2="246.107" style="stroke:#3da44d; stroke-width:4.9152; stroke-opacity:1"/>
<path clip-path="url(#clip090)" d="M1878.65 247.184 Q1880.16 247.693 1881.57 249.359 Q1883.01 251.026 1884.44 253.943 L1889.19 263.387 L1884.16 263.387 L1879.74 254.521 Q1878.03 251.049 1876.41 249.915 Q1874.81 248.781 1872.03 248.781 L1866.94 248.781 L1866.94 263.387 L1862.26 263.387 L1862.26 228.827 L1872.82 228.827 Q1878.75 228.827 1881.66 231.304 Q1884.58 233.781 1884.58 238.781 Q1884.58 242.045 1883.05 244.197 Q1881.55 246.35 1878.65 247.184 M1866.94 232.67 L1866.94 244.938 L1872.82 244.938 Q1876.2 244.938 1877.91 243.387 Q1879.65 241.813 1879.65 238.781 Q1879.65 235.748 1877.91 234.221 Q1876.2 232.67 1872.82 232.67 L1866.94 232.67 Z" fill="#000000" fill-rule="evenodd" fill-opacity="1" /><path clip-path="url(#clip090)" d="M1902.94 240.447 Q1899.51 240.447 1897.52 243.133 Q1895.53 245.795 1895.53 250.447 Q1895.53 255.1 1897.5 257.785 Q1899.49 260.447 1902.94 260.447 Q1906.34 260.447 1908.33 257.762 Q1910.32 255.077 1910.32 250.447 Q1910.32 245.841 1908.33 243.156 Q1906.34 240.447 1902.94 240.447 M1902.94 236.836 Q1908.49 236.836 1911.66 240.447 Q1914.83 244.059 1914.83 250.447 Q1914.83 256.813 1911.66 260.447 Q1908.49 264.058 1902.94 264.058 Q1897.36 264.058 1894.19 260.447 Q1891.04 256.813 1891.04 250.447 Q1891.04 244.059 1894.19 240.447 Q1897.36 236.836 1902.94 236.836 Z" fill="#000000" fill-rule="evenodd" fill-opacity="1" /><path clip-path="url(#clip090)" d="M1938.95 241.397 L1938.95 227.369 L1943.21 227.369 L1943.21 263.387 L1938.95 263.387 L1938.95 259.498 Q1937.61 261.813 1935.55 262.947 Q1933.51 264.058 1930.64 264.058 Q1925.94 264.058 1922.98 260.308 Q1920.04 256.559 1920.04 250.447 Q1920.04 244.336 1922.98 240.586 Q1925.94 236.836 1930.64 236.836 Q1933.51 236.836 1935.55 237.971 Q1937.61 239.082 1938.95 241.397 M1924.44 250.447 Q1924.44 255.146 1926.36 257.832 Q1928.31 260.494 1931.69 260.494 Q1935.06 260.494 1937.01 257.832 Q1938.95 255.146 1938.95 250.447 Q1938.95 245.748 1937.01 243.086 Q1935.06 240.401 1931.69 240.401 Q1928.31 240.401 1926.36 243.086 Q1924.44 245.748 1924.44 250.447 Z" fill="#000000" fill-rule="evenodd" fill-opacity="1" /><path clip-path="url(#clip090)" d="M1963.77 250.355 Q1958.61 250.355 1956.62 251.535 Q1954.63 252.716 1954.63 255.563 Q1954.63 257.832 1956.11 259.174 Q1957.61 260.494 1960.18 260.494 Q1963.72 260.494 1965.85 257.994 Q1968 255.471 1968 251.304 L1968 250.355 L1963.77 250.355 M1972.26 248.596 L1972.26 263.387 L1968 263.387 L1968 259.452 Q1966.55 261.813 1964.37 262.947 Q1962.19 264.058 1959.05 264.058 Q1955.06 264.058 1952.7 261.836 Q1950.37 259.591 1950.37 255.841 Q1950.37 251.466 1953.28 249.244 Q1956.22 247.022 1962.03 247.022 L1968 247.022 L1968 246.605 Q1968 243.665 1966.06 242.068 Q1964.14 240.447 1960.64 240.447 Q1958.42 240.447 1956.31 240.98 Q1954.21 241.512 1952.26 242.577 L1952.26 238.642 Q1954.6 237.739 1956.8 237.299 Q1959 236.836 1961.08 236.836 Q1966.71 236.836 1969.49 239.753 Q1972.26 242.67 1972.26 248.596 Z" fill="#000000" fill-rule="evenodd" fill-opacity="1" /><path clip-path="url(#clip090)" d="M1997.56 238.225 L1997.56 242.253 Q1995.76 241.327 1993.81 240.864 Q1991.87 240.401 1989.79 240.401 Q1986.62 240.401 1985.02 241.373 Q1983.44 242.346 1983.44 244.29 Q1983.44 245.772 1984.58 246.628 Q1985.71 247.461 1989.14 248.225 L1990.6 248.549 Q1995.13 249.522 1997.03 251.304 Q1998.95 253.063 1998.95 256.234 Q1998.95 259.846 1996.08 261.952 Q1993.24 264.058 1988.24 264.058 Q1986.15 264.058 1983.88 263.642 Q1981.64 263.248 1979.14 262.438 L1979.14 258.04 Q1981.5 259.267 1983.79 259.892 Q1986.08 260.494 1988.33 260.494 Q1991.34 260.494 1992.96 259.475 Q1994.58 258.434 1994.58 256.559 Q1994.58 254.822 1993.4 253.896 Q1992.24 252.971 1988.28 252.114 L1986.8 251.767 Q1982.84 250.934 1981.08 249.221 Q1979.32 247.484 1979.32 244.475 Q1979.32 240.818 1981.92 238.827 Q1984.51 236.836 1989.28 236.836 Q1991.64 236.836 1993.72 237.184 Q1995.81 237.531 1997.56 238.225 Z" fill="#000000" fill-rule="evenodd" fill-opacity="1" /><path clip-path="url(#clip090)" d="M2019.18 232.901 L2007.38 251.35 L2019.18 251.35 L2019.18 232.901 M2017.96 228.827 L2023.84 228.827 L2023.84 251.35 L2028.77 251.35 L2028.77 255.239 L2023.84 255.239 L2023.84 263.387 L2019.18 263.387 L2019.18 255.239 L2003.58 255.239 L2003.58 250.725 L2017.96 228.827 Z" fill="#000000" fill-rule="evenodd" fill-opacity="1" /><polyline clip-path="url(#clip090)" style="stroke:#c271d2; stroke-linecap:butt; stroke-linejoin:round; stroke-width:4; stroke-opacity:1; fill:none" points="
  1706.25,297.947 1839.98,297.947 
  "/>
<path clip-path="url(#clip090)" d="M1773.11 272.347 L1747.51 297.947 L1773.11 323.547 L1798.71 297.947 L1773.11 272.347 Z" fill="#c271d2" fill-rule="evenodd" fill-opacity="1" stroke="#000000" stroke-opacity="1" stroke-width="4.9152"/>
<path clip-path="url(#clip090)" d="M1890.13 283.329 L1890.13 288.26 Q1887.77 286.061 1885.09 284.973 Q1882.43 283.885 1879.42 283.885 Q1873.49 283.885 1870.34 287.519 Q1867.19 291.13 1867.19 297.982 Q1867.19 304.811 1870.34 308.445 Q1873.49 312.056 1879.42 312.056 Q1882.43 312.056 1885.09 310.968 Q1887.77 309.88 1890.13 307.681 L1890.13 312.565 Q1887.68 314.232 1884.93 315.065 Q1882.19 315.898 1879.14 315.898 Q1871.29 315.898 1866.78 311.107 Q1862.26 306.292 1862.26 297.982 Q1862.26 289.649 1866.78 284.857 Q1871.29 280.042 1879.14 280.042 Q1882.24 280.042 1884.97 280.876 Q1887.73 281.686 1890.13 283.329 Z" fill="#000000" fill-rule="evenodd" fill-opacity="1" /><path clip-path="url(#clip090)" d="M1906.27 315.227 L1893.07 280.667 L1897.96 280.667 L1908.91 309.764 L1919.88 280.667 L1924.74 280.667 L1911.57 315.227 L1906.27 315.227 Z" fill="#000000" fill-rule="evenodd" fill-opacity="1" /><path clip-path="url(#clip090)" d="M1942.98 283.838 Q1937.89 283.838 1934.88 287.635 Q1931.89 291.431 1931.89 297.982 Q1931.89 304.51 1934.88 308.306 Q1937.89 312.102 1942.98 312.102 Q1948.07 312.102 1951.04 308.306 Q1954.02 304.51 1954.02 297.982 Q1954.02 291.431 1951.04 287.635 Q1948.07 283.838 1942.98 283.838 M1942.98 280.042 Q1950.25 280.042 1954.6 284.926 Q1958.95 289.788 1958.95 297.982 Q1958.95 306.153 1954.6 311.037 Q1950.25 315.898 1942.98 315.898 Q1935.69 315.898 1931.32 311.037 Q1926.96 306.176 1926.96 297.982 Q1926.96 289.788 1931.32 284.926 Q1935.69 280.042 1942.98 280.042 Z" fill="#000000" fill-rule="evenodd" fill-opacity="1" /><path clip-path="url(#clip090)" d="M1970.94 284.51 L1970.94 311.385 L1976.59 311.385 Q1983.75 311.385 1987.06 308.144 Q1990.39 304.903 1990.39 297.912 Q1990.39 290.968 1987.06 287.75 Q1983.75 284.51 1976.59 284.51 L1970.94 284.51 M1966.27 280.667 L1975.87 280.667 Q1985.92 280.667 1990.62 284.857 Q1995.32 289.024 1995.32 297.912 Q1995.32 306.848 1990.6 311.037 Q1985.87 315.227 1975.87 315.227 L1966.27 315.227 L1966.27 280.667 Z" fill="#000000" fill-rule="evenodd" fill-opacity="1" /><path clip-path="url(#clip090)" d="M2002.77 280.667 L2024.62 280.667 L2024.62 284.602 L2007.45 284.602 L2007.45 294.834 L2023.91 294.834 L2023.91 298.769 L2007.45 298.769 L2007.45 311.292 L2025.04 311.292 L2025.04 315.227 L2002.77 315.227 L2002.77 280.667 Z" fill="#000000" fill-rule="evenodd" fill-opacity="1" /><path clip-path="url(#clip090)" d="M2052.24 323.098 L2052.24 326.408 L2027.61 326.408 L2027.61 323.098 L2052.24 323.098 Z" fill="#000000" fill-rule="evenodd" fill-opacity="1" /><path clip-path="url(#clip090)" d="M2061.11 298.723 L2061.11 311.385 L2068.61 311.385 Q2072.38 311.385 2074.18 309.834 Q2076.01 308.26 2076.01 305.042 Q2076.01 301.801 2074.18 300.274 Q2072.38 298.723 2068.61 298.723 L2061.11 298.723 M2061.11 284.51 L2061.11 294.926 L2068.03 294.926 Q2071.45 294.926 2073.12 293.653 Q2074.81 292.357 2074.81 289.718 Q2074.81 287.102 2073.12 285.806 Q2071.45 284.51 2068.03 284.51 L2061.11 284.51 M2056.43 280.667 L2068.37 280.667 Q2073.72 280.667 2076.62 282.889 Q2079.51 285.112 2079.51 289.209 Q2079.51 292.38 2078.03 294.255 Q2076.55 296.13 2073.68 296.593 Q2077.12 297.334 2079.02 299.695 Q2080.94 302.033 2080.94 305.551 Q2080.94 310.181 2077.8 312.704 Q2074.65 315.227 2068.84 315.227 L2056.43 315.227 L2056.43 280.667 Z" fill="#000000" fill-rule="evenodd" fill-opacity="1" /><path clip-path="url(#clip090)" d="M2093.63 284.51 L2093.63 311.385 L2099.28 311.385 Q2106.43 311.385 2109.74 308.144 Q2113.07 304.903 2113.07 297.912 Q2113.07 290.968 2109.74 287.75 Q2106.43 284.51 2099.28 284.51 L2093.63 284.51 M2088.95 280.667 L2098.56 280.667 Q2108.61 280.667 2113.3 284.857 Q2118 289.024 2118 297.912 Q2118 306.848 2113.28 311.037 Q2108.56 315.227 2098.56 315.227 L2088.95 315.227 L2088.95 280.667 Z" fill="#000000" fill-rule="evenodd" fill-opacity="1" /><path clip-path="url(#clip090)" d="M2125.46 280.667 L2145.32 280.667 L2145.32 284.602 L2130.13 284.602 L2130.13 294.787 L2143.84 294.787 L2143.84 298.723 L2130.13 298.723 L2130.13 315.227 L2125.46 315.227 L2125.46 280.667 Z" fill="#000000" fill-rule="evenodd" fill-opacity="1" /><polyline clip-path="url(#clip090)" style="stroke:#ac8d18; stroke-linecap:butt; stroke-linejoin:round; stroke-width:4; stroke-opacity:1; fill:none" points="
  1706.25,349.787 1839.98,349.787 
  "/>
<path clip-path="url(#clip090)" d="M1798.71 324.187 L1747.51 324.187 L1773.11 375.387 L1798.71 324.187 Z" fill="#ac8d18" fill-rule="evenodd" fill-opacity="1" stroke="#000000" stroke-opacity="1" stroke-width="4.9152"/>
<path clip-path="url(#clip090)" d="M1881.18 345.077 L1881.18 331.049 L1885.44 331.049 L1885.44 367.067 L1881.18 367.067 L1881.18 363.178 Q1879.83 365.493 1877.77 366.627 Q1875.74 367.738 1872.87 367.738 Q1868.17 367.738 1865.2 363.988 Q1862.26 360.239 1862.26 354.127 Q1862.26 348.016 1865.2 344.266 Q1868.17 340.516 1872.87 340.516 Q1875.74 340.516 1877.77 341.651 Q1879.83 342.762 1881.18 345.077 M1866.66 354.127 Q1866.66 358.826 1868.58 361.512 Q1870.53 364.174 1873.91 364.174 Q1877.29 364.174 1879.23 361.512 Q1881.18 358.826 1881.18 354.127 Q1881.18 349.428 1879.23 346.766 Q1877.29 344.081 1873.91 344.081 Q1870.53 344.081 1868.58 346.766 Q1866.66 349.428 1866.66 354.127 Z" fill="#000000" fill-rule="evenodd" fill-opacity="1" /><path clip-path="url(#clip090)" d="M1911.27 345.077 L1911.27 331.049 L1915.53 331.049 L1915.53 367.067 L1911.27 367.067 L1911.27 363.178 Q1909.93 365.493 1907.87 366.627 Q1905.83 367.738 1902.96 367.738 Q1898.26 367.738 1895.3 363.988 Q1892.36 360.239 1892.36 354.127 Q1892.36 348.016 1895.3 344.266 Q1898.26 340.516 1902.96 340.516 Q1905.83 340.516 1907.87 341.651 Q1909.93 342.762 1911.27 345.077 M1896.76 354.127 Q1896.76 358.826 1898.68 361.512 Q1900.62 364.174 1904 364.174 Q1907.38 364.174 1909.32 361.512 Q1911.27 358.826 1911.27 354.127 Q1911.27 349.428 1909.32 346.766 Q1907.38 344.081 1904 344.081 Q1900.62 344.081 1898.68 346.766 Q1896.76 349.428 1896.76 354.127 Z" fill="#000000" fill-rule="evenodd" fill-opacity="1" /><path clip-path="url(#clip090)" d="M1946.48 353.039 L1946.48 355.123 L1926.89 355.123 Q1927.17 359.521 1929.53 361.836 Q1931.92 364.127 1936.15 364.127 Q1938.61 364.127 1940.9 363.526 Q1943.21 362.924 1945.48 361.72 L1945.48 365.748 Q1943.19 366.72 1940.78 367.229 Q1938.38 367.738 1935.9 367.738 Q1929.69 367.738 1926.06 364.127 Q1922.45 360.516 1922.45 354.359 Q1922.45 347.993 1925.88 344.266 Q1929.32 340.516 1935.16 340.516 Q1940.39 340.516 1943.42 343.896 Q1946.48 347.252 1946.48 353.039 M1942.22 351.789 Q1942.17 348.294 1940.25 346.211 Q1938.35 344.127 1935.2 344.127 Q1931.64 344.127 1929.49 346.141 Q1927.36 348.155 1927.03 351.813 L1942.22 351.789 Z" fill="#000000" fill-rule="evenodd" fill-opacity="1" /><path clip-path="url(#clip090)" d="M1972.08 354.127 Q1972.08 349.428 1970.13 346.766 Q1968.21 344.081 1964.83 344.081 Q1961.45 344.081 1959.51 346.766 Q1957.59 349.428 1957.59 354.127 Q1957.59 358.826 1959.51 361.512 Q1961.45 364.174 1964.83 364.174 Q1968.21 364.174 1970.13 361.512 Q1972.08 358.826 1972.08 354.127 M1957.59 345.077 Q1958.93 342.762 1960.97 341.651 Q1963.03 340.516 1965.88 340.516 Q1970.6 340.516 1973.54 344.266 Q1976.5 348.016 1976.5 354.127 Q1976.5 360.239 1973.54 363.988 Q1970.6 367.738 1965.88 367.738 Q1963.03 367.738 1960.97 366.627 Q1958.93 365.493 1957.59 363.178 L1957.59 367.067 L1953.31 367.067 L1953.31 331.049 L1957.59 331.049 L1957.59 345.077 Z" fill="#000000" fill-rule="evenodd" fill-opacity="1" /><path clip-path="url(#clip090)" d="M2000.62 345.077 L2000.62 331.049 L2004.88 331.049 L2004.88 367.067 L2000.62 367.067 L2000.62 363.178 Q1999.28 365.493 1997.22 366.627 Q1995.18 367.738 1992.31 367.738 Q1987.61 367.738 1984.65 363.988 Q1981.71 360.239 1981.71 354.127 Q1981.71 348.016 1984.65 344.266 Q1987.61 340.516 1992.31 340.516 Q1995.18 340.516 1997.22 341.651 Q1999.28 342.762 2000.62 345.077 M1986.11 354.127 Q1986.11 358.826 1988.03 361.512 Q1989.97 364.174 1993.35 364.174 Q1996.73 364.174 1998.68 361.512 Q2000.62 358.826 2000.62 354.127 Q2000.62 349.428 1998.68 346.766 Q1996.73 344.081 1993.35 344.081 Q1989.97 344.081 1988.03 346.766 Q1986.11 349.428 1986.11 354.127 Z" fill="#000000" fill-rule="evenodd" fill-opacity="1" /><path clip-path="url(#clip090)" d="M2026.78 331.049 L2026.78 334.591 L2022.7 334.591 Q2020.41 334.591 2019.51 335.516 Q2018.63 336.442 2018.63 338.85 L2018.63 341.141 L2025.64 341.141 L2025.64 344.452 L2018.63 344.452 L2018.63 367.067 L2014.35 367.067 L2014.35 344.452 L2010.27 344.452 L2010.27 341.141 L2014.35 341.141 L2014.35 339.336 Q2014.35 335.007 2016.36 333.04 Q2018.37 331.049 2022.75 331.049 L2026.78 331.049 Z" fill="#000000" fill-rule="evenodd" fill-opacity="1" /><polyline clip-path="url(#clip090)" style="stroke:#00a9ad; stroke-linecap:butt; stroke-linejoin:round; stroke-width:4; stroke-opacity:1; fill:none" points="
  1706.25,401.627 1839.98,401.627 
  "/>
<path clip-path="url(#clip090)" d="M1773.11 376.027 L1753.1 385.678 L1748.15 407.336 L1762 424.693 L1784.22 424.693 L1798.07 407.336 L1793.13 385.678 Z" fill="#00a9ad" fill-rule="evenodd" fill-opacity="1" stroke="#000000" stroke-opacity="1" stroke-width="4.9152"/>
<path clip-path="url(#clip090)" d="M1878.65 402.704 Q1880.16 403.213 1881.57 404.879 Q1883.01 406.546 1884.44 409.463 L1889.19 418.907 L1884.16 418.907 L1879.74 410.041 Q1878.03 406.569 1876.41 405.435 Q1874.81 404.301 1872.03 404.301 L1866.94 404.301 L1866.94 418.907 L1862.26 418.907 L1862.26 384.347 L1872.82 384.347 Q1878.75 384.347 1881.66 386.824 Q1884.58 389.301 1884.58 394.301 Q1884.58 397.565 1883.05 399.717 Q1881.55 401.87 1878.65 402.704 M1866.94 388.19 L1866.94 400.458 L1872.82 400.458 Q1876.2 400.458 1877.91 398.907 Q1879.65 397.333 1879.65 394.301 Q1879.65 391.268 1877.91 389.741 Q1876.2 388.19 1872.82 388.19 L1866.94 388.19 Z" fill="#000000" fill-rule="evenodd" fill-opacity="1" /><path clip-path="url(#clip090)" d="M1902.94 395.967 Q1899.51 395.967 1897.52 398.653 Q1895.53 401.315 1895.53 405.967 Q1895.53 410.62 1897.5 413.305 Q1899.49 415.967 1902.94 415.967 Q1906.34 415.967 1908.33 413.282 Q1910.32 410.597 1910.32 405.967 Q1910.32 401.361 1908.33 398.676 Q1906.34 395.967 1902.94 395.967 M1902.94 392.356 Q1908.49 392.356 1911.66 395.967 Q1914.83 399.579 1914.83 405.967 Q1914.83 412.333 1911.66 415.967 Q1908.49 419.578 1902.94 419.578 Q1897.36 419.578 1894.19 415.967 Q1891.04 412.333 1891.04 405.967 Q1891.04 399.579 1894.19 395.967 Q1897.36 392.356 1902.94 392.356 Z" fill="#000000" fill-rule="evenodd" fill-opacity="1" /><path clip-path="url(#clip090)" d="M1938.95 396.917 L1938.95 382.889 L1943.21 382.889 L1943.21 418.907 L1938.95 418.907 L1938.95 415.018 Q1937.61 417.333 1935.55 418.467 Q1933.51 419.578 1930.64 419.578 Q1925.94 419.578 1922.98 415.828 Q1920.04 412.079 1920.04 405.967 Q1920.04 399.856 1922.98 396.106 Q1925.94 392.356 1930.64 392.356 Q1933.51 392.356 1935.55 393.491 Q1937.61 394.602 1938.95 396.917 M1924.44 405.967 Q1924.44 410.666 1926.36 413.352 Q1928.31 416.014 1931.69 416.014 Q1935.06 416.014 1937.01 413.352 Q1938.95 410.666 1938.95 405.967 Q1938.95 401.268 1937.01 398.606 Q1935.06 395.921 1931.69 395.921 Q1928.31 395.921 1926.36 398.606 Q1924.44 401.268 1924.44 405.967 Z" fill="#000000" fill-rule="evenodd" fill-opacity="1" /><path clip-path="url(#clip090)" d="M1963.77 405.875 Q1958.61 405.875 1956.62 407.055 Q1954.63 408.236 1954.63 411.083 Q1954.63 413.352 1956.11 414.694 Q1957.61 416.014 1960.18 416.014 Q1963.72 416.014 1965.85 413.514 Q1968 410.991 1968 406.824 L1968 405.875 L1963.77 405.875 M1972.26 404.116 L1972.26 418.907 L1968 418.907 L1968 414.972 Q1966.55 417.333 1964.37 418.467 Q1962.19 419.578 1959.05 419.578 Q1955.06 419.578 1952.7 417.356 Q1950.37 415.111 1950.37 411.361 Q1950.37 406.986 1953.28 404.764 Q1956.22 402.542 1962.03 402.542 L1968 402.542 L1968 402.125 Q1968 399.185 1966.06 397.588 Q1964.14 395.967 1960.64 395.967 Q1958.42 395.967 1956.31 396.5 Q1954.21 397.032 1952.26 398.097 L1952.26 394.162 Q1954.6 393.259 1956.8 392.819 Q1959 392.356 1961.08 392.356 Q1966.71 392.356 1969.49 395.273 Q1972.26 398.19 1972.26 404.116 Z" fill="#000000" fill-rule="evenodd" fill-opacity="1" /><path clip-path="url(#clip090)" d="M1997.56 393.745 L1997.56 397.773 Q1995.76 396.847 1993.81 396.384 Q1991.87 395.921 1989.79 395.921 Q1986.62 395.921 1985.02 396.893 Q1983.44 397.866 1983.44 399.81 Q1983.44 401.292 1984.58 402.148 Q1985.71 402.981 1989.14 403.745 L1990.6 404.069 Q1995.13 405.042 1997.03 406.824 Q1998.95 408.583 1998.95 411.754 Q1998.95 415.366 1996.08 417.472 Q1993.24 419.578 1988.24 419.578 Q1986.15 419.578 1983.88 419.162 Q1981.64 418.768 1979.14 417.958 L1979.14 413.56 Q1981.5 414.787 1983.79 415.412 Q1986.08 416.014 1988.33 416.014 Q1991.34 416.014 1992.96 414.995 Q1994.58 413.954 1994.58 412.079 Q1994.58 410.342 1993.4 409.416 Q1992.24 408.491 1988.28 407.634 L1986.8 407.287 Q1982.84 406.454 1981.08 404.741 Q1979.32 403.004 1979.32 399.995 Q1979.32 396.338 1981.92 394.347 Q1984.51 392.356 1989.28 392.356 Q1991.64 392.356 1993.72 392.704 Q1995.81 393.051 1997.56 393.745 Z" fill="#000000" fill-rule="evenodd" fill-opacity="1" /><path clip-path="url(#clip090)" d="M2006.38 384.347 L2024.74 384.347 L2024.74 388.282 L2010.67 388.282 L2010.67 396.755 Q2011.68 396.407 2012.7 396.245 Q2013.72 396.06 2014.74 396.06 Q2020.53 396.06 2023.91 399.231 Q2027.29 402.403 2027.29 407.819 Q2027.29 413.398 2023.81 416.5 Q2020.34 419.578 2014.02 419.578 Q2011.85 419.578 2009.58 419.208 Q2007.33 418.838 2004.93 418.097 L2004.93 413.398 Q2007.01 414.532 2009.23 415.088 Q2011.45 415.643 2013.93 415.643 Q2017.93 415.643 2020.27 413.537 Q2022.61 411.43 2022.61 407.819 Q2022.61 404.208 2020.27 402.102 Q2017.93 399.995 2013.93 399.995 Q2012.06 399.995 2010.18 400.412 Q2008.33 400.829 2006.38 401.708 L2006.38 384.347 Z" fill="#000000" fill-rule="evenodd" fill-opacity="1" /><polyline clip-path="url(#clip090)" style="stroke:#ed5d92; stroke-linecap:butt; stroke-linejoin:round; stroke-width:4; stroke-opacity:1; fill:none" points="
  1706.25,453.467 1839.98,453.467 
  "/>
<path clip-path="url(#clip090)" d="M1773.11 479.067 L1750.94 466.267 L1750.94 440.667 L1773.11 427.867 L1795.28 440.667 L1795.28 466.267 Z" fill="#ed5d92" fill-rule="evenodd" fill-opacity="1" stroke="#000000" stroke-opacity="1" stroke-width="4.9152"/>
<path clip-path="url(#clip090)" d="M1877.45 448.803 Q1876.73 448.386 1875.88 448.201 Q1875.04 447.993 1874.02 447.993 Q1870.41 447.993 1868.47 450.354 Q1866.55 452.692 1866.55 457.09 L1866.55 470.747 L1862.26 470.747 L1862.26 444.821 L1866.55 444.821 L1866.55 448.849 Q1867.89 446.488 1870.04 445.354 Q1872.19 444.196 1875.27 444.196 Q1875.71 444.196 1876.25 444.266 Q1876.78 444.312 1877.43 444.428 L1877.45 448.803 Z" fill="#000000" fill-rule="evenodd" fill-opacity="1" /><path clip-path="url(#clip090)" d="M1890.92 447.807 Q1887.5 447.807 1885.51 450.493 Q1883.51 453.155 1883.51 457.807 Q1883.51 462.46 1885.48 465.145 Q1887.47 467.807 1890.92 467.807 Q1894.32 467.807 1896.32 465.122 Q1898.31 462.437 1898.31 457.807 Q1898.31 453.201 1896.32 450.516 Q1894.32 447.807 1890.92 447.807 M1890.92 444.196 Q1896.48 444.196 1899.65 447.807 Q1902.82 451.419 1902.82 457.807 Q1902.82 464.173 1899.65 467.807 Q1896.48 471.418 1890.92 471.418 Q1885.34 471.418 1882.17 467.807 Q1879.02 464.173 1879.02 457.807 Q1879.02 451.419 1882.17 447.807 Q1885.34 444.196 1890.92 444.196 Z" fill="#000000" fill-rule="evenodd" fill-opacity="1" /><path clip-path="url(#clip090)" d="M1926.94 448.757 L1926.94 434.729 L1931.2 434.729 L1931.2 470.747 L1926.94 470.747 L1926.94 466.858 Q1925.6 469.173 1923.54 470.307 Q1921.5 471.418 1918.63 471.418 Q1913.93 471.418 1910.97 467.668 Q1908.03 463.919 1908.03 457.807 Q1908.03 451.696 1910.97 447.946 Q1913.93 444.196 1918.63 444.196 Q1921.5 444.196 1923.54 445.331 Q1925.6 446.442 1926.94 448.757 M1912.43 457.807 Q1912.43 462.506 1914.35 465.192 Q1916.29 467.854 1919.67 467.854 Q1923.05 467.854 1925 465.192 Q1926.94 462.506 1926.94 457.807 Q1926.94 453.108 1925 450.446 Q1923.05 447.761 1919.67 447.761 Q1916.29 447.761 1914.35 450.446 Q1912.43 453.108 1912.43 457.807 Z" fill="#000000" fill-rule="evenodd" fill-opacity="1" /><path clip-path="url(#clip090)" d="M1951.75 457.715 Q1946.59 457.715 1944.6 458.895 Q1942.61 460.076 1942.61 462.923 Q1942.61 465.192 1944.09 466.534 Q1945.6 467.854 1948.17 467.854 Q1951.71 467.854 1953.84 465.354 Q1955.99 462.831 1955.99 458.664 L1955.99 457.715 L1951.75 457.715 M1960.25 455.956 L1960.25 470.747 L1955.99 470.747 L1955.99 466.812 Q1954.53 469.173 1952.36 470.307 Q1950.18 471.418 1947.03 471.418 Q1943.05 471.418 1940.69 469.196 Q1938.35 466.951 1938.35 463.201 Q1938.35 458.826 1941.27 456.604 Q1944.21 454.382 1950.02 454.382 L1955.99 454.382 L1955.99 453.965 Q1955.99 451.025 1954.05 449.428 Q1952.13 447.807 1948.63 447.807 Q1946.41 447.807 1944.3 448.34 Q1942.19 448.872 1940.25 449.937 L1940.25 446.002 Q1942.59 445.099 1944.79 444.659 Q1946.99 444.196 1949.07 444.196 Q1954.69 444.196 1957.47 447.113 Q1960.25 450.03 1960.25 455.956 Z" fill="#000000" fill-rule="evenodd" fill-opacity="1" /><path clip-path="url(#clip090)" d="M1985.55 445.585 L1985.55 449.613 Q1983.75 448.687 1981.8 448.224 Q1979.86 447.761 1977.77 447.761 Q1974.6 447.761 1973 448.733 Q1971.43 449.706 1971.43 451.65 Q1971.43 453.132 1972.56 453.988 Q1973.7 454.821 1977.12 455.585 L1978.58 455.909 Q1983.12 456.882 1985.02 458.664 Q1986.94 460.423 1986.94 463.594 Q1986.94 467.206 1984.07 469.312 Q1981.22 471.418 1976.22 471.418 Q1974.14 471.418 1971.87 471.002 Q1969.62 470.608 1967.12 469.798 L1967.12 465.4 Q1969.49 466.627 1971.78 467.252 Q1974.07 467.854 1976.31 467.854 Q1979.32 467.854 1980.94 466.835 Q1982.56 465.794 1982.56 463.919 Q1982.56 462.182 1981.38 461.256 Q1980.23 460.331 1976.27 459.474 L1974.79 459.127 Q1970.83 458.294 1969.07 456.581 Q1967.31 454.844 1967.31 451.835 Q1967.31 448.178 1969.9 446.187 Q1972.5 444.196 1977.26 444.196 Q1979.62 444.196 1981.71 444.544 Q1983.79 444.891 1985.55 445.585 Z" fill="#000000" fill-rule="evenodd" fill-opacity="1" /><polyline clip-path="url(#clip090)" style="stroke:#c68125; stroke-linecap:butt; stroke-linejoin:round; stroke-width:4; stroke-opacity:1; fill:none" points="
  1706.25,505.307 1839.98,505.307 
  "/>
<line clip-path="url(#clip090)" x1="1798.71" y1="505.307" x2="1747.51" y2="505.307" style="stroke:#c68125; stroke-width:4.9152; stroke-opacity:1"/>
<path clip-path="url(#clip090)" d="M1877.45 500.643 Q1876.73 500.226 1875.88 500.041 Q1875.04 499.833 1874.02 499.833 Q1870.41 499.833 1868.47 502.194 Q1866.55 504.532 1866.55 508.93 L1866.55 522.587 L1862.26 522.587 L1862.26 496.661 L1866.55 496.661 L1866.55 500.689 Q1867.89 498.328 1870.04 497.194 Q1872.19 496.036 1875.27 496.036 Q1875.71 496.036 1876.25 496.106 Q1876.78 496.152 1877.43 496.268 L1877.45 500.643 Z" fill="#000000" fill-rule="evenodd" fill-opacity="1" /><path clip-path="url(#clip090)" d="M1893.7 509.555 Q1888.54 509.555 1886.55 510.735 Q1884.56 511.916 1884.56 514.763 Q1884.56 517.032 1886.04 518.374 Q1887.54 519.694 1890.11 519.694 Q1893.65 519.694 1895.78 517.194 Q1897.94 514.671 1897.94 510.504 L1897.94 509.555 L1893.7 509.555 M1902.19 507.796 L1902.19 522.587 L1897.94 522.587 L1897.94 518.652 Q1896.48 521.013 1894.3 522.147 Q1892.13 523.258 1888.98 523.258 Q1885 523.258 1882.63 521.036 Q1880.3 518.791 1880.3 515.041 Q1880.3 510.666 1883.21 508.444 Q1886.15 506.222 1891.96 506.222 L1897.94 506.222 L1897.94 505.805 Q1897.94 502.865 1895.99 501.268 Q1894.07 499.647 1890.57 499.647 Q1888.35 499.647 1886.25 500.18 Q1884.14 500.712 1882.19 501.777 L1882.19 497.842 Q1884.53 496.939 1886.73 496.499 Q1888.93 496.036 1891.01 496.036 Q1896.64 496.036 1899.42 498.953 Q1902.19 501.87 1902.19 507.796 Z" fill="#000000" fill-rule="evenodd" fill-opacity="1" /><path clip-path="url(#clip090)" d="M1928.03 500.597 L1928.03 486.569 L1932.29 486.569 L1932.29 522.587 L1928.03 522.587 L1928.03 518.698 Q1926.69 521.013 1924.63 522.147 Q1922.59 523.258 1919.72 523.258 Q1915.02 523.258 1912.06 519.508 Q1909.12 515.759 1909.12 509.647 Q1909.12 503.536 1912.06 499.786 Q1915.02 496.036 1919.72 496.036 Q1922.59 496.036 1924.63 497.171 Q1926.69 498.282 1928.03 500.597 M1913.51 509.647 Q1913.51 514.346 1915.44 517.032 Q1917.38 519.694 1920.76 519.694 Q1924.14 519.694 1926.08 517.032 Q1928.03 514.346 1928.03 509.647 Q1928.03 504.948 1926.08 502.286 Q1924.14 499.601 1920.76 499.601 Q1917.38 499.601 1915.44 502.286 Q1913.51 504.948 1913.51 509.647 Z" fill="#000000" fill-rule="evenodd" fill-opacity="1" /><path clip-path="url(#clip090)" d="M1952.84 509.555 Q1947.68 509.555 1945.69 510.735 Q1943.7 511.916 1943.7 514.763 Q1943.7 517.032 1945.18 518.374 Q1946.69 519.694 1949.25 519.694 Q1952.8 519.694 1954.93 517.194 Q1957.08 514.671 1957.08 510.504 L1957.08 509.555 L1952.84 509.555 M1961.34 507.796 L1961.34 522.587 L1957.08 522.587 L1957.08 518.652 Q1955.62 521.013 1953.44 522.147 Q1951.27 523.258 1948.12 523.258 Q1944.14 523.258 1941.78 521.036 Q1939.44 518.791 1939.44 515.041 Q1939.44 510.666 1942.36 508.444 Q1945.3 506.222 1951.11 506.222 L1957.08 506.222 L1957.08 505.805 Q1957.08 502.865 1955.13 501.268 Q1953.21 499.647 1949.72 499.647 Q1947.5 499.647 1945.39 500.18 Q1943.28 500.712 1941.34 501.777 L1941.34 497.842 Q1943.68 496.939 1945.88 496.499 Q1948.07 496.036 1950.16 496.036 Q1955.78 496.036 1958.56 498.953 Q1961.34 501.87 1961.34 507.796 Z" fill="#000000" fill-rule="evenodd" fill-opacity="1" /><path clip-path="url(#clip090)" d="M1969.67 512.356 L1969.67 496.661 L1973.93 496.661 L1973.93 512.194 Q1973.93 515.874 1975.37 517.726 Q1976.8 519.555 1979.67 519.555 Q1983.12 519.555 1985.11 517.356 Q1987.12 515.157 1987.12 511.36 L1987.12 496.661 L1991.38 496.661 L1991.38 522.587 L1987.12 522.587 L1987.12 518.606 Q1985.57 520.967 1983.51 522.124 Q1981.48 523.258 1978.77 523.258 Q1974.3 523.258 1971.99 520.481 Q1969.67 517.703 1969.67 512.356 M1980.39 496.036 L1980.39 496.036 Z" fill="#000000" fill-rule="evenodd" fill-opacity="1" /><polyline clip-path="url(#clip090)" style="stroke:#00a98d; stroke-linecap:butt; stroke-linejoin:round; stroke-width:4; stroke-opacity:1; fill:none" points="
  1706.25,557.147 1839.98,557.147 
  "/>
<path clip-path="url(#clip090)" d="M1752.63 557.147 L1783.35 575.067 L1783.35 539.227 L1752.63 557.147 Z" fill="#00a98d" fill-rule="evenodd" fill-opacity="1" stroke="#000000" stroke-opacity="1" stroke-width="4.9152"/>
<path clip-path="url(#clip090)" d="M1862.26 538.409 L1866.52 538.409 L1866.52 574.427 L1862.26 574.427 L1862.26 538.409 Z" fill="#000000" fill-rule="evenodd" fill-opacity="1" /><path clip-path="url(#clip090)" d="M1891.96 549.265 L1891.96 553.293 Q1890.16 552.367 1888.21 551.904 Q1886.27 551.441 1884.19 551.441 Q1881.01 551.441 1879.42 552.413 Q1877.84 553.386 1877.84 555.33 Q1877.84 556.812 1878.98 557.668 Q1880.11 558.501 1883.54 559.265 L1885 559.589 Q1889.53 560.562 1891.43 562.344 Q1893.35 564.103 1893.35 567.274 Q1893.35 570.886 1890.48 572.992 Q1887.63 575.098 1882.63 575.098 Q1880.55 575.098 1878.28 574.682 Q1876.04 574.288 1873.54 573.478 L1873.54 569.08 Q1875.9 570.307 1878.19 570.932 Q1880.48 571.534 1882.73 571.534 Q1885.74 571.534 1887.36 570.515 Q1888.98 569.474 1888.98 567.599 Q1888.98 565.862 1887.8 564.936 Q1886.64 564.011 1882.68 563.154 L1881.2 562.807 Q1877.24 561.974 1875.48 560.261 Q1873.72 558.524 1873.72 555.515 Q1873.72 551.858 1876.32 549.867 Q1878.91 547.876 1883.68 547.876 Q1886.04 547.876 1888.12 548.224 Q1890.2 548.571 1891.96 549.265 Z" fill="#000000" fill-rule="evenodd" fill-opacity="1" /><path clip-path="url(#clip090)" d="M1910.18 551.487 Q1906.75 551.487 1904.76 554.173 Q1902.77 556.835 1902.77 561.487 Q1902.77 566.14 1904.74 568.825 Q1906.73 571.487 1910.18 571.487 Q1913.58 571.487 1915.57 568.802 Q1917.57 566.117 1917.57 561.487 Q1917.57 556.881 1915.57 554.196 Q1913.58 551.487 1910.18 551.487 M1910.18 547.876 Q1915.74 547.876 1918.91 551.487 Q1922.08 555.099 1922.08 561.487 Q1922.08 567.853 1918.91 571.487 Q1915.74 575.098 1910.18 575.098 Q1904.6 575.098 1901.43 571.487 Q1898.28 567.853 1898.28 561.487 Q1898.28 555.099 1901.43 551.487 Q1904.6 547.876 1910.18 547.876 Z" fill="#000000" fill-rule="evenodd" fill-opacity="1" /><path clip-path="url(#clip090)" d="M1946.2 552.437 L1946.2 538.409 L1950.46 538.409 L1950.46 574.427 L1946.2 574.427 L1946.2 570.538 Q1944.86 572.853 1942.8 573.987 Q1940.76 575.098 1937.89 575.098 Q1933.19 575.098 1930.23 571.348 Q1927.29 567.599 1927.29 561.487 Q1927.29 555.376 1930.23 551.626 Q1933.19 547.876 1937.89 547.876 Q1940.76 547.876 1942.8 549.011 Q1944.86 550.122 1946.2 552.437 M1931.69 561.487 Q1931.69 566.186 1933.61 568.872 Q1935.55 571.534 1938.93 571.534 Q1942.31 571.534 1944.25 568.872 Q1946.2 566.186 1946.2 561.487 Q1946.2 556.788 1944.25 554.126 Q1942.31 551.441 1938.93 551.441 Q1935.55 551.441 1933.61 554.126 Q1931.69 556.788 1931.69 561.487 Z" fill="#000000" fill-rule="evenodd" fill-opacity="1" /><path clip-path="url(#clip090)" d="M1971.01 561.395 Q1965.85 561.395 1963.86 562.575 Q1961.87 563.756 1961.87 566.603 Q1961.87 568.872 1963.35 570.214 Q1964.86 571.534 1967.43 571.534 Q1970.97 571.534 1973.1 569.034 Q1975.25 566.511 1975.25 562.344 L1975.25 561.395 L1971.01 561.395 M1979.51 559.636 L1979.51 574.427 L1975.25 574.427 L1975.25 570.492 Q1973.79 572.853 1971.62 573.987 Q1969.44 575.098 1966.29 575.098 Q1962.31 575.098 1959.95 572.876 Q1957.61 570.631 1957.61 566.881 Q1957.61 562.506 1960.53 560.284 Q1963.47 558.062 1969.28 558.062 L1975.25 558.062 L1975.25 557.645 Q1975.25 554.705 1973.31 553.108 Q1971.38 551.487 1967.89 551.487 Q1965.67 551.487 1963.56 552.02 Q1961.45 552.552 1959.51 553.617 L1959.51 549.682 Q1961.85 548.779 1964.05 548.339 Q1966.25 547.876 1968.33 547.876 Q1973.95 547.876 1976.73 550.793 Q1979.51 553.71 1979.51 559.636 Z" fill="#000000" fill-rule="evenodd" fill-opacity="1" /><polyline clip-path="url(#clip090)" style="stroke:#8e971d; stroke-linecap:butt; stroke-linejoin:round; stroke-width:4; stroke-opacity:1; fill:none" points="
  1706.25,608.987 1839.98,608.987 
  "/>
<path clip-path="url(#clip090)" d="M1773.11 634.587 L1755.02 627.086 L1747.51 608.987 L1755.02 590.888 L1773.11 583.387 L1791.21 590.888 L1798.71 608.987 L1791.21 627.086 Z" fill="#8e971d" fill-rule="evenodd" fill-opacity="1" stroke="#000000" stroke-opacity="1" stroke-width="4.9152"/>
<path clip-path="url(#clip090)" d="M1878.65 610.064 Q1880.16 610.573 1881.57 612.239 Q1883.01 613.906 1884.44 616.823 L1889.19 626.267 L1884.16 626.267 L1879.74 617.401 Q1878.03 613.929 1876.41 612.795 Q1874.81 611.661 1872.03 611.661 L1866.94 611.661 L1866.94 626.267 L1862.26 626.267 L1862.26 591.707 L1872.82 591.707 Q1878.75 591.707 1881.66 594.184 Q1884.58 596.661 1884.58 601.661 Q1884.58 604.925 1883.05 607.077 Q1881.55 609.23 1878.65 610.064 M1866.94 595.55 L1866.94 607.818 L1872.82 607.818 Q1876.2 607.818 1877.91 606.267 Q1879.65 604.693 1879.65 601.661 Q1879.65 598.628 1877.91 597.101 Q1876.2 595.55 1872.82 595.55 L1866.94 595.55 Z" fill="#000000" fill-rule="evenodd" fill-opacity="1" /><path clip-path="url(#clip090)" d="M1905.76 613.235 Q1900.6 613.235 1898.61 614.415 Q1896.62 615.596 1896.62 618.443 Q1896.62 620.712 1898.1 622.054 Q1899.6 623.374 1902.17 623.374 Q1905.71 623.374 1907.84 620.874 Q1910 618.351 1910 614.184 L1910 613.235 L1905.76 613.235 M1914.25 611.476 L1914.25 626.267 L1910 626.267 L1910 622.332 Q1908.54 624.693 1906.36 625.827 Q1904.19 626.938 1901.04 626.938 Q1897.06 626.938 1894.69 624.716 Q1892.36 622.471 1892.36 618.721 Q1892.36 614.346 1895.27 612.124 Q1898.21 609.902 1904.02 609.902 L1910 609.902 L1910 609.485 Q1910 606.545 1908.05 604.948 Q1906.13 603.327 1902.63 603.327 Q1900.41 603.327 1898.31 603.86 Q1896.2 604.392 1894.26 605.457 L1894.26 601.522 Q1896.59 600.619 1898.79 600.179 Q1900.99 599.716 1903.07 599.716 Q1908.7 599.716 1911.48 602.633 Q1914.25 605.55 1914.25 611.476 Z" fill="#000000" fill-rule="evenodd" fill-opacity="1" /><path clip-path="url(#clip090)" d="M1940.09 604.277 L1940.09 590.249 L1944.35 590.249 L1944.35 626.267 L1940.09 626.267 L1940.09 622.378 Q1938.75 624.693 1936.69 625.827 Q1934.65 626.938 1931.78 626.938 Q1927.08 626.938 1924.12 623.188 Q1921.18 619.439 1921.18 613.327 Q1921.18 607.216 1924.12 603.466 Q1927.08 599.716 1931.78 599.716 Q1934.65 599.716 1936.69 600.851 Q1938.75 601.962 1940.09 604.277 M1925.57 613.327 Q1925.57 618.026 1927.5 620.712 Q1929.44 623.374 1932.82 623.374 Q1936.2 623.374 1938.14 620.712 Q1940.09 618.026 1940.09 613.327 Q1940.09 608.628 1938.14 605.966 Q1936.2 603.281 1932.82 603.281 Q1929.44 603.281 1927.5 605.966 Q1925.57 608.628 1925.57 613.327 Z" fill="#000000" fill-rule="evenodd" fill-opacity="1" /><path clip-path="url(#clip090)" d="M1964.9 613.235 Q1959.74 613.235 1957.75 614.415 Q1955.76 615.596 1955.76 618.443 Q1955.76 620.712 1957.24 622.054 Q1958.75 623.374 1961.31 623.374 Q1964.86 623.374 1966.99 620.874 Q1969.14 618.351 1969.14 614.184 L1969.14 613.235 L1964.9 613.235 M1973.4 611.476 L1973.4 626.267 L1969.14 626.267 L1969.14 622.332 Q1967.68 624.693 1965.5 625.827 Q1963.33 626.938 1960.18 626.938 Q1956.2 626.938 1953.84 624.716 Q1951.5 622.471 1951.5 618.721 Q1951.5 614.346 1954.42 612.124 Q1957.36 609.902 1963.17 609.902 L1969.14 609.902 L1969.14 609.485 Q1969.14 606.545 1967.19 604.948 Q1965.27 603.327 1961.78 603.327 Q1959.56 603.327 1957.45 603.86 Q1955.34 604.392 1953.4 605.457 L1953.4 601.522 Q1955.74 600.619 1957.94 600.179 Q1960.13 599.716 1962.22 599.716 Q1967.84 599.716 1970.62 602.633 Q1973.4 605.55 1973.4 611.476 Z" fill="#000000" fill-rule="evenodd" fill-opacity="1" /><path clip-path="url(#clip090)" d="M1981.73 616.036 L1981.73 600.341 L1985.99 600.341 L1985.99 615.874 Q1985.99 619.554 1987.43 621.406 Q1988.86 623.235 1991.73 623.235 Q1995.18 623.235 1997.17 621.036 Q1999.19 618.837 1999.19 615.04 L1999.19 600.341 L2003.44 600.341 L2003.44 626.267 L1999.19 626.267 L1999.19 622.286 Q1997.63 624.647 1995.57 625.804 Q1993.54 626.938 1990.83 626.938 Q1986.36 626.938 1984.05 624.161 Q1981.73 621.383 1981.73 616.036 M1992.45 599.716 L1992.45 599.716 Z" fill="#000000" fill-rule="evenodd" fill-opacity="1" /><path clip-path="url(#clip090)" d="M2012.4 591.707 L2017.08 591.707 L2017.08 626.267 L2012.4 626.267 L2012.4 591.707 Z" fill="#000000" fill-rule="evenodd" fill-opacity="1" /><path clip-path="url(#clip090)" d="M2026.38 591.707 L2031.06 591.707 L2031.06 626.267 L2026.38 626.267 L2026.38 591.707 Z" fill="#000000" fill-rule="evenodd" fill-opacity="1" /><path clip-path="url(#clip090)" d="M2051.92 596.314 L2045.57 613.513 L2058.28 613.513 L2051.92 596.314 M2049.28 591.707 L2054.58 591.707 L2067.75 626.267 L2062.89 626.267 L2059.74 617.401 L2044.16 617.401 L2041.01 626.267 L2036.08 626.267 L2049.28 591.707 Z" fill="#000000" fill-rule="evenodd" fill-opacity="1" /><path clip-path="url(#clip090)" d="M2073.26 591.707 L2091.62 591.707 L2091.62 595.642 L2077.54 595.642 L2077.54 604.115 Q2078.56 603.767 2079.58 603.605 Q2080.6 603.42 2081.62 603.42 Q2087.4 603.42 2090.78 606.591 Q2094.16 609.763 2094.16 615.179 Q2094.16 620.758 2090.69 623.86 Q2087.22 626.938 2080.9 626.938 Q2078.72 626.938 2076.45 626.568 Q2074.21 626.198 2071.8 625.457 L2071.8 620.758 Q2073.88 621.892 2076.11 622.448 Q2078.33 623.003 2080.8 623.003 Q2084.81 623.003 2087.15 620.897 Q2089.49 618.79 2089.49 615.179 Q2089.49 611.568 2087.15 609.462 Q2084.81 607.355 2080.8 607.355 Q2078.93 607.355 2077.05 607.772 Q2075.2 608.189 2073.26 609.068 L2073.26 591.707 Z" fill="#000000" fill-rule="evenodd" fill-opacity="1" /></svg>
