<?xml version="1.0" encoding="utf-8"?>
<svg xmlns="http://www.w3.org/2000/svg" xmlns:xlink="http://www.w3.org/1999/xlink" width="576" height="384" viewBox="0 0 2304 1536">
<defs>
  <clipPath id="clip450">
    <rect x="0" y="0" width="2304" height="1536"/>
  </clipPath>
</defs>
<path clip-path="url(#clip450)" d="
M0 1536 L2304 1536 L2304 0 L0 0  Z
  " fill="#ffffff" fill-rule="evenodd" fill-opacity="1"/>
<defs>
  <clipPath id="clip451">
    <rect x="460" y="0" width="1614" height="1536"/>
  </clipPath>
</defs>
<path clip-path="url(#clip450)" d="
M250.882 1347.54 L2256.76 1347.54 L2256.76 47.2441 L250.882 47.2441  Z
  " fill="#ffffff" fill-rule="evenodd" fill-opacity="1"/>
<defs>
  <clipPath id="clip452">
    <rect x="250" y="47" width="2007" height="1301"/>
  </clipPath>
</defs>
<polyline clip-path="url(#clip452)" style="stroke:#000000; stroke-linecap:butt; stroke-linejoin:round; stroke-width:2; stroke-opacity:0.1; fill:none" points="
  458.446,1347.54 458.446,47.2441 
  "/>
<polyline clip-path="url(#clip452)" style="stroke:#000000; stroke-linecap:butt; stroke-linejoin:round; stroke-width:2; stroke-opacity:0.1; fill:none" points="
  735.379,1347.54 735.379,47.2441 
  "/>
<polyline clip-path="url(#clip452)" style="stroke:#000000; stroke-linecap:butt; stroke-linejoin:round; stroke-width:2; stroke-opacity:0.1; fill:none" points="
  1012.31,1347.54 1012.31,47.2441 
  "/>
<polyline clip-path="url(#clip452)" style="stroke:#000000; stroke-linecap:butt; stroke-linejoin:round; stroke-width:2; stroke-opacity:0.1; fill:none" points="
  1289.25,1347.54 1289.25,47.2441 
  "/>
<polyline clip-path="url(#clip452)" style="stroke:#000000; stroke-linecap:butt; stroke-linejoin:round; stroke-width:2; stroke-opacity:0.1; fill:none" points="
  1566.18,1347.54 1566.18,47.2441 
  "/>
<polyline clip-path="url(#clip452)" style="stroke:#000000; stroke-linecap:butt; stroke-linejoin:round; stroke-width:2; stroke-opacity:0.1; fill:none" points="
  1843.11,1347.54 1843.11,47.2441 
  "/>
<polyline clip-path="url(#clip452)" style="stroke:#000000; stroke-linecap:butt; stroke-linejoin:round; stroke-width:2; stroke-opacity:0.1; fill:none" points="
  2120.05,1347.54 2120.05,47.2441 
  "/>
<polyline clip-path="url(#clip450)" style="stroke:#000000; stroke-linecap:butt; stroke-linejoin:round; stroke-width:4; stroke-opacity:1; fill:none" points="
  250.882,1347.54 2256.76,1347.54 
  "/>
<polyline clip-path="url(#clip450)" style="stroke:#000000; stroke-linecap:butt; stroke-linejoin:round; stroke-width:4; stroke-opacity:1; fill:none" points="
  458.446,1347.54 458.446,1328.64 
  "/>
<polyline clip-path="url(#clip450)" style="stroke:#000000; stroke-linecap:butt; stroke-linejoin:round; stroke-width:4; stroke-opacity:1; fill:none" points="
  735.379,1347.54 735.379,1328.64 
  "/>
<polyline clip-path="url(#clip450)" style="stroke:#000000; stroke-linecap:butt; stroke-linejoin:round; stroke-width:4; stroke-opacity:1; fill:none" points="
  1012.31,1347.54 1012.31,1328.64 
  "/>
<polyline clip-path="url(#clip450)" style="stroke:#000000; stroke-linecap:butt; stroke-linejoin:round; stroke-width:4; stroke-opacity:1; fill:none" points="
  1289.25,1347.54 1289.25,1328.64 
  "/>
<polyline clip-path="url(#clip450)" style="stroke:#000000; stroke-linecap:butt; stroke-linejoin:round; stroke-width:4; stroke-opacity:1; fill:none" points="
  1566.18,1347.54 1566.18,1328.64 
  "/>
<polyline clip-path="url(#clip450)" style="stroke:#000000; stroke-linecap:butt; stroke-linejoin:round; stroke-width:4; stroke-opacity:1; fill:none" points="
  1843.11,1347.54 1843.11,1328.64 
  "/>
<polyline clip-path="url(#clip450)" style="stroke:#000000; stroke-linecap:butt; stroke-linejoin:round; stroke-width:4; stroke-opacity:1; fill:none" points="
  2120.05,1347.54 2120.05,1328.64 
  "/>
<path clip-path="url(#clip450)" d="M396.459 1420.89 L404.097 1420.89 L404.097 1394.53 L395.787 1396.19 L395.787 1391.94 L404.051 1390.27 L408.727 1390.27 L408.727 1420.89 L416.366 1420.89 L416.366 1424.83 L396.459 1424.83 L396.459 1420.89 Z" fill="#000000" fill-rule="evenodd" fill-opacity="1" /><path clip-path="url(#clip450)" d="M435.81 1393.35 Q432.199 1393.35 430.37 1396.91 Q428.565 1400.45 428.565 1407.58 Q428.565 1414.69 430.37 1418.25 Q432.199 1421.8 435.81 1421.8 Q439.444 1421.8 441.25 1418.25 Q443.079 1414.69 443.079 1407.58 Q443.079 1400.45 441.25 1396.91 Q439.444 1393.35 435.81 1393.35 M435.81 1389.64 Q441.62 1389.64 444.676 1394.25 Q447.755 1398.83 447.755 1407.58 Q447.755 1416.31 444.676 1420.92 Q441.62 1425.5 435.81 1425.5 Q430 1425.5 426.921 1420.92 Q423.866 1416.31 423.866 1407.58 Q423.866 1398.83 426.921 1394.25 Q430 1389.64 435.81 1389.64 Z" fill="#000000" fill-rule="evenodd" fill-opacity="1" /><path clip-path="url(#clip450)" d="M447.755 1383.74 L471.866 1383.74 L471.866 1386.94 L447.755 1386.94 L447.755 1383.74 Z" fill="#000000" fill-rule="evenodd" fill-opacity="1" /><path clip-path="url(#clip450)" d="M480.725 1394.22 L486.931 1394.22 L486.931 1372.8 L480.179 1374.15 L480.179 1370.69 L486.894 1369.34 L490.693 1369.34 L490.693 1394.22 L496.899 1394.22 L496.899 1397.42 L480.725 1397.42 L480.725 1394.22 Z" fill="#000000" fill-rule="evenodd" fill-opacity="1" /><path clip-path="url(#clip450)" d="M507.845 1394.22 L521.105 1394.22 L521.105 1397.42 L503.275 1397.42 L503.275 1394.22 Q505.438 1391.98 509.162 1388.22 Q512.905 1384.44 513.864 1383.35 Q515.688 1381.3 516.403 1379.89 Q517.136 1378.46 517.136 1377.09 Q517.136 1374.85 515.557 1373.44 Q513.996 1372.03 511.475 1372.03 Q509.689 1372.03 507.695 1372.65 Q505.72 1373.27 503.463 1374.53 L503.463 1370.69 Q505.758 1369.77 507.751 1369.3 Q509.745 1368.83 511.4 1368.83 Q515.763 1368.83 518.359 1371.01 Q520.954 1373.19 520.954 1376.84 Q520.954 1378.57 520.296 1380.13 Q519.657 1381.68 517.945 1383.78 Q517.475 1384.33 514.955 1386.94 Q512.434 1389.54 507.845 1394.22 Z" fill="#000000" fill-rule="evenodd" fill-opacity="1" /><path clip-path="url(#clip450)" d="M673.241 1420.89 L680.88 1420.89 L680.88 1394.53 L672.57 1396.19 L672.57 1391.94 L680.834 1390.27 L685.51 1390.27 L685.51 1420.89 L693.149 1420.89 L693.149 1424.83 L673.241 1424.83 L673.241 1420.89 Z" fill="#000000" fill-rule="evenodd" fill-opacity="1" /><path clip-path="url(#clip450)" d="M712.593 1393.35 Q708.982 1393.35 707.153 1396.91 Q705.348 1400.45 705.348 1407.58 Q705.348 1414.69 707.153 1418.25 Q708.982 1421.8 712.593 1421.8 Q716.227 1421.8 718.033 1418.25 Q719.862 1414.69 719.862 1407.58 Q719.862 1400.45 718.033 1396.91 Q716.227 1393.35 712.593 1393.35 M712.593 1389.64 Q718.403 1389.64 721.459 1394.25 Q724.537 1398.83 724.537 1407.58 Q724.537 1416.31 721.459 1420.92 Q718.403 1425.5 712.593 1425.5 Q706.783 1425.5 703.704 1420.92 Q700.649 1416.31 700.649 1407.58 Q700.649 1398.83 703.704 1394.25 Q706.783 1389.64 712.593 1389.64 Z" fill="#000000" fill-rule="evenodd" fill-opacity="1" /><path clip-path="url(#clip450)" d="M724.537 1383.74 L748.649 1383.74 L748.649 1386.94 L724.537 1386.94 L724.537 1383.74 Z" fill="#000000" fill-rule="evenodd" fill-opacity="1" /><path clip-path="url(#clip450)" d="M757.508 1394.22 L763.714 1394.22 L763.714 1372.8 L756.962 1374.15 L756.962 1370.69 L763.676 1369.34 L767.476 1369.34 L767.476 1394.22 L773.682 1394.22 L773.682 1397.42 L757.508 1397.42 L757.508 1394.22 Z" fill="#000000" fill-rule="evenodd" fill-opacity="1" /><path clip-path="url(#clip450)" d="M782.014 1394.22 L788.221 1394.22 L788.221 1372.8 L781.469 1374.15 L781.469 1370.69 L788.183 1369.34 L791.982 1369.34 L791.982 1394.22 L798.189 1394.22 L798.189 1397.42 L782.014 1397.42 L782.014 1394.22 Z" fill="#000000" fill-rule="evenodd" fill-opacity="1" /><path clip-path="url(#clip450)" d="M949.676 1420.89 L957.315 1420.89 L957.315 1394.53 L949.005 1396.19 L949.005 1391.94 L957.269 1390.27 L961.945 1390.27 L961.945 1420.89 L969.584 1420.89 L969.584 1424.83 L949.676 1424.83 L949.676 1420.89 Z" fill="#000000" fill-rule="evenodd" fill-opacity="1" /><path clip-path="url(#clip450)" d="M989.028 1393.35 Q985.417 1393.35 983.588 1396.91 Q981.783 1400.45 981.783 1407.58 Q981.783 1414.69 983.588 1418.25 Q985.417 1421.8 989.028 1421.8 Q992.662 1421.8 994.468 1418.25 Q996.297 1414.69 996.297 1407.58 Q996.297 1400.45 994.468 1396.91 Q992.662 1393.35 989.028 1393.35 M989.028 1389.64 Q994.838 1389.64 997.894 1394.25 Q1000.97 1398.83 1000.97 1407.58 Q1000.97 1416.31 997.894 1420.92 Q994.838 1425.5 989.028 1425.5 Q983.218 1425.5 980.139 1420.92 Q977.084 1416.31 977.084 1407.58 Q977.084 1398.83 980.139 1394.25 Q983.218 1389.64 989.028 1389.64 Z" fill="#000000" fill-rule="evenodd" fill-opacity="1" /><path clip-path="url(#clip450)" d="M1000.97 1383.74 L1025.08 1383.74 L1025.08 1386.94 L1000.97 1386.94 L1000.97 1383.74 Z" fill="#000000" fill-rule="evenodd" fill-opacity="1" /><path clip-path="url(#clip450)" d="M1033.94 1394.22 L1040.15 1394.22 L1040.15 1372.8 L1033.4 1374.15 L1033.4 1370.69 L1040.11 1369.34 L1043.91 1369.34 L1043.91 1394.22 L1050.12 1394.22 L1050.12 1397.42 L1033.94 1397.42 L1033.94 1394.22 Z" fill="#000000" fill-rule="evenodd" fill-opacity="1" /><path clip-path="url(#clip450)" d="M1065.92 1371.84 Q1062.98 1371.84 1061.5 1374.74 Q1060.03 1377.61 1060.03 1383.41 Q1060.03 1389.18 1061.5 1392.08 Q1062.98 1394.95 1065.92 1394.95 Q1068.87 1394.95 1070.34 1392.08 Q1071.82 1389.18 1071.82 1383.41 Q1071.82 1377.61 1070.34 1374.74 Q1068.87 1371.84 1065.92 1371.84 M1065.92 1368.83 Q1070.64 1368.83 1073.12 1372.57 Q1075.62 1376.3 1075.62 1383.41 Q1075.62 1390.5 1073.12 1394.24 Q1070.64 1397.96 1065.92 1397.96 Q1061.19 1397.96 1058.69 1394.24 Q1056.21 1390.5 1056.21 1383.41 Q1056.21 1376.3 1058.69 1372.57 Q1061.19 1368.83 1065.92 1368.83 Z" fill="#000000" fill-rule="evenodd" fill-opacity="1" /><path clip-path="url(#clip450)" d="M1238.94 1420.89 L1246.58 1420.89 L1246.58 1394.53 L1238.27 1396.19 L1238.27 1391.94 L1246.53 1390.27 L1251.21 1390.27 L1251.21 1420.89 L1258.85 1420.89 L1258.85 1424.83 L1238.94 1424.83 L1238.94 1420.89 Z" fill="#000000" fill-rule="evenodd" fill-opacity="1" /><path clip-path="url(#clip450)" d="M1278.29 1393.35 Q1274.68 1393.35 1272.85 1396.91 Q1271.04 1400.45 1271.04 1407.58 Q1271.04 1414.69 1272.85 1418.25 Q1274.68 1421.8 1278.29 1421.8 Q1281.92 1421.8 1283.73 1418.25 Q1285.56 1414.69 1285.56 1407.58 Q1285.56 1400.45 1283.73 1396.91 Q1281.92 1393.35 1278.29 1393.35 M1278.29 1389.64 Q1284.1 1389.64 1287.16 1394.25 Q1290.23 1398.83 1290.23 1407.58 Q1290.23 1416.31 1287.16 1420.92 Q1284.1 1425.5 1278.29 1425.5 Q1272.48 1425.5 1269.4 1420.92 Q1266.35 1416.31 1266.35 1407.58 Q1266.35 1398.83 1269.4 1394.25 Q1272.48 1389.64 1278.29 1389.64 Z" fill="#000000" fill-rule="evenodd" fill-opacity="1" /><path clip-path="url(#clip450)" d="M1290.23 1383.74 L1314.35 1383.74 L1314.35 1386.94 L1290.23 1386.94 L1290.23 1383.74 Z" fill="#000000" fill-rule="evenodd" fill-opacity="1" /><path clip-path="url(#clip450)" d="M1322.66 1396.84 L1322.66 1393.37 Q1324.09 1394.05 1325.56 1394.41 Q1327.02 1394.77 1328.43 1394.77 Q1332.19 1394.77 1334.17 1392.25 Q1336.16 1389.71 1336.45 1384.55 Q1335.35 1386.17 1333.68 1387.04 Q1332.01 1387.9 1329.98 1387.9 Q1325.76 1387.9 1323.3 1385.36 Q1320.85 1382.8 1320.85 1378.38 Q1320.85 1374.06 1323.41 1371.44 Q1325.97 1368.83 1330.22 1368.83 Q1335.09 1368.83 1337.65 1372.57 Q1340.23 1376.3 1340.23 1383.41 Q1340.23 1390.05 1337.07 1394.01 Q1333.92 1397.96 1328.6 1397.96 Q1327.17 1397.96 1325.71 1397.68 Q1324.24 1397.4 1322.66 1396.84 M1330.22 1384.93 Q1332.78 1384.93 1334.26 1383.18 Q1335.77 1381.43 1335.77 1378.38 Q1335.77 1375.36 1334.26 1373.61 Q1332.78 1371.84 1330.22 1371.84 Q1327.66 1371.84 1326.16 1373.61 Q1324.67 1375.36 1324.67 1378.38 Q1324.67 1381.43 1326.16 1383.18 Q1327.66 1384.93 1330.22 1384.93 Z" fill="#000000" fill-rule="evenodd" fill-opacity="1" /><path clip-path="url(#clip450)" d="M1515.83 1420.89 L1523.47 1420.89 L1523.47 1394.53 L1515.16 1396.19 L1515.16 1391.94 L1523.43 1390.27 L1528.1 1390.27 L1528.1 1420.89 L1535.74 1420.89 L1535.74 1424.83 L1515.83 1424.83 L1515.83 1420.89 Z" fill="#000000" fill-rule="evenodd" fill-opacity="1" /><path clip-path="url(#clip450)" d="M1555.19 1393.35 Q1551.57 1393.35 1549.75 1396.91 Q1547.94 1400.45 1547.94 1407.58 Q1547.94 1414.69 1549.75 1418.25 Q1551.57 1421.8 1555.19 1421.8 Q1558.82 1421.8 1560.63 1418.25 Q1562.45 1414.69 1562.45 1407.58 Q1562.45 1400.45 1560.63 1396.91 Q1558.82 1393.35 1555.19 1393.35 M1555.19 1389.64 Q1561 1389.64 1564.05 1394.25 Q1567.13 1398.83 1567.13 1407.58 Q1567.13 1416.31 1564.05 1420.92 Q1561 1425.5 1555.19 1425.5 Q1549.38 1425.5 1546.3 1420.92 Q1543.24 1416.31 1543.24 1407.58 Q1543.24 1398.83 1546.3 1394.25 Q1549.38 1389.64 1555.19 1389.64 Z" fill="#000000" fill-rule="evenodd" fill-opacity="1" /><path clip-path="url(#clip450)" d="M1567.13 1383.74 L1591.24 1383.74 L1591.24 1386.94 L1567.13 1386.94 L1567.13 1383.74 Z" fill="#000000" fill-rule="evenodd" fill-opacity="1" /><path clip-path="url(#clip450)" d="M1607.57 1384.08 Q1604.86 1384.08 1603.3 1385.53 Q1601.76 1386.98 1601.76 1389.52 Q1601.76 1392.06 1603.3 1393.51 Q1604.86 1394.95 1607.57 1394.95 Q1610.28 1394.95 1611.84 1393.51 Q1613.4 1392.04 1613.4 1389.52 Q1613.4 1386.98 1611.84 1385.53 Q1610.29 1384.08 1607.57 1384.08 M1603.77 1382.47 Q1601.32 1381.86 1599.95 1380.19 Q1598.6 1378.52 1598.6 1376.11 Q1598.6 1372.74 1600.98 1370.79 Q1603.39 1368.83 1607.57 1368.83 Q1611.76 1368.83 1614.15 1370.79 Q1616.54 1372.74 1616.54 1376.11 Q1616.54 1378.52 1615.17 1380.19 Q1613.81 1381.86 1611.38 1382.47 Q1614.13 1383.11 1615.65 1384.97 Q1617.2 1386.83 1617.2 1389.52 Q1617.2 1393.6 1614.7 1395.78 Q1612.21 1397.96 1607.57 1397.96 Q1602.92 1397.96 1600.42 1395.78 Q1597.94 1393.6 1597.94 1389.52 Q1597.94 1386.83 1599.48 1384.97 Q1601.02 1383.11 1603.77 1382.47 M1602.38 1376.47 Q1602.38 1378.65 1603.73 1379.87 Q1605.1 1381.09 1607.57 1381.09 Q1610.01 1381.09 1611.38 1379.87 Q1612.78 1378.65 1612.78 1376.47 Q1612.78 1374.28 1611.38 1373.06 Q1610.01 1371.84 1607.57 1371.84 Q1605.1 1371.84 1603.73 1373.06 Q1602.38 1374.28 1602.38 1376.47 Z" fill="#000000" fill-rule="evenodd" fill-opacity="1" /><path clip-path="url(#clip450)" d="M1793.1 1420.89 L1800.74 1420.89 L1800.74 1394.53 L1792.43 1396.19 L1792.43 1391.94 L1800.69 1390.27 L1805.37 1390.27 L1805.37 1420.89 L1813 1420.89 L1813 1424.83 L1793.1 1424.83 L1793.1 1420.89 Z" fill="#000000" fill-rule="evenodd" fill-opacity="1" /><path clip-path="url(#clip450)" d="M1832.45 1393.35 Q1828.84 1393.35 1827.01 1396.91 Q1825.2 1400.45 1825.2 1407.58 Q1825.2 1414.69 1827.01 1418.25 Q1828.84 1421.8 1832.45 1421.8 Q1836.08 1421.8 1837.89 1418.25 Q1839.72 1414.69 1839.72 1407.58 Q1839.72 1400.45 1837.89 1396.91 Q1836.08 1393.35 1832.45 1393.35 M1832.45 1389.64 Q1838.26 1389.64 1841.31 1394.25 Q1844.39 1398.83 1844.39 1407.58 Q1844.39 1416.31 1841.31 1420.92 Q1838.26 1425.5 1832.45 1425.5 Q1826.64 1425.5 1823.56 1420.92 Q1820.5 1416.31 1820.5 1407.58 Q1820.5 1398.83 1823.56 1394.25 Q1826.64 1389.64 1832.45 1389.64 Z" fill="#000000" fill-rule="evenodd" fill-opacity="1" /><path clip-path="url(#clip450)" d="M1844.39 1383.74 L1868.5 1383.74 L1868.5 1386.94 L1844.39 1386.94 L1844.39 1383.74 Z" fill="#000000" fill-rule="evenodd" fill-opacity="1" /><path clip-path="url(#clip450)" d="M1875.75 1369.34 L1893.8 1369.34 L1893.8 1370.96 L1883.61 1397.42 L1879.64 1397.42 L1889.23 1372.54 L1875.75 1372.54 L1875.75 1369.34 Z" fill="#000000" fill-rule="evenodd" fill-opacity="1" /><path clip-path="url(#clip450)" d="M2069.6 1420.89 L2077.24 1420.89 L2077.24 1394.53 L2068.93 1396.19 L2068.93 1391.94 L2077.19 1390.27 L2081.87 1390.27 L2081.87 1420.89 L2089.5 1420.89 L2089.5 1424.83 L2069.6 1424.83 L2069.6 1420.89 Z" fill="#000000" fill-rule="evenodd" fill-opacity="1" /><path clip-path="url(#clip450)" d="M2108.95 1393.35 Q2105.34 1393.35 2103.51 1396.91 Q2101.7 1400.45 2101.7 1407.58 Q2101.7 1414.69 2103.51 1418.25 Q2105.34 1421.8 2108.95 1421.8 Q2112.58 1421.8 2114.39 1418.25 Q2116.22 1414.69 2116.22 1407.58 Q2116.22 1400.45 2114.39 1396.91 Q2112.58 1393.35 2108.95 1393.35 M2108.95 1389.64 Q2114.76 1389.64 2117.81 1394.25 Q2120.89 1398.83 2120.89 1407.58 Q2120.89 1416.31 2117.81 1420.92 Q2114.76 1425.5 2108.95 1425.5 Q2103.14 1425.5 2100.06 1420.92 Q2097 1416.31 2097 1407.58 Q2097 1398.83 2100.06 1394.25 Q2103.14 1389.64 2108.95 1389.64 Z" fill="#000000" fill-rule="evenodd" fill-opacity="1" /><path clip-path="url(#clip450)" d="M2120.89 1383.74 L2145.01 1383.74 L2145.01 1386.94 L2120.89 1386.94 L2120.89 1383.74 Z" fill="#000000" fill-rule="evenodd" fill-opacity="1" /><path clip-path="url(#clip450)" d="M2161.8 1381.86 Q2159.24 1381.86 2157.74 1383.61 Q2156.25 1385.36 2156.25 1388.41 Q2156.25 1391.44 2157.74 1393.21 Q2159.24 1394.95 2161.8 1394.95 Q2164.36 1394.95 2165.84 1393.21 Q2167.35 1391.44 2167.35 1388.41 Q2167.35 1385.36 2165.84 1383.61 Q2164.36 1381.86 2161.8 1381.86 M2169.34 1369.96 L2169.34 1373.42 Q2167.91 1372.74 2166.45 1372.39 Q2165 1372.03 2163.57 1372.03 Q2159.81 1372.03 2157.81 1374.57 Q2155.84 1377.11 2155.56 1382.24 Q2156.67 1380.6 2158.34 1379.74 Q2160.01 1378.85 2162.03 1378.85 Q2166.26 1378.85 2168.7 1381.43 Q2171.17 1383.99 2171.17 1388.41 Q2171.17 1392.74 2168.61 1395.35 Q2166.05 1397.96 2161.8 1397.96 Q2156.93 1397.96 2154.35 1394.24 Q2151.78 1390.5 2151.78 1383.41 Q2151.78 1376.75 2154.94 1372.8 Q2158.1 1368.83 2163.42 1368.83 Q2164.85 1368.83 2166.3 1369.11 Q2167.76 1369.39 2169.34 1369.96 Z" fill="#000000" fill-rule="evenodd" fill-opacity="1" /><path clip-path="url(#clip450)" d="M1177.57 1461.87 L1207.62 1461.87 L1207.62 1467.28 L1184 1467.28 L1184 1481.34 L1206.63 1481.34 L1206.63 1486.76 L1184 1486.76 L1184 1503.97 L1208.19 1503.97 L1208.19 1509.39 L1177.57 1509.39 L1177.57 1461.87 Z" fill="#000000" fill-rule="evenodd" fill-opacity="1" /><path clip-path="url(#clip450)" d="M1239.16 1479.21 Q1238.18 1478.64 1237 1478.38 Q1235.85 1478.1 1234.45 1478.1 Q1229.49 1478.1 1226.81 1481.34 Q1224.17 1484.56 1224.17 1490.61 L1224.17 1509.39 L1218.28 1509.39 L1218.28 1473.74 L1224.17 1473.74 L1224.17 1479.28 Q1226.02 1476.03 1228.98 1474.47 Q1231.94 1472.88 1236.17 1472.88 Q1236.77 1472.88 1237.51 1472.97 Q1238.24 1473.04 1239.13 1473.2 L1239.16 1479.21 Z" fill="#000000" fill-rule="evenodd" fill-opacity="1" /><path clip-path="url(#clip450)" d="M1264.82 1479.21 Q1263.83 1478.64 1262.65 1478.38 Q1261.51 1478.1 1260.11 1478.1 Q1255.14 1478.1 1252.47 1481.34 Q1249.82 1484.56 1249.82 1490.61 L1249.82 1509.39 L1243.94 1509.39 L1243.94 1473.74 L1249.82 1473.74 L1249.82 1479.28 Q1251.67 1476.03 1254.63 1474.47 Q1257.59 1472.88 1261.82 1472.88 Q1262.43 1472.88 1263.16 1472.97 Q1263.89 1473.04 1264.78 1473.2 L1264.82 1479.21 Z" fill="#000000" fill-rule="evenodd" fill-opacity="1" /><path clip-path="url(#clip450)" d="M1283.34 1477.84 Q1278.63 1477.84 1275.89 1481.54 Q1273.15 1485.2 1273.15 1491.59 Q1273.15 1497.99 1275.86 1501.68 Q1278.6 1505.34 1283.34 1505.34 Q1288.02 1505.34 1290.76 1501.65 Q1293.49 1497.96 1293.49 1491.59 Q1293.49 1485.26 1290.76 1481.57 Q1288.02 1477.84 1283.34 1477.84 M1283.34 1472.88 Q1290.98 1472.88 1295.34 1477.84 Q1299.7 1482.81 1299.7 1491.59 Q1299.7 1500.35 1295.34 1505.34 Q1290.98 1510.31 1283.34 1510.31 Q1275.67 1510.31 1271.31 1505.34 Q1266.98 1500.35 1266.98 1491.59 Q1266.98 1482.81 1271.31 1477.84 Q1275.67 1472.88 1283.34 1472.88 Z" fill="#000000" fill-rule="evenodd" fill-opacity="1" /><path clip-path="url(#clip450)" d="M1330.06 1479.21 Q1329.08 1478.64 1327.9 1478.38 Q1326.75 1478.1 1325.35 1478.1 Q1320.39 1478.1 1317.71 1481.34 Q1315.07 1484.56 1315.07 1490.61 L1315.07 1509.39 L1309.18 1509.39 L1309.18 1473.74 L1315.07 1473.74 L1315.07 1479.28 Q1316.92 1476.03 1319.88 1474.47 Q1322.84 1472.88 1327.07 1472.88 Q1327.68 1472.88 1328.41 1472.97 Q1329.14 1473.04 1330.03 1473.2 L1330.06 1479.21 Z" fill="#000000" fill-rule="evenodd" fill-opacity="1" /><polyline clip-path="url(#clip452)" style="stroke:#000000; stroke-linecap:butt; stroke-linejoin:round; stroke-width:2; stroke-opacity:0.1; fill:none" points="
  250.882,1001.37 2256.76,1001.37 
  "/>
<polyline clip-path="url(#clip452)" style="stroke:#000000; stroke-linecap:butt; stroke-linejoin:round; stroke-width:2; stroke-opacity:0.1; fill:none" points="
  250.882,410.242 2256.76,410.242 
  "/>
<polyline clip-path="url(#clip450)" style="stroke:#000000; stroke-linecap:butt; stroke-linejoin:round; stroke-width:4; stroke-opacity:1; fill:none" points="
  250.882,1347.54 250.882,47.2441 
  "/>
<polyline clip-path="url(#clip450)" style="stroke:#000000; stroke-linecap:butt; stroke-linejoin:round; stroke-width:4; stroke-opacity:1; fill:none" points="
  250.882,1001.37 269.78,1001.37 
  "/>
<polyline clip-path="url(#clip450)" style="stroke:#000000; stroke-linecap:butt; stroke-linejoin:round; stroke-width:4; stroke-opacity:1; fill:none" points="
  250.882,410.242 269.78,410.242 
  "/>
<path clip-path="url(#clip450)" d="M115.411 1021.16 L123.05 1021.16 L123.05 994.796 L114.74 996.463 L114.74 992.204 L123.004 990.537 L127.68 990.537 L127.68 1021.16 L135.319 1021.16 L135.319 1025.1 L115.411 1025.1 L115.411 1021.16 Z" fill="#000000" fill-rule="evenodd" fill-opacity="1" /><path clip-path="url(#clip450)" d="M154.763 993.616 Q151.152 993.616 149.323 997.181 Q147.518 1000.72 147.518 1007.85 Q147.518 1014.96 149.323 1018.52 Q151.152 1022.06 154.763 1022.06 Q158.397 1022.06 160.203 1018.52 Q162.032 1014.96 162.032 1007.85 Q162.032 1000.72 160.203 997.181 Q158.397 993.616 154.763 993.616 M154.763 989.912 Q160.573 989.912 163.629 994.519 Q166.707 999.102 166.707 1007.85 Q166.707 1016.58 163.629 1021.19 Q160.573 1025.77 154.763 1025.77 Q148.953 1025.77 145.874 1021.19 Q142.819 1016.58 142.819 1007.85 Q142.819 999.102 145.874 994.519 Q148.953 989.912 154.763 989.912 Z" fill="#000000" fill-rule="evenodd" fill-opacity="1" /><path clip-path="url(#clip450)" d="M166.707 984.013 L190.819 984.013 L190.819 987.211 L166.707 987.211 L166.707 984.013 Z" fill="#000000" fill-rule="evenodd" fill-opacity="1" /><path clip-path="url(#clip450)" d="M210.53 982.546 Q213.257 983.129 214.78 984.973 Q216.322 986.816 216.322 989.524 Q216.322 993.681 213.464 995.956 Q210.605 998.232 205.339 998.232 Q203.571 998.232 201.69 997.875 Q199.828 997.536 197.834 996.84 L197.834 993.173 Q199.414 994.094 201.295 994.565 Q203.176 995.035 205.226 995.035 Q208.799 995.035 210.661 993.624 Q212.542 992.214 212.542 989.524 Q212.542 987.041 210.793 985.65 Q209.063 984.239 205.959 984.239 L202.687 984.239 L202.687 981.117 L206.11 981.117 Q208.912 981.117 210.398 980.007 Q211.884 978.879 211.884 976.772 Q211.884 974.61 210.341 973.462 Q208.818 972.296 205.959 972.296 Q204.398 972.296 202.612 972.635 Q200.825 972.973 198.681 973.688 L198.681 970.303 Q200.844 969.701 202.724 969.4 Q204.624 969.099 206.298 969.099 Q210.624 969.099 213.144 971.074 Q215.664 973.03 215.664 976.377 Q215.664 978.71 214.329 980.327 Q212.993 981.926 210.53 982.546 Z" fill="#000000" fill-rule="evenodd" fill-opacity="1" /><path clip-path="url(#clip450)" d="M116.183 430.034 L123.821 430.034 L123.821 403.669 L115.511 405.335 L115.511 401.076 L123.775 399.409 L128.451 399.409 L128.451 430.034 L136.09 430.034 L136.09 433.969 L116.183 433.969 L116.183 430.034 Z" fill="#000000" fill-rule="evenodd" fill-opacity="1" /><path clip-path="url(#clip450)" d="M155.534 402.488 Q151.923 402.488 150.094 406.053 Q148.289 409.594 148.289 416.724 Q148.289 423.83 150.094 427.395 Q151.923 430.937 155.534 430.937 Q159.168 430.937 160.974 427.395 Q162.803 423.83 162.803 416.724 Q162.803 409.594 160.974 406.053 Q159.168 402.488 155.534 402.488 M155.534 398.784 Q161.344 398.784 164.4 403.391 Q167.479 407.974 167.479 416.724 Q167.479 425.451 164.4 430.057 Q161.344 434.641 155.534 434.641 Q149.724 434.641 146.645 430.057 Q143.59 425.451 143.59 416.724 Q143.59 407.974 146.645 403.391 Q149.724 398.784 155.534 398.784 Z" fill="#000000" fill-rule="evenodd" fill-opacity="1" /><path clip-path="url(#clip450)" d="M167.479 392.886 L191.59 392.886 L191.59 396.083 L167.479 396.083 L167.479 392.886 Z" fill="#000000" fill-rule="evenodd" fill-opacity="1" /><path clip-path="url(#clip450)" d="M203.063 403.362 L216.322 403.362 L216.322 406.559 L198.493 406.559 L198.493 403.362 Q200.655 401.123 204.379 397.362 Q208.122 393.582 209.081 392.491 Q210.906 390.441 211.62 389.03 Q212.354 387.601 212.354 386.228 Q212.354 383.99 210.774 382.579 Q209.213 381.168 206.693 381.168 Q204.906 381.168 202.912 381.789 Q200.938 382.41 198.681 383.67 L198.681 379.833 Q200.975 378.911 202.969 378.441 Q204.962 377.971 206.618 377.971 Q210.981 377.971 213.576 380.153 Q216.172 382.334 216.172 385.983 Q216.172 387.713 215.514 389.275 Q214.874 390.817 213.163 392.923 Q212.692 393.469 210.172 396.083 Q207.652 398.678 203.063 403.362 Z" fill="#000000" fill-rule="evenodd" fill-opacity="1" /><path clip-path="url(#clip450)" d="M18.4042 827.219 L18.4042 787.02 L23.815 787.02 L23.815 803.889 L65.9242 803.889 L65.9242 810.35 L23.815 810.35 L23.815 827.219 L18.4042 827.219 Z" fill="#000000" fill-rule="evenodd" fill-opacity="1" /><path clip-path="url(#clip450)" d="M30.2762 783.073 L30.2762 777.216 L65.9242 777.216 L65.9242 783.073 L30.2762 783.073 M16.399 783.073 L16.399 777.216 L23.815 777.216 L23.815 783.073 L16.399 783.073 Z" fill="#000000" fill-rule="evenodd" fill-opacity="1" /><path clip-path="url(#clip450)" d="M37.1193 737.208 Q33.1726 735.012 31.2947 731.956 Q29.4168 728.901 29.4168 724.763 Q29.4168 719.193 33.3317 716.169 Q37.2148 713.145 44.4081 713.145 L65.9242 713.145 L65.9242 719.034 L44.599 719.034 Q39.4746 719.034 36.992 720.848 Q34.5094 722.662 34.5094 726.386 Q34.5094 730.938 37.5331 733.579 Q40.5568 736.221 45.7767 736.221 L65.9242 736.221 L65.9242 742.109 L44.599 742.109 Q39.4428 742.109 36.992 743.924 Q34.5094 745.738 34.5094 749.526 Q34.5094 754.013 37.5649 756.655 Q40.5886 759.297 45.7767 759.297 L65.9242 759.297 L65.9242 765.185 L30.2762 765.185 L30.2762 759.297 L35.8144 759.297 Q32.536 757.292 30.9764 754.491 Q29.4168 751.69 29.4168 747.839 Q29.4168 743.956 31.3902 741.25 Q33.3636 738.513 37.1193 737.208 Z" fill="#000000" fill-rule="evenodd" fill-opacity="1" /><path clip-path="url(#clip450)" d="M46.6361 670.973 L49.5006 670.973 L49.5006 697.9 Q55.5481 697.518 58.7309 694.271 Q61.8819 690.993 61.8819 685.168 Q61.8819 681.794 61.0544 678.643 Q60.2269 675.461 58.5718 672.341 L64.1099 672.341 Q65.4467 675.492 66.147 678.803 Q66.8472 682.113 66.8472 685.518 Q66.8472 694.048 61.8819 699.045 Q56.9167 704.011 48.4503 704.011 Q39.6974 704.011 34.5731 699.3 Q29.4168 694.558 29.4168 686.537 Q29.4168 679.344 34.0638 675.174 Q38.6789 670.973 46.6361 670.973 M44.9173 676.829 Q40.1112 676.893 37.2466 679.535 Q34.3821 682.145 34.3821 686.473 Q34.3821 691.375 37.1512 694.335 Q39.9202 697.263 44.9492 697.709 L44.9173 676.829 Z" fill="#000000" fill-rule="evenodd" fill-opacity="1" /><path clip-path="url(#clip450)" d="M16.4626 626.572 Q23.7832 630.837 30.9446 632.906 Q38.106 634.975 45.4584 634.975 Q52.8108 634.975 60.0359 632.906 Q67.2291 630.805 74.5179 626.572 L74.5179 631.664 Q67.0382 636.439 59.8131 638.826 Q52.588 641.181 45.4584 641.181 Q38.3606 641.181 31.1674 638.826 Q23.9742 636.471 16.4626 631.664 L16.4626 626.572 Z" fill="#000000" fill-rule="evenodd" fill-opacity="1" /><path clip-path="url(#clip450)" d="M31.3265 592.484 L36.8647 592.484 Q35.5916 594.966 34.955 597.64 Q34.3184 600.313 34.3184 603.178 Q34.3184 607.538 35.6552 609.735 Q36.992 611.899 39.6656 611.899 Q41.7026 611.899 42.8803 610.339 Q44.0261 608.78 45.0765 604.069 L45.5221 602.064 Q46.8589 595.826 49.3097 593.216 Q51.7286 590.574 56.0891 590.574 Q61.0544 590.574 63.9508 594.521 Q66.8472 598.435 66.8472 605.31 Q66.8472 608.175 66.2743 611.294 Q65.7332 614.382 64.6192 617.819 L58.5718 617.819 Q60.2587 614.573 61.118 611.422 Q61.9456 608.27 61.9456 605.183 Q61.9456 601.045 60.5451 598.817 Q59.1129 596.589 56.5347 596.589 Q54.1476 596.589 52.8745 598.213 Q51.6013 599.804 50.4237 605.247 L49.9462 607.284 Q48.8004 612.726 46.4451 615.145 Q44.058 617.564 39.9202 617.564 Q34.8913 617.564 32.1541 614 Q29.4168 610.435 29.4168 603.878 Q29.4168 600.632 29.8943 597.767 Q30.3717 594.902 31.3265 592.484 Z" fill="#000000" fill-rule="evenodd" fill-opacity="1" /><path clip-path="url(#clip450)" d="M16.4626 582.171 L16.4626 577.079 Q23.9742 572.304 31.1674 569.949 Q38.3606 567.562 45.4584 567.562 Q52.588 567.562 59.8131 569.949 Q67.0382 572.304 74.5179 577.079 L74.5179 582.171 Q67.2291 577.938 60.0359 575.869 Q52.8108 573.768 45.4584 573.768 Q38.106 573.768 30.9446 575.869 Q23.7832 577.938 16.4626 582.171 Z" fill="#000000" fill-rule="evenodd" fill-opacity="1" /><polyline clip-path="url(#clip452)" style="stroke:#009af9; stroke-linecap:butt; stroke-linejoin:round; stroke-width:12; stroke-opacity:1; fill:none" points="
  2199.99,1310.74 1991.24,1207.07 1749.43,1167.98 1297.63,1078.36 943.169,917.942 599.588,817.599 307.652,666.499 
  "/>
<line clip-path="url(#clip452)" x1="2199.99" y1="1310.74" x2="2199.99" y2="1294.74" style="stroke:#009af9; stroke-width:3.072; stroke-opacity:1"/>
<line clip-path="url(#clip452)" x1="2199.99" y1="1310.74" x2="2183.99" y2="1310.74" style="stroke:#009af9; stroke-width:3.072; stroke-opacity:1"/>
<line clip-path="url(#clip452)" x1="2199.99" y1="1310.74" x2="2199.99" y2="1326.74" style="stroke:#009af9; stroke-width:3.072; stroke-opacity:1"/>
<line clip-path="url(#clip452)" x1="2199.99" y1="1310.74" x2="2215.99" y2="1310.74" style="stroke:#009af9; stroke-width:3.072; stroke-opacity:1"/>
<line clip-path="url(#clip452)" x1="1991.24" y1="1207.07" x2="1991.24" y2="1191.07" style="stroke:#009af9; stroke-width:3.072; stroke-opacity:1"/>
<line clip-path="url(#clip452)" x1="1991.24" y1="1207.07" x2="1975.24" y2="1207.07" style="stroke:#009af9; stroke-width:3.072; stroke-opacity:1"/>
<line clip-path="url(#clip452)" x1="1991.24" y1="1207.07" x2="1991.24" y2="1223.07" style="stroke:#009af9; stroke-width:3.072; stroke-opacity:1"/>
<line clip-path="url(#clip452)" x1="1991.24" y1="1207.07" x2="2007.24" y2="1207.07" style="stroke:#009af9; stroke-width:3.072; stroke-opacity:1"/>
<line clip-path="url(#clip452)" x1="1749.43" y1="1167.98" x2="1749.43" y2="1151.98" style="stroke:#009af9; stroke-width:3.072; stroke-opacity:1"/>
<line clip-path="url(#clip452)" x1="1749.43" y1="1167.98" x2="1733.43" y2="1167.98" style="stroke:#009af9; stroke-width:3.072; stroke-opacity:1"/>
<line clip-path="url(#clip452)" x1="1749.43" y1="1167.98" x2="1749.43" y2="1183.98" style="stroke:#009af9; stroke-width:3.072; stroke-opacity:1"/>
<line clip-path="url(#clip452)" x1="1749.43" y1="1167.98" x2="1765.43" y2="1167.98" style="stroke:#009af9; stroke-width:3.072; stroke-opacity:1"/>
<line clip-path="url(#clip452)" x1="1297.63" y1="1078.36" x2="1297.63" y2="1062.36" style="stroke:#009af9; stroke-width:3.072; stroke-opacity:1"/>
<line clip-path="url(#clip452)" x1="1297.63" y1="1078.36" x2="1281.63" y2="1078.36" style="stroke:#009af9; stroke-width:3.072; stroke-opacity:1"/>
<line clip-path="url(#clip452)" x1="1297.63" y1="1078.36" x2="1297.63" y2="1094.36" style="stroke:#009af9; stroke-width:3.072; stroke-opacity:1"/>
<line clip-path="url(#clip452)" x1="1297.63" y1="1078.36" x2="1313.63" y2="1078.36" style="stroke:#009af9; stroke-width:3.072; stroke-opacity:1"/>
<line clip-path="url(#clip452)" x1="943.169" y1="917.942" x2="943.169" y2="901.942" style="stroke:#009af9; stroke-width:3.072; stroke-opacity:1"/>
<line clip-path="url(#clip452)" x1="943.169" y1="917.942" x2="927.169" y2="917.942" style="stroke:#009af9; stroke-width:3.072; stroke-opacity:1"/>
<line clip-path="url(#clip452)" x1="943.169" y1="917.942" x2="943.169" y2="933.942" style="stroke:#009af9; stroke-width:3.072; stroke-opacity:1"/>
<line clip-path="url(#clip452)" x1="943.169" y1="917.942" x2="959.169" y2="917.942" style="stroke:#009af9; stroke-width:3.072; stroke-opacity:1"/>
<line clip-path="url(#clip452)" x1="599.588" y1="817.599" x2="599.588" y2="801.599" style="stroke:#009af9; stroke-width:3.072; stroke-opacity:1"/>
<line clip-path="url(#clip452)" x1="599.588" y1="817.599" x2="583.588" y2="817.599" style="stroke:#009af9; stroke-width:3.072; stroke-opacity:1"/>
<line clip-path="url(#clip452)" x1="599.588" y1="817.599" x2="599.588" y2="833.599" style="stroke:#009af9; stroke-width:3.072; stroke-opacity:1"/>
<line clip-path="url(#clip452)" x1="599.588" y1="817.599" x2="615.588" y2="817.599" style="stroke:#009af9; stroke-width:3.072; stroke-opacity:1"/>
<line clip-path="url(#clip452)" x1="307.652" y1="666.499" x2="307.652" y2="650.499" style="stroke:#009af9; stroke-width:3.072; stroke-opacity:1"/>
<line clip-path="url(#clip452)" x1="307.652" y1="666.499" x2="291.652" y2="666.499" style="stroke:#009af9; stroke-width:3.072; stroke-opacity:1"/>
<line clip-path="url(#clip452)" x1="307.652" y1="666.499" x2="307.652" y2="682.499" style="stroke:#009af9; stroke-width:3.072; stroke-opacity:1"/>
<line clip-path="url(#clip452)" x1="307.652" y1="666.499" x2="323.652" y2="666.499" style="stroke:#009af9; stroke-width:3.072; stroke-opacity:1"/>
<polyline clip-path="url(#clip452)" style="stroke:#e26f46; stroke-linecap:butt; stroke-linejoin:round; stroke-width:12; stroke-opacity:1; fill:none" points="
  2199.99,669.56 1991.24,548.536 1749.43,546.044 1297.63,427.325 943.169,281.71 599.588,240.503 307.652,84.0448 
  "/>
<circle clip-path="url(#clip452)" cx="2199.99" cy="669.56" r="14" fill="#e26f46" fill-rule="evenodd" fill-opacity="1" stroke="#000000" stroke-opacity="1" stroke-width="3.072"/>
<circle clip-path="url(#clip452)" cx="1991.24" cy="548.536" r="14" fill="#e26f46" fill-rule="evenodd" fill-opacity="1" stroke="#000000" stroke-opacity="1" stroke-width="3.072"/>
<circle clip-path="url(#clip452)" cx="1749.43" cy="546.044" r="14" fill="#e26f46" fill-rule="evenodd" fill-opacity="1" stroke="#000000" stroke-opacity="1" stroke-width="3.072"/>
<circle clip-path="url(#clip452)" cx="1297.63" cy="427.325" r="14" fill="#e26f46" fill-rule="evenodd" fill-opacity="1" stroke="#000000" stroke-opacity="1" stroke-width="3.072"/>
<circle clip-path="url(#clip452)" cx="943.169" cy="281.71" r="14" fill="#e26f46" fill-rule="evenodd" fill-opacity="1" stroke="#000000" stroke-opacity="1" stroke-width="3.072"/>
<circle clip-path="url(#clip452)" cx="599.588" cy="240.503" r="14" fill="#e26f46" fill-rule="evenodd" fill-opacity="1" stroke="#000000" stroke-opacity="1" stroke-width="3.072"/>
<circle clip-path="url(#clip452)" cx="307.652" cy="84.0448" r="14" fill="#e26f46" fill-rule="evenodd" fill-opacity="1" stroke="#000000" stroke-opacity="1" stroke-width="3.072"/>
<polyline clip-path="url(#clip452)" style="stroke:#3da44d; stroke-linecap:butt; stroke-linejoin:round; stroke-width:12; stroke-opacity:1; fill:none" points="
  2199.99,1257.42 1991.24,1193.35 1749.43,1150.49 1297.63,1034.13 943.169,901.693 599.588,799.681 307.652,644.004 
  "/>
<line clip-path="url(#clip452)" x1="2199.99" y1="1257.42" x2="2199.99" y2="1241.42" style="stroke:#3da44d; stroke-width:3.072; stroke-opacity:1"/>
<line clip-path="url(#clip452)" x1="2199.99" y1="1257.42" x2="2183.99" y2="1257.42" style="stroke:#3da44d; stroke-width:3.072; stroke-opacity:1"/>
<line clip-path="url(#clip452)" x1="2199.99" y1="1257.42" x2="2199.99" y2="1273.42" style="stroke:#3da44d; stroke-width:3.072; stroke-opacity:1"/>
<line clip-path="url(#clip452)" x1="2199.99" y1="1257.42" x2="2215.99" y2="1257.42" style="stroke:#3da44d; stroke-width:3.072; stroke-opacity:1"/>
<line clip-path="url(#clip452)" x1="1991.24" y1="1193.35" x2="1991.24" y2="1177.35" style="stroke:#3da44d; stroke-width:3.072; stroke-opacity:1"/>
<line clip-path="url(#clip452)" x1="1991.24" y1="1193.35" x2="1975.24" y2="1193.35" style="stroke:#3da44d; stroke-width:3.072; stroke-opacity:1"/>
<line clip-path="url(#clip452)" x1="1991.24" y1="1193.35" x2="1991.24" y2="1209.35" style="stroke:#3da44d; stroke-width:3.072; stroke-opacity:1"/>
<line clip-path="url(#clip452)" x1="1991.24" y1="1193.35" x2="2007.24" y2="1193.35" style="stroke:#3da44d; stroke-width:3.072; stroke-opacity:1"/>
<line clip-path="url(#clip452)" x1="1749.43" y1="1150.49" x2="1749.43" y2="1134.49" style="stroke:#3da44d; stroke-width:3.072; stroke-opacity:1"/>
<line clip-path="url(#clip452)" x1="1749.43" y1="1150.49" x2="1733.43" y2="1150.49" style="stroke:#3da44d; stroke-width:3.072; stroke-opacity:1"/>
<line clip-path="url(#clip452)" x1="1749.43" y1="1150.49" x2="1749.43" y2="1166.49" style="stroke:#3da44d; stroke-width:3.072; stroke-opacity:1"/>
<line clip-path="url(#clip452)" x1="1749.43" y1="1150.49" x2="1765.43" y2="1150.49" style="stroke:#3da44d; stroke-width:3.072; stroke-opacity:1"/>
<line clip-path="url(#clip452)" x1="1297.63" y1="1034.13" x2="1297.63" y2="1018.13" style="stroke:#3da44d; stroke-width:3.072; stroke-opacity:1"/>
<line clip-path="url(#clip452)" x1="1297.63" y1="1034.13" x2="1281.63" y2="1034.13" style="stroke:#3da44d; stroke-width:3.072; stroke-opacity:1"/>
<line clip-path="url(#clip452)" x1="1297.63" y1="1034.13" x2="1297.63" y2="1050.13" style="stroke:#3da44d; stroke-width:3.072; stroke-opacity:1"/>
<line clip-path="url(#clip452)" x1="1297.63" y1="1034.13" x2="1313.63" y2="1034.13" style="stroke:#3da44d; stroke-width:3.072; stroke-opacity:1"/>
<line clip-path="url(#clip452)" x1="943.169" y1="901.693" x2="943.169" y2="885.693" style="stroke:#3da44d; stroke-width:3.072; stroke-opacity:1"/>
<line clip-path="url(#clip452)" x1="943.169" y1="901.693" x2="927.169" y2="901.693" style="stroke:#3da44d; stroke-width:3.072; stroke-opacity:1"/>
<line clip-path="url(#clip452)" x1="943.169" y1="901.693" x2="943.169" y2="917.693" style="stroke:#3da44d; stroke-width:3.072; stroke-opacity:1"/>
<line clip-path="url(#clip452)" x1="943.169" y1="901.693" x2="959.169" y2="901.693" style="stroke:#3da44d; stroke-width:3.072; stroke-opacity:1"/>
<line clip-path="url(#clip452)" x1="599.588" y1="799.681" x2="599.588" y2="783.681" style="stroke:#3da44d; stroke-width:3.072; stroke-opacity:1"/>
<line clip-path="url(#clip452)" x1="599.588" y1="799.681" x2="583.588" y2="799.681" style="stroke:#3da44d; stroke-width:3.072; stroke-opacity:1"/>
<line clip-path="url(#clip452)" x1="599.588" y1="799.681" x2="599.588" y2="815.681" style="stroke:#3da44d; stroke-width:3.072; stroke-opacity:1"/>
<line clip-path="url(#clip452)" x1="599.588" y1="799.681" x2="615.588" y2="799.681" style="stroke:#3da44d; stroke-width:3.072; stroke-opacity:1"/>
<line clip-path="url(#clip452)" x1="307.652" y1="644.004" x2="307.652" y2="628.004" style="stroke:#3da44d; stroke-width:3.072; stroke-opacity:1"/>
<line clip-path="url(#clip452)" x1="307.652" y1="644.004" x2="291.652" y2="644.004" style="stroke:#3da44d; stroke-width:3.072; stroke-opacity:1"/>
<line clip-path="url(#clip452)" x1="307.652" y1="644.004" x2="307.652" y2="660.004" style="stroke:#3da44d; stroke-width:3.072; stroke-opacity:1"/>
<line clip-path="url(#clip452)" x1="307.652" y1="644.004" x2="323.652" y2="644.004" style="stroke:#3da44d; stroke-width:3.072; stroke-opacity:1"/>
<path clip-path="url(#clip450)" d="
M1700.61 297.947 L2189.89 297.947 L2189.89 90.5872 L1700.61 90.5872  Z
  " fill="#ffffff" fill-rule="evenodd" fill-opacity="1"/>
<polyline clip-path="url(#clip450)" style="stroke:#000000; stroke-linecap:butt; stroke-linejoin:round; stroke-width:4; stroke-opacity:1; fill:none" points="
  1700.61,297.947 2189.89,297.947 2189.89,90.5872 1700.61,90.5872 1700.61,297.947 
  "/>
<polyline clip-path="url(#clip450)" style="stroke:#009af9; stroke-linecap:butt; stroke-linejoin:round; stroke-width:4; stroke-opacity:1; fill:none" points="
  1722.9,142.427 1856.62,142.427 
  "/>
<line clip-path="url(#clip450)" x1="1789.76" y1="142.427" x2="1789.76" y2="116.827" style="stroke:#009af9; stroke-width:4.9152; stroke-opacity:1"/>
<line clip-path="url(#clip450)" x1="1789.76" y1="142.427" x2="1764.16" y2="142.427" style="stroke:#009af9; stroke-width:4.9152; stroke-opacity:1"/>
<line clip-path="url(#clip450)" x1="1789.76" y1="142.427" x2="1789.76" y2="168.027" style="stroke:#009af9; stroke-width:4.9152; stroke-opacity:1"/>
<line clip-path="url(#clip450)" x1="1789.76" y1="142.427" x2="1815.36" y2="142.427" style="stroke:#009af9; stroke-width:4.9152; stroke-opacity:1"/>
<path clip-path="url(#clip450)" d="M1878.91 149.476 L1878.91 133.781 L1883.17 133.781 L1883.17 149.314 Q1883.17 152.994 1884.6 154.846 Q1886.04 156.675 1888.91 156.675 Q1892.36 156.675 1894.35 154.476 Q1896.36 152.277 1896.36 148.48 L1896.36 133.781 L1900.62 133.781 L1900.62 159.707 L1896.36 159.707 L1896.36 155.726 Q1894.81 158.087 1892.75 159.244 Q1890.71 160.378 1888.01 160.378 Q1883.54 160.378 1881.22 157.601 Q1878.91 154.823 1878.91 149.476 M1889.63 133.156 L1889.63 133.156 Z" fill="#000000" fill-rule="evenodd" fill-opacity="1" /><path clip-path="url(#clip450)" d="M1930.94 144.059 L1930.94 159.707 L1926.69 159.707 L1926.69 144.198 Q1926.69 140.517 1925.25 138.689 Q1923.82 136.86 1920.94 136.86 Q1917.5 136.86 1915.5 139.059 Q1913.51 141.258 1913.51 145.054 L1913.51 159.707 L1909.23 159.707 L1909.23 133.781 L1913.51 133.781 L1913.51 137.809 Q1915.04 135.471 1917.1 134.314 Q1919.19 133.156 1921.89 133.156 Q1926.36 133.156 1928.65 135.934 Q1930.94 138.689 1930.94 144.059 Z" fill="#000000" fill-rule="evenodd" fill-opacity="1" /><path clip-path="url(#clip450)" d="M1943.65 126.42 L1943.65 133.781 L1952.43 133.781 L1952.43 137.092 L1943.65 137.092 L1943.65 151.166 Q1943.65 154.337 1944.51 155.24 Q1945.39 156.142 1948.05 156.142 L1952.43 156.142 L1952.43 159.707 L1948.05 159.707 Q1943.12 159.707 1941.25 157.878 Q1939.37 156.027 1939.37 151.166 L1939.37 137.092 L1936.25 137.092 L1936.25 133.781 L1939.37 133.781 L1939.37 126.42 L1943.65 126.42 Z" fill="#000000" fill-rule="evenodd" fill-opacity="1" /><path clip-path="url(#clip450)" d="M1979.58 144.059 L1979.58 159.707 L1975.32 159.707 L1975.32 144.198 Q1975.32 140.517 1973.88 138.689 Q1972.45 136.86 1969.58 136.86 Q1966.13 136.86 1964.14 139.059 Q1962.15 141.258 1962.15 145.054 L1962.15 159.707 L1957.87 159.707 L1957.87 123.689 L1962.15 123.689 L1962.15 137.809 Q1963.68 135.471 1965.74 134.314 Q1967.82 133.156 1970.53 133.156 Q1975 133.156 1977.29 135.934 Q1979.58 138.689 1979.58 144.059 Z" fill="#000000" fill-rule="evenodd" fill-opacity="1" /><path clip-path="url(#clip450)" d="M2003.1 137.763 Q2002.38 137.346 2001.52 137.161 Q2000.69 136.953 1999.67 136.953 Q1996.06 136.953 1994.12 139.314 Q1992.19 141.652 1992.19 146.05 L1992.19 159.707 L1987.91 159.707 L1987.91 133.781 L1992.19 133.781 L1992.19 137.809 Q1993.54 135.448 1995.69 134.314 Q1997.84 133.156 2000.92 133.156 Q2001.36 133.156 2001.89 133.226 Q2002.43 133.272 2003.07 133.388 L2003.1 137.763 Z" fill="#000000" fill-rule="evenodd" fill-opacity="1" /><path clip-path="url(#clip450)" d="M2028.7 145.679 L2028.7 147.763 L2009.12 147.763 Q2009.39 152.161 2011.75 154.476 Q2014.14 156.767 2018.37 156.767 Q2020.83 156.767 2023.12 156.166 Q2025.43 155.564 2027.7 154.36 L2027.7 158.388 Q2025.41 159.36 2023 159.869 Q2020.6 160.378 2018.12 160.378 Q2011.92 160.378 2008.28 156.767 Q2004.67 153.156 2004.67 146.999 Q2004.67 140.633 2008.1 136.906 Q2011.55 133.156 2017.38 133.156 Q2022.61 133.156 2025.64 136.536 Q2028.7 139.892 2028.7 145.679 M2024.44 144.429 Q2024.39 140.934 2022.47 138.851 Q2020.57 136.767 2017.43 136.767 Q2013.86 136.767 2011.71 138.781 Q2009.58 140.795 2009.25 144.453 L2024.44 144.429 Z" fill="#000000" fill-rule="evenodd" fill-opacity="1" /><path clip-path="url(#clip450)" d="M2047.47 146.675 Q2042.31 146.675 2040.32 147.855 Q2038.33 149.036 2038.33 151.883 Q2038.33 154.152 2039.81 155.494 Q2041.31 156.814 2043.88 156.814 Q2047.43 156.814 2049.56 154.314 Q2051.71 151.791 2051.71 147.624 L2051.71 146.675 L2047.47 146.675 M2055.97 144.916 L2055.97 159.707 L2051.71 159.707 L2051.71 155.772 Q2050.25 158.133 2048.07 159.267 Q2045.9 160.378 2042.75 160.378 Q2038.77 160.378 2036.41 158.156 Q2034.07 155.911 2034.07 152.161 Q2034.07 147.786 2036.99 145.564 Q2039.93 143.342 2045.74 143.342 L2051.71 143.342 L2051.71 142.925 Q2051.71 139.985 2049.76 138.388 Q2047.84 136.767 2044.35 136.767 Q2042.12 136.767 2040.02 137.3 Q2037.91 137.832 2035.97 138.897 L2035.97 134.962 Q2038.31 134.059 2040.5 133.619 Q2042.7 133.156 2044.79 133.156 Q2050.41 133.156 2053.19 136.073 Q2055.97 138.99 2055.97 144.916 Z" fill="#000000" fill-rule="evenodd" fill-opacity="1" /><path clip-path="url(#clip450)" d="M2081.8 137.717 L2081.8 123.689 L2086.06 123.689 L2086.06 159.707 L2081.8 159.707 L2081.8 155.818 Q2080.46 158.133 2078.4 159.267 Q2076.36 160.378 2073.49 160.378 Q2068.79 160.378 2065.83 156.628 Q2062.89 152.879 2062.89 146.767 Q2062.89 140.656 2065.83 136.906 Q2068.79 133.156 2073.49 133.156 Q2076.36 133.156 2078.4 134.291 Q2080.46 135.402 2081.8 137.717 M2067.29 146.767 Q2067.29 151.466 2069.21 154.152 Q2071.15 156.814 2074.53 156.814 Q2077.91 156.814 2079.86 154.152 Q2081.8 151.466 2081.8 146.767 Q2081.8 142.068 2079.86 139.406 Q2077.91 136.721 2074.53 136.721 Q2071.15 136.721 2069.21 139.406 Q2067.29 142.068 2067.29 146.767 Z" fill="#000000" fill-rule="evenodd" fill-opacity="1" /><path clip-path="url(#clip450)" d="M2117.01 145.679 L2117.01 147.763 L2097.43 147.763 Q2097.7 152.161 2100.06 154.476 Q2102.45 156.767 2106.68 156.767 Q2109.14 156.767 2111.43 156.166 Q2113.74 155.564 2116.01 154.36 L2116.01 158.388 Q2113.72 159.36 2111.31 159.869 Q2108.91 160.378 2106.43 160.378 Q2100.23 160.378 2096.59 156.767 Q2092.98 153.156 2092.98 146.999 Q2092.98 140.633 2096.41 136.906 Q2099.86 133.156 2105.69 133.156 Q2110.92 133.156 2113.95 136.536 Q2117.01 139.892 2117.01 145.679 M2112.75 144.429 Q2112.7 140.934 2110.78 138.851 Q2108.88 136.767 2105.74 136.767 Q2102.17 136.767 2100.02 138.781 Q2097.89 140.795 2097.56 144.453 L2112.75 144.429 Z" fill="#000000" fill-rule="evenodd" fill-opacity="1" /><path clip-path="url(#clip450)" d="M2141.06 137.717 L2141.06 123.689 L2145.32 123.689 L2145.32 159.707 L2141.06 159.707 L2141.06 155.818 Q2139.72 158.133 2137.66 159.267 Q2135.62 160.378 2132.75 160.378 Q2128.05 160.378 2125.09 156.628 Q2122.15 152.879 2122.15 146.767 Q2122.15 140.656 2125.09 136.906 Q2128.05 133.156 2132.75 133.156 Q2135.62 133.156 2137.66 134.291 Q2139.72 135.402 2141.06 137.717 M2126.55 146.767 Q2126.55 151.466 2128.47 154.152 Q2130.41 156.814 2133.79 156.814 Q2137.17 156.814 2139.11 154.152 Q2141.06 151.466 2141.06 146.767 Q2141.06 142.068 2139.11 139.406 Q2137.17 136.721 2133.79 136.721 Q2130.41 136.721 2128.47 139.406 Q2126.55 142.068 2126.55 146.767 Z" fill="#000000" fill-rule="evenodd" fill-opacity="1" /><polyline clip-path="url(#clip450)" style="stroke:#e26f46; stroke-linecap:butt; stroke-linejoin:round; stroke-width:4; stroke-opacity:1; fill:none" points="
  1722.9,194.267 1856.62,194.267 
  "/>
<circle clip-path="url(#clip450)" cx="1789.76" cy="194.267" r="23" fill="#e26f46" fill-rule="evenodd" fill-opacity="1" stroke="#000000" stroke-opacity="1" stroke-width="4.9152"/>
<path clip-path="url(#clip450)" d="M1886.32 178.26 L1886.32 185.621 L1895.09 185.621 L1895.09 188.932 L1886.32 188.932 L1886.32 203.006 Q1886.32 206.177 1887.17 207.08 Q1888.05 207.982 1890.71 207.982 L1895.09 207.982 L1895.09 211.547 L1890.71 211.547 Q1885.78 211.547 1883.91 209.718 Q1882.03 207.867 1882.03 203.006 L1882.03 188.932 L1878.91 188.932 L1878.91 185.621 L1882.03 185.621 L1882.03 178.26 L1886.32 178.26 Z" fill="#000000" fill-rule="evenodd" fill-opacity="1" /><path clip-path="url(#clip450)" d="M1922.24 195.899 L1922.24 211.547 L1917.98 211.547 L1917.98 196.038 Q1917.98 192.357 1916.55 190.529 Q1915.11 188.7 1912.24 188.7 Q1908.79 188.7 1906.8 190.899 Q1904.81 193.098 1904.81 196.894 L1904.81 211.547 L1900.53 211.547 L1900.53 175.529 L1904.81 175.529 L1904.81 189.649 Q1906.34 187.311 1908.4 186.154 Q1910.48 184.996 1913.19 184.996 Q1917.66 184.996 1919.95 187.774 Q1922.24 190.529 1922.24 195.899 Z" fill="#000000" fill-rule="evenodd" fill-opacity="1" /><path clip-path="url(#clip450)" d="M1945.76 189.603 Q1945.04 189.186 1944.19 189.001 Q1943.35 188.793 1942.33 188.793 Q1938.72 188.793 1936.78 191.154 Q1934.86 193.492 1934.86 197.89 L1934.86 211.547 L1930.57 211.547 L1930.57 185.621 L1934.86 185.621 L1934.86 189.649 Q1936.2 187.288 1938.35 186.154 Q1940.5 184.996 1943.58 184.996 Q1944.02 184.996 1944.56 185.066 Q1945.09 185.112 1945.74 185.228 L1945.76 189.603 Z" fill="#000000" fill-rule="evenodd" fill-opacity="1" /><path clip-path="url(#clip450)" d="M1971.36 197.519 L1971.36 199.603 L1951.78 199.603 Q1952.06 204.001 1954.42 206.316 Q1956.8 208.607 1961.04 208.607 Q1963.49 208.607 1965.78 208.006 Q1968.1 207.404 1970.37 206.2 L1970.37 210.228 Q1968.07 211.2 1965.67 211.709 Q1963.26 212.218 1960.78 212.218 Q1954.58 212.218 1950.94 208.607 Q1947.33 204.996 1947.33 198.839 Q1947.33 192.473 1950.76 188.746 Q1954.21 184.996 1960.04 184.996 Q1965.27 184.996 1968.31 188.376 Q1971.36 191.732 1971.36 197.519 M1967.1 196.269 Q1967.06 192.774 1965.13 190.691 Q1963.24 188.607 1960.09 188.607 Q1956.52 188.607 1954.37 190.621 Q1952.24 192.635 1951.92 196.293 L1967.1 196.269 Z" fill="#000000" fill-rule="evenodd" fill-opacity="1" /><path clip-path="url(#clip450)" d="M1990.13 198.515 Q1984.97 198.515 1982.98 199.695 Q1980.99 200.876 1980.99 203.723 Q1980.99 205.992 1982.47 207.334 Q1983.98 208.654 1986.55 208.654 Q1990.09 208.654 1992.22 206.154 Q1994.37 203.631 1994.37 199.464 L1994.37 198.515 L1990.13 198.515 M1998.63 196.756 L1998.63 211.547 L1994.37 211.547 L1994.37 207.612 Q1992.91 209.973 1990.74 211.107 Q1988.56 212.218 1985.41 212.218 Q1981.43 212.218 1979.07 209.996 Q1976.73 207.751 1976.73 204.001 Q1976.73 199.626 1979.65 197.404 Q1982.59 195.182 1988.4 195.182 L1994.37 195.182 L1994.37 194.765 Q1994.37 191.825 1992.43 190.228 Q1990.5 188.607 1987.01 188.607 Q1984.79 188.607 1982.68 189.14 Q1980.57 189.672 1978.63 190.737 L1978.63 186.802 Q1980.97 185.899 1983.17 185.459 Q1985.37 184.996 1987.45 184.996 Q1993.07 184.996 1995.85 187.913 Q1998.63 190.83 1998.63 196.756 Z" fill="#000000" fill-rule="evenodd" fill-opacity="1" /><path clip-path="url(#clip450)" d="M2024.46 189.557 L2024.46 175.529 L2028.72 175.529 L2028.72 211.547 L2024.46 211.547 L2024.46 207.658 Q2023.12 209.973 2021.06 211.107 Q2019.02 212.218 2016.15 212.218 Q2011.45 212.218 2008.49 208.468 Q2005.55 204.719 2005.55 198.607 Q2005.55 192.496 2008.49 188.746 Q2011.45 184.996 2016.15 184.996 Q2019.02 184.996 2021.06 186.131 Q2023.12 187.242 2024.46 189.557 M2009.95 198.607 Q2009.95 203.306 2011.87 205.992 Q2013.81 208.654 2017.19 208.654 Q2020.57 208.654 2022.52 205.992 Q2024.46 203.306 2024.46 198.607 Q2024.46 193.908 2022.52 191.246 Q2020.57 188.561 2017.19 188.561 Q2013.81 188.561 2011.87 191.246 Q2009.95 193.908 2009.95 198.607 Z" fill="#000000" fill-rule="evenodd" fill-opacity="1" /><path clip-path="url(#clip450)" d="M2059.67 197.519 L2059.67 199.603 L2040.09 199.603 Q2040.37 204.001 2042.73 206.316 Q2045.11 208.607 2049.35 208.607 Q2051.8 208.607 2054.09 208.006 Q2056.41 207.404 2058.68 206.2 L2058.68 210.228 Q2056.38 211.2 2053.98 211.709 Q2051.57 212.218 2049.09 212.218 Q2042.89 212.218 2039.25 208.607 Q2035.64 204.996 2035.64 198.839 Q2035.64 192.473 2039.07 188.746 Q2042.52 184.996 2048.35 184.996 Q2053.58 184.996 2056.62 188.376 Q2059.67 191.732 2059.67 197.519 M2055.41 196.269 Q2055.37 192.774 2053.44 190.691 Q2051.55 188.607 2048.4 188.607 Q2044.83 188.607 2042.68 190.621 Q2040.55 192.635 2040.23 196.293 L2055.41 196.269 Z" fill="#000000" fill-rule="evenodd" fill-opacity="1" /><path clip-path="url(#clip450)" d="M2083.72 189.557 L2083.72 175.529 L2087.98 175.529 L2087.98 211.547 L2083.72 211.547 L2083.72 207.658 Q2082.38 209.973 2080.32 211.107 Q2078.28 212.218 2075.41 212.218 Q2070.71 212.218 2067.75 208.468 Q2064.81 204.719 2064.81 198.607 Q2064.81 192.496 2067.75 188.746 Q2070.71 184.996 2075.41 184.996 Q2078.28 184.996 2080.32 186.131 Q2082.38 187.242 2083.72 189.557 M2069.21 198.607 Q2069.21 203.306 2071.13 205.992 Q2073.07 208.654 2076.45 208.654 Q2079.83 208.654 2081.78 205.992 Q2083.72 203.306 2083.72 198.607 Q2083.72 193.908 2081.78 191.246 Q2079.83 188.561 2076.45 188.561 Q2073.07 188.561 2071.13 191.246 Q2069.21 193.908 2069.21 198.607 Z" fill="#000000" fill-rule="evenodd" fill-opacity="1" /><polyline clip-path="url(#clip450)" style="stroke:#3da44d; stroke-linecap:butt; stroke-linejoin:round; stroke-width:4; stroke-opacity:1; fill:none" points="
  1722.9,246.107 1856.62,246.107 
  "/>
<line clip-path="url(#clip450)" x1="1789.76" y1="246.107" x2="1789.76" y2="220.507" style="stroke:#3da44d; stroke-width:4.9152; stroke-opacity:1"/>
<line clip-path="url(#clip450)" x1="1789.76" y1="246.107" x2="1764.16" y2="246.107" style="stroke:#3da44d; stroke-width:4.9152; stroke-opacity:1"/>
<line clip-path="url(#clip450)" x1="1789.76" y1="246.107" x2="1789.76" y2="271.707" style="stroke:#3da44d; stroke-width:4.9152; stroke-opacity:1"/>
<line clip-path="url(#clip450)" x1="1789.76" y1="246.107" x2="1815.36" y2="246.107" style="stroke:#3da44d; stroke-width:4.9152; stroke-opacity:1"/>
<path clip-path="url(#clip450)" d="M1883.58 232.67 L1883.58 245.656 L1889.46 245.656 Q1892.73 245.656 1894.51 243.966 Q1896.29 242.276 1896.29 239.151 Q1896.29 236.049 1894.51 234.36 Q1892.73 232.67 1889.46 232.67 L1883.58 232.67 M1878.91 228.827 L1889.46 228.827 Q1895.27 228.827 1898.24 231.466 Q1901.22 234.082 1901.22 239.151 Q1901.22 244.267 1898.24 246.883 Q1895.27 249.498 1889.46 249.498 L1883.58 249.498 L1883.58 263.387 L1878.91 263.387 L1878.91 228.827 Z" fill="#000000" fill-rule="evenodd" fill-opacity="1" /><path clip-path="url(#clip450)" d="M1915.67 240.447 Q1912.24 240.447 1910.25 243.133 Q1908.26 245.795 1908.26 250.447 Q1908.26 255.1 1910.23 257.785 Q1912.22 260.447 1915.67 260.447 Q1919.07 260.447 1921.06 257.762 Q1923.05 255.077 1923.05 250.447 Q1923.05 245.841 1921.06 243.156 Q1919.07 240.447 1915.67 240.447 M1915.67 236.836 Q1921.22 236.836 1924.39 240.447 Q1927.57 244.059 1927.57 250.447 Q1927.57 256.813 1924.39 260.447 Q1921.22 264.058 1915.67 264.058 Q1910.09 264.058 1906.92 260.447 Q1903.77 256.813 1903.77 250.447 Q1903.77 244.059 1906.92 240.447 Q1910.09 236.836 1915.67 236.836 Z" fill="#000000" fill-rule="evenodd" fill-opacity="1" /><path clip-path="url(#clip450)" d="M1934.63 227.369 L1938.88 227.369 L1938.88 263.387 L1934.63 263.387 L1934.63 227.369 Z" fill="#000000" fill-rule="evenodd" fill-opacity="1" /><path clip-path="url(#clip450)" d="M1958.58 265.795 Q1956.78 270.424 1955.06 271.836 Q1953.35 273.248 1950.48 273.248 L1947.08 273.248 L1947.08 269.683 L1949.58 269.683 Q1951.34 269.683 1952.31 268.85 Q1953.28 268.017 1954.46 264.915 L1955.23 262.971 L1944.74 237.461 L1949.25 237.461 L1957.36 257.739 L1965.46 237.461 L1969.97 237.461 L1958.58 265.795 Z" fill="#000000" fill-rule="evenodd" fill-opacity="1" /><path clip-path="url(#clip450)" d="M1998.03 249.359 L1998.03 251.443 L1978.44 251.443 Q1978.72 255.841 1981.08 258.156 Q1983.47 260.447 1987.7 260.447 Q1990.16 260.447 1992.45 259.846 Q1994.76 259.244 1997.03 258.04 L1997.03 262.068 Q1994.74 263.04 1992.33 263.549 Q1989.93 264.058 1987.45 264.058 Q1981.25 264.058 1977.61 260.447 Q1974 256.836 1974 250.679 Q1974 244.313 1977.43 240.586 Q1980.87 236.836 1986.71 236.836 Q1991.94 236.836 1994.97 240.216 Q1998.03 243.572 1998.03 249.359 M1993.77 248.109 Q1993.72 244.614 1991.8 242.531 Q1989.9 240.447 1986.75 240.447 Q1983.19 240.447 1981.04 242.461 Q1978.91 244.475 1978.58 248.133 L1993.77 248.109 Z" fill="#000000" fill-rule="evenodd" fill-opacity="1" /><path clip-path="url(#clip450)" d="M2021.55 238.225 L2021.55 242.253 Q2019.74 241.327 2017.8 240.864 Q2015.85 240.401 2013.77 240.401 Q2010.6 240.401 2009 241.373 Q2007.43 242.346 2007.43 244.29 Q2007.43 245.772 2008.56 246.628 Q2009.69 247.461 2013.12 248.225 L2014.58 248.549 Q2019.12 249.522 2021.01 251.304 Q2022.93 253.063 2022.93 256.234 Q2022.93 259.846 2020.06 261.952 Q2017.22 264.058 2012.22 264.058 Q2010.13 264.058 2007.87 263.642 Q2005.62 263.248 2003.12 262.438 L2003.12 258.04 Q2005.48 259.267 2007.77 259.892 Q2010.06 260.494 2012.31 260.494 Q2015.32 260.494 2016.94 259.475 Q2018.56 258.434 2018.56 256.559 Q2018.56 254.822 2017.38 253.896 Q2016.22 252.971 2012.26 252.114 L2010.78 251.767 Q2006.82 250.934 2005.06 249.221 Q2003.31 247.484 2003.31 244.475 Q2003.31 240.818 2005.9 238.827 Q2008.49 236.836 2013.26 236.836 Q2015.62 236.836 2017.7 237.184 Q2019.79 237.531 2021.55 238.225 Z" fill="#000000" fill-rule="evenodd" fill-opacity="1" /><path clip-path="url(#clip450)" d="M2033.93 230.1 L2033.93 237.461 L2042.7 237.461 L2042.7 240.772 L2033.93 240.772 L2033.93 254.846 Q2033.93 258.017 2034.79 258.92 Q2035.67 259.822 2038.33 259.822 L2042.7 259.822 L2042.7 263.387 L2038.33 263.387 Q2033.4 263.387 2031.52 261.558 Q2029.65 259.707 2029.65 254.846 L2029.65 240.772 L2026.52 240.772 L2026.52 237.461 L2029.65 237.461 L2029.65 230.1 L2033.93 230.1 Z" fill="#000000" fill-rule="evenodd" fill-opacity="1" /><path clip-path="url(#clip450)" d="M2070.48 249.359 L2070.48 251.443 L2050.9 251.443 Q2051.18 255.841 2053.54 258.156 Q2055.92 260.447 2060.16 260.447 Q2062.61 260.447 2064.9 259.846 Q2067.22 259.244 2069.49 258.04 L2069.49 262.068 Q2067.19 263.04 2064.79 263.549 Q2062.38 264.058 2059.9 264.058 Q2053.7 264.058 2050.06 260.447 Q2046.45 256.836 2046.45 250.679 Q2046.45 244.313 2049.88 240.586 Q2053.33 236.836 2059.16 236.836 Q2064.39 236.836 2067.43 240.216 Q2070.48 243.572 2070.48 249.359 M2066.22 248.109 Q2066.18 244.614 2064.25 242.531 Q2062.36 240.447 2059.21 240.447 Q2055.64 240.447 2053.49 242.461 Q2051.36 244.475 2051.04 248.133 L2066.22 248.109 Z" fill="#000000" fill-rule="evenodd" fill-opacity="1" /><path clip-path="url(#clip450)" d="M2092.49 241.443 Q2091.78 241.026 2090.92 240.841 Q2090.09 240.633 2089.07 240.633 Q2085.46 240.633 2083.51 242.994 Q2081.59 245.332 2081.59 249.73 L2081.59 263.387 L2077.31 263.387 L2077.31 237.461 L2081.59 237.461 L2081.59 241.489 Q2082.93 239.128 2085.09 237.994 Q2087.24 236.836 2090.32 236.836 Q2090.76 236.836 2091.29 236.906 Q2091.82 236.952 2092.47 237.068 L2092.49 241.443 Z" fill="#000000" fill-rule="evenodd" fill-opacity="1" /></svg>
