<?xml version="1.0" encoding="utf-8"?>
<svg xmlns="http://www.w3.org/2000/svg" xmlns:xlink="http://www.w3.org/1999/xlink" width="576" height="384" viewBox="0 0 2304 1536">
<defs>
  <clipPath id="clip330">
    <rect x="0" y="0" width="2304" height="1536"/>
  </clipPath>
</defs>
<path clip-path="url(#clip330)" d="
M0 1536 L2304 1536 L2304 0 L0 0  Z
  " fill="#ffffff" fill-rule="evenodd" fill-opacity="1"/>
<defs>
  <clipPath id="clip331">
    <rect x="460" y="0" width="1614" height="1536"/>
  </clipPath>
</defs>
<path clip-path="url(#clip330)" d="
M250.882 1347.54 L2256.76 1347.54 L2256.76 47.2441 L250.882 47.2441  Z
  " fill="#ffffff" fill-rule="evenodd" fill-opacity="1"/>
<defs>
  <clipPath id="clip332">
    <rect x="250" y="47" width="2007" height="1301"/>
  </clipPath>
</defs>
<polyline clip-path="url(#clip332)" style="stroke:#000000; stroke-linecap:butt; stroke-linejoin:round; stroke-width:2; stroke-opacity:0.1; fill:none" points="
  345.543,1347.54 345.543,47.2441 
  "/>
<polyline clip-path="url(#clip332)" style="stroke:#000000; stroke-linecap:butt; stroke-linejoin:round; stroke-width:2; stroke-opacity:0.1; fill:none" points="
  808.14,1347.54 808.14,47.2441 
  "/>
<polyline clip-path="url(#clip332)" style="stroke:#000000; stroke-linecap:butt; stroke-linejoin:round; stroke-width:2; stroke-opacity:0.1; fill:none" points="
  1270.74,1347.54 1270.74,47.2441 
  "/>
<polyline clip-path="url(#clip332)" style="stroke:#000000; stroke-linecap:butt; stroke-linejoin:round; stroke-width:2; stroke-opacity:0.1; fill:none" points="
  1733.33,1347.54 1733.33,47.2441 
  "/>
<polyline clip-path="url(#clip332)" style="stroke:#000000; stroke-linecap:butt; stroke-linejoin:round; stroke-width:2; stroke-opacity:0.1; fill:none" points="
  2195.93,1347.54 2195.93,47.2441 
  "/>
<polyline clip-path="url(#clip330)" style="stroke:#000000; stroke-linecap:butt; stroke-linejoin:round; stroke-width:4; stroke-opacity:1; fill:none" points="
  250.882,1347.54 2256.76,1347.54 
  "/>
<polyline clip-path="url(#clip330)" style="stroke:#000000; stroke-linecap:butt; stroke-linejoin:round; stroke-width:4; stroke-opacity:1; fill:none" points="
  345.543,1347.54 345.543,1328.64 
  "/>
<polyline clip-path="url(#clip330)" style="stroke:#000000; stroke-linecap:butt; stroke-linejoin:round; stroke-width:4; stroke-opacity:1; fill:none" points="
  808.14,1347.54 808.14,1328.64 
  "/>
<polyline clip-path="url(#clip330)" style="stroke:#000000; stroke-linecap:butt; stroke-linejoin:round; stroke-width:4; stroke-opacity:1; fill:none" points="
  1270.74,1347.54 1270.74,1328.64 
  "/>
<polyline clip-path="url(#clip330)" style="stroke:#000000; stroke-linecap:butt; stroke-linejoin:round; stroke-width:4; stroke-opacity:1; fill:none" points="
  1733.33,1347.54 1733.33,1328.64 
  "/>
<polyline clip-path="url(#clip330)" style="stroke:#000000; stroke-linecap:butt; stroke-linejoin:round; stroke-width:4; stroke-opacity:1; fill:none" points="
  2195.93,1347.54 2195.93,1328.64 
  "/>
<path clip-path="url(#clip330)" d="M282.71 1420.89 L290.348 1420.89 L290.348 1394.53 L282.038 1396.19 L282.038 1391.94 L290.302 1390.27 L294.978 1390.27 L294.978 1420.89 L302.617 1420.89 L302.617 1424.83 L282.71 1424.83 L282.71 1420.89 Z" fill="#000000" fill-rule="evenodd" fill-opacity="1" /><path clip-path="url(#clip330)" d="M322.061 1393.35 Q318.45 1393.35 316.621 1396.91 Q314.816 1400.45 314.816 1407.58 Q314.816 1414.69 316.621 1418.25 Q318.45 1421.8 322.061 1421.8 Q325.695 1421.8 327.501 1418.25 Q329.33 1414.69 329.33 1407.58 Q329.33 1400.45 327.501 1396.91 Q325.695 1393.35 322.061 1393.35 M322.061 1389.64 Q327.871 1389.64 330.927 1394.25 Q334.006 1398.83 334.006 1407.58 Q334.006 1416.31 330.927 1420.92 Q327.871 1425.5 322.061 1425.5 Q316.251 1425.5 313.172 1420.92 Q310.117 1416.31 310.117 1407.58 Q310.117 1398.83 313.172 1394.25 Q316.251 1389.64 322.061 1389.64 Z" fill="#000000" fill-rule="evenodd" fill-opacity="1" /><path clip-path="url(#clip330)" d="M334.006 1383.74 L358.117 1383.74 L358.117 1386.94 L334.006 1386.94 L334.006 1383.74 Z" fill="#000000" fill-rule="evenodd" fill-opacity="1" /><path clip-path="url(#clip330)" d="M366.976 1394.22 L373.182 1394.22 L373.182 1372.8 L366.43 1374.15 L366.43 1370.69 L373.145 1369.34 L376.944 1369.34 L376.944 1394.22 L383.15 1394.22 L383.15 1397.42 L366.976 1397.42 L366.976 1394.22 Z" fill="#000000" fill-rule="evenodd" fill-opacity="1" /><path clip-path="url(#clip330)" d="M401.262 1372.65 L391.67 1387.64 L401.262 1387.64 L401.262 1372.65 M400.265 1369.34 L405.042 1369.34 L405.042 1387.64 L409.049 1387.64 L409.049 1390.8 L405.042 1390.8 L405.042 1397.42 L401.262 1397.42 L401.262 1390.8 L388.586 1390.8 L388.586 1387.13 L400.265 1369.34 Z" fill="#000000" fill-rule="evenodd" fill-opacity="1" /><path clip-path="url(#clip330)" d="M746.152 1420.89 L753.791 1420.89 L753.791 1394.53 L745.481 1396.19 L745.481 1391.94 L753.745 1390.27 L758.421 1390.27 L758.421 1420.89 L766.06 1420.89 L766.06 1424.83 L746.152 1424.83 L746.152 1420.89 Z" fill="#000000" fill-rule="evenodd" fill-opacity="1" /><path clip-path="url(#clip330)" d="M785.504 1393.35 Q781.893 1393.35 780.064 1396.91 Q778.259 1400.45 778.259 1407.58 Q778.259 1414.69 780.064 1418.25 Q781.893 1421.8 785.504 1421.8 Q789.138 1421.8 790.944 1418.25 Q792.772 1414.69 792.772 1407.58 Q792.772 1400.45 790.944 1396.91 Q789.138 1393.35 785.504 1393.35 M785.504 1389.64 Q791.314 1389.64 794.37 1394.25 Q797.448 1398.83 797.448 1407.58 Q797.448 1416.31 794.37 1420.92 Q791.314 1425.5 785.504 1425.5 Q779.694 1425.5 776.615 1420.92 Q773.56 1416.31 773.56 1407.58 Q773.56 1398.83 776.615 1394.25 Q779.694 1389.64 785.504 1389.64 Z" fill="#000000" fill-rule="evenodd" fill-opacity="1" /><path clip-path="url(#clip330)" d="M797.448 1383.74 L821.56 1383.74 L821.56 1386.94 L797.448 1386.94 L797.448 1383.74 Z" fill="#000000" fill-rule="evenodd" fill-opacity="1" /><path clip-path="url(#clip330)" d="M830.418 1394.22 L836.625 1394.22 L836.625 1372.8 L829.873 1374.15 L829.873 1370.69 L836.587 1369.34 L840.386 1369.34 L840.386 1394.22 L846.593 1394.22 L846.593 1397.42 L830.418 1397.42 L830.418 1394.22 Z" fill="#000000" fill-rule="evenodd" fill-opacity="1" /><path clip-path="url(#clip330)" d="M857.539 1394.22 L870.799 1394.22 L870.799 1397.42 L852.969 1397.42 L852.969 1394.22 Q855.132 1391.98 858.856 1388.22 Q862.598 1384.44 863.558 1383.35 Q865.382 1381.3 866.097 1379.89 Q866.83 1378.46 866.83 1377.09 Q866.83 1374.85 865.25 1373.44 Q863.689 1372.03 861.169 1372.03 Q859.382 1372.03 857.389 1372.65 Q855.414 1373.27 853.157 1374.53 L853.157 1370.69 Q855.451 1369.77 857.445 1369.3 Q859.439 1368.83 861.094 1368.83 Q865.457 1368.83 868.053 1371.01 Q870.648 1373.19 870.648 1376.84 Q870.648 1378.57 869.99 1380.13 Q869.35 1381.68 867.639 1383.78 Q867.169 1384.33 864.648 1386.94 Q862.128 1389.54 857.539 1394.22 Z" fill="#000000" fill-rule="evenodd" fill-opacity="1" /><path clip-path="url(#clip330)" d="M1208.1 1420.89 L1215.74 1420.89 L1215.74 1394.53 L1207.43 1396.19 L1207.43 1391.94 L1215.69 1390.27 L1220.37 1390.27 L1220.37 1420.89 L1228.01 1420.89 L1228.01 1424.83 L1208.1 1424.83 L1208.1 1420.89 Z" fill="#000000" fill-rule="evenodd" fill-opacity="1" /><path clip-path="url(#clip330)" d="M1247.45 1393.35 Q1243.84 1393.35 1242.01 1396.91 Q1240.21 1400.45 1240.21 1407.58 Q1240.21 1414.69 1242.01 1418.25 Q1243.84 1421.8 1247.45 1421.8 Q1251.09 1421.8 1252.89 1418.25 Q1254.72 1414.69 1254.72 1407.58 Q1254.72 1400.45 1252.89 1396.91 Q1251.09 1393.35 1247.45 1393.35 M1247.45 1389.64 Q1253.26 1389.64 1256.32 1394.25 Q1259.4 1398.83 1259.4 1407.58 Q1259.4 1416.31 1256.32 1420.92 Q1253.26 1425.5 1247.45 1425.5 Q1241.64 1425.5 1238.56 1420.92 Q1235.51 1416.31 1235.51 1407.58 Q1235.51 1398.83 1238.56 1394.25 Q1241.64 1389.64 1247.45 1389.64 Z" fill="#000000" fill-rule="evenodd" fill-opacity="1" /><path clip-path="url(#clip330)" d="M1259.4 1383.74 L1283.51 1383.74 L1283.51 1386.94 L1259.4 1386.94 L1259.4 1383.74 Z" fill="#000000" fill-rule="evenodd" fill-opacity="1" /><path clip-path="url(#clip330)" d="M1292.37 1394.22 L1298.57 1394.22 L1298.57 1372.8 L1291.82 1374.15 L1291.82 1370.69 L1298.53 1369.34 L1302.33 1369.34 L1302.33 1394.22 L1308.54 1394.22 L1308.54 1397.42 L1292.37 1397.42 L1292.37 1394.22 Z" fill="#000000" fill-rule="evenodd" fill-opacity="1" /><path clip-path="url(#clip330)" d="M1324.34 1371.84 Q1321.41 1371.84 1319.92 1374.74 Q1318.45 1377.61 1318.45 1383.41 Q1318.45 1389.18 1319.92 1392.08 Q1321.41 1394.95 1324.34 1394.95 Q1327.29 1394.95 1328.76 1392.08 Q1330.24 1389.18 1330.24 1383.41 Q1330.24 1377.61 1328.76 1374.74 Q1327.29 1371.84 1324.34 1371.84 M1324.34 1368.83 Q1329.06 1368.83 1331.54 1372.57 Q1334.04 1376.3 1334.04 1383.41 Q1334.04 1390.5 1331.54 1394.24 Q1329.06 1397.96 1324.34 1397.96 Q1319.62 1397.96 1317.12 1394.24 Q1314.63 1390.5 1314.63 1383.41 Q1314.63 1376.3 1317.12 1372.57 Q1319.62 1368.83 1324.34 1368.83 Z" fill="#000000" fill-rule="evenodd" fill-opacity="1" /><path clip-path="url(#clip330)" d="M1682.99 1420.89 L1690.63 1420.89 L1690.63 1394.53 L1682.32 1396.19 L1682.32 1391.94 L1690.58 1390.27 L1695.26 1390.27 L1695.26 1420.89 L1702.89 1420.89 L1702.89 1424.83 L1682.99 1424.83 L1682.99 1420.89 Z" fill="#000000" fill-rule="evenodd" fill-opacity="1" /><path clip-path="url(#clip330)" d="M1722.34 1393.35 Q1718.73 1393.35 1716.9 1396.91 Q1715.09 1400.45 1715.09 1407.58 Q1715.09 1414.69 1716.9 1418.25 Q1718.73 1421.8 1722.34 1421.8 Q1725.97 1421.8 1727.78 1418.25 Q1729.61 1414.69 1729.61 1407.58 Q1729.61 1400.45 1727.78 1396.91 Q1725.97 1393.35 1722.34 1393.35 M1722.34 1389.64 Q1728.15 1389.64 1731.2 1394.25 Q1734.28 1398.83 1734.28 1407.58 Q1734.28 1416.31 1731.2 1420.92 Q1728.15 1425.5 1722.34 1425.5 Q1716.53 1425.5 1713.45 1420.92 Q1710.39 1416.31 1710.39 1407.58 Q1710.39 1398.83 1713.45 1394.25 Q1716.53 1389.64 1722.34 1389.64 Z" fill="#000000" fill-rule="evenodd" fill-opacity="1" /><path clip-path="url(#clip330)" d="M1734.28 1383.74 L1758.39 1383.74 L1758.39 1386.94 L1734.28 1386.94 L1734.28 1383.74 Z" fill="#000000" fill-rule="evenodd" fill-opacity="1" /><path clip-path="url(#clip330)" d="M1774.72 1384.08 Q1772.01 1384.08 1770.45 1385.53 Q1768.91 1386.98 1768.91 1389.52 Q1768.91 1392.06 1770.45 1393.51 Q1772.01 1394.95 1774.72 1394.95 Q1777.43 1394.95 1778.99 1393.51 Q1780.55 1392.04 1780.55 1389.52 Q1780.55 1386.98 1778.99 1385.53 Q1777.45 1384.08 1774.72 1384.08 M1770.92 1382.47 Q1768.48 1381.86 1767.1 1380.19 Q1765.75 1378.52 1765.75 1376.11 Q1765.75 1372.74 1768.14 1370.79 Q1770.54 1368.83 1774.72 1368.83 Q1778.91 1368.83 1781.3 1370.79 Q1783.69 1372.74 1783.69 1376.11 Q1783.69 1378.52 1782.32 1380.19 Q1780.96 1381.86 1778.54 1382.47 Q1781.28 1383.11 1782.81 1384.97 Q1784.35 1386.83 1784.35 1389.52 Q1784.35 1393.6 1781.85 1395.78 Q1779.37 1397.96 1774.72 1397.96 Q1770.07 1397.96 1767.57 1395.78 Q1765.09 1393.6 1765.09 1389.52 Q1765.09 1386.83 1766.63 1384.97 Q1768.17 1383.11 1770.92 1382.47 M1769.53 1376.47 Q1769.53 1378.65 1770.88 1379.87 Q1772.26 1381.09 1774.72 1381.09 Q1777.16 1381.09 1778.54 1379.87 Q1779.93 1378.65 1779.93 1376.47 Q1779.93 1374.28 1778.54 1373.06 Q1777.16 1371.84 1774.72 1371.84 Q1772.26 1371.84 1770.88 1373.06 Q1769.53 1374.28 1769.53 1376.47 Z" fill="#000000" fill-rule="evenodd" fill-opacity="1" /><path clip-path="url(#clip330)" d="M2145.48 1420.89 L2153.12 1420.89 L2153.12 1394.53 L2144.81 1396.19 L2144.81 1391.94 L2153.07 1390.27 L2157.75 1390.27 L2157.75 1420.89 L2165.39 1420.89 L2165.39 1424.83 L2145.48 1424.83 L2145.48 1420.89 Z" fill="#000000" fill-rule="evenodd" fill-opacity="1" /><path clip-path="url(#clip330)" d="M2184.83 1393.35 Q2181.22 1393.35 2179.39 1396.91 Q2177.59 1400.45 2177.59 1407.58 Q2177.59 1414.69 2179.39 1418.25 Q2181.22 1421.8 2184.83 1421.8 Q2188.47 1421.8 2190.27 1418.25 Q2192.1 1414.69 2192.1 1407.58 Q2192.1 1400.45 2190.27 1396.91 Q2188.47 1393.35 2184.83 1393.35 M2184.83 1389.64 Q2190.64 1389.64 2193.7 1394.25 Q2196.78 1398.83 2196.78 1407.58 Q2196.78 1416.31 2193.7 1420.92 Q2190.64 1425.5 2184.83 1425.5 Q2179.02 1425.5 2175.94 1420.92 Q2172.89 1416.31 2172.89 1407.58 Q2172.89 1398.83 2175.94 1394.25 Q2179.02 1389.64 2184.83 1389.64 Z" fill="#000000" fill-rule="evenodd" fill-opacity="1" /><path clip-path="url(#clip330)" d="M2196.78 1383.74 L2220.89 1383.74 L2220.89 1386.94 L2196.78 1386.94 L2196.78 1383.74 Z" fill="#000000" fill-rule="evenodd" fill-opacity="1" /><path clip-path="url(#clip330)" d="M2237.68 1381.86 Q2235.13 1381.86 2233.62 1383.61 Q2232.13 1385.36 2232.13 1388.41 Q2232.13 1391.44 2233.62 1393.21 Q2235.13 1394.95 2237.68 1394.95 Q2240.24 1394.95 2241.73 1393.21 Q2243.23 1391.44 2243.23 1388.41 Q2243.23 1385.36 2241.73 1383.61 Q2240.24 1381.86 2237.68 1381.86 M2245.22 1369.96 L2245.22 1373.42 Q2243.8 1372.74 2242.33 1372.39 Q2240.88 1372.03 2239.45 1372.03 Q2235.69 1372.03 2233.7 1374.57 Q2231.72 1377.11 2231.44 1382.24 Q2232.55 1380.6 2234.22 1379.74 Q2235.9 1378.85 2237.91 1378.85 Q2242.14 1378.85 2244.59 1381.43 Q2247.05 1383.99 2247.05 1388.41 Q2247.05 1392.74 2244.49 1395.35 Q2241.93 1397.96 2237.68 1397.96 Q2232.81 1397.96 2230.24 1394.24 Q2227.66 1390.5 2227.66 1383.41 Q2227.66 1376.75 2230.82 1372.8 Q2233.98 1368.83 2239.3 1368.83 Q2240.73 1368.83 2242.18 1369.11 Q2243.65 1369.39 2245.22 1369.96 Z" fill="#000000" fill-rule="evenodd" fill-opacity="1" /><path clip-path="url(#clip330)" d="M1177.57 1461.87 L1207.62 1461.87 L1207.62 1467.28 L1184 1467.28 L1184 1481.34 L1206.63 1481.34 L1206.63 1486.76 L1184 1486.76 L1184 1503.97 L1208.19 1503.97 L1208.19 1509.39 L1177.57 1509.39 L1177.57 1461.87 Z" fill="#000000" fill-rule="evenodd" fill-opacity="1" /><path clip-path="url(#clip330)" d="M1239.16 1479.21 Q1238.18 1478.64 1237 1478.38 Q1235.85 1478.1 1234.45 1478.1 Q1229.49 1478.1 1226.81 1481.34 Q1224.17 1484.56 1224.17 1490.61 L1224.17 1509.39 L1218.28 1509.39 L1218.28 1473.74 L1224.17 1473.74 L1224.17 1479.28 Q1226.02 1476.03 1228.98 1474.47 Q1231.94 1472.88 1236.17 1472.88 Q1236.77 1472.88 1237.51 1472.97 Q1238.24 1473.04 1239.13 1473.2 L1239.16 1479.21 Z" fill="#000000" fill-rule="evenodd" fill-opacity="1" /><path clip-path="url(#clip330)" d="M1264.82 1479.21 Q1263.83 1478.64 1262.65 1478.38 Q1261.51 1478.1 1260.11 1478.1 Q1255.14 1478.1 1252.47 1481.34 Q1249.82 1484.56 1249.82 1490.61 L1249.82 1509.39 L1243.94 1509.39 L1243.94 1473.74 L1249.82 1473.74 L1249.82 1479.28 Q1251.67 1476.03 1254.63 1474.47 Q1257.59 1472.88 1261.82 1472.88 Q1262.43 1472.88 1263.16 1472.97 Q1263.89 1473.04 1264.78 1473.2 L1264.82 1479.21 Z" fill="#000000" fill-rule="evenodd" fill-opacity="1" /><path clip-path="url(#clip330)" d="M1283.34 1477.84 Q1278.63 1477.84 1275.89 1481.54 Q1273.15 1485.2 1273.15 1491.59 Q1273.15 1497.99 1275.86 1501.68 Q1278.6 1505.34 1283.34 1505.34 Q1288.02 1505.34 1290.76 1501.65 Q1293.49 1497.96 1293.49 1491.59 Q1293.49 1485.26 1290.76 1481.57 Q1288.02 1477.84 1283.34 1477.84 M1283.34 1472.88 Q1290.98 1472.88 1295.34 1477.84 Q1299.7 1482.81 1299.7 1491.59 Q1299.7 1500.35 1295.34 1505.34 Q1290.98 1510.31 1283.34 1510.31 Q1275.67 1510.31 1271.31 1505.34 Q1266.98 1500.35 1266.98 1491.59 Q1266.98 1482.81 1271.31 1477.84 Q1275.67 1472.88 1283.34 1472.88 Z" fill="#000000" fill-rule="evenodd" fill-opacity="1" /><path clip-path="url(#clip330)" d="M1330.06 1479.21 Q1329.08 1478.64 1327.9 1478.38 Q1326.75 1478.1 1325.35 1478.1 Q1320.39 1478.1 1317.71 1481.34 Q1315.07 1484.56 1315.07 1490.61 L1315.07 1509.39 L1309.18 1509.39 L1309.18 1473.74 L1315.07 1473.74 L1315.07 1479.28 Q1316.92 1476.03 1319.88 1474.47 Q1322.84 1472.88 1327.07 1472.88 Q1327.68 1472.88 1328.41 1472.97 Q1329.14 1473.04 1330.03 1473.2 L1330.06 1479.21 Z" fill="#000000" fill-rule="evenodd" fill-opacity="1" /><polyline clip-path="url(#clip332)" style="stroke:#000000; stroke-linecap:butt; stroke-linejoin:round; stroke-width:2; stroke-opacity:0.1; fill:none" points="
  250.882,947.809 2256.76,947.809 
  "/>
<polyline clip-path="url(#clip332)" style="stroke:#000000; stroke-linecap:butt; stroke-linejoin:round; stroke-width:2; stroke-opacity:0.1; fill:none" points="
  250.882,491.122 2256.76,491.122 
  "/>
<polyline clip-path="url(#clip330)" style="stroke:#000000; stroke-linecap:butt; stroke-linejoin:round; stroke-width:4; stroke-opacity:1; fill:none" points="
  250.882,1347.54 250.882,47.2441 
  "/>
<polyline clip-path="url(#clip330)" style="stroke:#000000; stroke-linecap:butt; stroke-linejoin:round; stroke-width:4; stroke-opacity:1; fill:none" points="
  250.882,947.809 269.78,947.809 
  "/>
<polyline clip-path="url(#clip330)" style="stroke:#000000; stroke-linecap:butt; stroke-linejoin:round; stroke-width:4; stroke-opacity:1; fill:none" points="
  250.882,491.122 269.78,491.122 
  "/>
<path clip-path="url(#clip330)" d="M115.411 967.601 L123.05 967.601 L123.05 941.236 L114.74 942.902 L114.74 938.643 L123.004 936.976 L127.68 936.976 L127.68 967.601 L135.319 967.601 L135.319 971.536 L115.411 971.536 L115.411 967.601 Z" fill="#000000" fill-rule="evenodd" fill-opacity="1" /><path clip-path="url(#clip330)" d="M154.763 940.055 Q151.152 940.055 149.323 943.62 Q147.518 947.162 147.518 954.291 Q147.518 961.398 149.323 964.962 Q151.152 968.504 154.763 968.504 Q158.397 968.504 160.203 964.962 Q162.032 961.398 162.032 954.291 Q162.032 947.162 160.203 943.62 Q158.397 940.055 154.763 940.055 M154.763 936.351 Q160.573 936.351 163.629 940.958 Q166.707 945.541 166.707 954.291 Q166.707 963.018 163.629 967.624 Q160.573 972.208 154.763 972.208 Q148.953 972.208 145.874 967.624 Q142.819 963.018 142.819 954.291 Q142.819 945.541 145.874 940.958 Q148.953 936.351 154.763 936.351 Z" fill="#000000" fill-rule="evenodd" fill-opacity="1" /><path clip-path="url(#clip330)" d="M166.707 930.453 L190.819 930.453 L190.819 933.65 L166.707 933.65 L166.707 930.453 Z" fill="#000000" fill-rule="evenodd" fill-opacity="1" /><path clip-path="url(#clip330)" d="M210.53 928.986 Q213.257 929.569 214.78 931.412 Q216.322 933.255 216.322 935.963 Q216.322 940.12 213.464 942.396 Q210.605 944.671 205.339 944.671 Q203.571 944.671 201.69 944.314 Q199.828 943.976 197.834 943.28 L197.834 939.612 Q199.414 940.534 201.295 941.004 Q203.176 941.474 205.226 941.474 Q208.799 941.474 210.661 940.064 Q212.542 938.653 212.542 935.963 Q212.542 933.481 210.793 932.089 Q209.063 930.678 205.959 930.678 L202.687 930.678 L202.687 927.556 L206.11 927.556 Q208.912 927.556 210.398 926.447 Q211.884 925.318 211.884 923.212 Q211.884 921.049 210.341 919.902 Q208.818 918.736 205.959 918.736 Q204.398 918.736 202.612 919.074 Q200.825 919.413 198.681 920.127 L198.681 916.742 Q200.844 916.14 202.724 915.839 Q204.624 915.538 206.298 915.538 Q210.624 915.538 213.144 917.513 Q215.664 919.469 215.664 922.817 Q215.664 925.149 214.329 926.766 Q212.993 928.365 210.53 928.986 Z" fill="#000000" fill-rule="evenodd" fill-opacity="1" /><path clip-path="url(#clip330)" d="M116.183 510.914 L123.821 510.914 L123.821 484.549 L115.511 486.215 L115.511 481.956 L123.775 480.289 L128.451 480.289 L128.451 510.914 L136.09 510.914 L136.09 514.849 L116.183 514.849 L116.183 510.914 Z" fill="#000000" fill-rule="evenodd" fill-opacity="1" /><path clip-path="url(#clip330)" d="M155.534 483.368 Q151.923 483.368 150.094 486.933 Q148.289 490.475 148.289 497.604 Q148.289 504.711 150.094 508.275 Q151.923 511.817 155.534 511.817 Q159.168 511.817 160.974 508.275 Q162.803 504.711 162.803 497.604 Q162.803 490.475 160.974 486.933 Q159.168 483.368 155.534 483.368 M155.534 479.664 Q161.344 479.664 164.4 484.271 Q167.479 488.854 167.479 497.604 Q167.479 506.331 164.4 510.937 Q161.344 515.521 155.534 515.521 Q149.724 515.521 146.645 510.937 Q143.59 506.331 143.59 497.604 Q143.59 488.854 146.645 484.271 Q149.724 479.664 155.534 479.664 Z" fill="#000000" fill-rule="evenodd" fill-opacity="1" /><path clip-path="url(#clip330)" d="M167.479 473.766 L191.59 473.766 L191.59 476.963 L167.479 476.963 L167.479 473.766 Z" fill="#000000" fill-rule="evenodd" fill-opacity="1" /><path clip-path="url(#clip330)" d="M203.063 484.242 L216.322 484.242 L216.322 487.439 L198.493 487.439 L198.493 484.242 Q200.655 482.004 204.379 478.242 Q208.122 474.462 209.081 473.371 Q210.906 471.321 211.62 469.91 Q212.354 468.481 212.354 467.108 Q212.354 464.87 210.774 463.459 Q209.213 462.049 206.693 462.049 Q204.906 462.049 202.912 462.669 Q200.938 463.29 198.681 464.55 L198.681 460.713 Q200.975 459.792 202.969 459.321 Q204.962 458.851 206.618 458.851 Q210.981 458.851 213.576 461.033 Q216.172 463.215 216.172 466.863 Q216.172 468.594 215.514 470.155 Q214.874 471.697 213.163 473.803 Q212.692 474.349 210.172 476.963 Q207.652 479.559 203.063 484.242 Z" fill="#000000" fill-rule="evenodd" fill-opacity="1" /><path clip-path="url(#clip330)" d="M18.4042 827.219 L18.4042 787.02 L23.815 787.02 L23.815 803.889 L65.9242 803.889 L65.9242 810.35 L23.815 810.35 L23.815 827.219 L18.4042 827.219 Z" fill="#000000" fill-rule="evenodd" fill-opacity="1" /><path clip-path="url(#clip330)" d="M30.2762 783.073 L30.2762 777.216 L65.9242 777.216 L65.9242 783.073 L30.2762 783.073 M16.399 783.073 L16.399 777.216 L23.815 777.216 L23.815 783.073 L16.399 783.073 Z" fill="#000000" fill-rule="evenodd" fill-opacity="1" /><path clip-path="url(#clip330)" d="M37.1193 737.208 Q33.1726 735.012 31.2947 731.956 Q29.4168 728.901 29.4168 724.763 Q29.4168 719.193 33.3317 716.169 Q37.2148 713.145 44.4081 713.145 L65.9242 713.145 L65.9242 719.034 L44.599 719.034 Q39.4746 719.034 36.992 720.848 Q34.5094 722.662 34.5094 726.386 Q34.5094 730.938 37.5331 733.579 Q40.5568 736.221 45.7767 736.221 L65.9242 736.221 L65.9242 742.109 L44.599 742.109 Q39.4428 742.109 36.992 743.924 Q34.5094 745.738 34.5094 749.526 Q34.5094 754.013 37.5649 756.655 Q40.5886 759.297 45.7767 759.297 L65.9242 759.297 L65.9242 765.185 L30.2762 765.185 L30.2762 759.297 L35.8144 759.297 Q32.536 757.292 30.9764 754.491 Q29.4168 751.69 29.4168 747.839 Q29.4168 743.956 31.3902 741.25 Q33.3636 738.513 37.1193 737.208 Z" fill="#000000" fill-rule="evenodd" fill-opacity="1" /><path clip-path="url(#clip330)" d="M46.6361 670.973 L49.5006 670.973 L49.5006 697.9 Q55.5481 697.518 58.7309 694.271 Q61.8819 690.993 61.8819 685.168 Q61.8819 681.794 61.0544 678.643 Q60.2269 675.461 58.5718 672.341 L64.1099 672.341 Q65.4467 675.492 66.147 678.803 Q66.8472 682.113 66.8472 685.518 Q66.8472 694.048 61.8819 699.045 Q56.9167 704.011 48.4503 704.011 Q39.6974 704.011 34.5731 699.3 Q29.4168 694.558 29.4168 686.537 Q29.4168 679.344 34.0638 675.174 Q38.6789 670.973 46.6361 670.973 M44.9173 676.829 Q40.1112 676.893 37.2466 679.535 Q34.3821 682.145 34.3821 686.473 Q34.3821 691.375 37.1512 694.335 Q39.9202 697.263 44.9492 697.709 L44.9173 676.829 Z" fill="#000000" fill-rule="evenodd" fill-opacity="1" /><path clip-path="url(#clip330)" d="M16.4626 626.572 Q23.7832 630.837 30.9446 632.906 Q38.106 634.975 45.4584 634.975 Q52.8108 634.975 60.0359 632.906 Q67.2291 630.805 74.5179 626.572 L74.5179 631.664 Q67.0382 636.439 59.8131 638.826 Q52.588 641.181 45.4584 641.181 Q38.3606 641.181 31.1674 638.826 Q23.9742 636.471 16.4626 631.664 L16.4626 626.572 Z" fill="#000000" fill-rule="evenodd" fill-opacity="1" /><path clip-path="url(#clip330)" d="M31.3265 592.484 L36.8647 592.484 Q35.5916 594.966 34.955 597.64 Q34.3184 600.313 34.3184 603.178 Q34.3184 607.538 35.6552 609.735 Q36.992 611.899 39.6656 611.899 Q41.7026 611.899 42.8803 610.339 Q44.0261 608.78 45.0765 604.069 L45.5221 602.064 Q46.8589 595.826 49.3097 593.216 Q51.7286 590.574 56.0891 590.574 Q61.0544 590.574 63.9508 594.521 Q66.8472 598.435 66.8472 605.31 Q66.8472 608.175 66.2743 611.294 Q65.7332 614.382 64.6192 617.819 L58.5718 617.819 Q60.2587 614.573 61.118 611.422 Q61.9456 608.27 61.9456 605.183 Q61.9456 601.045 60.5451 598.817 Q59.1129 596.589 56.5347 596.589 Q54.1476 596.589 52.8745 598.213 Q51.6013 599.804 50.4237 605.247 L49.9462 607.284 Q48.8004 612.726 46.4451 615.145 Q44.058 617.564 39.9202 617.564 Q34.8913 617.564 32.1541 614 Q29.4168 610.435 29.4168 603.878 Q29.4168 600.632 29.8943 597.767 Q30.3717 594.902 31.3265 592.484 Z" fill="#000000" fill-rule="evenodd" fill-opacity="1" /><path clip-path="url(#clip330)" d="M16.4626 582.171 L16.4626 577.079 Q23.9742 572.304 31.1674 569.949 Q38.3606 567.562 45.4584 567.562 Q52.588 567.562 59.8131 569.949 Q67.0382 572.304 74.5179 577.079 L74.5179 582.171 Q67.2291 577.938 60.0359 575.869 Q52.8108 573.768 45.4584 573.768 Q38.106 573.768 30.9446 575.869 Q23.7832 577.938 16.4626 582.171 Z" fill="#000000" fill-rule="evenodd" fill-opacity="1" /><polyline clip-path="url(#clip332)" style="stroke:#009af9; stroke-linecap:butt; stroke-linejoin:round; stroke-width:12; stroke-opacity:1; fill:none" points="
  1988.95,1310.74 1662.74,1237.7 1276.76,1148.31 1125.16,1056.19 963.604,934.996 644.998,763.617 367.603,602.618 
  "/>
<line clip-path="url(#clip332)" x1="1988.95" y1="1310.74" x2="1988.95" y2="1294.74" style="stroke:#009af9; stroke-width:3.072; stroke-opacity:1"/>
<line clip-path="url(#clip332)" x1="1988.95" y1="1310.74" x2="1972.95" y2="1310.74" style="stroke:#009af9; stroke-width:3.072; stroke-opacity:1"/>
<line clip-path="url(#clip332)" x1="1988.95" y1="1310.74" x2="1988.95" y2="1326.74" style="stroke:#009af9; stroke-width:3.072; stroke-opacity:1"/>
<line clip-path="url(#clip332)" x1="1988.95" y1="1310.74" x2="2004.95" y2="1310.74" style="stroke:#009af9; stroke-width:3.072; stroke-opacity:1"/>
<line clip-path="url(#clip332)" x1="1662.74" y1="1237.7" x2="1662.74" y2="1221.7" style="stroke:#009af9; stroke-width:3.072; stroke-opacity:1"/>
<line clip-path="url(#clip332)" x1="1662.74" y1="1237.7" x2="1646.74" y2="1237.7" style="stroke:#009af9; stroke-width:3.072; stroke-opacity:1"/>
<line clip-path="url(#clip332)" x1="1662.74" y1="1237.7" x2="1662.74" y2="1253.7" style="stroke:#009af9; stroke-width:3.072; stroke-opacity:1"/>
<line clip-path="url(#clip332)" x1="1662.74" y1="1237.7" x2="1678.74" y2="1237.7" style="stroke:#009af9; stroke-width:3.072; stroke-opacity:1"/>
<line clip-path="url(#clip332)" x1="1276.76" y1="1148.31" x2="1276.76" y2="1132.31" style="stroke:#009af9; stroke-width:3.072; stroke-opacity:1"/>
<line clip-path="url(#clip332)" x1="1276.76" y1="1148.31" x2="1260.76" y2="1148.31" style="stroke:#009af9; stroke-width:3.072; stroke-opacity:1"/>
<line clip-path="url(#clip332)" x1="1276.76" y1="1148.31" x2="1276.76" y2="1164.31" style="stroke:#009af9; stroke-width:3.072; stroke-opacity:1"/>
<line clip-path="url(#clip332)" x1="1276.76" y1="1148.31" x2="1292.76" y2="1148.31" style="stroke:#009af9; stroke-width:3.072; stroke-opacity:1"/>
<line clip-path="url(#clip332)" x1="1125.16" y1="1056.19" x2="1125.16" y2="1040.19" style="stroke:#009af9; stroke-width:3.072; stroke-opacity:1"/>
<line clip-path="url(#clip332)" x1="1125.16" y1="1056.19" x2="1109.16" y2="1056.19" style="stroke:#009af9; stroke-width:3.072; stroke-opacity:1"/>
<line clip-path="url(#clip332)" x1="1125.16" y1="1056.19" x2="1125.16" y2="1072.19" style="stroke:#009af9; stroke-width:3.072; stroke-opacity:1"/>
<line clip-path="url(#clip332)" x1="1125.16" y1="1056.19" x2="1141.16" y2="1056.19" style="stroke:#009af9; stroke-width:3.072; stroke-opacity:1"/>
<line clip-path="url(#clip332)" x1="963.604" y1="934.996" x2="963.604" y2="918.996" style="stroke:#009af9; stroke-width:3.072; stroke-opacity:1"/>
<line clip-path="url(#clip332)" x1="963.604" y1="934.996" x2="947.604" y2="934.996" style="stroke:#009af9; stroke-width:3.072; stroke-opacity:1"/>
<line clip-path="url(#clip332)" x1="963.604" y1="934.996" x2="963.604" y2="950.996" style="stroke:#009af9; stroke-width:3.072; stroke-opacity:1"/>
<line clip-path="url(#clip332)" x1="963.604" y1="934.996" x2="979.604" y2="934.996" style="stroke:#009af9; stroke-width:3.072; stroke-opacity:1"/>
<line clip-path="url(#clip332)" x1="644.998" y1="763.617" x2="644.998" y2="747.617" style="stroke:#009af9; stroke-width:3.072; stroke-opacity:1"/>
<line clip-path="url(#clip332)" x1="644.998" y1="763.617" x2="628.998" y2="763.617" style="stroke:#009af9; stroke-width:3.072; stroke-opacity:1"/>
<line clip-path="url(#clip332)" x1="644.998" y1="763.617" x2="644.998" y2="779.617" style="stroke:#009af9; stroke-width:3.072; stroke-opacity:1"/>
<line clip-path="url(#clip332)" x1="644.998" y1="763.617" x2="660.998" y2="763.617" style="stroke:#009af9; stroke-width:3.072; stroke-opacity:1"/>
<line clip-path="url(#clip332)" x1="367.603" y1="602.618" x2="367.603" y2="586.618" style="stroke:#009af9; stroke-width:3.072; stroke-opacity:1"/>
<line clip-path="url(#clip332)" x1="367.603" y1="602.618" x2="351.603" y2="602.618" style="stroke:#009af9; stroke-width:3.072; stroke-opacity:1"/>
<line clip-path="url(#clip332)" x1="367.603" y1="602.618" x2="367.603" y2="618.618" style="stroke:#009af9; stroke-width:3.072; stroke-opacity:1"/>
<line clip-path="url(#clip332)" x1="367.603" y1="602.618" x2="383.603" y2="602.618" style="stroke:#009af9; stroke-width:3.072; stroke-opacity:1"/>
<polyline clip-path="url(#clip332)" style="stroke:#e26f46; stroke-linecap:butt; stroke-linejoin:round; stroke-width:12; stroke-opacity:1; fill:none" points="
  1915.8,1103.84 2000.15,1059.8 1828.83,1005.97 1495.07,933.919 1378.69,849.453 1297.61,773.613 1000.87,686.039 
  "/>
<circle clip-path="url(#clip332)" cx="1915.8" cy="1103.84" r="14" fill="#e26f46" fill-rule="evenodd" fill-opacity="1" stroke="#000000" stroke-opacity="1" stroke-width="3.072"/>
<circle clip-path="url(#clip332)" cx="2000.15" cy="1059.8" r="14" fill="#e26f46" fill-rule="evenodd" fill-opacity="1" stroke="#000000" stroke-opacity="1" stroke-width="3.072"/>
<circle clip-path="url(#clip332)" cx="1828.83" cy="1005.97" r="14" fill="#e26f46" fill-rule="evenodd" fill-opacity="1" stroke="#000000" stroke-opacity="1" stroke-width="3.072"/>
<circle clip-path="url(#clip332)" cx="1495.07" cy="933.919" r="14" fill="#e26f46" fill-rule="evenodd" fill-opacity="1" stroke="#000000" stroke-opacity="1" stroke-width="3.072"/>
<circle clip-path="url(#clip332)" cx="1378.69" cy="849.453" r="14" fill="#e26f46" fill-rule="evenodd" fill-opacity="1" stroke="#000000" stroke-opacity="1" stroke-width="3.072"/>
<circle clip-path="url(#clip332)" cx="1297.61" cy="773.613" r="14" fill="#e26f46" fill-rule="evenodd" fill-opacity="1" stroke="#000000" stroke-opacity="1" stroke-width="3.072"/>
<circle clip-path="url(#clip332)" cx="1000.87" cy="686.039" r="14" fill="#e26f46" fill-rule="evenodd" fill-opacity="1" stroke="#000000" stroke-opacity="1" stroke-width="3.072"/>
<polyline clip-path="url(#clip332)" style="stroke:#3da44d; stroke-linecap:butt; stroke-linejoin:round; stroke-width:12; stroke-opacity:1; fill:none" points="
  2072.12,1165.54 1920.24,1113.92 1831.4,1029.77 1623.74,943.826 1396.8,854.708 1140.79,767.486 912.532,672.96 
  "/>
<line clip-path="url(#clip332)" x1="2072.12" y1="1165.54" x2="2072.12" y2="1149.54" style="stroke:#3da44d; stroke-width:3.072; stroke-opacity:1"/>
<line clip-path="url(#clip332)" x1="2072.12" y1="1165.54" x2="2056.12" y2="1165.54" style="stroke:#3da44d; stroke-width:3.072; stroke-opacity:1"/>
<line clip-path="url(#clip332)" x1="2072.12" y1="1165.54" x2="2072.12" y2="1181.54" style="stroke:#3da44d; stroke-width:3.072; stroke-opacity:1"/>
<line clip-path="url(#clip332)" x1="2072.12" y1="1165.54" x2="2088.12" y2="1165.54" style="stroke:#3da44d; stroke-width:3.072; stroke-opacity:1"/>
<line clip-path="url(#clip332)" x1="1920.24" y1="1113.92" x2="1920.24" y2="1097.92" style="stroke:#3da44d; stroke-width:3.072; stroke-opacity:1"/>
<line clip-path="url(#clip332)" x1="1920.24" y1="1113.92" x2="1904.24" y2="1113.92" style="stroke:#3da44d; stroke-width:3.072; stroke-opacity:1"/>
<line clip-path="url(#clip332)" x1="1920.24" y1="1113.92" x2="1920.24" y2="1129.92" style="stroke:#3da44d; stroke-width:3.072; stroke-opacity:1"/>
<line clip-path="url(#clip332)" x1="1920.24" y1="1113.92" x2="1936.24" y2="1113.92" style="stroke:#3da44d; stroke-width:3.072; stroke-opacity:1"/>
<line clip-path="url(#clip332)" x1="1831.4" y1="1029.77" x2="1831.4" y2="1013.77" style="stroke:#3da44d; stroke-width:3.072; stroke-opacity:1"/>
<line clip-path="url(#clip332)" x1="1831.4" y1="1029.77" x2="1815.4" y2="1029.77" style="stroke:#3da44d; stroke-width:3.072; stroke-opacity:1"/>
<line clip-path="url(#clip332)" x1="1831.4" y1="1029.77" x2="1831.4" y2="1045.77" style="stroke:#3da44d; stroke-width:3.072; stroke-opacity:1"/>
<line clip-path="url(#clip332)" x1="1831.4" y1="1029.77" x2="1847.4" y2="1029.77" style="stroke:#3da44d; stroke-width:3.072; stroke-opacity:1"/>
<line clip-path="url(#clip332)" x1="1623.74" y1="943.826" x2="1623.74" y2="927.826" style="stroke:#3da44d; stroke-width:3.072; stroke-opacity:1"/>
<line clip-path="url(#clip332)" x1="1623.74" y1="943.826" x2="1607.74" y2="943.826" style="stroke:#3da44d; stroke-width:3.072; stroke-opacity:1"/>
<line clip-path="url(#clip332)" x1="1623.74" y1="943.826" x2="1623.74" y2="959.826" style="stroke:#3da44d; stroke-width:3.072; stroke-opacity:1"/>
<line clip-path="url(#clip332)" x1="1623.74" y1="943.826" x2="1639.74" y2="943.826" style="stroke:#3da44d; stroke-width:3.072; stroke-opacity:1"/>
<line clip-path="url(#clip332)" x1="1396.8" y1="854.708" x2="1396.8" y2="838.708" style="stroke:#3da44d; stroke-width:3.072; stroke-opacity:1"/>
<line clip-path="url(#clip332)" x1="1396.8" y1="854.708" x2="1380.8" y2="854.708" style="stroke:#3da44d; stroke-width:3.072; stroke-opacity:1"/>
<line clip-path="url(#clip332)" x1="1396.8" y1="854.708" x2="1396.8" y2="870.708" style="stroke:#3da44d; stroke-width:3.072; stroke-opacity:1"/>
<line clip-path="url(#clip332)" x1="1396.8" y1="854.708" x2="1412.8" y2="854.708" style="stroke:#3da44d; stroke-width:3.072; stroke-opacity:1"/>
<line clip-path="url(#clip332)" x1="1140.79" y1="767.486" x2="1140.79" y2="751.486" style="stroke:#3da44d; stroke-width:3.072; stroke-opacity:1"/>
<line clip-path="url(#clip332)" x1="1140.79" y1="767.486" x2="1124.79" y2="767.486" style="stroke:#3da44d; stroke-width:3.072; stroke-opacity:1"/>
<line clip-path="url(#clip332)" x1="1140.79" y1="767.486" x2="1140.79" y2="783.486" style="stroke:#3da44d; stroke-width:3.072; stroke-opacity:1"/>
<line clip-path="url(#clip332)" x1="1140.79" y1="767.486" x2="1156.79" y2="767.486" style="stroke:#3da44d; stroke-width:3.072; stroke-opacity:1"/>
<line clip-path="url(#clip332)" x1="912.532" y1="672.96" x2="912.532" y2="656.96" style="stroke:#3da44d; stroke-width:3.072; stroke-opacity:1"/>
<line clip-path="url(#clip332)" x1="912.532" y1="672.96" x2="896.532" y2="672.96" style="stroke:#3da44d; stroke-width:3.072; stroke-opacity:1"/>
<line clip-path="url(#clip332)" x1="912.532" y1="672.96" x2="912.532" y2="688.96" style="stroke:#3da44d; stroke-width:3.072; stroke-opacity:1"/>
<line clip-path="url(#clip332)" x1="912.532" y1="672.96" x2="928.532" y2="672.96" style="stroke:#3da44d; stroke-width:3.072; stroke-opacity:1"/>
<polyline clip-path="url(#clip332)" style="stroke:#c271d2; stroke-linecap:butt; stroke-linejoin:round; stroke-width:12; stroke-opacity:1; fill:none" points="
  2199.99,1182.88 2016.07,1090.02 1832.94,998.979 1660.72,899.282 1488.56,792.478 1337.55,684.698 1154.33,579.505 
  "/>
<path clip-path="url(#clip332)" d="M2199.99 1166.88 L2183.99 1182.88 L2199.99 1198.88 L2215.99 1182.88 L2199.99 1166.88 Z" fill="#c271d2" fill-rule="evenodd" fill-opacity="1" stroke="#000000" stroke-opacity="1" stroke-width="3.072"/>
<path clip-path="url(#clip332)" d="M2016.07 1074.02 L2000.07 1090.02 L2016.07 1106.02 L2032.07 1090.02 L2016.07 1074.02 Z" fill="#c271d2" fill-rule="evenodd" fill-opacity="1" stroke="#000000" stroke-opacity="1" stroke-width="3.072"/>
<path clip-path="url(#clip332)" d="M1832.94 982.979 L1816.94 998.979 L1832.94 1014.98 L1848.94 998.979 L1832.94 982.979 Z" fill="#c271d2" fill-rule="evenodd" fill-opacity="1" stroke="#000000" stroke-opacity="1" stroke-width="3.072"/>
<path clip-path="url(#clip332)" d="M1660.72 883.282 L1644.72 899.282 L1660.72 915.282 L1676.72 899.282 L1660.72 883.282 Z" fill="#c271d2" fill-rule="evenodd" fill-opacity="1" stroke="#000000" stroke-opacity="1" stroke-width="3.072"/>
<path clip-path="url(#clip332)" d="M1488.56 776.478 L1472.56 792.478 L1488.56 808.478 L1504.56 792.478 L1488.56 776.478 Z" fill="#c271d2" fill-rule="evenodd" fill-opacity="1" stroke="#000000" stroke-opacity="1" stroke-width="3.072"/>
<path clip-path="url(#clip332)" d="M1337.55 668.698 L1321.55 684.698 L1337.55 700.698 L1353.55 684.698 L1337.55 668.698 Z" fill="#c271d2" fill-rule="evenodd" fill-opacity="1" stroke="#000000" stroke-opacity="1" stroke-width="3.072"/>
<path clip-path="url(#clip332)" d="M1154.33 563.505 L1138.33 579.505 L1154.33 595.505 L1170.33 579.505 L1154.33 563.505 Z" fill="#c271d2" fill-rule="evenodd" fill-opacity="1" stroke="#000000" stroke-opacity="1" stroke-width="3.072"/>
<polyline clip-path="url(#clip332)" style="stroke:#ac8d18; stroke-linecap:butt; stroke-linejoin:round; stroke-width:12; stroke-opacity:1; fill:none" points="
  1843.16,752.033 1570.96,694.44 1193.81,595.094 1265.75,521.461 916.099,463.851 659.66,403.038 307.652,298.373 
  "/>
<path clip-path="url(#clip332)" d="M1859.16 736.033 L1827.16 736.033 L1843.16 768.033 L1859.16 736.033 Z" fill="#ac8d18" fill-rule="evenodd" fill-opacity="1" stroke="#000000" stroke-opacity="1" stroke-width="3.072"/>
<path clip-path="url(#clip332)" d="M1586.96 678.44 L1554.96 678.44 L1570.96 710.44 L1586.96 678.44 Z" fill="#ac8d18" fill-rule="evenodd" fill-opacity="1" stroke="#000000" stroke-opacity="1" stroke-width="3.072"/>
<path clip-path="url(#clip332)" d="M1209.81 579.094 L1177.81 579.094 L1193.81 611.094 L1209.81 579.094 Z" fill="#ac8d18" fill-rule="evenodd" fill-opacity="1" stroke="#000000" stroke-opacity="1" stroke-width="3.072"/>
<path clip-path="url(#clip332)" d="M1281.75 505.461 L1249.75 505.461 L1265.75 537.461 L1281.75 505.461 Z" fill="#ac8d18" fill-rule="evenodd" fill-opacity="1" stroke="#000000" stroke-opacity="1" stroke-width="3.072"/>
<path clip-path="url(#clip332)" d="M932.099 447.851 L900.099 447.851 L916.099 479.851 L932.099 447.851 Z" fill="#ac8d18" fill-rule="evenodd" fill-opacity="1" stroke="#000000" stroke-opacity="1" stroke-width="3.072"/>
<path clip-path="url(#clip332)" d="M675.66 387.038 L643.66 387.038 L659.66 419.038 L675.66 387.038 Z" fill="#ac8d18" fill-rule="evenodd" fill-opacity="1" stroke="#000000" stroke-opacity="1" stroke-width="3.072"/>
<path clip-path="url(#clip332)" d="M323.652 282.373 L291.652 282.373 L307.652 314.373 L323.652 282.373 Z" fill="#ac8d18" fill-rule="evenodd" fill-opacity="1" stroke="#000000" stroke-opacity="1" stroke-width="3.072"/>
<polyline clip-path="url(#clip332)" style="stroke:#00a9ad; stroke-linecap:butt; stroke-linejoin:round; stroke-width:12; stroke-opacity:1; fill:none" points="
  1788.19,635.116 1609.16,545.258 1389.36,489.344 1206.43,397.823 1046.23,312.003 588.687,189.696 346.45,84.0448 
  "/>
<path clip-path="url(#clip332)" d="M1788.19 619.116 L1775.67 625.148 L1772.59 638.684 L1781.24 649.532 L1795.13 649.532 L1803.79 638.684 L1800.7 625.148 Z" fill="#00a9ad" fill-rule="evenodd" fill-opacity="1" stroke="#000000" stroke-opacity="1" stroke-width="3.072"/>
<path clip-path="url(#clip332)" d="M1609.16 529.258 L1596.65 535.29 L1593.56 548.826 L1602.22 559.674 L1616.1 559.674 L1624.76 548.826 L1621.67 535.29 Z" fill="#00a9ad" fill-rule="evenodd" fill-opacity="1" stroke="#000000" stroke-opacity="1" stroke-width="3.072"/>
<path clip-path="url(#clip332)" d="M1389.36 473.344 L1376.85 479.376 L1373.76 492.912 L1382.42 503.76 L1396.31 503.76 L1404.96 492.912 L1401.87 479.376 Z" fill="#00a9ad" fill-rule="evenodd" fill-opacity="1" stroke="#000000" stroke-opacity="1" stroke-width="3.072"/>
<path clip-path="url(#clip332)" d="M1206.43 381.823 L1193.92 387.855 L1190.83 401.391 L1199.49 412.239 L1213.38 412.239 L1222.03 401.391 L1218.95 387.855 Z" fill="#00a9ad" fill-rule="evenodd" fill-opacity="1" stroke="#000000" stroke-opacity="1" stroke-width="3.072"/>
<path clip-path="url(#clip332)" d="M1046.23 296.003 L1033.72 302.035 L1030.63 315.571 L1039.29 326.419 L1053.18 326.419 L1061.83 315.571 L1058.75 302.035 Z" fill="#00a9ad" fill-rule="evenodd" fill-opacity="1" stroke="#000000" stroke-opacity="1" stroke-width="3.072"/>
<path clip-path="url(#clip332)" d="M588.687 173.696 L576.175 179.728 L573.087 193.264 L581.743 204.112 L595.631 204.112 L604.287 193.264 L601.199 179.728 Z" fill="#00a9ad" fill-rule="evenodd" fill-opacity="1" stroke="#000000" stroke-opacity="1" stroke-width="3.072"/>
<path clip-path="url(#clip332)" d="M346.45 68.0448 L333.938 74.0768 L330.85 87.6128 L339.506 98.4608 L353.394 98.4608 L362.05 87.6128 L358.962 74.0768 Z" fill="#00a9ad" fill-rule="evenodd" fill-opacity="1" stroke="#000000" stroke-opacity="1" stroke-width="3.072"/>
<polyline clip-path="url(#clip332)" style="stroke:#ed5d92; stroke-linecap:butt; stroke-linejoin:round; stroke-width:12; stroke-opacity:1; fill:none" points="
  1805.08,890.777 1665.79,840.267 1486.62,732.701 1267.47,626.575 1212.34,482.576 1001.55,350.874 782.393,231.137 
  "/>
<path clip-path="url(#clip332)" d="M1805.08 906.777 L1791.23 898.777 L1791.23 882.777 L1805.08 874.777 L1818.94 882.777 L1818.94 898.777 Z" fill="#ed5d92" fill-rule="evenodd" fill-opacity="1" stroke="#000000" stroke-opacity="1" stroke-width="3.072"/>
<path clip-path="url(#clip332)" d="M1665.79 856.267 L1651.93 848.267 L1651.93 832.267 L1665.79 824.267 L1679.64 832.267 L1679.64 848.267 Z" fill="#ed5d92" fill-rule="evenodd" fill-opacity="1" stroke="#000000" stroke-opacity="1" stroke-width="3.072"/>
<path clip-path="url(#clip332)" d="M1486.62 748.701 L1472.76 740.701 L1472.76 724.701 L1486.62 716.701 L1500.48 724.701 L1500.48 740.701 Z" fill="#ed5d92" fill-rule="evenodd" fill-opacity="1" stroke="#000000" stroke-opacity="1" stroke-width="3.072"/>
<path clip-path="url(#clip332)" d="M1267.47 642.575 L1253.62 634.575 L1253.62 618.575 L1267.47 610.575 L1281.33 618.575 L1281.33 634.575 Z" fill="#ed5d92" fill-rule="evenodd" fill-opacity="1" stroke="#000000" stroke-opacity="1" stroke-width="3.072"/>
<path clip-path="url(#clip332)" d="M1212.34 498.576 L1198.48 490.576 L1198.48 474.576 L1212.34 466.576 L1226.19 474.576 L1226.19 490.576 Z" fill="#ed5d92" fill-rule="evenodd" fill-opacity="1" stroke="#000000" stroke-opacity="1" stroke-width="3.072"/>
<path clip-path="url(#clip332)" d="M1001.55 366.874 L987.699 358.874 L987.699 342.874 L1001.55 334.874 L1015.41 342.874 L1015.41 358.874 Z" fill="#ed5d92" fill-rule="evenodd" fill-opacity="1" stroke="#000000" stroke-opacity="1" stroke-width="3.072"/>
<path clip-path="url(#clip332)" d="M782.393 247.137 L768.537 239.137 L768.537 223.137 L782.393 215.137 L796.249 223.137 L796.249 239.137 Z" fill="#ed5d92" fill-rule="evenodd" fill-opacity="1" stroke="#000000" stroke-opacity="1" stroke-width="3.072"/>
<path clip-path="url(#clip330)" d="
M1640.35 505.307 L2189.89 505.307 L2189.89 90.5872 L1640.35 90.5872  Z
  " fill="#ffffff" fill-rule="evenodd" fill-opacity="1"/>
<polyline clip-path="url(#clip330)" style="stroke:#000000; stroke-linecap:butt; stroke-linejoin:round; stroke-width:4; stroke-opacity:1; fill:none" points="
  1640.35,505.307 2189.89,505.307 2189.89,90.5872 1640.35,90.5872 1640.35,505.307 
  "/>
<polyline clip-path="url(#clip330)" style="stroke:#009af9; stroke-linecap:butt; stroke-linejoin:round; stroke-width:4; stroke-opacity:1; fill:none" points="
  1662.64,142.427 1796.37,142.427 
  "/>
<line clip-path="url(#clip330)" x1="1729.5" y1="142.427" x2="1729.5" y2="116.827" style="stroke:#009af9; stroke-width:4.9152; stroke-opacity:1"/>
<line clip-path="url(#clip330)" x1="1729.5" y1="142.427" x2="1703.9" y2="142.427" style="stroke:#009af9; stroke-width:4.9152; stroke-opacity:1"/>
<line clip-path="url(#clip330)" x1="1729.5" y1="142.427" x2="1729.5" y2="168.027" style="stroke:#009af9; stroke-width:4.9152; stroke-opacity:1"/>
<line clip-path="url(#clip330)" x1="1729.5" y1="142.427" x2="1755.1" y2="142.427" style="stroke:#009af9; stroke-width:4.9152; stroke-opacity:1"/>
<path clip-path="url(#clip330)" d="M1835.04 143.504 Q1836.55 144.013 1837.96 145.679 Q1839.39 147.346 1840.83 150.263 L1845.57 159.707 L1840.55 159.707 L1836.13 150.841 Q1834.42 147.369 1832.8 146.235 Q1831.2 145.101 1828.42 145.101 L1823.33 145.101 L1823.33 159.707 L1818.65 159.707 L1818.65 125.147 L1829.21 125.147 Q1835.13 125.147 1838.05 127.624 Q1840.97 130.101 1840.97 135.101 Q1840.97 138.365 1839.44 140.517 Q1837.94 142.67 1835.04 143.504 M1823.33 128.99 L1823.33 141.258 L1829.21 141.258 Q1832.59 141.258 1834.3 139.707 Q1836.04 138.133 1836.04 135.101 Q1836.04 132.068 1834.3 130.541 Q1832.59 128.99 1829.21 128.99 L1823.33 128.99 Z" fill="#000000" fill-rule="evenodd" fill-opacity="1" /><path clip-path="url(#clip330)" d="M1859.32 136.767 Q1855.9 136.767 1853.91 139.453 Q1851.92 142.115 1851.92 146.767 Q1851.92 151.42 1853.88 154.105 Q1855.88 156.767 1859.32 156.767 Q1862.73 156.767 1864.72 154.082 Q1866.71 151.397 1866.71 146.767 Q1866.71 142.161 1864.72 139.476 Q1862.73 136.767 1859.32 136.767 M1859.32 133.156 Q1864.88 133.156 1868.05 136.767 Q1871.22 140.379 1871.22 146.767 Q1871.22 153.133 1868.05 156.767 Q1864.88 160.378 1859.32 160.378 Q1853.75 160.378 1850.57 156.767 Q1847.43 153.133 1847.43 146.767 Q1847.43 140.379 1850.57 136.767 Q1853.75 133.156 1859.32 133.156 Z" fill="#000000" fill-rule="evenodd" fill-opacity="1" /><path clip-path="url(#clip330)" d="M1894.81 134.545 L1894.81 138.573 Q1893.01 137.647 1891.06 137.184 Q1889.12 136.721 1887.03 136.721 Q1883.86 136.721 1882.26 137.693 Q1880.69 138.666 1880.69 140.61 Q1880.69 142.092 1881.82 142.948 Q1882.96 143.781 1886.38 144.545 L1887.84 144.869 Q1892.38 145.842 1894.28 147.624 Q1896.2 149.383 1896.2 152.554 Q1896.2 156.166 1893.33 158.272 Q1890.48 160.378 1885.48 160.378 Q1883.4 160.378 1881.13 159.962 Q1878.88 159.568 1876.38 158.758 L1876.38 154.36 Q1878.75 155.587 1881.04 156.212 Q1883.33 156.814 1885.57 156.814 Q1888.58 156.814 1890.2 155.795 Q1891.82 154.754 1891.82 152.879 Q1891.82 151.142 1890.64 150.216 Q1889.49 149.291 1885.53 148.434 L1884.05 148.087 Q1880.09 147.254 1878.33 145.541 Q1876.57 143.804 1876.57 140.795 Q1876.57 137.138 1879.16 135.147 Q1881.76 133.156 1886.52 133.156 Q1888.88 133.156 1890.97 133.504 Q1893.05 133.851 1894.81 134.545 Z" fill="#000000" fill-rule="evenodd" fill-opacity="1" /><path clip-path="url(#clip330)" d="M1925.16 145.679 L1925.16 147.763 L1905.57 147.763 Q1905.85 152.161 1908.21 154.476 Q1910.6 156.767 1914.83 156.767 Q1917.29 156.767 1919.58 156.166 Q1921.89 155.564 1924.16 154.36 L1924.16 158.388 Q1921.87 159.36 1919.46 159.869 Q1917.06 160.378 1914.58 160.378 Q1908.38 160.378 1904.74 156.767 Q1901.13 153.156 1901.13 146.999 Q1901.13 140.633 1904.56 136.906 Q1908 133.156 1913.84 133.156 Q1919.07 133.156 1922.1 136.536 Q1925.16 139.892 1925.16 145.679 M1920.9 144.429 Q1920.85 140.934 1918.93 138.851 Q1917.03 136.767 1913.88 136.767 Q1910.32 136.767 1908.17 138.781 Q1906.04 140.795 1905.71 144.453 L1920.9 144.429 Z" fill="#000000" fill-rule="evenodd" fill-opacity="1" /><path clip-path="url(#clip330)" d="M1953.7 144.059 L1953.7 159.707 L1949.44 159.707 L1949.44 144.198 Q1949.44 140.517 1948 138.689 Q1946.57 136.86 1943.7 136.86 Q1940.25 136.86 1938.26 139.059 Q1936.27 141.258 1936.27 145.054 L1936.27 159.707 L1931.99 159.707 L1931.99 133.781 L1936.27 133.781 L1936.27 137.809 Q1937.8 135.471 1939.86 134.314 Q1941.94 133.156 1944.65 133.156 Q1949.12 133.156 1951.41 135.934 Q1953.7 138.689 1953.7 144.059 Z" fill="#000000" fill-rule="evenodd" fill-opacity="1" /><path clip-path="url(#clip330)" d="M1980.81 146.767 Q1980.81 142.068 1978.86 139.406 Q1976.94 136.721 1973.56 136.721 Q1970.18 136.721 1968.24 139.406 Q1966.31 142.068 1966.31 146.767 Q1966.31 151.466 1968.24 154.152 Q1970.18 156.814 1973.56 156.814 Q1976.94 156.814 1978.86 154.152 Q1980.81 151.466 1980.81 146.767 M1966.31 137.717 Q1967.66 135.402 1969.69 134.291 Q1971.75 133.156 1974.6 133.156 Q1979.32 133.156 1982.26 136.906 Q1985.23 140.656 1985.23 146.767 Q1985.23 152.879 1982.26 156.628 Q1979.32 160.378 1974.6 160.378 Q1971.75 160.378 1969.69 159.267 Q1967.66 158.133 1966.31 155.818 L1966.31 159.707 L1962.03 159.707 L1962.03 123.689 L1966.31 123.689 L1966.31 137.717 Z" fill="#000000" fill-rule="evenodd" fill-opacity="1" /><path clip-path="url(#clip330)" d="M2007.31 137.763 Q2006.59 137.346 2005.74 137.161 Q2004.9 136.953 2003.88 136.953 Q2000.27 136.953 1998.33 139.314 Q1996.41 141.652 1996.41 146.05 L1996.41 159.707 L1992.12 159.707 L1992.12 133.781 L1996.41 133.781 L1996.41 137.809 Q1997.75 135.448 1999.9 134.314 Q2002.06 133.156 2005.13 133.156 Q2005.57 133.156 2006.11 133.226 Q2006.64 133.272 2007.29 133.388 L2007.31 137.763 Z" fill="#000000" fill-rule="evenodd" fill-opacity="1" /><path clip-path="url(#clip330)" d="M2020.78 136.767 Q2017.36 136.767 2015.37 139.453 Q2013.37 142.115 2013.37 146.767 Q2013.37 151.42 2015.34 154.105 Q2017.33 156.767 2020.78 156.767 Q2024.18 156.767 2026.18 154.082 Q2028.17 151.397 2028.17 146.767 Q2028.17 142.161 2026.18 139.476 Q2024.18 136.767 2020.78 136.767 M2020.78 133.156 Q2026.34 133.156 2029.51 136.767 Q2032.68 140.379 2032.68 146.767 Q2032.68 153.133 2029.51 156.767 Q2026.34 160.378 2020.78 160.378 Q2015.2 160.378 2012.03 156.767 Q2008.88 153.133 2008.88 146.767 Q2008.88 140.379 2012.03 136.767 Q2015.2 133.156 2020.78 133.156 Z" fill="#000000" fill-rule="evenodd" fill-opacity="1" /><path clip-path="url(#clip330)" d="M2058.4 134.777 L2058.4 138.758 Q2056.59 137.763 2054.76 137.277 Q2052.96 136.767 2051.11 136.767 Q2046.96 136.767 2044.67 139.406 Q2042.38 142.022 2042.38 146.767 Q2042.38 151.513 2044.67 154.152 Q2046.96 156.767 2051.11 156.767 Q2052.96 156.767 2054.76 156.281 Q2056.59 155.772 2058.4 154.777 L2058.4 158.712 Q2056.62 159.545 2054.69 159.962 Q2052.8 160.378 2050.64 160.378 Q2044.79 160.378 2041.34 156.698 Q2037.89 153.017 2037.89 146.767 Q2037.89 140.425 2041.36 136.791 Q2044.86 133.156 2050.92 133.156 Q2052.89 133.156 2054.76 133.573 Q2056.64 133.967 2058.4 134.777 Z" fill="#000000" fill-rule="evenodd" fill-opacity="1" /><path clip-path="url(#clip330)" d="M2065.64 123.689 L2069.93 123.689 L2069.93 144.962 L2082.63 133.781 L2088.07 133.781 L2074.32 145.911 L2088.65 159.707 L2083.1 159.707 L2069.93 147.045 L2069.93 159.707 L2065.64 159.707 L2065.64 123.689 Z" fill="#000000" fill-rule="evenodd" fill-opacity="1" /><path clip-path="url(#clip330)" d="M2097.89 155.772 L2114.21 155.772 L2114.21 159.707 L2092.26 159.707 L2092.26 155.772 Q2094.93 153.017 2099.51 148.388 Q2104.12 143.735 2105.3 142.392 Q2107.54 139.869 2108.42 138.133 Q2109.32 136.374 2109.32 134.684 Q2109.32 131.93 2107.38 130.193 Q2105.46 128.457 2102.36 128.457 Q2100.16 128.457 2097.7 129.221 Q2095.27 129.985 2092.49 131.536 L2092.49 126.814 Q2095.32 125.68 2097.77 125.101 Q2100.23 124.522 2102.26 124.522 Q2107.63 124.522 2110.83 127.207 Q2114.02 129.893 2114.02 134.383 Q2114.02 136.513 2113.21 138.434 Q2112.43 140.332 2110.32 142.925 Q2109.74 143.596 2106.64 146.814 Q2103.54 150.008 2097.89 155.772 Z" fill="#000000" fill-rule="evenodd" fill-opacity="1" /><path clip-path="url(#clip330)" d="M2138.19 141.073 Q2141.55 141.791 2143.42 144.059 Q2145.32 146.328 2145.32 149.661 Q2145.32 154.777 2141.8 157.578 Q2138.28 160.378 2131.8 160.378 Q2129.62 160.378 2127.31 159.939 Q2125.02 159.522 2122.56 158.666 L2122.56 154.152 Q2124.51 155.286 2126.82 155.865 Q2129.14 156.443 2131.66 156.443 Q2136.06 156.443 2138.35 154.707 Q2140.67 152.971 2140.67 149.661 Q2140.67 146.605 2138.51 144.892 Q2136.38 143.156 2132.56 143.156 L2128.54 143.156 L2128.54 139.314 L2132.75 139.314 Q2136.2 139.314 2138.03 137.948 Q2139.86 136.559 2139.86 133.967 Q2139.86 131.305 2137.96 129.893 Q2136.08 128.457 2132.56 128.457 Q2130.64 128.457 2128.44 128.874 Q2126.24 129.291 2123.61 130.17 L2123.61 126.004 Q2126.27 125.263 2128.58 124.893 Q2130.92 124.522 2132.98 124.522 Q2138.3 124.522 2141.41 126.953 Q2144.51 129.36 2144.51 133.48 Q2144.51 136.351 2142.86 138.342 Q2141.22 140.309 2138.19 141.073 Z" fill="#000000" fill-rule="evenodd" fill-opacity="1" /><polyline clip-path="url(#clip330)" style="stroke:#e26f46; stroke-linecap:butt; stroke-linejoin:round; stroke-width:4; stroke-opacity:1; fill:none" points="
  1662.64,194.267 1796.37,194.267 
  "/>
<circle clip-path="url(#clip330)" cx="1729.5" cy="194.267" r="23" fill="#e26f46" fill-rule="evenodd" fill-opacity="1" stroke="#000000" stroke-opacity="1" stroke-width="4.9152"/>
<path clip-path="url(#clip330)" d="M1818.65 176.987 L1823.33 176.987 L1823.33 191.594 L1838.84 176.987 L1844.86 176.987 L1827.7 193.098 L1846.08 211.547 L1839.93 211.547 L1823.33 194.904 L1823.33 211.547 L1818.65 211.547 L1818.65 176.987 Z" fill="#000000" fill-rule="evenodd" fill-opacity="1" /><path clip-path="url(#clip330)" d="M1869.37 197.519 L1869.37 199.603 L1849.79 199.603 Q1850.07 204.001 1852.43 206.316 Q1854.81 208.607 1859.05 208.607 Q1861.5 208.607 1863.79 208.006 Q1866.11 207.404 1868.38 206.2 L1868.38 210.228 Q1866.08 211.2 1863.68 211.709 Q1861.27 212.218 1858.79 212.218 Q1852.59 212.218 1848.95 208.607 Q1845.34 204.996 1845.34 198.839 Q1845.34 192.473 1848.77 188.746 Q1852.22 184.996 1858.05 184.996 Q1863.28 184.996 1866.32 188.376 Q1869.37 191.732 1869.37 197.519 M1865.11 196.269 Q1865.07 192.774 1863.14 190.691 Q1861.25 188.607 1858.1 188.607 Q1854.53 188.607 1852.38 190.621 Q1850.25 192.635 1849.93 196.293 L1865.11 196.269 Z" fill="#000000" fill-rule="evenodd" fill-opacity="1" /><path clip-path="url(#clip330)" d="M1897.91 195.899 L1897.91 211.547 L1893.65 211.547 L1893.65 196.038 Q1893.65 192.357 1892.22 190.529 Q1890.78 188.7 1887.91 188.7 Q1884.46 188.7 1882.47 190.899 Q1880.48 193.098 1880.48 196.894 L1880.48 211.547 L1876.2 211.547 L1876.2 185.621 L1880.48 185.621 L1880.48 189.649 Q1882.01 187.311 1884.07 186.154 Q1886.15 184.996 1888.86 184.996 Q1893.33 184.996 1895.62 187.774 Q1897.91 190.529 1897.91 195.899 Z" fill="#000000" fill-rule="evenodd" fill-opacity="1" /><path clip-path="url(#clip330)" d="M1932.47 179.649 L1932.47 184.58 Q1930.11 182.381 1927.43 181.293 Q1924.76 180.205 1921.75 180.205 Q1915.83 180.205 1912.68 183.839 Q1909.53 187.45 1909.53 194.302 Q1909.53 201.131 1912.68 204.765 Q1915.83 208.376 1921.75 208.376 Q1924.76 208.376 1927.43 207.288 Q1930.11 206.2 1932.47 204.001 L1932.47 208.885 Q1930.02 210.552 1927.26 211.385 Q1924.53 212.218 1921.48 212.218 Q1913.63 212.218 1909.12 207.427 Q1904.6 202.612 1904.6 194.302 Q1904.6 185.969 1909.12 181.177 Q1913.63 176.362 1921.48 176.362 Q1924.58 176.362 1927.31 177.196 Q1930.07 178.006 1932.47 179.649 Z" fill="#000000" fill-rule="evenodd" fill-opacity="1" /><path clip-path="url(#clip330)" d="M1951.29 198.515 Q1946.13 198.515 1944.14 199.695 Q1942.15 200.876 1942.15 203.723 Q1942.15 205.992 1943.63 207.334 Q1945.13 208.654 1947.7 208.654 Q1951.25 208.654 1953.38 206.154 Q1955.53 203.631 1955.53 199.464 L1955.53 198.515 L1951.29 198.515 M1959.79 196.756 L1959.79 211.547 L1955.53 211.547 L1955.53 207.612 Q1954.07 209.973 1951.89 211.107 Q1949.72 212.218 1946.57 212.218 Q1942.59 212.218 1940.23 209.996 Q1937.89 207.751 1937.89 204.001 Q1937.89 199.626 1940.81 197.404 Q1943.75 195.182 1949.56 195.182 L1955.53 195.182 L1955.53 194.765 Q1955.53 191.825 1953.58 190.228 Q1951.66 188.607 1948.17 188.607 Q1945.94 188.607 1943.84 189.14 Q1941.73 189.672 1939.79 190.737 L1939.79 186.802 Q1942.13 185.899 1944.32 185.459 Q1946.52 184.996 1948.61 184.996 Q1954.23 184.996 1957.01 187.913 Q1959.79 190.83 1959.79 196.756 Z" fill="#000000" fill-rule="evenodd" fill-opacity="1" /><path clip-path="url(#clip330)" d="M1983.58 189.603 Q1982.87 189.186 1982.01 189.001 Q1981.18 188.793 1980.16 188.793 Q1976.55 188.793 1974.6 191.154 Q1972.68 193.492 1972.68 197.89 L1972.68 211.547 L1968.4 211.547 L1968.4 185.621 L1972.68 185.621 L1972.68 189.649 Q1974.02 187.288 1976.18 186.154 Q1978.33 184.996 1981.41 184.996 Q1981.85 184.996 1982.38 185.066 Q1982.91 185.112 1983.56 185.228 L1983.58 189.603 Z" fill="#000000" fill-rule="evenodd" fill-opacity="1" /><path clip-path="url(#clip330)" d="M1992.17 207.658 L1992.17 221.408 L1987.89 221.408 L1987.89 185.621 L1992.17 185.621 L1992.17 189.557 Q1993.51 187.242 1995.55 186.131 Q1997.61 184.996 2000.46 184.996 Q2005.18 184.996 2008.12 188.746 Q2011.08 192.496 2011.08 198.607 Q2011.08 204.719 2008.12 208.468 Q2005.18 212.218 2000.46 212.218 Q1997.61 212.218 1995.55 211.107 Q1993.51 209.973 1992.17 207.658 M2006.66 198.607 Q2006.66 193.908 2004.72 191.246 Q2002.8 188.561 1999.42 188.561 Q1996.04 188.561 1994.09 191.246 Q1992.17 193.908 1992.17 198.607 Q1992.17 203.306 1994.09 205.992 Q1996.04 208.654 1999.42 208.654 Q2002.8 208.654 2004.72 205.992 Q2006.66 203.306 2006.66 198.607 Z" fill="#000000" fill-rule="evenodd" fill-opacity="1" /><path clip-path="url(#clip330)" d="M2018.79 176.987 L2037.15 176.987 L2037.15 180.922 L2023.07 180.922 L2023.07 189.395 Q2024.09 189.047 2025.11 188.885 Q2026.13 188.7 2027.15 188.7 Q2032.93 188.7 2036.31 191.871 Q2039.69 195.043 2039.69 200.459 Q2039.69 206.038 2036.22 209.14 Q2032.75 212.218 2026.43 212.218 Q2024.25 212.218 2021.99 211.848 Q2019.74 211.478 2017.33 210.737 L2017.33 206.038 Q2019.42 207.172 2021.64 207.728 Q2023.86 208.283 2026.34 208.283 Q2030.34 208.283 2032.68 206.177 Q2035.02 204.07 2035.02 200.459 Q2035.02 196.848 2032.68 194.742 Q2030.34 192.635 2026.34 192.635 Q2024.46 192.635 2022.59 193.052 Q2020.74 193.469 2018.79 194.348 L2018.79 176.987 Z" fill="#000000" fill-rule="evenodd" fill-opacity="1" /><polyline clip-path="url(#clip330)" style="stroke:#3da44d; stroke-linecap:butt; stroke-linejoin:round; stroke-width:4; stroke-opacity:1; fill:none" points="
  1662.64,246.107 1796.37,246.107 
  "/>
<line clip-path="url(#clip330)" x1="1729.5" y1="246.107" x2="1729.5" y2="220.507" style="stroke:#3da44d; stroke-width:4.9152; stroke-opacity:1"/>
<line clip-path="url(#clip330)" x1="1729.5" y1="246.107" x2="1703.9" y2="246.107" style="stroke:#3da44d; stroke-width:4.9152; stroke-opacity:1"/>
<line clip-path="url(#clip330)" x1="1729.5" y1="246.107" x2="1729.5" y2="271.707" style="stroke:#3da44d; stroke-width:4.9152; stroke-opacity:1"/>
<line clip-path="url(#clip330)" x1="1729.5" y1="246.107" x2="1755.1" y2="246.107" style="stroke:#3da44d; stroke-width:4.9152; stroke-opacity:1"/>
<path clip-path="url(#clip330)" d="M1818.65 228.827 L1823.33 228.827 L1823.33 243.434 L1838.84 228.827 L1844.86 228.827 L1827.7 244.938 L1846.08 263.387 L1839.93 263.387 L1823.33 246.744 L1823.33 263.387 L1818.65 263.387 L1818.65 228.827 Z" fill="#000000" fill-rule="evenodd" fill-opacity="1" /><path clip-path="url(#clip330)" d="M1869.37 249.359 L1869.37 251.443 L1849.79 251.443 Q1850.07 255.841 1852.43 258.156 Q1854.81 260.447 1859.05 260.447 Q1861.5 260.447 1863.79 259.846 Q1866.11 259.244 1868.38 258.04 L1868.38 262.068 Q1866.08 263.04 1863.68 263.549 Q1861.27 264.058 1858.79 264.058 Q1852.59 264.058 1848.95 260.447 Q1845.34 256.836 1845.34 250.679 Q1845.34 244.313 1848.77 240.586 Q1852.22 236.836 1858.05 236.836 Q1863.28 236.836 1866.32 240.216 Q1869.37 243.572 1869.37 249.359 M1865.11 248.109 Q1865.07 244.614 1863.14 242.531 Q1861.25 240.447 1858.1 240.447 Q1854.53 240.447 1852.38 242.461 Q1850.25 244.475 1849.93 248.133 L1865.11 248.109 Z" fill="#000000" fill-rule="evenodd" fill-opacity="1" /><path clip-path="url(#clip330)" d="M1897.91 247.739 L1897.91 263.387 L1893.65 263.387 L1893.65 247.878 Q1893.65 244.197 1892.22 242.369 Q1890.78 240.54 1887.91 240.54 Q1884.46 240.54 1882.47 242.739 Q1880.48 244.938 1880.48 248.734 L1880.48 263.387 L1876.2 263.387 L1876.2 237.461 L1880.48 237.461 L1880.48 241.489 Q1882.01 239.151 1884.07 237.994 Q1886.15 236.836 1888.86 236.836 Q1893.33 236.836 1895.62 239.614 Q1897.91 242.369 1897.91 247.739 Z" fill="#000000" fill-rule="evenodd" fill-opacity="1" /><path clip-path="url(#clip330)" d="M1932.47 231.489 L1932.47 236.42 Q1930.11 234.221 1927.43 233.133 Q1924.76 232.045 1921.75 232.045 Q1915.83 232.045 1912.68 235.679 Q1909.53 239.29 1909.53 246.142 Q1909.53 252.971 1912.68 256.605 Q1915.83 260.216 1921.75 260.216 Q1924.76 260.216 1927.43 259.128 Q1930.11 258.04 1932.47 255.841 L1932.47 260.725 Q1930.02 262.392 1927.26 263.225 Q1924.53 264.058 1921.48 264.058 Q1913.63 264.058 1909.12 259.267 Q1904.6 254.452 1904.6 246.142 Q1904.6 237.809 1909.12 233.017 Q1913.63 228.202 1921.48 228.202 Q1924.58 228.202 1927.31 229.036 Q1930.07 229.846 1932.47 231.489 Z" fill="#000000" fill-rule="evenodd" fill-opacity="1" /><path clip-path="url(#clip330)" d="M1951.29 250.355 Q1946.13 250.355 1944.14 251.535 Q1942.15 252.716 1942.15 255.563 Q1942.15 257.832 1943.63 259.174 Q1945.13 260.494 1947.7 260.494 Q1951.25 260.494 1953.38 257.994 Q1955.53 255.471 1955.53 251.304 L1955.53 250.355 L1951.29 250.355 M1959.79 248.596 L1959.79 263.387 L1955.53 263.387 L1955.53 259.452 Q1954.07 261.813 1951.89 262.947 Q1949.72 264.058 1946.57 264.058 Q1942.59 264.058 1940.23 261.836 Q1937.89 259.591 1937.89 255.841 Q1937.89 251.466 1940.81 249.244 Q1943.75 247.022 1949.56 247.022 L1955.53 247.022 L1955.53 246.605 Q1955.53 243.665 1953.58 242.068 Q1951.66 240.447 1948.17 240.447 Q1945.94 240.447 1943.84 240.98 Q1941.73 241.512 1939.79 242.577 L1939.79 238.642 Q1942.13 237.739 1944.32 237.299 Q1946.52 236.836 1948.61 236.836 Q1954.23 236.836 1957.01 239.753 Q1959.79 242.67 1959.79 248.596 Z" fill="#000000" fill-rule="evenodd" fill-opacity="1" /><path clip-path="url(#clip330)" d="M1983.58 241.443 Q1982.87 241.026 1982.01 240.841 Q1981.18 240.633 1980.16 240.633 Q1976.55 240.633 1974.6 242.994 Q1972.68 245.332 1972.68 249.73 L1972.68 263.387 L1968.4 263.387 L1968.4 237.461 L1972.68 237.461 L1972.68 241.489 Q1974.02 239.128 1976.18 237.994 Q1978.33 236.836 1981.41 236.836 Q1981.85 236.836 1982.38 236.906 Q1982.91 236.952 1983.56 237.068 L1983.58 241.443 Z" fill="#000000" fill-rule="evenodd" fill-opacity="1" /><path clip-path="url(#clip330)" d="M1992.17 259.498 L1992.17 273.248 L1987.89 273.248 L1987.89 237.461 L1992.17 237.461 L1992.17 241.397 Q1993.51 239.082 1995.55 237.971 Q1997.61 236.836 2000.46 236.836 Q2005.18 236.836 2008.12 240.586 Q2011.08 244.336 2011.08 250.447 Q2011.08 256.559 2008.12 260.308 Q2005.18 264.058 2000.46 264.058 Q1997.61 264.058 1995.55 262.947 Q1993.51 261.813 1992.17 259.498 M2006.66 250.447 Q2006.66 245.748 2004.72 243.086 Q2002.8 240.401 1999.42 240.401 Q1996.04 240.401 1994.09 243.086 Q1992.17 245.748 1992.17 250.447 Q1992.17 255.146 1994.09 257.832 Q1996.04 260.494 1999.42 260.494 Q2002.8 260.494 2004.72 257.832 Q2006.66 255.146 2006.66 250.447 Z" fill="#000000" fill-rule="evenodd" fill-opacity="1" /><path clip-path="url(#clip330)" d="M2031.59 232.901 L2019.79 251.35 L2031.59 251.35 L2031.59 232.901 M2030.37 228.827 L2036.24 228.827 L2036.24 251.35 L2041.18 251.35 L2041.18 255.239 L2036.24 255.239 L2036.24 263.387 L2031.59 263.387 L2031.59 255.239 L2015.99 255.239 L2015.99 250.725 L2030.37 228.827 Z" fill="#000000" fill-rule="evenodd" fill-opacity="1" /><polyline clip-path="url(#clip330)" style="stroke:#c271d2; stroke-linecap:butt; stroke-linejoin:round; stroke-width:4; stroke-opacity:1; fill:none" points="
  1662.64,297.947 1796.37,297.947 
  "/>
<path clip-path="url(#clip330)" d="M1729.5 272.347 L1703.9 297.947 L1729.5 323.547 L1755.1 297.947 L1729.5 272.347 Z" fill="#c271d2" fill-rule="evenodd" fill-opacity="1" stroke="#000000" stroke-opacity="1" stroke-width="4.9152"/>
<path clip-path="url(#clip330)" d="M1818.65 280.667 L1823.33 280.667 L1823.33 295.274 L1838.84 280.667 L1844.86 280.667 L1827.7 296.778 L1846.08 315.227 L1839.93 315.227 L1823.33 298.584 L1823.33 315.227 L1818.65 315.227 L1818.65 280.667 Z" fill="#000000" fill-rule="evenodd" fill-opacity="1" /><path clip-path="url(#clip330)" d="M1869.37 301.199 L1869.37 303.283 L1849.79 303.283 Q1850.07 307.681 1852.43 309.996 Q1854.81 312.287 1859.05 312.287 Q1861.5 312.287 1863.79 311.686 Q1866.11 311.084 1868.38 309.88 L1868.38 313.908 Q1866.08 314.88 1863.68 315.389 Q1861.27 315.898 1858.79 315.898 Q1852.59 315.898 1848.95 312.287 Q1845.34 308.676 1845.34 302.519 Q1845.34 296.153 1848.77 292.426 Q1852.22 288.676 1858.05 288.676 Q1863.28 288.676 1866.32 292.056 Q1869.37 295.412 1869.37 301.199 M1865.11 299.949 Q1865.07 296.454 1863.14 294.371 Q1861.25 292.287 1858.1 292.287 Q1854.53 292.287 1852.38 294.301 Q1850.25 296.315 1849.93 299.973 L1865.11 299.949 Z" fill="#000000" fill-rule="evenodd" fill-opacity="1" /><path clip-path="url(#clip330)" d="M1897.91 299.579 L1897.91 315.227 L1893.65 315.227 L1893.65 299.718 Q1893.65 296.037 1892.22 294.209 Q1890.78 292.38 1887.91 292.38 Q1884.46 292.38 1882.47 294.579 Q1880.48 296.778 1880.48 300.574 L1880.48 315.227 L1876.2 315.227 L1876.2 289.301 L1880.48 289.301 L1880.48 293.329 Q1882.01 290.991 1884.07 289.834 Q1886.15 288.676 1888.86 288.676 Q1893.33 288.676 1895.62 291.454 Q1897.91 294.209 1897.91 299.579 Z" fill="#000000" fill-rule="evenodd" fill-opacity="1" /><path clip-path="url(#clip330)" d="M1932.47 283.329 L1932.47 288.26 Q1930.11 286.061 1927.43 284.973 Q1924.76 283.885 1921.75 283.885 Q1915.83 283.885 1912.68 287.519 Q1909.53 291.13 1909.53 297.982 Q1909.53 304.811 1912.68 308.445 Q1915.83 312.056 1921.75 312.056 Q1924.76 312.056 1927.43 310.968 Q1930.11 309.88 1932.47 307.681 L1932.47 312.565 Q1930.02 314.232 1927.26 315.065 Q1924.53 315.898 1921.48 315.898 Q1913.63 315.898 1909.12 311.107 Q1904.6 306.292 1904.6 297.982 Q1904.6 289.649 1909.12 284.857 Q1913.63 280.042 1921.48 280.042 Q1924.58 280.042 1927.31 280.876 Q1930.07 281.686 1932.47 283.329 Z" fill="#000000" fill-rule="evenodd" fill-opacity="1" /><path clip-path="url(#clip330)" d="M1951.29 302.195 Q1946.13 302.195 1944.14 303.375 Q1942.15 304.556 1942.15 307.403 Q1942.15 309.672 1943.63 311.014 Q1945.13 312.334 1947.7 312.334 Q1951.25 312.334 1953.38 309.834 Q1955.53 307.311 1955.53 303.144 L1955.53 302.195 L1951.29 302.195 M1959.79 300.436 L1959.79 315.227 L1955.53 315.227 L1955.53 311.292 Q1954.07 313.653 1951.89 314.787 Q1949.72 315.898 1946.57 315.898 Q1942.59 315.898 1940.23 313.676 Q1937.89 311.431 1937.89 307.681 Q1937.89 303.306 1940.81 301.084 Q1943.75 298.862 1949.56 298.862 L1955.53 298.862 L1955.53 298.445 Q1955.53 295.505 1953.58 293.908 Q1951.66 292.287 1948.17 292.287 Q1945.94 292.287 1943.84 292.82 Q1941.73 293.352 1939.79 294.417 L1939.79 290.482 Q1942.13 289.579 1944.32 289.139 Q1946.52 288.676 1948.61 288.676 Q1954.23 288.676 1957.01 291.593 Q1959.79 294.51 1959.79 300.436 Z" fill="#000000" fill-rule="evenodd" fill-opacity="1" /><path clip-path="url(#clip330)" d="M1983.58 293.283 Q1982.87 292.866 1982.01 292.681 Q1981.18 292.473 1980.16 292.473 Q1976.55 292.473 1974.6 294.834 Q1972.68 297.172 1972.68 301.57 L1972.68 315.227 L1968.4 315.227 L1968.4 289.301 L1972.68 289.301 L1972.68 293.329 Q1974.02 290.968 1976.18 289.834 Q1978.33 288.676 1981.41 288.676 Q1981.85 288.676 1982.38 288.746 Q1982.91 288.792 1983.56 288.908 L1983.58 293.283 Z" fill="#000000" fill-rule="evenodd" fill-opacity="1" /><path clip-path="url(#clip330)" d="M1992.17 311.338 L1992.17 325.088 L1987.89 325.088 L1987.89 289.301 L1992.17 289.301 L1992.17 293.237 Q1993.51 290.922 1995.55 289.811 Q1997.61 288.676 2000.46 288.676 Q2005.18 288.676 2008.12 292.426 Q2011.08 296.176 2011.08 302.287 Q2011.08 308.399 2008.12 312.148 Q2005.18 315.898 2000.46 315.898 Q1997.61 315.898 1995.55 314.787 Q1993.51 313.653 1992.17 311.338 M2006.66 302.287 Q2006.66 297.588 2004.72 294.926 Q2002.8 292.241 1999.42 292.241 Q1996.04 292.241 1994.09 294.926 Q1992.17 297.588 1992.17 302.287 Q1992.17 306.986 1994.09 309.672 Q1996.04 312.334 1999.42 312.334 Q2002.8 312.334 2004.72 309.672 Q2006.66 306.986 2006.66 302.287 Z" fill="#000000" fill-rule="evenodd" fill-opacity="1" /><path clip-path="url(#clip330)" d="M2032.91 296.593 Q2036.27 297.311 2038.14 299.579 Q2040.04 301.848 2040.04 305.181 Q2040.04 310.297 2036.52 313.098 Q2033 315.898 2026.52 315.898 Q2024.35 315.898 2022.03 315.459 Q2019.74 315.042 2017.29 314.186 L2017.29 309.672 Q2019.23 310.806 2021.55 311.385 Q2023.86 311.963 2026.38 311.963 Q2030.78 311.963 2033.07 310.227 Q2035.39 308.491 2035.39 305.181 Q2035.39 302.125 2033.24 300.412 Q2031.11 298.676 2027.29 298.676 L2023.26 298.676 L2023.26 294.834 L2027.47 294.834 Q2030.92 294.834 2032.75 293.468 Q2034.58 292.079 2034.58 289.487 Q2034.58 286.825 2032.68 285.413 Q2030.81 283.977 2027.29 283.977 Q2025.37 283.977 2023.17 284.394 Q2020.97 284.811 2018.33 285.69 L2018.33 281.524 Q2020.99 280.783 2023.31 280.413 Q2025.64 280.042 2027.7 280.042 Q2033.03 280.042 2036.13 282.473 Q2039.23 284.88 2039.23 289 Q2039.23 291.871 2037.59 293.862 Q2035.94 295.829 2032.91 296.593 Z" fill="#000000" fill-rule="evenodd" fill-opacity="1" /><polyline clip-path="url(#clip330)" style="stroke:#ac8d18; stroke-linecap:butt; stroke-linejoin:round; stroke-width:4; stroke-opacity:1; fill:none" points="
  1662.64,349.787 1796.37,349.787 
  "/>
<path clip-path="url(#clip330)" d="M1755.1 324.187 L1703.9 324.187 L1729.5 375.387 L1755.1 324.187 Z" fill="#ac8d18" fill-rule="evenodd" fill-opacity="1" stroke="#000000" stroke-opacity="1" stroke-width="4.9152"/>
<path clip-path="url(#clip330)" d="M1834.49 337.114 L1828.14 354.313 L1840.85 354.313 L1834.49 337.114 M1831.85 332.507 L1837.15 332.507 L1850.32 367.067 L1845.46 367.067 L1842.31 358.201 L1826.73 358.201 L1823.58 367.067 L1818.65 367.067 L1831.85 332.507 Z" fill="#000000" fill-rule="evenodd" fill-opacity="1" /><path clip-path="url(#clip330)" d="M1871.76 350.864 Q1873.26 351.373 1874.67 353.039 Q1876.11 354.706 1877.54 357.623 L1882.29 367.067 L1877.26 367.067 L1872.84 358.201 Q1871.13 354.729 1869.51 353.595 Q1867.91 352.461 1865.13 352.461 L1860.04 352.461 L1860.04 367.067 L1855.37 367.067 L1855.37 332.507 L1865.92 332.507 Q1871.85 332.507 1874.76 334.984 Q1877.68 337.461 1877.68 342.461 Q1877.68 345.725 1876.15 347.877 Q1874.65 350.03 1871.76 350.864 M1860.04 336.35 L1860.04 348.618 L1865.92 348.618 Q1869.3 348.618 1871.01 347.067 Q1872.75 345.493 1872.75 342.461 Q1872.75 339.428 1871.01 337.901 Q1869.3 336.35 1865.92 336.35 L1860.04 336.35 Z" fill="#000000" fill-rule="evenodd" fill-opacity="1" /><path clip-path="url(#clip330)" d="M1888.31 332.507 L1892.98 332.507 L1892.98 347.114 L1908.49 332.507 L1914.51 332.507 L1897.36 348.618 L1915.74 367.067 L1909.58 367.067 L1892.98 350.424 L1892.98 367.067 L1888.31 367.067 L1888.31 332.507 Z" fill="#000000" fill-rule="evenodd" fill-opacity="1" /><path clip-path="url(#clip330)" d="M1930.83 335.678 Q1925.74 335.678 1922.73 339.475 Q1919.74 343.271 1919.74 349.822 Q1919.74 356.35 1922.73 360.146 Q1925.74 363.942 1930.83 363.942 Q1935.92 363.942 1938.88 360.146 Q1941.87 356.35 1941.87 349.822 Q1941.87 343.271 1938.88 339.475 Q1935.92 335.678 1930.83 335.678 M1930.83 331.882 Q1938.1 331.882 1942.45 336.766 Q1946.8 341.628 1946.8 349.822 Q1946.8 357.993 1942.45 362.877 Q1938.1 367.738 1930.83 367.738 Q1923.54 367.738 1919.16 362.877 Q1914.81 358.016 1914.81 349.822 Q1914.81 341.628 1919.16 336.766 Q1923.54 331.882 1930.83 331.882 Z" fill="#000000" fill-rule="evenodd" fill-opacity="1" /><path clip-path="url(#clip330)" d="M1958.79 336.35 L1958.79 363.225 L1964.44 363.225 Q1971.59 363.225 1974.9 359.984 Q1978.24 356.743 1978.24 349.752 Q1978.24 342.808 1974.9 339.59 Q1971.59 336.35 1964.44 336.35 L1958.79 336.35 M1954.12 332.507 L1963.72 332.507 Q1973.77 332.507 1978.47 336.697 Q1983.17 340.864 1983.17 349.752 Q1983.17 358.688 1978.44 362.877 Q1973.72 367.067 1963.72 367.067 L1954.12 367.067 L1954.12 332.507 Z" fill="#000000" fill-rule="evenodd" fill-opacity="1" /><path clip-path="url(#clip330)" d="M1990.62 332.507 L2012.47 332.507 L2012.47 336.442 L1995.3 336.442 L1995.3 346.674 L2011.75 346.674 L2011.75 350.609 L1995.3 350.609 L1995.3 363.132 L2012.89 363.132 L2012.89 367.067 L1990.62 367.067 L1990.62 332.507 Z" fill="#000000" fill-rule="evenodd" fill-opacity="1" /><path clip-path="url(#clip330)" d="M2021.04 332.507 L2039.39 332.507 L2039.39 336.442 L2025.32 336.442 L2025.32 344.915 Q2026.34 344.567 2027.36 344.405 Q2028.37 344.22 2029.39 344.22 Q2035.18 344.22 2038.56 347.391 Q2041.94 350.563 2041.94 355.979 Q2041.94 361.558 2038.47 364.66 Q2035 367.738 2028.68 367.738 Q2026.5 367.738 2024.23 367.368 Q2021.99 366.998 2019.58 366.257 L2019.58 361.558 Q2021.66 362.692 2023.88 363.248 Q2026.11 363.803 2028.58 363.803 Q2032.59 363.803 2034.93 361.697 Q2037.26 359.59 2037.26 355.979 Q2037.26 352.368 2034.93 350.262 Q2032.59 348.155 2028.58 348.155 Q2026.71 348.155 2024.83 348.572 Q2022.98 348.989 2021.04 349.868 L2021.04 332.507 Z" fill="#000000" fill-rule="evenodd" fill-opacity="1" /><polyline clip-path="url(#clip330)" style="stroke:#00a9ad; stroke-linecap:butt; stroke-linejoin:round; stroke-width:4; stroke-opacity:1; fill:none" points="
  1662.64,401.627 1796.37,401.627 
  "/>
<path clip-path="url(#clip330)" d="M1729.5 376.027 L1709.48 385.678 L1704.54 407.336 L1718.39 424.693 L1740.61 424.693 L1754.46 407.336 L1749.52 385.678 Z" fill="#00a9ad" fill-rule="evenodd" fill-opacity="1" stroke="#000000" stroke-opacity="1" stroke-width="4.9152"/>
<path clip-path="url(#clip330)" d="M1834.49 388.954 L1828.14 406.153 L1840.85 406.153 L1834.49 388.954 M1831.85 384.347 L1837.15 384.347 L1850.32 418.907 L1845.46 418.907 L1842.31 410.041 L1826.73 410.041 L1823.58 418.907 L1818.65 418.907 L1831.85 384.347 Z" fill="#000000" fill-rule="evenodd" fill-opacity="1" /><path clip-path="url(#clip330)" d="M1871.76 402.704 Q1873.26 403.213 1874.67 404.879 Q1876.11 406.546 1877.54 409.463 L1882.29 418.907 L1877.26 418.907 L1872.84 410.041 Q1871.13 406.569 1869.51 405.435 Q1867.91 404.301 1865.13 404.301 L1860.04 404.301 L1860.04 418.907 L1855.37 418.907 L1855.37 384.347 L1865.92 384.347 Q1871.85 384.347 1874.76 386.824 Q1877.68 389.301 1877.68 394.301 Q1877.68 397.565 1876.15 399.717 Q1874.65 401.87 1871.76 402.704 M1860.04 388.19 L1860.04 400.458 L1865.92 400.458 Q1869.3 400.458 1871.01 398.907 Q1872.75 397.333 1872.75 394.301 Q1872.75 391.268 1871.01 389.741 Q1869.3 388.19 1865.92 388.19 L1860.04 388.19 Z" fill="#000000" fill-rule="evenodd" fill-opacity="1" /><path clip-path="url(#clip330)" d="M1888.31 384.347 L1892.98 384.347 L1892.98 398.954 L1908.49 384.347 L1914.51 384.347 L1897.36 400.458 L1915.74 418.907 L1909.58 418.907 L1892.98 402.264 L1892.98 418.907 L1888.31 418.907 L1888.31 384.347 Z" fill="#000000" fill-rule="evenodd" fill-opacity="1" /><path clip-path="url(#clip330)" d="M1930.83 387.518 Q1925.74 387.518 1922.73 391.315 Q1919.74 395.111 1919.74 401.662 Q1919.74 408.19 1922.73 411.986 Q1925.74 415.782 1930.83 415.782 Q1935.92 415.782 1938.88 411.986 Q1941.87 408.19 1941.87 401.662 Q1941.87 395.111 1938.88 391.315 Q1935.92 387.518 1930.83 387.518 M1930.83 383.722 Q1938.1 383.722 1942.45 388.606 Q1946.8 393.468 1946.8 401.662 Q1946.8 409.833 1942.45 414.717 Q1938.1 419.578 1930.83 419.578 Q1923.54 419.578 1919.16 414.717 Q1914.81 409.856 1914.81 401.662 Q1914.81 393.468 1919.16 388.606 Q1923.54 383.722 1930.83 383.722 Z" fill="#000000" fill-rule="evenodd" fill-opacity="1" /><path clip-path="url(#clip330)" d="M1958.79 388.19 L1958.79 415.065 L1964.44 415.065 Q1971.59 415.065 1974.9 411.824 Q1978.24 408.583 1978.24 401.592 Q1978.24 394.648 1974.9 391.43 Q1971.59 388.19 1964.44 388.19 L1958.79 388.19 M1954.12 384.347 L1963.72 384.347 Q1973.77 384.347 1978.47 388.537 Q1983.17 392.704 1983.17 401.592 Q1983.17 410.528 1978.44 414.717 Q1973.72 418.907 1963.72 418.907 L1954.12 418.907 L1954.12 384.347 Z" fill="#000000" fill-rule="evenodd" fill-opacity="1" /><path clip-path="url(#clip330)" d="M1990.62 384.347 L2012.47 384.347 L2012.47 388.282 L1995.3 388.282 L1995.3 398.514 L2011.75 398.514 L2011.75 402.449 L1995.3 402.449 L1995.3 414.972 L2012.89 414.972 L2012.89 418.907 L1990.62 418.907 L1990.62 384.347 Z" fill="#000000" fill-rule="evenodd" fill-opacity="1" /><path clip-path="url(#clip330)" d="M2033.84 388.421 L2022.03 406.87 L2033.84 406.87 L2033.84 388.421 M2032.61 384.347 L2038.49 384.347 L2038.49 406.87 L2043.42 406.87 L2043.42 410.759 L2038.49 410.759 L2038.49 418.907 L2033.84 418.907 L2033.84 410.759 L2018.24 410.759 L2018.24 406.245 L2032.61 384.347 Z" fill="#000000" fill-rule="evenodd" fill-opacity="1" /><polyline clip-path="url(#clip330)" style="stroke:#ed5d92; stroke-linecap:butt; stroke-linejoin:round; stroke-width:4; stroke-opacity:1; fill:none" points="
  1662.64,453.467 1796.37,453.467 
  "/>
<path clip-path="url(#clip330)" d="M1729.5 479.067 L1707.33 466.267 L1707.33 440.667 L1729.5 427.867 L1751.67 440.667 L1751.67 466.267 Z" fill="#ed5d92" fill-rule="evenodd" fill-opacity="1" stroke="#000000" stroke-opacity="1" stroke-width="4.9152"/>
<path clip-path="url(#clip330)" d="M1834.49 440.794 L1828.14 457.993 L1840.85 457.993 L1834.49 440.794 M1831.85 436.187 L1837.15 436.187 L1850.32 470.747 L1845.46 470.747 L1842.31 461.881 L1826.73 461.881 L1823.58 470.747 L1818.65 470.747 L1831.85 436.187 Z" fill="#000000" fill-rule="evenodd" fill-opacity="1" /><path clip-path="url(#clip330)" d="M1871.76 454.544 Q1873.26 455.053 1874.67 456.719 Q1876.11 458.386 1877.54 461.303 L1882.29 470.747 L1877.26 470.747 L1872.84 461.881 Q1871.13 458.409 1869.51 457.275 Q1867.91 456.141 1865.13 456.141 L1860.04 456.141 L1860.04 470.747 L1855.37 470.747 L1855.37 436.187 L1865.92 436.187 Q1871.85 436.187 1874.76 438.664 Q1877.68 441.141 1877.68 446.141 Q1877.68 449.405 1876.15 451.557 Q1874.65 453.71 1871.76 454.544 M1860.04 440.03 L1860.04 452.298 L1865.92 452.298 Q1869.3 452.298 1871.01 450.747 Q1872.75 449.173 1872.75 446.141 Q1872.75 443.108 1871.01 441.581 Q1869.3 440.03 1865.92 440.03 L1860.04 440.03 Z" fill="#000000" fill-rule="evenodd" fill-opacity="1" /><path clip-path="url(#clip330)" d="M1888.31 436.187 L1892.98 436.187 L1892.98 450.794 L1908.49 436.187 L1914.51 436.187 L1897.36 452.298 L1915.74 470.747 L1909.58 470.747 L1892.98 454.104 L1892.98 470.747 L1888.31 470.747 L1888.31 436.187 Z" fill="#000000" fill-rule="evenodd" fill-opacity="1" /><path clip-path="url(#clip330)" d="M1930.83 439.358 Q1925.74 439.358 1922.73 443.155 Q1919.74 446.951 1919.74 453.502 Q1919.74 460.03 1922.73 463.826 Q1925.74 467.622 1930.83 467.622 Q1935.92 467.622 1938.88 463.826 Q1941.87 460.03 1941.87 453.502 Q1941.87 446.951 1938.88 443.155 Q1935.92 439.358 1930.83 439.358 M1930.83 435.562 Q1938.1 435.562 1942.45 440.446 Q1946.8 445.308 1946.8 453.502 Q1946.8 461.673 1942.45 466.557 Q1938.1 471.418 1930.83 471.418 Q1923.54 471.418 1919.16 466.557 Q1914.81 461.696 1914.81 453.502 Q1914.81 445.308 1919.16 440.446 Q1923.54 435.562 1930.83 435.562 Z" fill="#000000" fill-rule="evenodd" fill-opacity="1" /><path clip-path="url(#clip330)" d="M1958.79 440.03 L1958.79 466.905 L1964.44 466.905 Q1971.59 466.905 1974.9 463.664 Q1978.24 460.423 1978.24 453.432 Q1978.24 446.488 1974.9 443.27 Q1971.59 440.03 1964.44 440.03 L1958.79 440.03 M1954.12 436.187 L1963.72 436.187 Q1973.77 436.187 1978.47 440.377 Q1983.17 444.544 1983.17 453.432 Q1983.17 462.368 1978.44 466.557 Q1973.72 470.747 1963.72 470.747 L1954.12 470.747 L1954.12 436.187 Z" fill="#000000" fill-rule="evenodd" fill-opacity="1" /><path clip-path="url(#clip330)" d="M1990.62 436.187 L2012.47 436.187 L2012.47 440.122 L1995.3 440.122 L1995.3 450.354 L2011.75 450.354 L2011.75 454.289 L1995.3 454.289 L1995.3 466.812 L2012.89 466.812 L2012.89 470.747 L1990.62 470.747 L1990.62 436.187 Z" fill="#000000" fill-rule="evenodd" fill-opacity="1" /><path clip-path="url(#clip330)" d="M2035.16 452.113 Q2038.51 452.831 2040.39 455.099 Q2042.29 457.368 2042.29 460.701 Q2042.29 465.817 2038.77 468.618 Q2035.25 471.418 2028.77 471.418 Q2026.59 471.418 2024.28 470.979 Q2021.99 470.562 2019.53 469.706 L2019.53 465.192 Q2021.48 466.326 2023.79 466.905 Q2026.11 467.483 2028.63 467.483 Q2033.03 467.483 2035.32 465.747 Q2037.63 464.011 2037.63 460.701 Q2037.63 457.645 2035.48 455.932 Q2033.35 454.196 2029.53 454.196 L2025.5 454.196 L2025.5 450.354 L2029.72 450.354 Q2033.17 450.354 2035 448.988 Q2036.82 447.599 2036.82 445.007 Q2036.82 442.345 2034.93 440.933 Q2033.05 439.497 2029.53 439.497 Q2027.61 439.497 2025.41 439.914 Q2023.21 440.331 2020.57 441.21 L2020.57 437.044 Q2023.24 436.303 2025.55 435.933 Q2027.89 435.562 2029.95 435.562 Q2035.27 435.562 2038.37 437.993 Q2041.48 440.4 2041.48 444.52 Q2041.48 447.391 2039.83 449.382 Q2038.19 451.349 2035.16 452.113 Z" fill="#000000" fill-rule="evenodd" fill-opacity="1" /></svg>
