<?xml version="1.0" encoding="utf-8"?>
<svg xmlns="http://www.w3.org/2000/svg" xmlns:xlink="http://www.w3.org/1999/xlink" width="576" height="384" viewBox="0 0 2304 1536">
<defs>
  <clipPath id="clip130">
    <rect x="0" y="0" width="2304" height="1536"/>
  </clipPath>
</defs>
<path clip-path="url(#clip130)" d="
M0 1536 L2304 1536 L2304 0 L0 0  Z
  " fill="#ffffff" fill-rule="evenodd" fill-opacity="1"/>
<defs>
  <clipPath id="clip131">
    <rect x="460" y="0" width="1614" height="1536"/>
  </clipPath>
</defs>
<path clip-path="url(#clip130)" d="
M250.882 1347.54 L2256.76 1347.54 L2256.76 47.2441 L250.882 47.2441  Z
  " fill="#ffffff" fill-rule="evenodd" fill-opacity="1"/>
<defs>
  <clipPath id="clip132">
    <rect x="250" y="47" width="2007" height="1301"/>
  </clipPath>
</defs>
<polyline clip-path="url(#clip132)" style="stroke:#000000; stroke-linecap:butt; stroke-linejoin:round; stroke-width:2; stroke-opacity:0.1; fill:none" points="
  1113.03,1347.54 1113.03,47.2441 
  "/>
<polyline clip-path="url(#clip132)" style="stroke:#000000; stroke-linecap:butt; stroke-linejoin:round; stroke-width:2; stroke-opacity:0.1; fill:none" points="
  2240.58,1347.54 2240.58,47.2441 
  "/>
<polyline clip-path="url(#clip130)" style="stroke:#000000; stroke-linecap:butt; stroke-linejoin:round; stroke-width:4; stroke-opacity:1; fill:none" points="
  250.882,1347.54 2256.76,1347.54 
  "/>
<polyline clip-path="url(#clip130)" style="stroke:#000000; stroke-linecap:butt; stroke-linejoin:round; stroke-width:4; stroke-opacity:1; fill:none" points="
  1113.03,1347.54 1113.03,1328.64 
  "/>
<polyline clip-path="url(#clip130)" style="stroke:#000000; stroke-linecap:butt; stroke-linejoin:round; stroke-width:4; stroke-opacity:1; fill:none" points="
  2240.58,1347.54 2240.58,1328.64 
  "/>
<path clip-path="url(#clip130)" d="M1050.39 1420.89 L1058.03 1420.89 L1058.03 1394.53 L1049.72 1396.19 L1049.72 1391.94 L1057.98 1390.27 L1062.66 1390.27 L1062.66 1420.89 L1070.3 1420.89 L1070.3 1424.83 L1050.39 1424.83 L1050.39 1420.89 Z" fill="#000000" fill-rule="evenodd" fill-opacity="1" /><path clip-path="url(#clip130)" d="M1089.74 1393.35 Q1086.13 1393.35 1084.3 1396.91 Q1082.5 1400.45 1082.5 1407.58 Q1082.5 1414.69 1084.3 1418.25 Q1086.13 1421.8 1089.74 1421.8 Q1093.38 1421.8 1095.18 1418.25 Q1097.01 1414.69 1097.01 1407.58 Q1097.01 1400.45 1095.18 1396.91 Q1093.38 1393.35 1089.74 1393.35 M1089.74 1389.64 Q1095.55 1389.64 1098.61 1394.25 Q1101.69 1398.83 1101.69 1407.58 Q1101.69 1416.31 1098.61 1420.92 Q1095.55 1425.5 1089.74 1425.5 Q1083.93 1425.5 1080.85 1420.92 Q1077.8 1416.31 1077.8 1407.58 Q1077.8 1398.83 1080.85 1394.25 Q1083.93 1389.64 1089.74 1389.64 Z" fill="#000000" fill-rule="evenodd" fill-opacity="1" /><path clip-path="url(#clip130)" d="M1101.69 1383.74 L1125.8 1383.74 L1125.8 1386.94 L1101.69 1386.94 L1101.69 1383.74 Z" fill="#000000" fill-rule="evenodd" fill-opacity="1" /><path clip-path="url(#clip130)" d="M1134.66 1394.22 L1140.86 1394.22 L1140.86 1372.8 L1134.11 1374.15 L1134.11 1370.69 L1140.83 1369.34 L1144.63 1369.34 L1144.63 1394.22 L1150.83 1394.22 L1150.83 1397.42 L1134.66 1397.42 L1134.66 1394.22 Z" fill="#000000" fill-rule="evenodd" fill-opacity="1" /><path clip-path="url(#clip130)" d="M1166.63 1371.84 Q1163.7 1371.84 1162.21 1374.74 Q1160.74 1377.61 1160.74 1383.41 Q1160.74 1389.18 1162.21 1392.08 Q1163.7 1394.95 1166.63 1394.95 Q1169.58 1394.95 1171.05 1392.08 Q1172.54 1389.18 1172.54 1383.41 Q1172.54 1377.61 1171.05 1374.74 Q1169.58 1371.84 1166.63 1371.84 M1166.63 1368.83 Q1171.35 1368.83 1173.83 1372.57 Q1176.34 1376.3 1176.34 1383.41 Q1176.34 1390.5 1173.83 1394.24 Q1171.35 1397.96 1166.63 1397.96 Q1161.91 1397.96 1159.41 1394.24 Q1156.93 1390.5 1156.93 1383.41 Q1156.93 1376.3 1159.41 1372.57 Q1161.91 1368.83 1166.63 1368.83 Z" fill="#000000" fill-rule="evenodd" fill-opacity="1" /><path clip-path="url(#clip130)" d="M2190.6 1420.89 L2198.24 1420.89 L2198.24 1394.53 L2189.93 1396.19 L2189.93 1391.94 L2198.19 1390.27 L2202.87 1390.27 L2202.87 1420.89 L2210.51 1420.89 L2210.51 1424.83 L2190.6 1424.83 L2190.6 1420.89 Z" fill="#000000" fill-rule="evenodd" fill-opacity="1" /><path clip-path="url(#clip130)" d="M2229.95 1393.35 Q2226.34 1393.35 2224.51 1396.91 Q2222.71 1400.45 2222.71 1407.58 Q2222.71 1414.69 2224.51 1418.25 Q2226.34 1421.8 2229.95 1421.8 Q2233.59 1421.8 2235.39 1418.25 Q2237.22 1414.69 2237.22 1407.58 Q2237.22 1400.45 2235.39 1396.91 Q2233.59 1393.35 2229.95 1393.35 M2229.95 1389.64 Q2235.76 1389.64 2238.82 1394.25 Q2241.9 1398.83 2241.9 1407.58 Q2241.9 1416.31 2238.82 1420.92 Q2235.76 1425.5 2229.95 1425.5 Q2224.14 1425.5 2221.06 1420.92 Q2218.01 1416.31 2218.01 1407.58 Q2218.01 1398.83 2221.06 1394.25 Q2224.14 1389.64 2229.95 1389.64 Z" fill="#000000" fill-rule="evenodd" fill-opacity="1" /><path clip-path="url(#clip130)" d="M2241.9 1383.74 L2266.01 1383.74 L2266.01 1386.94 L2241.9 1386.94 L2241.9 1383.74 Z" fill="#000000" fill-rule="evenodd" fill-opacity="1" /><path clip-path="url(#clip130)" d="M2274.25 1369.34 L2289.16 1369.34 L2289.16 1372.54 L2277.72 1372.54 L2277.72 1379.42 Q2278.55 1379.14 2279.38 1379.01 Q2280.21 1378.85 2281.03 1378.85 Q2285.74 1378.85 2288.48 1381.43 Q2291.23 1384.01 2291.23 1388.41 Q2291.23 1392.94 2288.41 1395.46 Q2285.59 1397.96 2280.45 1397.96 Q2278.68 1397.96 2276.84 1397.66 Q2275.02 1397.36 2273.06 1396.76 L2273.06 1392.94 Q2274.75 1393.86 2276.56 1394.31 Q2278.36 1394.77 2280.38 1394.77 Q2283.63 1394.77 2285.53 1393.05 Q2287.43 1391.34 2287.43 1388.41 Q2287.43 1385.48 2285.53 1383.76 Q2283.63 1382.05 2280.38 1382.05 Q2278.85 1382.05 2277.33 1382.39 Q2275.82 1382.73 2274.25 1383.44 L2274.25 1369.34 Z" fill="#000000" fill-rule="evenodd" fill-opacity="1" /><path clip-path="url(#clip130)" d="M1177.57 1461.87 L1207.62 1461.87 L1207.62 1467.28 L1184 1467.28 L1184 1481.34 L1206.63 1481.34 L1206.63 1486.76 L1184 1486.76 L1184 1503.97 L1208.19 1503.97 L1208.19 1509.39 L1177.57 1509.39 L1177.57 1461.87 Z" fill="#000000" fill-rule="evenodd" fill-opacity="1" /><path clip-path="url(#clip130)" d="M1239.16 1479.21 Q1238.18 1478.64 1237 1478.38 Q1235.85 1478.1 1234.45 1478.1 Q1229.49 1478.1 1226.81 1481.34 Q1224.17 1484.56 1224.17 1490.61 L1224.17 1509.39 L1218.28 1509.39 L1218.28 1473.74 L1224.17 1473.74 L1224.17 1479.28 Q1226.02 1476.03 1228.98 1474.47 Q1231.94 1472.88 1236.17 1472.88 Q1236.77 1472.88 1237.51 1472.97 Q1238.24 1473.04 1239.13 1473.2 L1239.16 1479.21 Z" fill="#000000" fill-rule="evenodd" fill-opacity="1" /><path clip-path="url(#clip130)" d="M1264.82 1479.21 Q1263.83 1478.64 1262.65 1478.38 Q1261.51 1478.1 1260.11 1478.1 Q1255.14 1478.1 1252.47 1481.34 Q1249.82 1484.56 1249.82 1490.61 L1249.82 1509.39 L1243.94 1509.39 L1243.94 1473.74 L1249.82 1473.74 L1249.82 1479.28 Q1251.67 1476.03 1254.63 1474.47 Q1257.59 1472.88 1261.82 1472.88 Q1262.43 1472.88 1263.16 1472.97 Q1263.89 1473.04 1264.78 1473.2 L1264.82 1479.21 Z" fill="#000000" fill-rule="evenodd" fill-opacity="1" /><path clip-path="url(#clip130)" d="M1283.34 1477.84 Q1278.63 1477.84 1275.89 1481.54 Q1273.15 1485.2 1273.15 1491.59 Q1273.15 1497.99 1275.86 1501.68 Q1278.6 1505.34 1283.34 1505.34 Q1288.02 1505.34 1290.76 1501.65 Q1293.49 1497.96 1293.49 1491.59 Q1293.49 1485.26 1290.76 1481.57 Q1288.02 1477.84 1283.34 1477.84 M1283.34 1472.88 Q1290.98 1472.88 1295.34 1477.84 Q1299.7 1482.81 1299.7 1491.59 Q1299.7 1500.35 1295.34 1505.34 Q1290.98 1510.31 1283.34 1510.31 Q1275.67 1510.31 1271.31 1505.34 Q1266.98 1500.35 1266.98 1491.59 Q1266.98 1482.81 1271.31 1477.84 Q1275.67 1472.88 1283.34 1472.88 Z" fill="#000000" fill-rule="evenodd" fill-opacity="1" /><path clip-path="url(#clip130)" d="M1330.06 1479.21 Q1329.08 1478.64 1327.9 1478.38 Q1326.75 1478.1 1325.35 1478.1 Q1320.39 1478.1 1317.71 1481.34 Q1315.07 1484.56 1315.07 1490.61 L1315.07 1509.39 L1309.18 1509.39 L1309.18 1473.74 L1315.07 1473.74 L1315.07 1479.28 Q1316.92 1476.03 1319.88 1474.47 Q1322.84 1472.88 1327.07 1472.88 Q1327.68 1472.88 1328.41 1472.97 Q1329.14 1473.04 1330.03 1473.2 L1330.06 1479.21 Z" fill="#000000" fill-rule="evenodd" fill-opacity="1" /><polyline clip-path="url(#clip132)" style="stroke:#000000; stroke-linecap:butt; stroke-linejoin:round; stroke-width:2; stroke-opacity:0.1; fill:none" points="
  250.882,911.814 2256.76,911.814 
  "/>
<polyline clip-path="url(#clip132)" style="stroke:#000000; stroke-linecap:butt; stroke-linejoin:round; stroke-width:2; stroke-opacity:0.1; fill:none" points="
  250.882,408.806 2256.76,408.806 
  "/>
<polyline clip-path="url(#clip130)" style="stroke:#000000; stroke-linecap:butt; stroke-linejoin:round; stroke-width:4; stroke-opacity:1; fill:none" points="
  250.882,1347.54 250.882,47.2441 
  "/>
<polyline clip-path="url(#clip130)" style="stroke:#000000; stroke-linecap:butt; stroke-linejoin:round; stroke-width:4; stroke-opacity:1; fill:none" points="
  250.882,911.814 269.78,911.814 
  "/>
<polyline clip-path="url(#clip130)" style="stroke:#000000; stroke-linecap:butt; stroke-linejoin:round; stroke-width:4; stroke-opacity:1; fill:none" points="
  250.882,408.806 269.78,408.806 
  "/>
<path clip-path="url(#clip130)" d="M115.411 931.606 L123.05 931.606 L123.05 905.241 L114.74 906.907 L114.74 902.648 L123.004 900.981 L127.68 900.981 L127.68 931.606 L135.319 931.606 L135.319 935.541 L115.411 935.541 L115.411 931.606 Z" fill="#000000" fill-rule="evenodd" fill-opacity="1" /><path clip-path="url(#clip130)" d="M154.763 904.06 Q151.152 904.06 149.323 907.625 Q147.518 911.166 147.518 918.296 Q147.518 925.402 149.323 928.967 Q151.152 932.509 154.763 932.509 Q158.397 932.509 160.203 928.967 Q162.032 925.402 162.032 918.296 Q162.032 911.166 160.203 907.625 Q158.397 904.06 154.763 904.06 M154.763 900.356 Q160.573 900.356 163.629 904.963 Q166.707 909.546 166.707 918.296 Q166.707 927.023 163.629 931.629 Q160.573 936.213 154.763 936.213 Q148.953 936.213 145.874 931.629 Q142.819 927.023 142.819 918.296 Q142.819 909.546 145.874 904.963 Q148.953 900.356 154.763 900.356 Z" fill="#000000" fill-rule="evenodd" fill-opacity="1" /><path clip-path="url(#clip130)" d="M166.707 894.458 L190.819 894.458 L190.819 897.655 L166.707 897.655 L166.707 894.458 Z" fill="#000000" fill-rule="evenodd" fill-opacity="1" /><path clip-path="url(#clip130)" d="M210.53 892.991 Q213.257 893.574 214.78 895.417 Q216.322 897.26 216.322 899.968 Q216.322 904.125 213.464 906.401 Q210.605 908.676 205.339 908.676 Q203.571 908.676 201.69 908.319 Q199.828 907.98 197.834 907.285 L197.834 903.617 Q199.414 904.539 201.295 905.009 Q203.176 905.479 205.226 905.479 Q208.799 905.479 210.661 904.068 Q212.542 902.658 212.542 899.968 Q212.542 897.486 210.793 896.094 Q209.063 894.683 205.959 894.683 L202.687 894.683 L202.687 891.561 L206.11 891.561 Q208.912 891.561 210.398 890.452 Q211.884 889.323 211.884 887.217 Q211.884 885.054 210.341 883.907 Q208.818 882.74 205.959 882.74 Q204.398 882.74 202.612 883.079 Q200.825 883.418 198.681 884.132 L198.681 880.747 Q200.844 880.145 202.724 879.844 Q204.624 879.543 206.298 879.543 Q210.624 879.543 213.144 881.518 Q215.664 883.474 215.664 886.822 Q215.664 889.154 214.329 890.771 Q212.993 892.37 210.53 892.991 Z" fill="#000000" fill-rule="evenodd" fill-opacity="1" /><path clip-path="url(#clip130)" d="M116.183 428.599 L123.821 428.599 L123.821 402.233 L115.511 403.9 L115.511 399.641 L123.775 397.974 L128.451 397.974 L128.451 428.599 L136.09 428.599 L136.09 432.534 L116.183 432.534 L116.183 428.599 Z" fill="#000000" fill-rule="evenodd" fill-opacity="1" /><path clip-path="url(#clip130)" d="M155.534 401.053 Q151.923 401.053 150.094 404.617 Q148.289 408.159 148.289 415.289 Q148.289 422.395 150.094 425.96 Q151.923 429.502 155.534 429.502 Q159.168 429.502 160.974 425.96 Q162.803 422.395 162.803 415.289 Q162.803 408.159 160.974 404.617 Q159.168 401.053 155.534 401.053 M155.534 397.349 Q161.344 397.349 164.4 401.955 Q167.479 406.539 167.479 415.289 Q167.479 424.016 164.4 428.622 Q161.344 433.205 155.534 433.205 Q149.724 433.205 146.645 428.622 Q143.59 424.016 143.59 415.289 Q143.59 406.539 146.645 401.955 Q149.724 397.349 155.534 397.349 Z" fill="#000000" fill-rule="evenodd" fill-opacity="1" /><path clip-path="url(#clip130)" d="M167.479 391.45 L191.59 391.45 L191.59 394.648 L167.479 394.648 L167.479 391.45 Z" fill="#000000" fill-rule="evenodd" fill-opacity="1" /><path clip-path="url(#clip130)" d="M203.063 401.926 L216.322 401.926 L216.322 405.124 L198.493 405.124 L198.493 401.926 Q200.655 399.688 204.379 395.927 Q208.122 392.146 209.081 391.055 Q210.906 389.005 211.62 387.595 Q212.354 386.165 212.354 384.792 Q212.354 382.554 210.774 381.144 Q209.213 379.733 206.693 379.733 Q204.906 379.733 202.912 380.354 Q200.938 380.974 198.681 382.235 L198.681 378.398 Q200.975 377.476 202.969 377.006 Q204.962 376.536 206.618 376.536 Q210.981 376.536 213.576 378.717 Q216.172 380.899 216.172 384.548 Q216.172 386.278 215.514 387.839 Q214.874 389.381 213.163 391.488 Q212.692 392.033 210.172 394.648 Q207.652 397.243 203.063 401.926 Z" fill="#000000" fill-rule="evenodd" fill-opacity="1" /><path clip-path="url(#clip130)" d="M18.4042 827.219 L18.4042 787.02 L23.815 787.02 L23.815 803.889 L65.9242 803.889 L65.9242 810.35 L23.815 810.35 L23.815 827.219 L18.4042 827.219 Z" fill="#000000" fill-rule="evenodd" fill-opacity="1" /><path clip-path="url(#clip130)" d="M30.2762 783.073 L30.2762 777.216 L65.9242 777.216 L65.9242 783.073 L30.2762 783.073 M16.399 783.073 L16.399 777.216 L23.815 777.216 L23.815 783.073 L16.399 783.073 Z" fill="#000000" fill-rule="evenodd" fill-opacity="1" /><path clip-path="url(#clip130)" d="M37.1193 737.208 Q33.1726 735.012 31.2947 731.956 Q29.4168 728.901 29.4168 724.763 Q29.4168 719.193 33.3317 716.169 Q37.2148 713.145 44.4081 713.145 L65.9242 713.145 L65.9242 719.034 L44.599 719.034 Q39.4746 719.034 36.992 720.848 Q34.5094 722.662 34.5094 726.386 Q34.5094 730.938 37.5331 733.579 Q40.5568 736.221 45.7767 736.221 L65.9242 736.221 L65.9242 742.109 L44.599 742.109 Q39.4428 742.109 36.992 743.924 Q34.5094 745.738 34.5094 749.526 Q34.5094 754.013 37.5649 756.655 Q40.5886 759.297 45.7767 759.297 L65.9242 759.297 L65.9242 765.185 L30.2762 765.185 L30.2762 759.297 L35.8144 759.297 Q32.536 757.292 30.9764 754.491 Q29.4168 751.69 29.4168 747.839 Q29.4168 743.956 31.3902 741.25 Q33.3636 738.513 37.1193 737.208 Z" fill="#000000" fill-rule="evenodd" fill-opacity="1" /><path clip-path="url(#clip130)" d="M46.6361 670.973 L49.5006 670.973 L49.5006 697.9 Q55.5481 697.518 58.7309 694.271 Q61.8819 690.993 61.8819 685.168 Q61.8819 681.794 61.0544 678.643 Q60.2269 675.461 58.5718 672.341 L64.1099 672.341 Q65.4467 675.492 66.147 678.803 Q66.8472 682.113 66.8472 685.518 Q66.8472 694.048 61.8819 699.045 Q56.9167 704.011 48.4503 704.011 Q39.6974 704.011 34.5731 699.3 Q29.4168 694.558 29.4168 686.537 Q29.4168 679.344 34.0638 675.174 Q38.6789 670.973 46.6361 670.973 M44.9173 676.829 Q40.1112 676.893 37.2466 679.535 Q34.3821 682.145 34.3821 686.473 Q34.3821 691.375 37.1512 694.335 Q39.9202 697.263 44.9492 697.709 L44.9173 676.829 Z" fill="#000000" fill-rule="evenodd" fill-opacity="1" /><path clip-path="url(#clip130)" d="M16.4626 626.572 Q23.7832 630.837 30.9446 632.906 Q38.106 634.975 45.4584 634.975 Q52.8108 634.975 60.0359 632.906 Q67.2291 630.805 74.5179 626.572 L74.5179 631.664 Q67.0382 636.439 59.8131 638.826 Q52.588 641.181 45.4584 641.181 Q38.3606 641.181 31.1674 638.826 Q23.9742 636.471 16.4626 631.664 L16.4626 626.572 Z" fill="#000000" fill-rule="evenodd" fill-opacity="1" /><path clip-path="url(#clip130)" d="M31.3265 592.484 L36.8647 592.484 Q35.5916 594.966 34.955 597.64 Q34.3184 600.313 34.3184 603.178 Q34.3184 607.538 35.6552 609.735 Q36.992 611.899 39.6656 611.899 Q41.7026 611.899 42.8803 610.339 Q44.0261 608.78 45.0765 604.069 L45.5221 602.064 Q46.8589 595.826 49.3097 593.216 Q51.7286 590.574 56.0891 590.574 Q61.0544 590.574 63.9508 594.521 Q66.8472 598.435 66.8472 605.31 Q66.8472 608.175 66.2743 611.294 Q65.7332 614.382 64.6192 617.819 L58.5718 617.819 Q60.2587 614.573 61.118 611.422 Q61.9456 608.27 61.9456 605.183 Q61.9456 601.045 60.5451 598.817 Q59.1129 596.589 56.5347 596.589 Q54.1476 596.589 52.8745 598.213 Q51.6013 599.804 50.4237 605.247 L49.9462 607.284 Q48.8004 612.726 46.4451 615.145 Q44.058 617.564 39.9202 617.564 Q34.8913 617.564 32.1541 614 Q29.4168 610.435 29.4168 603.878 Q29.4168 600.632 29.8943 597.767 Q30.3717 594.902 31.3265 592.484 Z" fill="#000000" fill-rule="evenodd" fill-opacity="1" /><path clip-path="url(#clip130)" d="M16.4626 582.171 L16.4626 577.079 Q23.9742 572.304 31.1674 569.949 Q38.3606 567.562 45.4584 567.562 Q52.588 567.562 59.8131 569.949 Q67.0382 572.304 74.5179 577.079 L74.5179 582.171 Q67.2291 577.938 60.0359 575.869 Q52.8108 573.768 45.4584 573.768 Q38.106 573.768 30.9446 575.869 Q23.7832 577.938 16.4626 582.171 Z" fill="#000000" fill-rule="evenodd" fill-opacity="1" /><polyline clip-path="url(#clip132)" style="stroke:#009af9; stroke-linecap:butt; stroke-linejoin:round; stroke-width:12; stroke-opacity:1; fill:none" points="
  2137.74,976.124 1926.78,903.838 1705.56,809.44 1761.79,707.676 1460.5,605.219 1274.38,572.957 1034.23,482.14 
  "/>
<line clip-path="url(#clip132)" x1="2137.74" y1="976.124" x2="2137.74" y2="960.124" style="stroke:#009af9; stroke-width:3.072; stroke-opacity:1"/>
<line clip-path="url(#clip132)" x1="2137.74" y1="976.124" x2="2121.74" y2="976.124" style="stroke:#009af9; stroke-width:3.072; stroke-opacity:1"/>
<line clip-path="url(#clip132)" x1="2137.74" y1="976.124" x2="2137.74" y2="992.124" style="stroke:#009af9; stroke-width:3.072; stroke-opacity:1"/>
<line clip-path="url(#clip132)" x1="2137.74" y1="976.124" x2="2153.74" y2="976.124" style="stroke:#009af9; stroke-width:3.072; stroke-opacity:1"/>
<line clip-path="url(#clip132)" x1="1926.78" y1="903.838" x2="1926.78" y2="887.838" style="stroke:#009af9; stroke-width:3.072; stroke-opacity:1"/>
<line clip-path="url(#clip132)" x1="1926.78" y1="903.838" x2="1910.78" y2="903.838" style="stroke:#009af9; stroke-width:3.072; stroke-opacity:1"/>
<line clip-path="url(#clip132)" x1="1926.78" y1="903.838" x2="1926.78" y2="919.838" style="stroke:#009af9; stroke-width:3.072; stroke-opacity:1"/>
<line clip-path="url(#clip132)" x1="1926.78" y1="903.838" x2="1942.78" y2="903.838" style="stroke:#009af9; stroke-width:3.072; stroke-opacity:1"/>
<line clip-path="url(#clip132)" x1="1705.56" y1="809.44" x2="1705.56" y2="793.44" style="stroke:#009af9; stroke-width:3.072; stroke-opacity:1"/>
<line clip-path="url(#clip132)" x1="1705.56" y1="809.44" x2="1689.56" y2="809.44" style="stroke:#009af9; stroke-width:3.072; stroke-opacity:1"/>
<line clip-path="url(#clip132)" x1="1705.56" y1="809.44" x2="1705.56" y2="825.44" style="stroke:#009af9; stroke-width:3.072; stroke-opacity:1"/>
<line clip-path="url(#clip132)" x1="1705.56" y1="809.44" x2="1721.56" y2="809.44" style="stroke:#009af9; stroke-width:3.072; stroke-opacity:1"/>
<line clip-path="url(#clip132)" x1="1761.79" y1="707.676" x2="1761.79" y2="691.676" style="stroke:#009af9; stroke-width:3.072; stroke-opacity:1"/>
<line clip-path="url(#clip132)" x1="1761.79" y1="707.676" x2="1745.79" y2="707.676" style="stroke:#009af9; stroke-width:3.072; stroke-opacity:1"/>
<line clip-path="url(#clip132)" x1="1761.79" y1="707.676" x2="1761.79" y2="723.676" style="stroke:#009af9; stroke-width:3.072; stroke-opacity:1"/>
<line clip-path="url(#clip132)" x1="1761.79" y1="707.676" x2="1777.79" y2="707.676" style="stroke:#009af9; stroke-width:3.072; stroke-opacity:1"/>
<line clip-path="url(#clip132)" x1="1460.5" y1="605.219" x2="1460.5" y2="589.219" style="stroke:#009af9; stroke-width:3.072; stroke-opacity:1"/>
<line clip-path="url(#clip132)" x1="1460.5" y1="605.219" x2="1444.5" y2="605.219" style="stroke:#009af9; stroke-width:3.072; stroke-opacity:1"/>
<line clip-path="url(#clip132)" x1="1460.5" y1="605.219" x2="1460.5" y2="621.219" style="stroke:#009af9; stroke-width:3.072; stroke-opacity:1"/>
<line clip-path="url(#clip132)" x1="1460.5" y1="605.219" x2="1476.5" y2="605.219" style="stroke:#009af9; stroke-width:3.072; stroke-opacity:1"/>
<line clip-path="url(#clip132)" x1="1274.38" y1="572.957" x2="1274.38" y2="556.957" style="stroke:#009af9; stroke-width:3.072; stroke-opacity:1"/>
<line clip-path="url(#clip132)" x1="1274.38" y1="572.957" x2="1258.38" y2="572.957" style="stroke:#009af9; stroke-width:3.072; stroke-opacity:1"/>
<line clip-path="url(#clip132)" x1="1274.38" y1="572.957" x2="1274.38" y2="588.957" style="stroke:#009af9; stroke-width:3.072; stroke-opacity:1"/>
<line clip-path="url(#clip132)" x1="1274.38" y1="572.957" x2="1290.38" y2="572.957" style="stroke:#009af9; stroke-width:3.072; stroke-opacity:1"/>
<line clip-path="url(#clip132)" x1="1034.23" y1="482.14" x2="1034.23" y2="466.14" style="stroke:#009af9; stroke-width:3.072; stroke-opacity:1"/>
<line clip-path="url(#clip132)" x1="1034.23" y1="482.14" x2="1018.23" y2="482.14" style="stroke:#009af9; stroke-width:3.072; stroke-opacity:1"/>
<line clip-path="url(#clip132)" x1="1034.23" y1="482.14" x2="1034.23" y2="498.14" style="stroke:#009af9; stroke-width:3.072; stroke-opacity:1"/>
<line clip-path="url(#clip132)" x1="1034.23" y1="482.14" x2="1050.23" y2="482.14" style="stroke:#009af9; stroke-width:3.072; stroke-opacity:1"/>
<polyline clip-path="url(#clip132)" style="stroke:#e26f46; stroke-linecap:butt; stroke-linejoin:round; stroke-width:12; stroke-opacity:1; fill:none" points="
  2199.99,1126.11 2012.69,1054.36 1782.68,998.967 1608.25,952.238 1382.52,906.873 1209.64,841.547 1020.4,767.265 
  "/>
<circle clip-path="url(#clip132)" cx="2199.99" cy="1126.11" r="14" fill="#e26f46" fill-rule="evenodd" fill-opacity="1" stroke="#000000" stroke-opacity="1" stroke-width="3.072"/>
<circle clip-path="url(#clip132)" cx="2012.69" cy="1054.36" r="14" fill="#e26f46" fill-rule="evenodd" fill-opacity="1" stroke="#000000" stroke-opacity="1" stroke-width="3.072"/>
<circle clip-path="url(#clip132)" cx="1782.68" cy="998.967" r="14" fill="#e26f46" fill-rule="evenodd" fill-opacity="1" stroke="#000000" stroke-opacity="1" stroke-width="3.072"/>
<circle clip-path="url(#clip132)" cx="1608.25" cy="952.238" r="14" fill="#e26f46" fill-rule="evenodd" fill-opacity="1" stroke="#000000" stroke-opacity="1" stroke-width="3.072"/>
<circle clip-path="url(#clip132)" cx="1382.52" cy="906.873" r="14" fill="#e26f46" fill-rule="evenodd" fill-opacity="1" stroke="#000000" stroke-opacity="1" stroke-width="3.072"/>
<circle clip-path="url(#clip132)" cx="1209.64" cy="841.547" r="14" fill="#e26f46" fill-rule="evenodd" fill-opacity="1" stroke="#000000" stroke-opacity="1" stroke-width="3.072"/>
<circle clip-path="url(#clip132)" cx="1020.4" cy="767.265" r="14" fill="#e26f46" fill-rule="evenodd" fill-opacity="1" stroke="#000000" stroke-opacity="1" stroke-width="3.072"/>
<polyline clip-path="url(#clip132)" style="stroke:#3da44d; stroke-linecap:butt; stroke-linejoin:round; stroke-width:12; stroke-opacity:1; fill:none" points="
  1748.86,1278.03 1569.67,1160.63 1372.97,1036.64 1143.01,886.914 854.532,722.283 548.93,548.415 307.652,365.642 
  "/>
<line clip-path="url(#clip132)" x1="1748.86" y1="1278.03" x2="1748.86" y2="1262.03" style="stroke:#3da44d; stroke-width:3.072; stroke-opacity:1"/>
<line clip-path="url(#clip132)" x1="1748.86" y1="1278.03" x2="1732.86" y2="1278.03" style="stroke:#3da44d; stroke-width:3.072; stroke-opacity:1"/>
<line clip-path="url(#clip132)" x1="1748.86" y1="1278.03" x2="1748.86" y2="1294.03" style="stroke:#3da44d; stroke-width:3.072; stroke-opacity:1"/>
<line clip-path="url(#clip132)" x1="1748.86" y1="1278.03" x2="1764.86" y2="1278.03" style="stroke:#3da44d; stroke-width:3.072; stroke-opacity:1"/>
<line clip-path="url(#clip132)" x1="1569.67" y1="1160.63" x2="1569.67" y2="1144.63" style="stroke:#3da44d; stroke-width:3.072; stroke-opacity:1"/>
<line clip-path="url(#clip132)" x1="1569.67" y1="1160.63" x2="1553.67" y2="1160.63" style="stroke:#3da44d; stroke-width:3.072; stroke-opacity:1"/>
<line clip-path="url(#clip132)" x1="1569.67" y1="1160.63" x2="1569.67" y2="1176.63" style="stroke:#3da44d; stroke-width:3.072; stroke-opacity:1"/>
<line clip-path="url(#clip132)" x1="1569.67" y1="1160.63" x2="1585.67" y2="1160.63" style="stroke:#3da44d; stroke-width:3.072; stroke-opacity:1"/>
<line clip-path="url(#clip132)" x1="1372.97" y1="1036.64" x2="1372.97" y2="1020.64" style="stroke:#3da44d; stroke-width:3.072; stroke-opacity:1"/>
<line clip-path="url(#clip132)" x1="1372.97" y1="1036.64" x2="1356.97" y2="1036.64" style="stroke:#3da44d; stroke-width:3.072; stroke-opacity:1"/>
<line clip-path="url(#clip132)" x1="1372.97" y1="1036.64" x2="1372.97" y2="1052.64" style="stroke:#3da44d; stroke-width:3.072; stroke-opacity:1"/>
<line clip-path="url(#clip132)" x1="1372.97" y1="1036.64" x2="1388.97" y2="1036.64" style="stroke:#3da44d; stroke-width:3.072; stroke-opacity:1"/>
<line clip-path="url(#clip132)" x1="1143.01" y1="886.914" x2="1143.01" y2="870.914" style="stroke:#3da44d; stroke-width:3.072; stroke-opacity:1"/>
<line clip-path="url(#clip132)" x1="1143.01" y1="886.914" x2="1127.01" y2="886.914" style="stroke:#3da44d; stroke-width:3.072; stroke-opacity:1"/>
<line clip-path="url(#clip132)" x1="1143.01" y1="886.914" x2="1143.01" y2="902.914" style="stroke:#3da44d; stroke-width:3.072; stroke-opacity:1"/>
<line clip-path="url(#clip132)" x1="1143.01" y1="886.914" x2="1159.01" y2="886.914" style="stroke:#3da44d; stroke-width:3.072; stroke-opacity:1"/>
<line clip-path="url(#clip132)" x1="854.532" y1="722.283" x2="854.532" y2="706.283" style="stroke:#3da44d; stroke-width:3.072; stroke-opacity:1"/>
<line clip-path="url(#clip132)" x1="854.532" y1="722.283" x2="838.532" y2="722.283" style="stroke:#3da44d; stroke-width:3.072; stroke-opacity:1"/>
<line clip-path="url(#clip132)" x1="854.532" y1="722.283" x2="854.532" y2="738.283" style="stroke:#3da44d; stroke-width:3.072; stroke-opacity:1"/>
<line clip-path="url(#clip132)" x1="854.532" y1="722.283" x2="870.532" y2="722.283" style="stroke:#3da44d; stroke-width:3.072; stroke-opacity:1"/>
<line clip-path="url(#clip132)" x1="548.93" y1="548.415" x2="548.93" y2="532.415" style="stroke:#3da44d; stroke-width:3.072; stroke-opacity:1"/>
<line clip-path="url(#clip132)" x1="548.93" y1="548.415" x2="532.93" y2="548.415" style="stroke:#3da44d; stroke-width:3.072; stroke-opacity:1"/>
<line clip-path="url(#clip132)" x1="548.93" y1="548.415" x2="548.93" y2="564.415" style="stroke:#3da44d; stroke-width:3.072; stroke-opacity:1"/>
<line clip-path="url(#clip132)" x1="548.93" y1="548.415" x2="564.93" y2="548.415" style="stroke:#3da44d; stroke-width:3.072; stroke-opacity:1"/>
<line clip-path="url(#clip132)" x1="307.652" y1="365.642" x2="307.652" y2="349.642" style="stroke:#3da44d; stroke-width:3.072; stroke-opacity:1"/>
<line clip-path="url(#clip132)" x1="307.652" y1="365.642" x2="291.652" y2="365.642" style="stroke:#3da44d; stroke-width:3.072; stroke-opacity:1"/>
<line clip-path="url(#clip132)" x1="307.652" y1="365.642" x2="307.652" y2="381.642" style="stroke:#3da44d; stroke-width:3.072; stroke-opacity:1"/>
<line clip-path="url(#clip132)" x1="307.652" y1="365.642" x2="323.652" y2="365.642" style="stroke:#3da44d; stroke-width:3.072; stroke-opacity:1"/>
<polyline clip-path="url(#clip132)" style="stroke:#c271d2; stroke-linecap:butt; stroke-linejoin:round; stroke-width:12; stroke-opacity:1; fill:none" points="
  2056.95,1112.66 2018.88,1026.22 1794.74,991.394 1623.49,948.557 1468.92,911.313 1260.87,861.769 1030.83,771.865 
  "/>
<path clip-path="url(#clip132)" d="M2056.95 1096.66 L2040.95 1112.66 L2056.95 1128.66 L2072.95 1112.66 L2056.95 1096.66 Z" fill="#c271d2" fill-rule="evenodd" fill-opacity="1" stroke="#000000" stroke-opacity="1" stroke-width="3.072"/>
<path clip-path="url(#clip132)" d="M2018.88 1010.22 L2002.88 1026.22 L2018.88 1042.22 L2034.88 1026.22 L2018.88 1010.22 Z" fill="#c271d2" fill-rule="evenodd" fill-opacity="1" stroke="#000000" stroke-opacity="1" stroke-width="3.072"/>
<path clip-path="url(#clip132)" d="M1794.74 975.394 L1778.74 991.394 L1794.74 1007.39 L1810.74 991.394 L1794.74 975.394 Z" fill="#c271d2" fill-rule="evenodd" fill-opacity="1" stroke="#000000" stroke-opacity="1" stroke-width="3.072"/>
<path clip-path="url(#clip132)" d="M1623.49 932.557 L1607.49 948.557 L1623.49 964.557 L1639.49 948.557 L1623.49 932.557 Z" fill="#c271d2" fill-rule="evenodd" fill-opacity="1" stroke="#000000" stroke-opacity="1" stroke-width="3.072"/>
<path clip-path="url(#clip132)" d="M1468.92 895.313 L1452.92 911.313 L1468.92 927.313 L1484.92 911.313 L1468.92 895.313 Z" fill="#c271d2" fill-rule="evenodd" fill-opacity="1" stroke="#000000" stroke-opacity="1" stroke-width="3.072"/>
<path clip-path="url(#clip132)" d="M1260.87 845.769 L1244.87 861.769 L1260.87 877.769 L1276.87 861.769 L1260.87 845.769 Z" fill="#c271d2" fill-rule="evenodd" fill-opacity="1" stroke="#000000" stroke-opacity="1" stroke-width="3.072"/>
<path clip-path="url(#clip132)" d="M1030.83 755.865 L1014.83 771.865 L1030.83 787.865 L1046.83 771.865 L1030.83 755.865 Z" fill="#c271d2" fill-rule="evenodd" fill-opacity="1" stroke="#000000" stroke-opacity="1" stroke-width="3.072"/>
<polyline clip-path="url(#clip132)" style="stroke:#ac8d18; stroke-linecap:butt; stroke-linejoin:round; stroke-width:12; stroke-opacity:1; fill:none" points="
  2175.13,1054.15 2046.17,962.305 1830.02,908.774 1645.8,832.295 1392.19,789.322 1214.11,719.139 1005.8,664.958 
  "/>
<path clip-path="url(#clip132)" d="M2191.13 1038.15 L2159.13 1038.15 L2175.13 1070.15 L2191.13 1038.15 Z" fill="#ac8d18" fill-rule="evenodd" fill-opacity="1" stroke="#000000" stroke-opacity="1" stroke-width="3.072"/>
<path clip-path="url(#clip132)" d="M2062.17 946.305 L2030.17 946.305 L2046.17 978.305 L2062.17 946.305 Z" fill="#ac8d18" fill-rule="evenodd" fill-opacity="1" stroke="#000000" stroke-opacity="1" stroke-width="3.072"/>
<path clip-path="url(#clip132)" d="M1846.02 892.774 L1814.02 892.774 L1830.02 924.774 L1846.02 892.774 Z" fill="#ac8d18" fill-rule="evenodd" fill-opacity="1" stroke="#000000" stroke-opacity="1" stroke-width="3.072"/>
<path clip-path="url(#clip132)" d="M1661.8 816.295 L1629.8 816.295 L1645.8 848.295 L1661.8 816.295 Z" fill="#ac8d18" fill-rule="evenodd" fill-opacity="1" stroke="#000000" stroke-opacity="1" stroke-width="3.072"/>
<path clip-path="url(#clip132)" d="M1408.19 773.322 L1376.19 773.322 L1392.19 805.322 L1408.19 773.322 Z" fill="#ac8d18" fill-rule="evenodd" fill-opacity="1" stroke="#000000" stroke-opacity="1" stroke-width="3.072"/>
<path clip-path="url(#clip132)" d="M1230.11 703.139 L1198.11 703.139 L1214.11 735.139 L1230.11 703.139 Z" fill="#ac8d18" fill-rule="evenodd" fill-opacity="1" stroke="#000000" stroke-opacity="1" stroke-width="3.072"/>
<path clip-path="url(#clip132)" d="M1021.8 648.958 L989.803 648.958 L1005.8 680.958 L1021.8 648.958 Z" fill="#ac8d18" fill-rule="evenodd" fill-opacity="1" stroke="#000000" stroke-opacity="1" stroke-width="3.072"/>
<polyline clip-path="url(#clip132)" style="stroke:#00a9ad; stroke-linecap:butt; stroke-linejoin:round; stroke-width:12; stroke-opacity:1; fill:none" points="
  1818.33,1310.74 1506.75,1231.85 1238.25,1133.3 998.765,1030.74 873.761,896.629 547.883,708.784 328.722,530.998 
  "/>
<path clip-path="url(#clip132)" d="M1818.33 1294.74 L1805.82 1300.77 L1802.73 1314.3 L1811.38 1325.15 L1825.27 1325.15 L1833.93 1314.3 L1830.84 1300.77 Z" fill="#00a9ad" fill-rule="evenodd" fill-opacity="1" stroke="#000000" stroke-opacity="1" stroke-width="3.072"/>
<path clip-path="url(#clip132)" d="M1506.75 1215.85 L1494.24 1221.88 L1491.15 1235.42 L1499.81 1246.27 L1513.7 1246.27 L1522.35 1235.42 L1519.26 1221.88 Z" fill="#00a9ad" fill-rule="evenodd" fill-opacity="1" stroke="#000000" stroke-opacity="1" stroke-width="3.072"/>
<path clip-path="url(#clip132)" d="M1238.25 1117.3 L1225.74 1123.33 L1222.65 1136.87 L1231.3 1147.72 L1245.19 1147.72 L1253.85 1136.87 L1250.76 1123.33 Z" fill="#00a9ad" fill-rule="evenodd" fill-opacity="1" stroke="#000000" stroke-opacity="1" stroke-width="3.072"/>
<path clip-path="url(#clip132)" d="M998.765 1014.74 L986.253 1020.77 L983.165 1034.3 L991.821 1045.15 L1005.71 1045.15 L1014.37 1034.3 L1011.28 1020.77 Z" fill="#00a9ad" fill-rule="evenodd" fill-opacity="1" stroke="#000000" stroke-opacity="1" stroke-width="3.072"/>
<path clip-path="url(#clip132)" d="M873.761 880.629 L861.249 886.661 L858.161 900.197 L866.817 911.045 L880.705 911.045 L889.361 900.197 L886.273 886.661 Z" fill="#00a9ad" fill-rule="evenodd" fill-opacity="1" stroke="#000000" stroke-opacity="1" stroke-width="3.072"/>
<path clip-path="url(#clip132)" d="M547.883 692.784 L535.371 698.816 L532.283 712.352 L540.939 723.2 L554.827 723.2 L563.483 712.352 L560.395 698.816 Z" fill="#00a9ad" fill-rule="evenodd" fill-opacity="1" stroke="#000000" stroke-opacity="1" stroke-width="3.072"/>
<path clip-path="url(#clip132)" d="M328.722 514.998 L316.21 521.03 L313.122 534.566 L321.778 545.414 L335.666 545.414 L344.322 534.566 L341.234 521.03 Z" fill="#00a9ad" fill-rule="evenodd" fill-opacity="1" stroke="#000000" stroke-opacity="1" stroke-width="3.072"/>
<polyline clip-path="url(#clip132)" style="stroke:#ed5d92; stroke-linecap:butt; stroke-linejoin:round; stroke-width:12; stroke-opacity:1; fill:none" points="
  1885.81,1063.58 1668.77,941.035 1438.89,794.703 1195.29,630.831 924.848,449.301 637.885,269.215 386.801,84.0448 
  "/>
<path clip-path="url(#clip132)" d="M1885.81 1079.58 L1871.96 1071.58 L1871.96 1055.58 L1885.81 1047.58 L1899.67 1055.58 L1899.67 1071.58 Z" fill="#ed5d92" fill-rule="evenodd" fill-opacity="1" stroke="#000000" stroke-opacity="1" stroke-width="3.072"/>
<path clip-path="url(#clip132)" d="M1668.77 957.035 L1654.91 949.035 L1654.91 933.035 L1668.77 925.035 L1682.63 933.035 L1682.63 949.035 Z" fill="#ed5d92" fill-rule="evenodd" fill-opacity="1" stroke="#000000" stroke-opacity="1" stroke-width="3.072"/>
<path clip-path="url(#clip132)" d="M1438.89 810.703 L1425.03 802.703 L1425.03 786.703 L1438.89 778.703 L1452.75 786.703 L1452.75 802.703 Z" fill="#ed5d92" fill-rule="evenodd" fill-opacity="1" stroke="#000000" stroke-opacity="1" stroke-width="3.072"/>
<path clip-path="url(#clip132)" d="M1195.29 646.831 L1181.43 638.831 L1181.43 622.831 L1195.29 614.831 L1209.14 622.831 L1209.14 638.831 Z" fill="#ed5d92" fill-rule="evenodd" fill-opacity="1" stroke="#000000" stroke-opacity="1" stroke-width="3.072"/>
<path clip-path="url(#clip132)" d="M924.848 465.301 L910.992 457.301 L910.992 441.301 L924.848 433.301 L938.704 441.301 L938.704 457.301 Z" fill="#ed5d92" fill-rule="evenodd" fill-opacity="1" stroke="#000000" stroke-opacity="1" stroke-width="3.072"/>
<path clip-path="url(#clip132)" d="M637.885 285.215 L624.029 277.215 L624.029 261.215 L637.885 253.215 L651.741 261.215 L651.741 277.215 Z" fill="#ed5d92" fill-rule="evenodd" fill-opacity="1" stroke="#000000" stroke-opacity="1" stroke-width="3.072"/>
<path clip-path="url(#clip132)" d="M386.801 100.045 L372.945 92.0448 L372.945 76.0448 L386.801 68.0448 L400.657 76.0448 L400.657 92.0448 Z" fill="#ed5d92" fill-rule="evenodd" fill-opacity="1" stroke="#000000" stroke-opacity="1" stroke-width="3.072"/>
<polyline clip-path="url(#clip132)" style="stroke:#c68125; stroke-linecap:butt; stroke-linejoin:round; stroke-width:12; stroke-opacity:1; fill:none" points="
  1617.31,965.717 1418.5,927.314 1253,892.223 1117.19,838.032 1011.33,797.896 850.614,774.518 671.253,732.837 
  "/>
<line clip-path="url(#clip132)" x1="1633.31" y1="965.717" x2="1601.31" y2="965.717" style="stroke:#c68125; stroke-width:3.072; stroke-opacity:1"/>
<line clip-path="url(#clip132)" x1="1434.5" y1="927.314" x2="1402.5" y2="927.314" style="stroke:#c68125; stroke-width:3.072; stroke-opacity:1"/>
<line clip-path="url(#clip132)" x1="1269" y1="892.223" x2="1237" y2="892.223" style="stroke:#c68125; stroke-width:3.072; stroke-opacity:1"/>
<line clip-path="url(#clip132)" x1="1133.19" y1="838.032" x2="1101.19" y2="838.032" style="stroke:#c68125; stroke-width:3.072; stroke-opacity:1"/>
<line clip-path="url(#clip132)" x1="1027.33" y1="797.896" x2="995.325" y2="797.896" style="stroke:#c68125; stroke-width:3.072; stroke-opacity:1"/>
<line clip-path="url(#clip132)" x1="866.614" y1="774.518" x2="834.614" y2="774.518" style="stroke:#c68125; stroke-width:3.072; stroke-opacity:1"/>
<line clip-path="url(#clip132)" x1="687.253" y1="732.837" x2="655.253" y2="732.837" style="stroke:#c68125; stroke-width:3.072; stroke-opacity:1"/>
<polyline clip-path="url(#clip132)" style="stroke:#00a98d; stroke-linecap:butt; stroke-linejoin:round; stroke-width:12; stroke-opacity:1; fill:none" points="
  2104.47,1181.78 1956.78,1088.62 1885.14,999.192 1609.38,895.812 1473.04,788.827 1281.67,708.721 1087.99,641.884 
  "/>
<path clip-path="url(#clip132)" d="M2091.67 1181.78 L2110.87 1192.98 L2110.87 1170.58 L2091.67 1181.78 Z" fill="#00a98d" fill-rule="evenodd" fill-opacity="1" stroke="#000000" stroke-opacity="1" stroke-width="3.072"/>
<path clip-path="url(#clip132)" d="M1943.98 1088.62 L1963.18 1099.82 L1963.18 1077.42 L1943.98 1088.62 Z" fill="#00a98d" fill-rule="evenodd" fill-opacity="1" stroke="#000000" stroke-opacity="1" stroke-width="3.072"/>
<path clip-path="url(#clip132)" d="M1872.34 999.192 L1891.54 1010.39 L1891.54 987.992 L1872.34 999.192 Z" fill="#00a98d" fill-rule="evenodd" fill-opacity="1" stroke="#000000" stroke-opacity="1" stroke-width="3.072"/>
<path clip-path="url(#clip132)" d="M1596.58 895.812 L1615.78 907.012 L1615.78 884.612 L1596.58 895.812 Z" fill="#00a98d" fill-rule="evenodd" fill-opacity="1" stroke="#000000" stroke-opacity="1" stroke-width="3.072"/>
<path clip-path="url(#clip132)" d="M1460.24 788.827 L1479.44 800.027 L1479.44 777.627 L1460.24 788.827 Z" fill="#00a98d" fill-rule="evenodd" fill-opacity="1" stroke="#000000" stroke-opacity="1" stroke-width="3.072"/>
<path clip-path="url(#clip132)" d="M1268.87 708.721 L1288.07 719.921 L1288.07 697.521 L1268.87 708.721 Z" fill="#00a98d" fill-rule="evenodd" fill-opacity="1" stroke="#000000" stroke-opacity="1" stroke-width="3.072"/>
<path clip-path="url(#clip132)" d="M1075.19 641.884 L1094.39 653.084 L1094.39 630.684 L1075.19 641.884 Z" fill="#00a98d" fill-rule="evenodd" fill-opacity="1" stroke="#000000" stroke-opacity="1" stroke-width="3.072"/>
<polyline clip-path="url(#clip132)" style="stroke:#8e971d; stroke-linecap:butt; stroke-linejoin:round; stroke-width:12; stroke-opacity:1; fill:none" points="
  1790.49,1221.34 1611.06,1168.12 1518.22,1127.67 1474.15,1020.29 1274.4,989.744 1169.06,921.182 1013.35,850.551 
  "/>
<path clip-path="url(#clip132)" d="M1790.49 1237.34 L1779.18 1232.65 L1774.49 1221.34 L1779.18 1210.03 L1790.49 1205.34 L1801.8 1210.03 L1806.49 1221.34 L1801.8 1232.65 Z" fill="#8e971d" fill-rule="evenodd" fill-opacity="1" stroke="#000000" stroke-opacity="1" stroke-width="3.072"/>
<path clip-path="url(#clip132)" d="M1611.06 1184.12 L1599.75 1179.44 L1595.06 1168.12 L1599.75 1156.81 L1611.06 1152.12 L1622.37 1156.81 L1627.06 1168.12 L1622.37 1179.44 Z" fill="#8e971d" fill-rule="evenodd" fill-opacity="1" stroke="#000000" stroke-opacity="1" stroke-width="3.072"/>
<path clip-path="url(#clip132)" d="M1518.22 1143.67 L1506.9 1138.98 L1502.22 1127.67 L1506.9 1116.36 L1518.22 1111.67 L1529.53 1116.36 L1534.22 1127.67 L1529.53 1138.98 Z" fill="#8e971d" fill-rule="evenodd" fill-opacity="1" stroke="#000000" stroke-opacity="1" stroke-width="3.072"/>
<path clip-path="url(#clip132)" d="M1474.15 1036.29 L1462.84 1031.6 L1458.15 1020.29 L1462.84 1008.97 L1474.15 1004.29 L1485.46 1008.97 L1490.15 1020.29 L1485.46 1031.6 Z" fill="#8e971d" fill-rule="evenodd" fill-opacity="1" stroke="#000000" stroke-opacity="1" stroke-width="3.072"/>
<path clip-path="url(#clip132)" d="M1274.4 1005.74 L1263.08 1001.06 L1258.4 989.744 L1263.08 978.432 L1274.4 973.744 L1285.71 978.432 L1290.4 989.744 L1285.71 1001.06 Z" fill="#8e971d" fill-rule="evenodd" fill-opacity="1" stroke="#000000" stroke-opacity="1" stroke-width="3.072"/>
<path clip-path="url(#clip132)" d="M1169.06 937.182 L1157.75 932.494 L1153.06 921.182 L1157.75 909.87 L1169.06 905.182 L1180.38 909.87 L1185.06 921.182 L1180.38 932.494 Z" fill="#8e971d" fill-rule="evenodd" fill-opacity="1" stroke="#000000" stroke-opacity="1" stroke-width="3.072"/>
<path clip-path="url(#clip132)" d="M1013.35 866.551 L1002.03 861.863 L997.346 850.551 L1002.03 839.239 L1013.35 834.551 L1024.66 839.239 L1029.35 850.551 L1024.66 861.863 Z" fill="#8e971d" fill-rule="evenodd" fill-opacity="1" stroke="#000000" stroke-opacity="1" stroke-width="3.072"/>
<path clip-path="url(#clip130)" d="
M1683.96 660.827 L2189.89 660.827 L2189.89 90.5872 L1683.96 90.5872  Z
  " fill="#ffffff" fill-rule="evenodd" fill-opacity="1"/>
<polyline clip-path="url(#clip130)" style="stroke:#000000; stroke-linecap:butt; stroke-linejoin:round; stroke-width:4; stroke-opacity:1; fill:none" points="
  1683.96,660.827 2189.89,660.827 2189.89,90.5872 1683.96,90.5872 1683.96,660.827 
  "/>
<polyline clip-path="url(#clip130)" style="stroke:#009af9; stroke-linecap:butt; stroke-linejoin:round; stroke-width:4; stroke-opacity:1; fill:none" points="
  1706.25,142.427 1839.98,142.427 
  "/>
<line clip-path="url(#clip130)" x1="1773.11" y1="142.427" x2="1773.11" y2="116.827" style="stroke:#009af9; stroke-width:4.9152; stroke-opacity:1"/>
<line clip-path="url(#clip130)" x1="1773.11" y1="142.427" x2="1747.51" y2="142.427" style="stroke:#009af9; stroke-width:4.9152; stroke-opacity:1"/>
<line clip-path="url(#clip130)" x1="1773.11" y1="142.427" x2="1773.11" y2="168.027" style="stroke:#009af9; stroke-width:4.9152; stroke-opacity:1"/>
<line clip-path="url(#clip130)" x1="1773.11" y1="142.427" x2="1798.71" y2="142.427" style="stroke:#009af9; stroke-width:4.9152; stroke-opacity:1"/>
<path clip-path="url(#clip130)" d="M1862.26 125.147 L1882.13 125.147 L1882.13 129.082 L1866.94 129.082 L1866.94 139.267 L1880.64 139.267 L1880.64 143.203 L1866.94 143.203 L1866.94 159.707 L1862.26 159.707 L1862.26 125.147 Z" fill="#000000" fill-rule="evenodd" fill-opacity="1" /><path clip-path="url(#clip130)" d="M1894.21 143.203 L1894.21 155.865 L1901.71 155.865 Q1905.48 155.865 1907.29 154.314 Q1909.12 152.74 1909.12 149.522 Q1909.12 146.281 1907.29 144.754 Q1905.48 143.203 1901.71 143.203 L1894.21 143.203 M1894.21 128.99 L1894.21 139.406 L1901.13 139.406 Q1904.56 139.406 1906.22 138.133 Q1907.91 136.837 1907.91 134.198 Q1907.91 131.582 1906.22 130.286 Q1904.56 128.99 1901.13 128.99 L1894.21 128.99 M1889.53 125.147 L1901.48 125.147 Q1906.82 125.147 1909.72 127.369 Q1912.61 129.592 1912.61 133.689 Q1912.61 136.86 1911.13 138.735 Q1909.65 140.61 1906.78 141.073 Q1910.23 141.814 1912.13 144.175 Q1914.05 146.513 1914.05 150.031 Q1914.05 154.661 1910.9 157.184 Q1907.75 159.707 1901.94 159.707 L1889.53 159.707 L1889.53 125.147 Z" fill="#000000" fill-rule="evenodd" fill-opacity="1" /><path clip-path="url(#clip130)" d="M1926.73 128.99 L1926.73 155.865 L1932.38 155.865 Q1939.53 155.865 1942.84 152.624 Q1946.18 149.383 1946.18 142.392 Q1946.18 135.448 1942.84 132.23 Q1939.53 128.99 1932.38 128.99 L1926.73 128.99 M1922.06 125.147 L1931.66 125.147 Q1941.71 125.147 1946.41 129.337 Q1951.11 133.504 1951.11 142.392 Q1951.11 151.328 1946.38 155.517 Q1941.66 159.707 1931.66 159.707 L1922.06 159.707 L1922.06 125.147 Z" fill="#000000" fill-rule="evenodd" fill-opacity="1" /><path clip-path="url(#clip130)" d="M1958.56 125.147 L1978.42 125.147 L1978.42 129.082 L1963.24 129.082 L1963.24 139.267 L1976.94 139.267 L1976.94 143.203 L1963.24 143.203 L1963.24 159.707 L1958.56 159.707 L1958.56 125.147 Z" fill="#000000" fill-rule="evenodd" fill-opacity="1" /><polyline clip-path="url(#clip130)" style="stroke:#e26f46; stroke-linecap:butt; stroke-linejoin:round; stroke-width:4; stroke-opacity:1; fill:none" points="
  1706.25,194.267 1839.98,194.267 
  "/>
<circle clip-path="url(#clip130)" cx="1773.11" cy="194.267" r="23" fill="#e26f46" fill-rule="evenodd" fill-opacity="1" stroke="#000000" stroke-opacity="1" stroke-width="4.9152"/>
<path clip-path="url(#clip130)" d="M1878.28 180.158 Q1873.19 180.158 1870.18 183.955 Q1867.19 187.751 1867.19 194.302 Q1867.19 200.83 1870.18 204.626 Q1873.19 208.422 1878.28 208.422 Q1883.38 208.422 1886.34 204.626 Q1889.32 200.83 1889.32 194.302 Q1889.32 187.751 1886.34 183.955 Q1883.38 180.158 1878.28 180.158 M1884.83 210.922 L1890.99 217.658 L1885.34 217.658 L1880.23 212.126 Q1879.46 212.172 1879.05 212.195 Q1878.65 212.218 1878.28 212.218 Q1870.99 212.218 1866.62 207.357 Q1862.26 202.473 1862.26 194.302 Q1862.26 186.108 1866.62 181.246 Q1870.99 176.362 1878.28 176.362 Q1885.55 176.362 1889.9 181.246 Q1894.26 186.108 1894.26 194.302 Q1894.26 200.32 1891.82 204.603 Q1889.42 208.885 1884.83 210.922 Z" fill="#000000" fill-rule="evenodd" fill-opacity="1" /><path clip-path="url(#clip130)" d="M1901.57 176.987 L1907.87 176.987 L1923.19 205.899 L1923.19 176.987 L1927.73 176.987 L1927.73 211.547 L1921.43 211.547 L1906.11 182.635 L1906.11 211.547 L1901.57 211.547 L1901.57 176.987 Z" fill="#000000" fill-rule="evenodd" fill-opacity="1" /><path clip-path="url(#clip130)" d="M1941.71 180.83 L1941.71 207.705 L1947.36 207.705 Q1954.51 207.705 1957.82 204.464 Q1961.15 201.223 1961.15 194.232 Q1961.15 187.288 1957.82 184.07 Q1954.51 180.83 1947.36 180.83 L1941.71 180.83 M1937.03 176.987 L1946.64 176.987 Q1956.69 176.987 1961.38 181.177 Q1966.08 185.344 1966.08 194.232 Q1966.08 203.168 1961.36 207.357 Q1956.64 211.547 1946.64 211.547 L1937.03 211.547 L1937.03 176.987 Z" fill="#000000" fill-rule="evenodd" fill-opacity="1" /><path clip-path="url(#clip130)" d="M1973.54 176.987 L1993.4 176.987 L1993.4 180.922 L1978.21 180.922 L1978.21 191.107 L1991.92 191.107 L1991.92 195.043 L1978.21 195.043 L1978.21 211.547 L1973.54 211.547 L1973.54 176.987 Z" fill="#000000" fill-rule="evenodd" fill-opacity="1" /><polyline clip-path="url(#clip130)" style="stroke:#3da44d; stroke-linecap:butt; stroke-linejoin:round; stroke-width:4; stroke-opacity:1; fill:none" points="
  1706.25,246.107 1839.98,246.107 
  "/>
<line clip-path="url(#clip130)" x1="1773.11" y1="246.107" x2="1773.11" y2="220.507" style="stroke:#3da44d; stroke-width:4.9152; stroke-opacity:1"/>
<line clip-path="url(#clip130)" x1="1773.11" y1="246.107" x2="1747.51" y2="246.107" style="stroke:#3da44d; stroke-width:4.9152; stroke-opacity:1"/>
<line clip-path="url(#clip130)" x1="1773.11" y1="246.107" x2="1773.11" y2="271.707" style="stroke:#3da44d; stroke-width:4.9152; stroke-opacity:1"/>
<line clip-path="url(#clip130)" x1="1773.11" y1="246.107" x2="1798.71" y2="246.107" style="stroke:#3da44d; stroke-width:4.9152; stroke-opacity:1"/>
<path clip-path="url(#clip130)" d="M1878.65 247.184 Q1880.16 247.693 1881.57 249.359 Q1883.01 251.026 1884.44 253.943 L1889.19 263.387 L1884.16 263.387 L1879.74 254.521 Q1878.03 251.049 1876.41 249.915 Q1874.81 248.781 1872.03 248.781 L1866.94 248.781 L1866.94 263.387 L1862.26 263.387 L1862.26 228.827 L1872.82 228.827 Q1878.75 228.827 1881.66 231.304 Q1884.58 233.781 1884.58 238.781 Q1884.58 242.045 1883.05 244.197 Q1881.55 246.35 1878.65 247.184 M1866.94 232.67 L1866.94 244.938 L1872.82 244.938 Q1876.2 244.938 1877.91 243.387 Q1879.65 241.813 1879.65 238.781 Q1879.65 235.748 1877.91 234.221 Q1876.2 232.67 1872.82 232.67 L1866.94 232.67 Z" fill="#000000" fill-rule="evenodd" fill-opacity="1" /><path clip-path="url(#clip130)" d="M1902.94 240.447 Q1899.51 240.447 1897.52 243.133 Q1895.53 245.795 1895.53 250.447 Q1895.53 255.1 1897.5 257.785 Q1899.49 260.447 1902.94 260.447 Q1906.34 260.447 1908.33 257.762 Q1910.32 255.077 1910.32 250.447 Q1910.32 245.841 1908.33 243.156 Q1906.34 240.447 1902.94 240.447 M1902.94 236.836 Q1908.49 236.836 1911.66 240.447 Q1914.83 244.059 1914.83 250.447 Q1914.83 256.813 1911.66 260.447 Q1908.49 264.058 1902.94 264.058 Q1897.36 264.058 1894.19 260.447 Q1891.04 256.813 1891.04 250.447 Q1891.04 244.059 1894.19 240.447 Q1897.36 236.836 1902.94 236.836 Z" fill="#000000" fill-rule="evenodd" fill-opacity="1" /><path clip-path="url(#clip130)" d="M1938.95 241.397 L1938.95 227.369 L1943.21 227.369 L1943.21 263.387 L1938.95 263.387 L1938.95 259.498 Q1937.61 261.813 1935.55 262.947 Q1933.51 264.058 1930.64 264.058 Q1925.94 264.058 1922.98 260.308 Q1920.04 256.559 1920.04 250.447 Q1920.04 244.336 1922.98 240.586 Q1925.94 236.836 1930.64 236.836 Q1933.51 236.836 1935.55 237.971 Q1937.61 239.082 1938.95 241.397 M1924.44 250.447 Q1924.44 255.146 1926.36 257.832 Q1928.31 260.494 1931.69 260.494 Q1935.06 260.494 1937.01 257.832 Q1938.95 255.146 1938.95 250.447 Q1938.95 245.748 1937.01 243.086 Q1935.06 240.401 1931.69 240.401 Q1928.31 240.401 1926.36 243.086 Q1924.44 245.748 1924.44 250.447 Z" fill="#000000" fill-rule="evenodd" fill-opacity="1" /><path clip-path="url(#clip130)" d="M1963.77 250.355 Q1958.61 250.355 1956.62 251.535 Q1954.63 252.716 1954.63 255.563 Q1954.63 257.832 1956.11 259.174 Q1957.61 260.494 1960.18 260.494 Q1963.72 260.494 1965.85 257.994 Q1968 255.471 1968 251.304 L1968 250.355 L1963.77 250.355 M1972.26 248.596 L1972.26 263.387 L1968 263.387 L1968 259.452 Q1966.55 261.813 1964.37 262.947 Q1962.19 264.058 1959.05 264.058 Q1955.06 264.058 1952.7 261.836 Q1950.37 259.591 1950.37 255.841 Q1950.37 251.466 1953.28 249.244 Q1956.22 247.022 1962.03 247.022 L1968 247.022 L1968 246.605 Q1968 243.665 1966.06 242.068 Q1964.14 240.447 1960.64 240.447 Q1958.42 240.447 1956.31 240.98 Q1954.21 241.512 1952.26 242.577 L1952.26 238.642 Q1954.6 237.739 1956.8 237.299 Q1959 236.836 1961.08 236.836 Q1966.71 236.836 1969.49 239.753 Q1972.26 242.67 1972.26 248.596 Z" fill="#000000" fill-rule="evenodd" fill-opacity="1" /><path clip-path="url(#clip130)" d="M1997.56 238.225 L1997.56 242.253 Q1995.76 241.327 1993.81 240.864 Q1991.87 240.401 1989.79 240.401 Q1986.62 240.401 1985.02 241.373 Q1983.44 242.346 1983.44 244.29 Q1983.44 245.772 1984.58 246.628 Q1985.71 247.461 1989.14 248.225 L1990.6 248.549 Q1995.13 249.522 1997.03 251.304 Q1998.95 253.063 1998.95 256.234 Q1998.95 259.846 1996.08 261.952 Q1993.24 264.058 1988.24 264.058 Q1986.15 264.058 1983.88 263.642 Q1981.64 263.248 1979.14 262.438 L1979.14 258.04 Q1981.5 259.267 1983.79 259.892 Q1986.08 260.494 1988.33 260.494 Q1991.34 260.494 1992.96 259.475 Q1994.58 258.434 1994.58 256.559 Q1994.58 254.822 1993.4 253.896 Q1992.24 252.971 1988.28 252.114 L1986.8 251.767 Q1982.84 250.934 1981.08 249.221 Q1979.32 247.484 1979.32 244.475 Q1979.32 240.818 1981.92 238.827 Q1984.51 236.836 1989.28 236.836 Q1991.64 236.836 1993.72 237.184 Q1995.81 237.531 1997.56 238.225 Z" fill="#000000" fill-rule="evenodd" fill-opacity="1" /><path clip-path="url(#clip130)" d="M2019.18 232.901 L2007.38 251.35 L2019.18 251.35 L2019.18 232.901 M2017.96 228.827 L2023.84 228.827 L2023.84 251.35 L2028.77 251.35 L2028.77 255.239 L2023.84 255.239 L2023.84 263.387 L2019.18 263.387 L2019.18 255.239 L2003.58 255.239 L2003.58 250.725 L2017.96 228.827 Z" fill="#000000" fill-rule="evenodd" fill-opacity="1" /><polyline clip-path="url(#clip130)" style="stroke:#c271d2; stroke-linecap:butt; stroke-linejoin:round; stroke-width:4; stroke-opacity:1; fill:none" points="
  1706.25,297.947 1839.98,297.947 
  "/>
<path clip-path="url(#clip130)" d="M1773.11 272.347 L1747.51 297.947 L1773.11 323.547 L1798.71 297.947 L1773.11 272.347 Z" fill="#c271d2" fill-rule="evenodd" fill-opacity="1" stroke="#000000" stroke-opacity="1" stroke-width="4.9152"/>
<path clip-path="url(#clip130)" d="M1890.13 283.329 L1890.13 288.26 Q1887.77 286.061 1885.09 284.973 Q1882.43 283.885 1879.42 283.885 Q1873.49 283.885 1870.34 287.519 Q1867.19 291.13 1867.19 297.982 Q1867.19 304.811 1870.34 308.445 Q1873.49 312.056 1879.42 312.056 Q1882.43 312.056 1885.09 310.968 Q1887.77 309.88 1890.13 307.681 L1890.13 312.565 Q1887.68 314.232 1884.93 315.065 Q1882.19 315.898 1879.14 315.898 Q1871.29 315.898 1866.78 311.107 Q1862.26 306.292 1862.26 297.982 Q1862.26 289.649 1866.78 284.857 Q1871.29 280.042 1879.14 280.042 Q1882.24 280.042 1884.97 280.876 Q1887.73 281.686 1890.13 283.329 Z" fill="#000000" fill-rule="evenodd" fill-opacity="1" /><path clip-path="url(#clip130)" d="M1906.27 315.227 L1893.07 280.667 L1897.96 280.667 L1908.91 309.764 L1919.88 280.667 L1924.74 280.667 L1911.57 315.227 L1906.27 315.227 Z" fill="#000000" fill-rule="evenodd" fill-opacity="1" /><path clip-path="url(#clip130)" d="M1942.98 283.838 Q1937.89 283.838 1934.88 287.635 Q1931.89 291.431 1931.89 297.982 Q1931.89 304.51 1934.88 308.306 Q1937.89 312.102 1942.98 312.102 Q1948.07 312.102 1951.04 308.306 Q1954.02 304.51 1954.02 297.982 Q1954.02 291.431 1951.04 287.635 Q1948.07 283.838 1942.98 283.838 M1942.98 280.042 Q1950.25 280.042 1954.6 284.926 Q1958.95 289.788 1958.95 297.982 Q1958.95 306.153 1954.6 311.037 Q1950.25 315.898 1942.98 315.898 Q1935.69 315.898 1931.32 311.037 Q1926.96 306.176 1926.96 297.982 Q1926.96 289.788 1931.32 284.926 Q1935.69 280.042 1942.98 280.042 Z" fill="#000000" fill-rule="evenodd" fill-opacity="1" /><path clip-path="url(#clip130)" d="M1970.94 284.51 L1970.94 311.385 L1976.59 311.385 Q1983.75 311.385 1987.06 308.144 Q1990.39 304.903 1990.39 297.912 Q1990.39 290.968 1987.06 287.75 Q1983.75 284.51 1976.59 284.51 L1970.94 284.51 M1966.27 280.667 L1975.87 280.667 Q1985.92 280.667 1990.62 284.857 Q1995.32 289.024 1995.32 297.912 Q1995.32 306.848 1990.6 311.037 Q1985.87 315.227 1975.87 315.227 L1966.27 315.227 L1966.27 280.667 Z" fill="#000000" fill-rule="evenodd" fill-opacity="1" /><path clip-path="url(#clip130)" d="M2002.77 280.667 L2024.62 280.667 L2024.62 284.602 L2007.45 284.602 L2007.45 294.834 L2023.91 294.834 L2023.91 298.769 L2007.45 298.769 L2007.45 311.292 L2025.04 311.292 L2025.04 315.227 L2002.77 315.227 L2002.77 280.667 Z" fill="#000000" fill-rule="evenodd" fill-opacity="1" /><path clip-path="url(#clip130)" d="M2052.24 323.098 L2052.24 326.408 L2027.61 326.408 L2027.61 323.098 L2052.24 323.098 Z" fill="#000000" fill-rule="evenodd" fill-opacity="1" /><path clip-path="url(#clip130)" d="M2061.11 298.723 L2061.11 311.385 L2068.61 311.385 Q2072.38 311.385 2074.18 309.834 Q2076.01 308.26 2076.01 305.042 Q2076.01 301.801 2074.18 300.274 Q2072.38 298.723 2068.61 298.723 L2061.11 298.723 M2061.11 284.51 L2061.11 294.926 L2068.03 294.926 Q2071.45 294.926 2073.12 293.653 Q2074.81 292.357 2074.81 289.718 Q2074.81 287.102 2073.12 285.806 Q2071.45 284.51 2068.03 284.51 L2061.11 284.51 M2056.43 280.667 L2068.37 280.667 Q2073.72 280.667 2076.62 282.889 Q2079.51 285.112 2079.51 289.209 Q2079.51 292.38 2078.03 294.255 Q2076.55 296.13 2073.68 296.593 Q2077.12 297.334 2079.02 299.695 Q2080.94 302.033 2080.94 305.551 Q2080.94 310.181 2077.8 312.704 Q2074.65 315.227 2068.84 315.227 L2056.43 315.227 L2056.43 280.667 Z" fill="#000000" fill-rule="evenodd" fill-opacity="1" /><path clip-path="url(#clip130)" d="M2093.63 284.51 L2093.63 311.385 L2099.28 311.385 Q2106.43 311.385 2109.74 308.144 Q2113.07 304.903 2113.07 297.912 Q2113.07 290.968 2109.74 287.75 Q2106.43 284.51 2099.28 284.51 L2093.63 284.51 M2088.95 280.667 L2098.56 280.667 Q2108.61 280.667 2113.3 284.857 Q2118 289.024 2118 297.912 Q2118 306.848 2113.28 311.037 Q2108.56 315.227 2098.56 315.227 L2088.95 315.227 L2088.95 280.667 Z" fill="#000000" fill-rule="evenodd" fill-opacity="1" /><path clip-path="url(#clip130)" d="M2125.46 280.667 L2145.32 280.667 L2145.32 284.602 L2130.13 284.602 L2130.13 294.787 L2143.84 294.787 L2143.84 298.723 L2130.13 298.723 L2130.13 315.227 L2125.46 315.227 L2125.46 280.667 Z" fill="#000000" fill-rule="evenodd" fill-opacity="1" /><polyline clip-path="url(#clip130)" style="stroke:#ac8d18; stroke-linecap:butt; stroke-linejoin:round; stroke-width:4; stroke-opacity:1; fill:none" points="
  1706.25,349.787 1839.98,349.787 
  "/>
<path clip-path="url(#clip130)" d="M1798.71 324.187 L1747.51 324.187 L1773.11 375.387 L1798.71 324.187 Z" fill="#ac8d18" fill-rule="evenodd" fill-opacity="1" stroke="#000000" stroke-opacity="1" stroke-width="4.9152"/>
<path clip-path="url(#clip130)" d="M1881.18 345.077 L1881.18 331.049 L1885.44 331.049 L1885.44 367.067 L1881.18 367.067 L1881.18 363.178 Q1879.83 365.493 1877.77 366.627 Q1875.74 367.738 1872.87 367.738 Q1868.17 367.738 1865.2 363.988 Q1862.26 360.239 1862.26 354.127 Q1862.26 348.016 1865.2 344.266 Q1868.17 340.516 1872.87 340.516 Q1875.74 340.516 1877.77 341.651 Q1879.83 342.762 1881.18 345.077 M1866.66 354.127 Q1866.66 358.826 1868.58 361.512 Q1870.53 364.174 1873.91 364.174 Q1877.29 364.174 1879.23 361.512 Q1881.18 358.826 1881.18 354.127 Q1881.18 349.428 1879.23 346.766 Q1877.29 344.081 1873.91 344.081 Q1870.53 344.081 1868.58 346.766 Q1866.66 349.428 1866.66 354.127 Z" fill="#000000" fill-rule="evenodd" fill-opacity="1" /><path clip-path="url(#clip130)" d="M1911.27 345.077 L1911.27 331.049 L1915.53 331.049 L1915.53 367.067 L1911.27 367.067 L1911.27 363.178 Q1909.93 365.493 1907.87 366.627 Q1905.83 367.738 1902.96 367.738 Q1898.26 367.738 1895.3 363.988 Q1892.36 360.239 1892.36 354.127 Q1892.36 348.016 1895.3 344.266 Q1898.26 340.516 1902.96 340.516 Q1905.83 340.516 1907.87 341.651 Q1909.93 342.762 1911.27 345.077 M1896.76 354.127 Q1896.76 358.826 1898.68 361.512 Q1900.62 364.174 1904 364.174 Q1907.38 364.174 1909.32 361.512 Q1911.27 358.826 1911.27 354.127 Q1911.27 349.428 1909.32 346.766 Q1907.38 344.081 1904 344.081 Q1900.62 344.081 1898.68 346.766 Q1896.76 349.428 1896.76 354.127 Z" fill="#000000" fill-rule="evenodd" fill-opacity="1" /><path clip-path="url(#clip130)" d="M1946.48 353.039 L1946.48 355.123 L1926.89 355.123 Q1927.17 359.521 1929.53 361.836 Q1931.92 364.127 1936.15 364.127 Q1938.61 364.127 1940.9 363.526 Q1943.21 362.924 1945.48 361.72 L1945.48 365.748 Q1943.19 366.72 1940.78 367.229 Q1938.38 367.738 1935.9 367.738 Q1929.69 367.738 1926.06 364.127 Q1922.45 360.516 1922.45 354.359 Q1922.45 347.993 1925.88 344.266 Q1929.32 340.516 1935.16 340.516 Q1940.39 340.516 1943.42 343.896 Q1946.48 347.252 1946.48 353.039 M1942.22 351.789 Q1942.17 348.294 1940.25 346.211 Q1938.35 344.127 1935.2 344.127 Q1931.64 344.127 1929.49 346.141 Q1927.36 348.155 1927.03 351.813 L1942.22 351.789 Z" fill="#000000" fill-rule="evenodd" fill-opacity="1" /><path clip-path="url(#clip130)" d="M1972.08 354.127 Q1972.08 349.428 1970.13 346.766 Q1968.21 344.081 1964.83 344.081 Q1961.45 344.081 1959.51 346.766 Q1957.59 349.428 1957.59 354.127 Q1957.59 358.826 1959.51 361.512 Q1961.45 364.174 1964.83 364.174 Q1968.21 364.174 1970.13 361.512 Q1972.08 358.826 1972.08 354.127 M1957.59 345.077 Q1958.93 342.762 1960.97 341.651 Q1963.03 340.516 1965.88 340.516 Q1970.6 340.516 1973.54 344.266 Q1976.5 348.016 1976.5 354.127 Q1976.5 360.239 1973.54 363.988 Q1970.6 367.738 1965.88 367.738 Q1963.03 367.738 1960.97 366.627 Q1958.93 365.493 1957.59 363.178 L1957.59 367.067 L1953.31 367.067 L1953.31 331.049 L1957.59 331.049 L1957.59 345.077 Z" fill="#000000" fill-rule="evenodd" fill-opacity="1" /><path clip-path="url(#clip130)" d="M2000.62 345.077 L2000.62 331.049 L2004.88 331.049 L2004.88 367.067 L2000.62 367.067 L2000.62 363.178 Q1999.28 365.493 1997.22 366.627 Q1995.18 367.738 1992.31 367.738 Q1987.61 367.738 1984.65 363.988 Q1981.71 360.239 1981.71 354.127 Q1981.71 348.016 1984.65 344.266 Q1987.61 340.516 1992.31 340.516 Q1995.18 340.516 1997.22 341.651 Q1999.28 342.762 2000.62 345.077 M1986.11 354.127 Q1986.11 358.826 1988.03 361.512 Q1989.97 364.174 1993.35 364.174 Q1996.73 364.174 1998.68 361.512 Q2000.62 358.826 2000.62 354.127 Q2000.62 349.428 1998.68 346.766 Q1996.73 344.081 1993.35 344.081 Q1989.97 344.081 1988.03 346.766 Q1986.11 349.428 1986.11 354.127 Z" fill="#000000" fill-rule="evenodd" fill-opacity="1" /><path clip-path="url(#clip130)" d="M2026.78 331.049 L2026.78 334.591 L2022.7 334.591 Q2020.41 334.591 2019.51 335.516 Q2018.63 336.442 2018.63 338.85 L2018.63 341.141 L2025.64 341.141 L2025.64 344.452 L2018.63 344.452 L2018.63 367.067 L2014.35 367.067 L2014.35 344.452 L2010.27 344.452 L2010.27 341.141 L2014.35 341.141 L2014.35 339.336 Q2014.35 335.007 2016.36 333.04 Q2018.37 331.049 2022.75 331.049 L2026.78 331.049 Z" fill="#000000" fill-rule="evenodd" fill-opacity="1" /><polyline clip-path="url(#clip130)" style="stroke:#00a9ad; stroke-linecap:butt; stroke-linejoin:round; stroke-width:4; stroke-opacity:1; fill:none" points="
  1706.25,401.627 1839.98,401.627 
  "/>
<path clip-path="url(#clip130)" d="M1773.11 376.027 L1753.1 385.678 L1748.15 407.336 L1762 424.693 L1784.22 424.693 L1798.07 407.336 L1793.13 385.678 Z" fill="#00a9ad" fill-rule="evenodd" fill-opacity="1" stroke="#000000" stroke-opacity="1" stroke-width="4.9152"/>
<path clip-path="url(#clip130)" d="M1878.65 402.704 Q1880.16 403.213 1881.57 404.879 Q1883.01 406.546 1884.44 409.463 L1889.19 418.907 L1884.16 418.907 L1879.74 410.041 Q1878.03 406.569 1876.41 405.435 Q1874.81 404.301 1872.03 404.301 L1866.94 404.301 L1866.94 418.907 L1862.26 418.907 L1862.26 384.347 L1872.82 384.347 Q1878.75 384.347 1881.66 386.824 Q1884.58 389.301 1884.58 394.301 Q1884.58 397.565 1883.05 399.717 Q1881.55 401.87 1878.65 402.704 M1866.94 388.19 L1866.94 400.458 L1872.82 400.458 Q1876.2 400.458 1877.91 398.907 Q1879.65 397.333 1879.65 394.301 Q1879.65 391.268 1877.91 389.741 Q1876.2 388.19 1872.82 388.19 L1866.94 388.19 Z" fill="#000000" fill-rule="evenodd" fill-opacity="1" /><path clip-path="url(#clip130)" d="M1902.94 395.967 Q1899.51 395.967 1897.52 398.653 Q1895.53 401.315 1895.53 405.967 Q1895.53 410.62 1897.5 413.305 Q1899.49 415.967 1902.94 415.967 Q1906.34 415.967 1908.33 413.282 Q1910.32 410.597 1910.32 405.967 Q1910.32 401.361 1908.33 398.676 Q1906.34 395.967 1902.94 395.967 M1902.94 392.356 Q1908.49 392.356 1911.66 395.967 Q1914.83 399.579 1914.83 405.967 Q1914.83 412.333 1911.66 415.967 Q1908.49 419.578 1902.94 419.578 Q1897.36 419.578 1894.19 415.967 Q1891.04 412.333 1891.04 405.967 Q1891.04 399.579 1894.19 395.967 Q1897.36 392.356 1902.94 392.356 Z" fill="#000000" fill-rule="evenodd" fill-opacity="1" /><path clip-path="url(#clip130)" d="M1938.95 396.917 L1938.95 382.889 L1943.21 382.889 L1943.21 418.907 L1938.95 418.907 L1938.95 415.018 Q1937.61 417.333 1935.55 418.467 Q1933.51 419.578 1930.64 419.578 Q1925.94 419.578 1922.98 415.828 Q1920.04 412.079 1920.04 405.967 Q1920.04 399.856 1922.98 396.106 Q1925.94 392.356 1930.64 392.356 Q1933.51 392.356 1935.55 393.491 Q1937.61 394.602 1938.95 396.917 M1924.44 405.967 Q1924.44 410.666 1926.36 413.352 Q1928.31 416.014 1931.69 416.014 Q1935.06 416.014 1937.01 413.352 Q1938.95 410.666 1938.95 405.967 Q1938.95 401.268 1937.01 398.606 Q1935.06 395.921 1931.69 395.921 Q1928.31 395.921 1926.36 398.606 Q1924.44 401.268 1924.44 405.967 Z" fill="#000000" fill-rule="evenodd" fill-opacity="1" /><path clip-path="url(#clip130)" d="M1963.77 405.875 Q1958.61 405.875 1956.62 407.055 Q1954.63 408.236 1954.63 411.083 Q1954.63 413.352 1956.11 414.694 Q1957.61 416.014 1960.18 416.014 Q1963.72 416.014 1965.85 413.514 Q1968 410.991 1968 406.824 L1968 405.875 L1963.77 405.875 M1972.26 404.116 L1972.26 418.907 L1968 418.907 L1968 414.972 Q1966.55 417.333 1964.37 418.467 Q1962.19 419.578 1959.05 419.578 Q1955.06 419.578 1952.7 417.356 Q1950.37 415.111 1950.37 411.361 Q1950.37 406.986 1953.28 404.764 Q1956.22 402.542 1962.03 402.542 L1968 402.542 L1968 402.125 Q1968 399.185 1966.06 397.588 Q1964.14 395.967 1960.64 395.967 Q1958.42 395.967 1956.31 396.5 Q1954.21 397.032 1952.26 398.097 L1952.26 394.162 Q1954.6 393.259 1956.8 392.819 Q1959 392.356 1961.08 392.356 Q1966.71 392.356 1969.49 395.273 Q1972.26 398.19 1972.26 404.116 Z" fill="#000000" fill-rule="evenodd" fill-opacity="1" /><path clip-path="url(#clip130)" d="M1997.56 393.745 L1997.56 397.773 Q1995.76 396.847 1993.81 396.384 Q1991.87 395.921 1989.79 395.921 Q1986.62 395.921 1985.02 396.893 Q1983.44 397.866 1983.44 399.81 Q1983.44 401.292 1984.58 402.148 Q1985.71 402.981 1989.14 403.745 L1990.6 404.069 Q1995.13 405.042 1997.03 406.824 Q1998.95 408.583 1998.95 411.754 Q1998.95 415.366 1996.08 417.472 Q1993.24 419.578 1988.24 419.578 Q1986.15 419.578 1983.88 419.162 Q1981.64 418.768 1979.14 417.958 L1979.14 413.56 Q1981.5 414.787 1983.79 415.412 Q1986.08 416.014 1988.33 416.014 Q1991.34 416.014 1992.96 414.995 Q1994.58 413.954 1994.58 412.079 Q1994.58 410.342 1993.4 409.416 Q1992.24 408.491 1988.28 407.634 L1986.8 407.287 Q1982.84 406.454 1981.08 404.741 Q1979.32 403.004 1979.32 399.995 Q1979.32 396.338 1981.92 394.347 Q1984.51 392.356 1989.28 392.356 Q1991.64 392.356 1993.72 392.704 Q1995.81 393.051 1997.56 393.745 Z" fill="#000000" fill-rule="evenodd" fill-opacity="1" /><path clip-path="url(#clip130)" d="M2006.38 384.347 L2024.74 384.347 L2024.74 388.282 L2010.67 388.282 L2010.67 396.755 Q2011.68 396.407 2012.7 396.245 Q2013.72 396.06 2014.74 396.06 Q2020.53 396.06 2023.91 399.231 Q2027.29 402.403 2027.29 407.819 Q2027.29 413.398 2023.81 416.5 Q2020.34 419.578 2014.02 419.578 Q2011.85 419.578 2009.58 419.208 Q2007.33 418.838 2004.93 418.097 L2004.93 413.398 Q2007.01 414.532 2009.23 415.088 Q2011.45 415.643 2013.93 415.643 Q2017.93 415.643 2020.27 413.537 Q2022.61 411.43 2022.61 407.819 Q2022.61 404.208 2020.27 402.102 Q2017.93 399.995 2013.93 399.995 Q2012.06 399.995 2010.18 400.412 Q2008.33 400.829 2006.38 401.708 L2006.38 384.347 Z" fill="#000000" fill-rule="evenodd" fill-opacity="1" /><polyline clip-path="url(#clip130)" style="stroke:#ed5d92; stroke-linecap:butt; stroke-linejoin:round; stroke-width:4; stroke-opacity:1; fill:none" points="
  1706.25,453.467 1839.98,453.467 
  "/>
<path clip-path="url(#clip130)" d="M1773.11 479.067 L1750.94 466.267 L1750.94 440.667 L1773.11 427.867 L1795.28 440.667 L1795.28 466.267 Z" fill="#ed5d92" fill-rule="evenodd" fill-opacity="1" stroke="#000000" stroke-opacity="1" stroke-width="4.9152"/>
<path clip-path="url(#clip130)" d="M1877.45 448.803 Q1876.73 448.386 1875.88 448.201 Q1875.04 447.993 1874.02 447.993 Q1870.41 447.993 1868.47 450.354 Q1866.55 452.692 1866.55 457.09 L1866.55 470.747 L1862.26 470.747 L1862.26 444.821 L1866.55 444.821 L1866.55 448.849 Q1867.89 446.488 1870.04 445.354 Q1872.19 444.196 1875.27 444.196 Q1875.71 444.196 1876.25 444.266 Q1876.78 444.312 1877.43 444.428 L1877.45 448.803 Z" fill="#000000" fill-rule="evenodd" fill-opacity="1" /><path clip-path="url(#clip130)" d="M1890.92 447.807 Q1887.5 447.807 1885.51 450.493 Q1883.51 453.155 1883.51 457.807 Q1883.51 462.46 1885.48 465.145 Q1887.47 467.807 1890.92 467.807 Q1894.32 467.807 1896.32 465.122 Q1898.31 462.437 1898.31 457.807 Q1898.31 453.201 1896.32 450.516 Q1894.32 447.807 1890.92 447.807 M1890.92 444.196 Q1896.48 444.196 1899.65 447.807 Q1902.82 451.419 1902.82 457.807 Q1902.82 464.173 1899.65 467.807 Q1896.48 471.418 1890.92 471.418 Q1885.34 471.418 1882.17 467.807 Q1879.02 464.173 1879.02 457.807 Q1879.02 451.419 1882.17 447.807 Q1885.34 444.196 1890.92 444.196 Z" fill="#000000" fill-rule="evenodd" fill-opacity="1" /><path clip-path="url(#clip130)" d="M1926.94 448.757 L1926.94 434.729 L1931.2 434.729 L1931.2 470.747 L1926.94 470.747 L1926.94 466.858 Q1925.6 469.173 1923.54 470.307 Q1921.5 471.418 1918.63 471.418 Q1913.93 471.418 1910.97 467.668 Q1908.03 463.919 1908.03 457.807 Q1908.03 451.696 1910.97 447.946 Q1913.93 444.196 1918.63 444.196 Q1921.5 444.196 1923.54 445.331 Q1925.6 446.442 1926.94 448.757 M1912.43 457.807 Q1912.43 462.506 1914.35 465.192 Q1916.29 467.854 1919.67 467.854 Q1923.05 467.854 1925 465.192 Q1926.94 462.506 1926.94 457.807 Q1926.94 453.108 1925 450.446 Q1923.05 447.761 1919.67 447.761 Q1916.29 447.761 1914.35 450.446 Q1912.43 453.108 1912.43 457.807 Z" fill="#000000" fill-rule="evenodd" fill-opacity="1" /><path clip-path="url(#clip130)" d="M1951.75 457.715 Q1946.59 457.715 1944.6 458.895 Q1942.61 460.076 1942.61 462.923 Q1942.61 465.192 1944.09 466.534 Q1945.6 467.854 1948.17 467.854 Q1951.71 467.854 1953.84 465.354 Q1955.99 462.831 1955.99 458.664 L1955.99 457.715 L1951.75 457.715 M1960.25 455.956 L1960.25 470.747 L1955.99 470.747 L1955.99 466.812 Q1954.53 469.173 1952.36 470.307 Q1950.18 471.418 1947.03 471.418 Q1943.05 471.418 1940.69 469.196 Q1938.35 466.951 1938.35 463.201 Q1938.35 458.826 1941.27 456.604 Q1944.21 454.382 1950.02 454.382 L1955.99 454.382 L1955.99 453.965 Q1955.99 451.025 1954.05 449.428 Q1952.13 447.807 1948.63 447.807 Q1946.41 447.807 1944.3 448.34 Q1942.19 448.872 1940.25 449.937 L1940.25 446.002 Q1942.59 445.099 1944.79 444.659 Q1946.99 444.196 1949.07 444.196 Q1954.69 444.196 1957.47 447.113 Q1960.25 450.03 1960.25 455.956 Z" fill="#000000" fill-rule="evenodd" fill-opacity="1" /><path clip-path="url(#clip130)" d="M1985.55 445.585 L1985.55 449.613 Q1983.75 448.687 1981.8 448.224 Q1979.86 447.761 1977.77 447.761 Q1974.6 447.761 1973 448.733 Q1971.43 449.706 1971.43 451.65 Q1971.43 453.132 1972.56 453.988 Q1973.7 454.821 1977.12 455.585 L1978.58 455.909 Q1983.12 456.882 1985.02 458.664 Q1986.94 460.423 1986.94 463.594 Q1986.94 467.206 1984.07 469.312 Q1981.22 471.418 1976.22 471.418 Q1974.14 471.418 1971.87 471.002 Q1969.62 470.608 1967.12 469.798 L1967.12 465.4 Q1969.49 466.627 1971.78 467.252 Q1974.07 467.854 1976.31 467.854 Q1979.32 467.854 1980.94 466.835 Q1982.56 465.794 1982.56 463.919 Q1982.56 462.182 1981.38 461.256 Q1980.23 460.331 1976.27 459.474 L1974.79 459.127 Q1970.83 458.294 1969.07 456.581 Q1967.31 454.844 1967.31 451.835 Q1967.31 448.178 1969.9 446.187 Q1972.5 444.196 1977.26 444.196 Q1979.62 444.196 1981.71 444.544 Q1983.79 444.891 1985.55 445.585 Z" fill="#000000" fill-rule="evenodd" fill-opacity="1" /><polyline clip-path="url(#clip130)" style="stroke:#c68125; stroke-linecap:butt; stroke-linejoin:round; stroke-width:4; stroke-opacity:1; fill:none" points="
  1706.25,505.307 1839.98,505.307 
  "/>
<line clip-path="url(#clip130)" x1="1798.71" y1="505.307" x2="1747.51" y2="505.307" style="stroke:#c68125; stroke-width:4.9152; stroke-opacity:1"/>
<path clip-path="url(#clip130)" d="M1877.45 500.643 Q1876.73 500.226 1875.88 500.041 Q1875.04 499.833 1874.02 499.833 Q1870.41 499.833 1868.47 502.194 Q1866.55 504.532 1866.55 508.93 L1866.55 522.587 L1862.26 522.587 L1862.26 496.661 L1866.55 496.661 L1866.55 500.689 Q1867.89 498.328 1870.04 497.194 Q1872.19 496.036 1875.27 496.036 Q1875.71 496.036 1876.25 496.106 Q1876.78 496.152 1877.43 496.268 L1877.45 500.643 Z" fill="#000000" fill-rule="evenodd" fill-opacity="1" /><path clip-path="url(#clip130)" d="M1893.7 509.555 Q1888.54 509.555 1886.55 510.735 Q1884.56 511.916 1884.56 514.763 Q1884.56 517.032 1886.04 518.374 Q1887.54 519.694 1890.11 519.694 Q1893.65 519.694 1895.78 517.194 Q1897.94 514.671 1897.94 510.504 L1897.94 509.555 L1893.7 509.555 M1902.19 507.796 L1902.19 522.587 L1897.94 522.587 L1897.94 518.652 Q1896.48 521.013 1894.3 522.147 Q1892.13 523.258 1888.98 523.258 Q1885 523.258 1882.63 521.036 Q1880.3 518.791 1880.3 515.041 Q1880.3 510.666 1883.21 508.444 Q1886.15 506.222 1891.96 506.222 L1897.94 506.222 L1897.94 505.805 Q1897.94 502.865 1895.99 501.268 Q1894.07 499.647 1890.57 499.647 Q1888.35 499.647 1886.25 500.18 Q1884.14 500.712 1882.19 501.777 L1882.19 497.842 Q1884.53 496.939 1886.73 496.499 Q1888.93 496.036 1891.01 496.036 Q1896.64 496.036 1899.42 498.953 Q1902.19 501.87 1902.19 507.796 Z" fill="#000000" fill-rule="evenodd" fill-opacity="1" /><path clip-path="url(#clip130)" d="M1928.03 500.597 L1928.03 486.569 L1932.29 486.569 L1932.29 522.587 L1928.03 522.587 L1928.03 518.698 Q1926.69 521.013 1924.63 522.147 Q1922.59 523.258 1919.72 523.258 Q1915.02 523.258 1912.06 519.508 Q1909.12 515.759 1909.12 509.647 Q1909.12 503.536 1912.06 499.786 Q1915.02 496.036 1919.72 496.036 Q1922.59 496.036 1924.63 497.171 Q1926.69 498.282 1928.03 500.597 M1913.51 509.647 Q1913.51 514.346 1915.44 517.032 Q1917.38 519.694 1920.76 519.694 Q1924.14 519.694 1926.08 517.032 Q1928.03 514.346 1928.03 509.647 Q1928.03 504.948 1926.08 502.286 Q1924.14 499.601 1920.76 499.601 Q1917.38 499.601 1915.44 502.286 Q1913.51 504.948 1913.51 509.647 Z" fill="#000000" fill-rule="evenodd" fill-opacity="1" /><path clip-path="url(#clip130)" d="M1952.84 509.555 Q1947.68 509.555 1945.69 510.735 Q1943.7 511.916 1943.7 514.763 Q1943.7 517.032 1945.18 518.374 Q1946.69 519.694 1949.25 519.694 Q1952.8 519.694 1954.93 517.194 Q1957.08 514.671 1957.08 510.504 L1957.08 509.555 L1952.84 509.555 M1961.34 507.796 L1961.34 522.587 L1957.08 522.587 L1957.08 518.652 Q1955.62 521.013 1953.44 522.147 Q1951.27 523.258 1948.12 523.258 Q1944.14 523.258 1941.78 521.036 Q1939.44 518.791 1939.44 515.041 Q1939.44 510.666 1942.36 508.444 Q1945.3 506.222 1951.11 506.222 L1957.08 506.222 L1957.08 505.805 Q1957.08 502.865 1955.13 501.268 Q1953.21 499.647 1949.72 499.647 Q1947.5 499.647 1945.39 500.18 Q1943.28 500.712 1941.34 501.777 L1941.34 497.842 Q1943.68 496.939 1945.88 496.499 Q1948.07 496.036 1950.16 496.036 Q1955.78 496.036 1958.56 498.953 Q1961.34 501.87 1961.34 507.796 Z" fill="#000000" fill-rule="evenodd" fill-opacity="1" /><path clip-path="url(#clip130)" d="M1969.67 512.356 L1969.67 496.661 L1973.93 496.661 L1973.93 512.194 Q1973.93 515.874 1975.37 517.726 Q1976.8 519.555 1979.67 519.555 Q1983.12 519.555 1985.11 517.356 Q1987.12 515.157 1987.12 511.36 L1987.12 496.661 L1991.38 496.661 L1991.38 522.587 L1987.12 522.587 L1987.12 518.606 Q1985.57 520.967 1983.51 522.124 Q1981.48 523.258 1978.77 523.258 Q1974.3 523.258 1971.99 520.481 Q1969.67 517.703 1969.67 512.356 M1980.39 496.036 L1980.39 496.036 Z" fill="#000000" fill-rule="evenodd" fill-opacity="1" /><polyline clip-path="url(#clip130)" style="stroke:#00a98d; stroke-linecap:butt; stroke-linejoin:round; stroke-width:4; stroke-opacity:1; fill:none" points="
  1706.25,557.147 1839.98,557.147 
  "/>
<path clip-path="url(#clip130)" d="M1752.63 557.147 L1783.35 575.067 L1783.35 539.227 L1752.63 557.147 Z" fill="#00a98d" fill-rule="evenodd" fill-opacity="1" stroke="#000000" stroke-opacity="1" stroke-width="4.9152"/>
<path clip-path="url(#clip130)" d="M1862.26 538.409 L1866.52 538.409 L1866.52 574.427 L1862.26 574.427 L1862.26 538.409 Z" fill="#000000" fill-rule="evenodd" fill-opacity="1" /><path clip-path="url(#clip130)" d="M1891.96 549.265 L1891.96 553.293 Q1890.16 552.367 1888.21 551.904 Q1886.27 551.441 1884.19 551.441 Q1881.01 551.441 1879.42 552.413 Q1877.84 553.386 1877.84 555.33 Q1877.84 556.812 1878.98 557.668 Q1880.11 558.501 1883.54 559.265 L1885 559.589 Q1889.53 560.562 1891.43 562.344 Q1893.35 564.103 1893.35 567.274 Q1893.35 570.886 1890.48 572.992 Q1887.63 575.098 1882.63 575.098 Q1880.55 575.098 1878.28 574.682 Q1876.04 574.288 1873.54 573.478 L1873.54 569.08 Q1875.9 570.307 1878.19 570.932 Q1880.48 571.534 1882.73 571.534 Q1885.74 571.534 1887.36 570.515 Q1888.98 569.474 1888.98 567.599 Q1888.98 565.862 1887.8 564.936 Q1886.64 564.011 1882.68 563.154 L1881.2 562.807 Q1877.24 561.974 1875.48 560.261 Q1873.72 558.524 1873.72 555.515 Q1873.72 551.858 1876.32 549.867 Q1878.91 547.876 1883.68 547.876 Q1886.04 547.876 1888.12 548.224 Q1890.2 548.571 1891.96 549.265 Z" fill="#000000" fill-rule="evenodd" fill-opacity="1" /><path clip-path="url(#clip130)" d="M1910.18 551.487 Q1906.75 551.487 1904.76 554.173 Q1902.77 556.835 1902.77 561.487 Q1902.77 566.14 1904.74 568.825 Q1906.73 571.487 1910.18 571.487 Q1913.58 571.487 1915.57 568.802 Q1917.57 566.117 1917.57 561.487 Q1917.57 556.881 1915.57 554.196 Q1913.58 551.487 1910.18 551.487 M1910.18 547.876 Q1915.74 547.876 1918.91 551.487 Q1922.08 555.099 1922.08 561.487 Q1922.08 567.853 1918.91 571.487 Q1915.74 575.098 1910.18 575.098 Q1904.6 575.098 1901.43 571.487 Q1898.28 567.853 1898.28 561.487 Q1898.28 555.099 1901.43 551.487 Q1904.6 547.876 1910.18 547.876 Z" fill="#000000" fill-rule="evenodd" fill-opacity="1" /><path clip-path="url(#clip130)" d="M1946.2 552.437 L1946.2 538.409 L1950.46 538.409 L1950.46 574.427 L1946.2 574.427 L1946.2 570.538 Q1944.86 572.853 1942.8 573.987 Q1940.76 575.098 1937.89 575.098 Q1933.19 575.098 1930.23 571.348 Q1927.29 567.599 1927.29 561.487 Q1927.29 555.376 1930.23 551.626 Q1933.19 547.876 1937.89 547.876 Q1940.76 547.876 1942.8 549.011 Q1944.86 550.122 1946.2 552.437 M1931.69 561.487 Q1931.69 566.186 1933.61 568.872 Q1935.55 571.534 1938.93 571.534 Q1942.31 571.534 1944.25 568.872 Q1946.2 566.186 1946.2 561.487 Q1946.2 556.788 1944.25 554.126 Q1942.31 551.441 1938.93 551.441 Q1935.55 551.441 1933.61 554.126 Q1931.69 556.788 1931.69 561.487 Z" fill="#000000" fill-rule="evenodd" fill-opacity="1" /><path clip-path="url(#clip130)" d="M1971.01 561.395 Q1965.85 561.395 1963.86 562.575 Q1961.87 563.756 1961.87 566.603 Q1961.87 568.872 1963.35 570.214 Q1964.86 571.534 1967.43 571.534 Q1970.97 571.534 1973.1 569.034 Q1975.25 566.511 1975.25 562.344 L1975.25 561.395 L1971.01 561.395 M1979.51 559.636 L1979.51 574.427 L1975.25 574.427 L1975.25 570.492 Q1973.79 572.853 1971.62 573.987 Q1969.44 575.098 1966.29 575.098 Q1962.31 575.098 1959.95 572.876 Q1957.61 570.631 1957.61 566.881 Q1957.61 562.506 1960.53 560.284 Q1963.47 558.062 1969.28 558.062 L1975.25 558.062 L1975.25 557.645 Q1975.25 554.705 1973.31 553.108 Q1971.38 551.487 1967.89 551.487 Q1965.67 551.487 1963.56 552.02 Q1961.45 552.552 1959.51 553.617 L1959.51 549.682 Q1961.85 548.779 1964.05 548.339 Q1966.25 547.876 1968.33 547.876 Q1973.95 547.876 1976.73 550.793 Q1979.51 553.71 1979.51 559.636 Z" fill="#000000" fill-rule="evenodd" fill-opacity="1" /><polyline clip-path="url(#clip130)" style="stroke:#8e971d; stroke-linecap:butt; stroke-linejoin:round; stroke-width:4; stroke-opacity:1; fill:none" points="
  1706.25,608.987 1839.98,608.987 
  "/>
<path clip-path="url(#clip130)" d="M1773.11 634.587 L1755.02 627.086 L1747.51 608.987 L1755.02 590.888 L1773.11 583.387 L1791.21 590.888 L1798.71 608.987 L1791.21 627.086 Z" fill="#8e971d" fill-rule="evenodd" fill-opacity="1" stroke="#000000" stroke-opacity="1" stroke-width="4.9152"/>
<path clip-path="url(#clip130)" d="M1878.65 610.064 Q1880.16 610.573 1881.57 612.239 Q1883.01 613.906 1884.44 616.823 L1889.19 626.267 L1884.16 626.267 L1879.74 617.401 Q1878.03 613.929 1876.41 612.795 Q1874.81 611.661 1872.03 611.661 L1866.94 611.661 L1866.94 626.267 L1862.26 626.267 L1862.26 591.707 L1872.82 591.707 Q1878.75 591.707 1881.66 594.184 Q1884.58 596.661 1884.58 601.661 Q1884.58 604.925 1883.05 607.077 Q1881.55 609.23 1878.65 610.064 M1866.94 595.55 L1866.94 607.818 L1872.82 607.818 Q1876.2 607.818 1877.91 606.267 Q1879.65 604.693 1879.65 601.661 Q1879.65 598.628 1877.91 597.101 Q1876.2 595.55 1872.82 595.55 L1866.94 595.55 Z" fill="#000000" fill-rule="evenodd" fill-opacity="1" /><path clip-path="url(#clip130)" d="M1905.76 613.235 Q1900.6 613.235 1898.61 614.415 Q1896.62 615.596 1896.62 618.443 Q1896.62 620.712 1898.1 622.054 Q1899.6 623.374 1902.17 623.374 Q1905.71 623.374 1907.84 620.874 Q1910 618.351 1910 614.184 L1910 613.235 L1905.76 613.235 M1914.25 611.476 L1914.25 626.267 L1910 626.267 L1910 622.332 Q1908.54 624.693 1906.36 625.827 Q1904.19 626.938 1901.04 626.938 Q1897.06 626.938 1894.69 624.716 Q1892.36 622.471 1892.36 618.721 Q1892.36 614.346 1895.27 612.124 Q1898.21 609.902 1904.02 609.902 L1910 609.902 L1910 609.485 Q1910 606.545 1908.05 604.948 Q1906.13 603.327 1902.63 603.327 Q1900.41 603.327 1898.31 603.86 Q1896.2 604.392 1894.26 605.457 L1894.26 601.522 Q1896.59 600.619 1898.79 600.179 Q1900.99 599.716 1903.07 599.716 Q1908.7 599.716 1911.48 602.633 Q1914.25 605.55 1914.25 611.476 Z" fill="#000000" fill-rule="evenodd" fill-opacity="1" /><path clip-path="url(#clip130)" d="M1940.09 604.277 L1940.09 590.249 L1944.35 590.249 L1944.35 626.267 L1940.09 626.267 L1940.09 622.378 Q1938.75 624.693 1936.69 625.827 Q1934.65 626.938 1931.78 626.938 Q1927.08 626.938 1924.12 623.188 Q1921.18 619.439 1921.18 613.327 Q1921.18 607.216 1924.12 603.466 Q1927.08 599.716 1931.78 599.716 Q1934.65 599.716 1936.69 600.851 Q1938.75 601.962 1940.09 604.277 M1925.57 613.327 Q1925.57 618.026 1927.5 620.712 Q1929.44 623.374 1932.82 623.374 Q1936.2 623.374 1938.14 620.712 Q1940.09 618.026 1940.09 613.327 Q1940.09 608.628 1938.14 605.966 Q1936.2 603.281 1932.82 603.281 Q1929.44 603.281 1927.5 605.966 Q1925.57 608.628 1925.57 613.327 Z" fill="#000000" fill-rule="evenodd" fill-opacity="1" /><path clip-path="url(#clip130)" d="M1964.9 613.235 Q1959.74 613.235 1957.75 614.415 Q1955.76 615.596 1955.76 618.443 Q1955.76 620.712 1957.24 622.054 Q1958.75 623.374 1961.31 623.374 Q1964.86 623.374 1966.99 620.874 Q1969.14 618.351 1969.14 614.184 L1969.14 613.235 L1964.9 613.235 M1973.4 611.476 L1973.4 626.267 L1969.14 626.267 L1969.14 622.332 Q1967.68 624.693 1965.5 625.827 Q1963.33 626.938 1960.18 626.938 Q1956.2 626.938 1953.84 624.716 Q1951.5 622.471 1951.5 618.721 Q1951.5 614.346 1954.42 612.124 Q1957.36 609.902 1963.17 609.902 L1969.14 609.902 L1969.14 609.485 Q1969.14 606.545 1967.19 604.948 Q1965.27 603.327 1961.78 603.327 Q1959.56 603.327 1957.45 603.86 Q1955.34 604.392 1953.4 605.457 L1953.4 601.522 Q1955.74 600.619 1957.94 600.179 Q1960.13 599.716 1962.22 599.716 Q1967.84 599.716 1970.62 602.633 Q1973.4 605.55 1973.4 611.476 Z" fill="#000000" fill-rule="evenodd" fill-opacity="1" /><path clip-path="url(#clip130)" d="M1981.73 616.036 L1981.73 600.341 L1985.99 600.341 L1985.99 615.874 Q1985.99 619.554 1987.43 621.406 Q1988.86 623.235 1991.73 623.235 Q1995.18 623.235 1997.17 621.036 Q1999.19 618.837 1999.19 615.04 L1999.19 600.341 L2003.44 600.341 L2003.44 626.267 L1999.19 626.267 L1999.19 622.286 Q1997.63 624.647 1995.57 625.804 Q1993.54 626.938 1990.83 626.938 Q1986.36 626.938 1984.05 624.161 Q1981.73 621.383 1981.73 616.036 M1992.45 599.716 L1992.45 599.716 Z" fill="#000000" fill-rule="evenodd" fill-opacity="1" /><path clip-path="url(#clip130)" d="M2012.4 591.707 L2017.08 591.707 L2017.08 626.267 L2012.4 626.267 L2012.4 591.707 Z" fill="#000000" fill-rule="evenodd" fill-opacity="1" /><path clip-path="url(#clip130)" d="M2026.38 591.707 L2031.06 591.707 L2031.06 626.267 L2026.38 626.267 L2026.38 591.707 Z" fill="#000000" fill-rule="evenodd" fill-opacity="1" /><path clip-path="url(#clip130)" d="M2051.92 596.314 L2045.57 613.513 L2058.28 613.513 L2051.92 596.314 M2049.28 591.707 L2054.58 591.707 L2067.75 626.267 L2062.89 626.267 L2059.74 617.401 L2044.16 617.401 L2041.01 626.267 L2036.08 626.267 L2049.28 591.707 Z" fill="#000000" fill-rule="evenodd" fill-opacity="1" /><path clip-path="url(#clip130)" d="M2073.26 591.707 L2091.62 591.707 L2091.62 595.642 L2077.54 595.642 L2077.54 604.115 Q2078.56 603.767 2079.58 603.605 Q2080.6 603.42 2081.62 603.42 Q2087.4 603.42 2090.78 606.591 Q2094.16 609.763 2094.16 615.179 Q2094.16 620.758 2090.69 623.86 Q2087.22 626.938 2080.9 626.938 Q2078.72 626.938 2076.45 626.568 Q2074.21 626.198 2071.8 625.457 L2071.8 620.758 Q2073.88 621.892 2076.11 622.448 Q2078.33 623.003 2080.8 623.003 Q2084.81 623.003 2087.15 620.897 Q2089.49 618.79 2089.49 615.179 Q2089.49 611.568 2087.15 609.462 Q2084.81 607.355 2080.8 607.355 Q2078.93 607.355 2077.05 607.772 Q2075.2 608.189 2073.26 609.068 L2073.26 591.707 Z" fill="#000000" fill-rule="evenodd" fill-opacity="1" /></svg>
