<?xml version="1.0" encoding="utf-8"?>
<svg xmlns="http://www.w3.org/2000/svg" xmlns:xlink="http://www.w3.org/1999/xlink" width="576" height="384" viewBox="0 0 2304 1536">
<defs>
  <clipPath id="clip410">
    <rect x="0" y="0" width="2304" height="1536"/>
  </clipPath>
</defs>
<path clip-path="url(#clip410)" d="
M0 1536 L2304 1536 L2304 0 L0 0  Z
  " fill="#ffffff" fill-rule="evenodd" fill-opacity="1"/>
<defs>
  <clipPath id="clip411">
    <rect x="460" y="0" width="1614" height="1536"/>
  </clipPath>
</defs>
<path clip-path="url(#clip410)" d="
M288.554 1347.54 L2256.76 1347.54 L2256.76 47.2441 L288.554 47.2441  Z
  " fill="#ffffff" fill-rule="evenodd" fill-opacity="1"/>
<defs>
  <clipPath id="clip412">
    <rect x="288" y="47" width="1969" height="1301"/>
  </clipPath>
</defs>
<polyline clip-path="url(#clip412)" style="stroke:#000000; stroke-linecap:butt; stroke-linejoin:round; stroke-width:2; stroke-opacity:0.1; fill:none" points="
  492.22,1347.54 492.22,47.2441 
  "/>
<polyline clip-path="url(#clip412)" style="stroke:#000000; stroke-linecap:butt; stroke-linejoin:round; stroke-width:2; stroke-opacity:0.1; fill:none" points="
  763.952,1347.54 763.952,47.2441 
  "/>
<polyline clip-path="url(#clip412)" style="stroke:#000000; stroke-linecap:butt; stroke-linejoin:round; stroke-width:2; stroke-opacity:0.1; fill:none" points="
  1035.68,1347.54 1035.68,47.2441 
  "/>
<polyline clip-path="url(#clip412)" style="stroke:#000000; stroke-linecap:butt; stroke-linejoin:round; stroke-width:2; stroke-opacity:0.1; fill:none" points="
  1307.42,1347.54 1307.42,47.2441 
  "/>
<polyline clip-path="url(#clip412)" style="stroke:#000000; stroke-linecap:butt; stroke-linejoin:round; stroke-width:2; stroke-opacity:0.1; fill:none" points="
  1579.15,1347.54 1579.15,47.2441 
  "/>
<polyline clip-path="url(#clip412)" style="stroke:#000000; stroke-linecap:butt; stroke-linejoin:round; stroke-width:2; stroke-opacity:0.1; fill:none" points="
  1850.88,1347.54 1850.88,47.2441 
  "/>
<polyline clip-path="url(#clip412)" style="stroke:#000000; stroke-linecap:butt; stroke-linejoin:round; stroke-width:2; stroke-opacity:0.1; fill:none" points="
  2122.61,1347.54 2122.61,47.2441 
  "/>
<polyline clip-path="url(#clip410)" style="stroke:#000000; stroke-linecap:butt; stroke-linejoin:round; stroke-width:4; stroke-opacity:1; fill:none" points="
  288.554,1347.54 2256.76,1347.54 
  "/>
<polyline clip-path="url(#clip410)" style="stroke:#000000; stroke-linecap:butt; stroke-linejoin:round; stroke-width:4; stroke-opacity:1; fill:none" points="
  492.22,1347.54 492.22,1328.64 
  "/>
<polyline clip-path="url(#clip410)" style="stroke:#000000; stroke-linecap:butt; stroke-linejoin:round; stroke-width:4; stroke-opacity:1; fill:none" points="
  763.952,1347.54 763.952,1328.64 
  "/>
<polyline clip-path="url(#clip410)" style="stroke:#000000; stroke-linecap:butt; stroke-linejoin:round; stroke-width:4; stroke-opacity:1; fill:none" points="
  1035.68,1347.54 1035.68,1328.64 
  "/>
<polyline clip-path="url(#clip410)" style="stroke:#000000; stroke-linecap:butt; stroke-linejoin:round; stroke-width:4; stroke-opacity:1; fill:none" points="
  1307.42,1347.54 1307.42,1328.64 
  "/>
<polyline clip-path="url(#clip410)" style="stroke:#000000; stroke-linecap:butt; stroke-linejoin:round; stroke-width:4; stroke-opacity:1; fill:none" points="
  1579.15,1347.54 1579.15,1328.64 
  "/>
<polyline clip-path="url(#clip410)" style="stroke:#000000; stroke-linecap:butt; stroke-linejoin:round; stroke-width:4; stroke-opacity:1; fill:none" points="
  1850.88,1347.54 1850.88,1328.64 
  "/>
<polyline clip-path="url(#clip410)" style="stroke:#000000; stroke-linecap:butt; stroke-linejoin:round; stroke-width:4; stroke-opacity:1; fill:none" points="
  2122.61,1347.54 2122.61,1328.64 
  "/>
<path clip-path="url(#clip410)" d="M430.232 1420.89 L437.871 1420.89 L437.871 1394.53 L429.561 1396.19 L429.561 1391.94 L437.825 1390.27 L442.501 1390.27 L442.501 1420.89 L450.14 1420.89 L450.14 1424.83 L430.232 1424.83 L430.232 1420.89 Z" fill="#000000" fill-rule="evenodd" fill-opacity="1" /><path clip-path="url(#clip410)" d="M469.584 1393.35 Q465.973 1393.35 464.144 1396.91 Q462.339 1400.45 462.339 1407.58 Q462.339 1414.69 464.144 1418.25 Q465.973 1421.8 469.584 1421.8 Q473.218 1421.8 475.024 1418.25 Q476.852 1414.69 476.852 1407.58 Q476.852 1400.45 475.024 1396.91 Q473.218 1393.35 469.584 1393.35 M469.584 1389.64 Q475.394 1389.64 478.45 1394.25 Q481.528 1398.83 481.528 1407.58 Q481.528 1416.31 478.45 1420.92 Q475.394 1425.5 469.584 1425.5 Q463.774 1425.5 460.695 1420.92 Q457.64 1416.31 457.64 1407.58 Q457.64 1398.83 460.695 1394.25 Q463.774 1389.64 469.584 1389.64 Z" fill="#000000" fill-rule="evenodd" fill-opacity="1" /><path clip-path="url(#clip410)" d="M481.528 1383.74 L505.64 1383.74 L505.64 1386.94 L481.528 1386.94 L481.528 1383.74 Z" fill="#000000" fill-rule="evenodd" fill-opacity="1" /><path clip-path="url(#clip410)" d="M514.498 1394.22 L520.705 1394.22 L520.705 1372.8 L513.953 1374.15 L513.953 1370.69 L520.667 1369.34 L524.466 1369.34 L524.466 1394.22 L530.673 1394.22 L530.673 1397.42 L514.498 1397.42 L514.498 1394.22 Z" fill="#000000" fill-rule="evenodd" fill-opacity="1" /><path clip-path="url(#clip410)" d="M541.619 1394.22 L554.879 1394.22 L554.879 1397.42 L537.049 1397.42 L537.049 1394.22 Q539.212 1391.98 542.936 1388.22 Q546.678 1384.44 547.638 1383.35 Q549.462 1381.3 550.177 1379.89 Q550.91 1378.46 550.91 1377.09 Q550.91 1374.85 549.33 1373.44 Q547.769 1372.03 545.249 1372.03 Q543.462 1372.03 541.469 1372.65 Q539.494 1373.27 537.237 1374.53 L537.237 1370.69 Q539.531 1369.77 541.525 1369.3 Q543.519 1368.83 545.174 1368.83 Q549.537 1368.83 552.133 1371.01 Q554.728 1373.19 554.728 1376.84 Q554.728 1378.57 554.07 1380.13 Q553.43 1381.68 551.719 1383.78 Q551.249 1384.33 548.728 1386.94 Q546.208 1389.54 541.619 1394.22 Z" fill="#000000" fill-rule="evenodd" fill-opacity="1" /><path clip-path="url(#clip410)" d="M701.814 1420.89 L709.453 1420.89 L709.453 1394.53 L701.143 1396.19 L701.143 1391.94 L709.407 1390.27 L714.083 1390.27 L714.083 1420.89 L721.721 1420.89 L721.721 1424.83 L701.814 1424.83 L701.814 1420.89 Z" fill="#000000" fill-rule="evenodd" fill-opacity="1" /><path clip-path="url(#clip410)" d="M741.166 1393.35 Q737.555 1393.35 735.726 1396.91 Q733.92 1400.45 733.92 1407.58 Q733.92 1414.69 735.726 1418.25 Q737.555 1421.8 741.166 1421.8 Q744.8 1421.8 746.606 1418.25 Q748.434 1414.69 748.434 1407.58 Q748.434 1400.45 746.606 1396.91 Q744.8 1393.35 741.166 1393.35 M741.166 1389.64 Q746.976 1389.64 750.032 1394.25 Q753.11 1398.83 753.11 1407.58 Q753.11 1416.31 750.032 1420.92 Q746.976 1425.5 741.166 1425.5 Q735.356 1425.5 732.277 1420.92 Q729.221 1416.31 729.221 1407.58 Q729.221 1398.83 732.277 1394.25 Q735.356 1389.64 741.166 1389.64 Z" fill="#000000" fill-rule="evenodd" fill-opacity="1" /><path clip-path="url(#clip410)" d="M753.11 1383.74 L777.222 1383.74 L777.222 1386.94 L753.11 1386.94 L753.11 1383.74 Z" fill="#000000" fill-rule="evenodd" fill-opacity="1" /><path clip-path="url(#clip410)" d="M786.08 1394.22 L792.287 1394.22 L792.287 1372.8 L785.535 1374.15 L785.535 1370.69 L792.249 1369.34 L796.048 1369.34 L796.048 1394.22 L802.255 1394.22 L802.255 1397.42 L786.08 1397.42 L786.08 1394.22 Z" fill="#000000" fill-rule="evenodd" fill-opacity="1" /><path clip-path="url(#clip410)" d="M810.587 1394.22 L816.793 1394.22 L816.793 1372.8 L810.041 1374.15 L810.041 1370.69 L816.756 1369.34 L820.555 1369.34 L820.555 1394.22 L826.761 1394.22 L826.761 1397.42 L810.587 1397.42 L810.587 1394.22 Z" fill="#000000" fill-rule="evenodd" fill-opacity="1" /><path clip-path="url(#clip410)" d="M973.048 1420.89 L980.687 1420.89 L980.687 1394.53 L972.377 1396.19 L972.377 1391.94 L980.641 1390.27 L985.317 1390.27 L985.317 1420.89 L992.955 1420.89 L992.955 1424.83 L973.048 1424.83 L973.048 1420.89 Z" fill="#000000" fill-rule="evenodd" fill-opacity="1" /><path clip-path="url(#clip410)" d="M1012.4 1393.35 Q1008.79 1393.35 1006.96 1396.91 Q1005.15 1400.45 1005.15 1407.58 Q1005.15 1414.69 1006.96 1418.25 Q1008.79 1421.8 1012.4 1421.8 Q1016.03 1421.8 1017.84 1418.25 Q1019.67 1414.69 1019.67 1407.58 Q1019.67 1400.45 1017.84 1396.91 Q1016.03 1393.35 1012.4 1393.35 M1012.4 1389.64 Q1018.21 1389.64 1021.27 1394.25 Q1024.34 1398.83 1024.34 1407.58 Q1024.34 1416.31 1021.27 1420.92 Q1018.21 1425.5 1012.4 1425.5 Q1006.59 1425.5 1003.51 1420.92 Q1000.46 1416.31 1000.46 1407.58 Q1000.46 1398.83 1003.51 1394.25 Q1006.59 1389.64 1012.4 1389.64 Z" fill="#000000" fill-rule="evenodd" fill-opacity="1" /><path clip-path="url(#clip410)" d="M1024.34 1383.74 L1048.46 1383.74 L1048.46 1386.94 L1024.34 1386.94 L1024.34 1383.74 Z" fill="#000000" fill-rule="evenodd" fill-opacity="1" /><path clip-path="url(#clip410)" d="M1057.31 1394.22 L1063.52 1394.22 L1063.52 1372.8 L1056.77 1374.15 L1056.77 1370.69 L1063.48 1369.34 L1067.28 1369.34 L1067.28 1394.22 L1073.49 1394.22 L1073.49 1397.42 L1057.31 1397.42 L1057.31 1394.22 Z" fill="#000000" fill-rule="evenodd" fill-opacity="1" /><path clip-path="url(#clip410)" d="M1089.29 1371.84 Q1086.35 1371.84 1084.87 1374.74 Q1083.4 1377.61 1083.4 1383.41 Q1083.4 1389.18 1084.87 1392.08 Q1086.35 1394.95 1089.29 1394.95 Q1092.24 1394.95 1093.71 1392.08 Q1095.19 1389.18 1095.19 1383.41 Q1095.19 1377.61 1093.71 1374.74 Q1092.24 1371.84 1089.29 1371.84 M1089.29 1368.83 Q1094.01 1368.83 1096.49 1372.57 Q1098.99 1376.3 1098.99 1383.41 Q1098.99 1390.5 1096.49 1394.24 Q1094.01 1397.96 1089.29 1397.96 Q1084.57 1397.96 1082.07 1394.24 Q1079.58 1390.5 1079.58 1383.41 Q1079.58 1376.3 1082.07 1372.57 Q1084.57 1368.83 1089.29 1368.83 Z" fill="#000000" fill-rule="evenodd" fill-opacity="1" /><path clip-path="url(#clip410)" d="M1257.11 1420.89 L1264.75 1420.89 L1264.75 1394.53 L1256.44 1396.19 L1256.44 1391.94 L1264.7 1390.27 L1269.38 1390.27 L1269.38 1420.89 L1277.02 1420.89 L1277.02 1424.83 L1257.11 1424.83 L1257.11 1420.89 Z" fill="#000000" fill-rule="evenodd" fill-opacity="1" /><path clip-path="url(#clip410)" d="M1296.46 1393.35 Q1292.85 1393.35 1291.02 1396.91 Q1289.22 1400.45 1289.22 1407.58 Q1289.22 1414.69 1291.02 1418.25 Q1292.85 1421.8 1296.46 1421.8 Q1300.09 1421.8 1301.9 1418.25 Q1303.73 1414.69 1303.73 1407.58 Q1303.73 1400.45 1301.9 1396.91 Q1300.09 1393.35 1296.46 1393.35 M1296.46 1389.64 Q1302.27 1389.64 1305.33 1394.25 Q1308.41 1398.83 1308.41 1407.58 Q1308.41 1416.31 1305.33 1420.92 Q1302.27 1425.5 1296.46 1425.5 Q1290.65 1425.5 1287.57 1420.92 Q1284.52 1416.31 1284.52 1407.58 Q1284.52 1398.83 1287.57 1394.25 Q1290.65 1389.64 1296.46 1389.64 Z" fill="#000000" fill-rule="evenodd" fill-opacity="1" /><path clip-path="url(#clip410)" d="M1308.41 1383.74 L1332.52 1383.74 L1332.52 1386.94 L1308.41 1386.94 L1308.41 1383.74 Z" fill="#000000" fill-rule="evenodd" fill-opacity="1" /><path clip-path="url(#clip410)" d="M1340.83 1396.84 L1340.83 1393.37 Q1342.26 1394.05 1343.73 1394.41 Q1345.19 1394.77 1346.6 1394.77 Q1350.37 1394.77 1352.34 1392.25 Q1354.33 1389.71 1354.62 1384.55 Q1353.52 1386.17 1351.85 1387.04 Q1350.18 1387.9 1348.15 1387.9 Q1343.93 1387.9 1341.47 1385.36 Q1339.02 1382.8 1339.02 1378.38 Q1339.02 1374.06 1341.58 1371.44 Q1344.14 1368.83 1348.39 1368.83 Q1353.26 1368.83 1355.82 1372.57 Q1358.4 1376.3 1358.4 1383.41 Q1358.4 1390.05 1355.24 1394.01 Q1352.1 1397.96 1346.77 1397.96 Q1345.34 1397.96 1343.88 1397.68 Q1342.41 1397.4 1340.83 1396.84 M1348.39 1384.93 Q1350.95 1384.93 1352.43 1383.18 Q1353.94 1381.43 1353.94 1378.38 Q1353.94 1375.36 1352.43 1373.61 Q1350.95 1371.84 1348.39 1371.84 Q1345.83 1371.84 1344.33 1373.61 Q1342.84 1375.36 1342.84 1378.38 Q1342.84 1381.43 1344.33 1383.18 Q1345.83 1384.93 1348.39 1384.93 Z" fill="#000000" fill-rule="evenodd" fill-opacity="1" /><path clip-path="url(#clip410)" d="M1528.8 1420.89 L1536.44 1420.89 L1536.44 1394.53 L1528.13 1396.19 L1528.13 1391.94 L1536.4 1390.27 L1541.07 1390.27 L1541.07 1420.89 L1548.71 1420.89 L1548.71 1424.83 L1528.8 1424.83 L1528.8 1420.89 Z" fill="#000000" fill-rule="evenodd" fill-opacity="1" /><path clip-path="url(#clip410)" d="M1568.16 1393.35 Q1564.54 1393.35 1562.72 1396.91 Q1560.91 1400.45 1560.91 1407.58 Q1560.91 1414.69 1562.72 1418.25 Q1564.54 1421.8 1568.16 1421.8 Q1571.79 1421.8 1573.6 1418.25 Q1575.42 1414.69 1575.42 1407.58 Q1575.42 1400.45 1573.6 1396.91 Q1571.79 1393.35 1568.16 1393.35 M1568.16 1389.64 Q1573.97 1389.64 1577.02 1394.25 Q1580.1 1398.83 1580.1 1407.58 Q1580.1 1416.31 1577.02 1420.92 Q1573.97 1425.5 1568.16 1425.5 Q1562.35 1425.5 1559.27 1420.92 Q1556.21 1416.31 1556.21 1407.58 Q1556.21 1398.83 1559.27 1394.25 Q1562.35 1389.64 1568.16 1389.64 Z" fill="#000000" fill-rule="evenodd" fill-opacity="1" /><path clip-path="url(#clip410)" d="M1580.1 1383.74 L1604.21 1383.74 L1604.21 1386.94 L1580.1 1386.94 L1580.1 1383.74 Z" fill="#000000" fill-rule="evenodd" fill-opacity="1" /><path clip-path="url(#clip410)" d="M1620.54 1384.08 Q1617.83 1384.08 1616.27 1385.53 Q1614.72 1386.98 1614.72 1389.52 Q1614.72 1392.06 1616.27 1393.51 Q1617.83 1394.95 1620.54 1394.95 Q1623.24 1394.95 1624.81 1393.51 Q1626.37 1392.04 1626.37 1389.52 Q1626.37 1386.98 1624.81 1385.53 Q1623.26 1384.08 1620.54 1384.08 M1616.74 1382.47 Q1614.29 1381.86 1612.92 1380.19 Q1611.57 1378.52 1611.57 1376.11 Q1611.57 1372.74 1613.95 1370.79 Q1616.36 1368.83 1620.54 1368.83 Q1624.73 1368.83 1627.12 1370.79 Q1629.51 1372.74 1629.51 1376.11 Q1629.51 1378.52 1628.13 1380.19 Q1626.78 1381.86 1624.35 1382.47 Q1627.1 1383.11 1628.62 1384.97 Q1630.17 1386.83 1630.17 1389.52 Q1630.17 1393.6 1627.66 1395.78 Q1625.18 1397.96 1620.54 1397.96 Q1615.89 1397.96 1613.39 1395.78 Q1610.91 1393.6 1610.91 1389.52 Q1610.91 1386.83 1612.45 1384.97 Q1613.99 1383.11 1616.74 1382.47 M1615.35 1376.47 Q1615.35 1378.65 1616.7 1379.87 Q1618.07 1381.09 1620.54 1381.09 Q1622.98 1381.09 1624.35 1379.87 Q1625.75 1378.65 1625.75 1376.47 Q1625.75 1374.28 1624.35 1373.06 Q1622.98 1371.84 1620.54 1371.84 Q1618.07 1371.84 1616.7 1373.06 Q1615.35 1374.28 1615.35 1376.47 Z" fill="#000000" fill-rule="evenodd" fill-opacity="1" /><path clip-path="url(#clip410)" d="M1800.87 1420.89 L1808.5 1420.89 L1808.5 1394.53 L1800.19 1396.19 L1800.19 1391.94 L1808.46 1390.27 L1813.13 1390.27 L1813.13 1420.89 L1820.77 1420.89 L1820.77 1424.83 L1800.87 1424.83 L1800.87 1420.89 Z" fill="#000000" fill-rule="evenodd" fill-opacity="1" /><path clip-path="url(#clip410)" d="M1840.22 1393.35 Q1836.61 1393.35 1834.78 1396.91 Q1832.97 1400.45 1832.97 1407.58 Q1832.97 1414.69 1834.78 1418.25 Q1836.61 1421.8 1840.22 1421.8 Q1843.85 1421.8 1845.66 1418.25 Q1847.49 1414.69 1847.49 1407.58 Q1847.49 1400.45 1845.66 1396.91 Q1843.85 1393.35 1840.22 1393.35 M1840.22 1389.64 Q1846.03 1389.64 1849.08 1394.25 Q1852.16 1398.83 1852.16 1407.58 Q1852.16 1416.31 1849.08 1420.92 Q1846.03 1425.5 1840.22 1425.5 Q1834.41 1425.5 1831.33 1420.92 Q1828.27 1416.31 1828.27 1407.58 Q1828.27 1398.83 1831.33 1394.25 Q1834.41 1389.64 1840.22 1389.64 Z" fill="#000000" fill-rule="evenodd" fill-opacity="1" /><path clip-path="url(#clip410)" d="M1852.16 1383.74 L1876.27 1383.74 L1876.27 1386.94 L1852.16 1386.94 L1852.16 1383.74 Z" fill="#000000" fill-rule="evenodd" fill-opacity="1" /><path clip-path="url(#clip410)" d="M1883.51 1369.34 L1901.57 1369.34 L1901.57 1370.96 L1891.38 1397.42 L1887.41 1397.42 L1897 1372.54 L1883.51 1372.54 L1883.51 1369.34 Z" fill="#000000" fill-rule="evenodd" fill-opacity="1" /><path clip-path="url(#clip410)" d="M2072.17 1420.89 L2079.8 1420.89 L2079.8 1394.53 L2071.49 1396.19 L2071.49 1391.94 L2079.76 1390.27 L2084.43 1390.27 L2084.43 1420.89 L2092.07 1420.89 L2092.07 1424.83 L2072.17 1424.83 L2072.17 1420.89 Z" fill="#000000" fill-rule="evenodd" fill-opacity="1" /><path clip-path="url(#clip410)" d="M2111.52 1393.35 Q2107.91 1393.35 2106.08 1396.91 Q2104.27 1400.45 2104.27 1407.58 Q2104.27 1414.69 2106.08 1418.25 Q2107.91 1421.8 2111.52 1421.8 Q2115.15 1421.8 2116.96 1418.25 Q2118.79 1414.69 2118.79 1407.58 Q2118.79 1400.45 2116.96 1396.91 Q2115.15 1393.35 2111.52 1393.35 M2111.52 1389.64 Q2117.33 1389.64 2120.38 1394.25 Q2123.46 1398.83 2123.46 1407.58 Q2123.46 1416.31 2120.38 1420.92 Q2117.33 1425.5 2111.52 1425.5 Q2105.71 1425.5 2102.63 1420.92 Q2099.57 1416.31 2099.57 1407.58 Q2099.57 1398.83 2102.63 1394.25 Q2105.71 1389.64 2111.52 1389.64 Z" fill="#000000" fill-rule="evenodd" fill-opacity="1" /><path clip-path="url(#clip410)" d="M2123.46 1383.74 L2147.57 1383.74 L2147.57 1386.94 L2123.46 1386.94 L2123.46 1383.74 Z" fill="#000000" fill-rule="evenodd" fill-opacity="1" /><path clip-path="url(#clip410)" d="M2164.37 1381.86 Q2161.81 1381.86 2160.31 1383.61 Q2158.82 1385.36 2158.82 1388.41 Q2158.82 1391.44 2160.31 1393.21 Q2161.81 1394.95 2164.37 1394.95 Q2166.93 1394.95 2168.41 1393.21 Q2169.92 1391.44 2169.92 1388.41 Q2169.92 1385.36 2168.41 1383.61 Q2166.93 1381.86 2164.37 1381.86 M2171.91 1369.96 L2171.91 1373.42 Q2170.48 1372.74 2169.01 1372.39 Q2167.57 1372.03 2166.14 1372.03 Q2162.37 1372.03 2160.38 1374.57 Q2158.41 1377.11 2158.12 1382.24 Q2159.23 1380.6 2160.91 1379.74 Q2162.58 1378.85 2164.59 1378.85 Q2168.83 1378.85 2171.27 1381.43 Q2173.73 1383.99 2173.73 1388.41 Q2173.73 1392.74 2171.18 1395.35 Q2168.62 1397.96 2164.37 1397.96 Q2159.5 1397.96 2156.92 1394.24 Q2154.34 1390.5 2154.34 1383.41 Q2154.34 1376.75 2157.5 1372.8 Q2160.66 1368.83 2165.99 1368.83 Q2167.41 1368.83 2168.86 1369.11 Q2170.33 1369.39 2171.91 1369.96 Z" fill="#000000" fill-rule="evenodd" fill-opacity="1" /><path clip-path="url(#clip410)" d="M1196.41 1461.87 L1226.46 1461.87 L1226.46 1467.28 L1202.84 1467.28 L1202.84 1481.34 L1225.47 1481.34 L1225.47 1486.76 L1202.84 1486.76 L1202.84 1503.97 L1227.03 1503.97 L1227.03 1509.39 L1196.41 1509.39 L1196.41 1461.87 Z" fill="#000000" fill-rule="evenodd" fill-opacity="1" /><path clip-path="url(#clip410)" d="M1258 1479.21 Q1257.01 1478.64 1255.83 1478.38 Q1254.69 1478.1 1253.29 1478.1 Q1248.32 1478.1 1245.65 1481.34 Q1243.01 1484.56 1243.01 1490.61 L1243.01 1509.39 L1237.12 1509.39 L1237.12 1473.74 L1243.01 1473.74 L1243.01 1479.28 Q1244.85 1476.03 1247.81 1474.47 Q1250.77 1472.88 1255.01 1472.88 Q1255.61 1472.88 1256.34 1472.97 Q1257.08 1473.04 1257.97 1473.2 L1258 1479.21 Z" fill="#000000" fill-rule="evenodd" fill-opacity="1" /><path clip-path="url(#clip410)" d="M1283.65 1479.21 Q1282.67 1478.64 1281.49 1478.38 Q1280.34 1478.1 1278.94 1478.1 Q1273.98 1478.1 1271.3 1481.34 Q1268.66 1484.56 1268.66 1490.61 L1268.66 1509.39 L1262.77 1509.39 L1262.77 1473.74 L1268.66 1473.74 L1268.66 1479.28 Q1270.51 1476.03 1273.47 1474.47 Q1276.43 1472.88 1280.66 1472.88 Q1281.26 1472.88 1282 1472.97 Q1282.73 1473.04 1283.62 1473.2 L1283.65 1479.21 Z" fill="#000000" fill-rule="evenodd" fill-opacity="1" /><path clip-path="url(#clip410)" d="M1302.18 1477.84 Q1297.47 1477.84 1294.73 1481.54 Q1291.99 1485.2 1291.99 1491.59 Q1291.99 1497.99 1294.7 1501.68 Q1297.43 1505.34 1302.18 1505.34 Q1306.85 1505.34 1309.59 1501.65 Q1312.33 1497.96 1312.33 1491.59 Q1312.33 1485.26 1309.59 1481.57 Q1306.85 1477.84 1302.18 1477.84 M1302.18 1472.88 Q1309.81 1472.88 1314.18 1477.84 Q1318.54 1482.81 1318.54 1491.59 Q1318.54 1500.35 1314.18 1505.34 Q1309.81 1510.31 1302.18 1510.31 Q1294.51 1510.31 1290.14 1505.34 Q1285.82 1500.35 1285.82 1491.59 Q1285.82 1482.81 1290.14 1477.84 Q1294.51 1472.88 1302.18 1472.88 Z" fill="#000000" fill-rule="evenodd" fill-opacity="1" /><path clip-path="url(#clip410)" d="M1348.9 1479.21 Q1347.91 1478.64 1346.74 1478.38 Q1345.59 1478.1 1344.19 1478.1 Q1339.22 1478.1 1336.55 1481.34 Q1333.91 1484.56 1333.91 1490.61 L1333.91 1509.39 L1328.02 1509.39 L1328.02 1473.74 L1333.91 1473.74 L1333.91 1479.28 Q1335.76 1476.03 1338.72 1474.47 Q1341.68 1472.88 1345.91 1472.88 Q1346.51 1472.88 1347.25 1472.97 Q1347.98 1473.04 1348.87 1473.2 L1348.9 1479.21 Z" fill="#000000" fill-rule="evenodd" fill-opacity="1" /><polyline clip-path="url(#clip412)" style="stroke:#000000; stroke-linecap:butt; stroke-linejoin:round; stroke-width:2; stroke-opacity:0.1; fill:none" points="
  288.554,1056.4 2256.76,1056.4 
  "/>
<polyline clip-path="url(#clip412)" style="stroke:#000000; stroke-linecap:butt; stroke-linejoin:round; stroke-width:2; stroke-opacity:0.1; fill:none" points="
  288.554,759.71 2256.76,759.71 
  "/>
<polyline clip-path="url(#clip412)" style="stroke:#000000; stroke-linecap:butt; stroke-linejoin:round; stroke-width:2; stroke-opacity:0.1; fill:none" points="
  288.554,463.025 2256.76,463.025 
  "/>
<polyline clip-path="url(#clip412)" style="stroke:#000000; stroke-linecap:butt; stroke-linejoin:round; stroke-width:2; stroke-opacity:0.1; fill:none" points="
  288.554,166.339 2256.76,166.339 
  "/>
<polyline clip-path="url(#clip410)" style="stroke:#000000; stroke-linecap:butt; stroke-linejoin:round; stroke-width:4; stroke-opacity:1; fill:none" points="
  288.554,1347.54 288.554,47.2441 
  "/>
<polyline clip-path="url(#clip410)" style="stroke:#000000; stroke-linecap:butt; stroke-linejoin:round; stroke-width:4; stroke-opacity:1; fill:none" points="
  288.554,1056.4 307.452,1056.4 
  "/>
<polyline clip-path="url(#clip410)" style="stroke:#000000; stroke-linecap:butt; stroke-linejoin:round; stroke-width:4; stroke-opacity:1; fill:none" points="
  288.554,759.71 307.452,759.71 
  "/>
<polyline clip-path="url(#clip410)" style="stroke:#000000; stroke-linecap:butt; stroke-linejoin:round; stroke-width:4; stroke-opacity:1; fill:none" points="
  288.554,463.025 307.452,463.025 
  "/>
<polyline clip-path="url(#clip410)" style="stroke:#000000; stroke-linecap:butt; stroke-linejoin:round; stroke-width:4; stroke-opacity:1; fill:none" points="
  288.554,166.339 307.452,166.339 
  "/>
<path clip-path="url(#clip410)" d="M116.333 1076.19 L123.972 1076.19 L123.972 1049.82 L115.662 1051.49 L115.662 1047.23 L123.926 1045.56 L128.601 1045.56 L128.601 1076.19 L136.24 1076.19 L136.24 1080.12 L116.333 1080.12 L116.333 1076.19 Z" fill="#000000" fill-rule="evenodd" fill-opacity="1" /><path clip-path="url(#clip410)" d="M155.685 1048.64 Q152.074 1048.64 150.245 1052.21 Q148.439 1055.75 148.439 1062.88 Q148.439 1069.98 150.245 1073.55 Q152.074 1077.09 155.685 1077.09 Q159.319 1077.09 161.124 1073.55 Q162.953 1069.98 162.953 1062.88 Q162.953 1055.75 161.124 1052.21 Q159.319 1048.64 155.685 1048.64 M155.685 1044.94 Q161.495 1044.94 164.55 1049.54 Q167.629 1054.13 167.629 1062.88 Q167.629 1071.6 164.55 1076.21 Q161.495 1080.79 155.685 1080.79 Q149.875 1080.79 146.796 1076.21 Q143.74 1071.6 143.74 1062.88 Q143.74 1054.13 146.796 1049.54 Q149.875 1044.94 155.685 1044.94 Z" fill="#000000" fill-rule="evenodd" fill-opacity="1" /><path clip-path="url(#clip410)" d="M167.629 1039.04 L191.741 1039.04 L191.741 1042.24 L167.629 1042.24 L167.629 1039.04 Z" fill="#000000" fill-rule="evenodd" fill-opacity="1" /><path clip-path="url(#clip410)" d="M211.451 1037.57 Q214.178 1038.16 215.702 1040 Q217.244 1041.84 217.244 1044.55 Q217.244 1048.71 214.385 1050.98 Q211.526 1053.26 206.26 1053.26 Q204.492 1053.26 202.612 1052.9 Q200.75 1052.56 198.756 1051.87 L198.756 1048.2 Q200.336 1049.12 202.217 1049.59 Q204.097 1050.06 206.147 1050.06 Q209.721 1050.06 211.583 1048.65 Q213.464 1047.24 213.464 1044.55 Q213.464 1042.07 211.714 1040.68 Q209.984 1039.27 206.881 1039.27 L203.608 1039.27 L203.608 1036.14 L207.031 1036.14 Q209.834 1036.14 211.32 1035.03 Q212.805 1033.91 212.805 1031.8 Q212.805 1029.64 211.263 1028.49 Q209.74 1027.32 206.881 1027.32 Q205.32 1027.32 203.533 1027.66 Q201.746 1028 199.602 1028.71 L199.602 1025.33 Q201.765 1024.73 203.646 1024.43 Q205.546 1024.13 207.219 1024.13 Q211.545 1024.13 214.065 1026.1 Q216.586 1028.06 216.586 1031.4 Q216.586 1033.74 215.25 1035.35 Q213.915 1036.95 211.451 1037.57 Z" fill="#000000" fill-rule="evenodd" fill-opacity="1" /><path clip-path="url(#clip410)" d="M224.447 1047.94 L228.416 1047.94 L228.416 1052.71 L224.447 1052.71 L224.447 1047.94 Z" fill="#000000" fill-rule="evenodd" fill-opacity="1" /><path clip-path="url(#clip410)" d="M248.202 1037.57 Q250.929 1038.16 252.452 1040 Q253.994 1041.84 253.994 1044.55 Q253.994 1048.71 251.136 1050.98 Q248.277 1053.26 243.011 1053.26 Q241.243 1053.26 239.362 1052.9 Q237.5 1052.56 235.506 1051.87 L235.506 1048.2 Q237.086 1049.12 238.967 1049.59 Q240.848 1050.06 242.898 1050.06 Q246.471 1050.06 248.333 1048.65 Q250.214 1047.24 250.214 1044.55 Q250.214 1042.07 248.465 1040.68 Q246.735 1039.27 243.631 1039.27 L240.359 1039.27 L240.359 1036.14 L243.782 1036.14 Q246.584 1036.14 248.07 1035.03 Q249.556 1033.91 249.556 1031.8 Q249.556 1029.64 248.013 1028.49 Q246.49 1027.32 243.631 1027.32 Q242.07 1027.32 240.283 1027.66 Q238.497 1028 236.353 1028.71 L236.353 1025.33 Q238.516 1024.73 240.396 1024.43 Q242.296 1024.13 243.97 1024.13 Q248.296 1024.13 250.816 1026.1 Q253.336 1028.06 253.336 1031.4 Q253.336 1033.74 252.001 1035.35 Q250.665 1036.95 248.202 1037.57 Z" fill="#000000" fill-rule="evenodd" fill-opacity="1" /><path clip-path="url(#clip410)" d="M115.806 779.503 L123.445 779.503 L123.445 753.137 L115.135 754.804 L115.135 750.544 L123.399 748.878 L128.075 748.878 L128.075 779.503 L135.714 779.503 L135.714 783.438 L115.806 783.438 L115.806 779.503 Z" fill="#000000" fill-rule="evenodd" fill-opacity="1" /><path clip-path="url(#clip410)" d="M155.158 751.956 Q151.547 751.956 149.718 755.521 Q147.913 759.063 147.913 766.193 Q147.913 773.299 149.718 776.864 Q151.547 780.405 155.158 780.405 Q158.792 780.405 160.598 776.864 Q162.427 773.299 162.427 766.193 Q162.427 759.063 160.598 755.521 Q158.792 751.956 155.158 751.956 M155.158 748.253 Q160.968 748.253 164.024 752.859 Q167.102 757.443 167.102 766.193 Q167.102 774.919 164.024 779.526 Q160.968 784.109 155.158 784.109 Q149.348 784.109 146.269 779.526 Q143.214 774.919 143.214 766.193 Q143.214 757.443 146.269 752.859 Q149.348 748.253 155.158 748.253 Z" fill="#000000" fill-rule="evenodd" fill-opacity="1" /><path clip-path="url(#clip410)" d="M167.102 742.354 L191.214 742.354 L191.214 745.551 L167.102 745.551 L167.102 742.354 Z" fill="#000000" fill-rule="evenodd" fill-opacity="1" /><path clip-path="url(#clip410)" d="M210.925 740.887 Q213.652 741.47 215.175 743.313 Q216.717 745.156 216.717 747.865 Q216.717 752.021 213.859 754.297 Q211 756.573 205.734 756.573 Q203.966 756.573 202.085 756.215 Q200.223 755.877 198.229 755.181 L198.229 751.514 Q199.809 752.435 201.69 752.905 Q203.571 753.375 205.621 753.375 Q209.194 753.375 211.056 751.965 Q212.937 750.554 212.937 747.865 Q212.937 745.382 211.188 743.99 Q209.458 742.58 206.354 742.58 L203.082 742.58 L203.082 739.458 L206.505 739.458 Q209.307 739.458 210.793 738.348 Q212.279 737.22 212.279 735.113 Q212.279 732.95 210.736 731.803 Q209.213 730.637 206.354 730.637 Q204.793 730.637 203.006 730.975 Q201.22 731.314 199.076 732.029 L199.076 728.643 Q201.239 728.041 203.119 727.74 Q205.019 727.44 206.693 727.44 Q211.019 727.44 213.539 729.414 Q216.059 731.37 216.059 734.718 Q216.059 737.05 214.724 738.668 Q213.388 740.266 210.925 740.887 Z" fill="#000000" fill-rule="evenodd" fill-opacity="1" /><path clip-path="url(#clip410)" d="M223.921 751.25 L227.889 751.25 L227.889 756.027 L223.921 756.027 L223.921 751.25 Z" fill="#000000" fill-rule="evenodd" fill-opacity="1" /><path clip-path="url(#clip410)" d="M244.29 730.449 Q241.356 730.449 239.87 733.345 Q238.403 736.223 238.403 742.016 Q238.403 747.79 239.87 750.686 Q241.356 753.564 244.29 753.564 Q247.242 753.564 248.709 750.686 Q250.195 747.79 250.195 742.016 Q250.195 736.223 248.709 733.345 Q247.242 730.449 244.29 730.449 M244.29 727.44 Q249.01 727.44 251.493 731.182 Q253.994 734.906 253.994 742.016 Q253.994 749.106 251.493 752.849 Q249.01 756.573 244.29 756.573 Q239.569 756.573 237.067 752.849 Q234.585 749.106 234.585 742.016 Q234.585 734.906 237.067 731.182 Q239.569 727.44 244.29 727.44 Z" fill="#000000" fill-rule="evenodd" fill-opacity="1" /><path clip-path="url(#clip410)" d="M116.54 482.817 L124.179 482.817 L124.179 456.452 L115.869 458.118 L115.869 453.859 L124.132 452.192 L128.808 452.192 L128.808 482.817 L136.447 482.817 L136.447 486.752 L116.54 486.752 L116.54 482.817 Z" fill="#000000" fill-rule="evenodd" fill-opacity="1" /><path clip-path="url(#clip410)" d="M155.892 455.271 Q152.28 455.271 150.452 458.836 Q148.646 462.377 148.646 469.507 Q148.646 476.613 150.452 480.178 Q152.28 483.72 155.892 483.72 Q159.526 483.72 161.331 480.178 Q163.16 476.613 163.16 469.507 Q163.16 462.377 161.331 458.836 Q159.526 455.271 155.892 455.271 M155.892 451.567 Q161.702 451.567 164.757 456.174 Q167.836 460.757 167.836 469.507 Q167.836 478.234 164.757 482.84 Q161.702 487.424 155.892 487.424 Q150.081 487.424 147.003 482.84 Q143.947 478.234 143.947 469.507 Q143.947 460.757 147.003 456.174 Q150.081 451.567 155.892 451.567 Z" fill="#000000" fill-rule="evenodd" fill-opacity="1" /><path clip-path="url(#clip410)" d="M167.836 445.669 L191.947 445.669 L191.947 448.866 L167.836 448.866 L167.836 445.669 Z" fill="#000000" fill-rule="evenodd" fill-opacity="1" /><path clip-path="url(#clip410)" d="M203.42 456.145 L216.68 456.145 L216.68 459.342 L198.85 459.342 L198.85 456.145 Q201.013 453.906 204.737 450.145 Q208.48 446.365 209.439 445.274 Q211.263 443.224 211.978 441.813 Q212.711 440.384 212.711 439.011 Q212.711 436.773 211.131 435.362 Q209.57 433.951 207.05 433.951 Q205.263 433.951 203.27 434.572 Q201.295 435.193 199.038 436.453 L199.038 432.616 Q201.333 431.694 203.326 431.224 Q205.32 430.754 206.975 430.754 Q211.338 430.754 213.934 432.936 Q216.529 435.117 216.529 438.766 Q216.529 440.497 215.871 442.058 Q215.232 443.6 213.52 445.706 Q213.05 446.252 210.53 448.866 Q208.009 451.461 203.42 456.145 Z" fill="#000000" fill-rule="evenodd" fill-opacity="1" /><path clip-path="url(#clip410)" d="M224.654 454.565 L228.623 454.565 L228.623 459.342 L224.654 459.342 L224.654 454.565 Z" fill="#000000" fill-rule="evenodd" fill-opacity="1" /><path clip-path="url(#clip410)" d="M235.939 431.262 L253.994 431.262 L253.994 432.879 L243.801 459.342 L239.832 459.342 L249.424 434.459 L235.939 434.459 L235.939 431.262 Z" fill="#000000" fill-rule="evenodd" fill-opacity="1" /><path clip-path="url(#clip410)" d="M115.411 186.132 L123.05 186.132 L123.05 159.766 L114.74 161.433 L114.74 157.173 L123.004 155.507 L127.68 155.507 L127.68 186.132 L135.319 186.132 L135.319 190.067 L115.411 190.067 L115.411 186.132 Z" fill="#000000" fill-rule="evenodd" fill-opacity="1" /><path clip-path="url(#clip410)" d="M154.763 158.586 Q151.152 158.586 149.323 162.15 Q147.518 165.692 147.518 172.822 Q147.518 179.928 149.323 183.493 Q151.152 187.034 154.763 187.034 Q158.397 187.034 160.203 183.493 Q162.032 179.928 162.032 172.822 Q162.032 165.692 160.203 162.15 Q158.397 158.586 154.763 158.586 M154.763 154.882 Q160.573 154.882 163.629 159.488 Q166.707 164.072 166.707 172.822 Q166.707 181.548 163.629 186.155 Q160.573 190.738 154.763 190.738 Q148.953 190.738 145.874 186.155 Q142.819 181.548 142.819 172.822 Q142.819 164.072 145.874 159.488 Q148.953 154.882 154.763 154.882 Z" fill="#000000" fill-rule="evenodd" fill-opacity="1" /><path clip-path="url(#clip410)" d="M166.707 148.983 L190.819 148.983 L190.819 152.181 L166.707 152.181 L166.707 148.983 Z" fill="#000000" fill-rule="evenodd" fill-opacity="1" /><path clip-path="url(#clip410)" d="M202.292 159.459 L215.551 159.459 L215.551 162.656 L197.721 162.656 L197.721 159.459 Q199.884 157.221 203.608 153.459 Q207.351 149.679 208.31 148.588 Q210.135 146.538 210.849 145.128 Q211.583 143.698 211.583 142.325 Q211.583 140.087 210.003 138.677 Q208.442 137.266 205.922 137.266 Q204.135 137.266 202.141 137.887 Q200.166 138.507 197.91 139.767 L197.91 135.931 Q200.204 135.009 202.198 134.539 Q204.191 134.069 205.846 134.069 Q210.21 134.069 212.805 136.25 Q215.401 138.432 215.401 142.081 Q215.401 143.811 214.743 145.372 Q214.103 146.914 212.392 149.021 Q211.921 149.566 209.401 152.181 Q206.881 154.776 202.292 159.459 Z" fill="#000000" fill-rule="evenodd" fill-opacity="1" /><path clip-path="url(#clip410)" d="M223.526 157.879 L227.494 157.879 L227.494 162.656 L223.526 162.656 L223.526 157.879 Z" fill="#000000" fill-rule="evenodd" fill-opacity="1" /><path clip-path="url(#clip410)" d="M246.208 137.887 L236.616 152.876 L246.208 152.876 L246.208 137.887 M245.211 134.576 L249.988 134.576 L249.988 152.876 L253.994 152.876 L253.994 156.036 L249.988 156.036 L249.988 162.656 L246.208 162.656 L246.208 156.036 L233.531 156.036 L233.531 152.369 L245.211 134.576 Z" fill="#000000" fill-rule="evenodd" fill-opacity="1" /><path clip-path="url(#clip410)" d="M18.4042 827.219 L18.4042 787.02 L23.815 787.02 L23.815 803.889 L65.9242 803.889 L65.9242 810.35 L23.815 810.35 L23.815 827.219 L18.4042 827.219 Z" fill="#000000" fill-rule="evenodd" fill-opacity="1" /><path clip-path="url(#clip410)" d="M30.2762 783.073 L30.2762 777.216 L65.9242 777.216 L65.9242 783.073 L30.2762 783.073 M16.399 783.073 L16.399 777.216 L23.815 777.216 L23.815 783.073 L16.399 783.073 Z" fill="#000000" fill-rule="evenodd" fill-opacity="1" /><path clip-path="url(#clip410)" d="M37.1193 737.208 Q33.1726 735.012 31.2947 731.956 Q29.4168 728.901 29.4168 724.763 Q29.4168 719.193 33.3317 716.169 Q37.2148 713.145 44.4081 713.145 L65.9242 713.145 L65.9242 719.034 L44.599 719.034 Q39.4746 719.034 36.992 720.848 Q34.5094 722.662 34.5094 726.386 Q34.5094 730.938 37.5331 733.579 Q40.5568 736.221 45.7767 736.221 L65.9242 736.221 L65.9242 742.109 L44.599 742.109 Q39.4428 742.109 36.992 743.924 Q34.5094 745.738 34.5094 749.526 Q34.5094 754.013 37.5649 756.655 Q40.5886 759.297 45.7767 759.297 L65.9242 759.297 L65.9242 765.185 L30.2762 765.185 L30.2762 759.297 L35.8144 759.297 Q32.536 757.292 30.9764 754.491 Q29.4168 751.69 29.4168 747.839 Q29.4168 743.956 31.3902 741.25 Q33.3636 738.513 37.1193 737.208 Z" fill="#000000" fill-rule="evenodd" fill-opacity="1" /><path clip-path="url(#clip410)" d="M46.6361 670.973 L49.5006 670.973 L49.5006 697.9 Q55.5481 697.518 58.7309 694.271 Q61.8819 690.993 61.8819 685.168 Q61.8819 681.794 61.0544 678.643 Q60.2269 675.461 58.5718 672.341 L64.1099 672.341 Q65.4467 675.492 66.147 678.803 Q66.8472 682.113 66.8472 685.518 Q66.8472 694.048 61.8819 699.045 Q56.9167 704.011 48.4503 704.011 Q39.6974 704.011 34.5731 699.3 Q29.4168 694.558 29.4168 686.537 Q29.4168 679.344 34.0638 675.174 Q38.6789 670.973 46.6361 670.973 M44.9173 676.829 Q40.1112 676.893 37.2466 679.535 Q34.3821 682.145 34.3821 686.473 Q34.3821 691.375 37.1512 694.335 Q39.9202 697.263 44.9492 697.709 L44.9173 676.829 Z" fill="#000000" fill-rule="evenodd" fill-opacity="1" /><path clip-path="url(#clip410)" d="M16.4626 626.572 Q23.7832 630.837 30.9446 632.906 Q38.106 634.975 45.4584 634.975 Q52.8108 634.975 60.0359 632.906 Q67.2291 630.805 74.5179 626.572 L74.5179 631.664 Q67.0382 636.439 59.8131 638.826 Q52.588 641.181 45.4584 641.181 Q38.3606 641.181 31.1674 638.826 Q23.9742 636.471 16.4626 631.664 L16.4626 626.572 Z" fill="#000000" fill-rule="evenodd" fill-opacity="1" /><path clip-path="url(#clip410)" d="M31.3265 592.484 L36.8647 592.484 Q35.5916 594.966 34.955 597.64 Q34.3184 600.313 34.3184 603.178 Q34.3184 607.538 35.6552 609.735 Q36.992 611.899 39.6656 611.899 Q41.7026 611.899 42.8803 610.339 Q44.0261 608.78 45.0765 604.069 L45.5221 602.064 Q46.8589 595.826 49.3097 593.216 Q51.7286 590.574 56.0891 590.574 Q61.0544 590.574 63.9508 594.521 Q66.8472 598.435 66.8472 605.31 Q66.8472 608.175 66.2743 611.294 Q65.7332 614.382 64.6192 617.819 L58.5718 617.819 Q60.2587 614.573 61.118 611.422 Q61.9456 608.27 61.9456 605.183 Q61.9456 601.045 60.5451 598.817 Q59.1129 596.589 56.5347 596.589 Q54.1476 596.589 52.8745 598.213 Q51.6013 599.804 50.4237 605.247 L49.9462 607.284 Q48.8004 612.726 46.4451 615.145 Q44.058 617.564 39.9202 617.564 Q34.8913 617.564 32.1541 614 Q29.4168 610.435 29.4168 603.878 Q29.4168 600.632 29.8943 597.767 Q30.3717 594.902 31.3265 592.484 Z" fill="#000000" fill-rule="evenodd" fill-opacity="1" /><path clip-path="url(#clip410)" d="M16.4626 582.171 L16.4626 577.079 Q23.9742 572.304 31.1674 569.949 Q38.3606 567.562 45.4584 567.562 Q52.588 567.562 59.8131 569.949 Q67.0382 572.304 74.5179 577.079 L74.5179 582.171 Q67.2291 577.938 60.0359 575.869 Q52.8108 573.768 45.4584 573.768 Q38.106 573.768 30.9446 575.869 Q23.7832 577.938 16.4626 582.171 Z" fill="#000000" fill-rule="evenodd" fill-opacity="1" /><polyline clip-path="url(#clip412)" style="stroke:#009af9; stroke-linecap:butt; stroke-linejoin:round; stroke-width:12; stroke-opacity:1; fill:none" points="
  2190.97,1310.74 1822.78,1159.82 1538.78,1038.12 1296.89,902.806 1011.68,800.143 585.637,515.988 637.327,331.052 
  "/>
<line clip-path="url(#clip412)" x1="2190.97" y1="1310.74" x2="2190.97" y2="1294.74" style="stroke:#009af9; stroke-width:3.072; stroke-opacity:1"/>
<line clip-path="url(#clip412)" x1="2190.97" y1="1310.74" x2="2174.97" y2="1310.74" style="stroke:#009af9; stroke-width:3.072; stroke-opacity:1"/>
<line clip-path="url(#clip412)" x1="2190.97" y1="1310.74" x2="2190.97" y2="1326.74" style="stroke:#009af9; stroke-width:3.072; stroke-opacity:1"/>
<line clip-path="url(#clip412)" x1="2190.97" y1="1310.74" x2="2206.97" y2="1310.74" style="stroke:#009af9; stroke-width:3.072; stroke-opacity:1"/>
<line clip-path="url(#clip412)" x1="1822.78" y1="1159.82" x2="1822.78" y2="1143.82" style="stroke:#009af9; stroke-width:3.072; stroke-opacity:1"/>
<line clip-path="url(#clip412)" x1="1822.78" y1="1159.82" x2="1806.78" y2="1159.82" style="stroke:#009af9; stroke-width:3.072; stroke-opacity:1"/>
<line clip-path="url(#clip412)" x1="1822.78" y1="1159.82" x2="1822.78" y2="1175.82" style="stroke:#009af9; stroke-width:3.072; stroke-opacity:1"/>
<line clip-path="url(#clip412)" x1="1822.78" y1="1159.82" x2="1838.78" y2="1159.82" style="stroke:#009af9; stroke-width:3.072; stroke-opacity:1"/>
<line clip-path="url(#clip412)" x1="1538.78" y1="1038.12" x2="1538.78" y2="1022.12" style="stroke:#009af9; stroke-width:3.072; stroke-opacity:1"/>
<line clip-path="url(#clip412)" x1="1538.78" y1="1038.12" x2="1522.78" y2="1038.12" style="stroke:#009af9; stroke-width:3.072; stroke-opacity:1"/>
<line clip-path="url(#clip412)" x1="1538.78" y1="1038.12" x2="1538.78" y2="1054.12" style="stroke:#009af9; stroke-width:3.072; stroke-opacity:1"/>
<line clip-path="url(#clip412)" x1="1538.78" y1="1038.12" x2="1554.78" y2="1038.12" style="stroke:#009af9; stroke-width:3.072; stroke-opacity:1"/>
<line clip-path="url(#clip412)" x1="1296.89" y1="902.806" x2="1296.89" y2="886.806" style="stroke:#009af9; stroke-width:3.072; stroke-opacity:1"/>
<line clip-path="url(#clip412)" x1="1296.89" y1="902.806" x2="1280.89" y2="902.806" style="stroke:#009af9; stroke-width:3.072; stroke-opacity:1"/>
<line clip-path="url(#clip412)" x1="1296.89" y1="902.806" x2="1296.89" y2="918.806" style="stroke:#009af9; stroke-width:3.072; stroke-opacity:1"/>
<line clip-path="url(#clip412)" x1="1296.89" y1="902.806" x2="1312.89" y2="902.806" style="stroke:#009af9; stroke-width:3.072; stroke-opacity:1"/>
<line clip-path="url(#clip412)" x1="1011.68" y1="800.143" x2="1011.68" y2="784.143" style="stroke:#009af9; stroke-width:3.072; stroke-opacity:1"/>
<line clip-path="url(#clip412)" x1="1011.68" y1="800.143" x2="995.68" y2="800.143" style="stroke:#009af9; stroke-width:3.072; stroke-opacity:1"/>
<line clip-path="url(#clip412)" x1="1011.68" y1="800.143" x2="1011.68" y2="816.143" style="stroke:#009af9; stroke-width:3.072; stroke-opacity:1"/>
<line clip-path="url(#clip412)" x1="1011.68" y1="800.143" x2="1027.68" y2="800.143" style="stroke:#009af9; stroke-width:3.072; stroke-opacity:1"/>
<line clip-path="url(#clip412)" x1="585.637" y1="515.988" x2="585.637" y2="499.988" style="stroke:#009af9; stroke-width:3.072; stroke-opacity:1"/>
<line clip-path="url(#clip412)" x1="585.637" y1="515.988" x2="569.637" y2="515.988" style="stroke:#009af9; stroke-width:3.072; stroke-opacity:1"/>
<line clip-path="url(#clip412)" x1="585.637" y1="515.988" x2="585.637" y2="531.988" style="stroke:#009af9; stroke-width:3.072; stroke-opacity:1"/>
<line clip-path="url(#clip412)" x1="585.637" y1="515.988" x2="601.637" y2="515.988" style="stroke:#009af9; stroke-width:3.072; stroke-opacity:1"/>
<line clip-path="url(#clip412)" x1="637.327" y1="331.052" x2="637.327" y2="315.052" style="stroke:#009af9; stroke-width:3.072; stroke-opacity:1"/>
<line clip-path="url(#clip412)" x1="637.327" y1="331.052" x2="621.327" y2="331.052" style="stroke:#009af9; stroke-width:3.072; stroke-opacity:1"/>
<line clip-path="url(#clip412)" x1="637.327" y1="331.052" x2="637.327" y2="347.052" style="stroke:#009af9; stroke-width:3.072; stroke-opacity:1"/>
<line clip-path="url(#clip412)" x1="637.327" y1="331.052" x2="653.327" y2="331.052" style="stroke:#009af9; stroke-width:3.072; stroke-opacity:1"/>
<polyline clip-path="url(#clip412)" style="stroke:#e26f46; stroke-linecap:butt; stroke-linejoin:round; stroke-width:12; stroke-opacity:1; fill:none" points="
  1957.35,1113.4 1744.87,1011.12 1563.94,847.578 1133.97,729.308 627.95,542.248 599.337,586.712 438.705,84.0448 
  "/>
<circle clip-path="url(#clip412)" cx="1957.35" cy="1113.4" r="14" fill="#e26f46" fill-rule="evenodd" fill-opacity="1" stroke="#000000" stroke-opacity="1" stroke-width="3.072"/>
<circle clip-path="url(#clip412)" cx="1744.87" cy="1011.12" r="14" fill="#e26f46" fill-rule="evenodd" fill-opacity="1" stroke="#000000" stroke-opacity="1" stroke-width="3.072"/>
<circle clip-path="url(#clip412)" cx="1563.94" cy="847.578" r="14" fill="#e26f46" fill-rule="evenodd" fill-opacity="1" stroke="#000000" stroke-opacity="1" stroke-width="3.072"/>
<circle clip-path="url(#clip412)" cx="1133.97" cy="729.308" r="14" fill="#e26f46" fill-rule="evenodd" fill-opacity="1" stroke="#000000" stroke-opacity="1" stroke-width="3.072"/>
<circle clip-path="url(#clip412)" cx="627.95" cy="542.248" r="14" fill="#e26f46" fill-rule="evenodd" fill-opacity="1" stroke="#000000" stroke-opacity="1" stroke-width="3.072"/>
<circle clip-path="url(#clip412)" cx="599.337" cy="586.712" r="14" fill="#e26f46" fill-rule="evenodd" fill-opacity="1" stroke="#000000" stroke-opacity="1" stroke-width="3.072"/>
<circle clip-path="url(#clip412)" cx="438.705" cy="84.0448" r="14" fill="#e26f46" fill-rule="evenodd" fill-opacity="1" stroke="#000000" stroke-opacity="1" stroke-width="3.072"/>
<polyline clip-path="url(#clip412)" style="stroke:#3da44d; stroke-linecap:butt; stroke-linejoin:round; stroke-width:12; stroke-opacity:1; fill:none" points="
  2201.05,1284.9 1996.23,1104.23 1758.96,1035.3 1315.64,844.009 967.84,618.351 630.711,452.681 344.258,201.16 
  "/>
<line clip-path="url(#clip412)" x1="2201.05" y1="1284.9" x2="2201.05" y2="1268.9" style="stroke:#3da44d; stroke-width:3.072; stroke-opacity:1"/>
<line clip-path="url(#clip412)" x1="2201.05" y1="1284.9" x2="2185.05" y2="1284.9" style="stroke:#3da44d; stroke-width:3.072; stroke-opacity:1"/>
<line clip-path="url(#clip412)" x1="2201.05" y1="1284.9" x2="2201.05" y2="1300.9" style="stroke:#3da44d; stroke-width:3.072; stroke-opacity:1"/>
<line clip-path="url(#clip412)" x1="2201.05" y1="1284.9" x2="2217.05" y2="1284.9" style="stroke:#3da44d; stroke-width:3.072; stroke-opacity:1"/>
<line clip-path="url(#clip412)" x1="1996.23" y1="1104.23" x2="1996.23" y2="1088.23" style="stroke:#3da44d; stroke-width:3.072; stroke-opacity:1"/>
<line clip-path="url(#clip412)" x1="1996.23" y1="1104.23" x2="1980.23" y2="1104.23" style="stroke:#3da44d; stroke-width:3.072; stroke-opacity:1"/>
<line clip-path="url(#clip412)" x1="1996.23" y1="1104.23" x2="1996.23" y2="1120.23" style="stroke:#3da44d; stroke-width:3.072; stroke-opacity:1"/>
<line clip-path="url(#clip412)" x1="1996.23" y1="1104.23" x2="2012.23" y2="1104.23" style="stroke:#3da44d; stroke-width:3.072; stroke-opacity:1"/>
<line clip-path="url(#clip412)" x1="1758.96" y1="1035.3" x2="1758.96" y2="1019.3" style="stroke:#3da44d; stroke-width:3.072; stroke-opacity:1"/>
<line clip-path="url(#clip412)" x1="1758.96" y1="1035.3" x2="1742.96" y2="1035.3" style="stroke:#3da44d; stroke-width:3.072; stroke-opacity:1"/>
<line clip-path="url(#clip412)" x1="1758.96" y1="1035.3" x2="1758.96" y2="1051.3" style="stroke:#3da44d; stroke-width:3.072; stroke-opacity:1"/>
<line clip-path="url(#clip412)" x1="1758.96" y1="1035.3" x2="1774.96" y2="1035.3" style="stroke:#3da44d; stroke-width:3.072; stroke-opacity:1"/>
<line clip-path="url(#clip412)" x1="1315.64" y1="844.009" x2="1315.64" y2="828.009" style="stroke:#3da44d; stroke-width:3.072; stroke-opacity:1"/>
<line clip-path="url(#clip412)" x1="1315.64" y1="844.009" x2="1299.64" y2="844.009" style="stroke:#3da44d; stroke-width:3.072; stroke-opacity:1"/>
<line clip-path="url(#clip412)" x1="1315.64" y1="844.009" x2="1315.64" y2="860.009" style="stroke:#3da44d; stroke-width:3.072; stroke-opacity:1"/>
<line clip-path="url(#clip412)" x1="1315.64" y1="844.009" x2="1331.64" y2="844.009" style="stroke:#3da44d; stroke-width:3.072; stroke-opacity:1"/>
<line clip-path="url(#clip412)" x1="967.84" y1="618.351" x2="967.84" y2="602.351" style="stroke:#3da44d; stroke-width:3.072; stroke-opacity:1"/>
<line clip-path="url(#clip412)" x1="967.84" y1="618.351" x2="951.84" y2="618.351" style="stroke:#3da44d; stroke-width:3.072; stroke-opacity:1"/>
<line clip-path="url(#clip412)" x1="967.84" y1="618.351" x2="967.84" y2="634.351" style="stroke:#3da44d; stroke-width:3.072; stroke-opacity:1"/>
<line clip-path="url(#clip412)" x1="967.84" y1="618.351" x2="983.84" y2="618.351" style="stroke:#3da44d; stroke-width:3.072; stroke-opacity:1"/>
<line clip-path="url(#clip412)" x1="630.711" y1="452.681" x2="630.711" y2="436.681" style="stroke:#3da44d; stroke-width:3.072; stroke-opacity:1"/>
<line clip-path="url(#clip412)" x1="630.711" y1="452.681" x2="614.711" y2="452.681" style="stroke:#3da44d; stroke-width:3.072; stroke-opacity:1"/>
<line clip-path="url(#clip412)" x1="630.711" y1="452.681" x2="630.711" y2="468.681" style="stroke:#3da44d; stroke-width:3.072; stroke-opacity:1"/>
<line clip-path="url(#clip412)" x1="630.711" y1="452.681" x2="646.711" y2="452.681" style="stroke:#3da44d; stroke-width:3.072; stroke-opacity:1"/>
<line clip-path="url(#clip412)" x1="344.258" y1="201.16" x2="344.258" y2="185.16" style="stroke:#3da44d; stroke-width:3.072; stroke-opacity:1"/>
<line clip-path="url(#clip412)" x1="344.258" y1="201.16" x2="328.258" y2="201.16" style="stroke:#3da44d; stroke-width:3.072; stroke-opacity:1"/>
<line clip-path="url(#clip412)" x1="344.258" y1="201.16" x2="344.258" y2="217.16" style="stroke:#3da44d; stroke-width:3.072; stroke-opacity:1"/>
<line clip-path="url(#clip412)" x1="344.258" y1="201.16" x2="360.258" y2="201.16" style="stroke:#3da44d; stroke-width:3.072; stroke-opacity:1"/>
<path clip-path="url(#clip410)" d="
M1095.91 297.947 L2191.15 297.947 L2191.15 90.5872 L1095.91 90.5872  Z
  " fill="#ffffff" fill-rule="evenodd" fill-opacity="1"/>
<polyline clip-path="url(#clip410)" style="stroke:#000000; stroke-linecap:butt; stroke-linejoin:round; stroke-width:4; stroke-opacity:1; fill:none" points="
  1095.91,297.947 2191.15,297.947 2191.15,90.5872 1095.91,90.5872 1095.91,297.947 
  "/>
<polyline clip-path="url(#clip410)" style="stroke:#009af9; stroke-linecap:butt; stroke-linejoin:round; stroke-width:4; stroke-opacity:1; fill:none" points="
  1117.78,142.427 1249,142.427 
  "/>
<line clip-path="url(#clip410)" x1="1183.39" y1="142.427" x2="1183.39" y2="116.827" style="stroke:#009af9; stroke-width:4.9152; stroke-opacity:1"/>
<line clip-path="url(#clip410)" x1="1183.39" y1="142.427" x2="1157.79" y2="142.427" style="stroke:#009af9; stroke-width:4.9152; stroke-opacity:1"/>
<line clip-path="url(#clip410)" x1="1183.39" y1="142.427" x2="1183.39" y2="168.027" style="stroke:#009af9; stroke-width:4.9152; stroke-opacity:1"/>
<line clip-path="url(#clip410)" x1="1183.39" y1="142.427" x2="1208.99" y2="142.427" style="stroke:#009af9; stroke-width:4.9152; stroke-opacity:1"/>
<path clip-path="url(#clip410)" d="M1270.87 125.147 L1275.54 125.147 L1275.54 159.707 L1270.87 159.707 L1270.87 125.147 Z" fill="#000000" fill-rule="evenodd" fill-opacity="1" /><path clip-path="url(#clip410)" d="M1304.85 138.758 Q1306.44 135.888 1308.67 134.522 Q1310.89 133.156 1313.9 133.156 Q1317.95 133.156 1320.15 136.004 Q1322.35 138.828 1322.35 144.059 L1322.35 159.707 L1318.06 159.707 L1318.06 144.198 Q1318.06 140.471 1316.74 138.666 Q1315.43 136.86 1312.72 136.86 Q1309.41 136.86 1307.49 139.059 Q1305.56 141.258 1305.56 145.054 L1305.56 159.707 L1301.28 159.707 L1301.28 144.198 Q1301.28 140.448 1299.96 138.666 Q1298.64 136.86 1295.89 136.86 Q1292.62 136.86 1290.7 139.082 Q1288.78 141.281 1288.78 145.054 L1288.78 159.707 L1284.5 159.707 L1284.5 133.781 L1288.78 133.781 L1288.78 137.809 Q1290.24 135.425 1292.28 134.291 Q1294.31 133.156 1297.12 133.156 Q1299.94 133.156 1301.91 134.592 Q1303.9 136.027 1304.85 138.758 Z" fill="#000000" fill-rule="evenodd" fill-opacity="1" /><path clip-path="url(#clip410)" d="M1334.96 155.818 L1334.96 169.568 L1330.68 169.568 L1330.68 133.781 L1334.96 133.781 L1334.96 137.717 Q1336.3 135.402 1338.34 134.291 Q1340.4 133.156 1343.25 133.156 Q1347.97 133.156 1350.91 136.906 Q1353.87 140.656 1353.87 146.767 Q1353.87 152.879 1350.91 156.628 Q1347.97 160.378 1343.25 160.378 Q1340.4 160.378 1338.34 159.267 Q1336.3 158.133 1334.96 155.818 M1349.45 146.767 Q1349.45 142.068 1347.51 139.406 Q1345.59 136.721 1342.21 136.721 Q1338.83 136.721 1336.88 139.406 Q1334.96 142.068 1334.96 146.767 Q1334.96 151.466 1336.88 154.152 Q1338.83 156.814 1342.21 156.814 Q1345.59 156.814 1347.51 154.152 Q1349.45 151.466 1349.45 146.767 Z" fill="#000000" fill-rule="evenodd" fill-opacity="1" /><path clip-path="url(#clip410)" d="M1360.93 123.689 L1365.19 123.689 L1365.19 159.707 L1360.93 159.707 L1360.93 123.689 Z" fill="#000000" fill-rule="evenodd" fill-opacity="1" /><path clip-path="url(#clip410)" d="M1374.11 133.781 L1378.36 133.781 L1378.36 159.707 L1374.11 159.707 L1374.11 133.781 M1374.11 123.689 L1378.36 123.689 L1378.36 129.082 L1374.11 129.082 L1374.11 123.689 Z" fill="#000000" fill-rule="evenodd" fill-opacity="1" /><path clip-path="url(#clip410)" d="M1405.93 134.777 L1405.93 138.758 Q1404.13 137.763 1402.3 137.277 Q1400.49 136.767 1398.64 136.767 Q1394.5 136.767 1392.21 139.406 Q1389.92 142.022 1389.92 146.767 Q1389.92 151.513 1392.21 154.152 Q1394.5 156.767 1398.64 156.767 Q1400.49 156.767 1402.3 156.281 Q1404.13 155.772 1405.93 154.777 L1405.93 158.712 Q1404.15 159.545 1402.23 159.962 Q1400.33 160.378 1398.18 160.378 Q1392.32 160.378 1388.87 156.698 Q1385.42 153.017 1385.42 146.767 Q1385.42 140.425 1388.9 136.791 Q1392.39 133.156 1398.46 133.156 Q1400.42 133.156 1402.3 133.573 Q1404.17 133.967 1405.93 134.777 Z" fill="#000000" fill-rule="evenodd" fill-opacity="1" /><path clip-path="url(#clip410)" d="M1413.34 133.781 L1417.6 133.781 L1417.6 159.707 L1413.34 159.707 L1413.34 133.781 M1413.34 123.689 L1417.6 123.689 L1417.6 129.082 L1413.34 129.082 L1413.34 123.689 Z" fill="#000000" fill-rule="evenodd" fill-opacity="1" /><path clip-path="url(#clip410)" d="M1430.73 126.42 L1430.73 133.781 L1439.5 133.781 L1439.5 137.092 L1430.73 137.092 L1430.73 151.166 Q1430.73 154.337 1431.58 155.24 Q1432.46 156.142 1435.12 156.142 L1439.5 156.142 L1439.5 159.707 L1435.12 159.707 Q1430.19 159.707 1428.32 157.878 Q1426.44 156.027 1426.44 151.166 L1426.44 137.092 L1423.32 137.092 L1423.32 133.781 L1426.44 133.781 L1426.44 126.42 L1430.73 126.42 Z" fill="#000000" fill-rule="evenodd" fill-opacity="1" /><path clip-path="url(#clip410)" d="M1445.29 125.147 L1467.14 125.147 L1467.14 129.082 L1449.96 129.082 L1449.96 139.314 L1466.42 139.314 L1466.42 143.249 L1449.96 143.249 L1449.96 155.772 L1467.55 155.772 L1467.55 159.707 L1445.29 159.707 L1445.29 125.147 Z" fill="#000000" fill-rule="evenodd" fill-opacity="1" /><path clip-path="url(#clip410)" d="M1474.61 149.476 L1474.61 133.781 L1478.87 133.781 L1478.87 149.314 Q1478.87 152.994 1480.31 154.846 Q1481.74 156.675 1484.61 156.675 Q1488.06 156.675 1490.05 154.476 Q1492.07 152.277 1492.07 148.48 L1492.07 133.781 L1496.33 133.781 L1496.33 159.707 L1492.07 159.707 L1492.07 155.726 Q1490.52 158.087 1488.46 159.244 Q1486.42 160.378 1483.71 160.378 Q1479.24 160.378 1476.93 157.601 Q1474.61 154.823 1474.61 149.476 M1485.33 133.156 L1485.33 133.156 Z" fill="#000000" fill-rule="evenodd" fill-opacity="1" /><path clip-path="url(#clip410)" d="M1505.1 123.689 L1509.36 123.689 L1509.36 159.707 L1505.1 159.707 L1505.1 123.689 Z" fill="#000000" fill-rule="evenodd" fill-opacity="1" /><path clip-path="url(#clip410)" d="M1540.45 145.679 L1540.45 147.763 L1520.86 147.763 Q1521.14 152.161 1523.5 154.476 Q1525.89 156.767 1530.12 156.767 Q1532.58 156.767 1534.87 156.166 Q1537.18 155.564 1539.45 154.36 L1539.45 158.388 Q1537.16 159.36 1534.75 159.869 Q1532.35 160.378 1529.87 160.378 Q1523.66 160.378 1520.03 156.767 Q1516.42 153.156 1516.42 146.999 Q1516.42 140.633 1519.85 136.906 Q1523.29 133.156 1529.13 133.156 Q1534.36 133.156 1537.39 136.536 Q1540.45 139.892 1540.45 145.679 M1536.19 144.429 Q1536.14 140.934 1534.22 138.851 Q1532.32 136.767 1529.17 136.767 Q1525.61 136.767 1523.46 138.781 Q1521.33 140.795 1521 144.453 L1536.19 144.429 Z" fill="#000000" fill-rule="evenodd" fill-opacity="1" /><path clip-path="url(#clip410)" d="M1562.46 137.763 Q1561.74 137.346 1560.89 137.161 Q1560.05 136.953 1559.03 136.953 Q1555.42 136.953 1553.48 139.314 Q1551.56 141.652 1551.56 146.05 L1551.56 159.707 L1547.28 159.707 L1547.28 133.781 L1551.56 133.781 L1551.56 137.809 Q1552.9 135.448 1555.05 134.314 Q1557.21 133.156 1560.28 133.156 Q1560.72 133.156 1561.26 133.226 Q1561.79 133.272 1562.44 133.388 L1562.46 137.763 Z" fill="#000000" fill-rule="evenodd" fill-opacity="1" /><path clip-path="url(#clip410)" d="M1567.11 125.147 L1588.97 125.147 L1588.97 129.082 L1571.79 129.082 L1571.79 139.314 L1588.25 139.314 L1588.25 143.249 L1571.79 143.249 L1571.79 155.772 L1589.38 155.772 L1589.38 159.707 L1567.11 159.707 L1567.11 125.147 Z" fill="#000000" fill-rule="evenodd" fill-opacity="1" /><path clip-path="url(#clip410)" d="M1618.43 133.781 L1609.06 146.397 L1618.92 159.707 L1613.9 159.707 L1606.35 149.522 L1598.8 159.707 L1593.78 159.707 L1603.85 146.142 L1594.64 133.781 L1599.66 133.781 L1606.53 143.017 L1613.41 133.781 L1618.43 133.781 Z" fill="#000000" fill-rule="evenodd" fill-opacity="1" /><path clip-path="url(#clip410)" d="M1629.15 126.42 L1629.15 133.781 L1637.92 133.781 L1637.92 137.092 L1629.15 137.092 L1629.15 151.166 Q1629.15 154.337 1630.01 155.24 Q1630.89 156.142 1633.55 156.142 L1637.92 156.142 L1637.92 159.707 L1633.55 159.707 Q1628.62 159.707 1626.74 157.878 Q1624.87 156.027 1624.87 151.166 L1624.87 137.092 L1621.74 137.092 L1621.74 133.781 L1624.87 133.781 L1624.87 126.42 L1629.15 126.42 Z" fill="#000000" fill-rule="evenodd" fill-opacity="1" /><path clip-path="url(#clip410)" d="M1658.55 137.763 Q1657.83 137.346 1656.97 137.161 Q1656.14 136.953 1655.12 136.953 Q1651.51 136.953 1649.57 139.314 Q1647.65 141.652 1647.65 146.05 L1647.65 159.707 L1643.36 159.707 L1643.36 133.781 L1647.65 133.781 L1647.65 137.809 Q1648.99 135.448 1651.14 134.314 Q1653.29 133.156 1656.37 133.156 Q1656.81 133.156 1657.34 133.226 Q1657.88 133.272 1658.53 133.388 L1658.55 137.763 Z" fill="#000000" fill-rule="evenodd" fill-opacity="1" /><path clip-path="url(#clip410)" d="M1674.8 146.675 Q1669.64 146.675 1667.65 147.855 Q1665.65 149.036 1665.65 151.883 Q1665.65 154.152 1667.14 155.494 Q1668.64 156.814 1671.21 156.814 Q1674.75 156.814 1676.88 154.314 Q1679.03 151.791 1679.03 147.624 L1679.03 146.675 L1674.8 146.675 M1683.29 144.916 L1683.29 159.707 L1679.03 159.707 L1679.03 155.772 Q1677.58 158.133 1675.4 159.267 Q1673.22 160.378 1670.08 160.378 Q1666.09 160.378 1663.73 158.156 Q1661.4 155.911 1661.4 152.161 Q1661.4 147.786 1664.31 145.564 Q1667.25 143.342 1673.06 143.342 L1679.03 143.342 L1679.03 142.925 Q1679.03 139.985 1677.09 138.388 Q1675.17 136.767 1671.67 136.767 Q1669.45 136.767 1667.34 137.3 Q1665.24 137.832 1663.29 138.897 L1663.29 134.962 Q1665.63 134.059 1667.83 133.619 Q1670.03 133.156 1672.11 133.156 Q1677.74 133.156 1680.52 136.073 Q1683.29 138.99 1683.29 144.916 Z" fill="#000000" fill-rule="evenodd" fill-opacity="1" /><path clip-path="url(#clip410)" d="M1696.19 155.818 L1696.19 169.568 L1691.9 169.568 L1691.9 133.781 L1696.19 133.781 L1696.19 137.717 Q1697.53 135.402 1699.57 134.291 Q1701.63 133.156 1704.47 133.156 Q1709.2 133.156 1712.14 136.906 Q1715.1 140.656 1715.1 146.767 Q1715.1 152.879 1712.14 156.628 Q1709.2 160.378 1704.47 160.378 Q1701.63 160.378 1699.57 159.267 Q1697.53 158.133 1696.19 155.818 M1710.68 146.767 Q1710.68 142.068 1708.73 139.406 Q1706.81 136.721 1703.43 136.721 Q1700.05 136.721 1698.11 139.406 Q1696.19 142.068 1696.19 146.767 Q1696.19 151.466 1698.11 154.152 Q1700.05 156.814 1703.43 156.814 Q1706.81 156.814 1708.73 154.152 Q1710.68 151.466 1710.68 146.767 Z" fill="#000000" fill-rule="evenodd" fill-opacity="1" /><path clip-path="url(#clip410)" d="M1732.21 136.767 Q1728.78 136.767 1726.79 139.453 Q1724.8 142.115 1724.8 146.767 Q1724.8 151.42 1726.77 154.105 Q1728.76 156.767 1732.21 156.767 Q1735.61 156.767 1737.6 154.082 Q1739.59 151.397 1739.59 146.767 Q1739.59 142.161 1737.6 139.476 Q1735.61 136.767 1732.21 136.767 M1732.21 133.156 Q1737.76 133.156 1740.93 136.767 Q1744.1 140.379 1744.1 146.767 Q1744.1 153.133 1740.93 156.767 Q1737.76 160.378 1732.21 160.378 Q1726.63 160.378 1723.46 156.767 Q1720.31 153.133 1720.31 146.767 Q1720.31 140.379 1723.46 136.767 Q1726.63 133.156 1732.21 133.156 Z" fill="#000000" fill-rule="evenodd" fill-opacity="1" /><path clip-path="url(#clip410)" d="M1751.16 123.689 L1755.42 123.689 L1755.42 159.707 L1751.16 159.707 L1751.16 123.689 Z" fill="#000000" fill-rule="evenodd" fill-opacity="1" /><path clip-path="url(#clip410)" d="M1776.12 146.675 Q1770.96 146.675 1768.96 147.855 Q1766.97 149.036 1766.97 151.883 Q1766.97 154.152 1768.46 155.494 Q1769.96 156.814 1772.53 156.814 Q1776.07 156.814 1778.2 154.314 Q1780.35 151.791 1780.35 147.624 L1780.35 146.675 L1776.12 146.675 M1784.61 144.916 L1784.61 159.707 L1780.35 159.707 L1780.35 155.772 Q1778.89 158.133 1776.72 159.267 Q1774.54 160.378 1771.39 160.378 Q1767.41 160.378 1765.05 158.156 Q1762.71 155.911 1762.71 152.161 Q1762.71 147.786 1765.63 145.564 Q1768.57 143.342 1774.38 143.342 L1780.35 143.342 L1780.35 142.925 Q1780.35 139.985 1778.41 138.388 Q1776.49 136.767 1772.99 136.767 Q1770.77 136.767 1768.66 137.3 Q1766.56 137.832 1764.61 138.897 L1764.61 134.962 Q1766.95 134.059 1769.15 133.619 Q1771.35 133.156 1773.43 133.156 Q1779.06 133.156 1781.83 136.073 Q1784.61 138.99 1784.61 144.916 Z" fill="#000000" fill-rule="evenodd" fill-opacity="1" /><path clip-path="url(#clip410)" d="M1797.6 126.42 L1797.6 133.781 L1806.37 133.781 L1806.37 137.092 L1797.6 137.092 L1797.6 151.166 Q1797.6 154.337 1798.45 155.24 Q1799.33 156.142 1802 156.142 L1806.37 156.142 L1806.37 159.707 L1802 159.707 Q1797.07 159.707 1795.19 157.878 Q1793.32 156.027 1793.32 151.166 L1793.32 137.092 L1790.19 137.092 L1790.19 133.781 L1793.32 133.781 L1793.32 126.42 L1797.6 126.42 Z" fill="#000000" fill-rule="evenodd" fill-opacity="1" /><path clip-path="url(#clip410)" d="M1811.97 133.781 L1816.23 133.781 L1816.23 159.707 L1811.97 159.707 L1811.97 133.781 M1811.97 123.689 L1816.23 123.689 L1816.23 129.082 L1811.97 129.082 L1811.97 123.689 Z" fill="#000000" fill-rule="evenodd" fill-opacity="1" /><path clip-path="url(#clip410)" d="M1835.19 136.767 Q1831.76 136.767 1829.77 139.453 Q1827.78 142.115 1827.78 146.767 Q1827.78 151.42 1829.75 154.105 Q1831.74 156.767 1835.19 156.767 Q1838.59 156.767 1840.58 154.082 Q1842.58 151.397 1842.58 146.767 Q1842.58 142.161 1840.58 139.476 Q1838.59 136.767 1835.19 136.767 M1835.19 133.156 Q1840.75 133.156 1843.92 136.767 Q1847.09 140.379 1847.09 146.767 Q1847.09 153.133 1843.92 156.767 Q1840.75 160.378 1835.19 160.378 Q1829.61 160.378 1826.44 156.767 Q1823.29 153.133 1823.29 146.767 Q1823.29 140.379 1826.44 136.767 Q1829.61 133.156 1835.19 133.156 Z" fill="#000000" fill-rule="evenodd" fill-opacity="1" /><path clip-path="url(#clip410)" d="M1875.7 144.059 L1875.7 159.707 L1871.44 159.707 L1871.44 144.198 Q1871.44 140.517 1870.01 138.689 Q1868.57 136.86 1865.7 136.86 Q1862.25 136.86 1860.26 139.059 Q1858.27 141.258 1858.27 145.054 L1858.27 159.707 L1853.99 159.707 L1853.99 133.781 L1858.27 133.781 L1858.27 137.809 Q1859.8 135.471 1861.86 134.314 Q1863.94 133.156 1866.65 133.156 Q1871.12 133.156 1873.41 135.934 Q1875.7 138.689 1875.7 144.059 Z" fill="#000000" fill-rule="evenodd" fill-opacity="1" /><polyline clip-path="url(#clip410)" style="stroke:#e26f46; stroke-linecap:butt; stroke-linejoin:round; stroke-width:4; stroke-opacity:1; fill:none" points="
  1117.78,194.267 1249,194.267 
  "/>
<circle clip-path="url(#clip410)" cx="1183.39" cy="194.267" r="23" fill="#e26f46" fill-rule="evenodd" fill-opacity="1" stroke="#000000" stroke-opacity="1" stroke-width="4.9152"/>
<path clip-path="url(#clip410)" d="M1270.87 176.987 L1275.54 176.987 L1275.54 211.547 L1270.87 211.547 L1270.87 176.987 Z" fill="#000000" fill-rule="evenodd" fill-opacity="1" /><path clip-path="url(#clip410)" d="M1304.85 190.598 Q1306.44 187.728 1308.67 186.362 Q1310.89 184.996 1313.9 184.996 Q1317.95 184.996 1320.15 187.844 Q1322.35 190.668 1322.35 195.899 L1322.35 211.547 L1318.06 211.547 L1318.06 196.038 Q1318.06 192.311 1316.74 190.506 Q1315.43 188.7 1312.72 188.7 Q1309.41 188.7 1307.49 190.899 Q1305.56 193.098 1305.56 196.894 L1305.56 211.547 L1301.28 211.547 L1301.28 196.038 Q1301.28 192.288 1299.96 190.506 Q1298.64 188.7 1295.89 188.7 Q1292.62 188.7 1290.7 190.922 Q1288.78 193.121 1288.78 196.894 L1288.78 211.547 L1284.5 211.547 L1284.5 185.621 L1288.78 185.621 L1288.78 189.649 Q1290.24 187.265 1292.28 186.131 Q1294.31 184.996 1297.12 184.996 Q1299.94 184.996 1301.91 186.432 Q1303.9 187.867 1304.85 190.598 Z" fill="#000000" fill-rule="evenodd" fill-opacity="1" /><path clip-path="url(#clip410)" d="M1334.96 207.658 L1334.96 221.408 L1330.68 221.408 L1330.68 185.621 L1334.96 185.621 L1334.96 189.557 Q1336.3 187.242 1338.34 186.131 Q1340.4 184.996 1343.25 184.996 Q1347.97 184.996 1350.91 188.746 Q1353.87 192.496 1353.87 198.607 Q1353.87 204.719 1350.91 208.468 Q1347.97 212.218 1343.25 212.218 Q1340.4 212.218 1338.34 211.107 Q1336.3 209.973 1334.96 207.658 M1349.45 198.607 Q1349.45 193.908 1347.51 191.246 Q1345.59 188.561 1342.21 188.561 Q1338.83 188.561 1336.88 191.246 Q1334.96 193.908 1334.96 198.607 Q1334.96 203.306 1336.88 205.992 Q1338.83 208.654 1342.21 208.654 Q1345.59 208.654 1347.51 205.992 Q1349.45 203.306 1349.45 198.607 Z" fill="#000000" fill-rule="evenodd" fill-opacity="1" /><path clip-path="url(#clip410)" d="M1360.93 175.529 L1365.19 175.529 L1365.19 211.547 L1360.93 211.547 L1360.93 175.529 Z" fill="#000000" fill-rule="evenodd" fill-opacity="1" /><path clip-path="url(#clip410)" d="M1374.11 185.621 L1378.36 185.621 L1378.36 211.547 L1374.11 211.547 L1374.11 185.621 M1374.11 175.529 L1378.36 175.529 L1378.36 180.922 L1374.11 180.922 L1374.11 175.529 Z" fill="#000000" fill-rule="evenodd" fill-opacity="1" /><path clip-path="url(#clip410)" d="M1405.93 186.617 L1405.93 190.598 Q1404.13 189.603 1402.3 189.117 Q1400.49 188.607 1398.64 188.607 Q1394.5 188.607 1392.21 191.246 Q1389.92 193.862 1389.92 198.607 Q1389.92 203.353 1392.21 205.992 Q1394.5 208.607 1398.64 208.607 Q1400.49 208.607 1402.3 208.121 Q1404.13 207.612 1405.93 206.617 L1405.93 210.552 Q1404.15 211.385 1402.23 211.802 Q1400.33 212.218 1398.18 212.218 Q1392.32 212.218 1388.87 208.538 Q1385.42 204.857 1385.42 198.607 Q1385.42 192.265 1388.9 188.631 Q1392.39 184.996 1398.46 184.996 Q1400.42 184.996 1402.3 185.413 Q1404.17 185.807 1405.93 186.617 Z" fill="#000000" fill-rule="evenodd" fill-opacity="1" /><path clip-path="url(#clip410)" d="M1413.34 185.621 L1417.6 185.621 L1417.6 211.547 L1413.34 211.547 L1413.34 185.621 M1413.34 175.529 L1417.6 175.529 L1417.6 180.922 L1413.34 180.922 L1413.34 175.529 Z" fill="#000000" fill-rule="evenodd" fill-opacity="1" /><path clip-path="url(#clip410)" d="M1430.73 178.26 L1430.73 185.621 L1439.5 185.621 L1439.5 188.932 L1430.73 188.932 L1430.73 203.006 Q1430.73 206.177 1431.58 207.08 Q1432.46 207.982 1435.12 207.982 L1439.5 207.982 L1439.5 211.547 L1435.12 211.547 Q1430.19 211.547 1428.32 209.718 Q1426.44 207.867 1426.44 203.006 L1426.44 188.932 L1423.32 188.932 L1423.32 185.621 L1426.44 185.621 L1426.44 178.26 L1430.73 178.26 Z" fill="#000000" fill-rule="evenodd" fill-opacity="1" /><path clip-path="url(#clip410)" d="M1445.29 176.987 L1467.14 176.987 L1467.14 180.922 L1449.96 180.922 L1449.96 191.154 L1466.42 191.154 L1466.42 195.089 L1449.96 195.089 L1449.96 207.612 L1467.55 207.612 L1467.55 211.547 L1445.29 211.547 L1445.29 176.987 Z" fill="#000000" fill-rule="evenodd" fill-opacity="1" /><path clip-path="url(#clip410)" d="M1474.61 201.316 L1474.61 185.621 L1478.87 185.621 L1478.87 201.154 Q1478.87 204.834 1480.31 206.686 Q1481.74 208.515 1484.61 208.515 Q1488.06 208.515 1490.05 206.316 Q1492.07 204.117 1492.07 200.32 L1492.07 185.621 L1496.33 185.621 L1496.33 211.547 L1492.07 211.547 L1492.07 207.566 Q1490.52 209.927 1488.46 211.084 Q1486.42 212.218 1483.71 212.218 Q1479.24 212.218 1476.93 209.441 Q1474.61 206.663 1474.61 201.316 M1485.33 184.996 L1485.33 184.996 Z" fill="#000000" fill-rule="evenodd" fill-opacity="1" /><path clip-path="url(#clip410)" d="M1505.1 175.529 L1509.36 175.529 L1509.36 211.547 L1505.1 211.547 L1505.1 175.529 Z" fill="#000000" fill-rule="evenodd" fill-opacity="1" /><path clip-path="url(#clip410)" d="M1540.45 197.519 L1540.45 199.603 L1520.86 199.603 Q1521.14 204.001 1523.5 206.316 Q1525.89 208.607 1530.12 208.607 Q1532.58 208.607 1534.87 208.006 Q1537.18 207.404 1539.45 206.2 L1539.45 210.228 Q1537.16 211.2 1534.75 211.709 Q1532.35 212.218 1529.87 212.218 Q1523.66 212.218 1520.03 208.607 Q1516.42 204.996 1516.42 198.839 Q1516.42 192.473 1519.85 188.746 Q1523.29 184.996 1529.13 184.996 Q1534.36 184.996 1537.39 188.376 Q1540.45 191.732 1540.45 197.519 M1536.19 196.269 Q1536.14 192.774 1534.22 190.691 Q1532.32 188.607 1529.17 188.607 Q1525.61 188.607 1523.46 190.621 Q1521.33 192.635 1521 196.293 L1536.19 196.269 Z" fill="#000000" fill-rule="evenodd" fill-opacity="1" /><path clip-path="url(#clip410)" d="M1562.46 189.603 Q1561.74 189.186 1560.89 189.001 Q1560.05 188.793 1559.03 188.793 Q1555.42 188.793 1553.48 191.154 Q1551.56 193.492 1551.56 197.89 L1551.56 211.547 L1547.28 211.547 L1547.28 185.621 L1551.56 185.621 L1551.56 189.649 Q1552.9 187.288 1555.05 186.154 Q1557.21 184.996 1560.28 184.996 Q1560.72 184.996 1561.26 185.066 Q1561.79 185.112 1562.44 185.228 L1562.46 189.603 Z" fill="#000000" fill-rule="evenodd" fill-opacity="1" /><path clip-path="url(#clip410)" d="M1571.79 195.043 L1571.79 207.705 L1579.29 207.705 Q1583.06 207.705 1584.87 206.154 Q1586.7 204.58 1586.7 201.362 Q1586.7 198.121 1584.87 196.594 Q1583.06 195.043 1579.29 195.043 L1571.79 195.043 M1571.79 180.83 L1571.79 191.246 L1578.71 191.246 Q1582.14 191.246 1583.8 189.973 Q1585.49 188.677 1585.49 186.038 Q1585.49 183.422 1583.8 182.126 Q1582.14 180.83 1578.71 180.83 L1571.79 180.83 M1567.11 176.987 L1579.06 176.987 Q1584.41 176.987 1587.3 179.209 Q1590.19 181.432 1590.19 185.529 Q1590.19 188.7 1588.71 190.575 Q1587.23 192.45 1584.36 192.913 Q1587.81 193.654 1589.71 196.015 Q1591.63 198.353 1591.63 201.871 Q1591.63 206.501 1588.48 209.024 Q1585.33 211.547 1579.52 211.547 L1567.11 211.547 L1567.11 176.987 Z" fill="#000000" fill-rule="evenodd" fill-opacity="1" /><path clip-path="url(#clip410)" d="M1611.23 198.515 Q1606.07 198.515 1604.08 199.695 Q1602.09 200.876 1602.09 203.723 Q1602.09 205.992 1603.57 207.334 Q1605.08 208.654 1607.65 208.654 Q1611.19 208.654 1613.32 206.154 Q1615.47 203.631 1615.47 199.464 L1615.47 198.515 L1611.23 198.515 M1619.73 196.756 L1619.73 211.547 L1615.47 211.547 L1615.47 207.612 Q1614.01 209.973 1611.84 211.107 Q1609.66 212.218 1606.51 212.218 Q1602.53 212.218 1600.17 209.996 Q1597.83 207.751 1597.83 204.001 Q1597.83 199.626 1600.75 197.404 Q1603.69 195.182 1609.5 195.182 L1615.47 195.182 L1615.47 194.765 Q1615.47 191.825 1613.53 190.228 Q1611.6 188.607 1608.11 188.607 Q1605.89 188.607 1603.78 189.14 Q1601.67 189.672 1599.73 190.737 L1599.73 186.802 Q1602.07 185.899 1604.27 185.459 Q1606.47 184.996 1608.55 184.996 Q1614.17 184.996 1616.95 187.913 Q1619.73 190.83 1619.73 196.756 Z" fill="#000000" fill-rule="evenodd" fill-opacity="1" /><path clip-path="url(#clip410)" d="M1643.53 189.603 Q1642.81 189.186 1641.95 189.001 Q1641.12 188.793 1640.1 188.793 Q1636.49 188.793 1634.54 191.154 Q1632.62 193.492 1632.62 197.89 L1632.62 211.547 L1628.34 211.547 L1628.34 185.621 L1632.62 185.621 L1632.62 189.649 Q1633.97 187.288 1636.12 186.154 Q1638.27 184.996 1641.35 184.996 Q1641.79 184.996 1642.32 185.066 Q1642.85 185.112 1643.5 185.228 L1643.53 189.603 Z" fill="#000000" fill-rule="evenodd" fill-opacity="1" /><path clip-path="url(#clip410)" d="M1658.78 213.955 Q1656.97 218.584 1655.26 219.996 Q1653.55 221.408 1650.68 221.408 L1647.28 221.408 L1647.28 217.843 L1649.78 217.843 Q1651.53 217.843 1652.51 217.01 Q1653.48 216.177 1654.66 213.075 L1655.42 211.131 L1644.94 185.621 L1649.45 185.621 L1657.55 205.899 L1665.65 185.621 L1670.17 185.621 L1658.78 213.955 Z" fill="#000000" fill-rule="evenodd" fill-opacity="1" /><path clip-path="url(#clip410)" d="M1694.71 186.617 L1694.71 190.598 Q1692.9 189.603 1691.07 189.117 Q1689.27 188.607 1687.41 188.607 Q1683.27 188.607 1680.98 191.246 Q1678.69 193.862 1678.69 198.607 Q1678.69 203.353 1680.98 205.992 Q1683.27 208.607 1687.41 208.607 Q1689.27 208.607 1691.07 208.121 Q1692.9 207.612 1694.71 206.617 L1694.71 210.552 Q1692.92 211.385 1691 211.802 Q1689.1 212.218 1686.95 212.218 Q1681.09 212.218 1677.65 208.538 Q1674.2 204.857 1674.2 198.607 Q1674.2 192.265 1677.67 188.631 Q1681.16 184.996 1687.23 184.996 Q1689.2 184.996 1691.07 185.413 Q1692.95 185.807 1694.71 186.617 Z" fill="#000000" fill-rule="evenodd" fill-opacity="1" /><path clip-path="url(#clip410)" d="M1724.29 197.519 L1724.29 199.603 L1704.71 199.603 Q1704.98 204.001 1707.34 206.316 Q1709.73 208.607 1713.96 208.607 Q1716.42 208.607 1718.71 208.006 Q1721.02 207.404 1723.29 206.2 L1723.29 210.228 Q1721 211.2 1718.59 211.709 Q1716.19 212.218 1713.71 212.218 Q1707.51 212.218 1703.87 208.607 Q1700.26 204.996 1700.26 198.839 Q1700.26 192.473 1703.69 188.746 Q1707.14 184.996 1712.97 184.996 Q1718.2 184.996 1721.23 188.376 Q1724.29 191.732 1724.29 197.519 M1720.03 196.269 Q1719.98 192.774 1718.06 190.691 Q1716.16 188.607 1713.02 188.607 Q1709.45 188.607 1707.3 190.621 Q1705.17 192.635 1704.84 196.293 L1720.03 196.269 Z" fill="#000000" fill-rule="evenodd" fill-opacity="1" /><path clip-path="url(#clip410)" d="M1752.83 195.899 L1752.83 211.547 L1748.57 211.547 L1748.57 196.038 Q1748.57 192.357 1747.14 190.529 Q1745.7 188.7 1742.83 188.7 Q1739.38 188.7 1737.39 190.899 Q1735.4 193.098 1735.4 196.894 L1735.4 211.547 L1731.12 211.547 L1731.12 185.621 L1735.4 185.621 L1735.4 189.649 Q1736.93 187.311 1738.99 186.154 Q1741.07 184.996 1743.78 184.996 Q1748.25 184.996 1750.54 187.774 Q1752.83 190.529 1752.83 195.899 Z" fill="#000000" fill-rule="evenodd" fill-opacity="1" /><path clip-path="url(#clip410)" d="M1765.54 178.26 L1765.54 185.621 L1774.31 185.621 L1774.31 188.932 L1765.54 188.932 L1765.54 203.006 Q1765.54 206.177 1766.39 207.08 Q1767.27 207.982 1769.94 207.982 L1774.31 207.982 L1774.31 211.547 L1769.94 211.547 Q1765.01 211.547 1763.13 209.718 Q1761.26 207.867 1761.26 203.006 L1761.26 188.932 L1758.13 188.932 L1758.13 185.621 L1761.26 185.621 L1761.26 178.26 L1765.54 178.26 Z" fill="#000000" fill-rule="evenodd" fill-opacity="1" /><path clip-path="url(#clip410)" d="M1794.94 189.603 Q1794.22 189.186 1793.36 189.001 Q1792.53 188.793 1791.51 188.793 Q1787.9 188.793 1785.95 191.154 Q1784.03 193.492 1784.03 197.89 L1784.03 211.547 L1779.75 211.547 L1779.75 185.621 L1784.03 185.621 L1784.03 189.649 Q1785.38 187.288 1787.53 186.154 Q1789.68 184.996 1792.76 184.996 Q1793.2 184.996 1793.73 185.066 Q1794.27 185.112 1794.91 185.228 L1794.94 189.603 Z" fill="#000000" fill-rule="evenodd" fill-opacity="1" /><path clip-path="url(#clip410)" d="M1799.4 185.621 L1803.66 185.621 L1803.66 211.547 L1799.4 211.547 L1799.4 185.621 M1799.4 175.529 L1803.66 175.529 L1803.66 180.922 L1799.4 180.922 L1799.4 175.529 Z" fill="#000000" fill-rule="evenodd" fill-opacity="1" /><path clip-path="url(#clip410)" d="M1831.23 186.617 L1831.23 190.598 Q1829.43 189.603 1827.6 189.117 Q1825.79 188.607 1823.94 188.607 Q1819.8 188.607 1817.51 191.246 Q1815.21 193.862 1815.21 198.607 Q1815.21 203.353 1817.51 205.992 Q1819.8 208.607 1823.94 208.607 Q1825.79 208.607 1827.6 208.121 Q1829.43 207.612 1831.23 206.617 L1831.23 210.552 Q1829.45 211.385 1827.53 211.802 Q1825.63 212.218 1823.48 212.218 Q1817.62 212.218 1814.17 208.538 Q1810.72 204.857 1810.72 198.607 Q1810.72 192.265 1814.2 188.631 Q1817.69 184.996 1823.76 184.996 Q1825.72 184.996 1827.6 185.413 Q1829.47 185.807 1831.23 186.617 Z" fill="#000000" fill-rule="evenodd" fill-opacity="1" /><path clip-path="url(#clip410)" d="M1838.83 176.987 L1860.68 176.987 L1860.68 180.922 L1843.5 180.922 L1843.5 191.154 L1859.96 191.154 L1859.96 195.089 L1843.5 195.089 L1843.5 207.612 L1861.09 207.612 L1861.09 211.547 L1838.83 211.547 L1838.83 176.987 Z" fill="#000000" fill-rule="evenodd" fill-opacity="1" /><path clip-path="url(#clip410)" d="M1890.14 185.621 L1880.77 198.237 L1890.63 211.547 L1885.61 211.547 L1878.06 201.362 L1870.51 211.547 L1865.49 211.547 L1875.56 197.982 L1866.35 185.621 L1871.37 185.621 L1878.25 194.857 L1885.12 185.621 L1890.14 185.621 Z" fill="#000000" fill-rule="evenodd" fill-opacity="1" /><path clip-path="url(#clip410)" d="M1900.86 178.26 L1900.86 185.621 L1909.63 185.621 L1909.63 188.932 L1900.86 188.932 L1900.86 203.006 Q1900.86 206.177 1901.72 207.08 Q1902.6 207.982 1905.26 207.982 L1909.63 207.982 L1909.63 211.547 L1905.26 211.547 Q1900.33 211.547 1898.45 209.718 Q1896.58 207.867 1896.58 203.006 L1896.58 188.932 L1893.45 188.932 L1893.45 185.621 L1896.58 185.621 L1896.58 178.26 L1900.86 178.26 Z" fill="#000000" fill-rule="evenodd" fill-opacity="1" /><path clip-path="url(#clip410)" d="M1930.26 189.603 Q1929.54 189.186 1928.69 189.001 Q1927.85 188.793 1926.83 188.793 Q1923.22 188.793 1921.28 191.154 Q1919.36 193.492 1919.36 197.89 L1919.36 211.547 L1915.07 211.547 L1915.07 185.621 L1919.36 185.621 L1919.36 189.649 Q1920.7 187.288 1922.85 186.154 Q1925.01 184.996 1928.08 184.996 Q1928.52 184.996 1929.06 185.066 Q1929.59 185.112 1930.24 185.228 L1930.26 189.603 Z" fill="#000000" fill-rule="evenodd" fill-opacity="1" /><path clip-path="url(#clip410)" d="M1946.51 198.515 Q1941.35 198.515 1939.36 199.695 Q1937.37 200.876 1937.37 203.723 Q1937.37 205.992 1938.85 207.334 Q1940.35 208.654 1942.92 208.654 Q1946.46 208.654 1948.59 206.154 Q1950.75 203.631 1950.75 199.464 L1950.75 198.515 L1946.51 198.515 M1955 196.756 L1955 211.547 L1950.75 211.547 L1950.75 207.612 Q1949.29 209.973 1947.11 211.107 Q1944.94 212.218 1941.79 212.218 Q1937.81 212.218 1935.44 209.996 Q1933.11 207.751 1933.11 204.001 Q1933.11 199.626 1936.02 197.404 Q1938.96 195.182 1944.77 195.182 L1950.75 195.182 L1950.75 194.765 Q1950.75 191.825 1948.8 190.228 Q1946.88 188.607 1943.38 188.607 Q1941.16 188.607 1939.06 189.14 Q1936.95 189.672 1935.01 190.737 L1935.01 186.802 Q1937.34 185.899 1939.54 185.459 Q1941.74 184.996 1943.82 184.996 Q1949.45 184.996 1952.23 187.913 Q1955 190.83 1955 196.756 Z" fill="#000000" fill-rule="evenodd" fill-opacity="1" /><path clip-path="url(#clip410)" d="M1967.9 207.658 L1967.9 221.408 L1963.62 221.408 L1963.62 185.621 L1967.9 185.621 L1967.9 189.557 Q1969.24 187.242 1971.28 186.131 Q1973.34 184.996 1976.19 184.996 Q1980.91 184.996 1983.85 188.746 Q1986.81 192.496 1986.81 198.607 Q1986.81 204.719 1983.85 208.468 Q1980.91 212.218 1976.19 212.218 Q1973.34 212.218 1971.28 211.107 Q1969.24 209.973 1967.9 207.658 M1982.39 198.607 Q1982.39 193.908 1980.44 191.246 Q1978.52 188.561 1975.14 188.561 Q1971.76 188.561 1969.82 191.246 Q1967.9 193.908 1967.9 198.607 Q1967.9 203.306 1969.82 205.992 Q1971.76 208.654 1975.14 208.654 Q1978.52 208.654 1980.44 205.992 Q1982.39 203.306 1982.39 198.607 Z" fill="#000000" fill-rule="evenodd" fill-opacity="1" /><path clip-path="url(#clip410)" d="M2003.92 188.607 Q2000.49 188.607 1998.5 191.293 Q1996.51 193.955 1996.51 198.607 Q1996.51 203.26 1998.48 205.945 Q2000.47 208.607 2003.92 208.607 Q2007.32 208.607 2009.31 205.922 Q2011.3 203.237 2011.3 198.607 Q2011.3 194.001 2009.31 191.316 Q2007.32 188.607 2003.92 188.607 M2003.92 184.996 Q2009.47 184.996 2012.64 188.607 Q2015.81 192.219 2015.81 198.607 Q2015.81 204.973 2012.64 208.607 Q2009.47 212.218 2003.92 212.218 Q1998.34 212.218 1995.17 208.607 Q1992.02 204.973 1992.02 198.607 Q1992.02 192.219 1995.17 188.607 Q1998.34 184.996 2003.92 184.996 Z" fill="#000000" fill-rule="evenodd" fill-opacity="1" /><path clip-path="url(#clip410)" d="M2022.88 175.529 L2027.13 175.529 L2027.13 211.547 L2022.88 211.547 L2022.88 175.529 Z" fill="#000000" fill-rule="evenodd" fill-opacity="1" /><path clip-path="url(#clip410)" d="M2047.83 198.515 Q2042.67 198.515 2040.68 199.695 Q2038.69 200.876 2038.69 203.723 Q2038.69 205.992 2040.17 207.334 Q2041.67 208.654 2044.24 208.654 Q2047.78 208.654 2049.91 206.154 Q2052.06 203.631 2052.06 199.464 L2052.06 198.515 L2047.83 198.515 M2056.32 196.756 L2056.32 211.547 L2052.06 211.547 L2052.06 207.612 Q2050.61 209.973 2048.43 211.107 Q2046.25 212.218 2043.11 212.218 Q2039.12 212.218 2036.76 209.996 Q2034.43 207.751 2034.43 204.001 Q2034.43 199.626 2037.34 197.404 Q2040.28 195.182 2046.09 195.182 L2052.06 195.182 L2052.06 194.765 Q2052.06 191.825 2050.12 190.228 Q2048.2 188.607 2044.7 188.607 Q2042.48 188.607 2040.37 189.14 Q2038.27 189.672 2036.32 190.737 L2036.32 186.802 Q2038.66 185.899 2040.86 185.459 Q2043.06 184.996 2045.14 184.996 Q2050.77 184.996 2053.55 187.913 Q2056.32 190.83 2056.32 196.756 Z" fill="#000000" fill-rule="evenodd" fill-opacity="1" /><path clip-path="url(#clip410)" d="M2069.31 178.26 L2069.31 185.621 L2078.08 185.621 L2078.08 188.932 L2069.31 188.932 L2069.31 203.006 Q2069.31 206.177 2070.17 207.08 Q2071.05 207.982 2073.71 207.982 L2078.08 207.982 L2078.08 211.547 L2073.71 211.547 Q2068.78 211.547 2066.9 209.718 Q2065.03 207.867 2065.03 203.006 L2065.03 188.932 L2061.9 188.932 L2061.9 185.621 L2065.03 185.621 L2065.03 178.26 L2069.31 178.26 Z" fill="#000000" fill-rule="evenodd" fill-opacity="1" /><path clip-path="url(#clip410)" d="M2083.68 185.621 L2087.94 185.621 L2087.94 211.547 L2083.68 211.547 L2083.68 185.621 M2083.68 175.529 L2087.94 175.529 L2087.94 180.922 L2083.68 180.922 L2083.68 175.529 Z" fill="#000000" fill-rule="evenodd" fill-opacity="1" /><path clip-path="url(#clip410)" d="M2106.9 188.607 Q2103.48 188.607 2101.49 191.293 Q2099.49 193.955 2099.49 198.607 Q2099.49 203.26 2101.46 205.945 Q2103.45 208.607 2106.9 208.607 Q2110.31 208.607 2112.3 205.922 Q2114.29 203.237 2114.29 198.607 Q2114.29 194.001 2112.3 191.316 Q2110.31 188.607 2106.9 188.607 M2106.9 184.996 Q2112.46 184.996 2115.63 188.607 Q2118.8 192.219 2118.8 198.607 Q2118.8 204.973 2115.63 208.607 Q2112.46 212.218 2106.9 212.218 Q2101.32 212.218 2098.15 208.607 Q2095 204.973 2095 198.607 Q2095 192.219 2098.15 188.607 Q2101.32 184.996 2106.9 184.996 Z" fill="#000000" fill-rule="evenodd" fill-opacity="1" /><path clip-path="url(#clip410)" d="M2147.41 195.899 L2147.41 211.547 L2143.15 211.547 L2143.15 196.038 Q2143.15 192.357 2141.72 190.529 Q2140.28 188.7 2137.41 188.7 Q2133.96 188.7 2131.97 190.899 Q2129.98 193.098 2129.98 196.894 L2129.98 211.547 L2125.7 211.547 L2125.7 185.621 L2129.98 185.621 L2129.98 189.649 Q2131.51 187.311 2133.57 186.154 Q2135.65 184.996 2138.36 184.996 Q2142.83 184.996 2145.12 187.774 Q2147.41 190.529 2147.41 195.899 Z" fill="#000000" fill-rule="evenodd" fill-opacity="1" /><polyline clip-path="url(#clip410)" style="stroke:#3da44d; stroke-linecap:butt; stroke-linejoin:round; stroke-width:4; stroke-opacity:1; fill:none" points="
  1117.78,246.107 1249,246.107 
  "/>
<line clip-path="url(#clip410)" x1="1183.39" y1="246.107" x2="1183.39" y2="220.507" style="stroke:#3da44d; stroke-width:4.9152; stroke-opacity:1"/>
<line clip-path="url(#clip410)" x1="1183.39" y1="246.107" x2="1157.79" y2="246.107" style="stroke:#3da44d; stroke-width:4.9152; stroke-opacity:1"/>
<line clip-path="url(#clip410)" x1="1183.39" y1="246.107" x2="1183.39" y2="271.707" style="stroke:#3da44d; stroke-width:4.9152; stroke-opacity:1"/>
<line clip-path="url(#clip410)" x1="1183.39" y1="246.107" x2="1208.99" y2="246.107" style="stroke:#3da44d; stroke-width:4.9152; stroke-opacity:1"/>
<path clip-path="url(#clip410)" d="M1270.87 228.827 L1275.54 228.827 L1275.54 263.387 L1270.87 263.387 L1270.87 228.827 Z" fill="#000000" fill-rule="evenodd" fill-opacity="1" /><path clip-path="url(#clip410)" d="M1304.85 242.438 Q1306.44 239.568 1308.67 238.202 Q1310.89 236.836 1313.9 236.836 Q1317.95 236.836 1320.15 239.684 Q1322.35 242.508 1322.35 247.739 L1322.35 263.387 L1318.06 263.387 L1318.06 247.878 Q1318.06 244.151 1316.74 242.346 Q1315.43 240.54 1312.72 240.54 Q1309.41 240.54 1307.49 242.739 Q1305.56 244.938 1305.56 248.734 L1305.56 263.387 L1301.28 263.387 L1301.28 247.878 Q1301.28 244.128 1299.96 242.346 Q1298.64 240.54 1295.89 240.54 Q1292.62 240.54 1290.7 242.762 Q1288.78 244.961 1288.78 248.734 L1288.78 263.387 L1284.5 263.387 L1284.5 237.461 L1288.78 237.461 L1288.78 241.489 Q1290.24 239.105 1292.28 237.971 Q1294.31 236.836 1297.12 236.836 Q1299.94 236.836 1301.91 238.272 Q1303.9 239.707 1304.85 242.438 Z" fill="#000000" fill-rule="evenodd" fill-opacity="1" /><path clip-path="url(#clip410)" d="M1334.96 259.498 L1334.96 273.248 L1330.68 273.248 L1330.68 237.461 L1334.96 237.461 L1334.96 241.397 Q1336.3 239.082 1338.34 237.971 Q1340.4 236.836 1343.25 236.836 Q1347.97 236.836 1350.91 240.586 Q1353.87 244.336 1353.87 250.447 Q1353.87 256.559 1350.91 260.308 Q1347.97 264.058 1343.25 264.058 Q1340.4 264.058 1338.34 262.947 Q1336.3 261.813 1334.96 259.498 M1349.45 250.447 Q1349.45 245.748 1347.51 243.086 Q1345.59 240.401 1342.21 240.401 Q1338.83 240.401 1336.88 243.086 Q1334.96 245.748 1334.96 250.447 Q1334.96 255.146 1336.88 257.832 Q1338.83 260.494 1342.21 260.494 Q1345.59 260.494 1347.51 257.832 Q1349.45 255.146 1349.45 250.447 Z" fill="#000000" fill-rule="evenodd" fill-opacity="1" /><path clip-path="url(#clip410)" d="M1360.93 227.369 L1365.19 227.369 L1365.19 263.387 L1360.93 263.387 L1360.93 227.369 Z" fill="#000000" fill-rule="evenodd" fill-opacity="1" /><path clip-path="url(#clip410)" d="M1374.11 237.461 L1378.36 237.461 L1378.36 263.387 L1374.11 263.387 L1374.11 237.461 M1374.11 227.369 L1378.36 227.369 L1378.36 232.762 L1374.11 232.762 L1374.11 227.369 Z" fill="#000000" fill-rule="evenodd" fill-opacity="1" /><path clip-path="url(#clip410)" d="M1405.93 238.457 L1405.93 242.438 Q1404.13 241.443 1402.3 240.957 Q1400.49 240.447 1398.64 240.447 Q1394.5 240.447 1392.21 243.086 Q1389.92 245.702 1389.92 250.447 Q1389.92 255.193 1392.21 257.832 Q1394.5 260.447 1398.64 260.447 Q1400.49 260.447 1402.3 259.961 Q1404.13 259.452 1405.93 258.457 L1405.93 262.392 Q1404.15 263.225 1402.23 263.642 Q1400.33 264.058 1398.18 264.058 Q1392.32 264.058 1388.87 260.378 Q1385.42 256.697 1385.42 250.447 Q1385.42 244.105 1388.9 240.471 Q1392.39 236.836 1398.46 236.836 Q1400.42 236.836 1402.3 237.253 Q1404.17 237.647 1405.93 238.457 Z" fill="#000000" fill-rule="evenodd" fill-opacity="1" /><path clip-path="url(#clip410)" d="M1413.34 237.461 L1417.6 237.461 L1417.6 263.387 L1413.34 263.387 L1413.34 237.461 M1413.34 227.369 L1417.6 227.369 L1417.6 232.762 L1413.34 232.762 L1413.34 227.369 Z" fill="#000000" fill-rule="evenodd" fill-opacity="1" /><path clip-path="url(#clip410)" d="M1430.73 230.1 L1430.73 237.461 L1439.5 237.461 L1439.5 240.772 L1430.73 240.772 L1430.73 254.846 Q1430.73 258.017 1431.58 258.92 Q1432.46 259.822 1435.12 259.822 L1439.5 259.822 L1439.5 263.387 L1435.12 263.387 Q1430.19 263.387 1428.32 261.558 Q1426.44 259.707 1426.44 254.846 L1426.44 240.772 L1423.32 240.772 L1423.32 237.461 L1426.44 237.461 L1426.44 230.1 L1430.73 230.1 Z" fill="#000000" fill-rule="evenodd" fill-opacity="1" /><path clip-path="url(#clip410)" d="M1445.29 228.827 L1449.96 228.827 L1449.96 242.994 L1466.95 242.994 L1466.95 228.827 L1471.63 228.827 L1471.63 263.387 L1466.95 263.387 L1466.95 246.929 L1449.96 246.929 L1449.96 263.387 L1445.29 263.387 L1445.29 228.827 Z" fill="#000000" fill-rule="evenodd" fill-opacity="1" /><path clip-path="url(#clip410)" d="M1492.53 250.355 Q1487.37 250.355 1485.38 251.535 Q1483.39 252.716 1483.39 255.563 Q1483.39 257.832 1484.87 259.174 Q1486.37 260.494 1488.94 260.494 Q1492.48 260.494 1494.61 257.994 Q1496.77 255.471 1496.77 251.304 L1496.77 250.355 L1492.53 250.355 M1501.03 248.596 L1501.03 263.387 L1496.77 263.387 L1496.77 259.452 Q1495.31 261.813 1493.13 262.947 Q1490.96 264.058 1487.81 264.058 Q1483.83 264.058 1481.47 261.836 Q1479.13 259.591 1479.13 255.841 Q1479.13 251.466 1482.04 249.244 Q1484.98 247.022 1490.79 247.022 L1496.77 247.022 L1496.77 246.605 Q1496.77 243.665 1494.82 242.068 Q1492.9 240.447 1489.41 240.447 Q1487.18 240.447 1485.08 240.98 Q1482.97 241.512 1481.03 242.577 L1481.03 238.642 Q1483.36 237.739 1485.56 237.299 Q1487.76 236.836 1489.85 236.836 Q1495.47 236.836 1498.25 239.753 Q1501.03 242.67 1501.03 248.596 Z" fill="#000000" fill-rule="evenodd" fill-opacity="1" /><path clip-path="url(#clip410)" d="M1509.8 237.461 L1514.06 237.461 L1514.06 263.387 L1509.8 263.387 L1509.8 237.461 M1509.8 227.369 L1514.06 227.369 L1514.06 232.762 L1509.8 232.762 L1509.8 227.369 Z" fill="#000000" fill-rule="evenodd" fill-opacity="1" /><path clip-path="url(#clip410)" d="M1537.99 241.443 Q1537.28 241.026 1536.42 240.841 Q1535.59 240.633 1534.57 240.633 Q1530.96 240.633 1529.01 242.994 Q1527.09 245.332 1527.09 249.73 L1527.09 263.387 L1522.81 263.387 L1522.81 237.461 L1527.09 237.461 L1527.09 241.489 Q1528.43 239.128 1530.59 237.994 Q1532.74 236.836 1535.82 236.836 Q1536.26 236.836 1536.79 236.906 Q1537.32 236.952 1537.97 237.068 L1537.99 241.443 Z" fill="#000000" fill-rule="evenodd" fill-opacity="1" /><path clip-path="url(#clip410)" d="M1563.6 249.359 L1563.6 251.443 L1544.01 251.443 Q1544.29 255.841 1546.65 258.156 Q1549.03 260.447 1553.27 260.447 Q1555.72 260.447 1558.02 259.846 Q1560.33 259.244 1562.6 258.04 L1562.6 262.068 Q1560.31 263.04 1557.9 263.549 Q1555.49 264.058 1553.02 264.058 Q1546.81 264.058 1543.18 260.447 Q1539.57 256.836 1539.57 250.679 Q1539.57 244.313 1542.99 240.586 Q1546.44 236.836 1552.28 236.836 Q1557.51 236.836 1560.54 240.216 Q1563.6 243.572 1563.6 249.359 M1559.34 248.109 Q1559.29 244.614 1557.37 242.531 Q1555.47 240.447 1552.32 240.447 Q1548.76 240.447 1546.6 242.461 Q1544.47 244.475 1544.15 248.133 L1559.34 248.109 Z" fill="#000000" fill-rule="evenodd" fill-opacity="1" /><path clip-path="url(#clip410)" d="M1585.61 241.443 Q1584.89 241.026 1584.03 240.841 Q1583.2 240.633 1582.18 240.633 Q1578.57 240.633 1576.63 242.994 Q1574.71 245.332 1574.71 249.73 L1574.71 263.387 L1570.42 263.387 L1570.42 237.461 L1574.71 237.461 L1574.71 241.489 Q1576.05 239.128 1578.2 237.994 Q1580.35 236.836 1583.43 236.836 Q1583.87 236.836 1584.41 236.906 Q1584.94 236.952 1585.59 237.068 L1585.61 241.443 Z" fill="#000000" fill-rule="evenodd" fill-opacity="1" /><path clip-path="url(#clip410)" d="M1587.18 228.827 L1591.91 228.827 L1599.17 258.04 L1606.42 228.827 L1611.67 228.827 L1618.94 258.04 L1626.19 228.827 L1630.93 228.827 L1622.25 263.387 L1616.37 263.387 L1609.08 233.387 L1601.72 263.387 L1595.84 263.387 L1587.18 228.827 Z" fill="#000000" fill-rule="evenodd" fill-opacity="1" /><path clip-path="url(#clip410)" d="M1645.7 250.355 Q1640.54 250.355 1638.55 251.535 Q1636.56 252.716 1636.56 255.563 Q1636.56 257.832 1638.04 259.174 Q1639.54 260.494 1642.11 260.494 Q1645.65 260.494 1647.78 257.994 Q1649.94 255.471 1649.94 251.304 L1649.94 250.355 L1645.7 250.355 M1654.2 248.596 L1654.2 263.387 L1649.94 263.387 L1649.94 259.452 Q1648.48 261.813 1646.3 262.947 Q1644.13 264.058 1640.98 264.058 Q1637 264.058 1634.64 261.836 Q1632.3 259.591 1632.3 255.841 Q1632.3 251.466 1635.22 249.244 Q1638.15 247.022 1643.96 247.022 L1649.94 247.022 L1649.94 246.605 Q1649.94 243.665 1647.99 242.068 Q1646.07 240.447 1642.58 240.447 Q1640.35 240.447 1638.25 240.98 Q1636.14 241.512 1634.2 242.577 L1634.2 238.642 Q1636.53 237.739 1638.73 237.299 Q1640.93 236.836 1643.02 236.836 Q1648.64 236.836 1651.42 239.753 Q1654.2 242.67 1654.2 248.596 Z" fill="#000000" fill-rule="evenodd" fill-opacity="1" /><path clip-path="url(#clip410)" d="M1684.52 247.739 L1684.52 263.387 L1680.26 263.387 L1680.26 247.878 Q1680.26 244.197 1678.83 242.369 Q1677.39 240.54 1674.52 240.54 Q1671.07 240.54 1669.08 242.739 Q1667.09 244.938 1667.09 248.734 L1667.09 263.387 L1662.81 263.387 L1662.81 237.461 L1667.09 237.461 L1667.09 241.489 Q1668.62 239.151 1670.68 237.994 Q1672.76 236.836 1675.47 236.836 Q1679.94 236.836 1682.23 239.614 Q1684.52 242.369 1684.52 247.739 Z" fill="#000000" fill-rule="evenodd" fill-opacity="1" /><path clip-path="url(#clip410)" d="M1714.57 247.739 L1714.57 263.387 L1710.31 263.387 L1710.31 247.878 Q1710.31 244.197 1708.87 242.369 Q1707.44 240.54 1704.57 240.54 Q1701.12 240.54 1699.13 242.739 Q1697.14 244.938 1697.14 248.734 L1697.14 263.387 L1692.85 263.387 L1692.85 237.461 L1697.14 237.461 L1697.14 241.489 Q1698.66 239.151 1700.72 237.994 Q1702.81 236.836 1705.52 236.836 Q1709.98 236.836 1712.27 239.614 Q1714.57 242.369 1714.57 247.739 Z" fill="#000000" fill-rule="evenodd" fill-opacity="1" /><path clip-path="url(#clip410)" d="M1745.24 249.359 L1745.24 251.443 L1725.65 251.443 Q1725.93 255.841 1728.29 258.156 Q1730.68 260.447 1734.91 260.447 Q1737.37 260.447 1739.66 259.846 Q1741.97 259.244 1744.24 258.04 L1744.24 262.068 Q1741.95 263.04 1739.54 263.549 Q1737.14 264.058 1734.66 264.058 Q1728.46 264.058 1724.82 260.447 Q1721.21 256.836 1721.21 250.679 Q1721.21 244.313 1724.64 240.586 Q1728.08 236.836 1733.92 236.836 Q1739.15 236.836 1742.18 240.216 Q1745.24 243.572 1745.24 249.359 M1740.98 248.109 Q1740.93 244.614 1739.01 242.531 Q1737.11 240.447 1733.96 240.447 Q1730.4 240.447 1728.25 242.461 Q1726.12 244.475 1725.79 248.133 L1740.98 248.109 Z" fill="#000000" fill-rule="evenodd" fill-opacity="1" /><path clip-path="url(#clip410)" d="M1767.25 241.443 Q1766.53 241.026 1765.68 240.841 Q1764.84 240.633 1763.83 240.633 Q1760.21 240.633 1758.27 242.994 Q1756.35 245.332 1756.35 249.73 L1756.35 263.387 L1752.07 263.387 L1752.07 237.461 L1756.35 237.461 L1756.35 241.489 Q1757.69 239.128 1759.84 237.994 Q1762 236.836 1765.08 236.836 Q1765.52 236.836 1766.05 236.906 Q1766.58 236.952 1767.23 237.068 L1767.25 241.443 Z" fill="#000000" fill-rule="evenodd" fill-opacity="1" /><path clip-path="url(#clip410)" d="M1771.9 228.827 L1793.76 228.827 L1793.76 232.762 L1776.58 232.762 L1776.58 242.994 L1793.04 242.994 L1793.04 246.929 L1776.58 246.929 L1776.58 259.452 L1794.17 259.452 L1794.17 263.387 L1771.9 263.387 L1771.9 228.827 Z" fill="#000000" fill-rule="evenodd" fill-opacity="1" /><path clip-path="url(#clip410)" d="M1823.22 237.461 L1813.85 250.077 L1823.71 263.387 L1818.69 263.387 L1811.14 253.202 L1803.59 263.387 L1798.57 263.387 L1808.64 249.822 L1799.43 237.461 L1804.45 237.461 L1811.33 246.697 L1818.2 237.461 L1823.22 237.461 Z" fill="#000000" fill-rule="evenodd" fill-opacity="1" /><path clip-path="url(#clip410)" d="M1833.94 230.1 L1833.94 237.461 L1842.71 237.461 L1842.71 240.772 L1833.94 240.772 L1833.94 254.846 Q1833.94 258.017 1834.8 258.92 Q1835.68 259.822 1838.34 259.822 L1842.71 259.822 L1842.71 263.387 L1838.34 263.387 Q1833.41 263.387 1831.53 261.558 Q1829.66 259.707 1829.66 254.846 L1829.66 240.772 L1826.53 240.772 L1826.53 237.461 L1829.66 237.461 L1829.66 230.1 L1833.94 230.1 Z" fill="#000000" fill-rule="evenodd" fill-opacity="1" /><path clip-path="url(#clip410)" d="M1863.34 241.443 Q1862.62 241.026 1861.76 240.841 Q1860.93 240.633 1859.91 240.633 Q1856.3 240.633 1854.36 242.994 Q1852.44 245.332 1852.44 249.73 L1852.44 263.387 L1848.15 263.387 L1848.15 237.461 L1852.44 237.461 L1852.44 241.489 Q1853.78 239.128 1855.93 237.994 Q1858.08 236.836 1861.16 236.836 Q1861.6 236.836 1862.14 236.906 Q1862.67 236.952 1863.32 237.068 L1863.34 241.443 Z" fill="#000000" fill-rule="evenodd" fill-opacity="1" /><path clip-path="url(#clip410)" d="M1879.59 250.355 Q1874.43 250.355 1872.44 251.535 Q1870.45 252.716 1870.45 255.563 Q1870.45 257.832 1871.93 259.174 Q1873.43 260.494 1876 260.494 Q1879.54 260.494 1881.67 257.994 Q1883.82 255.471 1883.82 251.304 L1883.82 250.355 L1879.59 250.355 M1888.08 248.596 L1888.08 263.387 L1883.82 263.387 L1883.82 259.452 Q1882.37 261.813 1880.19 262.947 Q1878.01 264.058 1874.87 264.058 Q1870.89 264.058 1868.52 261.836 Q1866.19 259.591 1866.19 255.841 Q1866.19 251.466 1869.1 249.244 Q1872.04 247.022 1877.85 247.022 L1883.82 247.022 L1883.82 246.605 Q1883.82 243.665 1881.88 242.068 Q1879.96 240.447 1876.46 240.447 Q1874.24 240.447 1872.14 240.98 Q1870.03 241.512 1868.08 242.577 L1868.08 238.642 Q1870.42 237.739 1872.62 237.299 Q1874.82 236.836 1876.9 236.836 Q1882.53 236.836 1885.31 239.753 Q1888.08 242.67 1888.08 248.596 Z" fill="#000000" fill-rule="evenodd" fill-opacity="1" /><path clip-path="url(#clip410)" d="M1900.98 259.498 L1900.98 273.248 L1896.7 273.248 L1896.7 237.461 L1900.98 237.461 L1900.98 241.397 Q1902.32 239.082 1904.36 237.971 Q1906.42 236.836 1909.26 236.836 Q1913.99 236.836 1916.93 240.586 Q1919.89 244.336 1919.89 250.447 Q1919.89 256.559 1916.93 260.308 Q1913.99 264.058 1909.26 264.058 Q1906.42 264.058 1904.36 262.947 Q1902.32 261.813 1900.98 259.498 M1915.47 250.447 Q1915.47 245.748 1913.52 243.086 Q1911.6 240.401 1908.22 240.401 Q1904.84 240.401 1902.9 243.086 Q1900.98 245.748 1900.98 250.447 Q1900.98 255.146 1902.9 257.832 Q1904.84 260.494 1908.22 260.494 Q1911.6 260.494 1913.52 257.832 Q1915.47 255.146 1915.47 250.447 Z" fill="#000000" fill-rule="evenodd" fill-opacity="1" /><path clip-path="url(#clip410)" d="M1937 240.447 Q1933.57 240.447 1931.58 243.133 Q1929.59 245.795 1929.59 250.447 Q1929.59 255.1 1931.56 257.785 Q1933.55 260.447 1937 260.447 Q1940.4 260.447 1942.39 257.762 Q1944.38 255.077 1944.38 250.447 Q1944.38 245.841 1942.39 243.156 Q1940.4 240.447 1937 240.447 M1937 236.836 Q1942.55 236.836 1945.72 240.447 Q1948.89 244.059 1948.89 250.447 Q1948.89 256.813 1945.72 260.447 Q1942.55 264.058 1937 264.058 Q1931.42 264.058 1928.25 260.447 Q1925.1 256.813 1925.1 250.447 Q1925.1 244.059 1928.25 240.447 Q1931.42 236.836 1937 236.836 Z" fill="#000000" fill-rule="evenodd" fill-opacity="1" /><path clip-path="url(#clip410)" d="M1955.95 227.369 L1960.21 227.369 L1960.21 263.387 L1955.95 263.387 L1955.95 227.369 Z" fill="#000000" fill-rule="evenodd" fill-opacity="1" /><path clip-path="url(#clip410)" d="M1980.91 250.355 Q1975.75 250.355 1973.75 251.535 Q1971.76 252.716 1971.76 255.563 Q1971.76 257.832 1973.25 259.174 Q1974.75 260.494 1977.32 260.494 Q1980.86 260.494 1982.99 257.994 Q1985.14 255.471 1985.14 251.304 L1985.14 250.355 L1980.91 250.355 M1989.4 248.596 L1989.4 263.387 L1985.14 263.387 L1985.14 259.452 Q1983.69 261.813 1981.51 262.947 Q1979.33 264.058 1976.19 264.058 Q1972.2 264.058 1969.84 261.836 Q1967.5 259.591 1967.5 255.841 Q1967.5 251.466 1970.42 249.244 Q1973.36 247.022 1979.17 247.022 L1985.14 247.022 L1985.14 246.605 Q1985.14 243.665 1983.2 242.068 Q1981.28 240.447 1977.78 240.447 Q1975.56 240.447 1973.45 240.98 Q1971.35 241.512 1969.4 242.577 L1969.4 238.642 Q1971.74 237.739 1973.94 237.299 Q1976.14 236.836 1978.22 236.836 Q1983.85 236.836 1986.63 239.753 Q1989.4 242.67 1989.4 248.596 Z" fill="#000000" fill-rule="evenodd" fill-opacity="1" /><path clip-path="url(#clip410)" d="M2002.39 230.1 L2002.39 237.461 L2011.16 237.461 L2011.16 240.772 L2002.39 240.772 L2002.39 254.846 Q2002.39 258.017 2003.25 258.92 Q2004.13 259.822 2006.79 259.822 L2011.16 259.822 L2011.16 263.387 L2006.79 263.387 Q2001.86 263.387 1999.98 261.558 Q1998.11 259.707 1998.11 254.846 L1998.11 240.772 L1994.98 240.772 L1994.98 237.461 L1998.11 237.461 L1998.11 230.1 L2002.39 230.1 Z" fill="#000000" fill-rule="evenodd" fill-opacity="1" /><path clip-path="url(#clip410)" d="M2016.76 237.461 L2021.02 237.461 L2021.02 263.387 L2016.76 263.387 L2016.76 237.461 M2016.76 227.369 L2021.02 227.369 L2021.02 232.762 L2016.76 232.762 L2016.76 227.369 Z" fill="#000000" fill-rule="evenodd" fill-opacity="1" /><path clip-path="url(#clip410)" d="M2039.98 240.447 Q2036.56 240.447 2034.56 243.133 Q2032.57 245.795 2032.57 250.447 Q2032.57 255.1 2034.54 257.785 Q2036.53 260.447 2039.98 260.447 Q2043.38 260.447 2045.37 257.762 Q2047.37 255.077 2047.37 250.447 Q2047.37 245.841 2045.37 243.156 Q2043.38 240.447 2039.98 240.447 M2039.98 236.836 Q2045.54 236.836 2048.71 240.447 Q2051.88 244.059 2051.88 250.447 Q2051.88 256.813 2048.71 260.447 Q2045.54 264.058 2039.98 264.058 Q2034.4 264.058 2031.23 260.447 Q2028.08 256.813 2028.08 250.447 Q2028.08 244.059 2031.23 240.447 Q2034.4 236.836 2039.98 236.836 Z" fill="#000000" fill-rule="evenodd" fill-opacity="1" /><path clip-path="url(#clip410)" d="M2080.49 247.739 L2080.49 263.387 L2076.23 263.387 L2076.23 247.878 Q2076.23 244.197 2074.8 242.369 Q2073.36 240.54 2070.49 240.54 Q2067.04 240.54 2065.05 242.739 Q2063.06 244.938 2063.06 248.734 L2063.06 263.387 L2058.78 263.387 L2058.78 237.461 L2063.06 237.461 L2063.06 241.489 Q2064.59 239.151 2066.65 237.994 Q2068.73 236.836 2071.44 236.836 Q2075.91 236.836 2078.2 239.614 Q2080.49 242.369 2080.49 247.739 Z" fill="#000000" fill-rule="evenodd" fill-opacity="1" /></svg>
